<?xml version="1.0" encoding="utf-8"?>
<!-- $Source: /home/bbennett/pass/archive/DicomXml/docbook/part14/figures/PS3.14_D.3-3.svg,v $ -->
<!-- $Date: 2014/05/09 13:15:42 $ -->
<!-- $Revision: 1.1 $ -->

<!DOCTYPE svg PUBLIC "-//W3C//DTD SVG 1.1//EN" "http://www.w3.org/Graphics/SVG/1.1/DTD/svg11.dtd">
<svg version="1.1" id="Layer_1" xmlns="http://www.w3.org/2000/svg" xmlns:xlink="http://www.w3.org/1999/xlink" x="0px" y="0px"
	 width="502px" height="392px" viewBox="0 0 502 392" enable-background="new 0 0 502 392" xml:space="preserve">

<defs>
	<style type="text/css">
	text {
	  font-family: Helvetica, Verdana, ArialUnicodeMS, san-serif
	}
	</style>
</defs>

<g>
   <desc>
	PS 3.14 Part 14: Grayscale Standard Display Function
   </desc>
</g>

<g>
	<rect x="1" y="1" fill="#F5EED6" width="500" height="390"/>
	<g>
		<g>
			<text transform="matrix(1 0 0 1 44.2925 175.1616)"><tspan x="0" y="0" font-size="11">LUMINANCE</tspan><tspan x="12.225" y="15.333" font-size="11">[CD/M</tspan><tspan x="43.388" y="10.333" font-size="11">2</tspan><tspan x="49.505" y="15.333" font-size="11">]</tspan></text>
		</g>
		<g>
			<text transform="matrix(1 0 0 1 214.937 372.4561)" font-size="11">DIGITAL DRIVING LEVEL</text>
		</g>
		<g>
			<text transform="matrix(1 0 0 1 118.8618 351.3848)" font-size="11">0</text>
		</g>
		<g>
			<text transform="matrix(1 0 0 1 200.5444 351.3848)" font-size="11">64</text>
		</g>
		<g>
			<text transform="matrix(1 0 0 1 277.623 351.3848)" font-size="11">128</text>
		</g>
		<g>
			<text transform="matrix(1 0 0 1 359.002 351.3848)" font-size="11">192</text>
		</g>
		<g>
			<text transform="matrix(1 0 0 1 439.3545 351.3848)" font-size="11">256</text>
		</g>
		<g>
			<text transform="matrix(1 0 0 1 101.6958 342.9668)" font-size="11">0.1</text>
		</g>
		<g>
			<text transform="matrix(1 0 0 1 110.8696 247.3105)" font-size="11">1</text>
		</g>
		<g>
			<text transform="matrix(1 0 0 1 104.752 152.6802)" font-size="11">10</text>
		</g>
		<g>
			<text transform="matrix(1 0 0 1 98.6343 58.0483)" font-size="11">100</text>
		</g>
		<polyline fill="#CCDEF0" stroke="#000000" stroke-width="0.9657" points="125.951,338.869 125.951,15.918 448.896,15.918 
			448.896,338.869 125.951,338.869 		"/>
		
			<line fill="none" stroke="#939598" stroke-width="1.3261" stroke-linejoin="round" x1="206.667" y1="338.148" x2="206.667" y2="15.918"/>
		
			<line fill="none" stroke="#939598" stroke-width="1.3261" stroke-linejoin="round" x1="287.381" y1="338.148" x2="287.381" y2="15.918"/>
		
			<line fill="none" stroke="#939598" stroke-width="1.3261" stroke-linejoin="round" x1="368.188" y1="338.148" x2="368.188" y2="15.918"/>
		
			<line fill="none" stroke="#000000" stroke-width="0.5758" stroke-linejoin="round" x1="125.951" y1="309.645" x2="127.871" y2="309.645"/>
		
			<line fill="none" stroke="#000000" stroke-width="0.5758" stroke-linejoin="round" x1="448.896" y1="309.645" x2="446.977" y2="309.645"/>
		
			<line fill="none" stroke="#000000" stroke-width="0.5758" stroke-linejoin="round" x1="125.951" y1="292.947" x2="127.871" y2="292.947"/>
		
			<line fill="none" stroke="#000000" stroke-width="0.5758" stroke-linejoin="round" x1="448.896" y1="292.947" x2="446.977" y2="292.947"/>
		
			<line fill="none" stroke="#000000" stroke-width="0.5758" stroke-linejoin="round" x1="125.951" y1="281.143" x2="127.871" y2="281.143"/>
		
			<line fill="none" stroke="#000000" stroke-width="0.5758" stroke-linejoin="round" x1="448.896" y1="281.143" x2="446.977" y2="281.143"/>
		
			<line fill="none" stroke="#000000" stroke-width="0.5758" stroke-linejoin="round" x1="125.951" y1="271.93" x2="127.871" y2="271.93"/>
		
			<line fill="none" stroke="#000000" stroke-width="0.5758" stroke-linejoin="round" x1="448.896" y1="271.93" x2="446.977" y2="271.93"/>
		
			<line fill="none" stroke="#000000" stroke-width="0.5758" stroke-linejoin="round" x1="125.951" y1="264.445" x2="127.871" y2="264.445"/>
		
			<line fill="none" stroke="#000000" stroke-width="0.5758" stroke-linejoin="round" x1="448.896" y1="264.445" x2="446.977" y2="264.445"/>
		
			<line fill="none" stroke="#000000" stroke-width="0.5758" stroke-linejoin="round" x1="125.951" y1="258.111" x2="127.871" y2="258.111"/>
		
			<line fill="none" stroke="#000000" stroke-width="0.5758" stroke-linejoin="round" x1="448.896" y1="258.111" x2="446.977" y2="258.111"/>
		
			<line fill="none" stroke="#000000" stroke-width="0.5758" stroke-linejoin="round" x1="125.951" y1="252.641" x2="127.871" y2="252.641"/>
		
			<line fill="none" stroke="#000000" stroke-width="0.5758" stroke-linejoin="round" x1="448.896" y1="252.641" x2="446.977" y2="252.641"/>
		
			<line fill="none" stroke="#000000" stroke-width="0.5758" stroke-linejoin="round" x1="125.951" y1="247.842" x2="127.871" y2="247.842"/>
		
			<line fill="none" stroke="#000000" stroke-width="0.5758" stroke-linejoin="round" x1="448.896" y1="247.842" x2="446.977" y2="247.842"/>
		
			<line fill="none" stroke="#000000" stroke-width="0.5758" stroke-linejoin="round" x1="125.951" y1="243.523" x2="127.871" y2="243.523"/>
		
			<line fill="none" stroke="#000000" stroke-width="0.5758" stroke-linejoin="round" x1="448.896" y1="243.523" x2="446.977" y2="243.523"/>
		<polyline fill="none" stroke="#939598" stroke-width="1.3261" stroke-linejoin="round" points="448.896,243.523 445.154,243.523 
			129.693,243.523 125.951,243.523 		"/>
		
			<line fill="none" stroke="#000000" stroke-width="0.5758" stroke-linejoin="round" x1="125.951" y1="215.021" x2="127.871" y2="215.021"/>
		
			<line fill="none" stroke="#000000" stroke-width="0.5758" stroke-linejoin="round" x1="448.896" y1="215.021" x2="446.977" y2="215.021"/>
		
			<line fill="none" stroke="#000000" stroke-width="0.5758" stroke-linejoin="round" x1="125.951" y1="198.323" x2="127.871" y2="198.323"/>
		
			<line fill="none" stroke="#000000" stroke-width="0.5758" stroke-linejoin="round" x1="448.896" y1="198.323" x2="446.977" y2="198.323"/>
		
			<line fill="none" stroke="#000000" stroke-width="0.5758" stroke-linejoin="round" x1="125.951" y1="186.518" x2="127.871" y2="186.518"/>
		
			<line fill="none" stroke="#000000" stroke-width="0.5758" stroke-linejoin="round" x1="448.896" y1="186.518" x2="446.977" y2="186.518"/>
		
			<line fill="none" stroke="#000000" stroke-width="0.5758" stroke-linejoin="round" x1="125.951" y1="177.396" x2="127.871" y2="177.396"/>
		
			<line fill="none" stroke="#000000" stroke-width="0.5758" stroke-linejoin="round" x1="448.896" y1="177.396" x2="446.977" y2="177.396"/>
		
			<line fill="none" stroke="#000000" stroke-width="0.5758" stroke-linejoin="round" x1="125.951" y1="169.911" x2="127.871" y2="169.911"/>
		
			<line fill="none" stroke="#000000" stroke-width="0.5758" stroke-linejoin="round" x1="448.896" y1="169.911" x2="446.977" y2="169.911"/>
		
			<line fill="none" stroke="#000000" stroke-width="0.5758" stroke-linejoin="round" x1="125.951" y1="163.577" x2="127.871" y2="163.577"/>
		
			<line fill="none" stroke="#000000" stroke-width="0.5758" stroke-linejoin="round" x1="448.896" y1="163.577" x2="446.977" y2="163.577"/>
		
			<line fill="none" stroke="#000000" stroke-width="0.5758" stroke-linejoin="round" x1="125.951" y1="158.105" x2="127.871" y2="158.105"/>
		
			<line fill="none" stroke="#000000" stroke-width="0.5758" stroke-linejoin="round" x1="448.896" y1="158.105" x2="446.977" y2="158.105"/>
		
			<line fill="none" stroke="#000000" stroke-width="0.5758" stroke-linejoin="round" x1="125.951" y1="153.21" x2="127.871" y2="153.21"/>
		
			<line fill="none" stroke="#000000" stroke-width="0.5758" stroke-linejoin="round" x1="448.896" y1="153.21" x2="446.977" y2="153.21"/>
		
			<line fill="none" stroke="#000000" stroke-width="0.5758" stroke-linejoin="round" x1="125.951" y1="148.892" x2="127.871" y2="148.892"/>
		
			<line fill="none" stroke="#000000" stroke-width="0.5758" stroke-linejoin="round" x1="448.896" y1="148.892" x2="446.977" y2="148.892"/>
		<polyline fill="none" stroke="#939598" stroke-width="1.3261" stroke-linejoin="round" points="448.896,148.892 445.154,148.892 
			129.693,148.892 125.951,148.892 		"/>
		
			<line fill="none" stroke="#000000" stroke-width="0.5758" stroke-linejoin="round" x1="125.951" y1="120.386" x2="127.871" y2="120.386"/>
		
			<line fill="none" stroke="#000000" stroke-width="0.5758" stroke-linejoin="round" x1="448.896" y1="120.386" x2="446.977" y2="120.386"/>
		
			<line fill="none" stroke="#000000" stroke-width="0.5758" stroke-linejoin="round" x1="125.951" y1="103.779" x2="127.871" y2="103.779"/>
		
			<line fill="none" stroke="#000000" stroke-width="0.5758" stroke-linejoin="round" x1="448.896" y1="103.779" x2="446.977" y2="103.779"/>
		
			<line fill="none" stroke="#000000" stroke-width="0.5758" stroke-linejoin="round" x1="125.951" y1="91.975" x2="127.871" y2="91.975"/>
		
			<line fill="none" stroke="#000000" stroke-width="0.5758" stroke-linejoin="round" x1="448.896" y1="91.975" x2="446.977" y2="91.975"/>
		
			<line fill="none" stroke="#000000" stroke-width="0.5758" stroke-linejoin="round" x1="125.951" y1="82.76" x2="127.871" y2="82.76"/>
		
			<line fill="none" stroke="#000000" stroke-width="0.5758" stroke-linejoin="round" x1="448.896" y1="82.76" x2="446.977" y2="82.76"/>
		
			<line fill="none" stroke="#000000" stroke-width="0.5758" stroke-linejoin="round" x1="125.951" y1="75.274" x2="127.871" y2="75.274"/>
		
			<line fill="none" stroke="#000000" stroke-width="0.5758" stroke-linejoin="round" x1="448.896" y1="75.274" x2="446.977" y2="75.274"/>
		
			<line fill="none" stroke="#000000" stroke-width="0.5758" stroke-linejoin="round" x1="125.951" y1="68.94" x2="127.871" y2="68.94"/>
		
			<line fill="none" stroke="#000000" stroke-width="0.5758" stroke-linejoin="round" x1="448.896" y1="68.94" x2="446.977" y2="68.94"/>
		
			<line fill="none" stroke="#000000" stroke-width="0.5758" stroke-linejoin="round" x1="125.951" y1="63.471" x2="127.871" y2="63.471"/>
		
			<line fill="none" stroke="#000000" stroke-width="0.5758" stroke-linejoin="round" x1="448.896" y1="63.471" x2="446.977" y2="63.471"/>
		
			<line fill="none" stroke="#000000" stroke-width="0.5758" stroke-linejoin="round" x1="125.951" y1="58.576" x2="127.871" y2="58.576"/>
		
			<line fill="none" stroke="#000000" stroke-width="0.5758" stroke-linejoin="round" x1="448.896" y1="58.576" x2="446.977" y2="58.576"/>
		
			<line fill="none" stroke="#000000" stroke-width="0.5758" stroke-linejoin="round" x1="125.951" y1="54.258" x2="127.871" y2="54.258"/>
		
			<line fill="none" stroke="#000000" stroke-width="0.5758" stroke-linejoin="round" x1="448.896" y1="54.258" x2="446.977" y2="54.258"/>
		<polyline fill="none" stroke="#939598" stroke-width="1.3261" stroke-linejoin="round" points="448.896,54.258 445.154,54.258 
			129.693,54.258 125.951,54.258 		"/>
		
			<line fill="none" stroke="#000000" stroke-width="0.5758" stroke-linejoin="round" x1="125.951" y1="25.852" x2="127.871" y2="25.852"/>
		
			<line fill="none" stroke="#000000" stroke-width="0.5758" stroke-linejoin="round" x1="448.896" y1="25.852" x2="446.977" y2="25.852"/>
		<polyline fill="none" stroke="#2E3192" stroke-width="2.9919" stroke-linejoin="round" points="125.951,296.881 126.624,295.154 
			127.199,293.523 127.871,291.893 128.542,290.26 129.118,288.725 129.79,287.189 130.461,285.652 131.038,284.119 131.709,282.68 
			132.381,281.24 132.957,279.801 133.628,278.361 134.3,277.016 134.876,275.576 135.548,274.232 136.22,272.891 136.795,271.643 
			137.467,270.299 138.14,269.051 138.811,267.709 139.387,266.459 140.058,265.309 140.73,264.061 141.307,262.814 
			141.978,261.662 142.649,260.414 143.225,259.262 143.897,258.111 144.569,256.959 145.145,255.904 145.816,254.752 
			146.489,253.695 147.064,252.543 147.736,251.488 148.407,250.434 148.983,249.377 149.656,248.322 150.327,247.268 
			150.903,246.209 151.574,245.252 152.247,244.195 152.823,243.236 153.494,242.18 154.166,241.221 154.741,240.26 
			155.414,239.301 156.085,238.342 156.661,237.381 157.333,236.422 158.005,235.557 158.581,234.6 159.252,233.736 
			159.924,232.775 160.596,231.912 161.172,230.951 161.843,230.088 162.515,229.223 163.09,228.359 163.763,227.496 
			164.435,226.633 165.01,225.77 165.682,224.904 166.354,224.139 166.93,223.273 167.602,222.41 168.273,221.643 168.849,220.779 
			169.521,220.01 170.193,219.244 170.769,218.379 171.44,217.613 172.113,216.844 172.688,216.076 173.359,215.311 
			174.031,214.541 174.607,213.773 175.279,213.006 175.952,212.236 176.528,211.471 177.199,210.703 177.872,209.934 
			178.448,209.264 179.119,208.494 179.79,207.824 180.366,207.055 181.039,206.385 181.71,205.615 182.382,204.945 
			182.958,204.176 183.63,203.506 184.302,202.834 184.878,202.16 185.549,201.393 186.222,200.721 186.798,200.051 
			187.469,199.379 188.141,198.704 188.717,198.034 189.389,197.362 190.061,196.688 190.637,196.019 191.308,195.347 
			191.981,194.771 192.557,194.099 193.228,193.429 193.899,192.755 194.476,192.179 195.148,191.506 195.819,190.93 
			196.396,190.26 197.067,189.588 197.74,189.012 198.316,188.34 198.987,187.764 199.659,187.188 200.234,186.518 200.907,185.941 
			201.578,185.365 202.154,184.692 202.826,184.116 203.498,183.54 204.17,182.964 204.747,182.292 205.417,181.716 206.09,181.14 
			206.667,180.565 207.337,179.989 208.008,179.413 208.585,178.837 209.257,178.261 209.929,177.687 210.505,177.109 
			211.177,176.533 211.849,175.957 212.425,175.381 213.096,174.902 213.767,174.326 214.343,173.75 215.016,173.176 
			215.688,172.695 216.264,172.119 216.936,171.545 217.607,170.969 218.184,170.486 218.855,169.911 219.527,169.431 
			220.102,168.856 220.776,168.28 221.447,167.8 222.022,167.226 222.694,166.743 223.366,166.167 223.942,165.688 224.614,165.112 
			225.286,164.634 225.958,164.151 226.535,163.577 227.206,163.096 227.876,162.617 228.453,162.041 229.125,161.561 
			229.796,161.082 230.373,160.506 231.045,160.025 231.717,159.545 232.293,159.066 232.965,158.49 233.636,158.012 
			234.211,157.529 234.885,157.051 235.556,156.572 236.131,156.09 236.803,155.61 237.476,155.13 238.052,154.649 238.724,154.171 
			239.396,153.595 239.971,153.116 240.644,152.634 241.315,152.155 241.89,151.771 242.562,151.292 243.235,150.812 
			243.81,150.331 244.482,149.853 245.154,149.372 245.729,148.892 246.402,148.412 247.074,147.932 247.745,147.547 
			248.321,147.068 248.994,146.588 249.666,146.107 250.241,145.629 250.913,145.244 251.585,144.766 252.161,144.284 
			252.832,143.805 253.504,143.42 254.08,142.941 254.752,142.462 255.424,142.078 256,141.597 256.671,141.116 257.344,140.733 
			257.92,140.253 258.591,139.773 259.262,139.39 259.838,138.909 260.511,138.525 261.182,138.046 261.758,137.661 262.43,137.182 
			263.102,136.798 263.678,136.317 264.35,135.935 265.021,135.454 265.596,135.071 266.269,134.591 266.939,134.206 
			267.516,133.726 268.188,133.342 268.859,132.861 269.531,132.479 270.107,132.096 270.778,131.615 271.451,131.231 
			272.027,130.751 272.698,130.367 273.369,129.982 273.945,129.504 274.618,129.119 275.289,128.736 275.865,128.256 
			276.537,127.872 277.209,127.488 277.785,127.103 278.457,126.624 279.128,126.239 279.703,125.856 280.376,125.472 
			281.047,124.992 281.623,124.608 282.295,124.224 282.967,123.841 283.543,123.457 284.215,122.977 284.886,122.593 
			285.461,122.208 286.135,121.825 286.806,121.441 287.381,121.058 288.053,120.578 288.725,120.193 289.301,119.809 
			289.973,119.426 290.645,119.041 291.316,118.657 291.893,118.273 292.563,117.889 293.235,117.506 293.811,117.122 
			294.483,116.737 295.154,116.354 295.73,115.873 296.402,115.49 297.074,115.107 297.65,114.723 298.322,114.339 298.993,113.955 
			299.568,113.57 300.242,113.188 300.913,112.898 301.488,112.515 302.16,112.13 302.832,111.747 303.408,111.362 304.08,110.979 
			304.752,110.595 305.327,110.212 306,109.827 306.671,109.443 307.247,109.06 307.918,108.675 308.591,108.292 309.166,108.004 
			309.838,107.62 310.51,107.235 311.086,106.853 311.758,106.469 312.43,106.084 313.101,105.7 313.676,105.412 314.35,105.028 
			315.021,104.644 315.596,104.26 316.268,103.877 316.939,103.589 317.516,103.204 318.188,102.82 318.859,102.438 
			319.435,102.053 320.107,101.765 320.778,101.381 321.354,100.998 322.025,100.613 322.698,100.325 323.273,99.941 
			323.945,99.559 324.617,99.174 325.192,98.885 325.865,98.502 326.537,98.118 327.112,97.829 327.783,97.444 328.456,97.062 
			329.032,96.679 329.703,96.39 330.375,96.005 330.951,95.622 331.623,95.334 332.295,94.95 332.871,94.565 333.542,94.278 
			334.215,93.895 334.886,93.511 335.461,93.224 336.133,92.839 336.806,92.551 337.381,92.167 338.053,91.784 338.725,91.495 
			339.3,91.109 339.973,90.822 340.645,90.439 341.22,90.055 341.891,89.768 342.563,89.383 343.14,89.095 343.811,88.711 
			344.482,88.328 345.059,88.04 345.73,87.655 346.402,87.367 346.979,86.984 347.649,86.695 348.322,86.312 348.897,86.024 
			349.568,85.641 350.24,85.352 350.816,84.969 351.488,84.681 352.16,84.297 352.736,83.911 353.407,83.624 354.08,83.24 
			354.656,82.952 355.327,82.665 355.998,82.28 356.671,81.993 357.247,81.608 357.918,81.32 358.59,80.937 359.166,80.649 
			359.838,80.266 360.51,79.978 361.085,79.593 361.757,79.306 362.43,78.922 363.005,78.634 363.676,78.346 364.348,77.963 
			364.924,77.675 365.596,77.29 366.268,77.002 366.844,76.618 367.515,76.331 368.188,76.043 368.764,75.659 369.435,75.371 
			370.105,74.986 370.682,74.699 371.354,74.411 372.025,74.027 372.602,73.739 373.273,73.356 373.945,73.068 374.521,72.78 
			375.192,72.396 375.863,72.107 376.439,71.82 377.112,71.437 377.783,71.148 378.359,70.765 379.031,70.477 379.703,70.189 
			380.375,69.805 380.951,69.517 381.622,69.229 382.295,68.845 382.871,68.558 383.542,68.27 384.213,67.886 384.789,67.598 
			385.461,67.311 386.133,66.926 386.709,66.638 387.381,66.35 388.053,66.062 388.629,65.679 389.3,65.391 389.971,65.103 
			390.547,64.719 391.22,64.431 391.891,64.144 392.467,63.855 393.139,63.471 393.811,63.183 394.387,62.895 395.059,62.512 
			395.729,62.224 396.305,61.936 396.979,61.647 397.649,61.264 398.225,60.977 398.896,60.688 399.568,60.4 400.145,60.016 
			400.816,59.728 401.488,59.44 402.16,59.152 402.736,58.769 403.407,58.48 404.078,58.192 404.654,57.905 405.327,57.521 
			405.998,57.233 406.574,56.945 407.246,56.657 407.918,56.37 408.494,55.985 409.166,55.697 409.837,55.409 410.412,55.121 
			411.085,54.833 411.756,54.45 412.332,54.162 413.004,53.874 413.676,53.586 414.252,53.299 414.924,52.915 415.595,52.627 
			416.171,52.339 416.844,52.051 417.515,51.764 418.09,51.379 418.762,51.091 419.435,50.803 420.01,50.515 420.682,50.227 
			421.354,49.939 421.929,49.556 422.602,49.268 423.273,48.979 423.944,48.692 424.52,48.404 425.192,48.116 425.863,47.828 
			426.439,47.444 427.111,47.157 427.783,46.869 428.359,46.581 429.031,46.293 429.702,46.005 430.278,45.717 430.951,45.333 
			431.622,45.045 432.197,44.757 432.869,44.469 433.542,44.181 434.117,43.894 434.789,43.605 435.461,43.317 436.036,42.934 
			436.709,42.646 437.381,42.358 437.956,42.07 438.627,41.782 439.3,41.494 439.875,41.206 440.547,40.919 441.219,40.631 
			441.795,40.343 442.467,39.959 443.139,39.671 443.714,39.384 444.385,39.096 445.059,38.808 445.729,38.52 446.305,38.231 
			446.977,37.944 447.649,37.656 		"/>
		<polyline fill="none" stroke="#0DB14B" stroke-width="1.1516" stroke-linejoin="round" stroke-dasharray="3.8971" points="
			125.951,296.211 127.199,293.619 128.446,289.684 129.693,286.9 131.038,283.926 132.285,281.814 133.533,278.648 134.78,275.961 
			136.027,273.273 137.276,269.242 138.523,269.242 139.867,265.693 141.114,262.238 142.361,262.238 143.61,259.551 
			144.857,255.422 146.104,254.08 147.353,251.873 148.695,250.723 149.944,248.514 151.191,246.115 152.438,243.906 
			153.687,242.18 154.934,240.07 156.181,238.82 157.525,237.479 158.772,234.693 160.021,234.693 161.268,230.184 162.515,230.184 
			163.763,226.344 165.01,226.344 166.354,222.219 167.602,222.219 168.849,222.219 170.097,218.668 171.344,218.668 
			172.592,215.98 173.84,215.98 175.184,213.197 176.432,211.662 177.679,210.127 178.926,208.879 180.175,207.824 181.423,205.902 
			182.669,204.561 184.014,203.697 185.261,201.969 186.509,199.764 187.758,199.764 189.004,197.649 190.253,195.634 
			191.5,195.634 192.844,193.522 194.093,192.37 195.339,191.412 196.588,189.875 197.835,188.627 199.083,186.996 200.332,186.996 
			201.674,185.27 202.923,183.731 204.17,183.731 205.417,182.005 206.667,180.853 207.913,179.989 209.161,178.55 210.505,177.303 
			211.752,176.15 213.001,174.807 214.248,173.463 215.496,172.119 216.744,171.256 217.991,170.68 219.335,169.528 
			220.583,168.759 221.831,167.513 223.079,166.36 224.326,165.304 225.573,164.249 226.822,163.193 228.166,161.945 
			229.414,161.945 230.661,160.121 231.908,160.121 233.156,158.393 234.405,156.762 235.651,156.762 236.996,155.034 
			238.243,155.034 239.491,153.21 240.74,153.21 241.986,151.579 243.235,150.331 244.482,149.661 245.826,148.987 247.074,148.027 
			248.321,147.451 249.57,146.107 250.817,144.957 252.064,144.957 253.312,143.518 254.656,141.98 255.904,141.98 257.151,140.54 
			258.398,140.54 259.646,139.006 260.895,138.046 262.141,137.182 263.485,136.511 264.732,135.551 265.98,134.976 
			267.229,134.206 268.475,133.438 269.724,132.383 270.971,131.327 272.314,130.367 273.562,129.407 274.809,129.407 
			276.058,128.256 277.305,127.007 278.552,127.007 279.801,125.951 281.143,124.992 282.392,123.937 283.639,122.977 
			284.886,122.977 286.135,121.633 287.381,120.866 288.629,120.098 289.973,119.521 291.22,118.85 292.469,117.986 
			293.715,117.025 294.963,116.258 296.211,115.298 297.458,115.298 298.802,114.051 300.049,112.898 301.297,112.898 
			302.545,111.843 303.792,110.883 305.039,109.923 306.287,109.923 307.631,108.868 308.879,108.099 310.126,107.429 
			311.373,106.276 312.621,106.276 313.869,105.316 315.213,104.355 316.46,103.396 317.707,103.396 318.955,102.34 
			320.203,101.094 321.449,101.094 322.698,100.229 324.041,99.174 325.289,99.174 326.537,97.733 327.783,97.733 329.032,96.294 
			330.279,96.294 331.526,94.854 332.871,94.854 334.117,93.319 335.366,93.319 336.613,93.319 337.86,91.591 339.109,91.591 
			340.355,89.863 341.699,89.863 342.947,89.863 344.194,88.52 345.443,87.367 346.689,87.367 347.938,86.312 349.186,86.312 
			350.528,85.16 351.777,84.393 353.023,83.72 354.271,82.665 355.52,82.665 356.767,81.705 358.014,81.705 359.357,80.745 
			360.605,79.593 361.854,79.593 363.101,78.25 364.348,78.25 365.596,76.906 366.844,76.906 368.188,75.851 369.435,75.851 
			370.682,74.796 371.93,73.835 373.178,73.835 374.424,72.78 375.673,72.107 377.016,71.437 378.264,70.668 379.512,69.997 
			380.758,69.325 382.007,68.75 383.254,68.75 384.501,67.789 385.846,66.83 387.092,66.83 388.341,66.062 389.588,65.198 
			390.835,64.238 392.084,64.238 393.33,63.183 394.675,63.183 395.922,62.224 397.169,61.264 398.418,61.264 399.664,60.016 
			400.912,60.016 402.16,58.864 403.503,58.864 404.752,57.81 405.998,56.849 407.246,56.849 408.494,55.985 409.741,55.025 
			410.988,55.025 412.332,54.066 413.58,53.586 414.828,53.106 416.075,52.435 417.322,51.954 418.57,51.379 419.818,50.419 
			421.162,50.419 422.409,49.556 423.656,48.787 424.904,48.021 426.152,47.252 427.398,47.252 428.647,46.484 429.99,45.717 
			431.238,45.237 432.486,44.854 433.732,43.99 434.981,43.798 436.229,43.029 437.476,41.782 438.82,41.782 440.066,40.535 
			441.315,40.535 442.562,39.862 443.81,39.862 445.059,38.711 446.305,38.711 447.649,37.56 		"/>
		
			<rect x="222.57" y="219.246" fill="#CCDEF0" stroke="#CCDEF0" stroke-width="1.9495" stroke-linejoin="round" width="207.227" height="50.002"/>
		<g>
			<text transform="matrix(1 0 0 1 278.8965 239.4971)"><tspan x="0" y="0" font-size="10">Standard Display Function</tspan><tspan x="0" y="15.354" font-size="10">Transformed Display Function</tspan></text>
		</g>
		
			<line fill="none" stroke="#0DB14B" stroke-width="1.1516" stroke-linejoin="round" stroke-dasharray="3.8971" x1="234.697" y1="236.126" x2="265.792" y2="236.126"/>
		
			<line fill="none" stroke="#2E3192" stroke-width="2.9919" stroke-linejoin="round" x1="234.697" y1="251.562" x2="265.792" y2="251.562"/>
	</g>
</g>
</svg>
