<?xml version="1.0" encoding="utf-8"?>
<!-- $Source: /home/bbennett/pass/archive/DicomXml/docbook/part14/figures/PS3.14_D.1-3.svg,v $ -->
<!-- $Date: 2014/05/09 13:15:42 $ -->
<!-- $Revision: 1.1 $ -->

<!DOCTYPE svg PUBLIC "-//W3C//DTD SVG 1.1//EN" "http://www.w3.org/Graphics/SVG/1.1/DTD/svg11.dtd">
<svg version="1.1" id="Layer_1" xmlns="http://www.w3.org/2000/svg" xmlns:xlink="http://www.w3.org/1999/xlink" x="0px" y="0px"
	 width="502px" height="392px" viewBox="0 0 502 392" enable-background="new 0 0 502 392" xml:space="preserve">

<defs>
	<style type="text/css">
	text {
	  font-family: Helvetica, Verdana, ArialUnicodeMS, san-serif
	}
	</style>
</defs>

<g>
   <desc>
	PS 3.14 Part 14: Grayscale Standard Display Function
   </desc>
</g>

<g>
	<rect x="1" y="1" fill="#F5EED6" width="500" height="390"/>
	<g>
		<g>
			<text transform="matrix(1 0 0 1 43.0332 180.8545)"><tspan x="0" y="0" font-size="11">LUMINANCE</tspan><tspan x="12.225" y="15.333" font-size="11">[CD/M</tspan><tspan x="43.388" y="10.333" font-size="11">2</tspan><tspan x="49.505" y="15.333" font-size="11">]</tspan></text>
		</g>
		<g>
			<text transform="matrix(1 0 0 1 213.6777 378.1484)" font-size="11">DIGITAL DRIVING LEVEL</text>
		</g>
		<rect x="120.353" y="16.311" fill="#CCDEF0" stroke="#000000" width="328.595" height="328.683"/>
		<g>
			<text transform="matrix(1 0 0 1 117.6025 357.0781)" font-size="11">0</text>
		</g>
		<polyline fill="none" stroke="#939598" stroke-linejoin="round" points="202.524,16.311 202.524,19.644 202.524,341.66 
			202.524,344.994 		"/>
		<g>
			<text transform="matrix(1 0 0 1 197.0239 357.0781)" font-size="11">64</text>
		</g>
		<polyline fill="none" stroke="#939598" stroke-linejoin="round" points="284.697,16.311 284.697,19.644 284.697,341.66 
			284.697,344.994 		"/>
		<g>
			<text transform="matrix(1 0 0 1 276.3633 357.0781)" font-size="11">128</text>
		</g>
		<polyline fill="none" stroke="#939598" stroke-linejoin="round" points="366.781,16.311 366.781,19.644 366.781,341.66 
			366.781,344.994 		"/>
		<g>
			<text transform="matrix(1 0 0 1 358.4473 357.0781)" font-size="11">192</text>
		</g>
		<g>
			<text transform="matrix(1 0 0 1 440.6133 357.0781)" font-size="11">256</text>
		</g>
		<g>
			<text transform="matrix(1 0 0 1 100.4365 348.6602)" font-size="11">0.1</text>
		</g>
		
			<line fill="none" stroke="#000000" stroke-width="0.5" stroke-linejoin="round" x1="120.353" y1="311.994" x2="122.02" y2="311.994"/>
		
			<line fill="none" stroke="#000000" stroke-width="0.5" stroke-linejoin="round" x1="448.947" y1="311.994" x2="447.281" y2="311.994"/>
		
			<line fill="none" stroke="#000000" stroke-width="0.5" stroke-linejoin="round" x1="120.353" y1="292.66" x2="122.02" y2="292.66"/>
		
			<line fill="none" stroke="#000000" stroke-width="0.5" stroke-linejoin="round" x1="448.947" y1="292.66" x2="447.281" y2="292.66"/>
		
			<line fill="none" stroke="#000000" stroke-width="0.5" stroke-linejoin="round" x1="120.353" y1="278.994" x2="122.02" y2="278.994"/>
		
			<line fill="none" stroke="#000000" stroke-width="0.5" stroke-linejoin="round" x1="448.947" y1="278.994" x2="447.281" y2="278.994"/>
		
			<line fill="none" stroke="#000000" stroke-width="0.5" stroke-linejoin="round" x1="120.353" y1="268.41" x2="122.02" y2="268.41"/>
		
			<line fill="none" stroke="#000000" stroke-width="0.5" stroke-linejoin="round" x1="448.947" y1="268.41" x2="447.281" y2="268.41"/>
		
			<line fill="none" stroke="#000000" stroke-width="0.5" stroke-linejoin="round" x1="120.353" y1="259.744" x2="122.02" y2="259.744"/>
		
			<line fill="none" stroke="#000000" stroke-width="0.5" stroke-linejoin="round" x1="448.947" y1="259.744" x2="447.281" y2="259.744"/>
		
			<line fill="none" stroke="#000000" stroke-width="0.5" stroke-linejoin="round" x1="120.353" y1="252.41" x2="122.02" y2="252.41"/>
		
			<line fill="none" stroke="#000000" stroke-width="0.5" stroke-linejoin="round" x1="448.947" y1="252.41" x2="447.281" y2="252.41"/>
		
			<line fill="none" stroke="#000000" stroke-width="0.5" stroke-linejoin="round" x1="120.353" y1="246.078" x2="122.02" y2="246.078"/>
		
			<line fill="none" stroke="#000000" stroke-width="0.5" stroke-linejoin="round" x1="448.947" y1="246.078" x2="447.281" y2="246.078"/>
		
			<line fill="none" stroke="#000000" stroke-width="0.5" stroke-linejoin="round" x1="120.353" y1="240.41" x2="122.02" y2="240.41"/>
		
			<line fill="none" stroke="#000000" stroke-width="0.5" stroke-linejoin="round" x1="448.947" y1="240.41" x2="447.281" y2="240.41"/>
		
			<line fill="none" stroke="#000000" stroke-width="0.5" stroke-linejoin="round" x1="120.353" y1="235.41" x2="122.02" y2="235.41"/>
		
			<line fill="none" stroke="#000000" stroke-width="0.5" stroke-linejoin="round" x1="448.947" y1="235.41" x2="447.281" y2="235.41"/>
		<polyline fill="none" stroke="#939598" stroke-linejoin="round" points="448.947,235.41 445.697,235.41 123.603,235.41 
			120.353,235.41 		"/>
		<g>
			<text transform="matrix(1 0 0 1 109.6104 239.0781)" font-size="11">1</text>
		</g>
		
			<line fill="none" stroke="#000000" stroke-width="0.5" stroke-linejoin="round" x1="120.353" y1="202.492" x2="122.02" y2="202.492"/>
		
			<line fill="none" stroke="#000000" stroke-width="0.5" stroke-linejoin="round" x1="448.947" y1="202.492" x2="447.281" y2="202.492"/>
		
			<line fill="none" stroke="#000000" stroke-width="0.5" stroke-linejoin="round" x1="120.353" y1="183.157" x2="122.02" y2="183.157"/>
		
			<line fill="none" stroke="#000000" stroke-width="0.5" stroke-linejoin="round" x1="448.947" y1="183.157" x2="447.281" y2="183.157"/>
		
			<line fill="none" stroke="#000000" stroke-width="0.5" stroke-linejoin="round" x1="120.353" y1="169.488" x2="122.02" y2="169.488"/>
		
			<line fill="none" stroke="#000000" stroke-width="0.5" stroke-linejoin="round" x1="448.947" y1="169.488" x2="447.281" y2="169.488"/>
		
			<line fill="none" stroke="#000000" stroke-width="0.5" stroke-linejoin="round" x1="120.353" y1="158.821" x2="122.02" y2="158.821"/>
		
			<line fill="none" stroke="#000000" stroke-width="0.5" stroke-linejoin="round" x1="448.947" y1="158.821" x2="447.281" y2="158.821"/>
		
			<line fill="none" stroke="#000000" stroke-width="0.5" stroke-linejoin="round" x1="120.353" y1="150.152" x2="122.02" y2="150.152"/>
		
			<line fill="none" stroke="#000000" stroke-width="0.5" stroke-linejoin="round" x1="448.947" y1="150.152" x2="447.281" y2="150.152"/>
		
			<line fill="none" stroke="#000000" stroke-width="0.5" stroke-linejoin="round" x1="120.353" y1="142.818" x2="122.02" y2="142.818"/>
		
			<line fill="none" stroke="#000000" stroke-width="0.5" stroke-linejoin="round" x1="448.947" y1="142.818" x2="447.281" y2="142.818"/>
		
			<line fill="none" stroke="#000000" stroke-width="0.5" stroke-linejoin="round" x1="120.353" y1="136.483" x2="122.02" y2="136.483"/>
		
			<line fill="none" stroke="#000000" stroke-width="0.5" stroke-linejoin="round" x1="448.947" y1="136.483" x2="447.281" y2="136.483"/>
		<line fill="none" stroke="#000000" stroke-width="0.5" stroke-linejoin="round" x1="120.353" y1="130.9" x2="122.02" y2="130.9"/>
		
			<line fill="none" stroke="#000000" stroke-width="0.5" stroke-linejoin="round" x1="448.947" y1="130.9" x2="447.281" y2="130.9"/>
		
			<line fill="none" stroke="#000000" stroke-width="0.5" stroke-linejoin="round" x1="120.353" y1="125.899" x2="122.02" y2="125.899"/>
		
			<line fill="none" stroke="#000000" stroke-width="0.5" stroke-linejoin="round" x1="448.947" y1="125.899" x2="447.281" y2="125.899"/>
		<polyline fill="none" stroke="#939598" stroke-linejoin="round" points="448.947,125.899 445.697,125.899 123.603,125.899 
			120.353,125.899 		"/>
		<g>
			<text transform="matrix(1 0 0 1 103.4927 129.5664)" font-size="11">10</text>
		</g>
		
			<line fill="none" stroke="#000000" stroke-width="0.5" stroke-linejoin="round" x1="120.353" y1="92.895" x2="122.02" y2="92.895"/>
		
			<line fill="none" stroke="#000000" stroke-width="0.5" stroke-linejoin="round" x1="448.947" y1="92.895" x2="447.281" y2="92.895"/>
		
			<line fill="none" stroke="#000000" stroke-width="0.5" stroke-linejoin="round" x1="120.353" y1="73.644" x2="122.02" y2="73.644"/>
		
			<line fill="none" stroke="#000000" stroke-width="0.5" stroke-linejoin="round" x1="448.947" y1="73.644" x2="447.281" y2="73.644"/>
		
			<line fill="none" stroke="#000000" stroke-width="0.5" stroke-linejoin="round" x1="120.353" y1="59.977" x2="122.02" y2="59.977"/>
		
			<line fill="none" stroke="#000000" stroke-width="0.5" stroke-linejoin="round" x1="448.947" y1="59.977" x2="447.281" y2="59.977"/>
		
			<line fill="none" stroke="#000000" stroke-width="0.5" stroke-linejoin="round" x1="120.353" y1="49.311" x2="122.02" y2="49.311"/>
		
			<line fill="none" stroke="#000000" stroke-width="0.5" stroke-linejoin="round" x1="448.947" y1="49.311" x2="447.281" y2="49.311"/>
		
			<line fill="none" stroke="#000000" stroke-width="0.5" stroke-linejoin="round" x1="120.353" y1="40.644" x2="122.02" y2="40.644"/>
		
			<line fill="none" stroke="#000000" stroke-width="0.5" stroke-linejoin="round" x1="448.947" y1="40.644" x2="447.281" y2="40.644"/>
		
			<line fill="none" stroke="#000000" stroke-width="0.5" stroke-linejoin="round" x1="120.353" y1="33.311" x2="122.02" y2="33.311"/>
		
			<line fill="none" stroke="#000000" stroke-width="0.5" stroke-linejoin="round" x1="448.947" y1="33.311" x2="447.281" y2="33.311"/>
		
			<line fill="none" stroke="#000000" stroke-width="0.5" stroke-linejoin="round" x1="120.353" y1="26.977" x2="122.02" y2="26.977"/>
		
			<line fill="none" stroke="#000000" stroke-width="0.5" stroke-linejoin="round" x1="448.947" y1="26.977" x2="447.281" y2="26.977"/>
		
			<line fill="none" stroke="#000000" stroke-width="0.5" stroke-linejoin="round" x1="120.353" y1="21.394" x2="122.02" y2="21.394"/>
		
			<line fill="none" stroke="#000000" stroke-width="0.5" stroke-linejoin="round" x1="448.947" y1="21.394" x2="447.281" y2="21.394"/>
		
			<line fill="none" stroke="#000000" stroke-width="0.5" stroke-linejoin="round" x1="448.947" y1="16.311" x2="447.281" y2="16.311"/>
		<g>
			<text transform="matrix(1 0 0 1 97.375 19.9766)" font-size="11">100</text>
		</g>
		<polyline fill="none" stroke="#2E3192" stroke-width="3" stroke-linejoin="round" points="120.353,291.91 121.603,291.91 
			122.937,291.91 124.187,291.91 125.52,291.91 126.77,291.91 128.02,291.91 129.353,291.91 130.603,291.91 131.937,291.91 
			133.187,291.91 134.437,291.578 135.77,291.578 137.02,291.578 138.353,291.578 139.603,291.578 140.853,291.578 142.187,291.578 
			143.437,291.578 144.77,291.578 146.02,291.578 147.27,291.578 148.603,291.16 149.853,291.16 151.187,291.16 152.437,291.16 
			153.687,291.16 155.02,289.66 156.27,289.66 157.603,289.66 158.853,288.16 160.103,288.16 161.437,286.744 162.687,285.328 
			164.02,283.994 165.27,282.744 166.52,281.41 167.853,279.994 169.103,277.828 170.437,276.244 171.688,274.244 172.938,271.91 
			174.271,269.744 175.521,267.244 176.854,265.244 178.104,262.828 179.438,260.16 180.688,257.744 181.938,254.16 
			183.272,251.744 184.522,249.078 185.855,246.244 187.105,243.578 188.355,241.078 189.69,238.494 190.94,235.744 192.273,233.16 
			193.523,230.578 194.773,228.078 196.106,225.494 197.357,223.16 198.691,220.578 199.941,218.16 201.191,215.744 
			202.524,212.494 203.775,210.16 205.108,207.743 206.358,205.493 207.608,203.41 208.942,201.159 210.192,198.909 
			211.526,196.909 212.776,194.742 214.026,192.658 215.359,190.658 216.609,188.741 217.943,186.574 219.194,184.657 
			220.444,182.824 221.777,180.907 223.027,178.239 224.36,176.406 225.611,174.739 226.861,172.739 228.195,171.072 
			229.445,169.405 230.778,167.655 232.028,165.905 233.279,164.321 234.612,162.737 235.862,161.154 237.196,159.404 
			238.446,157.903 239.696,156.403 241.03,154.82 242.28,153.236 243.613,151.32 244.863,149.819 246.113,148.319 247.448,146.819 
			248.698,145.569 250.031,144.069 251.281,142.651 252.531,141.318 253.863,140.068 255.113,138.651 256.447,137.234 
			257.697,136.15 258.947,134.733 260.281,133.483 261.531,132.233 262.863,130.983 264.113,129.149 265.363,127.982 
			266.697,126.899 267.947,125.566 269.281,124.399 270.531,123.316 271.781,122.148 273.113,120.981 274.363,119.898 
			275.697,118.731 276.947,117.648 278.197,116.481 279.531,115.398 280.781,114.48 282.113,113.314 283.363,112.314 
			284.697,110.814 285.947,109.814 287.197,108.647 288.531,107.729 289.781,106.813 291.113,105.646 292.363,104.729 
			293.613,103.813 294.947,102.813 296.197,101.896 297.531,100.896 298.781,100.062 300.031,98.979 301.363,98.062 302.613,97.312 
			303.947,96.228 305.197,95.062 306.447,94.228 307.781,93.395 309.031,92.312 310.363,91.562 311.613,90.812 312.863,89.812 
			314.197,88.894 315.447,88.227 316.781,87.227 318.031,86.311 319.281,85.644 320.613,84.811 321.863,84.061 323.197,83.061 
			324.447,82.311 325.697,81.311 327.031,80.394 328.281,79.561 329.613,79.144 330.863,77.977 332.113,77.561 333.447,76.811 
			334.697,75.894 336.031,75.227 337.281,74.561 338.531,73.894 339.863,72.811 341.113,72.394 342.447,71.477 343.697,70.727 
			344.947,69.977 346.281,68.977 347.531,68.477 348.863,67.644 350.113,67.144 351.363,66.477 352.697,65.811 353.947,65.061 
			355.281,64.394 356.531,63.561 357.781,63.144 359.113,61.977 360.363,61.894 361.697,60.977 362.947,60.227 364.197,59.977 
			365.531,58.977 366.781,58.144 368.113,57.727 369.363,56.727 370.613,56.394 371.947,55.811 373.197,54.811 374.531,54.727 
			375.781,53.811 377.031,53.227 378.363,52.894 379.613,51.894 380.947,51.644 382.197,50.977 383.447,50.227 384.781,49.894 
			386.031,49.061 387.363,48.477 388.613,47.811 389.863,47.061 391.197,46.811 392.447,46.061 393.781,45.477 395.031,45.144 
			396.363,44.394 397.613,43.811 398.863,43.394 400.197,42.727 401.447,42.394 402.781,41.727 404.031,41.227 405.281,40.811 
			406.613,40.061 407.863,39.477 409.197,38.894 410.447,38.311 411.697,37.977 413.031,37.227 414.281,36.811 415.613,36.477 
			416.863,35.727 418.113,35.394 419.447,34.811 420.697,34.311 422.031,33.977 423.281,33.311 424.531,32.977 425.863,32.394 
			427.113,31.894 428.447,31.394 429.697,30.727 430.947,30.311 432.281,29.811 433.531,29.311 434.863,29.061 436.113,28.311 
			437.363,28.061 438.697,27.477 439.947,27.061 441.281,26.727 442.531,26.061 443.781,25.811 445.113,25.144 446.363,24.811 
			447.697,24.477 		"/>
		<polyline fill="none" stroke="#ED1C24" stroke-linejoin="round" stroke-dasharray="4.5" points="120.353,291.91 120.687,291.91 
			121.02,291.91 121.353,291.91 121.603,291.91 121.937,291.91 122.27,291.91 122.603,291.91 122.937,291.91 123.27,291.91 
			123.52,291.91 123.853,291.91 124.187,291.91 124.52,291.91 124.853,291.91 125.187,291.91 125.437,291.91 125.77,291.91 
			126.103,291.91 126.437,291.91 126.77,291.91 127.103,291.91 127.353,291.91 127.687,291.91 128.02,291.91 128.353,291.91 
			128.687,291.91 129.02,291.91 129.353,291.91 129.603,291.91 129.937,291.91 130.27,291.91 130.603,291.91 130.937,291.91 
			131.27,291.91 131.52,291.91 131.853,291.91 132.187,291.91 132.52,291.91 132.853,291.828 133.187,291.828 133.437,291.828 
			133.77,291.744 134.103,291.744 134.437,291.66 134.77,291.66 135.103,291.66 135.353,291.578 135.687,291.578 136.02,291.578 
			136.353,291.578 136.687,291.578 137.02,291.578 137.27,291.578 137.603,291.578 137.937,291.578 138.27,291.578 138.603,291.578 
			138.937,291.578 139.27,291.578 139.52,291.578 139.853,291.578 140.187,291.578 140.52,291.578 140.853,291.578 141.187,291.578 
			141.437,291.578 141.77,291.578 142.103,291.578 142.437,291.578 142.77,291.578 143.103,291.578 143.353,291.578 
			143.687,291.578 144.02,291.578 144.353,291.578 144.687,291.578 145.02,291.578 145.27,291.578 145.603,291.578 145.937,291.578 
			146.27,291.578 146.603,291.578 146.937,291.578 147.27,291.494 147.52,291.41 147.853,291.41 148.187,291.328 148.52,291.244 
			148.853,291.244 149.187,291.16 149.437,291.16 149.77,291.16 150.103,291.078 150.437,291.16 150.77,291.16 151.103,291.16 
			151.353,291.16 151.687,291.16 152.02,291.244 152.353,291.16 152.687,291.16 153.02,291.078 153.27,290.91 153.603,290.828 
			153.937,290.66 154.27,290.41 154.603,290.244 154.937,290.078 155.187,289.91 155.52,289.828 155.853,289.744 156.187,289.66 
			156.52,289.578 156.853,289.494 157.187,289.41 157.437,289.328 157.77,289.16 158.103,288.994 158.437,288.828 158.77,288.66 
			159.103,288.494 159.353,288.328 159.687,288.16 160.02,287.91 160.353,287.744 160.687,287.494 161.02,287.16 161.27,286.91 
			161.603,286.578 161.937,286.244 162.27,285.91 162.603,285.578 162.937,285.16 163.187,284.828 163.52,284.494 163.853,284.16 
			164.187,283.828 164.52,283.494 164.853,283.244 165.187,282.91 165.437,282.578 165.77,282.244 166.103,281.91 166.437,281.578 
			166.77,281.244 167.103,280.828 167.353,280.41 167.687,279.994 168.02,279.578 168.353,279.16 168.687,278.66 169.02,278.244 
			169.27,277.744 169.603,277.328 169.937,276.828 170.27,276.41 170.603,275.91 170.937,275.41 171.187,274.994 171.521,274.41 
			171.854,273.91 172.188,273.41 172.521,272.828 172.854,272.244 173.104,271.744 173.438,271.16 173.771,270.578 174.104,269.994 
			174.438,269.41 174.771,268.828 175.104,268.244 175.354,267.66 175.688,267.16 176.021,266.578 176.354,265.994 176.688,265.494 
			177.021,264.91 177.271,264.328 177.604,263.744 177.938,263.16 178.271,262.578 178.604,261.91 178.938,261.328 179.188,260.66 
			179.521,259.994 179.854,259.328 180.188,258.578 180.521,257.828 180.854,257.078 181.104,256.328 181.438,255.578 
			181.771,254.828 182.104,254.16 182.439,253.41 182.772,252.744 183.105,252.078 183.355,251.41 183.689,250.744 184.022,250.078 
			184.355,249.41 184.689,248.744 185.022,248.078 185.272,247.41 185.605,246.744 185.939,246.078 186.272,245.328 186.605,244.66 
			186.939,244.078 187.189,243.41 187.522,242.744 187.855,242.078 188.189,241.494 188.522,240.828 188.855,240.16 
			189.105,239.494 189.44,238.828 189.773,238.16 190.106,237.494 190.44,236.828 190.773,236.16 191.023,235.578 191.356,234.91 
			191.69,234.244 192.023,233.578 192.356,232.91 192.69,232.328 193.023,231.66 193.273,230.994 193.606,230.328 193.94,229.744 
			194.273,229.078 194.606,228.41 194.94,227.828 195.19,227.16 195.523,226.578 195.856,225.994 196.19,225.328 196.523,224.744 
			196.857,224.16 197.107,223.494 197.441,222.91 197.774,222.328 198.107,221.66 198.441,221.078 198.774,220.494 199.024,219.828 
			199.357,219.244 199.691,218.66 200.024,217.994 200.357,217.41 200.691,216.744 201.024,215.994 201.274,215.328 201.607,214.66 
			201.941,213.91 202.274,213.244 202.607,212.494 202.941,211.828 203.191,211.16 203.524,210.578 203.858,209.91 204.192,209.328 
			204.525,208.744 204.858,208.16 205.108,207.66 205.442,207.077 205.775,206.493 206.108,205.993 206.442,205.41 206.775,204.91 
			207.025,204.326 207.358,203.826 207.692,203.242 208.025,202.66 208.358,202.16 208.692,201.576 208.942,201.076 
			209.275,200.492 209.608,199.909 209.942,199.409 210.275,198.909 210.608,198.326 210.942,197.826 211.193,197.326 
			211.526,196.742 211.859,196.242 212.193,195.742 212.526,195.242 212.859,194.659 213.109,194.158 213.443,193.658 
			213.776,193.158 214.109,192.658 214.443,192.075 214.776,191.575 215.026,191.075 215.359,190.575 215.693,190.075 
			216.026,189.575 216.359,189.075 216.693,188.575 216.943,188.075 217.276,187.575 217.609,187.075 217.943,186.574 
			218.277,186.074 218.61,185.574 218.944,185.157 219.194,184.657 219.527,184.157 219.86,183.74 220.194,183.24 220.527,182.74 
			220.86,182.24 221.11,181.74 221.444,181.24 221.777,180.657 222.11,180.074 222.444,179.489 222.777,178.906 223.027,178.406 
			223.36,177.823 223.694,177.323 224.027,176.823 224.36,176.406 224.694,175.906 224.944,175.489 225.277,175.073 
			225.611,174.573 225.945,174.156 226.278,173.739 226.611,173.239 226.861,172.823 227.195,172.405 227.528,171.905 
			227.861,171.488 228.195,171.072 228.528,170.655 228.861,170.238 229.111,169.822 229.445,169.405 229.778,168.905 
			230.111,168.488 230.445,168.072 230.778,167.655 231.028,167.238 231.361,166.822 231.695,166.405 232.028,165.988 
			232.361,165.572 232.696,165.154 232.946,164.737 233.279,164.321 233.612,163.987 233.946,163.571 234.279,163.154 
			234.612,162.737 234.862,162.321 235.196,161.987 235.529,161.571 235.862,161.154 236.196,160.737 236.529,160.321 
			236.862,159.904 237.112,159.487 237.446,159.071 237.779,158.654 238.112,158.321 238.446,157.903 238.779,157.57 
			239.029,157.153 239.362,156.82 239.696,156.403 240.03,156.07 240.363,155.653 240.697,155.236 240.947,154.82 241.28,154.486 
			241.613,154.07 241.947,153.57 242.28,153.153 242.613,152.736 242.863,152.32 243.197,151.903 243.53,151.403 243.863,150.986 
			244.197,150.652 244.53,150.235 244.78,149.819 245.113,149.485 245.447,149.069 245.78,148.735 246.113,148.319 246.447,147.985 
			246.78,147.652 247.031,147.319 247.364,146.985 247.698,146.569 248.031,146.235 248.364,145.902 248.698,145.569 
			248.948,145.235 249.281,144.902 249.614,144.569 249.948,144.152 250.281,143.819 250.614,143.484 250.864,143.151 
			251.198,142.734 251.531,142.401 251.864,142.068 252.197,141.734 252.531,141.401 252.781,141.068 253.113,140.734 
			253.447,140.401 253.781,140.068 254.113,139.734 254.447,139.401 254.781,139.068 255.031,138.734 255.363,138.401 
			255.697,138.068 256.031,137.734 256.363,137.401 256.697,137.068 256.947,136.734 257.281,136.483 257.613,136.15 
			257.947,135.817 258.281,135.483 258.613,135.15 258.863,134.817 259.197,134.567 259.531,134.233 259.863,133.9 260.197,133.567 
			260.531,133.233 260.781,132.983 261.113,132.65 261.447,132.317 261.781,131.983 262.113,131.65 262.447,131.317 
			262.697,130.983 263.031,130.567 263.363,130.233 263.697,129.817 264.031,129.4 264.363,129.066 264.697,128.732 
			264.947,128.399 265.281,128.066 265.613,127.732 265.947,127.482 266.281,127.149 266.613,126.899 266.863,126.649 
			267.197,126.316 267.531,125.982 267.863,125.732 268.197,125.399 268.531,125.149 268.781,124.816 269.113,124.566 
			269.447,124.232 269.781,123.982 270.113,123.649 270.447,123.399 270.697,123.066 271.031,122.816 271.363,122.566 
			271.697,122.232 272.031,121.981 272.363,121.648 272.697,121.398 272.947,121.148 273.281,120.815 273.613,120.565 
			273.947,120.315 274.281,119.981 274.613,119.731 274.863,119.481 275.197,119.148 275.531,118.898 275.863,118.648 
			276.197,118.315 276.531,118.065 276.781,117.731 277.113,117.481 277.447,117.231 277.781,116.898 278.113,116.648 
			278.447,116.398 278.697,116.065 279.031,115.815 279.363,115.565 279.697,115.315 280.031,115.065 280.363,114.814 
			280.613,114.564 280.947,114.314 281.281,114.064 281.613,113.814 281.947,113.564 282.281,113.23 282.613,112.98 
			282.863,112.647 283.197,112.314 283.531,112.064 283.863,111.73 284.197,111.397 284.531,111.064 284.781,110.814 
			285.113,110.48 285.447,110.23 285.781,109.897 286.113,109.647 286.447,109.397 286.697,109.064 287.031,108.814 
			287.363,108.564 287.697,108.314 288.031,108.147 288.363,107.897 288.613,107.646 288.947,107.396 289.281,107.146 
			289.613,106.896 289.947,106.646 290.281,106.396 290.613,106.146 290.863,105.813 291.197,105.563 291.531,105.313 
			291.863,105.146 292.197,104.896 292.531,104.646 292.781,104.396 293.113,104.146 293.447,103.896 293.781,103.729 
			294.113,103.479 294.447,103.229 294.697,102.979 295.031,102.729 295.363,102.479 295.697,102.229 296.031,101.979 
			296.363,101.729 296.613,101.563 296.947,101.313 297.281,101.063 297.613,100.813 297.947,100.563 298.281,100.396 
			298.531,100.146 298.863,99.896 299.197,99.646 299.531,99.396 299.863,99.146 300.197,98.979 300.531,98.729 300.781,98.479 
			301.113,98.229 301.447,98.062 301.781,97.812 302.113,97.646 302.447,97.396 302.697,97.146 303.031,96.895 303.363,96.645 
			303.697,96.395 304.031,96.145 304.363,95.895 304.613,95.562 304.947,95.312 305.281,95.062 305.613,94.812 305.947,94.562 
			306.281,94.395 306.531,94.145 306.863,93.895 307.197,93.728 307.531,93.478 307.863,93.228 308.197,92.978 308.531,92.812 
			308.781,92.562 309.113,92.312 309.447,92.145 309.781,91.895 310.113,91.728 310.447,91.478 310.697,91.312 311.031,91.062 
			311.363,90.895 311.697,90.645 312.031,90.478 312.363,90.228 312.613,89.978 312.947,89.727 313.281,89.561 313.613,89.311 
			313.947,89.144 314.281,88.894 314.531,88.727 314.863,88.477 315.197,88.311 315.531,88.144 315.863,87.894 316.197,87.644 
			316.447,87.477 316.781,87.227 317.113,86.977 317.447,86.811 317.781,86.561 318.113,86.394 318.447,86.144 318.697,85.977 
			319.031,85.811 319.363,85.561 319.697,85.394 320.031,85.227 320.363,84.977 320.613,84.811 320.947,84.644 321.281,84.394 
			321.613,84.227 321.947,83.977 322.281,83.811 322.531,83.561 322.863,83.311 323.197,83.144 323.531,82.894 323.863,82.644 
			324.197,82.477 324.447,82.227 324.781,81.977 325.113,81.727 325.447,81.561 325.781,81.311 326.113,81.061 326.447,80.811 
			326.697,80.561 327.031,80.394 327.363,80.144 327.697,79.977 328.031,79.811 328.363,79.644 328.613,79.477 328.947,79.311 
			329.281,79.144 329.613,78.894 329.947,78.727 330.281,78.561 330.531,78.394 330.863,78.144 331.197,77.977 331.531,77.811 
			331.863,77.644 332.197,77.477 332.447,77.311 332.781,77.144 333.113,76.977 333.447,76.811 333.781,76.561 334.113,76.394 
			334.363,76.227 334.697,75.977 335.031,75.811 335.363,75.644 335.697,75.477 336.031,75.227 336.363,75.061 336.613,74.894 
			336.947,74.727 337.281,74.561 337.613,74.394 337.947,74.227 338.281,73.977 338.531,73.811 338.863,73.561 339.197,73.394 
			339.531,73.144 339.863,72.977 340.197,72.811 340.447,72.561 340.781,72.394 341.113,72.227 341.447,72.061 341.781,71.894 
			342.113,71.727 342.363,71.561 342.697,71.311 343.031,71.144 343.363,70.977 343.697,70.727 344.031,70.561 344.363,70.311 
			344.613,70.144 344.947,69.894 345.281,69.727 345.613,69.477 345.947,69.311 346.281,69.144 346.531,68.977 346.863,68.727 
			347.197,68.561 347.531,68.394 347.863,68.227 348.197,68.061 348.447,67.894 348.781,67.727 349.113,67.561 349.447,67.394 
			349.781,67.227 350.113,67.144 350.363,66.977 350.697,66.811 351.031,66.644 351.363,66.477 351.697,66.311 352.031,66.144 
			352.281,65.977 352.613,65.811 352.947,65.644 353.281,65.477 353.613,65.311 353.947,65.144 354.281,64.977 354.531,64.727 
			354.863,64.561 355.197,64.394 355.531,64.227 355.863,64.061 356.197,63.894 356.447,63.727 356.781,63.561 357.113,63.311 
			357.447,63.144 357.781,62.977 358.113,62.811 358.363,62.644 358.697,62.477 359.031,62.311 359.363,62.144 359.697,61.977 
			360.031,61.811 360.281,61.644 360.613,61.561 360.947,61.394 361.281,61.227 361.613,61.061 361.947,60.894 362.281,60.727 
			362.531,60.561 362.863,60.394 363.197,60.227 363.531,60.144 363.863,59.977 364.197,59.811 364.447,59.644 364.781,59.477 
			365.113,59.227 365.447,59.061 365.781,58.894 366.113,58.644 366.363,58.477 366.697,58.311 367.031,58.144 367.363,57.977 
			367.697,57.727 368.031,57.561 368.281,57.394 368.613,57.227 368.947,57.144 369.281,56.977 369.613,56.811 369.947,56.644 
			370.197,56.561 370.531,56.394 370.863,56.227 371.197,56.061 371.531,55.894 371.863,55.727 372.197,55.644 372.447,55.477 
			372.781,55.311 373.113,55.144 373.447,54.977 373.781,54.811 374.113,54.727 374.363,54.561 374.697,54.394 375.031,54.227 
			375.363,54.144 375.697,53.977 376.031,53.811 376.281,53.644 376.613,53.477 376.947,53.311 377.281,53.144 377.613,53.061 
			377.947,52.894 378.197,52.727 378.531,52.561 378.863,52.477 379.197,52.311 379.531,52.144 379.863,51.977 380.197,51.894 
			380.447,51.727 380.781,51.561 381.113,51.477 381.447,51.311 381.781,51.144 382.113,50.977 382.363,50.894 382.697,50.727 
			383.031,50.561 383.363,50.394 383.697,50.227 384.031,50.144 384.281,49.977 384.613,49.811 384.947,49.644 385.281,49.477 
			385.613,49.394 385.947,49.227 386.197,48.977 386.531,48.811 386.863,48.644 387.197,48.477 387.531,48.311 387.863,48.144 
			388.113,47.977 388.447,47.894 388.781,47.727 389.113,47.561 389.447,47.394 389.781,47.311 390.113,47.144 390.363,46.977 
			390.697,46.894 391.031,46.727 391.363,46.644 391.697,46.477 392.031,46.311 392.281,46.227 392.613,46.061 392.947,45.894 
			393.281,45.727 393.613,45.644 393.947,45.477 394.197,45.311 394.531,45.227 394.863,45.061 395.197,44.977 395.531,44.811 
			395.863,44.644 396.113,44.561 396.447,44.394 396.781,44.227 397.113,44.061 397.447,43.977 397.781,43.811 398.113,43.727 
			398.363,43.561 398.697,43.394 399.031,43.311 399.363,43.144 399.697,43.061 400.031,42.894 400.281,42.811 400.613,42.644 
			400.947,42.561 401.281,42.394 401.613,42.227 401.947,42.144 402.197,41.977 402.531,41.811 402.863,41.727 403.197,41.561 
			403.531,41.477 403.863,41.311 404.113,41.227 404.447,41.061 404.781,40.977 405.113,40.811 405.447,40.644 405.781,40.561 
			406.031,40.394 406.363,40.227 406.697,40.061 407.031,39.894 407.363,39.727 407.697,39.561 408.031,39.394 408.281,39.227 
			408.613,39.144 408.947,38.977 409.281,38.811 409.613,38.727 409.947,38.561 410.197,38.477 410.531,38.311 410.863,38.227 
			411.197,38.061 411.531,37.977 411.863,37.811 412.113,37.644 412.447,37.561 412.781,37.394 413.113,37.311 413.447,37.144 
			413.781,37.061 414.031,36.894 414.363,36.811 414.697,36.727 415.031,36.561 415.363,36.477 415.697,36.311 416.031,36.227 
			416.281,36.061 416.613,35.977 416.947,35.811 417.281,35.727 417.613,35.561 417.947,35.477 418.197,35.311 418.531,35.144 
			418.863,35.061 419.197,34.894 419.531,34.811 419.863,34.644 420.113,34.561 420.447,34.394 420.781,34.311 421.113,34.227 
			421.447,34.061 421.781,33.977 422.031,33.894 422.363,33.727 422.697,33.644 423.031,33.477 423.363,33.394 423.697,33.227 
			423.947,33.144 424.281,32.977 424.613,32.894 424.947,32.727 425.281,32.644 425.613,32.477 425.947,32.394 426.197,32.227 
			426.531,32.144 426.863,31.977 427.197,31.811 427.531,31.727 427.863,31.561 428.113,31.477 428.447,31.311 428.781,31.144 
			429.113,30.977 429.447,30.894 429.781,30.727 430.031,30.644 430.363,30.477 430.697,30.394 431.031,30.227 431.363,30.144 
			431.697,30.061 431.947,29.894 432.281,29.811 432.613,29.644 432.947,29.561 433.281,29.477 433.613,29.394 433.947,29.227 
			434.197,29.144 434.531,29.061 434.863,28.894 435.197,28.811 435.531,28.727 435.863,28.561 436.113,28.477 436.447,28.311 
			436.781,28.227 437.113,28.061 437.447,27.977 437.781,27.811 438.031,27.727 438.363,27.561 438.697,27.477 439.031,27.394 
			439.363,27.227 439.697,27.144 439.947,27.061 440.281,26.977 440.613,26.811 440.947,26.727 441.281,26.644 441.613,26.477 
			441.863,26.394 442.197,26.311 442.531,26.144 442.863,26.061 443.197,25.894 443.531,25.811 443.863,25.727 444.113,25.561 
			444.447,25.477 444.781,25.311 445.113,25.227 445.447,25.061 445.781,24.977 446.031,24.894 446.363,24.811 446.697,24.727 
			447.031,24.644 447.363,24.561 447.697,24.477 		"/>
		<polyline fill="none" stroke="#0DB14B" stroke-width="3" stroke-linejoin="round" points="120.353,291.91 121.603,288.328 
			122.937,285.16 124.187,281.91 125.52,278.66 126.77,275.494 128.02,272.828 129.353,269.994 130.603,267.078 131.937,264.328 
			133.187,261.244 134.437,258.744 135.77,256.328 137.02,253.994 138.353,251.328 139.603,249.578 140.853,246.744 142.187,244.66 
			143.437,242.078 144.77,240.16 146.02,238.16 147.27,236.244 148.603,233.66 149.853,231.66 151.187,229.66 152.437,227.744 
			153.687,225.994 155.02,224.16 156.27,222.244 157.603,220.41 158.853,218.66 160.103,216.828 161.437,215.41 162.687,213.244 
			164.02,211.66 165.27,209.91 166.52,208.327 167.853,206.993 169.103,205.41 170.437,203.91 171.688,202.16 172.938,200.409 
			174.271,198.826 175.521,197.326 176.854,196.242 178.104,194.659 179.438,193.158 180.688,191.575 181.938,190.075 
			183.272,188.575 184.522,187.575 185.855,185.99 187.105,184.574 188.355,183.324 189.69,181.824 190.94,180.74 192.273,179.489 
			193.523,178.323 194.773,176.823 196.106,175.489 197.357,174.156 198.691,172.823 199.941,171.905 201.191,170.572 
			202.524,169.405 203.775,168.155 205.108,166.822 206.358,165.988 207.608,164.821 208.942,163.571 210.192,162.321 
			211.526,161.154 212.776,159.904 214.026,158.987 215.359,157.903 216.609,156.82 217.943,155.653 219.194,154.403 
			220.444,153.236 221.777,152.32 223.027,151.403 224.36,150.235 225.611,149.152 226.861,147.985 228.195,146.902 
			229.445,145.985 230.778,144.902 232.028,143.819 233.279,142.734 234.612,141.818 235.862,141.068 237.196,140.151 
			238.446,139.151 239.696,138.068 241.03,137.068 242.28,136.15 243.613,135.233 244.863,134.233 246.113,133.233 247.448,132.317 
			248.698,131.4 250.031,130.233 251.281,129.4 252.531,128.649 253.863,127.482 255.113,126.649 256.447,125.732 257.697,124.816 
			258.947,123.982 260.281,123.066 261.531,122.232 262.863,121.398 264.113,120.565 265.363,119.731 266.697,118.898 
			267.947,117.815 269.281,116.981 270.531,116.065 271.781,115.315 273.113,114.647 274.363,113.564 275.697,112.73 
			276.947,112.064 278.197,111.064 279.531,110.48 280.781,109.647 282.113,108.564 283.363,107.897 284.697,107.146 
			285.947,106.396 287.197,105.563 288.531,104.646 289.781,103.979 291.113,102.979 292.363,102.229 293.613,101.479 
			294.947,100.813 296.197,99.896 297.531,99.229 298.781,98.479 300.031,97.646 301.363,96.979 302.613,96.145 303.947,95.312 
			305.197,94.562 306.447,93.978 307.781,92.978 309.031,92.312 310.363,91.728 311.613,90.978 312.863,90.228 314.197,89.477 
			315.447,88.727 316.781,87.894 318.031,87.227 319.281,86.561 320.613,85.811 321.863,85.061 323.197,84.394 324.447,83.727 
			325.697,82.811 327.031,82.227 328.281,81.561 329.613,80.811 330.863,80.061 332.113,79.477 333.447,78.811 334.697,78.061 
			336.031,77.311 337.281,76.811 338.531,75.977 339.863,75.394 341.113,74.561 342.447,74.061 343.697,73.311 344.947,72.727 
			346.281,71.977 347.531,71.311 348.863,70.727 350.113,69.894 351.363,69.311 352.697,68.644 353.947,68.061 355.281,67.394 
			356.531,66.727 357.781,66.061 359.113,65.477 360.363,64.811 361.697,63.977 362.947,63.477 364.197,62.811 365.531,62.227 
			366.781,61.644 368.113,60.811 369.363,60.311 370.613,59.727 371.947,59.061 373.197,58.394 374.531,57.894 375.781,57.061 
			377.031,56.477 378.363,55.811 379.613,55.144 380.947,54.644 382.197,53.977 383.447,53.394 384.781,52.811 386.031,52.227 
			387.363,51.644 388.613,51.061 389.863,50.394 391.197,49.727 392.447,49.144 393.781,48.477 395.031,48.061 396.363,47.311 
			397.613,46.811 398.863,46.227 400.197,45.561 401.447,44.977 402.781,44.394 404.031,43.811 405.281,43.311 406.613,42.644 
			407.863,41.977 409.197,41.561 410.447,40.894 411.697,40.394 413.031,39.727 414.281,39.144 415.613,38.561 416.863,37.977 
			418.113,37.394 419.447,36.894 420.697,36.394 422.031,35.811 423.281,35.227 424.531,34.644 425.863,34.061 427.113,33.477 
			428.447,32.894 429.697,32.394 430.947,31.811 432.281,31.144 433.531,30.727 434.863,30.144 436.113,29.561 437.363,28.977 
			438.697,28.394 439.947,27.811 441.281,27.311 442.531,26.811 443.781,26.227 445.113,25.727 446.363,25.227 447.697,24.644 		"/>
		<polyline fill="none" stroke="#FFFFFF" stroke-linejoin="round" stroke-dasharray="4.5" points="120.353,291.91 121.603,288.41 
			122.937,285.078 124.187,281.828 125.52,278.66 126.77,275.578 128.02,272.578 129.353,269.744 130.603,266.91 131.937,264.16 
			133.187,261.578 134.437,258.91 135.77,256.41 137.02,253.91 138.353,251.494 139.603,249.16 140.853,246.828 142.187,244.578 
			143.437,242.328 144.77,240.16 146.02,238.078 147.27,235.994 148.603,233.91 149.853,231.91 151.187,229.91 152.437,227.994 
			153.687,226.078 155.02,224.16 156.27,222.328 157.603,220.494 158.853,218.66 160.103,216.91 161.437,215.16 162.687,213.494 
			164.02,211.744 165.27,210.078 166.52,208.41 167.853,206.827 169.103,205.243 170.437,203.66 171.688,202.076 172.938,200.492 
			174.271,198.992 175.521,197.492 176.854,195.992 178.104,194.492 179.438,193.075 180.688,191.658 181.938,190.241 
			183.272,188.825 184.522,187.408 185.855,185.99 187.105,184.657 188.355,183.324 189.69,181.99 190.94,180.657 192.273,179.323 
			193.523,178.073 194.773,176.739 196.106,175.489 197.357,174.239 198.691,172.989 199.941,171.738 201.191,170.572 
			202.524,169.322 203.775,168.155 205.108,166.905 206.358,165.738 207.608,164.571 208.942,163.404 210.192,162.237 
			211.526,161.071 212.776,159.987 214.026,158.821 215.359,157.736 216.609,156.653 217.943,155.486 219.194,154.403 
			220.444,153.32 221.777,152.236 223.027,151.236 224.36,150.152 225.611,149.069 226.861,148.069 228.195,146.985 
			229.445,145.985 230.778,144.985 232.028,143.902 233.279,142.901 234.612,141.901 235.862,140.901 237.196,139.901 
			238.446,138.984 239.696,137.984 241.03,136.984 242.28,136.067 243.613,135.067 244.863,134.15 246.113,133.15 247.448,132.233 
			248.698,131.317 250.031,130.4 251.281,129.483 252.531,128.566 253.863,127.649 255.113,126.732 256.447,125.816 
			257.697,124.899 258.947,123.982 260.281,123.149 261.531,122.232 262.863,121.315 264.113,120.481 265.363,119.648 
			266.697,118.731 267.947,117.898 269.281,117.065 270.531,116.148 271.781,115.315 273.113,114.48 274.363,113.647 
			275.697,112.814 276.947,111.98 278.197,111.147 279.531,110.314 280.781,109.48 282.113,108.73 283.363,107.897 284.697,107.063 
			285.947,106.229 287.197,105.479 288.531,104.646 289.781,103.896 291.113,103.063 292.363,102.313 293.613,101.479 
			294.947,100.729 296.197,99.979 297.531,99.229 298.781,98.396 300.031,97.646 301.363,96.895 302.613,96.145 303.947,95.395 
			305.197,94.645 306.447,93.895 307.781,93.145 309.031,92.395 310.363,91.645 311.613,90.895 312.863,90.145 314.197,89.394 
			315.447,88.727 316.781,87.977 318.031,87.227 319.281,86.561 320.613,85.811 321.863,85.061 323.197,84.394 324.447,83.644 
			325.697,82.977 327.031,82.227 328.281,81.561 329.613,80.894 330.863,80.144 332.113,79.477 333.447,78.811 334.697,78.061 
			336.031,77.394 337.281,76.727 338.531,76.061 339.863,75.311 341.113,74.644 342.447,73.977 343.697,73.311 344.947,72.644 
			346.281,71.977 347.531,71.311 348.863,70.644 350.113,69.977 351.363,69.311 352.697,68.644 353.947,67.977 355.281,67.311 
			356.531,66.727 357.781,66.061 359.113,65.394 360.363,64.727 361.697,64.144 362.947,63.477 364.197,62.811 365.531,62.144 
			366.781,61.561 368.113,60.894 369.363,60.311 370.613,59.644 371.947,58.977 373.197,58.394 374.531,57.727 375.781,57.144 
			377.031,56.477 378.363,55.894 379.613,55.311 380.947,54.644 382.197,54.061 383.447,53.394 384.781,52.811 386.031,52.227 
			387.363,51.561 388.613,50.977 389.863,50.394 391.197,49.811 392.447,49.144 393.781,48.561 395.031,47.977 396.363,47.394 
			397.613,46.811 398.863,46.227 400.197,45.561 401.447,44.977 402.781,44.394 404.031,43.811 405.281,43.227 406.613,42.644 
			407.863,42.061 409.197,41.477 410.447,40.894 411.697,40.311 413.031,39.727 414.281,39.144 415.613,38.561 416.863,37.977 
			418.113,37.477 419.447,36.894 420.697,36.311 422.031,35.727 423.281,35.144 424.531,34.561 425.863,34.061 427.113,33.477 
			428.447,32.894 429.697,32.311 430.947,31.811 432.281,31.227 433.531,30.644 434.863,30.144 436.113,29.561 437.363,28.977 
			438.697,28.477 439.947,27.894 441.281,27.311 442.531,26.811 443.781,26.227 445.113,25.727 446.363,25.144 447.697,24.644 		"/>
		<g>
			
				<rect x="239.5" y="216.377" fill="#CCDEF0" stroke="#CCDEF0" stroke-width="2.181" stroke-linejoin="round" width="179.947" height="72.066"/>
			<g>
				<text transform="matrix(1 0 0 1 288.4092 234.3906)"><tspan x="0" y="0" font-size="9">Measured Data</tspan><tspan x="0" y="13.333" font-size="9">Interpolated Data</tspan><tspan x="0" y="26.666" font-size="9">Transformed Display Function</tspan><tspan x="0" y="40" font-size="9">Standard Display Function</tspan></text>
			</g>
			
				<line fill="none" stroke="#ED1C24" stroke-linejoin="round" stroke-dasharray="3.8971" x1="250.031" y1="245.359" x2="277.031" y2="245.359"/>
			
				<line fill="none" stroke="#2E3192" stroke-width="2.5981" stroke-linejoin="round" x1="250.031" y1="231.955" x2="277.031" y2="231.955"/>
			
				<line fill="none" stroke="#FFFFFF" stroke-linejoin="round" stroke-dasharray="3.8971" x1="250.031" y1="272.166" x2="277.031" y2="272.166"/>
			<line fill="none" stroke="#0DB14B" stroke-width="2.5981" x1="250.031" y1="258.762" x2="277.031" y2="258.762"/>
		</g>
	</g>
</g>
</svg>
