<?xml version="1.0" encoding="utf-8"?>
<!-- $Source: /home/bbennett/pass/archive/DicomXml/docbook/part03/figures/PS3.3_C.8.22-1.svg,v $ -->
<!-- $Date: 2014/05/09 13:15:42 $ -->
<!-- $Revision: 1.1 $ -->

<!DOCTYPE svg PUBLIC "-//W3C//DTD SVG 1.1//EN" "http://www.w3.org/Graphics/SVG/1.1/DTD/svg11.dtd">
<svg version="1.1" id="Layer_1" xmlns="http://www.w3.org/2000/svg" xmlns:xlink="http://www.w3.org/1999/xlink" x="0px" y="0px"
	 width="502px" height="422px" viewBox="0 0 502 422" enable-background="new 0 0 502 422" xml:space="preserve">

<defs>
	<style type="text/css">
	text {
	  font-family: Helvetica, Verdana, ArialUnicodeMS, san-serif
	}
	</style>
</defs>

<g>
   <desc>
	PS 3.3 Part 3: Information Object Definitions
   </desc>
</g>

<rect x="1" y="1" fill="#F5EED6" width="500" height="420"/>
<g>
	<g>
		<rect x="264.575" y="292.069" fill="#B2CEE7" width="44.892" height="11.168"/>
		<g>
			<text transform="matrix(1 0 0 1 266.1826 300.749)" font-size="8">Gantry Tilt</text>
		</g>
		<g>
			<text transform="matrix(1 0 0 1 240.2109 285.4795)" font-size="7.8763">0</text>
		</g>
		<g>
			<text transform="matrix(1 0 0 1 229.7227 289.418)" font-size="7.8763">-</text>
		</g>
		<g>
			<text transform="matrix(1 0 0 1 252.2861 288.8379)" font-size="7.8763">+</text>
		</g>
		<path fill="#005695" stroke="#000000" d="M232.584,354.895c0-1.763,0.18-3.463,0.512-5.072l-15.164-4.712l-22.953,8.806
			l46.072,17.995C236.115,369.414,232.584,362.74,232.584,354.895z"/>
		<path fill="#CCCCCC" stroke="#000000" stroke-linecap="round" stroke-linejoin="round" d="M269.277,317.878l-1.823,57.74
			l-48.021,27.353l-5.521-80.526L269.277,317.878z M257.953,354.747c0-9.979-5.712-18.07-12.759-18.07
			c-7.049,0-12.761,8.091-12.761,18.07c0,9.978,5.712,18.066,12.761,18.066C252.241,372.813,257.953,364.725,257.953,354.747z"/>
		<polygon fill="#FFFFFF" stroke="#000000" stroke-linecap="round" stroke-linejoin="round" points="210.336,395.666 
			203.214,321.139 213.913,322.444 219.434,402.971 		"/>
		<polygon fill="none" stroke="#000000" stroke-dasharray="2,2" points="222.436,403.501 192.533,326.008 201.183,321.771 
			231.298,398.352 		"/>
		<path fill="#808080" stroke="#000000" stroke-linecap="round" stroke-linejoin="round" d="M239.423,370.866
			c1.733,1.246,3.693,1.947,5.771,1.947c7.047,0,12.759-8.089,12.759-18.066c0-9.979-5.712-18.07-12.759-18.07
			c-2.313,0-4.487,0.872-6.357,2.398h-0.017c5.06,0.82,9.012,7.653,9.012,15.959c0,7.972-3.638,14.585-8.406,15.83L239.423,370.866z
			"/>
		<polygon fill="#808080" stroke="#000000" stroke-linecap="round" stroke-linejoin="round" points="203.214,321.139 
			258.277,317.282 269.277,317.878 213.913,322.444 		"/>
		<path fill="#005695" stroke="#000000" d="M298.451,370.131l-65.355-20.309c-0.332,1.609-0.512,3.31-0.512,5.072
			c0,7.846,3.531,14.52,8.467,17.017l39.264,15.338L298.451,370.131z"/>
		<path fill="#B2CEE7" stroke="#000000" d="M235.718,354.094l0.679,0.11l4.621,0.697l0.248-0.011l0.557-0.344l0.137-0.123
			l0.429-0.629l0.28-0.835l0.066-0.871l-0.15-0.743l-0.074-0.185l-0.381-0.515l-0.224-0.129l-4.467-1.527l-2.872-0.95l-0.755-0.161
			l-0.227-0.012c-0.53,1.774-0.862,3.693-0.966,5.704l0.062,0.031L235.718,354.094z"/>
		<path fill="#B2CEE7" stroke="#000000" d="M232.995,352.897l-0.26-0.807c-0.097,0.894-0.15,1.804-0.15,2.736l0.242-0.504
			L232.995,352.897z"/>
		<polygon fill="#B2CEE7" stroke="#000000" points="244.5,352.095 244.082,351.48 243.525,351.083 243.051,350.996 242.33,350.868 
			241.724,351.134 241.16,351.447 240.792,352.054 240.584,352.561 240.534,353.222 240.742,353.928 241.162,354.541 
			241.714,354.94 242.292,355.053 242.91,355.147 243.521,354.895 244.074,354.569 244.453,353.973 244.644,353.458 
			244.699,352.803 		"/>
		<polygon fill="#B2CEE7" stroke="#000000" points="254.847,353.819 254.754,353.631 254.401,353.161 254.136,353.034 
			250.123,351.773 249.491,351.64 244.859,350.996 244.205,351.004 243.847,351.122 243.293,351.43 242.834,352.1 242.779,352.196 
			242.539,352.997 242.512,353.833 242.533,353.94 242.754,354.735 243.174,355.223 243.476,355.457 244.088,355.701 
			248.64,356.736 249.276,356.837 253.455,357.075 253.748,357.052 254.229,356.738 254.377,356.593 254.737,356.021 
			254.957,355.271 254.995,354.488 		"/>
		<path fill="#B2CEE7" stroke="#000000" d="M235.297,358.683l0.944-1.151l0.6-1.519l0.139-1.598l-0.347-1.373l-0.838-1.06
			l-0.972-1.103l-1.504-0.471l-0.33-0.066c-0.265,1.453-0.405,2.98-0.405,4.552c0,1.62,0.148,3.193,0.434,4.692l1.166-0.336
			L235.297,358.683z"/>
		<path fill="#B2CEE7" stroke="#000000" d="M245.385,354.721l-0.091-0.19l-1.091-0.983l-1.244-0.875l-1.92-0.626l-4.207-0.295
			l-1.436-0.099l-1.565,0.729l-0.138,0.07l-1.074,1.11c-0.023,0.44-0.035,0.885-0.035,1.333c0,1.739,0.176,3.42,0.498,5.011
			l3.186,2.143l1.93,0.66l1.639,0.074l1.58-0.024l0.221-0.092l1.607-0.889l1.384-1.562l0.027-0.054l0.861-1.839l0.021-0.047
			l0.271-1.951L245.385,354.721z"/>
		<polygon fill="#B2CEE7" stroke="#000000" points="256.935,354.616 256.597,354.063 256.117,353.68 255.586,353.543 
			255.116,353.455 254.524,353.626 254.077,353.907 253.682,354.39 253.541,354.86 253.436,355.412 253.565,356.029 
			253.901,356.582 254.381,356.969 254.911,357.109 255.38,357.186 255.972,357.024 256.41,356.73 256.818,356.26 256.946,355.784 
			257.059,355.231 		"/>
		<polygon fill="#B2CEE7" stroke="#000000" points="249.358,356.748 249.156,355.881 248.722,355.334 247.953,354.582 
			246.909,354.356 246.176,354.218 245.207,354.59 244.588,354.939 244.06,355.683 243.873,356.084 243.694,356.629 
			243.666,357.198 243.68,357.711 243.906,358.578 244.363,359.104 245.115,359.871 246.156,360.117 246.889,360.22 
			247.865,359.876 248.471,359.503 248.979,358.755 249.201,358.375 249.381,357.826 249.416,357.255 		"/>
		<polygon fill="#B2CEE7" stroke="#000000" points="262.643,356.492 262.21,355.908 261.938,355.787 259.9,354.896 258.607,354.67 
			257.066,354.715 256.72,354.795 256.129,355.046 255.913,355.187 255.719,355.395 255.586,355.629 255.539,355.845 
			255.659,356.231 255.751,356.505 256.758,357.209 257.103,357.354 258.296,357.78 260.697,358.05 261.71,357.818 261.956,357.755 
			262.226,357.562 262.392,357.441 262.538,357.275 262.641,357.087 262.675,356.919 262.702,356.692 		"/>
		<polygon fill="#B2CEE7" stroke="#000000" points="264.592,359.263 264.539,359.115 264.135,358.515 263.89,358.386 
			263.308,358.277 263.137,358.264 263.141,358.264 263.137,358.264 262.832,358.234 263.137,358.264 255.359,356.021 
			249.83,354.53 249,354.368 248.317,354.723 247.562,355.159 246.916,356.09 246.516,357.325 246.439,358.612 246.709,359.689 
			247.111,360.206 247.754,360.964 253.445,362.014 261.813,363.413 262.264,363.578 262.853,363.651 263.124,363.642 
			263.73,363.203 263.832,363.096 264.325,362.291 264.651,361.249 264.746,360.171 		"/>
		<polygon fill="#B2CEE7" stroke="#000000" points="243.634,358.978 243.104,358.285 242.441,357.582 241.473,357.285 
			240.582,357.138 239.681,357.462 238.93,357.814 238.288,358.578 237.898,359.591 237.836,360.654 238.109,361.545 
			238.614,362.258 239.304,362.934 240.264,363.258 241.156,363.369 242.067,363.076 242.806,362.698 243.427,361.933 
			243.812,360.924 243.887,359.874 		"/>
		<path fill="#B2CEE7" stroke="#000000" d="M239.189,365.035l0.277,0.002l0.676-0.341l0.119-0.139l0.502-0.62l0.307-0.812
			l0.047-0.849l-0.011-0.138l-0.247-0.809l-0.494-0.505l-0.242-0.162l-3.676-1.738l-3.678-0.942c0.276,2.273,0.854,4.4,1.669,6.298
			l4.065,0.673L239.189,365.035z"/>
		<polygon fill="#B2CEE7" stroke="#000000" points="258.343,364.297 258.116,363.293 257.593,362.671 257.365,362.519 256.9,362.44 
			249.361,359.519 244.228,357.634 243.206,357.461 242.125,357.981 241.644,358.229 240.856,359.183 240.369,360.45 
			240.284,361.773 240.613,362.883 240.911,363.452 241.701,364.235 247.016,365.69 254.922,367.695 255.344,367.901 
			256.096,367.979 256.354,367.986 257.129,367.532 257.218,367.431 257.842,366.595 258.246,365.516 258.354,364.396 		"/>
		<polygon fill="#B2CEE7" stroke="#000000" points="266.624,360.528 266.421,360.133 265.85,359.366 264.994,358.982 
			264.527,358.899 263.651,358.989 263.185,359.269 262.669,359.684 262.414,360.003 262.211,360.419 262.103,360.848 
			262.113,361.207 262.178,362.026 262.397,362.417 262.957,363.183 263.809,363.578 264.276,363.64 265.153,363.567 
			265.608,363.271 266.141,362.877 266.392,362.553 266.593,362.137 266.705,361.708 266.705,361.348 		"/>
		<polygon fill="#B2CEE7" stroke="#000000" points="285.826,368.996 285.68,368.57 284.386,367.64 281.558,366.241 274.841,362.679 
			267.862,359.76 267.318,359.665 266.277,359.495 265.853,359.703 265.324,360.027 264.797,360.691 264.377,361.561 
			264.148,362.454 264.158,363.195 264.28,363.618 264.567,364.133 265.403,364.836 272.176,368.2 279.289,370.959 282.203,372.185 
			283.77,372.558 284.11,372.569 284.485,372.354 284.868,372.039 285.271,371.456 285.624,370.726 285.849,369.988 
			285.911,369.383 		"/>
		<polygon fill="#B2CEE7" stroke="#000000" points="242.758,362.635 242.42,362.004 241.955,361.547 241.455,361.351 
			240.809,361.252 240.27,361.384 239.636,361.691 239.288,362.17 238.975,362.704 238.904,363.291 239.053,363.963 
			239.086,364.061 239.275,364.413 239.389,364.59 239.852,365.052 240.352,365.255 240.997,365.336 241.541,365.221 242.162,364.9 
			242.521,364.433 242.824,363.892 242.903,363.311 		"/>
		<polygon fill="#B2CEE7" stroke="#000000" points="248.086,364.848 247.932,364.504 246.182,363.367 245.654,363.196 
			244.404,362.835 242.848,362.764 242.351,362.853 241.768,363.075 241.459,363.226 241.186,363.453 241.006,363.708 
			240.947,363.941 240.874,364.416 241.018,364.707 241.813,365.597 242.889,366.173 243.43,366.331 245.788,366.84 
			246.862,366.667 247.224,366.593 247.619,366.381 247.967,366.074 248.203,365.734 248.281,365.427 		"/>
		<polygon fill="#B2CEE7" stroke="#000000" points="260.004,365.681 259.943,364.794 259.689,364.409 259.104,363.593 
			258.226,363.178 257.691,363.131 256.801,363.208 256.285,363.532 255.788,363.938 255.512,364.28 255.304,364.722 
			255.203,365.168 255.226,365.765 255.276,366.422 255.784,367.155 256.117,367.616 256.994,368.044 257.527,368.064 
			258.419,368.008 258.925,367.667 259.439,367.282 259.711,366.931 259.917,366.492 260.025,366.045 		"/>
		<polygon fill="#B2CEE7" stroke="#000000" points="279.766,373.981 279.573,373.576 278.236,372.57 275.306,371.051 
			268.37,367.196 261.178,364.027 260.052,363.831 259.486,363.785 259.06,363.994 258.476,364.369 257.905,365.089 
			257.472,366.009 257.258,366.938 257.308,367.685 257.42,368.143 257.772,368.639 258.633,369.396 265.605,373.038 
			272.948,376.047 275.962,377.384 277.583,377.799 277.979,377.766 278.36,377.552 278.786,377.186 279.225,376.553 
			279.589,375.779 279.811,375.014 279.846,374.403 		"/>
		<polygon fill="#B2CEE7" stroke="#000000" points="288.409,370.587 288.261,370.338 287.662,369.722 286.835,369.409 
			286.489,369.428 285.665,369.477 285.006,369.872 284.813,370.029 284.622,370.299 284.468,370.633 284.39,370.961 
			284.393,371.219 284.558,371.906 284.721,372.151 285.31,372.772 286.134,373.095 287.033,373.051 287.309,373.024 
			287.979,372.634 288.165,372.473 288.353,372.196 288.506,371.861 288.588,371.533 288.589,371.275 		"/>
		<polygon fill="#B2CEE7" stroke="#000000" points="287.948,370.389 289.329,363.256 289.816,362.241 290.026,361.954 
			290.335,361.653 290.62,361.497 290.785,361.495 290.44,361.428 290.062,361.446 289.735,361.548 289.521,361.713 
			288.803,362.303 288.689,362.654 287.047,369.468 286.734,371.914 286.875,373.028 287.093,373.48 287.63,373.824 
			287.614,372.836 		"/>
		<polyline fill="#B2CEE7" stroke="#000000" points="290.335,361.653 290.026,361.954 289.816,362.241 289.329,363.256 
			287.948,370.389 287.614,372.836 287.63,373.824 287.771,373.888 289.535,372.361 289.733,372.005 290.07,370.737 
			290.448,368.302 291.059,361.909 290.785,361.495 290.62,361.497 290.335,361.653 		"/>
		<polygon fill="#B2CEE7" stroke="#000000" points="282.356,376.632 282.188,375.875 281.999,375.643 281.382,374.973 
			280.526,374.629 279.602,374.671 279.28,374.722 278.607,375.121 278.394,375.301 278.184,375.599 278.023,375.953 
			277.945,376.294 277.966,376.553 278.114,377.312 278.315,377.538 278.921,378.212 279.774,378.568 280.708,378.532 
			281.029,378.471 281.711,378.077 281.921,377.889 282.128,377.589 282.287,377.234 282.368,376.892 		"/>
		<polygon fill="#B2CEE7" stroke="#000000" points="281.47,375.919 282.716,368.521 283.236,367.435 283.469,367.117 
			283.812,366.775 284.136,366.582 284.33,366.561 283.964,366.486 283.563,366.516 283.208,366.639 282.963,366.829 
			282.233,367.432 282.086,367.84 280.575,374.875 280.331,377.389 280.525,378.528 280.723,379.043 281.271,379.428 281.2,378.433 
					"/>
		<polyline fill="#B2CEE7" stroke="#000000" points="283.812,366.775 283.469,367.117 283.236,367.435 282.716,368.521 
			281.47,375.919 281.2,378.433 281.271,379.428 281.44,379.473 283.417,377.708 283.63,377.327 283.962,376.005 284.277,373.498 
			284.669,366.95 284.33,366.561 284.136,366.582 283.812,366.775 		"/>
		<g>
			<g>
				<line fill="none" stroke="#00AEEF" stroke-width="2" x1="242.228" y1="355.41" x2="242.228" y2="298.133"/>
				<g>
					<polygon fill="#00AEEF" points="245.714,300.511 242.228,287.502 238.741,300.511 					"/>
				</g>
			</g>
		</g>
		<g>
			<g>
				
					<line fill="none" stroke="#00AEEF" stroke-width="2" stroke-dasharray="2,2" x1="242.228" y1="355.394" x2="232.948" y2="303.047"/>
				<g>
					<polygon fill="#00AEEF" points="236.795,304.779 231.092,292.579 229.93,305.997 					"/>
				</g>
			</g>
		</g>
		<g>
			<g>
				
					<line fill="none" stroke="#00AEEF" stroke-width="2" stroke-dasharray="2,2" x1="242.357" y1="355.394" x2="251.637" y2="303.047"/>
				<g>
					<polygon fill="#00AEEF" points="254.654,305.997 253.492,292.579 247.789,304.78 					"/>
				</g>
			</g>
		</g>
		<g>
			<g>
				<path fill="none" stroke="#003468" stroke-width="2" d="M240.692,305.946c0.491-0.015,0.985-0.022,1.48-0.022
					c0.533,0,1.064,0.009,1.593,0.026"/>
				<g>
					<polygon fill="#003468" points="242.494,308.19 233.641,306.694 242.056,303.562 					"/>
				</g>
				<g>
					<polygon fill="#003468" points="241.958,308.194 250.814,306.714 242.405,303.567 					"/>
				</g>
			</g>
		</g>
	</g>
	<g>
		<rect x="53.505" y="69.746" fill="#B2CEE7" width="137.5" height="137.577"/>
		<g>
			<text transform="matrix(1 0 0 1 150.377 79.4727)"><tspan x="0" y="0" font-size="8">Scan Field</tspan><tspan x="-51.129" y="14.052" font-size="8">Data Collection Diameter</tspan><tspan x="-42.688" y="28.048" font-size="8">Data Collection Center</tspan><tspan x="-23.121" y="45.63" font-size="8">Image Pixel Data</tspan><tspan x="-41.797" y="70.949" font-size="8">Reconstruction Center</tspan><tspan x="-50.238" y="88.531" font-size="8">Reconstruction Diameter</tspan><tspan x="-92.93" y="106.113" font-size="8">Reconstruction Field of View (height)</tspan><tspan x="-89.809" y="123.694" font-size="8">Reconstruction Field of View (width)</tspan></text>
		</g>
		<path fill="#B2CEE7" stroke="#003468" stroke-width="0.5" d="M328.495,18.5c-66.279,0-120.008,53.726-120.008,120
			c0,66.275,53.729,120,120.008,120c66.273,0,120-53.725,120-120C448.495,72.225,394.769,18.5,328.495,18.5z M328.495,240.874
			c-56.544,0-102.383-45.835-102.383-102.375c0-56.54,45.839-102.375,102.383-102.375c56.539,0,102.373,45.835,102.373,102.375
			C430.868,195.039,385.034,240.874,328.495,240.874z"/>
		<path fill="#FFFFFF" stroke="#003468" d="M328.495,36.125c-56.544,0-102.383,45.835-102.383,102.375
			c0,56.54,45.839,102.375,102.383,102.375c56.539,0,102.373-45.835,102.373-102.375C430.868,81.959,385.034,36.125,328.495,36.125z
			 M328.495,232.418c-51.871,0-93.925-42.049-93.925-93.918s42.054-93.918,93.925-93.918c51.869,0,93.916,42.049,93.916,93.918
			S380.364,232.418,328.495,232.418z"/>
		<g>
			<line fill="none" stroke="#003468" stroke-width="0.25" x1="328.495" y1="18.5" x2="328.495" y2="44.581"/>
			<line fill="none" stroke="#003468" stroke-width="0.25" x1="307.657" y1="20.322" x2="312.187" y2="46.008"/>
			<line fill="none" stroke="#003468" stroke-width="0.25" x1="287.453" y1="25.735" x2="296.374" y2="50.245"/>
			<line fill="none" stroke="#003468" stroke-width="0.25" x1="268.492" y1="34.576" x2="281.534" y2="57.164"/>
			<line fill="none" stroke="#003468" stroke-width="0.25" x1="251.355" y1="46.572" x2="268.123" y2="66.553"/>
			<line fill="none" stroke="#003468" stroke-width="0.25" x1="236.564" y1="61.362" x2="256.546" y2="78.129"/>
			<line fill="none" stroke="#003468" stroke-width="0.25" x1="224.566" y1="78.497" x2="247.155" y2="91.539"/>
			<line fill="none" stroke="#003468" stroke-width="0.25" x1="215.727" y1="97.454" x2="240.236" y2="106.375"/>
			<line fill="none" stroke="#003468" stroke-width="0.25" x1="210.313" y1="117.658" x2="236" y2="122.188"/>
			<line fill="none" stroke="#003468" stroke-width="0.25" x1="208.489" y1="138.495" x2="234.572" y2="138.497"/>
			<line fill="none" stroke="#003468" stroke-width="0.25" x1="210.312" y1="159.333" x2="236" y2="154.805"/>
			<line fill="none" stroke="#003468" stroke-width="0.25" x1="215.727" y1="179.536" x2="240.237" y2="170.618"/>
			<line fill="none" stroke="#003468" stroke-width="0.25" x1="224.566" y1="198.494" x2="247.155" y2="185.453"/>
			<line fill="none" stroke="#003468" stroke-width="0.25" x1="236.563" y1="215.628" x2="256.547" y2="198.863"/>
			<line fill="none" stroke="#003468" stroke-width="0.25" x1="251.354" y1="230.418" x2="268.125" y2="210.438"/>
			<line fill="none" stroke="#003468" stroke-width="0.25" x1="268.492" y1="242.416" x2="281.536" y2="219.828"/>
			<line fill="none" stroke="#003468" stroke-width="0.25" x1="287.451" y1="251.255" x2="296.374" y2="226.746"/>
			<line fill="none" stroke="#003468" stroke-width="0.25" x1="307.657" y1="256.67" x2="312.187" y2="230.982"/>
			<line fill="none" stroke="#003468" stroke-width="0.25" x1="328.493" y1="258.493" x2="328.495" y2="232.409"/>
			<line fill="none" stroke="#003468" stroke-width="0.25" x1="349.331" y1="256.67" x2="344.802" y2="230.982"/>
			<line fill="none" stroke="#003468" stroke-width="0.25" x1="369.534" y1="251.255" x2="360.616" y2="226.746"/>
			<line fill="none" stroke="#003468" stroke-width="0.25" x1="388.493" y1="242.416" x2="375.45" y2="219.827"/>
			<line fill="none" stroke="#003468" stroke-width="0.25" x1="405.626" y1="230.418" x2="388.862" y2="210.438"/>
			<line fill="none" stroke="#003468" stroke-width="0.25" x1="420.417" y1="215.628" x2="400.437" y2="198.861"/>
			<line fill="none" stroke="#003468" stroke-width="0.25" x1="432.415" y1="198.494" x2="409.825" y2="185.452"/>
			<line fill="none" stroke="#003468" stroke-width="0.25" x1="441.255" y1="179.536" x2="416.745" y2="170.615"/>
			<line fill="none" stroke="#003468" stroke-width="0.25" x1="446.667" y1="159.333" x2="420.981" y2="154.804"/>
			<line fill="none" stroke="#003468" stroke-width="0.25" x1="448.491" y1="138.495" x2="422.407" y2="138.495"/>
			<line fill="none" stroke="#003468" stroke-width="0.25" x1="446.667" y1="117.658" x2="420.981" y2="122.187"/>
			<line fill="none" stroke="#003468" stroke-width="0.25" x1="441.255" y1="97.454" x2="416.745" y2="106.375"/>
			<line fill="none" stroke="#003468" stroke-width="0.25" x1="432.415" y1="78.497" x2="409.825" y2="91.538"/>
			<line fill="none" stroke="#003468" stroke-width="0.25" x1="420.417" y1="61.363" x2="400.437" y2="78.128"/>
			<line fill="none" stroke="#003468" stroke-width="0.25" x1="405.628" y1="46.572" x2="388.862" y2="66.553"/>
			<line fill="none" stroke="#003468" stroke-width="0.25" x1="388.493" y1="34.575" x2="375.45" y2="57.163"/>
			<line fill="none" stroke="#003468" stroke-width="0.25" x1="369.536" y1="25.734" x2="360.614" y2="50.245"/>
			<line fill="none" stroke="#003468" stroke-width="0.25" x1="349.331" y1="20.32" x2="344.802" y2="46.008"/>
		</g>
		<g>
			<line fill="none" stroke="#003468" stroke-width="0.5" x1="318.036" y1="18.956" x2="320.31" y2="44.938"/>
			<line fill="none" stroke="#003468" stroke-width="0.5" x1="297.437" y1="22.588" x2="304.188" y2="47.781"/>
			<line fill="none" stroke="#003468" stroke-width="0.5" x1="277.78" y1="29.742" x2="288.805" y2="53.381"/>
			<line fill="none" stroke="#003468" stroke-width="0.5" x1="259.662" y1="40.2" x2="274.624" y2="61.565"/>
			<line fill="none" stroke="#003468" stroke-width="0.5" x1="243.637" y1="53.645" x2="262.082" y2="72.088"/>
			<line fill="none" stroke="#003468" stroke-width="0.5" x1="230.191" y1="69.668" x2="251.558" y2="84.629"/>
			<line fill="none" stroke="#003468" stroke-width="0.5" x1="219.732" y1="87.782" x2="243.371" y2="98.806"/>
			<line fill="none" stroke="#003468" stroke-width="0.5" x1="212.579" y1="107.438" x2="237.773" y2="114.189"/>
			<line fill="none" stroke="#003468" stroke-width="0.5" x1="208.946" y1="128.037" x2="234.931" y2="130.311"/>
			<line fill="none" stroke="#003468" stroke-width="0.5" x1="208.946" y1="148.954" x2="234.931" y2="146.682"/>
			<line fill="none" stroke="#003468" stroke-width="0.5" x1="212.578" y1="169.553" x2="237.773" y2="162.803"/>
			<line fill="none" stroke="#003468" stroke-width="0.5" x1="219.732" y1="189.208" x2="243.371" y2="178.187"/>
			<line fill="none" stroke="#003468" stroke-width="0.5" x1="230.19" y1="207.323" x2="251.559" y2="192.363"/>
			<line fill="none" stroke="#003468" stroke-width="0.5" x1="243.636" y1="223.346" x2="262.083" y2="204.903"/>
			<line fill="none" stroke="#003468" stroke-width="0.5" x1="259.661" y1="236.791" x2="274.626" y2="215.426"/>
			<line fill="none" stroke="#003468" stroke-width="0.5" x1="277.778" y1="247.249" x2="288.805" y2="223.611"/>
			<line fill="none" stroke="#003468" stroke-width="0.5" x1="297.437" y1="254.403" x2="304.188" y2="229.209"/>
			<line fill="none" stroke="#003468" stroke-width="0.5" x1="318.036" y1="258.036" x2="320.31" y2="232.052"/>
			<line fill="none" stroke="#003468" stroke-width="0.5" x1="338.952" y1="258.036" x2="336.679" y2="232.052"/>
			<line fill="none" stroke="#003468" stroke-width="0.5" x1="359.552" y1="254.403" x2="352.802" y2="229.209"/>
			<line fill="none" stroke="#003468" stroke-width="0.5" x1="379.206" y1="247.249" x2="368.185" y2="223.61"/>
			<line fill="none" stroke="#003468" stroke-width="0.5" x1="397.321" y1="236.791" x2="382.362" y2="215.425"/>
			<line fill="none" stroke="#003468" stroke-width="0.5" x1="413.345" y1="223.346" x2="394.901" y2="204.902"/>
			<line fill="none" stroke="#003468" stroke-width="0.5" x1="426.79" y1="207.323" x2="405.425" y2="192.361"/>
			<line fill="none" stroke="#003468" stroke-width="0.5" x1="437.249" y1="189.208" x2="413.608" y2="178.185"/>
			<line fill="none" stroke="#003468" stroke-width="0.5" x1="444.403" y1="169.553" x2="419.208" y2="162.802"/>
			<line fill="none" stroke="#003468" stroke-width="0.5" x1="448.034" y1="148.954" x2="422.052" y2="146.681"/>
			<line fill="none" stroke="#003468" stroke-width="0.5" x1="448.034" y1="128.037" x2="422.052" y2="130.31"/>
			<line fill="none" stroke="#003468" stroke-width="0.5" x1="444.403" y1="107.438" x2="419.208" y2="114.188"/>
			<line fill="none" stroke="#003468" stroke-width="0.5" x1="437.249" y1="87.782" x2="413.608" y2="98.805"/>
			<line fill="none" stroke="#003468" stroke-width="0.5" x1="426.79" y1="69.668" x2="405.425" y2="84.628"/>
			<line fill="none" stroke="#003468" stroke-width="0.5" x1="413.345" y1="53.645" x2="394.901" y2="72.087"/>
			<line fill="none" stroke="#003468" stroke-width="0.5" x1="397.321" y1="40.199" x2="382.362" y2="61.565"/>
			<line fill="none" stroke="#003468" stroke-width="0.5" x1="379.208" y1="29.741" x2="368.183" y2="53.38"/>
			<line fill="none" stroke="#003468" stroke-width="0.5" x1="359.552" y1="22.586" x2="352.8" y2="47.781"/>
			<line fill="none" stroke="#003468" stroke-width="0.5" x1="338.952" y1="18.954" x2="336.679" y2="44.938"/>
		</g>
		<circle fill="#CCDEF0" stroke="#003468" cx="329.001" cy="138.5" r="81.836"/>
		<path fill="#D1D3D4" stroke="#000000" stroke-width="0.5" d="M302.687,148.026c0-20.466,16.6-37.062,37.061-37.062
			c20.473,0,37.07,16.595,37.07,37.062c0,20.475-16.598,37.062-37.07,37.062C319.286,185.089,302.687,168.501,302.687,148.026z"/>
		<g>
			<g>
				<line fill="none" stroke="#003468" stroke-width="0.5" x1="362.789" y1="124.951" x2="316.719" y2="171.104"/>
				<g>
					<polygon fill="#003468" points="361.062,124.626 365.919,121.816 363.117,126.679 					"/>
				</g>
				<g>
					<polygon fill="#003468" points="316.391,169.376 313.589,174.238 318.446,171.428 					"/>
				</g>
			</g>
		</g>
		<g>
			<g>
				<line fill="none" stroke="#003468" stroke-width="0.5" x1="388.293" y1="91.191" x2="268.689" y2="185.813"/>
				<g>
					<polygon fill="#003468" points="386.614,90.666 391.767,88.442 388.417,92.945 					"/>
				</g>
				<g>
					<polygon fill="#003468" points="268.565,184.059 265.216,188.562 270.368,186.338 					"/>
				</g>
			</g>
		</g>
		<path fill="#6799C8" stroke="#003468" stroke-width="0.5" d="M332.093,138.486c0-1.706-1.383-3.088-3.092-3.088
			c-1.707,0-3.086,1.382-3.086,3.088c0,1.706,1.379,3.087,3.086,3.087C330.71,141.573,332.093,140.192,332.093,138.486z"/>
		<path fill="#939598" stroke="#000000" stroke-width="0.5" d="M342.841,148.026c0-1.705-1.385-3.088-3.092-3.088
			c-1.705,0-3.088,1.383-3.088,3.088c0,1.709,1.383,3.09,3.088,3.09C341.456,151.116,342.841,149.735,342.841,148.026z"/>
		
			<rect x="302.687" y="111.022" fill="none" stroke="#000000" stroke-width="0.5" stroke-dasharray="2,2" width="74.131" height="74.013"/>
		<g>
			<g>
				<path fill="none" stroke="#000000" stroke-miterlimit="1" d="M330.514,148.026c-21.846-0.001-137.415,0-137.415,0"/>
				<g>
					<polygon points="329.718,146.864 334.054,148.026 329.718,149.188 					"/>
				</g>
			</g>
		</g>
		<g>
			<g>
				<path fill="none" stroke="#000000" stroke-miterlimit="1" d="M316.771,165.458c-20.555-0.001-123.672,0-123.672,0"/>
				<g>
					<polygon points="315.974,164.296 320.31,165.458 315.974,166.62 					"/>
				</g>
			</g>
		</g>
		<g>
			<g>
				<polyline fill="none" stroke="#000000" stroke-miterlimit="1" points="299.901,175.032 292.294,183.233 193.099,183.234 				"/>
				<g>
					<polygon points="298.511,174.822 302.312,172.434 300.215,176.403 					"/>
				</g>
			</g>
		</g>
		<g>
			<g>
				<path fill="none" stroke="#000000" stroke-miterlimit="1" d="M313.718,187.069c-6.52,4.133-21.424,13.584-21.424,13.584
					l-99.195,0.001"/>
				<g>
					<polygon points="312.426,186.513 316.71,185.172 313.67,188.476 					"/>
				</g>
			</g>
		</g>
		<g>
			<g>
				<line fill="none" stroke="#000000" stroke-miterlimit="1" x1="308.425" y1="122.03" x2="193.099" y2="122.031"/>
				<g>
					<polygon points="307.633,120.868 311.969,122.03 307.633,123.192 					"/>
				</g>
			</g>
		</g>
		<g>
			<g>
				<polyline fill="none" stroke="#000000" stroke-miterlimit="1" points="326.562,131.855 313.771,105.709 193.099,105.709 				"/>
				<g>
					<polygon points="327.258,130.633 328.119,135.039 325.17,131.654 					"/>
				</g>
			</g>
		</g>
		<g>
			<g>
				<polyline fill="none" stroke="#000000" stroke-miterlimit="1" points="370.626,100.712 348.706,91.309 193.099,91.309 				"/>
				<g>
					<polygon points="370.355,99.332 373.883,102.109 369.439,101.467 					"/>
				</g>
			</g>
		</g>
		<g>
			<g>
				<line fill="none" stroke="#000000" stroke-miterlimit="1" x1="326.625" y1="76.908" x2="193.099" y2="76.908"/>
				<g>
					<polygon points="325.833,75.746 330.169,76.908 325.833,78.07 					"/>
				</g>
			</g>
		</g>
	</g>
</g>
</svg>
