<?xml version="1.0" encoding="utf-8"?>
<!-- $Source: /home/bbennett/pass/archive/DicomXml/docbook/part03/figures/PS3.3_C.8.24.2-3.svg,v $ -->
<!-- $Date: 2014/05/09 13:15:43 $ -->
<!-- $Revision: 1.1 $ -->

<!DOCTYPE svg PUBLIC "-//W3C//DTD SVG 1.1//EN" "http://www.w3.org/Graphics/SVG/1.1/DTD/svg11.dtd">
<svg version="1.1" id="Layer_1" xmlns="http://www.w3.org/2000/svg" xmlns:xlink="http://www.w3.org/1999/xlink" x="0px" y="0px"
	 width="502px" height="302px" viewBox="0 0 502 302" enable-background="new 0 0 502 302" xml:space="preserve">

<defs>
	<style type="text/css">
	text {
	  font-family: Helvetica, Verdana, ArialUnicodeMS, san-serif
	}
	</style>
</defs>

<g>
   <desc>
	PS 3.3 Part 3: Information Object Definitions
   </desc>
</g>

<g>
	<rect x="1" y="1" fill="#F5EED6" width="500" height="300"/>
	<g>
		<polygon fill="#A7A9AC" stroke="#000000" stroke-width="0.5" stroke-linejoin="bevel" stroke-miterlimit="1" points="
			163.548,179.683 71.547,287.908 348.645,288.356 387.402,179.683 		"/>
		
			<rect x="163.973" y="13.358" fill="#D1D3D4" stroke="#000000" stroke-width="0.5" stroke-linejoin="bevel" stroke-miterlimit="1" width="223.728" height="166.19"/>
		<polygon fill="#F1F2F2" stroke="#000000" stroke-width="0.5" stroke-linejoin="bevel" stroke-miterlimit="1" points="
			71.995,99.66 71.995,288.194 164.186,179.549 164.186,13.358 		"/>
		<polygon fill="none" stroke="#000000" stroke-width="0.5" stroke-linejoin="bevel" points="348.248,288.643 387.252,179.549 
			387.252,13.358 348.253,99.66 		"/>
		<g>
			<g>
				<path fill-rule="evenodd" clip-rule="evenodd" fill="#010101" d="M254.206,171.911c-3.1-0.277-6.153-0.677-9.25-0.951
					c-3.062-0.271-6.286-0.32-9.248-0.952c-1.483-0.314-3.053-0.455-4.502-0.821c-1.585-0.403-3.065-0.976-4.579-1.534
					c-1.328-0.494-2.833-0.767-4.204-1.188c-1.366-0.419-2.661-0.696-4.14-0.746c-1.287-0.391-2.518-0.627-3.907-0.672l-1.203-0.368
					l-1.5,0.063l-1.203-0.367c-2.354,0.098-4.651-0.159-6.907-0.548c-0.216,0.062-0.432,0.12-0.647,0.18
					c-6.697,1.841-13.388,2.718-20.177,3.518c-1.606,0.188-3.208,0.062-4.769-0.076c-1.551-0.137-3.147-0.02-4.708-0.158
					c-3.046-0.269-5.95-1.113-9.005-1.386l-2.219,0.262l-1.924-0.171l-2.217,0.26c-1.899-0.479-3.775-0.933-5.59-1.605l-1.749-1.267
					l-0.01-2.092l-1.029-1.464c-1.899-0.481-3.776-0.936-5.59-1.607l-1.327-1.032l-0.669-1.563l1.069-2.391l-0.781-0.135
					c-0.703-0.389-1.403-0.778-2.106-1.169c-0.165-0.885-0.329-1.769-0.495-2.658l0.238-0.763l0.298-0.432
					c0.436-0.354,0.874-0.707,1.312-1.06l4.019-0.755l-0.122-0.665c0.158-0.51,0.315-1.021,0.473-1.53l0.294-0.43l0.238-0.766
					l0.298-0.429c0.439-0.354,0.878-0.709,1.315-1.06l1.5-0.065l1.438-0.395c1.625-0.143,3.239-0.221,4.859-0.287l1.564,0.266
					c0.999-0.04,1.999-0.084,3.001-0.123l1.561,0.269c1-0.045,2.001-0.086,3.002-0.127l1.56,0.267
					c1.127-0.096,2.24-0.179,3.362-0.225l1.563,0.271l1.499-0.064c-0.082-0.442-0.164-0.887-0.245-1.329l-0.424-0.235l-0.483-0.563
					l-0.422-0.234l-0.48-0.565l-0.124-0.666c0.233-0.763,0.47-1.527,0.708-2.289c0.437-0.355,0.876-0.708,1.314-1.062
					c0.479-0.131,0.958-0.263,1.439-0.396l0.779,0.137c0.844,0.468,1.686,0.934,2.529,1.398c0.521,0.091,1.043,0.178,1.563,0.27
					l0.841,0.469c0.909,0.155,1.765,0.274,2.701,0.303c1.352,0.746,2.509,1.687,3.855,2.433c1.267,0.702,2.53,1.403,3.794,2.102
					l1.563,0.271l1.263,0.7l1.203,0.366c1.556,0.864,3.223,1.489,4.783,2.354c1.56,0.863,2.933,1.922,4.488,2.784l3.544,0.772
					c1.347,0.041,2.699,0.169,4.062,0.05c3.333-0.289,6.72-0.73,10.039-1.484c1.536-0.347,3.036-0.922,4.581-1.199
					c1.847-0.332,3.597-0.7,5.419-1.202c3.15-0.866,6.339-1.939,9.523-2.512c3.31-0.593,6.599-0.842,9.914-1.436
					c2.577,0.005,5.283-0.093,7.712,0.568c2.444,0.669,4.898,1.121,7.424,1.558l1.624,0.6c1.039,0.181,2.084,0.361,3.123,0.539
					l1.861-0.163c1.662,0.286,3.252,0.449,4.982,0.377l1.799-0.493l1.86-0.161"/>
				<path fill-rule="evenodd" clip-rule="evenodd" fill="#CCDEF0" d="M256.759,169.291c-3.315,0.393-3.13,0.287-6.407,0.185
					c-3.195-0.1-6.352-0.417-9.546-0.52c-1.325-0.333-2.648-0.67-3.968-1.004l-2.282-0.07c-3.23-0.82-6.209-2.034-9.556-2.612
					l-1.627-0.6c-4.367-0.756-8.844-1.205-13.211-1.957c-1.185,0.047-2.263-0.004-3.422-0.109l-1.86,0.163l-1.565-0.269
					c-1.236,0.108-2.478,0.218-3.718,0.326c-2.544,0.697-5.209,1.69-7.794,1.992c-2.759,0.325-5.515,0.707-8.277,1.028
					c-3.321-0.291-6.642,0.131-9.949-0.16c-1.676-0.147-3.243-0.472-4.944-0.523c-1.585-0.051-3.093-0.323-4.622-0.586l-1.81-1.6
					c-0.44,0.356-0.876,0.706-1.314,1.063l-1.081,0.297l-1.138-0.038l-0.719,0.199c-0.898-0.155-1.809-0.151-2.703-0.307
					l-0.843-0.466l-0.782-0.135l-0.484-0.565c-0.103-0.555-0.206-1.109-0.308-1.661l1.502-0.064l1.437-0.395
					c2.155-0.091,4.258,0.07,6.422-0.021c0.958-0.262,1.917-0.526,2.876-0.791l-0.124-0.665l-0.841-0.47l-0.359,0.099l-0.422-0.23
					l-0.782-0.134l-0.42-0.234l-0.484-0.564l0.236-0.767l-0.72,0.199l-0.42-0.235l-0.297,0.432l-0.72,0.197l-0.474,1.53l-1.857,0.16
					c-4.55-0.403-8.692-1.828-12.742-3.482l0.593-0.863c0.839-0.229,1.681-0.461,2.521-0.691c0.642,0.113,1.255,0.151,1.92,0.171
					c0.48-0.133,0.957-0.264,1.436-0.397c1.126-0.096,2.237-0.176,3.361-0.222c2.774,0.475,5.458,0.397,8.346,0.146l1.797-0.495
					l-0.124-0.663c-0.282-0.154-0.562-0.31-0.843-0.466l-0.78-0.134l-0.358,0.098l-0.782-0.133c-0.28-0.157-0.561-0.312-0.843-0.47
					l-0.956,0.964l-1.078,0.296c-0.891,0.039-1.759,0.057-2.64,0.026c-0.803-0.247-1.605-0.488-2.405-0.734
					c-0.891,0.037-1.757,0.055-2.644,0.027c-0.8-0.243-1.601-0.491-2.402-0.738c-0.761-0.021-1.52-0.048-2.281-0.067
					c-1.202-0.371-2.404-0.74-3.607-1.106l-0.546-0.899l1.019-0.624c1.316-0.364,2.637-0.729,3.955-1.088
					c0.881,0.025,1.749,0.004,2.639-0.031c0.841-0.231,1.68-0.463,2.521-0.693l0.84,0.467c0.667,0.021,1.277,0.061,1.922,0.171
					l1.078-0.297l0.781,0.136l1.081-0.297c0.692,0.117,1.319,0.298,1.982,0.502l0.72-0.197l0.782,0.133l0.358-0.1l0.779,0.137
					l0.721-0.199l0.781,0.133l0.72-0.195l0.657-0.531l-0.062-0.331c-0.42-0.235-0.842-0.467-1.263-0.701l-0.361,0.1
					c-0.28-0.156-0.562-0.31-0.843-0.468l-0.123-0.665l-1.735,0.826l-1.801,0.495c-2.825,0.118-5.332-0.111-8.045-0.583
					c-0.86-0.317-1.675-0.627-2.464-1.064c-0.062-0.334-0.124-0.665-0.186-1l1.015-0.628c2.247-0.199,4.478-0.257,6.722-0.449
					l1.562,0.266c4.425-0.385,8.726-0.086,13.142-0.47l1.561,0.27c1.123-0.048,2.235-0.128,3.363-0.225l0.419,0.233
					c0.081,0.441,0.164,0.886,0.245,1.33l-0.17,1.097c0.596,3.213,1.192,6.426,1.789,9.64l0.543,0.896l0.185,0.999l0.546,0.896
					l0.184,1.001c0.362,0.598,0.725,1.197,1.089,1.794c0.24-0.066,0.48-0.132,0.719-0.196c0.2-0.289,0.399-0.575,0.599-0.864
					c-0.165-0.886-0.33-1.774-0.494-2.658l-0.544-0.897c-0.166-0.888-0.331-1.775-0.496-2.659l-0.483-0.565
					c-0.267-1.44-0.535-2.882-0.802-4.322l0.175-1.096l-0.185-1l0.236-0.761c0.715,0.838,1.361,1.693,1.992,2.597l0.67,1.562
					l0.307,1.661l0.67,1.564l0.309,1.659l0.668,1.566l0.309,1.66l0.781,0.135l0.842,0.468l0.78,0.133l0.845,0.467l0.235-0.765
					c-0.123-0.66-0.246-1.328-0.371-1.992c-0.554-0.646-0.957-1.382-1.511-2.029c-0.185-0.997-0.37-1.993-0.556-2.991l-0.607-1.231
					l-0.247-1.329c-0.558-1.139-1.099-2.277-1.756-3.361l-0.904-0.8l-0.606-1.23c-0.692-0.607-1.278-1.233-1.872-1.932l-1.265-0.698
					l-0.905-0.797l-1.264-0.705l-1.203-0.367l-1.265-0.696c-0.062-0.335-0.123-0.666-0.185-1.002l0.299-0.432
					c0.944,0.524,1.858,0.923,2.888,1.305l1.501-0.065c1.04,0.18,2.083,0.36,3.124,0.54c1.03,0.382,1.944,0.779,2.889,1.301
					l0.966,1.134c2.68,0.678,5.181,1.744,7.699,2.772c2.66,1.927,5.497,3.645,8.403,5.254c2.913,1.609,6.589,1.957,10.004,2.262
					c3.212-0.884,6.425-1.769,9.637-2.65c3.391-0.933,6.756-1.511,10.151-2.445c3.184-0.873,6.274-1.821,9.509-2.203
					c3.424-0.4,6.832-0.938,10.223-0.83c1.685,0.055,3.396,0.12,5.093,0.05c4.165,0.718,8.332,1.434,12.496,2.15l1.623,0.603
					l1.561,0.271l1.503-0.065l1.562,0.267l1.497-0.062l-0.297,0.433l-0.656,0.529l-0.358,0.1l-0.66,0.529l-0.357,0.101l-0.297,0.433
					l-0.237,0.761l0.061,0.333l1.079-0.297l1.377-0.728l1.079-0.296"/>
				<path fill-rule="evenodd" clip-rule="evenodd" fill="#010101" d="M175.743,158.553l-0.719,0.198
					c0.041,0.222,0.082,0.443,0.122,0.665l0.361-0.1l0.299-0.431L175.743,158.553"/>
				<path fill-rule="evenodd" clip-rule="evenodd" fill="#010101" d="M172.269,147.979l-0.062-0.332l0.238-0.762l-3.176,1.222
					c0.7,0.392,1.404,0.778,2.106,1.168l0.658-0.534L172.269,147.979"/>
				<path fill-rule="evenodd" clip-rule="evenodd" fill="#010101" d="M170.921,154.989l0.3-0.434l0.234-0.763
					c-0.32-0.378-0.644-0.754-0.966-1.131l-0.356,0.098l-0.658,0.529l-0.72,0.199l-0.298,0.432l-0.719,0.197l-0.48-0.566
					l0.123,0.664l0.779,0.136c0.482,0.564,0.967,1.132,1.45,1.697C170.048,155.694,170.486,155.341,170.921,154.989"/>
				<path fill-rule="evenodd" clip-rule="evenodd" fill="#010101" d="M169.805,159.139l-0.36,0.101
					c-0.397,0.573-0.792,1.149-1.191,1.723l0.062,0.333l0.422,0.234l0.481,0.564l0.359-0.097L170,162.23l0.72-0.199l-0.071-2.426
					L169.805,159.139"/>
				<polyline fill-rule="evenodd" clip-rule="evenodd" fill="#010101" points="167.473,160.827 167.895,161.06 168.254,160.962 
					167.833,160.728 167.473,160.827 				"/>
			</g>
			<g>
				<path fill-rule="evenodd" clip-rule="evenodd" fill="#010101" d="M99.713,218.104c-0.02-0.258-0.033-0.516-0.049-0.774
					C99.681,217.587,99.693,217.848,99.713,218.104z"/>
				<path fill-rule="evenodd" clip-rule="evenodd" fill="#010101" d="M99.914,220.059c-0.002-0.023-0.005-0.045-0.008-0.069
					C99.909,220.012,99.911,220.036,99.914,220.059z"/>
				<path fill-rule="evenodd" clip-rule="evenodd" fill="#010101" d="M99.664,217.329c-0.029-0.453-0.058-0.907-0.074-1.37
					C99.605,216.422,99.636,216.875,99.664,217.329z"/>
				<path fill-rule="evenodd" clip-rule="evenodd" fill="#010101" d="M99.906,219.989c-0.077-0.617-0.141-1.248-0.193-1.886
					C99.764,218.741,99.83,219.369,99.906,219.989z"/>
				<path fill-rule="evenodd" clip-rule="evenodd" fill="#010101" d="M99.568,213.671c0.011-0.784,0.04-1.578,0.09-2.376
					C99.607,212.096,99.579,212.888,99.568,213.671z"/>
				<path fill-rule="evenodd" clip-rule="evenodd" fill="#010101" d="M99.914,220.059c0.919,7.447,3.62,13.401,7.283,15.677
					c0.026,0.002,0.053,0.003,0.081,0.007c0.435,0.051,0.864,0.114,1.292,0.18C104.236,234.448,100.96,228.241,99.914,220.059z"/>
				<path fill-rule="evenodd" clip-rule="evenodd" fill="#010101" d="M450.941,215.896c-0.175-1.941-0.398-3.882-0.574-5.823
					c-1.16-4.02-2.075-7.887-4.168-11.621c-1.04-1.859-2.403-3.543-4.124-4.908c-1.787-1.422-3.835-2.264-5.938-3.202
					c-2.336-0.514-4.536-0.968-6.93-1.118l-1.444-0.436l-1.467-0.092l-1.446-0.435l-1.101-0.069
					c-0.964-0.287-1.93-0.574-2.893-0.865l-2.568-0.161l-1.445-0.434l-1.469-0.092l-1.488,0.248l-1.102-0.069l-1.488,0.249
					l-1.144,0.613c-0.965-0.289-1.93-0.578-2.893-0.867l-8.074-0.508c-3.125,0.523-6.195,1.287-9.322,1.81l-1.144,0.613
					c-1.237,0.151-2.474,0.301-3.709,0.453l-1.881,0.564c-1.393,0.17-2.8,0.299-4.181,0.532c-1.491,0.248-2.889,0.735-4.385,0.983
					l-0.648-1.41c-0.174-1.151-0.348-2.305-0.518-3.458l-0.627-1.75l0.085-1.365l-0.261-1.728l0.108-1.707
					c-0.175-1.151-0.347-2.304-0.521-3.454l0.086-1.366l-0.52-3.456c-0.378-1.059-0.686-2.048-0.907-3.14l-1.015-1.435l-0.647-1.41
					c-1.11-1.411-2.098-2.791-3.044-4.302c-1.254-1.06-2.519-2.024-3.866-2.981c-1.526-0.581-2.869-1.206-4.294-1.982
					c-1.627-0.359-3.133-0.798-4.705-1.325c-3.352-0.211-6.555-1.095-9.91-1.306l-10.228-0.644c-1.631-0.547-3.263-1.066-4.908-1.56
					c-1.497-0.448-2.808-1.273-4.316-1.728c-1.445-0.432-2.937-1.107-4.418-1.374c-1.799-0.326-3.373-0.726-5.099-1.302
					c-3.048-1.02-6.249-1.521-9.417-2.095c-3.372-0.609-6.71-1.329-10.136-1.544l-6.386-0.402l-1.876,0.567l-1.856,0.228
					l-3.303-0.208l-1.668-0.42c-0.685,0.014-1.366,0.02-2.049,0c-0.015,0.003-0.029,0.006-0.044,0.009
					c-0.147,0.024-0.298,0.043-0.449,0.061c-0.74,0.104-1.487,0.161-2.213,0.066c-0.923,0.555-0.239,1.564-1.19,1.973
					c-3.53,3.433-17.194,15.92-19.66,16.189c-1.061,0.115-2.128,0.228-3.195,0.304c-0.113,0.018-0.225,0.033-0.337,0.055
					c-0.608,0.311-1.268,0.47-1.938,0.493c0.081,0.038,0.164,0.078,0.247,0.113c-2.958,0.27-6.044,0.306-9.013,0.12l-4.649-0.293
					c-0.837-0.053-1.701-0.046-2.527-0.159c-0.742-0.101-1.473-0.436-2.224-0.482c-6.215-0.391-12.45-2.229-18.516-3.562
					c-1.491,0.247-2.979,0.496-4.47,0.744l-1.834-0.114l-1.491,0.25l-6.604-0.416l-1.447-0.435l-1.468-0.093l-1.813-0.457
					l-1.468-0.092c-3.092-0.925-6.082-2.082-9.168-3.008c-3.286-0.984-6.606-1.644-9.911-2.548c-3.11-0.851-6.475-1.169-9.663-1.703
					c-3.151-0.527-6.203-1.102-9.401-1.303c-3.209-0.202-6.341-0.741-9.551-0.942c-3.311-0.209-6.582-0.072-9.893-0.281
					c-1.666-0.104-3.267-0.21-4.93-0.121c-0.562,0.029-1.121,0.01-1.68-0.021c-0.005,0.003-0.01,0.004-0.016,0.007
					c-1.118,0.489-2.264,0.767-3.416,1.031c-0.104,0.082-0.214,0.142-0.322,0.214c-1.487,1.982-2.792,3.891-3.851,5.907
					c-0.02,0.053-0.044,0.102-0.064,0.155c-0.155,0.896-0.426,1.814-0.813,2.75c-1.227,5.024-1.36,10.764-1.668,15.435
					c0.205,0.84,0.396,1.683,0.612,2.53c0.073,0.292,1.034,4.68,0.68,3.862c0.026,0.309,0.034,0.618,0.027,0.93
					c0.267,2.174-0.149,4.291-1.762,5.951c-1.237,1.274-3.002,1.913-4.632,1.625c-0.13-0.003-0.26,0.014-0.391-0.003
					c-0.136-0.019-0.284,0.006-0.43,0.019c-0.263,0.056-0.525,0.104-0.787,0.157c-0.572,0.171-1.204,0.414-1.931,0.576
					c-0.484,0.107-0.954,0.181-1.415,0.229c-0.181,0.304-0.376,0.605-0.607,0.89c-2.583,3.193-4.64,7.027-6.118,11.136
					c-0.179,2.55-1.109,5.051-1.478,7.775c-0.24,1.774-0.35,3.549-0.454,5.314c0.006,0.07,0.017,0.134,0.023,0.206
					c0.533,5.548,0.514,13.771,3.343,18.517c0.48,0.804,0.783,1.668,0.941,2.546c1.511,0.233,3.002,0.256,4.521,0.424
					c-3.663-2.275-6.363-8.229-7.283-15.677c1.046,8.183,4.322,14.39,8.655,15.863c1.159,0.182,2.304,0.391,3.49,0.465
					c6.483,0.409,13.035,1.73,19.549,1.386c1.563-0.083,3.111,0.198,4.665,0.134c1.72-0.066,3.374-0.127,5.09-0.019
					c1.625,0.101,3.202-0.058,4.829-0.037c1.665,0.019,3.261,0.209,4.926,0.12c3.259-0.171,6.525-0.277,9.786-0.41
					c3.238-0.131,6.372-0.438,9.612-0.235c1.537,0.098,2.914,0.278,4.424,0.577c1.273,0.251,2.578,0.156,3.855,0.436
					c2.729,0.599,5.493,1.035,8.224,1.635c1.176,0.259,2.392,0.143,3.569,0.374c1.568,0.31,3.008,0.485,4.608,0.587
					c2.561,0.16,5.374-0.353,7.933-0.53c1.375-0.538,2.725-1.022,4.146-1.451l2.221-0.2l1.877-0.568
					c2.385-0.219,4.857-0.723,7.254-0.571l7.488,0.471c3.367,0.85,6.771,1.606,10.165,2.354l1.792,0.795
					c1.932,0.487,3.858,0.967,5.807,1.395l1.791,0.797l1.813,0.458l1.792,0.795l1.404,1.118l-1.101-0.07
					c-2.395,0.58-4.722,1.366-7.121,1.949l-0.776,0.635c-0.75,0.183-1.495,0.364-2.244,0.544l-0.736-0.045
					c-0.746,0.182-1.494,0.362-2.243,0.543l-2.201-0.139c-2.188-0.656-4.311-1.466-6.498-2.118l-1.101-0.07
					c-0.966-0.291-1.928-0.579-2.895-0.869l-2.566-0.163l-1.446-0.431l-4.036-0.255l-1.082-0.409l-8.855-0.557
					c-3.208-0.202-6.36,0.204-9.555,0.426l-2.244,0.54l-2.589,0.183c-2.625,0.636-5.294,1.5-7.999,1.747
					c-2.734,0.247-5.411,1.051-8.061,1.694l-3.303-0.208l-1.856,0.227l-1.468-0.092l-1.855,0.223l-1.469-0.093l-1.854,0.228
					l-1.833-0.116l-1.859,0.227l-1.465-0.092l-1.858,0.227l-1.834-0.114l-1.49,0.245l-1.833-0.116l-1.857,0.228l-1.834-0.115
					l-1.789-0.796l-1.815-0.458l-1.424-0.777l-1.814-0.453l-2.201-0.14l-1.812-0.456l-3.672-0.231
					c-1.238,0.151-2.472,0.301-3.711,0.45l-1.834-0.115l-1.857,0.227l-9.172-0.578l-1.812-0.457l-8.805-0.554l-1.857,0.227
					l-3.021,1.181l-0.129,2.049l0.347,0.361l-0.022,0.342l0.367,0.022c-0.259,0.211-0.519,0.426-0.778,0.637l-0.366-0.023
					l-0.386,0.319l-1.837-0.115l-1.487,0.245c-0.519,0.426-1.037,0.852-1.555,1.274c-0.288,0.665-0.575,1.332-0.864,2l-0.064,1.021
					l-0.429,1.003l-0.777,0.636l-0.843,1.658l-0.085,1.367l0.67,1.067c0.948,0.517,1.898,1.031,2.849,1.549l1.034,1.092l0.67,1.071
					l0.281,1.387c1.531,0.832,3.042,1.635,4.643,2.346l1.466,0.093l1.812,0.458l8.806,0.554l1.857-0.227l5.136,0.322
					c1.082,0.324,2.161,0.614,3.259,0.891l-0.411,0.658l-0.756,0.295l-0.773,0.637l-0.411,0.657l-0.021,0.344l-0.41,0.658
					l-0.043,0.684l-0.411,0.658l0.325,0.705l-0.042,0.682l0.324,0.705l0.712,0.388l4.034,0.254l1.49-0.249l1.855-0.226
					c1.157-0.35,2.266-0.719,3.389-1.157c1.006-0.822,1.966-1.521,3.085-2.201c1.115-0.187,2.222-0.34,3.346-0.477l1.144-0.61
					l1.489-0.252c1.838-1.113,3.722-2.075,5.374-3.426l1.509-0.591l1.166-0.955c1.509-0.59,3.021-1.178,4.531-1.768l1.49-0.249
					l5.502,0.347l1.814,0.455c3.354,0.211,6.72,0.787,9.999,1.509c1.7,0.375,3.421,0.406,5.135,0.783
					c0.749,0.165,1.576,0.129,2.339,0.177c0.772,0.049,1.514,0.438,2.284,0.486c1.7,0.107,3.314,0.55,4.994,0.655
					c1.788,0.112,3.517,0.188,5.268,0.572c1.615,0.357,3.367,0.316,5.023,0.421c1.666,0.104,3.292,0.548,4.986,0.655l14.69,0.924
					c1.747,0.109,3.44-0.125,5.195-0.015c3.426,0.215,6.724-0.175,10.144-0.357c3.257-0.171,6.522-0.3,9.784-0.433
					c3.145-0.126,6.487,0.396,9.636,0.594l9.572,0.603c3.194,0.201,6.273,0.35,9.468,0.226c1.9-0.076,3.635-0.221,5.505-0.53
					c1.513-0.255,3.004-0.562,4.543-0.642c3.423-0.183,6.822-0.479,10.249-0.264c3.268,0.206,6.387,0.747,9.613,1.287
					c1.603,0.27,3.234,0.238,4.854,0.532c1.479,0.267,2.978,0.305,4.475,0.399c3.499,0.22,6.827,0.287,10.317,0.041
					c1.184-0.081,2.363-0.134,3.544-0.196c3.176-1.039,6.297-1.96,9.408-3.175c1.166-0.707,2.312-1.438,3.451-2.179
					c2.409-2.464,4.689-5.391,6.487-8.283c1.913-3.083,4.108-5.996,6.026-9.078l1.186-1.296l1.533-0.933
					c2.363-2.579,5.446-4.461,7.809-7.04c1.237-1.352,2.66-2.479,3.894-3.828c1.197-1.307,2.396-2.613,3.593-3.919l0.821-1.32
					c0.792-0.862,1.581-1.727,2.373-2.589l1.101,0.07l1.123-0.275l2.201,0.139l1.12-0.271l2.568,0.161l1.08,0.412l3.669,0.229
					l1.078,0.413l1.101,0.068l1.448,0.434l1.101,0.069c0.835,0.319,1.666,0.586,2.524,0.842c3.289,1.79,5.539,4.384,8.032,7.014
					c1.34,0.73,2.626,1.477,3.907,2.301c1.438,0.546,2.878,1.092,4.316,1.641c1.896,0.372,3.782,0.774,5.669,1.189
					c1.968,0.433,3.998,0.446,6.008,0.572c4.077,0.258,7.83-0.602,11.848-0.967c1.542-0.601,3.236-1.018,4.716-1.725
					c1.622-0.774,3.133-1.696,4.758-2.476c2.02-1.649,3.402-3.605,5.134-5.497l0.479-1.683c0.905-1.684,1.871-3.342,2.323-5.191
					c0.436-1.771,1.184-3.771,1.297-5.578C450.861,219.774,451.115,217.823,450.941,215.896z"/>
				<path fill-rule="evenodd" clip-rule="evenodd" fill="#010101" d="M99.574,214.607c-0.002-0.312-0.011-0.62-0.006-0.937
					C99.562,213.987,99.572,214.296,99.574,214.607z"/>
				<path fill-rule="evenodd" clip-rule="evenodd" fill="#010101" d="M99.59,215.959c-0.015-0.446-0.015-0.898-0.017-1.352
					C99.576,215.062,99.575,215.514,99.59,215.959z"/>
				<path fill="#86B2D8" d="M99.71,218.049c-0.041-0.529-0.078-1.058-0.101-1.599C99.633,216.991,99.667,217.521,99.71,218.049z"/>
				<path fill="#86B2D8" d="M99.928,208.454c0.07-0.574,0.148-1.14,0.237-1.698C100.077,207.315,99.998,207.881,99.928,208.454z"/>
				<path fill="#86B2D8" d="M99.899,219.932c-0.004-0.037-0.008-0.073-0.013-0.109C99.892,219.858,99.895,219.896,99.899,219.932z"
					/>
				<path fill="#CCDEF0" d="M448.107,216.781l0.215-3.413c-0.502-2.457-0.64-4.986-1.491-7.369c-0.789-2.214-1.806-4.452-2.79-6.598
					c-1.357-1.917-2.583-3.573-4.468-5.075c-1.526-0.83-3.117-1.516-4.645-2.347c-1.208-0.305-2.418-0.608-3.625-0.913l-1.466-0.093
					l-1.815-0.457l-1.835-0.114l-1.812-0.456l-3.669-0.232l-1.812-0.457c-0.434,1.002-0.862,2.003-1.294,3.002l-0.799,0.977
					c-1.165,0.954-2.33,1.909-3.493,2.863l-1.492,0.248l-1.464-0.093l-1.858,0.227l-1.445-0.434l-1.836-0.116
					c-0.966-0.289-1.928-0.576-2.892-0.867l-1.426-0.773l0.432-1l0.389-0.319l0.733,0.047l0.713,0.388l1.101,0.068l1.078,0.411
					l1.103,0.068l0.756-0.294l0.41-0.658l0.043-0.684l0.774-0.636l1.123-0.272l-0.346-0.363l0.065-1.024l-0.347-0.363
					c-1.079-0.41-2.156-0.821-3.238-1.231l-3.303-0.208l-1.121,0.272l-1.1-0.069l-1.124,0.271l-1.102-0.068
					c-0.745,0.182-1.495,0.362-2.244,0.543l-1.099-0.069c-0.747,0.184-1.498,0.363-2.244,0.545l-1.101-0.069
					c-1.802,0.966-3.759,1.301-5.654,2.041l-1.101-0.068l-1.123,0.27l-1.835-0.114l-1.12,0.271l-0.736-0.047
					c-1.393,0.338-2.732,0.774-4.118,1.111c-0.394,0.908-0.886,1.753-1.274,2.66l-0.043,0.682l-0.432,0.999l-0.064,1.024
					l-0.433,1.001l-0.042,0.68c0.174,1.155,0.346,2.305,0.521,3.459c0.507,1.421,0.806,2.86,1.312,4.274
					c0.471,1.312,1.276,2.524,1.862,3.802c1.084,1.526,2.115,3.019,3.022,4.643c2.655,2.799,5.239,5.491,8.744,7.397l0.692,0.73
					c1.337,0.506,2.615,1.109,3.947,1.616l0.691,0.728l0.325,0.707l-3.303-0.207c-0.979-0.375-1.889-0.838-2.869-1.211l-0.693-0.726
					l-1.078-0.412l-0.691-0.728l-1.06-0.752c-0.458-0.485-0.917-0.973-1.38-1.457l-1.058-0.75c-3.012-1.147-5.266-3.372-7.384-5.604
					c-0.511-0.815-0.919-1.609-1.317-2.479l-1.036-1.091l-0.281-1.39c-0.432-0.938-0.862-1.881-1.296-2.821
					c-0.188-0.925-0.376-1.85-0.562-2.774l0.106-1.705l-0.28-1.387l0.193-3.07l-3.668-0.23c-1.165,0.195-2.274,0.388-3.365,0.814
					l-1.166,0.954l-0.41,0.659l-0.714-0.388l-0.344-0.363l0.063-1.024l0.799-0.975c0.763-0.41,1.524-0.818,2.288-1.229l1.489-0.248
					l1.1,0.069l1.489-0.249c0.858,0.258,1.69,0.528,2.524,0.844c0.479-0.77,0.895-1.493,1.252-2.318l0.235-3.751
					c-0.65-2.249-1.509-4.4-2.16-6.644l-0.669-1.067c-0.261-1.283-0.607-2.54-0.865-3.821l0.063-1.024
					c0.479-0.771,0.896-1.493,1.252-2.319l0.087-1.364c-0.188-0.923-0.377-1.851-0.564-2.774l-0.668-1.068
					c-0.158-1.047-0.33-2.078-0.54-3.117c-0.432-0.94-0.866-1.878-1.297-2.82c-1.116-1.177-2.158-2.308-3.088-3.617l-1.425-0.776
					l-1.037-1.093c-0.949-0.516-1.898-1.033-2.849-1.548c-1.605-0.481-3.081-1.184-4.684-1.666l-1.835-0.116l-1.443-0.432
					c-2.379-0.15-4.763,0.042-7.121-0.106c-2.472-0.155-4.841-0.44-7.283-0.85c-3.274-0.547-6.469-1.39-9.644-2.339
					c-1.778-0.534-3.483-1.117-5.217-1.776c-1.332-0.506-2.779-0.706-4.107-1.213c-6.236-2.371-12.737-3.803-19.34-4.907
					l-3.688,0.109l-1.078-0.409l-2.936-0.186l-1.491,0.25l-1.465-0.093c-3.427,0.828-6.963,1.501-10.448,2.081l-1.1-0.068
					l-1.226-0.024l-0.93-0.881c0,0-16.835,15.108-19.033,15.742c0.192,0.04,0.911-0.049,1.103-0.007
					c4.215-0.291,8.471-0.438,12.6-1.261c2.571,0.161,5.023-0.009,7.582-0.188c2.392-0.165,4.656-0.07,7.047,0.081
					c1.16,0.072,2.28-0.127,3.439-0.125c1.087-0.004,2.191,0.137,3.281,0.206c2.473,0.155,4.856,0.646,7.334,0.803
					c1.526-0.817,3.05-1.633,4.577-2.451c2.499-0.498,4.966-1.086,7.464-1.586l7.557,0.476c2.332,0.146,4.74,0.866,7.032,1.318
					c1.295,0.258,2.597,0.49,3.897,0.723c0.974,0.177,1.858,0.71,2.83,0.902c2.415,0.476,4.69,1.265,7.091,1.792l0.712,0.389
					l0.688,0.729l0.324,0.703l-0.064,1.024c-0.257,0.212-0.517,0.425-0.774,0.638l-0.367-0.022
					c-1.818-1.294-3.582-2.296-5.698-3.099l-0.735-0.046c-0.719-0.274-1.438-0.548-2.157-0.822l-1.102-0.069l-0.712-0.387
					l-2.203-0.139l-1.078-0.41l-1.101-0.069l-1.08-0.412l-1.1-0.068l-1.446-0.434l-8.071-0.507l-1.122,0.271l-1.472-0.092
					c-1.981,0.481-3.987,0.855-5.976,1.338l-1.143,0.611l-1.122,0.271l-1.146,0.614c-0.517,0.424-1.035,0.846-1.55,1.271
					c-0.578,1.334-1.153,2.667-1.729,4l-0.733-0.045l-0.344-0.365l0.107-1.704l0.408-0.659l0.39-0.32
					c-3.6-0.903-7.438-1.835-11.168-2.069c-3.893-0.245-7.844-0.707-11.734-0.3c-3.495,0.366-6.986,0.451-10.471,0.879
					c-2.984,0.361-6.083,0.867-9.087,0.955c-3.516,0.104-6.958,0.544-10.477,0.621c-3.258,0.07-6.409-0.555-9.675-0.257
					c-1.501-0.329-2.845-0.521-4.382-0.619c-3.417-0.858-6.858-1.442-10.144-2.689l-2.202-0.14
					c-1.328-0.334-2.655-0.642-3.991-0.938l-1.858,0.227l-1.835-0.116l-1.856,0.228c-1.373,0.534-2.724,1.021-4.143,1.451
					l-0.777,0.634c-1.285,0.312-2.47,0.823-3.757,1.134l-1.833-0.114l-0.712-0.389c0.519-0.421,1.036-0.847,1.553-1.272l0.733,0.048
					l0.756-0.295l0.391-0.319l0.365,0.023c-6.434-1.754-12.909-3.256-19.336-5.01c-6.536-1.783-13.167-2.966-19.73-4.618
					c-6.176-1.552-12.816-1.511-19.149-1.909l-1.854,0.225l-6.238-0.393l-1.859,0.227c-2.001-0.126-3.989-0.186-5.975-0.237
					c-3.415,2.873-6.102,9.659-6.608,17.729c-0.664,10.552,2.641,19.391,7.446,20.271c0.438-0.015,0.877-0.021,1.317,0.007
					l10.29,0.647c3.201,0.202,6.267,1.396,9.409,1.961c0.605-1.787,1.208-3.573,1.813-5.364c0.867-1.06,1.548-2.212,2.414-3.27
					l1.167-0.955l1.145-0.613l0.796-0.977l1.124-0.273l1.145-0.611l1.12-0.272l2.201,0.137l1.08,0.412l0.345,0.362l-0.021,0.343
					l-0.755,0.295l-0.021,0.342l-1.833-0.117c-0.929,0.365-1.783,0.735-2.655,1.203c-1.533,1.255-2.918,2.47-4.156,3.983
					c-1.08,1.326-1.619,2.992-2.271,4.517l0.299,1.044l-0.064,1.025c0.287,0.625,0.626,1.187,0.995,1.773l0.691,0.729l0.67,1.069
					c0.458,0.486,0.918,0.974,1.379,1.455l0.671,1.07c0.46,0.486,0.919,0.973,1.38,1.457c0.371,0.588,0.707,1.148,0.995,1.774
					l-1.102-0.069c-1.034-1.093-2.072-2.182-3.106-3.277l-1.059-0.75c-1.039-1.092-2.071-2.187-3.109-3.279l-0.671-1.068
					c-4.506-0.755-8.776-1.922-13.362-2.21c-1.46-0.093-2.885-0.526-4.35-0.618l-5.259-0.33c-1.553-0.098-3.116,0.147-4.681,0.048
					c-1.663-0.104-3.273-0.035-4.939,0.032c-1.688,0.069-3.3,0.129-4.96,0.407c-0.371,0.062-0.741,0.098-1.112,0.123
					c-4.004,2.5-7.324,8.731-8.697,16.787c-0.026,0.153-0.048,0.312-0.073,0.465c-0.089,0.559-0.167,1.124-0.237,1.698
					c-0.026,0.204-0.051,0.407-0.074,0.613c-0.08,0.732-0.148,1.474-0.196,2.228c-0.047,0.742-0.071,1.479-0.084,2.21
					c-0.003,0.225-0.004,0.446-0.004,0.671c-0.003,0.513,0.004,1.024,0.019,1.53c0.007,0.248,0.01,0.499,0.022,0.744
					c0.022,0.541,0.06,1.069,0.101,1.599c0.048,0.601,0.104,1.192,0.176,1.773c0.005,0.036,0.008,0.072,0.013,0.109
					c0.738,5.906,2.637,10.797,5.255,13.643c0.332,0.011,0.663,0.023,0.985,0.045c1.646,0.103,3.263,0.547,4.932,0.651
					c0.836,0.053,1.662,0.31,2.475,0.49c0.772,0.171,1.666,0.111,2.458,0.16l24.693,1.554c1.667,0.104,3.357-0.128,5.047-0.022
					c1.645,0.104,3.306-0.135,4.975-0.029c1.606,0.101,3.387-0.236,4.995-0.35c3.312-0.23,6.627-0.46,9.938-0.688
					c1.535-0.106,3.12,0.118,4.658,0.216c1.545,0.098,3.196,0.045,4.712,0.342c3.419,0.678,6.843,1.314,10.274,1.936
					c6.321,1.141,13.094,1.629,19.426,0.574c2.823-1.103,5.675-1.825,8.635-2.541c1.671,0.105,3.334-0.132,4.981-0.029l5.462,0.343
					c3.337,0.212,6.76,1.356,10.039,2c2.142,0.819,4.27,1.288,6.519,1.782l2.221-0.202l1.792,0.797l1.813,0.459l1.79,0.794
					c1.211,0.306,2.419,0.61,3.627,0.914l1.793,0.796c1.209,0.308,2.417,0.61,3.625,0.917c1.134-0.343,2.196-0.62,3.369-0.817
					l1.834,0.117l1.489-0.25l5.503,0.347c1.738-0.212,3.462-0.49,5.203-0.701l1.465,0.092l1.816,0.456l3.3,0.208l1.446,0.434
					l1.835,0.117l1.446,0.434l3.302,0.207c1.488-0.249,2.979-0.499,4.468-0.748c1.019-0.62,2.043-1.239,3.062-1.86l-1.078-0.411
					c-0.922-0.97-1.844-1.941-2.762-2.914c-0.672-1.067-1.343-2.137-2.012-3.206l-1.056-0.751c-0.61-1.325-1.361-2.574-1.967-3.892
					l0.087-1.365l0.408-0.658l1.383,1.457c1.029,1.842,2.315,3.503,3.35,5.348c1.57,1.658,3.098,3.27,4.854,4.756l2.16,0.822
					l0.386-0.32l0.367,0.023c0.39-0.318,0.78-0.634,1.167-0.954l0.734,0.046l0.346,0.366l-1.209,1.634
					c-2.191,1.05-4.268,1.958-6.614,2.667c-2.297,0.694-4.637,1.267-6.938,1.96c-1.773-0.318-3.544-0.64-5.315-0.957
					c-2.981-0.538-6.228-0.451-9.256-0.643c-3.481-0.219-6.893,0.102-10.369,0.286c-6.5,0.345-12.881,1.332-19.023,3.344
					l-1.531,0.929l-1.511,0.592c-1.114,0.185-2.224,0.337-3.345,0.473l-1.814-0.457l-5.503-0.347
					c-2.717-1.206-5.521-1.866-8.289-2.917c-3.788-0.749-7.612-1.505-11.464-1.748c-0.924-0.058-1.834,0.077-2.752,0.163
					c-0.856,0.077-1.756-0.165-2.619-0.156c-1.856,0.017-3.741,0.354-5.593,0.483c-1.724,0.117-3.395,0.236-5.068,0.641
					c-1.533,0.373-2.962,0.978-4.524,1.24c-3.25,0.545-6.483,1.139-9.747,1.545c-1.696,0.21-3.484,0.191-5.197,0.312
					c-1.603,0.11-3.163,0.509-4.773,0.62c-1.541,0.105-3.06-0.158-4.597-0.077c-1.765,0.094-3.326,0.305-5.049,0.65
					c-3.708-0.233-7.374,0.073-11.074,0.33c-3.033-0.765-6.045-1.728-9.043-2.625l-1.467-0.093l-1.447-0.43l-7.337-0.462
					c-1.491,0.246-2.979,0.495-4.469,0.744l-1.102-0.068l-0.752,0.296l-0.388,0.317l-0.064,1.024l-0.821,1.316l-0.388,0.319
					l-0.347-0.365l-1.466-0.092l-0.713-0.388l-0.735-0.047l-0.346-0.364l0.021-0.341c0.259-0.211,0.518-0.423,0.776-0.636
					l0.368,0.023l0.389-0.319l1.102,0.069l0.387-0.317l-1.078-0.409l-1.102-0.07l-1.08-0.409l-11.374-0.716l-1.121,0.271
					l-1.102-0.068l-1.123,0.272l-0.021,0.34l10.62,1.011l0.347,0.366l0.71,0.385l-0.064,1.024l-1.122,0.272l-0.733-0.047
					l-1.124,0.27l-1.098-0.069l-1.124,0.274l-1.099-0.071l-0.755,0.297l-2.936-0.183L104.412,252l-2.201-0.139l-0.756,0.295
					l-2.201-0.139c-0.648,0.529-1.294,1.061-1.943,1.591l-0.085,1.363l2.204,0.139l0.752-0.294l0.022-0.34l1.08,0.409l2.201,0.138
					l1.122-0.27l1.103,0.07c1.087,0.411,1.914,0.881,2.849,1.548l-1.534,0.93l-0.346-0.365l-0.709-0.386l-0.735-0.046l-0.389,0.316
					l-1.833-0.115l-0.713-0.386l-0.777,0.635l-1.102-0.069l-1.121,0.274l-2.204-0.14l-1.12,0.272
					c-0.519,0.424-1.037,0.849-1.554,1.271l0.647,1.409l1.059,0.752l1.445,0.434l1.47,0.092c1.11-0.186,2.222-0.338,3.345-0.474
					l1.466,0.091l1.448,0.435l-0.065,1.023l-0.389,0.318c-0.97,0.377-1.982,0.591-2.999,0.839l-0.735-0.047l-0.777,0.636l-0.432,1
					c2.184,0.551,4.365,1.136,6.519,1.78l8.805,0.555l1.858-0.227l8.07,0.508l1.445,0.435c1.034-2.566,1.905-5.075,3.576-7.338
					c1.508-2.045,2.448-4.69,3.584-6.938l0.475-1.682l0.842-1.659l0.736,0.047l0.344,0.366l-0.042,0.679l0.367,0.025l-0.064,1.023
					c-1.056,1.693-1.766,3.504-2.548,5.319l-0.774,0.635c-0.336,0.773-0.616,1.542-0.886,2.342c-0.782,1.257-1.146,2.656-1.726,4
					l-0.194,3.07c0.765-0.407,1.527-0.819,2.291-1.227c0.741-1.196,1.325-2.44,2.07-3.638l0.064-1.021l0.455-1.344l0.799-0.975
					l0.064-1.024l0.408-0.659l0.756-0.294c0.409-0.659,0.82-1.318,1.23-1.98c-0.266-0.579-0.45-1.136-0.627-1.75l0.41-0.658
					l0.735,0.046l0.346,0.365l0.324,0.704l0.343,0.363l-0.042,0.685l-0.429,0.999l-0.064,1.021
					c-0.288,0.667-0.576,1.335-0.864,2.003l-0.064,1.022c-0.431,1.001-0.863,2-1.295,3l-0.064,1.022l-0.799,0.979
					c-0.287,0.663-0.576,1.333-0.86,2.001l-0.799,0.977l-0.778,0.636l-0.8,0.979l-1.141,0.61l-1.122,0.271l-1.146,0.614
					c-0.745,0.18-1.495,0.36-2.243,0.542l-1.146,0.613l-0.774,0.636l-0.454,1.343l-0.432,1l1.854-0.227
					c1.008-0.394,2.016-0.786,3.021-1.18l1.858-0.226l1.509-0.589l1.167-0.955l1.51-0.59l1.555-1.271l1.123-0.272l1.099,0.07
					l1.124-0.273l1.145-0.612l1.121-0.273l0.777-0.636l1.124-0.271l1.14-0.613l0.778-0.637l1.145-0.613l0.774-0.637l1.146-0.611
					l1.123-0.272l1.141-0.613c0.75-0.181,1.5-0.362,2.248-0.543c3.331-0.134,6.569,0.07,9.896,0.279
					c3.289,0.207,6.5,0.752,9.791,0.959c3.209,0.201,6.531,1.081,9.71,1.58c3.179,0.5,6.357,1.059,9.531,1.589
					c1.444,0.239,2.929,0.145,4.367,0.386c1.766,0.296,3.453,0.544,5.239,0.657c3.098,0.195,6.157,0.729,9.269,0.926l1.49-0.249
					l2.934,0.185l1.489-0.247l1.835,0.115l1.489-0.25l1.467,0.093l1.49-0.249l0.228,0.014c3.155,0.199,6.229,0.463,9.377,0.243
					c1.58-0.109,3.383-0.468,4.961-0.368l25.125,1.58l1.856-0.225l2.2,0.138c1.978-0.238,3.96-0.413,5.936-0.653l1.837,0.115
					c1.996-0.243,3.895-0.438,5.911-0.312l1.855-0.227l3.67,0.231l1.856-0.226l10.272,0.647l-0.713-0.39l-0.365-0.023l-0.712-0.384
					l-1.101-0.07l-0.714-0.387l-0.366-0.022l-0.325-0.707l0.39-0.317l0.754-0.295l0.391-0.318l0.366,0.023
					c2.718,1.212,5.52,1.867,8.286,2.916c2.05,0.404,4.075,0.942,6.158,1.073l5.907,0.372c3.979,0.25,8.03-0.377,11.869-1.308
					c2.557-1.222,5.185-2.165,7.599-3.633c2.855-3.116,5.38-6.132,7.273-9.862c1.993-3.935,3.95-7.29,7.956-9.723l1.186-1.297
					l1.533-0.93c1.521-1.663,3.307-3.032,5.069-4.477l0.819-1.317c3.451-3.766,6.842-7.572,10.293-11.337l1.488-0.25l4.404,0.277
					l1.486-0.251l6.971,0.439l1.448,0.435l1.468,0.093l1.444,0.434l1.102,0.069c0.857,0.257,1.69,0.526,2.523,0.842l3.195-3.908
					l1.403,1.12l-0.042,0.679l0.324,0.707l-0.086,1.365l-0.39,0.314l-0.044,0.685l-0.389,0.317l-0.409,0.657l1.06,0.755l1.078,0.407
					l0.688,0.729c1.279,0.907,2.608,1.731,3.891,2.643c1.688,0.641,3.33,1.386,5.025,2.028l4.771,0.301
					c0.502-0.199,1.005-0.396,1.512-0.591l0.387-0.316l0.044-0.684l-0.756,0.294l-0.388,0.32l-0.365-0.023l-0.758,0.294
					l-0.732-0.046l-0.39,0.316l-2.567-0.161c-2.597-0.652-4.777-1.775-7.19-2.848c-0.805-0.852-1.608-1.699-2.418-2.548
					l-0.625-1.753l0.388-0.32l0.41-0.656l0.063-1.026l0.39-0.315l0.022-0.342c0.504-0.196,1.008-0.395,1.511-0.591
					c0.216,0.469,0.43,0.938,0.646,1.41l-0.022,0.343l0.325,0.707l-0.128,2.043l1.018,1.435l1.057,0.753
					c1.301,0.494,2.633,0.872,3.971,1.276l1.101,0.069c0.885-0.149,1.743-0.312,2.611-0.521l-0.324-0.706l-1.834-0.115
					c-0.657,0.16-1.256,0.323-1.877,0.567l-1.103-0.068l-1.079-0.411l-0.692-0.729l0.044-0.681l1.145-0.614l0.433-1l0.754-0.296
					l0.778-0.634c0.407-0.66,0.818-1.322,1.228-1.979l0.065-1.023l0.713,0.39l0.345,0.36l-0.063,1.026l0.346,0.361l0.321,0.707
					l0.347,0.365l0.367,0.023c0.389-0.319,0.776-0.638,1.165-0.957c0.504-0.196,1.009-0.391,1.511-0.589l1.057,0.75
					c0.462,0.487,0.922,0.975,1.385,1.456l0.667,1.073c0.304,1.045,0.604,2.091,0.907,3.138l-0.086,1.364l-0.775,0.635l-0.432,1.001
					c-0.775,0.638-1.554,1.271-2.331,1.909l-1.122,0.27l-1.1-0.069l-1.123,0.273c0.966,0.288,1.93,0.577,2.894,0.867l1.468,0.093
					l1.447,0.434l2.934,0.184l1.488-0.247l1.47,0.092c3.024-0.508,6.108-0.725,8.954-1.835c0.992-0.166,1.985-0.332,2.978-0.496
					l7.293-4.678l0.452-1.341l0.82-1.317c0.453-1.343,0.907-2.683,1.358-4.025l0.82-1.317c0.301-0.897,0.604-1.789,0.905-2.683
					l0.107-1.709l0.477-1.681l0.108-1.706l0.473-1.683L448.107,216.781z"/>
				<path fill="#86B2D8" d="M99.588,215.706c-0.014-0.506-0.021-1.018-0.019-1.53C99.567,214.688,99.573,215.201,99.588,215.706z"/>
				<path fill="#86B2D8" d="M99.658,211.295c0.048-0.754,0.116-1.495,0.196-2.228C99.773,209.801,99.706,210.542,99.658,211.295z"/>
				<path fill="#86B2D8" d="M99.574,213.505c0.013-0.73,0.037-1.468,0.084-2.21C99.611,212.038,99.586,212.775,99.574,213.505z"/>
				<path fill="#86B2D8" d="M108.935,189.504c-0.215,0.017-0.429,0.031-0.644,0.043c-3.714,2.864-6.755,9.066-8.053,16.744
					C101.611,198.235,104.931,192.004,108.935,189.504z"/>
				<path fill-rule="evenodd" clip-rule="evenodd" fill="#86B2D8" d="M413.715,189.616l-0.022,0.343l0.345,0.363l0.325,0.707
					l-0.021,0.34l0.324,0.704c0.409-0.657,0.819-1.317,1.228-1.977l0.044-0.682l-0.712-0.389
					C414.721,189.223,414.217,189.422,413.715,189.616"/>
				<polyline fill-rule="evenodd" clip-rule="evenodd" fill="#010101" points="415.564,236.304 415.155,236.966 415.112,237.646 
					415.521,236.988 415.564,236.304 				"/>
				<path fill-rule="evenodd" clip-rule="evenodd" fill="#010101" d="M415.328,234.237c-0.218-0.472-0.434-0.942-0.649-1.412
					l-1.08-0.409l0.348,0.363l0.323,0.703l0.345,0.366l0.325,0.705l0.345,0.364l0.322,0.706l0.044-0.684L415.328,234.237"/>
				<path fill-rule="evenodd" clip-rule="evenodd" fill="#010101" d="M412.946,213.537l0.775-0.634l0.798-0.977
					c0.288-0.666,0.575-1.334,0.864-2.001c0.071-1.136,0.144-2.275,0.214-3.411l-0.303-1.047l0.086-1.364
					c-0.534-1.849-0.957-3.72-1.49-5.572l-0.778,0.638l-0.43,0.999l-0.778,0.636c-0.252,0.586-0.503,1.116-0.842,1.659l-0.754,0.294
					l-0.733-0.047l-0.713-0.386l-0.064,1.023l-0.409,0.658l-0.756,0.296l-0.775,0.635l-0.756,0.297
					c-0.273,0.44-0.545,0.88-0.818,1.316c-0.035,0.568-0.071,1.138-0.107,1.707l0.688,0.727c0.369,0.022,0.734,0.046,1.102,0.068
					c-0.022,0.341-0.044,0.684-0.064,1.025l-0.386,0.316c-0.021,0.344-0.044,0.685-0.065,1.026l0.343,0.361l0.735,0.046l0.777-0.635
					l0.41-0.66l0.043-0.68l0.431-1l0.043-0.684c0.272-0.438,0.546-0.881,0.819-1.318l0.344,0.364
					c-0.042,0.681-0.085,1.365-0.129,2.046l0.347,0.364l0.367,0.022l0.346,0.365l0.043-0.683l0.41-0.657
					c0.029-0.454,0.057-0.911,0.086-1.365l-0.303-1.046l0.043-0.683l0.41-0.659l0.043-0.684l1.034,1.093l0.648,1.411l-0.084,1.364
					c-0.501,1.489-1.244,2.855-1.747,4.342l-0.82,1.319l-0.086,1.362l1.144-0.609L412.946,213.537"/>
				<path fill-rule="evenodd" clip-rule="evenodd" fill="#010101" d="M411.848,219.291l-0.044,0.684
					c0.611,0.038,1.224,0.076,1.834,0.116l0.044-0.685L411.848,219.291"/>
				<path fill-rule="evenodd" clip-rule="evenodd" fill="#010101" d="M406.187,203.868l0.043-0.682l-0.71-0.386l-0.412,0.656
					l-0.756,0.296l-0.389,0.319l-0.022,0.339c0.367,0.023,0.734,0.046,1.103,0.071l0.757-0.295L406.187,203.868"/>
				<path fill-rule="evenodd" clip-rule="evenodd" fill="#010101" d="M398.597,219.144l-0.347-0.364l-0.367-0.023l-0.347-0.365
					l-0.366-0.022l-0.345-0.365l-0.368-0.022l-0.064,1.024l0.346,0.365c0.734,0.046,1.469,0.093,2.202,0.139l0.022-0.341
					L398.597,219.144"/>
				<path fill-rule="evenodd" clip-rule="evenodd" fill="#010101" d="M396.734,201.903l0.407-0.658
					c0.015-0.229,0.028-0.455,0.043-0.683l-0.322-0.704l-0.366-0.023l-1.081-0.41c0.1-1.593,0.199-3.185,0.3-4.777l0.431-1
					c0.52-0.424,1.037-0.847,1.555-1.271l-2.159-0.82l-0.388,0.316l-0.754,0.297l-0.411,0.657l-0.387,0.318
					c-0.412,0.658-0.822,1.316-1.231,1.978c-0.058,0.91-0.115,1.819-0.172,2.73l0.303,1.043l0.692,0.729l0.303,1.048l0.689,0.728
					l0.71,0.386l0.326,0.707C395.727,202.298,396.229,202.098,396.734,201.903"/>
				<path fill-rule="evenodd" clip-rule="evenodd" fill="#010101" d="M386.005,202.598c0.544-1.923,1.194-3.808,1.836-5.705
					c0.064-1.022,0.128-2.047,0.192-3.069l-0.325-0.705c-0.229-0.244-0.461-0.487-0.69-0.729l-0.736-0.046
					c-0.485,1.451-0.963,2.893-1.377,4.362l-0.087,1.365l0.26,1.729l-0.085,1.364l-0.476,1.683l-0.084,1.365l1.013,1.432
					l0.106-1.704L386.005,202.598"/>
				<path fill-rule="evenodd" clip-rule="evenodd" fill="#010101" d="M381.387,199.912c0.289-0.665,0.574-1.334,0.862-2.002
					l0.063-1.021l0.41-0.659c0.043-0.683,0.087-1.365,0.129-2.047l-0.323-0.707l-0.344-0.363l-0.735-0.046l-0.409,0.658
					l-0.065,1.024l-0.411,0.658l-0.063,1.023l-0.432,1.001c-0.042,0.682-0.084,1.365-0.128,2.047
					c0.178,0.611,0.358,1.168,0.627,1.752C380.841,200.791,381.113,200.349,381.387,199.912"/>
				<path fill-rule="evenodd" clip-rule="evenodd" fill="#010101" d="M370.317,211.888c0.247,0.016,0.492,0.03,0.737,0.046
					l0.064-1.026c-1.104-0.069-2.202-0.139-3.304-0.207l-0.756,0.296l-0.389,0.317l0.715,0.39c0.364,0.022,0.732,0.046,1.1,0.068
					l0.344,0.36l0.757-0.291L370.317,211.888"/>
				<path fill-rule="evenodd" clip-rule="evenodd" fill="#010101" d="M361.613,186.34c0.387-0.319,0.776-0.638,1.165-0.955
					c0.028-0.454,0.058-0.909,0.086-1.363l-1.102-0.069c-0.388,0.316-0.778,0.636-1.166,0.955l-0.021,0.338l-0.409,0.66
					c-0.022,0.342-0.044,0.683-0.064,1.023l1.101,0.069l0.021-0.341L361.613,186.34"/>
				<path fill-rule="evenodd" clip-rule="evenodd" fill="#010101" d="M349.36,205.429c0.014-0.226,0.027-0.454,0.042-0.68
					l-0.323-0.707c0.034-0.569,0.071-1.137,0.106-1.704c0.275-0.441,0.548-0.88,0.823-1.319l0.753-0.294l0.778-0.637l0.753-0.295
					l0.777-0.636c0.505-0.197,1.007-0.394,1.512-0.59l-1.079-0.41l-0.757,0.295l-1.1-0.068c-0.756,0.292-1.51,0.587-2.269,0.885
					l-0.774,0.635l-0.755,0.295l-0.409,0.659c-0.063,1.023-0.128,2.045-0.192,3.068c0.321,0.708,0.646,1.411,0.971,2.117
					l0.753-0.296L349.36,205.429"/>
				<path fill-rule="evenodd" clip-rule="evenodd" fill="#010101" d="M350.705,225.032c0.028-0.453,0.058-0.907,0.087-1.364
					l0.408-0.656l0.044-0.684c-0.346-0.363-0.692-0.729-1.035-1.093l-0.41,0.659l-0.39,0.318l-0.408,0.66l0.323,0.702
					c-0.035,0.568-0.072,1.14-0.107,1.707l0.325,0.706l-0.022,0.339c0.367,0.022,0.733,0.047,1.1,0.069
					C350.648,225.941,350.676,225.488,350.705,225.032"/>
				<path fill-rule="evenodd" clip-rule="evenodd" fill="#010101" d="M325.546,238.517l-1.101-0.068l-0.713-0.387l-1.103-0.069
					l-0.711-0.387l-1.1-0.069l-0.756,0.295l-1.102-0.068l-0.021,0.338l1.101,0.069l0.712,0.39l1.102,0.068
					c0.475,0.258,0.949,0.516,1.424,0.775l1.101,0.069l0.714,0.387l1.101,0.068l0.064-1.022L325.546,238.517"/>
				<path fill-rule="evenodd" clip-rule="evenodd" fill="#010101" d="M302.167,165.135c0.028-0.454,0.058-0.909,0.085-1.364
					l0.388-0.316l0.758-0.296c0.244,0.015,0.488,0.03,0.735,0.046l0.343,0.365c-0.028,0.452-0.057,0.908-0.085,1.362l0.344,0.365
					c0.247,0.016,0.491,0.031,0.733,0.046l0.021-0.343l0.39-0.317c0.021-0.341,0.042-0.681,0.063-1.021l-0.347-0.365l0.044-0.682
					l0.39-0.318l-3.26-0.891c-0.389,0.32-0.778,0.636-1.165,0.956l-0.41,0.657c-0.063,1.024-0.129,2.049-0.193,3.071l0.735,0.048
					l0.022-0.344L302.167,165.135"/>
				<path fill-rule="evenodd" clip-rule="evenodd" fill="#010101" d="M289.94,195.529l0.389-0.321
					c0.273-0.438,0.548-0.879,0.818-1.315l0.39-0.32l0.043-0.681l1.145-0.613c1.121-0.272,2.243-0.543,3.365-0.813l1.101,0.068
					l1.491-0.251c0.732,0.046,1.468,0.092,2.2,0.139l0.064-1.023c-1.712-0.107-3.425-0.214-5.135-0.322
					c-1.611,0.39-3.245,0.676-4.857,1.065l-0.411,0.658l-0.775,0.636l-0.41,0.66l-0.389,0.316l-0.043,0.684l-0.409,0.657
					c-0.028,0.456-0.057,0.911-0.086,1.364l0.367,0.024l0.756-0.295L289.94,195.529"/>
				<path fill-rule="evenodd" clip-rule="evenodd" fill="#010101" d="M294.438,217.728l0.043-0.684
					c-0.231-0.243-0.461-0.484-0.688-0.729l-0.716-0.388c-0.486-0.03-0.977-0.06-1.466-0.091l-0.755,0.294l-0.734-0.046
					l-0.087,1.365c0.857,0.054,1.712,0.107,2.569,0.161l0.324,0.705c0.244,0.016,0.489,0.032,0.734,0.048l0.754-0.296
					L294.438,217.728"/>
				<path fill-rule="evenodd" clip-rule="evenodd" fill="#010101" d="M291.117,223.684l0.409-0.661
					c0.034-0.569,0.07-1.139,0.106-1.707l-0.323-0.704l-0.346-0.363l-0.776,0.639c-0.057,0.907-0.113,1.815-0.171,2.727
					c0.229,0.241,0.46,0.484,0.69,0.727l0.711,0.39l-0.323-0.708L291.117,223.684"/>
				<path fill-rule="evenodd" clip-rule="evenodd" fill="#010101" d="M267.653,151.664l0.389-0.32l0.021-0.34l-0.734-0.046
					l-0.755,0.293l-0.044,0.683l0.346,0.364C267.134,152.088,267.394,151.875,267.653,151.664"/>
				<path fill-rule="evenodd" clip-rule="evenodd" fill="#010101" d="M249.124,188.51c0.057-0.909,0.115-1.821,0.172-2.729
					l-0.322-0.706l-0.713-0.387l-0.021,0.341l-0.41,0.659c-0.028,0.454-0.057,0.908-0.085,1.363l0.324,0.706
					c-0.022,0.34-0.043,0.684-0.065,1.024c0.461,0.483,0.922,0.97,1.383,1.456l0.043-0.684L249.124,188.51"/>
				<path fill-rule="evenodd" clip-rule="evenodd" fill="#010101" d="M236.633,258.264l0.043-0.682l0.408-0.658
					c0.029-0.456,0.059-0.911,0.086-1.365l-0.322-0.707l-0.712-0.383c-0.029,0.454-0.057,0.907-0.086,1.361l-0.411,0.659
					c-0.021,0.342-0.042,0.684-0.064,1.022l0.326,0.706c-0.028,0.455-0.058,0.909-0.085,1.364l0.732,0.046
					C236.576,259.174,236.605,258.719,236.633,258.264"/>
				<path fill-rule="evenodd" clip-rule="evenodd" fill="#010101" d="M223.227,190.303c0.273-0.439,0.547-0.879,0.817-1.318
					l0.737,0.047l1.078,0.409l0.021-0.341l0.388-0.316l0.022-0.342l-0.367-0.024l-0.712-0.387c-0.735-0.046-1.468-0.092-2.202-0.139
					l-0.755,0.295l-0.39,0.32l-0.41,0.656l-0.043,0.684c0.346,0.365,0.691,0.728,1.038,1.092
					C222.709,190.729,222.971,190.516,223.227,190.303"/>
				<path fill-rule="evenodd" clip-rule="evenodd" fill="#010101" d="M194.573,218.292l-0.346-0.365l-0.323-0.703
					c-0.712-0.389-1.425-0.775-2.138-1.161c0.216,0.468,0.433,0.939,0.648,1.411l0.346,0.361l0.325,0.708l0.343,0.363l0.713,0.388
					l0.345,0.362l0.412-0.657L194.573,218.292"/>
				<path fill-rule="evenodd" clip-rule="evenodd" fill="#010101" d="M177.098,185.69c0.288-0.67,0.577-1.335,0.863-2.003
					l0.086-1.364c0.289-0.666,0.576-1.335,0.863-1.999l0.798-0.978l-1.144,0.612l-0.776,0.637c-0.569,1.686-1.221,3.338-1.79,5.025
					c-0.043,0.678-0.086,1.362-0.128,2.045l0.799-0.977L177.098,185.69"/>
				<path fill-rule="evenodd" clip-rule="evenodd" fill="#010101" d="M176.348,191.806c0.035-0.566,0.071-1.136,0.107-1.705
					l-0.326-0.706c0.021-0.342,0.043-0.681,0.064-1.022l-0.41,0.658l-0.389,0.317c-0.028,0.454-0.057,0.911-0.086,1.366l0.347,0.364
					l-0.043,0.682l0.324,0.704l0.347,0.365C176.305,192.487,176.326,192.145,176.348,191.806"/>
				<path fill-rule="evenodd" clip-rule="evenodd" fill="#010101" d="M128.344,252.138l-0.389,0.314l-0.41,0.662
					c-0.029,0.454-0.058,0.908-0.086,1.364l0.735,0.045c0.518-0.424,1.036-0.847,1.554-1.27c0.015-0.23,0.029-0.457,0.043-0.686
					c-0.231-0.242-0.461-0.483-0.691-0.726l-0.389,0.317L128.344,252.138"/>
				<path fill-rule="evenodd" clip-rule="evenodd" fill="#010101" d="M120.47,254.381l-0.755,0.292
					c-0.368-0.022-0.735-0.046-1.103-0.068l-0.752,0.297l-0.389,0.317l-0.043,0.683c-1.101-0.07-2.201-0.139-3.303-0.208
					l-0.345-0.362l0.042-0.685l-0.713-0.389l-0.756,0.296l-0.386,0.32l-0.41,0.658l-0.388,0.316l-0.411,0.66
					c-0.367-0.022-0.734-0.045-1.102-0.068l1.059,0.751l1.081,0.409l0.73,0.047c1.021-0.248,2.032-0.458,3-0.838l1.491-0.249
					l1.099,0.069l0.043-0.684l0.388-0.315c0.367,0.023,0.734,0.047,1.102,0.07l0.345,0.361l0.734,0.046l0.346,0.363l0.365,0.023
					l1.23-1.976l-1.08-0.41l-0.754,0.295L120.47,254.381"/>
				<path fill-rule="evenodd" clip-rule="evenodd" fill="#010101" d="M120.429,260.886l-1.469-0.094
					c-1.017,0.247-2.028,0.459-2.999,0.838l-1.489,0.249l-0.735-0.046l-1.08-0.411l-1.056-0.749l-0.431,0.999l-0.389,0.316
					l-0.757,0.296c-0.612-0.037-1.225-0.076-1.833-0.114l-0.756,0.295l-0.734-0.048l-0.778,0.638
					c1.102,0.069,2.201,0.139,3.302,0.209l1.081,0.407c0.614,0.039,1.222,0.077,1.833,0.115l1.124-0.27l0.778-0.638l0.731,0.046
					c1.02-0.246,2.031-0.458,3-0.838c0.734,0.046,1.469,0.092,2.203,0.138l0.712,0.388l0.689,0.729
					c0.26-0.213,0.519-0.423,0.777-0.638c0.043-0.682,0.086-1.361,0.128-2.046l-0.345-0.362l-0.734-0.047
					C120.946,260.459,120.687,260.671,120.429,260.886"/>
			</g>
		</g>
		<g>
			
				<rect x="278.43" y="130.29" fill="#DCDDDE" stroke="#000000" stroke-width="0.5" stroke-linejoin="bevel" stroke-miterlimit="1" width="58.16" height="41.705"/>
			<polygon fill="#D1D3D4" stroke="#000000" stroke-width="0.5" stroke-linejoin="bevel" stroke-miterlimit="1" points="
				336.719,171.833 278.407,171.833 256.698,205.722 319.851,205.722 			"/>
			<polygon fill="#FFFFFF" stroke="#000000" stroke-width="0.5" stroke-linejoin="bevel" stroke-miterlimit="1" points="
				257.147,205.607 278.384,172.053 278.384,130.345 257.147,158.299 			"/>
			<g>
				<polygon opacity="0.5" fill="#0DB14B" stroke="#333333" stroke-width="0.5" stroke-miterlimit="1" points="296.809,140.475 
					276.443,176.049 334.604,175.982 315.168,140.452 				"/>
				<polygon opacity="0.5" fill="#0DB14B" stroke="#333333" stroke-width="0.5" stroke-miterlimit="1" points="313.483,143.238 
					330.525,184.447 271.04,184.515 294.886,143.262 				"/>
				<polygon opacity="0.5" fill="#0DB14B" stroke="#333333" stroke-width="0.5" stroke-miterlimit="1" points="314.746,141.438 
					332.742,179.577 273.935,179.644 296.206,141.438 				"/>
				
					<polygon opacity="0.7" fill="#FFF200" stroke="#000000" stroke-width="0.5" stroke-linejoin="bevel" stroke-miterlimit="1" points="
					328.089,188.992 267.942,189.059 267.893,144.91 328.039,144.91 				"/>
				<polygon opacity="0.5" fill="#0DB14B" stroke="#333333" stroke-width="0.5" stroke-miterlimit="1" points="312.408,144.817 
					328.012,189.121 267.968,189.187 293.801,144.817 				"/>
				<polygon opacity="0.5" fill="#0DB14B" stroke="#333333" stroke-width="0.5" stroke-miterlimit="1" points="311.31,146.704 
					325.081,194.142 264.363,194.227 292.221,146.704 				"/>
				<polygon opacity="0.5" fill="#0DB14B" stroke="#333333" stroke-width="0.5" stroke-miterlimit="1" points="310.047,148.695 
					322.771,199.269 261.375,199.352 290.88,148.72 				"/>
				<polygon opacity="0.5" fill="#0DB14B" stroke="#333333" stroke-width="0.5" stroke-miterlimit="1" points="289.331,151.13 
					256.832,205.723 319.477,205.651 308.99,151.13 				"/>
				<g>
					<polyline fill="none" stroke="#000000" stroke-width="0.5" stroke-miterlimit="1" stroke-dasharray="0.6234,0.3117" points="
						314.95,140.254 304.212,120.082 296.809,140.475 					"/>
					<polyline fill="none" stroke="#000000" stroke-width="0.5" stroke-miterlimit="1" stroke-dasharray="0.6234,0.3117" points="
						293.801,144.817 304.213,119.858 312.408,144.817 					"/>
					<polyline fill="none" stroke="#000000" stroke-width="0.5" stroke-miterlimit="1" stroke-dasharray="0.6234,0.3117" points="
						292.221,146.704 304.215,119.856 311.31,146.704 					"/>
					<polyline fill="none" stroke="#000000" stroke-width="0.5" stroke-miterlimit="1" stroke-dasharray="0.6234,0.3117" points="
						290.88,148.72 304.213,119.858 310.047,148.695 					"/>
					<polyline fill="none" stroke="#000000" stroke-width="0.5" stroke-miterlimit="1" stroke-dasharray="0.6234,0.3117" points="
						294.886,143.262 304.213,119.858 313.483,143.238 					"/>
					<polyline fill="none" stroke="#000000" stroke-width="0.5" stroke-miterlimit="1" stroke-dasharray="0.6234,0.3117" points="
						296.206,141.438 304.215,119.856 314.746,141.438 					"/>
					<polyline fill="none" stroke="#000000" stroke-width="0.5" stroke-miterlimit="1" stroke-dasharray="0.6234,0.3117" points="
						308.99,151.13 304.212,120.082 289.419,150.906 					"/>
				</g>
			</g>
			<polygon fill="none" stroke="#000000" stroke-width="0.5" stroke-linejoin="bevel" stroke-miterlimit="1" points="
				319.675,205.688 257.057,205.688 257.057,158.377 319.73,158.377 			"/>
			<polygon fill="none" stroke="#000000" stroke-width="0.5" stroke-linejoin="bevel" points="319.851,205.722 336.59,171.995 
				336.59,130.29 319.73,158.377 			"/>
			<g>
				<path fill="#B2CEE7" stroke="#003468" stroke-width="0.5" stroke-miterlimit="1" d="M307.096,113.784
					c0,0.987,1.154,1.897,1.829,2.215c0.676,0.315,1.647,1.147,1.648,2.205l0.005,5.257l-0.005,0.031
					c-0.177,2.048-3.167,3.678-6.832,3.681l0.003-0.003c-3.662,0.008-6.658-1.615-6.841-3.66l-0.007-0.031l-0.007-5.257
					c-0.002-1.063,0.972-1.893,1.645-2.211c0.679-0.314,1.828-1.229,1.827-2.22l0.022-1.771c0.109-5.274,0.723-9.822,1.471-12.637
					c0.195-0.737,0.137-1.791,0.137-1.791l-0.005-5.324l3.438-0.002l0.006,5.322c0,0-0.055,1.055,0.144,1.79
					c0.75,2.813,1.376,7.36,1.496,12.634L307.096,113.784z"/>
				<path fill="none" stroke="#005695" stroke-width="0.5" stroke-miterlimit="1" d="M303.755,110.128
					c-0.021,0.005-0.042,0.005-0.061,0.008"/>
				<path fill="none" stroke="#005695" stroke-width="0.5" stroke-miterlimit="1" d="M298.841,115.996
					c-0.024,0.003-0.043,0.008-0.063,0.008"/>
				<path fill="none" stroke="#003468" stroke-width="3" stroke-miterlimit="1" d="M303.703,92.269
					c-0.011-0.146-0.323-7.599,3.406-11.851"/>
				<path fill="none" stroke="#003468" stroke-width="0.5" stroke-miterlimit="1" d="M310.578,121.341
					c0.003,1.259-0.986,2.278-2.206,2.28l-9.265,0.01c-1.223,0.002-2.216-1.017-2.215-2.275"/>
				<path fill="none" stroke="#003468" stroke-width="0.5" stroke-miterlimit="1" d="M306.518,104.466
					c-0.787,0.139-1.746,0.219-2.785,0.219c-1.051,0-2.021-0.08-2.814-0.217"/>
			</g>
			<g>
				<g>
					<g>
						<line fill="none" stroke="#0DB14B" stroke-width="1.2421" x1="257.488" y1="158.611" x2="257.488" y2="184.933"/>
						<g>
							<polygon fill="#0DB14B" points="253.88,182.472 257.488,195.937 261.097,182.472 							"/>
						</g>
					</g>
				</g>
				<text transform="matrix(1 0 0 1 289.4375 174.3477)" fill="#ED1C24" font-size="12.4208">Xv</text>
				<text transform="matrix(1 0 0 1 238.9824 200.2598)" fill="#0DB14B" font-size="12.4208">Yv</text>
				
					<text transform="matrix(1 0.0011 -0.0011 1 268.8438 127.3354)" fill="#00AEEF" font-size="12.4208">Zv</text>
				<g>
					<g>
						<line fill="none" stroke="#00AEEF" stroke-width="1.2421" x1="257.49" y1="158.488" x2="271.869" y2="139.124"/>
						<g>
							<polygon fill="#00AEEF" points="273.299,143.252 278.43,130.29 267.505,138.949 							"/>
						</g>
					</g>
				</g>
				<g>
					<g>
						<line fill="none" stroke="#ED1C24" stroke-width="1.2421" x1="257.49" y1="158.475" x2="284.772" y2="158.475"/>
						<g>
							<polygon fill="#ED1C24" points="282.312,162.083 295.776,158.475 282.312,154.866 							"/>
						</g>
					</g>
				</g>
				<g>
					<path stroke="#000000" stroke-width="1.2421" stroke-miterlimit="1" d="M265.873,158.475c0-4.63-3.754-8.384-8.385-8.384v8.384
						H265.873z"/>
					
						<path fill="#FFFFFF" stroke="#010101" stroke-width="0.9316" stroke-linecap="round" stroke-linejoin="round" stroke-miterlimit="1" d="
						M257.488,150.09c-4.632,0-8.383,3.754-8.383,8.384h8.383V150.09z"/>
					<path stroke="#000000" stroke-width="1.2421" stroke-miterlimit="1" d="M249.105,158.475c0,4.63,3.751,8.384,8.383,8.384
						v-8.384H249.105z"/>
					
						<path fill="#FFFFFF" stroke="#010101" stroke-width="0.9316" stroke-linecap="round" stroke-linejoin="round" stroke-miterlimit="1" d="
						M257.488,158.475v8.384c4.631,0,8.385-3.754,8.385-8.384H257.488z"/>
				</g>
			</g>
		</g>
		
			<rect x="71.997" y="99.646" fill="none" stroke="#000000" stroke-width="0.5" stroke-linejoin="bevel" stroke-miterlimit="1" width="276.479" height="188.548"/>
		<g>
			<g>
				<g>
					<line fill="none" stroke="#0DB14B" stroke-width="1.2421" x1="71.743" y1="99.421" x2="71.743" y2="125.743"/>
					<g>
						<polygon fill="#0DB14B" points="68.134,123.282 71.743,136.747 75.351,123.282 						"/>
					</g>
				</g>
			</g>
			<text transform="matrix(1 0 0 1 103.6919 115.1606)" fill="#ED1C24" font-size="12.4208">Xt</text>
			<text transform="matrix(1 0 0 1 51.0005 143.3081)" fill="#0DB14B" font-size="12.4208">Yt</text>
			
				<text transform="matrix(1 0.0011 -0.0011 1 84.8848 71.2773)" fill="#00AEEF" font-size="12.4208">Zt</text>
			<g>
				<g>
					<line fill="none" stroke="#00AEEF" stroke-width="1.2421" x1="71.745" y1="99.298" x2="91.691" y2="81.051"/>
					<g>
						<polygon fill="#00AEEF" points="92.311,85.375 99.81,73.623 87.439,80.049 						"/>
					</g>
				</g>
			</g>
			<g>
				<g>
					<line fill="none" stroke="#ED1C24" stroke-width="1.2421" x1="71.745" y1="99.284" x2="99.027" y2="99.284"/>
					<g>
						<polygon fill="#ED1C24" points="96.566,102.893 110.031,99.284 96.566,95.676 						"/>
					</g>
				</g>
			</g>
			<g>
				<path stroke="#000000" stroke-width="1.2421" stroke-miterlimit="1" d="M80.128,99.284c0-4.63-3.754-8.385-8.385-8.385v8.385
					H80.128z"/>
				
					<path fill="#FFFFFF" stroke="#010101" stroke-width="0.9316" stroke-linecap="round" stroke-linejoin="round" stroke-miterlimit="1" d="
					M71.743,90.899c-4.631,0-8.384,3.755-8.384,8.385h8.384V90.899z"/>
				<path stroke="#000000" stroke-width="1.2421" stroke-miterlimit="1" d="M63.359,99.284c0,4.63,3.752,8.384,8.384,8.384v-8.384
					H63.359z"/>
				
					<path fill="#FFFFFF" stroke="#010101" stroke-width="0.9316" stroke-linecap="round" stroke-linejoin="round" stroke-miterlimit="1" d="
					M71.743,99.284v8.384c4.631,0,8.385-3.754,8.385-8.384H71.743z"/>
			</g>
		</g>
	</g>
</g>
</svg>
