<?xml version="1.0" encoding="utf-8"?>
<!-- $Source: /home/bbennett/pass/archive/DicomXml/docbook/part03/figures/PS3.3_C.8.30.2.1-1.svg,v $ -->
<!-- $Date: 2014/05/09 13:15:42 $ -->
<!-- $Revision: 1.1 $ -->

<!DOCTYPE svg PUBLIC "-//W3C//DTD SVG 1.1//EN" "http://www.w3.org/Graphics/SVG/1.1/DTD/svg11.dtd">
<svg version="1.1" id="Layer_1" xmlns="http://www.w3.org/2000/svg" xmlns:xlink="http://www.w3.org/1999/xlink" x="0px" y="0px"
	 width="502px" height="202px" viewBox="0 0 502 202" enable-background="new 0 0 502 202" xml:space="preserve">

<defs>
	<style type="text/css">
	text {
	  font-family: Helvetica, Verdana, ArialUnicodeMS, san-serif
	}
	</style>
</defs>

<g>
   <desc>
	PS 3.3 Part 3: Information Object Definitions
   </desc>
</g>

<g>
	<rect x="1" y="1" fill="#F5EED6" width="500" height="200"/>
	<g>
		<g>
			<g>
				<polyline fill="none" stroke="#005695" stroke-width="2" stroke-miterlimit="1" points="91.262,99.696 103.7,99.696 
					103.7,154.404 110.027,154.404 				"/>
				<g>
					<polygon fill="#005695" points="108.441,156.729 117.114,154.404 108.441,152.08 					"/>
				</g>
			</g>
		</g>
		<g>
			<g>
				<polyline fill="none" stroke="#005695" stroke-width="2" stroke-miterlimit="1" points="91.262,99.888 103.7,99.888 
					103.7,45.179 110.027,45.179 				"/>
				<g>
					<polygon fill="#005695" points="108.441,47.503 117.114,45.179 108.441,42.854 					"/>
				</g>
			</g>
		</g>
		<g>
			<g>
				
					<line fill="none" stroke="#005695" stroke-width="2" stroke-miterlimit="1" x1="297.33" y1="154.932" x2="358.587" y2="154.932"/>
				<g>
					<polygon fill="#005695" points="357.002,157.256 365.675,154.932 357.002,152.607 					"/>
				</g>
			</g>
		</g>
		<g>
			<g>
				<line fill="none" stroke="#005695" stroke-width="2" stroke-miterlimit="1" x1="171.32" y1="47.957" x2="382.768" y2="47.957"/>
				<g>
					<polygon fill="#005695" points="381.183,50.281 389.855,47.957 381.183,45.633 					"/>
				</g>
			</g>
		</g>
		
			<rect x="389.855" y="16.498" fill="#4F8ABE" stroke="#010101" stroke-width="0.75" stroke-linecap="round" stroke-linejoin="round" stroke-miterlimit="1" width="72" height="63"/>
		<g>
			<text transform="matrix(1 0 0 1 402.625 51.0522)" font-size="11">DISPLAY</text>
		</g>
		
			<rect x="365.675" y="125.752" fill="#B2CEE7" stroke="#010101" stroke-width="0.75" stroke-linecap="round" stroke-linejoin="round" stroke-miterlimit="1" width="120.363" height="56"/>
		<g>
			<text transform="matrix(1 0 0 1 378.1719 154.8867)"><tspan x="0" y="0" font-size="11">Measurement Units</tspan><tspan x="8.236" y="10.533" font-size="11">Code Sequence</tspan><tspan x="16.804" y="21.066" font-size="11">(0040,08EA)</tspan></text>
		</g>
		<rect x="392.472" y="129.912" fill="#FFFFFF" stroke="#000000" stroke-miterlimit="1" width="66.77" height="13"/>
		<line fill="#FFFFFF" stroke="#000000" stroke-miterlimit="1" x1="425.856" y1="129.912" x2="425.856" y2="142.912"/>
		<g>
			<text transform="matrix(1 0 0 1 394.3184 140.7441)" font-size="11">Value</text>
		</g>
		<g>
			<text transform="matrix(1 0 0 1 432.2998 140.7441)" font-size="11">Unit</text>
		</g>
		<text transform="matrix(1 0 0 1 304.5273 147.3652)"><tspan x="0" y="0" font-size="11">Real World</tspan><tspan x="13.136" y="20.533" font-size="11">Value</tspan></text>
		
			<rect x="117.32" y="29.964" fill="#86B2D8" stroke="#010101" stroke-width="0.75" stroke-linecap="round" stroke-linejoin="round" stroke-miterlimit="1" width="54" height="36"/>
		<g>
			<text transform="matrix(1 0 0 1 131.1772 40.4922)"><tspan x="0" y="0" font-size="11">Color</tspan><tspan x="-3.98" y="10.533" font-size="11">Palette</tspan><tspan x="2.752" y="21.067" font-size="11">LUT</tspan></text>
		</g>
		
			<rect x="117.32" y="122.502" fill="#86B2D8" stroke="#010101" stroke-width="0.75" stroke-linecap="round" stroke-linejoin="round" stroke-miterlimit="1" width="180.729" height="63"/>
		<g>
			<text transform="matrix(1 0 0 1 122.6924 135.2559)"><tspan x="0" y="0" font-size="11">Real-Value LUT Data (0040, 9212)</tspan><tspan x="80.102" y="16.533" font-size="11">or</tspan><tspan x="42.195" y="33.067" font-size="11">Real World Value</tspan><tspan x="13.141" y="43.601" font-size="11">Intercept and Slope attributes</tspan></text>
		</g>
		
			<rect x="15.961" y="81.888" fill="#86B2D8" stroke="#010101" stroke-width="0.75" stroke-linecap="round" stroke-linejoin="round" stroke-miterlimit="1" width="78" height="36"/>
		<g>
			<text transform="matrix(1 0 0 1 35.7017 96.3433)"><tspan x="0" y="0" font-size="11">Corneal</tspan><tspan x="-17.115" y="10.534" font-size="11">Measurements</tspan></text>
		</g>
		<g>
			<g>
				
					<line fill="none" stroke="#005695" stroke-width="2" stroke-miterlimit="1" x1="425.729" y1="63.382" x2="425.729" y2="118.664"/>
				<g>
					<polygon fill="#005695" points="423.405,117.079 425.729,125.752 428.054,117.079 					"/>
				</g>
			</g>
		</g>
		
			<circle fill="#FFFFFF" stroke="#005695" stroke-width="2" stroke-linecap="round" stroke-miterlimit="1" cx="425.729" cy="63.382" r="3.49"/>
	</g>
</g>
</svg>
