<?xml version="1.0" encoding="utf-8"?>
<!-- $Source: /home/bbennett/pass/archive/DicomXml/docbook/part03/figures/PS3.3_C.8.11.7-2c.svg,v $ -->
<!-- $Date: 2014/05/09 12:30:19 $ -->
<!-- $Revision: 1.2 $ -->

<!DOCTYPE svg PUBLIC "-//W3C//DTD SVG 1.1//EN" "http://www.w3.org/Graphics/SVG/1.1/DTD/svg11.dtd">
<svg version="1.1" id="Layer_1" xmlns="http://www.w3.org/2000/svg" xmlns:xlink="http://www.w3.org/1999/xlink" x="0px" y="0px"
	 width="502px" height="177px" viewBox="0 0 502 177" enable-background="new 0 0 502 177" xml:space="preserve">

<defs>
	<style type="text/css">
	text {
	  font-family: Helvetica, Verdana, ArialUnicodeMS, san-serif
	}
	</style>
</defs>

<g>
   <desc>
	PS 3.3 Part 3: Information Object Definitions
   </desc>
</g>

<g>
	<rect x="1" y="1" fill="#F5EED6" width="500" height="175"/>
	<g>
		<g>
			<text transform="matrix(0.963 0 0 1 206.7476 24.1304)" font-size="10">axilla</text>
		</g>
		<g>
			<text transform="matrix(0.963 0 0 1 234.397 45.1035)" font-size="10">A</text>
		</g>
		<g>
			<text transform="matrix(0.963 0 0 1 242.7769 149.6035)" font-size="10">B</text>
		</g>
		<g>
			<text transform="matrix(0.963 0 0 1 281.2461 86.1035)" font-size="10">C</text>
		</g>
		<polyline fill-rule="evenodd" clip-rule="evenodd" fill="#005695" points="211.279,44.132 209.84,46.531 210.8,47.012 
			211.52,47.491 213.68,48.691 216.319,49.892 219.199,51.331 222.319,52.771 225.68,54.451 229.04,56.132 232.64,57.812 
			239.6,61.651 243.199,63.571 246.56,65.491 249.68,67.411 252.56,69.331 253.039,67.892 252.08,69.092 254.72,71.012 
			256.88,72.691 260.72,76.531 264.079,80.371 265.52,82.291 266.959,84.212 267.92,83.251 266.72,83.731 267.92,85.651 
			269.119,87.812 270.079,89.731 270.8,91.651 271.52,93.812 272.239,95.731 272.72,97.651 273.92,97.171 272.479,97.171 
			272.72,99.091 272.959,100.771 272.959,102.451 272.72,104.371 274.159,104.371 272.72,103.892 272.239,105.571 271.76,107.491 
			271.039,109.171 270.079,111.091 268.88,112.771 270.319,113.251 269.359,112.291 268.159,113.972 266.72,115.65 263.84,119.01 
			260.479,122.131 256.64,124.771 257.84,125.971 257.119,124.531 253.279,127.17 251.359,128.131 248.959,129.09 246.319,130.051 
			243.68,131.01 240.8,131.971 237.68,132.691 231.68,134.131 232.16,135.57 232.16,133.891 226.16,135.09 223.279,135.811 
			220.64,136.291 218,136.771 215.6,137.25 215.12,137.25 212.96,137.73 211.279,138.211 212,141.09 214.16,140.611 
			216.319,140.131 215.6,138.691 215.6,140.131 218,139.65 220.64,139.17 223.279,138.691 226.16,138.211 232.16,137.01 
			232.88,136.771 238.88,135.33 242,134.611 244.88,133.891 247.52,132.932 250.16,131.971 252.56,131.01 254.72,129.811 
			258.319,127.41 258.8,126.932 262.64,124.291 265.999,121.17 268.88,117.811 270.319,116.131 271.52,114.451 271.76,113.972 
			272.72,112.291 273.68,110.371 274.399,108.691 275.119,106.771 275.6,105.091 275.6,104.371 275.84,102.691 275.84,100.771 
			275.84,99.091 275.6,97.171 275.359,96.451 274.88,94.531 274.399,92.611 273.68,90.451 272.72,88.531 271.76,86.611 
			270.56,84.451 269.359,82.531 269.119,82.052 267.68,80.132 266.239,78.212 262.88,74.371 259.039,70.531 256.88,68.852 
			254.239,66.932 253.76,66.691 250.879,64.771 247.76,62.852 244.399,60.932 240.8,59.012 233.84,55.172 230.239,53.491 
			226.88,51.571 223.52,50.132 220.399,48.451 217.52,47.251 214.88,45.812 212.72,44.852 212,44.371 		"/>
		<rect x="202.16" y="27.331" fill="none" stroke="#010101" stroke-miterlimit="10" width="52.799" height="71.28"/>
		<rect x="247.279" y="63.092" fill="none" stroke="#010101" stroke-miterlimit="10" width="52.561" height="71.998"/>
		<rect x="205.279" y="90.211" fill="none" stroke="#010101" stroke-miterlimit="10" width="54.24" height="71.52"/>
	</g>
</g>
</svg>
