<?xml version="1.0" encoding="utf-8"?>
<!-- $Source: /home/bbennett/pass/archive/DicomXml/docbook/part03/figures/PS3.3_C.8.8.21-3.svg,v $ -->
<!-- $Date: 2014/05/09 12:30:19 $ -->
<!-- $Revision: 1.2 $ -->

<!DOCTYPE svg PUBLIC "-//W3C//DTD SVG 1.1//EN" "http://www.w3.org/Graphics/SVG/1.1/DTD/svg11.dtd">
<svg version="1.1" id="Layer_1" xmlns="http://www.w3.org/2000/svg" xmlns:xlink="http://www.w3.org/1999/xlink" x="0px" y="0px"
	 width="502px" height="437px" viewBox="0 0 502 437" enable-background="new 0 0 502 437" xml:space="preserve">

<defs>
	<style type="text/css">
	text {
	  font-family: Helvetica, Verdana, ArialUnicodeMS, san-serif
	}
	</style>
</defs>

<g>
   <desc>
	PS 3.3 Part 3: Information Object Definitions
   </desc>
</g>

<rect x="1" y="1" fill="#F5EED6" width="500" height="435"/>
<g>
	<rect x="24.5" y="16.023" fill="#FFFFFF" stroke="#000000" stroke-miterlimit="1" width="453.001" height="45.001"/>
	<rect x="32.686" y="21.346" fill="none" width="242.793" height="34.354"/>
	<text transform="matrix(0.9288 0 0 1 32.686 27.7759)"><tspan x="0" y="0" font-size="9">Example 3: 7 Control Points, 2 Partial Treatments with small gap</tspan><tspan x="0" y="10.8" font-size="9">Total Meterset: 50</tspan><tspan x="0" y="21.6" font-size="9">Interuption at: 25 MU, Resumption at 30 MU</tspan></text>
	<rect x="24.5" y="61.066" fill="#CCDEF0" stroke="#000000" stroke-miterlimit="1" width="453.001" height="107.999"/>
	<rect x="32.686" y="68.161" fill="none" width="116.249" height="8.501"/>
	<text transform="matrix(0.9288 0 0 1 32.686 74.5903)" font-size="9">RT Plan:</text>
	<rect x="32.686" y="137.287" fill="none" width="116.249" height="8.501"/>
	<text transform="matrix(0.9288 0 0 1 32.686 143.7109)" font-size="9">Cumulative Meterset Weight:</text>
	<g>
		<text transform="matrix(1 0 0 1 153.3877 144.3027)" font-size="9">0.0</text>
		<text transform="matrix(1 0 0 1 206.8867 144.3027)"><tspan x="0" y="0" font-size="9">0.3</tspan><tspan x="0" y="10.8" font-size="9">0.3</tspan></text>
		<text transform="matrix(1 0 0 1 260.4102 144.3027)"><tspan x="0" y="0" font-size="9">0.6</tspan><tspan x="0" y="10.8" font-size="9">0.6</tspan></text>
		<text transform="matrix(1 0 0 1 313.9102 155.1025)" font-size="9">0.8</text>
		<text transform="matrix(1 0 0 1 349.4326 144.3027)" font-size="9">1.0</text>
	</g>
	<g>
		<g>
			<g>
				<line fill="#B2CEE7" x1="159.072" y1="114.473" x2="213.074" y2="114.473"/>
				<circle fill="#B2CEE7" cx="213.074" cy="114.473" r="3.76"/>
				<circle fill="#B2CEE7" cx="159.072" cy="114.473" r="3.76"/>
			</g>
			<g>
				<line fill="none" stroke="#010101" stroke-miterlimit="1" x1="159.072" y1="114.473" x2="213.074" y2="114.473"/>
				<circle fill="#010101" cx="213.074" cy="114.473" r="3.76"/>
				<circle fill="#010101" cx="159.072" cy="114.473" r="3.76"/>
			</g>
		</g>
		<g>
			<g>
				<line fill="#B2CEE7" x1="213.08" y1="86.521" x2="267.087" y2="86.521"/>
				<circle fill="#B2CEE7" cx="267.087" cy="86.521" r="3.76"/>
				<circle fill="#B2CEE7" cx="213.08" cy="86.521" r="3.76"/>
			</g>
			<g>
				<line fill="none" stroke="#010101" stroke-miterlimit="1" x1="213.08" y1="86.521" x2="267.087" y2="86.521"/>
				<circle fill="#010101" cx="267.087" cy="86.521" r="3.76"/>
				<circle fill="#010101" cx="213.08" cy="86.521" r="3.76"/>
			</g>
		</g>
		<text transform="matrix(1 0 0 1 152.9707 126.6025)" font-size="9">0</text>
		<text transform="matrix(1 0 0 1 206.4707 126.6025)" font-size="9">1</text>
		<text transform="matrix(1 0 0 1 206.4717 82.397)" font-size="9">2</text>
		<text transform="matrix(1 0 0 1 259.9932 82.397)" font-size="9">3</text>
		<line fill="none" stroke="#010101" stroke-miterlimit="1" x1="213.074" y1="86.637" x2="213.074" y2="114.538"/>
		<g>
			<g>
				<line fill="#B2CEE7" x1="267.024" y1="97.322" x2="321.026" y2="97.322"/>
				<circle fill="#B2CEE7" cx="321.026" cy="97.322" r="3.76"/>
				<circle fill="#B2CEE7" cx="267.024" cy="97.322" r="3.76"/>
			</g>
			<g>
				<line fill="none" stroke="#010101" stroke-miterlimit="1" x1="267.024" y1="97.322" x2="321.026" y2="97.322"/>
				<circle fill="#010101" cx="321.026" cy="97.322" r="3.76"/>
				<circle fill="#010101" cx="267.024" cy="97.322" r="3.76"/>
			</g>
		</g>
		<text transform="matrix(1 0 0 1 260.4111 109.397)" font-size="9">4</text>
		<text transform="matrix(1 0 0 1 313.9326 109.397)" font-size="9">5</text>
		<g>
			<g>
				<line fill="#B2CEE7" x1="320.69" y1="97.322" x2="356.694" y2="68.161"/>
				<circle fill="#B2CEE7" cx="356.694" cy="68.161" r="3.76"/>
				<circle fill="#B2CEE7" cx="320.69" cy="97.322" r="3.76"/>
			</g>
			<g>
				<line fill="none" stroke="#010101" stroke-miterlimit="1" x1="320.69" y1="97.322" x2="356.694" y2="68.161"/>
				<circle fill="#010101" cx="356.694" cy="68.161" r="3.76"/>
				<circle fill="#010101" cx="320.69" cy="97.322" r="3.76"/>
			</g>
		</g>
		<text transform="matrix(1 0 0 1 349.5996 80.2368)" font-size="9">6</text>
		<line fill="none" stroke="#010101" stroke-miterlimit="1" x1="267.017" y1="86.637" x2="267.017" y2="97.322"/>
	</g>
	<rect x="24.5" y="168.988" fill="#B2CEE7" stroke="#000000" stroke-miterlimit="1" width="453.001" height="125.994"/>
	<rect x="159.169" y="177.161" fill="#4F8ABE" stroke="#000000" stroke-miterlimit="1" width="73.479" height="45.966"/>
	<rect x="32.686" y="177.161" fill="none" width="116.249" height="8.502"/>
	<text transform="matrix(0.9288 0 0 1 32.686 183.5903)" font-size="9">RT Treatment Record 1 of 2</text>
	<g>
		<g>
			<g>
				<line fill="#B2CEE7" x1="159.072" y1="223.473" x2="213.074" y2="223.473"/>
				<circle fill="#B2CEE7" cx="213.074" cy="223.473" r="3.76"/>
				<circle fill="#B2CEE7" cx="159.072" cy="223.473" r="3.76"/>
			</g>
			<g>
				<line fill="none" stroke="#010101" stroke-miterlimit="1" x1="159.072" y1="223.473" x2="213.074" y2="223.473"/>
				<circle fill="#010101" cx="213.074" cy="223.473" r="3.76"/>
				<circle fill="#010101" cx="159.072" cy="223.473" r="3.76"/>
			</g>
		</g>
		<g>
			<g>
				<line fill="#B2CEE7" x1="213.08" y1="195.521" x2="267.087" y2="195.521"/>
				<circle fill="#B2CEE7" cx="267.087" cy="195.521" r="3.76"/>
				<circle fill="#B2CEE7" cx="213.08" cy="195.521" r="3.76"/>
			</g>
			<g>
				<line fill="none" stroke="#010101" stroke-miterlimit="1" x1="213.08" y1="195.521" x2="267.087" y2="195.521"/>
				<circle fill="#010101" cx="267.087" cy="195.521" r="3.76"/>
				<circle fill="#010101" cx="213.08" cy="195.521" r="3.76"/>
			</g>
		</g>
		<text transform="matrix(1 0 0 1 152.9707 235.6025)" font-size="9">0</text>
		<text transform="matrix(1 0 0 1 206.4707 235.6025)" font-size="9">1</text>
		<text transform="matrix(1 0 0 1 206.4717 191.397)" font-size="9">2</text>
		<text transform="matrix(1 0 0 1 259.9932 191.397)" font-size="9">3</text>
		<line fill="none" stroke="#010101" stroke-miterlimit="1" x1="213.074" y1="195.637" x2="213.074" y2="223.537"/>
		<g>
			<g>
				<line fill="#B2CEE7" x1="267.024" y1="206.321" x2="321.026" y2="206.321"/>
				<circle fill="#B2CEE7" cx="321.026" cy="206.321" r="3.76"/>
				<circle fill="#B2CEE7" cx="267.024" cy="206.321" r="3.76"/>
			</g>
			<g>
				<line fill="none" stroke="#010101" stroke-miterlimit="1" x1="267.024" y1="206.321" x2="321.026" y2="206.321"/>
				<circle fill="#010101" cx="321.026" cy="206.321" r="3.76"/>
				<circle fill="#010101" cx="267.024" cy="206.321" r="3.76"/>
			</g>
		</g>
		<text transform="matrix(1 0 0 1 260.4111 218.397)" font-size="9">4</text>
		<text transform="matrix(1 0 0 1 313.9326 218.397)" font-size="9">5</text>
		<g>
			<g>
				<line fill="#B2CEE7" x1="320.69" y1="206.321" x2="356.694" y2="177.161"/>
				<circle fill="#B2CEE7" cx="356.694" cy="177.161" r="3.76"/>
				<circle fill="#B2CEE7" cx="320.69" cy="206.321" r="3.76"/>
			</g>
			<g>
				<line fill="none" stroke="#010101" stroke-miterlimit="1" x1="320.69" y1="206.321" x2="356.694" y2="177.161"/>
				<circle fill="#010101" cx="356.694" cy="177.161" r="3.76"/>
				<circle fill="#010101" cx="320.69" cy="206.321" r="3.76"/>
			</g>
		</g>
		<text transform="matrix(1 0 0 1 349.5996 189.2368)" font-size="9">6</text>
		<line fill="none" stroke="#010101" stroke-miterlimit="1" x1="267.017" y1="195.637" x2="267.017" y2="206.321"/>
	</g>
	<rect x="33.104" y="243.878" fill="none" width="116.249" height="8.5"/>
	<text transform="matrix(0.9288 0 0 1 33.104 250.3037)" font-size="9">Specified Meterset:</text>
	<rect x="33.104" y="267.878" fill="none" width="116.249" height="8.5"/>
	<text transform="matrix(0.9288 0 0 1 33.104 274.3037)" font-size="9">Delivered Meterset:</text>
	<g>
		<text transform="matrix(1 0 0 1 152.9707 261.6953)" font-size="9">0</text>
		<text transform="matrix(1 0 0 1 206.7485 250.8955)"><tspan x="0" y="0" font-size="9">15</tspan><tspan x="0" y="10.8" font-size="9">15</tspan></text>
		<text transform="matrix(1 0 0 1 261.6602 250.8955)"><tspan x="0" y="0" font-size="9">30</tspan><tspan x="0" y="10.8" font-size="9">30</tspan></text>
		<text transform="matrix(1 0 0 1 152.9707 285.6953)" font-size="9">0</text>
		<text transform="matrix(1 0 0 1 206.7485 274.8955)"><tspan x="0" y="0" font-size="9">15</tspan><tspan x="0" y="10.8" font-size="9">15</tspan></text>
		<text transform="matrix(1 0 0 1 261.6602 274.8955)"><tspan x="0" y="0" font-size="9">25</tspan><tspan x="0" y="10.8" font-size="9">25</tspan></text>
		<text transform="matrix(1 0 0 1 315.248 261.6953)" font-size="9">40</text>
		<text transform="matrix(1 0 0 1 352.1602 250.8955)" font-size="9">50</text>
		<text transform="matrix(1 0 0 1 315.248 285.6953)" font-size="9">40</text>
		<text transform="matrix(1 0 0 1 352.1602 274.8955)" font-size="9">25</text>
		<rect x="381.479" y="244.378" fill="none" width="54.248" height="19.01"/>
		<text transform="matrix(0.9288 0 0 1 381.4775 250.8076)" font-size="9">Delivered MU:</text>
		<text transform="matrix(1 0 0 1 440.4561 251.3887)" font-size="9">25</text>
	</g>
	<rect x="24.5" y="294.983" fill="#86B2D8" stroke="#000000" stroke-miterlimit="1" width="453.001" height="125.994"/>
	<rect x="159.169" y="303.157" fill="#4F8ABE" stroke="#000000" stroke-miterlimit="1" width="73.479" height="45.967"/>
	<rect x="267.017" y="303.157" fill="#4F8ABE" stroke="#000000" stroke-miterlimit="1" width="89.664" height="45.967"/>
	<rect x="32.686" y="303.157" fill="none" width="116.249" height="8.502"/>
	<text transform="matrix(0.9288 0 0 1 32.686 309.5898)" font-size="9">RT Treatment Record 1 of 2</text>
	<g>
		<g>
			<g>
				<line fill="#B2CEE7" x1="159.072" y1="349.47" x2="213.074" y2="349.47"/>
				<circle fill="#B2CEE7" cx="213.074" cy="349.47" r="3.759"/>
				<circle fill="#B2CEE7" cx="159.072" cy="349.469" r="3.759"/>
			</g>
			<g>
				<line fill="none" stroke="#010101" stroke-miterlimit="1" x1="159.072" y1="349.47" x2="213.074" y2="349.47"/>
				<circle fill="#010101" cx="213.074" cy="349.47" r="3.759"/>
				<circle fill="#010101" cx="159.072" cy="349.469" r="3.759"/>
			</g>
		</g>
		<g>
			<g>
				<line fill="#B2CEE7" x1="213.08" y1="321.517" x2="267.087" y2="321.517"/>
				<circle fill="#B2CEE7" cx="267.087" cy="321.517" r="3.759"/>
				<circle fill="#B2CEE7" cx="213.08" cy="321.516" r="3.759"/>
			</g>
			<g>
				<line fill="none" stroke="#010101" stroke-miterlimit="1" x1="213.08" y1="321.517" x2="267.087" y2="321.517"/>
				<circle fill="#010101" cx="267.087" cy="321.517" r="3.759"/>
				<circle fill="#010101" cx="213.08" cy="321.516" r="3.759"/>
			</g>
		</g>
		<text transform="matrix(1 0 0 1 152.9707 361.6025)" font-size="9">0</text>
		<text transform="matrix(1 0 0 1 206.4707 361.6025)" font-size="9">1</text>
		<text transform="matrix(1 0 0 1 206.4717 317.3965)" font-size="9">2</text>
		<text transform="matrix(1 0 0 1 259.9932 317.3965)" font-size="9">3</text>
		<line fill="none" stroke="#010101" stroke-miterlimit="1" x1="213.074" y1="321.634" x2="213.074" y2="349.534"/>
		<g>
			<g>
				<line fill="#B2CEE7" x1="267.024" y1="332.317" x2="321.026" y2="332.317"/>
				<circle fill="#B2CEE7" cx="321.026" cy="332.318" r="3.759"/>
				<circle fill="#B2CEE7" cx="267.024" cy="332.317" r="3.759"/>
			</g>
			<g>
				<line fill="none" stroke="#010101" stroke-miterlimit="1" x1="267.024" y1="332.317" x2="321.026" y2="332.317"/>
				<circle fill="#010101" cx="321.026" cy="332.318" r="3.759"/>
				<circle fill="#010101" cx="267.024" cy="332.317" r="3.759"/>
			</g>
		</g>
		<text transform="matrix(1 0 0 1 260.4111 344.3965)" font-size="9">4</text>
		<text transform="matrix(1 0 0 1 313.9326 344.3965)" font-size="9">5</text>
		<g>
			<g>
				<line fill="#B2CEE7" x1="320.69" y1="332.317" x2="356.694" y2="303.157"/>
				<circle fill="#B2CEE7" cx="356.694" cy="303.158" r="3.759"/>
				<circle fill="#B2CEE7" cx="320.69" cy="332.317" r="3.759"/>
			</g>
			<g>
				<line fill="none" stroke="#010101" stroke-miterlimit="1" x1="320.69" y1="332.317" x2="356.694" y2="303.157"/>
				<circle fill="#010101" cx="356.694" cy="303.158" r="3.759"/>
				<circle fill="#010101" cx="320.69" cy="332.317" r="3.759"/>
			</g>
		</g>
		<text transform="matrix(1 0 0 1 349.5996 315.2363)" font-size="9">6</text>
		<line fill="none" stroke="#010101" stroke-miterlimit="1" x1="267.017" y1="321.634" x2="267.017" y2="332.317"/>
	</g>
	<rect x="33.104" y="369.874" fill="none" width="116.249" height="8.5"/>
	<text transform="matrix(0.9288 0 0 1 33.104 376.3037)" font-size="9">Specified Meterset:</text>
	<rect x="33.104" y="393.874" fill="none" width="116.249" height="8.5"/>
	<text transform="matrix(0.9288 0 0 1 33.104 400.3037)" font-size="9">Delivered Meterset:</text>
	<g>
		<text transform="matrix(1 0 0 1 152.9707 387.6953)" font-size="9">0</text>
		<text transform="matrix(1 0 0 1 206.7485 376.8955)"><tspan x="0" y="0" font-size="9">15</tspan><tspan x="0" y="10.8" font-size="9">15</tspan></text>
		<text transform="matrix(1 0 0 1 261.6602 376.8955)"><tspan x="0" y="0" font-size="9">30</tspan><tspan x="0" y="10.8" font-size="9">30</tspan></text>
		<text transform="matrix(1 0 0 1 150.4683 411.6953)" font-size="9">30</text>
		<text transform="matrix(1 0 0 1 206.7485 400.8955)"><tspan x="0" y="0" font-size="9">30</tspan><tspan x="0" y="10.8" font-size="9">30</tspan></text>
		<text transform="matrix(1 0 0 1 261.6602 400.8955)"><tspan x="0" y="0" font-size="9">30</tspan><tspan x="0" y="10.8" font-size="9">30</tspan></text>
		<text transform="matrix(1 0 0 1 315.248 387.6953)" font-size="9">40</text>
		<text transform="matrix(1 0 0 1 352.1602 376.8955)" font-size="9">50</text>
		<text transform="matrix(1 0 0 1 315.248 411.6953)" font-size="9">40</text>
		<text transform="matrix(1 0 0 1 352.1602 400.8955)" font-size="9">50</text>
		<rect x="381.479" y="370.374" fill="none" width="54.248" height="19.01"/>
		<text transform="matrix(0.9288 0 0 1 381.4775 376.8076)" font-size="9">Delivered MU:</text>
		<text transform="matrix(1 0 0 1 440.4561 377.3887)" font-size="9">20</text>
	</g>
</g>
</svg>
