<?xml version="1.0" encoding="utf-8"?>
<!-- $Source: /home/bbennett/pass/archive/DicomXml/docbook/part03/figures/PS3.3_7-1b.svg,v $ -->
<!-- $Date: 2014/05/09 12:30:19 $ -->
<!-- $Revision: 1.2 $ -->

<!DOCTYPE svg PUBLIC "-//W3C//DTD SVG 1.1//EN" "http://www.w3.org/Graphics/SVG/1.1/DTD/svg11.dtd">
<svg version="1.1" id="Layer_1" xmlns="http://www.w3.org/2000/svg" xmlns:xlink="http://www.w3.org/1999/xlink" x="0px" y="0px"
	 width="502px" height="412px" viewBox="0 0 502 412" enable-background="new 0 0 502 412" xml:space="preserve">

<defs>
	<style type="text/css">
	text {
	  font-family: Helvetica, Verdana, ArialUnicodeMS, san-serif
	}
	</style>
</defs>

<g>
   <desc>
	PS 3.3 Part 3: Information Object Definitions
   </desc>
</g>

<g>
	<rect x="1" y="1" fill="#F5EED6" width="500" height="410"/>
	
		<polygon fill="#CCDEF0" stroke="#010101" stroke-width="0.75" stroke-linecap="round" stroke-linejoin="round" stroke-miterlimit="1" points="
		380.758,217.977 425.691,209.115 470.758,218.104 470.758,218.125 425.691,227.115 	"/>
	<g>
		<g>
			<g>
				<polyline fill="none" stroke="#005695" stroke-width="2" stroke-linejoin="round" points="189.437,48.543 189.437,41.64 
					243.437,41.64 243.437,33.162 				"/>
				<g>
					<polygon fill="#005695" points="191.761,46.958 189.437,55.631 187.113,46.958 					"/>
				</g>
			</g>
		</g>
		<g>
			<g>
				<polyline fill="none" stroke="#005695" stroke-width="2" stroke-linejoin="round" points="291.416,48.543 291.416,41.64 
					243.437,41.64 243.437,33.162 				"/>
				<g>
					<polygon fill="#005695" points="293.74,46.958 291.416,55.631 289.092,46.958 					"/>
				</g>
			</g>
		</g>
		<g>
			<g>
				
					<line fill="none" stroke="#005695" stroke-width="2" stroke-linejoin="round" x1="189.437" y1="85.801" x2="189.437" y2="73.398"/>
				<g>
					<polygon fill="#005695" points="191.761,84.215 189.437,92.888 187.113,84.215 					"/>
				</g>
			</g>
		</g>
		<g>
			<g>
				<polyline fill="none" stroke="#005695" stroke-width="2" stroke-linejoin="round" points="449.76,164.511 449.76,83.713 
					291.418,83.713 291.418,74.669 				"/>
				<g>
					<polygon fill="#005695" points="452.084,162.925 449.76,171.598 447.436,162.925 					"/>
				</g>
			</g>
		</g>
		<g>
			<g>
				<polyline fill="none" stroke="#005695" stroke-width="2" stroke-linejoin="round" points="393.574,126.8 393.574,119.932 
					213.304,119.932 213.304,110.888 				"/>
				<g>
					<polygon fill="#005695" points="395.898,125.214 393.574,133.887 391.25,125.214 					"/>
				</g>
			</g>
		</g>
		<g>
			<g>
				<polyline fill="none" stroke="#005695" stroke-width="2" stroke-linejoin="round" points="292.916,126.8 292.916,119.932 
					213.303,119.932 213.303,110.888 				"/>
				<g>
					<polygon fill="#005695" points="295.24,125.214 292.916,133.887 290.592,125.214 					"/>
				</g>
			</g>
		</g>
		<g>
			<g>
				<polyline fill="none" stroke="#005695" stroke-width="2" stroke-linejoin="round" points="135.989,290.294 135.989,280.173 
					88.619,280.173 88.619,269.021 				"/>
				<g>
					<polygon fill="#005695" points="138.313,288.709 135.989,297.382 133.665,288.709 					"/>
				</g>
			</g>
		</g>
		<g>
			<g>
				<polyline fill="none" stroke="#005695" stroke-width="2" stroke-linejoin="round" points="215.233,330.498 215.233,323.836 
					166.355,323.836 166.355,314.927 				"/>
				<g>
					<polygon fill="#005695" points="217.557,328.913 215.233,337.586 212.909,328.913 					"/>
				</g>
			</g>
		</g>
		<g>
			<g>
				<polyline fill="none" stroke="#005695" stroke-width="2" stroke-linejoin="round" points="112.304,330.498 112.304,323.836 
					166.61,323.836 166.61,314.927 				"/>
				<g>
					<polygon fill="#005695" points="114.628,328.913 112.304,337.586 109.979,328.913 					"/>
				</g>
			</g>
		</g>
		<g>
			<g>
				<polyline fill="none" stroke="#005695" stroke-width="2" stroke-linejoin="round" points="262.783,370.949 262.783,364.287 
					215.413,364.287 215.413,355.377 				"/>
				<g>
					<polygon fill="#005695" points="265.107,369.364 262.783,378.037 260.459,369.364 					"/>
				</g>
			</g>
		</g>
		<g>
			<g>
				<polyline fill="none" stroke="#005695" stroke-width="2" stroke-linejoin="round" points="88.141,126.8 88.141,119.932 
					166.213,119.932 166.213,110.888 				"/>
				<g>
					<polygon fill="#005695" points="90.465,125.214 88.141,133.887 85.817,125.214 					"/>
				</g>
			</g>
		</g>
		<g>
			<g>
				
					<line fill="none" stroke="#005695" stroke-width="2" stroke-linejoin="round" x1="88.141" y1="162.914" x2="88.141" y2="151.168"/>
				<g>
					<polygon fill="#005695" points="90.465,161.329 88.141,170.001 85.817,161.329 					"/>
				</g>
			</g>
		</g>
		<g>
			<g>
				
					<line fill="none" stroke="#005695" stroke-width="2" stroke-linejoin="round" x1="88.141" y1="234.934" x2="88.141" y2="229.104"/>
				<g>
					<polygon fill="#005695" points="90.465,233.349 88.141,242.021 85.817,233.349 					"/>
				</g>
			</g>
		</g>
		<g>
			<g>
				
					<line fill="none" stroke="#005695" stroke-width="2" stroke-linejoin="round" x1="112.112" y1="370.947" x2="112.112" y2="355.377"/>
				<g>
					<polygon fill="#005695" points="114.437,369.362 112.112,378.035 109.788,369.362 					"/>
				</g>
			</g>
		</g>
		<g>
			<g>
				
					<line fill="none" stroke="#005695" stroke-width="2" stroke-linejoin="round" x1="189.586" y1="289.986" x2="189.586" y2="151.165"/>
				<g>
					<polygon fill="#005695" points="191.91,288.401 189.586,297.074 187.262,288.401 					"/>
				</g>
			</g>
		</g>
		<g>
			<g>
				
					<line fill="none" stroke="#005695" stroke-width="2" stroke-linejoin="round" x1="292.917" y1="371.512" x2="292.917" y2="151.165"/>
				<g>
					<polygon fill="#005695" points="295.241,369.927 292.917,378.6 290.593,369.927 					"/>
				</g>
			</g>
		</g>
		<g>
			<g>
				
					<line fill="none" stroke="#005695" stroke-width="2" stroke-linejoin="round" x1="394.432" y1="164.51" x2="394.432" y2="151.165"/>
				<g>
					<polygon fill="#005695" points="396.756,162.925 394.432,171.598 392.107,162.925 					"/>
				</g>
			</g>
		</g>
		<g>
			<g>
				
					<line fill="none" stroke="#005695" stroke-width="2" stroke-linejoin="round" x1="426.648" y1="233.998" x2="426.648" y2="246.82"/>
				<g>
					<polygon fill="#005695" points="424.324,235.583 426.648,226.91 428.973,235.583 					"/>
				</g>
			</g>
		</g>
		<g>
			<g>
				
					<line fill="none" stroke="#005695" stroke-width="2" stroke-linejoin="round" x1="426.648" y1="196.686" x2="426.648" y2="209.289"/>
				<g>
					<polygon fill="#005695" points="424.324,198.271 426.648,189.598 428.973,198.271 					"/>
				</g>
			</g>
		</g>
		<g>
			<g>
				
					<line fill="none" stroke="#005695" stroke-width="2" stroke-linejoin="round" x1="189.437" y1="126.8" x2="189.437" y2="110.888"/>
				<g>
					<polygon fill="#005695" points="191.761,125.214 189.437,133.887 187.113,125.214 					"/>
				</g>
			</g>
		</g>
	</g>
	
		<rect x="201.504" y="15.4" fill="#86B2D8" stroke="#010101" stroke-width="0.75" stroke-linecap="round" stroke-linejoin="round" stroke-miterlimit="1" width="84.003" height="18"/>
	<g>
		<text transform="matrix(1 0 0 1 209.1592 27.728)" font-size="12">Film Session</text>
	</g>
	
		<polygon fill="#CCDEF0" stroke="#010101" stroke-width="0.75" stroke-linecap="round" stroke-linejoin="round" stroke-miterlimit="1" points="
		43.527,142.484 88.461,133.623 133.527,142.612 133.527,142.633 88.461,151.623 	"/>
	<g>
		<text transform="matrix(1 0 0 1 71.7617 145.1216)" font-size="9">contains</text>
	</g>
	
		<polygon fill="#CCDEF0" stroke="#010101" stroke-width="0.75" stroke-linecap="round" stroke-linejoin="round" stroke-miterlimit="1" points="
		144.873,142.484 189.807,133.623 234.872,142.612 234.872,142.633 189.807,151.623 	"/>
	
		<rect x="383.43" y="246.82" fill="#86B2D8" stroke="#010101" stroke-width="0.75" stroke-linecap="round" stroke-linejoin="round" stroke-miterlimit="1" width="84.004" height="18"/>
	<g>
		<text transform="matrix(1 0 0 1 407.7852 258.959)" font-size="12">Printer</text>
	</g>
	
		<rect x="229.669" y="378.6" fill="#86B2D8" stroke="#010101" stroke-width="0.75" stroke-linecap="round" stroke-linejoin="round" stroke-miterlimit="1" width="98.014" height="18"/>
	<g>
		<text transform="matrix(1 0 0 1 232.0063 390.9355)" font-size="12">Presentation LUT</text>
	</g>
	
		<rect x="71.073" y="378.6" fill="#86B2D8" stroke="#010101" stroke-width="0.75" stroke-linecap="round" stroke-linejoin="round" stroke-miterlimit="1" width="84.004" height="18"/>
	<g>
		<text transform="matrix(1 0 0 1 76.7363 390.9355)" font-size="12">Lookup Table</text>
	</g>
	<g>
		<text transform="matrix(1 0 0 1 173.1104 145.1216)" font-size="9">contains</text>
	</g>
	<g>
		<text transform="matrix(1 0 0 1 210.1367 133.6675)" font-size="9">1</text>
	</g>
	<g>
		<text transform="matrix(1 0 0 1 109.7695 133.6675)" font-size="9">1-n</text>
	</g>
	<g>
		<text transform="matrix(1 0 0 1 210.1357 156.3931)" font-size="9">1-n</text>
	</g>
	<g>
		<text transform="matrix(1 0 0 1 109.7695 156.3931)" font-size="9">0-n</text>
	</g>
	
		<polygon fill="#CCDEF0" stroke="#010101" stroke-width="0.75" stroke-linecap="round" stroke-linejoin="round" stroke-miterlimit="1" points="
		247.873,142.484 292.807,133.623 337.872,142.612 337.872,142.633 292.807,151.623 	"/>
	<g>
		<text transform="matrix(1 0 0 1 274.3613 145.1216)" font-size="9">relates to</text>
	</g>
	<g>
		<text transform="matrix(1 0 0 1 313.1348 133.6675)" font-size="9">1-n</text>
	</g>
	<g>
		<text transform="matrix(1 0 0 1 313.1357 156.3931)" font-size="9">0-1</text>
	</g>
	<g>
		<text transform="matrix(1 0 0 1 414.6973 133.6675)" font-size="9">1</text>
	</g>
	<g>
		<text transform="matrix(1 0 0 1 414.6963 156.3931)" font-size="9">0-1</text>
	</g>
	
		<polygon fill="#CCDEF0" stroke="#010101" stroke-width="0.75" stroke-linecap="round" stroke-linejoin="round" stroke-miterlimit="1" points="
		144.527,64.997 189.461,56.135 234.527,65.125 234.527,65.145 189.461,74.135 	"/>
	<g>
		<text transform="matrix(1 0 0 1 172.7617 67.6333)" font-size="9">contains</text>
	</g>
	
		<polygon fill="#CCDEF0" stroke="#010101" stroke-width="0.75" stroke-linecap="round" stroke-linejoin="round" stroke-miterlimit="1" points="
		245.873,64.997 290.807,56.135 335.872,65.125 335.872,65.145 290.807,74.135 	"/>
	<g>
		<text transform="matrix(1 0 0 1 278.1162 67.6333)" font-size="9">issues</text>
	</g>
	<g>
		<text transform="matrix(1 0 0 1 311.1367 56.1792)" font-size="9">1</text>
	</g>
	<g>
		<text transform="matrix(1 0 0 1 311.1357 78.9048)" font-size="9">0-1</text>
	</g>
	
		<polygon fill="#CCDEF0" stroke="#010101" stroke-width="0.75" stroke-linecap="round" stroke-linejoin="round" stroke-miterlimit="1" points="
		67.214,346.238 112.147,337.377 157.205,346.365 157.205,346.387 112.147,355.377 	"/>
	<g>
		<text transform="matrix(1 0 0 1 132.4648 337.4238)" font-size="9">1-n</text>
	</g>
	<g>
		<text transform="matrix(1 0 0 1 132.4648 360.1484)" font-size="9">0-n</text>
	</g>
	
		<rect x="382.027" y="171.598" fill="#86B2D8" stroke="#010101" stroke-width="0.75" stroke-linecap="round" stroke-linejoin="round" stroke-miterlimit="1" width="83.978" height="18"/>
	<g>
		<text transform="matrix(1 0 0 1 400.3389 183.9224)" font-size="12">Print Job</text>
	</g>
	
		<rect x="46.534" y="169.438" fill="#86B2D8" stroke="#010101" stroke-width="0.75" stroke-linecap="round" stroke-linejoin="round" stroke-miterlimit="1" width="83.978" height="18"/>
	<g>
		<text transform="matrix(1 0 0 1 59.8301 181.7622)" font-size="12">Annotation</text>
	</g>
	<g>
		<text transform="matrix(1 0 0 1 110.418 244.6953)" font-size="9">1</text>
	</g>
	<g>
		<text transform="matrix(1 0 0 1 109.6982 273.1797)" font-size="9">1-n</text>
	</g>
	<g>
		<text transform="matrix(1 0 0 1 414.7539 220.6094)" font-size="9">prints</text>
	</g>
	<g>
		<text transform="matrix(1 0 0 1 447.7246 209.1562)" font-size="9">1</text>
	</g>
	<g>
		<text transform="matrix(1 0 0 1 447.0049 231.8809)" font-size="9">1-n</text>
	</g>
	
		<rect x="46.46" y="211.104" fill="#86B2D8" stroke="#010101" stroke-width="0.75" stroke-linecap="round" stroke-linejoin="round" stroke-miterlimit="1" width="83.978" height="18"/>
	<g>
		<text transform="matrix(1 0 0 1 71.7725 223.9648)" font-size="12">Image</text>
	</g>
	
		<rect x="124.78" y="297.078" fill="#86B2D8" stroke="#010101" stroke-width="0.75" stroke-linecap="round" stroke-linejoin="round" stroke-miterlimit="1" width="83.978" height="18"/>
	<g>
		<text transform="matrix(1 0 0 1 138.085 309.3613)" font-size="12">Image Box</text>
	</g>
	
		<polygon fill="#CCDEF0" stroke="#010101" stroke-width="0.75" stroke-linecap="round" stroke-linejoin="round" stroke-miterlimit="1" points="
		170.197,346.238 215.121,337.377 260.187,346.365 260.187,346.387 215.121,355.377 	"/>
	<g>
		<text transform="matrix(1 0 0 1 196.6904 348.8779)" font-size="9">relates to</text>
	</g>
	<g>
		<text transform="matrix(1 0 0 1 102.2524 348.877)" font-size="9">uses</text>
	</g>
	<g>
		<text transform="matrix(1 0 0 1 235.4648 337.4238)" font-size="9">1-n</text>
	</g>
	<g>
		<text transform="matrix(1 0 0 1 235.4648 360.1484)" font-size="9">0-1</text>
	</g>
	<g>
		<text transform="matrix(1 0 0 1 211.4893 56.1792)" font-size="9">1</text>
	</g>
	<g>
		<text transform="matrix(1 0 0 1 210.7695 78.9048)" font-size="9">0-n</text>
	</g>
	
		<polygon fill="#CCDEF0" stroke="#010101" stroke-width="0.75" stroke-linecap="round" stroke-linejoin="round" stroke-miterlimit="1" points="
		348.693,142.484 393.627,133.623 438.692,142.612 438.692,142.633 393.627,151.623 	"/>
	<g>
		<text transform="matrix(1 0 0 1 381.6768 145.1216)" font-size="9">issues</text>
	</g>
	
		<rect x="147.439" y="92.888" fill="#86B2D8" stroke="#010101" stroke-width="0.75" stroke-linecap="round" stroke-linejoin="round" stroke-miterlimit="1" width="84.004" height="18"/>
	<g>
		<text transform="matrix(1 0 0 1 166.1025 105.2153)" font-size="12">Film Box</text>
	</g>
	
		<polygon fill="#CCDEF0" stroke="#010101" stroke-width="0.75" stroke-linecap="round" stroke-linejoin="round" stroke-miterlimit="1" points="
		34.567,255.314 88.488,242.021 142.567,255.507 142.567,255.537 88.488,269.021 	"/>
	<g>
		<text transform="matrix(1 0 0 1 58.0488 258.0195)" font-size="9">is presented by</text>
	</g>
</g>
</svg>
