<?xml version="1.0" encoding="utf-8"?>
<!-- $Source: /home/bbennett/pass/archive/DicomXml/docbook/part03/figures/PS3.3_C.7.6.4b-1.svg,v $ -->
<!-- $Date: 2014/05/09 12:27:10 $ -->
<!-- $Revision: 1.2 $ -->

<!DOCTYPE svg PUBLIC "-//W3C//DTD SVG 1.1//EN" "http://www.w3.org/Graphics/SVG/1.1/DTD/svg11.dtd">
<svg version="1.1" id="Layer_1" xmlns="http://www.w3.org/2000/svg" xmlns:xlink="http://www.w3.org/1999/xlink" x="0px" y="0px"
	 width="502px" height="327px" viewBox="0 0 502 327" enable-background="new 0 0 502 327" xml:space="preserve">

<defs>
	<style type="text/css">
	text {
	  font-family: Helvetica, Verdana, ArialUnicodeMS, san-serif
	}
	</style>
</defs>

<g>
   <desc>
	PS 3.3 Part 3: Information Object Definitions
   </desc>
</g>

<rect x="1" y="1" fill="#F5EED6" width="500" height="325"/>
<g>
	<rect x="118.474" y="16.065" fill="#B2CEE7" width="161.883" height="67.964"/>
	
		<line fill="#4F8ABE" stroke="#005695" stroke-width="4" stroke-linecap="round" stroke-miterlimit="1" x1="118.474" y1="112.369" x2="279.783" y2="112.369"/>
	
		<rect x="131.917" y="127.662" fill="#86B2D8" stroke="#010101" stroke-width="0.75" stroke-linecap="round" stroke-linejoin="round" stroke-miterlimit="1" width="134.432" height="67.218"/>
	
		<ellipse fill="#B3B3B3" stroke="#000000" stroke-width="0.75" stroke-linecap="round" stroke-linejoin="round" stroke-miterlimit="1" cx="199.135" cy="161.271" rx="28.173" ry="18.943"/>
	<path fill="none" stroke="#000000" stroke-width="2" stroke-linejoin="round" stroke-miterlimit="1" d="M118.474,51.525h52.488
		c0,10.462,12.614,18.942,28.173,18.942c15.561,0,28.174-8.48,28.174-18.942h53.048"/>
	<rect x="316.562" y="16.065" fill="#B2CEE7" width="161.885" height="67.964"/>
	
		<line fill="#4F8ABE" stroke="#005695" stroke-width="4" stroke-linecap="round" stroke-miterlimit="1" x1="316.562" y1="112.369" x2="477.873" y2="112.369"/>
	
		<rect x="329.996" y="127.662" fill="#86B2D8" stroke="#010101" stroke-width="0.75" stroke-linecap="round" stroke-linejoin="round" stroke-miterlimit="1" width="134.434" height="67.218"/>
	
		<ellipse fill="#FFFFFF" stroke="#000000" stroke-width="0.75" stroke-linecap="round" stroke-linejoin="round" stroke-miterlimit="1" cx="397.212" cy="161.271" rx="28.173" ry="18.943"/>
	<g>
		<g>
			<polyline fill="none" stroke="#010101" stroke-width="0.75" stroke-linecap="round" stroke-linejoin="round" points="
				273.139,84.029 118.474,84.029 118.474,22.065 			"/>
			<g>
				<polygon fill="#010101" points="271.652,81.851 279.783,84.029 271.652,86.208 				"/>
			</g>
			<g>
				<polygon fill="#010101" points="120.652,23.552 118.474,15.421 116.295,23.552 				"/>
			</g>
		</g>
	</g>
	<g>
		<g>
			<polyline fill="none" stroke="#010101" stroke-width="0.75" stroke-linecap="round" stroke-linejoin="round" points="
				471.227,84.029 316.562,84.029 316.562,22.065 			"/>
			<g>
				<polygon fill="#010101" points="469.74,81.851 477.871,84.029 469.74,86.208 				"/>
			</g>
			<g>
				<polygon fill="#010101" points="318.74,23.552 316.562,15.421 314.383,23.552 				"/>
			</g>
		</g>
	</g>
	<g>
		<g>
			<line fill="none" stroke="#005695" stroke-miterlimit="1" x1="199.119" y1="246.178" x2="243.745" y2="117.831"/>
			<g>
				<polygon fill="#005695" points="244.583,118.961 244.909,114.483 242.387,118.198 				"/>
			</g>
		</g>
	</g>
	<g>
		<g>
			<line fill="none" stroke="#005695" stroke-miterlimit="1" x1="199.119" y1="246.178" x2="154.493" y2="117.831"/>
			<g>
				<polygon fill="#005695" points="155.851,118.198 153.329,114.483 153.656,118.961 				"/>
			</g>
		</g>
	</g>
	<g>
		<g>
			<line fill="none" stroke="#005695" stroke-miterlimit="1" x1="397.239" y1="246.178" x2="441.865" y2="117.831"/>
			<g>
				<polygon fill="#005695" points="442.703,118.961 443.029,114.483 440.508,118.198 				"/>
			</g>
		</g>
	</g>
	<g>
		<g>
			<line fill="none" stroke="#005695" stroke-miterlimit="1" x1="397.239" y1="246.178" x2="352.613" y2="117.831"/>
			<g>
				<polygon fill="#005695" points="353.971,118.198 351.449,114.483 351.775,118.961 				"/>
			</g>
		</g>
	</g>
	<g>
		<ellipse fill="#FEDA00" cx="199.135" cy="246.178" rx="7.773" ry="7.989"/>
		<circle cx="199.207" cy="246.331" r="0.785"/>
		<path d="M200.156,244.544c0.602,0.344,1.008,1.003,1.008,1.76c0,0.057-0.002,0.113-0.008,0.17h4.764
			c0.002-0.057,0.002-0.113,0.002-0.17c0-2.562-1.357-4.797-3.373-5.987L200.156,244.544z"/>
		<path d="M198.289,244.544c-0.602,0.344-1.008,1.003-1.008,1.76c0,0.057,0.002,0.113,0.006,0.17h-4.764c0-0.057,0-0.113,0-0.17
			c0-2.562,1.357-4.797,3.373-5.987L198.289,244.544z"/>
		<path d="M200.318,247.979c-0.598,0.349-1.371,0.47-2.027,0.091c-0.049-0.028-0.096-0.059-0.143-0.091l-2.383,4.125
			c0.049,0.028,0.098,0.058,0.146,0.087c2.219,1.28,4.834,1.064,6.873-0.087L200.318,247.979z"/>
	</g>
	<g>
		<ellipse fill="#FEDA00" cx="397.211" cy="246.178" rx="7.773" ry="7.989"/>
		<circle cx="397.284" cy="246.331" r="0.785"/>
		<path d="M398.232,244.544c0.602,0.344,1.009,1.003,1.009,1.76c0,0.057-0.003,0.113-0.008,0.17h4.764
			c0.001-0.057,0.002-0.113,0.002-0.17c0-2.562-1.358-4.797-3.374-5.987L398.232,244.544z"/>
		<path d="M396.366,244.544c-0.602,0.344-1.009,1.003-1.009,1.76c0,0.057,0.002,0.113,0.007,0.17h-4.764
			c-0.001-0.057-0.001-0.113-0.001-0.17c0-2.562,1.357-4.797,3.374-5.987L396.366,244.544z"/>
		<path d="M398.396,247.979c-0.598,0.349-1.372,0.47-2.028,0.091c-0.049-0.028-0.096-0.059-0.142-0.091l-2.383,4.125
			c0.049,0.028,0.097,0.058,0.146,0.087c2.218,1.28,4.833,1.064,6.872-0.087L398.396,247.979z"/>
	</g>
	<g>
		<text transform="matrix(0.8815 0 0 1 170.5063 278.2461)"><tspan x="0" y="0" font-size="10">Contrast/Bolus</tspan><tspan x="-8.628" y="10.009" font-size="10">Ingredient Opaque</tspan><tspan x="5.828" y="20.018" font-size="10">(0018,9425)</tspan><tspan x="6.665" y="30.025" font-size="10">equals YES</tspan></text>
	</g>
	<g>
		<text transform="matrix(0.8815 0 0 1 368.6182 278.2461)"><tspan x="0" y="0" font-size="10">Contrast/Bolus</tspan><tspan x="-8.629" y="10.009" font-size="10">Ingredient Opaque</tspan><tspan x="5.828" y="20.018" font-size="10">(0018,9425)</tspan><tspan x="9.169" y="30.025" font-size="10">equals NO</tspan></text>
	</g>
	<g>
		<text transform="matrix(1 0 0 1 136.4463 189.5273)" font-size="10">Water</text>
	</g>
	<g>
		<text transform="matrix(1 0 0 1 334.5654 189.5273)" font-size="10">Water</text>
	</g>
	<g>
		<text transform="matrix(1 0 0 1 181.6074 156.8423)"><tspan x="0" y="0" font-size="10">Injected</tspan><tspan x="2.504" y="10.008" font-size="10">Vessel</tspan></text>
	</g>
	<g>
		<text transform="matrix(1 0 0 1 379.7275 156.8423)"><tspan x="0" y="0" font-size="10">Injected</tspan><tspan x="2.504" y="10.008" font-size="10">Vessel</tspan></text>
	</g>
	<g>
		<text transform="matrix(0.8815 0 0 1 25.6982 163.3423)" font-size="10">Injected Vessel</text>
	</g>
	<g>
		<text transform="matrix(0.8815 0 0 1 29.9878 248.2461)" font-size="10">X-Ray Source</text>
	</g>
	<g>
		<text transform="matrix(0.8815 0 0 1 42.4272 102.7563)"><tspan x="0" y="0" font-size="10">X-Ray</tspan><tspan x="-21.409" y="10.008" font-size="10">Detection Plane</tspan></text>
	</g>
	<g>
		<text transform="matrix(0.8815 0 0 1 34.2695 41.5815)"><tspan x="0" y="0" font-size="10">X-Ray Beam</tspan><tspan x="8.333" y="10.008" font-size="10"> Intensity</tspan></text>
	</g>
	<path fill="none" stroke="#000000" stroke-width="2" stroke-linejoin="round" stroke-miterlimit="1" d="M316.562,51.742h52.478
		c0-10.462,12.613-18.942,28.173-18.942s28.173,8.48,28.173,18.942h53.062"/>
	
		<line fill="none" stroke="#010101" stroke-miterlimit="1" stroke-dasharray="12,6" x1="93.627" y1="245.065" x2="190.013" y2="245.065"/>
	
		<line fill="none" stroke="#010101" stroke-miterlimit="1" stroke-dasharray="12,6" x1="93.627" y1="160.065" x2="164.338" y2="160.065"/>
	
		<line fill="none" stroke="#010101" stroke-miterlimit="1" stroke-dasharray="12,6" x1="93.627" y1="112.065" x2="114.927" y2="112.065"/>
	
		<line fill="none" stroke="#010101" stroke-miterlimit="1" stroke-dasharray="12,6" x1="84.474" y1="51.065" x2="118.655" y2="51.065"/>
</g>
</svg>
