<?xml version="1.0" encoding="utf-8"?>
<!-- $Source: /home/bbennett/pass/archive/DicomXml/docbook/part03/figures/PS3.3_C.23.2-1.svg,v $ -->
<!-- $Date: 2014/05/09 12:27:10 $ -->
<!-- $Revision: 1.2 $ -->

<!DOCTYPE svg PUBLIC "-//W3C//DTD SVG 1.1//EN" "http://www.w3.org/Graphics/SVG/1.1/DTD/svg11.dtd">
<svg version="1.1" id="Layer_1" xmlns="http://www.w3.org/2000/svg" xmlns:xlink="http://www.w3.org/1999/xlink" x="0px" y="0px"
	 width="502px" height="402px" viewBox="0 0 502 402" enable-background="new 0 0 502 402" xml:space="preserve">

<defs>
	<style type="text/css">
	text {
	  font-family: Helvetica, Verdana, ArialUnicodeMS, san-serif
	}
	</style>
</defs>

<g>
   <desc>
	PS 3.3 Part 3: Information Object Definitions
   </desc>
</g>

<g>
	<rect x="1" y="1" fill="#F5EED6" width="500" height="400"/>
	<g>
		<rect x="146.993" y="40.888" fill="#B2CEE7" stroke="#000000" stroke-miterlimit="1" width="322.355" height="272.103"/>
		<text transform="matrix(1 0 0 1 86.2852 179.6357)" font-family="'MyriadPro-Regular'" font-size="12">(0.0, 0.4)</text>
		<g>
			<g>
				<polyline fill="none" stroke="#000000" stroke-miterlimit="1" points="155.346,201.545 145.455,178.146 129.985,178.146 				"/>
				<circle cx="155.346" cy="201.545" r="3.759"/>
			</g>
		</g>
		<text transform="matrix(1 0 0 1 188.2852 25.4766)" font-family="'MyriadPro-Regular'" font-size="12">(0.0, 0.4)</text>
		<g>
			<g>
				<polyline fill="none" stroke="#000000" stroke-miterlimit="1" points="257.346,47.386 247.455,23.986 231.984,23.986 				"/>
				<circle cx="257.346" cy="47.386" r="3.76"/>
			</g>
		</g>
		<text transform="matrix(1 0 0 1 392.2852 25.4766)" font-family="'MyriadPro-Regular'" font-size="12">(1.0, 1.0)</text>
		<g>
			<g>
				<polyline fill="none" stroke="#000000" stroke-miterlimit="1" points="461.338,47.386 451.446,23.986 435.977,23.986 				"/>
				<circle cx="461.338" cy="47.386" r="3.76"/>
			</g>
		</g>
		<text transform="matrix(1 0 0 1 86.2852 329.2363)" font-family="'MyriadPro-Regular'" font-size="12">(0.0, 0.0)</text>
		<g>
			<g>
				<polyline fill="none" stroke="#000000" stroke-miterlimit="1" points="155.346,302.553 145.455,325.951 129.985,325.951 				"/>
				<circle cx="155.346" cy="302.553" r="3.759"/>
			</g>
		</g>
		<text transform="matrix(1 0 0 1 182.0854 329.2363)" font-family="'MyriadPro-Regular'" font-size="12">(0.33, 0.0)</text>
		<g>
			<g>
				<polyline fill="none" stroke="#000000" stroke-miterlimit="1" points="258.346,302.553 248.455,325.951 232.984,325.951 				"/>
				<circle cx="258.346" cy="302.553" r="3.76"/>
			</g>
		</g>
		<text transform="matrix(1 0 0 1 393.2852 329.2363)" font-family="'MyriadPro-Regular'" font-size="12">(1.0, 0.0)</text>
		<g>
			<g>
				<polyline fill="none" stroke="#000000" stroke-miterlimit="1" points="462.338,302.553 452.446,325.951 436.977,325.951 				"/>
				<circle cx="462.338" cy="302.553" r="3.76"/>
			</g>
		</g>
		
			<rect x="257.454" y="47.986" fill="none" stroke="#000000" stroke-linecap="round" stroke-linejoin="round" stroke-miterlimit="1" width="204.795" height="256"/>
		
			<rect x="155.054" y="201.586" fill="none" stroke="#000000" stroke-linecap="round" stroke-linejoin="round" stroke-miterlimit="1" width="102.4" height="102.4"/>
		<g>
			<g>
				<line fill="none" stroke="#005695" stroke-width="2" stroke-miterlimit="1" x1="50.455" y1="54.507" x2="50.455" y2="295.465"/>
				<g>
					<polygon fill="#005695" points="48.13,56.093 50.455,47.42 52.779,56.093 					"/>
				</g>
				<g>
					<polygon fill="#005695" points="48.13,293.88 50.455,302.553 52.779,293.88 					"/>
				</g>
			</g>
		</g>
		<rect x="32.653" y="158.486" fill="#FFFFFF" width="38" height="33"/>
		<text transform="matrix(1 0 0 1 36.6528 171.4731)"><tspan x="0" y="0" font-size="12">2560</tspan><tspan x="0" y="14.4" font-size="12">pixels</tspan></text>
		<g>
			<g>
				
					<line fill="none" stroke="#005695" stroke-width="2" stroke-miterlimit="1" x1="85.455" y1="207.508" x2="85.455" y2="295.465"/>
				<g>
					<polygon fill="#005695" points="83.13,209.093 85.455,200.42 87.779,209.093 					"/>
				</g>
				<g>
					<polygon fill="#005695" points="83.13,293.88 85.455,302.553 87.779,293.88 					"/>
				</g>
			</g>
		</g>
		<rect x="68.653" y="233.986" fill="#FFFFFF" width="38" height="33"/>
		<text transform="matrix(1 0 0 1 72.6528 246.9727)"><tspan x="0" y="0" font-size="12">1024</tspan><tspan x="0" y="14.4" font-size="12">pixels</tspan></text>
		<g>
			<g>
				
					<line fill="none" stroke="#005695" stroke-width="2" stroke-miterlimit="1" x1="265.241" y1="370.066" x2="455.173" y2="370.066"/>
				<g>
					<polygon fill="#005695" points="266.826,372.391 258.153,370.066 266.826,367.742 					"/>
				</g>
				<g>
					<polygon fill="#005695" points="453.588,372.391 462.261,370.066 453.588,367.742 					"/>
				</g>
			</g>
		</g>
		<rect x="341.207" y="353.566" fill="#FFFFFF" width="38" height="33"/>
		<text transform="matrix(1 0 0 1 345.207 366.5527)"><tspan x="0" y="0" font-size="12">2048</tspan><tspan x="0" y="14.4" font-size="12">pixels</tspan></text>
		<g>
			<g>
				
					<line fill="none" stroke="#005695" stroke-width="2" stroke-miterlimit="1" x1="162.434" y1="369.986" x2="251.066" y2="369.986"/>
				<g>
					<polygon fill="#005695" points="164.019,372.311 155.346,369.986 164.019,367.662 					"/>
				</g>
				<g>
					<polygon fill="#005695" points="249.48,372.311 258.153,369.986 249.48,367.662 					"/>
				</g>
			</g>
		</g>
		<rect x="188.55" y="351.287" fill="#FFFFFF" width="38" height="33"/>
		<text transform="matrix(1 0 0 1 192.5513 364.2754)"><tspan x="0" y="0" font-size="12">1024</tspan><tspan x="0" y="14.399" font-size="12">pixels</tspan></text>
		
			<line fill="none" stroke="#000000" stroke-miterlimit="1" stroke-dasharray="4" x1="462.249" y1="302.762" x2="462.249" y2="382.652"/>
		
			<line fill="none" stroke="#000000" stroke-miterlimit="1" stroke-dasharray="4" x1="257.653" y1="302.762" x2="257.653" y2="382.652"/>
		
			<line fill="none" stroke="#000000" stroke-miterlimit="1" stroke-dasharray="4" x1="154.987" y1="302.762" x2="154.987" y2="382.652"/>
		
			<line fill="none" stroke="#000000" stroke-miterlimit="1" stroke-dasharray="4" x1="39.386" y1="47.986" x2="257.454" y2="47.986"/>
		
			<line fill="none" stroke="#000000" stroke-miterlimit="1" stroke-dasharray="4" x1="71.41" y1="200.654" x2="151.3" y2="200.654"/>
		<line fill="none" stroke="#000000" stroke-miterlimit="1" stroke-dasharray="4" x1="39.386" y1="303.32" x2="151.3" y2="303.32"/>
	</g>
</g>
</svg>
