<?xml version="1.0" encoding="utf-8"?>
<!-- $Source: /home/bbennett/pass/archive/DicomXml/docbook/part03/figures/PS3.3_C.8.8.6-1.svg,v $ -->
<!-- $Date: 2014/05/09 12:30:19 $ -->
<!-- $Revision: 1.2 $ -->

<!DOCTYPE svg PUBLIC "-//W3C//DTD SVG 1.1//EN" "http://www.w3.org/Graphics/SVG/1.1/DTD/svg11.dtd">
<svg version="1.1" id="Layer_1" xmlns="http://www.w3.org/2000/svg" xmlns:xlink="http://www.w3.org/1999/xlink" x="0px" y="0px"
	 width="502px" height="107px" viewBox="0 0 502 107" enable-background="new 0 0 502 107" xml:space="preserve">

<defs>
	<style type="text/css">
	text {
	  font-family: Helvetica, Verdana, ArialUnicodeMS, san-serif
	}
	</style>
</defs>

<g>
   <desc>
	PS 3.3 Part 3: Information Object Definitions
   </desc>
</g>

<g>
	<rect x="1" y="1" fill="#F5EED6" width="500" height="105"/>
	<g>
		<path fill="#86B2D8" stroke="#000000" d="M254.037,16.68c13.895,0,29.103,0.645,40.186,3.801
			c21.293,6.066,20.274,21.211,20.274,33.793c0,7.608-5.257,16.532-14.079,22.247c-7.981,5.168-11.831,10.781-24.561,13.234
			c-8.579,1.654-17.973-0.846-27.817-0.846c-24.613,0-28.19-1.744-41.396-10.699c-8.546-5.795-19.148-16.408-19.148-23.936
			c0-10.926,1.339-17.107,18.104-23.455c12.592-4.768,30.114-14.139,47.523-14.139l0.021,6.877
			c-14.996,0-30.271,7.621-41.119,11.498c-14.441,5.162-15.594,10.189-15.594,19.074c0,6.124,9.132,14.752,16.494,19.465
			c11.373,7.281,14.455,8.701,35.655,8.701c8.48,0,16.57,2.033,23.962,0.688c10.964-1.996,14.279-6.559,21.154-10.764
			c7.6-4.645,12.128-11.904,12.128-18.09c0-10.232,0.877-22.547-17.465-27.48c-9.546-2.568-22.384-3.092-34.352-3.092L254.037,16.68
			z"/>
		<path fill="#4F8ABE" stroke="#000000" d="M253.142,23.708c-14.92,0-30.121,7.582-40.914,11.439
			c-14.369,5.137-15.516,10.139-15.516,18.979c0,6.094,9.086,14.68,16.411,19.37c11.317,7.246,14.384,8.658,35.478,8.658
			c8.438,0,16.489,2.021,23.843,0.684c10.91-1.986,14.209-6.525,21.049-10.709c7.562-4.623,12.067-11.846,12.067-18.002
			c0-10.18,0.873-22.434-17.378-27.344c-9.498-2.555-22.271-3.074-34.18-3.074H253.142z"/>
	</g>
</g>
</svg>
