<?xml version="1.0" encoding="utf-8"?>
<!-- $Source: /home/bbennett/pass/archive/DicomXml/docbook/part03/figures/PS3.3_C.8-12.svg,v $ -->
<!-- $Date: 2014/05/09 12:27:11 $ -->
<!-- $Revision: 1.2 $ -->

<!DOCTYPE svg PUBLIC "-//W3C//DTD SVG 1.1//EN" "http://www.w3.org/Graphics/SVG/1.1/DTD/svg11.dtd">
<svg version="1.1" id="Layer_1" xmlns="http://www.w3.org/2000/svg" xmlns:xlink="http://www.w3.org/1999/xlink" x="0px" y="0px"
	 width="502px" height="201.999px" viewBox="0 0 502 201.999" enable-background="new 0 0 502 201.999" xml:space="preserve">

<defs>
	<style type="text/css">
	text {
	  font-family: Helvetica, Verdana, ArialUnicodeMS, san-serif
	}
	</style>
</defs>

<g>
   <desc>
	PS 3.3 Part 3: Information Object Definitions
   </desc>
</g>

<g>
	<rect x="1" y="1" fill="#F5EED6" width="500" height="199.999"/>
	<g>
		<g>
			<polygon fill="#CCDEF0" stroke="#000000" points="165.146,95.257 164.565,94.494 161.936,91.814 160.179,90.921 152.001,87.687 
				147.235,86.195 143.828,86.549 138.982,87.216 134.646,89.827 131.73,93.885 130.862,98.55 132.225,102.848 135.51,105.891 
				138.147,107.408 143.053,108.703 152.632,108.845 154.846,108.695 158.942,107.942 160.069,107.408 163.287,105.281 
				165.423,102.131 166.083,98.566 			"/>
			<path fill="#CCDEF0" stroke="#000000" d="M131.023,97.81"/>
			<polygon fill="#CCDEF0" stroke="#000000" points="197.834,97.782 196.565,95.6 194.786,94.249 192.917,93.298 190.504,92.981 
				188.177,93.439 186.061,94.554 184.638,96.194 183.507,98.056 183.163,100.516 183.669,103.092 184.927,105.289 186.692,106.674 
				188.602,107.544 191.007,107.918 193.313,107.377 195.453,106.321 196.805,104.631 197.965,102.804 198.334,100.357 			"/>
			<polygon fill="#CCDEF0" stroke="#000000" points="168.878,98.162 168,97.013 166.267,94.758 163.826,93.728 161.731,93.354 
				159.062,93.771 157.52,94.794 155.628,96.228 154.368,98.48 154,101.094 154.597,103.542 155.4,104.739 157.197,106.972 
				159.671,107.93 161.754,108.372 164.406,107.88 165.983,106.928 167.843,105.459 169.073,103.204 169.443,100.605 			"/>
			<polyline fill="#CCDEF0" stroke="#000000" points="163.184,92.982 160.869,94.461 157.732,99.016 156.764,104.23 
				158.169,109.008 161.625,112.357 167.599,114.939 172.863,116.335 183.759,116.816 187.263,116.95 191.821,115.981 
				193.664,114.977 197.05,112.55 199.319,109.003 200.056,105.014 199.124,101.335 198.233,99.986 195.362,96.848 192.291,95.727 
				182.715,92.302 177.624,90.651 170.629,90.72 165.493,91.507 163.184,92.982 			"/>
			<polygon fill="#CCDEF0" stroke="#000000" points="227.641,102.104 227.488,101.721 226.388,99.87 224.809,99.062 224.168,98.767 
				211.821,95.806 203.964,94.019 197.902,94.402 195.781,94.836 194.687,95.458 193.023,96.984 192.776,97.471 191.81,99.514 
				191.511,101.87 191.556,102.089 191.511,101.87 191.94,104.062 192.054,104.632 193.29,106.468 194.188,107.394 196.141,108.265 
				201.886,110.341 209.902,110.831 222.54,111.456 223.232,111.354 224.974,110.893 226.513,109.319 226.753,109.015 
				227.7,106.859 228.018,104.397 			"/>
			<polygon fill="#CCDEF0" stroke="#000000" points="232.752,103.287 231.653,101.619 230.169,100.646 228.727,99.896 
				226.76,99.789 225.007,100.182 223.321,101.199 222.332,102.487 221.468,104.042 221.262,106.029 221.749,108.058 
				222.837,109.734 224.312,110.73 225.778,111.432 227.743,111.577 229.483,111.135 231.188,110.153 232.134,108.833 
				233.018,107.298 233.239,105.315 			"/>
			<polygon fill="#CCDEF0" stroke="#000000" points="165.112,104.483 164.546,103.159 163.457,101.531 162.061,99.995 
				159.361,98.942 157.518,98.481 154.363,98.918 152.795,99.994 150.49,101.725 149.692,103.641 149.057,105.488 148.95,106.936 
				149.2,108.48 149.757,109.824 150.945,111.402 152.306,112.98 155.043,113.948 156.87,114.494 160.008,113.978 161.615,112.981 
				163.854,111.189 164.703,109.306 165.232,107.444 165.357,106.014 			"/>
			<polygon fill="#CCDEF0" stroke="#000000" points="261.384,104.813 261.169,104.431 260.116,102.721 258.682,101.98 
				257.892,101.711 246.424,99.493 233.698,99.274 231.891,99.523 230.029,99.944 229.172,100.357 227.687,101.853 226.741,104.16 
				226.716,104.322 226.525,106.686 226.527,106.816 227.089,109.279 228.311,111.053 229.095,111.562 230.859,112.356 
				232.609,112.835 245.245,114.255 256.951,113.534 257.777,113.369 259.305,112.939 260.609,111.478 260.885,111.104 
				261.626,109.141 261.804,106.898 			"/>
			<polygon fill="#CCDEF0" stroke="#000000" points="209.687,103.068 207.486,99.909 204.993,97.091 201.066,95.304 197.089,94.634 
				192.717,95.377 189.7,97.157 186.562,99.689 184.441,103.659 183.782,108.256 184.724,112.524 187.054,115.594 189.384,118.58 
				193.415,120.15 197.354,121.028 201.671,120.055 204.794,118.494 207.832,115.853 209.868,111.876 210.529,107.328 			"/>
			<polygon fill="#CCDEF0" stroke="#000000" points="233.685,105.364 233.494,104.994 230.265,101.152 227.021,99.417 221.86,97.65 
				216.662,96.708 206.058,97.562 201.248,98.425 196.888,101.458 196.685,101.661 193.808,106.105 192.873,111.157 
				194.075,115.756 194.175,116.119 197.361,119.436 205.948,123.999 211.353,125.443 216.528,126.531 220.635,126.16 
				225.892,124.854 226.342,124.551 230.787,121.067 233.791,116.065 234.819,110.488 			"/>
			<polygon fill="#CCDEF0" stroke="#000000" points="267.13,106.086 266.204,104.538 264.868,103.563 263.794,102.935 
				261.946,102.674 260.537,103.031 258.878,103.773 257.736,105.367 257.19,106.245 256.865,107.959 257.194,109.768 
				258.112,111.321 259.44,112.313 260.532,112.901 262.376,113.194 263.776,112.796 265.446,112.082 266.612,110.501 
				267.117,109.604 267.456,107.896 			"/>
			<polygon fill="#CCDEF0" stroke="#000000" points="244.295,108.417 243.008,106.411 240.997,104.754 238.77,103.66 
				235.892,103.411 233.464,103.952 231.211,105.253 229.502,106.923 228.383,109.502 228.084,112.466 228.669,115.212 
				230.011,117.181 231.962,118.912 234.233,119.914 237.104,120.247 239.507,119.607 241.806,118.392 243.468,116.675 
				244.546,114.095 244.841,111.154 			"/>
			<polygon fill="#CCDEF0" stroke="#000000" points="283.217,109.574 282.102,108.489 281.244,107.79 275.544,106.124 
				273.915,105.899 270.35,105.63 266.379,106.073 265.153,106.401 263.997,107.105 263.378,107.518 262.946,108.078 
				262.794,108.672 262.946,109.184 263.263,110.146 264.034,110.73 267.047,112.244 270.387,113.017 272.046,113.206 
				278.527,113.364 279.938,112.944 281.877,112.342 282.658,111.783 283.201,111.039 283.4,110.249 			"/>
			<polygon fill="#CCDEF0" stroke="#000000" points="287.717,112.494 287.596,112.184 286.312,109.895 284.504,108.91 
				283.76,108.619 282.402,108.672 259.299,104.991 243.716,102.789 240.93,103.418 239.396,104.585 237.3,106.67 235.922,109.895 
				235.55,113.602 236.261,117.032 237.9,119.484 239.172,120.938 241.778,122.097 257.489,123.067 280.863,124.103 
				282.182,124.426 282.971,124.291 284.938,123.673 286.652,121.677 286.83,121.397 287.889,118.607 288.205,115.437 			"/>
			<polygon fill="#CCDEF0" stroke="#000000" points="188.046,109.847 186.419,107.808 185.999,107.48 176.82,103.767 
				173.973,102.634 167.902,100.287 163.14,100.386 160.225,100.802 157.638,102.617 157.219,102.996 155.703,105.502 
				155.252,108.416 155.956,111.143 156.195,111.919 158.146,114.19 162.014,116.612 165.173,117.759 171.438,118.793 
				181.446,120.28 182.009,120.212 184.527,119.757 186.739,118.087 188.218,115.536 188.684,112.602 			"/>
			<polygon fill="#CCDEF0" stroke="#000000" points="192.047,114.063 192.083,113.615 191.827,112.381 191.58,111.827 
				190.58,109.96 189.252,108.836 187.232,108.002 185.499,107.803 183.145,108.208 181.687,109.244 180.097,110.651 
				179.373,112.306 179.191,113.712 179.113,114.913 179.372,116.157 179.92,117.202 180.677,118.562 181.985,119.717 
				184.032,120.494 185.759,120.747 188.103,120.288 189.587,119.299 191.131,117.851 191.885,116.215 191.995,114.803 
				192.083,113.615 			"/>
			<polygon fill="#CCDEF0" stroke="#000000" points="217.425,114.322 215.97,112.419 215.343,112.118 213.263,111.247 
				203.018,108.304 191.66,107.527 190.044,107.727 187.526,108.163 186.812,108.575 184.793,110.188 183.486,112.7 
				183.164,115.601 183.891,118.302 185.514,120.256 186.115,120.854 187.513,121.415 190.013,122.356 201.219,124.535 
				211.815,124.318 212.573,124.175 214.72,123.716 216.564,122.114 217.753,119.69 218.059,116.914 			"/>
			<polygon fill="#CCDEF0" stroke="#000000" points="226.909,112.416 225.354,110.325 223.708,108.528 221.021,107.385 
				218.413,107.043 215.496,107.598 213.555,108.876 211.506,110.604 210.162,113.273 209.803,116.347 210.5,119.198 
				212.106,121.247 213.677,123.124 216.404,124.177 219,124.619 221.896,123.966 223.893,122.786 225.902,121.007 227.21,118.328 
				227.569,115.269 			"/>
			<polygon fill="#CCDEF0" stroke="#000000" points="266.957,117.681 265.319,115.267 264.698,114.968 262.335,113.899 
				261.068,113.912 239.763,109.356 225.551,106.611 222.176,107.26 219.198,109.801 218.33,110.586 216.664,113.934 
				216.212,117.79 217.068,121.358 217.713,122.483 220.038,125.486 223.194,126.703 237.541,128.255 259.152,130.157 
				260.373,130.546 261.111,130.431 263.604,129.786 265.774,127.684 267.203,124.549 267.221,124.463 267.616,121.12 
				267.624,120.987 			"/>
			<polygon fill="#CCDEF0" stroke="#000000" points="294.083,115.202 293.256,113.585 291.668,111.603 289.955,110.78 
				287.462,109.929 284.907,110.531 283.245,110.969 281.641,112.423 280.98,113.505 280.307,114.71 279.979,116.071 
				279.823,117.079 279.982,119.34 280.855,120.932 282.392,122.956 284.142,123.71 286.61,124.62 289.188,124.073 290.833,123.581 
				292.407,122.096 293.144,121.066 293.813,119.85 294.147,118.476 294.207,117.458 			"/>
			<polygon fill="#CCDEF0" stroke="#000000" points="350.186,133.058 349.602,131.22 348.436,130.481 344.324,128.159 
				335.711,125.023 315.451,116.989 295.219,111.111 292.225,111.022 290.24,111.501 289.309,112.197 287.637,113.729 
				286.318,116.081 285.623,118.778 285.691,121.272 285.967,122.222 286.926,124.326 289.303,125.986 291.111,126.932 
				310.861,134.347 331.678,139.984 340.395,142.619 344.971,143.191 346.49,142.615 347.346,141.922 348.633,140.506 
				349.697,138.431 350.336,136.101 350.424,133.964 			"/>
			<polygon fill="#CCDEF0" stroke="#000000" points="222.318,116.466 221.449,114.71 220.215,113.568 218.588,112.868 
				216.906,112.496 214.916,112.877 213.429,113.624 212.101,114.947 211.296,116.322 211.035,118.201 211.111,118.77 
				211.296,119.896 211.364,120.217 212.22,121.978 213.437,123.14 215.086,123.796 216.761,124.211 218.74,123.782 
				220.247,123.077 221.538,121.722 222.367,120.364 222.646,118.487 			"/>
			<polygon fill="#CCDEF0" stroke="#000000" points="237.053,121.024 236.597,119.811 235.333,119.025 230.345,116.879 
				226.894,116.397 224.694,116.151 220.947,116.467 219.207,116.818 217.635,117.629 216.551,118.739 216.174,119.926 
				216.583,120.95 218.513,122.534 220.084,123.46 223.053,124.494 225.446,124.719 231.5,125.215 233.542,124.76 235.178,124.195 
				236.307,123.579 237.084,122.751 237.356,121.874 			"/>
			<polygon fill="#CCDEF0" stroke="#000000" points="271.933,120.687 271.105,119.069 269.518,117.087 267.805,116.265 
				265.312,115.413 262.757,116.016 261.095,116.453 259.49,117.907 258.83,118.989 258.156,120.194 257.829,121.556 
				257.673,122.563 257.832,124.824 258.705,126.416 260.241,128.44 261.991,129.194 264.46,130.104 267.037,129.558 
				268.683,129.065 270.257,127.58 270.993,126.551 271.663,125.334 271.997,123.96 272.057,122.942 			"/>
			<polygon fill="#CCDEF0" stroke="#000000" points="330.148,140.365 329.41,138.489 325.377,136.081 323.805,135.28 
				314.938,131.854 294.133,123.114 273.446,116.692 270.399,116.572 268.18,117.171 267.269,117.884 265.435,119.566 
				264.03,122.089 263.343,124.941 263.511,127.541 263.743,128.581 264.901,130.728 267.305,132.523 269.382,133.413 
				289.562,141.486 310.898,147.711 319.857,150.615 324.561,151.282 326.279,150.576 327.129,149.867 328.551,148.305 
				329.689,146.068 330.332,143.6 330.35,141.367 			"/>
			<polygon fill="#CCDEF0" stroke="#000000" points="358.6,138.341 358.086,136.79 357.523,135.64 355.697,134.149 354.523,133.626 
				351.996,132.997 349.51,133.452 348.369,133.849 346.914,135.11 346.303,135.741 345.836,136.657 345.609,137.677 
				345.666,138.591 346.109,140.147 346.707,141.281 348.494,142.803 349.693,143.285 352.211,143.953 354.723,143.533 
				355.85,143.1 357.354,141.861 357.953,141.215 358.416,140.289 358.643,139.264 			"/>
			<g>
				<polygon fill="#CCDEF0" stroke="#000000" points="355.207,140.629 355.918,132.458 359.342,109.752 360.818,107.098 
					361.482,106.471 362.471,105.979 363.41,105.944 362.762,105.857 362.051,105.84 361.418,105.896 360.99,106.011 
					360.016,106.342 357.928,108.37 357.496,108.838 353.283,130.87 352.623,138.977 353.225,142.764 353.812,143.557 
					354.584,144.151 355.945,144.705 355.439,144.217 				"/>
				<polygon fill="#CCDEF0" stroke="#000000" points="361.482,106.471 360.818,107.098 359.342,109.752 355.918,132.458 
					355.207,140.629 355.439,144.217 355.945,144.705 358.848,144.029 362.471,105.979 				"/>
				<polygon fill="#CCDEF0" stroke="#000000" points="363.98,106.229 363.41,105.944 362.471,105.979 358.848,144.029 
					361.787,142.428 362.406,141.514 363.328,137.573 364.152,129.569 364.986,108.161 				"/>
			</g>
			<polygon fill="#CCDEF0" stroke="#000000" points="337.859,146.335 337.42,144.607 336.736,143.434 334.875,141.803 
				333.51,141.326 330.902,140.625 328.344,141.082 327.047,141.568 325.611,142.863 324.93,143.564 324.422,144.555 
				324.195,145.639 324.289,146.596 324.654,148.33 325.377,149.482 327.195,151.15 328.588,151.581 331.182,152.326 
				333.768,151.911 335.051,151.383 336.541,150.113 337.209,149.395 337.711,148.391 337.941,147.301 			"/>
			<g>
				<polygon fill="#CCDEF0" stroke="#000000" points="339.906,112.721 339.16,113.421 337.537,116.312 334.322,140.48 
					333.771,149.127 334.158,152.881 334.76,153.362 338.082,152.456 341.031,112.144 				"/>
				<polygon fill="#CCDEF0" stroke="#000000" points="333.771,149.127 334.322,140.48 337.537,116.312 339.16,113.421 
					339.906,112.721 341.031,112.144 342.117,112.052 341.434,111.959 340.67,111.95 339.973,112.027 339.48,112.175 
					338.467,112.524 338.152,112.836 335.752,115.243 331.779,138.638 331.275,147.21 332.016,151.201 332.516,152.129 
					333.385,152.73 334.76,153.362 334.158,152.881 				"/>
				<polygon fill="#CCDEF0" stroke="#000000" points="342.779,112.321 342.117,112.052 341.031,112.144 338.082,152.456 
					341.414,150.578 342.098,149.578 343.031,145.381 343.727,136.913 344.002,114.303 				"/>
			</g>
		</g>
		<polygon fill="#4F8ABE" stroke="#000000" points="166.436,88.125 98.658,98.152 330.253,149.695 390.882,125.535 		"/>
		<line fill="none" stroke="#000000" x1="103.456" y1="87.168" x2="407.273" y2="146.852"/>
		<line fill="none" stroke="#000000" x1="231.343" y1="89.738" x2="94.111" y2="120.747"/>
		<g>
			<polygon fill="#CCDEF0" stroke="#000000" stroke-linecap="round" stroke-linejoin="round" points="154.661,97.609 
				153.345,97.805 152.383,97.943 150.273,98.006 147.93,97.891 145.158,97.578 133.785,96.057 131.841,95.552 132.237,93.421 
				135.176,89.333 139.546,86.701 144.429,86.029 147.862,85.672 152.666,87.176 160.908,90.436 162.678,91.336 163.695,92.373 
				154.688,97.655 			"/>
			<polygon fill="#CCDEF0" stroke="#000000" points="198.345,97.172 197.076,94.989 195.297,93.639 193.428,92.688 191.015,92.371 
				188.688,92.829 186.571,93.943 185.148,95.584 184.018,97.445 183.674,99.905 184.18,102.481 185.438,104.679 187.203,106.063 
				189.112,106.934 191.518,107.308 193.824,106.767 195.964,105.711 197.315,104.021 198.476,102.193 198.845,99.747 			"/>
			<path fill="#CCDEF0" stroke="#000000" d="M155.911,104.129l1.589,1.975c0.029-0.009,0.082,0.001,0.153,0.024
				c-0.166-0.171,0.192,0.063,0.85,0.245c0.305,0.07,0.597,0.173,0.885,0.291c0.625,0.057,1.219,0.229,1.764,0.491
				c0.173,0.058,0.338,0.124,0.496,0.2c0.26,0.101,0.509,0.215,0.735,0.354c0.019,0.008,0.042,0.012,0.061,0.02l2.474-0.459
				l1.577-0.952l1.859-1.469l1.23-2.255l0.37-2.599l-0.565-2.443l-0.878-1.149l-1.733-2.255l-2.44-1.03l-2.095-0.373l-2.67,0.416
				l-1.542,1.023l-1.892,1.434l-1.26,2.253l-0.368,2.613l0.597,2.448L155.911,104.129z"/>
			<path fill="#CCDEF0" stroke="#000000" d="M199.635,100.725l-0.891-1.349l-2.871-3.139l-3.071-1.121l-9.576-3.425l-5.091-1.65
				l-6.995,0.068l-5.136,0.787l-2.31,1.476l-2.314,1.479l-3.137,4.555l-0.969,5.215l0.765,2.601c0.133,0.05,0.283,0.103,0.464,0.152
				c0.305,0.07,0.597,0.173,0.885,0.291c0.625,0.057,1.22,0.229,1.766,0.492c0.173,0.059,0.339,0.125,0.498,0.201
				c0.264,0.103,0.516,0.219,0.744,0.36c0.091,0.038,0.179,0.08,0.267,0.122c0.056,0.012,0.11,0.031,0.167,0.041
				c1.72,0.318,3.42,0.582,4.959,1.433c0.999,0.149,1.993,0.298,2.977,0.462c0.397,0.035,0.794,0.068,1.19,0.104
				c1.7,0.155,3.241,0.358,4.778,0.962c0.586-0.078,1.184-0.053,1.765,0.074c0.806,0.002,1.615,0.223,2.36,0.717
				c0.263,0.176,0.533,0.342,0.811,0.496c0.139,0.045,0.317,0.102,0.434,0.129c0.005,0.001,0.007,0.001,0.012,0.001
				c0.366,0.012,0.729,0.013,1.096,0.005c1.1-0.023,2.124,0.352,2.956,0.982c0.391,0.096,0.772,0.234,1.138,0.428
				c0.075,0.027,0.152,0.045,0.227,0.076c0.061,0.005,0.121,0.011,0.212,0.02c0.903,0.092,1.864,0.135,2.734,0.422
				c0.728,0.24,1.866,0.557,2.657,0.742l1.041-0.567l3.386-2.427l2.27-3.547l0.736-3.989L199.635,100.725z"/>
			<polygon fill="#CCDEF0" stroke="#000000" points="228.151,101.493 227.999,101.11 226.898,99.26 225.319,98.451 224.679,98.156 
				212.332,95.195 204.475,93.408 198.413,93.792 196.292,94.226 195.197,94.848 193.534,96.374 193.287,96.86 192.32,98.903 
				192.021,101.26 192.066,101.479 192.021,101.26 192.451,103.452 192.564,104.021 193.801,105.857 194.698,106.783 
				196.651,107.654 202.396,109.73 210.413,110.221 223.051,110.846 223.743,110.743 225.484,110.282 227.023,108.709 
				227.264,108.404 228.211,106.249 228.528,103.787 			"/>
			<polygon fill="#CCDEF0" stroke="#000000" points="233.263,102.677 232.164,101.009 230.68,100.036 229.237,99.286 
				227.271,99.179 225.518,99.571 223.832,100.589 222.843,101.877 221.979,103.432 221.772,105.419 222.26,107.447 
				223.348,109.124 224.823,110.12 226.289,110.821 228.254,110.967 229.994,110.524 231.699,109.543 232.645,108.223 
				233.528,106.688 233.75,104.705 			"/>
			<polygon fill="#CCDEF0" stroke="#000000" points="261.895,104.203 261.68,103.82 260.627,102.11 259.192,101.37 258.402,101.101 
				246.935,98.883 234.209,98.664 232.401,98.913 230.54,99.334 229.683,99.747 228.197,101.242 227.252,103.55 227.227,103.712 
				227.036,106.075 227.038,106.206 227.6,108.669 228.821,110.442 229.605,110.951 231.37,111.746 233.12,112.225 245.756,113.645 
				257.462,112.924 258.288,112.759 259.815,112.329 261.12,110.867 261.396,110.493 262.137,108.53 262.314,106.288 			"/>
			<path fill="#CCDEF0" stroke="#000000" d="M193.835,115.076c0.796,0.105,1.545,0.337,2.217,0.672
				c0.225,0.017,0.449,0.028,0.675,0.068c1.833,0.33,3.614,0.561,5.438,1c0.729,0.177,1.444,0.396,2.167,0.595
				c0.199,0.037,0.401,0.077,0.614,0.128c0.196,0.033,0.431,0.076,0.614,0.123l2.783-2.42l2.036-3.977l0.661-4.548l-0.843-4.26
				l-2.2-3.159l-2.493-2.818l-3.927-1.787l-3.978-0.67l-4.372,0.743l-3.017,1.78l-3.138,2.532l-2.121,3.97l-0.659,4.597l0.941,4.269
				l1.028,1.354c0.359,0.096,0.712,0.229,1.049,0.41c0.073,0.025,0.147,0.043,0.219,0.072c0.061,0.005,0.121,0.011,0.212,0.02
				c0.903,0.092,1.864,0.135,2.734,0.422C191.475,114.521,193.254,114.998,193.835,115.076z"/>
			<path fill="#CCDEF0" stroke="#000000" d="M225.484,122.547c0.555,0.023,1.708,0.268,2.131,0.311
				c0.181,0.02,0.362,0.039,0.544,0.06l3.139-2.46l3.004-5.002l1.028-5.577l-1.135-5.124l-0.19-0.37l-3.229-3.842l-3.243-1.735
				l-5.161-1.767l-5.198-0.942l-10.604,0.854l-4.81,0.863l-4.36,3.033l-0.203,0.203l-2.877,4.444l-0.935,5.052l1.202,4.599
				l0.022,0.083c0.503,0.117,0.972,0.296,1.41,0.516c0.236,0.017,0.471,0.03,0.708,0.072c1.833,0.33,3.614,0.561,5.438,1
				c0.733,0.178,1.451,0.398,2.177,0.598c0.209,0.039,0.42,0.078,0.643,0.131c0.311,0.054,0.697,0.131,0.822,0.205
				c0.108,0.028,0.219,0.057,0.328,0.085c0.985-0.087,1.944,0.038,2.801,0.374c0.476-0.076,0.965-0.072,1.486,0.021
				c1.545-0.085,3.022,0.388,4.072,1.405c0.266,0.119,0.525,0.265,0.774,0.441c0.123,0.053,0.246,0.105,0.368,0.163
				c0.24,0.044,0.48,0.105,0.716,0.202c2.686,1.111,6.061,1.639,8.938,2.062C225.357,122.515,225.418,122.535,225.484,122.547z"/>
			<polygon fill="#CCDEF0" stroke="#000000" points="267.64,105.476 266.715,103.928 265.379,102.953 264.306,102.324 
				262.457,102.063 261.048,102.421 259.389,103.163 258.247,104.757 257.701,105.635 257.376,107.349 257.705,109.157 
				258.623,110.711 259.951,111.703 261.043,112.291 262.887,112.584 264.287,112.186 265.957,111.472 267.123,109.891 
				267.627,108.994 267.966,107.286 			"/>
			<polygon fill="#CCDEF0" stroke="#000000" points="244.806,107.807 243.519,105.801 241.508,104.144 239.28,103.05 
				236.402,102.801 233.975,103.342 231.722,104.643 230.013,106.312 228.894,108.892 228.595,111.855 229.18,114.602 
				230.521,116.57 232.473,118.302 234.744,119.304 237.615,119.637 240.018,118.997 242.316,117.781 243.979,116.064 
				245.057,113.484 245.352,110.544 			"/>
			<polygon fill="#CCDEF0" stroke="#000000" points="283.728,108.964 282.612,107.879 281.755,107.18 276.055,105.514 
				274.426,105.289 270.86,105.02 266.89,105.463 265.664,105.791 264.509,106.495 263.89,106.907 263.458,107.468 263.305,108.062 
				263.457,108.573 263.773,109.536 264.545,110.12 267.557,111.634 270.897,112.406 272.557,112.596 279.038,112.754 
				280.448,112.334 282.388,111.731 283.169,111.173 283.712,110.429 283.911,109.639 			"/>
			<polygon fill="#CCDEF0" stroke="#000000" points="288.228,111.884 288.106,111.573 286.823,109.284 285.015,108.3 
				284.271,108.009 282.913,108.062 259.81,104.381 244.227,102.179 241.44,102.808 239.906,103.975 237.811,106.06 
				236.433,109.284 236.061,112.991 236.771,116.422 258,122.457 281.374,123.492 282.692,123.814 283.481,123.681 285.448,123.063 
				287.163,121.066 287.341,120.788 288.399,117.997 288.716,114.826 			"/>
			<path fill="#CCDEF0" stroke="#000000" d="M214.55,119.663c0.246,0.114,0.486,0.249,0.718,0.413
				c0.123,0.053,0.246,0.105,0.368,0.163c0.24,0.044,0.48,0.105,0.716,0.202c2.335,0.967,5.191,1.49,7.788,1.891l0.264-0.156
				l2.01-1.778l1.308-2.68l0.359-3.06l-0.66-2.853l-1.556-2.091l-1.646-1.797l-2.688-1.144l-2.607-0.342l-2.917,0.555l-1.941,1.278
				l-2.049,1.728l-1.344,2.67l-0.359,3.073l0.609,2.494C212.308,118.258,213.61,118.733,214.55,119.663z"/>
			<path fill="#CCDEF0" stroke="#000000" d="M265.21,114.357l-2.363-1.068l-1.268,0.013l-21.306-4.556l-14.212-2.745l-3.375,0.648
				l-2.978,2.541l-0.868,0.785l-1.666,4.067c0,0,24.677,6.531,26.496,7.252c0.562-0.045,1.131,0.021,1.681,0.242
				c1.645,0.657,3.413,0.074,5.132,0.439c1.918,0.205,7.014,0.873,7.806,1.09C258.64,123.163,265.21,114.357,265.21,114.357z"/>
			<polygon fill="#CCDEF0" stroke="#000000" points="294.046,116.266 293.948,114.425 293.265,112.842 291.679,111 290.187,110.143 
				287.741,109.357 285.89,109.795 283.737,110.299 282.269,111.623 281.489,112.713 280.854,113.837 280.524,115.127 
				280.519,116.002 280.591,118.171 281.317,119.729 282.853,121.609 284.382,122.406 286.802,123.242 289.341,122.702 
				290.813,122.303 292.255,120.949 293.103,119.908 293.733,118.771 294.069,117.473 			"/>
			<polygon fill="#CCDEF0" stroke="#000000" points="334.379,123.683 315.962,116.379 295.729,110.501 292.735,110.412 
				290.751,110.891 289.819,111.587 288.147,113.118 286.829,115.471 286.134,120.328 326.92,126.238 333.396,125.477 			"/>
			<path fill="#CCDEF0" stroke="#000000" d="M263.927,124.029c1.75-0.53,6.102-7.553,6.102-7.553l-1.714-0.822l-2.492-0.852
				l-2.555,0.603l-1.662,0.438l-1.604,1.454l-0.66,1.082l-0.674,1.205l-0.327,1.362l-0.156,1.008l0.078,1.108
				c0.009,0.002,0.019,0.002,0.027,0.004C258.64,123.163,261.772,124.701,263.927,124.029z"/>
			<path fill="#CCDEF0" stroke="#000000" d="M354.272,131.139c0.545,0.002,1.062,0.113,1.565,0.279
				c0.121-0.021,0.258-0.045,0.418-0.07c0.089-0.02,0.17-0.049,0.258-0.068l3.339-22.138l1.477-2.654l0.664-0.627l0.988-0.491
				l0.939-0.035l-0.648-0.087l-0.711-0.018l-0.633,0.056l-0.428,0.115l-0.975,0.331l-2.088,2.028l-0.432,0.468l-4.213,22.028
				l-0.068,0.844C353.907,131.109,354.09,131.104,354.272,131.139z"/>
			<polyline fill="#CCDEF0" stroke="#000000" points="362.981,105.369 361.993,105.86 361.329,106.487 359.853,109.142 
				356.514,131.279 364.689,128.289 365.497,107.551 364.491,105.619 363.921,105.334 362.981,105.369 			"/>
			<path fill="#CCDEF0" stroke="#000000" d="M334.91,139.287l3.138-23.586l1.623-2.891l0.746-0.7l1.125-0.577l1.086-0.092
				l-0.684-0.093l-0.764-0.009l-0.697,0.077l-0.492,0.147l-1.014,0.35l-0.314,0.312l-2.4,2.407l-3.973,23.389l-0.022,0.389
				c0.095,0.123,0.188,0.254,0.281,0.381C333.739,139.139,334.266,139.354,334.91,139.287z"/>
			<path fill="#CCDEF0" stroke="#000000" d="M341.542,111.533l-1.125,0.577l-0.746,0.7l-1.623,2.891l-3.138,23.586
				c0.519-0.051,1.117-0.283,2.214-0.779l2.522-1.068c1.511-0.607,3.072-1.141,4.596-1.508l0.271-22.239l-1.223-1.981l-0.662-0.27
				L341.542,111.533z"/>
			<path fill="#CCDEF0" stroke="#000000" stroke-linecap="round" stroke-linejoin="round" d="M293.888,130.193
				c-3.029-0.475-29.221-5.833-29.961-6.164l0.615-2.551l1.403-2.522l1.833-1.683l0.911-0.713l2.221-0.599l3.047,0.12l20.687,6.422
				l17.428,7.398l3.648,1.434l2.23,0.795l-2.242,0.658l-3.324-0.344c-2.026-0.184-4.053-0.365-6.078-0.547L293.888,130.193z"/>
			<polygon fill="#CCDEF0" stroke="#000000" stroke-linecap="round" stroke-linejoin="round" points="156.214,104.892 
				151.001,101.114 153.306,99.384 154.874,98.308 158.028,97.871 159.872,98.332 162.571,99.385 163.968,100.921 165.057,102.549 
				165.623,103.873 165.868,105.403 165.743,106.834 			"/>
			<path fill="#CCDEF0" stroke="#000000" d="M181.669,112.129c0.139,0.045,0.317,0.102,0.434,0.129
				c0.005,0.001,0.007,0.001,0.012,0.001c0.366,0.012,0.729,0.013,1.096,0.005c1.101-0.023,2.124,0.352,2.956,0.982
				c0.391,0.096,0.772,0.234,1.138,0.428c0.075,0.027,0.152,0.045,0.227,0.076c0.061,0.005,0.121,0.011,0.212,0.02
				c0.378,0.039,0.765,0.071,1.151,0.113l0.301-1.892l-0.638-2.755l-1.627-2.039l-0.42-0.327l-9.179-3.714l-2.848-1.133l-6.07-2.347
				l-4.763,0.099l-2.915,0.416l-2.587,1.815l-0.419,0.379l-1.516,2.506l2.025,1.399c0.083,0.027,0.168,0.057,0.264,0.082
				c0.305,0.07,0.597,0.173,0.885,0.291c0.625,0.057,1.22,0.229,1.766,0.492c0.173,0.059,0.339,0.125,0.498,0.201
				c0.264,0.103,0.516,0.219,0.744,0.36c0.091,0.038,0.179,0.08,0.267,0.122c0.056,0.012,0.11,0.031,0.167,0.041
				c1.72,0.318,3.42,0.582,4.959,1.433c0.999,0.149,1.993,0.298,2.977,0.462c0.397,0.035,0.794,0.068,1.19,0.104
				c1.7,0.155,3.241,0.358,4.778,0.962c0.586-0.078,1.184-0.053,1.765,0.074c0.806,0.002,1.615,0.223,2.36,0.717
				C181.121,111.809,181.392,111.975,181.669,112.129z"/>
			<path fill="#CCDEF0" stroke="#000000" d="M192.338,111.771l-0.247-0.554l-1-1.867l-1.328-1.124l-2.02-0.834l-1.733-0.199
				l-2.354,0.405l-1.458,1.036l-1.59,1.407l-0.24,0.549l0.588,1.104c0.233,0.151,0.47,0.3,0.714,0.436
				c0.139,0.045,0.317,0.102,0.434,0.129c0.005,0.001,0.007,0.001,0.012,0.001c0.366,0.012,0.729,0.013,1.096,0.005
				c1.1-0.023,2.124,0.352,2.956,0.982c0.391,0.096,0.772,0.234,1.138,0.428c0.075,0.027,0.152,0.045,0.227,0.076
				c0.061,0.005,0.121,0.011,0.212,0.02c0.903,0.092,1.864,0.135,2.734,0.422c0.538,0.178,1.302,0.397,1.984,0.575l0.045-0.574
				l0.088-1.188L192.338,111.771z"/>
			<path fill="#CCDEF0" stroke="#000000" d="M217.936,113.712l-1.455-1.903l-0.627-0.301l-2.08-0.871l-10.245-2.943l-11.357-0.776
				l-1.616,0.199l-2.518,0.437l-0.714,0.412l-2.02,1.613l-1.307,2.512l-0.025,0.228c0.805,0.118,1.545,0.45,2.178,0.925
				c0.396,0.096,0.783,0.234,1.153,0.432c0.075,0.027,0.153,0.045,0.228,0.076c0.061,0.005,0.121,0.011,0.212,0.02
				c0.903,0.092,1.864,0.135,2.734,0.422c0.998,0.33,2.777,0.807,3.358,0.885c0.796,0.105,1.545,0.337,2.217,0.672
				c0.225,0.017,0.449,0.028,0.675,0.068c1.833,0.33,3.614,0.561,5.438,1c0.733,0.178,1.451,0.398,2.177,0.598
				c0.209,0.039,0.42,0.078,0.643,0.131c0.311,0.054,0.697,0.131,0.822,0.205c0.108,0.028,0.219,0.057,0.328,0.085
				c0.985-0.087,1.944,0.038,2.801,0.374c0.476-0.076,0.965-0.072,1.486,0.021c1.545-0.085,3.022,0.388,4.072,1.405
				c0.266,0.119,0.525,0.265,0.774,0.441c0.123,0.053,0.246,0.105,0.368,0.163c0.24,0.044,0.48,0.105,0.716,0.202
				c0.34,0.141,1.912-1.361,1.912-1.361l0.306-2.776L217.936,113.712z"/>
			<path fill="#CCDEF0" stroke="#000000" d="M215.12,119.353c0.068,0.093,0.156,0.168,0.23,0.255c0.795,0.342,1.6,0.646,2.412,0.959
				c0.679,0.261,1.688,0.778,2.418,1.035c0.259,0.059,0.518,0.117,0.777,0.17c0.135,0.021,0.27,0.04,0.405,0.061l0.686-0.721
				l0.829-1.357l0.279-1.877l-0.328-2.021l-0.869-1.756l-1.234-1.142l-1.627-0.7l-1.682-0.372l-1.99,0.381l-1.487,0.747
				l-1.328,1.323l-0.805,1.375l-0.261,1.879l0.041,0.302C212.924,117.846,214.257,118.288,215.12,119.353z"/>
			<path fill="#CCDEF0" stroke="#000000" d="M225.457,122.547c0.542,0.016,1.728,0.268,2.158,0.311
				c1.293,0.133,2.605,0.328,3.907,0.219c2.504-0.211,4.199-0.593,6.317-1.725l0.027-0.088l-0.304-0.849l-0.456-1.215l-1.264-0.785
				l-4.988-2.146l-3.451-0.481l-2.199-0.246l-3.747,0.315l-1.74,0.352l-1.572,0.811l-1.084,1.11l-0.377,1.187l0.409,1.025
				l0.786,0.646c2.371,0.748,5.055,1.17,7.409,1.518C225.35,122.514,225.398,122.536,225.457,122.547z"/>
		</g>
		<line fill="none" stroke="#000000" x1="178.082" y1="119.781" x2="178.082" y2="170.008"/>
		<line fill="none" stroke="#000000" x1="178.082" y1="38.701" x2="178.082" y2="90.043"/>
		<text transform="matrix(1 0 0 1 406.6914 90.2886)" font-size="10">Patient Plane</text>
		<text transform="matrix(1 0 0 1 177.7285 36.689)" font-size="10">0ยบ</text>
		<g>
			<g>
				<polyline fill="none" stroke="#ED1C24" points="273.505,66.456 249.858,66.462 232.69,102.121 				"/>
				<g>
					<polygon fill="#ED1C24" points="231.636,100.293 230.385,106.91 234.777,101.806 					"/>
				</g>
			</g>
		</g>
		<g>
			<g>
				<polyline fill="none" stroke="#ED1C24" points="92.727,67.537 109.173,67.543 127.621,87.569 				"/>
				<g>
					<polygon fill="#ED1C24" points="125.534,87.875 131.223,91.479 128.098,85.514 					"/>
				</g>
			</g>
		</g>
		<g>
			<g>
				<polyline fill="none" stroke="#ED1C24" points="404.414,87.707 392.721,87.713 372.569,123.528 				"/>
				<g>
					<polygon fill="#ED1C24" points="371.633,121.638 369.963,128.161 374.672,123.347 					"/>
				</g>
			</g>
		</g>
		<polygon fill="none" stroke="#000000" points="132.563,40.99 230.438,47.642 230.438,169.125 132.563,140.399 		"/>
		<text transform="matrix(1 0 0 1 57.0366 170.8662)" font-size="10">Axis of Rotation</text>
		<path fill="#FFFFFF" stroke="#000000" d="M103.645,118.242c1.518,11.396-1.773,21.234-7.355,21.98
			c-5.583,0.744-11.337-7.891-12.856-19.281c-1.519-11.398,1.773-21.241,7.356-21.987C96.371,98.21,102.124,106.848,103.645,118.242
			z"/>
		<g>
			<g>
				<path fill="none" stroke="#000000" d="M68.118,136.027c-1.192,5.154-3.675,8.705-6.941,9.142
					c-5.583,0.744-11.337-7.891-12.856-19.281c-1.519-11.398,1.773-21.241,7.356-21.987c1.333-0.178,2.674,0.179,3.966,0.979"/>
				<g>
					<polygon points="55.871,105.553 65.214,111.771 60.232,101.714 					"/>
				</g>
			</g>
		</g>
		<line fill="none" stroke="#000000" x1="71.093" y1="115.295" x2="122.921" y2="128.338"/>
		<g>
			<polygon fill="#6799C8" stroke="#000000" stroke-linecap="round" stroke-linejoin="round" points="71.153,131.598 
				92.869,120.674 92.869,120.674 68.835,113.646 			"/>
			
				<ellipse transform="matrix(0.997 -0.0768 0.0768 0.997 -9.2351 5.6809)" fill="#CCDEF0" stroke="#000000" cx="69.208" cy="122.854" rx="4.525" ry="9.238"/>
			<path fill="none" stroke="#000000" d="M74.374,115.266c1.172,1.607,1.949,4.377,2.175,7.303c0.2,2.6-0.147,4.99-0.867,6.73"/>
			<path fill="none" stroke="#000000" d="M77.596,116.207c0.866,1.584,1.598,4.016,1.783,6.422c0.137,1.789,0.016,3.479-0.308,4.924
				"/>
			<path fill="none" stroke="#000000" d="M80.861,117.162c0.638,1.461,1.194,3.549,1.348,5.529c0.093,1.213,0.067,2.379-0.061,3.455
				"/>
			<path fill="none" stroke="#000000" d="M84.03,118.088c0.456,1.287,0.885,3.059,1.008,4.666c0.044,0.578,0.062,1.143,0.054,1.695"
				/>
			
				<line fill="none" stroke="#000000" stroke-linecap="round" stroke-linejoin="round" x1="65.733" y1="116.094" x2="71.524" y2="130.352"/>
		</g>
		<line fill="none" stroke="#000000" x1="92.643" y1="90.062" x2="92.643" y2="148.982"/>
		<text transform="matrix(1 0 0 1 35.8223 70.6289)" font-size="10">CRA = +90ยบ</text>
		<text transform="matrix(1 0 0 1 277.6113 69.7856)" font-size="10">CAU = -90ยบ</text>
	</g>
</g>
</svg>
