<?xml version="1.0" encoding="utf-8"?>
<!-- $Source: /home/bbennett/pass/archive/DicomXml/docbook/part03/figures/PS3.3_C.8-18.svg,v $ -->
<!-- $Date: 2014/05/09 12:27:10 $ -->
<!-- $Revision: 1.2 $ -->

<!DOCTYPE svg PUBLIC "-//W3C//DTD SVG 1.1//EN" "http://www.w3.org/Graphics/SVG/1.1/DTD/svg11.dtd">
<svg version="1.1" id="Layer_1" xmlns="http://www.w3.org/2000/svg" xmlns:xlink="http://www.w3.org/1999/xlink" x="0px" y="0px"
	 width="502px" height="332px" viewBox="0 0 502 332" enable-background="new 0 0 502 332" xml:space="preserve">

<defs>
	<style type="text/css">
	text {
	  font-family: Helvetica, Verdana, ArialUnicodeMS, san-serif
	}
	</style>
</defs>

<g>
   <desc>
	PS 3.3 Part 3: Information Object Definitions
   </desc>
</g>

<g>
	<rect x="1" y="1" fill="#F5EED6" width="500" height="330"/>
	<g>
		<g>
			<text transform="matrix(1 0 0 1 400.3457 95.3188)" font-size="10">Frames</text>
		</g>
		<g>
			<g>
				
					<line fill="none" stroke="#ED1C24" stroke-width="2" stroke-linecap="round" stroke-linejoin="round" x1="136.796" y1="80.296" x2="192.767" y2="80.296"/>
				<g>
					<polygon fill="#ED1C24" points="190.39,83.782 203.398,80.296 190.39,76.81 					"/>
				</g>
			</g>
		</g>
		<g>
			<g>
				
					<line fill="none" stroke="#0DB14B" stroke-width="2" stroke-linecap="round" stroke-linejoin="round" x1="136.796" y1="80.296" x2="136.796" y2="139.433"/>
				<g>
					<polygon fill="#0DB14B" points="133.31,137.056 136.796,150.064 140.282,137.056 					"/>
				</g>
			</g>
		</g>
		<g>
			<g>
				<polyline fill="none" stroke="#003468" stroke-width="2" stroke-miterlimit="1" points="394.39,91.822 376.436,91.822 
					345.422,112.882 				"/>
				<g>
					<polygon fill="#003468" points="345.431,108.662 336.627,118.854 349.348,114.431 					"/>
				</g>
			</g>
		</g>
		<g>
			<g>
				
					<line fill="none" stroke="#003468" stroke-width="2" stroke-miterlimit="1" x1="378.565" y1="91.822" x2="336.144" y2="103.871"/>
				<g>
					<polygon fill="#003468" points="337.479,99.868 325.917,106.775 339.384,106.575 					"/>
				</g>
			</g>
		</g>
		<g>
			<g>
				
					<line fill="none" stroke="#003468" stroke-width="2" stroke-miterlimit="1" x1="378.565" y1="91.822" x2="355.156" y2="122.483"/>
				<g>
					<polygon fill="#003468" points="353.828,118.478 348.705,130.934 359.37,122.709 					"/>
				</g>
			</g>
		</g>
		<g>
			<rect x="211.592" y="155.091" fill="#005695" stroke="#000000" width="161.271" height="161.271"/>
			<line fill="#005695" stroke="#000000" x1="211.592" y1="276.045" x2="372.863" y2="276.045"/>
			<line fill="#005695" stroke="#000000" x1="211.592" y1="235.727" x2="372.863" y2="235.727"/>
			<line fill="#005695" stroke="#000000" x1="211.592" y1="195.409" x2="372.863" y2="195.409"/>
			<line fill="#005695" stroke="#000000" x1="332.547" y1="155.091" x2="332.547" y2="316.361"/>
			<line fill="#005695" stroke="#000000" x1="292.229" y1="155.091" x2="292.229" y2="316.361"/>
			<line fill="#005695" stroke="#000000" x1="251.909" y1="155.091" x2="251.909" y2="316.361"/>
		</g>
		<g>
			<rect x="199.513" y="143.013" fill="#4F8ABE" stroke="#000000" width="161.272" height="161.271"/>
			<line fill="#4F8ABE" stroke="#000000" x1="199.513" y1="263.965" x2="360.785" y2="263.965"/>
			<line fill="#4F8ABE" stroke="#000000" x1="199.513" y1="223.646" x2="360.785" y2="223.646"/>
			<line fill="#4F8ABE" stroke="#000000" x1="199.513" y1="183.33" x2="360.785" y2="183.33"/>
			<line fill="#4F8ABE" stroke="#000000" x1="320.467" y1="143.013" x2="320.467" y2="304.283"/>
			<line fill="#4F8ABE" stroke="#000000" x1="280.148" y1="143.013" x2="280.148" y2="304.283"/>
			<line fill="#4F8ABE" stroke="#000000" x1="239.831" y1="143.013" x2="239.831" y2="304.283"/>
		</g>
		<g>
			<rect x="187.435" y="130.934" fill="#6799C8" stroke="#000000" width="161.271" height="161.27"/>
			<line fill="#6799C8" stroke="#000000" x1="187.435" y1="251.887" x2="348.705" y2="251.887"/>
			<line fill="#6799C8" stroke="#000000" x1="187.435" y1="211.568" x2="348.705" y2="211.568"/>
			<line fill="#6799C8" stroke="#000000" x1="187.435" y1="171.251" x2="348.705" y2="171.251"/>
			<line fill="#6799C8" stroke="#000000" x1="308.388" y1="130.934" x2="308.388" y2="292.203"/>
			<line fill="#6799C8" stroke="#000000" x1="268.07" y1="130.934" x2="268.07" y2="292.203"/>
			<line fill="#6799C8" stroke="#000000" x1="227.752" y1="130.934" x2="227.752" y2="292.203"/>
		</g>
		<g>
			<rect x="175.354" y="118.854" fill="#86B2D8" stroke="#000000" width="161.272" height="161.271"/>
			<line fill="#86B2D8" stroke="#000000" x1="175.354" y1="239.807" x2="336.627" y2="239.807"/>
			<line fill="#86B2D8" stroke="#000000" x1="175.354" y1="199.49" x2="336.627" y2="199.49"/>
			<line fill="#86B2D8" stroke="#000000" x1="175.354" y1="159.172" x2="336.627" y2="159.172"/>
			<line fill="#86B2D8" stroke="#000000" x1="296.309" y1="118.854" x2="296.309" y2="280.125"/>
			<line fill="#86B2D8" stroke="#000000" x1="255.991" y1="118.854" x2="255.991" y2="280.125"/>
			<line fill="#86B2D8" stroke="#000000" x1="215.673" y1="118.854" x2="215.673" y2="280.125"/>
		</g>
		<g>
			<rect x="163.275" y="106.775" fill="#B2CEE7" stroke="#000000" width="161.271" height="161.27"/>
			<line fill="#B2CEE7" stroke="#000000" x1="163.275" y1="227.727" x2="324.547" y2="227.727"/>
			<line fill="#B2CEE7" stroke="#000000" x1="163.275" y1="187.411" x2="324.547" y2="187.411"/>
			<line fill="#B2CEE7" stroke="#000000" x1="163.275" y1="147.093" x2="324.547" y2="147.093"/>
			<line fill="#B2CEE7" stroke="#000000" x1="284.229" y1="106.775" x2="284.229" y2="268.045"/>
			<line fill="#B2CEE7" stroke="#000000" x1="243.911" y1="106.775" x2="243.911" y2="268.045"/>
			<line fill="#B2CEE7" stroke="#000000" x1="203.594" y1="106.775" x2="203.594" y2="268.045"/>
		</g>
		<g>
			<rect x="151.196" y="94.696" fill="#CCDEF0" width="161.272" height="161.271"/>
			<rect x="231.821" y="94.696" fill="#E6E7E8" width="40.317" height="161.271"/>
			<rect x="151.196" y="174.852" fill="#D1D3D4" width="161.272" height="40.316"/>
			<rect x="151.196" y="94.696" fill="none" stroke="#000000" width="161.28" height="161.269"/>
			<line fill="none" stroke="#000000" x1="151.196" y1="215.648" x2="312.477" y2="215.648"/>
			<line fill="none" stroke="#000000" x1="151.196" y1="175.331" x2="312.477" y2="175.331"/>
			<line fill="none" stroke="#000000" x1="151.196" y1="135.014" x2="312.477" y2="135.014"/>
			<line fill="none" stroke="#000000" x1="272.152" y1="94.696" x2="272.152" y2="255.965"/>
			<line fill="none" stroke="#000000" x1="231.833" y1="94.696" x2="231.833" y2="255.965"/>
			<line fill="none" stroke="#000000" x1="191.515" y1="94.696" x2="191.515" y2="255.965"/>
		</g>
		
			<ellipse transform="matrix(-0.7279 -0.6857 0.6857 -0.7279 217.3354 313.422)" fill="#FFFFFF" stroke="#000000" cx="170.857" cy="113.587" rx="2.454" ry="16.117"/>
		<circle fill="#FFFFFF" stroke="#000000" cx="170.901" cy="103.289" r="2.938"/>
		<circle fill="#FFFFFF" stroke="#000000" cx="160.512" cy="100.846" r="2.938"/>
		<circle fill="#FFFFFF" stroke="#000000" cx="169.334" cy="125.71" r="2.938"/>
		<circle fill="#FFFFFF" stroke="#000000" cx="181.74" cy="118.201" r="2.938"/>
		<g>
			<g>
				
					<line fill="none" stroke="#005695" stroke-width="2" stroke-linecap="round" stroke-miterlimit="1" x1="242.453" y1="62.096" x2="261.508" y2="62.096"/>
				<g>
					<polygon fill="#005695" points="244.83,65.582 231.821,62.096 244.83,58.609 					"/>
				</g>
				<g>
					<polygon fill="#005695" points="259.13,65.582 272.139,62.096 259.13,58.609 					"/>
				</g>
			</g>
		</g>
		
			<line fill="none" stroke="#000000" stroke-width="0.75" stroke-miterlimit="1" stroke-dasharray="2,2,4" x1="231.821" y1="59.934" x2="231.821" y2="95.402"/>
		
			<line fill="none" stroke="#000000" stroke-width="0.75" stroke-miterlimit="1" stroke-dasharray="2,2,4" x1="272.139" y1="59.934" x2="272.139" y2="95.402"/>
		<rect x="224.979" y="15.639" fill="#B2CEE7" width="54.001" height="36"/>
		<g>
			<text transform="matrix(1 0 0 1 241.4185 25.7446)"><tspan x="0" y="0" font-size="10">Data</tspan><tspan x="-0.835" y="9.333" font-size="10">Point</tspan><tspan x="-9.167" y="18.667" font-size="10">Columns</tspan></text>
		</g>
		<g>
			<text transform="matrix(1 0 0 1 136.6509 76.6782)" fill="#ED1C24" font-size="10">Columns</text>
		</g>
		<g>
			<text transform="matrix(1 0 0 1 107.3442 103.3442)" fill="#0DB14B" font-size="10">Rows</text>
		</g>
		<g>
			<g>
				
					<line fill="none" stroke="#005695" stroke-width="2" stroke-linecap="round" stroke-miterlimit="1" x1="114.222" y1="204.742" x2="114.222" y2="185.963"/>
				<g>
					<polygon fill="#005695" points="117.708,202.364 114.222,215.373 110.735,202.364 					"/>
				</g>
				<g>
					<polygon fill="#005695" points="117.708,188.341 114.222,175.332 110.735,188.341 					"/>
				</g>
			</g>
		</g>
		
			<line fill="none" stroke="#000000" stroke-width="0.75" stroke-miterlimit="1" stroke-dasharray="2,2,4" x1="112.059" y1="215.508" x2="151.128" y2="215.508"/>
		
			<line fill="none" stroke="#000000" stroke-width="0.75" stroke-miterlimit="1" stroke-dasharray="2,2,4" x1="112.059" y1="175.193" x2="151.128" y2="175.193"/>
		<rect x="67.765" y="176.991" fill="#B2CEE7" width="36" height="35.999"/>
		<g>
			<text transform="matrix(1 0 0 1 75.2036 187.4561)"><tspan x="0" y="0" font-size="10">Data</tspan><tspan x="-0.835" y="9.333" font-size="10">Point</tspan><tspan x="-1.941" y="18.667" font-size="10">Rows</tspan></text>
		</g>
	</g>
</g>
</svg>
