<?xml version="1.0" encoding="utf-8"?>
<!-- $Source: /home/bbennett/pass/archive/DicomXml/docbook/part03/figures/PS3.3_C.8-11.svg,v $ -->
<!-- $Date: 2014/05/09 12:27:11 $ -->
<!-- $Revision: 1.2 $ -->

<!DOCTYPE svg PUBLIC "-//W3C//DTD SVG 1.1//EN" "http://www.w3.org/Graphics/SVG/1.1/DTD/svg11.dtd">
<svg version="1.1" id="Layer_1" xmlns="http://www.w3.org/2000/svg" xmlns:xlink="http://www.w3.org/1999/xlink" x="0px" y="0px"
	 width="502px" height="201.999px" viewBox="0 0 502 201.999" enable-background="new 0 0 502 201.999" xml:space="preserve">

<defs>
	<style type="text/css">
	text {
	  font-family: Helvetica, Verdana, ArialUnicodeMS, san-serif
	}
	</style>
</defs>

<g>
   <desc>
	PS 3.3 Part 3: Information Object Definitions
   </desc>
</g>

<g>
	<rect x="1" y="1" fill="#F5EED6" width="500" height="199.999"/>
	<g>
		<g>
			<polygon fill="#CCDEF0" stroke="#000000" points="148.465,83.416 147.885,82.653 145.255,79.974 143.499,79.08 135.321,75.846 
				130.555,74.354 127.147,74.708 122.302,75.375 117.966,77.986 115.05,82.044 114.182,86.709 115.544,91.007 118.829,94.05 
				121.467,95.567 126.373,96.862 135.952,97.004 138.165,96.854 142.262,96.102 143.389,95.567 146.607,93.44 148.742,90.29 
				149.403,86.726 			"/>
			<path fill="#CCDEF0" stroke="#000000" d="M114.343,85.969"/>
			<polygon fill="#CCDEF0" stroke="#000000" points="181.153,85.941 179.885,83.759 178.105,82.408 176.236,81.457 173.823,81.141 
				171.496,81.599 169.38,82.713 167.957,84.354 166.826,86.215 166.482,88.675 166.988,91.251 168.246,93.448 170.012,94.833 
				171.921,95.703 174.326,96.077 176.633,95.536 178.772,94.48 180.124,92.79 181.284,90.963 181.653,88.517 			"/>
			<polygon fill="#CCDEF0" stroke="#000000" points="152.197,86.321 151.319,85.172 149.586,82.917 147.146,81.887 145.051,81.514 
				142.381,81.93 140.839,82.953 138.947,84.387 137.688,86.64 137.319,89.253 137.916,91.701 138.72,92.898 140.517,95.131 
				142.99,96.089 145.073,96.531 147.726,96.039 149.303,95.087 151.162,93.618 152.393,91.363 152.763,88.765 			"/>
			<polyline fill="#CCDEF0" stroke="#000000" points="146.503,81.142 144.188,82.62 141.052,87.175 140.083,92.39 141.488,97.167 
				144.944,100.517 150.918,103.099 156.183,104.494 167.078,104.976 170.582,105.109 175.141,104.141 176.983,103.136 
				180.369,100.709 182.639,97.162 183.375,93.173 182.443,89.494 181.553,88.146 178.682,85.007 175.61,83.886 166.034,80.461 
				160.943,78.811 153.948,78.879 148.812,79.666 146.503,81.142 			"/>
			<polygon fill="#CCDEF0" stroke="#000000" points="210.96,90.263 210.808,89.88 209.707,88.029 208.128,87.221 207.487,86.926 
				195.141,83.965 187.283,82.178 181.222,82.562 179.101,82.995 178.006,83.617 176.343,85.144 176.096,85.63 175.129,87.673 
				174.83,90.029 174.875,90.248 174.83,90.029 175.26,92.222 175.373,92.791 176.609,94.627 177.507,95.553 179.46,96.424 
				185.205,98.5 193.222,98.99 205.859,99.615 206.552,99.513 208.293,99.052 209.832,97.479 210.072,97.174 211.02,95.019 
				211.337,92.557 			"/>
			<polygon fill="#CCDEF0" stroke="#000000" points="216.071,91.446 214.973,89.778 213.488,88.806 212.046,88.056 210.079,87.948 
				208.326,88.341 206.641,89.358 205.651,90.646 204.787,92.201 204.581,94.188 205.068,96.217 206.156,97.894 207.632,98.89 
				209.098,99.591 211.062,99.736 212.803,99.294 214.508,98.312 215.453,96.992 216.337,95.457 216.559,93.475 			"/>
			<polygon fill="#CCDEF0" stroke="#000000" points="148.432,92.643 147.865,91.318 146.776,89.69 145.38,88.154 142.681,87.102 
				140.837,86.641 137.683,87.077 136.114,88.153 133.81,89.884 133.012,91.8 132.376,93.647 132.27,95.095 132.52,96.64 
				133.076,97.983 134.265,99.562 135.625,101.14 138.362,102.107 140.189,102.653 143.327,102.137 144.935,101.141 147.174,99.349 
				148.022,97.465 148.552,95.604 148.677,94.173 			"/>
			<polygon fill="#CCDEF0" stroke="#000000" points="244.703,92.973 244.488,92.59 243.436,90.88 242.001,90.14 241.211,89.87 
				229.743,87.652 217.018,87.434 215.21,87.683 213.349,88.104 212.491,88.517 211.006,90.012 210.061,92.319 210.035,92.481 
				209.845,94.845 209.847,94.976 210.408,97.438 211.63,99.212 212.414,99.721 214.179,100.516 215.929,100.994 228.564,102.414 
				240.271,101.693 241.097,101.528 242.624,101.099 243.929,99.637 244.204,99.263 244.945,97.3 245.123,95.058 			"/>
			<polygon fill="#CCDEF0" stroke="#000000" points="193.006,91.228 190.806,88.068 188.312,85.25 184.386,83.463 180.408,82.793 
				176.036,83.536 173.02,85.316 169.882,87.849 167.761,91.818 167.102,96.415 168.043,100.684 170.373,103.753 172.703,106.739 
				176.734,108.31 180.674,109.188 184.99,108.214 188.113,106.653 191.151,104.012 193.188,100.035 193.849,95.487 			"/>
			<polygon fill="#CCDEF0" stroke="#000000" points="217.004,93.523 216.813,93.153 213.584,89.312 210.341,87.576 205.18,85.81 
				199.981,84.867 189.377,85.721 184.567,86.584 180.207,89.617 180.004,89.82 177.127,94.265 176.192,99.316 177.395,103.915 
				177.494,104.278 180.681,107.595 189.268,112.158 194.672,113.603 199.848,114.69 203.954,114.319 209.211,113.013 
				209.661,112.71 214.106,109.227 217.11,104.225 218.139,98.647 			"/>
			<polygon fill="#CCDEF0" stroke="#000000" points="250.449,94.245 249.523,92.697 248.188,91.723 247.113,91.094 245.266,90.833 
				243.856,91.19 242.197,91.933 241.056,93.526 240.51,94.404 240.185,96.118 240.514,97.927 241.432,99.48 242.76,100.473 
				243.852,101.061 245.695,101.354 247.096,100.955 248.766,100.241 249.932,98.66 250.437,97.764 250.775,96.056 			"/>
			<polygon fill="#CCDEF0" stroke="#000000" points="227.614,96.576 226.327,94.57 224.316,92.913 222.089,91.819 219.211,91.57 
				216.783,92.111 214.53,93.412 212.821,95.082 211.702,97.661 211.403,100.625 211.988,103.371 213.33,105.34 215.281,107.071 
				217.553,108.073 220.424,108.406 222.826,107.767 225.125,106.551 226.787,104.834 227.865,102.254 228.16,99.313 			"/>
			<polygon fill="#CCDEF0" stroke="#000000" points="266.536,97.733 265.421,96.648 264.563,95.949 258.863,94.283 257.234,94.059 
				253.669,93.789 249.698,94.232 248.473,94.561 247.316,95.265 246.697,95.677 246.266,96.237 246.113,96.831 246.266,97.343 
				246.582,98.306 247.354,98.89 250.366,100.403 253.706,101.176 255.365,101.365 261.847,101.523 263.257,101.104 
				265.196,100.501 265.978,99.942 266.521,99.198 266.72,98.408 			"/>
			<polygon fill="#CCDEF0" stroke="#000000" points="271.036,100.653 270.915,100.343 269.632,98.054 267.823,97.069 
				267.079,96.778 265.722,96.831 242.618,93.15 227.035,90.948 224.249,91.577 222.715,92.744 220.619,94.829 219.241,98.054 
				218.869,101.761 219.58,105.191 221.22,107.644 222.491,109.098 225.098,110.256 240.809,111.227 264.183,112.262 
				265.501,112.585 266.29,112.45 268.257,111.832 269.972,109.836 270.149,109.557 271.208,106.767 271.524,103.596 			"/>
			<polygon fill="#CCDEF0" stroke="#000000" points="171.365,98.006 169.738,95.967 169.318,95.64 160.14,91.926 157.292,90.793 
				151.222,88.446 146.459,88.545 143.544,88.961 140.957,90.776 140.538,91.155 139.022,93.661 138.571,96.575 139.275,99.302 
				139.515,100.078 141.465,102.35 145.333,104.771 148.492,105.918 154.758,106.952 164.766,108.439 165.328,108.371 
				167.847,107.916 170.059,106.246 171.537,103.695 172.003,100.761 			"/>
			<polygon fill="#CCDEF0" stroke="#000000" points="175.366,102.223 175.402,101.774 175.146,100.54 174.899,99.986 
				173.899,98.119 172.571,96.995 170.552,96.161 168.818,95.962 166.464,96.367 165.006,97.403 163.416,98.811 162.692,100.465 
				162.511,101.871 162.433,103.072 162.691,104.316 163.239,105.361 163.996,106.722 165.305,107.876 167.352,108.653 
				169.078,108.906 171.422,108.447 172.906,107.458 174.45,106.01 175.204,104.374 175.314,102.962 175.402,101.774 			"/>
			<polygon fill="#CCDEF0" stroke="#000000" points="200.744,102.481 199.289,100.578 198.662,100.277 196.582,99.406 
				186.337,96.463 174.979,95.687 173.363,95.886 170.846,96.322 170.132,96.734 168.112,98.348 166.806,100.859 166.483,103.76 
				167.21,106.461 168.833,108.415 169.435,109.014 170.832,109.574 173.332,110.516 184.538,112.694 195.135,112.478 
				195.893,112.334 198.039,111.875 199.884,110.273 201.072,107.85 201.378,105.073 			"/>
			<polygon fill="#CCDEF0" stroke="#000000" points="210.229,100.575 208.673,98.484 207.027,96.688 204.34,95.544 201.732,95.202 
				198.815,95.757 196.874,97.035 194.825,98.763 193.481,101.433 193.122,104.506 193.819,107.357 195.426,109.406 
				196.996,111.283 199.724,112.336 202.319,112.778 205.216,112.125 207.212,110.945 209.222,109.166 210.529,106.487 
				210.889,103.428 			"/>
			<polygon fill="#CCDEF0" stroke="#000000" points="250.276,105.84 248.639,103.426 248.018,103.127 245.654,102.059 
				244.388,102.071 223.082,97.516 208.87,94.771 205.495,95.419 202.518,97.96 201.649,98.745 199.983,102.093 199.531,105.949 
				200.388,109.518 201.032,110.643 203.357,113.646 206.514,114.862 220.86,116.414 242.472,118.316 243.692,118.705 
				244.431,118.59 246.924,117.945 249.094,115.843 250.522,112.708 250.54,112.622 250.936,109.279 250.943,109.146 			"/>
			<polygon fill="#CCDEF0" stroke="#000000" points="277.402,103.361 276.575,101.744 274.987,99.762 273.274,98.939 
				270.781,98.088 268.227,98.69 266.564,99.128 264.96,100.582 264.3,101.664 263.626,102.869 263.299,104.23 263.143,105.238 
				263.302,107.499 264.175,109.091 265.711,111.115 267.461,111.869 269.93,112.779 272.507,112.232 274.152,111.74 
				275.727,110.255 276.463,109.226 277.133,108.009 277.467,106.635 277.526,105.617 			"/>
			<polygon fill="#CCDEF0" stroke="#000000" points="333.505,121.217 332.921,119.379 331.755,118.641 327.644,116.318 
				319.03,113.183 298.771,105.148 278.538,99.271 275.544,99.182 273.56,99.66 272.628,100.356 270.956,101.888 269.638,104.24 
				268.942,106.938 269.011,109.432 269.286,110.381 270.245,112.485 272.622,114.146 274.431,115.091 294.181,122.506 
				314.997,128.144 323.714,130.778 328.29,131.351 329.81,130.774 330.665,130.081 331.952,128.665 333.017,126.59 333.655,124.26 
				333.743,122.123 			"/>
			<polygon fill="#CCDEF0" stroke="#000000" points="205.638,104.625 204.769,102.869 203.534,101.728 201.907,101.027 
				200.226,100.655 198.235,101.036 196.748,101.783 195.42,103.106 194.615,104.481 194.354,106.36 194.431,106.929 
				194.615,108.055 194.684,108.376 195.539,110.137 196.756,111.299 198.405,111.955 200.08,112.37 202.06,111.941 
				203.566,111.236 204.857,109.881 205.687,108.523 205.966,106.646 			"/>
			<polygon fill="#CCDEF0" stroke="#000000" points="220.372,109.184 219.916,107.97 218.652,107.185 213.664,105.038 
				210.213,104.557 208.014,104.311 204.267,104.626 202.526,104.978 200.954,105.788 199.87,106.898 199.493,108.085 
				199.902,109.109 201.832,110.693 203.403,111.619 206.372,112.653 208.766,112.878 214.819,113.374 216.861,112.919 
				218.497,112.354 219.626,111.738 220.403,110.91 220.676,110.033 			"/>
			<polygon fill="#CCDEF0" stroke="#000000" points="255.252,108.846 254.425,107.229 252.837,105.246 251.124,104.424 
				248.631,103.572 246.076,104.175 244.414,104.612 242.81,106.066 242.149,107.148 241.476,108.354 241.148,109.715 
				240.992,110.723 241.151,112.983 242.024,114.575 243.561,116.6 245.311,117.354 247.779,118.264 250.356,117.717 
				252.002,117.225 253.576,115.739 254.312,114.71 254.982,113.493 255.316,112.119 255.376,111.102 			"/>
			<polygon fill="#CCDEF0" stroke="#000000" points="313.468,128.524 312.729,126.648 308.696,124.24 307.124,123.439 
				298.257,120.014 277.452,111.273 256.766,104.852 253.719,104.731 251.499,105.33 250.588,106.043 248.754,107.726 
				247.35,110.248 246.662,113.101 246.83,115.7 247.062,116.74 248.221,118.887 250.624,120.683 252.701,121.572 272.882,129.646 
				294.218,135.87 303.177,138.774 307.88,139.441 309.599,138.735 310.448,138.026 311.87,136.464 313.009,134.228 
				313.651,131.759 313.669,129.526 			"/>
			<polygon fill="#CCDEF0" stroke="#000000" points="341.919,126.5 341.405,124.949 340.843,123.799 339.017,122.309 
				337.843,121.785 335.315,121.156 332.829,121.611 331.688,122.008 330.233,123.27 329.622,123.9 329.155,124.816 
				328.929,125.836 328.985,126.75 329.429,128.307 330.026,129.44 331.813,130.962 333.013,131.444 335.53,132.112 
				338.042,131.692 339.169,131.259 340.673,130.021 341.272,129.374 341.735,128.448 341.962,127.423 			"/>
			<g>
				<polygon fill="#CCDEF0" stroke="#000000" points="338.526,128.788 339.237,120.617 342.661,97.911 344.138,95.257 
					344.802,94.63 345.79,94.139 346.729,94.104 346.081,94.017 345.37,93.999 344.737,94.055 344.31,94.17 343.335,94.501 
					341.247,96.529 340.815,96.997 336.603,119.029 335.942,127.136 336.544,130.923 337.132,131.716 337.903,132.311 
					339.265,132.864 338.759,132.376 				"/>
				<polygon fill="#CCDEF0" stroke="#000000" points="344.802,94.63 344.138,95.257 342.661,97.911 339.237,120.617 
					338.526,128.788 338.759,132.376 339.265,132.864 342.167,132.188 345.79,94.139 				"/>
				<polygon fill="#CCDEF0" stroke="#000000" points="347.3,94.389 346.729,94.104 345.79,94.139 342.167,132.188 345.106,130.587 
					345.726,129.673 346.647,125.732 347.472,117.729 348.306,96.32 				"/>
			</g>
			<polygon fill="#CCDEF0" stroke="#000000" points="321.179,134.494 320.739,132.767 320.056,131.593 318.194,129.962 
				316.829,129.485 314.222,128.784 311.663,129.241 310.366,129.728 308.931,131.022 308.249,131.724 307.741,132.714 
				307.515,133.798 307.608,134.755 307.974,136.489 308.696,137.642 310.515,139.31 311.907,139.74 314.501,140.485 
				317.087,140.07 318.37,139.542 319.86,138.272 320.528,137.554 321.03,136.55 321.261,135.46 			"/>
			<g>
				<polygon fill="#CCDEF0" stroke="#000000" points="323.226,100.88 322.479,101.58 320.856,104.471 317.642,128.64 
					317.091,137.286 317.478,141.04 318.079,141.521 321.401,140.615 324.351,100.303 				"/>
				<polygon fill="#CCDEF0" stroke="#000000" points="317.091,137.286 317.642,128.64 320.856,104.471 322.479,101.58 
					323.226,100.88 324.351,100.303 325.437,100.211 324.753,100.118 323.989,100.109 323.292,100.187 322.8,100.334 
					321.786,100.684 321.472,100.995 319.071,103.402 315.099,126.797 314.595,135.369 315.335,139.36 315.835,140.288 
					316.704,140.89 318.079,141.521 317.478,141.04 				"/>
				<polygon fill="#CCDEF0" stroke="#000000" points="326.099,100.48 325.437,100.211 324.351,100.303 321.401,140.615 
					324.733,138.737 325.417,137.737 326.351,133.54 327.046,125.072 327.321,102.462 				"/>
			</g>
		</g>
		<polygon fill="#4F8ABE" stroke="#000000" points="149.755,76.284 81.978,86.312 313.572,137.854 374.201,113.694 		"/>
		<line fill="none" stroke="#000000" x1="86.776" y1="75.327" x2="390.593" y2="135.011"/>
		<text transform="matrix(1 0 0 1 380.2363 182.708)" font-size="10">Axis of Rotation</text>
		<g>
			<ellipse fill="#FFFFFF" stroke="#000000" cx="390.288" cy="135.915" rx="10.902" ry="28.021"/>
			<g>
				<g>
					<path fill="none" stroke="#000000" d="M425.392,161.152c1.979,5.179,4.734,8.392,7.781,8.391
						c6.021,0,10.902-12.545,10.902-28.021c0-15.476-4.881-28.021-10.902-28.021c-4.006,0-7.507,5.551-9.402,13.825"/>
					<g>
						<polygon points="423.226,163.795 423.15,152.572 428.828,162.254 						"/>
					</g>
				</g>
			</g>
			<path fill="none" stroke="#000000" d="M430.844,169.036"/>
			<line fill="none" stroke="#000000" x1="419.079" y1="120.835" x2="350.97" y2="154.067"/>
			<line fill="none" stroke="#000000" x1="390.204" y1="98.313" x2="390.204" y2="171.315"/>
			<g>
				<polyline fill="#6799C8" stroke="#000000" stroke-linecap="round" stroke-linejoin="round" points="389.948,134.649 
					420.946,129.78 417.678,149.419 389.986,134.679 				"/>
				
					<ellipse transform="matrix(-0.9901 -0.1405 0.1405 -0.9901 815.369 337.0106)" fill="#CCDEF0" stroke="#000000" cx="419.58" cy="139.726" rx="3.062" ry="10.019"/>
				<path fill="none" stroke="#000000" stroke-linecap="round" d="M415.762,130.595c-1.06,1.668-1.871,4.404-2.355,7.828
					c-0.53,3.732-0.362,7.073,0.331,8.897"/>
				<path fill="none" stroke="#000000" stroke-linecap="round" d="M411.908,131.2c-0.702,1.671-1.295,3.885-1.646,6.349
					c-0.447,3.157-0.395,6.032,0.051,7.949"/>
				<path fill="none" stroke="#000000" stroke-linecap="round" d="M408.228,131.776c-0.463,1.423-0.851,3.094-1.106,4.899
					c-0.42,2.951-0.487,5.152-0.121,7.059"/>
				<path fill="none" stroke="#000000" stroke-linecap="round" d="M404.667,132.337c-0.279,1.068-0.514,2.236-0.688,3.465
					c-0.328,2.308-0.388,4.463-0.223,6.206"/>
				<path fill="none" stroke="#000000" stroke-linecap="round" d="M401.191,132.882c-0.135,0.658-0.255,1.341-0.354,2.046
					c-0.278,1.954-0.363,3.799-0.281,5.377"/>
				<path fill="none" stroke="#000000" stroke-linecap="round" d="M397.792,133.417c-0.035,0.21-0.067,0.424-0.097,0.638
					c-0.233,1.626-0.33,3.18-0.311,4.564"/>
				<line fill="none" stroke="#000000" stroke-linecap="round" x1="417.433" y1="135.122" x2="421.738" y2="144.281"/>
			</g>
		</g>
		<line fill="none" stroke="#000000" x1="214.662" y1="77.897" x2="102.243" y2="103.259"/>
		<g>
			<polygon fill="#CCDEF0" stroke="#000000" stroke-linecap="round" stroke-linejoin="round" points="137.98,85.769 136.664,85.964 
				135.702,86.103 133.593,86.165 131.249,86.05 128.478,85.737 117.104,84.216 115.16,83.711 115.557,81.58 118.495,77.492 
				122.865,74.86 127.748,74.188 131.182,73.831 135.985,75.335 144.228,78.595 145.997,79.495 147.015,80.532 138.008,85.814 			
				"/>
			<polygon fill="#CCDEF0" stroke="#000000" points="181.664,85.331 180.396,83.148 178.616,81.798 176.747,80.847 174.334,80.53 
				172.007,80.988 169.891,82.103 168.468,83.743 167.337,85.604 166.993,88.064 167.499,90.641 168.757,92.838 170.522,94.223 
				172.432,95.093 174.837,95.467 177.144,94.926 179.283,93.87 180.635,92.18 181.795,90.353 182.164,87.906 			"/>
			<path fill="#CCDEF0" stroke="#000000" d="M139.23,92.288l1.589,1.975c0.029-0.009,0.083,0.001,0.153,0.024
				c-0.166-0.171,0.192,0.063,0.85,0.245c0.304,0.07,0.597,0.173,0.884,0.291c0.625,0.057,1.219,0.229,1.764,0.491
				c0.172,0.058,0.337,0.124,0.496,0.2c0.26,0.101,0.509,0.215,0.735,0.354c0.019,0.008,0.042,0.012,0.061,0.02l2.473-0.459
				l1.577-0.952l1.859-1.469l1.23-2.255l0.37-2.599l-0.565-2.443l-0.878-1.149l-1.733-2.255l-2.44-1.03l-2.095-0.373l-2.67,0.416
				l-1.542,1.023l-1.892,1.434l-1.26,2.253l-0.368,2.613l0.597,2.448L139.23,92.288z"/>
			<path fill="#CCDEF0" stroke="#000000" d="M182.954,88.884l-0.891-1.349l-2.871-3.139l-3.071-1.121l-9.576-3.425l-5.091-1.65
				l-6.995,0.068l-5.136,0.787l-2.31,1.476l-2.314,1.479l-3.137,4.555l-0.969,5.215l0.765,2.601c0.133,0.05,0.283,0.103,0.464,0.152
				c0.304,0.07,0.597,0.173,0.884,0.291c0.625,0.057,1.22,0.229,1.766,0.492c0.173,0.059,0.339,0.125,0.498,0.201
				c0.264,0.103,0.516,0.219,0.744,0.36c0.091,0.038,0.179,0.08,0.267,0.122c0.056,0.012,0.11,0.031,0.167,0.041
				c1.72,0.318,3.42,0.582,4.959,1.433c0.999,0.149,1.993,0.298,2.977,0.462c0.397,0.035,0.793,0.068,1.19,0.104
				c1.7,0.155,3.241,0.358,4.778,0.962c0.586-0.078,1.184-0.053,1.765,0.074c0.806,0.002,1.615,0.223,2.36,0.717
				c0.263,0.176,0.533,0.342,0.811,0.496c0.139,0.045,0.317,0.102,0.434,0.129c0.005,0.001,0.007,0.001,0.012,0.001
				c0.366,0.012,0.729,0.013,1.095,0.005c1.1-0.023,2.124,0.352,2.956,0.982c0.391,0.096,0.772,0.234,1.138,0.428
				c0.075,0.027,0.152,0.045,0.227,0.076c0.061,0.005,0.121,0.011,0.212,0.02c0.903,0.092,1.864,0.135,2.734,0.422
				c0.728,0.24,1.866,0.557,2.657,0.742l1.041-0.567l3.386-2.427l2.27-3.547l0.736-3.989L182.954,88.884z"/>
			<polygon fill="#CCDEF0" stroke="#000000" points="211.471,89.652 211.318,89.27 210.218,87.419 208.639,86.61 207.998,86.315 
				195.651,83.354 187.794,81.567 181.732,81.951 179.611,82.385 178.517,83.007 176.854,84.533 176.606,85.02 175.64,87.062 
				175.341,89.419 175.386,89.638 175.341,89.419 175.771,91.611 175.884,92.181 177.12,94.017 178.018,94.942 179.971,95.813 
				185.716,97.89 193.732,98.38 206.37,99.005 207.062,98.902 208.804,98.441 210.343,96.868 210.583,96.563 211.53,94.408 
				211.848,91.946 			"/>
			<polygon fill="#CCDEF0" stroke="#000000" points="216.582,90.836 215.483,89.168 213.999,88.195 212.557,87.445 210.59,87.338 
				208.837,87.73 207.151,88.748 206.162,90.036 205.298,91.591 205.092,93.578 205.579,95.606 206.667,97.283 208.143,98.279 
				209.608,98.98 211.573,99.126 213.313,98.684 215.019,97.702 215.964,96.382 216.848,94.847 217.069,92.864 			"/>
			<polygon fill="#CCDEF0" stroke="#000000" points="245.214,92.362 244.999,91.979 243.946,90.27 242.512,89.529 241.722,89.26 
				230.254,87.042 217.528,86.823 215.721,87.072 213.859,87.493 213.002,87.906 211.517,89.401 210.571,91.709 210.546,91.871 
				210.355,94.234 210.357,94.365 210.919,96.828 212.141,98.602 212.925,99.11 214.689,99.905 216.439,100.384 229.075,101.804 
				240.781,101.083 241.607,100.918 243.135,100.488 244.439,99.026 244.715,98.652 245.456,96.689 245.634,94.447 			"/>
			<path fill="#CCDEF0" stroke="#000000" d="M177.154,103.235c0.796,0.105,1.545,0.337,2.217,0.672
				c0.225,0.017,0.449,0.028,0.675,0.068c1.833,0.33,3.614,0.561,5.438,1c0.729,0.177,1.444,0.396,2.167,0.595
				c0.199,0.037,0.401,0.077,0.614,0.128c0.196,0.033,0.431,0.076,0.614,0.123l2.783-2.42l2.036-3.977l0.661-4.548l-0.843-4.26
				l-2.2-3.159l-2.493-2.818l-3.927-1.787l-3.978-0.67l-4.372,0.743l-3.017,1.78l-3.138,2.532l-2.121,3.97l-0.659,4.597l0.941,4.269
				l1.028,1.354c0.359,0.096,0.712,0.229,1.049,0.41c0.073,0.025,0.147,0.043,0.219,0.072c0.061,0.005,0.121,0.011,0.212,0.02
				c0.903,0.092,1.864,0.135,2.734,0.422C174.794,102.681,176.573,103.157,177.154,103.235z"/>
			<path fill="#CCDEF0" stroke="#000000" d="M208.804,110.706c0.555,0.023,1.708,0.268,2.131,0.311
				c0.181,0.02,0.362,0.039,0.544,0.06l3.139-2.46l3.004-5.002l1.028-5.577l-1.135-5.124l-0.19-0.37l-3.229-3.842l-3.243-1.735
				l-5.161-1.767l-5.198-0.942l-10.604,0.854l-4.81,0.863l-4.36,3.033l-0.203,0.203l-2.877,4.444l-0.935,5.052l1.202,4.599
				l0.022,0.083c0.503,0.117,0.972,0.296,1.41,0.516c0.236,0.017,0.471,0.03,0.708,0.072c1.833,0.33,3.614,0.561,5.438,1
				c0.733,0.178,1.451,0.398,2.177,0.598c0.209,0.039,0.42,0.078,0.643,0.131c0.311,0.054,0.697,0.131,0.822,0.205
				c0.108,0.028,0.219,0.057,0.328,0.085c0.985-0.087,1.944,0.038,2.801,0.374c0.476-0.076,0.965-0.072,1.486,0.021
				c1.545-0.085,3.022,0.388,4.072,1.405c0.266,0.119,0.525,0.265,0.774,0.441c0.123,0.053,0.246,0.105,0.368,0.163
				c0.24,0.044,0.48,0.105,0.716,0.202c2.686,1.111,6.061,1.639,8.938,2.062C208.677,110.674,208.737,110.694,208.804,110.706z"/>
			<polygon fill="#CCDEF0" stroke="#000000" points="250.959,93.635 250.034,92.087 248.698,91.112 247.625,90.483 245.776,90.223 
				244.367,90.58 242.708,91.322 241.566,92.916 241.021,93.794 240.695,95.508 241.024,97.316 241.942,98.87 243.271,99.862 
				244.362,100.45 246.206,100.743 247.606,100.345 249.276,99.631 250.442,98.05 250.946,97.153 251.285,95.445 			"/>
			<polygon fill="#CCDEF0" stroke="#000000" points="228.125,95.966 226.838,93.96 224.827,92.303 222.6,91.209 219.722,90.96 
				217.294,91.501 215.041,92.802 213.332,94.472 212.213,97.051 211.914,100.015 212.499,102.761 213.841,104.729 215.792,106.461 
				218.063,107.463 220.935,107.796 223.337,107.156 225.636,105.94 227.298,104.224 228.376,101.644 228.671,98.703 			"/>
			<polygon fill="#CCDEF0" stroke="#000000" points="267.047,97.123 265.932,96.038 265.074,95.339 259.374,93.673 257.745,93.448 
				254.18,93.179 250.209,93.622 248.983,93.95 247.828,94.654 247.209,95.066 246.777,95.627 246.624,96.221 246.776,96.732 
				247.093,97.695 247.864,98.279 250.876,99.793 254.217,100.565 255.876,100.755 262.357,100.913 263.768,100.493 265.707,99.891 
				266.488,99.332 267.031,98.588 267.23,97.798 			"/>
			<polygon fill="#CCDEF0" stroke="#000000" points="271.547,100.043 271.426,99.732 270.143,97.443 268.334,96.459 267.59,96.168 
				266.232,96.221 243.129,92.54 227.546,90.338 224.76,90.967 223.226,92.134 221.13,94.219 219.752,97.443 219.38,101.15 
				220.091,104.581 241.319,110.616 264.693,111.651 266.012,111.974 266.801,111.84 268.768,111.223 270.482,109.226 
				270.66,108.947 271.719,106.156 272.035,102.985 			"/>
			<path fill="#CCDEF0" stroke="#000000" d="M197.869,107.822c0.246,0.114,0.486,0.249,0.718,0.413
				c0.123,0.053,0.246,0.105,0.368,0.163c0.24,0.044,0.48,0.105,0.716,0.202c2.335,0.967,5.191,1.49,7.788,1.891l0.264-0.156
				l2.01-1.778l1.308-2.68l0.359-3.06l-0.66-2.853l-1.556-2.091l-1.646-1.797l-2.688-1.144l-2.607-0.342l-2.917,0.555l-1.941,1.278
				l-2.049,1.728l-1.344,2.67l-0.359,3.073l0.609,2.494C195.627,106.417,196.93,106.893,197.869,107.822z"/>
			<path fill="#CCDEF0" stroke="#000000" d="M248.529,102.517l-2.363-1.068l-1.268,0.013l-21.306-4.556l-14.212-2.745l-3.375,0.648
				l-2.978,2.541l-0.868,0.785l-1.666,4.067c0,0,24.677,6.531,26.496,7.252c0.562-0.045,1.131,0.021,1.681,0.242
				c1.645,0.657,3.413,0.074,5.132,0.439c1.918,0.205,7.014,0.873,7.806,1.09C241.959,111.322,248.529,102.517,248.529,102.517z"/>
			<polygon fill="#CCDEF0" stroke="#000000" points="277.365,104.425 277.268,102.584 276.584,101.001 274.998,99.159 
				273.506,98.302 271.061,97.517 269.209,97.954 267.057,98.458 265.588,99.782 264.809,100.872 264.174,101.996 263.844,103.286 
				263.838,104.161 263.91,106.33 264.637,107.889 266.172,109.769 267.701,110.565 270.121,111.401 272.66,110.861 
				274.133,110.462 275.574,109.108 276.422,108.067 277.053,106.931 277.389,105.632 			"/>
			<polygon fill="#CCDEF0" stroke="#000000" points="317.698,111.842 299.281,104.538 279.049,98.66 276.055,98.571 274.07,99.05 
				273.139,99.746 271.467,101.277 270.148,103.63 269.453,108.487 310.239,114.397 316.715,113.636 			"/>
			<path fill="#CCDEF0" stroke="#000000" d="M247.246,112.188c1.75-0.53,6.102-7.553,6.102-7.553l-1.714-0.822l-2.492-0.852
				l-2.555,0.603l-1.662,0.438l-1.604,1.454l-0.66,1.082l-0.674,1.205l-0.327,1.362l-0.156,1.008l0.078,1.108
				c0.009,0.002,0.019,0.002,0.027,0.004C241.959,111.322,245.092,112.86,247.246,112.188z"/>
			<path fill="#CCDEF0" stroke="#000000" d="M337.592,119.298c0.545,0.002,1.062,0.113,1.565,0.279
				c0.121-0.021,0.258-0.045,0.418-0.07c0.089-0.02,0.17-0.049,0.258-0.068l3.339-22.138l1.477-2.654l0.664-0.627l0.988-0.491
				l0.939-0.035l-0.648-0.087l-0.711-0.018l-0.633,0.056l-0.428,0.115l-0.975,0.331l-2.088,2.028l-0.432,0.468l-4.213,22.028
				l-0.068,0.844C337.227,119.269,337.409,119.263,337.592,119.298z"/>
			<polyline fill="#CCDEF0" stroke="#000000" points="346.301,93.528 345.312,94.02 344.648,94.646 343.172,97.301 339.833,119.438 
				348.009,116.448 348.816,95.71 347.811,93.778 347.24,93.493 346.301,93.528 			"/>
			<path fill="#CCDEF0" stroke="#000000" d="M318.229,127.446l3.138-23.586l1.623-2.891l0.746-0.7l1.125-0.577l1.086-0.092
				l-0.684-0.093l-0.764-0.009l-0.697,0.077l-0.492,0.147l-1.014,0.35l-0.314,0.312l-2.4,2.407l-3.973,23.389l-0.022,0.389
				c0.095,0.123,0.188,0.254,0.281,0.381C317.059,127.298,317.585,127.513,318.229,127.446z"/>
			<path fill="#CCDEF0" stroke="#000000" d="M324.861,99.692l-1.125,0.577l-0.746,0.7l-1.623,2.891l-3.138,23.586
				c0.519-0.051,1.117-0.283,2.214-0.779l2.522-1.068c1.511-0.607,3.072-1.141,4.596-1.508l0.271-22.239l-1.223-1.981l-0.662-0.27
				L324.861,99.692z"/>
			<path fill="#CCDEF0" stroke="#000000" stroke-linecap="round" stroke-linejoin="round" d="M277.207,118.353
				c-3.029-0.475-29.221-5.833-29.961-6.164l0.615-2.551l1.403-2.522l1.833-1.683l0.911-0.713l2.221-0.599l3.047,0.12l20.687,6.422
				l17.428,7.398l3.648,1.434l2.23,0.795l-2.242,0.658l-3.324-0.344c-2.026-0.184-4.053-0.365-6.078-0.547L277.207,118.353z"/>
			<polygon fill="#CCDEF0" stroke="#000000" stroke-linecap="round" stroke-linejoin="round" points="139.533,93.051 134.32,89.273 
				136.625,87.543 138.193,86.467 141.348,86.03 143.191,86.491 145.891,87.544 147.287,89.08 148.376,90.708 148.942,92.032 
				149.188,93.562 149.062,94.993 			"/>
			<path fill="#CCDEF0" stroke="#000000" d="M164.988,100.288c0.139,0.045,0.317,0.102,0.434,0.129
				c0.005,0.001,0.007,0.001,0.012,0.001c0.366,0.012,0.729,0.013,1.095,0.005c1.101-0.023,2.124,0.352,2.956,0.982
				c0.391,0.096,0.772,0.234,1.138,0.428c0.075,0.027,0.152,0.045,0.227,0.076c0.061,0.005,0.121,0.011,0.212,0.02
				c0.378,0.039,0.765,0.071,1.151,0.113l0.301-1.892l-0.638-2.755l-1.627-2.039l-0.42-0.327l-9.179-3.714l-2.848-1.133l-6.07-2.347
				l-4.763,0.099l-2.915,0.416l-2.587,1.815l-0.419,0.379l-1.516,2.506l2.026,1.399c0.083,0.027,0.167,0.057,0.264,0.082
				c0.304,0.07,0.597,0.173,0.884,0.291c0.625,0.057,1.22,0.229,1.766,0.492c0.173,0.059,0.339,0.125,0.498,0.201
				c0.264,0.103,0.516,0.219,0.744,0.36c0.091,0.038,0.179,0.08,0.267,0.122c0.056,0.012,0.11,0.031,0.167,0.041
				c1.72,0.318,3.42,0.582,4.959,1.433c0.999,0.149,1.993,0.298,2.977,0.462c0.397,0.035,0.793,0.068,1.19,0.104
				c1.7,0.155,3.241,0.358,4.778,0.962c0.586-0.078,1.184-0.053,1.765,0.074c0.806,0.002,1.615,0.223,2.36,0.717
				C164.44,99.968,164.711,100.134,164.988,100.288z"/>
			<path fill="#CCDEF0" stroke="#000000" d="M175.657,99.93l-0.247-0.554l-1-1.867l-1.328-1.124l-2.02-0.834l-1.733-0.199
				l-2.354,0.405l-1.458,1.036l-1.59,1.407l-0.24,0.549l0.588,1.104c0.233,0.151,0.469,0.3,0.713,0.436
				c0.139,0.045,0.317,0.102,0.434,0.129c0.005,0.001,0.007,0.001,0.012,0.001c0.366,0.012,0.729,0.013,1.095,0.005
				c1.1-0.023,2.124,0.352,2.956,0.982c0.391,0.096,0.772,0.234,1.138,0.428c0.075,0.027,0.152,0.045,0.227,0.076
				c0.061,0.005,0.121,0.011,0.212,0.02c0.903,0.092,1.864,0.135,2.734,0.422c0.538,0.178,1.302,0.397,1.984,0.575l0.045-0.574
				l0.088-1.188L175.657,99.93z"/>
			<path fill="#CCDEF0" stroke="#000000" d="M201.255,101.871l-1.455-1.903l-0.627-0.301l-2.08-0.871l-10.245-2.943l-11.357-0.776
				l-1.616,0.199l-2.518,0.437l-0.714,0.412l-2.02,1.613l-1.307,2.512l-0.025,0.228c0.805,0.118,1.545,0.45,2.178,0.925
				c0.396,0.096,0.783,0.234,1.153,0.432c0.075,0.027,0.153,0.045,0.228,0.076c0.061,0.005,0.121,0.011,0.212,0.02
				c0.903,0.092,1.864,0.135,2.734,0.422c0.998,0.33,2.777,0.807,3.358,0.885c0.796,0.105,1.545,0.337,2.217,0.672
				c0.225,0.017,0.449,0.028,0.675,0.068c1.833,0.33,3.614,0.561,5.438,1c0.733,0.178,1.451,0.398,2.177,0.598
				c0.209,0.039,0.42,0.078,0.643,0.131c0.311,0.054,0.697,0.131,0.822,0.205c0.108,0.028,0.219,0.057,0.328,0.085
				c0.985-0.087,1.944,0.038,2.801,0.374c0.476-0.076,0.965-0.072,1.486,0.021c1.545-0.085,3.022,0.388,4.072,1.405
				c0.266,0.119,0.525,0.265,0.774,0.441c0.123,0.053,0.246,0.105,0.368,0.163c0.24,0.044,0.48,0.105,0.716,0.202
				c0.34,0.141,1.912-1.361,1.912-1.361l0.306-2.776L201.255,101.871z"/>
			<path fill="#CCDEF0" stroke="#000000" d="M198.439,107.512c0.068,0.093,0.156,0.168,0.23,0.255
				c0.795,0.342,1.6,0.646,2.412,0.959c0.679,0.261,1.688,0.778,2.418,1.035c0.259,0.059,0.518,0.117,0.777,0.17
				c0.135,0.021,0.27,0.04,0.405,0.061l0.686-0.721l0.829-1.357l0.279-1.877l-0.328-2.021l-0.869-1.756l-1.234-1.142l-1.627-0.7
				l-1.682-0.372l-1.99,0.381l-1.487,0.747l-1.328,1.323l-0.805,1.375l-0.261,1.879l0.041,0.302
				C196.243,106.005,197.576,106.447,198.439,107.512z"/>
			<path fill="#CCDEF0" stroke="#000000" d="M208.776,110.706c0.542,0.016,1.728,0.268,2.158,0.311
				c1.293,0.133,2.605,0.328,3.907,0.219c2.504-0.211,4.199-0.593,6.317-1.725l0.027-0.088l-0.304-0.849l-0.456-1.215l-1.264-0.785
				l-4.988-2.146l-3.451-0.481l-2.199-0.246l-3.747,0.315l-1.74,0.352l-1.572,0.811l-1.084,1.11l-0.377,1.187l0.409,1.025
				l0.786,0.646c2.371,0.748,5.055,1.17,7.409,1.518C208.669,110.673,208.718,110.695,208.776,110.706z"/>
		</g>
		<text transform="matrix(1 0 0 1 390.0107 78.4478)" font-size="10">Patient Plane</text>
		<text transform="matrix(1 0 0 1 161.0479 24.8481)" font-size="10">0ยบ</text>
		<text transform="matrix(1 0 0 1 220.3887 77.2173)" font-size="10">LAO = +90ยบ</text>
		<text transform="matrix(1 0 0 1 51.729 113.0723)" font-size="10">RAO = -90ยบ</text>
		<polyline fill="none" stroke="#000000" points="196.781,83.626 196.781,30.047 127.344,38.496 127.344,156.38 196.781,129.456 
			196.781,114.046 		"/>
		<g>
			<g>
				<polyline fill="none" stroke="#ED1C24" points="388.528,75.321 372.082,75.327 354.492,113.118 				"/>
				<g>
					<polygon fill="#ED1C24" points="353.413,111.305 352.249,117.938 356.574,112.776 					"/>
				</g>
			</g>
		</g>
		<line fill="none" stroke="#000000" x1="161.402" y1="107.939" x2="161.402" y2="158.167"/>
		<line fill="none" stroke="#000000" x1="161.402" y1="26.86" x2="161.402" y2="77.943"/>
	</g>
</g>
</svg>
