<?xml version="1.0" encoding="utf-8"?>
<!-- $Source: /home/bbennett/pass/archive/DicomXml/docbook/part03/figures/PS3.3_C.8.19.6-6a.svg,v $ -->
<!-- $Date: 2014/05/09 12:27:11 $ -->
<!-- $Revision: 1.2 $ -->

<!DOCTYPE svg PUBLIC "-//W3C//DTD SVG 1.1//EN" "http://www.w3.org/Graphics/SVG/1.1/DTD/svg11.dtd">
<svg version="1.1" id="Layer_1" xmlns="http://www.w3.org/2000/svg" xmlns:xlink="http://www.w3.org/1999/xlink" x="0px" y="0px"
	 width="502px" height="347px" viewBox="0 0 502 347" enable-background="new 0 0 502 347" xml:space="preserve">

<defs>
	<style type="text/css">
	text {
	  font-family: Helvetica, Verdana, ArialUnicodeMS, san-serif
	}
	</style>
</defs>

<g>
   <desc>
	PS 3.3 Part 3: Information Object Definitions
   </desc>
</g>

<g>
	<rect x="1" y="1" fill="#F5EED6" width="500" height="345"/>
	<g>
		<line fill="none" stroke="#000000" x1="146.528" y1="208.877" x2="122.088" y2="221.088"/>
		<g>
			<g>
				<text transform="matrix(0.8815 0 0 1 82.9619 307.0156)" font-size="13">X-Ray Center Beam</text>
			</g>
		</g>
		
			<line fill="none" stroke="#010101" stroke-miterlimit="1" stroke-dasharray="12,6" x1="188.566" y1="303.705" x2="283.297" y2="303.705"/>
		<g>
			<g>
				<text transform="matrix(0.8815 0 0 1 114.1694 327.0137)" font-size="13">X-Ray Source</text>
			</g>
		</g>
		
			<line fill="none" stroke="#010101" stroke-miterlimit="1" stroke-dasharray="12,6" x1="188.566" y1="323.707" x2="283.297" y2="323.707"/>
		<g>
			
				<polyline fill="#CCDEF0" stroke="#000000" stroke-width="0.5" stroke-linecap="round" stroke-linejoin="round" stroke-dasharray="2" points="
				188.366,151.578 175.986,156.806 221.499,172.14 			"/>
			
				<polygon fill="#CCDEF0" stroke="#000000" stroke-width="0.5" stroke-linecap="round" stroke-linejoin="round" stroke-dasharray="2" points="
				284.611,66.922 325.07,53.512 324.48,47.914 273.906,64.018 			"/>
			<polyline fill="#86B2D8" stroke="#000000" stroke-linecap="round" stroke-linejoin="round" points="221.58,172.169 
				226.719,238.775 278.136,207.234 			"/>
			<polyline fill="#86B2D8" stroke="#000000" stroke-linecap="round" stroke-linejoin="round" points="345.611,172.521 
				338.946,239.176 288.522,208.443 			"/>
			
				<polyline fill="#CCDEF0" stroke="#000000" stroke-width="0.5" stroke-linecap="round" stroke-linejoin="round" stroke-dasharray="2" points="
				221.543,171.999 237.49,245.713 292.255,210.719 			"/>
			<polyline fill="#86B2D8" stroke="#000000" stroke-linecap="round" stroke-linejoin="round" points="231.152,84.643 
				229.162,49.368 283.7,67.224 			"/>
			<polygon fill="#86B2D8" stroke="#000000" stroke-linecap="round" stroke-linejoin="round" points="393.108,142.634 
				282.065,98.946 173.044,142.077 284.338,211.08 			"/>
			
				<polygon fill="#CCDEF0" stroke="#000000" stroke-width="0.5" stroke-linecap="round" stroke-linejoin="round" stroke-dasharray="2" points="
				282.947,142.354 273.906,64.018 203.062,86.572 221.543,171.999 			"/>
			<polygon fill="#86B2D8" stroke="#000000" stroke-linecap="round" stroke-linejoin="round" points="282.947,142.354 
				283.701,67.224 215.234,89.919 221.58,172.169 			"/>
			
				<line fill="none" stroke="#000000" stroke-linecap="round" stroke-linejoin="round" x1="283.699" y1="67.225" x2="282.947" y2="142.354"/>
			
				<polyline fill="#CCDEF0" stroke="#000000" stroke-width="0.5" stroke-linecap="round" stroke-linejoin="round" stroke-dasharray="2" points="
				347.759,154.576 393.902,127.362 350.739,121.232 			"/>
			
				<line fill="none" stroke="#000000" stroke-linecap="round" stroke-linejoin="round" x1="331.9" y1="118.355" x2="221.543" y2="171.999"/>
			<polyline fill="#86B2D8" stroke="#000000" stroke-linecap="round" stroke-linejoin="round" points="334.513,83.862 
				337.076,49.532 283.701,67.224 			"/>
			<polygon fill="#86B2D8" stroke="#000000" stroke-linecap="round" stroke-linejoin="round" points="282.947,142.354 283.7,67.224 
				353.844,90.192 345.611,172.521 			"/>
			
				<polygon fill="#CCDEF0" stroke="#000000" stroke-width="0.5" stroke-linecap="round" stroke-linejoin="round" stroke-dasharray="2" points="
				282.947,142.354 221.499,172.14 282.906,192.828 347.759,154.576 			"/>
		</g>
		<line fill="none" stroke="#ED1C24" stroke-dasharray="4" x1="283.692" y1="31.166" x2="283.305" y2="322.533"/>
		<line fill="none" stroke="#ED1C24" stroke-dasharray="4" x1="269.181" y1="31.114" x2="302.917" y2="304.957"/>
		<text transform="matrix(1 -0.0019 0.0019 1 119.6113 191.3828)" fill="#00AEEF" font-size="13">+Z, +Zp</text>
		<text transform="matrix(1 -0.0048 0.0048 1 298.1284 249.3955)" fill="#0DB14B" font-size="13">+Yp</text>
		<text transform="matrix(1 -0.0048 0.0048 1 264.1538 251.5996)" fill="#0DB14B" font-size="13">+Y</text>
		<text transform="matrix(1 -0.0031 0.0031 1 143.8354 124.7544)" fill="#ED1C24" font-size="13">+Xp</text>
		<text transform="matrix(1 -0.0031 0.0031 1 152.3574 88.5171)" fill="#ED1C24" font-size="13">+X</text>
		<g>
			<text transform="matrix(1 -3.400000e-04 3.400000e-04 1 286.9917 136.2368)" font-size="12.5">O</text>
		</g>
		<g>
			<path stroke="#000000" stroke-miterlimit="1" d="M288.625,142.035c0.002-3.26-2.64-5.898-5.899-5.898v5.901L288.625,142.035z"/>
			
				<path fill="#FFFFFF" stroke="#010101" stroke-width="0.75" stroke-linecap="round" stroke-linejoin="round" stroke-miterlimit="1" d="
				M282.726,136.137c-3.259,0-5.9,2.643-5.898,5.904l5.898-0.003V136.137z"/>
			<path stroke="#000000" stroke-miterlimit="1" d="M276.828,142.041c0.001,3.257,2.643,5.897,5.901,5.896l-0.003-5.898
				L276.828,142.041z"/>
			
				<path fill="#FFFFFF" stroke="#010101" stroke-width="0.75" stroke-linecap="round" stroke-linejoin="round" stroke-miterlimit="1" d="
				M282.726,142.038l0.003,5.898c3.257-0.001,5.899-2.644,5.896-5.901L282.726,142.038z"/>
		</g>
		<g>
			<g>
				<line fill="none" stroke="#0DB14B" x1="282.628" y1="141.86" x2="283.316" y2="232.25"/>
				<g>
					<polygon fill="#0DB14B" points="280.396,230.291 283.383,241.109 286.206,230.247 					"/>
				</g>
			</g>
		</g>
		<g>
			<g>
				<line fill="none" stroke="#ED1C24" x1="344.517" y1="172.065" x2="181.484" y2="92.409"/>
				<g>
					<polygon fill="#ED1C24" points="184.54,90.668 173.524,88.52 181.989,95.889 					"/>
				</g>
			</g>
		</g>
		<g>
			<g>
				<line fill="none" stroke="#ED1C24" stroke-dasharray="4,4" x1="282.61" y1="141.807" x2="181.773" y2="124.293"/>
				<g>
					<polygon fill="#ED1C24" points="184.223,121.77 173.044,122.777 183.228,127.494 					"/>
				</g>
			</g>
		</g>
		<g>
			<g>
				<line fill="none" stroke="#0DB14B" stroke-dasharray="4,4" x1="282.628" y1="141.861" x2="293.713" y2="230.385"/>
				<g>
					<polygon fill="#0DB14B" points="290.584,228.78 294.814,239.176 296.35,228.058 					"/>
				</g>
			</g>
		</g>
		<g>
			<text transform="matrix(0.8815 0 0 1 266.8394 27.2202)" font-size="13">Ap1</text>
		</g>
		<g opacity="0.7">
			<g>
				
					<ellipse transform="matrix(-0.4969 -0.8678 0.8678 -0.4969 190.3525 718.3871)" fill="#FEDA00" cx="303.406" cy="304.019" rx="5.585" ry="5.74"/>
			</g>
			<circle cx="303.336" cy="304.118" r="0.564"/>
			<path d="M304.79,304.072c0.001,0.498-0.266,0.986-0.737,1.258c-0.036,0.02-0.072,0.037-0.109,0.055l1.701,2.971
				c0.035-0.02,0.071-0.041,0.105-0.061c1.599-0.912,2.507-2.561,2.529-4.242L304.79,304.072z"/>
			<path d="M304.123,302.908c-0.429-0.254-0.985-0.271-1.458-0.002c-0.035,0.02-0.069,0.041-0.103,0.066l-1.701-2.971
				c0.034-0.021,0.071-0.041,0.105-0.061c1.598-0.916,3.477-0.869,4.938-0.035L304.123,302.908z"/>
			<path d="M302.706,305.4c-0.431-0.248-0.782-0.689-0.781-1.234c0.001-0.041,0.004-0.08,0.007-0.119l-3.423-0.014
				c-0.001,0.041-0.001,0.082-0.001,0.123c-0.008,1.84,1.061,3.393,2.507,4.252L302.706,305.4z"/>
		</g>
		<g>
			<g>
				<path fill="#FEDA00" d="M281.271,318.799c-2.751,1.574-3.738,5.021-2.207,7.697c1.534,2.678,5.006,3.57,7.757,1.996
					c2.753-1.578,3.74-5.021,2.208-7.697C287.495,318.115,284.023,317.223,281.271,318.799z"/>
			</g>
			<circle cx="283.977" cy="323.745" r="0.564"/>
			<path d="M285.429,323.699c0.001,0.498-0.266,0.984-0.737,1.258c-0.036,0.02-0.071,0.037-0.109,0.055l1.702,2.971
				c0.035-0.02,0.071-0.039,0.104-0.061c1.6-0.914,2.507-2.561,2.53-4.242L285.429,323.699z"/>
			<path d="M284.763,322.535c-0.429-0.254-0.985-0.271-1.458-0.002c-0.035,0.021-0.07,0.041-0.103,0.066l-1.702-2.971
				c0.035-0.021,0.071-0.041,0.105-0.061c1.598-0.916,3.477-0.869,4.939-0.035L284.763,322.535z"/>
			<path d="M283.345,325.025c-0.431-0.246-0.782-0.689-0.78-1.232c0-0.039,0.003-0.08,0.007-0.119l-3.423-0.014
				c-0.001,0.041-0.001,0.08-0.001,0.123c-0.008,1.84,1.06,3.393,2.507,4.254L283.345,325.025z"/>
		</g>
		<g>
			<g>
				<line fill="none" stroke="#00AEEF" x1="282.947" y1="142.354" x2="164.224" y2="199.6"/>
				<g>
					<polygon fill="#00AEEF" points="164.747,196.122 156.244,203.447 167.271,201.355 					"/>
				</g>
			</g>
		</g>
		<text transform="matrix(1 0 0 1 81.981 257.8672)" font-size="9">Axis of Rotation</text>
		<path fill="#FFFFFF" stroke="#000000" d="M130.742,219.537c1.149,8.637-1.345,16.092-5.574,16.656s-8.59-5.979-9.741-14.609
			c-1.152-8.639,1.344-16.096,5.574-16.66C125.23,204.359,129.589,210.904,130.742,219.537z"/>
		<g>
			<g>
				<path fill="none" stroke="#000000" d="M83.409,237.664c-0.056-0.337-0.107-0.678-0.153-1.021
					c-1.152-8.639,1.344-16.096,5.574-16.66c4.229-0.564,8.589,5.98,9.741,14.613c0.669,5.027,0.104,9.654-1.32,12.754"/>
				<g>
					<polygon points="85.73,234.868 86.18,246.082 80.182,236.596 					"/>
				</g>
			</g>
		</g>
		<line fill="none" stroke="#000000" x1="106.076" y1="217.305" x2="145.348" y2="227.188"/>
		<g>
			<polygon fill="#6799C8" stroke="#000000" stroke-linecap="round" stroke-linejoin="round" points="108.693,234.816 
				121.392,221.475 121.392,221.475 102.452,222.604 			"/>
			
				<ellipse transform="matrix(0.9128 -0.4085 0.4085 0.9128 -84.4141 62.9093)" fill="#CCDEF0" stroke="#000000" cx="105.07" cy="229.076" rx="3.428" ry="7"/>
			<path fill="none" stroke="#000000" d="M106.818,222.342c1.246,0.848,2.509,2.625,3.416,4.654
				c0.809,1.803,1.171,3.598,1.102,5.021"/>
			<path fill="none" stroke="#000000" d="M109.355,222.191c1.023,0.908,2.166,2.455,2.913,4.125c0.556,1.242,0.9,2.477,1.04,3.592"
				/>
			<path fill="none" stroke="#000000" d="M111.929,222.037c0.828,0.879,1.76,2.227,2.375,3.602c0.376,0.84,0.656,1.68,0.839,2.48"/>
			<path fill="none" stroke="#000000" d="M114.426,221.889c0.653,0.801,1.413,1.955,1.911,3.07c0.179,0.402,0.336,0.799,0.472,1.195
				"/>
			
				<line fill="none" stroke="#000000" stroke-linecap="round" stroke-linejoin="round" x1="100.865" y1="225.141" x2="108.64" y2="233.832"/>
		</g>
		<line fill="none" stroke="#000000" x1="122.404" y1="198.186" x2="122.404" y2="242.832"/>
		<g>
			<text transform="matrix(0.8815 0 0 1 346.7524 307.7617)" font-size="13">Ap2 = Ap3 = 0</text>
		</g>
		<g>
			<g>
				<path fill="none" stroke="#000000" d="M248.23,40.42c5.254-1.727,10.682-3.068,16.251-3.991"/>
				<g>
					<polygon points="263.557,38.344 269.745,35.687 263.057,34.893 					"/>
				</g>
			</g>
		</g>
		<g>
			<g>
				<path fill="none" stroke="#000000" d="M287.924,35.069c6.741,0.32,13.324,1.248,19.694,2.728"/>
				<g>
					<polygon points="289.062,36.872 282.61,34.943 289.162,33.387 					"/>
				</g>
			</g>
		</g>
	</g>
</g>
</svg>
