<?xml version="1.0" encoding="utf-8"?>
<!-- $Source: /home/bbennett/pass/archive/DicomXml/docbook/part03/figures/PS3.3_C.29.3.1.1.1-1.svg,v $ -->
<!-- $Date: 2014/05/09 13:15:43 $ -->
<!-- $Revision: 1.1 $ -->

<!DOCTYPE svg PUBLIC "-//W3C//DTD SVG 1.1//EN" "http://www.w3.org/Graphics/SVG/1.1/DTD/svg11.dtd">
<svg version="1.1" id="Layer_1" xmlns="http://www.w3.org/2000/svg" xmlns:xlink="http://www.w3.org/1999/xlink" x="0px" y="0px"
	 width="502px" height="307px" viewBox="0 0 502 307" enable-background="new 0 0 502 307" xml:space="preserve">

<defs>
	<style type="text/css">
	text {
	  font-family: Helvetica, Verdana, ArialUnicodeMS, san-serif
	}
	</style>
</defs>

<g>
   <desc>
	PS 3.3 Part 3: Information Object Definitions
   </desc>
</g>

<g>
	<rect x="1" y="1" fill="#F5EED6" width="500" height="305"/>
	<g>
		<g>
			<rect x="78.19" y="40.501" fill="#CCDEF0" stroke="#000000" stroke-width="0.4731" width="307.966" height="249.998"/>
			<line fill="#CCDEF0" stroke="#000000" stroke-width="0.4731" x1="78.19" y1="165.499" x2="386.156" y2="165.499"/>
			<line fill="#CCDEF0" stroke="#000000" stroke-width="0.4731" x1="283.523" y1="40.501" x2="283.523" y2="290.499"/>
			<line fill="#CCDEF0" stroke="#000000" stroke-width="0.4731" x1="180.821" y1="40.501" x2="180.821" y2="290.499"/>
		</g>
		<rect x="78.168" y="16.501" fill="#B2CEE7" stroke="#000000" stroke-width="0.4731" width="308.013" height="24"/>
		<rect x="27.514" y="40.501" fill="#B2CEE7" stroke="#000000" stroke-width="0.6192" width="50.654" height="249.997"/>
		<g>
			<path fill="#8A8C8E" stroke="#000000" stroke-linejoin="bevel" d="M140.241,68.483c0,0,2.96-2.52,0.592-5.232
				c-0.978-1.121-3.022-1.665-3.022-1.665l0,0c-4.395,2.495-4.886,2.457-4.886,2.457l-8.25,2.062c0,0-2.602,6.56-2.625,8.812
				c-0.023,2.254-0.671,52.977-0.671,53.602s1.218,3.03,3.116,3.018c1.898-0.014,2.306-5.012,2.306-5.012L130.052,96
				c1.922-7.128,5.296-19.481,6.215-21.614C137.588,71.315,138.603,70.121,140.241,68.483z"/>
			<path fill="none" stroke="#4D4D4F" stroke-linecap="round" d="M124.183,130.455c1.684-0.303,1.897-4.74,1.897-4.74l3.251-29.985
				c2.192-6.857,4.937-19.211,5.855-21.344c1.321-3.07,2.55-4.499,4.188-6.137"/>
			<path fill="none" stroke="#A6A6A6" stroke-width="2" stroke-linecap="round" stroke-linejoin="bevel" d="M137.811,62.845
				l-4.694,2.35l-7.637,1.708c0,0-2.333,6.289-2.355,8.543c-0.023,2.253-0.672,52.166-0.672,52.791c0,0.624,0.521,1.775,1.961,2.219
				"/>
			<path fill="#FFF200" stroke="#000000" d="M140.241,68.483c0,0,2.938-2.663,0.57-5.377c-0.978-1.12-3-1.521-3-1.521l0,0
				l4.198-2.892c0,0,2.347-1.093,4.329,1.177c1.981,2.27-0.301,4.14-0.301,4.14S142.683,66.433,140.241,68.483z"/>
		</g>
		<g>
			<path fill="#8A8C8E" stroke="#000000" stroke-linejoin="bevel" d="M137.944,184.552c0,0,2.96-2.52,0.592-5.233
				c-0.978-1.12-3.022-1.664-3.022-1.664l0,0c-4.395,2.494-9.79,7.053-9.79,7.053l-8.25,2.062c0,0-2.602,6.56-2.625,8.812
				c-0.023,2.254-0.671,67.375-0.671,68s1.218,3.031,3.116,3.018c1.898-0.014,2.306-5.012,2.306-5.012l2.892-45.283
				c1.922-7.129,7.096-18.402,8.014-20.535C131.827,192.699,136.307,186.189,137.944,184.552z"/>
			<path fill="none" stroke="#4D4D4F" stroke-linecap="round" d="M116.983,265.518c1.684-0.303,1.538-4.74,1.538-4.74l2.892-44.744
				c2.192-6.857,7.096-18.131,8.014-20.264c1.321-3.07,6.014-10.175,7.652-11.812"/>
			<path fill="none" stroke="#A6A6A6" stroke-width="2" stroke-linecap="round" stroke-linejoin="bevel" d="M135.515,178.913
				l-9.598,6.945l-7.637,1.708c0,0-2.333,6.289-2.355,8.543c-0.023,2.254-0.672,66.564-0.672,67.189s0.521,1.775,1.961,2.219"/>
			<path fill="#FFF200" stroke="#000000" d="M137.944,184.552c0,0,2.938-2.663,0.57-5.377c-0.978-1.12-3-1.521-3-1.521l0,0
				l4.198-2.892c0,0,2.347-1.093,4.329,1.177c1.981,2.27-0.301,4.139-0.301,4.139S140.387,182.501,137.944,184.552z"/>
		</g>
		<g>
			<g>
				<g>
					<line fill="none" stroke="#ED1C24" stroke-width="0.5689" x1="107.279" y1="156.491" x2="119.337" y2="156.491"/>
					<g>
						<polygon fill="#ED1C24" points="118.21,158.145 124.377,156.491 118.21,154.838 						"/>
					</g>
				</g>
			</g>
			<g>
				<g>
					<line fill="none" stroke="#ED1C24" stroke-width="0.5689" x1="107.217" y1="156.489" x2="107.217" y2="143.995"/>
					<g>
						<polygon fill="#ED1C24" points="108.87,145.123 107.217,138.955 105.564,145.123 						"/>
					</g>
				</g>
			</g>
			<g>
				<path stroke="#000000" stroke-width="0.5689" stroke-miterlimit="1" d="M107.217,152.654c-2.121,0-3.84,1.721-3.84,3.837h3.84
					V152.654z"/>
				
					<path fill="#FFFFFF" stroke="#010101" stroke-width="0.4267" stroke-linecap="round" stroke-linejoin="round" stroke-miterlimit="1" d="
					M103.377,156.491c0,2.126,1.719,3.843,3.84,3.843v-3.843H103.377z"/>
				<path stroke="#000000" stroke-width="0.5689" stroke-miterlimit="1" d="M107.217,160.334c2.123,0,3.841-1.717,3.841-3.843
					h-3.841V160.334z"/>
				
					<path fill="#FFFFFF" stroke="#010101" stroke-width="0.4267" stroke-linecap="round" stroke-linejoin="round" stroke-miterlimit="1" d="
					M107.217,156.491h3.841c0-2.116-1.718-3.837-3.841-3.837V156.491z"/>
			</g>
		</g>
		<g>
			<g>
				<g>
					<line fill="none" stroke="#ED1C24" stroke-width="0.5689" x1="100.08" y1="277.154" x2="112.138" y2="277.154"/>
					<g>
						<polygon fill="#ED1C24" points="111.01,278.808 117.178,277.154 111.01,275.501 						"/>
					</g>
				</g>
			</g>
			<g>
				<g>
					<line fill="none" stroke="#ED1C24" stroke-width="0.5689" x1="100.018" y1="277.152" x2="100.018" y2="264.657"/>
					<g>
						<polygon fill="#ED1C24" points="101.67,265.785 100.018,259.617 98.365,265.785 						"/>
					</g>
				</g>
			</g>
			<g>
				<path stroke="#000000" stroke-width="0.5689" stroke-miterlimit="1" d="M100.018,273.316c-2.121,0-3.84,1.721-3.84,3.838h3.84
					V273.316z"/>
				
					<path fill="#FFFFFF" stroke="#010101" stroke-width="0.4267" stroke-linecap="round" stroke-linejoin="round" stroke-miterlimit="1" d="
					M96.178,277.154c0,2.125,1.719,3.842,3.84,3.842v-3.842H96.178z"/>
				<path stroke="#000000" stroke-width="0.5689" stroke-miterlimit="1" d="M100.018,280.996c2.123,0,3.841-1.717,3.841-3.842
					h-3.841V280.996z"/>
				
					<path fill="#FFFFFF" stroke="#010101" stroke-width="0.4267" stroke-linecap="round" stroke-linejoin="round" stroke-miterlimit="1" d="
					M100.018,277.154h3.841c0-2.117-1.718-3.838-3.841-3.838V277.154z"/>
			</g>
		</g>
		<g>
			<g>
				<g>
					<line fill="none" stroke="#0DB14B" stroke-width="0.5418" x1="125.495" y1="110.697" x2="136.979" y2="110.697"/>
					<g>
						<polygon fill="#0DB14B" points="135.905,112.271 141.779,110.697 135.905,109.123 						"/>
					</g>
				</g>
			</g>
			<g>
				<g>
					<line fill="none" stroke="#0DB14B" stroke-width="0.5418" x1="125.495" y1="110.045" x2="125.495" y2="98.144"/>
					<g>
						<polygon fill="#0DB14B" points="127.069,99.218 125.495,93.344 123.92,99.218 						"/>
					</g>
				</g>
			</g>
			<g>
				<path stroke="#000000" stroke-width="0.5418" stroke-miterlimit="1" d="M125.436,107.039c-2.021,0-3.657,1.637-3.657,3.658
					h3.657V107.039z"/>
				
					<path fill="#FFFFFF" stroke="#010101" stroke-width="0.4064" stroke-linecap="round" stroke-linejoin="round" stroke-miterlimit="1" d="
					M121.779,110.697c0,2.021,1.637,3.657,3.657,3.657v-3.657H121.779z"/>
				<path stroke="#000000" stroke-width="0.5418" stroke-miterlimit="1" d="M125.436,114.354c2.021,0,3.658-1.636,3.658-3.657
					h-3.658V114.354z"/>
				
					<path fill="#FFFFFF" stroke="#010101" stroke-width="0.4064" stroke-linecap="round" stroke-linejoin="round" stroke-miterlimit="1" d="
					M125.436,110.697h3.658c0-2.021-1.636-3.658-3.658-3.658V110.697z"/>
			</g>
		</g>
		<g>
			<path fill="#8A8C8E" stroke="#000000" stroke-linejoin="bevel" d="M202.804,96.203c0,0-2.52-2.961-5.233-0.593
				c-1.12,0.978-1.664,3.022-1.664,3.022l0,0c2.494,4.395,2.457,4.886,2.457,4.886l2.062,8.25c0,0,6.559,2.602,8.812,2.625
				c2.253,0.023,60.173,0.671,60.798,0.671s3.03-1.218,3.018-3.116c-0.014-1.897-5.011-2.305-5.011-2.305l-37.724-3.252
				c-7.128-1.922-19.481-5.296-21.613-6.215C205.636,98.855,204.441,97.841,202.804,96.203z"/>
			<path fill="none" stroke="#4D4D4F" stroke-linecap="round" d="M271.972,112.26c-0.303-1.683-4.739-1.896-4.739-1.896
				l-37.184-3.252c-6.857-2.191-19.211-4.937-21.343-5.854c-3.07-1.321-4.5-2.55-6.137-4.188"/>
			<path fill="none" stroke="#A6A6A6" stroke-width="2" stroke-linecap="round" stroke-linejoin="bevel" d="M197.164,98.633
				l2.35,4.693l1.708,7.638c0,0,6.289,2.332,8.543,2.354c2.254,0.023,59.363,0.672,59.988,0.672c0.624,0,1.775-0.521,2.219-1.961"/>
			<path fill="#FFF200" stroke="#000000" d="M202.804,96.203c0,0-2.663-2.938-5.377-0.57c-1.12,0.978-1.521,3-1.521,3l0,0
				l-2.892-4.198c0,0-1.093-2.347,1.176-4.329c2.271-1.981,4.14,0.301,4.14,0.301S200.753,93.761,202.804,96.203z"/>
		</g>
		<g>
			<g>
				<g>
					<line fill="none" stroke="#ED1C24" stroke-width="0.5689" x1="209.523" y1="156.491" x2="221.581" y2="156.491"/>
					<g>
						<polygon fill="#ED1C24" points="220.454,158.145 226.621,156.491 220.454,154.838 						"/>
					</g>
				</g>
			</g>
			<g>
				<g>
					<line fill="none" stroke="#ED1C24" stroke-width="0.5689" x1="209.461" y1="156.489" x2="209.461" y2="143.995"/>
					<g>
						<polygon fill="#ED1C24" points="211.114,145.123 209.461,138.955 207.808,145.123 						"/>
					</g>
				</g>
			</g>
			<g>
				<path stroke="#000000" stroke-width="0.5689" stroke-miterlimit="1" d="M209.461,152.654c-2.121,0-3.84,1.721-3.84,3.837h3.84
					V152.654z"/>
				
					<path fill="#FFFFFF" stroke="#010101" stroke-width="0.4267" stroke-linecap="round" stroke-linejoin="round" stroke-miterlimit="1" d="
					M205.621,156.491c0,2.126,1.719,3.843,3.84,3.843v-3.843H205.621z"/>
				<path stroke="#000000" stroke-width="0.5689" stroke-miterlimit="1" d="M209.461,160.334c2.123,0,3.841-1.717,3.841-3.843
					h-3.841V160.334z"/>
				
					<path fill="#FFFFFF" stroke="#010101" stroke-width="0.4267" stroke-linecap="round" stroke-linejoin="round" stroke-miterlimit="1" d="
					M209.461,156.491h3.841c0-2.116-1.718-3.837-3.841-3.837V156.491z"/>
			</g>
		</g>
		<g>
			<g>
				<g>
					<line fill="none" stroke="#0DB14B" stroke-width="0.5418" x1="245.018" y1="110.949" x2="245.018" y2="99.465"/>
					<g>
						<polygon fill="#0DB14B" points="246.592,100.539 245.018,94.665 243.443,100.539 						"/>
					</g>
				</g>
			</g>
			<g>
				<g>
					<line fill="none" stroke="#0DB14B" stroke-width="0.5418" x1="244.365" y1="110.949" x2="232.464" y2="110.949"/>
					<g>
						<polygon fill="#0DB14B" points="233.538,109.375 227.664,110.949 233.538,112.523 						"/>
					</g>
				</g>
			</g>
			<g>
				<path stroke="#000000" stroke-width="0.5418" stroke-miterlimit="1" d="M241.359,111.008c0,2.02,1.637,3.656,3.658,3.656v-3.656
					H241.359z"/>
				
					<path fill="#FFFFFF" stroke="#010101" stroke-width="0.4064" stroke-linecap="round" stroke-linejoin="round" stroke-miterlimit="1" d="
					M245.018,114.664c2.021,0,3.657-1.637,3.657-3.656h-3.657V114.664z"/>
				<path stroke="#000000" stroke-width="0.5418" stroke-miterlimit="1" d="M248.675,111.008c0-2.021-1.636-3.658-3.657-3.658v3.658
					H248.675z"/>
				
					<path fill="#FFFFFF" stroke="#010101" stroke-width="0.4064" stroke-linecap="round" stroke-linejoin="round" stroke-miterlimit="1" d="
					M245.018,111.008v-3.658c-2.021,0-3.658,1.637-3.658,3.658H245.018z"/>
			</g>
		</g>
		<g>
			<path fill="#8A8C8E" stroke="#000000" stroke-linejoin="bevel" d="M350.479,64.884c0,0,2.96-2.52,0.592-5.233
				c-0.977-1.12-3.021-1.664-3.021-1.664l0,0c-4.395,2.494-4.885,2.457-4.885,2.457l-8.249,2.062c0,0-2.602,6.559-2.625,8.812
				c-0.023,2.253-0.671,78.174-0.671,78.799s1.217,3.03,3.115,3.018c1.897-0.014,2.306-5.012,2.306-5.012l3.251-55.724
				c1.922-7.128,5.296-19.481,6.214-21.613C347.826,67.716,348.841,66.521,350.479,64.884z"/>
			<path fill="none" stroke="#4D4D4F" stroke-linecap="round" d="M334.423,152.053c1.684-0.303,1.897-4.74,1.897-4.74l3.251-55.184
				c2.191-6.857,4.936-19.211,5.854-21.343c1.321-3.07,2.549-4.5,4.187-6.137"/>
			<path fill="none" stroke="#A6A6A6" stroke-width="2" stroke-linecap="round" stroke-linejoin="bevel" d="M348.049,59.244
				l-4.692,2.35l-7.637,1.708c0,0-2.332,6.289-2.354,8.543c-0.023,2.254-0.672,77.364-0.672,77.989c0,0.624,0.521,1.775,1.961,2.219
				"/>
			<path fill="#FFF200" stroke="#000000" d="M350.479,64.884c0,0,2.938-2.663,0.57-5.377c-0.978-1.12-3-1.521-3-1.521l0,0
				l4.198-2.892c0,0,2.346-1.093,4.328,1.176c1.98,2.271-0.301,4.14-0.301,4.14S352.921,62.833,350.479,64.884z"/>
		</g>
		<g>
			<g>
				<g>
					<line fill="none" stroke="#ED1C24" stroke-width="0.5689" x1="317.521" y1="156.491" x2="329.577" y2="156.491"/>
					<g>
						<polygon fill="#ED1C24" points="328.449,158.145 334.617,156.491 328.449,154.838 						"/>
					</g>
				</g>
			</g>
			<g>
				<g>
					<line fill="none" stroke="#ED1C24" stroke-width="0.5689" x1="317.46" y1="156.489" x2="317.46" y2="143.995"/>
					<g>
						<polygon fill="#ED1C24" points="319.113,145.123 317.46,138.955 315.807,145.123 						"/>
					</g>
				</g>
			</g>
			<g>
				<path stroke="#000000" stroke-width="0.5689" stroke-miterlimit="1" d="M317.46,152.654c-2.121,0-3.84,1.721-3.84,3.837h3.84
					V152.654z"/>
				
					<path fill="#FFFFFF" stroke="#010101" stroke-width="0.4267" stroke-linecap="round" stroke-linejoin="round" stroke-miterlimit="1" d="
					M313.62,156.491c0,2.126,1.719,3.843,3.84,3.843v-3.843H313.62z"/>
				<path stroke="#000000" stroke-width="0.5689" stroke-miterlimit="1" d="M317.46,160.334c2.122,0,3.84-1.717,3.84-3.843h-3.84
					V160.334z"/>
				
					<path fill="#FFFFFF" stroke="#010101" stroke-width="0.4267" stroke-linecap="round" stroke-linejoin="round" stroke-miterlimit="1" d="
					M317.46,156.491h3.84c0-2.116-1.718-3.837-3.84-3.837V156.491z"/>
			</g>
		</g>
		<g>
			<g>
				<g>
					<line fill="none" stroke="#0DB14B" stroke-width="0.5418" x1="335.734" y1="107.098" x2="347.217" y2="107.098"/>
					<g>
						<polygon fill="#0DB14B" points="346.143,108.672 352.017,107.098 346.143,105.523 						"/>
					</g>
				</g>
			</g>
			<g>
				<g>
					<line fill="none" stroke="#0DB14B" stroke-width="0.5418" x1="335.734" y1="106.445" x2="335.734" y2="94.544"/>
					<g>
						<polygon fill="#0DB14B" points="337.309,95.618 335.734,89.744 334.16,95.618 						"/>
					</g>
				</g>
			</g>
			<g>
				<path stroke="#000000" stroke-width="0.5418" stroke-miterlimit="1" d="M335.676,103.439c-2.021,0-3.656,1.637-3.656,3.658
					h3.656V103.439z"/>
				
					<path fill="#FFFFFF" stroke="#010101" stroke-width="0.4064" stroke-linecap="round" stroke-linejoin="round" stroke-miterlimit="1" d="
					M332.02,107.098c0,2.021,1.636,3.657,3.656,3.657v-3.657H332.02z"/>
				<path stroke="#000000" stroke-width="0.5418" stroke-miterlimit="1" d="M335.676,110.755c2.021,0,3.657-1.636,3.657-3.657
					h-3.657V110.755z"/>
				
					<path fill="#FFFFFF" stroke="#010101" stroke-width="0.4064" stroke-linecap="round" stroke-linejoin="round" stroke-miterlimit="1" d="
					M335.676,107.098h3.657c0-2.021-1.636-3.658-3.657-3.658V107.098z"/>
			</g>
		</g>
		<g>
			<g>
				<g>
					<line fill="none" stroke="#0DB14B" stroke-width="0.5418" x1="118.048" y1="231.791" x2="129.532" y2="231.791"/>
					<g>
						<polygon fill="#0DB14B" points="128.458,233.365 134.333,231.791 128.458,230.217 						"/>
					</g>
				</g>
			</g>
			<g>
				<g>
					<line fill="none" stroke="#0DB14B" stroke-width="0.5418" x1="118.048" y1="231.139" x2="118.048" y2="219.237"/>
					<g>
						<polygon fill="#0DB14B" points="119.623,220.312 118.048,214.438 116.474,220.312 						"/>
					</g>
				</g>
			</g>
			<g>
				<path stroke="#000000" stroke-width="0.5418" stroke-miterlimit="1" d="M117.99,228.133c-2.021,0-3.657,1.637-3.657,3.658h3.657
					V228.133z"/>
				
					<path fill="#FFFFFF" stroke="#010101" stroke-width="0.4064" stroke-linecap="round" stroke-linejoin="round" stroke-miterlimit="1" d="
					M114.333,231.791c0,2.021,1.637,3.658,3.657,3.658v-3.658H114.333z"/>
				<path stroke="#000000" stroke-width="0.5418" stroke-miterlimit="1" d="M117.99,235.449c2.021,0,3.658-1.637,3.658-3.658h-3.658
					V235.449z"/>
				
					<path fill="#FFFFFF" stroke="#010101" stroke-width="0.4064" stroke-linecap="round" stroke-linejoin="round" stroke-miterlimit="1" d="
					M117.99,231.791h3.658c0-2.021-1.636-3.658-3.658-3.658V231.791z"/>
			</g>
		</g>
		<path fill="none" stroke="#4D4D4F" d="M449.543,81.983c5.225-4.385,12.396-9.563,12.396-9.563s4.88-3.997,0.644-8.853
			c-4.239-4.851-9.255-2.517-9.255-2.517l-8.979,6.186l0,0l0,0c-9.397,5.333-10.448,5.254-10.448,5.254l-17.641,4.41
			c0,0-5.565,14.025-5.613,18.845c-0.051,4.817-1.435,113.282-1.435,114.619s2.602,6.478,6.661,6.453
			c4.06-0.029,4.933-10.717,4.933-10.717l6.951-65.276c4.11-15.242,11.325-41.658,13.29-46.22
			C443.871,88.039,446.043,85.487,449.543,81.983z"/>
		<path fill="none" stroke="#4D4D4F" d="M449.664,81.361c5.225-4.386,12.396-9.564,12.396-9.564s4.881-3.997,0.644-8.854
			c-4.239-4.85-9.255-2.515-9.255-2.515l-8.979,6.186l0,0l0,0c-9.397,5.333-10.448,5.254-10.448,5.254l-17.641,4.41
			c0,0-5.563,14.024-5.613,18.845c-0.051,4.815-1.435,128.673-1.435,130.01c0,1.336,2.604,6.481,6.663,6.452
			c4.058-0.029,4.931-10.717,4.931-10.717l6.951-80.669c4.11-15.24,11.325-41.656,13.29-46.217
			C443.992,87.417,446.164,84.865,449.664,81.361z"/>
		<path fill="none" stroke="#4D4D4F" d="M449.785,81.984c5.223-4.385,15.993-13.165,15.993-13.165s4.878-3.998,0.644-8.852
			c-4.239-4.853-9.256-2.516-9.256-2.516l-12.576,9.783l0,0l0,0c-9.397,5.334-10.445,5.254-10.445,5.254l-17.64,4.41
			c0,0-5.563,14.026-5.613,18.845s-1.435,167.164-1.435,168.501s2.602,6.479,6.661,6.453c4.058-0.029,4.931-10.718,4.931-10.718
			l6.952-119.156c4.109-15.242,11.324-41.658,13.287-46.218C444.113,88.041,446.283,85.486,449.785,81.984z"/>
		<path fill="none" stroke="#4D4D4F" d="M459.718,74.233c5.223-4.385,12.396-9.565,12.396-9.565s4.878-3.997,0.644-8.851
			c-4.239-4.853-9.258-2.517-9.258-2.517l-8.978,6.184l-3.6,2.881l-17.335,8.601l-17.642,4.051c0,0-5.564,14.026-5.612,18.844
			c-0.051,4.82-1.436,144.069-1.436,145.406c0,1.336,2.603,6.481,6.662,6.452s4.933-10.717,4.933-10.717l7.262-96.11
			c4.109-15.244,11.448-40.349,13.413-44.909C443.992,87.417,456.216,77.735,459.718,74.233z"/>
		<g>
			<g>
				<g>
					<line fill="none" stroke="#0DB14B" x1="417.172" y1="172.368" x2="443.136" y2="172.368"/>
					<g>
						<polygon fill="#0DB14B" points="441.154,175.273 451.995,172.368 441.154,169.463 						"/>
					</g>
				</g>
			</g>
			<g>
				<g>
					<line fill="none" stroke="#0DB14B" x1="417.172" y1="170.973" x2="417.172" y2="144.119"/>
					<g>
						<polygon fill="#0DB14B" points="420.077,146.101 417.172,135.26 414.267,146.101 						"/>
					</g>
				</g>
			</g>
			<g>
				<path stroke="#000000" stroke-miterlimit="1" d="M417.046,164.545c-4.318,0-7.818,3.5-7.818,7.823h7.818V164.545z"/>
				<path fill="#FFFFFF" stroke="#010101" stroke-linecap="round" stroke-linejoin="round" stroke-miterlimit="1" d="
					M409.228,172.368c0,4.322,3.5,7.822,7.818,7.822v-7.822H409.228z"/>
				<path stroke="#000000" stroke-miterlimit="1" d="M417.046,180.19c4.323,0,7.823-3.5,7.823-7.822h-7.823V180.19z"/>
				<path fill="#FFFFFF" stroke="#010101" stroke-linecap="round" stroke-linejoin="round" stroke-miterlimit="1" d="
					M417.046,172.368h7.823c0-4.323-3.5-7.823-7.823-7.823V172.368z"/>
			</g>
		</g>
		<text transform="matrix(1 0 0 1 198.146 31.061)" font-size="12">Shaft Length</text>
		<text transform="matrix(1 0 0 1 39.8081 165.5)"><tspan x="0" y="0" font-size="12">Neck</tspan><tspan x="-4.682" y="14.399" font-size="12">Length</tspan></text>
	</g>
</g>
</svg>
