<?xml version="1.0" encoding="utf-8"?>
<!-- $Source: /home/bbennett/pass/archive/DicomXml/docbook/part03/figures/PS3.3_C.7.2-1.svg,v $ -->
<!-- $Date: 2014/05/09 12:27:10 $ -->
<!-- $Revision: 1.2 $ -->

<!DOCTYPE svg PUBLIC "-//W3C//DTD SVG 1.1//EN" "http://www.w3.org/Graphics/SVG/1.1/DTD/svg11.dtd">
<svg version="1.1" id="Layer_1" xmlns="http://www.w3.org/2000/svg" xmlns:xlink="http://www.w3.org/1999/xlink" x="0px" y="0px"
	 width="502px" height="257px" viewBox="0 0 502 257" enable-background="new 0 0 502 257" xml:space="preserve">

<defs>
	<style type="text/css">
	text {
	  font-family: Helvetica, Verdana, ArialUnicodeMS, san-serif
	}
	</style>
</defs>

<g>
   <desc>
	PS 3.3 Part 3: Information Object Definitions
   </desc>
</g>

<g>
	<rect x="1" y="1" fill="#F5EED6" width="500" height="255"/>
	<g>
		<g>
			<g>
				
					<rect x="141.249" y="139.914" fill="#86B2D8" stroke="#010101" stroke-width="0.75" stroke-linecap="round" stroke-linejoin="round" stroke-miterlimit="1" width="125.994" height="17.987"/>
			</g>
			<g>
				<text transform="matrix(1 0 0 1 147.5576 152.25)" font-size="12">Performing Physician</text>
			</g>
		</g>
		<g>
			<g>
				
					<rect x="141.249" y="85.914" fill="#86B2D8" stroke="#010101" stroke-width="0.75" stroke-linecap="round" stroke-linejoin="round" stroke-miterlimit="1" width="125.994" height="18"/>
			</g>
			<g>
				<text transform="matrix(1 0.0022 -0.0022 1 150.8813 97.9678)" font-size="12">Physician of Record</text>
			</g>
		</g>
		<g>
			
				<rect x="141.249" y="31.914" fill="#86B2D8" stroke="#010101" stroke-width="0.75" stroke-linecap="round" stroke-linejoin="round" stroke-miterlimit="1" width="125.994" height="18"/>
			<g>
				<text transform="matrix(1 0.0022 -0.0022 1 152.2173 44.0684)" font-size="12">Referring Physician</text>
			</g>
		</g>
		<g>
			<rect x="278.764" y="130.907" fill="#B2CEE7" width="125.995" height="36"/>
		</g>
		<g>
			<text transform="matrix(1 0 0 1 286.7666 141.9395)"><tspan x="0" y="0" font-size="9">Creates the images and</tspan><tspan x="0" y="8.133" font-size="9">evidence in a series within</tspan><tspan x="0" y="16.267" font-size="9">the study (series attribute)</tspan></text>
		</g>
		<g>
			<rect x="278.764" y="184.895" fill="#B2CEE7" width="125.995" height="36"/>
		</g>
		<g>
			<rect x="278.764" y="76.914" fill="#B2CEE7" width="125.995" height="36"/>
		</g>
		<g>
			<text transform="matrix(1 0.0022 -0.0022 1 286.7588 91.8882)"><tspan x="0" y="0" font-size="9">Responsible for primary care</tspan><tspan x="0" y="8.133" font-size="9">of Patient during study</tspan></text>
		</g>
		<rect x="278.764" y="22.914" fill="#B2CEE7" width="125.995" height="36"/>
		<g>
			<text transform="matrix(1 0.0022 -0.0022 1 286.7588 43.311)" font-size="9">Refers Patient for study</text>
		</g>
		<g>
			<text transform="matrix(1 0 0 1 286.7666 199.9922)"><tspan x="0" y="0" font-size="9">Interprets the images and</tspan><tspan x="0" y="8.134" font-size="9">evidence of the study</tspan></text>
		</g>
		<g>
			<g>
				
					<rect x="141.249" y="193.9" fill="#86B2D8" stroke="#010101" stroke-width="0.75" stroke-linecap="round" stroke-linejoin="round" stroke-miterlimit="1" width="125.994" height="17.988"/>
			</g>
			<g>
				<text transform="matrix(1 0 0 1 154.5498 205.9492)" font-size="12">Reading Physician</text>
			</g>
		</g>
		<g>
			<g>
				
					<line fill="none" stroke="#005695" stroke-width="2" stroke-miterlimit="1" x1="204.185" y1="157.902" x2="204.168" y2="186.812"/>
				<g>
					<polygon fill="#005695" points="201.845,185.227 204.164,193.9 206.493,185.229 					"/>
				</g>
			</g>
		</g>
		<g>
			<g>
				
					<line fill="none" stroke="#005695" stroke-width="2" stroke-miterlimit="1" x1="204.205" y1="103.914" x2="204.205" y2="132.826"/>
				<g>
					<polygon fill="#005695" points="201.881,131.241 204.205,139.914 206.529,131.241 					"/>
				</g>
			</g>
		</g>
		<g>
			<g>
				
					<line fill="none" stroke="#005695" stroke-width="2" stroke-miterlimit="1" x1="204.246" y1="49.914" x2="204.229" y2="78.827"/>
				<g>
					<polygon fill="#005695" points="201.906,77.24 204.226,85.914 206.555,77.243 					"/>
				</g>
			</g>
		</g>
		<g>
			<g>
				<polyline fill="none" stroke="#005695" stroke-width="2" stroke-miterlimit="1" points="180.742,78.827 180.742,67.914 
					116.992,67.914 116.992,223.625 180.742,223.625 180.742,211.889 				"/>
				<g>
					<polygon fill="#005695" points="183.066,77.241 180.742,85.914 178.418,77.241 					"/>
				</g>
			</g>
		</g>
		<g>
			<g>
				<polyline fill="none" stroke="#005695" stroke-width="2" stroke-miterlimit="1" points="204.247,24.827 204.247,15.625 
					97.242,15.625 97.242,241.375 204.247,241.375 204.247,211.889 				"/>
				<g>
					<polygon fill="#005695" points="206.571,23.241 204.247,31.914 201.923,23.241 					"/>
				</g>
			</g>
		</g>
	</g>
</g>
</svg>
