<?xml version="1.0" encoding="utf-8"?>
<!-- $Source: /home/bbennett/pass/archive/DicomXml/docbook/part03/figures/PS3.3_7-2b.svg,v $ -->
<!-- $Date: 2014/05/09 12:30:19 $ -->
<!-- $Revision: 1.2 $ -->

<!DOCTYPE svg PUBLIC "-//W3C//DTD SVG 1.1//EN" "http://www.w3.org/Graphics/SVG/1.1/DTD/svg11.dtd">
<svg version="1.1" id="Layer_1" xmlns="http://www.w3.org/2000/svg" xmlns:xlink="http://www.w3.org/1999/xlink" x="0px" y="0px"
	 width="502px" height="272px" viewBox="0 0 502 272" enable-background="new 0 0 502 272" xml:space="preserve">

<defs>
	<style type="text/css">
	text {
	  font-family: Helvetica, Verdana, ArialUnicodeMS, san-serif
	}
	</style>
</defs>

<g>
   <desc>
	PS 3.3 Part 3: Information Object Definitions
   </desc>
</g>

<g>
	<rect x="1" y="1" fill="#F5EED6" width="500" height="270"/>
	<g>
		<g>
			<g>
				<polyline fill="none" stroke="#005695" stroke-width="2" stroke-linejoin="round" points="185.154,215.707 185.154,224.895 
					257.731,224.895 257.731,231.947 				"/>
				<g>
					<polygon fill="#005695" points="255.407,230.362 257.731,239.035 260.056,230.362 					"/>
				</g>
			</g>
		</g>
		<g>
			<g>
				
					<line fill="none" stroke="#005695" stroke-width="2" stroke-linejoin="round" x1="74.118" y1="145.418" x2="74.118" y2="156.145"/>
				<g>
					<polygon fill="#005695" points="71.794,154.56 74.118,163.232 76.442,154.56 					"/>
				</g>
			</g>
		</g>
		<g>
			<g>
				
					<line fill="none" stroke="#005695" stroke-width="2" stroke-linejoin="round" x1="185.23" y1="145.418" x2="185.23" y2="156.144"/>
				<g>
					<polygon fill="#005695" points="182.906,154.559 185.23,163.231 187.555,154.559 					"/>
				</g>
			</g>
		</g>
		<g>
			<g>
				
					<line fill="none" stroke="#005695" stroke-width="2" stroke-linejoin="round" x1="295.062" y1="145.418" x2="295.062" y2="231.947"/>
				<g>
					<polygon fill="#005695" points="292.738,230.362 295.062,239.035 297.387,230.362 					"/>
				</g>
			</g>
		</g>
		<g>
			<g>
				<line fill="none" stroke="#005695" stroke-width="2" stroke-linejoin="round" x1="185.23" y1="67.93" x2="185.23" y2="79.596"/>
				<g>
					<polygon fill="#005695" points="182.906,78.011 185.23,86.684 187.555,78.011 					"/>
				</g>
			</g>
		</g>
		<g>
			<g>
				
					<line fill="none" stroke="#005695" stroke-width="2" stroke-linejoin="round" x1="185.23" y1="32.957" x2="185.23" y2="42.842"/>
				<g>
					<polygon fill="#005695" points="182.906,41.257 185.23,49.93 187.555,41.257 					"/>
				</g>
			</g>
		</g>
		<g>
			<g>
				
					<line fill="none" stroke="#005695" stroke-width="2" stroke-linejoin="round" x1="185.23" y1="104.059" x2="185.23" y2="120.331"/>
				<g>
					<polygon fill="#005695" points="182.906,118.745 185.23,127.418 187.555,118.745 					"/>
				</g>
			</g>
		</g>
		<g>
			<g>
				<polyline fill="none" stroke="#005695" stroke-width="2" stroke-linejoin="round" points="151.798,104.684 151.798,112.558 
					74.18,112.558 74.18,120.331 				"/>
				<g>
					<polygon fill="#005695" points="71.855,118.745 74.18,127.418 76.504,118.745 					"/>
				</g>
			</g>
		</g>
		<g>
			<g>
				<polyline fill="none" stroke="#005695" stroke-width="2" stroke-linejoin="round" points="215.566,104.684 215.566,112.558 
					294.62,112.558 294.62,120.098 				"/>
				<g>
					<polygon fill="#005695" points="292.296,118.513 294.62,127.186 296.944,118.513 					"/>
				</g>
			</g>
		</g>
		<g>
			<g>
				
					<line fill="none" stroke="#005695" stroke-width="2" stroke-linejoin="round" x1="420.877" y1="145.802" x2="420.877" y2="158.305"/>
				<g>
					<polygon fill="#005695" points="418.553,156.72 420.877,165.393 423.201,156.72 					"/>
				</g>
			</g>
		</g>
		<g>
			<g>
				
					<line fill="none" stroke="#005695" stroke-width="2" stroke-linejoin="round" x1="420.717" y1="104.462" x2="420.717" y2="120.714"/>
				<g>
					<polygon fill="#005695" points="418.393,119.129 420.717,127.802 423.041,119.129 					"/>
				</g>
			</g>
		</g>
		<g>
			<g>
				
					<line fill="none" stroke="#005695" stroke-width="2" stroke-linejoin="round" x1="184.855" y1="181.231" x2="184.855" y2="190.695"/>
				<g>
					<polygon fill="#005695" points="182.531,189.11 184.855,197.783 187.18,189.11 					"/>
				</g>
			</g>
		</g>
	</g>
	
		<rect x="135.73" y="14.957" fill="#86B2D8" stroke="#010101" stroke-width="0.75" stroke-linecap="round" stroke-linejoin="round" stroke-miterlimit="1" width="99" height="18"/>
	<g>
		<text transform="matrix(1 0 0 1 138.5547 27.2832)" font-size="12">Film Session IOD</text>
	</g>
	
		<polygon fill="#CCDEF0" stroke="#010101" stroke-width="0.75" stroke-linecap="round" stroke-linejoin="round" stroke-miterlimit="1" points="
		29.112,136.279 74.046,127.418 119.112,136.407 119.112,136.428 74.046,145.418 	"/>
	<g>
		<text transform="matrix(1 0 0 1 57.3506 138.917)" font-size="9">contains</text>
	</g>
	
		<rect x="213.512" y="239.035" fill="#86B2D8" stroke="#010101" stroke-width="0.75" stroke-linecap="round" stroke-linejoin="round" stroke-miterlimit="1" width="125.998" height="18.008"/>
	<g>
		<text transform="matrix(1 0 0 1 217.4868 251.3525)" font-size="12">Presentation LUT IOD</text>
	</g>
	<g>
		<text transform="matrix(1 0 0 1 95.3574 127.4629)" font-size="9">1-n</text>
	</g>
	
		<polygon fill="#CCDEF0" stroke="#010101" stroke-width="0.75" stroke-linecap="round" stroke-linejoin="round" stroke-miterlimit="1" points="
		140.23,136.279 185.164,127.418 230.23,136.407 230.23,136.428 185.164,145.418 	"/>
	<g>
		<text transform="matrix(1 0 0 1 163.9683 138.917)" font-size="9">references</text>
	</g>
	<g>
		<text transform="matrix(1 0 0 1 205.4941 127.4629)" font-size="9">1</text>
	</g>
	<g>
		<text transform="matrix(1 0 0 1 205.4932 150.1885)" font-size="9">1-n</text>
	</g>
	<g>
		<text transform="matrix(1 0 0 1 95.3574 150.1885)" font-size="9">0-n</text>
	</g>
	
		<polygon fill="#CCDEF0" stroke="#010101" stroke-width="0.75" stroke-linecap="round" stroke-linejoin="round" stroke-miterlimit="1" points="
		250.023,136.279 294.952,127.418 340.018,136.407 340.018,136.428 294.952,145.418 	"/>
	<g>
		<text transform="matrix(1 0 0 1 276.5098 138.917)" font-size="9">relates to</text>
	</g>
	<g>
		<text transform="matrix(1 0 0 1 315.2832 127.4629)" font-size="9">1-n</text>
	</g>
	<g>
		<text transform="matrix(1 0 0 1 315.2842 150.1885)" font-size="9">0-1</text>
	</g>
	
		<rect x="373.22" y="165.394" fill="#86B2D8" stroke="#010101" stroke-width="0.75" stroke-linecap="round" stroke-linejoin="round" stroke-miterlimit="1" width="99" height="18"/>
	<g>
		<text transform="matrix(1 0 0 1 386.709 177.7178)" font-size="12">Print Job IOD</text>
	</g>
	
		<rect x="28.359" y="163.232" fill="#86B2D8" stroke="#010101" stroke-width="0.75" stroke-linecap="round" stroke-linejoin="round" stroke-miterlimit="1" width="99" height="18"/>
	<g>
		<text transform="matrix(1 0 0 1 36.8438 175.5576)" font-size="12">Annotation IOD</text>
	</g>
	
		<polygon fill="#CCDEF0" stroke="#010101" stroke-width="0.75" stroke-linecap="round" stroke-linejoin="round" stroke-miterlimit="1" points="
		375.711,136.663 420.645,127.802 465.711,136.791 465.711,136.812 420.645,145.802 	"/>
	<g>
		<text transform="matrix(1 0 0 1 409.7021 139.3115)" font-size="9">prints</text>
	</g>
	<g>
		<text transform="matrix(1 0 0 1 442.6738 127.8584)" font-size="9">1</text>
	</g>
	<g>
		<text transform="matrix(1 0 0 1 441.9531 150.583)" font-size="9">1-n</text>
	</g>
	
		<polygon fill="#CCDEF0" stroke="#010101" stroke-width="0.75" stroke-linecap="round" stroke-linejoin="round" stroke-miterlimit="1" points="
		140.235,206.651 185.16,197.784 230.225,206.778 230.225,206.8 185.16,215.797 	"/>
	<g>
		<text transform="matrix(1 0 0 1 166.729 209.2949)" font-size="9">relates to</text>
	</g>
	<g>
		<text transform="matrix(1 0 0 1 205.5039 197.8408)" font-size="9">1-n</text>
	</g>
	<g>
		<text transform="matrix(1 0 0 1 205.5039 220.5654)" font-size="9">0-1</text>
	</g>
	
		<polygon fill="#CCDEF0" stroke="#010101" stroke-width="0.75" stroke-linecap="round" stroke-linejoin="round" stroke-miterlimit="1" points="
		140.23,58.792 185.164,49.93 230.23,58.92 230.23,58.94 185.164,67.93 	"/>
	<g>
		<text transform="matrix(1 0 0 1 163.9648 61.4287)" font-size="9">references</text>
	</g>
	<g>
		<text transform="matrix(1 0 0 1 207.1934 49.9746)" font-size="9">1</text>
	</g>
	<g>
		<text transform="matrix(1 0 0 1 206.4727 72.7002)" font-size="9">0-n</text>
	</g>
	
		<rect x="135.73" y="86.684" fill="#86B2D8" stroke="#010101" stroke-width="0.75" stroke-linecap="round" stroke-linejoin="round" stroke-miterlimit="1" width="99" height="18"/>
	<g>
		<text transform="matrix(1 0 0 1 149.5654 99.0107)" font-size="12">Film Box IOD</text>
	</g>
	
		<rect x="374.642" y="86.684" fill="#86B2D8" stroke="#010101" stroke-width="0.75" stroke-linecap="round" stroke-linejoin="round" stroke-miterlimit="1" width="99" height="18"/>
	<g>
		<text transform="matrix(1 0 0 1 394.1357 98.8223)" font-size="12">Printer IOD</text>
	</g>
	
		<rect x="135.73" y="163.232" fill="#86B2D8" stroke="#010101" stroke-width="0.75" stroke-linecap="round" stroke-linejoin="round" stroke-miterlimit="1" width="99" height="18"/>
	<g>
		<text transform="matrix(1 0 0 1 144.2139 175.5381)" font-size="12">Image Box IOD</text>
	</g>
</g>
</svg>
