<?xml version="1.0" encoding="utf-8"?>
<!-- $Source: /home/bbennett/pass/archive/DicomXml/docbook/part03/figures/PS3.3_C.8.8.25-6.svg,v $ -->
<!-- $Date: 2014/05/09 12:30:19 $ -->
<!-- $Revision: 1.2 $ -->

<!DOCTYPE svg PUBLIC "-//W3C//DTD SVG 1.1//EN" "http://www.w3.org/Graphics/SVG/1.1/DTD/svg11.dtd">
<svg version="1.1" id="Layer_1" xmlns="http://www.w3.org/2000/svg" xmlns:xlink="http://www.w3.org/1999/xlink" x="0px" y="0px"
	 width="502px" height="392px" viewBox="0 0 502 392" enable-background="new 0 0 502 392" xml:space="preserve">

<defs>
	<style type="text/css">
	text {
	  font-family: Helvetica, Verdana, ArialUnicodeMS, san-serif
	}
	</style>
</defs>

<g>
   <desc>
	PS 3.3 Part 3: Information Object Definitions
   </desc>
</g>

<g>
	<rect x="1" y="1" fill="#F5EED6" width="500" height="390"/>
	<g>
		<g>
			<path fill="#FFFFFF" stroke="#000000" stroke-linecap="round" stroke-linejoin="round" d="M170.3,175.993
				c0-35.029-28.403-63.419-63.426-63.419c-35.035,0-63.433,28.39-63.433,63.419c0,35.042,28.397,63.432,63.433,63.432
				C141.897,239.425,170.3,211.035,170.3,175.993z"/>
			<text transform="matrix(1 0 0 1 361.4414 115.8804)"><tspan x="0" y="0" font-size="14">Ψ</tspan><tspan x="11.45" y="7" font-size="14">Light</tspan></text>
			<g>
				<g>
					<polyline fill="none" stroke="#005695" stroke-width="2" points="359.781,110.876 349.971,110.876 279.427,151.609 					"/>
					<g>
						<polygon fill="#005695" points="279.638,148.804 273.289,155.153 281.962,152.83 						"/>
					</g>
				</g>
			</g>
			<text transform="matrix(1 0 0 1 85.9014 191.9668)"><tspan x="0" y="0" font-size="12">d</tspan><tspan x="7.087" y="5" font-size="9">w</tspan></text>
			<g>
				<text transform="matrix(1 0 0 1 338.6455 198.4805)"><tspan x="0" y="0" font-size="12">Virtual Source</tspan><tspan x="16.339" y="14.4" font-size="12">Position</tspan></text>
			</g>
			<g>
				<text transform="matrix(1 0 0 1 229.3193 265.9805)" font-size="12">Wedge</text>
			</g>
			<polygon fill="#747578" stroke="#000000" stroke-linecap="round" stroke-linejoin="round" points="252.523,250.278 
				246.314,193.864 246.314,250.278 			"/>
			<g>
				<g>
					<line fill="none" stroke="#000000" x1="106.875" y1="182.688" x2="106.875" y2="204.569"/>
					<g>
						<polygon points="105.131,183.877 106.875,177.373 108.618,183.877 						"/>
					</g>
					<g>
						<polygon points="105.131,203.38 106.875,209.885 108.618,203.38 						"/>
					</g>
				</g>
			</g>
			<g>
				<g>
					<line fill="none" stroke="#0DB14B" stroke-width="2" x1="106.875" y1="175.993" x2="106.875" y2="44.204"/>
					<g>
						<polygon fill="#0DB14B" points="110.361,46.581 106.875,33.572 103.388,46.581 						"/>
					</g>
				</g>
			</g>
			
				<line fill="none" stroke="#000000" stroke-linecap="round" stroke-linejoin="round" stroke-dasharray="2" x1="106.874" y1="209.885" x2="419.793" y2="170.074"/>
			
				<line fill="none" stroke="#000000" stroke-linecap="round" stroke-linejoin="round" stroke-dasharray="2" x1="106.874" y1="176.269" x2="296.342" y2="114.044"/>
			<g>
				<g>
					
						<line fill="none" stroke="#00AEEF" stroke-width="2" stroke-linejoin="round" x1="106.874" y1="175.993" x2="429.881" y2="175.993"/>
					<g>
						<polygon fill="#00AEEF" points="427.503,179.479 440.512,175.993 427.503,172.506 						"/>
					</g>
				</g>
			</g>
			<path fill="none" stroke="#000000" stroke-linecap="round" stroke-linejoin="round" d="M370.463,175.993
				c0-2.443,1.992-4.437,4.449-4.437s4.436,1.993,4.436,4.437c0,2.456-1.979,4.449-4.436,4.449S370.463,178.449,370.463,175.993z"/>
			<path fill="#FFF200" stroke="#000000" stroke-linecap="round" stroke-linejoin="round" d="M283.971,114.052
				c0-6.834,5.545-12.38,12.379-12.38c6.818,0,12.365,5.546,12.365,12.38s-5.547,12.364-12.365,12.364
				C289.516,126.417,283.971,120.886,283.971,114.052z"/>
			
				<line fill="none" stroke="#000000" stroke-linecap="round" stroke-linejoin="round" x1="141.872" y1="123.096" x2="168.289" y2="191.902"/>
			<path fill="#808285" stroke="#333333" stroke-linecap="round" stroke-linejoin="round" d="M153.777,133.304
				c0,0,7.626,6.897,12.548,20.541s3.858,22.192,3.858,22.192L153.777,133.304z"/>
			<path fill="none" stroke="#0DB14B" stroke-width="2" stroke-linecap="round" d="M106.871,176"/>
			<text transform="matrix(1 0 0 1 101.7202 27.6411)"><tspan x="0" y="0" fill="#0DB14B" font-size="12">Y</tspan><tspan x="8.499" y="5" fill="#0DB14B" font-size="9">b</tspan></text>
			<text transform="matrix(1 0 0 1 445.3906 178.8081)"><tspan x="0" y="0" fill="#00AEEF" font-size="12">Z</tspan><tspan x="8.162" y="5" fill="#00AEEF" font-size="9">b</tspan></text>
			<g>
				<g>
					<path fill="none" stroke="#000000" d="M273.582,175.993c1.866-16.562-1.415-31.685-8.645-44.994"/>
					<g>
						<polygon points="267.013,131.175 262.248,126.417 263.995,132.92 						"/>
					</g>
				</g>
			</g>
			<g>
				<text transform="matrix(1 0 0 1 293.5264 117.9268)" font-size="12">L</text>
			</g>
		</g>
		<g>
			<rect x="14.281" y="284.993" fill="#FFFFFF" width="473.438" height="90"/>
			<rect x="348.74" y="284.993" fill="#CCDEF0" width="138.979" height="90"/>
			<path fill="#FFFFFF" stroke="#000000" stroke-linecap="round" stroke-linejoin="round" d="M380.59,336.905
				c0-8.043,6.518-14.561,14.557-14.561s14.555,6.518,14.555,14.561c0,8.037-6.516,14.555-14.555,14.555
				S380.59,344.942,380.59,336.905z"/>
			<text transform="matrix(1 0 0 1 475.5479 367.25)"><tspan x="0" y="0" fill="#00AEEF" font-size="7.1366">Z</tspan><tspan x="4.855" y="2.974" fill="#00AEEF" font-size="5.3524">b</tspan></text>
			<text transform="matrix(1 0 0 1 353.6289 350.7959)"><tspan x="0" y="0" fill="#ED1C24" font-size="7.1366">X</tspan><tspan x="5.055" y="2.974" fill="#ED1C24" font-size="5.3524">b</tspan></text>
			<text transform="matrix(1 0 0 1 392.4844 294.2969)"><tspan x="0" y="0" fill="#0DB14B" font-size="7.1366">Y</tspan><tspan x="5.055" y="2.975" fill="#0DB14B" font-size="5.3524">b</tspan></text>
			<polygon fill="#E6E7E8" stroke="#000000" stroke-linecap="round" stroke-linejoin="round" points="411.561,371.28 
				431.381,359.431 431.145,346.104 410.723,356.212 			"/>
			<polygon fill="#BCBEC0" stroke="#000000" stroke-linecap="round" stroke-linejoin="round" points="411.561,371.28 
				410.18,370.601 410.723,356.212 			"/>
			
				<ellipse transform="matrix(-0.9862 0.1654 -0.1654 -0.9862 855.7229 599.5273)" fill="none" stroke="#000000" stroke-linecap="round" stroke-linejoin="round" cx="402.897" cy="335.396" rx="6.73" ry="9.054"/>
			<path fill="#6D6E71" stroke="#000000" stroke-linecap="round" stroke-linejoin="round" d="M399.832,335.999
				c-0.414-2.473,0.855-4.754,2.842-5.088s3.932,1.404,4.35,3.883c0.412,2.475-0.857,4.752-2.844,5.088
				C402.193,340.216,400.248,338.476,399.832,335.999z"/>
			<path fill="#FFF200" stroke="#000000" stroke-linecap="round" stroke-linejoin="round" d="M431.984,332.384
				c0-2.127,1.725-3.848,3.846-3.848c2.123,0,3.848,1.721,3.848,3.848c0,2.119-1.725,3.842-3.848,3.842
				C433.709,336.226,431.984,334.503,431.984,332.384z"/>
			<g>
				<g>
					<g>
						<line fill="none" stroke="#00AEEF" stroke-linejoin="round" x1="395.146" y1="336.901" x2="468.885" y2="362.031"/>
						<g>
							<polygon fill="#00AEEF" points="467.197,363.298 473.916,363.746 468.321,359.998 							"/>
						</g>
					</g>
				</g>
			</g>
			<g>
				<g>
					<g>
						<path fill="none" stroke="#ED1C24" stroke-linejoin="round" d="M395.146,336.901c0,0-17.911,6.335-27.468,9.716"/>
						<g>
							<polygon fill="#ED1C24" points="368.217,344.577 362.666,348.39 369.38,347.864 							"/>
						</g>
					</g>
				</g>
			</g>
			<g>
				<g>
					<g>
						<line fill="none" stroke="#0DB14B" x1="395.146" y1="336.905" x2="395.146" y2="303.865"/>
						<g>
							<polygon fill="#0DB14B" points="396.89,305.055 395.146,298.55 393.403,305.055 							"/>
						</g>
					</g>
				</g>
			</g>
			
				<line fill="none" stroke="#000000" stroke-linecap="round" stroke-dasharray="1.1894" x1="395.146" y1="336.905" x2="435.83" y2="332.38"/>
			<path fill="none" stroke="#000000" stroke-linecap="round" stroke-linejoin="round" d="M454.801,357.218
				c0-0.639,0.521-1.152,1.156-1.152c0.639,0,1.156,0.514,1.156,1.152s-0.518,1.156-1.156,1.156
				C455.322,358.374,454.801,357.856,454.801,357.218z"/>
			<g>
				
					<line fill="none" stroke="#000000" stroke-linecap="round" stroke-linejoin="round" stroke-dasharray="1.1894" x1="395.146" y1="344.288" x2="455.881" y2="357.14"/>
			</g>
			
				<line fill="none" stroke="#000000" stroke-linecap="round" stroke-linejoin="round" x1="395.146" y1="336.905" x2="395.146" y2="349.614"/>
			<text transform="matrix(1 0 0 1 32.604 321.668)"><tspan x="0" y="0" font-size="10">Ψ</tspan><tspan x="6.431" y="7" font-size="7">Light</tspan></text>
			<text transform="matrix(1 0 0 1 40.8228 362.6807)"><tspan x="0" y="0" font-size="10">d</tspan><tspan x="6.17" y="5" font-size="10">w</tspan></text>
			<g>
				<text transform="matrix(1 0 0 1 23.7651 343.1738)"><tspan x="0" y="0" font-size="10">Y</tspan><tspan x="6.554" y="5" font-size="10">b</tspan></text>
				<text transform="matrix(1 0 0 1 36.6011 343.1738)"><tspan x="0" y="0" font-size="10">, Z</tspan><tspan x="12.052" y="5" font-size="10">b</tspan></text>
			</g>
			<g>
				<text transform="matrix(1 0 0 1 68.2603 307.1816)" font-size="10">Fixation Light</text>
			</g>
			<g>
				<text transform="matrix(1 0 0 1 68.2603 321.668)" font-size="10">Fixation light polar angle</text>
			</g>
			<g>
				<text transform="matrix(1 0 0 1 68.2603 343.1738)" font-size="10">axes of the IEC BEAM LIMITING DEVICE coordinate system</text>
			</g>
			<g>
				<text transform="matrix(1 0 0 1 68.2603 365.1807)" font-size="10">Wedge thin edge position</text>
			</g>
			<g>
				<text transform="matrix(1 0 0 1 48.6523 307.1816)" font-size="10">L</text>
			</g>
			<rect x="14.281" y="284.993" fill="none" stroke="#000000" stroke-width="1.2964" width="473.438" height="90"/>
			<g>
				<g>
					<path fill="none" stroke="#000000" stroke-linecap="round" stroke-linejoin="round" d="M427.021,339.001
						c-0.266,2.789-0.738,5.494-1.396,8.086"/>
					<g>
						<polygon points="425.169,340.084 427.273,333.688 428.649,340.279 						"/>
					</g>
				</g>
			</g>
		</g>
	</g>
</g>
</svg>
