<?xml version="1.0" encoding="utf-8"?>
<!-- $Source: /home/bbennett/pass/archive/DicomXml/docbook/part03/figures/PS3.3_C.17.5-1.svg,v $ -->
<!-- $Date: 2014/05/09 12:30:19 $ -->
<!-- $Revision: 1.2 $ -->

<!DOCTYPE svg PUBLIC "-//W3C//DTD SVG 1.1//EN" "http://www.w3.org/Graphics/SVG/1.1/DTD/svg11.dtd">
<svg version="1.1" id="Layer_1" xmlns="http://www.w3.org/2000/svg" xmlns:xlink="http://www.w3.org/1999/xlink" x="0px" y="0px"
	 width="502px" height="622px" viewBox="0 0 502 622" enable-background="new 0 0 502 622" xml:space="preserve">

<defs>
	<style type="text/css">
	text {
	  font-family: Helvetica, Verdana, ArialUnicodeMS, san-serif
	}
	</style>
</defs>

<g>
   <desc>
	PS 3.3 Part 3: Information Object Definitions
   </desc>
</g>

<g>
	<rect x="1" y="1" fill="#F5EED6" width="500" height="620"/>
	<g>
		<rect x="45" y="237.203" fill="#FFFFFF" width="412" height="369"/>
		<rect x="45" y="173.703" fill="#CCDEF0" width="412" height="63.5"/>
		<rect x="45" y="136.703" fill="#B2CEE7" width="412" height="37"/>
		<rect x="45" y="82.203" fill="#86B2D8" width="412" height="54.5"/>
		<rect x="45" y="15.797" fill="#6799C8" width="412" height="66.406"/>
		<text transform="matrix(1 0 0 1 53 28.1909)"><tspan x="0" y="0" font-size="9">Patient Module</tspan><tspan x="30" y="10.8" font-size="9">Patient Name</tspan><tspan x="30" y="21.6" font-size="9">Patient ID</tspan><tspan x="30" y="32.4" font-size="9">Patient Sex</tspan><tspan x="30" y="43.2" font-size="9">Patient Date Of Birth</tspan></text>
		<text transform="matrix(1 0 0 1 59 152.9912)"><tspan x="0" y="0" font-size="9">SR Document Series Module</tspan><tspan x="30" y="10.8" font-size="9">Modality</tspan></text>
		<text transform="matrix(1 0 0 1 56 101.3911)"><tspan x="0" y="0" font-size="9">General Study Module</tspan><tspan x="30" y="10.8" font-size="9">Study Instance UID</tspan><tspan x="30" y="21.6" font-size="9">Accession Number</tspan></text>
		<text transform="matrix(1 0 0 1 59 193.791)"><tspan x="0" y="0" font-size="9">SR Document General Module</tspan><tspan x="30" y="10.8" font-size="9">Referenced Request Sequence</tspan><tspan x="40" y="21.6" font-size="9">Requested Procedure ID</tspan><tspan x="40" y="32.4" font-size="9">Requested Procedure Description</tspan></text>
		<g>
			<g>
				<polyline fill="none" stroke="#005695" stroke-width="2" stroke-linecap="round" stroke-miterlimit="1" points="
					251.209,393.168 251.209,404.777 206.095,404.777 206.095,411.5 				"/>
				<g>
					<polygon fill="#005695" points="203.771,409.915 206.095,418.588 208.419,409.915 					"/>
				</g>
			</g>
		</g>
		<g>
			<g>
				<polyline fill="none" stroke="#005695" stroke-width="2" stroke-linecap="round" stroke-miterlimit="1" points="
					251.209,393.168 251.209,404.803 116.092,404.803 116.092,411.5 				"/>
				<g>
					<polygon fill="#005695" points="113.768,409.915 116.092,418.588 118.416,409.915 					"/>
				</g>
			</g>
		</g>
		<g>
			<g>
				<polyline fill="none" stroke="#005695" stroke-width="2" stroke-linecap="round" stroke-miterlimit="1" points="
					251.098,393.168 251.098,404.777 296.211,404.777 296.211,411.5 				"/>
				<g>
					<polygon fill="#005695" points="293.887,409.915 296.211,418.588 298.535,409.915 					"/>
				</g>
			</g>
		</g>
		<g>
			<g>
				<polyline fill="none" stroke="#005695" stroke-width="2" stroke-linecap="round" stroke-miterlimit="1" points="
					251.158,393.168 251.158,404.777 385.543,404.777 385.543,411.5 				"/>
				<g>
					<polygon fill="#005695" points="383.219,409.915 385.543,418.588 387.867,409.915 					"/>
				</g>
			</g>
		</g>
		<g>
			<g>
				
					<line fill="none" stroke="#005695" stroke-width="2" stroke-linecap="round" stroke-miterlimit="1" x1="251" y1="289.352" x2="251" y2="305.574"/>
				<g>
					<polygon fill="#005695" points="248.676,303.988 251,312.661 253.324,303.988 					"/>
				</g>
			</g>
		</g>
		<g>
			<g>
				
					<line fill="none" stroke="#005695" stroke-width="2" stroke-linecap="round" stroke-miterlimit="1" x1="251" y1="350.344" x2="251" y2="367.184"/>
				<g>
					<polygon fill="#005695" points="248.676,365.599 251,374.271 253.324,365.599 					"/>
				</g>
			</g>
		</g>
		<g>
			<g>
				
					<line fill="none" stroke="#005695" stroke-width="2" stroke-linecap="round" stroke-miterlimit="1" x1="116.252" y1="456.314" x2="116.252" y2="464.348"/>
				<g>
					<polygon fill="#005695" points="113.928,462.763 116.252,471.436 118.576,462.763 					"/>
				</g>
			</g>
		</g>
		
			<polygon fill="#CCDEF0" stroke="#010101" stroke-width="0.75" stroke-linecap="round" stroke-linejoin="round" stroke-miterlimit="1" points="
			75.752,437.92 116.193,420.197 156.752,438.176 156.752,438.217 116.193,456.199 		"/>
		<g>
			<text transform="matrix(1 0 0 1 90.7412 440.6836)" font-size="9">Has Obs Ctx</text>
		</g>
		
			<rect x="84.752" y="472.877" fill="#86B2D8" stroke="#010101" stroke-width="0.75" stroke-linecap="round" stroke-linejoin="round" stroke-miterlimit="1" width="63" height="18"/>
		<g>
			<text transform="matrix(1 0 0 1 96.5166 484.6387)" font-size="10">Node C1</text>
		</g>
		<g>
			<g>
				
					<line fill="none" stroke="#005695" stroke-width="2" stroke-linecap="round" stroke-miterlimit="1" x1="206.084" y1="456.314" x2="206.084" y2="464.348"/>
				<g>
					<polygon fill="#005695" points="203.76,462.763 206.084,471.436 208.408,462.763 					"/>
				</g>
			</g>
		</g>
		
			<polygon fill="#CCDEF0" stroke="#010101" stroke-width="0.75" stroke-linecap="round" stroke-linejoin="round" stroke-miterlimit="1" points="
			165.584,437.92 206.025,420.197 246.584,438.176 246.584,438.217 206.025,456.199 		"/>
		<g>
			<text transform="matrix(1 0 0 1 180.5713 440.6826)" font-size="9">Has Obs Ctx</text>
		</g>
		
			<rect x="174.584" y="472.877" fill="#86B2D8" stroke="#010101" stroke-width="0.75" stroke-linecap="round" stroke-linejoin="round" stroke-miterlimit="1" width="63" height="18"/>
		<g>
			<text transform="matrix(1 0 0 1 186.3496 484.6387)" font-size="10">Node C2</text>
		</g>
		<g>
			<g>
				
					<line fill="none" stroke="#005695" stroke-width="2" stroke-linecap="round" stroke-miterlimit="1" x1="295.916" y1="456.314" x2="295.916" y2="464.348"/>
				<g>
					<polygon fill="#005695" points="293.592,462.763 295.916,471.436 298.24,462.763 					"/>
				</g>
			</g>
		</g>
		
			<polygon fill="#CCDEF0" stroke="#010101" stroke-width="0.75" stroke-linecap="round" stroke-linejoin="round" stroke-miterlimit="1" points="
			255.416,437.92 295.855,420.197 336.416,438.176 336.416,438.217 295.855,456.199 		"/>
		<g>
			<text transform="matrix(1 0 0 1 278.1504 440.6826)" font-size="9">Contains</text>
		</g>
		
			<rect x="264.416" y="472.877" fill="#86B2D8" stroke="#010101" stroke-width="0.75" stroke-linecap="round" stroke-linejoin="round" stroke-miterlimit="1" width="63" height="18"/>
		<g>
			<text transform="matrix(1 0 0 1 279.793 484.6387)" font-size="10">Node 3</text>
		</g>
		<g>
			<g>
				
					<line fill="none" stroke="#005695" stroke-width="2" stroke-linecap="round" stroke-miterlimit="1" x1="385.748" y1="456.314" x2="385.748" y2="464.348"/>
				<g>
					<polygon fill="#005695" points="383.424,462.763 385.748,471.436 388.072,462.763 					"/>
				</g>
			</g>
		</g>
		
			<polygon fill="#CCDEF0" stroke="#010101" stroke-width="0.75" stroke-linecap="round" stroke-linejoin="round" stroke-miterlimit="1" points="
			345.248,437.92 385.688,420.197 426.248,438.176 426.248,438.217 385.688,456.199 		"/>
		<g>
			<text transform="matrix(0.9643 0 0 1 355.9844 440.7754)" font-size="9.3335">Has Properties</text>
		</g>
		
			<rect x="354.248" y="472.877" fill="#86B2D8" stroke="#010101" stroke-width="0.75" stroke-linecap="round" stroke-linejoin="round" stroke-miterlimit="1" width="63" height="18"/>
		<g>
			<text transform="matrix(1 0 0 1 369.626 484.6387)" font-size="10">Node 4</text>
		</g>
		<g>
			
				<polygon fill="#CCDEF0" stroke="#010101" stroke-width="0.75" stroke-linecap="round" stroke-linejoin="round" stroke-miterlimit="1" points="
				210.5,332.094 250.941,314.369 291.5,332.35 291.5,332.391 250.941,350.371 			"/>
			<g>
				<text transform="matrix(1 0 0 1 233.2393 334.8555)" font-size="9">Contains</text>
			</g>
		</g>
		<g>
			
				<rect x="219.501" y="271.35" fill="#86B2D8" stroke="#010101" stroke-width="0.75" stroke-linecap="round" stroke-linejoin="round" stroke-miterlimit="1" width="62.999" height="18.002"/>
			<g>
				<text transform="matrix(1 0 0 1 231.6523 283.6738)" font-size="12">Node 1</text>
			</g>
		</g>
		<g>
			
				<rect x="219.501" y="375.383" fill="#86B2D8" stroke="#010101" stroke-width="0.75" stroke-linecap="round" stroke-linejoin="round" stroke-miterlimit="1" width="62.999" height="18"/>
			<g>
				<g>
					<text transform="matrix(1 0 0 1 234.877 387.1465)" font-size="10">Node 2</text>
				</g>
			</g>
		</g>
		<text transform="matrix(1 0 0 1 56 258.5767)" font-size="9">SR Document Content Module</text>
		<g>
			<rect x="56" y="515.797" fill="none" width="390" height="80"/>
			<text transform="matrix(1 0 0 1 56 522.2188)"><tspan x="0" y="0" font-size="9">Notes: </tspan><tspan x="20" y="10.8" font-size="9">1. Node 2 inherits any Observation Context of Node 1, which is then extended or replaced by </tspan><tspan x="30" y="21.6" font-size="9">the additional Observation Context defined in Nodes C1 and C2 (that is C1 and C2 are </tspan><tspan x="30" y="32.4" font-size="9">properties of 2).</tspan><tspan x="20" y="43.2" font-size="9">2. Node 3 and its descendents inherit the Observation Context of Node 2, which includes C1 </tspan><tspan x="30" y="54" font-size="9">and C2.</tspan><tspan x="20" y="64.8" font-size="9">3. Node 4 inherits the Observation Context of Node 2, which includes C1 and C2.</tspan></text>
			<rect x="51.297" y="511.893" fill="none" stroke="#000000" width="399.406" height="87.811"/>
		</g>
	</g>
</g>
</svg>
