<?xml version="1.0" encoding="utf-8"?>
<!-- $Source: /home/bbennett/pass/archive/DicomXml/docbook/part03/figures/PS3.3_C.8.11.7-3e.svg,v $ -->
<!-- $Date: 2014/05/09 12:27:10 $ -->
<!-- $Revision: 1.2 $ -->

<!DOCTYPE svg PUBLIC "-//W3C//DTD SVG 1.1//EN" "http://www.w3.org/Graphics/SVG/1.1/DTD/svg11.dtd">
<svg version="1.1" id="Layer_1" xmlns="http://www.w3.org/2000/svg" xmlns:xlink="http://www.w3.org/1999/xlink" x="0px" y="0px"
	 width="502px" height="247px" viewBox="0 0 502 247" enable-background="new 0 0 502 247" xml:space="preserve">

<defs>
	<style type="text/css">
	text {
	  font-family: Helvetica, Verdana, ArialUnicodeMS, san-serif
	}
	</style>
</defs>

<g>
   <desc>
	PS 3.3 Part 3: Information Object Definitions
   </desc>
</g>

<g>
	<rect x="1" y="1" fill="#F5EED6" width="500" height="245"/>
	<g>
		<g>
			<text transform="matrix(0.963 0 0 1 211.6875 24.9966)" font-size="10">axilla</text>
		</g>
		<g>
			<text transform="matrix(0.963 0 0 1 230.8369 45.6348)" font-size="10">A</text>
		</g>
		<g>
			<text transform="matrix(0.963 0 0 1 221.7168 141.1348)" font-size="10">B</text>
		</g>
		<g>
			<text transform="matrix(0.963 0 0 1 270.1855 157.6348)" font-size="10">D</text>
		</g>
		<g>
			<text transform="matrix(0.963 0 0 1 285.5166 186.1328)" font-size="10">E</text>
		</g>
		<g>
			<text transform="matrix(0.963 0 0 1 277.0332 82.2871)" font-size="10">D</text>
		</g>
		<g>
			<text transform="matrix(0.963 0 0 1 230.6855 222.1348)" font-size="10">C</text>
		</g>
		<polyline fill-rule="evenodd" clip-rule="evenodd" fill="#005695" points="205.88,31.185 203.239,32.626 203.72,33.825 
			204.439,35.505 205.16,37.425 206.12,39.345 207.08,41.745 208.04,44.146 209,46.546 210.199,49.185 212.6,54.706 215.72,60.226 
			217.399,62.866 217.64,63.345 219.319,65.985 221.239,68.386 223.399,70.786 225.56,72.946 228.199,75.104 231.08,77.265 
			233.96,79.425 234.439,79.665 237.8,81.825 241.16,83.745 247.879,87.825 254.84,91.905 258.199,94.065 261.32,96.226 
			262.039,94.786 260.84,95.985 263.959,98.146 266.84,100.306 269.24,102.466 271.641,104.866 272.6,103.905 271.641,104.866 
			275.721,109.905 279.561,114.946 281.24,117.585 282.199,116.386 281,117.104 282.68,119.745 284.119,122.386 285.561,125.026 
			286.76,127.665 287.721,130.306 288.68,132.945 289.4,135.586 290.84,135.105 289.4,135.105 289.881,137.746 290.119,140.384 
			290.359,143.024 290.119,145.425 289.641,148.306 291.32,148.306 289.881,147.585 289.16,150.464 288.439,153.104 287.24,155.985 
			286.039,158.864 284.6,161.745 282.92,164.864 281.24,167.505 282.68,168.226 281.48,167.024 279.561,169.905 277.4,172.544 
			275.24,175.185 273.08,177.585 270.68,179.745 268.039,181.665 265.4,183.585 266.6,184.544 265.881,183.345 263.24,184.784 
			263.959,186.226 263.24,184.784 260.359,185.985 257.24,187.185 253.641,187.905 254.119,189.345 254.119,187.905 250.52,188.624 
			246.439,189.104 242.359,189.345 238.279,189.585 233.96,189.825 229.64,189.825 225.56,189.825 221.72,189.825 217.88,189.825 
			214.279,189.825 211.16,189.825 208.279,189.825 205.64,190.065 205.88,192.944 208.279,192.704 211.16,192.704 214.279,192.704 
			217.88,192.704 221.72,192.704 225.56,192.704 229.64,192.704 233.96,192.704 238.279,192.704 242.359,192.464 246.439,191.985 
			250.52,191.505 254.119,190.784 254.84,190.784 258.439,189.825 261.561,188.864 264.68,187.425 267.08,185.985 267.561,185.745 
			270.199,183.825 272.84,181.905 275.24,179.745 277.4,177.345 279.561,174.704 281.721,172.065 283.641,169.185 283.881,168.704 
			285.801,166.065 287.48,162.944 288.92,160.065 290.119,157.185 291.08,154.306 292.039,151.665 292.52,148.784 292.76,148.306 
			293,145.905 293.24,143.024 293.24,140.384 292.76,137.746 292.279,135.105 292.279,134.385 291.561,131.745 290.6,129.106 
			289.4,126.466 288.199,123.825 286.76,121.185 285.32,118.546 283.641,115.905 283.4,115.425 281.721,112.786 277.881,107.745 
			273.801,102.946 273.801,102.946 271.4,100.306 269,98.146 266.119,95.985 263,93.825 262.52,93.345 259.4,91.425 256.039,89.265 
			249.08,85.185 242.359,81.104 239,78.946 235.64,76.786 235.16,78.226 236.12,77.265 233.239,75.104 230.359,72.946 
			227.72,70.786 225.56,68.626 223.399,66.226 221.479,63.825 219.8,61.185 218.6,62.146 220.04,61.665 218.359,59.026 
			215.479,53.505 212.84,47.985 211.64,45.345 210.68,42.946 209.72,40.546 208.76,38.146 208.04,36.226 207.319,34.306 
			206.6,32.626 		"/>
		<rect x="200.6" y="31.905" fill="none" stroke="#010101" stroke-miterlimit="10" width="54.24" height="72.24"/>
		<rect x="243.56" y="68.146" fill="none" stroke="#010101" stroke-miterlimit="10" width="54.001" height="72.238"/>
		<rect x="198.439" y="94.146" fill="none" stroke="#010101" stroke-miterlimit="10" width="54.48" height="72.879"/>
		<rect x="200.359" y="158.624" fill="none" stroke="#010101" stroke-miterlimit="10" width="54" height="72.24"/>
		<rect x="249.561" y="127.187" fill="none" stroke="#010101" stroke-miterlimit="10" width="54" height="72.238"/>
	</g>
</g>
</svg>
