<?xml version="1.0" encoding="utf-8"?>
<!-- $Source: /home/bbennett/pass/archive/DicomXml/docbook/part03/figures/PS3.3_C.10.5-5.svg,v $ -->
<!-- $Date: 2014/05/09 13:15:43 $ -->
<!-- $Revision: 1.1 $ -->

<!DOCTYPE svg PUBLIC "-//W3C//DTD SVG 1.1//EN" "http://www.w3.org/Graphics/SVG/1.1/DTD/svg11.dtd">
<svg version="1.1" id="Layer_1" xmlns="http://www.w3.org/2000/svg" xmlns:xlink="http://www.w3.org/1999/xlink" x="0px" y="0px"
	 width="502px" height="247px" viewBox="0 0 502 247" enable-background="new 0 0 502 247" xml:space="preserve">

<defs>
	<style type="text/css">
	text {
	  font-family: Helvetica, Verdana, ArialUnicodeMS, san-serif
	}
	</style>
</defs>

<g>
   <desc>
	PS 3.3 Part 3: Information Object Definitions
   </desc>
</g>

<rect x="1" y="1" fill="#F5EED6" width="500" height="245"/>
<g>
	<g>
		
			<line fill="none" stroke="#000000" stroke-width="0.5" stroke-miterlimit="10" x1="252.391" y1="193.358" x2="355.16" y2="193.358"/>
		
			<line fill="none" stroke="#000000" stroke-width="0.5" stroke-miterlimit="10" x1="245.281" y1="207.431" x2="259.499" y2="179.286"/>
		<g>
			<g>
				<polyline fill="none" stroke="#000000" stroke-width="0.5" stroke-miterlimit="10" points="170.424,142.09 204.64,142.09 
					246.956,187.483 				"/>
				<g>
					<polygon points="245.218,187.749 249.977,190.724 247.343,185.769 					"/>
				</g>
			</g>
		</g>
		<g>
			<g>
				<path fill="none" stroke="#000000" stroke-miterlimit="10" d="M344.722,193.358c0-8.321-1.113-16.384-3.198-24.045"/>
				<g>
					<polygon points="344.831,170.346 338.782,160.892 339.293,172.104 					"/>
				</g>
			</g>
		</g>
		<text transform="matrix(1 0 0 1 349.832 178.7842)" font-size="10">Rotation Angle (0070,0230)</text>
		<text transform="matrix(1 0 0 1 104.0215 144.918)"><tspan x="0" y="0" font-size="10">Rotation Point</tspan><tspan x="11.677" y="9.333" font-size="10">with Gap</tspan><tspan x="4.443" y="18.666" font-size="10">(0070,0273)</tspan></text>
		<g>
			<g>
				<polyline fill="none" stroke="#000000" stroke-width="0.5" stroke-miterlimit="10" points="170.424,174.486 204.065,174.486 
					244.855,199.226 				"/>
				<g>
					<polygon points="243.255,199.953 248.643,201.522 244.761,197.47 					"/>
				</g>
			</g>
		</g>
		<g>
			
				<line fill="none" stroke="#003468" stroke-miterlimit="10" stroke-dasharray="2,2" x1="267.101" y1="187.896" x2="348.041" y2="156.711"/>
			
				<line fill="none" stroke="#003468" stroke-miterlimit="10" stroke-dasharray="2,2" x1="154.058" y1="231.448" x2="237.681" y2="199.231"/>
			<circle fill="#003468" stroke="#003468" stroke-width="2" stroke-miterlimit="10" cx="252.639" cy="193.468" r="1.702"/>
			
				<line fill="none" stroke="#003468" stroke-width="2" stroke-miterlimit="10" x1="267.101" y1="187.897" x2="314.188" y2="169.754"/>
			
				<line fill="none" stroke="#003468" stroke-width="2" stroke-miterlimit="10" x1="191.089" y1="217.185" x2="237.682" y2="199.232"/>
			<g>
				<g>
					
						<line fill="none" stroke="#003468" stroke-width="2" stroke-miterlimit="10" x1="213.657" y1="206.32" x2="206.281" y2="187.178"/>
					<g>
						<polygon fill="#003468" points="216.807,200.845 215.692,200.397 213.493,205.89 208.175,203.294 207.649,204.374 
							214.126,207.534 						"/>
					</g>
				</g>
			</g>
			<g>
				<g>
					
						<line fill="none" stroke="#003468" stroke-width="2" stroke-miterlimit="10" x1="289.915" y1="176.938" x2="282.542" y2="157.797"/>
					<g>
						<polygon fill="#003468" points="293.065,171.464 291.951,171.016 289.751,176.508 284.433,173.911 283.907,174.991 
							290.384,178.152 						"/>
					</g>
				</g>
			</g>
			
				<circle fill="none" stroke="#000000" stroke-width="0.5" stroke-miterlimit="10" stroke-dasharray="1,2" cx="252.391" cy="193.565" r="15.764"/>
		</g>
		<text transform="matrix(1 0 0 1 113.7407 177.5293)"><tspan x="0" y="0" font-size="10">Gap Length</tspan><tspan x="-0.833" y="9.332" font-size="10">(0070,0261)</tspan></text>
	</g>
	<g>
		
			<line fill="none" stroke="#000000" stroke-width="0.5" stroke-miterlimit="10" x1="198.927" y1="58.452" x2="302.97" y2="58.452"/>
		<g>
			<g>
				<polyline fill="none" stroke="#000000" stroke-width="0.5" stroke-miterlimit="10" points="98.423,21.583 150.796,21.583 
					191.777,52.201 				"/>
				<g>
					<polygon points="190.114,52.772 195.326,54.853 191.854,50.445 					"/>
				</g>
			</g>
		</g>
		<circle fill="#003468" stroke="#003468" stroke-width="2" stroke-miterlimit="10" cx="199.454" cy="58.369" r="1.702"/>
		
			<line fill="none" stroke="#003468" stroke-miterlimit="10" stroke-dasharray="2,2" x1="102.022" y1="96.054" x2="295.838" y2="20.854"/>
		<g>
			<g>
				<path fill="none" stroke="#000000" stroke-miterlimit="10" d="M288.567,58.452c0-8.321-1.113-16.383-3.198-24.044"/>
				<g>
					<polygon points="288.677,35.44 282.628,25.986 283.139,37.198 					"/>
				</g>
			</g>
		</g>
		<text transform="matrix(1 0 0 1 294.3926 43.8823)" font-size="10">Rotation Angle (0070,0230)</text>
		<text transform="matrix(1 0 0 1 29.8594 24.416)"><tspan x="0" y="0" font-size="10">Rotation Point</tspan><tspan x="4.443" y="9.333" font-size="10">(0070,0273)</tspan></text>
		<line fill="none" stroke="#003468" stroke-width="2" stroke-miterlimit="10" x1="137.903" y1="82.086" x2="261.011" y2="34.656"/>
		<g>
			<g>
				<line fill="none" stroke="#003468" stroke-width="2" stroke-miterlimit="10" x1="169.145" y1="67.88" x2="161.77" y2="48.737"/>
				<g>
					<polygon fill="#003468" points="172.295,62.406 171.181,61.958 168.98,67.45 163.663,64.854 163.137,65.934 169.614,69.094 
											"/>
				</g>
			</g>
		</g>
		<g>
			<g>
				
					<line fill="none" stroke="#003468" stroke-width="2" stroke-miterlimit="10" x1="228.309" y1="45.085" x2="220.934" y2="25.945"/>
				<g>
					<polygon fill="#003468" points="231.459,39.611 230.345,39.163 228.145,44.655 222.827,42.06 222.301,43.139 228.778,46.299 
											"/>
				</g>
			</g>
		</g>
	</g>
</g>
</svg>
