<?xml version="1.0" encoding="utf-8"?>
<!-- $Source: /home/bbennett/pass/archive/DicomXml/docbook/part03/figures/PS3.3_C.7.6.16-5b.svg,v $ -->
<!-- $Date: 2014/05/09 13:15:42 $ -->
<!-- $Revision: 1.1 $ -->

<!DOCTYPE svg PUBLIC "-//W3C//DTD SVG 1.1//EN" "http://www.w3.org/Graphics/SVG/1.1/DTD/svg11.dtd">
<svg version="1.1" id="Layer_1" xmlns="http://www.w3.org/2000/svg" xmlns:xlink="http://www.w3.org/1999/xlink" x="0px" y="0px"
	 width="502px" height="252px" viewBox="0 0 502 252" enable-background="new 0 0 502 252" xml:space="preserve">

<defs>
	<style type="text/css">
	text {
	  font-family: Helvetica, Verdana, ArialUnicodeMS, san-serif
	}
	</style>
</defs>

<g>
   <desc>
	PS 3.3 Part 3: Information Object Definitions
   </desc>
</g>

<rect x="1" y="1" fill="#F5EED6" width="500" height="250"/>
<g>
	<rect x="42.962" y="11.851" fill="none" width="185" height="77.097"/>
	<text transform="matrix(0.9288 0 0 1 36.9619 18.292)"><tspan x="0" y="0" font-size="9">Cardiac R-R Interval Specified (0018,9070):</tspan><tspan x="12.92" y="10.8" font-size="9">R - R interval in ms at prescription time</tspan><tspan x="0" y="32.4" font-size="9">OR...</tspan><tspan x="0" y="54" font-size="9">R - R Interval Time Nominal (0020,9251):</tspan><tspan x="12.92" y="64.8" font-size="9">Actual measured R - R peak of this cycle.</tspan></text>
	<rect x="13.995" y="153.828" fill="none" width="221.032" height="85.92"/>
	<text transform="matrix(0.9288 0 0 1 13.9941 160.2627)"><tspan x="0" y="0" font-size="9">Nominal Cardiac Trigger Time Prior to R-peak (0020,9154):</tspan><tspan x="6.46" y="10.8" font-size="9">Nominal time interval in ms prior to next R-peak.</tspan><tspan x="0" y="32.4" font-size="9">Nominal Cardiac Trigger Delay Time (0020,9153) as </tspan><tspan x="6.46" y="43.2" font-size="9">calculated:</tspan><tspan x="6.46" y="54" font-size="9">R-R interval time minus the Nominal Cardiac Trigger Time </tspan><tspan x="6.46" y="64.8" font-size="9">Prior to R-peak (0020,9154)</tspan></text>
	<g>
		<g>
			<line fill="none" stroke="#005695" stroke-width="2" stroke-miterlimit="1" x1="254.07" y1="56.24" x2="392.272" y2="56.24"/>
			<g>
				<polygon fill="#005695" points="255.655,58.564 246.982,56.24 255.655,53.916 				"/>
			</g>
			<g>
				<polygon fill="#005695" points="390.688,58.564 399.36,56.24 390.688,53.916 				"/>
			</g>
		</g>
	</g>
	<g>
		<g>
			
				<line fill="none" stroke="#005695" stroke-width="2" stroke-miterlimit="1" x1="388.68" y1="158.992" x2="407.098" y2="158.992"/>
			<g>
				<polygon fill="#005695" points="390.265,161.316 381.592,158.992 390.265,156.668 				"/>
			</g>
		</g>
	</g>
	<g>
		<g>
			
				<line fill="none" stroke="#005695" stroke-width="2" stroke-miterlimit="1" x1="237.258" y1="191.729" x2="374.504" y2="191.729"/>
			<g>
				<polygon fill="#005695" points="372.919,194.053 381.592,191.729 372.919,189.404 				"/>
			</g>
		</g>
	</g>
	<text transform="matrix(0.9288 0 0 1 403.7812 60.7383)" font-size="12">R</text>
	<text transform="matrix(0.9288 0 0 1 234.1807 60.7383)" font-size="12">R</text>
	
		<line fill="none" stroke="#000000" stroke-width="0.75" stroke-linecap="round" stroke-miterlimit="1" x1="237.541" y1="112.632" x2="237.541" y2="240.15"/>
	
		<line fill="none" stroke="#000000" stroke-width="0.75" stroke-linecap="round" stroke-miterlimit="1" x1="407.231" y1="112.632" x2="407.231" y2="240.15"/>
	
		<line fill="none" stroke="#000000" stroke-width="0.75" stroke-linecap="round" stroke-miterlimit="1" stroke-dasharray="4,4" x1="381.592" y1="112.632" x2="381.592" y2="205.35"/>
	
		<line fill="none" stroke="#000000" stroke-width="0.75" stroke-linecap="round" stroke-miterlimit="1" stroke-dasharray="4,4" x1="237.541" y1="158.99" x2="381.592" y2="158.99"/>
	<path fill="none" stroke="#ED1C24" stroke-width="2" stroke-miterlimit="1" d="M168.962,121.325
		c18.415-0.01,34.234-0.02,34.234-0.02s4.168-0.596,6.551-8.256c0.875-2.813,3.211-2.976,4.416,0.246
		c3.939,10.539,4.307,8.089,13.396,8.089l5.357,13.026l5.036-70.938l3.622,80.084l4.549-22.071c0,0,13.552-0.001,20.43,0
		c5.324,0.001,7.289-9.64,15.41-9.64c7.732,0,9.1,9.408,15.379,9.408c4.279,0,76.004-0.049,76.004-0.049s4.168-0.596,6.551-8.256
		c0.875-2.813,3.211-2.976,4.416,0.246c3.939,10.539,4.307,8.089,14.115,8.089l4.643,13.125l5.037-70.938l3.621,80.084l4.549-22.071
		c0,0,13.553-0.001,20.43,0c5.324,0.001,7.289-9.64,15.41-9.64c7.732,0,9.1,9.408,15.379,9.408c4.279,0,20.51-0.072,20.51-0.072"/>
</g>
</svg>
