<?xml version="1.0" encoding="utf-8"?>
<!-- $Source: /home/bbennett/pass/archive/DicomXml/docbook/part03/figures/PS3.3_C.8.19.6-7.svg,v $ -->
<!-- $Date: 2014/05/09 12:27:11 $ -->
<!-- $Revision: 1.2 $ -->

<!DOCTYPE svg PUBLIC "-//W3C//DTD SVG 1.1//EN" "http://www.w3.org/Graphics/SVG/1.1/DTD/svg11.dtd">
<svg version="1.1" id="Layer_1" xmlns="http://www.w3.org/2000/svg" xmlns:xlink="http://www.w3.org/1999/xlink" x="0px" y="0px"
	 width="502px" height="517px" viewBox="0 0 502 517" enable-background="new 0 0 502 517" xml:space="preserve">

<defs>
	<style type="text/css">
	text {
	  font-family: Helvetica, Verdana, ArialUnicodeMS, san-serif
	}
	</style>
</defs>

<g>
   <desc>
	PS 3.3 Part 3: Information Object Definitions
   </desc>
</g>

<g>
	<rect x="1" y="1" fill="#F5EED6" width="500" height="515"/>
	<g>
		
			<polyline fill="#CCDEF0" stroke="#000000" stroke-width="0.5" stroke-linecap="round" stroke-linejoin="round" stroke-dasharray="2" points="
			265.492,227.527 265.175,213.332 291.851,236.252 		"/>
		<g>
			<text transform="matrix(0.8815 0 0 1 94.6313 476.9453)" font-size="13">X-Ray Center Beam</text>
		</g>
		<g>
			<text transform="matrix(0.8815 0 0 1 125.8389 496.9443)" font-size="13">X-Ray Source</text>
		</g>
		
			<line fill="none" stroke="#010101" stroke-miterlimit="1" stroke-dasharray="12,6" x1="204.236" y1="493.636" x2="291.365" y2="493.636"/>
		
			<line fill="none" stroke="#010101" stroke-miterlimit="1" stroke-dasharray="12,6" x1="204.236" y1="473.634" x2="291.365" y2="473.634"/>
		<g>
			<text transform="matrix(0.8815 0 0 1 137.7822 166.5059)" font-size="13">TLHC</text>
		</g>
		
			<polygon fill="#CCDEF0" stroke="#000000" stroke-width="0.5" stroke-linecap="round" stroke-linejoin="round" stroke-dasharray="2" points="
			291.361,311.597 353.57,359.245 355.476,340.665 		"/>
		
			<polygon fill="#CCDEF0" stroke="#000000" stroke-width="0.5" stroke-linecap="round" stroke-linejoin="round" stroke-dasharray="2" points="
			214.749,331.854 220.322,389.288 293.515,372.786 		"/>
		<polyline fill="#86B2D8" stroke="#000000" stroke-linecap="round" stroke-linejoin="round" points="229.927,341.265 
			235.065,407.87 286.482,376.331 		"/>
		<polyline fill="#86B2D8" stroke="#000000" stroke-linecap="round" stroke-linejoin="round" points="353.957,341.616 
			347.292,408.271 296.869,377.538 		"/>
		
			<polygon fill="#CCDEF0" stroke="#000000" stroke-width="0.5" stroke-linecap="round" stroke-linejoin="round" stroke-dasharray="2" points="
			291.361,311.597 322.947,366.151 319.757,420.841 293.734,379.034 		"/>
		<polyline fill="#86B2D8" stroke="#000000" stroke-linecap="round" stroke-linejoin="round" points="342.859,252.954 
			345.421,218.624 292.048,236.315 		"/>
		
			<polygon fill="#CCDEF0" stroke="#000000" stroke-width="0.5" stroke-linecap="round" stroke-linejoin="round" stroke-dasharray="2" points="
			291.361,311.597 355.476,340.665 367.146,226.923 291.466,236.125 		"/>
		<polygon fill="#86B2D8" stroke="#000000" stroke-linecap="round" stroke-linejoin="round" points="401.455,311.731 
			290.412,268.038 181.392,311.175 292.685,380.175 		"/>
		<polyline fill="#86B2D8" stroke="#000000" stroke-linecap="round" stroke-linejoin="round" points="239.498,253.733 
			237.507,218.459 292.046,236.315 		"/>
		
			<polygon fill="#CCDEF0" stroke="#000000" stroke-width="0.5" stroke-linecap="round" stroke-linejoin="round" stroke-dasharray="2" points="
			291.361,311.597 291.466,236.125 206.462,246.463 214.749,331.854 		"/>
		<polygon fill="#86B2D8" stroke="#000000" stroke-linecap="round" stroke-linejoin="round" points="291.294,311.45 
			292.046,236.315 362.189,259.284 353.957,341.616 		"/>
		<polygon fill="#86B2D8" stroke="#000000" stroke-linecap="round" stroke-linejoin="round" points="291.294,311.45 
			292.048,236.315 223.58,259.011 229.927,341.265 		"/>
		
			<polygon fill="#CCDEF0" stroke="#000000" stroke-width="0.5" stroke-linecap="round" stroke-linejoin="round" stroke-dasharray="2" points="
			291.361,311.597 291.851,236.252 328.673,267.889 322.947,366.151 		"/>
		<g>
			<path stroke="#000000" stroke-miterlimit="1" d="M296.972,311.132c0.002-3.26-2.641-5.898-5.9-5.898v5.902L296.972,311.132z"/>
			
				<path fill="#FFFFFF" stroke="#010101" stroke-width="0.75" stroke-linecap="round" stroke-linejoin="round" stroke-miterlimit="1" d="
				M291.072,305.233c-3.258,0-5.898,2.643-5.898,5.904l5.898-0.002V305.233z"/>
			<path stroke="#000000" stroke-miterlimit="1" d="M285.173,311.138c0.002,3.256,2.645,5.896,5.902,5.896l-0.004-5.898
				L285.173,311.138z"/>
			
				<path fill="#FFFFFF" stroke="#010101" stroke-width="0.75" stroke-linecap="round" stroke-linejoin="round" stroke-miterlimit="1" d="
				M291.072,311.136l0.004,5.898c3.258-0.002,5.898-2.645,5.896-5.902L291.072,311.136z"/>
		</g>
		<line fill="none" stroke="#ED1C24" stroke-dasharray="4" x1="292.042" y1="211.445" x2="291.687" y2="491.927"/>
		<text transform="matrix(1 -0.0019 0.0019 1 144.2471 377.0244)" fill="#00AEEF" font-size="13">+Z</text>
		<text transform="matrix(1 -0.0019 0.0019 1 130.9126 349.9395)" fill="#00AEEF" font-size="13">+Zp</text>
		<text transform="matrix(1 -0.0048 0.0048 1 241.1318 434.8945)" fill="#0DB14B" font-size="13">+Y, +Yp</text>
		<text transform="matrix(1 -0.0031 0.0031 1 158.8662 206.0308)" fill="#ED1C24" font-size="13">+Xp</text>
		<text transform="matrix(1 -0.0031 0.0031 1 153.6538 253.6436)" fill="#ED1C24" font-size="13">+X</text>
		<g>
			<text transform="matrix(1 -3.400000e-04 3.400000e-04 1 295.3765 305.6279)" font-size="12.5">O</text>
		</g>
		<g>
			<g>
				<path fill="#FEDA00" d="M289.654,488.192c-2.75,1.574-3.738,5.021-2.207,7.697c1.535,2.678,5.006,3.57,7.758,1.996
					c2.752-1.578,3.738-5.021,2.207-7.697C295.876,487.509,292.406,486.616,289.654,488.192z"/>
			</g>
			<circle cx="292.359" cy="493.139" r="0.564"/>
			<path d="M293.812,493.093c0,0.498-0.266,0.984-0.736,1.258c-0.037,0.02-0.072,0.037-0.109,0.055l1.701,2.971
				c0.035-0.02,0.07-0.039,0.105-0.061c1.598-0.914,2.506-2.561,2.529-4.242L293.812,493.093z"/>
			<path d="M293.146,491.929c-0.43-0.254-0.986-0.271-1.459-0.002c-0.035,0.021-0.068,0.041-0.102,0.066l-1.703-2.971
				c0.037-0.021,0.072-0.041,0.107-0.061c1.596-0.916,3.477-0.869,4.939-0.035L293.146,491.929z"/>
			<path d="M291.728,494.419c-0.43-0.246-0.783-0.689-0.781-1.232c0-0.039,0.004-0.08,0.008-0.119l-3.424-0.014
				c0,0.041,0,0.08,0,0.123c-0.008,1.84,1.061,3.393,2.506,4.254L291.728,494.419z"/>
		</g>
		<g>
			<g>
				<line fill="none" stroke="#0DB14B" x1="291.009" y1="311.255" x2="291.708" y2="414.993"/>
				<g>
					<polygon fill="#0DB14B" points="288.789,413.031 291.767,423.853 294.599,412.992 					"/>
				</g>
			</g>
		</g>
		<g>
			<g>
				<line fill="none" stroke="#00AEEF" x1="291.33" y1="311.747" x2="171.368" y2="370.662"/>
				<g>
					<polygon fill="#00AEEF" points="171.866,367.181 163.416,374.567 174.427,372.396 					"/>
				</g>
			</g>
		</g>
		<g>
			<g>
				<line fill="none" stroke="#00AEEF" stroke-dasharray="4,4" x1="291.33" y1="311.743" x2="167.422" y2="345.045"/>
				<g>
					<polygon fill="#00AEEF" points="168.582,341.726 158.866,347.345 170.089,347.337 					"/>
				</g>
			</g>
		</g>
		<g>
			<g>
				<line fill="none" stroke="#ED1C24" stroke-dasharray="4,4" x1="291.88" y1="311.003" x2="186.169" y2="220.263"/>
				<g>
					<polygon fill="#ED1C24" points="189.564,219.349 179.446,214.492 185.78,223.758 					"/>
				</g>
			</g>
		</g>
		<g>
			<g>
				<line fill="none" stroke="#ED1C24" x1="291.371" y1="311.567" x2="181.864" y2="257.647"/>
				<g>
					<polygon fill="#ED1C24" points="184.925,255.916 173.916,253.733 182.358,261.129 					"/>
				</g>
			</g>
		</g>
		<g>
			<g>
				<polygon fill="#86B2D8" stroke="#000000" stroke-width="0.5" stroke-linecap="round" stroke-linejoin="round" points="
					292.277,113.142 405.943,162.642 292.277,212.142 178.612,162.642 				"/>
				
					<line fill="#86B2D8" stroke="#000000" stroke-width="0.5" stroke-linecap="round" stroke-linejoin="round" x1="194.847" y1="155.569" x2="308.509" y2="205.07"/>
				
					<line fill="#86B2D8" stroke="#000000" stroke-width="0.5" stroke-linecap="round" stroke-linejoin="round" x1="211.081" y1="148.501" x2="324.744" y2="198.001"/>
				
					<line fill="#86B2D8" stroke="#000000" stroke-width="0.5" stroke-linecap="round" stroke-linejoin="round" x1="227.315" y1="141.433" x2="340.976" y2="190.933"/>
				
					<line fill="#86B2D8" stroke="#000000" stroke-width="0.5" stroke-linecap="round" stroke-linejoin="round" x1="243.576" y1="134.349" x2="357.24" y2="183.849"/>
				
					<line fill="#86B2D8" stroke="#000000" stroke-width="0.5" stroke-linecap="round" stroke-linejoin="round" x1="259.812" y1="127.28" x2="373.476" y2="176.78"/>
				
					<line fill="#86B2D8" stroke="#000000" stroke-width="0.5" stroke-linecap="round" stroke-linejoin="round" x1="276.041" y1="120.212" x2="389.708" y2="169.712"/>
				
					<line fill="#86B2D8" stroke="#000000" stroke-width="0.5" stroke-linecap="round" stroke-linejoin="round" x1="389.71" y1="155.57" x2="276.042" y2="205.071"/>
				
					<line fill="#86B2D8" stroke="#000000" stroke-width="0.5" stroke-linecap="round" stroke-linejoin="round" x1="373.476" y1="148.501" x2="259.812" y2="198.001"/>
				
					<line fill="#86B2D8" stroke="#000000" stroke-width="0.5" stroke-linecap="round" stroke-linejoin="round" x1="357.24" y1="141.433" x2="243.576" y2="190.933"/>
				
					<line fill="#86B2D8" stroke="#000000" stroke-width="0.5" stroke-linecap="round" stroke-linejoin="round" x1="340.98" y1="134.349" x2="227.315" y2="183.85"/>
				
					<line fill="#86B2D8" stroke="#000000" stroke-width="0.5" stroke-linecap="round" stroke-linejoin="round" x1="324.744" y1="127.28" x2="211.081" y2="176.78"/>
				
					<line fill="#86B2D8" stroke="#000000" stroke-width="0.5" stroke-linecap="round" stroke-linejoin="round" x1="308.509" y1="120.212" x2="194.847" y2="169.712"/>
			</g>
			<polygon fill="#FFFFFF" points="179.446,162.641 195.036,169.396 210.546,162.592 194.852,155.803 			"/>
		</g>
		<g>
			<g opacity="0.8">
				
					<polygon fill="#CCDEF0" stroke="#000000" stroke-width="0.5" stroke-linecap="round" stroke-linejoin="round" stroke-dasharray="2" points="
					240.471,190.828 183.508,137.329 341.302,117.738 403.246,171.162 403.244,171.161 				"/>
				<g>
					
						<line fill="#CCDEF0" stroke="#000000" stroke-width="0.5" stroke-linecap="round" stroke-linejoin="round" stroke-dasharray="2" x1="367.146" y1="140.521" x2="206.998" y2="159.391"/>
					
						<line fill="#CCDEF0" stroke="#000000" stroke-width="0.5" stroke-linecap="round" stroke-linejoin="round" stroke-dasharray="2" x1="348.962" y1="124.345" x2="190.162" y2="143.578"/>
					
						<line fill="#CCDEF0" stroke="#000000" stroke-width="0.5" stroke-linecap="round" stroke-linejoin="round" stroke-dasharray="2" x1="358.121" y1="132.243" x2="199.104" y2="151.977"/>
					
						<line fill="#CCDEF0" stroke="#000000" stroke-width="0.5" stroke-linecap="round" stroke-linejoin="round" stroke-dasharray="2" x1="375.962" y1="147.924" x2="215.416" y2="167.297"/>
					
						<line fill="#CCDEF0" stroke="#000000" stroke-width="0.5" stroke-linecap="round" stroke-linejoin="round" stroke-dasharray="2" x1="384.863" y1="155.308" x2="224.295" y2="175.636"/>
					
						<line fill="#CCDEF0" stroke="#000000" stroke-width="0.5" stroke-linecap="round" stroke-linejoin="round" stroke-dasharray="2" x1="393.605" y1="162.848" x2="232.251" y2="183.108"/>
					
						<path fill="#CCDEF0" stroke="#000000" stroke-width="0.5" stroke-linecap="round" stroke-linejoin="round" stroke-dasharray="2" d="
						M355.337,176.949c-24.828-23.562-56.797-53.901-56.797-53.901"/>
					
						<line fill="#CCDEF0" stroke="#000000" stroke-width="0.5" stroke-linecap="round" stroke-linejoin="round" stroke-dasharray="2" x1="377.923" y1="174.222" x2="320.429" y2="120.332"/>
					
						<path fill="#CCDEF0" stroke="#000000" stroke-width="0.5" stroke-linecap="round" stroke-linejoin="round" stroke-dasharray="2" d="
						M333.519,179.584c-25.799-24.346-57.014-53.802-57.014-53.801"/>
					
						<line fill="#CCDEF0" stroke="#000000" stroke-width="0.5" stroke-linecap="round" stroke-linejoin="round" stroke-dasharray="2" x1="311.812" y1="182.208" x2="254.273" y2="128.543"/>
					
						<line fill="#CCDEF0" stroke="#000000" stroke-width="0.5" stroke-linecap="round" stroke-linejoin="round" stroke-dasharray="2" x1="266.765" y1="187.651" x2="209.96" y2="134.045"/>
					
						<line fill="#CCDEF0" stroke="#000000" stroke-width="0.5" stroke-linecap="round" stroke-linejoin="round" stroke-dasharray="2" x1="289.019" y1="184.965" x2="232.142" y2="131.291"/>
				</g>
			</g>
			<polygon fill="#FFFFFF" points="184.091,137.381 190.562,143.412 216.327,140.314 209.812,134.211 			"/>
		</g>
		<g>
			<text transform="matrix(0.8815 0 0 1 189.3667 110.2295)" font-size="13">Ap3</text>
		</g>
		<g>
			<g>
				<g>
					<g>
						
							<line fill="none" stroke="#000000" stroke-linecap="round" stroke-linejoin="round" x1="292.316" y1="167.023" x2="189.557" y2="123.769"/>
						<g>
							<polygon points="192.51,121.86 181.392,120.332 190.256,127.215 							"/>
						</g>
					</g>
				</g>
			</g>
		</g>
		<g>
			<g>
				<g>
					
						<line fill="none" stroke="#000000" stroke-linecap="round" stroke-linejoin="round" x1="292.316" y1="167.023" x2="217.517" y2="96.265"/>
					<g>
						<polygon points="220.953,95.516 211.081,90.177 216.96,99.737 						"/>
					</g>
				</g>
			</g>
		</g>
		<g>
			<text transform="matrix(0.8815 0 0 1 334.0933 476.6641)" font-size="13">Ap1 = Ap2 = 0</text>
		</g>
		<ellipse fill="#FFFFFF" stroke="#010101" stroke-miterlimit="1" cx="292.442" cy="77.604" rx="22.735" ry="8.971"/>
		<g>
			<g>
				<path fill="none" stroke="#010101" stroke-miterlimit="1" d="M279.289,54.612c-5.799-1.625-9.582-4.297-9.582-7.317
					c0-4.954,10.18-8.971,22.736-8.971s22.734,4.017,22.734,8.971c0,2.22-2.044,4.251-5.43,5.818"/>
				<g>
					<polygon fill="#010101" points="310.246,51 304.718,54.847 311.428,54.28 					"/>
				</g>
			</g>
		</g>
		<g>
			<text transform="matrix(0.8815 0 0 1 281.9448 27.291)" font-size="13">Ap3</text>
		</g>
		
			<line fill="none" stroke="#000000" stroke-linecap="round" stroke-linejoin="round" x1="292.419" y1="211.445" x2="292.443" y2="78.609"/>
		<text transform="matrix(1 -7.700000e-04 7.700000e-04 1 197.2056 58.998)" font-size="9">Axis of Rotation</text>
		<line fill="none" stroke="#000000" x1="262.373" y1="67.747" x2="325.523" y2="88.991"/>
		<line fill="none" stroke="#000000" x1="262.373" y1="87.71" x2="320.365" y2="68.633"/>
		<polyline fill="#6799C8" stroke="#000000" stroke-linecap="round" stroke-linejoin="round" points="292.533,77.453 
			285.148,54.192 300.63,54.4 292.55,77.419 		"/>
		
			<ellipse transform="matrix(0.0107 0.9999 -0.9999 0.0107 343.9046 -239.4413)" fill="#CCDEF0" stroke="#000000" cx="292.957" cy="54.075" rx="2.381" ry="7.791"/>
		<path fill="none" stroke="#000000" stroke-linecap="round" d="M286.384,58.082c1.406,0.619,3.605,0.921,6.293,0.894
			c2.934-0.032,5.482-0.554,6.803-1.301"/>
		<path fill="none" stroke="#000000" stroke-linecap="round" d="M287.3,60.975c1.367,0.342,3.141,0.539,5.074,0.519
			c2.48-0.025,4.686-0.403,6.107-0.972"/>
		<path fill="none" stroke="#000000" stroke-linecap="round" d="M288.175,63.736c1.148,0.189,2.479,0.29,3.898,0.275
			c2.318-0.024,4.02-0.23,5.439-0.735"/>
		<path fill="none" stroke="#000000" stroke-linecap="round" d="M289.027,66.407c0.852,0.089,1.777,0.132,2.744,0.122
			c1.812-0.019,3.477-0.225,4.797-0.558"/>
		<path fill="none" stroke="#000000" stroke-linecap="round" d="M289.853,69.016c0.521,0.026,1.061,0.038,1.615,0.032
			c1.533-0.016,2.963-0.167,4.166-0.414"/>
		<path fill="none" stroke="#000000" stroke-linecap="round" d="M290.664,71.567c0.166,0,0.334,0.001,0.5-0.001
			c1.279-0.013,2.484-0.12,3.547-0.297"/>
		<line fill="none" stroke="#000000" stroke-linecap="round" x1="289.667" y1="56.266" x2="296.205" y2="51.881"/>
		<g>
			<g>
				<path fill="none" stroke="#000000" stroke-linecap="round" stroke-linejoin="round" d="M208.644,125.14
					c4.073-5.618,8.99-10.772,14.608-15.342"/>
				<g>
					<polygon points="210.791,125.164 205.681,129.551 207.912,123.197 					"/>
				</g>
				<g>
					<polygon points="223.404,111.934 227.474,106.568 221.267,109.179 					"/>
				</g>
			</g>
		</g>
	</g>
</g>
</svg>
