<?xml version="1.0" encoding="utf-8"?>
<!-- $Source: /home/bbennett/pass/archive/DicomXml/docbook/part03/figures/PS3.3_C.8-9a.svg,v $ -->
<!-- $Date: 2014/05/09 12:30:19 $ -->
<!-- $Revision: 1.2 $ -->

<!DOCTYPE svg PUBLIC "-//W3C//DTD SVG 1.1//EN" "http://www.w3.org/Graphics/SVG/1.1/DTD/svg11.dtd">
<svg version="1.1" id="Layer_1" xmlns="http://www.w3.org/2000/svg" xmlns:xlink="http://www.w3.org/1999/xlink" x="0px" y="0px"
	 width="502px" height="222px" viewBox="0 0 502 222" enable-background="new 0 0 502 222" xml:space="preserve">

<defs>
	<style type="text/css">
	text {
	  font-family: Helvetica, Verdana, ArialUnicodeMS, san-serif
	}
	</style>
</defs>

<g>
   <desc>
	PS 3.3 Part 3: Information Object Definitions
   </desc>
</g>

<g>
	<rect x="1" y="1" fill="#F5EED6" width="500" height="220"/>
	<g>
		<line fill="none" stroke="#000000" x1="88.543" y1="28.946" x2="372.756" y2="134.564"/>
		<ellipse fill="#FFFFFF" stroke="#000000" cx="371.168" cy="134.595" rx="11.078" ry="28.021"/>
		<g>
			<g>
				<path fill="none" stroke="#000000" d="M399.688,130.033c1.892-8.602,5.521-14.423,9.688-14.423
					c6.118,0,11.078,12.545,11.078,28.021s-4.96,28.021-11.078,28.021c-3.281,0-6.229-3.609-8.258-9.345"/>
				<g>
					<polygon points="403.168,162.948 399.681,157.188 399.819,163.92 					"/>
				</g>
			</g>
		</g>
		<line fill="none" stroke="#000000" x1="293.443" y1="27.256" x2="154.384" y2="103.146"/>
		<polygon fill="#6799C8" stroke="#000000" stroke-dasharray="6,6" points="174.49,15.987 122.092,36.202 327.676,118.816 
			378.021,71.463 		"/>
		<polygon fill="#005695" stroke="#000000" points="134.283,31.636 73.017,55.135 300.793,144.102 349.196,98.418 		"/>
		<g>
			<polygon fill="#B2CEE7" stroke="#000000" points="138.834,38.468 138.072,37.353 135.463,35.344 133.51,34.059 124.507,29.149 
				119.969,28.663 116.409,28.478 111.976,30.089 109.582,31.737 107.041,34.017 105.49,37.021 105.253,40.137 105.538,42.593 
				107.201,46.416 109.909,48.318 113.493,50.747 124.248,52.39 126.767,52.587 130.322,52.768 131.844,52.387 135.135,50.988 
				137.892,48.326 139.597,44.92 139.935,41.412 			"/>
			<polygon fill="#B2CEE7" stroke="#000000" points="170.526,41.048 169.148,38.888 167.297,37.435 165.353,36.975 163.181,36.538 
				161.119,37.321 159.081,38.347 157.803,40.323 156.976,42.075 156.774,44.301 157.434,46.727 158.818,48.881 160.66,50.348 
				162.602,50.84 164.776,51.191 166.849,50.465 168.838,49.381 170.16,47.453 170.912,45.682 171.157,43.475 			"/>
			<polygon fill="#B2CEE7" stroke="#000000" points="143.007,42.782 141.893,41.18 140.164,39.426 137.974,38.724 135.69,38.266 
				133.653,39.034 131.743,39.797 130.144,41.539 129.184,43.914 129.059,46.439 129.791,48.6 130.855,50.248 132.644,51.947 
				134.818,52.699 137.108,53.072 139.155,52.364 141.033,51.556 142.595,49.801 143.54,47.447 143.688,44.948 			"/>
			<polygon fill="#B2CEE7" stroke="#000000" points="200.083,48.275 199.886,47.785 198.867,46.409 198.275,46.07 186.348,41.984 
				178.681,39.454 176.668,39.018 170.671,38.744 169.372,39.259 167.748,40.103 167.294,40.641 166.104,42.241 165.372,44.388 
				165.244,46.652 165.745,48.567 165.952,49.296 167.137,50.67 168.12,51.748 173.649,54.297 181.757,55.611 183.564,55.906 
				195.903,57.768 196.568,57.737 198.048,56.827 198.41,56.498 199.563,54.809 200.304,52.586 200.487,50.258 			"/>
			<polygon fill="#B2CEE7" stroke="#000000" points="173.474,49.268 172.349,47.367 169.639,45.13 166.436,43.468 156.374,38.321 
				148.812,37.27 144.547,36.874 139.972,38.718 138.634,39.792 135.419,42.856 133.408,46.855 133.027,50.959 133.082,52.449 
				134.699,56.559 138.027,58.9 144.392,62.516 156.083,64.584 159.819,65.225 163.61,65.309 166.045,64.547 169.386,62.93 
				172.226,59.963 174.037,56.227 174.485,52.422 			"/>
			<polygon fill="#B2CEE7" stroke="#000000" points="205.199,50.276 204.076,48.637 202.596,47.577 201.332,47.34 199.403,47.002 
				197.788,47.715 196.279,48.549 195.295,50.166 194.745,51.52 194.615,53.283 195.166,55.168 196.287,56.805 197.763,57.875 
				199.303,58.168 200.952,58.424 202.579,57.746 204.061,56.875 205.074,55.286 205.578,53.92 205.734,52.164 			"/>
			<polygon fill="#B2CEE7" stroke="#000000" points="232.811,54.882 232.564,54.376 231.629,53.123 230.916,52.785 220.199,49.414 
				218.515,49.062 206.157,47.34 204.407,47.365 203.451,47.674 201.975,48.503 200.748,50.293 200.607,50.547 199.962,52.68 
				199.894,54.917 199.948,55.204 200.533,57.323 201.657,58.628 202.459,59.256 204.097,59.898 216.252,62.666 217.945,62.936 
				229.096,63.572 229.876,63.511 231.161,62.671 231.558,62.283 232.519,60.76 233.105,58.754 233.21,56.661 			"/>
			<polygon fill="#B2CEE7" stroke="#000000" points="184.195,52.81 181.955,49.975 179.366,47.033 175.353,45.777 171.787,45.059 
				168.014,46.336 164.948,47.701 162.319,50.75 160.678,54.871 160.368,59.202 161.443,62.852 163.538,65.816 166.302,68.594 
				170.271,70 173.854,70.467 177.657,69.371 180.629,67.862 183.148,64.784 184.745,60.732 185.121,56.473 			"/>
			<polygon fill="#B2CEE7" stroke="#000000" points="141.681,54.145 141.003,52.814 140.138,51.863 138.475,50.193 136.889,49.496 
				134.012,48.938 131.191,49.938 129.605,50.516 127.735,52.768 127.025,54.293 126.801,56.676 126.791,57.945 127.165,59.395 
				127.851,60.735 128.712,61.707 130.446,63.308 132.012,64.055 134.898,64.527 136.505,64.025 139.282,62.964 141.084,60.689 
				141.848,59.209 141.997,56.836 142.036,55.579 			"/>
			<polygon fill="#B2CEE7" stroke="#000000" points="207.553,57.283 207.317,56.776 204.403,54.153 201.086,51.816 195.962,50.146 
				184.729,49.359 180.896,49.099 176.714,51.041 176.35,51.229 172.817,54.888 170.531,59.598 169.979,64.365 170.095,64.703 
				171.429,68.684 174.357,70.881 183.223,76.846 188.368,78.602 192.743,78.802 196.965,78.736 197.559,78.493 201.848,76.119 
				205.539,71.945 205.608,71.8 207.908,66.9 207.964,66.775 208.685,61.566 			"/>
			<polygon fill="#B2CEE7" stroke="#000000" points="165.889,64.902 164.344,63.408 163.882,62.97 154.124,57.177 147.899,53.596 
				142.546,52.553 140.08,52.101 137.488,53.043 136.724,53.324 134.802,55.221 133.626,57.805 133.439,60.553 134.272,62.898 
				134.688,63.967 136.597,65.653 140.896,69.035 147.676,71.408 158.437,75.012 160.599,75.309 161.162,75.363 163.342,74.445 
				165.188,72.516 165.257,72.395 166.312,70.059 166.349,69.945 166.6,67.235 			"/>
			<polygon fill="#B2CEE7" stroke="#000000" points="238.382,57.011 237.483,55.528 236.198,54.503 234.784,54.143 233.529,53.902 
				231.957,54.365 230.762,55.117 229.699,56.398 229.327,57.654 229.045,59.135 229.39,60.774 230.289,62.254 231.571,63.285 
				232.983,63.662 234.238,63.865 235.816,63.43 236.988,62.649 238.075,61.392 238.413,60.125 238.714,58.652 			"/>
			<polygon fill="#B2CEE7" stroke="#000000" points="218.165,62.701 217.624,60.38 216.467,58.926 214.411,56.918 211.625,56.317 
				209.671,55.942 207.086,56.933 205.429,57.867 204.021,59.857 203.522,60.922 203.047,62.379 202.968,63.9 203.013,65.265 
				203.612,67.579 204.828,68.985 206.84,71.033 209.617,71.693 211.572,71.965 214.176,71.043 215.792,70.051 217.153,68.049 
				217.749,67.041 218.223,65.577 218.316,64.052 			"/>
			<polygon fill="#B2CEE7" stroke="#000000" points="253.625,62.014 252.465,60.459 251.742,60.129 246.299,57.758 242.848,57.151 
				238.738,57.275 237.81,57.486 236.234,58.154 235.657,58.529 235.141,59.084 234.784,59.713 234.661,60.285 234.984,61.321 
				235.228,62.049 237.912,63.928 238.833,64.311 242.018,65.449 248.425,66.169 251.133,65.557 251.787,65.381 252.512,64.87 
				252.949,64.545 253.34,64.1 253.611,63.602 253.709,63.152 253.78,62.545 			"/>
			<polygon fill="#B2CEE7" stroke="#000000" points="258.82,69.404 258.682,69.009 257.605,67.413 256.953,67.063 255.396,66.78 
				254.943,66.739 254.95,66.739 254.943,66.739 254.128,66.664 254.943,66.739 234.181,60.76 219.429,56.776 217.208,56.346 
				215.389,57.288 213.369,58.456 211.646,60.938 210.574,64.237 210.378,67.676 211.091,70.549 212.164,71.927 213.878,73.947 
				229.075,76.748 251.409,80.484 252.61,80.929 254.178,81.126 254.904,81.094 256.526,79.92 256.798,79.639 258.117,77.488 
				258.984,74.707 259.236,71.83 			"/>
			<polygon fill="#B2CEE7" stroke="#000000" points="170.195,69.176 169.877,68.04 169.271,67.022 168.699,66.271 167.303,65.016 
				165.889,64.59 163.743,64.24 162.315,64.857 160.279,65.742 159.041,67.574 158.395,68.879 158.366,70.74 158.483,71.749 
				158.812,72.893 159.424,73.92 160.05,74.626 161.434,75.896 162.839,76.354 164.989,76.648 166.43,76.082 168.441,75.156 
				169.635,73.307 170.313,72.027 170.373,70.174 			"/>
			<polygon fill="#B2CEE7" stroke="#000000" points="202.89,68.646 201.466,66.801 199.698,64.922 197.114,64.137 194.739,63.736 
				192.327,64.602 190.321,65.548 188.621,67.578 187.578,70.287 187.406,73.118 188.136,75.501 189.488,77.4 191.327,79.211 
				193.889,80.07 196.271,80.367 198.703,79.584 200.676,78.576 202.332,76.531 203.359,73.846 203.558,71.037 			"/>
			<polygon fill="#B2CEE7" stroke="#000000" points="196.134,77.088 195.484,74.93 194.157,73.58 193.513,73.145 183.698,68.504 
				172.149,65.553 169.938,65.189 168.325,65.066 167.441,65.314 165.438,66.198 163.771,68.115 162.786,70.683 162.684,73.379 
				163.481,75.654 164.024,76.297 165.681,77.815 167.139,78.664 178.275,82.784 189.193,84.592 191.023,84.816 191.756,84.822 
				193.565,83.91 193.881,83.539 195.224,81.887 196.041,79.716 196.173,77.452 			"/>
			<polygon fill="#B2CEE7" stroke="#000000" points="242.146,82.845 241.544,80.16 240.142,78.504 239.538,78.096 238.293,77.887 
				218.176,70.088 204.466,65.061 201.742,64.598 198.854,65.988 197.569,66.65 195.47,69.191 194.171,72.578 193.941,76.109 
				194.818,79.069 195.617,80.59 197.722,82.684 211.914,86.564 233.014,91.92 234.134,92.467 236.148,92.676 236.84,92.691 
				238.905,91.478 239.138,91.207 240.806,88.981 241.886,86.096 242.176,83.109 			"/>
			<polygon fill="#B2CEE7" stroke="#000000" points="264.245,72.786 263.704,71.729 262.177,69.687 259.896,68.664 258.656,68.438 
				256.312,68.676 255.068,69.424 253.69,70.531 253.008,71.38 252.468,72.49 252.184,73.641 252.207,74.601 252.378,76.787 
				252.967,77.82 254.463,79.873 256.729,80.929 257.979,81.088 260.318,80.896 261.539,80.109 262.954,79.053 263.629,78.194 
				264.166,77.08 264.464,75.932 264.464,74.971 			"/>
			<polygon fill="#B2CEE7" stroke="#000000" points="315.499,95.389 315.113,94.258 311.654,91.771 304.104,88.035 286.178,78.528 
				267.55,70.736 266.099,70.479 263.318,70.029 262.184,70.586 260.777,71.453 259.369,73.225 258.248,75.539 257.642,77.928 
				257.669,79.906 257.991,81.029 258.757,82.404 260.991,84.284 279.065,93.268 298.048,100.625 305.83,103.895 310.007,104.896 
				310.922,104.926 311.92,104.355 312.939,103.508 314.02,101.957 314.955,100.008 315.564,98.035 315.726,96.422 			"/>
			<polygon fill="#B2CEE7" stroke="#000000" points="200.553,78.41 199.647,76.729 198.402,75.505 197.066,74.983 195.344,74.719 
				193.903,75.071 192.217,75.891 191.289,77.169 190.449,78.593 190.258,80.156 190.654,81.951 190.742,82.217 191.246,83.152 
				191.557,83.627 192.793,84.856 194.121,85.402 195.849,85.623 197.296,85.311 198.961,84.457 199.918,83.207 200.72,81.764 
				200.936,80.211 			"/>
			<polygon fill="#B2CEE7" stroke="#000000" points="214.766,84.316 214.354,83.395 209.681,80.363 208.28,79.908 204.938,78.945 
				200.792,78.75 199.456,78.987 197.899,79.58 197.081,79.99 196.355,80.596 195.866,81.273 195.71,81.893 195.519,83.154 
				195.901,83.936 198.031,86.317 200.895,87.852 202.344,88.273 208.636,89.637 211.502,89.17 212.465,88.967 213.517,88.4 
				214.45,87.587 215.082,86.682 215.291,85.865 			"/>
			<polygon fill="#B2CEE7" stroke="#000000" points="246.582,86.539 246.413,84.169 245.741,83.145 244.175,80.963 241.829,79.855 
				240.408,79.734 238.025,79.938 236.649,80.805 235.323,81.887 234.589,82.805 234.032,83.981 233.764,85.175 233.823,86.764 
				233.956,88.517 235.317,90.471 236.209,91.709 238.54,92.85 239.969,92.9 242.348,92.744 243.699,91.837 245.067,90.812 
				245.791,89.88 246.348,88.705 246.631,87.514 			"/>
			<polygon fill="#B2CEE7" stroke="#000000" points="299.326,108.693 298.813,107.613 295.235,104.928 287.424,100.871 
				268.91,90.582 249.709,82.127 246.707,81.597 245.199,81.476 244.052,82.036 242.493,83.042 240.98,84.963 239.819,87.414 
				239.247,89.891 239.378,91.893 239.682,93.111 240.622,94.436 242.92,96.453 261.531,106.18 281.125,114.209 289.171,117.777 
				293.494,118.889 294.558,118.801 295.573,118.225 296.708,117.248 297.876,115.561 298.851,113.496 299.444,111.449 
				299.538,109.818 			"/>
			<polygon fill="#B2CEE7" stroke="#000000" points="322.393,99.631 321.993,98.971 320.397,97.322 318.189,96.487 317.271,96.541 
				315.067,96.666 313.306,97.727 312.793,98.141 312.282,98.866 311.877,99.753 311.66,100.63 311.674,101.316 312.115,103.158 
				312.549,103.807 314.118,105.467 316.319,106.328 318.72,106.213 319.454,106.135 321.241,105.096 321.744,104.664 
				322.246,103.93 322.649,103.039 322.874,102.162 322.876,101.473 			"/>
			<polygon fill="#B2CEE7" stroke="#000000" points="321.164,99.103 324.848,80.062 326.15,77.36 326.713,76.59 327.533,75.793 
				328.29,75.374 328.734,75.364 327.808,75.184 326.808,75.234 325.935,75.506 325.357,75.95 323.447,77.52 323.145,78.463 
				318.755,96.641 317.919,103.172 318.299,106.143 318.876,107.355 320.312,108.273 320.272,105.639 			"/>
			<polyline fill="#B2CEE7" stroke="#000000" points="327.533,75.793 326.713,76.59 326.15,77.36 324.848,80.062 321.164,99.103 
				320.272,105.639 320.312,108.273 320.691,108.443 325.4,104.369 325.93,103.422 326.83,100.036 327.836,93.536 329.461,76.47 
				328.734,75.364 328.29,75.374 327.533,75.793 			"/>
			<polygon fill="#B2CEE7" stroke="#000000" points="306.234,115.768 305.786,113.748 305.287,113.127 303.641,111.342 
				301.356,110.42 298.885,110.535 298.023,110.666 296.232,111.734 295.657,112.215 295.101,113.008 294.674,113.955 
				294.466,114.865 294.516,115.561 294.92,117.58 295.453,118.182 297.072,119.982 299.352,120.934 301.842,120.842 
				302.693,120.674 304.516,119.623 305.078,119.127 305.627,118.324 306.05,117.373 306.268,116.465 			"/>
			<polygon fill="#B2CEE7" stroke="#000000" points="303.868,113.863 307.201,94.119 308.589,91.219 309.207,90.371 310.122,89.463 
				310.987,88.947 311.504,88.883 310.53,88.688 309.461,88.762 308.507,89.088 307.856,89.604 305.913,91.213 305.514,92.303 
				301.484,111.078 300.832,117.789 301.348,120.824 301.879,122.201 303.341,123.227 303.158,120.574 			"/>
			<polyline fill="#B2CEE7" stroke="#000000" points="310.122,89.463 309.207,90.371 308.589,91.219 307.201,94.119 
				303.868,113.863 303.158,120.574 303.341,123.227 303.793,123.35 309.07,118.646 309.639,117.625 310.519,114.098 
				311.364,107.41 312.406,89.924 311.504,88.883 310.987,88.947 310.122,89.463 			"/>
		</g>
		<line fill="none" stroke="#000000" stroke-dasharray="6,6" x1="358.061" y1="90.236" x2="144.284" y2="26.744"/>
		<line fill="none" stroke="#000000" stroke-dasharray="6,6" x1="366.918" y1="81.379" x2="160.151" y2="21.52"/>
		<text transform="matrix(1 0 0 1 367.8457 94.9512)" font-size="10">0ยบ</text>
		<text transform="matrix(1 0 0 1 297.5879 32.9512)"><tspan x="0" y="0" font-size="10">Table Longitudinal</tspan><tspan x="21.136" y="12" font-size="10">Direction</tspan></text>
		<text transform="matrix(1 0 0 1 328.5742 190.7109)"><tspan x="0" y="0" font-size="10">Positioner Primary Axis of</tspan><tspan x="38.615" y="12" font-size="10">Rotation</tspan></text>
		<text transform="matrix(1 0 0 1 381.8096 108.4814)" font-size="10">+90ยบ</text>
		<text transform="matrix(1 0 0 1 339.5645 165.7314)" font-size="10">-90ยบ</text>
		<line fill="none" stroke="#000000" x1="388.986" y1="111.59" x2="353.273" y2="155.621"/>
		<line fill="none" stroke="#000000" x1="370.91" y1="96.994" x2="370.91" y2="169.994"/>
		<polyline fill="#6799C8" stroke="#000000" stroke-linecap="round" stroke-linejoin="round" points="371.299,133.689 
			402.673,134.217 396.08,153.002 371.332,133.725 		"/>
		
			<ellipse transform="matrix(-0.9513 -0.3084 0.3084 -0.9513 735.4215 403.7843)" fill="#CCDEF0" stroke="#000000" cx="399.617" cy="143.78" rx="3.062" ry="10.018"/>
		<path fill="none" stroke="#000000" stroke-linecap="round" d="M397.425,134.129c-1.33,1.461-2.6,4.018-3.666,7.307
			c-1.162,3.586-1.569,6.906-1.201,8.822"/>
		<path fill="none" stroke="#000000" stroke-linecap="round" d="M393.524,134.062c-0.978,1.525-1.943,3.605-2.711,5.973
			c-0.983,3.033-1.426,5.875-1.316,7.84"/>
		<path fill="none" stroke="#000000" stroke-linecap="round" d="M389.801,133.998c-0.701,1.322-1.37,2.902-1.933,4.637
			c-0.919,2.836-1.365,4.992-1.331,6.934"/>
		<path fill="none" stroke="#000000" stroke-linecap="round" d="M386.196,133.939c-0.458,1.004-0.891,2.115-1.273,3.295
			c-0.719,2.217-1.148,4.33-1.285,6.076"/>
		<path fill="none" stroke="#000000" stroke-linecap="round" d="M382.68,133.879c-0.247,0.625-0.482,1.277-0.702,1.955
			c-0.608,1.877-1.01,3.68-1.201,5.248"/>
		<path fill="none" stroke="#000000" stroke-linecap="round" d="M379.238,133.822c-0.07,0.201-0.139,0.406-0.206,0.611
			c-0.507,1.562-0.87,3.076-1.089,4.443"/>
		<line fill="none" stroke="#000000" stroke-linecap="round" x1="398.295" y1="138.875" x2="400.962" y2="148.639"/>
		<polygon fill="#FFFFFF" stroke="#003468" stroke-linecap="round" stroke-linejoin="round" stroke-miterlimit="1" points="
			240.374,51.028 251.298,54.258 276.69,38.183 279.082,39.116 279.678,34.399 269.916,35.344 272.405,36.161 		"/>
	</g>
</g>
</svg>
