<?xml version="1.0" encoding="utf-8"?>
<!-- $Source: /home/bbennett/pass/archive/DicomXml/docbook/part03/figures/PS3.3_C.8.24.3.3-1.svg,v $ -->
<!-- $Date: 2014/05/09 13:15:43 $ -->
<!-- $Revision: 1.1 $ -->

<!DOCTYPE svg PUBLIC "-//W3C//DTD SVG 1.1//EN" "http://www.w3.org/Graphics/SVG/1.1/DTD/svg11.dtd">
<svg version="1.1" id="Layer_1" xmlns="http://www.w3.org/2000/svg" xmlns:xlink="http://www.w3.org/1999/xlink" x="0px" y="0px"
	 width="502px" height="412px" viewBox="0 0 502 412" enable-background="new 0 0 502 412" xml:space="preserve">

<defs>
	<style type="text/css">
	text {
	  font-family: Helvetica, Verdana, ArialUnicodeMS, san-serif
	}
	</style>
</defs>

<g>
   <desc>
	PS 3.3 Part 3: Information Object Definitions
   </desc>
</g>

<g>
	<rect x="1" y="1" fill="#F5EED6" width="500" height="410"/>
	<g>
		<rect x="312.365" y="322.735" fill="none" width="96.621" height="6.476"/>
		<text transform="matrix(1 0 0 1 312.3652 327.7441)"><tspan x="0" y="0" font-size="7">Dim</tspan><tspan x="12.44" y="0" font-size="7">e</tspan><tspan x="16.312" y="0" font-size="7">nsio</tspan><tspan x="29.152" y="0" font-size="7">n</tspan><tspan x="33.066" y="0" font-size="7"> I</tspan><tspan x="36.957" y="0" font-size="7">n</tspan><tspan x="40.871" y="0" font-size="7">dex Value</tspan><tspan x="72.004" y="0" font-size="7">s</tspan><tspan x="75.476" y="0" font-size="7"> = i/j/k</tspan></text>
		<g>
			<polyline fill="none" stroke="#343636" stroke-dasharray="3" points="207.64,140.132 133.835,140.132 133.835,195.573 			"/>
			<polyline fill="none" stroke="#343636" stroke-dasharray="3" points="141.028,188.175 141.028,147.38 203.014,147.38 			"/>
			
				<rect x="180.594" y="153.39" fill="none" stroke="#343636" stroke-width="0.699" stroke-dasharray="3" width="19.6" height="13.846"/>
			
				<rect x="170.377" y="160.831" fill="none" stroke="#343636" stroke-width="0.699" stroke-dasharray="3" width="19.599" height="13.846"/>
			
				<rect x="159.918" y="167.772" fill="none" stroke="#343636" stroke-width="0.699" stroke-dasharray="3" width="19.6" height="13.848"/>
			
				<rect x="147.113" y="175.216" fill="none" stroke="#343636" stroke-width="0.699" stroke-dasharray="3" width="19.6" height="13.846"/>
		</g>
		<g>
			<rect x="230.22" y="103.051" fill="#CCDEF0" stroke="#003468" stroke-miterlimit="10" width="246.791" height="189.336"/>
			<rect x="235.72" y="118.719" fill="#B2CEE7" stroke="#86B2D8" width="89.367" height="58.929"/>
			<g>
				<rect x="290.771" y="122.199" fill="#FFFFFF" stroke="#000000" stroke-width="0.699" width="30" height="20"/>
				<text transform="matrix(1 0 0 1 294.2617 130.3691)" fill="#ED1C24" font-size="7">n</text>
			</g>
			<g>
				<rect x="275.13" y="132.948" fill="none" stroke="#000000" stroke-width="0.699" width="30" height="20"/>
				<text transform="matrix(1 0 0 1 277.6465 141.1191)" font-size="7">...</text>
			</g>
			<g>
				<rect x="259.122" y="142.978" fill="#FFFFFF" stroke="#000000" stroke-width="0.699" width="30" height="20"/>
				<text transform="matrix(1 0 0 1 262.6133 151.1489)" font-size="7">2</text>
			</g>
			<g>
				<rect x="239.522" y="153.727" fill="#FFFFFF" stroke="#000000" stroke-width="0.699" width="30" height="20"/>
				<text transform="matrix(1 0 0 1 243.0093 161.8989)" font-size="7">1</text>
			</g>
			<g>
				
					<polyline fill="none" stroke="#343636" stroke-width="0.75" stroke-linecap="round" stroke-linejoin="round" stroke-miterlimit="1" stroke-dasharray="3" points="
					382.261,152.447 363.929,152.447 363.929,211.254 				"/>
				
					<line fill="none" stroke="#343636" stroke-width="0.75" stroke-linecap="round" stroke-linejoin="round" stroke-miterlimit="1" stroke-dasharray="3" x1="363.929" y1="170.447" x2="382.261" y2="170.447"/>
			</g>
			<g>
				
					<polyline fill="none" stroke="#343636" stroke-width="0.75" stroke-linecap="round" stroke-linejoin="round" stroke-miterlimit="1" stroke-dasharray="3" points="
					388.206,178.679 351.538,178.679 351.538,222.481 				"/>
				
					<line fill="none" stroke="#353636" stroke-width="0.75" stroke-linecap="round" stroke-linejoin="round" stroke-miterlimit="1" stroke-dasharray="3" x1="351.538" y1="196.679" x2="388.206" y2="196.679"/>
			</g>
			<g>
				
					<rect x="333.204" y="211.322" fill="#B2CEE7" stroke="#010101" stroke-width="0.75" stroke-linecap="round" stroke-linejoin="round" stroke-miterlimit="1" width="90.826" height="75.547"/>
				
					<rect x="333.204" y="211.322" fill="#6799C8" stroke="#010101" stroke-width="0.75" stroke-linecap="round" stroke-linejoin="round" stroke-miterlimit="1" width="90.826" height="17.998"/>
				<rect x="334.269" y="217.164" fill="none" width="89.762" height="9.517"/>
				<text transform="matrix(0.9288 0 0 1 335.6816 222.8887)" font-size="8">Image Position = -15.0mm</text>
				<g>
					
						<rect x="357.413" y="276.035" fill="#FFFFFF" stroke="#010101" stroke-width="0.5" stroke-linecap="round" stroke-linejoin="round" stroke-miterlimit="1" width="42.408" height="7"/>
					
						<rect x="357.413" y="269.27" fill="#86B2D8" stroke="#010101" stroke-width="0.5" stroke-linecap="round" stroke-linejoin="round" stroke-miterlimit="1" width="42.408" height="7"/>
					
						<rect x="357.413" y="247.476" fill="#FFFFFF" stroke="#010101" stroke-width="0.5" stroke-linecap="round" stroke-linejoin="round" stroke-miterlimit="1" width="42.408" height="7"/>
					
						<rect x="357.413" y="240.349" fill="#86B2D8" stroke="#010101" stroke-width="0.5" stroke-linecap="round" stroke-linejoin="round" stroke-miterlimit="1" width="42.408" height="6.999"/>
					<rect x="359.034" y="234.059" fill="none" width="39.484" height="48.828"/>
					<text transform="matrix(0.9288 0 0 1 359.0332 239.0684)"><tspan x="0" y="0" fill="#ED1C24" font-size="7">k</tspan><tspan x="3.501" y="0" font-size="7">/</tspan><tspan x="5.446" y="0" fill="#ED1C24" font-size="7">1</tspan><tspan x="9.339" y="0" font-size="7">/1</tspan><tspan x="0" y="7.199" font-size="6">Data Type:</tspan><tspan x="0" y="14.399" font-size="6">Tissue Intensity</tspan><tspan x="0" y="28.799" fill="#ED1C24" font-size="7">k</tspan><tspan x="3.501" y="28.799" font-size="7">/</tspan><tspan x="5.446" y="28.799" fill="#ED1C24" font-size="7">1</tspan><tspan x="9.339" y="28.799" font-size="7">/2</tspan><tspan x="0" y="36" font-size="6">Data Type:</tspan><tspan x="0" y="43.199" font-size="6">Flow Velocity</tspan></text>
				</g>
			</g>
			<g>
				
					<rect x="377.407" y="127.599" fill="#B2CEE7" stroke="#010101" stroke-width="0.75" stroke-linecap="round" stroke-linejoin="round" stroke-miterlimit="1" width="90.826" height="75.551"/>
				
					<rect x="377.407" y="127.599" fill="#6799C8" stroke="#010101" stroke-width="0.75" stroke-linecap="round" stroke-linejoin="round" stroke-miterlimit="1" width="90.826" height="18"/>
				<rect x="378.472" y="133.441" fill="none" width="89.762" height="9.518"/>
				<text transform="matrix(0.9288 0 0 1 378.9521 139.1655)" font-size="8">Image Position = +10.0mm</text>
				<g>
					
						<rect x="401.616" y="192.315" fill="#FFFFFF" stroke="#010101" stroke-width="0.5" stroke-linecap="round" stroke-linejoin="round" stroke-miterlimit="1" width="42.408" height="7"/>
					
						<rect x="401.616" y="185.55" fill="#86B2D8" stroke="#010101" stroke-width="0.5" stroke-linecap="round" stroke-linejoin="round" stroke-miterlimit="1" width="42.408" height="7"/>
					
						<rect x="401.616" y="163.756" fill="#FFFFFF" stroke="#010101" stroke-width="0.5" stroke-linecap="round" stroke-linejoin="round" stroke-miterlimit="1" width="42.408" height="7"/>
					
						<rect x="401.616" y="156.629" fill="#86B2D8" stroke="#010101" stroke-width="0.5" stroke-linecap="round" stroke-linejoin="round" stroke-miterlimit="1" width="42.408" height="6.999"/>
					<rect x="403.237" y="150.337" fill="none" width="39.484" height="48.83"/>
					<text transform="matrix(0.9288 0 0 1 403.2383 155.3462)"><tspan x="0" y="0" fill="#ED1C24" font-size="7">k</tspan><tspan x="3.499" y="0" font-size="7">/</tspan><tspan x="5.444" y="0" fill="#ED1C24" font-size="7">n</tspan><tspan x="9.339" y="0" font-size="7">/1</tspan><tspan x="0" y="7.2" font-size="6">Data Type:</tspan><tspan x="0" y="14.4" font-size="6">Tissue Intensity</tspan><tspan x="0" y="28.8" fill="#ED1C24" font-size="7">k</tspan><tspan x="3.499" y="28.8" font-size="7">/</tspan><tspan x="5.444" y="28.8" fill="#ED1C24" font-size="7">n</tspan><tspan x="9.339" y="28.8" font-size="7">/2</tspan><tspan x="0" y="36" font-size="6">Data Type:</tspan><tspan x="0" y="43.2" font-size="6">Flow Velocity</tspan></text>
				</g>
			</g>
			<g>
				<g>
					
						<line fill="none" stroke="#000000" stroke-linecap="round" stroke-linejoin="round" x1="320.771" y1="132.199" x2="372.092" y2="132.199"/>
					<g>
						<polygon points="370.902,133.942 377.407,132.199 370.902,130.456 						"/>
					</g>
				</g>
			</g>
			<g>
				<g>
					
						<line fill="none" stroke="#000000" stroke-linecap="round" stroke-linejoin="round" stroke-dasharray="3,3" x1="305.771" y1="143.924" x2="358.797" y2="158.26"/>
					<g>
						<polygon points="357.194,159.633 363.929,159.647 358.104,156.267 						"/>
					</g>
				</g>
			</g>
			<g>
				<g>
					
						<line fill="none" stroke="#000000" stroke-linecap="round" stroke-linejoin="round" stroke-dasharray="3,3" x1="289.122" y1="154.366" x2="346.785" y2="183.174"/>
					<g>
						<polygon points="344.942,184.202 351.54,185.55 346.5,181.083 						"/>
					</g>
				</g>
			</g>
			<g>
				<g>
					
						<line fill="none" stroke="#000000" stroke-linecap="round" stroke-linejoin="round" x1="269.519" y1="164.381" x2="329.161" y2="215.3"/>
					<g>
						<polygon points="327.125,215.854 333.204,218.751 329.389,213.202 						"/>
					</g>
				</g>
			</g>
			<rect x="233.846" y="109.288" fill="none" width="92.25" height="8.125"/>
			<text transform="matrix(0.9288 0 0 1 234.7441 115.0127)" font-size="8">Image Position (0020,xx01)</text>
		</g>
		<g>
			<rect x="35.763" y="206.542" fill="#CCDEF0" stroke="#003468" stroke-miterlimit="10" width="246.792" height="189.336"/>
			<rect x="41.263" y="222.21" fill="#B2CEE7" stroke="#86B2D8" width="89.368" height="58.929"/>
			<g>
				<rect x="96.314" y="225.69" fill="#FFFFFF" stroke="#000000" stroke-width="0.699" width="30" height="20"/>
				<text transform="matrix(1 0 0 1 99.8047 233.8555)" fill="#ED1C24" font-size="7">n</text>
			</g>
			<g>
				<rect x="80.674" y="236.439" fill="none" stroke="#000000" stroke-width="0.699" width="30" height="20"/>
				<text transform="matrix(1 0 0 1 83.1899 244.6055)" font-size="7">...</text>
			</g>
			<g>
				<rect x="64.666" y="246.469" fill="#FFFFFF" stroke="#000000" stroke-width="0.699" width="30" height="20"/>
				<text transform="matrix(1 0 0 1 68.1567 254.6348)" font-size="7">2</text>
			</g>
			<g>
				<rect x="45.066" y="257.218" fill="#FFFFFF" stroke="#000000" stroke-width="0.699" width="30" height="20"/>
				<text transform="matrix(1 0 0 1 48.5527 265.3848)" font-size="7">1</text>
			</g>
			<g>
				
					<polyline fill="none" stroke="#343636" stroke-width="0.75" stroke-linecap="round" stroke-linejoin="round" stroke-miterlimit="1" stroke-dasharray="3" points="
					187.805,255.938 169.473,255.938 169.473,314.745 				"/>
				
					<line fill="none" stroke="#343636" stroke-width="0.75" stroke-linecap="round" stroke-linejoin="round" stroke-miterlimit="1" stroke-dasharray="3" x1="169.473" y1="273.938" x2="187.805" y2="273.938"/>
			</g>
			<g>
				
					<polyline fill="none" stroke="#343636" stroke-width="0.75" stroke-linecap="round" stroke-linejoin="round" stroke-miterlimit="1" stroke-dasharray="3" points="
					193.75,282.17 157.082,282.17 157.082,325.973 				"/>
				
					<line fill="none" stroke="#353636" stroke-width="0.75" stroke-linecap="round" stroke-linejoin="round" stroke-miterlimit="1" stroke-dasharray="3" x1="157.082" y1="300.17" x2="193.75" y2="300.17"/>
			</g>
			<g>
				
					<rect x="138.748" y="314.813" fill="#B2CEE7" stroke="#010101" stroke-width="0.75" stroke-linecap="round" stroke-linejoin="round" stroke-miterlimit="1" width="90.826" height="75.547"/>
				
					<rect x="138.748" y="314.813" fill="#6799C8" stroke="#010101" stroke-width="0.75" stroke-linecap="round" stroke-linejoin="round" stroke-miterlimit="1" width="90.826" height="17.998"/>
				<rect x="139.812" y="320.655" fill="none" width="89.762" height="9.517"/>
				<text transform="matrix(0.9288 0 0 1 141.2256 326.3799)" font-size="8">Image Position = -15.0mm</text>
				<g>
					
						<rect x="162.957" y="379.526" fill="#FFFFFF" stroke="#010101" stroke-width="0.5" stroke-linecap="round" stroke-linejoin="round" stroke-miterlimit="1" width="42.408" height="7"/>
					
						<rect x="162.957" y="372.761" fill="#86B2D8" stroke="#010101" stroke-width="0.5" stroke-linecap="round" stroke-linejoin="round" stroke-miterlimit="1" width="42.408" height="7"/>
					
						<rect x="162.957" y="350.967" fill="#FFFFFF" stroke="#010101" stroke-width="0.5" stroke-linecap="round" stroke-linejoin="round" stroke-miterlimit="1" width="42.408" height="7"/>
					
						<rect x="162.957" y="343.84" fill="#86B2D8" stroke="#010101" stroke-width="0.5" stroke-linecap="round" stroke-linejoin="round" stroke-miterlimit="1" width="42.408" height="6.999"/>
					<rect x="164.578" y="337.55" fill="none" width="39.485" height="48.828"/>
					<text transform="matrix(0.9288 0 0 1 164.5771 342.5586)"><tspan x="0" y="0" font-size="7">1/</tspan><tspan x="5.838" y="0" fill="#ED1C24" font-size="7">1</tspan><tspan x="9.732" y="0" font-size="7">/1</tspan><tspan x="0" y="7.2" font-size="6">Data Type:</tspan><tspan x="0" y="14.4" font-size="6">Tissue Intensity</tspan><tspan x="0" y="28.8" font-size="7">1/</tspan><tspan x="5.838" y="28.8" fill="#ED1C24" font-size="7">1</tspan><tspan x="9.732" y="28.8" font-size="7">/2</tspan><tspan x="0" y="36" font-size="6">Data Type:</tspan><tspan x="0" y="43.199" font-size="6">Flow Velocity</tspan></text>
				</g>
			</g>
			<g>
				
					<rect x="182.951" y="231.09" fill="#B2CEE7" stroke="#010101" stroke-width="0.75" stroke-linecap="round" stroke-linejoin="round" stroke-miterlimit="1" width="90.826" height="75.551"/>
				
					<rect x="182.951" y="231.09" fill="#6799C8" stroke="#010101" stroke-width="0.75" stroke-linecap="round" stroke-linejoin="round" stroke-miterlimit="1" width="90.826" height="18"/>
				<rect x="184.015" y="236.932" fill="none" width="89.762" height="9.518"/>
				<text transform="matrix(0.9288 0 0 1 184.4961 242.6562)" font-size="8">Image Position = +10.0mm</text>
				<g>
					
						<rect x="207.16" y="295.807" fill="#FFFFFF" stroke="#010101" stroke-width="0.5" stroke-linecap="round" stroke-linejoin="round" stroke-miterlimit="1" width="42.408" height="7"/>
					
						<rect x="207.16" y="289.041" fill="#86B2D8" stroke="#010101" stroke-width="0.5" stroke-linecap="round" stroke-linejoin="round" stroke-miterlimit="1" width="42.408" height="7"/>
					
						<rect x="207.16" y="267.247" fill="#FFFFFF" stroke="#010101" stroke-width="0.5" stroke-linecap="round" stroke-linejoin="round" stroke-miterlimit="1" width="42.408" height="7"/>
					
						<rect x="207.16" y="260.119" fill="#86B2D8" stroke="#010101" stroke-width="0.5" stroke-linecap="round" stroke-linejoin="round" stroke-miterlimit="1" width="42.408" height="7"/>
					<rect x="208.781" y="253.828" fill="none" width="39.484" height="48.83"/>
					<text transform="matrix(0.9288 0 0 1 208.7812 258.8369)"><tspan x="0" y="0" font-size="7">1/</tspan><tspan x="5.838" y="0" fill="#ED1C24" font-size="7">n</tspan><tspan x="9.732" y="0" font-size="7">/1</tspan><tspan x="0" y="7.2" font-size="6">Data Type:</tspan><tspan x="0" y="14.399" font-size="6">Tissue Intensity</tspan><tspan x="0" y="28.8" font-size="7">1/</tspan><tspan x="5.838" y="28.8" fill="#ED1C24" font-size="7">n</tspan><tspan x="9.732" y="28.8" font-size="7">/2</tspan><tspan x="0" y="36" font-size="6">Data Type:</tspan><tspan x="0" y="43.2" font-size="6">Flow Velocity</tspan></text>
				</g>
			</g>
			<g>
				<g>
					
						<line fill="none" stroke="#000000" stroke-linecap="round" stroke-linejoin="round" x1="126.314" y1="235.69" x2="177.636" y2="235.69"/>
					<g>
						<polygon points="176.447,237.434 182.951,235.69 176.447,233.947 						"/>
					</g>
				</g>
			</g>
			<g>
				<g>
					
						<line fill="none" stroke="#000000" stroke-linecap="round" stroke-linejoin="round" stroke-dasharray="3,3" x1="111.314" y1="247.415" x2="164.341" y2="261.751"/>
					<g>
						<polygon points="162.739,263.124 169.473,263.139 163.648,259.759 						"/>
					</g>
				</g>
			</g>
			<g>
				<g>
					
						<line fill="none" stroke="#000000" stroke-linecap="round" stroke-linejoin="round" stroke-dasharray="3,3" x1="94.666" y1="257.857" x2="152.329" y2="286.665"/>
					<g>
						<polygon points="150.486,287.693 157.084,289.041 152.044,284.574 						"/>
					</g>
				</g>
			</g>
			<g>
				<g>
					
						<line fill="none" stroke="#000000" stroke-linecap="round" stroke-linejoin="round" x1="75.062" y1="267.871" x2="134.706" y2="318.791"/>
					<g>
						<polygon points="132.669,319.345 138.748,322.242 134.933,316.693 						"/>
					</g>
				</g>
			</g>
			<rect x="39.39" y="212.779" fill="none" width="92.25" height="8.125"/>
			<text transform="matrix(0.9288 0 0 1 40.2881 218.5039)" font-size="8">Image Position (0020,xx01)</text>
		</g>
		<rect x="36.273" y="16.123" fill="none" width="63.633" height="28.21"/>
		<text transform="matrix(0.9288 0 0 1 36.2734 21.8467)"><tspan x="0" y="0" font-size="8">Temporal Position</tspan><tspan x="0" y="9.6" font-size="8">Time Offset = 0.0</tspan><tspan x="0" y="19.2" font-size="8">(0020, xx0D)</tspan></text>
		<rect x="135.906" y="16.123" fill="none" width="63.633" height="28.21"/>
		<text transform="matrix(0.9288 0 0 1 135.9048 21.8477)"><tspan x="0" y="0" font-size="8">Temporal Position</tspan><tspan x="0" y="9.6" font-size="8">Time Offset = 0.t</tspan><tspan x="0" y="19.2" font-size="8">(0020, xx0D)</tspan></text>
		<rect x="235.539" y="16.123" fill="none" width="63.634" height="28.21"/>
		<text transform="matrix(0.9288 0 0 1 235.5376 21.8477)"><tspan x="0" y="0" font-size="8">Temporal Position</tspan><tspan x="0" y="9.6" font-size="8">Time Offset = 0.67</tspan><tspan x="0" y="19.2" font-size="8">(0020, xx0D)</tspan></text>
		<g>
			<g>
				<line fill="none" stroke="#343636" stroke-width="2" x1="373.006" y1="57.278" x2="24.989" y2="57.278"/>
				<g>
					<polygon fill="#343636" points="371.421,54.954 380.094,57.278 371.421,59.603 					"/>
				</g>
			</g>
		</g>
		<line fill="none" stroke="#343636" x1="241.73" y1="64.68" x2="241.699" y2="49.68"/>
		<line fill="none" stroke="#343636" x1="191.699" y1="64.762" x2="191.668" y2="49.763"/>
		<line fill="none" stroke="#343636" x1="141.668" y1="64.845" x2="141.637" y2="49.846"/>
		<line fill="none" stroke="#343636" x1="341.823" y1="64.68" x2="341.792" y2="49.68"/>
		<line fill="none" stroke="#343636" x1="291.792" y1="64.762" x2="291.761" y2="49.763"/>
		<line fill="none" stroke="#343636" x1="91.637" y1="64.929" x2="91.605" y2="49.929"/>
		<line fill="none" stroke="#343636" x1="41.604" y1="65.095" x2="41.572" y2="50.092"/>
		<g>
			<g>
				<line fill="none" stroke="#005695" x1="41.572" y1="68.853" x2="41.572" y2="194.29"/>
				<g>
					<polygon fill="#005695" points="38.667,192.309 41.572,203.149 44.478,192.309 					"/>
				</g>
			</g>
		</g>
		<g>
			<g>
				<line fill="none" stroke="#005695" x1="241.715" y1="68.853" x2="241.715" y2="90.093"/>
				<g>
					<polygon fill="#005695" points="238.81,88.111 241.715,98.952 244.62,88.111 					"/>
				</g>
			</g>
		</g>
		<g>
			<g>
				<line fill="none" stroke="#005695" stroke-dasharray="3,3" x1="141.668" y1="68.853" x2="141.668" y2="128.118"/>
				<g>
					<polygon fill="#005695" points="138.763,126.137 141.668,136.978 144.573,126.137 					"/>
				</g>
			</g>
		</g>
		<ellipse fill="none" stroke="#ED1C24" stroke-miterlimit="10" cx="214.614" cy="285.342" rx="15.606" ry="5.732"/>
		<ellipse fill="none" stroke="#ED1C24" stroke-miterlimit="10" cx="366.45" cy="265.596" rx="15.605" ry="5.732"/>
		<g>
			<g>
				<polyline fill="none" stroke="#000000" stroke-width="0.5" points="314.53,318.906 314.53,265.85 342.794,265.85 				"/>
				<g>
					<polygon points="341.803,267.303 347.224,265.85 341.803,264.396 					"/>
				</g>
			</g>
		</g>
		<g>
			<g>
				<polyline fill="none" stroke="#000000" stroke-width="0.5" points="236.975,285.342 314.53,285.342 314.53,318.906 				"/>
				<g>
					<polygon points="237.965,286.795 232.545,285.342 237.965,283.889 					"/>
				</g>
			</g>
		</g>
	</g>
</g>
</svg>
