<?xml version="1.0" encoding="utf-8"?>
<!-- $Source: /home/bbennett/pass/archive/DicomXml/docbook/part03/figures/PS3.3_C.8.8.14-1.svg,v $ -->
<!-- $Date: 2014/05/09 12:27:10 $ -->
<!-- $Revision: 1.2 $ -->

<!DOCTYPE svg PUBLIC "-//W3C//DTD SVG 1.1//EN" "http://www.w3.org/Graphics/SVG/1.1/DTD/svg11.dtd">
<svg version="1.1" id="Layer_1" xmlns="http://www.w3.org/2000/svg" xmlns:xlink="http://www.w3.org/1999/xlink" x="0px" y="0px"
	 width="502px" height="292px" viewBox="0 0 502 292" enable-background="new 0 0 502 292" xml:space="preserve">

<defs>
	<style type="text/css">
	text {
	  font-family: Helvetica, Verdana, ArialUnicodeMS, san-serif
	}
	</style>
</defs>

<g>
   <desc>
	PS 3.3 Part 3: Information Object Definitions
   </desc>
</g>

<g>
	<rect x="1" y="1" fill="#F5EED6" width="500" height="290"/>
	<g>
		
			<ellipse transform="matrix(0.9995 -0.0318 0.0318 0.9995 -6.0925 7.1553)" fill="#CCDEF0" stroke="#000000" stroke-linecap="round" stroke-linejoin="round" cx="222.095" cy="195.279" rx="98.752" ry="40.752"/>
		<g>
			<g>
				<line fill="none" stroke="#ED1C24" stroke-width="2" x1="222.219" y1="182.644" x2="298.679" y2="242.554"/>
				<g>
					<polygon fill="#ED1C24" points="294.656,243.831 307.047,249.11 298.957,238.343 					"/>
				</g>
			</g>
		</g>
		<g>
			<g>
				<polyline fill="none" stroke="#005695" stroke-width="2" points="363.715,118.758 353.07,118.758 321.711,140.145 				"/>
				<g>
					<polygon fill="#005695" points="321.711,137.331 315.855,144.138 324.33,141.171 					"/>
				</g>
			</g>
		</g>
		<g>
			<g>
				<polyline fill="none" stroke="#005695" stroke-width="2" points="173.428,19.502 184.718,19.502 197.481,78.837 				"/>
				<g>
					<polygon fill="#005695" points="194.875,77.776 198.972,85.766 199.42,76.799 					"/>
				</g>
			</g>
		</g>
		
			<line fill="none" stroke="#000000" stroke-linecap="round" stroke-linejoin="round" x1="188.355" y1="156.298" x2="277.727" y2="226.343"/>
		
			<line fill="none" stroke="#000000" stroke-linecap="round" stroke-linejoin="round" x1="298.322" y1="166.325" x2="122.469" y2="204.64"/>
		<path fill="#E6E7E8" stroke="#000000" d="M222.013,182.942l74.314-16.182c-2.275-12.371-6.919-23.749-13.365-33.49
			L222.013,182.942z"/>
		<g>
			<g>
				<path fill="none" stroke="#000000" d="M306.957,126.316c6.32,10.408,10.94,22.037,13.455,34.466"/>
				<g>
					<polygon points="305.559,129.602 302.047,118.941 310.418,126.417 					"/>
				</g>
			</g>
		</g>
		<path fill="#E6E7E8" stroke="#000000" d="M222.013,182.942l60.949-49.671c-13.572-20.51-35.134-33.769-59.414-33.769
			c-0.444,0-0.888,0.004-1.329,0.014L222.013,182.942z"/>
		<path fill="none" stroke="#000000" stroke-dasharray="2" d="M280.322,133.668c-12.894-19.484-33.377-32.08-56.443-32.08
			c-0.556,0-1.109,0.008-1.661,0.021"/>
		<g>
			<g>
				<line fill="none" stroke="#0DB14B" stroke-width="2" x1="221.451" y1="182.718" x2="339.623" y2="157.111"/>
				<g>
					<polygon fill="#0DB14B" points="338.037,161.022 350.013,154.86 336.561,154.208 					"/>
				</g>
			</g>
		</g>
		<g>
			<g>
				
					<line fill="none" stroke="#0DB14B" stroke-width="2" stroke-dasharray="2,2" x1="221.451" y1="182.866" x2="320.1" y2="103.286"/>
				<g>
					<polygon fill="#0DB14B" points="320.438,107.492 328.374,96.61 316.06,102.065 					"/>
				</g>
			</g>
		</g>
		<path fill="#E6E7E8" stroke="#000000" stroke-dasharray="2" d="M222.219,99.516c-16.928,0.338-32.475,7.119-44.835,18.284
			l44.629,65.142"/>
		<g>
			<g>
				<path fill="none" stroke="#000000" d="M176.806,97.486c12.82-9.812,28.015-15.63,44.333-15.97"/>
				<g>
					<polygon points="180.254,98.543 170.055,103.227 176.545,94.071 					"/>
				</g>
			</g>
		</g>
		<path fill="#D1D3D4" stroke="#000000" d="M221.908,182.036l47.146,37.51c-3.997-68.338-23.585-120.215-47.146-120.215V182.036z"/>
		<g>
			<g>
				<line fill="none" stroke="#00AEEF" stroke-width="2" x1="222.219" y1="183.071" x2="222.219" y2="53.492"/>
				<g>
					<polygon fill="#00AEEF" points="225.705,55.869 222.219,42.86 218.732,55.869 					"/>
				</g>
			</g>
		</g>
		<path fill="#A7A9AC" stroke="#000000" stroke-dasharray="2" d="M222.688,183.476l-6.304-8.811l-38.617-57.209
			c8.891,3.949,29.962,23.976,52.17,50.124c19.107,22.494,32.027,40.027,37.713,50.766L222.688,183.476z"/>
		<g>
			<g>
				
					<line fill="none" stroke="#00AEEF" stroke-width="2" stroke-dasharray="2,2" x1="222.219" y1="183.042" x2="149.353" y2="75.901"/>
				<g>
					<polygon fill="#00AEEF" points="153.573,75.907 143.374,67.11 147.807,79.828 					"/>
				</g>
			</g>
		</g>
		<g>
			<g>
				<path fill="none" stroke="#000000" d="M315.674,241.185c6.083-2.382,12.152-1.951,15.919,1.738
					c5.925,5.803,3.909,17.469-4.5,26.056c-8.411,8.589-20.033,10.846-25.958,5.043c-4.405-4.314-4.421-11.87-0.681-18.993"/>
				<g>
					<polygon points="318.913,242.865 308.062,245.732 316.025,237.823 					"/>
				</g>
			</g>
		</g>
		<g>
			<text transform="matrix(1 0 0 1 184.7021 224.4404)" font-size="11">Xt - Yt Plane</text>
		</g>
		<text transform="matrix(1 0 0 1 333.6875 95.5137)"><tspan x="0" y="0" fill="#0DB14B" font-size="11">Y’</tspan><tspan x="10.362" y="5" fill="#0DB14B" font-size="11">t</tspan></text>
		<text transform="matrix(1 0 0 1 353.9102 159.0137)"><tspan x="0" y="0" fill="#0DB14B" font-size="11">Y</tspan><tspan x="9.14" y="5" fill="#0DB14B" font-size="11">t</tspan></text>
		<text transform="matrix(1 0 0 1 309.2178 259.9844)"><tspan x="0" y="0" fill="#ED1C24" font-size="11">X</tspan><tspan x="9.14" y="5" fill="#ED1C24" font-size="11">t</tspan></text>
		<text transform="matrix(1 0 0 1 366.5801 123.7603)"><tspan x="0" y="0" font-size="11">Ψ</tspan><tspan x="9.895" y="7" font-size="11">t</tspan></text>
		<text transform="matrix(1 0 0 1 218.7188 35.5137)"><tspan x="0" y="0" fill="#00AEEF" font-size="11">Z</tspan><tspan x="8.831" y="5" fill="#00AEEF" font-size="11">t</tspan></text>
		<text transform="matrix(1 0 0 1 137.4966 62.0137)"><tspan x="0" y="0" fill="#00AEEF" font-size="11">Z’</tspan><tspan x="10.053" y="5" fill="#00AEEF" font-size="11">t</tspan></text>
		<text transform="matrix(1 0 0 1 157.2544 24.5054)"><tspan x="0" y="0" font-size="11">Ψ</tspan><tspan x="9.895" y="7" font-size="11">t</tspan></text>
	</g>
</g>
</svg>
