<?xml version="1.0" encoding="utf-8"?>
<!-- $Source: /home/bbennett/pass/archive/DicomXml/docbook/part03/figures/PS3.3_C.8.11.7-2d.svg,v $ -->
<!-- $Date: 2014/05/09 12:30:19 $ -->
<!-- $Revision: 1.2 $ -->

<!DOCTYPE svg PUBLIC "-//W3C//DTD SVG 1.1//EN" "http://www.w3.org/Graphics/SVG/1.1/DTD/svg11.dtd">
<svg version="1.1" id="Layer_1" xmlns="http://www.w3.org/2000/svg" xmlns:xlink="http://www.w3.org/1999/xlink" x="0px" y="0px"
	 width="502px" height="192px" viewBox="0 0 502 192" enable-background="new 0 0 502 192" xml:space="preserve">

<defs>
	<style type="text/css">
	text {
	  font-family: Helvetica, Verdana, ArialUnicodeMS, san-serif
	}
	</style>
</defs>

<g>
   <desc>
	PS 3.3 Part 3: Information Object Definitions
   </desc>
</g>

<g>
	<rect x="1" y="1" fill="#F5EED6" width="500" height="190"/>
	<g>
		<g>
			<text transform="matrix(0.963 0 0 1 201.2876 24.77)" font-size="10">axilla</text>
		</g>
		<g>
			<text transform="matrix(0.963 0 0 1 231.7773 42.7432)" font-size="10">A</text>
		</g>
		<g>
			<text transform="matrix(0.963 0 0 1 239.3169 156.7432)" font-size="10">B</text>
		</g>
		<g>
			<text transform="matrix(0.963 0 0 1 286.7852 52.7432)" font-size="10">C</text>
		</g>
		<g>
			<text transform="matrix(0.963 0 0 1 286.7852 166.2432)" font-size="10">D</text>
		</g>
		<polyline fill-rule="evenodd" clip-rule="evenodd" fill="#005695" points="209.12,48.171 207.68,50.571 208.641,51.051 
			209.359,51.531 211.52,52.731 214.16,53.931 217.04,55.371 220.16,56.811 223.28,58.491 226.88,60.171 230.479,61.851 
			237.44,65.691 241.04,67.611 244.4,69.531 247.52,71.451 250.4,73.371 250.88,71.931 249.92,73.131 252.32,75.051 254.72,76.731 
			258.32,80.571 261.68,84.411 263.12,86.331 264.56,88.251 265.76,87.291 264.32,87.771 265.521,89.931 266.72,91.851 
			267.68,94.012 268.64,95.932 269.36,97.852 270.08,99.771 270.32,101.932 271.76,101.211 270.32,101.211 270.56,103.131 
			270.8,105.051 270.8,106.731 270.56,108.651 272,108.651 270.56,107.931 270.08,109.851 269.6,111.53 268.88,113.45 
			267.92,115.13 266.72,116.812 268.16,117.53 267.2,116.331 266,118.251 264.56,119.931 261.68,123.05 258.32,126.171 
			254.48,129.05 255.68,130.011 254.96,128.812 251.12,131.45 248.96,132.411 246.8,133.37 244.16,134.331 241.28,135.29 
			238.399,136.011 235.521,136.731 229.28,138.171 230,139.61 230,138.171 224,139.37 221.12,139.851 218.24,140.331 215.6,140.812 
			213.439,141.29 212.721,141.53 210.561,142.011 209.12,142.251 209.84,145.13 211.76,144.651 213.92,144.171 213.439,142.972 
			213.439,144.411 215.6,143.931 218.24,143.45 221.12,142.972 224,142.251 230,141.05 230.479,141.05 236.72,139.61 
			239.601,138.892 242.48,137.931 245.359,136.972 248,136.011 250.16,135.05 252.561,133.851 256.16,131.45 256.64,131.21 
			260.48,128.331 263.84,125.21 266.72,122.091 268.16,120.411 269.36,118.491 269.6,118.011 270.56,116.331 271.521,114.651 
			272.24,112.731 272.96,111.05 273.44,109.13 273.44,108.651 273.68,106.972 273.68,105.051 273.68,103.131 273.2,101.211 
			273.2,100.731 272.72,98.571 272.24,96.651 271.521,94.731 270.56,92.812 269.6,90.651 268.4,88.731 267.2,86.571 266.72,86.091 
			265.28,84.171 263.84,82.251 260.48,78.411 256.64,74.571 254.48,72.891 252.08,70.971 251.6,70.731 248.721,68.811 245.6,66.891 
			242.24,64.971 238.64,63.051 231.681,59.211 228.08,57.531 224.48,55.611 221.359,54.171 218.24,52.491 215.359,51.291 
			212.721,49.851 210.561,48.891 209.84,48.411 		"/>
		<rect x="199.28" y="31.371" fill="none" stroke="#000000" width="54.239" height="72"/>
		<rect x="243.92" y="40.251" fill="none" stroke="#000000" width="54.24" height="72"/>
		<rect x="248.68" y="103.371" fill="none" stroke="#000000" width="54.04" height="72.72"/>
		<rect x="203.12" y="94.491" fill="none" stroke="#000000" width="54" height="72"/>
	</g>
</g>
</svg>
