<?xml version="1.0" encoding="utf-8"?>
<!-- $Source: /home/bbennett/pass/archive/DicomXml/docbook/part03/figures/PS3.3_C.8-7.svg,v $ -->
<!-- $Date: 2014/05/09 12:27:11 $ -->
<!-- $Revision: 1.2 $ -->

<!DOCTYPE svg PUBLIC "-//W3C//DTD SVG 1.1//EN" "http://www.w3.org/Graphics/SVG/1.1/DTD/svg11.dtd">
<svg version="1.1" id="Layer_1" xmlns="http://www.w3.org/2000/svg" xmlns:xlink="http://www.w3.org/1999/xlink" x="0px" y="0px"
	 width="502px" height="607px" viewBox="0 0 502 607" enable-background="new 0 0 502 607" xml:space="preserve">

<defs>
	<style type="text/css">
	text {
	  font-family: Helvetica, Verdana, ArialUnicodeMS, san-serif
	}
	</style>
</defs>

<g>
   <desc>
	PS 3.3 Part 3: Information Object Definitions
   </desc>
</g>

<g>
	<rect x="1" y="1" fill="#F5EED6" width="500" height="605"/>
	<g>
		<g>
			
				<path fill="#CCDEF0" stroke="#010101" stroke-width="0.75" stroke-linecap="round" stroke-linejoin="round" stroke-miterlimit="1" d="
				M474.08,134.048c0,6.259-5.385,11.331-12.027,11.331H126.108c-6.643,0-12.028-5.072-12.028-11.331V41.511
				c0-6.259,5.386-11.332,12.028-11.332h335.944c6.643,0,12.027,5.073,12.027,11.332V134.048z"/>
			
				<rect x="27.92" y="56.775" fill="#005695" stroke="#010101" stroke-width="0.75" stroke-linecap="round" stroke-linejoin="round" stroke-miterlimit="1" width="65.646" height="36"/>
			<g>
				<text transform="matrix(1 0 0 1 34.4512 71.2329)"><tspan x="0" y="0" fill="#FFFFFF" font-size="11">Composite</tspan><tspan x="14.368" y="10.533" fill="#FFFFFF" font-size="11">Pixel</tspan></text>
			</g>
			<g>
				<g>
					
						<line fill="none" stroke="#005695" stroke-width="2" stroke-miterlimit="1" x1="93.518" y1="74.594" x2="123.364" y2="74.594"/>
					<g>
						<polygon fill="#005695" points="121.778,76.918 130.451,74.594 121.778,72.27 						"/>
					</g>
				</g>
			</g>
			
				<rect x="372.534" y="47.601" fill="#4F8ABE" stroke="#010101" stroke-width="0.75" stroke-linecap="round" stroke-linejoin="round" stroke-miterlimit="1" width="90" height="90"/>
			<g>
				<text transform="matrix(1 0 0 1 372.5312 45.6338)" font-size="11">Real World Value</text>
			</g>
			<g>
				<text transform="matrix(1 0 0 1 114.0801 24.1138)" font-size="10">Region with ‘Bit Aligned’ Pixel Component Organization</text>
			</g>
			<g>
				<text transform="matrix(1 0 0 1 376.3281 77.9678)"><tspan x="0" y="0" font-size="11">Value</tspan><tspan x="0" y="47.533" font-size="11">Unit</tspan></text>
			</g>
			<g>
				<g>
					
						<line fill="none" stroke="#005695" stroke-width="2" stroke-miterlimit="1" x1="230.862" y1="74.594" x2="244.425" y2="74.594"/>
					<g>
						<polygon fill="#005695" points="242.84,76.918 251.513,74.594 242.84,72.27 						"/>
					</g>
				</g>
			</g>
			<g>
				<g>
					
						<line fill="none" stroke="#005695" stroke-width="2" stroke-miterlimit="1" x1="351.971" y1="74.758" x2="365.289" y2="74.758"/>
					<g>
						<polygon fill="#005695" points="363.704,77.082 372.377,74.758 363.704,72.434 						"/>
					</g>
				</g>
			</g>
			
				<rect x="252.043" y="47.601" fill="#86B2D8" stroke="#010101" stroke-width="0.75" stroke-linecap="round" stroke-linejoin="round" stroke-miterlimit="1" width="100.283" height="54"/>
			<g>
				<text transform="matrix(1 0 0 1 282.4199 60.897)"><tspan x="0" y="0" font-size="9">Tables of </tspan><tspan x="-18.508" y="10.8" font-size="9">X &amp; Y Break Points</tspan><tspan x="-4.508" y="21.6" font-size="9">(0018,6052)</tspan><tspan x="-4.508" y="32.4" font-size="9">(0018,6054)</tspan></text>
			</g>
			
				<rect x="130.493" y="47.601" fill="#B2CEE7" stroke="#010101" stroke-width="0.75" stroke-linecap="round" stroke-linejoin="round" stroke-miterlimit="1" width="100.8" height="54"/>
			<g>
				<text transform="matrix(1 0 0 1 134.6221 71.0527)"><tspan x="0" y="0" font-size="9">Pixel Component Mask</tspan><tspan x="22.001" y="10.8" font-size="9">(0018,6046)</tspan></text>
			</g>
			<g>
				<g>
					
						<line fill="none" stroke="#005695" stroke-width="2" stroke-miterlimit="1" x1="264.751" y1="122.573" x2="364.803" y2="122.573"/>
					<g>
						<polygon fill="#005695" points="363.218,124.897 371.891,122.573 363.218,120.249 						"/>
					</g>
				</g>
			</g>
			
				<rect x="130.493" y="109.08" fill="#86B2D8" stroke="#010101" stroke-width="0.75" stroke-linecap="round" stroke-linejoin="round" stroke-miterlimit="1" width="134.999" height="27"/>
			<g>
				<text transform="matrix(1 0 0 1 134.2139 119.0322)"><tspan x="0" y="0" font-size="9">Pixel Component Physical Units</tspan><tspan x="38.762" y="10.8" font-size="9">(0018,604C)</tspan></text>
			</g>
			<g>
				<text transform="matrix(1 0.0022 -0.0022 1 96.8369 86.3384)" font-size="9">0-n</text>
			</g>
		</g>
		<g>
			
				<path fill="#CCDEF0" stroke="#010101" stroke-width="0.75" stroke-linecap="round" stroke-linejoin="round" stroke-miterlimit="1" d="
				M474.08,283.437c0,6.259-5.385,11.331-12.027,11.331H126.108c-6.643,0-12.028-5.072-12.028-11.331v-92.537
				c0-6.259,5.386-11.331,12.028-11.331h335.944c6.643,0,12.027,5.072,12.027,11.331V283.437z"/>
			
				<rect x="27.92" y="206.164" fill="#005695" stroke="#010101" stroke-width="0.75" stroke-linecap="round" stroke-linejoin="round" stroke-miterlimit="1" width="65.646" height="36"/>
			<g>
				<text transform="matrix(1 0 0 1 34.4512 220.6152)"><tspan x="0" y="0" fill="#FFFFFF" font-size="11">Composite</tspan><tspan x="14.368" y="10.533" fill="#FFFFFF" font-size="11">Pixel</tspan></text>
			</g>
			<g>
				<g>
					
						<line fill="none" stroke="#005695" stroke-width="2" stroke-miterlimit="1" x1="93.518" y1="224.157" x2="123.364" y2="224.157"/>
					<g>
						<polygon fill="#005695" points="121.778,226.481 130.451,224.157 121.778,221.833 						"/>
					</g>
				</g>
			</g>
			
				<rect x="372.534" y="196.99" fill="#4F8ABE" stroke="#010101" stroke-width="0.75" stroke-linecap="round" stroke-linejoin="round" stroke-miterlimit="1" width="90" height="90"/>
			<g>
				<text transform="matrix(1 0 0 1 372.5312 195.0229)" font-size="11">Real World Value</text>
			</g>
			<g>
				<text transform="matrix(1 0 0 1 376.3281 227.3569)"><tspan x="0" y="0" font-size="11">Value</tspan><tspan x="0" y="47.533" font-size="11">Unit</tspan></text>
			</g>
			<g>
				<g>
					
						<line fill="none" stroke="#005695" stroke-width="2" stroke-miterlimit="1" x1="230.862" y1="224.157" x2="244.425" y2="224.157"/>
					<g>
						<polygon fill="#005695" points="242.84,226.481 251.513,224.157 242.84,221.833 						"/>
					</g>
				</g>
			</g>
			<g>
				<g>
					
						<line fill="none" stroke="#005695" stroke-width="2" stroke-miterlimit="1" x1="351.971" y1="224.157" x2="365.289" y2="224.157"/>
					<g>
						<polygon fill="#005695" points="363.704,226.481 372.377,224.157 363.704,221.833 						"/>
					</g>
				</g>
			</g>
			
				<rect x="252.043" y="197.164" fill="#86B2D8" stroke="#010101" stroke-width="0.75" stroke-linecap="round" stroke-linejoin="round" stroke-miterlimit="1" width="100.283" height="54"/>
			<g>
				<text transform="matrix(1 0 0 1 282.4199 210.4585)"><tspan x="0" y="0" font-size="9">Tables of </tspan><tspan x="-18.508" y="10.8" font-size="9">X &amp; Y Break Points</tspan><tspan x="-4.508" y="21.6" font-size="9">(0018,6052)</tspan><tspan x="-4.508" y="32.4" font-size="9">(0018,6054)</tspan></text>
			</g>
			
				<rect x="130.493" y="197.164" fill="#B2CEE7" stroke="#010101" stroke-width="0.75" stroke-linecap="round" stroke-linejoin="round" stroke-miterlimit="1" width="100.8" height="54"/>
			<g>
				<text transform="matrix(1 0 0 1 150.1284 215.8584)"><tspan x="0" y="0" font-size="9">If Within Range</tspan><tspan x="6.495" y="10.8" font-size="9">(0018,6048)</tspan><tspan x="5.996" y="21.6" font-size="9">(0018,604A)</tspan></text>
			</g>
			<g>
				<g>
					
						<line fill="none" stroke="#005695" stroke-width="2" stroke-miterlimit="1" x1="264.751" y1="271.962" x2="364.803" y2="271.962"/>
					<g>
						<polygon fill="#005695" points="363.218,274.286 371.891,271.962 363.218,269.638 						"/>
					</g>
				</g>
			</g>
			
				<rect x="130.493" y="258.469" fill="#86B2D8" stroke="#010101" stroke-width="0.75" stroke-linecap="round" stroke-linejoin="round" stroke-miterlimit="1" width="134.999" height="27"/>
			<g>
				<text transform="matrix(1 0 0 1 134.2139 268.4214)"><tspan x="0" y="0" font-size="9">Pixel Component Physical Units</tspan><tspan x="38.762" y="10.8" font-size="9">(0018,604C)</tspan></text>
			</g>
			<g>
				<text transform="matrix(1 0.0022 -0.0022 1 96.8369 235.7275)" font-size="9">0-n</text>
			</g>
			<g>
				<text transform="matrix(1 0 0 1 114.0801 174.2373)" font-size="10">Region with ‘Ranges’ Pixel Component Organization</text>
			</g>
		</g>
		<g>
			
				<path fill="#CCDEF0" stroke="#010101" stroke-width="0.75" stroke-linecap="round" stroke-linejoin="round" stroke-miterlimit="1" d="
				M474.08,432.467c0,6.258-5.385,11.33-12.027,11.33H126.108c-6.643,0-12.028-5.072-12.028-11.33V339.93
				c0-6.26,5.386-11.332,12.028-11.332h335.944c6.643,0,12.027,5.072,12.027,11.332V432.467z"/>
			
				<rect x="27.92" y="355.201" fill="#005695" stroke="#010101" stroke-width="0.75" stroke-linecap="round" stroke-linejoin="round" stroke-miterlimit="1" width="65.646" height="36"/>
			<g>
				<text transform="matrix(1 0 0 1 34.4512 369.6504)"><tspan x="0" y="0" fill="#FFFFFF" font-size="11">Composite</tspan><tspan x="14.368" y="10.533" fill="#FFFFFF" font-size="11">Pixel</tspan></text>
			</g>
			<g>
				<g>
					
						<line fill="none" stroke="#005695" stroke-width="2" stroke-miterlimit="1" x1="93.518" y1="373.193" x2="123.364" y2="373.193"/>
					<g>
						<polygon fill="#005695" points="121.778,375.518 130.451,373.193 121.778,370.869 						"/>
					</g>
				</g>
			</g>
			
				<rect x="372.534" y="346.02" fill="#4F8ABE" stroke="#010101" stroke-width="0.75" stroke-linecap="round" stroke-linejoin="round" stroke-miterlimit="1" width="90" height="90"/>
			<g>
				<text transform="matrix(1 0 0 1 372.5312 344.0508)" font-size="11">Real World Value</text>
			</g>
			<g>
				<text transform="matrix(1 0 0 1 376.3281 376.3848)"><tspan x="0" y="0" font-size="11">Value</tspan><tspan x="0" y="47.533" font-size="11">Unit</tspan></text>
			</g>
			<g>
				<g>
					
						<line fill="none" stroke="#005695" stroke-width="2" stroke-miterlimit="1" x1="230.862" y1="373.193" x2="244.425" y2="373.193"/>
					<g>
						<polygon fill="#005695" points="242.84,375.518 251.513,373.193 242.84,370.869 						"/>
					</g>
				</g>
			</g>
			<g>
				<g>
					
						<line fill="none" stroke="#005695" stroke-width="2" stroke-miterlimit="1" x1="351.971" y1="373.193" x2="365.289" y2="373.193"/>
					<g>
						<polygon fill="#005695" points="363.704,375.518 372.377,373.193 363.704,370.869 						"/>
					</g>
				</g>
			</g>
			
				<rect x="252.043" y="346.201" fill="#86B2D8" stroke="#010101" stroke-width="0.75" stroke-linecap="round" stroke-linejoin="round" stroke-miterlimit="1" width="100.283" height="54"/>
			<g>
				<text transform="matrix(1 0 0 1 285.9199 364.8936)"><tspan x="0" y="0" font-size="9">Table of</tspan><tspan x="-19.758" y="10.8" font-size="9">Parameter Values</tspan><tspan x="-8.508" y="21.601" font-size="9">(0018,605A)</tspan></text>
			</g>
			
				<rect x="130.493" y="346.201" fill="#B2CEE7" stroke="#010101" stroke-width="0.75" stroke-linecap="round" stroke-linejoin="round" stroke-miterlimit="1" width="100.8" height="54"/>
			<g>
				<text transform="matrix(1 0 0 1 164.6323 364.8936)"><tspan x="0" y="0" font-size="9">Table of</tspan><tspan x="-8.503" y="10.8" font-size="9">Pixel Values</tspan><tspan x="-8.009" y="21.601" font-size="9">(0018,6058)</tspan></text>
			</g>
			<g>
				<g>
					
						<line fill="none" stroke="#005695" stroke-width="2" stroke-miterlimit="1" x1="264.751" y1="420.992" x2="364.803" y2="420.992"/>
					<g>
						<polygon fill="#005695" points="363.218,423.316 371.891,420.992 363.218,418.668 						"/>
					</g>
				</g>
			</g>
			
				<rect x="130.493" y="407.498" fill="#86B2D8" stroke="#010101" stroke-width="0.75" stroke-linecap="round" stroke-linejoin="round" stroke-miterlimit="1" width="134.999" height="27"/>
			<g>
				<text transform="matrix(1 0 0 1 134.2139 417.4492)"><tspan x="0" y="0" font-size="9">Pixel Component Physical Units</tspan><tspan x="38.762" y="10.8" font-size="9">(0018,604C)</tspan></text>
			</g>
			<g>
				<text transform="matrix(1 0.0022 -0.0022 1 96.8369 384.7559)" font-size="9">0-n</text>
			</g>
			<g>
				<text transform="matrix(1 0 0 1 114.0801 323.626)" font-size="10">Region with ‘Table Look-Up’ Pixel Component Organization</text>
			</g>
		</g>
		<g>
			
				<path fill="#CCDEF0" stroke="#010101" stroke-width="0.75" stroke-linecap="round" stroke-linejoin="round" stroke-miterlimit="1" d="
				M474.08,580.415c0,6.258-5.385,11.33-12.027,11.33H126.108c-6.643,0-12.028-5.072-12.028-11.33v-92.537
				c0-6.26,5.386-11.332,12.028-11.332h335.944c6.643,0,12.027,5.072,12.027,11.332V580.415z"/>
			
				<rect x="27.92" y="503.146" fill="#005695" stroke="#010101" stroke-width="0.75" stroke-linecap="round" stroke-linejoin="round" stroke-miterlimit="1" width="65.646" height="36"/>
			<g>
				<text transform="matrix(1 0 0 1 34.4512 517.5977)"><tspan x="0" y="0" fill="#FFFFFF" font-size="11">Composite</tspan><tspan x="14.368" y="10.533" fill="#FFFFFF" font-size="11">Pixel</tspan></text>
			</g>
			<g>
				<g>
					
						<line fill="none" stroke="#005695" stroke-width="2" stroke-miterlimit="1" x1="93.518" y1="521.14" x2="123.364" y2="521.14"/>
					<g>
						<polygon fill="#005695" points="121.778,523.464 130.451,521.14 121.778,518.815 						"/>
					</g>
				</g>
			</g>
			
				<rect x="372.534" y="493.968" fill="#4F8ABE" stroke="#010101" stroke-width="0.75" stroke-linecap="round" stroke-linejoin="round" stroke-miterlimit="1" width="90" height="90"/>
			<g>
				<text transform="matrix(1 0 0 1 372.5312 491.998)" font-size="11">Real World Value</text>
			</g>
			<g>
				<text transform="matrix(1 0 0 1 376.3281 524.332)" font-size="11">Coded Value</text>
			</g>
			<g>
				<g>
					
						<line fill="none" stroke="#005695" stroke-width="2" stroke-miterlimit="1" x1="230.862" y1="521.14" x2="244.425" y2="521.14"/>
					<g>
						<polygon fill="#005695" points="242.84,523.464 251.513,521.14 242.84,518.815 						"/>
					</g>
				</g>
			</g>
			<g>
				<g>
					
						<line fill="none" stroke="#005695" stroke-width="2" stroke-miterlimit="1" x1="351.971" y1="521.14" x2="365.289" y2="521.14"/>
					<g>
						<polygon fill="#005695" points="363.704,523.464 372.377,521.14 363.704,518.815 						"/>
					</g>
				</g>
			</g>
			
				<rect x="252.043" y="494.147" fill="#86B2D8" stroke="#010101" stroke-width="0.75" stroke-linecap="round" stroke-linejoin="round" stroke-miterlimit="1" width="100.283" height="54"/>
			<g>
				<text transform="matrix(1 0 0 1 261.1543 512.8418)"><tspan x="0" y="0" font-size="9">Pixel Value Mapping</tspan><tspan x="8.75" y="10.799" font-size="9">Code Sequence</tspan><tspan x="16.758" y="21.6" font-size="9">(0040,9098)</tspan></text>
			</g>
			
				<rect x="130.493" y="494.147" fill="#B2CEE7" stroke="#010101" stroke-width="0.75" stroke-linecap="round" stroke-linejoin="round" stroke-miterlimit="1" width="100.8" height="54"/>
			<g>
				<text transform="matrix(1 0 0 1 138.6187 518.2412)"><tspan x="0" y="0" font-size="9">Table of Pixel Values</tspan><tspan x="18.005" y="10.8" font-size="9">(0018,6058)</tspan></text>
			</g>
			<g>
				<text transform="matrix(1 0.0022 -0.0022 1 96.8369 532.7031)" font-size="9">0-n</text>
			</g>
			<g>
				<text transform="matrix(1 0 0 1 114.0801 472.6543)" font-size="10">Region with ‘Code Look-Up’ Pixel Component Organization</text>
			</g>
		</g>
	</g>
</g>
</svg>
