<?xml version="1.0" encoding="utf-8"?>
<!-- $Source: /home/bbennett/pass/archive/DicomXml/docbook/part03/figures/PS3.3_C.10.5-6.svg,v $ -->
<!-- $Date: 2014/05/09 13:15:43 $ -->
<!-- $Revision: 1.1 $ -->

<!DOCTYPE svg PUBLIC "-//W3C//DTD SVG 1.1//EN" "http://www.w3.org/Graphics/SVG/1.1/DTD/svg11.dtd">
<svg version="1.1" id="Layer_1" xmlns="http://www.w3.org/2000/svg" xmlns:xlink="http://www.w3.org/1999/xlink" x="0px" y="0px"
	 width="502px" height="97px" viewBox="0 0 502 97" enable-background="new 0 0 502 97" xml:space="preserve">

<defs>
	<style type="text/css">
	text {
	  font-family: Helvetica, Verdana, ArialUnicodeMS, san-serif
	}
	</style>
</defs>

<g>
   <desc>
	PS 3.3 Part 3: Information Object Definitions
   </desc>
</g>

<g>
	<rect x="1" y="1" fill="#F5EED6" width="500" height="95"/>
	<g>
		<g>
			<g>
				
					<line fill="none" stroke="#003468" stroke-width="2" stroke-miterlimit="10" x1="175.539" y1="74.566" x2="313.644" y2="21.359"/>
				<g>
					
						<rect x="174.539" y="68.066" transform="matrix(-0.9332 0.3594 -0.3594 -0.9332 366.1475 81.0611)" fill="#003468" width="2" height="13"/>
				</g>
				<g>
					
						<rect x="312.644" y="14.86" transform="matrix(0.9331 -0.3596 0.3596 0.9331 13.3015 114.2207)" fill="#003468" width="2" height="13"/>
				</g>
			</g>
		</g>
		<g>
			<g>
				
					<line fill="none" stroke="#000000" stroke-width="0.5" stroke-miterlimit="10" x1="128.814" y1="75.562" x2="168.827" y2="75.562"/>
				<g>
					<polygon points="167.836,77.016 173.257,75.562 167.836,74.109 					"/>
				</g>
			</g>
		</g>
		<text transform="matrix(1 0 0 1 79.3594 78.6064)" font-size="10">First Point</text>
		<g>
			<g>
				
					<line fill="none" stroke="#000000" stroke-width="0.5" stroke-miterlimit="10" x1="360.906" y1="20.917" x2="320.894" y2="20.917"/>
				<g>
					<polygon points="321.885,19.464 316.464,20.917 321.885,22.37 					"/>
				</g>
			</g>
		</g>
		<text transform="matrix(1 0 0 1 363.1533 23.9619)" font-size="10">Second Point</text>
	</g>
</g>
</svg>
