<?xml version="1.0" encoding="utf-8"?>
<!-- $Source: /home/bbennett/pass/archive/DicomXml/docbook/part03/figures/PS3.3_C.8.8.29-1.svg,v $ -->
<!-- $Date: 2014/05/09 13:15:42 $ -->
<!-- $Revision: 1.1 $ -->

<!DOCTYPE svg PUBLIC "-//W3C//DTD SVG 1.1//EN" "http://www.w3.org/Graphics/SVG/1.1/DTD/svg11.dtd">
<svg version="1.1" id="Layer_1" xmlns="http://www.w3.org/2000/svg" xmlns:xlink="http://www.w3.org/1999/xlink" x="0px" y="0px"
	 width="502px" height="192px" viewBox="0 0 502 192" enable-background="new 0 0 502 192" xml:space="preserve">

<defs>
	<style type="text/css">
	text {
	  font-family: Helvetica, Verdana, ArialUnicodeMS, san-serif
	}
	</style>
</defs>

<g>
   <desc>
	PS 3.3 Part 3: Information Object Definitions
   </desc>
</g>

<g>
	<rect x="1" y="1" fill="#F5EED6" width="500" height="190"/>
	<g>
		
			<line fill="none" stroke="#000000" stroke-width="0.75" stroke-miterlimit="1" x1="124.798" y1="158.521" x2="124.798" y2="41.865"/>
		
			<line fill="none" stroke="#000000" stroke-width="0.75" stroke-miterlimit="1" x1="379.369" y1="41.865" x2="379.369" y2="158.521"/>
		
			<line fill="none" stroke="#CCCCCC" stroke-width="0.75" stroke-miterlimit="1" x1="353.872" y1="41.865" x2="353.872" y2="158.521"/>
		
			<line fill="none" stroke="#CCCCCC" stroke-width="0.75" stroke-miterlimit="1" x1="328.442" y1="41.865" x2="328.442" y2="158.521"/>
		
			<line fill="none" stroke="#000000" stroke-width="0.75" stroke-miterlimit="1" x1="303.014" y1="41.865" x2="303.014" y2="158.521"/>
		
			<line fill="none" stroke="#CCCCCC" stroke-width="0.75" stroke-miterlimit="1" x1="277.508" y1="41.865" x2="277.508" y2="158.521"/>
		
			<line fill="none" stroke="#CCCCCC" stroke-width="0.75" stroke-miterlimit="1" x1="252.088" y1="41.865" x2="252.088" y2="158.521"/>
		<g>
			<g>
				
					<line fill="none" stroke="#000000" stroke-width="0.75" stroke-miterlimit="1" x1="226.584" y1="27.465" x2="226.584" y2="28.465"/>
				
					<line fill="none" stroke="#000000" stroke-width="0.75" stroke-miterlimit="1" stroke-dasharray="2.0115,2.0115" x1="226.584" y1="30.477" x2="226.584" y2="142.114"/>
				
					<line fill="none" stroke="#000000" stroke-width="0.75" stroke-miterlimit="1" x1="226.584" y1="143.12" x2="226.584" y2="144.12"/>
			</g>
		</g>
		
			<line fill="none" stroke="#CCCCCC" stroke-width="0.75" stroke-miterlimit="1" x1="201.152" y1="41.865" x2="201.152" y2="158.521"/>
		
			<line fill="none" stroke="#000000" stroke-width="0.75" stroke-miterlimit="1" x1="175.724" y1="41.865" x2="175.724" y2="158.521"/>
		
			<line fill="none" stroke="#CCCCCC" stroke-width="0.75" stroke-miterlimit="1" x1="150.228" y1="41.865" x2="150.228" y2="158.521"/>
		<rect x="117.443" y="17.132" fill="none" width="14.71" height="7"/>
		<text transform="matrix(0.9288 0 0 1 117.4429 23.5703)" font-size="9">-40</text>
		<rect x="168.369" y="17.132" fill="none" width="14.71" height="7"/>
		<text transform="matrix(0.9288 0 0 1 168.3687 23.5703)" font-size="9">-20</text>
		<rect x="297.825" y="17.132" fill="none" width="10.377" height="7"/>
		<text transform="matrix(0.9288 0 0 1 297.8252 23.5703)" font-size="9">30</text>
		
			<line fill="none" stroke="#000000" stroke-width="0.75" stroke-miterlimit="1" x1="379.369" y1="41.865" x2="379.369" y2="158.521"/>
		<rect x="374.181" y="17.132" fill="none" width="10.377" height="7"/>
		<text transform="matrix(0.9288 0 0 1 374.1807 23.5703)" font-size="9">60</text>
		<rect x="315.106" y="167.825" transform="matrix(1 0.0017 -0.0017 1 0.288 -0.5725)" fill="none" width="52.377" height="7"/>
		<text transform="matrix(0.9288 0.0016 -0.0017 1 315 174.1797)" font-size="9">Delta X2 = 30</text>
		<rect x="124.072" y="167.825" transform="matrix(1 0.0017 -0.0017 1 0.2877 -0.2519)" fill="none" width="52.377" height="7"/>
		<text transform="matrix(0.9288 0.0016 -0.0017 1 123.9658 174.1797)" font-size="9">Delta X2 = -20</text>
		<rect x="224.346" y="17.132" fill="none" width="7.355" height="7"/>
		<text transform="matrix(0.9288 0 0 1 224.3467 23.5703)" font-size="9">0</text>
		<g>
			<g>
				
					<line fill="none" stroke="#005695" stroke-width="3" stroke-miterlimit="1" x1="303.117" y1="50.719" x2="368.842" y2="50.829"/>
				<g>
					<polygon fill="#005695" points="366.458,54.311 379.473,50.847 366.47,47.338 					"/>
				</g>
			</g>
		</g>
		<g>
			<g>
				<line fill="none" stroke="#005695" stroke-width="3" stroke-miterlimit="1" x1="135.429" y1="50.79" x2="175.724" y2="50.79"/>
				<g>
					<polygon fill="#005695" points="137.807,54.276 124.798,50.79 137.807,47.304 					"/>
				</g>
			</g>
		</g>
	</g>
</g>
</svg>
