<?xml version="1.0" encoding="utf-8"?>
<!-- $Source: /home/bbennett/pass/archive/DicomXml/docbook/part03/figures/PS3.3_C.27.6.1.1-1.svg,v $ -->
<!-- $Date: 2014/05/09 13:15:42 $ -->
<!-- $Revision: 1.1 $ -->

<!DOCTYPE svg PUBLIC "-//W3C//DTD SVG 1.1//EN" "http://www.w3.org/Graphics/SVG/1.1/DTD/svg11.dtd">
<svg version="1.1" id="Layer_1" xmlns="http://www.w3.org/2000/svg" xmlns:xlink="http://www.w3.org/1999/xlink" x="0px" y="0px"
	 width="502px" height="157px" viewBox="0 0 502 157" enable-background="new 0 0 502 157" xml:space="preserve">

<defs>
	<style type="text/css">
	text {
	  font-family: Helvetica, Verdana, ArialUnicodeMS, san-serif
	}
	</style>
</defs>

<g>
   <desc>
	PS 3.3 Part 3: Information Object Definitions
   </desc>
</g>

<g>
	<rect x="1" y="1" fill="#F5EED6" width="500" height="155"/>
	<g>
		<rect x="260.568" y="30.366" fill="#003468" stroke="#000000" stroke-width="0.5" width="120" height="15.711"/>
		<rect x="260.568" y="46.077" fill="#CCDEF0" stroke="#CCDEF0" stroke-width="0.5" width="120" height="15.71"/>
		<rect x="260.568" y="61.787" fill="#86B2D8" stroke="#86B2D8" stroke-width="0.5" width="120" height="15.71"/>
		<rect x="260.568" y="77.497" fill="#CCDEF0" stroke="#CCDEF0" stroke-width="0.5" width="120" height="15.71"/>
		<rect x="260.568" y="93.207" fill="#86B2D8" stroke="#86B2D8" stroke-width="0.5" width="120" height="15.71"/>
		<rect x="260.568" y="108.917" fill="#CCDEF0" stroke="#CCDEF0" stroke-width="0.5" width="120" height="15.71"/>
		<rect x="260.568" y="124.627" fill="#86B2D8" stroke="#86B2D8" stroke-width="0.5" width="120" height="15.739"/>
		<g>
			<rect x="260.568" y="30.366" fill="none" stroke="#FFFFFF" stroke-width="0.5" width="120" height="110"/>
			<line fill="none" stroke="#FFFFFF" stroke-width="0.5" x1="260.568" y1="46.077" x2="380.568" y2="46.077"/>
			<line fill="none" stroke="#FFFFFF" stroke-width="0.5" x1="260.568" y1="61.787" x2="380.568" y2="61.787"/>
			<line fill="none" stroke="#FFFFFF" stroke-width="0.5" x1="260.568" y1="77.497" x2="380.568" y2="77.497"/>
			<line fill="none" stroke="#FFFFFF" stroke-width="0.5" x1="260.568" y1="93.235" x2="380.568" y2="93.235"/>
			<line fill="none" stroke="#FFFFFF" stroke-width="0.5" x1="260.568" y1="108.945" x2="380.568" y2="108.945"/>
			<line fill="none" stroke="#FFFFFF" stroke-width="0.5" x1="260.568" y1="124.655" x2="380.568" y2="124.655"/>
			<line fill="none" stroke="#FFFFFF" stroke-width="0.5" x1="340.58" y1="140.366" x2="340.58" y2="30.366"/>
			<line fill="none" stroke="#FFFFFF" stroke-width="0.5" x1="300.556" y1="140.366" x2="300.556" y2="30.366"/>
		</g>
		<rect x="121.433" y="30.366" fill="#003468" stroke="#000000" stroke-width="0.5" width="80.013" height="15.688"/>
		<rect x="121.433" y="46.077" fill="#CCDEF0" stroke="#CCDEF0" stroke-width="0.5" width="80.013" height="15.71"/>
		<rect x="121.433" y="61.787" fill="#86B2D8" stroke="#86B2D8" stroke-width="0.5" width="80.013" height="15.71"/>
		<rect x="121.433" y="77.497" fill="#CCDEF0" stroke="#CCDEF0" stroke-width="0.5" width="80.013" height="15.71"/>
		<rect x="121.433" y="93.207" fill="#86B2D8" stroke="#86B2D8" stroke-width="0.5" width="80.013" height="15.71"/>
		<rect x="121.433" y="108.917" fill="#CCDEF0" stroke="#CCDEF0" stroke-width="0.5" width="80.013" height="15.71"/>
		<rect x="121.433" y="124.627" fill="#86B2D8" stroke="#86B2D8" stroke-width="0.5" width="80.013" height="15.739"/>
		<g>
			<rect x="121.433" y="30.366" fill="none" stroke="#FFFFFF" stroke-width="0.5" width="80.013" height="110"/>
			<line fill="none" stroke="#FFFFFF" stroke-width="0.5" x1="121.433" y1="46.077" x2="201.445" y2="46.077"/>
			<line fill="none" stroke="#FFFFFF" stroke-width="0.5" x1="121.433" y1="61.787" x2="201.445" y2="61.787"/>
			<line fill="none" stroke="#FFFFFF" stroke-width="0.5" x1="121.433" y1="77.497" x2="201.445" y2="77.497"/>
			<line fill="none" stroke="#FFFFFF" stroke-width="0.5" x1="121.433" y1="93.235" x2="201.445" y2="93.235"/>
			<line fill="none" stroke="#FFFFFF" stroke-width="0.5" x1="121.433" y1="108.945" x2="201.445" y2="108.945"/>
			<line fill="none" stroke="#FFFFFF" stroke-width="0.5" x1="121.433" y1="124.655" x2="201.445" y2="124.655"/>
			<line fill="none" stroke="#FFFFFF" stroke-width="0.5" x1="161.457" y1="140.366" x2="161.457" y2="30.366"/>
		</g>
		<text transform="matrix(1 0 0 1 144.7632 26.0664)" font-size="12">Image</text>
		<text transform="matrix(1 0 0 1 289.5488 26.0664)" font-size="12">Point Cloud</text>
		<g>
			<g>
				<line fill="none" stroke="#000000" x1="206.007" y1="53.933" x2="252.463" y2="53.933"/>
				<g>
					<polygon points="251.67,55.095 256.007,53.933 251.67,52.771 					"/>
				</g>
			</g>
		</g>
		<g>
			<g>
				<line fill="none" stroke="#000000" x1="206.007" y1="69.643" x2="252.463" y2="69.643"/>
				<g>
					<polygon points="251.67,70.805 256.007,69.643 251.67,68.48 					"/>
				</g>
			</g>
		</g>
		<g>
			<g>
				<line fill="none" stroke="#000000" x1="206.007" y1="85.353" x2="252.463" y2="85.353"/>
				<g>
					<polygon points="251.67,86.515 256.007,85.353 251.67,84.19 					"/>
				</g>
			</g>
		</g>
		<g>
			<g>
				<line fill="none" stroke="#000000" x1="206.007" y1="101.062" x2="252.463" y2="101.062"/>
				<g>
					<polygon points="251.67,102.225 256.007,101.062 251.67,99.9 					"/>
				</g>
			</g>
		</g>
		<g>
			<g>
				<line fill="none" stroke="#000000" x1="206.007" y1="116.772" x2="252.463" y2="116.772"/>
				<g>
					<polygon points="251.67,117.935 256.007,116.772 251.67,115.61 					"/>
				</g>
			</g>
		</g>
		<g>
			<g>
				<line fill="none" stroke="#000000" x1="206.007" y1="132.481" x2="252.463" y2="132.481"/>
				<g>
					<polygon points="251.67,133.644 256.007,132.481 251.67,131.319 					"/>
				</g>
			</g>
		</g>
		<text transform="matrix(1 0 0 1 276.7217 41.6162)"><tspan x="0" y="0" font-size="12" letter-spacing="-3">	</tspan><tspan x="0" y="0" fill="#FFFFFF" font-size="12">X</tspan><tspan x="8.004" y="0" fill="#FFFFFF" font-size="12" letter-spacing="28">	</tspan><tspan x="39.998" y="0" fill="#FFFFFF" font-size="12">Y</tspan><tspan x="48.002" y="0" fill="#FFFFFF" font-size="12" letter-spacing="28">	</tspan><tspan x="80.335" y="0" fill="#FFFFFF" font-size="12">Z</tspan><tspan x="0.164" y="16" font-size="12" letter-spacing="-2">	</tspan><tspan x="0.827" y="16" font-size="12">1</tspan><tspan x="7.501" y="16" font-size="12" letter-spacing="29">	</tspan><tspan x="40.827" y="16" font-size="12">1</tspan><tspan x="47.501" y="16" font-size="12" letter-spacing="29">	</tspan><tspan x="80.827" y="16" font-size="12">5</tspan><tspan x="0.164" y="32" font-size="12" letter-spacing="-2">	</tspan><tspan x="0.827" y="32" font-size="12">1</tspan><tspan x="7.501" y="32" font-size="12" letter-spacing="29">	</tspan><tspan x="40.827" y="32" font-size="12">2</tspan><tspan x="47.501" y="32" font-size="12" letter-spacing="29">	</tspan><tspan x="80.827" y="32" font-size="12">9</tspan><tspan x="-0.668" y="48" font-size="12" letter-spacing="-3">	</tspan><tspan x="-0.668" y="48" font-size="12">...</tspan><tspan x="9.334" y="48" font-size="12" letter-spacing="25">	</tspan><tspan x="38.331" y="48" font-size="12">...</tspan><tspan x="48.333" y="48" font-size="12" letter-spacing="26">	</tspan><tspan x="78.331" y="48" font-size="12">...</tspan><tspan x="-1.505" y="64" font-size="12" letter-spacing="-2">	</tspan><tspan x="-0.841" y="64" font-size="12">2</tspan><tspan x="5.833" y="64" font-size="12" letter-spacing="29">	</tspan><tspan x="39.159" y="64" font-size="12">1</tspan><tspan x="45.833" y="64" font-size="12" letter-spacing="26">	</tspan><tspan x="75.821" y="64" font-size="12">71</tspan><tspan x="-1.505" y="80" font-size="12" letter-spacing="-2">	</tspan><tspan x="-0.841" y="80" font-size="12">2</tspan><tspan x="5.833" y="80" font-size="12" letter-spacing="29">	</tspan><tspan x="39.159" y="80" font-size="12">2</tspan><tspan x="45.833" y="80" font-size="12" letter-spacing="26">	</tspan><tspan x="75.821" y="80" font-size="12">72</tspan><tspan x="-0.668" y="96" font-size="12" letter-spacing="-3">	</tspan><tspan x="-0.668" y="96" font-size="12">...</tspan><tspan x="9.334" y="96" font-size="12" letter-spacing="25">	</tspan><tspan x="38.331" y="96" font-size="12">...</tspan><tspan x="48.333" y="96" font-size="12" letter-spacing="26">	</tspan><tspan x="78.331" y="96" font-size="12">...</tspan></text>
		<text transform="matrix(1 0 0 1 136.5103 41.6162)"><tspan x="0" y="0" font-size="12" letter-spacing="-3">	</tspan><tspan x="0" y="0" fill="#FFFFFF" font-size="12">U</tspan><tspan x="8.666" y="0" fill="#FFFFFF" font-size="12" letter-spacing="27">	</tspan><tspan x="39.998" y="0" fill="#FFFFFF" font-size="12">V</tspan><tspan x="-2.169" y="16" font-size="12" letter-spacing="-3">	</tspan><tspan x="-2.169" y="16" font-size="12">0.1</tspan><tspan x="14.512" y="16" font-size="12" letter-spacing="15">	</tspan><tspan x="33.49" y="16" font-size="12">0.1</tspan><tspan x="-2.169" y="32" font-size="12" letter-spacing="-3">	</tspan><tspan x="-2.169" y="32" font-size="12">0.1</tspan><tspan x="14.512" y="32" font-size="12" letter-spacing="15">	</tspan><tspan x="33.49" y="32" font-size="12">0.2</tspan><tspan x="-0.5" y="48" font-size="12" letter-spacing="-3">	</tspan><tspan x="-0.5" y="48" font-size="12">...</tspan><tspan x="9.502" y="48" font-size="12" letter-spacing="25">	</tspan><tspan x="38.5" y="48" font-size="12">...</tspan><tspan x="-2.169" y="64" font-size="12" letter-spacing="-3">	</tspan><tspan x="-2.169" y="64" font-size="12">0.2</tspan><tspan x="14.512" y="64" font-size="12" letter-spacing="15">	</tspan><tspan x="33.49" y="64" font-size="12">0.1</tspan><tspan x="-2.169" y="80" font-size="12" letter-spacing="-3">	</tspan><tspan x="-2.169" y="80" font-size="12">0.2</tspan><tspan x="14.512" y="80" font-size="12" letter-spacing="15">	</tspan><tspan x="33.49" y="80" font-size="12">0.2</tspan><tspan x="-0.5" y="96" font-size="12" letter-spacing="-3">	</tspan><tspan x="-0.5" y="96" font-size="12">...</tspan><tspan x="9.502" y="96" font-size="12" letter-spacing="25">	</tspan><tspan x="38.5" y="96" font-size="12">...</tspan></text>
	</g>
</g>
</svg>
