<?xml version="1.0" encoding="utf-8"?>
<!-- $Source: /home/bbennett/pass/archive/DicomXml/docbook/part03/figures/PS3.3_C.8.26.4.1-1.svg,v $ -->
<!-- $Date: 2014/05/09 13:15:42 $ -->
<!-- $Revision: 1.1 $ -->

<!DOCTYPE svg PUBLIC "-//W3C//DTD SVG 1.1//EN" "http://www.w3.org/Graphics/SVG/1.1/DTD/svg11.dtd">
<svg version="1.1" id="Layer_1" xmlns="http://www.w3.org/2000/svg" xmlns:xlink="http://www.w3.org/1999/xlink" x="0px" y="0px"
	 width="502px" height="232px" viewBox="0 0 502 232" enable-background="new 0 0 502 232" xml:space="preserve">

<defs>
	<style type="text/css">
	text {
	  font-family: Helvetica, Verdana, ArialUnicodeMS, san-serif
	}
	</style>
</defs>

<g>
   <desc>
	PS 3.3 Part 3: Information Object Definitions
   </desc>
</g>

<g>
	<rect x="1" y="1" fill="#F5EED6" width="500" height="230"/>
	<g>
		<circle fill="#005695" cx="133.411" cy="174.651" r="2.5"/>
		<circle fill="#005695" cx="148.411" cy="174.651" r="2.5"/>
		<circle fill="#005695" cx="163.411" cy="174.651" r="2.5"/>
		<circle fill="#005695" cx="178.411" cy="174.651" r="2.5"/>
		<circle fill="#005695" cx="148.411" cy="189.651" r="2.5"/>
		<circle fill="#005695" cx="163.411" cy="189.651" r="2.5"/>
		<circle fill="#005695" cx="118.411" cy="159.651" r="2.5"/>
		<circle fill="#005695" cx="133.411" cy="159.651" r="2.5"/>
		<circle fill="#005695" cx="148.411" cy="159.651" r="2.5"/>
		<circle fill="#005695" cx="163.411" cy="159.651" r="2.5"/>
		<circle fill="#005695" cx="178.411" cy="159.651" r="2.5"/>
		<circle fill="#005695" cx="193.411" cy="159.651" r="2.5"/>
		<circle fill="#005695" cx="103.411" cy="129.651" r="2.5"/>
		<circle fill="#CCDEF0" cx="118.411" cy="129.651" r="2.5"/>
		<circle fill="#005695" cx="133.411" cy="129.651" r="2.5"/>
		<circle fill="#005695" cx="148.411" cy="129.651" r="2.5"/>
		<circle fill="#005695" cx="163.411" cy="129.651" r="2.5"/>
		<circle fill="#005695" cx="178.411" cy="129.651" r="2.5"/>
		<circle fill="#005695" cx="193.411" cy="129.651" r="2.5"/>
		<circle fill="#005695" cx="208.411" cy="129.651" r="2.5"/>
		<circle fill="#005695" cx="223.411" cy="129.651" r="2.5"/>
		<circle fill="#005695" cx="103.411" cy="144.651" r="2.5"/>
		<circle fill="#005695" cx="118.411" cy="144.651" r="2.5"/>
		<circle fill="#005695" cx="133.411" cy="144.651" r="2.5"/>
		<circle fill="#005695" cx="148.411" cy="144.651" r="2.5"/>
		<circle fill="#005695" cx="163.411" cy="144.651" r="2.5"/>
		<circle fill="#005695" cx="178.411" cy="144.651" r="2.5"/>
		<circle fill="#005695" cx="193.411" cy="144.651" r="2.5"/>
		<circle fill="#005695" cx="208.411" cy="144.651" r="2.5"/>
		<circle fill="#005695" cx="103.411" cy="99.651" r="2.5"/>
		<circle fill="#005695" cx="118.411" cy="99.651" r="2.5"/>
		<circle fill="#005695" cx="133.411" cy="99.651" r="2.5"/>
		<circle fill="#005695" cx="148.411" cy="99.651" r="2.5"/>
		<circle fill="#005695" cx="163.411" cy="99.651" r="2.5"/>
		<circle fill="#005695" cx="178.411" cy="99.651" r="2.5"/>
		<circle fill="#005695" cx="193.411" cy="99.651" r="2.5"/>
		<circle fill="#005695" cx="208.411" cy="99.651" r="2.5"/>
		<circle fill="#005695" cx="103.411" cy="114.651" r="2.5"/>
		<circle fill="#CCDEF0" cx="118.411" cy="114.651" r="2.5"/>
		<circle fill="#005695" cx="133.411" cy="114.651" r="2.5"/>
		<circle fill="#005695" cx="148.411" cy="114.651" r="2.5"/>
		<circle fill="#005695" cx="163.411" cy="114.651" r="2.5"/>
		<circle fill="#005695" cx="178.411" cy="114.651" r="2.5"/>
		<circle fill="#005695" cx="193.411" cy="114.651" r="2.5"/>
		<circle fill="#005695" cx="208.411" cy="114.651" r="2.5"/>
		<circle fill="#005695" cx="223.411" cy="114.651" r="2.5"/>
		<circle fill="#005695" cx="148.411" cy="54.651" r="2.5"/>
		<circle fill="#005695" cx="163.411" cy="54.651" r="2.5"/>
		<circle fill="#005695" cx="133.411" cy="69.651" r="2.5"/>
		<circle fill="#005695" cx="148.411" cy="69.651" r="2.5"/>
		<circle fill="#005695" cx="163.411" cy="69.651" r="2.5"/>
		<circle fill="#005695" cx="178.411" cy="69.651" r="2.5"/>
		<circle fill="#005695" cx="118.411" cy="84.651" r="2.5"/>
		<circle fill="#005695" cx="133.411" cy="84.651" r="2.5"/>
		<circle fill="#005695" cx="148.411" cy="84.651" r="2.5"/>
		<circle fill="#005695" cx="163.411" cy="84.651" r="2.5"/>
		<circle fill="#005695" cx="178.411" cy="84.651" r="2.5"/>
		<circle fill="#005695" cx="193.411" cy="84.651" r="2.5"/>
		
			<line fill="none" stroke="#000000" stroke-width="0.5" stroke-miterlimit="10" x1="156.879" y1="45.51" x2="156.879" y2="198.177"/>
		
			<line fill="none" stroke="#000000" stroke-width="0.5" stroke-miterlimit="10" x1="230.796" y1="120.718" x2="94.795" y2="120.718"/>
		<text transform="matrix(1 0 0 1 233.2891 125.5664)" fill="#ED1C24" font-size="14">+</text>
		<text transform="matrix(1 0 0 1 83.0938 125.207)" fill="#ED1C24" font-size="14">–</text>
		<text transform="matrix(1 0 0 1 153.6138 209.7012)" fill="#0DB14B" font-size="14">–</text>
		<text transform="matrix(1 0 0 1 152.5337 44.3672)" fill="#0DB14B" font-size="14">+</text>
		<text transform="matrix(0.9288 0 0 1 136.8936 29.5078)" font-size="12">Left Eye</text>
		<text transform="matrix(0.9288 0 0 1 198.7114 79.5903)"><tspan x="0" y="0" font-size="12">Nasal</tspan><tspan x="0" y="14.4" font-size="12">Vision</tspan></text>
		<text transform="matrix(0.9288 0 0 1 112.0444 117.1504)"><tspan x="0" y="0" font-size="8">Blind</tspan><tspan x="0" y="9.6" font-size="8">Spot</tspan></text>
		<circle fill="#005695" cx="368.59" cy="174.651" r="2.5"/>
		<circle fill="#005695" cx="353.59" cy="174.651" r="2.5"/>
		<circle fill="#005695" cx="338.59" cy="174.651" r="2.5"/>
		<circle fill="#005695" cx="323.59" cy="174.651" r="2.5"/>
		<circle fill="#005695" cx="353.59" cy="189.651" r="2.5"/>
		<circle fill="#005695" cx="338.59" cy="189.651" r="2.5"/>
		<circle fill="#005695" cx="383.59" cy="159.651" r="2.5"/>
		<circle fill="#005695" cx="368.59" cy="159.651" r="2.5"/>
		<circle fill="#005695" cx="353.59" cy="159.651" r="2.5"/>
		<circle fill="#005695" cx="338.59" cy="159.651" r="2.5"/>
		<circle fill="#005695" cx="323.59" cy="159.651" r="2.5"/>
		<circle fill="#005695" cx="308.59" cy="159.651" r="2.5"/>
		<circle fill="#005695" cx="398.59" cy="129.651" r="2.5"/>
		<circle fill="#CCDEF0" cx="383.59" cy="129.651" r="2.5"/>
		<circle fill="#005695" cx="368.59" cy="129.651" r="2.5"/>
		<circle fill="#005695" cx="353.59" cy="129.651" r="2.5"/>
		<circle fill="#005695" cx="338.59" cy="129.651" r="2.5"/>
		<circle fill="#005695" cx="323.59" cy="129.651" r="2.5"/>
		<circle fill="#005695" cx="308.59" cy="129.651" r="2.5"/>
		<circle fill="#005695" cx="293.59" cy="129.651" r="2.5"/>
		<circle fill="#005695" cx="278.59" cy="129.651" r="2.5"/>
		<circle fill="#005695" cx="398.59" cy="144.651" r="2.5"/>
		<circle fill="#005695" cx="383.59" cy="144.651" r="2.5"/>
		<circle fill="#005695" cx="368.59" cy="144.651" r="2.5"/>
		<circle fill="#005695" cx="353.59" cy="144.651" r="2.5"/>
		<circle fill="#005695" cx="338.59" cy="144.651" r="2.5"/>
		<circle fill="#005695" cx="323.59" cy="144.651" r="2.5"/>
		<circle fill="#005695" cx="308.59" cy="144.651" r="2.5"/>
		<circle fill="#005695" cx="293.59" cy="144.651" r="2.5"/>
		<circle fill="#005695" cx="398.59" cy="99.651" r="2.5"/>
		<circle fill="#005695" cx="383.59" cy="99.651" r="2.5"/>
		<circle fill="#005695" cx="368.59" cy="99.651" r="2.5"/>
		<circle fill="#005695" cx="353.59" cy="99.651" r="2.5"/>
		<circle fill="#005695" cx="338.59" cy="99.651" r="2.5"/>
		<circle fill="#005695" cx="323.59" cy="99.651" r="2.5"/>
		<circle fill="#005695" cx="308.59" cy="99.651" r="2.5"/>
		<circle fill="#005695" cx="293.59" cy="99.651" r="2.5"/>
		<circle fill="#005695" cx="398.59" cy="114.651" r="2.5"/>
		<circle fill="#CCDEF0" cx="383.59" cy="114.651" r="2.5"/>
		<circle fill="#005695" cx="368.59" cy="114.651" r="2.5"/>
		<circle fill="#005695" cx="353.59" cy="114.651" r="2.5"/>
		<circle fill="#005695" cx="338.59" cy="114.651" r="2.5"/>
		<circle fill="#005695" cx="323.59" cy="114.651" r="2.5"/>
		<circle fill="#005695" cx="308.59" cy="114.651" r="2.5"/>
		<circle fill="#005695" cx="293.59" cy="114.651" r="2.5"/>
		<circle fill="#005695" cx="278.59" cy="114.651" r="2.5"/>
		<circle fill="#005695" cx="353.59" cy="54.651" r="2.5"/>
		<circle fill="#005695" cx="338.59" cy="54.651" r="2.5"/>
		<circle fill="#005695" cx="368.59" cy="69.651" r="2.5"/>
		<circle fill="#005695" cx="353.59" cy="69.651" r="2.5"/>
		<circle fill="#005695" cx="338.59" cy="69.651" r="2.5"/>
		<circle fill="#005695" cx="323.59" cy="69.651" r="2.5"/>
		<circle fill="#005695" cx="383.59" cy="84.651" r="2.5"/>
		<circle fill="#005695" cx="368.59" cy="84.651" r="2.5"/>
		<circle fill="#005695" cx="353.59" cy="84.651" r="2.5"/>
		<circle fill="#005695" cx="338.59" cy="84.651" r="2.5"/>
		<circle fill="#005695" cx="323.59" cy="84.651" r="2.5"/>
		<circle fill="#005695" cx="308.59" cy="84.651" r="2.5"/>
		
			<line fill="none" stroke="#000000" stroke-width="0.5" stroke-miterlimit="10" x1="345.121" y1="45.51" x2="345.121" y2="198.177"/>
		
			<line fill="none" stroke="#000000" stroke-width="0.5" stroke-miterlimit="10" x1="271.205" y1="120.718" x2="407.205" y2="120.718"/>
		<text transform="matrix(-1 0 0 1 268.7109 125.5664)" fill="#ED1C24" font-size="14">+</text>
		<text transform="matrix(-1 0 0 1 418.9062 124.4863)" fill="#ED1C24" font-size="14">–</text>
		<text transform="matrix(-1 0 0 1 348.748 209.7012)" fill="#0DB14B" font-size="14">–</text>
		<text transform="matrix(-1 0 0 1 349.1094 44.3672)" fill="#0DB14B" font-size="14">+</text>
		<text transform="matrix(0.9288 0 0 1 322.1494 28.3208)" font-size="12">Right Eye</text>
		<text transform="matrix(0.9288 0 0 1 274.4893 79.5903)"><tspan x="0" y="0" font-size="12">Nasal</tspan><tspan x="0" y="14.4" font-size="12">Vision</tspan></text>
		<text transform="matrix(0.9288 0 0 1 375.5576 117.1504)"><tspan x="0" y="0" font-size="8">Blind</tspan><tspan x="0" y="9.6" font-size="8">Spot</tspan></text>
	</g>
</g>
</svg>
