<?xml version="1.0" encoding="utf-8"?>
<!-- $Source: /home/bbennett/pass/archive/DicomXml/docbook/part03/figures/PS3.3_7.6-1.svg,v $ -->
<!-- $Date: 2014/05/09 12:27:10 $ -->
<!-- $Revision: 1.2 $ -->

<!DOCTYPE svg PUBLIC "-//W3C//DTD SVG 1.1//EN" "http://www.w3.org/Graphics/SVG/1.1/DTD/svg11.dtd">
<svg version="1.1" id="Layer_1" xmlns="http://www.w3.org/2000/svg" xmlns:xlink="http://www.w3.org/1999/xlink" x="0px" y="0px"
	 width="502px" height="437px" viewBox="0 0 502 437" enable-background="new 0 0 502 437" xml:space="preserve">

<defs>
	<style type="text/css">
	text {
	  font-family: Helvetica, Verdana, ArialUnicodeMS, san-serif
	}
	</style>
</defs>

<g>
   <desc>
	PS 3.3 Part 3: Information Object Definitions
   </desc>
</g>

<g>
	<g>
		<rect x="1" y="1" fill="#F5EED6" width="500" height="435"/>
	</g>
	<g>
		<g>
			<g>
				<g>
					<polyline fill="none" stroke="#005695" stroke-width="2" stroke-linecap="round" stroke-miterlimit="1" points="253.076,33.82 
						253.076,54.525 302.275,54.525 302.275,156.603 					"/>
					<g>
						<polygon fill="#005695" points="299.951,155.018 302.275,163.69 304.6,155.018 						"/>
					</g>
				</g>
			</g>
			<g>
				<g>
					<polyline fill="none" stroke="#005695" stroke-width="2" stroke-linecap="round" stroke-miterlimit="1" points="253.107,33.82 
						253.107,54.475 202.872,54.475 202.872,155.665 					"/>
					<g>
						<polygon fill="#005695" points="200.548,154.079 202.872,162.752 205.196,154.079 						"/>
					</g>
				</g>
			</g>
			<g>
				<g>
					
						<line fill="none" stroke="#005695" stroke-width="2" stroke-linecap="round" stroke-miterlimit="1" x1="100.468" y1="53.326" x2="100.468" y2="42.115"/>
					<g>
						<polygon fill="#005695" points="102.792,51.74 100.468,60.413 98.144,51.74 						"/>
					</g>
				</g>
			</g>
			<g>
				<g>
					
						<line fill="none" stroke="#005695" stroke-width="2" stroke-linecap="round" stroke-miterlimit="1" x1="100.468" y1="97.947" x2="100.468" y2="86.738"/>
					<g>
						<polygon fill="#005695" points="102.792,96.361 100.468,105.034 98.144,96.361 						"/>
					</g>
				</g>
			</g>
			<g>
				<g>
					
						<line fill="none" stroke="#005695" stroke-width="2" stroke-linecap="round" stroke-miterlimit="1" x1="100.468" y1="155.921" x2="100.468" y2="132.036"/>
					<g>
						<polygon fill="#005695" points="102.792,154.336 100.468,163.009 98.144,154.336 						"/>
					</g>
				</g>
			</g>
			<g>
				<g>
					<polyline fill="none" stroke="#005695" stroke-width="2" stroke-linecap="round" stroke-miterlimit="1" points="
						151.828,209.859 151.828,205.222 100.468,205.222 100.468,189.333 					"/>
					<g>
						<polygon fill="#005695" points="154.152,208.273 151.828,216.946 149.503,208.273 						"/>
					</g>
				</g>
			</g>
			<g>
				<g>
					
						<line fill="none" stroke="#005695" stroke-width="2" stroke-linecap="round" stroke-miterlimit="1" x1="151.828" y1="254.362" x2="151.828" y2="243.774"/>
					<g>
						<polygon fill="#005695" points="154.152,252.777 151.828,261.45 149.503,252.777 						"/>
					</g>
				</g>
			</g>
			<g>
				<g>
					
						<line fill="none" stroke="#005695" stroke-width="2" stroke-linecap="round" stroke-miterlimit="1" x1="151.828" y1="302.886" x2="151.828" y2="288.188"/>
					<g>
						<polygon fill="#005695" points="154.152,301.301 151.828,309.974 149.503,301.301 						"/>
					</g>
				</g>
			</g>
			<g>
				<g>
					<polyline fill="none" stroke="#005695" stroke-width="2" stroke-linecap="round" stroke-miterlimit="1" points="
						151.795,209.858 151.795,205.251 202.031,205.251 202.031,189.671 					"/>
					<g>
						<polygon fill="#005695" points="154.12,208.272 151.795,216.945 149.471,208.272 						"/>
					</g>
				</g>
			</g>
			<g>
				<g>
					<polyline fill="none" stroke="#005695" stroke-width="2" stroke-linecap="round" stroke-miterlimit="1" points="
						353.33,214.186 353.33,207.025 301.971,207.025 301.971,188.569 					"/>
					<g>
						<polygon fill="#005695" points="355.654,212.601 353.33,221.273 351.006,212.601 						"/>
					</g>
				</g>
			</g>
			<g>
				<g>
					
						<line fill="none" stroke="#005695" stroke-width="2" stroke-linecap="round" stroke-miterlimit="1" x1="353.33" y1="254.233" x2="353.33" y2="239.636"/>
					<g>
						<polygon fill="#005695" points="355.654,252.648 353.33,261.321 351.006,252.648 						"/>
					</g>
				</g>
			</g>
			<g>
				<g>
					
						<line fill="none" stroke="#005695" stroke-width="2" stroke-linecap="round" stroke-miterlimit="1" x1="353.33" y1="302.886" x2="353.33" y2="288.107"/>
					<g>
						<polygon fill="#005695" points="355.654,301.301 353.33,309.974 351.006,301.301 						"/>
					</g>
				</g>
			</g>
			<g>
				<g>
					
						<line fill="none" stroke="#005695" stroke-width="2" stroke-linecap="round" stroke-miterlimit="1" x1="353.33" y1="341.446" x2="353.33" y2="327.974"/>
					<g>
						<polygon fill="#005695" points="355.654,339.861 353.33,348.534 351.006,339.861 						"/>
					</g>
				</g>
			</g>
			<g>
				<g>
					
						<line fill="none" stroke="#005695" stroke-width="2" stroke-linecap="round" stroke-miterlimit="1" x1="353.33" y1="387.797" x2="353.33" y2="375.151"/>
					<g>
						<polygon fill="#005695" points="355.654,386.212 353.33,394.885 351.006,386.212 						"/>
					</g>
				</g>
			</g>
			<g>
				<g>
					
						<line fill="none" stroke="#005695" stroke-width="2" stroke-linecap="round" stroke-miterlimit="1" x1="403.533" y1="156.155" x2="403.533" y2="141.87"/>
					<g>
						<polygon fill="#005695" points="405.857,154.569 403.533,163.242 401.209,154.569 						"/>
					</g>
				</g>
			</g>
			<g>
				<g>
					<polyline fill="none" stroke="#005695" stroke-width="2" stroke-linecap="round" stroke-miterlimit="1" points="
						353.298,214.186 353.298,207.055 403.533,207.055 403.533,189.643 					"/>
					<g>
						<polygon fill="#005695" points="355.622,212.601 353.298,221.273 350.974,212.601 						"/>
					</g>
				</g>
			</g>
		</g>
		
			<polygon fill="#CCDEF0" stroke="#010101" stroke-width="0.75" stroke-linecap="round" stroke-linejoin="round" stroke-miterlimit="1" points="
			107.329,274.612 152.262,261.321 197.328,274.806 197.328,274.835 152.262,288.321 		"/>
		<g>
			<text transform="matrix(1 0 0 1 132.8135 277.3164)" font-size="9">located at</text>
		</g>
		
			<polygon fill="#CCDEF0" stroke="#010101" stroke-width="0.75" stroke-linecap="round" stroke-linejoin="round" stroke-miterlimit="1" points="
			357.592,176.233 402.531,162.942 447.597,176.427 447.597,176.456 402.531,189.942 		"/>
		<g>
			<text transform="matrix(1 0 0 1 385.834 178.9419)" font-size="9">contains</text>
		</g>
		
			<rect x="360.594" y="114.869" fill="#86B2D8" stroke="#010101" stroke-width="0.75" stroke-linecap="round" stroke-linejoin="round" stroke-miterlimit="1" width="84.001" height="27.001"/>
		<g>
			<text transform="matrix(1 0 0 1 375.3672 125.1475)"><tspan x="0" y="0" font-size="10">Clinical Trial</tspan><tspan x="3.33" y="9.333" font-size="10">Time Point</tspan></text>
		</g>
		
			<rect x="110.33" y="216.773" fill="#86B2D8" stroke="#010101" stroke-width="0.75" stroke-linecap="round" stroke-linejoin="round" stroke-miterlimit="1" width="83.996" height="27.001"/>
		<g>
			<text transform="matrix(1 0 0 1 125.1011 228.3799)"><tspan x="0" y="0" font-size="10">Clinical Trial</tspan><tspan x="10.549" y="9.333" font-size="10">Subject</tspan></text>
		</g>
		<g>
			<text transform="matrix(1 0 0 1 238.3271 168.4863)" font-size="9">1</text>
		</g>
		<g>
			<text transform="matrix(1 0 0 1 230.3252 190.4912)" font-size="9">1-n</text>
		</g>
		<g>
			<text transform="matrix(1 0 0 1 136.6904 168.4863)" font-size="9">1</text>
		</g>
		<g>
			<text transform="matrix(1 0 0 1 128.688 190.4912)" font-size="9">1-n</text>
		</g>
		<g>
			<text transform="matrix(1 0 0 1 140.9062 65.4521)" font-size="9">1</text>
		</g>
		<g>
			<text transform="matrix(1 0 0 1 132.9038 87.457)" font-size="9">1-n</text>
		</g>
		<g>
			<text transform="matrix(1 0 0 1 341.2168 168.4863)" font-size="9">1</text>
		</g>
		<g>
			<text transform="matrix(1 0 0 1 333.2139 190.4912)" font-size="9">1-n</text>
		</g>
		<g>
			<text transform="matrix(1 0 0 1 430.498 167.9077)" font-size="9">0-1</text>
		</g>
		<g>
			<text transform="matrix(1 0 0 1 430.4971 189.9126)" font-size="9">1-n</text>
		</g>
		<g>
			<text transform="matrix(1 0 0 1 180.168 266.8164)" font-size="9">1-n</text>
		</g>
		<g>
			<text transform="matrix(1 0 0 1 188.1704 288.8213)" font-size="9">1</text>
		</g>
		<g>
			<text transform="matrix(1 0 0 1 389.6914 265.8076)" font-size="9">1</text>
		</g>
		<g>
			<text transform="matrix(1 0 0 1 381.6895 287.8125)" font-size="9">1-n</text>
		</g>
		<g>
			<text transform="matrix(1 0 0 1 383.6895 354.8779)" font-size="9">1-n</text>
		</g>
		<g>
			<text transform="matrix(1 0 0 1 383.6895 376.8828)" font-size="9">0-1</text>
		</g>
		
			<polygon fill="#CCDEF0" stroke="#010101" stroke-width="0.75" stroke-linecap="round" stroke-linejoin="round" stroke-miterlimit="1" points="
			157.873,175.964 202.806,162.671 247.87,176.155 247.87,176.187 202.806,189.671 		"/>
		<g>
			<text transform="matrix(1 0 0 1 178.856 178.6655)" font-size="9">identified as</text>
		</g>
		
			<polygon fill="#CCDEF0" stroke="#010101" stroke-width="0.75" stroke-linecap="round" stroke-linejoin="round" stroke-miterlimit="1" points="
			54.408,175.964 99.341,162.671 144.405,176.155 144.405,176.187 99.341,189.671 		"/>
		<g>
			<text transform="matrix(1 0 0 1 83.1504 178.6655)" font-size="9">involves</text>
		</g>
		
			<rect x="57.407" y="15.115" fill="#86B2D8" stroke="#010101" stroke-width="0.75" stroke-linecap="round" stroke-linejoin="round" stroke-miterlimit="1" width="83.998" height="27"/>
		<g>
			<text transform="matrix(1 0 0 1 72.1812 25.3955)"><tspan x="0" y="0" font-size="10">Clinical Trial</tspan><tspan x="8.604" y="9.333" font-size="10">Sponsor</tspan></text>
		</g>
		
			<polygon fill="#CCDEF0" stroke="#010101" stroke-width="0.75" stroke-linecap="round" stroke-linejoin="round" stroke-miterlimit="1" points="
			54.408,73.368 99.339,60.075 144.405,73.56 144.405,73.591 99.339,87.075 		"/>
		<g>
			<text transform="matrix(1 0 0 1 81.3965 76.0781)" font-size="9">conducts</text>
		</g>
		
			<rect x="110.33" y="309.974" fill="#86B2D8" stroke="#010101" stroke-width="0.75" stroke-linecap="round" stroke-linejoin="round" stroke-miterlimit="1" width="83.996" height="18"/>
		<g>
			<text transform="matrix(1 0 0 1 115.0962 321.7461)" font-size="10">Clinical Trial Site</text>
		</g>
		
			<rect x="310.678" y="221.273" fill="#86B2D8" stroke="#010101" stroke-width="0.75" stroke-linecap="round" stroke-linejoin="round" stroke-miterlimit="1" width="84.005" height="18.001"/>
		<g>
			<text transform="matrix(1 0 0 1 337.3301 233.6035)" font-size="12">Study</text>
		</g>
		
			<rect x="310.682" y="309.974" fill="#86B2D8" stroke="#010101" stroke-width="0.75" stroke-linecap="round" stroke-linejoin="round" stroke-miterlimit="1" width="83.997" height="18"/>
		<g>
			<text transform="matrix(1 0 0 1 335.668 322.3027)" font-size="12">Series</text>
		</g>
		
			<polygon fill="#CCDEF0" stroke="#010101" stroke-width="0.75" stroke-linecap="round" stroke-linejoin="round" stroke-miterlimit="1" points="
			307.679,274.614 352.615,261.321 397.682,274.806 397.682,274.837 352.615,288.321 		"/>
		<g>
			<text transform="matrix(1 0 0 1 335.916 277.3154)" font-size="9">contains</text>
		</g>
		
			<rect x="211.09" y="15.115" fill="#86B2D8" stroke="#010101" stroke-width="0.75" stroke-linecap="round" stroke-linejoin="round" stroke-miterlimit="1" width="84.001" height="17.987"/>
		<g>
			<text transform="matrix(1 0 0 1 234.4053 27.4634)" font-size="12">Patient</text>
		</g>
		
			<rect x="310.756" y="394.886" fill="#86B2D8" stroke="#010101" stroke-width="0.75" stroke-linecap="round" stroke-linejoin="round" stroke-miterlimit="1" width="83.999" height="27"/>
		<g>
			<text transform="matrix(1 0 0 1 325.459 405.1719)"><tspan x="0" y="0" font-size="10">Clinical Trial</tspan><tspan x="-4.177" y="9.333" font-size="10">Coord. Center</tspan></text>
		</g>
		
			<polygon fill="#CCDEF0" stroke="#010101" stroke-width="0.75" stroke-linecap="round" stroke-linejoin="round" stroke-miterlimit="1" points="
			307.756,361.638 352.69,348.343 397.755,361.829 397.755,361.86 352.69,375.343 		"/>
		<g>
			<text transform="matrix(1 0 0 1 328.2383 364.3457)" font-size="9">submitted to</text>
		</g>
		
			<rect x="57.411" y="105.035" fill="#86B2D8" stroke="#010101" stroke-width="0.75" stroke-linecap="round" stroke-linejoin="round" stroke-miterlimit="1" width="83.99" height="27"/>
		<g>
			<text transform="matrix(1 0 0 1 72.1812 117.3643)"><tspan x="0" y="0" font-size="10">Clinical Trial</tspan><tspan x="8.884" y="9.333" font-size="10">Protocol</tspan></text>
		</g>
		
			<polygon fill="#CCDEF0" stroke="#010101" stroke-width="0.75" stroke-linecap="round" stroke-linejoin="round" stroke-miterlimit="1" points="
			257.283,175.964 302.221,162.671 347.285,176.155 347.285,176.187 302.221,189.671 		"/>
		<g>
			<text transform="matrix(1 0 0 1 295.0215 178.666)" font-size="9">has</text>
		</g>
	</g>
</g>
</svg>
