<?xml version="1.0" encoding="utf-8"?>
<!-- $Source: /home/bbennett/pass/archive/DicomXml/docbook/part03/figures/PS3.3_C.7.6.3.1.7-1.svg,v $ -->
<!-- $Date: 2014/05/09 12:30:19 $ -->
<!-- $Revision: 1.2 $ -->

<!DOCTYPE svg PUBLIC "-//W3C//DTD SVG 1.1//EN" "http://www.w3.org/Graphics/SVG/1.1/DTD/svg11.dtd">
<svg version="1.1" id="Layer_1" xmlns="http://www.w3.org/2000/svg" xmlns:xlink="http://www.w3.org/1999/xlink" x="0px" y="0px"
	 width="498.043px" height="344.681px" viewBox="0 0 498.043 344.681" enable-background="new 0 0 498.043 344.681"
	 xml:space="preserve">

<defs>
	<style type="text/css">
	text {
	  font-family: Helvetica, Verdana, ArialUnicodeMS, san-serif
	}
	</style>
</defs>

<g>
   <desc>
	PS 3.3 Part 3: Information Object Definitions
   </desc>
</g>

<rect x="1" y="1" fill="#F5EED6" width="496.043" height="342.681"/>
<rect x="181.34" y="61.58" fill="#CCDEF0" width="215.496" height="260.048"/>
<line fill="none" stroke="#000000" stroke-width="0.75" stroke-miterlimit="1" stroke-dasharray="2,2,6,2,2,10" x1="167.34" y1="148.683" x2="178.795" y2="148.683"/>
<line fill="none" stroke="#000000" stroke-width="0.75" stroke-miterlimit="1" stroke-dasharray="2,2,6,2,2,10" x1="163.34" y1="235.009" x2="178.795" y2="235.009"/>
<line fill="none" stroke="#000000" stroke-width="0.75" stroke-miterlimit="1" stroke-dasharray="2,2,6,2,2,10" x1="252.827" y1="47.711" x2="252.827" y2="61.579"/>
<line fill="none" stroke="#000000" stroke-width="0.75" stroke-miterlimit="1" stroke-dasharray="2,2,6,2,2,10" x1="324.737" y1="47.711" x2="324.737" y2="61.579"/>
<line fill="none" stroke="#010101" stroke-miterlimit="1" stroke-dasharray="12,6" x1="334.657" y1="62.386" x2="405.53" y2="62.386"/>
<line fill="none" stroke="#010101" stroke-miterlimit="1" x1="180.34" y1="62.386" x2="330.338" y2="62.386"/>
<line fill="none" stroke="#010101" stroke-linecap="square" stroke-miterlimit="1" x1="180.834" y1="243.638" x2="180.834" y2="62.359"/>
<line fill="none" stroke="#010101" stroke-miterlimit="1" stroke-dasharray="12,6" x1="180.834" y1="328.103" x2="180.834" y2="243.638"/>
<line fill="none" stroke="#010101" stroke-linecap="square" stroke-miterlimit="1" x1="252.834" y1="243.638" x2="252.834" y2="62.359"/>
<line fill="none" stroke="#010101" stroke-miterlimit="1" stroke-dasharray="12,6" x1="252.834" y1="328.103" x2="252.834" y2="243.638"/>
<line fill="none" stroke="#010101" stroke-linecap="square" stroke-miterlimit="1" x1="324.834" y1="243.638" x2="324.834" y2="62.359"/>
<line fill="none" stroke="#010101" stroke-miterlimit="1" stroke-dasharray="12,6" x1="324.834" y1="328.103" x2="324.834" y2="243.638"/>
<line fill="none" stroke="#010101" stroke-miterlimit="1" stroke-dasharray="12,6" x1="334.657" y1="148.797" x2="405.53" y2="148.797"/>
<line fill="none" stroke="#010101" stroke-miterlimit="1" x1="180.34" y1="148.797" x2="330.338" y2="148.797"/>
<line fill="none" stroke="#010101" stroke-miterlimit="1" stroke-dasharray="12,6" x1="334.657" y1="235.097" x2="405.53" y2="235.097"/>
<line fill="none" stroke="#010101" stroke-miterlimit="1" x1="180.34" y1="235.097" x2="330.338" y2="235.097"/>
<rect x="248.709" y="16.58" fill="#B2CEE7" width="80.978" height="27"/>
<g>
	<text transform="matrix(1 0 0 1 256.4097 26.8589)"><tspan x="0" y="0" font-size="10">Horizontal size</tspan><tspan x="9.031" y="9.333" font-size="10"> = 0.25mm</tspan></text>
</g>
<rect x="92.513" y="178.915" fill="#B2CEE7" width="72" height="27"/>
<g>
	<text transform="matrix(1.1284 0 0 1 99.1875 189.2964)"><tspan x="0" y="0" font-size="9.6429">Vertical size</tspan><tspan x="4.419" y="9" font-size="9.6429">= 0.30mm</tspan></text>
</g>
<g>
	<g>
		<line fill="none" stroke="#005695" stroke-width="2" stroke-miterlimit="1" x1="172.156" y1="155.77" x2="172.138" y2="227.922"/>
		<g>
			<polygon fill="#005695" points="169.831,157.355 172.157,148.683 174.479,157.356 			"/>
		</g>
		<g>
			<polygon fill="#005695" points="169.814,226.336 172.137,235.009 174.463,226.337 			"/>
		</g>
	</g>
</g>
<g>
	<g>
		<line fill="none" stroke="#005695" stroke-width="2" stroke-miterlimit="1" x1="259.915" y1="54.637" x2="317.747" y2="54.653"/>
		<g>
			<polygon fill="#005695" points="261.499,56.961 252.827,54.635 261.5,52.313 			"/>
		</g>
		<g>
			<polygon fill="#005695" points="316.162,56.977 324.834,54.655 316.163,52.329 			"/>
		</g>
	</g>
</g>
</svg>
