<?xml version="1.0" encoding="utf-8"?>
<!-- $Source: /home/bbennett/pass/archive/DicomXml/docbook/part03/figures/PS3.3_C.7.6.16-9a.svg,v $ -->
<!-- $Date: 2014/05/09 12:27:11 $ -->
<!-- $Revision: 1.2 $ -->

<!DOCTYPE svg PUBLIC "-//W3C//DTD SVG 1.1//EN" "http://www.w3.org/Graphics/SVG/1.1/DTD/svg11.dtd">
<svg version="1.1" id="Layer_1" xmlns="http://www.w3.org/2000/svg" xmlns:xlink="http://www.w3.org/1999/xlink" x="0px" y="0px"
	 width="502px" height="182px" viewBox="0 0 502 182" enable-background="new 0 0 502 182" xml:space="preserve">

<defs>
	<style type="text/css">
	text {
	  font-family: Helvetica, Verdana, ArialUnicodeMS, san-serif
	}
	</style>
</defs>

<g>
   <desc>
	PS 3.3 Part 3: Information Object Definitions
   </desc>
</g>

<g>
	<rect x="1" y="1" fill="#F5EED6" width="500" height="180"/>
	<g>
		
			<line fill="none" stroke="#000000" stroke-width="0.75" stroke-linecap="round" stroke-miterlimit="1" x1="155.008" y1="97.666" x2="446.39" y2="97.666"/>
		
			<line fill="none" stroke="#000000" stroke-width="0.75" stroke-linecap="round" stroke-miterlimit="1" x1="171.391" y1="106.32" x2="171.391" y2="36.869"/>
		<rect x="54.39" y="42.333" fill="none" width="72" height="30.876"/>
		<text transform="matrix(0.9288 0 0 1 48.3896 48.7676)"><tspan x="0" y="0" font-size="9">Respiratory Trigger</tspan><tspan x="12.92" y="10.8" font-size="9">Delay Threshold</tspan><tspan x="12.92" y="21.6" font-size="9">(0020,9256)</tspan></text>
		<rect x="125.39" y="122.334" fill="none" width="104" height="44.334"/>
		<text transform="matrix(0.9288 0 0 1 119.3896 128.7715)"><tspan x="0" y="0" font-size="9">Nominal Respiration Trigger </tspan><tspan x="12.92" y="10.8" font-size="9">Delay Time (0020,9255):</tspan><tspan x="12.92" y="21.6" font-size="9">delay in ms after</tspan><tspan x="12.92" y="32.4" font-size="9">previous maximum.</tspan></text>
		<rect x="231.391" y="15.333" fill="none" width="85.999" height="21.334"/>
		<text transform="matrix(0.9288 0 0 1 225.3896 21.7676)"><tspan x="0" y="0" font-size="9">Respiratory Interval time</tspan><tspan x="12.92" y="10.8" font-size="9">(0020,9254)</tspan></text>
		<g>
			<g>
				
					<line fill="none" stroke="#005695" stroke-width="2" stroke-miterlimit="1" x1="220.978" y1="36.167" x2="322.802" y2="36.167"/>
				<g>
					<polygon fill="#005695" points="222.563,38.491 213.891,36.167 222.563,33.842 					"/>
				</g>
				<g>
					<polygon fill="#005695" points="321.217,38.491 329.89,36.167 321.217,33.842 					"/>
				</g>
			</g>
		</g>
		<path fill="none" stroke="#ED1C24" stroke-width="2" stroke-miterlimit="1" d="M160.967,97.176
			c23.889,6.732,43.641-77.967,68.953-33.899c7.936,13.815,6.494,32.12,26.858,33.807c17.504,1.451,39.555,2.594,47.754-16.721
			c5.482-12.915,13.289-31.271,31.008-27.003c20.004,4.817,14.211,32.549,30.18,41.25c12.658,6.895,41.148,5.852,51.445-5.19
			c8.916-9.569,13.08-36.288,30.445-36.342"/>
		
			<line fill="none" stroke="#000000" stroke-width="0.75" stroke-linecap="round" stroke-miterlimit="1" stroke-dasharray="4,4" x1="171.391" y1="51.107" x2="446.39" y2="51.107"/>
		
			<line fill="none" stroke="#000000" stroke-width="0.75" stroke-linecap="round" stroke-miterlimit="1" stroke-dasharray="4,4" x1="171.391" y1="62.625" x2="446.39" y2="62.625"/>
		<g>
			<g>
				
					<line fill="none" stroke="#005695" stroke-width="2" stroke-miterlimit="1" x1="229.441" y1="128.502" x2="237.971" y2="128.502"/>
				<g>
					<polygon fill="#005695" points="236.386,130.826 245.059,128.502 236.386,126.178 					"/>
				</g>
			</g>
		</g>
		<g>
			<g>
				
					<line fill="none" stroke="#005695" stroke-width="2" stroke-miterlimit="1" x1="135.164" y1="80.904" x2="135.164" y2="70.243"/>
				<g>
					<polygon fill="#005695" points="137.488,71.828 135.164,63.155 132.84,71.828 					"/>
				</g>
			</g>
		</g>
		<g>
			<g>
				
					<line fill="none" stroke="#005695" stroke-width="2" stroke-miterlimit="1" x1="135.164" y1="32.079" x2="135.164" y2="43.423"/>
				<g>
					<polygon fill="#005695" points="132.84,41.837 135.164,50.51 137.488,41.837 					"/>
				</g>
			</g>
		</g>
		<g>
			<g>
				
					<line fill="none" stroke="#005695" stroke-width="2" stroke-miterlimit="1" x1="229.441" y1="136.816" x2="253.302" y2="136.816"/>
				<g>
					<polygon fill="#005695" points="251.717,139.141 260.39,136.816 251.717,134.492 					"/>
				</g>
			</g>
		</g>
		<g>
			<g>
				
					<line fill="none" stroke="#005695" stroke-width="2" stroke-miterlimit="1" x1="229.441" y1="145.131" x2="268.636" y2="145.131"/>
				<g>
					<polygon fill="#005695" points="267.051,147.455 275.724,145.131 267.051,142.807 					"/>
				</g>
			</g>
		</g>
		
			<line fill="none" stroke="#000000" stroke-width="0.75" stroke-linecap="round" stroke-miterlimit="1" x1="229.725" y1="62.435" x2="229.725" y2="155.152"/>
		
			<line fill="none" stroke="#000000" stroke-width="0.75" stroke-linecap="round" stroke-miterlimit="1" x1="131.891" y1="62.667" x2="171.391" y2="62.667"/>
		
			<line fill="none" stroke="#000000" stroke-width="0.75" stroke-linecap="round" stroke-miterlimit="1" x1="131.891" y1="51.107" x2="171.391" y2="51.107"/>
		
			<line fill="none" stroke="#000000" stroke-width="0.75" stroke-linecap="round" stroke-miterlimit="1" stroke-dasharray="4,4" x1="329.89" y1="97.949" x2="329.89" y2="32.058"/>
		
			<line fill="none" stroke="#000000" stroke-width="0.75" stroke-linecap="round" stroke-miterlimit="1" stroke-dasharray="4,4" x1="213.891" y1="97.949" x2="213.891" y2="32.058"/>
		
			<line fill="none" stroke="#000000" stroke-width="0.75" stroke-linecap="round" stroke-miterlimit="1" stroke-dasharray="4,4" x1="245.059" y1="63.155" x2="245.059" y2="155.873"/>
		
			<line fill="none" stroke="#000000" stroke-width="0.75" stroke-linecap="round" stroke-miterlimit="1" stroke-dasharray="4,4" x1="260.39" y1="63.155" x2="260.39" y2="155.873"/>
		
			<line fill="none" stroke="#000000" stroke-width="0.75" stroke-linecap="round" stroke-miterlimit="1" stroke-dasharray="4,4" x1="275.724" y1="63.155" x2="275.724" y2="155.873"/>
		<rect x="137.67" y="43.095" fill="none" width="32.279" height="55.853"/>
		<text transform="matrix(0.9288 0 0 1 146.2471 49.5283)"><tspan x="0" y="0" font-size="9">100 %</tspan><tspan x="10.01" y="46.8" font-size="9">0 %</tspan></text>
	</g>
</g>
</svg>
