<?xml version="1.0" encoding="utf-8"?>
<!-- $Source: /home/bbennett/pass/archive/DicomXml/docbook/part03/figures/PS3.3_C.8-15.svg,v $ -->
<!-- $Date: 2014/05/09 12:27:10 $ -->
<!-- $Revision: 1.2 $ -->

<!DOCTYPE svg PUBLIC "-//W3C//DTD SVG 1.1//EN" "http://www.w3.org/Graphics/SVG/1.1/DTD/svg11.dtd">
<svg version="1.1" id="Layer_1" xmlns="http://www.w3.org/2000/svg" xmlns:xlink="http://www.w3.org/1999/xlink" x="0px" y="0px"
	 width="502px" height="567.002px" viewBox="0 0 502 567.002" enable-background="new 0 0 502 567.002" xml:space="preserve">

<defs>
	<style type="text/css">
	text {
	  font-family: Helvetica, Verdana, ArialUnicodeMS, san-serif
	}
	</style>
</defs>

<g>
   <desc>
	PS 3.3 Part 3: Information Object Definitions
   </desc>
</g>

<g>
	<rect x="1" y="1" fill="#F5EED6" width="500" height="565.002"/>
	<g>
		<g>
			<g>
				<text transform="matrix(0.8815 0 0 1 85.667 20.4517)" font-size="12">Physical Area</text>
			</g>
			<rect x="85.668" y="27.434" fill="#86B2D8" stroke="#000000" stroke-miterlimit="1" width="330.666" height="243.167"/>
			<rect x="85.668" y="27.434" fill="#FFFFFF" stroke="#000000" stroke-miterlimit="1" width="9" height="9"/>
			<text transform="matrix(1 0 0 1 94.2666 45.5322)"><tspan x="0" y="0" font-size="10">TLHC</tspan><tspan x="0" y="30" font-size="10">(0018,7028)</tspan><tspan x="0" y="74" font-size="10">(0018,7030)</tspan></text>
			<g>
				<text transform="matrix(0.8815 0 0 1 160.8638 69.7847)" font-size="12">Active Area</text>
			</g>
			<rect x="160.855" y="74.899" fill="#B2CEE7" stroke="#000000" stroke-miterlimit="1" width="234.129" height="174.367"/>
			<rect x="160.855" y="74.899" fill="#FFFFFF" stroke="#000000" stroke-miterlimit="1" width="9" height="9"/>
			<rect x="184.2" y="118.765" fill="#CCDEF0" stroke="#000000" stroke-miterlimit="1" width="184.118" height="105.836"/>
			<rect x="184.2" y="118.765" fill="#FFFFFF" stroke="#000000" stroke-miterlimit="1" width="9" height="9"/>
			<g>
				<text transform="matrix(0.8815 0 0 1 184.2002 115.1177)" font-size="12">Field of View</text>
			</g>
			<text transform="matrix(1 0 0 1 195.667 138.5879)"><tspan x="0" y="0" font-size="10">TLHC</tspan><tspan x="0" y="12" font-size="10">(before rotation/ flip)</tspan></text>
			<text transform="matrix(1 0 0 1 172.333 92.5879)" font-size="10">TLHC</text>
			<g>
				<g>
					<polyline fill="none" stroke="#000000" stroke-miterlimit="1" points="90.168,31.934 90.168,79.267 154.5,79.267 					"/>
					<g>
						<polygon points="153.311,81.01 159.815,79.267 153.311,77.523 						"/>
					</g>
				</g>
			</g>
			<g>
				<g>
					<polyline fill="none" stroke="#000000" stroke-miterlimit="1" points="90.168,75.934 90.168,123.267 178.167,123.267 					"/>
					<g>
						<polygon points="176.978,125.01 183.482,123.267 176.978,121.523 						"/>
					</g>
				</g>
			</g>
		</g>
		<g>
			<g>
				<text transform="matrix(0.8815 0 0 1 85.667 296.2334)" font-size="12">Physical Area</text>
			</g>
			<rect x="85.668" y="303.216" fill="#86B2D8" stroke="#000000" stroke-miterlimit="1" width="330.666" height="243.168"/>
			<rect x="85.668" y="303.216" fill="#FFFFFF" stroke="#000000" stroke-miterlimit="1" width="9" height="9"/>
			<text transform="matrix(1 0 0 1 94.2666 321.3027)"><tspan x="0" y="0" font-size="10">TLHC</tspan><tspan x="0" y="30" font-size="10">(0018,7028)</tspan><tspan x="0" y="74" font-size="10">(0018,7030)</tspan></text>
			<g>
				<text transform="matrix(0.8815 0 0 1 160.8638 345.5664)" font-size="12">Active Area</text>
			</g>
			<rect x="160.855" y="350.683" fill="#B2CEE7" stroke="#000000" stroke-miterlimit="1" width="234.129" height="140.533"/>
			<rect x="160.855" y="350.683" fill="#FFFFFF" stroke="#000000" stroke-miterlimit="1" width="9" height="9"/>
			<rect x="184.201" y="394.548" fill="#CCDEF0" stroke="#000000" stroke-miterlimit="1" width="184.117" height="130.668"/>
			<rect x="184.201" y="394.548" fill="#FFFFFF" stroke="#000000" stroke-miterlimit="1" width="9" height="9"/>
			<g>
				<text transform="matrix(0.8815 0 0 1 184.2002 390.8994)" font-size="12">Field of View</text>
			</g>
			<text transform="matrix(1 0 0 1 195.667 414.3701)"><tspan x="0" y="0" font-size="10">TLHC</tspan><tspan x="0" y="12" font-size="10">(before 270 degree rotation)</tspan></text>
			<rect x="184.201" y="516.216" fill="#4F8ABE" stroke="#000000" stroke-miterlimit="1" width="9" height="9"/>
			<text transform="matrix(1 0 0 1 195.667 500.8506)"><tspan x="0" y="0" font-size="10">TLHC of (7FE0,0010)</tspan><tspan x="0" y="12" font-size="10">after 270 degree rotation</tspan></text>
			<text transform="matrix(1 0 0 1 172.333 368.3701)" font-size="10">TLHC</text>
			<g>
				<g>
					<polyline fill="none" stroke="#000000" stroke-miterlimit="1" points="90.168,307.716 90.168,355.05 154.5,355.05 					"/>
					<g>
						<polygon points="153.311,356.793 159.815,355.05 153.311,353.307 						"/>
					</g>
				</g>
			</g>
			<g>
				<g>
					<polyline fill="none" stroke="#000000" stroke-miterlimit="1" points="90.168,351.716 90.168,399.05 178.167,399.05 					"/>
					<g>
						<polygon points="176.978,400.793 183.482,399.05 176.978,397.307 						"/>
					</g>
				</g>
			</g>
		</g>
	</g>
</g>
</svg>
