<?xml version="1.0" encoding="utf-8"?>
<!-- $Source: /home/bbennett/pass/archive/DicomXml/docbook/part03/figures/PS3.3_C.8-19.svg,v $ -->
<!-- $Date: 2014/05/09 12:27:10 $ -->
<!-- $Revision: 1.2 $ -->

<!DOCTYPE svg PUBLIC "-//W3C//DTD SVG 1.1//EN" "http://www.w3.org/Graphics/SVG/1.1/DTD/svg11.dtd">
<svg version="1.1" id="Layer_1" xmlns="http://www.w3.org/2000/svg" xmlns:xlink="http://www.w3.org/1999/xlink" x="0px" y="0px"
	 width="502px" height="422px" viewBox="0 0 502 422" enable-background="new 0 0 502 422" xml:space="preserve">

<defs>
	<style type="text/css">
	text {
	  font-family: Helvetica, Verdana, ArialUnicodeMS, san-serif
	}
	</style>
</defs>

<g>
   <desc>
	PS 3.3 Part 3: Information Object Definitions
   </desc>
</g>

<rect x="1" y="1" fill="#F5EED6" width="500" height="420"/>
<g>
	<g>
		<rect x="247.47" y="288.361" fill="#B2CEE7" width="87.915" height="30.327"/>
		<g>
			<text transform="matrix(1 0 0 1 249.2676 297.2539)"><tspan x="0" y="0" font-size="8">Gantry Tilt:</tspan><tspan x="0" y="9.6" font-size="8">Scan Angle = 0</tspan><tspan x="0" y="19.199" font-size="8">Positive in CW direction</tspan></text>
		</g>
		<g>
			<text transform="matrix(1 0 0 1 214.2954 280.1836)" font-size="7.8763">0</text>
		</g>
		<g>
			<text transform="matrix(1 0 0 1 203.8071 284.123)" font-size="7.8763">-</text>
		</g>
		<g>
			<text transform="matrix(1 0 0 1 226.3706 283.543)" font-size="7.8763">+</text>
		</g>
		<path fill="#005695" stroke="#000000" d="M206.671,349.597c0-1.763,0.18-3.463,0.512-5.072l-15.164-4.712l-22.953,8.806
			l46.072,17.995C210.202,364.116,206.671,357.442,206.671,349.597z"/>
		<path fill="#CCCCCC" stroke="#000000" stroke-linecap="round" stroke-linejoin="round" d="M243.364,312.58l-1.823,57.74
			l-48.021,27.353L188,317.146L243.364,312.58z M232.04,349.449c0-9.979-5.712-18.07-12.759-18.07
			c-7.049,0-12.761,8.091-12.761,18.07c0,9.978,5.712,18.066,12.761,18.066C226.328,367.516,232.04,359.427,232.04,349.449z"/>
		<polygon fill="#FFFFFF" stroke="#000000" stroke-linecap="round" stroke-linejoin="round" points="184.423,390.368 
			177.301,315.841 188,317.146 193.521,397.673 		"/>
		<polygon fill="none" stroke="#000000" stroke-dasharray="2,2" points="196.522,398.203 166.62,320.71 175.27,316.473 
			205.385,393.054 		"/>
		<path fill="#808080" stroke="#000000" stroke-linecap="round" stroke-linejoin="round" d="M213.51,365.568
			c1.733,1.246,3.693,1.947,5.771,1.947c7.047,0,12.759-8.089,12.759-18.066c0-9.979-5.712-18.07-12.759-18.07
			c-2.313,0-4.487,0.872-6.357,2.398h-0.017c5.06,0.82,9.012,7.653,9.012,15.959c0,7.972-3.638,14.585-8.406,15.83L213.51,365.568z"
			/>
		<polygon fill="#808080" stroke="#000000" stroke-linecap="round" stroke-linejoin="round" points="177.301,315.841 
			232.364,311.984 243.364,312.58 188,317.146 		"/>
		<path fill="#005695" stroke="#000000" d="M272.538,364.833l-65.355-20.309c-0.332,1.609-0.512,3.31-0.512,5.072
			c0,7.846,3.531,14.52,8.467,17.017l39.264,15.338L272.538,364.833z"/>
		<path fill="#B2CEE7" stroke="#000000" d="M209.805,348.796l0.679,0.11l4.621,0.697l0.248-0.011l0.557-0.344l0.137-0.123
			l0.429-0.629l0.28-0.835l0.066-0.871l-0.15-0.743l-0.074-0.185l-0.381-0.515l-0.224-0.129l-4.467-1.527l-2.872-0.95l-0.755-0.161
			l-0.227-0.012c-0.53,1.774-0.862,3.693-0.966,5.704l0.062,0.031L209.805,348.796z"/>
		<path fill="#B2CEE7" stroke="#000000" d="M207.082,347.6l-0.26-0.807c-0.097,0.894-0.15,1.804-0.15,2.736l0.242-0.504
			L207.082,347.6z"/>
		<polygon fill="#B2CEE7" stroke="#000000" points="218.587,346.797 218.169,346.183 217.612,345.785 217.138,345.698 
			216.417,345.57 215.811,345.836 215.247,346.149 214.879,346.756 214.671,347.263 214.621,347.924 214.829,348.63 
			215.249,349.243 215.801,349.643 216.379,349.755 216.997,349.85 217.607,349.597 218.161,349.271 218.54,348.675 218.73,348.16 
			218.786,347.505 		"/>
		<polygon fill="#B2CEE7" stroke="#000000" points="228.934,348.521 228.841,348.333 228.488,347.863 228.223,347.736 
			224.21,346.476 223.578,346.342 218.946,345.698 218.292,345.706 217.934,345.824 217.38,346.132 216.921,346.802 
			216.866,346.898 216.626,347.699 216.599,348.535 216.62,348.643 216.841,349.438 217.261,349.925 217.562,350.159 
			218.175,350.403 222.727,351.438 223.363,351.539 227.542,351.777 227.835,351.754 228.315,351.44 228.464,351.295 
			228.824,350.724 229.044,349.974 229.082,349.19 		"/>
		<path fill="#B2CEE7" stroke="#000000" d="M209.384,353.385l0.944-1.151l0.6-1.519l0.139-1.598l-0.347-1.373l-0.838-1.06
			l-0.972-1.103l-1.504-0.471l-0.33-0.066c-0.265,1.453-0.405,2.98-0.405,4.552c0,1.62,0.148,3.193,0.434,4.692l1.166-0.336
			L209.384,353.385z"/>
		<path fill="#B2CEE7" stroke="#000000" d="M219.472,349.423l-0.091-0.19l-1.091-0.983l-1.244-0.875l-1.92-0.626l-4.207-0.295
			l-1.436-0.099l-1.565,0.729l-0.138,0.07l-1.074,1.11c-0.023,0.44-0.035,0.885-0.035,1.333c0,1.739,0.176,3.42,0.498,5.011
			l3.186,2.143l1.93,0.66l1.639,0.074l1.58-0.024l0.221-0.092l1.607-0.889l1.384-1.562l0.027-0.054l0.861-1.839l0.021-0.047
			l0.271-1.951L219.472,349.423z"/>
		<polygon fill="#B2CEE7" stroke="#000000" points="231.021,349.318 230.684,348.766 230.204,348.382 229.673,348.245 
			229.203,348.157 228.611,348.328 228.164,348.609 227.769,349.092 227.628,349.562 227.522,350.114 227.652,350.731 
			227.988,351.284 228.468,351.671 228.998,351.812 229.467,351.888 230.059,351.727 230.497,351.433 230.905,350.962 
			231.033,350.486 231.146,349.934 		"/>
		<polygon fill="#B2CEE7" stroke="#000000" points="223.445,351.45 223.243,350.583 222.809,350.036 222.04,349.284 
			220.996,349.059 220.263,348.92 219.294,349.292 218.675,349.642 218.146,350.385 217.96,350.786 217.781,351.331 217.753,351.9 
			217.767,352.413 217.993,353.28 218.45,353.807 219.202,354.573 220.243,354.819 220.976,354.922 221.952,354.578 
			222.558,354.205 223.066,353.457 223.288,353.077 223.468,352.528 223.503,351.957 		"/>
		<polygon fill="#B2CEE7" stroke="#000000" points="236.729,351.194 236.297,350.61 236.024,350.489 233.987,349.598 
			232.694,349.372 231.153,349.417 230.807,349.497 230.216,349.748 230,349.889 229.806,350.097 229.673,350.331 229.626,350.547 
			229.746,350.934 229.838,351.207 230.845,351.911 231.189,352.056 232.383,352.482 234.784,352.752 235.797,352.521 
			236.043,352.457 236.312,352.265 236.479,352.144 236.625,351.978 236.728,351.789 236.762,351.621 236.789,351.395 		"/>
		<polygon fill="#B2CEE7" stroke="#000000" points="238.679,353.965 238.626,353.817 238.222,353.217 237.977,353.088 
			237.395,352.979 237.224,352.966 237.228,352.966 237.224,352.966 236.919,352.937 237.224,352.966 229.446,350.724 
			223.917,349.232 223.087,349.07 222.404,349.425 221.649,349.861 221.003,350.792 220.603,352.027 220.526,353.314 
			220.796,354.392 221.198,354.908 221.841,355.666 227.532,356.716 235.9,358.115 236.351,358.28 236.939,358.354 237.211,358.344 
			237.817,357.905 237.919,357.798 238.412,356.993 238.738,355.951 238.833,354.873 		"/>
		<polygon fill="#B2CEE7" stroke="#000000" points="217.721,353.68 217.19,352.987 216.528,352.284 215.56,351.987 214.669,351.84 
			213.768,352.164 213.017,352.517 212.375,353.28 211.985,354.293 211.923,355.356 212.196,356.247 212.701,356.96 
			213.391,357.636 214.351,357.96 215.243,358.071 216.154,357.778 216.893,357.4 217.514,356.635 217.899,355.626 217.974,354.576 
					"/>
		<path fill="#B2CEE7" stroke="#000000" d="M213.276,359.737l0.277,0.002l0.676-0.341l0.119-0.139l0.502-0.62l0.307-0.812
			l0.047-0.849l-0.011-0.138l-0.247-0.809l-0.494-0.505l-0.242-0.162l-3.676-1.738l-3.678-0.942c0.276,2.273,0.854,4.4,1.669,6.298
			l4.065,0.673L213.276,359.737z"/>
		<polygon fill="#B2CEE7" stroke="#000000" points="232.43,358.999 232.203,357.995 231.68,357.373 231.452,357.221 
			230.987,357.143 223.448,354.221 218.314,352.336 217.293,352.163 216.212,352.684 215.73,352.931 214.943,353.885 
			214.456,355.152 214.371,356.476 214.7,357.585 214.998,358.154 215.788,358.938 221.103,360.393 229.009,362.397 
			229.431,362.604 230.183,362.682 230.44,362.688 231.216,362.234 231.305,362.133 231.929,361.297 232.333,360.218 
			232.44,359.098 		"/>
		<polygon fill="#B2CEE7" stroke="#000000" points="240.711,355.23 240.508,354.835 239.937,354.068 239.081,353.685 
			238.614,353.602 237.738,353.691 237.271,353.971 236.756,354.386 236.501,354.705 236.298,355.121 236.189,355.55 236.2,355.909 
			236.265,356.729 236.484,357.119 237.044,357.885 237.896,358.28 238.363,358.342 239.24,358.27 239.695,357.973 240.228,357.579 
			240.479,357.255 240.68,356.839 240.792,356.41 240.792,356.05 		"/>
		<polygon fill="#B2CEE7" stroke="#000000" points="259.913,363.698 259.767,363.272 258.473,362.342 255.645,360.943 
			248.928,357.381 241.949,354.462 241.405,354.367 240.364,354.197 239.939,354.405 239.411,354.729 238.884,355.394 
			238.464,356.263 238.235,357.156 238.245,357.897 238.367,358.32 238.654,358.835 239.49,359.538 246.263,362.902 
			253.376,365.661 256.29,366.887 257.856,367.26 258.197,367.271 258.572,367.057 258.955,366.741 259.358,366.158 
			259.711,365.428 259.936,364.69 259.998,364.085 		"/>
		<polygon fill="#B2CEE7" stroke="#000000" points="216.845,357.337 216.507,356.706 216.042,356.249 215.542,356.053 
			214.896,355.954 214.356,356.086 213.723,356.394 213.375,356.872 213.062,357.406 212.991,357.993 213.14,358.665 
			213.173,358.763 213.362,359.115 213.476,359.292 213.938,359.754 214.438,359.957 215.084,360.038 215.628,359.923 
			216.249,359.603 216.608,359.135 216.911,358.594 216.99,358.013 		"/>
		<polygon fill="#B2CEE7" stroke="#000000" points="222.173,359.55 222.019,359.206 220.269,358.069 219.741,357.898 
			218.491,357.537 216.935,357.466 216.438,357.555 215.854,357.777 215.546,357.928 215.272,358.155 215.093,358.41 
			215.034,358.644 214.961,359.118 215.104,359.409 215.9,360.299 216.976,360.875 217.517,361.033 219.875,361.542 
			220.949,361.369 221.311,361.295 221.706,361.083 222.054,360.776 222.29,360.437 222.368,360.129 		"/>
		<polygon fill="#B2CEE7" stroke="#000000" points="234.091,360.383 234.03,359.496 233.776,359.111 233.191,358.295 
			232.312,357.88 231.778,357.833 230.888,357.91 230.372,358.234 229.875,358.64 229.599,358.982 229.391,359.424 229.29,359.87 
			229.312,360.467 229.363,361.124 229.871,361.857 230.204,362.318 231.081,362.746 231.614,362.767 232.506,362.71 
			233.012,362.369 233.526,361.984 233.798,361.633 234.004,361.194 234.112,360.747 		"/>
		<polygon fill="#B2CEE7" stroke="#000000" points="253.853,368.684 253.66,368.278 252.323,367.272 249.393,365.753 
			242.457,361.898 235.265,358.729 234.139,358.533 233.573,358.487 233.146,358.696 232.562,359.071 231.992,359.791 
			231.559,360.711 231.345,361.64 231.395,362.387 231.507,362.845 231.859,363.341 232.72,364.099 239.692,367.74 247.035,370.749 
			250.049,372.086 251.67,372.501 252.066,372.468 252.447,372.254 252.873,371.888 253.312,371.255 253.676,370.481 
			253.897,369.716 253.933,369.105 		"/>
		<polygon fill="#B2CEE7" stroke="#000000" points="262.496,365.289 262.348,365.04 261.749,364.424 260.922,364.111 
			260.576,364.13 259.752,364.179 259.093,364.574 258.9,364.731 258.709,365.001 258.555,365.335 258.477,365.663 258.479,365.921 
			258.645,366.608 258.808,366.854 259.396,367.475 260.221,367.797 261.12,367.753 261.396,367.727 262.065,367.336 
			262.252,367.175 262.439,366.898 262.593,366.563 262.675,366.235 262.676,365.978 		"/>
		<polygon fill="#B2CEE7" stroke="#000000" points="262.035,365.091 263.416,357.958 263.903,356.943 264.113,356.656 
			264.422,356.355 264.707,356.199 264.872,356.197 264.527,356.13 264.149,356.148 263.822,356.25 263.607,356.415 262.89,357.005 
			262.776,357.356 261.134,364.17 260.821,366.616 260.962,367.73 261.18,368.183 261.717,368.526 261.701,367.538 		"/>
		<polyline fill="#B2CEE7" stroke="#000000" points="264.422,356.355 264.113,356.656 263.903,356.943 263.416,357.958 
			262.035,365.091 261.701,367.538 261.717,368.526 261.857,368.59 263.622,367.063 263.82,366.707 264.157,365.439 
			264.535,363.004 265.146,356.611 264.872,356.197 264.707,356.199 264.422,356.355 		"/>
		<polygon fill="#B2CEE7" stroke="#000000" points="256.443,371.334 256.275,370.577 256.086,370.345 255.469,369.675 
			254.613,369.331 253.688,369.373 253.367,369.424 252.694,369.823 252.48,370.003 252.271,370.301 252.11,370.655 
			252.032,370.996 252.053,371.255 252.201,372.015 252.402,372.24 253.008,372.914 253.861,373.271 254.795,373.234 
			255.116,373.173 255.798,372.779 256.008,372.591 256.215,372.291 256.374,371.937 256.455,371.594 		"/>
		<polygon fill="#B2CEE7" stroke="#000000" points="255.557,370.621 256.803,363.223 257.323,362.137 257.556,361.819 
			257.899,361.478 258.223,361.284 258.417,361.263 258.051,361.188 257.65,361.218 257.295,361.341 257.05,361.531 256.32,362.134 
			256.173,362.542 254.662,369.577 254.418,372.091 254.612,373.23 254.81,373.745 255.357,374.13 255.287,373.135 		"/>
		<polyline fill="#B2CEE7" stroke="#000000" points="257.899,361.478 257.556,361.819 257.323,362.137 256.803,363.223 
			255.557,370.621 255.287,373.135 255.357,374.13 255.527,374.175 257.504,372.41 257.717,372.029 258.049,370.707 258.364,368.2 
			258.756,361.652 258.417,361.263 258.223,361.284 257.899,361.478 		"/>
		<g>
			<g>
				<line fill="none" stroke="#00AEEF" stroke-width="2" x1="216.314" y1="350.112" x2="216.314" y2="292.835"/>
				<g>
					<polygon fill="#00AEEF" points="219.801,295.213 216.314,282.204 212.828,295.213 					"/>
				</g>
			</g>
		</g>
		<g>
			<g>
				
					<line fill="none" stroke="#00AEEF" stroke-width="2" stroke-dasharray="2,2" x1="216.314" y1="350.096" x2="207.035" y2="297.749"/>
				<g>
					<polygon fill="#00AEEF" points="210.882,299.482 205.179,287.281 204.017,300.699 					"/>
				</g>
			</g>
		</g>
		<g>
			<g>
				
					<line fill="none" stroke="#00AEEF" stroke-width="2" stroke-dasharray="2,2" x1="216.444" y1="350.096" x2="225.724" y2="297.749"/>
				<g>
					<polygon fill="#00AEEF" points="228.741,300.699 227.579,287.281 221.875,299.482 					"/>
				</g>
			</g>
		</g>
		<g>
			<g>
				<path fill="none" stroke="#003468" d="M211.235,300.891c1.65-0.175,3.327-0.265,5.024-0.265c1.735,0,3.449,0.094,5.137,0.276"/>
				<g>
					<polygon fill="#003468" points="212.181,301.961 207.728,301.396 211.867,299.658 					"/>
				</g>
				<g>
					<polygon fill="#003468" points="220.447,301.974 224.901,301.416 220.765,299.671 					"/>
				</g>
			</g>
		</g>
	</g>
	<g>
		<g>
			<g>
				<line fill="none" stroke="#ED1C24" x1="358.389" y1="12.042" x2="462.473" y2="144.125"/>
				<g>
					<polygon fill="#ED1C24" points="460.367,144.27 465.763,148.3 463.105,142.112 					"/>
				</g>
			</g>
		</g>
		<rect x="36.239" y="34.172" fill="#B2CEE7" width="163.062" height="198.087"/>
		<g>
			<text transform="matrix(1 0 0 1 146.6729 43.9668)"><tspan x="0" y="0" font-size="8">X-Ray Source</tspan><tspan x="-55.137" y="14.052" font-size="8">Distance - Source to Detector</tspan><tspan x="-105.387" y="28.103" font-size="8">Distance - Source to Data Collection Center</tspan><tspan x="12" y="42.154" font-size="8">Scan Field</tspan><tspan x="-39.129" y="56.205" font-size="8">Data Collection Diameter</tspan><tspan x="-30.688" y="70.202" font-size="8">Data Collection Center</tspan><tspan x="-11.121" y="93.521" font-size="8">Image Pixel Data</tspan><tspan x="-79.137" y="112.841" font-size="8">Reconstruction Target Center (x,y,z)</tspan><tspan x="-38.238" y="130.423" font-size="8">Reconstruction Diameter</tspan><tspan x="-58.254" y="148.005" font-size="8">Reconstruction Target (height)</tspan><tspan x="-55.133" y="165.587" font-size="8">Reconstruction Target (width)</tspan><tspan x="-9.332" y="183.168" font-size="8">Detector System</tspan></text>
		</g>
		<circle fill="#CCDEF0" stroke="#003468" cx="358.898" cy="145.114" r="81.836"/>
		<path fill="none" stroke="#000000" stroke-width="0.5" stroke-dasharray="2,2" d="M332.584,154.641
			c0-20.466,16.6-37.062,37.061-37.062c20.473,0,37.07,16.595,37.07,37.062c0,20.475-16.598,37.062-37.07,37.062
			C349.184,191.703,332.584,175.115,332.584,154.641z"/>
		<rect x="343.486" y="128.521" fill="#D1D3D4" stroke="#000000" stroke-width="0.5" width="52.326" height="52.243"/>
		<g>
			<g>
				<line fill="none" stroke="#003468" stroke-width="0.5" x1="392.687" y1="131.565" x2="346.616" y2="177.718"/>
				<g>
					<polygon fill="#003468" points="390.959,131.241 395.816,128.431 393.015,133.293 					"/>
				</g>
				<g>
					<polygon fill="#003468" points="346.288,175.99 343.486,180.853 348.344,178.042 					"/>
				</g>
			</g>
		</g>
		<g>
			<g>
				<line fill="none" stroke="#003468" stroke-width="0.5" x1="418.19" y1="97.805" x2="298.587" y2="192.427"/>
				<g>
					<polygon fill="#003468" points="416.512,97.28 421.664,95.057 418.314,99.559 					"/>
				</g>
				<g>
					<polygon fill="#003468" points="298.463,190.673 295.113,195.176 300.266,192.952 					"/>
				</g>
			</g>
		</g>
		<path fill="#6799C8" stroke="#003468" stroke-width="0.5" d="M361.99,145.101c0-1.706-1.383-3.088-3.092-3.088
			c-1.707,0-3.086,1.382-3.086,3.088c0,1.706,1.379,3.087,3.086,3.087C360.607,148.188,361.99,146.807,361.99,145.101z"/>
		<path fill="#939598" stroke="#000000" stroke-width="0.5" d="M372.738,154.641c0-1.705-1.385-3.088-3.092-3.088
			c-1.705,0-3.088,1.383-3.088,3.088c0,1.709,1.383,3.09,3.088,3.09C371.354,157.73,372.738,156.35,372.738,154.641z"/>
		
			<rect x="332.584" y="117.637" fill="none" stroke="#000000" stroke-width="0.5" stroke-dasharray="2,2" width="74.131" height="74.013"/>
		<g>
			<g>
				<path fill="none" stroke="#000000" stroke-width="0.5" stroke-miterlimit="1" d="M359.524,154.64
					c-26.038-0.001-158.129,0-158.129,0"/>
				<g>
					<polygon points="358.531,153.188 363.951,154.641 358.531,156.093 					"/>
				</g>
			</g>
		</g>
		<g>
			<g>
				<path fill="none" stroke="#000000" stroke-width="0.5" stroke-miterlimit="1" d="M345.781,172.072
					c-24.697-0.001-144.386,0-144.386,0"/>
				<g>
					<polygon points="344.787,170.62 350.207,172.072 344.787,173.525 					"/>
				</g>
			</g>
		</g>
		<g>
			<g>
				<polyline fill="none" stroke="#000000" stroke-width="0.5" stroke-miterlimit="1" points="329.196,182.295 322.191,189.848 
					201.395,189.849 				"/>
				<g>
					<polygon points="327.458,182.034 332.209,179.048 329.588,184.01 					"/>
				</g>
			</g>
		</g>
		<g>
			<g>
				<path fill="none" stroke="#000000" stroke-width="0.5" stroke-miterlimit="1" d="M342.866,194.158
					c-6.842,4.338-20.675,13.11-20.675,13.11l-120.796,0.001"/>
				<g>
					<polygon points="341.252,193.462 346.607,191.786 342.808,195.916 					"/>
				</g>
			</g>
		</g>
		<g>
			<g>
				
					<line fill="none" stroke="#000000" stroke-width="0.5" stroke-miterlimit="1" x1="278.243" y1="224.861" x2="201.396" y2="224.861"/>
				<g>
					<polygon points="277.252,223.408 282.673,224.861 277.252,226.314 					"/>
				</g>
			</g>
		</g>
		<g>
			<g>
				
					<line fill="none" stroke="#000000" stroke-width="0.5" stroke-miterlimit="1" x1="337.437" y1="135.123" x2="201.395" y2="135.124"/>
				<g>
					<polygon points="336.445,133.67 341.866,135.123 336.445,136.576 					"/>
				</g>
			</g>
		</g>
		<g>
			<g>
				<polyline fill="none" stroke="#000000" stroke-width="0.5" stroke-miterlimit="1" points="355.394,138.083 336.469,112.323 
					201.395,112.323 				"/>
				<g>
					<polygon points="355.978,136.424 358.017,141.653 353.637,138.145 					"/>
				</g>
			</g>
		</g>
		<g>
			<g>
				<polyline fill="none" stroke="#000000" stroke-width="0.5" stroke-miterlimit="1" points="399.709,106.977 378.604,97.923 
					201.395,97.923 				"/>
				<g>
					<polygon points="399.371,105.251 403.78,108.723 398.227,107.921 					"/>
				</g>
			</g>
		</g>
		<g>
			<g>
				
					<line fill="none" stroke="#000000" stroke-width="0.5" stroke-miterlimit="1" x1="327.779" y1="83.522" x2="201.395" y2="83.522"/>
				<g>
					<polygon points="326.789,82.07 332.209,83.522 326.789,84.975 					"/>
				</g>
			</g>
		</g>
		<g>
			<g>
				
					<line fill="none" stroke="#000000" stroke-width="0.5" stroke-miterlimit="1" x1="353.959" y1="69.251" x2="201.395" y2="69.251"/>
				<g>
					<polygon points="352.969,67.799 358.389,69.251 352.969,70.704 					"/>
				</g>
			</g>
		</g>
		<g>
			<g>
				<line fill="none" stroke="#000000" stroke-width="0.5" stroke-miterlimit="1" x1="387.146" y1="55.7" x2="201.395" y2="55.7"/>
				<g>
					<polygon points="386.154,54.248 391.575,55.7 386.154,57.153 					"/>
				</g>
			</g>
		</g>
		<g>
			<g>
				<polyline fill="none" stroke="#000000" stroke-width="0.5" stroke-miterlimit="1" points="350.307,18.467 318.323,41.789 
					201.395,41.789 				"/>
				<g>
					<polygon points="348.65,17.877 353.886,15.857 350.362,20.224 					"/>
				</g>
			</g>
		</g>
		<path fill="none" stroke="#003468" stroke-width="4" d="M463.8,148.3c0,57.937-46.963,104.903-104.898,104.903
			S254,206.236,254,148.3"/>
		<g>
			<g>
				<line fill="none" stroke="#ED1C24" x1="358.644" y1="12.042" x2="358.644" y2="136.697"/>
				<g>
					<polygon fill="#ED1C24" points="356.9,135.508 358.644,142.013 360.387,135.508 					"/>
				</g>
			</g>
		</g>
		<g>
			<path fill="#FEDA00" d="M353.886,12.201c0-2.35,1.85-4.25,4.131-4.25c2.283,0,4.131,1.9,4.131,4.25
				c0,2.344-1.848,4.246-4.131,4.246C355.735,16.447,353.886,14.544,353.886,12.201z"/>
			<circle cx="358.056" cy="12.281" r="0.418"/>
			<path d="M358.56,11.332c0.322,0.18,0.535,0.533,0.535,0.934c0,0.029,0,0.061-0.002,0.092h2.529
				c0.002-0.031,0.002-0.062,0.002-0.092c0-1.359-0.721-2.551-1.793-3.182L358.56,11.332z"/>
			<path d="M357.567,11.332c-0.32,0.18-0.535,0.533-0.535,0.934c0,0.029,0,0.061,0,0.092h-2.529c0-0.031,0-0.062,0-0.092
				c0-1.359,0.723-2.551,1.795-3.182L357.567,11.332z"/>
			<path d="M358.647,13.156c-0.32,0.186-0.729,0.25-1.078,0.047c-0.025-0.012-0.053-0.031-0.078-0.047l-1.264,2.193
				c0.025,0.014,0.051,0.029,0.074,0.045c1.182,0.68,2.57,0.564,3.654-0.045L358.647,13.156z"/>
		</g>
	</g>
</g>
</svg>
