<?xml version="1.0" encoding="utf-8"?>
<!-- $Source: /home/bbennett/pass/archive/DicomXml/docbook/part03/figures/PS3.3_C.8.11.7-2a.svg,v $ -->
<!-- $Date: 2014/05/09 12:30:19 $ -->
<!-- $Revision: 1.2 $ -->

<!DOCTYPE svg PUBLIC "-//W3C//DTD SVG 1.1//EN" "http://www.w3.org/Graphics/SVG/1.1/DTD/svg11.dtd">
<svg version="1.1" id="Layer_1" xmlns="http://www.w3.org/2000/svg" xmlns:xlink="http://www.w3.org/1999/xlink" x="0px" y="0px"
	 width="502px" height="182px" viewBox="0 0 502 182" enable-background="new 0 0 502 182" xml:space="preserve">

<defs>
	<style type="text/css">
	text {
	  font-family: Helvetica, Verdana, ArialUnicodeMS, san-serif
	}
	</style>
</defs>

<g>
   <desc>
	PS 3.3 Part 3: Information Object Definitions
   </desc>
</g>

<g>
	<rect x="1" y="1" fill="#F5EED6" width="500" height="180"/>
	<g>
		<g>
			<text transform="matrix(0.963 0 0 1 223.2485 23.9927)" font-size="10">axilla</text>
		</g>
		<g>
			<text transform="matrix(0.963 0 0 1 261.2979 45.9858)" font-size="10">A</text>
		</g>
		<g>
			<text transform="matrix(0.963 0 0 1 267.2979 160.9863)" font-size="10">B</text>
		</g>
		
			<rect x="222.08" y="31.749" fill="none" stroke="#010101" stroke-width="0.72" stroke-linecap="square" stroke-miterlimit="10" width="54.001" height="72"/>
		
			<rect x="225.682" y="94.629" fill="none" stroke="#010101" stroke-width="0.72" stroke-linecap="square" stroke-miterlimit="10" width="54.239" height="72.239"/>
		<polyline fill="#005695" points="267.681,103.509 267.44,99.429 266.722,95.589 266.481,94.868 265.521,91.028 264.081,86.948 
			262.642,83.108 260.722,79.269 258.562,75.429 257.36,73.749 257.12,73.269 255.681,71.349 254.001,69.429 252.321,67.509 
			248.481,63.669 244.641,59.829 240.801,56.468 238.881,54.788 237.201,53.349 235.521,51.909 234.32,50.708 233.121,49.749 
			232.16,48.788 230,50.948 230.961,51.909 232.16,52.868 233.361,54.068 235.041,55.509 236.721,56.948 238.641,58.628 
			242.48,61.988 246.32,65.829 250.161,69.669 251.841,71.589 253.521,73.509 254.567,74.905 254.962,75.429 254.567,74.905 
			254.481,74.948 255.921,76.868 257.841,80.468 259.761,84.309 261.44,88.148 262.642,92.229 263.692,95.589 263.841,96.068 
			263.692,95.589 263.601,95.589 264.321,99.429 264.802,103.509 264.802,107.108 264.608,110.013 264.562,110.708 264.608,110.013 
			264.562,109.989 263.841,113.589 262.642,117.188 261.2,120.55 259.761,123.909 258.118,126.579 257.841,127.028 258.118,126.579 
			258.081,126.55 256.161,129.188 254.001,131.829 252.802,132.788 252.081,133.509 251.601,133.989 252.081,133.509 
			248.962,135.429 245.842,137.108 242.48,138.55 239.121,139.749 236,140.708 234.561,141.188 233.121,141.669 231.92,142.149 
			230.961,142.63 232.4,145.269 233.121,145.028 234.32,144.55 235.762,144.069 237.201,143.589 240.32,142.39 243.682,141.188 
			247.042,139.749 250.161,138.31 253.282,136.39 253.761,136.149 254.962,134.948 256.161,133.989 258.321,131.349 
			260.241,128.708 260.481,128.229 262.401,125.108 264.081,121.749 265.521,118.39 266.481,114.788 267.44,111.188 267.44,110.708 
			267.921,107.108 267.681,103.509 		"/>
	</g>
</g>
</svg>
