<?xml version="1.0" encoding="utf-8"?>
<!-- $Source: /home/bbennett/pass/archive/DicomXml/docbook/part03/figures/PS3.3_7.10-3.svg,v $ -->
<!-- $Date: 2014/05/09 13:15:43 $ -->
<!-- $Revision: 1.1 $ -->

<!DOCTYPE svg PUBLIC "-//W3C//DTD SVG 1.1//EN" "http://www.w3.org/Graphics/SVG/1.1/DTD/svg11.dtd">
<svg version="1.1" id="Layer_1" xmlns="http://www.w3.org/2000/svg" xmlns:xlink="http://www.w3.org/1999/xlink" x="0px" y="0px"
	 width="502px" height="262px" viewBox="0 0 502 262" enable-background="new 0 0 502 262" xml:space="preserve">

<defs>
	<style type="text/css">
	text {
	  font-family: Helvetica, Verdana, ArialUnicodeMS, san-serif
	}
	</style>
</defs>

<g>
   <desc>
	PS 3.3 Part 3: Information Object Definitions
   </desc>
</g>

<g>
	<rect x="1" y="1" fill="#F5EED6" width="500" height="260"/>
	<g>
		<g>
			<g>
				<g>
					
						<line fill="none" stroke="#005695" stroke-width="2" stroke-linejoin="round" x1="197.423" y1="89.206" x2="197.377" y2="104.628"/>
					<g>
						<polygon fill="#005695" points="195.058,103.036 197.356,111.716 199.706,103.05 						"/>
					</g>
				</g>
			</g>
			<g>
				<g>
					
						<line fill="none" stroke="#005695" stroke-width="2" stroke-linejoin="round" x1="197.423" y1="151.997" x2="197.382" y2="163.598"/>
					<g>
						<polygon fill="#005695" points="195.063,162.005 197.356,170.686 199.711,162.021 						"/>
					</g>
				</g>
			</g>
			<g>
				<g>
					<polyline fill="none" stroke="#005695" stroke-width="2" stroke-linejoin="round" points="238.068,44.771 238.068,55.557 
						196.864,55.557 196.864,63.708 					"/>
					<g>
						<polygon fill="#005695" points="194.54,62.123 196.864,70.796 199.188,62.123 						"/>
					</g>
				</g>
			</g>
			<g>
				<g>
					
						<line fill="none" stroke="#005695" stroke-width="2" stroke-linejoin="round" x1="305.273" y1="89.206" x2="305.273" y2="210.141"/>
					<g>
						<polygon fill="#005695" points="302.949,208.556 305.273,217.229 307.598,208.556 						"/>
					</g>
				</g>
			</g>
			<g>
				<g>
					<polyline fill="none" stroke="#005695" stroke-width="2" stroke-linejoin="round" points="263.572,44.771 263.572,55.557 
						304.776,55.557 304.776,63.708 					"/>
					<g>
						<polygon fill="#005695" points="302.452,62.123 304.776,70.796 307.101,62.123 						"/>
					</g>
				</g>
			</g>
			<g>
				<g>
					<polyline fill="none" stroke="#005695" stroke-width="2" stroke-linejoin="round" points="197.587,188.686 197.587,201.99 
						290.267,201.99 290.267,210.141 					"/>
					<g>
						<polygon fill="#005695" points="287.942,208.556 290.267,217.229 292.591,208.556 						"/>
					</g>
				</g>
			</g>
		</g>
		
			<rect x="147.724" y="111.716" fill="#86B2D8" stroke="#010101" stroke-width="0.75" stroke-linecap="round" stroke-linejoin="round" stroke-miterlimit="1" width="99.001" height="40.281"/>
		
			<polygon fill="#CCDEF0" stroke="#010101" stroke-width="0.75" stroke-linecap="round" stroke-linejoin="round" stroke-miterlimit="1" points="
			152.423,80.068 197.356,71.206 242.423,80.195 242.423,80.217 197.356,89.206 		"/>
		<g>
			<text transform="matrix(1 0 0 1 182.9111 82.7026)" font-size="9">defines</text>
		</g>
		<g>
			<text transform="matrix(1 0 0 1 150.8701 123.4526)"><tspan x="0" y="0" font-size="12">Implant Template</tspan><tspan x="4.33" y="11.733" font-size="12">Group Variation</tspan><tspan x="18.009" y="23.467" font-size="12">Dimension</tspan></text>
		</g>
		
			<rect x="255.276" y="217.229" fill="#86B2D8" stroke="#010101" stroke-width="0.75" stroke-linecap="round" stroke-linejoin="round" stroke-miterlimit="1" width="99" height="28.695"/>
		<g>
			<text transform="matrix(1 0 0 1 258.4199 234.9062)" font-size="12">Implant Template</text>
		</g>
		
			<rect x="199.746" y="16.076" fill="#86B2D8" stroke="#010101" stroke-width="0.75" stroke-linecap="round" stroke-linejoin="round" stroke-miterlimit="1" width="98.999" height="28.695"/>
		<g>
			<text transform="matrix(1 0 0 1 211.2207 27.8867)"><tspan x="0" y="0" font-size="12">Implant Group</tspan><tspan x="13.008" y="11.733" font-size="12">Template</tspan></text>
		</g>
		<g>
			<text transform="matrix(1 0 0 1 215.2363 71.7808)" font-size="9">0-n</text>
		</g>
		<g>
			<text transform="matrix(1 0 0 1 218.5176 93.7856)" font-size="9">1-n</text>
		</g>
		
			<polygon fill="#CCDEF0" stroke="#010101" stroke-width="0.75" stroke-linecap="round" stroke-linejoin="round" stroke-miterlimit="1" points="
			152.423,179.549 197.356,170.686 242.423,179.676 242.423,179.697 197.356,188.686 		"/>
		<g>
			<text transform="matrix(1 0 0 1 180.6611 182.1836)" font-size="9">contains</text>
		</g>
		<g>
			<text transform="matrix(1 0 0 1 215.2363 171.2617)" font-size="9">0-n</text>
		</g>
		<g>
			<text transform="matrix(1 0 0 1 218.5176 193.2666)" font-size="9">1-n</text>
		</g>
		
			<polygon fill="#CCDEF0" stroke="#010101" stroke-width="0.75" stroke-linecap="round" stroke-linejoin="round" stroke-miterlimit="1" points="
			260.273,80.068 305.207,71.206 350.273,80.195 350.273,80.217 305.207,89.206 		"/>
		<g>
			<text transform="matrix(1 0 0 1 288.5117 82.7026)" font-size="9">contains</text>
		</g>
		<g>
			<text transform="matrix(1 0 0 1 323.0869 71.7808)" font-size="9">0-n</text>
		</g>
		<g>
			<text transform="matrix(1 0 0 1 326.3682 93.7856)" font-size="9">1-n</text>
		</g>
	</g>
</g>
</svg>
