<?xml version="1.0" encoding="utf-8"?>
<!-- $Source: /home/bbennett/pass/archive/DicomXml/docbook/part03/figures/PS3.3_C.13.3.1.1.svg,v $ -->
<!-- $Date: 2014/02/18 14:35:30 $ -->
<!-- $Revision: 1.1 $ -->

<!DOCTYPE svg PUBLIC "-//W3C//DTD SVG 1.1//EN" "http://www.w3.org/Graphics/SVG/1.1/DTD/svg11.dtd">

<svg version="1.1" id="Layer_1" xmlns="http://www.w3.org/2000/svg" xmlns:xlink="http://www.w3.org/1999/xlink" x="0px" y="0px"
	 width="496.043px" height="342.683px" viewBox="0 0 496.043 342.683" enable-background="new 0 0 496.043 342.683"
	 xml:space="preserve">

<defs>
	<style type="text/css">
	text {
	  font-family: Helvetica, Verdana, ArialUnicodeMS, san-serif
	}
	</style>
</defs>

<g>
   <desc>
	PS 3.3-2008 Part 3: Information Object Definitions
   </desc>
   <title>
	Figure C.13.3.1.1 Standard image display format  
   </title>
</g>

<rect fill="#F4EED7" width="496.043" height="342.683"/>
<line fill="none" stroke="#000000" stroke-miterlimit="1" stroke-dasharray="6,2,4,4" x1="397.022" y1="182.141" x2="99.022" y2="182.141"/>
<g>
	<g>
		<rect x="53.618" y="168.641" fill="#B2CEE7" width="72.004" height="27"/>
	</g>
	<g>
		<text transform="matrix(1.1284 0 0 1 66.0347 179.0347)"><tspan x="0" y="0" font-size="9.6429">horizontal</tspan><tspan x="-8.831" y="11.571" font-size="9.6429">symmetry line</tspan></text>
	</g>
</g>
<g>
	<rect x="158.021" y="73.771" fill="#CCDFF0" stroke="#000000" stroke-miterlimit="1" width="180.002" height="216.741"/>
	<line fill="#CCDFF0" stroke="#000000" stroke-miterlimit="1" x1="158.021" y1="236.326" x2="338.023" y2="236.326"/>
	<line fill="#CCDFF0" stroke="#000000" stroke-miterlimit="1" x1="158.021" y1="182.141" x2="338.023" y2="182.141"/>
	<line fill="#CCDFF0" stroke="#000000" stroke-miterlimit="1" x1="158.021" y1="127.958" x2="338.023" y2="127.958"/>
	<line fill="#CCDFF0" stroke="#000000" stroke-miterlimit="1" x1="278.035" y1="73.771" x2="278.035" y2="290.512"/>
	<line fill="#CCDFF0" stroke="#000000" stroke-miterlimit="1" x1="218.007" y1="73.771" x2="218.007" y2="290.512"/>
</g>
<line fill="none" stroke="#000000" stroke-miterlimit="1" stroke-dasharray="6,2,4,4" x1="248.022" y1="33.141" x2="248.022" y2="331.141"/>
<g>
	<rect x="207.533" y="17.437" fill="#B2CEE7" width="80.977" height="27"/>
	<g>
		<text transform="matrix(1 0 0 1 232.1865 27.7319)"><tspan x="0" y="0" font-size="10">vertical</tspan><tspan x="-15" y="12" font-size="10">symmetry line</tspan></text>
	</g>
</g>
</svg>
