<?xml version="1.0" encoding="utf-8"?>
<!-- $Source: /home/bbennett/pass/archive/DicomXml/docbook/part03/figures/PS3.3_C.8-10.svg,v $ -->
<!-- $Date: 2014/05/09 12:27:10 $ -->
<!-- $Revision: 1.2 $ -->

<!DOCTYPE svg PUBLIC "-//W3C//DTD SVG 1.1//EN" "http://www.w3.org/Graphics/SVG/1.1/DTD/svg11.dtd">
<svg version="1.1" id="Layer_1" xmlns="http://www.w3.org/2000/svg" xmlns:xlink="http://www.w3.org/1999/xlink" x="0px" y="0px"
	 width="502px" height="162px" viewBox="0 0 502 162" enable-background="new 0 0 502 162" xml:space="preserve">

<defs>
	<style type="text/css">
	text {
	  font-family: Helvetica, Verdana, ArialUnicodeMS, san-serif
	}
	</style>
</defs>

<g>
   <desc>
	PS 3.3 Part 3: Information Object Definitions
   </desc>
</g>

<rect x="1" y="1" fill="#F5EED6" width="500" height="160"/>
<g>
	<polygon fill="#4F8ABE" stroke="#000000" points="175.87,33.413 114.604,56.913 342.38,145.881 390.784,100.194 	"/>
	<g>
		<polygon fill="#B2CEE7" stroke="#000000" points="180.421,40.245 179.66,39.13 177.05,37.12 175.098,35.835 166.095,30.927 
			161.556,30.44 157.996,30.255 153.563,31.866 151.169,33.515 148.629,35.794 147.078,38.799 146.841,41.913 147.126,44.37 
			148.788,48.194 151.497,50.096 155.08,52.524 165.835,54.167 168.354,54.364 171.91,54.544 173.431,54.165 176.723,52.765 
			179.479,50.104 181.185,46.697 181.522,43.189 		"/>
		<polygon fill="#B2CEE7" stroke="#000000" points="212.114,42.825 210.735,40.665 208.885,39.212 206.94,38.752 204.768,38.315 
			202.706,39.099 200.669,40.124 199.391,42.101 198.562,43.853 198.362,46.077 199.021,48.504 200.405,50.657 202.247,52.124 
			204.189,52.617 206.363,52.97 208.436,52.243 210.425,51.157 211.747,49.23 212.499,47.458 212.744,45.253 		"/>
		<polygon fill="#B2CEE7" stroke="#000000" points="184.594,44.56 183.479,42.957 181.752,41.203 179.562,40.501 177.277,40.042 
			175.241,40.812 173.33,41.573 171.73,43.316 170.771,45.692 170.646,48.216 171.379,50.378 172.443,52.025 174.231,53.725 
			176.406,54.478 178.695,54.851 180.742,54.142 182.621,53.333 184.182,51.577 185.127,49.226 185.275,46.726 		"/>
		<polygon fill="#B2CEE7" stroke="#000000" points="241.67,50.054 241.473,49.563 240.454,48.187 239.862,47.847 227.936,43.762 
			220.268,41.231 218.255,40.795 212.259,40.521 210.96,41.036 209.336,41.88 208.882,42.417 207.692,44.019 206.959,46.165 
			206.831,48.429 207.333,50.345 207.539,51.073 208.725,52.446 209.708,53.526 215.236,56.074 223.344,57.389 225.151,57.683 
			237.49,59.544 238.155,59.515 239.636,58.604 239.997,58.274 241.15,56.586 241.892,54.362 242.074,52.036 		"/>
		<polygon fill="#B2CEE7" stroke="#000000" points="215.062,51.045 213.937,49.145 211.227,46.907 208.023,45.245 197.962,40.099 
			190.399,39.046 186.134,38.651 181.559,40.495 180.221,41.569 177.007,44.634 174.995,48.634 174.614,52.737 174.669,54.226 
			176.286,58.335 179.614,60.679 185.979,64.294 197.67,66.361 201.406,67.003 205.197,67.085 207.632,66.325 210.974,64.708 
			213.813,61.741 215.625,58.005 216.073,54.199 		"/>
		<polygon fill="#B2CEE7" stroke="#000000" points="246.786,52.054 245.663,50.414 244.183,49.354 242.919,49.118 240.99,48.78 
			239.376,49.492 237.866,50.327 236.882,51.944 236.333,53.296 236.202,55.06 236.753,56.944 237.874,58.582 239.35,59.653 
			240.89,59.946 242.539,60.2 244.166,59.523 245.647,58.652 246.661,57.063 247.165,55.696 247.321,53.941 		"/>
		<polygon fill="#B2CEE7" stroke="#000000" points="274.397,56.659 274.151,56.153 273.216,54.899 272.503,54.563 261.786,51.191 
			260.103,50.839 247.744,49.118 245.994,49.144 245.038,49.452 243.562,50.28 242.335,52.071 242.194,52.324 241.55,54.457 
			241.481,56.694 241.536,56.981 242.12,59.101 243.245,60.405 244.046,61.033 245.684,61.676 257.839,64.442 259.532,64.713 
			270.683,65.351 271.464,65.288 272.749,64.448 273.146,64.062 274.106,62.536 274.692,60.532 274.798,58.438 		"/>
		<polygon fill="#B2CEE7" stroke="#000000" points="225.783,54.587 223.542,51.752 220.954,48.811 216.94,47.554 213.374,46.835 
			209.601,48.113 206.535,49.479 203.907,52.526 202.266,56.647 201.955,60.979 203.031,64.628 205.126,67.595 207.89,70.37 
			211.859,71.776 215.441,72.245 219.245,71.148 222.216,69.64 224.735,66.562 226.333,62.51 226.709,58.249 		"/>
		<polygon fill="#B2CEE7" stroke="#000000" points="183.269,55.923 182.591,54.593 181.725,53.64 180.062,51.971 178.477,51.273 
			175.6,50.716 172.779,51.714 171.192,52.294 169.322,54.544 168.613,56.07 168.388,58.452 168.378,59.724 168.753,61.171 
			169.438,62.513 170.299,63.485 172.033,65.085 173.599,65.831 176.486,66.306 178.092,65.802 180.87,64.741 182.672,62.468 
			183.436,60.985 183.584,58.613 183.623,57.356 		"/>
		<polygon fill="#B2CEE7" stroke="#000000" points="249.14,59.062 248.905,58.554 245.99,55.931 242.673,53.593 237.549,51.925 
			226.316,51.137 222.482,50.876 218.302,52.819 217.937,53.007 214.405,56.665 212.119,61.374 211.566,66.144 211.682,66.479 
			213.016,70.461 215.944,72.659 224.81,78.624 229.956,80.379 234.331,80.579 238.552,80.515 239.146,80.271 243.435,77.896 
			247.126,73.723 247.196,73.577 249.495,68.678 249.552,68.554 250.272,63.344 		"/>
		<polygon fill="#B2CEE7" stroke="#000000" points="207.477,66.68 205.931,65.185 205.469,64.747 195.712,58.954 189.486,55.373 
			184.133,54.331 181.667,53.878 179.076,54.821 178.312,55.101 176.389,56.999 175.214,59.582 175.026,62.329 175.859,64.677 
			176.276,65.745 178.184,67.431 182.482,70.813 189.263,73.186 200.023,76.789 202.186,77.087 202.749,77.14 204.93,76.224 
			206.776,74.293 206.845,74.172 207.9,71.836 207.936,71.724 208.188,69.013 		"/>
		<polygon fill="#B2CEE7" stroke="#000000" points="279.97,58.788 279.071,57.306 277.786,56.28 276.372,55.919 275.116,55.681 
			273.544,56.142 272.349,56.895 271.286,58.177 270.915,59.432 270.632,60.912 270.978,62.552 271.876,64.031 273.159,65.062 
			274.571,65.44 275.825,65.644 277.403,65.208 278.575,64.427 279.663,63.169 280.001,61.903 280.302,60.431 		"/>
		<polygon fill="#B2CEE7" stroke="#000000" points="259.753,64.478 259.211,62.157 258.054,60.704 255.998,58.694 253.212,58.095 
			251.258,57.72 248.673,58.71 247.016,59.645 245.608,61.635 245.109,62.698 244.634,64.157 244.555,65.679 244.6,67.042 
			245.2,69.356 246.415,70.763 248.427,72.812 251.204,73.47 253.159,73.742 255.763,72.821 257.379,71.827 258.741,69.825 
			259.337,68.818 259.81,67.354 259.903,65.829 		"/>
		<polygon fill="#B2CEE7" stroke="#000000" points="295.212,63.792 294.052,62.236 293.329,61.907 287.886,59.534 284.435,58.929 
			280.325,59.052 279.397,59.265 277.821,59.932 277.245,60.307 276.728,60.861 276.372,61.489 276.249,62.062 276.571,63.099 
			276.815,63.825 279.499,65.704 280.421,66.088 283.604,67.227 290.013,67.946 292.72,67.333 293.374,67.159 294.099,66.647 
			294.536,66.321 294.927,65.877 295.198,65.38 295.296,64.931 295.368,64.321 		"/>
		<polygon fill="#B2CEE7" stroke="#000000" points="300.407,71.183 300.269,70.786 299.192,69.19 298.54,68.841 296.983,68.558 
			296.53,68.517 296.538,68.517 296.53,68.517 295.716,68.44 296.53,68.517 275.769,62.536 261.016,58.554 258.796,58.122 
			256.976,59.065 254.956,60.233 253.233,62.716 252.161,66.015 251.965,69.454 252.679,72.326 253.751,73.704 255.465,75.724 
			270.663,78.526 292.997,82.261 294.198,82.706 295.765,82.903 296.491,82.871 298.114,81.697 298.386,81.416 299.704,79.267 
			300.571,76.485 300.823,73.606 		"/>
		<polygon fill="#B2CEE7" stroke="#000000" points="211.783,70.952 211.465,69.817 210.858,68.8 210.287,68.049 208.89,66.792 
			207.477,66.366 205.33,66.018 203.902,66.635 201.866,67.52 200.628,69.351 199.981,70.657 199.954,72.519 200.071,73.526 
			200.4,74.671 201.011,75.698 201.638,76.403 203.021,77.675 204.426,78.13 206.576,78.427 208.018,77.86 210.029,76.933 
			211.223,75.085 211.9,73.804 211.961,71.952 		"/>
		<polygon fill="#B2CEE7" stroke="#000000" points="244.477,70.423 243.054,68.579 241.286,66.7 238.702,65.913 236.327,65.513 
			233.915,66.378 231.908,67.325 230.209,69.354 229.165,72.063 228.993,74.896 229.724,77.278 231.075,79.179 232.914,80.989 
			235.476,81.847 237.858,82.144 240.29,81.36 242.263,80.354 243.919,78.308 244.946,75.622 245.146,72.815 		"/>
		<polygon fill="#B2CEE7" stroke="#000000" points="237.722,78.866 237.071,76.708 235.744,75.358 235.101,74.923 225.285,70.28 
			213.736,67.331 211.526,66.968 209.912,66.843 209.029,67.091 207.025,67.976 205.358,69.892 204.373,72.46 204.271,75.157 
			205.068,77.432 205.612,78.074 207.269,79.593 208.726,80.44 219.863,84.562 230.78,86.369 232.61,86.595 233.344,86.601 
			235.152,85.687 235.468,85.316 236.811,83.664 237.628,81.493 237.76,79.229 		"/>
		<polygon fill="#B2CEE7" stroke="#000000" points="283.733,84.622 283.132,81.937 281.729,80.282 281.126,79.873 279.88,79.665 
			259.763,71.866 246.053,66.837 243.329,66.376 240.442,67.767 239.157,68.429 237.057,70.968 235.758,74.354 235.528,77.887 
			236.405,80.847 237.204,82.368 239.309,84.462 253.501,88.341 274.601,93.697 275.722,94.244 277.735,94.452 278.427,94.468 
			280.493,93.255 280.726,92.985 282.394,90.759 283.474,87.874 283.763,84.888 		"/>
		<polygon fill="#B2CEE7" stroke="#000000" points="305.833,74.563 305.292,73.507 303.765,71.464 301.483,70.441 300.243,70.216 
			297.899,70.452 296.655,71.2 295.278,72.31 294.595,73.157 294.056,74.268 293.771,75.419 293.794,76.378 293.966,78.564 
			294.554,79.599 296.05,81.651 298.315,82.706 299.565,82.866 301.905,82.674 303.126,81.886 304.542,80.829 305.216,79.972 
			305.753,78.856 306.052,77.71 306.052,76.749 		"/>
		<polygon fill="#B2CEE7" stroke="#000000" points="357.087,97.166 356.7,96.034 353.241,93.548 345.69,89.812 327.765,80.306 
			309.138,72.514 307.687,72.256 304.905,71.806 303.771,72.362 302.364,73.23 300.956,75.001 299.835,77.316 299.229,79.706 
			299.257,81.684 299.579,82.806 300.345,84.181 302.579,86.062 320.653,95.044 339.636,102.402 347.417,105.673 351.595,106.673 
			352.509,106.704 353.507,106.134 354.526,105.286 355.606,103.735 356.542,101.784 357.151,99.813 357.313,98.198 		"/>
		<polygon fill="#B2CEE7" stroke="#000000" points="242.14,80.187 241.235,78.505 239.989,77.282 238.653,76.761 236.931,76.496 
			235.49,76.849 233.805,77.669 232.876,78.946 232.036,80.37 231.846,81.935 232.241,83.729 232.329,83.993 232.834,84.929 
			233.145,85.404 234.38,86.634 235.708,87.179 237.436,87.4 238.884,87.087 240.548,86.235 241.505,84.983 242.308,83.542 
			242.522,81.987 		"/>
		<polygon fill="#B2CEE7" stroke="#000000" points="256.353,86.093 255.94,85.171 251.268,82.14 249.868,81.687 246.526,80.723 
			242.38,80.526 241.044,80.765 239.486,81.358 238.669,81.768 237.942,82.372 237.453,83.052 237.298,83.67 237.106,84.933 
			237.489,85.712 239.618,88.095 242.481,89.629 243.931,90.052 250.224,91.414 253.089,90.948 254.052,90.745 255.104,90.179 
			256.038,89.364 256.669,88.46 256.878,87.643 		"/>
		<polygon fill="#B2CEE7" stroke="#000000" points="288.169,88.315 288.001,85.946 287.329,84.922 285.763,82.74 283.417,81.632 
			281.995,81.511 279.612,81.716 278.237,82.583 276.911,83.664 276.177,84.583 275.62,85.759 275.351,86.952 275.411,88.542 
			275.544,90.294 276.905,92.247 277.796,93.485 280.128,94.627 281.556,94.679 283.935,94.522 285.286,93.614 286.655,92.591 
			287.378,91.657 287.935,90.482 288.218,89.291 		"/>
		<polygon fill="#B2CEE7" stroke="#000000" points="340.913,110.47 340.401,109.392 336.823,106.706 329.011,102.648 
			310.497,92.359 291.296,83.903 288.294,83.374 286.786,83.253 285.64,83.813 284.081,84.819 282.567,86.741 281.407,89.19 
			280.835,91.669 280.966,93.669 281.269,94.888 282.21,96.212 284.507,98.231 303.118,107.956 322.712,115.986 330.759,119.555 
			335.081,120.666 336.146,120.578 337.161,120.004 338.296,119.025 339.464,117.338 340.438,115.273 341.032,113.227 
			341.126,111.598 		"/>
		<polygon fill="#B2CEE7" stroke="#000000" points="363.979,101.409 363.581,100.747 361.985,99.101 359.776,98.265 358.858,98.318 
			356.655,98.444 354.894,99.503 354.38,99.919 353.87,100.644 353.464,101.53 353.247,102.407 353.261,103.095 353.702,104.935 
			354.136,105.583 355.706,107.245 357.907,108.104 360.308,107.989 361.042,107.913 362.829,106.872 363.331,106.442 
			363.833,105.708 364.237,104.815 364.462,103.94 364.464,103.251 		"/>
		<g>
			<polygon fill="#B2CEE7" stroke="#000000" points="362.751,100.88 366.435,81.84 367.737,79.138 368.3,78.367 369.12,77.569 
				369.878,77.151 370.321,77.142 369.396,76.961 368.396,77.013 367.522,77.284 366.944,77.728 365.034,79.297 364.731,80.241 
				360.343,98.419 359.507,104.948 359.886,107.919 360.464,109.134 361.899,110.05 361.86,107.417 			"/>
			<polyline fill="#B2CEE7" stroke="#000000" points="369.12,77.569 368.3,78.367 367.737,79.138 366.435,81.84 362.751,100.88 
				361.86,107.417 361.899,110.05 362.278,110.22 366.987,106.146 367.517,105.198 368.417,101.813 369.423,95.313 371.048,78.247 
				370.321,77.142 369.878,77.151 369.12,77.569 			"/>
		</g>
		<polygon fill="#B2CEE7" stroke="#000000" points="347.821,117.547 347.374,115.525 346.874,114.906 345.228,113.119 
			342.944,112.199 340.472,112.314 339.61,112.443 337.819,113.514 337.245,113.994 336.688,114.785 336.261,115.734 
			336.054,116.643 336.103,117.338 336.507,119.359 337.04,119.961 338.659,121.76 340.938,122.713 343.429,122.621 344.28,122.451 
			346.103,121.402 346.665,120.906 347.214,120.102 347.638,119.152 347.854,118.242 		"/>
		<g>
			<polygon fill="#B2CEE7" stroke="#000000" points="345.456,115.641 348.788,95.896 350.177,92.996 350.794,92.147 351.71,91.241 
				352.575,90.726 353.091,90.66 352.118,90.466 351.048,90.539 350.095,90.866 349.444,91.382 347.501,92.99 347.101,94.081 
				343.071,112.855 342.419,119.566 342.935,122.604 343.466,123.979 344.929,125.006 344.745,122.354 			"/>
			<polyline fill="#B2CEE7" stroke="#000000" points="351.71,91.241 350.794,92.147 350.177,92.996 348.788,95.896 345.456,115.641 
				344.745,122.354 344.929,125.006 345.38,125.127 350.657,120.424 351.226,119.402 352.106,115.875 352.952,109.187 
				353.993,91.701 353.091,90.66 352.575,90.726 351.71,91.241 			"/>
		</g>
	</g>
	<g>
		<g>
			<line fill="none" stroke="#0DB14B" x1="229.399" y1="61.163" x2="229.399" y2="120.08"/>
			<path fill="#0DB14B" d="M229.399,119.061l3.603-2.191l0.082,0.123l-2.333,5.875c-0.45,2.047-0.9,4.094-1.351,6.141
				c-0.45-2.047-0.9-4.094-1.351-6.141l-2.333-5.875l0.062-0.123L229.399,119.061z"/>
		</g>
	</g>
	<text transform="matrix(1 0 0 1 286.4355 30.729)" fill="#ED1C24" font-size="10">+X</text>
	<text transform="matrix(1 0 0 1 220.1851 138.9785)" fill="#0DB14B" font-size="10">+Y</text>
	<text transform="matrix(1 0 0 1 111.2158 24.979)" fill="#00AEEF" font-size="10">+Z</text>
	<g>
		<g>
			<line fill="none" stroke="#00AEEF" x1="229.692" y1="61.161" x2="132.205" y2="24.934"/>
			<path fill="#00AEEF" d="M133.161,25.289l0.798,4.14l-0.144,0.034l-4.694-4.234c-1.762-1.135-3.524-2.27-5.286-3.405
				c2.076,0.291,4.151,0.582,6.227,0.873l6.32-0.141l0.094,0.1L133.161,25.289z"/>
		</g>
	</g>
	<g>
		<g>
			<line fill="none" stroke="#ED1C24" x1="229.399" y1="61.163" x2="278.86" y2="33.892"/>
			<path fill="#ED1C24" d="M277.967,34.384l-3.657-2.098l0.067-0.13l6.271-0.793c2.01-0.594,4.021-1.188,6.03-1.782
				c-1.575,1.383-3.15,2.766-4.726,4.148l-4.018,4.88l-0.138,0.005L277.967,34.384z"/>
		</g>
	</g>
</g>
</svg>
