<?xml version="1.0" encoding="utf-8"?>
<!-- $Source: /home/bbennett/pass/archive/DicomXml/docbook/part03/figures/PS3.3_C.8.9.1.1.11-1b.svg,v $ -->
<!-- $Date: 2014/05/09 12:27:10 $ -->
<!-- $Revision: 1.2 $ -->

<!DOCTYPE svg PUBLIC "-//W3C//DTD SVG 1.1//EN" "http://www.w3.org/Graphics/SVG/1.1/DTD/svg11.dtd">
<svg version="1.1" id="Layer_1" xmlns="http://www.w3.org/2000/svg" xmlns:xlink="http://www.w3.org/1999/xlink" x="0px" y="0px"
	 width="502px" height="487px" viewBox="0 0 502 487" enable-background="new 0 0 502 487" xml:space="preserve">

<defs>
	<style type="text/css">
	text {
	  font-family: Helvetica, Verdana, ArialUnicodeMS, san-serif
	}
	</style>
</defs>

<g>
   <desc>
	PS 3.3 Part 3: Information Object Definitions
   </desc>
</g>

<g>
	<rect x="1" y="1" fill="#F5EED6" width="500" height="485"/>
	<g>
		
			<line fill="none" stroke="#000000" stroke-width="0.75" stroke-miterlimit="1" x1="188.195" y1="209.409" x2="452.791" y2="209.409"/>
		
			<line fill="none" stroke="#000000" stroke-width="0.75" stroke-miterlimit="1" x1="188.195" y1="252.722" x2="452.791" y2="252.722"/>
		
			<line fill="none" stroke="#000000" stroke-width="0.75" stroke-miterlimit="1" x1="188.195" y1="296.392" x2="452.791" y2="296.392"/>
		
			<line fill="none" stroke="#000000" stroke-width="0.75" stroke-miterlimit="1" x1="188.195" y1="339.095" x2="452.791" y2="339.095"/>
		
			<line fill="none" stroke="#000000" stroke-width="0.75" stroke-miterlimit="1" x1="188.195" y1="382.407" x2="452.791" y2="382.407"/>
		<rect x="16.994" y="140.872" fill="none" width="159" height="303.081"/>
		<text transform="matrix(0.9288 0 0 1 56.5918 147.3013)"><tspan x="0" y="0" font-size="9">Radiopharmaceutical Start Time</tspan><tspan x="80.015" y="10.8" font-size="9">(0018,1072)</tspan><tspan x="74.54" y="32.4" font-size="9">Series Time *</tspan><tspan x="80.015" y="43.2" font-size="9">(0008,0031)</tspan><tspan x="62.529" y="64.8" font-size="9">Acquisition Time</tspan><tspan x="80.015" y="75.6" font-size="9">(0008,0032)</tspan><tspan x="74.54" y="86.4" font-size="9">all Time Slots</tspan><tspan x="28.024" y="108" font-size="9">Four Trigger Time values</tspan><tspan x="80.015" y="118.8" font-size="9">(0018,1060)</tspan><tspan x="55.032" y="129.599" font-size="9">for four Time Slots</tspan><tspan x="30.023" y="151.201" font-size="9">Frame Reference Time *</tspan><tspan x="80.015" y="162" font-size="9">(0054,1300)</tspan><tspan x="73.533" y="172.8" font-size="9">any Time Slot</tspan><tspan x="30.528" y="194.4" font-size="9">Four Frame Time values</tspan><tspan x="80.015" y="205.201" font-size="9">(0018,1063)</tspan><tspan x="55.032" y="216" font-size="9">for four Time Slots</tspan><tspan x="38.518" y="237.599" font-size="9">Actual Frame Duration</tspan><tspan x="80.015" y="248.4" font-size="9">(0018,1242)</tspan><tspan x="74.54" y="259.201" font-size="9">all Time Slots</tspan><tspan x="-42.633" y="280.8" font-size="9">* Time not related to a real-world event.</tspan><tspan x="-42.633" y="291.599" font-size="9">All other times fixed to a real-world event.</tspan></text>
		<rect x="194.194" y="16.773" fill="none" width="31.333" height="9.606"/>
		<text transform="matrix(0.9288 0 0 1 194.292 23.2031)" font-size="9">Injection</text>
		<rect x="238.914" y="16.773" fill="none" width="47.444" height="8.305"/>
		<text transform="matrix(0.9288 0 0 1 238.9399 23.2031)" font-size="9">Manual Start</text>
		<rect x="263.512" y="35.339" fill="none" width="74" height="9.92"/>
		<text transform="matrix(0.9288 0 0 1 263.5117 41.769)" font-size="9">Start of Acquisition</text>
		<rect x="277.512" y="53.593" fill="none" width="46" height="9.92"/>
		<text transform="matrix(0.9288 0 0 1 277.5117 60.0225)" font-size="9">First Trigger</text>
		<rect x="438.672" y="24.03" fill="none" width="46.334" height="21.804"/>
		<text transform="matrix(0.9288 0 0 1 438.6748 30.46)"><tspan x="0" y="0" font-size="9">End of </tspan><tspan x="0" y="10.8" font-size="9">Acquisition</tspan></text>
		
			<line fill="none" stroke="#000000" stroke-width="0.75" stroke-miterlimit="1" x1="188.195" y1="144.498" x2="452.791" y2="144.498"/>
		
			<line fill="none" stroke="#000000" stroke-width="0.75" stroke-miterlimit="1" x1="188.195" y1="176.909" x2="452.791" y2="176.909"/>
		<rect x="464.191" y="108.666" fill="none" width="17.379" height="8.51"/>
		<text transform="matrix(0.9288 0 0 1 464.1934 115.0996)" font-size="9">time</text>
		<rect x="263.512" y="86.478" fill="#86B2D8" width="175.16" height="52"/>
		
			<line fill="#FFFFFF" stroke="#000000" stroke-width="0.75" stroke-linecap="round" stroke-linejoin="round" stroke-miterlimit="1" x1="212.195" y1="103.667" x2="212.195" y2="121.667"/>
		
			<line fill="#FFFFFF" stroke="#000000" stroke-width="0.75" stroke-linecap="round" stroke-linejoin="round" stroke-miterlimit="1" x1="194.195" y1="121.667" x2="194.195" y2="103.667"/>
		
			<line fill="none" stroke="#000000" stroke-width="0.75" stroke-linecap="round" stroke-miterlimit="1" stroke-dasharray="6,2" x1="212.195" y1="125.867" x2="212.195" y2="195.409"/>
		
			<line fill="none" stroke="#000000" stroke-width="0.75" stroke-linecap="round" stroke-miterlimit="1" stroke-dasharray="6,2" x1="194.195" y1="125.867" x2="194.195" y2="163.909"/>
		
			<line fill="none" stroke="#000000" stroke-width="0.75" stroke-linecap="round" stroke-miterlimit="1" stroke-dasharray="4,4" x1="263.512" y1="125.867" x2="263.512" y2="394.603"/>
		<g>
			<g>
				
					<line fill="none" stroke="#005695" stroke-width="2" stroke-miterlimit="1" x1="285.701" y1="252.81" x2="285.701" y2="133.312"/>
				<g>
					<polygon fill="#005695" points="289.188,135.689 285.701,122.681 282.215,135.689 					"/>
				</g>
			</g>
		</g>
		<g>
			<g>
				
					<line fill="none" stroke="#005695" stroke-width="2" stroke-miterlimit="1" x1="297.574" y1="252.81" x2="297.574" y2="133.312"/>
				<g>
					<polygon fill="#005695" points="301.061,135.689 297.574,122.681 294.088,135.689 					"/>
				</g>
			</g>
		</g>
		<g>
			<g>
				
					<line fill="none" stroke="#005695" stroke-width="2" stroke-miterlimit="1" x1="309.447" y1="252.81" x2="309.447" y2="133.312"/>
				<g>
					<polygon fill="#005695" points="312.934,135.689 309.447,122.681 305.961,135.689 					"/>
				</g>
			</g>
		</g>
		<g>
			<g>
				<line fill="none" stroke="#005695" stroke-width="2" stroke-miterlimit="1" x1="321.32" y1="252.81" x2="321.32" y2="133.312"/>
				<g>
					<polygon fill="#005695" points="324.807,135.689 321.32,122.681 317.834,135.689 					"/>
				</g>
			</g>
		</g>
		
			<line fill="none" stroke="#000000" stroke-width="0.75" stroke-linecap="round" stroke-miterlimit="1" stroke-dasharray="4,4" x1="343.99" y1="125.867" x2="343.99" y2="310.409"/>
		
			<line fill="none" stroke="#000000" stroke-width="0.75" stroke-linecap="round" stroke-miterlimit="1" stroke-dasharray="4,4" x1="364.701" y1="122.867" x2="364.701" y2="353.651"/>
		
			<line fill="none" stroke="#000000" stroke-width="0.75" stroke-linecap="round" stroke-miterlimit="1" stroke-dasharray="4,4" x1="376.574" y1="122.867" x2="376.574" y2="353.651"/>
		
			<line fill="none" stroke="#000000" stroke-width="0.75" stroke-linecap="round" stroke-miterlimit="1" stroke-dasharray="4,4" x1="388.447" y1="122.867" x2="388.447" y2="353.651"/>
		
			<line fill="none" stroke="#000000" stroke-width="0.75" stroke-linecap="round" stroke-miterlimit="1" stroke-dasharray="4,4" x1="400.32" y1="122.867" x2="400.32" y2="353.651"/>
		
			<line fill="none" stroke="#000000" stroke-width="0.75" stroke-linecap="round" stroke-miterlimit="1" stroke-dasharray="4,4" x1="412.193" y1="122.867" x2="412.193" y2="353.651"/>
		
			<line fill="none" stroke="#000000" stroke-width="0.75" stroke-linecap="round" stroke-miterlimit="1" stroke-dasharray="4,4" x1="439.004" y1="125.867" x2="439.004" y2="394.603"/>
		
			<line fill="none" stroke="#005695" stroke-width="6" stroke-linecap="round" stroke-miterlimit="1" x1="193.474" y1="144.498" x2="194.914" y2="144.498"/>
		
			<line fill="none" stroke="#005695" stroke-width="6" stroke-linecap="round" stroke-miterlimit="1" x1="262.791" y1="209.409" x2="264.23" y2="209.409"/>
		
			<line fill="none" stroke="#005695" stroke-width="6" stroke-linecap="round" stroke-miterlimit="1" x1="343.99" y1="296.392" x2="345.43" y2="296.392"/>
		
			<line fill="none" stroke="#005695" stroke-width="6" stroke-linecap="round" stroke-miterlimit="1" x1="211.474" y1="176.402" x2="212.914" y2="176.402"/>
		
			<line fill="none" stroke="#005695" stroke-width="6" stroke-linecap="round" stroke-miterlimit="1" x1="263.512" y1="382.407" x2="439.004" y2="382.407"/>
		
			<rect x="238.914" y="103.478" fill="#FFFFFF" stroke="#000000" stroke-width="0.75" stroke-linecap="round" stroke-linejoin="round" stroke-miterlimit="1" width="24.667" height="18"/>
		<g>
			<g>
				
					<line fill="none" stroke="#005695" stroke-width="2" stroke-miterlimit="1" x1="194.195" y1="26.208" x2="194.195" y2="93.024"/>
				<g>
					<polygon fill="#005695" points="190.708,90.646 194.195,103.655 197.681,90.646 					"/>
				</g>
			</g>
		</g>
		<g>
			<g>
				
					<line fill="none" stroke="#005695" stroke-width="2" stroke-miterlimit="1" x1="238.914" y1="26.208" x2="238.914" y2="93.024"/>
				<g>
					<polygon fill="#005695" points="235.427,90.646 238.914,103.655 242.4,90.646 					"/>
				</g>
			</g>
		</g>
		<g>
			<g>
				<line fill="none" stroke="#005695" stroke-width="2" stroke-miterlimit="1" x1="263.512" y1="44" x2="263.512" y2="93.024"/>
				<g>
					<polygon fill="#005695" points="260.025,90.646 263.512,103.655 266.998,90.646 					"/>
				</g>
			</g>
		</g>
		<g>
			<g>
				
					<line fill="none" stroke="#005695" stroke-width="2" stroke-miterlimit="1" x1="277.512" y1="62.646" x2="277.512" y2="93.024"/>
				<g>
					<polygon fill="#005695" points="274.025,90.646 277.512,103.655 280.998,90.646 					"/>
				</g>
			</g>
		</g>
		<rect x="355.201" y="53.593" fill="none" width="59.5" height="9.92"/>
		<text transform="matrix(0.9288 0 0 1 355.2012 60.0225)" font-size="9">Second Trigger</text>
		<g>
			<g>
				
					<line fill="none" stroke="#005695" stroke-width="2" stroke-miterlimit="1" x1="355.201" y1="62.646" x2="355.201" y2="93.024"/>
				<g>
					<polygon fill="#005695" points="351.715,90.646 355.201,103.655 358.688,90.646 					"/>
				</g>
			</g>
		</g>
		<g>
			<g>
				
					<line fill="none" stroke="#005695" stroke-width="3" stroke-linecap="round" stroke-miterlimit="1" x1="436.998" y1="339.095" x2="423.768" y2="339.095"/>
				<path fill="#005695" d="M419.517,340.939c2.976,0.899,4.91,1.727,7.297,2.686v-9.08c-0.854,0.405-4.321,1.786-7.297,2.685
					c-3.186,0.963-6.073,1.621-7.946,1.855C413.443,339.319,416.331,339.978,419.517,340.939z"/>
			</g>
		</g>
		<g>
			<g>
				
					<line fill="none" stroke="#005695" stroke-width="3" stroke-linecap="round" stroke-miterlimit="1" x1="337.867" y1="339.095" x2="351.1" y2="339.095"/>
				<path fill="#005695" d="M355.351,337.25c-2.976-0.899-4.91-1.728-7.297-2.686v9.08c0.854-0.406,4.321-1.786,7.297-2.685
					c3.186-0.963,6.073-1.621,7.946-1.855C361.424,338.87,358.536,338.211,355.351,337.25z"/>
			</g>
		</g>
		<g>
			<g>
				<line fill="none" stroke="#005695" stroke-width="2" stroke-miterlimit="1" x1="438.672" y1="46.44" x2="438.672" y2="93.024"/>
				<g>
					<polygon fill="#005695" points="435.186,90.646 438.672,103.655 442.158,90.646 					"/>
				</g>
			</g>
		</g>
		
			<rect x="187.833" y="423.153" fill="#FFFFFF" stroke="#000000" stroke-width="0.75" stroke-linecap="round" stroke-linejoin="round" stroke-miterlimit="1" width="204.659" height="47.074"/>
		<text transform="matrix(0.9288 0 0 1 192.5132 434.7236)" font-size="9">Legend:</text>
		<text transform="matrix(0.9288 0 0 1 259.7012 436.0674)"><tspan x="0" y="0" font-size="9">Pause (no accumulation of counts)</tspan><tspan x="0" y="14.8" font-size="9">Capable of Acquiring</tspan><tspan x="0" y="29.6" font-size="9">Acquiring counts</tspan></text>
		
			<rect x="237.232" y="428.46" fill="#FFFFFF" stroke="#000000" stroke-width="0.75" stroke-linecap="round" stroke-linejoin="round" stroke-miterlimit="1" width="17.999" height="9"/>
		
			<rect x="237.232" y="442.841" fill="#86B2D8" stroke="#000000" stroke-width="0.75" stroke-miterlimit="1" width="17.999" height="9"/>
		
			<rect x="237.232" y="457.222" fill="#4F8ABE" stroke="#010101" stroke-width="0.75" stroke-linecap="round" stroke-linejoin="round" stroke-miterlimit="1" width="17.999" height="9"/>
		
			<rect x="285.701" y="103.478" fill="#4F8ABE" stroke="#010101" stroke-width="0.75" stroke-linecap="round" stroke-linejoin="round" stroke-miterlimit="1" width="47.49" height="18"/>
		
			<line fill="#4F8ABE" stroke="#010101" stroke-width="0.75" stroke-linecap="round" stroke-linejoin="round" stroke-miterlimit="1" x1="321.318" y1="103.478" x2="321.318" y2="121.478"/>
		
			<line fill="#4F8ABE" stroke="#010101" stroke-width="0.75" stroke-linecap="round" stroke-linejoin="round" stroke-miterlimit="1" x1="309.447" y1="103.478" x2="309.447" y2="121.478"/>
		
			<line fill="#4F8ABE" stroke="#010101" stroke-width="0.75" stroke-linecap="round" stroke-linejoin="round" stroke-miterlimit="1" x1="297.574" y1="103.478" x2="297.574" y2="121.478"/>
		
			<rect x="364.701" y="103.478" fill="#4F8ABE" stroke="#010101" stroke-width="0.75" stroke-linecap="round" stroke-linejoin="round" stroke-miterlimit="1" width="47.49" height="18"/>
		
			<line fill="#4F8ABE" stroke="#010101" stroke-width="0.75" stroke-linecap="round" stroke-linejoin="round" stroke-miterlimit="1" x1="400.318" y1="103.478" x2="400.318" y2="121.478"/>
		
			<line fill="#4F8ABE" stroke="#010101" stroke-width="0.75" stroke-linecap="round" stroke-linejoin="round" stroke-miterlimit="1" x1="388.447" y1="103.478" x2="388.447" y2="121.478"/>
		
			<line fill="#4F8ABE" stroke="#010101" stroke-width="0.75" stroke-linecap="round" stroke-linejoin="round" stroke-miterlimit="1" x1="376.574" y1="103.478" x2="376.574" y2="121.478"/>
		
			<line fill="none" stroke="#000000" stroke-width="2" stroke-linecap="round" stroke-miterlimit="1" x1="188.195" y1="112.473" x2="452.791" y2="112.473"/>
		<path d="M455.625,111.243c-1.982-0.599-3.273-1.151-4.865-1.79v6.054c0.57-0.271,2.883-1.191,4.865-1.79
			c2.125-0.642,4.049-1.08,5.299-1.237C459.674,112.323,457.75,111.884,455.625,111.243z"/>
	</g>
</g>
</svg>
