<?xml version="1.0" encoding="utf-8"?>
<!-- $Source: /home/bbennett/pass/archive/DicomXml/docbook/part03/figures/PS3.3_C.8.21.3-5.svg,v $ -->
<!-- $Date: 2014/05/09 12:27:10 $ -->
<!-- $Revision: 1.2 $ -->

<!DOCTYPE svg PUBLIC "-//W3C//DTD SVG 1.1//EN" "http://www.w3.org/Graphics/SVG/1.1/DTD/svg11.dtd">
<svg version="1.1" id="Layer_1" xmlns="http://www.w3.org/2000/svg" xmlns:xlink="http://www.w3.org/1999/xlink" x="0px" y="0px"
	 width="502px" height="377px" viewBox="0 0 502 377" enable-background="new 0 0 502 377" xml:space="preserve">

<defs>
	<style type="text/css">
	text {
	  font-family: Helvetica, Verdana, ArialUnicodeMS, san-serif
	}
	</style>
</defs>

<g>
   <desc>
	PS 3.3 Part 3: Information Object Definitions
   </desc>
</g>

<g>
	<rect x="1" y="1" fill="#F5EED6" width="500" height="375"/>
	<g>
		<rect x="309.738" y="192.236" fill="#6799C8" width="130.605" height="143.977"/>
		<text transform="matrix(0.9288 0 0 1 368.1299 247.1465)"><tspan x="0" y="0" font-size="8">Frames of</tspan><tspan x="0" y="9.6" font-size="8">Reconstruction 2</tspan></text>
		<rect x="309.738" y="48.26" fill="#B2CEE7" stroke="#B2CEE7" stroke-miterlimit="1" width="130.605" height="143.977"/>
		
			<rect x="61.657" y="34.453" fill="#CCDEF0" stroke="#010101" stroke-width="0.75" stroke-linecap="round" stroke-linejoin="round" stroke-miterlimit="1" width="242.89" height="301.607"/>
		
			<line fill="#4F8ABE" stroke="#005695" stroke-linecap="round" stroke-linejoin="round" stroke-miterlimit="1" stroke-dasharray="3" x1="304.547" y1="359.689" x2="304.547" y2="21.279"/>
		
			<line fill="#4F8ABE" stroke="#005695" stroke-linecap="round" stroke-linejoin="round" stroke-miterlimit="1" stroke-dasharray="3" x1="61.657" y1="355.721" x2="61.657" y2="17.311"/>
		<rect x="124.445" y="343.553" fill="none" width="117.314" height="8.51"/>
		<text transform="matrix(0.9288 0 0 1 157.0835 349.2861)" font-size="8">Other Attributes</text>
		<rect x="124.445" y="20.887" fill="none" width="117.313" height="8.51"/>
		<text transform="matrix(0.9288 0 0 1 157.084 26.6279)" font-size="8">Other Attributes</text>
		<rect x="62.941" y="37.282" fill="none" width="205.157" height="8.511"/>
		<text transform="matrix(0.9288 0 0 1 62.9414 42.9917)" font-size="8">Per-Frame Functional Groups Sequence (5200,9230)</text>
		
			<rect x="79.223" y="48.26" fill="#86B2D8" stroke="#010101" stroke-width="0.75" stroke-linecap="round" stroke-linejoin="round" stroke-miterlimit="1" width="225.324" height="61.073"/>
		
			<rect x="96" y="63.421" fill="#B2CEE7" stroke="#010101" stroke-width="0.75" stroke-linecap="round" stroke-linejoin="round" stroke-miterlimit="1" width="208.547" height="45.912"/>
		<rect x="83.562" y="51.871" fill="none" width="198.934" height="8.512"/>
		<text transform="matrix(0.9288 0 0 1 83.562 57.5815)" font-size="8">Item 1</text>
		<rect x="100.567" y="67.198" fill="none" width="176.347" height="8.511"/>
		<text transform="matrix(0.9288 0 0 1 100.5679 72.9082)" font-size="8">X-Ray 3D Frame Type Sequence (0018,9504)</text>
		
			<rect x="112.667" y="78.541" fill="#86B2D8" stroke="#010101" stroke-width="0.75" stroke-linecap="round" stroke-linejoin="round" stroke-miterlimit="1" width="191.88" height="30.792"/>
		<rect x="117.378" y="82.705" fill="none" width="123.967" height="8.51"/>
		<text transform="matrix(0.9288 0 0 1 117.3794 88.4233)" font-size="8">Item 1</text>
		
			<rect x="130" y="93.942" fill="#FFFFFF" stroke="#010101" stroke-width="0.75" stroke-linecap="round" stroke-linejoin="round" stroke-miterlimit="1" width="174.547" height="15.391"/>
		<rect x="138.139" y="98.721" fill="none" width="165.972" height="8.51"/>
		<text transform="matrix(0.9288 0 0 1 138.1392 104.4365)" font-size="8">Reconstruction Index (0020,9536)</text>
		
			<rect x="79.223" y="131.016" fill="#86B2D8" stroke="#010101" stroke-width="0.75" stroke-linecap="round" stroke-linejoin="round" stroke-miterlimit="1" width="225.324" height="61.072"/>
		
			<rect x="96" y="146.176" fill="#B2CEE7" stroke="#010101" stroke-width="0.75" stroke-linecap="round" stroke-linejoin="round" stroke-miterlimit="1" width="208.547" height="45.912"/>
		<rect x="83.562" y="134.627" fill="none" width="198.934" height="8.51"/>
		<text transform="matrix(0.9288 0 0 1 83.562 140.3369)" font-size="8">Item N</text>
		<rect x="100.567" y="149.954" fill="none" width="176.347" height="8.51"/>
		<text transform="matrix(0.9288 0 0 1 100.5679 155.6636)" font-size="8">X-Ray 3D Frame Type Sequence (0018,9504)</text>
		
			<rect x="112.667" y="161.297" fill="#86B2D8" stroke="#010101" stroke-width="0.75" stroke-linecap="round" stroke-linejoin="round" stroke-miterlimit="1" width="191.88" height="30.791"/>
		<rect x="117.378" y="165.459" fill="none" width="123.967" height="8.51"/>
		<text transform="matrix(0.9288 0 0 1 117.3794 171.1787)" font-size="8">Item 1</text>
		
			<rect x="130" y="176.698" fill="#FFFFFF" stroke="#010101" stroke-width="0.75" stroke-linecap="round" stroke-linejoin="round" stroke-miterlimit="1" width="174.547" height="15.39"/>
		<rect x="138.139" y="181.475" fill="none" width="165.972" height="8.509"/>
		<text transform="matrix(0.9288 0 0 1 138.1392 187.1895)" font-size="8">Reconstruction Index (0020,9536)</text>
		
			<rect x="79.223" y="274.988" fill="#86B2D8" stroke="#010101" stroke-width="0.75" stroke-linecap="round" stroke-linejoin="round" stroke-miterlimit="1" width="225.324" height="61.072"/>
		
			<rect x="96" y="290.148" fill="#B2CEE7" stroke="#010101" stroke-width="0.75" stroke-linecap="round" stroke-linejoin="round" stroke-miterlimit="1" width="208.547" height="45.912"/>
		<rect x="83.562" y="278.6" fill="none" width="198.934" height="8.51"/>
		<text transform="matrix(0.9288 0 0 1 83.562 284.3125)" font-size="8">Item N+k</text>
		<rect x="83.562" y="116.627" fill="none" width="198.934" height="8.511"/>
		<text transform="matrix(0.9288 0 0 1 83.562 122.3369)" font-size="8">....</text>
		<rect x="83.562" y="260.6" fill="none" width="198.934" height="8.51"/>
		<text transform="matrix(0.9288 0 0 1 83.562 266.3125)" font-size="8">....</text>
		<rect x="100.567" y="293.926" fill="none" width="176.347" height="8.51"/>
		<text transform="matrix(0.9288 0 0 1 100.5679 299.6396)" font-size="8">X-Ray 3D Frame Type Sequence (0018,9504)</text>
		
			<rect x="112.667" y="305.27" fill="#86B2D8" stroke="#010101" stroke-width="0.75" stroke-linecap="round" stroke-linejoin="round" stroke-miterlimit="1" width="191.88" height="30.791"/>
		<rect x="117.378" y="309.432" fill="none" width="123.967" height="8.51"/>
		<text transform="matrix(0.9288 0 0 1 117.3794 315.1543)" font-size="8">Item 1</text>
		
			<rect x="130" y="320.67" fill="#FFFFFF" stroke="#010101" stroke-width="0.75" stroke-linecap="round" stroke-linejoin="round" stroke-miterlimit="1" width="174.547" height="15.391"/>
		<rect x="138.139" y="325.447" fill="none" width="165.972" height="8.51"/>
		<text transform="matrix(0.9288 0 0 1 138.1392 331.166)" font-size="8">Reconstruction Index (0020,9536)</text>
		
			<rect x="79.223" y="192.236" fill="#86B2D8" stroke="#010101" stroke-width="0.75" stroke-linecap="round" stroke-linejoin="round" stroke-miterlimit="1" width="225.324" height="61.072"/>
		
			<rect x="96" y="207.396" fill="#B2CEE7" stroke="#010101" stroke-width="0.75" stroke-linecap="round" stroke-linejoin="round" stroke-miterlimit="1" width="208.547" height="45.912"/>
		<rect x="83.562" y="195.848" fill="none" width="198.934" height="8.51"/>
		<text transform="matrix(0.9288 0 0 1 83.562 201.5566)" font-size="8">Item N+1</text>
		<rect x="100.567" y="211.174" fill="none" width="176.347" height="8.51"/>
		<text transform="matrix(0.9288 0 0 1 100.5679 216.8838)" font-size="8">X-Ray 3D Frame Type Sequence (0018,9504)</text>
		
			<rect x="112.667" y="222.518" fill="#86B2D8" stroke="#010101" stroke-width="0.75" stroke-linecap="round" stroke-linejoin="round" stroke-miterlimit="1" width="191.88" height="30.791"/>
		<rect x="117.378" y="226.68" fill="none" width="123.967" height="8.51"/>
		<text transform="matrix(0.9288 0 0 1 117.3794 232.3984)" font-size="8">Item 1</text>
		
			<rect x="130" y="237.918" fill="#FFFFFF" stroke="#010101" stroke-width="0.75" stroke-linecap="round" stroke-linejoin="round" stroke-miterlimit="1" width="174.547" height="15.391"/>
		<rect x="138.139" y="242.695" fill="none" width="165.972" height="8.51"/>
		<text transform="matrix(0.9288 0 0 1 138.1392 248.4102)" font-size="8">Reconstruction Index (0020,9536)</text>
		<g>
			<rect x="311.799" y="97.85" fill="none" width="36" height="10.25"/>
			<text transform="matrix(0.9288 0 0 1 311.7979 103.5645)" font-size="8">= 1</text>
		</g>
		<g>
			<rect x="311.799" y="51.872" fill="none" width="70.333" height="8.51"/>
			<text transform="matrix(0.9288 0 0 1 311.7979 57.5864)" font-size="8">Frame 1</text>
		</g>
		<g>
			<rect x="311.799" y="180.604" fill="none" width="36" height="10.25"/>
			<text transform="matrix(0.9288 0 0 1 311.7979 186.3193)" font-size="8">= 1</text>
		</g>
		<g>
			<rect x="311.799" y="134.627" fill="none" width="70.333" height="8.51"/>
			<text transform="matrix(0.9288 0 0 1 311.7979 140.3413)" font-size="8">Frame N</text>
		</g>
		<g>
			<rect x="311.799" y="241.824" fill="none" width="36" height="10.248"/>
			<text transform="matrix(0.9288 0 0 1 311.7979 247.5391)" font-size="8">= 2</text>
		</g>
		<g>
			<rect x="311.799" y="195.846" fill="none" width="70.333" height="8.51"/>
			<text transform="matrix(0.9288 0 0 1 311.7979 201.5605)" font-size="8">Frame N+1</text>
		</g>
		<g>
			<rect x="311.799" y="324.58" fill="none" width="36" height="10.25"/>
			<text transform="matrix(0.9288 0 0 1 311.7979 330.2959)" font-size="8">= 2</text>
		</g>
		<g>
			<rect x="311.799" y="278.604" fill="none" width="70.333" height="8.51"/>
			<text transform="matrix(0.9288 0 0 1 311.7979 284.3184)" font-size="8">Frame N+k</text>
		</g>
		<text transform="matrix(0.9288 0 0 1 368.1299 103.1704)"><tspan x="0" y="0" font-size="8">Frames of</tspan><tspan x="0" y="9.6" font-size="8">Reconstruction 1</tspan></text>
		<polyline fill="none" stroke="#000000" stroke-miterlimit="1" points="351.464,48.26 363.464,48.26 363.464,192.236 
			351.464,192.236 		"/>
		<polyline fill="none" stroke="#000000" stroke-miterlimit="1" points="351.464,192.236 363.464,192.236 363.464,336.213 
			351.464,336.213 		"/>
	</g>
</g>
</svg>
