<?xml version="1.0" encoding="utf-8"?>
<!-- $Source: /home/bbennett/pass/archive/DicomXml/docbook/part03/figures/PS3.3_C.13.3.1.2.svg,v $ -->
<!-- $Date: 2014/02/18 14:35:31 $ -->
<!-- $Revision: 1.1 $ -->

<!DOCTYPE svg PUBLIC "-//W3C//DTD SVG 1.1//EN" "http://www.w3.org/Graphics/SVG/1.1/DTD/svg11.dtd">

<svg version="1.1" id="Layer_1" xmlns="http://www.w3.org/2000/svg" xmlns:xlink="http://www.w3.org/1999/xlink" x="0px" y="0px"
	 width="496.043px" height="342.683px" viewBox="0 0 496.043 342.683" enable-background="new 0 0 496.043 342.683"
	 xml:space="preserve">

<defs>
	<style type="text/css">
	text {
	  font-family: Helvetica, Verdana, ArialUnicodeMS, san-serif
	}
	</style>
</defs>

<g>
   <desc>
	PS 3.3-2008 Part 3: Information Object Definitions
   </desc>
   <title>
	Figure C.13.3.1.2 Row symmetric image display format  
   </title>
</g>

<rect fill="#F4EED7" width="496.043" height="342.683"/>
<g>
	<g>
		<rect x="81.322" y="73.771" fill="#CCDFF0" stroke="#000000" stroke-miterlimit="1" width="180.002" height="216.741"/>
		<line fill="#CCDFF0" stroke="#000000" stroke-miterlimit="1" x1="81.322" y1="182.141" x2="261.324" y2="182.141"/>
		<line fill="#CCDFF0" stroke="#000000" stroke-miterlimit="1" x1="201.335" y1="182.141" x2="201.335" y2="290.512"/>
		<line fill="#CCDFF0" stroke="#000000" stroke-miterlimit="1" x1="141.308" y1="182.141" x2="141.308" y2="290.512"/>
		<line fill="#CCDFF0" stroke="#000000" stroke-miterlimit="1" x1="171.188" y1="73.771" x2="171.188" y2="182.141"/>
	</g>
	
		<line fill="none" stroke="#000000" stroke-miterlimit="1" stroke-dasharray="6,2,4,4" x1="171.323" y1="33.141" x2="171.323" y2="331.141"/>
	<g>
		<rect x="130.834" y="17.437" fill="#B2CEE7" width="80.977" height="27"/>
		<g>
			<text transform="matrix(1 0 0 1 155.4873 27.7319)"><tspan x="0" y="0" font-size="10">vertical</tspan><tspan x="-15" y="12" font-size="10">symmetry line</tspan></text>
		</g>
	</g>
	<g>
		<rect x="271.5" y="121.206" fill="#B2CEE7" width="142.443" height="13.5"/>
		<g>
			<text transform="matrix(1 0 0 1 274.0776 130.7402)" font-size="10">2 images of equal size in a row</text>
		</g>
	</g>
	<g>
		<rect x="270.72" y="229.577" fill="#B2CEE7" width="144" height="13.5"/>
		<g>
			<text transform="matrix(1 0 0 1 274.0776 239.1118)" font-size="10">3 images of equal size in a row</text>
		</g>
	</g>
</g>
</svg>
