<?xml version="1.0" encoding="utf-8"?>
<!-- $Source: /home/bbennett/pass/archive/DicomXml/docbook/part03/figures/PS3.3_C.8.21.3-2.svg,v $ -->
<!-- $Date: 2014/05/09 12:27:11 $ -->
<!-- $Revision: 1.2 $ -->

<!DOCTYPE svg PUBLIC "-//W3C//DTD SVG 1.1//EN" "http://www.w3.org/Graphics/SVG/1.1/DTD/svg11.dtd">
<svg version="1.1" id="Layer_1" xmlns="http://www.w3.org/2000/svg" xmlns:xlink="http://www.w3.org/1999/xlink" x="0px" y="0px"
	 width="502px" height="297px" viewBox="0 0 502 297" enable-background="new 0 0 502 297" xml:space="preserve">

<defs>
	<style type="text/css">
	text {
	  font-family: Helvetica, Verdana, ArialUnicodeMS, san-serif
	}
	</style>
</defs>

<g>
   <desc>
	PS 3.3 Part 3: Information Object Definitions
   </desc>
</g>

<g>
	<rect x="1" y="1" fill="#F5EED6" width="500" height="295"/>
	<g>
		
			<rect x="82.931" y="30.976" fill="#CCDEF0" stroke="#010101" stroke-width="0.75" stroke-linecap="round" stroke-linejoin="round" stroke-miterlimit="1" width="336.14" height="231.079"/>
		
			<rect x="100.496" y="44.783" fill="#86B2D8" stroke="#010101" stroke-width="0.75" stroke-linecap="round" stroke-linejoin="round" stroke-miterlimit="1" width="318.574" height="217.271"/>
		
			<line fill="#4F8ABE" stroke="#005695" stroke-linecap="round" stroke-linejoin="round" stroke-miterlimit="1" stroke-dasharray="3" x1="419.07" y1="280.162" x2="419.07" y2="15.611"/>
		
			<line fill="#4F8ABE" stroke="#005695" stroke-linecap="round" stroke-linejoin="round" stroke-miterlimit="1" stroke-dasharray="3" x1="82.931" y1="280.162" x2="82.931" y2="15.611"/>
		
			<rect x="117.273" y="243.379" fill="#CCDEF0" stroke="#010101" stroke-width="0.75" stroke-linecap="round" stroke-linejoin="round" stroke-miterlimit="1" width="301.797" height="18.676"/>
		<rect x="120.401" y="249.945" fill="none" width="65.313" height="8.51"/>
		<text transform="matrix(0.9288 0 0 1 120.4009 256.3877)" font-size="9">Other Attributes</text>
		<rect x="192.344" y="272.879" fill="none" width="117.313" height="8.51"/>
		<text transform="matrix(0.9288 0 0 1 221.73 279.334)" font-size="9">Other Attributes</text>
		<rect x="214.844" y="18.343" fill="none" width="72.313" height="8.51"/>
		<text transform="matrix(0.9288 0 0 1 221.7305 24.7842)" font-size="9">Other Attributes</text>
		<rect x="86.735" y="33.803" fill="none" width="205.155" height="8.51"/>
		<text transform="matrix(0.9288 0 0 1 86.7349 40.2344)" font-size="9">Contributing Sources Sequence (0018,9506) </text>
		
			<rect x="117.273" y="59.943" fill="#CCDEF0" stroke="#010101" stroke-width="0.75" stroke-linecap="round" stroke-linejoin="round" stroke-miterlimit="1" width="301.797" height="183.436"/>
		<rect x="107.356" y="48.395" fill="none" width="198.932" height="8.51"/>
		<text transform="matrix(0.9288 0 0 1 107.3555 54.8242)" font-size="9">Item 1</text>
		<rect x="120.401" y="63.721" fill="none" width="282.845" height="8.51"/>
		<text transform="matrix(0.9288 0 0 1 120.4009 70.1509)" font-size="9">Contributing SOP Instances Reference Sequence (0020,9529)</text>
		
			<rect x="133.94" y="75.064" fill="#86B2D8" stroke="#010101" stroke-width="0.75" stroke-linecap="round" stroke-linejoin="round" stroke-miterlimit="1" width="285.13" height="168.314"/>
		<rect x="140.812" y="79.227" fill="none" width="123.965" height="8.51"/>
		<text transform="matrix(0.9288 0 0 1 140.8125 85.6616)" font-size="9">Item 1</text>
		
			<rect x="151.273" y="90.465" fill="#CCDEF0" stroke="#010101" stroke-width="0.75" stroke-linecap="round" stroke-linejoin="round" stroke-miterlimit="1" width="267.797" height="152.914"/>
		
			<line fill="#CCDEF0" stroke="#010101" stroke-width="0.75" stroke-linecap="round" stroke-linejoin="round" stroke-miterlimit="1" x1="151.273" y1="105.855" x2="419.07" y2="105.855"/>
		<rect x="159.413" y="95.242" fill="none" width="148.631" height="8.51"/>
		<text transform="matrix(0.9288 0 0 1 159.4126 101.6724)" font-size="9">Study Instance UID (0020,000D)</text>
		<rect x="159.413" y="109.242" fill="none" width="162.798" height="8.51"/>
		<text transform="matrix(0.9288 0 0 1 159.4126 115.6724)" font-size="9">Referenced Series Sequence (0008,1115)</text>
		
			<rect x="170.293" y="120.538" fill="#86B2D8" stroke="#010101" stroke-width="0.75" stroke-linecap="round" stroke-linejoin="round" stroke-miterlimit="1" width="248.777" height="122.841"/>
		<rect x="176.812" y="126.727" fill="none" width="123.965" height="8.511"/>
		<text transform="matrix(0.9288 0 0 1 176.8125 133.1616)" font-size="9">Item 1</text>
		
			<rect x="187.273" y="136.885" fill="#CCDEF0" stroke="#010101" stroke-width="0.75" stroke-linecap="round" stroke-linejoin="round" stroke-miterlimit="1" width="231.797" height="106.494"/>
		
			<line fill="#CCDEF0" stroke="#010101" stroke-width="0.75" stroke-linecap="round" stroke-linejoin="round" stroke-miterlimit="1" x1="187.273" y1="152.274" x2="419.07" y2="152.274"/>
		
			<line fill="#CCDEF0" stroke="#010101" stroke-width="0.75" stroke-linecap="round" stroke-linejoin="round" stroke-miterlimit="1" x1="187.273" y1="167.957" x2="419.07" y2="167.957"/>
		<rect x="195.413" y="141.662" fill="none" width="148.631" height="8.51"/>
		<text transform="matrix(0.9288 0 0 1 195.4126 148.0923)" font-size="9">Series Instance UID (0020,000E)</text>
		<rect x="195.413" y="155.662" fill="none" width="162.798" height="8.51"/>
		<text transform="matrix(0.9288 0 0 1 195.4126 162.0918)" font-size="9">Series Number (0020,0011)</text>
		<rect x="195.413" y="169.801" fill="none" width="194.798" height="8.51"/>
		<text transform="matrix(0.9288 0 0 1 195.4126 176.2324)" font-size="9">Referenced Instance Sequence (0008,114A)</text>
		
			<rect x="203.973" y="182.037" fill="#86B2D8" stroke="#010101" stroke-width="0.75" stroke-linecap="round" stroke-linejoin="round" stroke-miterlimit="1" width="215.098" height="61.342"/>
		<rect x="211.913" y="185.648" fill="none" width="198.933" height="8.512"/>
		<text transform="matrix(0.9288 0 0 1 211.9126 192.0801)" font-size="9">Item 1</text>
		
			<rect x="221.537" y="197.369" fill="#FFFFFF" stroke="#010101" stroke-width="0.75" stroke-linecap="round" stroke-linejoin="round" stroke-miterlimit="1" width="197.533" height="46.01"/>
		
			<line fill="#FFFFFF" stroke="#010101" stroke-width="0.75" stroke-linecap="round" stroke-linejoin="round" stroke-miterlimit="1" x1="221.537" y1="228.043" x2="419.07" y2="228.043"/>
		
			<line fill="#FFFFFF" stroke="#010101" stroke-width="0.75" stroke-linecap="round" stroke-linejoin="round" stroke-miterlimit="1" x1="221.537" y1="212.705" x2="419.07" y2="212.705"/>
		<rect x="231.078" y="201.146" fill="none" width="176.344" height="8.512"/>
		<text transform="matrix(0.9288 0 0 1 231.0781 207.5781)" font-size="9">Referenced SOP Class UID (0008,1150)</text>
		<rect x="231.078" y="216.654" fill="none" width="176.775" height="8.51"/>
		<text transform="matrix(0.9288 0 0 1 231.0781 223.084)" font-size="9">Referenced SOP Instance UID (0008,1155)</text>
		<rect x="231.078" y="231.045" fill="none" width="176.775" height="8.51"/>
		<text transform="matrix(0.9288 0 0 1 231.0781 237.4766)" font-size="9">Instance Number (0020,0013)</text>
	</g>
</g>
</svg>
