<?xml version="1.0" encoding="utf-8"?>
<!-- $Source: /home/bbennett/pass/archive/DicomXml/docbook/part03/figures/PS3.3_A.40-1.svg,v $ -->
<!-- $Date: 2014/05/09 12:27:10 $ -->
<!-- $Revision: 1.2 $ -->

<!DOCTYPE svg PUBLIC "-//W3C//DTD SVG 1.1//EN" "http://www.w3.org/Graphics/SVG/1.1/DTD/svg11.dtd">
<svg version="1.1" id="Layer_1" xmlns="http://www.w3.org/2000/svg" xmlns:xlink="http://www.w3.org/1999/xlink" x="0px" y="0px"
	 width="502px" height="312px" viewBox="0 0 502 312" enable-background="new 0 0 502 312" xml:space="preserve">

<defs>
	<style type="text/css">
	text {
	  font-family: Helvetica, Verdana, ArialUnicodeMS, san-serif
	}
	</style>
</defs>

<g>
   <desc>
	PS 3.3 Part 3: Information Object Definitions
   </desc>
</g>

<g>
	<rect x="1" y="1" fill="#F5EED6" width="500" height="310"/>
	<g>
		<g>
			<g>
				
					<line fill="none" stroke="#005695" stroke-width="2" stroke-miterlimit="1" x1="204.562" y1="118.507" x2="204.562" y2="141.351"/>
				<g>
					<polygon fill="#005695" points="202.238,139.766 204.562,148.438 206.887,139.766 					"/>
				</g>
			</g>
		</g>
		<g>
			<g>
				<polyline fill="none" stroke="#005695" stroke-width="2" stroke-miterlimit="1" points="245.446,202.066 245.446,178.6 
					204.69,178.587 204.638,166.253 				"/>
				<g>
					<polygon fill="#005695" points="247.771,200.481 245.446,209.154 243.122,200.481 					"/>
				</g>
			</g>
		</g>
		<g>
			<g>
				
					<line fill="none" stroke="#005695" stroke-width="2" stroke-miterlimit="1" x1="306.564" y1="118.9" x2="306.564" y2="141.347"/>
				<g>
					<polygon fill="#005695" points="304.24,139.762 306.564,148.435 308.889,139.762 					"/>
				</g>
			</g>
		</g>
		<g>
			<g>
				<polyline fill="none" stroke="#005695" stroke-width="2" stroke-miterlimit="1" points="260.884,202.066 260.884,178.31 
					306.629,178.31 306.629,166.253 				"/>
				<g>
					<polygon fill="#005695" points="263.208,200.481 260.884,209.154 258.56,200.481 					"/>
				</g>
			</g>
		</g>
		<g>
			<g>
				<line fill="none" stroke="#005695" stroke-width="2" stroke-miterlimit="1" x1="204.635" y1="78.7" x2="204.58" y2="93.275"/>
				<g>
					<polygon fill="#005695" points="202.261,91.681 204.553,100.362 206.91,91.699 					"/>
				</g>
			</g>
		</g>
		<g>
			<g>
				
					<line fill="none" stroke="#005695" stroke-width="2" stroke-miterlimit="1" x1="204.635" y1="29.862" x2="204.579" y2="44.749"/>
				<g>
					<polygon fill="#005695" points="202.261,43.155 204.553,51.836 206.909,43.172 					"/>
				</g>
			</g>
		</g>
		<g>
			<g>
				
					<line fill="none" stroke="#005695" stroke-width="2" stroke-miterlimit="1" x1="253.098" y1="227.329" x2="253.098" y2="236.403"/>
				<g>
					<polygon fill="#005695" points="250.773,234.818 253.098,243.491 255.422,234.818 					"/>
				</g>
			</g>
		</g>
		<g>
			<g>
				
					<line fill="none" stroke="#005695" stroke-width="2" stroke-miterlimit="1" x1="253.059" y1="261.479" x2="253.005" y2="274.974"/>
				<g>
					<polygon fill="#005695" points="250.687,273.38 252.977,282.062 255.335,273.398 					"/>
				</g>
			</g>
		</g>
		
			<polygon fill="#CCDEF0" stroke="#010101" stroke-width="0.75" stroke-linecap="round" stroke-linejoin="round" stroke-miterlimit="1" points="
			159.63,157.301 204.563,148.438 249.628,157.428 249.628,157.449 204.563,166.438 		"/>
		<g>
			<text transform="matrix(1 0 0 1 187.8672 159.9277)" font-size="9">contains</text>
		</g>
		
			<polygon fill="#CCDEF0" stroke="#010101" stroke-width="0.75" stroke-linecap="round" stroke-linejoin="round" stroke-miterlimit="1" points="
			261.558,157.297 306.492,148.435 351.556,157.424 351.556,157.445 306.492,166.435 		"/>
		<g>
			<text transform="matrix(1 0 0 1 291.7998 159.9277)" font-size="9">creates</text>
		</g>
		
			<rect x="264.673" y="100.362" fill="#86B2D8" stroke="#010101" stroke-width="0.75" stroke-linecap="round" stroke-linejoin="round" stroke-miterlimit="1" width="83.992" height="18"/>
		<g>
			<text transform="matrix(1 0 0 1 277.9844 112.6885)" font-size="12">Equipment</text>
		</g>
		
			<rect x="162.554" y="11.801" fill="#86B2D8" stroke="#010101" stroke-width="0.75" stroke-linecap="round" stroke-linejoin="round" stroke-miterlimit="1" width="84.004" height="18"/>
		<g>
			<text transform="matrix(1 0 0 1 185.8721 24.1211)" font-size="12">Patient</text>
		</g>
		
			<rect x="162.558" y="100.5" fill="#86B2D8" stroke="#010101" stroke-width="0.75" stroke-linecap="round" stroke-linejoin="round" stroke-miterlimit="1" width="83.996" height="18"/>
		<g>
			<text transform="matrix(1 0 0 1 189.21 112.8242)" font-size="12">Study</text>
		</g>
		<g>
			<text transform="matrix(1 0 0 1 234.3232 149.0049)" font-size="9">1</text>
		</g>
		<g>
			<text transform="matrix(1 0 0 1 226.3213 171.0107)" font-size="9">1-n</text>
		</g>
		<g>
			<text transform="matrix(1 0 0 1 335.6553 149.0049)" font-size="9">1</text>
		</g>
		<g>
			<text transform="matrix(1 0 0 1 327.6523 171.0107)" font-size="9">1-n</text>
		</g>
		
			<polygon fill="#CCDEF0" stroke="#010101" stroke-width="0.75" stroke-linecap="round" stroke-linejoin="round" stroke-miterlimit="1" points="
			150.444,65.129 204.365,51.836 258.445,65.32 258.445,65.352 204.365,78.836 		"/>
		<g>
			<text transform="matrix(1 0 0 1 173.0312 67.835)" font-size="9">is the subject of</text>
		</g>
		<g>
			<text transform="matrix(1 0 0 1 247.2944 55.0928)" font-size="9">1</text>
		</g>
		<g>
			<text transform="matrix(1 0 0 1 239.292 82.1387)" font-size="9">1-n</text>
		</g>
		
			<polygon fill="#CCDEF0" stroke="#010101" stroke-width="0.75" stroke-linecap="round" stroke-linejoin="round" stroke-miterlimit="1" points="
			208.02,252.354 252.953,243.491 298.019,252.48 298.019,252.502 252.953,261.49 		"/>
		<g>
			<text transform="matrix(1 0 0 1 236.2568 254.9814)" font-size="9">contains</text>
		</g>
		
			<rect x="211.146" y="209.373" fill="#86B2D8" stroke="#010101" stroke-width="0.75" stroke-linecap="round" stroke-linejoin="round" stroke-miterlimit="1" width="84.001" height="17.987"/>
		<g>
			<text transform="matrix(1 0 0 1 236.1382 221.709)" font-size="12">Series</text>
		</g>
		
			<rect x="206.939" y="282.199" fill="#86B2D8" stroke="#010101" stroke-width="0.75" stroke-linecap="round" stroke-linejoin="round" stroke-miterlimit="1" width="92.359" height="18.001"/>
		<g>
			<text transform="matrix(1 0 0 1 209.4282 294.5244)" font-size="12">Spatial Fiducials</text>
		</g>
		<g>
			<text transform="matrix(1 0 0 1 291.2637 244.0488)" font-size="9">1</text>
		</g>
		<g>
			<text transform="matrix(1 0 0 1 280.7324 268.2002)" font-size="9">0-n</text>
		</g>
	</g>
</g>
</svg>
