<?xml version="1.0" encoding="utf-8"?>
<!-- $Source: /home/bbennett/pass/archive/DicomXml/docbook/part03/figures/PS3.3_C.8.8.14-2.svg,v $ -->
<!-- $Date: 2014/05/09 12:27:10 $ -->
<!-- $Revision: 1.2 $ -->

<!DOCTYPE svg PUBLIC "-//W3C//DTD SVG 1.1//EN" "http://www.w3.org/Graphics/SVG/1.1/DTD/svg11.dtd">
<svg version="1.1" id="Layer_1" xmlns="http://www.w3.org/2000/svg" xmlns:xlink="http://www.w3.org/1999/xlink" x="0px" y="0px"
	 width="502px" height="332px" viewBox="0 0 502 332" enable-background="new 0 0 502 332" xml:space="preserve">

<defs>
	<style type="text/css">
	text {
	  font-family: Helvetica, Verdana, ArialUnicodeMS, san-serif
	}
	</style>
</defs>

<g>
   <desc>
	PS 3.3 Part 3: Information Object Definitions
   </desc>
</g>

<g>
	<rect x="1" y="1" fill="#F5EED6" width="500" height="330"/>
	<g>
		<path fill="#E6E7E8" stroke="#000000" stroke-linecap="round" stroke-linejoin="round" stroke-dasharray="2" d="M273.919,229.811
			c-0.51,5.797-2.595,28.113-5.271,38.088l-41.214-76.219"/>
		<g>
			<g>
				<path fill="none" stroke="#000000" stroke-linecap="round" stroke-linejoin="round" d="M275.047,269.486
					c4.753-9.685,7.562-26.305,5.731-32.923"/>
				<g>
					<polygon points="277.097,269.331 272.253,274.009 274.108,267.536 					"/>
				</g>
			</g>
		</g>
		
			<ellipse transform="matrix(0.9995 -0.0318 0.0318 0.9995 -6.3533 7.2689)" fill="#CCDEF0" stroke="#000000" stroke-linecap="round" stroke-linejoin="round" cx="225.538" cy="203.541" rx="98.752" ry="40.752"/>
		<g>
			
				<line fill="none" stroke="#000000" stroke-linecap="round" stroke-linejoin="round" x1="191.799" y1="164.558" x2="281.169" y2="234.602"/>
		</g>
		<g>
			
				<line fill="none" stroke="#000000" stroke-linecap="round" stroke-linejoin="round" x1="301.765" y1="174.586" x2="125.912" y2="212.901"/>
		</g>
		<text transform="matrix(1 0 0 1 275.7368 29.4546)"><tspan x="0" y="0" font-size="14">φ</tspan><tspan x="9.598" y="7" font-size="14">t</tspan></text>
		<g>
			<g>
				<polyline fill="none" stroke="#005695" stroke-width="2" points="272.991,24.452 261.798,24.452 248.886,70.112 				"/>
				<g>
					<polygon fill="#005695" points="246.178,66.875 245.993,80.342 252.887,68.772 					"/>
				</g>
			</g>
		</g>
		<text transform="matrix(1 0 0 1 336.7368 295.7886)"><tspan x="0" y="0" font-size="14">φ</tspan><tspan x="9.598" y="7" font-size="14">t</tspan></text>
		<g>
			<g>
				<polyline fill="none" stroke="#005695" stroke-width="2" points="333.991,290.786 324.18,290.786 290.873,261.017 				"/>
				<g>
					<polygon fill="#005695" points="294.968,260.002 282.946,253.933 290.322,265.202 					"/>
				</g>
			</g>
		</g>
		<text transform="matrix(1 0 0 1 355.686 167.2739)"><tspan x="0" y="0" fill="#0DB14B" font-size="12">Y’</tspan><tspan x="11.085" y="5" fill="#0DB14B" font-size="9">t</tspan></text>
		<g>
			<text transform="matrix(1 0 0 1 160.4487 230.4399)" font-size="12">Xt - Yt Plane</text>
		</g>
		<path fill="none" stroke="#000000" stroke-linecap="round" stroke-linejoin="round" d="M226.504,191.151l-0.078-84.978
			c8.775,1.355,17.244,8.235,24.613,19.141"/>
		<path fill="#D1D3D4" stroke="#000000" stroke-linecap="round" stroke-linejoin="round" d="M226.579,190.379l70.515-14.492
			c5.575-16.393-9.257-42.303-18.599-52.052c-9.457-9.869-35.069-22.975-51.917-17.875V190.379z"/>
		<path fill="#A7A9AC" stroke="#000000" stroke-linecap="round" stroke-linejoin="round" stroke-dasharray="2" d="M226.579,190.379
			l72.147-16.125c5.575-16.392,2.667-30.25-6.675-40c-9.457-9.868-24.018-14.013-40.866-8.913L226.579,190.379z"/>
		<g>
			<g>
				<line fill="none" stroke="#0DB14B" stroke-width="2" x1="224.895" y1="190.979" x2="337.808" y2="166.785"/>
				<g>
					<polygon fill="#0DB14B" points="336.213,170.692 348.204,164.558 334.753,163.874 					"/>
				</g>
			</g>
		</g>
		<text transform="matrix(1 0 0 1 221.856 43.7739)"><tspan x="0" y="0" fill="#00AEEF" font-size="12">Z</tspan><tspan x="9.415" y="5" fill="#00AEEF" font-size="9">t</tspan></text>
		<text transform="matrix(0.9929 0 0 1 324.5874 269.7358)"><tspan x="0" y="0" fill="#ED1C24" font-size="13.4996">X</tspan><tspan x="10.97" y="5.625" fill="#ED1C24" font-size="10.1247">t</tspan></text>
		<text transform="matrix(0.9992 0 0 1 285.938 306.8247)"><tspan x="0" y="0" fill="#ED1C24" font-size="12.2301">X’</tspan><tspan x="11.298" y="5.096" fill="#ED1C24" font-size="9.1726">t</tspan></text>
		<g>
			<g>
				<line fill="none" stroke="#ED1C24" stroke-width="2" x1="225.302" y1="191.264" x2="310.857" y2="258.757"/>
				<g>
					<polygon fill="#ED1C24" points="306.831,260.022 319.204,265.342 311.15,254.548 					"/>
				</g>
			</g>
		</g>
		<text transform="matrix(1 0 0 1 270.189 65.9404)"><tspan x="0" y="0" fill="#00AEEF" font-size="12">Z’</tspan><tspan x="10.748" y="5" fill="#00AEEF" font-size="9">t</tspan></text>
		<g>
			<g>
				<line fill="none" stroke="#00AEEF" stroke-width="2" x1="225.662" y1="191.331" x2="225.662" y2="62.973"/>
				<g>
					<polygon fill="#00AEEF" points="229.148,65.351 225.662,52.342 222.176,65.351 					"/>
				</g>
			</g>
		</g>
		<path fill="#E6E7E8" stroke="#000000" stroke-linecap="round" stroke-linejoin="round" d="M275.305,230.911l-48.997-39.396
			l-0.103-85.323c8.775,1.363,17.247,8.272,24.618,19.225l-0.008-0.103c12.282,18.175,21.505,47.532,23.991,81.136
			c0.602,8.133,0.777,16.078,0.561,23.73C275.368,230.18,275.346,230.436,275.305,230.911"/>
		<path fill="#E6E7E8" stroke="#000000" stroke-linecap="round" stroke-linejoin="round" stroke-dasharray="2" d="M225.908,191.114
			l24.808-62.325c11.667,17.266,20.429,45.157,22.792,77.079c0.571,7.727,0.737,15.275,0.532,22.545c0,0-0.041,0.502-0.12,1.398"/>
		<g>
			<g>
				<path fill="none" stroke="#000000" stroke-linecap="round" stroke-linejoin="round" d="M226.428,78.101
					c11.282,0,24.564,4.406,31.615,21.695"/>
				<g>
					<polygon points="255.944,99.3 259.8,104.821 259.221,98.112 					"/>
				</g>
			</g>
		</g>
		<g>
			<g>
				
					<line fill="none" stroke="#00AEEF" stroke-width="2" stroke-dasharray="2,2" x1="225.662" y1="191.301" x2="268.993" y2="84.526"/>
				<g>
					<polygon fill="#00AEEF" points="271.33,88.041 272.991,74.675 264.869,85.418 					"/>
				</g>
			</g>
		</g>
		<g>
			<g>
				
					<line fill="none" stroke="#ED1C24" stroke-width="2" stroke-dasharray="2,2" x1="225.662" y1="190.905" x2="276.079" y2="283.342"/>
				<g>
					<polygon fill="#ED1C24" points="271.879,282.924 281.169,292.675 278.001,279.585 					"/>
				</g>
			</g>
		</g>
		<g>
			<g>
				<path fill="none" stroke="#000000" stroke-linecap="round" stroke-linejoin="round" d="M350.365,154.942
					c3.129-8.157,8.91-13.457,14.731-12.668c7.57,1.025,12.34,11.959,10.652,24.422s-9.192,21.736-16.763,20.71
					c-3.798-0.515-6.89-3.521-8.816-7.963"/>
				<g>
					<polygon points="352.63,180.125 348.445,173.477 348.746,181.328 					"/>
				</g>
			</g>
		</g>
	</g>
</g>
</svg>
