<?xml version="1.0" encoding="utf-8"?>
<!-- $Source: /home/bbennett/pass/archive/DicomXml/docbook/part03/figures/PS3.3_C.27.1.1-3.svg,v $ -->
<!-- $Date: 2014/05/09 13:15:43 $ -->
<!-- $Revision: 1.1 $ -->

<!DOCTYPE svg PUBLIC "-//W3C//DTD SVG 1.1//EN" "http://www.w3.org/Graphics/SVG/1.1/DTD/svg11.dtd">
<svg version="1.1" id="Layer_1" xmlns="http://www.w3.org/2000/svg" xmlns:xlink="http://www.w3.org/1999/xlink" x="0px" y="0px"
	 width="502px" height="192px" viewBox="0 0 502 192" enable-background="new 0 0 502 192" xml:space="preserve">

<defs>
	<style type="text/css">
	text {
	  font-family: Helvetica, Verdana, ArialUnicodeMS, san-serif
	}
	</style>
</defs>

<g>
   <desc>
	PS 3.3 Part 3: Information Object Definitions
   </desc>
</g>

<g>
	<rect x="1" y="1" fill="#F5EED6" width="500" height="190"/>
	<g>
		<g>
			
				<line fill="none" stroke="#010101" stroke-linecap="round" stroke-linejoin="round" stroke-miterlimit="8" x1="219.598" y1="51.457" x2="282.598" y2="33.457"/>
			
				<line fill="none" stroke="#010101" stroke-linecap="round" stroke-linejoin="round" stroke-miterlimit="8" x1="282.598" y1="33.457" x2="273.598" y2="105.457"/>
			
				<line fill="none" stroke="#010101" stroke-linecap="round" stroke-linejoin="round" stroke-miterlimit="8" x1="219.598" y1="51.457" x2="273.598" y2="105.457"/>
			<circle fill="#CCDEF0" stroke="#010101" stroke-miterlimit="10" cx="273.598" cy="104.957" r="4.5"/>
			<circle fill="#CCDEF0" stroke="#010101" stroke-miterlimit="10" cx="282.598" cy="33.457" r="4.5"/>
			<circle fill="#CCDEF0" stroke="#010101" stroke-miterlimit="10" cx="219.598" cy="51.457" r="4.5"/>
			<text transform="matrix(1 0 0 1 207.4629 45.877)" font-size="12">i</text>
			<text transform="matrix(1 0 0 1 288.5371 25.1372)" font-size="12">k</text>
			<text transform="matrix(1 0 0 1 280.2568 120.877)" font-size="12">j</text>
		</g>
		<g>
			<text transform="matrix(1 0 0 1 223.543 172.8867)" font-size="14">n = ij x jk</text>
			<g>
				<g>
					<line fill="none" stroke="#000000" stroke-width="0.5" x1="248.123" y1="159.957" x2="252.104" y2="159.957"/>
					<g>
						<polygon points="250.908,160.975 251.926,159.957 250.908,158.939 251.772,158.939 252.789,159.957 251.772,160.975 						"/>
					</g>
				</g>
			</g>
			<g>
				<g>
					<line fill="none" stroke="#000000" stroke-width="0.5" x1="267.581" y1="159.957" x2="277.771" y2="159.957"/>
					<g>
						<polygon points="276.576,160.975 277.594,159.957 276.576,158.939 277.439,158.939 278.457,159.957 277.439,160.975 						"/>
					</g>
				</g>
			</g>
		</g>
	</g>
</g>
</svg>
