<?xml version="1.0" encoding="utf-8"?>
<!-- $Source: /home/bbennett/pass/archive/DicomXml/docbook/part03/figures/PS3.3_C.10.5-7.svg,v $ -->
<!-- $Date: 2014/05/09 13:15:43 $ -->
<!-- $Revision: 1.1 $ -->

<!DOCTYPE svg PUBLIC "-//W3C//DTD SVG 1.1//EN" "http://www.w3.org/Graphics/SVG/1.1/DTD/svg11.dtd">
<svg version="1.1" id="Layer_1" xmlns="http://www.w3.org/2000/svg" xmlns:xlink="http://www.w3.org/1999/xlink" x="0px" y="0px"
	 width="502px" height="117px" viewBox="0 0 502 117" enable-background="new 0 0 502 117" xml:space="preserve">

<defs>
	<style type="text/css">
	text {
	  font-family: Helvetica, Verdana, ArialUnicodeMS, san-serif
	}
	</style>
</defs>

<g>
   <desc>
	PS 3.3 Part 3: Information Object Definitions
   </desc>
</g>

<g>
	<rect x="1" y="1" fill="#F5EED6" width="500" height="115"/>
	<g>
		<g>
			<g>
				
					<line fill="none" stroke="#000000" stroke-width="0.5" stroke-miterlimit="10" x1="128.191" y1="98.271" x2="168.204" y2="98.271"/>
				<g>
					<polygon points="167.213,99.725 172.633,98.271 167.213,96.818 					"/>
				</g>
			</g>
		</g>
		<text transform="matrix(1 0 0 1 78.7358 101.3154)" font-size="10">First Point</text>
		<g>
			<g>
				<polyline fill="none" stroke="#000000" stroke-width="0.5" stroke-miterlimit="10" points="128.191,25.731 156.425,25.731 
					196.853,60.928 				"/>
				<g>
					<polygon points="195.151,61.372 200.193,63.836 197.059,59.181 					"/>
				</g>
			</g>
		</g>
		<text transform="matrix(1 0 0 1 78.1841 28.7754)" font-size="10">Major Tick</text>
		<g>
			<g>
				<polyline fill="none" stroke="#000000" stroke-width="0.5" stroke-miterlimit="10" points="128.191,46.861 156.425,46.861 
					184.489,76.562 				"/>
				<g>
					<polygon points="182.753,76.839 187.531,79.781 184.864,74.844 					"/>
				</g>
			</g>
		</g>
		<text transform="matrix(1 0 0 1 78.1841 49.9043)" font-size="10">Minor Tick</text>
		<g>
			<g>
				
					<line fill="none" stroke="#000000" stroke-width="0.5" stroke-miterlimit="10" x1="362.083" y1="43.625" x2="322.07" y2="43.625"/>
				<g>
					<polygon points="323.061,42.173 317.641,43.625 323.061,45.078 					"/>
				</g>
			</g>
		</g>
		<text transform="matrix(1 0 0 1 364.3291 46.6699)" font-size="10">Second Point</text>
		<line fill="none" stroke="#003468" stroke-width="2" stroke-miterlimit="10" x1="174.923" y1="97.486" x2="314.899" y2="43.552"/>
		
			<line fill="none" stroke="#003468" stroke-width="2" stroke-linecap="square" stroke-miterlimit="10" x1="167.725" y1="78.805" x2="174.916" y2="97.467"/>
		
			<line fill="none" stroke="#003468" stroke-width="2" stroke-linecap="square" stroke-miterlimit="10" x1="188.825" y1="81.416" x2="192.419" y2="90.746"/>
		
			<line fill="none" stroke="#003468" stroke-width="2" stroke-linecap="square" stroke-miterlimit="10" x1="202.718" y1="65.312" x2="209.909" y2="83.984"/>
		
			<line fill="none" stroke="#003468" stroke-width="2" stroke-linecap="square" stroke-miterlimit="10" x1="223.818" y1="67.924" x2="227.413" y2="77.264"/>
		
			<line fill="none" stroke="#003468" stroke-width="2" stroke-linecap="square" stroke-miterlimit="10" x1="237.711" y1="51.832" x2="244.901" y2="70.494"/>
		
			<line fill="none" stroke="#003468" stroke-width="2" stroke-linecap="square" stroke-miterlimit="10" x1="258.815" y1="54.443" x2="262.41" y2="63.774"/>
		
			<line fill="none" stroke="#003468" stroke-width="2" stroke-linecap="square" stroke-miterlimit="10" x1="272.709" y1="38.35" x2="279.899" y2="57.012"/>
		
			<line fill="none" stroke="#003468" stroke-width="2" stroke-linecap="square" stroke-miterlimit="10" x1="293.81" y1="40.961" x2="297.404" y2="50.292"/>
		
			<line fill="none" stroke="#003468" stroke-width="2" stroke-linecap="square" stroke-miterlimit="10" x1="307.702" y1="24.868" x2="314.893" y2="43.531"/>
		<text transform="matrix(1 0 0 1 163.2808 74.6465)" font-size="10">-2</text>
		<text transform="matrix(1 0 0 1 198.2856 61.166)" font-size="10">-1</text>
		<text transform="matrix(1 0 0 1 234.6733 48.3828)" font-size="10">0</text>
		<text transform="matrix(1 0 0 1 269.9258 34.4531)" font-size="10">1</text>
		<text transform="matrix(1 0 0 1 304.9189 21.2529)" font-size="10">2</text>
	</g>
</g>
</svg>
