<?xml version="1.0" encoding="utf-8"?>
<!-- $Source: /home/bbennett/pass/archive/DicomXml/docbook/part03/figures/PS3.3_C.8.24.2-1.svg,v $ -->
<!-- $Date: 2014/05/09 13:15:42 $ -->
<!-- $Revision: 1.1 $ -->

<!DOCTYPE svg PUBLIC "-//W3C//DTD SVG 1.1//EN" "http://www.w3.org/Graphics/SVG/1.1/DTD/svg11.dtd">
<svg version="1.1" id="Layer_1" xmlns="http://www.w3.org/2000/svg" xmlns:xlink="http://www.w3.org/1999/xlink" x="0px" y="0px"
	 width="502px" height="422px" viewBox="0 0 502 422" enable-background="new 0 0 502 422" xml:space="preserve">

<defs>
	<style type="text/css">
	text {
	  font-family: Helvetica, Verdana, ArialUnicodeMS, san-serif
	}
	</style>
</defs>

<g>
   <desc>
	PS 3.3 Part 3: Information Object Definitions
   </desc>
</g>

<g>
	<rect x="1" y="1" fill="#F5EED6" width="500" height="420"/>
	<g>
		<g>
			
				<rect x="246.513" y="185.293" fill="#B2CEE7" stroke="#000000" stroke-width="0.5" stroke-linejoin="bevel" stroke-miterlimit="1" width="186.598" height="133.8"/>
			<polygon fill="#BCBEC0" stroke="#000000" stroke-width="0.5" stroke-linejoin="bevel" stroke-miterlimit="1" points="
				433.11,319.094 246.513,319.094 146.9,406.227 347.897,406.227 			"/>
			<polygon fill="#CCDEF0" stroke="#000000" stroke-width="0.5" stroke-linejoin="bevel" stroke-miterlimit="1" points="
				146.901,406.564 246.693,319.094 246.693,185.293 146.901,254.775 			"/>
			<polygon opacity="0.5" fill="#0DB14B" stroke="#333333" stroke-width="0.5" stroke-miterlimit="1" points="277.545,204.993 
				246.513,319.094 433.11,319.094 345.065,204.993 			"/>
			<polygon opacity="0.5" fill="#0DB14B" stroke="#333333" stroke-width="0.5" stroke-miterlimit="1" points="334.921,213.541 
				406.668,345.838 215.821,345.838 266.639,213.541 			"/>
			<polygon opacity="0.5" fill="#0DB14B" stroke="#333333" stroke-width="0.5" stroke-miterlimit="1" points="340.495,208.938 
				421.066,331.439 232.38,331.439 272.408,208.938 			"/>
			
				<rect x="199.922" y="218.525" opacity="0.7" fill="#FFF200" stroke="#000000" stroke-width="0.5" stroke-linejoin="bevel" stroke-miterlimit="1" width="192.979" height="141.539"/>
			<polygon opacity="0.5" fill="#0DB14B" stroke="#333333" stroke-width="0.5" stroke-miterlimit="1" points="329.454,217.994 
				392.27,360.236 199.621,360.236 261.143,217.994 			"/>
			<polygon opacity="0.5" fill="#0DB14B" stroke="#333333" stroke-width="0.5" stroke-miterlimit="1" points="324.181,222.32 
				378.231,374.607 183.421,374.662 255.748,222.32 			"/>
			<polygon opacity="0.5" fill="#0DB14B" stroke="#333333" stroke-width="0.5" stroke-miterlimit="1" points="318.908,226.703 
				363.833,389.006 166.862,389.061 250.227,226.703 			"/>
			<polygon opacity="0.5" fill="#0DB14B" stroke="#333333" stroke-width="0.5" stroke-miterlimit="1" points="244.194,231.551 
				146.901,406.564 347.897,406.564 313.005,231.551 			"/>
			<g>
				<polyline fill="none" stroke="#000000" stroke-width="0.5" stroke-miterlimit="1" stroke-dasharray="2,1" points="
					345.065,205.35 294.917,140.565 277.545,204.637 				"/>
				
					<polyline opacity="0.6" fill="none" stroke="#000000" stroke-width="0.5" stroke-miterlimit="1" stroke-dasharray="2,1" points="
					261.143,217.957 294.917,139.845 329.454,218.031 				"/>
				
					<polyline opacity="0.6" fill="none" stroke="#000000" stroke-width="0.5" stroke-miterlimit="1" stroke-dasharray="2,1" points="
					255.748,222.336 294.917,139.844 324.181,222.303 				"/>
				
					<polyline opacity="0.6" fill="none" stroke="#000000" stroke-width="0.5" stroke-miterlimit="1" stroke-dasharray="2,1" points="
					250.227,226.82 294.917,139.845 318.908,226.586 				"/>
				
					<polyline opacity="0.6" fill="none" stroke="#000000" stroke-width="0.5" stroke-miterlimit="1" stroke-dasharray="2,1" points="
					266.639,213.494 294.917,139.845 334.921,213.586 				"/>
				
					<polyline opacity="0.6" fill="none" stroke="#000000" stroke-width="0.5" stroke-miterlimit="1" stroke-dasharray="2,1" points="
					272.408,208.809 294.918,139.844 340.495,209.064 				"/>
				
					<polyline opacity="0.6" fill="none" stroke="#000000" stroke-width="0.5" stroke-miterlimit="1" stroke-dasharray="2,1" points="
					313.005,231.383 294.917,140.565 244.194,231.719 				"/>
			</g>
			
				<rect x="146.901" y="254.765" fill="none" stroke="#000000" stroke-width="0.5" stroke-linejoin="bevel" stroke-miterlimit="1" width="200.997" height="151.8"/>
			<polygon fill="none" stroke="#000000" stroke-width="0.5" stroke-linejoin="bevel" points="347.719,406.564 433.111,319.094 
				433.111,185.293 347.719,254.775 			"/>
			<g>
				<g>
					<line fill="none" stroke="#0DB14B" x1="146.899" y1="254.875" x2="146.899" y2="276.066"/>
					<g>
						<polygon fill="#0DB14B" points="143.994,274.085 146.899,284.926 149.805,274.085 						"/>
					</g>
				</g>
			</g>
			<text transform="matrix(1 0 0 1 172.6216 267.5469)" fill="#ED1C24" font-size="10">Xv</text>
			<text transform="matrix(1 0 0 1 130.2002 290.209)" fill="#0DB14B" font-size="10">Yv</text>
			<text transform="matrix(1 0 0 1 158.1494 236.0645)" fill="#00AEEF" font-size="10">Zv</text>
			<g>
				<g>
					<line fill="none" stroke="#00AEEF" x1="146.901" y1="254.775" x2="164.277" y2="242.567"/>
					<g>
						<polygon fill="#00AEEF" points="164.326,246.084 171.526,237.475 160.985,241.329 						"/>
					</g>
				</g>
			</g>
			<g>
				<g>
					<line fill="none" stroke="#ED1C24" x1="146.901" y1="254.765" x2="168.866" y2="254.765"/>
					<g>
						<polygon fill="#ED1C24" points="166.885,257.67 177.726,254.765 166.885,251.859 						"/>
					</g>
				</g>
			</g>
			<g>
				<text transform="matrix(0.8815 0 0 1 68.8892 254.873)"><tspan x="0" y="0" font-size="12">Volume Origin</tspan><tspan x="20.675" y="12.408" font-size="12">(0,0,0)</tspan></text>
			</g>
			<g>
				<g>
					<line fill="none" stroke="#0DB14B" x1="199.739" y1="218.067" x2="199.739" y2="234.955"/>
					<g>
						<polygon fill="#0DB14B" points="196.833,232.974 199.739,243.814 202.644,232.974 						"/>
					</g>
				</g>
			</g>
			<text transform="matrix(1 0 0 1 227.0815 214.9004)" fill="#ED1C24" font-size="10">Xi</text>
			<text transform="matrix(1 0 0 1 187.54 248.002)" fill="#0DB14B" font-size="10">Yi</text>
			<g>
				<g>
					<line fill="none" stroke="#ED1C24" x1="200.641" y1="217.957" x2="223.521" y2="217.957"/>
					<g>
						<polygon fill="#ED1C24" points="221.54,220.862 232.38,217.957 221.54,215.052 						"/>
					</g>
				</g>
			</g>
			<g>
				<text transform="matrix(0.8815 0 0 1 112.5762 210.5054)" font-size="12">Frame Origin (0,0)</text>
			</g>
			<g>
				<path stroke="#000000" stroke-miterlimit="1" d="M153.65,254.765c0-3.728-3.022-6.75-6.751-6.75v6.75H153.65z"/>
				
					<path fill="#FFFFFF" stroke="#010101" stroke-width="0.75" stroke-linecap="round" stroke-linejoin="round" stroke-miterlimit="1" d="
					M146.899,248.015c-3.729,0-6.75,3.022-6.75,6.75h6.75V248.015z"/>
				<path stroke="#000000" stroke-miterlimit="1" d="M140.149,254.765c0,3.728,3.021,6.75,6.75,6.75v-6.75H140.149z"/>
				
					<path fill="#FFFFFF" stroke="#010101" stroke-width="0.75" stroke-linecap="round" stroke-linejoin="round" stroke-miterlimit="1" d="
					M146.899,254.765v6.75c3.729,0,6.751-3.022,6.751-6.75H146.899z"/>
			</g>
			<g>
				<path stroke="#000000" stroke-miterlimit="1" d="M204.422,218.525c0-2.486-2.015-4.5-4.5-4.5v4.5H204.422z"/>
				
					<path fill="#FFFFFF" stroke="#010101" stroke-width="0.75" stroke-linecap="round" stroke-linejoin="round" stroke-miterlimit="1" d="
					M199.922,214.025c-2.485,0-4.5,2.014-4.5,4.5h4.5V214.025z"/>
				<path stroke="#000000" stroke-miterlimit="1" d="M195.422,218.525c0,2.484,2.015,4.499,4.5,4.499v-4.499H195.422z"/>
				
					<path fill="#FFFFFF" stroke="#010101" stroke-width="0.75" stroke-linecap="round" stroke-linejoin="round" stroke-miterlimit="1" d="
					M199.922,218.525v4.499c2.485,0,4.5-2.015,4.5-4.499H199.922z"/>
			</g>
		</g>
		<g>
			<path fill="#CCDEF0" stroke="#003468" stroke-miterlimit="1" d="M305.719,122.491c0,3.178,3.698,6.099,5.867,7.116
				c2.17,1.018,5.283,3.682,5.283,7.079v16.87l-0.025,0.102c-0.568,6.559-10.172,11.78-21.934,11.78h0.016
				c-11.763,0-21.365-5.221-21.935-11.78l-0.026-0.102v-16.87c0-3.397,3.115-6.061,5.285-7.079c2.168-1.018,5.867-3.938,5.867-7.116
				l0.071-5.677c0.374-16.921,2.357-31.514,4.765-40.544c0.632-2.368,0.451-5.749,0.451-5.749V53.447h11.026v17.074
				c0,0-0.181,3.381,0.452,5.749c2.406,9.03,4.39,23.623,4.764,40.544L305.719,122.491z"/>
			<path fill="none" stroke="#005695" stroke-miterlimit="1" d="M295.02,110.75c-0.068,0.009-0.137,0.017-0.203,0.024"/>
			<path fill="none" stroke="#005695" stroke-miterlimit="1" d="M279.224,129.564c-0.067,0.009-0.136,0.018-0.202,0.025"/>
			<path fill="none" stroke="#005695" stroke-miterlimit="1" d="M285.579,116.642"/>
			<path fill="none" stroke="#005695" stroke-miterlimit="1" d="M285.547,128.025"/>
			<path fill="none" stroke="#005695" stroke-miterlimit="1" d="M290.792,70.349"/>
			<path fill="none" stroke="#003468" stroke-width="10" stroke-miterlimit="1" d="M294.912,53.447
				c-0.032-0.469-1.009-24.382,10.977-38.01"/>
			<path fill="none" stroke="#003468" stroke-miterlimit="1" d="M316.869,146.742c0,4.042-3.174,7.317-7.086,7.317h-29.73
				c-3.914,0-7.088-3.275-7.088-7.317"/>
			<path fill="none" stroke="#003468" stroke-miterlimit="1" d="M303.901,92.592c-2.522,0.437-5.608,0.693-8.938,0.693
				c-3.372,0-6.488-0.262-9.027-0.708"/>
		</g>
	</g>
</g>
</svg>
