<?xml version="1.0" encoding="utf-8"?>
<!-- $Source: /home/bbennett/pass/archive/DicomXml/docbook/part05/figures/PS3.5_G.5-1.svg,v $ -->
<!-- $Date: 2014/02/18 14:35:30 $ -->
<!-- $Revision: 1.1 $ -->

<!DOCTYPE svg PUBLIC "-//W3C//DTD SVG 1.1//EN" "http://www.w3.org/Graphics/SVG/1.1/DTD/svg11.dtd">

<svg version="1.1" id="Layer_1" xmlns="http://www.w3.org/2000/svg" xmlns:xlink="http://www.w3.org/1999/xlink" x="0px" y="0px"
	 width="495.084px" height="172.213px" viewBox="0 0 495.084 172.213" enable-background="new 0 0 495.084 172.213"
	 xml:space="preserve">

<defs>
	<style type="text/css">
	text {
	  font-family: Helvetica, Verdana, ArialUnicodeMS, san-serif
	}
	</style>
</defs>

<g>
   <desc>
	PS 3.5-2008 5: Data Structures and Encoding
   </desc>
   <title>
	Figure G.5-1 RLE Header Format
   </title>
</g>

<symbol  id="Background_Bounding_Box" viewBox="-247.542 -249.875 495.085 499.749">
	<polygon fill="#F4EED7" points="247.542,-249.875 -247.542,-249.875 -247.542,249.874 247.542,249.874 	"/>
</symbol>
<use xlink:href="#Background_Bounding_Box"  width="495.085" height="499.749" x="-247.542" y="-249.875" transform="matrix(1 0 0 -0.3446 247.5425 86.1064)" overflow="visible"/>
<rect x="160.141" y="92.95" fill="#B2CEE7" width="174.805" height="13.03"/>
<rect x="160.141" y="119.203" fill="#B2CEE7" width="174.805" height="13.03"/>
<rect x="160.141" y="132.233" fill="#B2CEE7" width="174.805" height="13.03"/>
<rect x="160.141" y="145.869" fill="#B2CEE7" width="174.805" height="13.03"/>
<rect x="160.141" y="80.425" fill="#B2CEE7" width="175.125" height="13.03"/>
<rect x="160.141" y="106.484" fill="#B2CEE7" width="175.125" height="13.031"/>
<rect x="160.141" y="27.395" fill="#B2CEE7" width="175.127" height="13.03"/>
<rect x="160.141" y="14.364" fill="#B2CEE7" width="174.805" height="13.03"/>
<rect x="160.141" y="53.455" fill="#B2CEE7" width="175.127" height="13.029"/>
<rect x="160.141" y="40.425" fill="#B2CEE7" width="174.805" height="13.03"/>
<rect x="160.141" y="66.484" fill="#B2CEE7" width="174.805" height="13.031"/>
<g>
	<text transform="matrix(0.8815 0 0 1 198.5596 25.0645)" font-size="10">number of RLE Segments</text>
</g>
<g>
	<text transform="matrix(0.8815 0 0 1 191.3247 37.9756)" font-size="10">offset of RLE Segment 1 = 64</text>
</g>
<g>
	<text transform="matrix(0.8815 0 0 1 201.252 51.0571)" font-size="10">offset of RLE Segment 2</text>
</g>
<g>
	<text transform="matrix(0.8815 0 0 1 201.252 63.8457)" font-size="10">offset of RLE Segment 3</text>
</g>
<g>
	<text transform="matrix(0.8815 0 0 1 245.5991 77.1172)" font-size="10">...</text>
</g>
<g>
	<text transform="matrix(0.8815 0 0 1 245.5991 90.3906)" font-size="10">...</text>
</g>
<g>
	<text transform="matrix(0.8815 0 0 1 245.5996 102.4316)" font-size="10">...</text>
</g>
<g>
	<text transform="matrix(0.8815 0 0 1 246.8218 130.5547)" font-size="10">0</text>
</g>
<g>
	<text transform="matrix(0.8815 0 0 1 246.8218 143.8281)" font-size="10">0</text>
</g>
<g>
	<text transform="matrix(0.8815 0 0 1 246.8223 155.8691)" font-size="10">0</text>
</g>
<g>
	<text transform="matrix(0.8815 0 0 1 200.5186 115.7031)" font-size="10">offset of RLE Segment N</text>
</g>
<line fill="#FFFFFF" stroke="#010101" stroke-miterlimit="1" x1="160.141" y1="106.049" x2="334.946" y2="106.049"/>
<line fill="#FFFFFF" stroke="#010101" stroke-miterlimit="1" x1="160.141" y1="92.951" x2="334.946" y2="92.951"/>
<line fill="#FFFFFF" stroke="#010101" stroke-miterlimit="1" x1="160.141" y1="79.854" x2="334.946" y2="79.854"/>
<line fill="#FFFFFF" stroke="#010101" stroke-miterlimit="1" x1="160.141" y1="66.756" x2="334.946" y2="66.756"/>
<line fill="#FFFFFF" stroke="#010101" stroke-miterlimit="1" x1="160.141" y1="53.657" x2="334.946" y2="53.657"/>
<line fill="#FFFFFF" stroke="#010101" stroke-miterlimit="1" x1="160.141" y1="40.56" x2="334.946" y2="40.56"/>
<line fill="#FFFFFF" stroke="#010101" stroke-miterlimit="1" x1="160.141" y1="27.462" x2="334.946" y2="27.462"/>
<g>
	<rect x="160.141" y="14.364" fill="none" stroke="#000000" stroke-miterlimit="1" width="174.872" height="144.505"/>
	<line fill="none" stroke="#000000" stroke-miterlimit="1" x1="160.141" y1="145.745" x2="335.012" y2="145.745"/>
	<line fill="none" stroke="#000000" stroke-miterlimit="1" x1="160.141" y1="132.586" x2="335.012" y2="132.586"/>
	<line fill="none" stroke="#000000" stroke-miterlimit="1" x1="160.141" y1="119.462" x2="335.012" y2="119.462"/>
	<line fill="none" stroke="#000000" stroke-miterlimit="1" x1="160.141" y1="106.338" x2="335.012" y2="106.338"/>
	<line fill="none" stroke="#000000" stroke-miterlimit="1" x1="160.141" y1="93.179" x2="335.012" y2="93.179"/>
	<line fill="none" stroke="#000000" stroke-miterlimit="1" x1="160.141" y1="80.055" x2="335.012" y2="80.055"/>
	<line fill="none" stroke="#000000" stroke-miterlimit="1" x1="160.141" y1="66.896" x2="335.012" y2="66.896"/>
	<line fill="none" stroke="#000000" stroke-miterlimit="1" x1="160.141" y1="53.771" x2="335.012" y2="53.771"/>
	<line fill="none" stroke="#000000" stroke-miterlimit="1" x1="160.141" y1="40.647" x2="335.012" y2="40.647"/>
	<line fill="none" stroke="#000000" stroke-miterlimit="1" x1="160.141" y1="27.488" x2="335.012" y2="27.488"/>
</g>
</svg>
