<?xml version="1.0" encoding="utf-8"?>
<!-- $Source: /home/bbennett/pass/archive/DicomXml/docbook/part05/figures/PS3.5_D-7.svg,v $ -->
<!-- $Date: 2014/02/18 14:35:30 $ -->
<!-- $Revision: 1.1 $ -->

<!DOCTYPE svg PUBLIC "-//W3C//DTD SVG 1.1//EN" "http://www.w3.org/Graphics/SVG/1.1/DTD/svg11.dtd">

<svg version="1.1" id="Layer_1" xmlns="http://www.w3.org/2000/svg" xmlns:xlink="http://www.w3.org/1999/xlink" x="0px" y="0px"
	 width="495.084px" height="249.875px" viewBox="0 0 495.084 249.875" enable-background="new 0 0 495.084 249.875"
	 xml:space="preserve">

<defs>
	<style type="text/css">
	text {
	  font-family: Helvetica, Verdana, ArialUnicodeMS, san-serif
	}
	</style>
</defs>

<g>
   <desc>
	PS 3.5-2008 5: Data Structures and Encoding
   </desc>
   <title>
	Figure D-7 Sample Pixel Data Byte Streams for 8-bits Allocated and 8-bits Stored (VR = OW)
   </title>
</g>

<symbol  id="Background_Bounding_Box" viewBox="-247.542 -249.875 495.085 499.749">
	<polygon fill="#F4EED7" points="247.542,-249.875 -247.542,-249.875 -247.542,249.874 247.542,249.874 	"/>
</symbol>
<use xlink:href="#Background_Bounding_Box"  width="495.085" height="499.749" x="-247.542" y="-249.875" transform="matrix(1 0 0 -0.5 247.5425 124.937)" overflow="visible"/>
<g>
	<rect x="68.544" y="35.874" fill="#CCDFF0" stroke="#010101" stroke-miterlimit="1" width="358" height="194"/>
	<g>
		<rect x="302.995" y="156.241" fill="#FFFFFF" width="104.781" height="13.03"/>
		<rect x="302.803" y="143.715" fill="#939598" width="104.973" height="13.03"/>
		<rect x="302.803" y="169.775" fill="#FFFFFF" width="104.973" height="13.031"/>
		<rect x="302.995" y="90.686" fill="#E7E8E9" width="104.975" height="13.03"/>
		<rect x="302.995" y="77.655" fill="#FFFFFF" width="104.781" height="13.03"/>
		<rect x="302.995" y="116.746" fill="#BCBEC0" width="104.975" height="13.029"/>
		<rect x="302.995" y="103.715" fill="#D1D3D4" width="104.781" height="13.03"/>
		<rect x="302.995" y="129.775" fill="#A7A9AC" width="104.781" height="13.031"/>
		<g>
			<text transform="matrix(0.8815 0 0 1 343.4585 88.355)" font-size="10">Pixel 1</text>
		</g>
		<g>
			<text transform="matrix(0.8815 0 0 1 307.3521 88.355)" font-size="10">MSb</text>
		</g>
		<g>
			<text transform="matrix(0.8815 0 0 1 387.9321 88.355)" font-size="10">LSb</text>
		</g>
		<g>
			<text transform="matrix(0.8815 0 0 1 343.4585 101.2661)" font-size="10">Pixel 2</text>
		</g>
		<g>
			<text transform="matrix(0.8815 0 0 1 307.3521 101.2661)" font-size="10">MSb</text>
		</g>
		<g>
			<text transform="matrix(0.8815 0 0 1 387.9321 101.2661)" font-size="10">LSb</text>
		</g>
		<g>
			<text transform="matrix(0.8815 0 0 1 343.4585 114.3477)" font-size="10">Pixel 3</text>
		</g>
		<g>
			<text transform="matrix(0.8815 0 0 1 307.3521 114.3477)" font-size="10">MSb</text>
		</g>
		<g>
			<text transform="matrix(0.8815 0 0 1 387.9321 114.3477)" font-size="10">LSb</text>
		</g>
		<g>
			<text transform="matrix(0.8815 0 0 1 343.4585 127.1362)" font-size="10">Pixel 4</text>
		</g>
		<g>
			<text transform="matrix(0.8815 0 0 1 307.3521 127.1362)" font-size="10">MSb</text>
		</g>
		<g>
			<text transform="matrix(0.8815 0 0 1 387.9321 127.1362)" font-size="10">LSb</text>
		</g>
		<g>
			<text transform="matrix(0.8815 0 0 1 343.4585 140.4077)" font-size="10">Pixel 5</text>
		</g>
		<g>
			<text transform="matrix(0.8815 0 0 1 307.3521 140.4077)" font-size="10">MSb</text>
		</g>
		<g>
			<text transform="matrix(0.8815 0 0 1 387.9321 140.4077)" font-size="10">LSb</text>
		</g>
		<g>
			<text transform="matrix(0.8815 0 0 1 343.4585 153.6812)" font-size="10">Pixel 6</text>
		</g>
		<g>
			<text transform="matrix(0.8815 0 0 1 307.3521 153.6812)" font-size="10">MSb</text>
		</g>
		<g>
			<text transform="matrix(0.8815 0 0 1 387.9321 153.6812)" font-size="10">LSb</text>
		</g>
		<g>
			<text transform="matrix(0.8815 0 0 1 354.7212 165.7222)" font-size="10">...</text>
		</g>
		<g>
			<text transform="matrix(0.8815 0 0 1 354.7212 178.9937)" font-size="10">...</text>
		</g>
		<g>
			<text transform="matrix(0.8815 0 0 1 274.8813 88.103)" fill="#ED1C24" font-size="9">byte 0</text>
		</g>
		<g>
			<text transform="matrix(0.8815 0 0 1 274.8813 114.6455)" fill="#ED1C24" font-size="9">byte 2</text>
		</g>
		<g>
			<text transform="matrix(0.8815 0 0 1 274.2485 101.0142)" fill="#ED1C24" font-size="9">byte 1</text>
		</g>
		<g>
			<text transform="matrix(0.8815 0 0 1 274.8813 140.7056)" fill="#ED1C24" font-size="9">byte 4</text>
		</g>
		<g>
			<text transform="matrix(0.8815 0 0 1 274.2485 127.4341)" fill="#ED1C24" font-size="9">byte 3</text>
		</g>
		<g>
			<text transform="matrix(0.8815 0 0 1 274.2485 153.979)" fill="#ED1C24" font-size="9">byte 5</text>
		</g>
		<rect x="302.995" y="77.655" fill="none" stroke="#010101" stroke-miterlimit="1" width="104.781" height="104.782"/>
		<line fill="none" stroke="#010101" stroke-miterlimit="1" x1="302.995" y1="169.339" x2="407.776" y2="169.339"/>
		<line fill="none" stroke="#010101" stroke-miterlimit="1" x1="302.995" y1="156.242" x2="407.776" y2="156.242"/>
		<line fill="none" stroke="#010101" stroke-miterlimit="1" x1="302.995" y1="143.144" x2="407.776" y2="143.144"/>
		<line fill="none" stroke="#010101" stroke-miterlimit="1" x1="302.995" y1="130.046" x2="407.776" y2="130.046"/>
		<line fill="none" stroke="#010101" stroke-miterlimit="1" x1="302.995" y1="116.948" x2="407.776" y2="116.948"/>
		<line fill="none" stroke="#010101" stroke-miterlimit="1" x1="302.995" y1="103.851" x2="407.776" y2="103.851"/>
		<line fill="none" stroke="#010101" stroke-miterlimit="1" x1="302.995" y1="90.753" x2="407.776" y2="90.753"/>
	</g>
	<g>
		<text transform="matrix(0.8815 0 0 1 196.2397 206.8989)"><tspan x="0" y="0" font-size="10">MSb = Most Significant Bit</tspan><tspan x="0" y="12" font-size="10">LSb = Least Significant Bit</tspan></text>
	</g>
	<g>
		<text transform="matrix(0.8815 0 0 1 68.0088 28.8247)" font-size="10">8 Bit Pixel Data Byte Stream (8 bits allocated, high bit of 7)</text>
	</g>
	<g>
		<text transform="matrix(0.8815 0 0 1 298.7915 52.1094)" font-size="10">Little Endian Transfer Syntax</text>
	</g>
	<g>
		<text transform="matrix(0.8815 0 0 1 385.8735 73.2881)" font-size="10">1</text>
	</g>
	<g>
		<text transform="matrix(0.8815 0 0 1 398.9028 73.2881)" font-size="10">0</text>
	</g>
	<g>
		<text transform="matrix(0.8815 0 0 1 373.2329 73.2881)" font-size="10">2</text>
	</g>
	<g>
		<text transform="matrix(0.8815 0 0 1 360.0298 73.2881)" font-size="10">3</text>
	</g>
	<g>
		<text transform="matrix(0.8815 0 0 1 346.8228 73.2881)" font-size="10">4</text>
	</g>
	<g>
		<text transform="matrix(0.8815 0 0 1 333.6216 73.2881)" font-size="10">5</text>
	</g>
	<g>
		<text transform="matrix(0.8815 0 0 1 307.1528 73.2881)" font-size="10">7</text>
	</g>
	<g>
		<text transform="matrix(0.8815 0 0 1 320.2739 73.2881)" font-size="10">6</text>
	</g>
	<g>
		<text transform="matrix(0.8815 0 0 1 110.4062 52.1094)" font-size="10">Big Endian Transfer Syntax</text>
	</g>
	<g>
		<text transform="matrix(0.8815 0 0 1 198.873 73.2881)" font-size="10">1</text>
	</g>
	<g>
		<text transform="matrix(0.8815 0 0 1 211.9033 73.2881)" font-size="10">0</text>
	</g>
	<g>
		<text transform="matrix(0.8815 0 0 1 186.2334 73.2881)" font-size="10">2</text>
	</g>
	<g>
		<text transform="matrix(0.8815 0 0 1 173.0293 73.2881)" font-size="10">3</text>
	</g>
	<g>
		<text transform="matrix(0.8815 0 0 1 159.8232 73.2881)" font-size="10">4</text>
	</g>
	<g>
		<text transform="matrix(0.8815 0 0 1 146.6211 73.2881)" font-size="10">5</text>
	</g>
	<g>
		<text transform="matrix(0.8815 0 0 1 120.1533 73.2881)" font-size="10">7</text>
	</g>
	<g>
		<text transform="matrix(0.8815 0 0 1 133.2734 73.2881)" font-size="10">6</text>
	</g>
	<g>
		<rect x="115.987" y="156.241" fill="#FFFFFF" width="104.781" height="13.03"/>
		<rect x="115.795" y="143.715" fill="#A7A9AC" width="104.974" height="13.03"/>
		<rect x="115.795" y="169.775" fill="#FFFFFF" width="104.974" height="13.031"/>
		<rect x="115.987" y="90.686" fill="#FFFFFF" width="104.974" height="13.03"/>
		<rect x="115.987" y="77.655" fill="#E7E8E9" width="104.781" height="13.03"/>
		<rect x="115.987" y="116.746" fill="#D1D3D4" width="104.974" height="13.029"/>
		<rect x="115.987" y="103.715" fill="#BCBEC0" width="104.781" height="13.03"/>
		<rect x="115.987" y="129.775" fill="#939598" width="104.781" height="13.031"/>
		<g>
			<text transform="matrix(0.8815 0 0 1 156.4507 88.355)" font-size="10">Pixel 2</text>
		</g>
		<g>
			<text transform="matrix(0.8815 0 0 1 120.3447 88.355)" font-size="10">MSb</text>
		</g>
		<g>
			<text transform="matrix(0.8815 0 0 1 200.9238 88.355)" font-size="10">LSb</text>
		</g>
		<g>
			<text transform="matrix(0.8815 0 0 1 156.4507 101.2661)" font-size="10">Pixel 1</text>
		</g>
		<g>
			<text transform="matrix(0.8815 0 0 1 120.3447 101.2661)" font-size="10">MSb</text>
		</g>
		<g>
			<text transform="matrix(0.8815 0 0 1 200.9238 101.2661)" font-size="10">LSb</text>
		</g>
		<g>
			<text transform="matrix(0.8815 0 0 1 156.4507 114.3477)" font-size="10">Pixel 4</text>
		</g>
		<g>
			<text transform="matrix(0.8815 0 0 1 120.3447 114.3477)" font-size="10">MSb</text>
		</g>
		<g>
			<text transform="matrix(0.8815 0 0 1 200.9238 114.3477)" font-size="10">LSb</text>
		</g>
		<g>
			<text transform="matrix(0.8815 0 0 1 156.4507 127.1362)" font-size="10">Pixel 3</text>
		</g>
		<g>
			<text transform="matrix(0.8815 0 0 1 120.3447 127.1362)" font-size="10">MSb</text>
		</g>
		<g>
			<text transform="matrix(0.8815 0 0 1 200.9238 127.1362)" font-size="10">LSb</text>
		</g>
		<g>
			<text transform="matrix(0.8815 0 0 1 156.4507 140.4077)" font-size="10">Pixel 6</text>
		</g>
		<g>
			<text transform="matrix(0.8815 0 0 1 120.3447 140.4077)" font-size="10">MSb</text>
		</g>
		<g>
			<text transform="matrix(0.8815 0 0 1 200.9238 140.4077)" font-size="10">LSb</text>
		</g>
		<g>
			<text transform="matrix(0.8815 0 0 1 156.4507 153.6812)" font-size="10">Pixel 5</text>
		</g>
		<g>
			<text transform="matrix(0.8815 0 0 1 120.3447 153.6812)" font-size="10">MSb</text>
		</g>
		<g>
			<text transform="matrix(0.8815 0 0 1 200.9238 153.6812)" font-size="10">LSb</text>
		</g>
		<g>
			<text transform="matrix(0.8815 0 0 1 167.7139 165.7222)" font-size="10">...</text>
		</g>
		<g>
			<text transform="matrix(0.8815 0 0 1 167.7139 178.9937)" font-size="10">...</text>
		</g>
		<g>
			<text transform="matrix(0.8815 0 0 1 87.8735 88.103)" fill="#ED1C24" font-size="9">byte 0</text>
		</g>
		<g>
			<text transform="matrix(0.8815 0 0 1 87.8735 114.6455)" fill="#ED1C24" font-size="9">byte 2</text>
		</g>
		<g>
			<text transform="matrix(0.8815 0 0 1 87.2407 101.0142)" fill="#ED1C24" font-size="9">byte 1</text>
		</g>
		<g>
			<text transform="matrix(0.8815 0 0 1 87.8735 140.7056)" fill="#ED1C24" font-size="9">byte 4</text>
		</g>
		<g>
			<text transform="matrix(0.8815 0 0 1 87.2407 127.4341)" fill="#ED1C24" font-size="9">byte 3</text>
		</g>
		<g>
			<text transform="matrix(0.8815 0 0 1 87.2407 153.979)" fill="#ED1C24" font-size="9">byte 5</text>
		</g>
		<rect x="115.987" y="77.655" fill="none" stroke="#010101" stroke-miterlimit="1" width="104.781" height="104.782"/>
		<line fill="none" stroke="#010101" stroke-miterlimit="1" x1="115.987" y1="169.339" x2="220.769" y2="169.339"/>
		<line fill="none" stroke="#010101" stroke-miterlimit="1" x1="115.987" y1="156.242" x2="220.769" y2="156.242"/>
		<line fill="none" stroke="#010101" stroke-miterlimit="1" x1="115.987" y1="143.144" x2="220.769" y2="143.144"/>
		<line fill="none" stroke="#010101" stroke-miterlimit="1" x1="115.987" y1="130.046" x2="220.769" y2="130.046"/>
		<line fill="none" stroke="#010101" stroke-miterlimit="1" x1="115.987" y1="116.948" x2="220.769" y2="116.948"/>
		<line fill="none" stroke="#010101" stroke-miterlimit="1" x1="115.987" y1="103.851" x2="220.769" y2="103.851"/>
		<line fill="none" stroke="#010101" stroke-miterlimit="1" x1="115.987" y1="90.753" x2="220.769" y2="90.753"/>
	</g>
</g>
</svg>
