<?xml version="1.0" encoding="utf-8"?>
<!-- $Source: /home/bbennett/pass/archive/DicomXml/docbook/part05/figures/PS3.5_7.1-1.svg,v $ -->
<!-- $Date: 2014/02/18 14:35:30 $ -->
<!-- $Revision: 1.1 $ -->

<!DOCTYPE svg PUBLIC "-//W3C//DTD SVG 1.1//EN" "http://www.w3.org/Graphics/SVG/1.1/DTD/svg11.dtd">

<svg version="1.1" id="Layer_1" xmlns="http://www.w3.org/2000/svg" xmlns:xlink="http://www.w3.org/1999/xlink" x="0px" y="0px"
	 width="495.084px" height="204.248px" viewBox="0 0 495.084 204.248" enable-background="new 0 0 495.084 204.248"
	 xml:space="preserve">

<defs>
	<style type="text/css">
	text {
	  font-family: Helvetica, Verdana, ArialUnicodeMS, san-serif
	}
	</style>
</defs>

<g>
   <desc>
	PS 3.5-2008 5: Data Structures and Encoding
   </desc>
   <title>
	Figure 7.1-1 DICOM DATA SET AND DATA ELEMENT STRUCTURES
   </title>
</g>

<symbol  id="Background_Bounding_Box" viewBox="-247.542 -249.875 495.085 499.749">
	<polygon fill="#F4EED7" points="247.542,-249.875 -247.542,-249.875 -247.542,249.874 247.542,249.874 	"/>
</symbol>
<g>
	
		<use xlink:href="#Background_Bounding_Box"  width="495.085" height="499.749" x="-247.542" y="-249.875" transform="matrix(1 0 0 -0.4087 247.5425 102.1235)" overflow="visible"/>
	
		<line fill="none" stroke="#000000" stroke-linecap="square" stroke-linejoin="bevel" stroke-dasharray="4" x1="168.664" y1="60.14" x2="56.972" y2="153.741"/>
	<rect x="102.076" y="118.199" fill="#87B2D8" stroke="#000000" width="42.823" height="36"/>
	<rect x="57.119" y="118.199" fill="#B2CEE7" stroke="#000000" width="44.957" height="36"/>
	<g>
		<text transform="matrix(0.8815 0 0 1 71.2427 139.2603)" font-size="11">Tag</text>
	</g>
	<g>
		<text transform="matrix(0.8815 0 0 1 116.752 139.2603)" font-size="11">VR</text>
	</g>
	<rect x="145.076" y="118.199" fill="#B2CEE7" stroke="#000000" width="42.823" height="36"/>
	<g>
		<text transform="matrix(0.8815 0 0 1 151.6577 132.6602)"><tspan x="0" y="0" font-size="11">Value</tspan><tspan x="0" y="13.2" font-size="11">Length</tspan></text>
	</g>
	<rect x="114.689" y="24.428" fill="#CCDFF0" stroke="#000000" width="54" height="36"/>
	<g>
		<text transform="matrix(0.8815 0 0 1 131.4478 38.8906)"><tspan x="0" y="0" font-size="11">Data</tspan><tspan x="-8.559" y="13.2" font-size="11">Element</tspan></text>
	</g>
	<rect x="60.688" y="24.428" fill="#CCDFF0" stroke="#000000" width="54" height="36"/>
	<g>
		<text transform="matrix(0.8815 0 0 1 77.4473 38.8906)"><tspan x="0" y="0" font-size="11">Data</tspan><tspan x="-8.559" y="13.2" font-size="11">Element</tspan></text>
	</g>
	<rect x="168.689" y="24.428" fill="#B2CEE7" stroke="#000000" width="54" height="36"/>
	<g>
		<text transform="matrix(0.8815 0 0 1 185.4478 38.8906)"><tspan x="0" y="0" font-size="11">Data</tspan><tspan x="-8.559" y="13.2" font-size="11">Element</tspan></text>
	</g>
	<rect x="222.689" y="24.428" fill="#CCDFF0" stroke="#000000" width="54" height="36"/>
	<g>
		<text transform="matrix(0.8815 0 0 1 239.4478 38.8906)"><tspan x="0" y="0" font-size="11">Data</tspan><tspan x="-8.559" y="13.2" font-size="11">Element</tspan></text>
	</g>
	<rect x="276.689" y="24.428" fill="#CCDFF0" stroke="#000000" width="54" height="36"/>
	<g>
		<text transform="matrix(0.8815 0 0 1 299.6479 45.4907)" font-size="11">...</text>
	</g>
	<rect x="330.689" y="24.428" fill="#CCDFF0" stroke="#000000" width="54" height="36"/>
	<g>
		<text transform="matrix(0.8815 0 0 1 347.4478 38.8906)"><tspan x="0" y="0" font-size="11">Data</tspan><tspan x="-8.559" y="13.2" font-size="11">Element</tspan></text>
	</g>
	<rect x="384.689" y="24.428" fill="#CCDFF0" stroke="#000000" width="54" height="36"/>
	<g>
		<text transform="matrix(0.8815 0 0 1 401.4478 38.8906)"><tspan x="0" y="0" font-size="11">Data</tspan><tspan x="-8.559" y="13.2" font-size="11">Element</tspan></text>
	</g>
	<g>
		<text transform="matrix(0.8815 0 0 1 59.0024 19.5396)" font-size="11">Data Set</text>
	</g>
	
		<line fill="none" stroke="#000000" stroke-linecap="square" stroke-linejoin="bevel" stroke-dasharray="4" x1="223.142" y1="24.428" x2="382.247" y2="118.029"/>
	
		<line fill="none" stroke="#000000" stroke-linecap="square" stroke-linejoin="bevel" stroke-dasharray="4" x1="168.754" y1="24.356" x2="56.399" y2="117.957"/>
	
		<line fill="none" stroke="#000000" stroke-linecap="square" stroke-linejoin="bevel" stroke-dasharray="4" x1="222.732" y1="60.14" x2="381.559" y2="153.741"/>
	<rect x="187.899" y="118.199" fill="#B2CEE7" stroke="#000000" width="193.957" height="36"/>
	<g>
		<text transform="matrix(0.8815 0 0 1 260.6216 139.2603)" font-size="11">Value Field</text>
	</g>
	<polyline fill="none" stroke="#010101" stroke-miterlimit="1" points="154.532,178.728 142.899,178.728 130.059,148.382 	"/>
	<g>
		<g>
			<g>
				<text transform="matrix(1.1496 0 0 1 157.2017 180.6929)"><tspan x="0" y="0" font-size="9">optional field - dependent on</tspan><tspan x="2.764" y="10.8" font-size="9">negotiated Transfer Syntax</tspan></text>
			</g>
		</g>
	</g>
	<g>
		<g>
			<text transform="matrix(1.1496 0 0 1 212.1919 19.2002)" font-size="9">order of transmission</text>
		</g>
	</g>
	<g>
		<g>
			<line fill="#4E8ABE" stroke="#005595" stroke-miterlimit="1" x1="312.668" y1="16.561" x2="386.529" y2="16.561"/>
			<g>
				<g>
					<line fill="#4E8ABE" stroke="#005595" stroke-miterlimit="1" x1="126.835" y1="16.561" x2="202.068" y2="16.561"/>
					<path fill="#005595" d="M201.457,16.561l-1.314-2.161l0.073-0.05l3.525,1.4c1.228,0.271,2.456,0.54,3.685,0.811
						c-1.229,0.271-2.457,0.54-3.685,0.811l-3.525,1.4l-0.073-0.037L201.457,16.561z"/>
				</g>
			</g>
			<path fill="#005595" d="M385.917,16.561l-1.314-2.161l0.074-0.05l3.524,1.4c1.229,0.271,2.457,0.54,3.685,0.811
				c-1.228,0.271-2.456,0.54-3.685,0.811l-3.524,1.4l-0.074-0.037L385.917,16.561z"/>
		</g>
	</g>
</g>
</svg>
