<?xml version="1.0" encoding="utf-8"?>
<!-- $Source: /home/bbennett/pass/archive/DicomXml/docbook/part05/figures/PS3.5_D-5.svg,v $ -->
<!-- $Date: 2014/02/18 14:35:30 $ -->
<!-- $Revision: 1.1 $ -->

<!DOCTYPE svg PUBLIC "-//W3C//DTD SVG 1.1//EN" "http://www.w3.org/Graphics/SVG/1.1/DTD/svg11.dtd">

<svg version="1.1" id="Layer_1" xmlns="http://www.w3.org/2000/svg" xmlns:xlink="http://www.w3.org/1999/xlink" x="0px" y="0px"
	 width="495.084px" height="499.749px" viewBox="0 0 495.084 499.749" enable-background="new 0 0 495.084 499.749"
	 xml:space="preserve">

<defs>
	<style type="text/css">
	text {
	  font-family: Helvetica, Verdana, ArialUnicodeMS, san-serif
	}
	</style>
</defs>

<g>
   <desc>
	PS 3.5-2008 5: Data Structures and Encoding
   </desc>
   <title>
	Figure D-5 Example Pixel Cells Byte Ordered in Memory (VR = OW)
   </title>
</g>

<symbol  id="Background_Bounding_Box" viewBox="-247.542 -249.875 495.085 499.749">
	<polygon fill="#F4EED7" points="247.542,-249.875 -247.542,-249.875 -247.542,249.874 247.542,249.874 	"/>
</symbol>
<use xlink:href="#Background_Bounding_Box"  width="495.085" height="499.749" x="-247.542" y="-249.875" transform="matrix(1 0 0 -1 247.5425 249.874)" overflow="visible"/>
<g>
	<path fill="#CCDFF0" stroke="#010101" stroke-miterlimit="1" d="M9.993,33.547h478.66v198.16H9.993V33.547z"/>
	<rect x="73.126" y="157.136" fill="#FFFFFF" width="157.365" height="13.03"/>
	<line fill="#6799C8" stroke="#010101" stroke-miterlimit="1" x1="20.736" y1="78.822" x2="20.736" y2="91.853"/>
	<line fill="#FFFFFF" stroke="#010101" stroke-miterlimit="1" x1="230.479" y1="91.853" x2="230.479" y2="78.822"/>
	<g>
		<text transform="matrix(0.8815 0 0 1 86.312 52.0396)" font-size="10">Big Endian Machine</text>
	</g>
	<g>
		<text transform="matrix(0.8815 0 0 1 194.457 206.8291)"><tspan x="0" y="0" font-size="10">MSB = Most Significant Byte</tspan><tspan x="0" y="12" font-size="10">LSB = Least Significant Byte</tspan></text>
	</g>
	<rect x="20.736" y="91.986" fill="#87B2D8" width="52.391" height="13.03"/>
	<rect x="73.126" y="91.986" fill="#FFFFFF" width="157.353" height="13.03"/>
	<rect x="20.736" y="105.016" fill="#87B2D8" width="52.391" height="13.03"/>
	<rect x="73.126" y="105.016" fill="#FFFFFF" width="157.365" height="13.03"/>
	<rect x="20.736" y="118.046" fill="#87B2D8" width="52.391" height="13.03"/>
	<rect x="73.126" y="118.046" fill="#FFFFFF" width="157.365" height="13.03"/>
	<rect x="20.736" y="131.076" fill="#87B2D8" width="52.391" height="13.03"/>
	<rect x="73.126" y="131.076" fill="#FFFFFF" width="157.365" height="13.03"/>
	<rect x="20.736" y="144.106" fill="#87B2D8" width="52.391" height="13.03"/>
	<rect x="73.126" y="144.106" fill="#FFFFFF" width="157.365" height="13.03"/>
	<rect x="20.736" y="157.136" fill="#87B2D8" width="52.391" height="13.03"/>
	<g>
		<text transform="matrix(0.8815 0 0 1 152.791 100.9932)" fill="#ED1C24" font-size="9">byte address 1</text>
	</g>
	<g>
		<text transform="matrix(0.8815 0 0 1 152.791 114.2642)" fill="#ED1C24" font-size="9">byte address 3</text>
	</g>
	<g>
		<text transform="matrix(0.8815 0 0 1 152.791 127.5356)" fill="#ED1C24" font-size="9">byte address 5</text>
	</g>
	<g>
		<text transform="matrix(0.8815 0 0 1 47.377 100.9932)" fill="#ED1C24" font-size="9">byte address 0</text>
	</g>
	<g>
		<text transform="matrix(0.8815 0 0 1 47.377 114.2642)" fill="#ED1C24" font-size="9">byte address 2</text>
	</g>
	<g>
		<text transform="matrix(0.8815 0 0 1 47.377 127.5356)" fill="#ED1C24" font-size="9">byte address 4</text>
	</g>
	<g>
		<text transform="matrix(0.8815 0 0 1 175.1387 140.731)" font-size="10">...</text>
	</g>
	<g>
		<text transform="matrix(0.8815 0 0 1 175.1387 154.002)" font-size="10">...</text>
	</g>
	<g>
		<text transform="matrix(0.8815 0 0 1 237.084 100.9932)" font-size="10">Word 0</text>
	</g>
	<g>
		<text transform="matrix(0.8815 0 0 1 237.084 114.2642)" font-size="10">Word 1</text>
	</g>
	<g>
		<text transform="matrix(0.8815 0 0 1 237.084 127.5356)" font-size="10">Word 2</text>
	</g>
	<g>
		<text transform="matrix(0.8815 0 0 1 208.4058 87.6182)" font-size="10">1</text>
	</g>
	<g>
		<text transform="matrix(0.8815 0 0 1 221.4355 87.6182)" font-size="10">0</text>
	</g>
	<g>
		<text transform="matrix(0.8815 0 0 1 195.7651 87.6182)" font-size="10">2</text>
	</g>
	<g>
		<text transform="matrix(0.8815 0 0 1 182.562 87.6182)" font-size="10">3</text>
	</g>
	<g>
		<text transform="matrix(0.8815 0 0 1 169.356 87.6182)" font-size="10">4</text>
	</g>
	<g>
		<text transform="matrix(0.8815 0 0 1 156.1538 87.6182)" font-size="10">5</text>
	</g>
	<g>
		<text transform="matrix(0.8815 0 0 1 87.7788 87.6182)" fill="#312A36" font-size="10">10</text>
	</g>
	<g>
		<text transform="matrix(0.8815 0 0 1 22.2715 87.6182)" font-size="10">15</text>
	</g>
	<g>
		<text transform="matrix(0.8815 0 0 1 35.3936 87.6182)" font-size="10">14</text>
	</g>
	<g>
		<text transform="matrix(0.8815 0 0 1 48.5132 87.6182)" font-size="10">13</text>
	</g>
	<g>
		<text transform="matrix(0.8815 0 0 1 61.6338 87.6182)" font-size="10">12</text>
	</g>
	<g>
		<text transform="matrix(0.8815 0 0 1 74.7534 87.6182)" font-size="10">11</text>
	</g>
	<g>
		<text transform="matrix(0.8815 0 0 1 103.4458 87.6182)" font-size="10">9</text>
	</g>
	<g>
		<text transform="matrix(0.8815 0 0 1 116.5659 87.6182)" font-size="10">8</text>
	</g>
	<g>
		<text transform="matrix(0.8815 0 0 1 129.686 87.6182)" font-size="10">7</text>
	</g>
	<g>
		<text transform="matrix(0.8815 0 0 1 142.8066 87.6182)" font-size="10">6</text>
	</g>
	<g>
		<text transform="matrix(0.8815 0 0 1 9.5962 28.7549)" font-size="10">Example 1: CT Pixel Data Value in Memory</text>
	</g>
	<rect x="20.736" y="91.986" fill="none" stroke="#010101" stroke-miterlimit="1" width="209.756" height="78.18"/>
	<line fill="none" stroke="#010101" stroke-miterlimit="1" x1="20.736" y1="157.13" x2="230.492" y2="157.13"/>
	<line fill="none" stroke="#010101" stroke-miterlimit="1" x1="20.736" y1="144.112" x2="230.492" y2="144.112"/>
	<line fill="none" stroke="#010101" stroke-miterlimit="1" x1="20.736" y1="131.076" x2="230.492" y2="131.076"/>
	<line fill="none" stroke="#010101" stroke-miterlimit="1" x1="20.736" y1="118.04" x2="230.492" y2="118.04"/>
	<line fill="none" stroke="#010101" stroke-miterlimit="1" x1="20.736" y1="105.022" x2="230.492" y2="105.022"/>
	
		<line fill="none" stroke="#003468" stroke-linecap="round" stroke-linejoin="round" stroke-miterlimit="1" stroke-dasharray="8,4,2,4" x1="125.517" y1="69.741" x2="125.517" y2="178.322"/>
	<rect x="322.141" y="157.136" fill="#FFFFFF" width="157.364" height="13.03"/>
	<line fill="#6799C8" stroke="#010101" stroke-miterlimit="1" x1="269.75" y1="78.822" x2="269.75" y2="91.853"/>
	<line fill="#FFFFFF" stroke="#010101" stroke-miterlimit="1" x1="479.494" y1="91.853" x2="479.494" y2="78.822"/>
	<g>
		<text transform="matrix(0.8815 0 0 1 332.3833 52.0396)" font-size="10">Little Endian Machine</text>
	</g>
	<g>
		<text transform="matrix(0.8815 0 0 1 313.7017 76.1685)" font-size="10">MSB</text>
	</g>
	<g>
		<text transform="matrix(0.8815 0 0 1 418.6772 76.1685)" font-size="10">LSB</text>
	</g>
	<g>
		<text transform="matrix(0.8815 0 0 1 65.1738 76.1685)" font-size="10">MSB</text>
	</g>
	<g>
		<text transform="matrix(0.8815 0 0 1 170.1484 76.1685)" font-size="10">LSB</text>
	</g>
	<rect x="269.75" y="91.986" fill="#87B2D8" width="52.391" height="13.03"/>
	<rect x="322.141" y="91.986" fill="#FFFFFF" width="157.353" height="13.03"/>
	<rect x="269.75" y="105.016" fill="#87B2D8" width="52.391" height="13.03"/>
	<rect x="322.141" y="105.016" fill="#FFFFFF" width="157.364" height="13.03"/>
	<rect x="269.75" y="118.046" fill="#87B2D8" width="52.391" height="13.03"/>
	<rect x="322.141" y="118.046" fill="#FFFFFF" width="157.364" height="13.03"/>
	<rect x="269.75" y="131.076" fill="#87B2D8" width="52.391" height="13.03"/>
	<rect x="322.141" y="131.076" fill="#FFFFFF" width="157.364" height="13.03"/>
	<rect x="269.75" y="144.106" fill="#87B2D8" width="52.391" height="13.03"/>
	<rect x="322.141" y="144.106" fill="#FFFFFF" width="157.364" height="13.03"/>
	<rect x="269.75" y="157.136" fill="#87B2D8" width="52.391" height="13.03"/>
	<g>
		<text transform="matrix(0.8815 0 0 1 401.8032 100.9932)" fill="#ED1C24" font-size="9">byte address 0</text>
	</g>
	<g>
		<text transform="matrix(0.8815 0 0 1 401.8032 114.2642)" fill="#ED1C24" font-size="9">byte address 2</text>
	</g>
	<g>
		<text transform="matrix(0.8815 0 0 1 401.8032 127.5356)" fill="#ED1C24" font-size="9">byte address 4</text>
	</g>
	<g>
		<text transform="matrix(0.8815 0 0 1 296.3892 100.9932)" fill="#ED1C24" font-size="9">byte address 1</text>
	</g>
	<g>
		<text transform="matrix(0.8815 0 0 1 296.3892 114.2642)" fill="#ED1C24" font-size="9">byte address 3</text>
	</g>
	<g>
		<text transform="matrix(0.8815 0 0 1 296.3892 127.5356)" fill="#ED1C24" font-size="9">byte address 5</text>
	</g>
	<g>
		<text transform="matrix(0.8815 0 0 1 424.1509 140.731)" font-size="10">...</text>
	</g>
	<g>
		<text transform="matrix(0.8815 0 0 1 424.1509 154.002)" font-size="10">...</text>
	</g>
	<g>
		<text transform="matrix(0.8815 0 0 1 457.4175 87.6182)" font-size="10">1</text>
	</g>
	<g>
		<text transform="matrix(0.8815 0 0 1 470.4478 87.6182)" font-size="10">0</text>
	</g>
	<g>
		<text transform="matrix(0.8815 0 0 1 444.7778 87.6182)" font-size="10">2</text>
	</g>
	<g>
		<text transform="matrix(0.8815 0 0 1 431.5737 87.6182)" font-size="10">3</text>
	</g>
	<g>
		<text transform="matrix(0.8815 0 0 1 418.3677 87.6182)" font-size="10">4</text>
	</g>
	<g>
		<text transform="matrix(0.8815 0 0 1 405.1655 87.6182)" font-size="10">5</text>
	</g>
	<g>
		<text transform="matrix(0.8815 0 0 1 336.7915 87.6182)" fill="#312A36" font-size="10">10</text>
	</g>
	<g>
		<text transform="matrix(0.8815 0 0 1 271.2837 87.6182)" font-size="10">15</text>
	</g>
	<g>
		<text transform="matrix(0.8815 0 0 1 284.4058 87.6182)" font-size="10">14</text>
	</g>
	<g>
		<text transform="matrix(0.8815 0 0 1 297.5259 87.6182)" font-size="10">13</text>
	</g>
	<g>
		<text transform="matrix(0.8815 0 0 1 310.646 87.6182)" font-size="10">12</text>
	</g>
	<g>
		<text transform="matrix(0.8815 0 0 1 323.7661 87.6182)" font-size="10">11</text>
	</g>
	<g>
		<text transform="matrix(0.8815 0 0 1 352.4575 87.6182)" font-size="10">9</text>
	</g>
	<g>
		<text transform="matrix(0.8815 0 0 1 365.5776 87.6182)" font-size="10">8</text>
	</g>
	<g>
		<text transform="matrix(0.8815 0 0 1 378.6978 87.6182)" font-size="10">7</text>
	</g>
	<g>
		<text transform="matrix(0.8815 0 0 1 391.8179 87.6182)" font-size="10">6</text>
	</g>
	<rect x="269.75" y="91.986" fill="none" stroke="#010101" stroke-miterlimit="1" width="209.755" height="78.18"/>
	<line fill="none" stroke="#010101" stroke-miterlimit="1" x1="269.75" y1="157.13" x2="479.505" y2="157.13"/>
	<line fill="none" stroke="#010101" stroke-miterlimit="1" x1="269.75" y1="144.112" x2="479.505" y2="144.112"/>
	<line fill="none" stroke="#010101" stroke-miterlimit="1" x1="269.75" y1="131.076" x2="479.505" y2="131.076"/>
	<line fill="none" stroke="#010101" stroke-miterlimit="1" x1="269.75" y1="118.04" x2="479.505" y2="118.04"/>
	<line fill="none" stroke="#010101" stroke-miterlimit="1" x1="269.75" y1="105.022" x2="479.505" y2="105.022"/>
	
		<line fill="none" stroke="#003468" stroke-linecap="round" stroke-linejoin="round" stroke-miterlimit="1" stroke-dasharray="8,4,2,4" x1="374.532" y1="69.741" x2="374.532" y2="178.322"/>
</g>
<g>
	<rect x="9.512" y="282.197" fill="#CCDFF0" stroke="#010101" stroke-miterlimit="1" width="479.141" height="189.884"/>
	<rect x="20.736" y="396.799" fill="#87B2D8" width="52.48" height="13.118"/>
	<rect x="73.217" y="396.799" fill="#9D9FA2" width="157.263" height="13.118"/>
	<g>
		<g>
			<text transform="matrix(0.8815 0 0 1 208.4058 327.2197)" font-size="10">1</text>
		</g>
		<g>
			<text transform="matrix(0.8815 0 0 1 221.436 327.2197)" font-size="10">0</text>
		</g>
		<g>
			<text transform="matrix(0.8815 0 0 1 195.7656 327.2197)" font-size="10">2</text>
		</g>
		<g>
			<text transform="matrix(0.8815 0 0 1 182.5625 327.2197)" font-size="10">3</text>
		</g>
		<g>
			<text transform="matrix(0.8815 0 0 1 169.3564 327.2197)" font-size="10">4</text>
		</g>
		<g>
			<text transform="matrix(0.8815 0 0 1 156.1543 327.2197)" font-size="10">5</text>
		</g>
		<g>
			<text transform="matrix(0.8815 0 0 1 87.7793 327.2197)" fill="#312A36" font-size="10">10</text>
		</g>
		<g>
			<text transform="matrix(0.8815 0 0 1 22.272 327.2197)" font-size="10">15</text>
		</g>
		<g>
			<text transform="matrix(0.8815 0 0 1 35.394 327.2197)" font-size="10">14</text>
		</g>
		<g>
			<text transform="matrix(0.8815 0 0 1 48.5137 327.2197)" font-size="10">13</text>
		</g>
		<g>
			<text transform="matrix(0.8815 0 0 1 61.6343 327.2197)" font-size="10">12</text>
		</g>
		<g>
			<text transform="matrix(0.8815 0 0 1 74.7539 327.2197)" font-size="10">11</text>
		</g>
		<g>
			<text transform="matrix(0.8815 0 0 1 103.4458 327.2197)" font-size="10">9</text>
		</g>
		<g>
			<text transform="matrix(0.8815 0 0 1 116.5664 327.2197)" font-size="10">8</text>
		</g>
		<g>
			<text transform="matrix(0.8815 0 0 1 129.6865 327.2197)" font-size="10">7</text>
		</g>
		<g>
			<text transform="matrix(0.8815 0 0 1 142.8071 327.2197)" font-size="10">6</text>
		</g>
	</g>
	<line fill="#6799C8" stroke="#010101" stroke-miterlimit="1" x1="20.736" y1="318.422" x2="20.736" y2="331.451"/>
	<line fill="#FFFFFF" stroke="#010101" stroke-miterlimit="1" x1="230.479" y1="331.451" x2="230.479" y2="318.422"/>
	<g>
		<g>
			<text transform="matrix(0.8815 0 0 1 9.0293 278.6104)" font-size="10">Example 2: Hypothetical Pixel Data Value in Memory</text>
		</g>
	</g>
	<g>
		<g>
			<text transform="matrix(0.8815 0 0 1 237.0845 340.5947)" font-size="10">Word 0</text>
		</g>
	</g>
	<g>
		<g>
			<text transform="matrix(0.8815 0 0 1 237.0845 353.8662)" font-size="10">Word 1</text>
		</g>
	</g>
	<g>
		<g>
			<text transform="matrix(0.8815 0 0 1 237.0845 367.1377)" font-size="10">Word 2</text>
		</g>
	</g>
	<g>
		<g>
			<text transform="matrix(0.8815 0 0 1 237.0845 380.5596)" font-size="10">Word 3</text>
		</g>
	</g>
	<g>
		<g>
			<text transform="matrix(0.8815 0 0 1 237.0845 393.8291)" font-size="10">Word 4</text>
		</g>
	</g>
	<rect x="204.329" y="331.559" fill="#87B2D8" width="26.15" height="13.03"/>
	<rect x="204.328" y="370.737" fill="#87B2D8" width="26.152" height="13.031"/>
	<rect x="178.087" y="383.769" fill="#BCBEC0" width="52.392" height="13.03"/>
	<rect x="99.547" y="383.769" fill="#87B2D8" width="78.54" height="13.03"/>
	<rect x="20.736" y="383.769" fill="#9D9FA2" width="78.811" height="12.94"/>
	<rect x="20.736" y="370.737" fill="#BCBEC0" width="183.591" height="13.031"/>
	<rect x="20.736" y="357.618" fill="#87B2D8" width="52.48" height="13.119"/>
	<rect x="20.736" y="344.589" fill="#DCDDDE" width="78.609" height="13.029"/>
	<rect x="99.346" y="344.589" fill="#87B2D8" width="78.742" height="13.029"/>
	<rect x="178.087" y="344.589" fill="#FFFFFF" width="52.392" height="13.029"/>
	<rect x="20.736" y="331.559" fill="#FFFFFF" width="183.593" height="13.03"/>
	<rect x="20.736" y="409.738" fill="#FFFFFF" width="209.743" height="13.03"/>
	<rect x="73.217" y="357.618" fill="#DCDDDE" width="157.263" height="13.119"/>
	<g>
		<g>
			<text transform="matrix(0.8815 0 0 1 137.521 415.6826)" font-size="10">...</text>
		</g>
	</g>
	<g>
		<text transform="matrix(0.8815 0 0 1 194.4585 453.6689)"><tspan x="0" y="0" font-size="10">MSB = Most Significant Byte</tspan><tspan x="0" y="12" font-size="10">LSB = Least Significant Byte</tspan></text>
	</g>
	<g>
		<text transform="matrix(0.8815 0 0 1 86.312 301.915)" font-size="10">Big Endian Machine</text>
	</g>
	<g>
		<text transform="matrix(0.8815 0 0 1 332.3833 301.915)" font-size="10">Little Endian Machine</text>
	</g>
	
		<line fill="none" stroke="#003468" stroke-linecap="round" stroke-linejoin="round" stroke-miterlimit="1" stroke-dasharray="8,4,2,4" x1="125.332" y1="308.013" x2="125.332" y2="429.249"/>
	<g>
		<rect x="20.736" y="331.559" fill="none" stroke="#010101" stroke-miterlimit="1" width="209.743" height="91.21"/>
		<line fill="none" stroke="#010101" stroke-miterlimit="1" x1="20.736" y1="409.742" x2="230.479" y2="409.742"/>
		<line fill="none" stroke="#010101" stroke-miterlimit="1" x1="20.736" y1="396.715" x2="230.479" y2="396.715"/>
		<line fill="none" stroke="#010101" stroke-miterlimit="1" x1="20.736" y1="383.688" x2="230.479" y2="383.688"/>
		<line fill="none" stroke="#010101" stroke-miterlimit="1" x1="20.736" y1="370.639" x2="230.479" y2="370.639"/>
		<line fill="none" stroke="#010101" stroke-miterlimit="1" x1="20.736" y1="357.612" x2="230.479" y2="357.612"/>
		<line fill="none" stroke="#010101" stroke-miterlimit="1" x1="20.736" y1="344.585" x2="230.479" y2="344.585"/>
	</g>
	<g>
		<g>
			<text transform="matrix(0.8815 0 0 1 152.791 340.5947)" fill="#ED1C24" font-size="9">byte address 1</text>
		</g>
		<g>
			<text transform="matrix(0.8815 0 0 1 152.791 353.8662)" fill="#ED1C24" font-size="9">byte address 3</text>
		</g>
		<g>
			<text transform="matrix(0.8815 0 0 1 152.791 367.1377)" fill="#ED1C24" font-size="9">byte address 5</text>
		</g>
		<g>
			<text transform="matrix(0.8815 0 0 1 47.377 340.5947)" fill="#ED1C24" font-size="9">byte address 0</text>
		</g>
		<g>
			<text transform="matrix(0.8815 0 0 1 47.377 353.8662)" fill="#ED1C24" font-size="9">byte address 2</text>
		</g>
		<g>
			<text transform="matrix(0.8815 0 0 1 47.377 367.1377)" fill="#ED1C24" font-size="9">byte address 4</text>
		</g>
		<g>
			<text transform="matrix(0.8815 0 0 1 65.1738 315.7705)" font-size="10">MSB</text>
		</g>
		<g>
			<text transform="matrix(0.8815 0 0 1 170.1484 315.7705)" font-size="10">LSB</text>
		</g>
		<g>
			<text transform="matrix(0.8815 0 0 1 152.791 380.4072)" fill="#ED1C24" font-size="9">byte address 7</text>
		</g>
		<g>
			<text transform="matrix(0.8815 0 0 1 152.791 393.6787)" fill="#ED1C24" font-size="9">byte address 9</text>
		</g>
		<g>
			<text transform="matrix(0.8815 0 0 1 47.377 380.4072)" fill="#ED1C24" font-size="9">byte address 6</text>
		</g>
		<g>
			<text transform="matrix(0.8815 0 0 1 47.377 393.6787)" fill="#ED1C24" font-size="9">byte address 8</text>
		</g>
	</g>
	<rect x="269.501" y="396.799" fill="#87B2D8" width="52.48" height="13.118"/>
	<rect x="321.982" y="396.799" fill="#9D9FA2" width="157.263" height="13.118"/>
	<g>
		<g>
			<text transform="matrix(0.8815 0 0 1 457.1714 327.2197)" font-size="10">1</text>
		</g>
		<g>
			<text transform="matrix(0.8815 0 0 1 470.2017 327.2197)" font-size="10">0</text>
		</g>
		<g>
			<text transform="matrix(0.8815 0 0 1 444.5308 327.2197)" font-size="10">2</text>
		</g>
		<g>
			<text transform="matrix(0.8815 0 0 1 431.3276 327.2197)" font-size="10">3</text>
		</g>
		<g>
			<text transform="matrix(0.8815 0 0 1 418.1216 327.2197)" font-size="10">4</text>
		</g>
		<g>
			<text transform="matrix(0.8815 0 0 1 404.9194 327.2197)" font-size="10">5</text>
		</g>
		<g>
			<text transform="matrix(0.8815 0 0 1 336.5454 327.2197)" fill="#312A36" font-size="10">10</text>
		</g>
		<g>
			<text transform="matrix(0.8815 0 0 1 271.0376 327.2197)" font-size="10">15</text>
		</g>
		<g>
			<text transform="matrix(0.8815 0 0 1 284.1597 327.2197)" font-size="10">14</text>
		</g>
		<g>
			<text transform="matrix(0.8815 0 0 1 297.2798 327.2197)" font-size="10">13</text>
		</g>
		<g>
			<text transform="matrix(0.8815 0 0 1 310.3999 327.2197)" font-size="10">12</text>
		</g>
		<g>
			<text transform="matrix(0.8815 0 0 1 323.52 327.2197)" font-size="10">11</text>
		</g>
		<g>
			<text transform="matrix(0.8815 0 0 1 352.2114 327.2197)" font-size="10">9</text>
		</g>
		<g>
			<text transform="matrix(0.8815 0 0 1 365.3325 327.2197)" font-size="10">8</text>
		</g>
		<g>
			<text transform="matrix(0.8815 0 0 1 378.4517 327.2197)" font-size="10">7</text>
		</g>
		<g>
			<text transform="matrix(0.8815 0 0 1 391.5728 327.2197)" font-size="10">6</text>
		</g>
	</g>
	<line fill="#6799C8" stroke="#010101" stroke-miterlimit="1" x1="269.501" y1="318.422" x2="269.501" y2="331.451"/>
	<line fill="#FFFFFF" stroke="#010101" stroke-miterlimit="1" x1="479.245" y1="331.451" x2="479.245" y2="318.422"/>
	<rect x="453.095" y="331.559" fill="#87B2D8" width="26.149" height="13.03"/>
	<rect x="453.093" y="370.737" fill="#87B2D8" width="26.151" height="13.031"/>
	<rect x="426.853" y="383.769" fill="#BCBEC0" width="52.392" height="13.03"/>
	<rect x="348.313" y="383.769" fill="#87B2D8" width="78.54" height="13.03"/>
	<rect x="269.501" y="383.769" fill="#9D9FA2" width="78.812" height="12.94"/>
	<rect x="269.501" y="370.737" fill="#BCBEC0" width="183.592" height="13.031"/>
	<rect x="269.501" y="357.618" fill="#87B2D8" width="52.48" height="13.119"/>
	<rect x="269.501" y="344.589" fill="#DCDDDE" width="78.609" height="13.029"/>
	<rect x="348.111" y="344.589" fill="#87B2D8" width="78.742" height="13.029"/>
	<rect x="426.853" y="344.589" fill="#FFFFFF" width="52.392" height="13.029"/>
	<rect x="269.501" y="331.559" fill="#FFFFFF" width="183.594" height="13.03"/>
	<rect x="269.501" y="409.738" fill="#FFFFFF" width="209.743" height="13.03"/>
	<rect x="321.982" y="357.618" fill="#DCDDDE" width="157.263" height="13.119"/>
	<g>
		<g>
			<text transform="matrix(0.8815 0 0 1 386.2866 415.6826)" font-size="10">...</text>
		</g>
	</g>
	
		<line fill="none" stroke="#003468" stroke-linecap="round" stroke-linejoin="round" stroke-miterlimit="1" stroke-dasharray="8,4,2,4" x1="374.097" y1="308.013" x2="374.097" y2="429.249"/>
	<g>
		<rect x="269.501" y="331.559" fill="none" stroke="#010101" stroke-miterlimit="1" width="209.743" height="91.21"/>
		<line fill="none" stroke="#010101" stroke-miterlimit="1" x1="269.501" y1="409.742" x2="479.245" y2="409.742"/>
		<line fill="none" stroke="#010101" stroke-miterlimit="1" x1="269.501" y1="396.715" x2="479.245" y2="396.715"/>
		<line fill="none" stroke="#010101" stroke-miterlimit="1" x1="269.501" y1="383.688" x2="479.245" y2="383.688"/>
		<line fill="none" stroke="#010101" stroke-miterlimit="1" x1="269.501" y1="370.639" x2="479.245" y2="370.639"/>
		<line fill="none" stroke="#010101" stroke-miterlimit="1" x1="269.501" y1="357.612" x2="479.245" y2="357.612"/>
		<line fill="none" stroke="#010101" stroke-miterlimit="1" x1="269.501" y1="344.585" x2="479.245" y2="344.585"/>
	</g>
	<g>
		<g>
			<text transform="matrix(0.8815 0 0 1 401.5581 340.5947)" fill="#ED1C24" font-size="9">byte address 1</text>
		</g>
		<g>
			<text transform="matrix(0.8815 0 0 1 401.5581 353.8662)" fill="#ED1C24" font-size="9">byte address 3</text>
		</g>
		<g>
			<text transform="matrix(0.8815 0 0 1 401.5581 367.1377)" fill="#ED1C24" font-size="9">byte address 5</text>
		</g>
		<g>
			<text transform="matrix(0.8815 0 0 1 296.144 340.5947)" fill="#ED1C24" font-size="9">byte address 0</text>
		</g>
		<g>
			<text transform="matrix(0.8815 0 0 1 296.144 353.8662)" fill="#ED1C24" font-size="9">byte address 2</text>
		</g>
		<g>
			<text transform="matrix(0.8815 0 0 1 296.144 367.1377)" fill="#ED1C24" font-size="9">byte address 4</text>
		</g>
		<g>
			<text transform="matrix(0.8815 0 0 1 313.9409 315.7705)" font-size="10">MSB</text>
		</g>
		<g>
			<text transform="matrix(0.8815 0 0 1 418.9155 315.7705)" font-size="10">LSB</text>
		</g>
		<g>
			<text transform="matrix(0.8815 0 0 1 401.5581 380.4072)" fill="#ED1C24" font-size="9">byte address 7</text>
		</g>
		<g>
			<text transform="matrix(0.8815 0 0 1 401.5581 393.6787)" fill="#ED1C24" font-size="9">byte address 9</text>
		</g>
		<g>
			<text transform="matrix(0.8815 0 0 1 296.144 380.4072)" fill="#ED1C24" font-size="9">byte address 6</text>
		</g>
		<g>
			<text transform="matrix(0.8815 0 0 1 296.144 393.6787)" fill="#ED1C24" font-size="9">byte address 8</text>
		</g>
	</g>
</g>
</svg>
