<?xml version="1.0" encoding="utf-8"?>
<!-- $Source: /home/bbennett/pass/archive/DicomXml/docbook/part15/figures/PS3.15_7-1.svg,v $ -->
<!-- $Date: 2014/05/09 13:15:42 $ -->
<!-- $Revision: 1.1 $ -->

<!DOCTYPE svg PUBLIC "-//W3C//DTD SVG 1.1//EN" "http://www.w3.org/Graphics/SVG/1.1/DTD/svg11.dtd">

<svg version="1.1" id="Layer_1" xmlns="http://www.w3.org/2000/svg" xmlns:xlink="http://www.w3.org/1999/xlink" x="0px" y="0px"
	 width="495.085px" height="308.845px" viewBox="0 0 495.085 308.845" enable-background="new 0 0 495.085 308.845"
	 xml:space="preserve">

<defs>
    <style type="text/css">
      text {
        font-family: Helvetica, Verdana, san-serif
      }
    </style>
  </defs>

<g>
  <title>
	Figure 7.1-1 Transactions and Actors
  </title>
  <desc>
	DICOM PS 3.15-2008 Part 15: Security and System Management Profiles
  </desc>
</g>

<symbol  id="Background_Bounding_Box" viewBox="-247.542 -249.875 495.085 499.749">
	<polygon fill="#F4EED7" points="247.542,-249.875 -247.542,-249.875 -247.542,249.874 247.542,249.874 	"/>
</symbol>
<g>
	
		<use xlink:href="#Background_Bounding_Box"  width="495.085" height="499.749" x="-247.542" y="-249.875" transform="matrix(1 0 0 -0.618 247.5425 154.4224)" overflow="visible"/>
	<path fill="#B2CEE7" d="M195.296,9.852h290.747v288H195.296V9.852z"/>
	<path fill="#FFFFFF" d="M55.27,9.852h140.026v288H55.27V9.852z"/>
	<g>
		<path fill="#87B2D8" d="M259.605,27.433c0-1.608,1.315-2.924,2.924-2.924h64.653c1.608,0,2.924,1.316,2.924,2.924v57.6
			c0,1.608-1.315,2.924-2.924,2.924h-64.653c-1.608,0-2.924-1.316-2.924-2.924V27.433z"/>
		
			<path fill="none" stroke="#010101" stroke-width="0.6091" stroke-linecap="round" stroke-linejoin="round" stroke-miterlimit="10" d="
			M259.605,27.433c0-1.608,1.315-2.924,2.924-2.924h64.653c1.608,0,2.924,1.316,2.924,2.924v57.6c0,1.608-1.315,2.924-2.924,2.924
			h-64.653c-1.608,0-2.924-1.316-2.924-2.924V27.433z"/>
	</g>
	<g>
		<path fill="#CCDFF0" d="M64.167,117.053c0-1.551,1.269-2.82,2.82-2.82h64.36c1.551,0,2.82,1.269,2.82,2.82v17.475
			c0,1.551-1.269,2.82-2.82,2.82h-64.36c-1.551,0-2.82-1.269-2.82-2.82V117.053z"/>
		
			<path fill="none" stroke="#010101" stroke-width="0.5875" stroke-linecap="round" stroke-linejoin="round" stroke-miterlimit="1" d="
			M64.167,117.053c0-1.551,1.269-2.82,2.82-2.82h64.36c1.551,0,2.82,1.269,2.82,2.82v17.475c0,1.551-1.269,2.82-2.82,2.82h-64.36
			c-1.551,0-2.82-1.269-2.82-2.82V117.053z"/>
	</g>
	<g>
		<text transform="matrix(0.9288 0 0 1 78.5483 127.9683)" font-size="7.833">DHCP Client</text>
	</g>
	<g>
		<path fill="#87B2D8" d="M259.84,117.055c0-1.551,1.269-2.82,2.82-2.82h64.364c1.552,0,2.82,1.269,2.82,2.82v17.469
			c0,1.551-1.269,2.82-2.82,2.82H262.66c-1.552,0-2.82-1.269-2.82-2.82V117.055z"/>
		
			<path fill="none" stroke="#010101" stroke-width="0.5875" stroke-linecap="round" stroke-linejoin="round" stroke-miterlimit="1" d="
			M259.84,117.055c0-1.551,1.269-2.82,2.82-2.82h64.364c1.552,0,2.82,1.269,2.82,2.82v17.469c0,1.551-1.269,2.82-2.82,2.82H262.66
			c-1.552,0-2.82-1.269-2.82-2.82V117.055z"/>
	</g>
	<g>
		<text transform="matrix(0.9288 0 0 1 272.8184 127.9702)" font-size="7.833">DHCP Server</text>
	</g>
	<g>
		<text transform="matrix(0.9288 0 0 1 151.0898 28.3315)" font-size="7.833">Find NTP Server (Broadcast)</text>
	</g>
	<g>
		<text transform="matrix(0.9288 0 0 1 175.145 42.3989)" font-size="7.833">Maintain Time</text>
	</g>
	<g>
		<text transform="matrix(0.9288 0 0 1 175.145 79.3086)" font-size="7.833">Maintain Time</text>
	</g>
	<g>
		<text transform="matrix(0.9288 0 0 1 153.2622 114.9751)" font-size="7.833">Find DHCP and Use Server</text>
	</g>
	<g>
		<text transform="matrix(0.9288 0 0 1 173.3164 129.2778)" font-size="7.833">Maintain Lease</text>
	</g>
	<g>
		<text transform="matrix(0.9288 0 0 1 266.6709 105.0527)" font-size="7.833">Resolve Hostname</text>
	</g>
	<g>
		<text transform="matrix(0.9288 0 0 1 167.2163 207.145)" font-size="7.833">FIND LDAP Server</text>
	</g>
	<g>
		<text transform="matrix(0.9288 0 0 1 156.6992 219.3276)"><tspan x="0" y="0" font-size="7.833">Find Query LDAP Server,</tspan><tspan x="-3.27" y="10.607" font-size="7.833">Client Update LDAP Server</tspan></text>
	</g>
	<g>
		<path fill="#CCDFF0" d="M64.167,72.899c0-1.551,1.269-2.82,2.82-2.82h64.36c1.551,0,2.82,1.269,2.82,2.82v17.474
			c0,1.551-1.269,2.82-2.82,2.82h-64.36c-1.551,0-2.82-1.269-2.82-2.82V72.899z"/>
		
			<path fill="none" stroke="#010101" stroke-width="0.5875" stroke-linecap="round" stroke-linejoin="round" stroke-miterlimit="1" d="
			M64.167,72.899c0-1.551,1.269-2.82,2.82-2.82h64.36c1.551,0,2.82,1.269,2.82,2.82v17.474c0,1.551-1.269,2.82-2.82,2.82h-64.36
			c-1.551,0-2.82-1.269-2.82-2.82V72.899z"/>
	</g>
	<g>
		<text transform="matrix(0.9288 0 0 1 79.1543 83.8164)" font-size="7.833">SNTP Client</text>
	</g>
	<g>
		<text transform="matrix(0.9288 0 0 1 20.9663 74.3169)"><tspan x="0" y="0" font-size="7.833">Find</tspan><tspan x="-12.838" y="9.399" font-size="7.833">NTP Server</tspan><tspan x="-6.087" y="18.799" font-size="7.833">(DHCP)</tspan></text>
	</g>
	<g>
		<path fill="#87B2D8" d="M259.847,213.168c0-1.552,1.269-2.82,2.82-2.82h64.32c1.552,0,2.82,1.269,2.82,2.82v17.46
			c0,1.552-1.269,2.82-2.82,2.82h-64.32c-1.552,0-2.82-1.269-2.82-2.82V213.168z"/>
		
			<path fill="none" stroke="#010101" stroke-width="0.5875" stroke-linecap="round" stroke-linejoin="round" stroke-miterlimit="1" d="
			M259.847,213.168c0-1.552,1.269-2.82,2.82-2.82h64.32c1.552,0,2.82,1.269,2.82,2.82v17.46c0,1.552-1.269,2.82-2.82,2.82h-64.32
			c-1.552,0-2.82-1.269-2.82-2.82V213.168z"/>
	</g>
	<g>
		<text transform="matrix(0.9288 0 0 1 273.6152 224.0796)" font-size="7.833">LDAP Server</text>
	</g>
	<g>
		<path fill="#CCDFF0" d="M64.167,161.201c0-1.552,1.269-2.82,2.82-2.82h64.36c1.551,0,2.82,1.269,2.82,2.82v17.478
			c0,1.552-1.269,2.82-2.82,2.82h-64.36c-1.551,0-2.82-1.269-2.82-2.82V161.201z"/>
		
			<path fill="none" stroke="#010101" stroke-width="0.5875" stroke-linecap="round" stroke-linejoin="round" stroke-miterlimit="1" d="
			M64.167,161.201c0-1.552,1.269-2.82,2.82-2.82h64.36c1.551,0,2.82,1.269,2.82,2.82v17.478c0,1.552-1.269,2.82-2.82,2.82h-64.36
			c-1.551,0-2.82-1.269-2.82-2.82V161.201z"/>
	</g>
	<g>
		<text transform="matrix(0.9288 0 0 1 81.1357 172.1177)" font-size="7.833">DNS Client</text>
	</g>
	<g>
		<path fill="#CCDFF0" d="M64.167,205.355c0-1.552,1.269-2.82,2.82-2.82h64.36c1.551,0,2.82,1.269,2.82,2.82v17.469
			c0,1.552-1.269,2.82-2.82,2.82h-64.36c-1.551,0-2.82-1.269-2.82-2.82V205.355z"/>
		
			<path fill="none" stroke="#010101" stroke-width="0.5875" stroke-linecap="round" stroke-linejoin="round" stroke-miterlimit="1" d="
			M64.167,205.355c0-1.552,1.269-2.82,2.82-2.82h64.36c1.551,0,2.82,1.269,2.82,2.82v17.469c0,1.552-1.269,2.82-2.82,2.82h-64.36
			c-1.551,0-2.82-1.269-2.82-2.82V205.355z"/>
	</g>
	<g>
		<text transform="matrix(0.9288 0 0 1 79.313 216.269)" font-size="7.833">LDAP Client</text>
	</g>
	<g>
		<text transform="matrix(0.9288 0 0 1 275.8037 58.4136)" font-size="7.833">NTP Server</text>
	</g>
	<g>
		<path fill="#87B2D8" d="M407.217,109.628c0-1.608,1.315-2.924,2.924-2.924h64.651c1.608,0,2.924,1.316,2.924,2.924v57.604
			c0,1.608-1.315,2.924-2.924,2.924h-64.651c-1.608,0-2.924-1.315-2.924-2.924V109.628z"/>
		
			<path fill="none" stroke="#010101" stroke-width="0.6091" stroke-linecap="round" stroke-linejoin="round" stroke-miterlimit="10" d="
			M407.217,109.628c0-1.608,1.315-2.924,2.924-2.924h64.651c1.608,0,2.924,1.316,2.924,2.924v57.604
			c0,1.608-1.315,2.924-2.924,2.924h-64.651c-1.608,0-2.924-1.315-2.924-2.924V109.628z"/>
	</g>
	<g>
		<text transform="matrix(0.9288 0 0 1 423.0137 140.606)" font-size="7.833">DNS Server</text>
	</g>
	<g>
		<path fill="#CCDFF0" d="M64.166,28.746c0-1.551,1.269-2.82,2.82-2.82h64.361c1.551,0,2.82,1.269,2.82,2.82v17.475
			c0,1.551-1.269,2.82-2.82,2.82H66.986c-1.551,0-2.82-1.269-2.82-2.82V28.746z"/>
		
			<path fill="none" stroke="#010101" stroke-width="0.5875" stroke-linecap="round" stroke-linejoin="round" stroke-miterlimit="1" d="
			M64.166,28.746c0-1.551,1.269-2.82,2.82-2.82h64.361c1.551,0,2.82,1.269,2.82,2.82v17.475c0,1.551-1.269,2.82-2.82,2.82H66.986
			c-1.551,0-2.82-1.269-2.82-2.82V28.746z"/>
	</g>
	<g>
		<text transform="matrix(0.9288 0 0 1 82.1108 39.6646)" font-size="7.833">NTP Client</text>
	</g>
	<g>
		<g>
			
				<line fill="none" stroke="#003468" stroke-width="1.5666" stroke-linecap="round" stroke-linejoin="round" stroke-miterlimit="10" x1="141.589" y1="31.296" x2="254.39" y2="31.296"/>
			<path fill="#003468" d="M256.609,30.333c-1.554-0.47-2.563-0.902-3.811-1.402v4.742c0.446-0.212,2.257-0.933,3.811-1.402
				c1.663-0.502,3.172-0.846,4.149-0.969C259.781,31.179,258.272,30.835,256.609,30.333z"/>
			<path fill="#003468" d="M139.369,32.26c1.554,0.469,2.564,0.902,3.811,1.402V28.92c-0.446,0.212-2.257,0.933-3.811,1.402
				c-1.663,0.503-3.171,0.847-4.149,0.969C136.197,31.414,137.706,31.758,139.369,32.26z"/>
		</g>
	</g>
	<g>
		<g>
			
				<line fill="none" stroke="#003468" stroke-width="1.5666" stroke-linecap="round" stroke-linejoin="round" stroke-miterlimit="10" x1="254.39" y1="44.458" x2="141.589" y2="44.458"/>
			<path fill="#003468" d="M139.369,45.422c1.554,0.469,2.564,0.902,3.811,1.402v-4.741c-0.446,0.212-2.257,0.933-3.811,1.402
				c-1.663,0.503-3.171,0.847-4.149,0.969C136.197,44.576,137.706,44.92,139.369,45.422z"/>
			<path fill="#003468" d="M256.609,43.495c-1.554-0.47-2.563-0.902-3.811-1.402v4.742c0.446-0.212,2.257-0.933,3.811-1.402
				c1.663-0.502,3.172-0.846,4.149-0.969C259.781,44.341,258.272,43.997,256.609,43.495z"/>
		</g>
	</g>
	<g>
		<text transform="matrix(0.9288 0 0 1 333.751 114.9751)" font-size="7.833">DDNS Coordination</text>
	</g>
	<g>
		<text transform="matrix(0.9288 0 0 1 334.9639 129.2778)" font-size="7.833">Resolve Hostname</text>
	</g>
	<g>
		<text transform="matrix(0.9288 0 0 1 167.2559 168.3784)" font-size="7.833">Resolve Hostname</text>
	</g>
	<g>
		<g>
			
				<line fill="none" stroke="#003468" stroke-width="1.4785" stroke-linecap="round" stroke-linejoin="round" stroke-miterlimit="10" x1="331.067" y1="117.772" x2="400.438" y2="117.772"/>
			<path fill="#003468" d="M402.534,116.863c-1.467-0.443-2.421-0.851-3.597-1.323v4.475c0.421-0.2,2.13-0.881,3.597-1.324
				c1.569-0.474,2.992-0.798,3.916-0.914C405.526,117.661,404.104,117.336,402.534,116.863z"/>
		</g>
	</g>
	<g>
		<g>
			
				<line fill="none" stroke="#003468" stroke-width="1.4785" stroke-linecap="round" stroke-linejoin="round" stroke-miterlimit="10" x1="400.438" y1="132.341" x2="336.14" y2="132.341"/>
			<path fill="#003468" d="M334.044,133.25c1.467,0.443,2.421,0.851,3.597,1.323v-4.475c-0.421,0.2-2.13,0.881-3.597,1.323
				c-1.569,0.475-2.993,0.799-3.916,0.915C331.051,132.452,332.475,132.777,334.044,133.25z"/>
			<path fill="#003468" d="M402.534,131.432c-1.467-0.443-2.421-0.851-3.597-1.323v4.475c0.421-0.2,2.13-0.881,3.597-1.323
				c1.569-0.475,2.993-0.799,3.916-0.915C405.527,132.23,404.104,131.906,402.534,131.432z"/>
		</g>
	</g>
	<g>
		<g>
			
				<line fill="none" stroke="#003468" stroke-width="1.5666" stroke-linecap="round" stroke-linejoin="round" stroke-miterlimit="10" x1="133.978" y1="117.773" x2="254.362" y2="117.773"/>
			<path fill="#003468" d="M256.582,116.81c-1.554-0.47-2.563-0.902-3.811-1.402v4.742c0.446-0.212,2.257-0.933,3.811-1.402
				c1.663-0.502,3.172-0.846,4.149-0.969C259.754,117.655,258.245,117.312,256.582,116.81z"/>
		</g>
	</g>
	<g>
		<g>
			
				<polyline fill="none" stroke="#003468" stroke-width="1.6177" stroke-linecap="round" stroke-linejoin="round" stroke-miterlimit="10" points="
				64.167,125.787 51.722,125.787 51.722,82.002 58.014,82.002 			"/>
			<path fill="#003468" d="M60.306,81.008c-1.605-0.485-2.648-0.932-3.935-1.448v4.896c0.46-0.219,2.33-0.963,3.935-1.448
				c1.717-0.519,3.275-0.874,4.285-1C63.581,81.881,62.023,81.526,60.306,81.008z"/>
		</g>
	</g>
	<g>
		<g>
			
				<polyline fill="none" stroke="#003468" stroke-width="1.6177" stroke-linecap="round" stroke-linejoin="round" stroke-miterlimit="10" points="
				51.722,87.006 51.722,37.583 58.014,37.583 			"/>
			<path fill="#003468" d="M60.306,36.589c-1.605-0.485-2.648-0.932-3.935-1.448v4.896c0.46-0.219,2.33-0.963,3.935-1.448
				c1.717-0.519,3.275-0.874,4.285-1C63.581,37.462,62.023,37.107,60.306,36.589z"/>
		</g>
	</g>
	<g>
		<g>
			
				<line fill="none" stroke="#003468" stroke-width="1.5132" stroke-linecap="round" stroke-linejoin="round" stroke-miterlimit="10" x1="254.39" y1="132.339" x2="141.589" y2="132.339"/>
			<path fill="#003468" d="M139.444,133.27c1.501,0.453,2.477,0.871,3.681,1.354v-4.58c-0.431,0.205-2.18,0.901-3.681,1.354
				c-1.606,0.486-3.063,0.818-4.008,0.936C136.381,132.453,137.838,132.785,139.444,133.27z"/>
			<path fill="#003468" d="M256.534,131.409c-1.501-0.453-2.477-0.871-3.681-1.354v4.58c0.431-0.205,2.18-0.901,3.681-1.354
				c1.606-0.486,3.063-0.818,4.008-0.936C259.598,132.226,258.141,131.894,256.534,131.409z"/>
		</g>
	</g>
	<g>
		<g>
			
				<line fill="none" stroke="#003468" stroke-width="1.5666" stroke-linecap="round" stroke-linejoin="round" stroke-miterlimit="10" x1="254.39" y1="221.899" x2="141.589" y2="221.899"/>
			<path fill="#003468" d="M139.369,222.862c1.554,0.47,2.564,0.902,3.811,1.402v-4.741c-0.446,0.212-2.257,0.933-3.811,1.402
				c-1.663,0.502-3.171,0.846-4.149,0.969C136.197,222.016,137.706,222.36,139.369,222.862z"/>
			<path fill="#003468" d="M256.609,220.935c-1.554-0.469-2.563-0.901-3.811-1.401v4.741c0.446-0.212,2.257-0.933,3.811-1.402
				c1.663-0.502,3.172-0.846,4.149-0.969C259.781,221.782,258.272,221.438,256.609,220.935z"/>
		</g>
	</g>
	<g>
		<g>
			
				<line fill="none" stroke="#003468" stroke-width="1.5132" stroke-linecap="round" stroke-linejoin="round" stroke-miterlimit="10" x1="254.39" y1="81.637" x2="141.589" y2="81.637"/>
			<path fill="#003468" d="M139.444,82.568c1.501,0.453,2.477,0.871,3.681,1.354v-4.58c-0.431,0.205-2.18,0.901-3.681,1.354
				c-1.606,0.486-3.063,0.818-4.008,0.936C136.381,81.75,137.838,82.083,139.444,82.568z"/>
			<path fill="#003468" d="M256.534,80.707c-1.501-0.453-2.477-0.871-3.681-1.354v4.58c0.431-0.205,2.18-0.901,3.681-1.354
				c1.606-0.486,3.063-0.818,4.008-0.936C259.598,81.524,258.141,81.192,256.534,80.707z"/>
		</g>
	</g>
	<g>
		<g>
			
				<polyline fill="none" stroke="#003468" stroke-width="1.5285" stroke-linecap="round" stroke-linejoin="round" stroke-miterlimit="10" points="
				140.439,170.312 235.174,170.312 235.174,144.983 400.438,144.983 			"/>
			<path fill="#003468" d="M402.604,144.043c-1.517-0.458-2.502-0.88-3.718-1.368v4.626c0.435-0.207,2.201-0.911,3.718-1.368
				c1.623-0.49,3.094-0.826,4.049-0.945C405.698,144.868,404.228,144.533,402.604,144.043z"/>
			<path fill="#003468" d="M138.273,171.251c1.516,0.459,2.502,0.88,3.718,1.368v-4.626c-0.436,0.207-2.202,0.91-3.718,1.368
				c-1.623,0.49-3.094,0.826-4.048,0.945C135.179,170.426,136.65,170.762,138.273,171.251z"/>
		</g>
	</g>
	<g>
		<g>
			
				<polyline fill="none" stroke="#003468" stroke-width="1.5087" stroke-linecap="round" stroke-linejoin="round" stroke-miterlimit="10" points="
				141.589,208.817 248.012,208.817 248.012,158.668 400.438,158.668 			"/>
			<path fill="#003468" d="M402.576,157.741c-1.496-0.452-2.469-0.868-3.67-1.351v4.566c0.43-0.204,2.174-0.898,3.67-1.351
				c1.603-0.483,3.055-0.814,3.996-0.933C405.631,158.555,404.179,158.224,402.576,157.741z"/>
			<path fill="#003468" d="M139.451,209.745c1.497,0.452,2.47,0.868,3.67,1.351v-4.566c-0.429,0.204-2.173,0.898-3.67,1.351
				c-1.602,0.483-3.054,0.814-3.996,0.933C136.396,208.93,137.849,209.261,139.451,209.745z"/>
		</g>
	</g>
	<rect x="64.167" y="269.213" fill="none" width="91.934" height="17.702"/>
	<text transform="matrix(0.9108 0 0 1 68.4868 274.9302)"><tspan x="0" y="0" font-size="7.9882">One or more Client actors </tspan><tspan x="-0.893" y="9.586" font-size="7.9882">will be in the same device.</tspan></text>
	<rect x="319.33" y="269.213" fill="none" width="91.933" height="17.702"/>
	<text transform="matrix(0.9108 0 0 1 322.2354 274.9321)"><tspan x="0" y="0" font-size="7.9882">One or more Server actors </tspan><tspan x="-1.34" y="9.586" font-size="7.9882">may be in the same device.</tspan></text>
	<path fill="none" stroke="#005595" stroke-width="1.8321" stroke-linecap="round" stroke-miterlimit="1" d="M249.669,247.98
		c0,3.746,0.636,3.29,1.9,4.218c1.269,0.928,3.078,1.556,5.435,1.883c2.356,0.328,63.31,0,73.898,0
		c11.504,0,19.587,1.465,24.247,3.412c4.663,1.946,8.057,4.775,10.185,8.487c2.485-3.748,5.412-6.413,8.779-7.996
		c3.372-1.583,7.54-3.558,12.504-3.903c4.968-0.345,67.502,0,78.648,0c6.639,0,10.907-0.136,12.808-1.392
		c1.9-1.255,2.851-0.963,2.851-4.709"/>
	<path fill="none" stroke="#005595" stroke-width="2" stroke-linecap="round" stroke-miterlimit="1" d="M61.84,247.98
		c0,3.746,0.266,3.29,0.794,4.218c0.53,0.928,1.286,1.556,2.27,1.883c0.984,0.328,26.442,0,30.865,0
		c4.805,0,8.181,1.465,10.127,3.412c1.948,1.946,3.365,4.775,4.254,8.487c1.038-3.748,2.261-6.413,3.667-7.996
		c1.408-1.583,3.149-3.558,5.223-3.903c2.075-0.345,28.193,0,32.849,0c2.772,0,4.556-0.136,5.35-1.392
		c0.794-1.255,1.19-0.963,1.19-4.709"/>
</g>
</svg>
