<?xml version="1.0" encoding="utf-8"?>
<!-- $Source: /home/bbennett/pass/archive/DicomXml/docbook/part15/figures/PS3.15_F.1-6.svg,v $ -->
<!-- $Date: 2014/02/18 14:35:29 $ -->
<!-- $Revision: 1.1 $ -->

<!DOCTYPE svg PUBLIC "-//W3C//DTD SVG 1.1//EN" "http://www.w3.org/Graphics/SVG/1.1/DTD/svg11.dtd">

<svg version="1.1" id="Layer_1" xmlns="http://www.w3.org/2000/svg" xmlns:xlink="http://www.w3.org/1999/xlink" x="0px" y="0px"
	 width="495.085px" height="166.866px" viewBox="0 0 495.085 166.866" enable-background="new 0 0 495.085 166.866"
	 xml:space="preserve">

<defs>
    <style type="text/css">
      text {
        font-family: Helvetica, Verdana, san-serif
      }
    </style>
  </defs>

<g>
  <title>
	Figure F1.1-6 Maintain Lease
  </title>
  <desc>
	DICOM PS 3.15-2008 Part 15: Security and System Management Profiles
  </desc>
</g>

<symbol  id="Background_Bounding_Box" viewBox="-247.542 -249.875 495.085 499.749">
	<polygon fill="#F4EED7" points="247.542,-249.875 -247.542,-249.875 -247.542,249.874 247.542,249.874 	"/>
</symbol>
<g>
	
		<use xlink:href="#Background_Bounding_Box"  width="495.085" height="499.749" x="-247.542" y="-249.875" transform="matrix(1 0 0 -0.3339 247.5425 83.4331)" overflow="visible"/>
	<g>
		<path fill="#B2CEE7" d="M318.755,18.647c0-0.992,0.812-1.803,1.803-1.803h59.395c0.991,0,1.803,0.812,1.803,1.803V42.04
			c0,0.992-0.812,1.803-1.803,1.803h-59.395c-0.991,0-1.803-0.812-1.803-1.803V18.647z"/>
		
			<path fill="none" stroke="#010101" stroke-width="0.3756" stroke-linecap="round" stroke-linejoin="round" stroke-miterlimit="10" d="
			M318.755,18.647c0-0.992,0.812-1.803,1.803-1.803h59.395c0.991,0,1.803,0.812,1.803,1.803V42.04c0,0.992-0.812,1.803-1.803,1.803
			h-59.395c-0.991,0-1.803-0.812-1.803-1.803V18.647z"/>
	</g>
	<g>
		<text transform="matrix(0.9288 0 0 1 324.8906 32.519)" font-size="9">DHCP Server</text>
	</g>
	<g>
		<path fill="#B2CEE7" d="M113.33,18.647c0-0.992,0.812-1.803,1.803-1.803h59.394c0.992,0,1.803,0.812,1.803,1.803V42.04
			c0,0.992-0.812,1.803-1.803,1.803h-59.394c-0.992,0-1.803-0.812-1.803-1.803V18.647z"/>
		
			<path fill="none" stroke="#010101" stroke-width="0.3756" stroke-linecap="round" stroke-linejoin="round" stroke-miterlimit="10" d="
			M113.33,18.647c0-0.992,0.812-1.803,1.803-1.803h59.394c0.992,0,1.803,0.812,1.803,1.803V42.04c0,0.992-0.812,1.803-1.803,1.803
			h-59.394c-0.992,0-1.803-0.812-1.803-1.803V18.647z"/>
	</g>
	<g>
		<text transform="matrix(0.9288 0 0 1 121.1387 32.519)" font-size="9">DHCP Client</text>
	</g>
	<circle fill="#CCDFF0" stroke="#010101" stroke-width="0.6316" cx="247.54" cy="114.024" r="36"/>
	<g>
		<text transform="matrix(1 0 0 1 226.752 110.1636)"><tspan x="0" y="0" font-size="11">Maintain</tspan><tspan x="5.803" y="13.2" font-size="11">Lease</tspan></text>
	</g>
	<g>
		<g>
			<line fill="#4E8ABE" x1="279.097" y1="84.034" x2="315.097" y2="48.034"/>
			<path fill="#4E8ABE" d="M315.664,46.597c-0.913,0.49-1.564,0.75-2.354,1.087l2.141,2.14c0.105-0.297,0.598-1.44,1.087-2.353
				c0.524-0.978,1.05-1.813,1.436-2.31C317.478,45.548,316.642,46.073,315.664,46.597z"/>
			<path fill="#4E8ABE" d="M278.529,85.471c0.913-0.489,1.564-0.751,2.354-1.087l-2.141-2.141c-0.105,0.297-0.598,1.44-1.087,2.353
				c-0.524,0.978-1.05,1.813-1.436,2.311C276.716,86.521,277.552,85.996,278.529,85.471z"/>
		</g>
		<g>
			
				<line fill="none" stroke="#005595" stroke-width="1.4951" stroke-linecap="round" stroke-miterlimit="1" x1="279.097" y1="84.034" x2="315.097" y2="48.034"/>
			<path fill="#005595" d="M315.944,45.886c-1.365,0.732-2.339,1.122-3.518,1.625l3.2,3.2c0.157-0.444,0.893-2.153,1.625-3.518
				c0.783-1.462,1.569-2.711,2.146-3.454C318.656,44.316,317.406,45.102,315.944,45.886z"/>
			<path fill="#005595" d="M278.249,86.182c1.365-0.731,2.339-1.121,3.518-1.625l-3.2-3.2c-0.157,0.444-0.893,2.152-1.625,3.518
				c-0.783,1.461-1.569,2.711-2.146,3.454C275.537,87.751,276.787,86.966,278.249,86.182z"/>
		</g>
	</g>
	<g>
		<g>
			<line fill="#4E8ABE" x1="215.985" y1="84.035" x2="179.985" y2="48.035"/>
			<path fill="#4E8ABE" d="M178.548,47.468c0.49,0.914,0.75,1.564,1.087,2.353l2.14-2.14c-0.297-0.105-1.44-0.597-2.353-1.087
				c-0.978-0.524-1.813-1.05-2.31-1.436C177.499,45.655,178.024,46.491,178.548,47.468z"/>
			<path fill="#4E8ABE" d="M217.422,84.602c-0.49-0.913-0.75-1.564-1.087-2.353l-2.14,2.14c0.297,0.106,1.44,0.598,2.353,1.088
				c0.978,0.523,1.813,1.049,2.31,1.436C218.471,86.416,217.946,85.58,217.422,84.602z"/>
		</g>
		<g>
			
				<line fill="none" stroke="#005595" stroke-width="1.4951" stroke-linecap="round" stroke-miterlimit="1" x1="215.985" y1="84.035" x2="179.985" y2="48.035"/>
			<path fill="#005595" d="M177.836,47.187c0.732,1.366,1.122,2.339,1.625,3.518l3.2-3.2c-0.444-0.158-2.153-0.894-3.518-1.625
				c-1.462-0.784-2.711-1.569-3.454-2.146C176.267,44.476,177.053,45.726,177.836,47.187z"/>
			<path fill="#005595" d="M218.133,84.883c-0.732-1.366-1.122-2.339-1.625-3.518l-3.2,3.2c0.444,0.158,2.153,0.894,3.518,1.626
				c1.462,0.783,2.711,1.568,3.454,2.146C219.703,87.594,218.917,86.344,218.133,84.883z"/>
		</g>
	</g>
</g>
</svg>
