<?xml version="1.0" encoding="utf-8"?>
<!-- $Source: /home/bbennett/pass/archive/DicomXml/docbook/part15/figures/PS3.15_H.1-4.svg,v $ -->
<!-- $Date: 2014/02/18 14:35:29 $ -->
<!-- $Revision: 1.1 $ -->

<!DOCTYPE svg PUBLIC "-//W3C//DTD SVG 1.1//EN" "http://www.w3.org/Graphics/SVG/1.1/DTD/svg11.dtd">

<svg version="1.1" id="Layer_1" xmlns="http://www.w3.org/2000/svg" xmlns:xlink="http://www.w3.org/1999/xlink" x="0px" y="0px"
	 width="495.085px" height="155.872px" viewBox="0 0 495.085 155.872" enable-background="new 0 0 495.085 155.872"
	 xml:space="preserve">

<defs>
    <style type="text/css">
      text {
        font-family: Helvetica, Verdana, san-serif
      }
    </style>
  </defs>

<g>
  <title>
	Figure H.1-4 Select LDAP Server
  </title>
  <desc>
	DICOM PS 3.15-2008 Part 15: Security and System Management Profiles
  </desc>
</g>

<symbol  id="Background_Bounding_Box" viewBox="-247.542 -249.875 495.085 499.749">
	<polygon fill="#F4EED7" points="247.542,-249.875 -247.542,-249.875 -247.542,249.874 247.542,249.874 	"/>
</symbol>
<g>
	
		<use xlink:href="#Background_Bounding_Box"  width="495.085" height="499.749" x="-247.542" y="-249.875" transform="matrix(1 0 0 -0.3119 247.5425 77.9355)" overflow="visible"/>
	
		<line fill="none" stroke="#005595" stroke-linecap="round" stroke-miterlimit="1" x1="151.865" y1="68.045" x2="325.745" y2="68.045"/>
	
		<line fill="none" stroke="#005595" stroke-linecap="round" stroke-miterlimit="1" x1="333.682" y1="92.023" x2="159.481" y2="92.023"/>
	
		<line fill="#4E8ABE" stroke="#005595" stroke-linecap="round" stroke-miterlimit="1" stroke-dasharray="3" x1="147.38" y1="142.195" x2="147.38" y2="33.827"/>
	
		<path fill="#CCDFF0" stroke="#010101" stroke-width="0.75" stroke-linecap="round" stroke-linejoin="round" stroke-miterlimit="1" d="
		M124.879,15.118h45.001v27h-45.001V15.118z"/>
	<text transform="matrix(1 0 0 1 135.6304 26.686)"><tspan x="0" y="0" font-size="9">LDAP</tspan><tspan x="0.25" y="10.8" font-size="9">Client</tspan></text>
	
		<line fill="#4E8ABE" stroke="#005595" stroke-linecap="round" stroke-miterlimit="1" stroke-dasharray="3" x1="338.71" y1="142.195" x2="338.71" y2="33.827"/>
	
		<path fill="#CCDFF0" stroke="#010101" stroke-width="0.75" stroke-linecap="round" stroke-linejoin="round" stroke-miterlimit="1" d="
		M307.206,15.118h63v27h-63V15.118z"/>
	<text transform="matrix(1 0 0 1 329.7119 25.0854)"><tspan x="0" y="0" font-size="9">DNS</tspan><tspan x="-3.754" y="10.8" font-size="9">Server</tspan></text>
	<text transform="matrix(1 0 0 1 169.9902 64.4146)"><tspan x="0" y="0" font-size="8">1. Request all LDAP Servers</tspan><tspan x="0" y="24.601" font-size="8">2.List of servers, priority, ports, etc.</tspan><tspan x="0" y="49.2" font-size="8">3. Select Server</tspan></text>
	
		<rect x="142.91" y="54.057" fill="#CCDFF0" stroke="#010101" stroke-width="0.75" stroke-linecap="round" stroke-linejoin="round" stroke-miterlimit="1" width="9" height="41.296"/>
	
		<rect x="142.91" y="105.019" fill="#CCDFF0" stroke="#010101" stroke-width="0.75" stroke-linecap="round" stroke-linejoin="round" stroke-miterlimit="1" width="9" height="28"/>
	
		<rect x="334.354" y="55.808" fill="#CCDFF0" stroke="#010101" stroke-width="0.75" stroke-linecap="round" stroke-linejoin="round" stroke-miterlimit="1" width="9" height="45"/>
	<polyline fill="none" stroke="#005595" stroke-linecap="round" stroke-miterlimit="1" points="153.367,111.394 165.398,111.394 
		165.398,126.531 159.481,126.531 	"/>
</g>
</svg>
