<?xml version="1.0" encoding="utf-8"?>
<!-- $Source: /home/bbennett/pass/archive/DicomXml/docbook/part08/figures/PS3.8_9-1.svg,v $ -->
<!-- $Date: 2014/05/09 12:27:08 $ -->
<!-- $Revision: 1.2 $ -->

<!DOCTYPE svg PUBLIC "-//W3C//DTD SVG 1.1//EN" "http://www.w3.org/Graphics/SVG/1.1/DTD/svg11.dtd">
<svg version="1.1" id="Layer_1" xmlns="http://www.w3.org/2000/svg" xmlns:xlink="http://www.w3.org/1999/xlink" x="0px" y="0px"
	 width="502px" height="502px" viewBox="0 0 502 502" enable-background="new 0 0 502 502" xml:space="preserve">

<defs>
	<style type="text/css">
	text {
	  font-family: Helvetica, Verdana, ArialUnicodeMS, san-serif
	}
	</style>
</defs>

<g>
   <desc>
	PS 3.8 Network Communication Support for Message Exchange
   </desc>
</g>

<g>
	<rect x="1" y="1" fill="#F6F0D8" width="500" height="500"/>
	<g>
		<g>
			<g>
				<g>
					<text transform="matrix(0.8815 0 0 1 12.7373 487.6514)" font-size="7">Note: All field sizes in bytes</text>
				</g>
				<rect x="13.13" y="108.146" fill="#CCDEF0" stroke="#000000" width="476.133" height="371.748"/>
				<g>
					<path fill="none" stroke="#000000" stroke-linecap="square" stroke-linejoin="bevel" stroke-dasharray="4" d="M161.701,392.596
						c0,0,3.141,5.899-16.304,11.585c-8.711,2.547-8.024,3.365-87.104,6.005"/>
					<path fill="none" stroke="#000000" stroke-linecap="square" stroke-linejoin="bevel" stroke-dasharray="4" d="M299.659,392.625
						c0,0-2.047,4.579,19.734,10.255c19.271,5.021,96.104,7.306,96.104,7.306"/>
					<g>
						<text transform="matrix(0.8815 0 0 1 73.7441 400.6973)" font-size="7">1</text>
					</g>
					<g>
						<text transform="matrix(0.8815 0 0 1 109.937 400.6973)" font-size="7">1</text>
					</g>
					<g>
						<text transform="matrix(0.8815 0 0 1 143.9478 400.6973)" font-size="7">2</text>
					</g>
					<rect x="58.293" y="367.704" fill="none" stroke="#000000" width="241.366" height="24.921"/>
					<line fill="none" stroke="#000000" x1="161.71" y1="367.704" x2="161.71" y2="392.625"/>
					<rect x="92.766" y="367.704" fill="#4F8ABE" stroke="#000000" width="34.473" height="24.921"/>
					<g>
						<text transform="matrix(0.8815 0 0 1 68.3242 377.7773)"><tspan x="0" y="0" font-size="7">Item</tspan><tspan x="-0.974" y="8.4" font-size="7">Type</tspan></text>
					</g>
					<g>
						<text transform="matrix(0.8815 0 0 1 138.5283 377.7773)"><tspan x="0" y="0" font-size="7">Item</tspan><tspan x="-3.898" y="8.4" font-size="7">Length</tspan></text>
					</g>
					<rect x="58.293" y="410.186" fill="#B2CEE7" stroke="#000000" width="357.204" height="44.908"/>
					<rect x="101.778" y="418.493" fill="none" stroke="#000000" width="241.367" height="24.921"/>
					<line fill="none" stroke="#000000" x1="205.196" y1="418.493" x2="205.196" y2="443.414"/>
					<rect x="136.251" y="418.493" fill="#4F8ABE" stroke="#000000" width="34.473" height="24.921"/>
					<g>
						<text transform="matrix(0.8815 0 0 1 68.0918 424.1455)"><tspan x="0" y="0" font-size="7">Maximum</tspan><tspan x="4.462" y="8.399" font-size="7">Length</tspan><tspan x="8.361" y="16.8" font-size="7">Item</tspan></text>
					</g>
					<g>
						<text transform="matrix(0.8815 0 0 1 111.8101 428.5762)"><tspan x="0" y="0" font-size="7">Item</tspan><tspan x="-0.974" y="8.4" font-size="7">Type</tspan></text>
					</g>
					<g>
						<text transform="matrix(0.8815 0 0 1 182.0142 428.5762)"><tspan x="0" y="0" font-size="7">Item</tspan><tspan x="-3.898" y="8.4" font-size="7">Length</tspan></text>
					</g>
					<g>
						<text transform="matrix(0.8815 0 0 1 256.0801 428.5762)"><tspan x="0" y="0" font-size="7">Max. Length</tspan><tspan x="4.67" y="8.4" font-size="7">Received</tspan></text>
					</g>
					<g>
						<text transform="matrix(0.8815 0 0 1 349.6699 433.0059)" fill="#003468" font-size="7">(only one)</text>
					</g>
					<g>
						<text transform="matrix(0.8815 0 0 1 307.2129 381.3184)" fill="#003468" font-size="7">(only one)</text>
					</g>
					<rect x="161.71" y="367.704" fill="#B2CEE7" stroke="#000000" width="137.949" height="24.921"/>
					<g>
						<text transform="matrix(0.8815 0 0 1 208.6548 373.3467)"><tspan x="0" y="0" font-size="7">(Variable Field)</tspan><tspan x="-9.926" y="8.399" font-size="7">Contains one or more</tspan><tspan x="-6.032" y="16.8" font-size="7">Items shown below</tspan></text>
					</g>
					<g>
						<text transform="matrix(0.8815 0 0 1 114.3564 451.7207)" font-size="7">1</text>
					</g>
					<g>
						<text transform="matrix(0.8815 0 0 1 150.5493 451.7207)" font-size="7">1</text>
					</g>
					<g>
						<text transform="matrix(0.8815 0 0 1 184.5601 451.7207)" font-size="7">2</text>
					</g>
					<g>
						<text transform="matrix(0.8815 0 0 1 271.3438 451.7207)" font-size="7">4</text>
					</g>
					<g>
						<text transform="matrix(0.8815 0 0 1 32.1509 373.3643)"><tspan x="0" y="0" font-size="7">User</tspan><tspan x="1.551" y="8.4" font-size="7">Info</tspan><tspan x="0.583" y="16.8" font-size="7">Item</tspan></text>
					</g>
				</g>
				<g>
					<path fill="none" stroke="#000000" stroke-linecap="square" stroke-linejoin="bevel" stroke-dasharray="4" d="M302.146,211.406
						c0,0-0.236,9.417-24.127,13.805c-12.594,2.312-49.514,4.304-219.726,9.004"/>
					<path fill="none" stroke="#000000" stroke-linecap="square" stroke-linejoin="bevel" stroke-dasharray="4" d="M439.284,211.406
						c0,0,0.42,5.948-4.047,13.318c-3.953,6.522-19.709,9.49-19.709,9.49"/>
					<g>
						<text transform="matrix(0.8815 0 0 1 72.8286 220.0732)" font-size="7">1</text>
					</g>
					<g>
						<text transform="matrix(0.8815 0 0 1 109.0215 220.0732)" font-size="7">1</text>
					</g>
					<g>
						<text transform="matrix(0.8815 0 0 1 143.0322 220.0732)" font-size="7">2</text>
					</g>
					<g>
						<text transform="matrix(0.8815 0 0 1 177.2393 220.0732)" font-size="7">1</text>
					</g>
					<g>
						<text transform="matrix(0.8815 0 0 1 212.9482 220.0732)" font-size="7">1</text>
					</g>
					<g>
						<text transform="matrix(0.8815 0 0 1 246.9263 220.0732)" font-size="7">1</text>
					</g>
					<g>
						<text transform="matrix(0.8815 0 0 1 281.5391 220.0732)" font-size="7">1</text>
					</g>
					<rect x="58.412" y="186.706" fill="none" stroke="#000000" width="380.776" height="24.921"/>
					<rect x="267.893" y="186.706" fill="#4F8ABE" stroke="#000000" width="34.315" height="24.921"/>
					<rect x="196.834" y="186.706" fill="#4F8ABE" stroke="#000000" width="32.875" height="24.921"/>
					<line fill="none" stroke="#000000" x1="162.252" y1="186.706" x2="162.252" y2="211.627"/>
					<rect x="92.994" y="186.706" fill="#4F8ABE" stroke="#000000" width="34.676" height="24.921"/>
					<g>
						<text transform="matrix(0.8815 0 0 1 67.7192 196.7969)"><tspan x="0" y="0" font-size="7">Item</tspan><tspan x="-0.974" y="8.4" font-size="7">Type</tspan></text>
					</g>
					<g>
						<text transform="matrix(0.8815 0 0 1 137.9233 196.7969)"><tspan x="0" y="0" font-size="7">Item</tspan><tspan x="-3.898" y="8.4" font-size="7">Length</tspan></text>
					</g>
					<g>
						<text transform="matrix(0.8815 0 0 1 172.2031 196.7969)"><tspan x="0" y="0" font-size="7">Pres.</tspan><tspan x="-8.365" y="8.4" font-size="7">Context ID</tspan></text>
					</g>
					<g>
						<text transform="matrix(0.8815 0 0 1 444.4961 202.5391)" fill="#003468" font-size="7">(one or more)</text>
					</g>
					<rect x="302.031" y="186.706" fill="#B2CEE7" stroke="#000000" width="136.87" height="24.921"/>
					<rect x="58.412" y="234.215" fill="#B2CEE7" stroke="#000000" width="357.204" height="92.927"/>
					<rect x="101.898" y="242.512" fill="none" stroke="#000000" width="241.366" height="24.921"/>
					<line fill="none" stroke="#000000" x1="205.315" y1="242.512" x2="205.315" y2="267.433"/>
					<rect x="136.371" y="242.512" fill="#4F8ABE" stroke="#000000" width="34.473" height="24.921"/>
					<g>
						<text transform="matrix(0.8815 0 0 1 70.2651 248.167)"><tspan x="0" y="0" font-size="7">Abstract</tspan><tspan x="2.137" y="8.4" font-size="7">Syntax</tspan><tspan x="5.058" y="16.8" font-size="7">IItem</tspan></text>
					</g>
					<g>
						<text transform="matrix(0.8815 0 0 1 111.9297 252.5977)"><tspan x="0" y="0" font-size="7">Item</tspan><tspan x="-0.974" y="8.4" font-size="7">Type</tspan></text>
					</g>
					<g>
						<text transform="matrix(0.8815 0 0 1 182.1338 252.5977)"><tspan x="0" y="0" font-size="7">Item</tspan><tspan x="-3.898" y="8.4" font-size="7">Length</tspan></text>
					</g>
					<g>
						<text transform="matrix(0.8815 0 0 1 248.8071 257.0283)" font-size="7">Abstract Syntax</text>
					</g>
					<g>
						<text transform="matrix(0.8815 0 0 1 248.6343 305.0244)" font-size="7">Transfer Syntax</text>
					</g>
					<g>
						<text transform="matrix(0.8815 0 0 1 349.79 252.5977)"><tspan x="0" y="0" fill="#003468" font-size="7">(only one in RQ)</tspan><tspan x="0" y="8.4" fill="#003468" font-size="7">(not present in AC)</tspan></text>
					</g>
					<rect x="101.898" y="291.026" fill="none" stroke="#000000" width="241.366" height="24.921"/>
					<line fill="none" stroke="#000000" x1="205.315" y1="291.026" x2="205.315" y2="315.947"/>
					<rect x="136.371" y="291.026" fill="#4F8ABE" stroke="#000000" width="34.473" height="24.921"/>
					<g>
						<text transform="matrix(0.8815 0 0 1 70.0947 296.6826)"><tspan x="0" y="0" font-size="7">Transfer</tspan><tspan x="4.278" y="8.4" font-size="7">Syntx</tspan><tspan x="6.224" y="16.8" font-size="7">Item</tspan></text>
					</g>
					<g>
						<text transform="matrix(0.8815 0 0 1 111.9297 301.1123)"><tspan x="0" y="0" font-size="7">Item</tspan><tspan x="-0.974" y="8.4" font-size="7">Type</tspan></text>
					</g>
					<g>
						<text transform="matrix(0.8815 0 0 1 182.1338 301.1123)"><tspan x="0" y="0" font-size="7">Item</tspan><tspan x="-3.898" y="8.4" font-size="7">Length</tspan></text>
					</g>
					<g>
						<text transform="matrix(0.8815 0 0 1 349.79 301.1123)"><tspan x="0" y="0" fill="#003468" font-size="7">(one or more in RQ)</tspan><tspan x="0" y="8.4" fill="#003468" font-size="7">(only one in AC)</tspan></text>
					</g>
					<g>
						<text transform="matrix(0.8815 0 0 1 349.5674 192.3662)"><tspan x="0" y="0" font-size="7">(Variable Field)</tspan><tspan x="-9.926" y="8.4" font-size="7">Contains one or more</tspan><tspan x="-6.033" y="16.8" font-size="7">Items shown below</tspan></text>
					</g>
					<g>
						<text transform="matrix(0.8815 0 0 1 115.2871 276.376)" font-size="7">1</text>
					</g>
					<g>
						<text transform="matrix(0.8815 0 0 1 151.4795 276.376)" font-size="7">1</text>
					</g>
					<g>
						<text transform="matrix(0.8815 0 0 1 185.4907 276.376)" font-size="7">2</text>
					</g>
					<g>
						<text transform="matrix(0.8815 0 0 1 262.5186 276.376)" font-size="7">&lt;= 64</text>
					</g>
					<g>
						<text transform="matrix(0.8815 0 0 1 115.2871 323.4502)" font-size="7">1</text>
					</g>
					<g>
						<text transform="matrix(0.8815 0 0 1 151.4795 323.4502)" font-size="7">1</text>
					</g>
					<g>
						<text transform="matrix(0.8815 0 0 1 185.4907 323.4502)" font-size="7">2</text>
					</g>
					<g>
						<text transform="matrix(0.8815 0 0 1 262.5186 323.4502)" font-size="7">&lt;= 64</text>
					</g>
					<g>
						<text transform="matrix(0.8815 0 0 1 239.2856 192.7998)"><tspan x="0" y="0" font-size="7">Result/</tspan><tspan x="-1.171" y="8.4" font-size="7">Reason</tspan><tspan x="-9.919" y="16.8" font-size="7">(used for AC)</tspan></text>
					</g>
					<g>
						<text transform="matrix(0.8815 0 0 1 21.2983 192.3486)"><tspan x="0" y="0" font-size="7">Presentation</tspan><tspan x="7.589" y="8.4" font-size="7">Context</tspan><tspan x="12.845" y="16.8" font-size="7">Item</tspan></text>
					</g>
				</g>
				<g>
					<g>
						<text transform="matrix(0.8815 0 0 1 23.5713 116.9438)"><tspan x="0" y="0" font-size="7">Application</tspan><tspan x="5.06" y="8.4" font-size="7">Context</tspan><tspan x="10.315" y="16.8" font-size="7">Item</tspan></text>
					</g>
					<g>
						<text transform="matrix(0.8815 0 0 1 73.7441 143.8364)" font-size="7">1</text>
					</g>
					<g>
						<text transform="matrix(0.8815 0 0 1 109.937 143.8364)" font-size="7">1</text>
					</g>
					<g>
						<text transform="matrix(0.8815 0 0 1 143.9478 143.8364)" font-size="7">2</text>
					</g>
					<g>
						<text transform="matrix(0.8815 0 0 1 221.6792 143.8364)" font-size="7">&lt;= 64</text>
					</g>
					<rect x="58.293" y="111.291" fill="none" stroke="#000000" width="241.366" height="24.922"/>
					<line fill="none" stroke="#000000" x1="161.71" y1="111.291" x2="161.71" y2="136.213"/>
					<rect x="92.766" y="111.291" fill="#4F8ABE" stroke="#000000" width="34.473" height="24.922"/>
					<g>
						<text transform="matrix(0.8815 0 0 1 68.3242 121.3745)"><tspan x="0" y="0" font-size="7">Item</tspan><tspan x="-0.974" y="8.4" font-size="7">Type</tspan></text>
					</g>
					<g>
						<text transform="matrix(0.8815 0 0 1 138.5283 121.3745)"><tspan x="0" y="0" font-size="7">Item</tspan><tspan x="-3.898" y="8.4" font-size="7">Length</tspan></text>
					</g>
					<g>
						<text transform="matrix(0.8815 0 0 1 193.9028 125.8047)" font-size="7">Application Context Name</text>
					</g>
					<g>
						<text transform="matrix(0.8815 0 0 1 307.2129 125.3799)" fill="#003468" font-size="7">(only one)</text>
					</g>
				</g>
			</g>
		</g>
		<g>
			<rect x="13.13" y="26.188" fill="#FFFFFF" stroke="#000000" width="431.968" height="46.66"/>
			<g>
				<text transform="matrix(0.8815 0 0 1 13.1387 21.0435)" font-size="10">A-ASSOCIATE-RQ PDU/A-ASSOCIATE-AC PDU</text>
			</g>
			<path fill="none" stroke="#000000" stroke-linecap="square" stroke-linejoin="bevel" stroke-dasharray="4" d="M297.772,59.416
				c0,0,5.03,12.707-48.492,28.456c-47.352,13.934-236.15,20.274-236.15,20.274"/>
			<path fill="none" stroke="#000000" stroke-linecap="square" stroke-linejoin="bevel" stroke-dasharray="4" d="M435.76,59.416
				c0,0-0.941,12.722,9.07,28.489c8.858,13.95,44.173,20.298,44.173,20.298"/>
			<rect x="20.836" y="34.495" fill="#FFFFFF" stroke="#000000" width="415.354" height="24.921"/>
			<rect x="263.092" y="34.495" fill="#4F8ABE" stroke="#000000" width="34.681" height="24.921"/>
			<line fill="#FFFFFF" stroke="#000000" x1="228.513" y1="34.495" x2="228.513" y2="59.416"/>
			<rect x="159.253" y="34.495" fill="#4F8ABE" stroke="#000000" width="34.682" height="24.921"/>
			<line fill="#FFFFFF" stroke="#000000" x1="124.675" y1="34.495" x2="124.675" y2="59.416"/>
			<rect x="55.415" y="34.495" fill="#4F8ABE" stroke="#000000" width="34.681" height="24.921"/>
			<g>
				<text transform="matrix(0.8815 0 0 1 100.5581 44.5811)"><tspan x="0" y="0" font-size="7">PDU</tspan><tspan x="-3.316" y="8.4" font-size="7">Length</tspan></text>
			</g>
			<g>
				<text transform="matrix(0.8815 0 0 1 129.9604 44.5811)"><tspan x="0" y="0" font-size="7">Protocol</tspan><tspan x="0.972" y="8.4" font-size="7">Version</tspan></text>
			</g>
			<g>
				<text transform="matrix(0.8815 0 0 1 202.2188 40.1504)"><tspan x="0" y="0" font-size="7">Called</tspan><tspan x="1.169" y="8.4" font-size="7">Entity</tspan><tspan x="3.311" y="16.8" font-size="7">Title</tspan></text>
			</g>
			<g>
				<text transform="matrix(0.8815 0 0 1 236.146 40.1504)"><tspan x="0" y="0" font-size="7">Calling</tspan><tspan x="1.947" y="8.4" font-size="7">Entity</tspan><tspan x="4.088" y="16.8" font-size="7">Title</tspan></text>
			</g>
			<g>
				<text transform="matrix(0.8815 0 0 1 30.354 44.5811)"><tspan x="0" y="0" font-size="7">PDU</tspan><tspan x="-0.392" y="8.4" font-size="7">Type</tspan></text>
			</g>
			<g>
				<text transform="matrix(0.8815 0 0 1 35.1523 66.8442)" font-size="7">1</text>
			</g>
			<g>
				<text transform="matrix(0.8815 0 0 1 71.3452 66.8442)" font-size="7">1</text>
			</g>
			<g>
				<text transform="matrix(0.8815 0 0 1 105.356 66.8442)" font-size="7">4</text>
			</g>
			<g>
				<text transform="matrix(0.8815 0 0 1 139.563 66.8442)" font-size="7">2</text>
			</g>
			<g>
				<text transform="matrix(0.8815 0 0 1 175.272 66.8442)" font-size="7">1</text>
			</g>
			<g>
				<text transform="matrix(0.8815 0 0 1 207.5342 66.8442)" font-size="7">16</text>
			</g>
			<g>
				<text transform="matrix(0.8815 0 0 1 242.1465 66.8442)" font-size="7">16</text>
			</g>
			<g>
				<text transform="matrix(0.8815 0 0 1 276.6611 66.8442)" font-size="7">32</text>
			</g>
			<rect x="297.772" y="34.495" fill="#CCDEF0" stroke="#000000" width="138.417" height="24.921"/>
			<g>
				<text transform="matrix(0.8815 0 0 1 346.5693 40.1504)"><tspan x="0" y="0" font-size="7">(Variable Field)</tspan><tspan x="-9.926" y="8.4" font-size="7">Contains one or more</tspan><tspan x="-6.033" y="16.8" font-size="7">Items shown below</tspan></text>
			</g>
		</g>
	</g>
</g>
</svg>
