<?xml version="1.0" encoding="utf-8"?>
<!-- $Source: /home/bbennett/pass/archive/DicomXml/docbook/part08/figures/PS3.8_7-4.svg,v $ -->
<!-- $Date: 2014/05/09 12:27:08 $ -->
<!-- $Revision: 1.2 $ -->

<!DOCTYPE svg PUBLIC "-//W3C//DTD SVG 1.1//EN" "http://www.w3.org/Graphics/SVG/1.1/DTD/svg11.dtd">
<svg version="1.1" id="Layer_1" xmlns="http://www.w3.org/2000/svg" xmlns:xlink="http://www.w3.org/1999/xlink" x="0px" y="0px"
	 width="502px" height="152px" viewBox="0 0 502 152" enable-background="new 0 0 502 152" xml:space="preserve">

<defs>
	<style type="text/css">
	text {
	  font-family: Helvetica, Verdana, ArialUnicodeMS, san-serif
	}
	</style>
</defs>

<g>
   <desc>
	PS 3.8 Network Communication Support for Message Exchange
   </desc>
</g>

<g>
	<rect x="1" y="1" fill="#F6F0D8" width="500" height="150"/>
	<g>
		<rect x="75.577" y="17.254" fill="#FFFFFF" width="105.958" height="117.676"/>
		<rect x="181.535" y="17.254" fill="#CCDEF0" width="134.5" height="117.676"/>
		<rect x="315.535" y="17.254" fill="#B2CEE7" width="111.041" height="117.676"/>
		<g>
			<text transform="matrix(0.8815 0 0 1 225.0166 41.3408)"><tspan x="0" y="0" font-size="11">DICOM UL</tspan><tspan x="-13.457" y="13.2" font-size="11">Service Provider</tspan></text>
		</g>
		<g>
			<text transform="matrix(0.8815 0 0 1 106.1226 41.3408)" font-size="11">Requestor</text>
		</g>
		<g>
			<text transform="matrix(0.8815 0 0 1 432.8926 87.5908)"><tspan x="0" y="0" font-size="11">A-P-ABORT</tspan><tspan x="6.709" y="13.2" font-size="11">indication</tspan></text>
		</g>
		<g>
			<text transform="matrix(0.8815 0 0 1 351.8633 41.3408)" font-size="11">Acceptor</text>
		</g>
		<g>
			<text transform="matrix(0.8815 0 0 1 300.4111 128.9834)" font-size="11">( SAP )</text>
		</g>
		<g>
			<text transform="matrix(0.8815 0 0 1 166.4111 128.9834)" font-size="11">( SAP )</text>
		</g>
		
			<line fill="#4F8ABE" stroke="#005695" stroke-width="4" stroke-linecap="round" stroke-miterlimit="1" x1="316.035" y1="113.336" x2="316.035" y2="17.07"/>
		
			<line fill="#4F8ABE" stroke="#005695" stroke-width="4" stroke-linecap="round" stroke-miterlimit="1" x1="181.535" y1="113.336" x2="181.535" y2="17.07"/>
		
			<line fill="#4F8ABE" stroke="#005695" stroke-width="2" stroke-linecap="round" stroke-miterlimit="1" stroke-dasharray="4" x1="311.035" y1="71.036" x2="186.535" y2="71.036"/>
		<g>
			<text transform="matrix(0.8815 0 0 1 16.3188 86.0098)"><tspan x="0" y="0" font-size="11">A-P-ABORT</tspan><tspan x="6.708" y="13.199" font-size="11">indication</tspan></text>
		</g>
		<g>
			<g>
				<line fill="none" stroke="#005695" stroke-width="2" stroke-miterlimit="1" x1="84.753" y1="86.983" x2="180.321" y2="71.105"/>
				<g>
					<polygon fill="#005695" points="87.184,89.524 76.014,88.436 86.232,83.793 					"/>
				</g>
			</g>
		</g>
		<g>
			<g>
				
					<line fill="none" stroke="#005695" stroke-width="2" stroke-miterlimit="1" x1="318.305" y1="71.542" x2="413.874" y2="87.425"/>
				<g>
					<polygon fill="#005695" points="411.442,89.966 422.613,88.877 412.396,84.233 					"/>
				</g>
			</g>
		</g>
	</g>
</g>
</svg>
