<?xml version="1.0" encoding="utf-8"?>
<!-- $Source: /home/bbennett/pass/archive/DicomXml/docbook/part08/figures/PS3.8_G-1.svg,v $ -->
<!-- $Date: 2014/05/09 12:27:08 $ -->
<!-- $Revision: 1.2 $ -->

<!DOCTYPE svg PUBLIC "-//W3C//DTD SVG 1.1//EN" "http://www.w3.org/Graphics/SVG/1.1/DTD/svg11.dtd">
<svg version="1.1" id="Layer_1" xmlns="http://www.w3.org/2000/svg" xmlns:xlink="http://www.w3.org/1999/xlink" x="0px" y="0px"
	 width="502px" height="222px" viewBox="0 0 502 222" enable-background="new 0 0 502 222" xml:space="preserve">

<defs>
	<style type="text/css">
	text {
	  font-family: Helvetica, Verdana, ArialUnicodeMS, san-serif
	}
	</style>
</defs>

<g>
   <desc>
	PS 3.8 Network Communication Support for Message Exchange
   </desc>
</g>

<g>
	<rect x="1" y="1" fill="#F6F0D8" width="500" height="220"/>
	<g>
		<path fill="#6799C8" stroke="#6799C8" d="M69.688,14.595h362.623v38.562H69.688V14.595z"/>
		<path fill="#86B2D8" stroke="#86B2D8" d="M69.688,91.719h362.623v38.562H69.688V91.719z"/>
		<path fill="#CCDEF0" stroke="#CCDEF0" d="M69.688,168.843h362.623v38.562H69.688V168.843z"/>
		
			<polygon fill="#FFFFFF" stroke="#005695" stroke-width="2" stroke-linecap="round" stroke-linejoin="round" stroke-miterlimit="1" points="
			245.794,91.557 255.261,91.557 255.261,66.596 261.462,66.596 250.995,53.874 240.538,66.596 245.794,66.596 		"/>
		
			<polygon fill="#FFFFFF" stroke="#005695" stroke-width="2" stroke-linecap="round" stroke-linejoin="round" stroke-miterlimit="1" points="
			324.68,120.216 324.68,129.535 344.599,111.011 324.68,92.467 324.68,103.72 180.204,103.72 180.204,92.467 158.119,111.011 
			180.204,129.535 180.204,120.216 		"/>
		<g>
			<text transform="matrix(1 0 0 1 273.2178 74.6582)" font-size="10">Service provided to the layer above</text>
		</g>
		
			<polygon fill="#FFFFFF" stroke="#005695" stroke-width="2" stroke-linecap="round" stroke-linejoin="round" stroke-miterlimit="1" points="
			245.794,168.16 255.261,168.16 255.261,143.929 261.462,143.929 250.995,131.207 240.538,143.929 245.794,143.929 		"/>
		<g>
			<text transform="matrix(1 0 0 1 271.0586 151.9922)" font-size="10">Service provided by the layer below</text>
		</g>
		<g>
			<text transform="matrix(1 0 0 1 200.353 114.0625)" font-size="10">Protocol within a Layer</text>
		</g>
	</g>
</g>
</svg>
