<svg xmlns="http://www.w3.org/2000/svg" width="29" height="29" viewBox="0 0 29 29"><g transform="translate(0 -11)"><g transform="translate(0 11)" fill="#fff" stroke="#d8d8d8" stroke-width="1"><rect width="29" height="29" rx="8" stroke="none"/><rect x="0.5" y="0.5" width="28" height="28" rx="7.5" fill="none"/></g><g transform="translate(5.32 12.166)"><path d="M11.377,15.8a5.763,5.763,0,0,1-2.11-.4,5.775,5.775,0,0,1-2.007.362,5.911,5.911,0,0,1-1.124-.109,5.358,5.358,0,0,1-1.606-.4A6.407,6.407,0,0,1,2.7,14.069a7.713,7.713,0,0,1-1.471-1.827,8.927,8.927,0,0,1-.955-2.36,9.232,9.232,0,0,1-.27-2.537C-.005,3.811,2.044.867,4.99.187A5.748,5.748,0,0,1,6.281.04,6.047,6.047,0,0,1,8.44.446c.485.289,4.719,3.012,3.939,9.485a6.813,6.813,0,0,0,1.1-3.266A6.88,6.88,0,0,0,12.991,3.6,5.069,5.069,0,0,0,9.7.437,5.879,5.879,0,0,1,11.907,0a5.775,5.775,0,0,1,.7.043c3.665.45,6.215,4.341,5.683,8.672a8.752,8.752,0,0,1-2.37,5.065A6.392,6.392,0,0,1,11.377,15.8Z" transform="translate(0 5.87)"/><path d="M8.08,1.778C4.327,5.256,0,1.61,0,1.61S4.391-2.122,8.08,1.778Z" transform="matrix(0.966, 0.259, -0.259, 0.966, 1.409, 0)"/></g></g></svg>