<?xml version="1.0" encoding="utf-8"?>
<!-- $Source: /home/bbennett/pass/archive/DicomXml/docbook/part04/figures/PS3.4_V.6-2.svg,v $ -->
<!-- $Date: 2014/05/09 12:27:09 $ -->
<!-- $Revision: 1.2 $ -->

<!DOCTYPE svg PUBLIC "-//W3C//DTD SVG 1.1//EN" "http://www.w3.org/Graphics/SVG/1.1/DTD/svg11.dtd">
<svg version="1.1" id="Layer_1" xmlns="http://www.w3.org/2000/svg" xmlns:xlink="http://www.w3.org/1999/xlink" x="0px" y="0px"
	 width="502px" height="467px" viewBox="0 0 502 467" enable-background="new 0 0 502 467" xml:space="preserve">


<defs>
	<style type="text/css">
	text {
	  font-family: Helvetica, Verdana, ArialUnicodeMS, san-serif
	}
	</style>
</defs>

<g>
   <desc>
	PS 3.4 Service Class Specifications
   </desc>
</g>

<g>
	<rect x="1" y="1" fill="#F5EED6" width="500" height="465"/>
	<g>
		
			<rect x="197.158" y="114.877" fill="#86B2D8" stroke="#010101" stroke-width="0.75" stroke-linecap="round" stroke-linejoin="round" stroke-miterlimit="1" width="108" height="22.5"/>
		<g>
			<text transform="matrix(1 0 0 1 200.1309 128.6367)"  font-size="9">Substance Administration</text>
		</g>
		
			<rect x="209.156" y="329.608" fill="#86B2D8" stroke="#010101" stroke-width="0.75" stroke-linecap="round" stroke-linejoin="round" stroke-miterlimit="1" width="84.003" height="22.5"/>
		<g>
			<text transform="matrix(1 0 0 1 232.4785 344.2012)"  font-size="12">Patient</text>
		</g>
		<g>
			<g>
				
					<line fill="none" stroke="#005695" stroke-width="2" stroke-miterlimit="1" x1="251.165" y1="43.605" x2="251.165" y2="58.443"/>
				<g>
					<polygon fill="#005695" points="248.841,56.858 251.165,65.531 253.489,56.858 					"/>
				</g>
			</g>
		</g>
		<g>
			<g>
				
					<line fill="none" stroke="#005695" stroke-width="2" stroke-miterlimit="1" x1="251.165" y1="352.456" x2="251.165" y2="366.802"/>
				<g>
					<polygon fill="#005695" points="248.841,365.217 251.165,373.89 253.489,365.217 					"/>
				</g>
			</g>
		</g>
		<g>
			<g>
				
					<line fill="none" stroke="#005695" stroke-width="2" stroke-miterlimit="1" x1="251.165" y1="92.605" x2="251.165" y2="107.789"/>
				<g>
					<polygon fill="#005695" points="248.841,106.204 251.165,114.876 253.489,106.204 					"/>
				</g>
			</g>
		</g>
		<g>
			<g>
				
					<line fill="none" stroke="#005695" stroke-width="2" stroke-miterlimit="1" x1="196.362" y1="199.258" x2="196.362" y2="214.499"/>
				<g>
					<polygon fill="#005695" points="194.038,212.914 196.362,221.586 198.687,212.914 					"/>
				</g>
			</g>
		</g>
		<g>
			<g>
				<line fill="none" stroke="#005695" stroke-width="2" stroke-miterlimit="1" x1="196.29" y1="243.22" x2="196.29" y2="258.893"/>
				<g>
					<polygon fill="#005695" points="193.966,257.308 196.29,265.98 198.614,257.308 					"/>
				</g>
			</g>
		</g>
		<g>
			<g>
				
					<line fill="none" stroke="#005695" stroke-width="2" stroke-miterlimit="1" x1="251.165" y1="400.902" x2="251.165" y2="415.961"/>
				<g>
					<polygon fill="#005695" points="248.841,414.376 251.165,423.049 253.489,414.376 					"/>
				</g>
			</g>
		</g>
		
			<rect x="156.156" y="221.587" fill="#86B2D8" stroke="#010101" stroke-width="0.75" stroke-linecap="round" stroke-linejoin="round" stroke-miterlimit="1" width="80.999" height="22.5"/>
		<g>
			<text transform="matrix(1 0 0 1 181.1479 235.3447)"  font-size="9">Product</text>
		</g>
		
			<rect x="210.658" y="21.151" fill="#86B2D8" stroke="#010101" stroke-width="0.75" stroke-linecap="round" stroke-linejoin="round" stroke-miterlimit="1" width="80.999" height="22.485"/>
		<g>
			<text transform="matrix(1 0 0 1 233.4019 34.9023)"  font-size="9">Approval</text>
		</g>
		<g>
			<text transform="matrix(1 0 0 1 295.6504 70.7627)"  font-size="9">1</text>
		</g>
		<g>
			<text transform="matrix(1 0 0 1 295.6504 92.7676)"  font-size="9">1</text>
		</g>
		
			<polygon fill="#B2CEE7" stroke="#010101" stroke-width="0.75" stroke-linecap="round" stroke-linejoin="round" stroke-miterlimit="1" points="
			201.66,78.823 251.081,65.531 300.655,79.016 300.655,79.046 251.081,92.53 		"/>
		<g>
			<text transform="matrix(1 0 0 1 231.8945 81.5396)"  font-size="9">applies to</text>
		</g>
		<g>
			<text transform="matrix(1 0 0 1 241.1479 177.4727)"  font-size="9">1</text>
		</g>
		<g>
			<text transform="matrix(1 0 0 1 241.1479 199.4775)"  font-size="9">1</text>
		</g>
		
			<polygon fill="#B2CEE7" stroke="#010101" stroke-width="0.75" stroke-linecap="round" stroke-linejoin="round" stroke-miterlimit="1" points="
			147.158,185.533 196.579,172.241 246.153,185.727 246.153,185.756 196.579,199.24 		"/>
		<g>
			<text transform="matrix(1 0 0 1 163.7368 188.2466)"  font-size="9">has consumable</text>
		</g>
		<g>
			<text transform="matrix(1 0 0 1 241.1479 271.2139)"  font-size="9">1</text>
		</g>
		<g>
			<text transform="matrix(1 0 0 1 241.1479 293.2188)"  font-size="9">1</text>
		</g>
		
			<polygon fill="#B2CEE7" stroke="#010101" stroke-width="0.75" stroke-linecap="round" stroke-linejoin="round" stroke-miterlimit="1" points="
			147.158,279.273 196.579,265.981 246.153,279.467 246.153,279.496 196.579,292.98 		"/>
		<g>
			<text transform="matrix(1 0 0 1 165.7407 281.9902)"  font-size="9">administered to</text>
		</g>
		
			<rect x="209.156" y="423.35" fill="#86B2D8" stroke="#010101" stroke-width="0.75" stroke-linecap="round" stroke-linejoin="round" stroke-miterlimit="1" width="84.003" height="22.5"/>
		<g>
			<text transform="matrix(1 0 0 1 239.8232 437.9424)"  font-size="12">Visit</text>
		</g>
		<g>
			<text transform="matrix(1 0 0 1 295.6504 379.2344)"  font-size="9">1</text>
		</g>
		<g>
			<text transform="matrix(1 0 0 1 287.6484 401.2393)"  font-size="9">0-1</text>
		</g>
		
			<polygon fill="#B2CEE7" stroke="#010101" stroke-width="0.75" stroke-linecap="round" stroke-linejoin="round" stroke-miterlimit="1" points="
			201.66,387.295 251.081,374.003 300.655,387.488 300.655,387.518 251.081,401.002 		"/>
		<g>
			<text transform="matrix(1 0 0 1 243.9028 390.0117)"  font-size="9">has</text>
		</g>
		<g>
			<text transform="matrix(1 0 0 1 349.8379 178.876)"  font-size="9">1</text>
		</g>
		<g>
			<text transform="matrix(1 0 0 1 349.8379 200.8809)"  font-size="9">1</text>
		</g>
		
			<polygon fill="#B2CEE7" stroke="#010101" stroke-width="0.75" stroke-linecap="round" stroke-linejoin="round" stroke-miterlimit="1" points="
			255.849,185.533 305.269,172.241 354.843,185.726 354.843,185.756 305.269,199.24 		"/>
		<g>
			<text transform="matrix(1 0 0 1 282.4326 188.2466)"  font-size="9">has subject</text>
		</g>
		<g>
			<g>
				<polyline fill="none" stroke="#005695" stroke-width="2" stroke-miterlimit="1" points="250.755,137.82 250.755,150.604 
					223.77,150.604 223.569,150.604 196.585,150.604 196.585,165.302 				"/>
				<g>
					<polygon fill="#005695" points="194.261,163.716 196.585,172.389 198.909,163.716 					"/>
				</g>
			</g>
		</g>
		<g>
			<g>
				<polyline fill="none" stroke="#005695" stroke-width="2" stroke-miterlimit="1" points="251.003,137.82 251.003,150.604 
					278.036,150.604 278.235,150.604 305.267,150.604 305.267,165.302 				"/>
				<g>
					<polygon fill="#005695" points="302.942,163.716 305.267,172.389 307.591,163.716 					"/>
				</g>
			</g>
		</g>
		<polyline fill="none" stroke="#005695" stroke-width="2" stroke-miterlimit="1" points="250.755,306.569 223.77,306.569 
			223.569,306.569 196.585,306.569 196.585,293.064 		"/>
		<g>
			<g>
				<polyline fill="none" stroke="#005695" stroke-width="2" stroke-miterlimit="1" points="251.003,322.348 251.003,306.569 
					278.036,306.569 278.235,306.569 305.267,306.569 305.267,199.21 				"/>
				<g>
					<polygon fill="#005695" points="253.327,320.763 251.003,329.436 248.679,320.763 					"/>
				</g>
			</g>
		</g>
	</g>
</g>
</svg>
