<?xml version="1.0" encoding="utf-8"?>
<!-- $Source: /home/bbennett/pass/archive/DicomXml/docbook/part04/figures/PS3.4_5-2.svg,v $ -->
<!-- $Date: 2014/05/09 12:27:09 $ -->
<!-- $Revision: 1.2 $ -->

<!DOCTYPE svg PUBLIC "-//W3C//DTD SVG 1.1//EN" "http://www.w3.org/Graphics/SVG/1.1/DTD/svg11.dtd">
<svg version="1.1" id="Layer_1" xmlns="http://www.w3.org/2000/svg" xmlns:xlink="http://www.w3.org/1999/xlink" x="0px" y="0px"
	 width="502px" height="77px" viewBox="0 0 502 77" enable-background="new 0 0 502 77" xml:space="preserve">


<defs>
	<style type="text/css">
	text {
	  font-family: Helvetica, Verdana, ArialUnicodeMS, san-serif
	}
	</style>
</defs>

<g>
   <desc>
	PS 3.4 Service Class Specifications
   </desc>
</g>

<g>
	<rect x="1" y="1" fill="#F5EED6" width="500" height="75"/>
	<g>
		<g>
			<line fill="#4F8ABE" x1="135.412" y1="38.494" x2="195.413" y2="38.494"/>
			<g>
				
					<line fill="none" stroke="#005695" stroke-width="2" stroke-miterlimit="1" x1="135.412" y1="38.494" x2="184.781" y2="38.494"/>
				<g>
					<polygon fill="#005695" points="182.404,41.98 195.413,38.494 182.404,35.008 					"/>
				</g>
			</g>
		</g>
		<g>
			<line fill="#4F8ABE" x1="306.589" y1="38.494" x2="366.589" y2="38.494"/>
			<g>
				
					<line fill="none" stroke="#005695" stroke-width="2" stroke-miterlimit="1" x1="306.589" y1="38.494" x2="355.958" y2="38.494"/>
				<g>
					<polygon fill="#005695" points="353.58,41.98 366.589,38.494 353.58,35.008 					"/>
				</g>
			</g>
		</g>
		
			<polygon fill="#CCDEF0" stroke="#010101" stroke-width="0.75" stroke-linecap="round" stroke-linejoin="round" stroke-miterlimit="1" points="
			306.66,38.501 251.179,61.5 195.7,38.501 251.179,15.501 		"/>
		<text transform="matrix(1 0 0 1 228.1655 40.7451)"  font-size="9">relationship</text>
		<g>
			<text transform="matrix(1 0 0 1 195.6997 34.3555)"  font-size="9">a</text>
		</g>
		<g>
			<text transform="matrix(1 0 0 1 301.6543 34.3555)"  font-size="9">b</text>
		</g>
	</g>
</g>
</svg>
