<?xml version="1.0" encoding="utf-8"?>
<!-- $Source: /home/bbennett/pass/archive/DicomXml/docbook/part04/figures/PS3.4_N.2.5-1.svg,v $ -->
<!-- $Date: 2014/05/09 13:15:42 $ -->
<!-- $Revision: 1.1 $ -->

<!DOCTYPE svg PUBLIC "-//W3C//DTD SVG 1.1//EN" "http://www.w3.org/Graphics/SVG/1.1/DTD/svg11.dtd">
<svg version="1.1" id="Layer_1" xmlns="http://www.w3.org/2000/svg" xmlns:xlink="http://www.w3.org/1999/xlink" x="0px" y="0px"
	 width="498.044px" height="137px" viewBox="0 0 498.044 137" enable-background="new 0 0 498.044 137" xml:space="preserve">


<defs>
	<style type="text/css">
	text {
	  font-family: Helvetica, Verdana, ArialUnicodeMS, san-serif
	}
	</style>
</defs>

<g>
   <desc>
	PS 3.4 Service Class Specifications
   </desc>
</g>

<g>
	<rect x="1" y="1" fill="#F5EED6" width="496.044" height="135"/>
	<g>
		<rect x="413.168" y="57.785" fill="#CCDEF0" width="70.936" height="64.307"/>
		<g>
			<text transform="matrix(1 0 0 1 432.667 109.7061)"  font-size="7">P-Values</text>
		</g>
		<g>
			<text transform="matrix(1 0 0 1 414.6064 67.8462)"><tspan x="0" y="0"  font-size="7">Device-Independent</tspan><tspan x="0" y="8.4"  font-size="7">Values</tspan></text>
		</g>
		<g>
			<g>
				
					<line fill="none" stroke="#005695" stroke-width="2" stroke-miterlimit="1" x1="276.778" y1="107.691" x2="289.696" y2="107.691"/>
				<g>
					<polygon fill="#005695" points="288.111,110.016 296.784,107.691 288.111,105.367 					"/>
				</g>
			</g>
		</g>
		<g>
			<g>
				
					<line fill="none" stroke="#005695" stroke-width="2" stroke-miterlimit="1" x1="202.059" y1="107.691" x2="217.852" y2="107.691"/>
				<g>
					<polygon fill="#005695" points="216.267,110.016 224.939,107.691 216.267,105.367 					"/>
				</g>
			</g>
		</g>
		<g>
			<g>
				
					<line fill="none" stroke="#005695" stroke-width="2" stroke-miterlimit="1" x1="124.342" y1="107.691" x2="143.132" y2="107.691"/>
				<g>
					<polygon fill="#005695" points="141.546,110.016 150.219,107.691 141.546,105.367 					"/>
				</g>
			</g>
		</g>
		<g>
			<g>
				
					<line fill="none" stroke="#005695" stroke-width="2" stroke-miterlimit="1" x1="53.971" y1="107.691" x2="65.403" y2="107.691"/>
				<g>
					<polygon fill="#005695" points="63.818,110.016 72.491,107.691 63.818,105.367 					"/>
				</g>
			</g>
		</g>
		<g>
			<g>
				
					<line fill="none" stroke="#005695" stroke-width="2" stroke-miterlimit="1" x1="348.624" y1="107.691" x2="420.781" y2="107.691"/>
				<g>
					<polygon fill="#005695" points="419.196,110.016 427.869,107.691 419.196,105.367 					"/>
				</g>
			</g>
		</g>
		<g>
			<g>
				<line fill="none" stroke="#005695" stroke-width="2" stroke-miterlimit="1" x1="98.448" y1="76.508" x2="98.448" y2="85.994"/>
				<g>
					<polygon fill="#005695" points="96.124,84.409 98.448,93.082 100.772,84.409 					"/>
				</g>
			</g>
		</g>
		<g>
			<text transform="matrix(1 0 0 1 17.0576 101.2412)"><tspan x="0" y="0"  font-size="7">Grayscale</tspan><tspan x="-3.116" y="8.399"  font-size="7">Stored Pixel</tspan><tspan x="5.053" y="16.8"  font-size="7">Values</tspan></text>
		</g>
		<g>
			<g>
				<g>
					<g>
						
							<line fill="none" stroke="#005695" stroke-width="2" stroke-miterlimit="1" x1="322.698" y1="76.508" x2="322.698" y2="85.994"/>
						<g>
							<polygon fill="#005695" points="320.374,84.409 322.698,93.082 325.022,84.409 							"/>
						</g>
					</g>
				</g>
				
					<rect x="296.778" y="93.292" fill="#86B2D8" stroke="#010101" stroke-width="0.75" stroke-linecap="round" stroke-linejoin="round" stroke-miterlimit="1" width="51.84" height="28.8"/>
				<g>
					<text transform="matrix(1 0 0 1 303.0518 101.2402)"><tspan x="0" y="0"  font-size="7">Presentation</tspan><tspan x="13.039" y="8.4"  font-size="7">LUT</tspan><tspan x="-3.885" y="16.801"  font-size="7">Transformation</tspan></text>
				</g>
				<rect x="296.778" y="57.785" fill="#CCDEF0" width="51.84" height="18.864"/>
				<g>
					<text transform="matrix(1 0 0 1 303.0518 64.9658)"><tspan x="0" y="0"  font-size="7">Presentation</tspan><tspan x="13.039" y="8.399"  font-size="7">LUT</tspan></text>
				</g>
			</g>
			<g>
				<g>
					<g>
						
							<line fill="none" stroke="#005695" stroke-width="2" stroke-miterlimit="1" x1="250.863" y1="76.508" x2="250.863" y2="85.994"/>
						<g>
							<polygon fill="#005695" points="248.539,84.409 250.863,93.082 253.188,84.409 							"/>
						</g>
					</g>
				</g>
				
					<rect x="224.941" y="93.292" fill="#86B2D8" stroke="#010101" stroke-width="0.75" stroke-linecap="round" stroke-linejoin="round" stroke-miterlimit="1" width="51.837" height="28.8"/>
				<g>
					<text transform="matrix(1 0 0 1 237.2476 105.4414)"><tspan x="0" y="0"  font-size="7">VOI LUT</tspan><tspan x="-9.922" y="8.399"  font-size="7">Transformation</tspan></text>
				</g>
				<rect x="224.943" y="57.785" fill="#CCDEF0" width="51.833" height="18.864"/>
				<g>
					<text transform="matrix(1 0 0 1 234.2822 64.9658)"><tspan x="0" y="0"  font-size="7">Window or</tspan><tspan x="2.919" y="8.399"  font-size="7">VOI LUT</tspan></text>
				</g>
			</g>
			<g>
				
					<rect x="72.621" y="93.292" fill="#86B2D8" stroke="#010101" stroke-width="0.75" stroke-linecap="round" stroke-linejoin="round" stroke-miterlimit="1" width="51.84" height="28.8"/>
				<g>
					<text transform="matrix(1 0 0 1 90.1763 105.4414)"><tspan x="0" y="0"  font-size="7">Mask</tspan><tspan x="-15.174" y="8.399"  font-size="7">Transformation</tspan></text>
				</g>
				<rect x="69.74" y="14.909" fill="#CCDEF0" width="57.601" height="61.74"/>
				<g>
					<text transform="matrix(1 0 0 1 89.2041 22.9658)"><tspan x="0" y="0"  font-size="7">Mask,</tspan><tspan x="-7.2" y="8.4"  font-size="7">Pixel Shift,</tspan><tspan x="-12.258" y="16.8"  font-size="7">Pixel Intensity</tspan><tspan x="-11.873" y="25.2"  font-size="7">Relationship, </tspan><tspan x="-5.062" y="33.6"  font-size="7">LUT and </tspan><tspan x="-12.641" y="42"  font-size="7">Mask Visibility</tspan><tspan x="-8.567" y="50.399"  font-size="7">Percentage</tspan></text>
				</g>
			</g>
			<g>
				
					<rect x="150.221" y="93.292" fill="#86B2D8" stroke="#010101" stroke-width="0.75" stroke-linecap="round" stroke-linejoin="round" stroke-miterlimit="1" width="51.84" height="28.8"/>
				<g>
					<text transform="matrix(1 0 0 1 167.9648 101.2402)"><tspan x="0" y="0"  font-size="7">Edge</tspan><tspan x="-13.424" y="8.4"  font-size="7">Enhancement</tspan><tspan x="-15.362" y="16.801"  font-size="7">Transformation</tspan></text>
				</g>
				<g>
					<g>
						
							<line fill="none" stroke="#005695" stroke-width="2" stroke-miterlimit="1" x1="176.141" y1="76.508" x2="176.141" y2="85.994"/>
						<g>
							<polygon fill="#005695" points="173.817,84.409 176.141,93.082 178.465,84.409 							"/>
						</g>
					</g>
				</g>
				<rect x="147.341" y="57.785" fill="#CCDEF0" width="57.601" height="18.864"/>
				<g>
					<text transform="matrix(1 0 0 1 162.522 64.9658)"><tspan x="0" y="0"  font-size="7">Rescale </tspan><tspan x="-11.871" y="8.399"  font-size="7">Slope / Intercept</tspan></text>
				</g>
			</g>
		</g>
	</g>
</g>
</svg>
