<?xml version="1.0" encoding="utf-8"?>
<!-- $Source: /home/bbennett/pass/archive/DicomXml/docbook/part04/figures/PS3.4_K.6-2.svg,v $ -->
<!-- $Date: 2014/05/09 12:27:10 $ -->
<!-- $Revision: 1.2 $ -->

<!DOCTYPE svg PUBLIC "-//W3C//DTD SVG 1.1//EN" "http://www.w3.org/Graphics/SVG/1.1/DTD/svg11.dtd">
<svg version="1.1" id="Layer_1" xmlns="http://www.w3.org/2000/svg" xmlns:xlink="http://www.w3.org/1999/xlink" x="0px" y="0px"
	 width="471.919px" height="437.545px" viewBox="0 0 471.919 437.545" enable-background="new 0 0 471.919 437.545"
	 xml:space="preserve">


<defs>
	<style type="text/css">
	text {
	  font-family: Helvetica, Verdana, ArialUnicodeMS, san-serif
	}
	</style>
</defs>

<g>
   <desc>
	PS 3.4 Service Class Specifications
   </desc>
</g>

<g>
	
		<path fill="#CCDEF0" stroke="#000000" stroke-width="0.75" stroke-linecap="round" stroke-linejoin="round" stroke-miterlimit="1" d="
		M470.544,436.17H1.375V98.413h469.169V436.17z"/>
	
		<line fill="none" stroke="#005695" stroke-width="2" stroke-linecap="round" stroke-miterlimit="1" x1="236.407" y1="76.238" x2="236.407" y2="89.91"/>
	<path fill="#005695" d="M237.637,92.744c0.6-1.984,1.151-3.273,1.79-4.865h-6.053c0.271,0.569,1.19,2.881,1.79,4.865
		c0.642,2.123,1.08,4.049,1.236,5.298C236.557,96.793,236.996,94.867,237.637,92.744z"/>
	
		<rect x="171.948" y="53.102" fill="#86B2D8" stroke="#010101" stroke-width="0.75" stroke-linecap="round" stroke-linejoin="round" stroke-miterlimit="1" width="128.903" height="22.5"/>
	<g>
		<text transform="matrix(1 0 0 1 175.1299 66.8579)"  font-size="9">General Purpose Worklist Item</text>
	</g>
	
		<rect x="173.4" y="110.192" fill="#86B2D8" stroke="#010101" stroke-width="0.75" stroke-linecap="round" stroke-linejoin="round" stroke-miterlimit="1" width="126" height="22.485"/>
	<g>
		<text transform="matrix(1 0 0 1 179.8623 118.5718)"><tspan x="0" y="0"  font-size="9">General Purpose Scheduled</tspan><tspan x="25.269" y="8.8"  font-size="9">Procedure Step</tspan></text>
	</g>
	
		<rect x="139.045" y="218.322" fill="#86B2D8" stroke="#010101" stroke-width="0.75" stroke-linecap="round" stroke-linejoin="round" stroke-miterlimit="1" width="90" height="22.5"/>
	<g>
		<text transform="matrix(1 0 0 1 162.5361 226.6807)"><tspan x="0" y="0"  font-size="9">Composite</tspan><tspan x="2.248" y="8.8"  font-size="9">Instances</tspan></text>
	</g>
	
		<line fill="none" stroke="#005695" stroke-width="2" stroke-linecap="round" stroke-miterlimit="1" x1="181.91" y1="197.492" x2="181.91" y2="210.277"/>
	<path fill="#005695" d="M183.141,213.111c0.599-1.984,1.15-3.273,1.789-4.865h-6.053c0.271,0.569,1.191,2.881,1.79,4.865
		c0.642,2.123,1.08,4.049,1.237,5.297C182.061,217.16,182.499,215.234,183.141,213.111z"/>
	<g>
		<text transform="matrix(1 0 0 1 219.2285 174.2031)"  font-size="9">0-n</text>
	</g>
	<g>
		<text transform="matrix(1 0 0 1 219.2285 196.208)"  font-size="9">0-n</text>
	</g>
	
		<polygon fill="#B2CEE7" stroke="#010101" stroke-width="0.75" stroke-linecap="round" stroke-linejoin="round" stroke-miterlimit="1" points="
		132.562,182.269 181.982,168.977 231.557,182.461 231.557,182.491 181.982,195.976 	"/>
	<g>
		<text transform="matrix(1 0 0 1 172.4048 184.98)"  font-size="9">uses</text>
	</g>
	
		<rect x="248.74" y="405.793" fill="#86B2D8" stroke="#010101" stroke-width="0.75" stroke-linecap="round" stroke-linejoin="round" stroke-miterlimit="1" width="84.002" height="22.5"/>
	<g>
		<text transform="matrix(1 0 0 1 272.0586 420.3916)"  font-size="12">Patient</text>
	</g>
	
		<line fill="none" stroke="#005695" stroke-width="2" stroke-linecap="round" stroke-miterlimit="1" x1="290.592" y1="197.492" x2="290.592" y2="210.277"/>
	<path fill="#005695" d="M291.822,213.111c0.6-1.984,1.15-3.273,1.789-4.865h-6.053c0.271,0.569,1.191,2.881,1.791,4.865
		c0.641,2.123,1.08,4.049,1.236,5.297C290.742,217.16,291.182,215.234,291.822,213.111z"/>
	
		<line fill="none" stroke="#005695" stroke-width="2" stroke-linecap="round" stroke-miterlimit="1" x1="290.52" y1="240.73" x2="290.52" y2="253.516"/>
	<path fill="#005695" d="M291.75,256.349c0.6-1.983,1.15-3.272,1.789-4.864h-6.053c0.271,0.569,1.191,2.881,1.791,4.864
		c0.641,2.122,1.08,4.046,1.236,5.294C290.67,260.395,291.109,258.471,291.75,256.349z"/>
	
		<line fill="none" stroke="#005695" stroke-width="2" stroke-linecap="round" stroke-miterlimit="1" x1="290.447" y1="289.724" x2="290.447" y2="302.509"/>
	<path fill="#005695" d="M291.678,305.343c0.6-1.984,1.15-3.273,1.789-4.865h-6.053c0.271,0.569,1.191,2.881,1.791,4.865
		c0.641,2.123,1.08,4.049,1.236,5.297C290.598,309.392,291.037,307.466,291.678,305.343z"/>
	
		<line fill="none" stroke="#005695" stroke-width="2" stroke-linecap="round" stroke-miterlimit="1" x1="290.375" y1="333.686" x2="290.375" y2="346.471"/>
	<path fill="#005695" d="M291.605,349.305c0.6-1.984,1.15-3.273,1.789-4.865h-6.053c0.271,0.569,1.191,2.881,1.791,4.865
		c0.641,2.123,1.08,4.049,1.236,5.297C290.525,353.354,290.965,351.428,291.605,349.305z"/>
	
		<line fill="none" stroke="#005695" stroke-width="2" stroke-linecap="round" stroke-miterlimit="1" x1="290.303" y1="382.686" x2="290.303" y2="395.471"/>
	<path fill="#005695" d="M291.533,398.305c0.6-1.984,1.15-3.273,1.789-4.865h-6.053c0.271,0.569,1.191,2.881,1.791,4.865
		c0.641,2.123,1.08,4.049,1.236,5.297C290.453,402.354,290.893,400.428,291.533,398.305z"/>
	
		<rect x="250.242" y="312.052" fill="#86B2D8" stroke="#010101" stroke-width="0.75" stroke-linecap="round" stroke-linejoin="round" stroke-miterlimit="1" width="80.998" height="22.5"/>
	<g>
		<text transform="matrix(1 0 0 1 274.7324 320.4482)"><tspan x="0" y="0"  font-size="9">Imaging</tspan><tspan x="-17.007" y="8.799"  font-size="9">Service Request</tspan></text>
	</g>
	<g>
		<text transform="matrix(1 0 0 1 327.2305 174.2031)"  font-size="9">0-n</text>
	</g>
	<g>
		<text transform="matrix(1 0 0 1 327.2305 196.208)"  font-size="9">1-n</text>
	</g>
	
		<polygon fill="#B2CEE7" stroke="#010101" stroke-width="0.75" stroke-linecap="round" stroke-linejoin="round" stroke-miterlimit="1" points="
		241.245,182.269 290.664,168.977 340.238,182.461 340.238,182.491 290.664,195.976 	"/>
	<g>
		<text transform="matrix(1 0 0 1 263.5762 184.98)"  font-size="9">contributes to</text>
	</g>
	<g>
		<text transform="matrix(1 0 0 1 323.9102 267.9434)"  font-size="9">1-n</text>
	</g>
	<g>
		<text transform="matrix(1 0 0 1 331.9121 289.9482)"  font-size="9">1</text>
	</g>
	
		<polygon fill="#B2CEE7" stroke="#010101" stroke-width="0.75" stroke-linecap="round" stroke-linejoin="round" stroke-miterlimit="1" points="
		241.245,275.998 290.664,262.712 340.238,276.191 340.238,276.221 290.664,289.705 	"/>
	<g>
		<text transform="matrix(1 0 0 1 260.0742 278.7197)"  font-size="9">is requested by</text>
	</g>
	<g>
		<text transform="matrix(1 0 0 1 323.9102 361.6846)"  font-size="9">1-n</text>
	</g>
	<g>
		<text transform="matrix(1 0 0 1 331.9121 383.6895)"  font-size="9">1</text>
	</g>
	
		<polygon fill="#B2CEE7" stroke="#010101" stroke-width="0.75" stroke-linecap="round" stroke-linejoin="round" stroke-miterlimit="1" points="
		241.245,369.738 290.664,356.446 340.238,369.932 340.238,369.961 290.664,383.445 	"/>
	<g>
		<text transform="matrix(1 0 0 1 269.5801 372.4619)"  font-size="9">is done for</text>
	</g>
	
		<line fill="none" stroke="#005695" stroke-width="2" stroke-linecap="round" stroke-miterlimit="1" x1="65.992" y1="197.492" x2="65.992" y2="210.277"/>
	<path fill="#005695" d="M67.223,213.111c0.599-1.984,1.15-3.273,1.789-4.865h-6.053c0.271,0.569,1.191,2.881,1.79,4.865
		c0.642,2.123,1.08,4.049,1.237,5.297C66.143,217.16,66.581,215.234,67.223,213.111z"/>
	<g>
		<text transform="matrix(1 0 0 1 102.6318 174.2031)"  font-size="9">0-n</text>
	</g>
	<g>
		<text transform="matrix(1 0 0 1 102.6318 196.208)"  font-size="9">0-n</text>
	</g>
	
		<polygon fill="#B2CEE7" stroke="#010101" stroke-width="0.75" stroke-linecap="round" stroke-linejoin="round" stroke-miterlimit="1" points="
		16.645,182.269 66.064,168.977 115.64,182.461 115.64,182.491 66.064,195.976 	"/>
	<g>
		<text transform="matrix(1 0 0 1 49.4844 184.98)"  font-size="9">refers to</text>
	</g>
	
		<rect x="7.642" y="218.415" fill="#86B2D8" stroke="#010101" stroke-width="0.75" stroke-linecap="round" stroke-linejoin="round" stroke-miterlimit="1" width="117" height="53.999"/>
	<g>
		<text transform="matrix(1 0 0 1 27.124 229.3223)"><tspan x="0" y="0"  font-size="9">Modality Performed</tspan><tspan x="7.745" y="8.8"  font-size="9">Procedure Step</tspan><tspan x="35.014" y="17.601"  font-size="9">or</tspan><tspan x="-17.264" y="26.399"  font-size="9">General Purpose Performed</tspan><tspan x="7.745" y="35.2"  font-size="9">Procedure Step</tspan></text>
	</g>
	
		<rect x="347.444" y="218.322" fill="#86B2D8" stroke="#010101" stroke-width="0.75" stroke-linecap="round" stroke-linejoin="round" stroke-miterlimit="1" width="117" height="22.5"/>
	<g>
		<text transform="matrix(1 0 0 1 349.6621 226.6807)"><tspan x="0" y="0"  font-size="9">General Purpose Performed</tspan><tspan x="25.009" y="8.8"  font-size="9">Procedure Step</tspan></text>
	</g>
	
		<line fill="none" stroke="#005695" stroke-width="2" stroke-linecap="round" stroke-miterlimit="1" x1="405.951" y1="197.492" x2="405.951" y2="210.277"/>
	<path fill="#005695" d="M407.182,213.111c0.6-1.984,1.15-3.273,1.789-4.865h-6.053c0.271,0.569,1.191,2.881,1.791,4.865
		c0.641,2.123,1.08,4.049,1.236,5.297C406.102,217.16,406.541,215.234,407.182,213.111z"/>
	<g>
		<text transform="matrix(1 0 0 1 442.5898 174.2031)"  font-size="9">0-n</text>
	</g>
	<g>
		<text transform="matrix(1 0 0 1 442.5898 196.208)"  font-size="9">0-n</text>
	</g>
	
		<polygon fill="#B2CEE7" stroke="#010101" stroke-width="0.75" stroke-linecap="round" stroke-linejoin="round" stroke-miterlimit="1" points="
		356.604,182.269 406.023,168.977 455.598,182.461 455.598,182.491 406.023,195.976 	"/>
	<g>
		<text transform="matrix(1 0 0 1 387.4375 184.98)"  font-size="9">produces</text>
	</g>
	<polyline fill="none" stroke="#005695" stroke-width="2" stroke-linecap="round" stroke-miterlimit="1" points="236.151,133.147 
		236.151,145.932 148.298,145.932 147.647,145.932 66.064,145.932 66.064,159.437 	"/>
	<path fill="#005695" d="M67.294,162.271c0.6-1.984,1.151-3.273,1.79-4.865h-6.053c0.271,0.569,1.19,2.881,1.79,4.865
		c0.642,2.123,1.08,4.049,1.236,5.298C66.214,166.319,66.653,164.394,67.294,162.271z"/>
	<polyline fill="none" stroke="#005695" stroke-width="2" stroke-linecap="round" stroke-miterlimit="1" points="236.4,133.147 
		236.4,145.932 324.376,145.932 325.027,145.932 406.023,145.932 406.023,159.437 	"/>
	<path fill="#005695" d="M407.253,162.271c0.6-1.984,1.151-3.273,1.79-4.865h-6.053c0.271,0.569,1.191,2.881,1.79,4.865
		c0.642,2.123,1.08,4.049,1.236,5.298C406.174,166.319,406.612,164.394,407.253,162.271z"/>
	<polyline fill="none" stroke="#005695" stroke-width="2" stroke-linecap="round" stroke-miterlimit="1" points="236.15,133.147 
		236.15,145.932 209.166,145.932 208.967,145.932 181.982,145.932 181.982,159.437 	"/>
	<path fill="#005695" d="M183.212,162.271c0.599-1.984,1.151-3.273,1.79-4.865h-6.053c0.27,0.569,1.19,2.881,1.789,4.865
		c0.643,2.123,1.08,4.049,1.237,5.298C182.132,166.319,182.57,164.394,183.212,162.271z"/>
	<polyline fill="none" stroke="#005695" stroke-width="2" stroke-linecap="round" stroke-miterlimit="1" points="236.4,133.147 
		236.4,145.932 263.432,145.932 263.632,145.932 290.663,145.932 290.663,159.437 	"/>
	<path fill="#005695" d="M291.893,162.271c0.6-1.984,1.151-3.273,1.79-4.865h-6.053c0.271,0.569,1.191,2.881,1.79,4.865
		c0.642,2.123,1.08,4.049,1.236,5.298C290.813,166.319,291.252,164.394,291.893,162.271z"/>
	<rect x="315.106" y="53.412" fill="none" width="148.342" height="31.758"/>
	<text transform="matrix(0.9288 0 0 1 315.1064 59.8555)"><tspan x="0" y="0"  font-size="9">The General Purpose Worklist Item</tspan><tspan x="0" y="10.8"  font-size="9">focuses upon a single General Purpose </tspan><tspan x="0" y="21.6"  font-size="9">Scheduled Procedure Step.</tspan></text>
	
		<rect x="243.493" y="218.322" fill="#86B2D8" stroke="#010101" stroke-width="0.75" stroke-linecap="round" stroke-linejoin="round" stroke-miterlimit="1" width="89.997" height="22.5"/>
	<g>
		<text transform="matrix(1 0 0 1 266.7256 226.6807)"><tspan x="0" y="0"  font-size="9">Requested</tspan><tspan x="1.005" y="8.8"  font-size="9">Procedure</tspan></text>
	</g>
	<text transform="matrix(1 0 0 1 168.1348 21.0879)"><tspan x="0" y="0" fill="#ED1C24" font-family="'Myriad-Roman'" font-size="24">F</tspan><tspan x="11.067" y="0" fill="#ED1C24" font-family="'Myriad-Roman'" font-size="24">igu</tspan><tspan x="43.322" y="0" fill="#ED1C24" font-family="'Myriad-Roman'" font-size="24">r</tspan><tspan x="51.03" y="0" fill="#ED1C24" font-family="'Myriad-Roman'" font-size="24">e </tspan><tspan x="68.142" y="0" fill="#ED1C24" font-family="'Myriad-Roman'" font-size="24">r</tspan><tspan x="75.849" y="0" fill="#ED1C24" font-family="'Myriad-Roman'" font-size="24">eti</tspan><tspan x="101.432" y="0" fill="#ED1C24" font-family="'Myriad-Roman'" font-size="24">r</tspan><tspan x="109.14" y="0" fill="#ED1C24" font-family="'Myriad-Roman'" font-size="24">ed</tspan></text>
</g>
</svg>
