<?xml version="1.0" encoding="utf-8"?>
<!-- $Source: /home/bbennett/pass/archive/DicomXml/docbook/part10/figures/PS3.10_6.1-1.svg,v $ -->
<!-- $Date: 2014/05/09 13:09:00 $ -->
<!-- $Revision: 1.1 $ -->

<!DOCTYPE svg PUBLIC "-//W3C//DTD SVG 1.1//EN" "http://www.w3.org/Graphics/SVG/1.1/DTD/svg11.dtd">
<svg version="1.1" id="Layer_1" xmlns="http://www.w3.org/2000/svg" xmlns:xlink="http://www.w3.org/1999/xlink" x="0px" y="0px"
	 width="502px" height="422px" viewBox="0 0 502 422" enable-background="new 0 0 502 422" xml:space="preserve">

<defs>
	<style type="text/css">
	text {
	  font-family: Helvetica, Verdana, ArialUnicodeMS, san-serif
	}
	</style>
</defs>

<g>
   <desc>
	PS 3.10: Media Storage and File Format for Media Interchange
   </desc>
</g>

<g>
	<rect x="1" y="1" fill="#F5EED6" width="500" height="420"/>
	<g>
		
			<line fill="none" stroke="#005695" stroke-width="7" stroke-linecap="round" stroke-miterlimit="1" x1="361.752" y1="159.49" x2="361.752" y2="377.123"/>
		<rect x="238.246" y="229.333" fill="#B2CEE7" width="247.006" height="126.84"/>
		<g>
			<path fill="#CCDEF0" d="M248.701,247.422c0-1.979,1.62-3.6,3.6-3.6h46.801c1.979,0,3.6,1.62,3.6,3.6v96.123
				c0,1.979-1.62,3.6-3.6,3.6h-46.801c-1.98,0-3.6-1.62-3.6-3.6V247.422z"/>
			<path fill="none" stroke="#000000" stroke-width="0.75" d="M248.701,247.422c0-1.979,1.62-3.6,3.6-3.6h46.801
				c1.979,0,3.6,1.62,3.6,3.6v96.123c0,1.979-1.62,3.6-3.6,3.6h-46.801c-1.98,0-3.6-1.62-3.6-3.6V247.422z"/>
		</g>
		<text transform="matrix(1 0 0 1 253.0137 328.6602)"><tspan x="0" y="0" font-size="6">Physical Medium</tspan><tspan x="17.668" y="7.2" font-size="6">and</tspan><tspan x="1.67" y="14.4" font-size="6">Medium Format</tspan></text>
		<path fill="#D9D9D9" stroke="#000000" stroke-width="0.25" stroke-miterlimit="3.8637" d="M256.623,267.26
			c0,10.539,8.531,19.072,19.061,19.072c10.537,0,19.07-8.533,19.07-19.072c0-10.528-8.533-19.062-19.07-19.062
			C265.154,248.198,256.623,256.731,256.623,267.26z"/>
		<path fill="#808080" stroke="#000000" stroke-width="0.25" stroke-miterlimit="3.8637" d="M284.643,282.76
			c2.105-1.117,3.373-2.245,4.916-4.035l-28.197-22.373c1.531-2.062,2.906-3.315,5.133-4.618L284.643,282.76z"/>
		<path fill="none" stroke="#000000" stroke-miterlimit="3.8637" d="M257.756,267.26c0,9.912,8.025,17.939,17.928,17.939
			c9.912,0,17.939-8.027,17.939-17.939c0-9.902-8.027-17.929-17.939-17.929C265.781,249.331,257.756,257.357,257.756,267.26z"/>
		<path fill="#FFFFFF" stroke="#000000" stroke-width="0.5" stroke-miterlimit="3.8637" d="M270.055,267.265
			c0,3.111,2.521,5.631,5.631,5.631c3.115,0,5.635-2.52,5.635-5.631s-2.52-5.632-5.635-5.632
			C272.576,261.633,270.055,264.153,270.055,267.265z"/>
		<circle stroke="#000000" stroke-width="0.5" stroke-miterlimit="3.8637" cx="275.688" cy="267.265" r="2.033"/>
		<polygon fill="#B2CEE7" stroke="#000000" stroke-width="0.75" points="266.621,318.936 259.566,318.936 259.566,311.538 
			261.766,309.464 266.621,309.464 		"/>
		<polygon fill="#B2CEE7" stroke="#000000" stroke-width="0.75" points="279.215,318.936 272.158,318.936 272.158,311.538 
			274.359,309.464 279.215,309.464 		"/>
		<polygon fill="#B2CEE7" stroke="#000000" stroke-width="0.75" points="279.215,301.882 272.158,301.882 272.158,294.486 
			274.359,292.41 279.215,292.41 		"/>
		<polygon fill="#B2CEE7" stroke="#000000" stroke-width="0.75" points="291.809,318.936 284.752,318.936 284.752,311.538 
			286.953,309.464 291.809,309.464 		"/>
		<line fill="none" stroke="#000000" stroke-width="0.75" x1="275.955" y1="301.753" x2="275.955" y2="309.459"/>
		<polyline fill="none" stroke="#000000" stroke-width="0.75" points="263.039,309.459 263.039,305.021 288.871,305.021 
			288.871,309.459 		"/>
		<text transform="matrix(1 0 0 1 248.6792 241.6318)" font-size="7">MEDIUM A</text>
		<g>
			<path fill="#CCDEF0" d="M421.83,247.423c0-1.979,1.62-3.6,3.6-3.6h46.801c1.979,0,3.6,1.62,3.6,3.6v96.12
				c0,1.979-1.62,3.6-3.6,3.6H425.43c-1.979,0-3.6-1.62-3.6-3.6V247.423z"/>
			<path fill="none" stroke="#000000" stroke-width="0.75" d="M421.83,247.423c0-1.979,1.62-3.6,3.6-3.6h46.801
				c1.979,0,3.6,1.62,3.6,3.6v96.12c0,1.979-1.62,3.6-3.6,3.6H425.43c-1.979,0-3.6-1.62-3.6-3.6V247.423z"/>
		</g>
		<text transform="matrix(1 0 0 1 426.1328 328.6572)"><tspan x="0" y="0" font-size="6">Physical Medium</tspan><tspan x="17.668" y="7.2" font-size="6">and</tspan><tspan x="1.67" y="14.4" font-size="6">Medium Format</tspan></text>
		<path fill="#D9D9D9" stroke="#000000" stroke-width="0.25" stroke-miterlimit="3.8637" d="M429.752,267.261
			c0,10.539,8.533,19.071,19.062,19.071c10.535,0,19.068-8.532,19.068-19.071c0-10.528-8.533-19.062-19.068-19.062
			C438.285,248.199,429.752,256.732,429.752,267.261z"/>
		<path fill="#808080" stroke="#000000" stroke-width="0.25" stroke-miterlimit="3.8637" d="M439.408,282.76
			c-2.105-1.116-3.373-2.244-4.916-4.035l28.195-22.371c-1.531-2.062-2.904-3.315-5.131-4.619L439.408,282.76z"/>
		<path fill="none" stroke="#000000" stroke-miterlimit="3.8637" d="M430.885,267.261c0,9.912,8.027,17.938,17.93,17.938
			c9.91,0,17.938-8.026,17.938-17.938c0-9.901-8.027-17.929-17.938-17.929C438.912,249.332,430.885,257.359,430.885,267.261z"/>
		<path fill="#FFFFFF" stroke="#000000" stroke-width="0.5" stroke-miterlimit="3.8637" d="M443.186,267.266
			c0,3.111,2.521,5.631,5.631,5.631c3.115,0,5.633-2.52,5.633-5.631c0-3.11-2.518-5.632-5.633-5.632
			C445.707,261.634,443.186,264.155,443.186,267.266z"/>
		<circle stroke="#000000" stroke-width="0.5" stroke-miterlimit="3.8637" cx="448.818" cy="267.266" r="2.033"/>
		<polygon fill="#B2CEE7" stroke="#000000" stroke-width="0.75" points="439.752,318.935 432.697,318.935 432.697,311.537 
			434.896,309.463 439.752,309.463 		"/>
		<polygon fill="#B2CEE7" stroke="#000000" stroke-width="0.75" points="452.346,318.935 445.289,318.935 445.289,311.537 
			447.49,309.463 452.346,309.463 		"/>
		<polygon fill="#B2CEE7" stroke="#000000" stroke-width="0.75" points="452.346,301.881 445.289,301.881 445.289,294.486 
			447.49,292.41 452.346,292.41 		"/>
		<polygon fill="#B2CEE7" stroke="#000000" stroke-width="0.75" points="464.939,318.935 457.883,318.935 457.883,311.537 
			460.084,309.463 464.939,309.463 		"/>
		<line fill="none" stroke="#000000" stroke-width="0.75" x1="449.086" y1="301.753" x2="449.086" y2="309.458"/>
		<polyline fill="none" stroke="#000000" stroke-width="0.75" points="436.17,309.458 436.17,305.02 462.002,305.02 
			462.002,309.458 		"/>
		<text transform="matrix(1 0 0 1 421.6035 241.6338)" font-size="7">MEDIUM N</text>
		<g>
			<path fill="#CCDEF0" d="M313.574,247.423c0-1.979,1.62-3.6,3.6-3.6h46.801c1.979,0,3.6,1.62,3.6,3.6v96.12
				c0,1.979-1.62,3.6-3.6,3.6h-46.801c-1.979,0-3.6-1.62-3.6-3.6V247.423z"/>
			<path fill="none" stroke="#000000" stroke-width="0.75" d="M313.574,247.423c0-1.979,1.62-3.6,3.6-3.6h46.801
				c1.979,0,3.6,1.62,3.6,3.6v96.12c0,1.979-1.62,3.6-3.6,3.6h-46.801c-1.979,0-3.6-1.62-3.6-3.6V247.423z"/>
		</g>
		<text transform="matrix(1 0 0 1 317.8848 328.6572)"><tspan x="0" y="0" font-size="6">Physical Medium</tspan><tspan x="17.668" y="7.2" font-size="6">and</tspan><tspan x="1.67" y="14.4" font-size="6">Medium Format</tspan></text>
		<path fill="#D9D9D9" stroke="#000000" stroke-width="0.25" stroke-miterlimit="3.8637" d="M321.496,267.261
			c0,10.539,8.533,19.071,19.062,19.071c10.535,0,19.068-8.532,19.068-19.071c0-10.528-8.533-19.062-19.068-19.062
			C330.029,248.199,321.496,256.732,321.496,267.261z"/>
		<path fill="#808080" stroke="#000000" stroke-width="0.25" stroke-miterlimit="3.8637" d="M336.686,284.9
			c2.309,0.591,4.006,0.61,6.354,0.323l-5.801-35.521c2.52-0.495,4.379-0.497,6.904,0.036L336.686,284.9z"/>
		<path fill="none" stroke="#000000" stroke-miterlimit="3.8637" d="M322.629,267.261c0,9.912,8.027,17.938,17.93,17.938
			c9.91,0,17.938-8.026,17.938-17.938c0-9.901-8.027-17.929-17.938-17.929C330.656,249.332,322.629,257.359,322.629,267.261z"/>
		<path fill="#FFFFFF" stroke="#000000" stroke-width="0.5" stroke-miterlimit="3.8637" d="M334.93,267.266
			c0,3.111,2.521,5.631,5.631,5.631c3.115,0,5.633-2.52,5.633-5.631c0-3.11-2.518-5.632-5.633-5.632
			C337.451,261.634,334.93,264.155,334.93,267.266z"/>
		<circle stroke="#000000" stroke-width="0.5" stroke-miterlimit="3.8637" cx="340.562" cy="267.266" r="2.033"/>
		<polygon fill="#B2CEE7" stroke="#000000" stroke-width="0.75" points="331.496,318.935 324.439,318.935 324.439,311.537 
			326.641,309.463 331.496,309.463 		"/>
		<polygon fill="#B2CEE7" stroke="#000000" stroke-width="0.75" points="344.09,318.935 337.033,318.935 337.033,311.537 
			339.234,309.463 344.09,309.463 		"/>
		<polygon fill="#B2CEE7" stroke="#000000" stroke-width="0.75" points="344.09,301.881 337.033,301.881 337.033,294.486 
			339.234,292.41 344.09,292.41 		"/>
		<polygon fill="#B2CEE7" stroke="#000000" stroke-width="0.75" points="356.684,318.935 349.627,318.935 349.627,311.537 
			351.828,309.463 356.684,309.463 		"/>
		<line fill="none" stroke="#000000" stroke-width="0.75" x1="340.83" y1="301.753" x2="340.83" y2="309.458"/>
		<polyline fill="none" stroke="#000000" stroke-width="0.75" points="327.914,309.458 327.914,305.02 353.746,305.02 
			353.746,309.458 		"/>
		<text transform="matrix(1 0 0 1 313.5488 241.6338)" font-size="7">MEDIUM B</text>
		
			<line fill="none" stroke="#005695" stroke-width="7" stroke-linecap="round" stroke-miterlimit="1" stroke-dasharray="2,11" x1="378.445" y1="296.202" x2="410.953" y2="296.202"/>
		
			<line fill="none" stroke="#005695" stroke-width="7" stroke-linecap="round" stroke-miterlimit="1" x1="126.746" y1="159.49" x2="126.746" y2="377.123"/>
		<g>
			<path fill="#CCDEF0" d="M48.415,89.538c0-1.98,1.62-3.6,3.6-3.6h386.8c1.979,0,3.6,1.62,3.6,3.6v64.8c0,1.98-1.62,3.6-3.6,3.6
				h-386.8c-1.98,0-3.6-1.62-3.6-3.6V89.538z"/>
			<path fill="none" stroke="#000000" stroke-width="0.75" d="M48.415,89.538c0-1.98,1.62-3.6,3.6-3.6h386.8
				c1.979,0,3.6,1.62,3.6,3.6v64.8c0,1.98-1.62,3.6-3.6,3.6h-386.8c-1.98,0-3.6-1.62-3.6-3.6V89.538z"/>
		</g>
		<g>
			<path fill="#86B2D8" d="M64.689,126.541c0-1.98,1.62-3.6,3.6-3.6h118.478c1.98,0,3.6,1.62,3.6,3.6v17.678
				c0,1.98-1.62,3.6-3.6,3.6H68.289c-1.98,0-3.6-1.62-3.6-3.6V126.541z"/>
			<path fill="none" stroke="#000000" stroke-width="0.75" d="M64.689,126.541c0-1.98,1.62-3.6,3.6-3.6h118.478
				c1.98,0,3.6,1.62,3.6,3.6v17.678c0,1.98-1.62,3.6-3.6,3.6H68.289c-1.98,0-3.6-1.62-3.6-3.6V126.541z"/>
		</g>
		<g>
			<path fill="#86B2D8" d="M299.393,126.541c0-1.98,1.62-3.6,3.6-3.6h118.479c1.979,0,3.6,1.62,3.6,3.6v17.678
				c0,1.98-1.62,3.6-3.6,3.6H302.992c-1.979,0-3.6-1.62-3.6-3.6V126.541z"/>
			<path fill="none" stroke="#000000" stroke-width="0.75" d="M299.393,126.541c0-1.98,1.62-3.6,3.6-3.6h118.479
				c1.979,0,3.6,1.62,3.6,3.6v17.678c0,1.98-1.62,3.6-3.6,3.6H302.992c-1.979,0-3.6-1.62-3.6-3.6V126.541z"/>
		</g>
		<text transform="matrix(1 0 0 1 74.0503 139.2021)" font-size="12">Message Exchange</text>
		<g>
			<path fill="#CCDEF0" d="M16.748,179.499c0-1.98,1.62-3.6,3.6-3.6h212.918c1.98,0,3.6,1.62,3.6,3.6v24.762
				c0,1.98-1.62,3.6-3.6,3.6H20.348c-1.98,0-3.6-1.62-3.6-3.6V179.499z"/>
		</g>
		<text transform="matrix(1 0 0 1 22.522 191.876)" font-size="11">BOUNDARY: DICOM Upper Layer Service</text>
		
			<line fill="#4F8ABE" stroke="#005695" stroke-width="4" stroke-linecap="round" stroke-miterlimit="1" x1="30.825" y1="199.976" x2="222.668" y2="199.976"/>
		<g>
			<path fill="#CCDEF0" d="M50.72,381.224c0-1.979,1.62-3.6,3.6-3.6h144.853c1.98,0,3.6,1.62,3.6,3.6v22.229
				c0,1.979-1.62,3.6-3.6,3.6H54.32c-1.98,0-3.6-1.62-3.6-3.6V381.224z"/>
			<path fill="none" stroke="#000000" stroke-width="0.75" d="M50.72,381.224c0-1.979,1.62-3.6,3.6-3.6h144.853
				c1.98,0,3.6,1.62,3.6,3.6v22.229c0,1.979-1.62,3.6-3.6,3.6H54.32c-1.98,0-3.6-1.62-3.6-3.6V381.224z"/>
		</g>
		<text transform="matrix(1 0 0 1 88.9771 389.7666)"><tspan x="0" y="0" font-size="9">Network Exchange</tspan><tspan x="-10.753" y="10.8" font-size="9">On-Line Communication</tspan></text>
		<g>
			<path fill="#CCDEF0" d="M50.72,330.345c0-1.979,1.62-3.6,3.6-3.6h144.853c1.98,0,3.6,1.62,3.6,3.6v22.229
				c0,1.979-1.62,3.6-3.6,3.6H54.32c-1.98,0-3.6-1.62-3.6-3.6V330.345z"/>
			<path fill="none" stroke="#000000" stroke-width="0.75" d="M50.72,330.345c0-1.979,1.62-3.6,3.6-3.6h144.853
				c1.98,0,3.6,1.62,3.6,3.6v22.229c0,1.979-1.62,3.6-3.6,3.6H54.32c-1.98,0-3.6-1.62-3.6-3.6V330.345z"/>
		</g>
		<text transform="matrix(1 0 0 1 79.1772 343.6885)" font-size="9">TCP/IP Transport Layer</text>
		<g>
			<path fill="#CCDEF0" d="M50.72,232.933c0-1.979,1.62-3.6,3.6-3.6h144.853c1.98,0,3.6,1.62,3.6,3.6v22.229
				c0,1.979-1.62,3.6-3.6,3.6H54.32c-1.98,0-3.6-1.62-3.6-3.6V232.933z"/>
			<path fill="none" stroke="#000000" stroke-width="0.75" d="M50.72,232.933c0-1.979,1.62-3.6,3.6-3.6h144.853
				c1.98,0,3.6,1.62,3.6,3.6v22.229c0,1.979-1.62,3.6-3.6,3.6H54.32c-1.98,0-3.6-1.62-3.6-3.6V232.933z"/>
		</g>
		<text transform="matrix(1 0 0 1 67.9233 241.1572)"><tspan x="0" y="0" font-size="9">DICOM Upper Layer Protocol</tspan><tspan x="37.767" y="10.8" font-size="9">for TCP/IP</tspan></text>
		<g>
			<path fill="#CCDEF0" d="M251.915,179.499c0-1.98,1.62-3.6,3.6-3.6h212.919c1.979,0,3.6,1.62,3.6,3.6v24.762
				c0,1.98-1.62,3.6-3.6,3.6H255.515c-1.98,0-3.6-1.62-3.6-3.6V179.499z"/>
		</g>
		<text transform="matrix(1 0 0 1 263.9492 191.876)" font-size="11">BOUNDARY: DICOM Basic File Service</text>
		
			<line fill="#4F8ABE" stroke="#005695" stroke-width="4" stroke-linecap="round" stroke-miterlimit="1" x1="265.824" y1="199.976" x2="457.668" y2="199.976"/>
		<text transform="matrix(1 0 0 1 55.4238 101.4092)" font-size="12">DICOM Application Message Exhange</text>
		<text transform="matrix(1 0 0 1 331.4082 139.2021)" font-size="12">File Format</text>
		<polygon fill="#4F8ABE" points="157.265,14.938 344.334,14.938 343.852,36.023 389.432,36.023 249.232,85.092 108.106,36.023 
			157.265,36.023 		"/>
		<text transform="matrix(1 0 0 1 190.3735 32.5312)"><tspan x="0" y="0" fill="#FFFFFF" font-size="16"> Medical Imaging</tspan><tspan x="21.336" y="19.2" fill="#FFFFFF" font-size="16">Application</tspan></text>
		<g>
			<path fill="#CCDEF0" d="M285.727,381.234c0-1.979,1.62-3.6,3.6-3.6H434.18c1.979,0,3.6,1.62,3.6,3.6v22.229
				c0,1.979-1.62,3.6-3.6,3.6H289.326c-1.979,0-3.6-1.62-3.6-3.6V381.234z"/>
			<path fill="none" stroke="#000000" stroke-width="0.75" d="M285.727,381.234c0-1.979,1.62-3.6,3.6-3.6H434.18
				c1.979,0,3.6,1.62,3.6,3.6v22.229c0,1.979-1.62,3.6-3.6,3.6H289.326c-1.979,0-3.6-1.62-3.6-3.6V381.234z"/>
		</g>
		<text transform="matrix(1 0 0 1 307.4619 394.5781)" font-size="9">Media Storage Interchange</text>
	</g>
</g>
</svg>
