<?xml version="1.0" encoding="utf-8"?>
<!-- $Source: /home/bbennett/pass/archive/DicomXml/docbook/part16/figures/PS3.16_A-12.svg,v $ -->
<!-- $Date: 2014/02/18 14:35:29 $ -->
<!-- $Revision: 1.1 $ -->

<!DOCTYPE svg PUBLIC "-//W3C//DTD SVG 1.1//EN" "http://www.w3.org/Graphics/SVG/1.1/DTD/svg11.dtd">

<svg version="1.1" id="Layer_1" xmlns="http://www.w3.org/2000/svg" xmlns:xlink="http://www.w3.org/1999/xlink" x="0px" y="0px"
	 width="502px" height="577px" viewBox="0 0 502 577" enable-background="new 0 0 502 577" xml:space="preserve">

<defs>
	<style type="text/css">
	text {
	  font-family: Helvetica, Verdana, ArialUnicodeMS, san-serif
	}
	</style>
</defs>

<g>
   <desc>
	PS 3.16 Part 16: Content Mapping Resource
   </desc>
   <title>
	Figure A-12: Implant Assembly and Components Terminology 
   </title>
</g>

<rect x="1" y="1" fill="#F5EED6" width="500" height="575"/>
<g>
	<g>
		<path fill="#636466" stroke="#000000" d="M197.105,160.915c18.478-19.612,39.378-11.292,50.426-1.054
			c11.052,10.238,9.321,30.073-3.863,44.301c-13.185,14.229-32.829,17.463-43.878,7.224S179.82,179.259,197.105,160.915z"/>
		
			<ellipse transform="matrix(-0.7335 -0.6797 0.6797 -0.7335 261.5569 473.7971)" fill="#999999" stroke="#000000" cx="223.661" cy="185.623" rx="27.276" ry="35.121"/>
		
			<ellipse transform="matrix(-0.713 -0.7012 0.7012 -0.713 253.3201 474.5825)" fill="#6799C8" stroke="#000000" cx="223.794" cy="185.444" rx="22.995" ry="30.56"/>
		
			<ellipse transform="matrix(-0.713 -0.7012 0.7012 -0.713 254.5174 474.3549)" fill="#F7941E" stroke="#000000" cx="224.348" cy="185.084" rx="13.126" ry="16.565"/>
		<path fill="#999999" stroke="#000000" d="M290.078,211.025l4.277-0.7l8.152,43.902l21.154,155.067c0,0,1.397,10.406-3.623,11.051
			l-4.277,0.699L290.078,211.025z"/>
		<path fill="#808285" stroke="#000000" d="M266.705,235.423c0,0-6.691-8.308-1.152-13.765c2.287-2.253,6.59-2.457,6.59-2.457
			l0.016-0.503c0,0,0.982-1.924,2.469-3.848c0.287-0.372,1.045-0.743,2.074-1.1c4.294-1.487,13.377-2.725,13.377-2.725l8.152,43.902
			l21.154,155.067c0,0,1.397,10.408-3.623,11.051c-5.021,0.645-6.912-8.689-6.912-8.689l-29.855-148.723
			C277.758,252.832,272.199,242.889,266.705,235.423z"/>
		<polyline fill="#666666" stroke="#000000" points="272.143,219.201 271.977,224.647 272.158,218.698 		"/>
		<path fill="#F7941E" stroke="#000000" d="M272.158,218.698c0,0,0.982-1.924,2.469-3.848c0.287-0.372,1.045-0.743,2.074-1.1
			c-0.89-2.282-2.271-4.419-4.176-6.222c-6.773-6.407-17.361-6.213-23.65,0.432c-6.289,6.647-5.894,17.229,0.881,23.636
			c4.715,4.459,11.275,5.711,16.949,3.826l-0.939-1.258c0,0-5.752-7.05-0.213-12.507c2.287-2.253,6.59-2.457,6.59-2.457
			L272.158,218.698z"/>
		<line fill="none" stroke="#000000" stroke-dasharray="2,3" x1="218.335" y1="178.865" x2="248.523" y2="206.826"/>
		<line fill="none" stroke="#000000" stroke-dasharray="2,3" x1="172.331" y1="136.85" x2="196.856" y2="159.565"/>
		<line fill="none" stroke="#000000" x1="302.508" y1="254.228" x2="298.23" y2="254.927"/>
		<text transform="matrix(1 0 0 1 270.0811 151.5771)" font-size="7">Component Connection</text>
		<text transform="matrix(1 0 0 1 270.5029 158.7773)" font-size="6">without Degree of Freedom</text>
		<polyline fill="none" stroke="#003468" stroke-miterlimit="1" points="245.222,163.578 262.239,149.136 269.121,149.13 		"/>
	</g>
	<g>
		<g>
			<path fill="#B2CEE7" d="M356.157,15.913c0-1.98,1.62-3.6,3.6-3.6h127.418c1.979,0,3.6,1.62,3.6,3.6v251.834
				c0,1.98-1.62,3.6-3.6,3.6H359.757c-1.979,0-3.6-1.62-3.6-3.6V15.913z"/>
			<path fill="none" stroke="#010101" stroke-width="0.75" stroke-linecap="square" stroke-dasharray="2,3" d="M356.157,15.913
				c0-1.98,1.62-3.6,3.6-3.6h127.418c1.979,0,3.6,1.62,3.6,3.6v251.834c0,1.98-1.62,3.6-3.6,3.6H359.757c-1.979,0-3.6-1.62-3.6-3.6
				V15.913z"/>
		</g>
		<path fill="#636466" stroke="#000000" d="M390.659,36.877c18.477-19.612,39.378-11.292,50.426-1.054
			c11.05,10.238,9.319,30.073-3.863,44.301c-13.185,14.229-32.828,17.463-43.878,7.224S373.374,55.222,390.659,36.877z"/>
		
			<ellipse transform="matrix(-0.7335 -0.6797 0.6797 -0.7335 681.3876 390.3311)" fill="#999999" stroke="#000000" cx="417.215" cy="61.585" rx="27.275" ry="35.121"/>
		
			<ellipse transform="matrix(-0.713 -0.7012 0.7012 -0.713 671.8463 397.8287)" fill="#6799C8" stroke="#000000" cx="417.348" cy="61.406" rx="22.995" ry="30.561"/>
		<path fill="#999999" stroke="#000000" d="M449.925,54.945l4.277-0.7l8.152,43.902l21.154,155.067c0,0,1.397,10.406-3.623,11.05
			l-4.277,0.699L449.925,54.945z"/>
		<path fill="#808285" stroke="#000000" d="M426.552,79.343c0,0-6.691-8.308-1.152-13.765c2.287-2.253,6.59-2.457,6.59-2.457
			l0.016-0.503c0,0,0.982-1.924,2.469-3.848c0.287-0.372,1.045-0.743,2.074-1.1c4.294-1.487,13.377-2.725,13.377-2.725l8.152,43.902
			l21.154,155.067c0,0,1.397,10.408-3.623,11.05c-5.021,0.645-6.912-8.689-6.912-8.689l-29.855-148.722
			C437.604,96.752,432.046,86.809,426.552,79.343z"/>
		<polyline fill="#666666" stroke="#000000" points="431.989,63.121 431.823,68.567 432.005,62.618 		"/>
		<path fill="#F7941E" stroke="#000000" d="M432.005,62.618c0,0,0.982-1.924,2.469-3.848c0.287-0.372,1.045-0.743,2.074-1.1
			c-0.89-2.282-2.271-4.419-4.176-6.222c-6.773-6.407-17.36-6.213-23.648,0.432c-6.288,6.647-5.894,17.229,0.881,23.636
			c4.715,4.459,11.273,5.711,16.947,3.826l-0.939-1.258c0,0-5.752-7.05-0.213-12.507c2.287-2.253,6.59-2.457,6.59-2.457
			L432.005,62.618z"/>
		<g>
			<g>
				<path fill="none" stroke="#ED1C24" stroke-width="2" d="M398.928,108.257c-12.787-7.945-22.746-21-26.774-37.182
					c-3.938-15.825-1.464-31.667,5.729-44.529"/>
				<g>
					<polygon fill="#ED1C24" points="398.692,105.401 405.166,111.623 396.449,109.472 					"/>
				</g>
				<g>
					<polygon fill="#ED1C24" points="379.054,29.169 381.706,20.591 375.119,26.693 					"/>
				</g>
			</g>
		</g>
		<text transform="matrix(1 0 0 1 266.0254 84.8696)" font-size="7">Component Connection</text>
		<text transform="matrix(1 0 0 1 270.6182 92.0698)" font-size="6">with Degree of Freedom</text>
		<text transform="matrix(1 0 0 1 289.627 99.2695)" font-size="6">(Rotation)</text>
		<polyline fill="none" stroke="#003468" stroke-miterlimit="1" points="405.164,68.567 350.204,82.972 340.784,82.972 		"/>
		<g>
			<g>
				<path fill="none" stroke="#0DB14B" stroke-width="2" d="M406.519,99.76c-16.701-2.597-29.884-11.634-33.877-25.142
					c-2.351-7.946-1.189-16.322,2.729-24.165"/>
				<g>
					<polygon fill="#0DB14B" points="405.194,97.231 413.572,100.46 404.702,101.853 					"/>
				</g>
				<g>
					<polygon fill="#0DB14B" points="376.646,53.035 379.033,44.38 372.637,50.681 					"/>
				</g>
			</g>
		</g>
		<line fill="none" stroke="#003468" stroke-miterlimit="1" x1="356.157" y1="37.591" x2="340.784" y2="37.591"/>
		<text transform="matrix(1 0 0 1 309.2314 39.21)" font-size="7">Assembly</text>
	</g>
	<g>
		<g>
			<path fill="#B2CEE7" d="M177.182,344.805c0-1.979,1.62-3.6,3.6-3.6h77.627c1.979,0,3.6,1.62,3.6,3.6v216.283
				c0,1.979-1.62,3.6-3.6,3.6h-77.627c-1.98,0-3.6-1.62-3.6-3.6V344.805z"/>
			<path fill="none" stroke="#010101" stroke-width="0.75" stroke-linecap="square" stroke-dasharray="2,3" d="M177.182,344.805
				c0-1.979,1.62-3.6,3.6-3.6h77.627c1.979,0,3.6,1.62,3.6,3.6v216.283c0,1.979-1.62,3.6-3.6,3.6h-77.627c-1.98,0-3.6-1.62-3.6-3.6
				V344.805z"/>
		</g>
		<path fill="#636466" stroke="#000000" d="M48.06,226.124c18.478-19.612,39.378-11.292,50.427-1.054
			c11.05,10.238,9.32,30.073-3.863,44.301c-13.185,14.227-32.829,17.461-43.878,7.224C39.696,266.356,30.775,244.468,48.06,226.124z
			"/>
		
			<ellipse transform="matrix(-0.7335 -0.6797 0.6797 -0.7335 -41.1354 485.5357)" fill="#999999" stroke="#000000" cx="74.616" cy="250.832" rx="27.276" ry="35.121"/>
		
			<ellipse transform="matrix(-0.7335 -0.6797 0.6797 -0.7335 -41.1358 485.5361)" fill="#F26522" stroke="#000000" cx="74.616" cy="250.832" rx="22.994" ry="30.561"/>
		<path fill="#F26522" stroke="#000000" d="M102.237,275.518c11.835-12.035,32.132-11.208,41.186-2.304
			c9.055,8.905,6.801,25.875-5.035,37.909c-11.835,12.034-28.77,14.57-37.824,5.665C91.51,307.884,90.401,287.551,102.237,275.518z"
			/>
		
			<ellipse transform="matrix(-0.713 -0.7011 0.7011 -0.713 2.1372 590.8777)" fill="#6799C8" stroke="#000000" cx="121.993" cy="295.001" rx="22.993" ry="30.56"/>
		
			<ellipse transform="matrix(-0.713 -0.7012 0.7012 -0.713 3.3342 590.647)" fill="#F7941E" stroke="#000000" cx="122.547" cy="294.641" rx="13.125" ry="16.564"/>
		
			<ellipse transform="matrix(-0.7265 -0.6872 0.6872 -0.7265 48.9217 677.7091)" fill="#F7941E" stroke="#000000" cx="159.339" cy="329.118" rx="16.882" ry="16.566"/>
		<path fill="#FFF200" stroke="#000000" d="M169.041,329.515c-1.417-1.341-3.246-1.965-5.035-1.893
			c-0.064,1.559-0.66,3.093-1.807,4.305c-1.242,1.312-2.895,2-4.583,2.068c-0.08,1.917,0.646,3.871,2.166,5.308
			c2.755,2.606,7.06,2.526,9.618-0.176C171.956,336.424,171.796,332.12,169.041,329.515z"/>
		<path stroke="#000000" d="M164.006,327.622c-1.688,0.068-3.341,0.757-4.583,2.068c-1.147,1.212-1.743,2.746-1.808,4.305
			c1.688-0.068,3.341-0.757,4.583-2.068C163.346,330.715,163.941,329.181,164.006,327.622z"/>
		<g>
			<path fill="#999999" stroke="#000000" d="M217.513,347.707l4.278-0.7l8.153,43.902l21.154,155.068c0,0,1.397,10.406-3.623,11.051
				l-4.277,0.699L217.513,347.707z"/>
			<path fill="#808285" stroke="#000000" d="M199.412,361.328l0.182-5.949c0,0,0.982-1.924,2.468-3.848
				c1.486-1.923,15.451-3.824,15.451-3.824l8.153,43.901l21.154,155.068c0,0,1.397,10.407-3.623,11.051
				c-5.021,0.645-6.912-8.69-6.912-8.69L206.43,400.314c-2.601-22.729-24.344-41.679-24.344-41.679s-4.297-5.25,0.277-9.869
				c4.574-4.62,9.175-1.178,9.175-1.178l8.057,7.79L199.412,361.328z"/>
			<path fill="#FFF200" stroke="#000000" d="M193.201,370.846c0,0-5.752-7.05-0.213-12.507c2.288-2.253,6.591-2.457,6.591-2.457
				l0.015-0.503l-8.113-7.729c0,0-4.646-3.385-9.28,1.179c-4.635,4.564-0.299,9.733-0.299,9.733S188.572,365.199,193.201,370.846z"
				/>
			<line fill="none" stroke="#000000" x1="229.944" y1="390.909" x2="225.666" y2="391.608"/>
		</g>
		<line fill="none" stroke="#000000" stroke-dasharray="2,3" x1="161.248" y1="329.835" x2="181.364" y2="348.466"/>
		<line fill="none" stroke="#000000" stroke-dasharray="2,3" x1="116.534" y1="288.423" x2="146.723" y2="316.382"/>
		<line fill="none" stroke="#000000" stroke-dasharray="2,3" x1="63.2" y1="239.027" x2="101.552" y2="274.549"/>
		<line fill="none" stroke="#000000" stroke-dasharray="2,3" x1="23.286" y1="202.059" x2="47.812" y2="224.774"/>
		<text transform="matrix(1 0 0 1 93.5649 428.8916)"><tspan x="0" y="0" font-size="7">Component</tspan><tspan x="0" y="7.2" font-size="6">(one Implant Template</tspan><tspan x="0" y="14.399" font-size="6">contains one Component)</tspan></text>
		<text transform="matrix(1 0 0 1 11.2285 299.5879)" font-size="7">Mating Feature</text>
		<text transform="matrix(1 0 0 1 90.7485 375.6914)" font-size="7">Mating Feature Set</text>
		<line fill="none" stroke="#003468" stroke-miterlimit="1" x1="66.983" y1="297.34" x2="73.588" y2="253.861"/>
		<polyline fill="none" stroke="#003468" stroke-miterlimit="1" points="100.254,282.573 66.983,297.34 59.6,297.34 		"/>
		<line fill="none" stroke="#003468" stroke-miterlimit="1" x1="162.562" y1="257.096" x2="98.487" y2="225.07"/>
		<polyline fill="none" stroke="#003468" stroke-miterlimit="1" points="164.005,313.158 162.562,257.096 211.211,348.733 		"/>
		<text transform="matrix(1 0 0 1 56.6313 350.8037)" font-size="7">Mating Feature</text>
		<line fill="none" stroke="#003468" stroke-miterlimit="1" x1="113.192" y1="348.921" x2="123.254" y2="300.293"/>
		<polyline fill="none" stroke="#003468" stroke-miterlimit="1" points="148.976,333.993 113.192,348.921 105.365,348.921 		"/>
		<line fill="none" stroke="#003468" stroke-miterlimit="1" x1="158.98" y1="373.436" x2="163.955" y2="335.667"/>
		<polyline fill="none" stroke="#003468" stroke-miterlimit="1" points="187.894,358.642 158.98,373.436 151.496,373.436 		"/>
		<polyline fill="none" stroke="#003468" stroke-miterlimit="1" points="177.182,409.188 139.426,426.816 131.595,426.816 		"/>
		<text transform="matrix(1 0 0 1 176.8169 259.8022)" font-size="7">Different Component types</text>
		<polyline fill="none" stroke="#003468" stroke-miterlimit="1" points="143.422,273.214 162.562,257.096 174.286,257.096 		"/>
	</g>
</g>
</svg>
