<?xml version="1.0" encoding="utf-8"?>
<!-- $Source: /home/bbennett/pass/archive/DicomXml/docbook/part16/figures/PS3.16_A-15.svg,v $ -->
<!-- $Date: 2014/02/18 14:35:29 $ -->
<!-- $Revision: 1.1 $ -->

<!DOCTYPE svg PUBLIC "-//W3C//DTD SVG 1.1//EN" "http://www.w3.org/Graphics/SVG/1.1/DTD/svg11.dtd">

<svg version="1.1" id="Layer_1" xmlns="http://www.w3.org/2000/svg" xmlns:xlink="http://www.w3.org/1999/xlink" x="0px" y="0px"
	 width="495.065px" height="123.857px" viewBox="0 0 495.065 123.857" enable-background="new 0 0 495.065 123.857"
	 xml:space="preserve">

<defs>
	<style type="text/css">
	text {
	  font-family: Helvetica, Verdana, ArialUnicodeMS, san-serif
	}
	</style>
</defs>

<g>
   <desc>
	PS 3.16 Part 16: Content Mapping Resource
   </desc>
   <title>
	Figure A-15: CT Radiation Dose SR IOD Template Structure 
   </title>
</g>

<g>
	<rect x="1" y="1" fill="#F5EED6" width="493.065" height="121.857"/>
	<g>
		<g>
			
				<line fill="none" stroke="#010101" stroke-width="0.75" stroke-linecap="round" stroke-linejoin="round" stroke-miterlimit="10" x1="239.192" y1="25.664" x2="252.776" y2="25.664"/>
			<path fill="#010101" d="M254.548,24.896c-1.24-0.375-2.046-0.72-3.041-1.119v3.784c0.356-0.169,1.801-0.745,3.041-1.119
				c1.327-0.401,2.53-0.676,3.311-0.773C257.078,25.57,255.875,25.296,254.548,24.896z"/>
		</g>
	</g>
	<g>
		<g>
			
				<polyline fill="none" stroke="#000000" stroke-width="0.75" stroke-linecap="round" stroke-linejoin="round" stroke-miterlimit="10" points="
				246.087,25.51 246.087,65.619 252.226,65.619 			"/>
			<path d="M253.997,64.851c-1.24-0.375-2.046-0.72-3.041-1.119v3.783c0.356-0.169,1.801-0.744,3.041-1.118
				c1.327-0.401,2.53-0.676,3.311-0.773C256.527,65.525,255.324,65.251,253.997,64.851z"/>
		</g>
	</g>
	<g>
		<g>
			
				<polyline fill="none" stroke="#000000" stroke-width="0.75" stroke-linecap="round" stroke-linejoin="round" stroke-miterlimit="10" points="
				246.087,61.12 246.087,104.543 252.226,104.543 			"/>
			<path d="M253.997,103.774c-1.24-0.375-2.046-0.72-3.041-1.119v3.783c0.356-0.169,1.801-0.744,3.041-1.118
				c1.327-0.401,2.53-0.676,3.311-0.773C256.527,104.449,255.324,104.175,253.997,103.774z"/>
		</g>
	</g>
	<g>
		<path fill="#CCDEF0" d="M256.935,59.869c0-1.98,1.62-3.6,3.6-3.6h53.828c1.979,0,3.6,1.62,3.6,3.6v12.95c0,1.979-1.62,3.6-3.6,3.6
			h-53.828c-1.979,0-3.6-1.62-3.6-3.6V59.869z"/>
		
			<path fill="none" stroke="#010101" stroke-width="0.75" stroke-linecap="round" stroke-linejoin="round" stroke-miterlimit="1" d="
			M256.935,59.869c0-1.98,1.62-3.6,3.6-3.6h53.828c1.979,0,3.6,1.62,3.6,3.6v12.95c0,1.979-1.62,3.6-3.6,3.6h-53.828
			c-1.979,0-3.6-1.62-3.6-3.6V59.869z"/>
	</g>
	<text transform="matrix(1 0 0 1 264.7383 64.585)"><tspan x="0" y="0" font-size="6">CT Accumulated</tspan><tspan x="0" y="7.201" font-size="6">Dose Data</tspan></text>
	<text transform="matrix(1 0 0 1 254.9404 53.1895)" font-size="7">TID 10002</text>
	<g>
		<path fill="#CCDEF0" d="M256.935,20.802c0-1.98,1.62-3.6,3.6-3.6h53.828c1.979,0,3.6,1.62,3.6,3.6v12.949c0,1.98-1.62,3.6-3.6,3.6
			h-53.828c-1.979,0-3.6-1.62-3.6-3.6V20.802z"/>
		
			<path fill="none" stroke="#010101" stroke-width="0.75" stroke-linecap="round" stroke-linejoin="round" stroke-miterlimit="1" d="
			M256.935,20.802c0-1.98,1.62-3.6,3.6-3.6h53.828c1.979,0,3.6,1.62,3.6,3.6v12.949c0,1.98-1.62,3.6-3.6,3.6h-53.828
			c-1.979,0-3.6-1.62-3.6-3.6V20.802z"/>
	</g>
	<text transform="matrix(1 0 0 1 273.6602 25.5186)"><tspan x="0" y="0" font-size="6">Observer</tspan><tspan x="0" y="7.2" font-size="6">Context</tspan></text>
	<text transform="matrix(1 0 0 1 255.1787 13.624)" font-size="7">TID 1002</text>
	<g>
		<path fill="#CCDEF0" d="M178.812,20.716c0-1.98,1.62-3.6,3.6-3.6h53.745c1.98,0,3.6,1.62,3.6,3.6v12.899c0,1.98-1.62,3.6-3.6,3.6
			h-53.745c-1.98,0-3.6-1.62-3.6-3.6V20.716z"/>
		<path fill="none" stroke="#010101" stroke-width="0.75" d="M178.812,20.716c0-1.98,1.62-3.6,3.6-3.6h53.745
			c1.98,0,3.6,1.62,3.6,3.6v12.899c0,1.98-1.62,3.6-3.6,3.6h-53.745c-1.98,0-3.6-1.62-3.6-3.6V20.716z"/>
	</g>
	<text transform="matrix(1 0 0 1 183.6885 28.6846)" font-size="6">CT Radiation Dose</text>
	<text transform="matrix(1 0 0 1 176.8179 14.2529)" font-size="7">TID 10001</text>
	<g>
		<path fill="#CCDEF0" d="M256.935,99.129c0-1.979,1.62-3.6,3.6-3.6h53.828c1.979,0,3.6,1.62,3.6,3.6v12.951
			c0,1.979-1.62,3.6-3.6,3.6h-53.828c-1.979,0-3.6-1.62-3.6-3.6V99.129z"/>
		
			<path fill="none" stroke="#010101" stroke-width="0.75" stroke-linecap="round" stroke-linejoin="round" stroke-miterlimit="1" d="
			M256.935,99.129c0-1.979,1.62-3.6,3.6-3.6h53.828c1.979,0,3.6,1.62,3.6,3.6v12.951c0,1.979-1.62,3.6-3.6,3.6h-53.828
			c-1.979,0-3.6-1.62-3.6-3.6V99.129z"/>
	</g>
	<text transform="matrix(1 0 0 1 268.3828 103.8467)"><tspan x="0" y="0" font-size="6">CT Irradiation</tspan><tspan x="0" y="7.201" font-size="6">Event Data</tspan></text>
	<text transform="matrix(1 0 0 1 254.9404 92.7822)" font-size="7">TID 10003</text>
</g>
</svg>
