<?xml version="1.0" encoding="utf-8"?>
<!-- $Source: /home/bbennett/pass/archive/DicomXml/docbook/part16/figures/PS3.16_A-5.svg,v $ -->
<!-- $Date: 2014/02/18 14:35:29 $ -->
<!-- $Revision: 1.1 $ -->

<!DOCTYPE svg PUBLIC "-//W3C//DTD SVG 1.1//EN" "http://www.w3.org/Graphics/SVG/1.1/DTD/svg11.dtd">

<svg version="1.1" id="Layer_1" xmlns="http://www.w3.org/2000/svg" xmlns:xlink="http://www.w3.org/1999/xlink" x="0px" y="0px"
	 width="502px" height="252px" viewBox="0 0 502 252" enable-background="new 0 0 502 252" xml:space="preserve">

<defs>
	<style type="text/css">
	text {
	  font-family: Helvetica, Verdana, ArialUnicodeMS, san-serif
	}
	</style>
</defs>

<g>
   <desc>
	PS 3.16 Part 16: Content Mapping Resource
   </desc>
   <title>
	Figure A-5: IVUS Report Template Hierarchy 
   </title>
</g>

<g>
	<rect x="1" y="1" fill="#F5EED6" width="500" height="250"/>
	<g>
		<path fill="#CCDEF0" d="M177.761,108.48c0-1.98,1.62-3.6,3.6-3.6h53.826c1.98,0,3.6,1.62,3.6,3.6v12.95c0,1.98-1.62,3.6-3.6,3.6
			h-53.826c-1.98,0-3.6-1.62-3.6-3.6V108.48z"/>
		
			<path fill="none" stroke="#010101" stroke-width="0.75" stroke-linecap="round" stroke-linejoin="round" stroke-miterlimit="1" d="
			M177.761,108.48c0-1.98,1.62-3.6,3.6-3.6h53.826c1.98,0,3.6,1.62,3.6,3.6v12.95c0,1.98-1.62,3.6-3.6,3.6h-53.826
			c-1.98,0-3.6-1.62-3.6-3.6V108.48z"/>
	</g>
	<g>
		<path fill="#CCDEF0" d="M177.764,147.462c0-1.979,1.62-3.6,3.6-3.6h53.82c1.98,0,3.6,1.62,3.6,3.6v12.949
			c0,1.979-1.62,3.6-3.6,3.6h-53.82c-1.98,0-3.6-1.62-3.6-3.6V147.462z"/>
		
			<path fill="none" stroke="#010101" stroke-width="0.75" stroke-linecap="round" stroke-linejoin="round" stroke-miterlimit="1" d="
			M177.764,147.462c0-1.979,1.62-3.6,3.6-3.6h53.82c1.98,0,3.6,1.62,3.6,3.6v12.949c0,1.979-1.62,3.6-3.6,3.6h-53.82
			c-1.98,0-3.6-1.62-3.6-3.6V147.462z"/>
	</g>
	<text transform="matrix(1 0 0 1 186.542 116.4736)" font-size="6">IVUS Vessel</text>
	<text transform="matrix(1 0 0 1 186.542 151.9473)"><tspan x="0" y="0" font-size="6">Lab Procedure</tspan><tspan x="0" y="7.199" font-size="6">Context</tspan></text>
	<text transform="matrix(1 0 0 1 176.9346 101.3018)" font-size="7">TID 3251</text>
	<text transform="matrix(1 0 0 1 177.0039 180.375)" font-size="7">TID 3602</text>
	<text transform="matrix(1 0 0 1 177.0039 140.7832)" font-size="7">TID 3601</text>
	<g>
		<path fill="#CCDEF0" d="M177.764,186.724c0-1.979,1.62-3.6,3.6-3.6h53.82c1.98,0,3.6,1.62,3.6,3.6v12.949
			c0,1.979-1.62,3.6-3.6,3.6h-53.82c-1.98,0-3.6-1.62-3.6-3.6V186.724z"/>
		
			<path fill="none" stroke="#010101" stroke-width="0.75" stroke-linecap="round" stroke-linejoin="round" stroke-miterlimit="1" d="
			M177.764,186.724c0-1.979,1.62-3.6,3.6-3.6h53.82c1.98,0,3.6,1.62,3.6,3.6v12.949c0,1.979-1.62,3.6-3.6,3.6h-53.82
			c-1.98,0-3.6-1.62-3.6-3.6V186.724z"/>
	</g>
	<text transform="matrix(1 0 0 1 186.542 191.4395)"><tspan x="0" y="0" font-size="6">Patient</tspan><tspan x="0" y="7.201" font-size="6">Characteristics</tspan></text>
	<g>
		<path fill="#CCDEF0" d="M264.76,147.63c0-1.979,1.62-3.6,3.6-3.6h53.826c1.979,0,3.6,1.62,3.6,3.6v12.951
			c0,1.979-1.62,3.6-3.6,3.6h-53.826c-1.979,0-3.6-1.62-3.6-3.6V147.63z"/>
		
			<path fill="none" stroke="#010101" stroke-width="0.75" stroke-linecap="round" stroke-linejoin="round" stroke-miterlimit="1" d="
			M264.76,147.63c0-1.979,1.62-3.6,3.6-3.6h53.826c1.979,0,3.6,1.62,3.6,3.6v12.951c0,1.979-1.62,3.6-3.6,3.6h-53.826
			c-1.979,0-3.6-1.62-3.6-3.6V147.63z"/>
	</g>
	<text transform="matrix(1 0 0 1 274.542 155.625)" font-size="6">Common Findings</text>
	<text transform="matrix(1 0 0 1 264.0742 140.9512)" font-size="7">TID 3819</text>
	<text transform="matrix(1 0 0 1 264.0752 101.3862)" font-size="7">TID 3252</text>
	<g>
		<path fill="#CCDEF0" d="M350.736,226.237c0-1.979,1.62-3.6,3.6-3.6h53.828c1.979,0,3.6,1.62,3.6,3.6v12.951
			c0,1.979-1.62,3.6-3.6,3.6h-53.828c-1.979,0-3.6-1.62-3.6-3.6V226.237z"/>
		
			<path fill="none" stroke="#010101" stroke-width="0.75" stroke-linecap="round" stroke-linejoin="round" stroke-miterlimit="1" d="
			M350.736,226.237c0-1.979,1.62-3.6,3.6-3.6h53.828c1.979,0,3.6,1.62,3.6,3.6v12.951c0,1.979-1.62,3.6-3.6,3.6h-53.828
			c-1.979,0-3.6-1.62-3.6-3.6V226.237z"/>
	</g>
	<text transform="matrix(1 0 0 1 360.5146 234.2314)" font-size="6">Common Findings</text>
	<text transform="matrix(1 0 0 1 350.0479 219.5781)" font-size="7">TID 3819</text>
	<g>
		<path fill="#CCDEF0" d="M350.736,147.716c0-1.979,1.62-3.6,3.6-3.6h53.828c1.979,0,3.6,1.62,3.6,3.6v12.951
			c0,1.979-1.62,3.6-3.6,3.6h-53.828c-1.979,0-3.6-1.62-3.6-3.6V147.716z"/>
		
			<path fill="none" stroke="#010101" stroke-width="0.75" stroke-linecap="round" stroke-linejoin="round" stroke-miterlimit="1" d="
			M350.736,147.716c0-1.979,1.62-3.6,3.6-3.6h53.828c1.979,0,3.6,1.62,3.6,3.6v12.951c0,1.979-1.62,3.6-3.6,3.6h-53.828
			c-1.979,0-3.6-1.62-3.6-3.6V147.716z"/>
	</g>
	<text transform="matrix(1 0 0 1 360.5205 152.4316)"><tspan x="0" y="0" font-size="6">IVUS Qualitative</tspan><tspan x="0" y="7.201" font-size="6">Assessment</tspan></text>
	<text transform="matrix(1 0 0 1 350.0479 141.0361)" font-size="7">TID 3254</text>
	<g>
		<path fill="#CCDEF0" d="M350.736,108.65c0-1.98,1.62-3.6,3.6-3.6h53.828c1.979,0,3.6,1.62,3.6,3.6v12.948c0,1.98-1.62,3.6-3.6,3.6
			h-53.828c-1.979,0-3.6-1.62-3.6-3.6V108.65z"/>
		
			<path fill="none" stroke="#010101" stroke-width="0.75" stroke-linecap="round" stroke-linejoin="round" stroke-miterlimit="1" d="
			M350.736,108.65c0-1.98,1.62-3.6,3.6-3.6h53.828c1.979,0,3.6,1.62,3.6,3.6v12.948c0,1.98-1.62,3.6-3.6,3.6h-53.828
			c-1.979,0-3.6-1.62-3.6-3.6V108.65z"/>
	</g>
	<text transform="matrix(1 0 0 1 360.5137 113.3652)"><tspan x="0" y="0" font-size="6">IVUS</tspan><tspan x="0" y="7.2" font-size="6">Measurements</tspan></text>
	<text transform="matrix(1 0 0 1 350.0479 101.4707)" font-size="7">TID 3253</text>
	<g>
		<path fill="#CCDEF0" d="M350.736,186.978c0-1.979,1.62-3.6,3.6-3.6h53.828c1.979,0,3.6,1.62,3.6,3.6v12.949
			c0,1.979-1.62,3.6-3.6,3.6h-53.828c-1.979,0-3.6-1.62-3.6-3.6V186.978z"/>
		
			<path fill="none" stroke="#010101" stroke-width="0.75" stroke-linecap="round" stroke-linejoin="round" stroke-miterlimit="1" d="
			M350.736,186.978c0-1.979,1.62-3.6,3.6-3.6h53.828c1.979,0,3.6,1.62,3.6,3.6v12.949c0,1.979-1.62,3.6-3.6,3.6h-53.828
			c-1.979,0-3.6-1.62-3.6-3.6V186.978z"/>
	</g>
	<text transform="matrix(1 0 0 1 360.5146 194.9707)" font-size="6">Device Used</text>
	<text transform="matrix(1 0 0 1 350.0479 180.6289)" font-size="7">TID 3107</text>
	<g>
		<path fill="#CCDEF0" d="M264.76,108.564c0-1.98,1.62-3.6,3.6-3.6h53.826c1.979,0,3.6,1.62,3.6,3.6v12.95c0,1.98-1.62,3.6-3.6,3.6
			h-53.826c-1.979,0-3.6-1.62-3.6-3.6V108.564z"/>
		
			<path fill="none" stroke="#010101" stroke-width="0.75" stroke-linecap="round" stroke-linejoin="round" stroke-miterlimit="1" d="
			M264.76,108.564c0-1.98,1.62-3.6,3.6-3.6h53.826c1.979,0,3.6,1.62,3.6,3.6v12.95c0,1.98-1.62,3.6-3.6,3.6h-53.826
			c-1.979,0-3.6-1.62-3.6-3.6V108.564z"/>
	</g>
	<text transform="matrix(1 0 0 1 274.542 116.5581)" font-size="6">IVUS Lesion</text>
	<text transform="matrix(1 0 0 1 90.251 15.415)" font-size="7">TID 3250</text>
	<g>
		<path fill="#CCDEF0" d="M92.01,22.592c0-1.98,1.62-3.6,3.6-3.6h53.826c1.98,0,3.6,1.62,3.6,3.6v12.949c0,1.98-1.62,3.6-3.6,3.6
			H95.61c-1.98,0-3.6-1.62-3.6-3.6V22.592z"/>
		
			<path fill="none" stroke="#010101" stroke-width="0.75" stroke-linecap="round" stroke-linejoin="round" stroke-miterlimit="1" d="
			M92.01,22.592c0-1.98,1.62-3.6,3.6-3.6h53.826c1.98,0,3.6,1.62,3.6,3.6v12.949c0,1.98-1.62,3.6-3.6,3.6H95.61
			c-1.98,0-3.6-1.62-3.6-3.6V22.592z"/>
	</g>
	<g>
		<path fill="#CCDEF0" d="M177.757,61.659c0-1.98,1.62-3.6,3.6-3.6h53.577c1.98,0,3.6,1.62,3.6,3.6v19.566c0,1.98-1.62,3.6-3.6,3.6
			h-53.577c-1.98,0-3.6-1.62-3.6-3.6V61.659z"/>
		
			<path fill="none" stroke="#010101" stroke-width="0.75" stroke-linecap="round" stroke-linejoin="round" stroke-miterlimit="1" d="
			M177.757,61.659c0-1.98,1.62-3.6,3.6-3.6h53.577c1.98,0,3.6,1.62,3.6,3.6v19.566c0,1.98-1.62,3.6-3.6,3.6h-53.577
			c-1.98,0-3.6-1.62-3.6-3.6V61.659z"/>
	</g>
	<text transform="matrix(1 0 0 1 175.999 54.9805)" font-size="7">TID 1204</text>
	<g>
		<path fill="#CCDEF0" d="M177.757,22.592c0-1.98,1.62-3.6,3.6-3.6h53.827c1.98,0,3.6,1.62,3.6,3.6v12.949c0,1.98-1.62,3.6-3.6,3.6
			h-53.827c-1.98,0-3.6-1.62-3.6-3.6V22.592z"/>
		
			<path fill="none" stroke="#010101" stroke-width="0.75" stroke-linecap="round" stroke-linejoin="round" stroke-miterlimit="1" d="
			M177.757,22.592c0-1.98,1.62-3.6,3.6-3.6h53.827c1.98,0,3.6,1.62,3.6,3.6v12.949c0,1.98-1.62,3.6-3.6,3.6h-53.827
			c-1.98,0-3.6-1.62-3.6-3.6V22.592z"/>
	</g>
	<text transform="matrix(1 0 0 1 186.542 27.3086)"><tspan x="0" y="0" font-size="6">Observer</tspan><tspan x="0" y="7.2" font-size="6">Context</tspan></text>
	<text transform="matrix(1 0 0 1 175.999 15.415)" font-size="7">TID 1002</text>
	<rect x="186.542" y="61.059" fill="none" width="48.176" height="19.766"/>
	<text transform="matrix(1 0 0 1 186.5415 65.3525)"><tspan x="0" y="0" font-size="6">Language of</tspan><tspan x="0" y="7.2" font-size="6">Content Item and </tspan><tspan x="0" y="14.4" font-size="6">Descendants</tspan></text>
	<g>
		<g>
			
				<line fill="none" stroke="#000000" stroke-width="0.75" stroke-linecap="round" stroke-linejoin="round" x1="153.035" y1="28.05" x2="171.111" y2="28.05"/>
			<g>
				<polygon points="169.625,30.229 177.755,28.05 169.625,25.871 				"/>
			</g>
		</g>
	</g>
	<g>
		<g>
			<polyline fill="none" stroke="#000000" stroke-width="0.75" stroke-linecap="round" stroke-linejoin="round" points="
				162.884,28.05 162.884,71.491 170.975,71.491 			"/>
			<g>
				<polygon points="169.489,73.67 177.62,71.491 169.489,69.312 				"/>
			</g>
		</g>
	</g>
	<g>
		<g>
			<polyline fill="none" stroke="#000000" stroke-width="0.75" stroke-linecap="round" stroke-linejoin="round" points="
				162.884,71.815 162.884,114.767 170.975,114.767 			"/>
			<g>
				<polygon points="169.489,116.945 177.62,114.767 169.489,112.588 				"/>
			</g>
		</g>
	</g>
	<g>
		<g>
			<polyline fill="none" stroke="#000000" stroke-width="0.75" stroke-linecap="round" stroke-linejoin="round" points="
				162.884,115.149 162.884,154.105 170.975,154.105 			"/>
			<g>
				<polygon points="169.489,156.284 177.62,154.105 169.489,151.927 				"/>
			</g>
		</g>
	</g>
	<g>
		<g>
			<polyline fill="none" stroke="#000000" stroke-width="0.75" stroke-linecap="round" stroke-linejoin="round" points="
				162.884,153.313 162.884,193.198 170.975,193.198 			"/>
			<g>
				<polygon points="169.489,195.377 177.62,193.198 169.489,191.02 				"/>
			</g>
		</g>
	</g>
	<g>
		<g>
			
				<line fill="none" stroke="#000000" stroke-width="0.75" stroke-linecap="round" stroke-linejoin="round" x1="326.088" y1="114.767" x2="344.164" y2="114.767"/>
			<g>
				<polygon points="342.678,116.945 350.809,114.767 342.678,112.588 				"/>
			</g>
		</g>
	</g>
	<g>
		<g>
			<polyline fill="none" stroke="#000000" stroke-width="0.75" stroke-linecap="round" stroke-linejoin="round" points="
				335.938,114.767 335.938,153.313 344.029,153.313 			"/>
			<g>
				<polygon points="342.543,155.492 350.674,153.313 342.543,151.135 				"/>
			</g>
		</g>
	</g>
	<g>
		<g>
			<polyline fill="none" stroke="#000000" stroke-width="0.75" stroke-linecap="round" stroke-linejoin="round" points="
				335.938,153.472 335.938,193.198 344.029,193.198 			"/>
			<g>
				<polygon points="342.543,195.377 350.674,193.198 342.543,191.02 				"/>
			</g>
		</g>
	</g>
	<g>
		<g>
			<polyline fill="none" stroke="#000000" stroke-width="0.75" stroke-linecap="round" stroke-linejoin="round" points="
				335.938,193.194 335.938,232.713 344.029,232.713 			"/>
			<g>
				<polygon points="342.543,234.892 350.674,232.713 342.543,230.534 				"/>
			</g>
		</g>
	</g>
	<g>
		<g>
			
				<line fill="none" stroke="#000000" stroke-width="0.75" stroke-linecap="round" stroke-linejoin="round" x1="238.782" y1="115.149" x2="258.104" y2="115.149"/>
			<g>
				<polygon points="256.617,117.328 264.748,115.149 256.617,112.971 				"/>
			</g>
		</g>
	</g>
	<g>
		<g>
			<polyline fill="none" stroke="#000000" stroke-width="0.75" stroke-linecap="round" stroke-linejoin="round" points="
				248.63,115.149 248.63,153.313 258.115,153.313 			"/>
			<g>
				<polygon points="256.629,155.492 264.76,153.313 256.629,151.135 				"/>
			</g>
		</g>
	</g>
	<text transform="matrix(1 0 0 1 100.6221 30.7354)" font-size="6">IVUS Report</text>
</g>
</svg>
