<?xml version="1.0" encoding="utf-8"?>
<!-- $Source: /home/bbennett/pass/archive/DicomXml/docbook/part16/figures/PS3.16_A-9.svg,v $ -->
<!-- $Date: 2014/02/18 14:35:29 $ -->
<!-- $Revision: 1.1 $ -->

<!DOCTYPE svg PUBLIC "-//W3C//DTD SVG 1.1//EN" "http://www.w3.org/Graphics/SVG/1.1/DTD/svg11.dtd">

<svg version="1.1" id="Layer_1" xmlns="http://www.w3.org/2000/svg" xmlns:xlink="http://www.w3.org/1999/xlink" x="0px" y="0px"
	 width="502px" height="446px" viewBox="0 0 502 446" enable-background="new 0 0 502 446" xml:space="preserve">

<defs>
	<style type="text/css">
	text {
	  font-family: Helvetica, Verdana, ArialUnicodeMS, san-serif
	}
	</style>
</defs>

<g>
   <desc>
	PS 3.16 Part 16: Content Mapping Resource
   </desc>
   <title>
	Figure A-9: Chest CAD SR IOD Template Structure 
   </title>
</g>

<g>
	<rect x="1" y="1" fill="#F5EED6" width="500" height="444"/>
	<g>
		<path fill="#CCDEF0" d="M94.364,142.511c0-1.98,1.62-3.6,3.6-3.6h53.826c1.98,0,3.6,1.62,3.6,3.6v12.95c0,1.98-1.62,3.6-3.6,3.6
			H97.964c-1.98,0-3.6-1.62-3.6-3.6V142.511z"/>
		<path fill="none" stroke="#010101" stroke-width="0.75" stroke-linecap="square" stroke-miterlimit="1" d="M94.364,142.511
			c0-1.98,1.62-3.6,3.6-3.6h53.826c1.98,0,3.6,1.62,3.6,3.6v12.95c0,1.98-1.62,3.6-3.6,3.6H97.964c-1.98,0-3.6-1.62-3.6-3.6V142.511
			z"/>
	</g>
	<text transform="matrix(1 0 0 1 111.9712 147.23)"><tspan x="0" y="0" font-size="6">Image</tspan><tspan x="0" y="7.2" font-size="6">Library</tspan></text>
	<text transform="matrix(1 0 0 1 93.3262 135.853)" font-size="7">TID 4020</text>
	<g>
		<path fill="#CCDEF0" d="M94.364,63.989c0-1.98,1.62-3.6,3.6-3.6h53.826c1.98,0,3.6,1.62,3.6,3.6v12.948c0,1.98-1.62,3.6-3.6,3.6
			H97.964c-1.98,0-3.6-1.62-3.6-3.6V63.989z"/>
		<path fill="none" stroke="#010101" stroke-width="0.75" stroke-linecap="square" stroke-miterlimit="1" d="M94.364,63.989
			c0-1.98,1.62-3.6,3.6-3.6h53.826c1.98,0,3.6,1.62,3.6,3.6v12.948c0,1.98-1.62,3.6-3.6,3.6H97.964c-1.98,0-3.6-1.62-3.6-3.6V63.989
			z"/>
	</g>
	<text transform="matrix(1 0 0 1 111.9712 68.7065)"><tspan x="0" y="0" font-size="6">Analyses</tspan><tspan x="0" y="7.2" font-size="6">Performed</tspan></text>
	<text transform="matrix(1 0 0 1 93.3262 57.3105)" font-size="7">TID 4016</text>
	<g>
		<path fill="#CCDEF0" d="M94.364,24.923c0-1.98,1.62-3.6,3.6-3.6h53.826c1.98,0,3.6,1.62,3.6,3.6v12.948c0,1.98-1.62,3.6-3.6,3.6
			H97.964c-1.98,0-3.6-1.62-3.6-3.6V24.923z"/>
		<path fill="none" stroke="#010101" stroke-width="0.75" stroke-linecap="square" stroke-miterlimit="1" d="M94.364,24.923
			c0-1.98,1.62-3.6,3.6-3.6h53.826c1.98,0,3.6,1.62,3.6,3.6v12.948c0,1.98-1.62,3.6-3.6,3.6H97.964c-1.98,0-3.6-1.62-3.6-3.6V24.923
			z"/>
	</g>
	<text transform="matrix(1 0 0 1 111.9712 29.6396)"><tspan x="0" y="0" font-size="6">Detections</tspan><tspan x="0" y="7.2" font-size="6">Performed</tspan></text>
	<text transform="matrix(1 0 0 1 93.3262 17.7451)" font-size="7">TID 4015</text>
	<g>
		<path fill="#CCDEF0" d="M172.164,63.989c0-1.98,1.62-3.6,3.6-3.6h53.827c1.98,0,3.6,1.62,3.6,3.6v12.948c0,1.98-1.62,3.6-3.6,3.6
			h-53.827c-1.98,0-3.6-1.62-3.6-3.6V63.989z"/>
		<path fill="none" stroke="#010101" stroke-width="0.75" stroke-linecap="square" stroke-miterlimit="1" d="M172.164,63.989
			c0-1.98,1.62-3.6,3.6-3.6h53.827c1.98,0,3.6,1.62,3.6,3.6v12.948c0,1.98-1.62,3.6-3.6,3.6h-53.827c-1.98,0-3.6-1.62-3.6-3.6
			V63.989z"/>
	</g>
	<text transform="matrix(1 0 0 1 189.7715 68.7065)"><tspan x="0" y="0" font-size="6">Analysis</tspan><tspan x="0" y="7.2" font-size="6">Performed</tspan></text>
	<text transform="matrix(1 0 0 1 171.127 57.3105)" font-size="7">TID 4018</text>
	<g>
		<path fill="#CCDEF0" d="M172.164,24.923c0-1.98,1.62-3.6,3.6-3.6h53.827c1.98,0,3.6,1.62,3.6,3.6v12.948c0,1.98-1.62,3.6-3.6,3.6
			h-53.827c-1.98,0-3.6-1.62-3.6-3.6V24.923z"/>
		<path fill="none" stroke="#010101" stroke-width="0.75" stroke-linecap="square" stroke-miterlimit="1" d="M172.164,24.923
			c0-1.98,1.62-3.6,3.6-3.6h53.827c1.98,0,3.6,1.62,3.6,3.6v12.948c0,1.98-1.62,3.6-3.6,3.6h-53.827c-1.98,0-3.6-1.62-3.6-3.6
			V24.923z"/>
	</g>
	<text transform="matrix(1 0 0 1 189.7715 29.6396)"><tspan x="0" y="0" font-size="6">Detection</tspan><tspan x="0" y="7.2" font-size="6">Performed</tspan></text>
	<text transform="matrix(1 0 0 1 171.127 17.7451)" font-size="7">TID 4017</text>
	<g>
		<path fill="#CCDEF0" d="M256.974,63.989c0-1.98,1.62-3.6,3.6-3.6h53.828c1.979,0,3.6,1.62,3.6,3.6v12.948c0,1.98-1.62,3.6-3.6,3.6
			h-53.828c-1.979,0-3.6-1.62-3.6-3.6V63.989z"/>
		<path fill="none" stroke="#010101" stroke-width="0.75" stroke-linecap="square" stroke-miterlimit="1" d="M256.974,63.989
			c0-1.98,1.62-3.6,3.6-3.6h53.828c1.979,0,3.6,1.62,3.6,3.6v12.948c0,1.98-1.62,3.6-3.6,3.6h-53.828c-1.979,0-3.6-1.62-3.6-3.6
			V63.989z"/>
	</g>
	<text transform="matrix(1 0 0 1 269.4277 68.7065)"><tspan x="0" y="0" font-size="6">CAD Algorithm</tspan><tspan x="0" y="7.2" font-size="6">Identification</tspan></text>
	<text transform="matrix(1 0 0 1 256.0215 57.3105)" font-size="7">TID 4019</text>
	<g>
		<path fill="#CCDEF0" d="M257.054,24.923c0-1.98,1.62-3.6,3.6-3.6h53.828c1.979,0,3.6,1.62,3.6,3.6v12.948c0,1.98-1.62,3.6-3.6,3.6
			h-53.828c-1.979,0-3.6-1.62-3.6-3.6V24.923z"/>
		<path fill="none" stroke="#010101" stroke-width="0.75" stroke-linecap="square" stroke-miterlimit="1" d="M257.054,24.923
			c0-1.98,1.62-3.6,3.6-3.6h53.828c1.979,0,3.6,1.62,3.6,3.6v12.948c0,1.98-1.62,3.6-3.6,3.6h-53.828c-1.979,0-3.6-1.62-3.6-3.6
			V24.923z"/>
	</g>
	<text transform="matrix(1 0 0 1 269.5068 29.6396)"><tspan x="0" y="0" font-size="6">CAD Algorithm</tspan><tspan x="0" y="7.2" font-size="6">Identification</tspan></text>
	<text transform="matrix(1 0 0 1 256.0195 17.7451)" font-size="7">TID 4019</text>
	<g>
		<path fill="#CCDEF0" d="M16.241,24.837c0-1.98,1.62-3.6,3.6-3.6h53.744c1.98,0,3.6,1.62,3.6,3.6v12.897c0,1.98-1.62,3.6-3.6,3.6
			H19.841c-1.98,0-3.6-1.62-3.6-3.6V24.837z"/>
		<path fill="none" stroke="#010101" stroke-width="0.75" stroke-linecap="square" d="M16.241,24.837c0-1.98,1.62-3.6,3.6-3.6
			h53.744c1.98,0,3.6,1.62,3.6,3.6v12.897c0,1.98-1.62,3.6-3.6,3.6H19.841c-1.98,0-3.6-1.62-3.6-3.6V24.837z"/>
	</g>
	<text transform="matrix(1 0 0 1 27.7349 29.5244)"><tspan x="0" y="0" font-size="6">Chest CAD</tspan><tspan x="0" y="7.2" font-size="6">Document Root</tspan></text>
	<text transform="matrix(1 0 0 1 15.2036 18.374)" font-size="7">TID 4100</text>
	<text transform="matrix(1 0 0 1 171.7002 175.3169)" font-size="7">TID 4104</text>
	<text transform="matrix(1 0 0 1 171.7002 135.7251)" font-size="7">TID 4106</text>
	<text transform="matrix(1 0 0 1 171.7002 96.1587)" font-size="7">TID 4102</text>
	<g>
		<path fill="#CCDEF0" d="M172.738,181.665c0-1.98,1.62-3.6,3.6-3.6h53.827c1.98,0,3.6,1.62,3.6,3.6v12.948c0,1.98-1.62,3.6-3.6,3.6
			h-53.827c-1.98,0-3.6-1.62-3.6-3.6V181.665z"/>
		<path fill="none" stroke="#010101" stroke-width="0.75" stroke-linecap="square" stroke-miterlimit="1" d="M172.738,181.665
			c0-1.98,1.62-3.6,3.6-3.6h53.827c1.98,0,3.6,1.62,3.6,3.6v12.948c0,1.98-1.62,3.6-3.6,3.6h-53.827c-1.98,0-3.6-1.62-3.6-3.6
			V181.665z"/>
	</g>
	<text transform="matrix(1 0 0 1 187.3071 186.3823)"><tspan x="0" y="0" font-size="6">Single Image</tspan><tspan x="0" y="7.2" font-size="6">Finding</tspan></text>
	<g>
		<path fill="#CCDEF0" d="M172.738,142.403c0-1.98,1.62-3.6,3.6-3.6h53.827c1.98,0,3.6,1.62,3.6,3.6v12.948c0,1.98-1.62,3.6-3.6,3.6
			h-53.827c-1.98,0-3.6-1.62-3.6-3.6V142.403z"/>
		<path fill="none" stroke="#010101" stroke-width="0.75" stroke-linecap="square" stroke-miterlimit="1" d="M172.738,142.403
			c0-1.98,1.62-3.6,3.6-3.6h53.827c1.98,0,3.6,1.62,3.6,3.6v12.948c0,1.98-1.62,3.6-3.6,3.6h-53.827c-1.98,0-3.6-1.62-3.6-3.6
			V142.403z"/>
	</g>
	<text transform="matrix(1 0 0 1 190.4946 147.1196)"><tspan x="0" y="0" font-size="6">Response</tspan><tspan x="0" y="7.2" font-size="6">Evaluation</tspan></text>
	<g>
		<path fill="#CCDEF0" d="M172.738,103.335c0-1.98,1.62-3.6,3.6-3.6h53.827c1.98,0,3.6,1.62,3.6,3.6v12.95c0,1.98-1.62,3.6-3.6,3.6
			h-53.827c-1.98,0-3.6-1.62-3.6-3.6V103.335z"/>
		<path fill="none" stroke="#010101" stroke-width="0.75" stroke-linecap="square" stroke-miterlimit="1" d="M172.738,103.335
			c0-1.98,1.62-3.6,3.6-3.6h53.827c1.98,0,3.6,1.62,3.6,3.6v12.95c0,1.98-1.62,3.6-3.6,3.6h-53.827c-1.98,0-3.6-1.62-3.6-3.6
			V103.335z"/>
	</g>
	<text transform="matrix(1 0 0 1 190.1948 108.0532)"><tspan x="0" y="0" font-size="6">Composite</tspan><tspan x="0" y="7.2" font-size="6">Feature</tspan></text>
	<g>
		<path fill="#CCDEF0" d="M94.364,103.251c0-1.98,1.62-3.6,3.6-3.6h53.826c1.98,0,3.6,1.62,3.6,3.6v12.948c0,1.98-1.62,3.6-3.6,3.6
			H97.964c-1.98,0-3.6-1.62-3.6-3.6V103.251z"/>
		<path fill="none" stroke="#010101" stroke-width="0.75" stroke-linecap="square" stroke-miterlimit="1" d="M94.364,103.251
			c0-1.98,1.62-3.6,3.6-3.6h53.826c1.98,0,3.6,1.62,3.6,3.6v12.948c0,1.98-1.62,3.6-3.6,3.6H97.964c-1.98,0-3.6-1.62-3.6-3.6
			V103.251z"/>
	</g>
	<text transform="matrix(1 0 0 1 111.9712 107.9683)"><tspan x="0" y="0" font-size="6">Findings</tspan><tspan x="0" y="7.2" font-size="6">Summary</tspan></text>
	<text transform="matrix(1 0 0 1 93.3262 96.9028)" font-size="7">TID 4101</text>
	<g>
		<path fill="#CCDEF0" d="M339.438,182.981c0-1.98,1.62-3.6,3.6-3.6h53.828c1.979,0,3.6,1.62,3.6,3.6v12.952
			c0,1.98-1.62,3.6-3.6,3.6h-53.828c-1.979,0-3.6-1.62-3.6-3.6V182.981z"/>
		<path fill="none" stroke="#010101" stroke-width="0.75" stroke-linecap="square" stroke-miterlimit="1" d="M339.438,182.981
			c0-1.98,1.62-3.6,3.6-3.6h53.828c1.979,0,3.6,1.62,3.6,3.6v12.952c0,1.98-1.62,3.6-3.6,3.6h-53.828c-1.979,0-3.6-1.62-3.6-3.6
			V182.981z"/>
	</g>
	<text transform="matrix(1 0 0 1 348.7031 187.6982)"><tspan x="0" y="0" font-size="6">CAD Observation</tspan><tspan x="0" y="7.2" font-size="6">Context</tspan></text>
	<text transform="matrix(1 0 0 1 338.2568 175.8032)" font-size="7">TID 4022</text>
	<g>
		<path fill="#CCDEF0" d="M339.438,143.55c0-1.98,1.62-3.6,3.6-3.6h53.828c1.979,0,3.6,1.62,3.6,3.6v12.95c0,1.98-1.62,3.6-3.6,3.6
			h-53.828c-1.979,0-3.6-1.62-3.6-3.6V143.55z"/>
		<path fill="none" stroke="#010101" stroke-width="0.75" stroke-linecap="square" stroke-miterlimit="1" d="M339.438,143.55
			c0-1.98,1.62-3.6,3.6-3.6h53.828c1.979,0,3.6,1.62,3.6,3.6v12.95c0,1.98-1.62,3.6-3.6,3.6h-53.828c-1.979,0-3.6-1.62-3.6-3.6
			V143.55z"/>
	</g>
	<text transform="matrix(1 0 0 1 354.0117 148.2656)"><tspan x="0" y="0" font-size="6">Single Image</tspan><tspan x="0" y="7.2" font-size="6">Finding</tspan></text>
	<text transform="matrix(1 0 0 1 338.4062 136.8696)" font-size="7">TID 4104</text>
	<g>
		<path fill="#CCDEF0" d="M339.438,104.483c0-1.98,1.62-3.6,3.6-3.6h53.828c1.979,0,3.6,1.62,3.6,3.6v12.95c0,1.98-1.62,3.6-3.6,3.6
			h-53.828c-1.979,0-3.6-1.62-3.6-3.6V104.483z"/>
		<path fill="none" stroke="#010101" stroke-width="0.75" stroke-linecap="square" stroke-miterlimit="1" d="M339.438,104.483
			c0-1.98,1.62-3.6,3.6-3.6h53.828c1.979,0,3.6,1.62,3.6,3.6v12.95c0,1.98-1.62,3.6-3.6,3.6h-53.828c-1.979,0-3.6-1.62-3.6-3.6
			V104.483z"/>
	</g>
	<text transform="matrix(1 0 0 1 356.9004 109.1987)"><tspan x="0" y="0" font-size="6">Composite</tspan><tspan x="0" y="7.2" font-size="6">Feature</tspan></text>
	<text transform="matrix(1 0 0 1 338.4062 97.3042)" font-size="7">TID 4102</text>
	<text transform="matrix(1 0 0 1 338.3262 254.8765)" font-size="7">TID 4103</text>
	<text transform="matrix(1 0 0 1 338.3262 215.2842)" font-size="7">TID 4108</text>
	<g>
		<path fill="#CCDEF0" d="M339.441,261.223c0-1.979,1.62-3.6,3.6-3.6h53.82c1.979,0,3.6,1.62,3.6,3.6v12.949
			c0,1.979-1.62,3.6-3.6,3.6h-53.82c-1.979,0-3.6-1.62-3.6-3.6V261.223z"/>
		<path fill="none" stroke="#010101" stroke-width="0.75" stroke-linecap="square" stroke-miterlimit="1" d="M339.441,261.223
			c0-1.979,1.62-3.6,3.6-3.6h53.82c1.979,0,3.6,1.62,3.6,3.6v12.949c0,1.979-1.62,3.6-3.6,3.6h-53.82c-1.979,0-3.6-1.62-3.6-3.6
			V261.223z"/>
	</g>
	<text transform="matrix(1 0 0 1 353.5586 265.9409)"><tspan x="0" y="0" font-size="6">Composite</tspan><tspan x="0" y="7.201" font-size="6">Feature Body</tspan></text>
	<g>
		<path fill="#CCDEF0" d="M339.441,221.964c0-1.98,1.62-3.6,3.6-3.6h53.82c1.979,0,3.6,1.62,3.6,3.6v12.951
			c0,1.979-1.62,3.6-3.6,3.6h-53.82c-1.979,0-3.6-1.62-3.6-3.6V221.964z"/>
		<path fill="none" stroke="#010101" stroke-width="0.75" stroke-linecap="square" stroke-miterlimit="1" d="M339.441,221.964
			c0-1.98,1.62-3.6,3.6-3.6h53.82c1.979,0,3.6,1.62,3.6,3.6v12.951c0,1.979-1.62,3.6-3.6,3.6h-53.82c-1.979,0-3.6-1.62-3.6-3.6
			V221.964z"/>
	</g>
	<text transform="matrix(1 0 0 1 359.4434 226.6792)"><tspan x="0" y="0" font-size="6">Tracking</tspan><tspan x="0" y="7.199" font-size="6">Identifier</tspan></text>
	<g>
		<path fill="#CCDEF0" d="M256.282,378.727c0-1.979,1.62-3.6,3.6-3.6h53.832c1.979,0,3.6,1.62,3.6,3.6v12.949
			c0,1.979-1.62,3.6-3.6,3.6h-53.832c-1.979,0-3.6-1.62-3.6-3.6V378.727z"/>
		<path fill="none" stroke="#010101" stroke-width="0.75" stroke-linecap="square" stroke-miterlimit="1" d="M256.282,378.727
			c0-1.979,1.62-3.6,3.6-3.6h53.832c1.979,0,3.6,1.62,3.6,3.6v12.949c0,1.979-1.62,3.6-3.6,3.6h-53.832c-1.979,0-3.6-1.62-3.6-3.6
			V378.727z"/>
	</g>
	<text transform="matrix(1 0 0 1 265.0469 386.7163)" font-size="6">Tracking Identifier</text>
	<text transform="matrix(1 0 0 1 255.2402 372.063)" font-size="7">TID 4108</text>
	<g>
		<path fill="#CCDEF0" d="M256.282,300.204c0-1.979,1.62-3.6,3.6-3.6h53.832c1.979,0,3.6,1.62,3.6,3.6v12.953
			c0,1.979-1.62,3.6-3.6,3.6h-53.832c-1.979,0-3.6-1.62-3.6-3.6V300.204z"/>
		<path fill="none" stroke="#010101" stroke-width="0.75" stroke-linecap="square" stroke-miterlimit="1" d="M256.282,300.204
			c0-1.979,1.62-3.6,3.6-3.6h53.832c1.979,0,3.6,1.62,3.6,3.6v12.953c0,1.979-1.62,3.6-3.6,3.6h-53.832c-1.979,0-3.6-1.62-3.6-3.6
			V300.204z"/>
	</g>
	<text transform="matrix(1 0 0 1 275.7129 308.1929)" font-size="6">Modifiers</text>
	<text transform="matrix(1 0 0 1 255.2422 293.521)" font-size="7">TID 4105</text>
	<g>
		<path fill="#CCDEF0" d="M256.282,261.137c0-1.979,1.62-3.6,3.6-3.6h53.832c1.979,0,3.6,1.62,3.6,3.6v12.949
			c0,1.979-1.62,3.6-3.6,3.6h-53.832c-1.979,0-3.6-1.62-3.6-3.6V261.137z"/>
		<path fill="none" stroke="#010101" stroke-width="0.75" stroke-linecap="square" stroke-miterlimit="1" d="M256.282,261.137
			c0-1.979,1.62-3.6,3.6-3.6h53.832c1.979,0,3.6,1.62,3.6,3.6v12.949c0,1.979-1.62,3.6-3.6,3.6h-53.832c-1.979,0-3.6-1.62-3.6-3.6
			V261.137z"/>
	</g>
	<text transform="matrix(1 0 0 1 268.7295 265.8491)"><tspan x="0" y="0" font-size="6">CAD Algorithm</tspan><tspan x="0" y="7.2" font-size="6">Identification</tspan></text>
	<text transform="matrix(1 0 0 1 255.2402 253.9546)" font-size="7">TID 4019</text>
	<g>
		<path fill="#CCDEF0" d="M256.282,339.465c0-1.979,1.62-3.6,3.6-3.6h53.832c1.979,0,3.6,1.62,3.6,3.6v12.953
			c0,1.979-1.62,3.6-3.6,3.6h-53.832c-1.979,0-3.6-1.62-3.6-3.6V339.465z"/>
		<path fill="none" stroke="#010101" stroke-width="0.75" stroke-linecap="square" stroke-miterlimit="1" d="M256.282,339.465
			c0-1.979,1.62-3.6,3.6-3.6h53.832c1.979,0,3.6,1.62,3.6,3.6v12.953c0,1.979-1.62,3.6-3.6,3.6h-53.832c-1.979,0-3.6-1.62-3.6-3.6
			V339.465z"/>
	</g>
	<text transform="matrix(1 0 0 1 265.5391 344.1772)"><tspan x="0" y="0" font-size="6">CAD Observation</tspan><tspan x="0" y="7.2" font-size="6">Context</tspan></text>
	<text transform="matrix(1 0 0 1 255.2402 333.1128)" font-size="7">TID 4022</text>
	<g>
		<path fill="#CCDEF0" d="M256.282,417.907c0-1.979,1.62-3.6,3.6-3.6h53.832c1.979,0,3.6,1.62,3.6,3.6v12.953
			c0,1.979-1.62,3.6-3.6,3.6h-53.832c-1.979,0-3.6-1.62-3.6-3.6V417.907z"/>
		<path fill="none" stroke="#010101" stroke-width="0.75" stroke-linecap="square" stroke-miterlimit="1" d="M256.282,417.907
			c0-1.979,1.62-3.6,3.6-3.6h53.832c1.979,0,3.6,1.62,3.6,3.6v12.953c0,1.979-1.62,3.6-3.6,3.6h-53.832c-1.979,0-3.6-1.62-3.6-3.6
			V417.907z"/>
	</g>
	<text transform="matrix(1 0 0 1 269.9414 425.8979)" font-size="6">Image Quality</text>
	<text transform="matrix(1 0 0 1 255.2402 411.2446)" font-size="7">TID 4014</text>
	<g>
		<path fill="#CCDEF0" d="M256.282,182.653c0-1.98,1.62-3.6,3.6-3.6h53.832c1.979,0,3.6,1.62,3.6,3.6v12.952
			c0,1.98-1.62,3.6-3.6,3.6h-53.832c-1.979,0-3.6-1.62-3.6-3.6V182.653z"/>
		<path fill="none" stroke="#010101" stroke-width="0.75" stroke-linecap="square" stroke-miterlimit="1" d="M256.282,182.653
			c0-1.98,1.62-3.6,3.6-3.6h53.832c1.979,0,3.6,1.62,3.6,3.6v12.952c0,1.98-1.62,3.6-3.6,3.6h-53.832c-1.979,0-3.6-1.62-3.6-3.6
			V182.653z"/>
	</g>
	<text transform="matrix(1 0 0 1 274.8008 190.6499)" font-size="6">Geometry</text>
	<text transform="matrix(1 0 0 1 255.2402 175.9761)" font-size="7">TID 4107</text>
	<g>
		<path fill="#CCDEF0" d="M256.282,221.917c0-1.98,1.62-3.6,3.6-3.6h53.832c1.979,0,3.6,1.62,3.6,3.6v12.953
			c0,1.979-1.62,3.6-3.6,3.6h-53.832c-1.979,0-3.6-1.62-3.6-3.6V221.917z"/>
		<path fill="none" stroke="#010101" stroke-width="0.75" stroke-linecap="square" stroke-miterlimit="1" d="M256.282,221.917
			c0-1.98,1.62-3.6,3.6-3.6h53.832c1.979,0,3.6,1.62,3.6,3.6v12.953c0,1.979-1.62,3.6-3.6,3.6h-53.832c-1.979,0-3.6-1.62-3.6-3.6
			V221.917z"/>
	</g>
	<text transform="matrix(1 0 0 1 270.0928 229.9116)" font-size="6">Measurement</text>
	<text transform="matrix(1 0 0 1 252.8652 215.5698)" font-size="7">TID 1400, 1401, 1402</text>
	<g>
		<g>
			
				<line fill="none" stroke="#010101" stroke-width="2" stroke-linecap="round" stroke-linejoin="round" stroke-miterlimit="10" stroke-dasharray="3,3" x1="420.76" y1="109.342" x2="435.76" y2="109.342"/>
		</g>
	</g>
	<g>
		<g>
			
				<line fill="none" stroke="#010101" stroke-width="2" stroke-linecap="round" stroke-linejoin="round" stroke-miterlimit="10" stroke-dasharray="3,3" x1="420.76" y1="150.025" x2="435.76" y2="150.025"/>
		</g>
	</g>
	<g>
		<path fill="#CCDEF0" d="M422.485,378.891c0-1.979,1.62-3.6,3.6-3.6h53.828c1.979,0,3.6,1.62,3.6,3.6v12.949
			c0,1.979-1.62,3.6-3.6,3.6h-53.828c-1.979,0-3.6-1.62-3.6-3.6V378.891z"/>
		<path fill="none" stroke="#010101" stroke-width="0.75" stroke-linecap="square" stroke-miterlimit="1" d="M422.485,378.891
			c0-1.979,1.62-3.6,3.6-3.6h53.828c1.979,0,3.6,1.62,3.6,3.6v12.949c0,1.979-1.62,3.6-3.6,3.6h-53.828c-1.979,0-3.6-1.62-3.6-3.6
			V378.891z"/>
	</g>
	<text transform="matrix(1 0 0 1 441.9248 386.8921)" font-size="6">Modifiers</text>
	<text transform="matrix(1 0 0 1 421.4551 372.2397)" font-size="7">TID 4105</text>
	<g>
		<path fill="#CCDEF0" d="M422.485,300.372c0-1.979,1.62-3.6,3.6-3.6h53.828c1.979,0,3.6,1.62,3.6,3.6v12.945
			c0,1.979-1.62,3.6-3.6,3.6h-53.828c-1.979,0-3.6-1.62-3.6-3.6V300.372z"/>
		<path fill="none" stroke="#010101" stroke-width="0.75" stroke-linecap="square" stroke-miterlimit="1" d="M422.485,300.372
			c0-1.979,1.62-3.6,3.6-3.6h53.828c1.979,0,3.6,1.62,3.6,3.6v12.945c0,1.979-1.62,3.6-3.6,3.6h-53.828c-1.979,0-3.6-1.62-3.6-3.6
			V300.372z"/>
	</g>
	<text transform="matrix(1 0 0 1 436.3066 308.3706)" font-size="6">Measurement</text>
	<text transform="matrix(1 0 0 1 419.082 293.6968)" font-size="7">TID 1400, 1401, 1402</text>
	<g>
		<path fill="#CCDEF0" d="M422.485,261.309c0-1.979,1.62-3.6,3.6-3.6h53.828c1.979,0,3.6,1.62,3.6,3.6v12.949
			c0,1.979-1.62,3.6-3.6,3.6h-53.828c-1.979,0-3.6-1.62-3.6-3.6V261.309z"/>
		<path fill="none" stroke="#010101" stroke-width="0.75" stroke-linecap="square" stroke-miterlimit="1" d="M422.485,261.309
			c0-1.979,1.62-3.6,3.6-3.6h53.828c1.979,0,3.6,1.62,3.6,3.6v12.949c0,1.979-1.62,3.6-3.6,3.6h-53.828c-1.979,0-3.6-1.62-3.6-3.6
			V261.309z"/>
	</g>
	<text transform="matrix(1 0 0 1 441.0146 269.3042)" font-size="6">Geometry</text>
	<text transform="matrix(1 0 0 1 421.4551 254.1323)" font-size="7">TID 4107</text>
	<g>
		<path fill="#CCDEF0" d="M422.485,339.629c0-1.979,1.62-3.6,3.6-3.6h53.828c1.979,0,3.6,1.62,3.6,3.6v12.949
			c0,1.979-1.62,3.6-3.6,3.6h-53.828c-1.979,0-3.6-1.62-3.6-3.6V339.629z"/>
		<path fill="none" stroke="#010101" stroke-width="0.75" stroke-linecap="square" stroke-miterlimit="1" d="M422.485,339.629
			c0-1.979,1.62-3.6,3.6-3.6h53.828c1.979,0,3.6,1.62,3.6,3.6v12.949c0,1.979-1.62,3.6-3.6,3.6h-53.828c-1.979,0-3.6-1.62-3.6-3.6
			V339.629z"/>
	</g>
	<text transform="matrix(1 0 0 1 434.9424 344.355)"><tspan x="0" y="0" font-size="6">CAD Algorithm</tspan><tspan x="0" y="7.199" font-size="6">Identification</tspan></text>
	<text transform="matrix(1 0 0 1 421.4551 333.2905)" font-size="7">TID 4109</text>
	<g>
		<g>
			
				<line fill="none" stroke="#000000" stroke-width="0.75" stroke-linecap="square" stroke-miterlimit="10" x1="77.185" y1="31.286" x2="87.719" y2="31.286"/>
			<g>
				<polygon points="86.233,33.464 94.364,31.286 86.233,29.107 				"/>
			</g>
		</g>
	</g>
	<g>
		<g>
			<polyline fill="none" stroke="#000000" stroke-width="0.75" stroke-linecap="square" stroke-miterlimit="10" points="
				81.527,31.566 81.527,70.463 87.603,70.463 			"/>
			<g>
				<polygon points="86.116,72.642 94.247,70.463 86.116,68.285 				"/>
			</g>
		</g>
	</g>
	<g>
		<g>
			<polyline fill="none" stroke="#000000" stroke-width="0.75" stroke-linecap="square" stroke-miterlimit="10" points="
				81.527,70.519 81.527,109.725 87.603,109.725 			"/>
			<g>
				<polygon points="86.116,111.904 94.247,109.725 86.116,107.546 				"/>
			</g>
		</g>
	</g>
	<g>
		<g>
			<polyline fill="none" stroke="#000000" stroke-width="0.75" stroke-linecap="square" stroke-miterlimit="10" points="
				81.527,109.422 81.527,148.986 87.603,148.986 			"/>
			<g>
				<polygon points="86.116,151.165 94.247,148.986 86.116,146.807 				"/>
			</g>
		</g>
	</g>
	<g>
		<g>
			
				<line fill="none" stroke="#000000" stroke-width="0.75" stroke-linecap="square" stroke-miterlimit="10" x1="155.39" y1="31.286" x2="165.924" y2="31.286"/>
			<g>
				<polygon points="164.438,33.464 172.569,31.286 164.438,29.107 				"/>
			</g>
		</g>
	</g>
	<g>
		<g>
			
				<line fill="none" stroke="#000000" stroke-width="0.75" stroke-linecap="square" stroke-miterlimit="10" x1="155.39" y1="70.463" x2="165.924" y2="70.463"/>
			<g>
				<polygon points="164.438,72.642 172.569,70.463 164.438,68.285 				"/>
			</g>
		</g>
	</g>
	<g>
		<g>
			
				<line fill="none" stroke="#000000" stroke-width="0.75" stroke-linecap="square" stroke-miterlimit="10" x1="155.39" y1="109.641" x2="165.924" y2="109.641"/>
			<g>
				<polygon points="164.438,111.82 172.569,109.641 164.438,107.462 				"/>
			</g>
		</g>
	</g>
	<g>
		<g>
			
				<line fill="none" stroke="#000000" stroke-width="0.75" stroke-linecap="square" stroke-miterlimit="10" x1="233.608" y1="31.286" x2="250.409" y2="31.286"/>
			<g>
				<polygon points="248.923,33.464 257.054,31.286 248.923,29.107 				"/>
			</g>
		</g>
	</g>
	<g>
		<g>
			
				<line fill="none" stroke="#000000" stroke-width="0.75" stroke-linecap="square" stroke-miterlimit="10" x1="233.608" y1="70.463" x2="250.409" y2="70.463"/>
			<g>
				<polygon points="248.923,72.642 257.054,70.463 248.923,68.285 				"/>
			</g>
		</g>
	</g>
	<g>
		<g>
			
				<line fill="none" stroke="#000000" stroke-width="0.75" stroke-linecap="square" stroke-miterlimit="10" x1="400.465" y1="109.201" x2="412.418" y2="109.201"/>
			<g>
				<polygon points="410.932,111.379 419.062,109.201 410.932,107.022 				"/>
			</g>
		</g>
	</g>
	<g>
		<g>
			
				<line fill="none" stroke="#000000" stroke-width="0.75" stroke-linecap="square" stroke-miterlimit="10" x1="400.465" y1="150.025" x2="412.418" y2="150.025"/>
			<g>
				<polygon points="410.932,152.204 419.062,150.025 410.932,147.846 				"/>
			</g>
		</g>
	</g>
	<g>
		<g>
			
				<line fill="none" stroke="#000000" stroke-width="0.75" stroke-linecap="square" stroke-miterlimit="10" x1="233.608" y1="109.641" x2="332.793" y2="109.641"/>
			<g>
				<polygon points="331.307,111.82 339.438,109.641 331.307,107.462 				"/>
			</g>
		</g>
	</g>
	<g>
		<g>
			<polyline fill="none" stroke="#000000" stroke-width="0.75" stroke-linecap="square" stroke-miterlimit="10" points="
				159.732,109.889 159.732,148.986 165.808,148.986 			"/>
			<g>
				<polygon points="164.321,151.165 172.452,148.986 164.321,146.807 				"/>
			</g>
		</g>
	</g>
	<g>
		<g>
			<polyline fill="none" stroke="#000000" stroke-width="0.75" stroke-linecap="square" stroke-miterlimit="10" points="
				159.732,148.631 159.732,188.139 165.808,188.139 			"/>
			<g>
				<polygon points="164.321,190.318 172.452,188.139 164.321,185.96 				"/>
			</g>
		</g>
	</g>
	<g>
		<g>
			
				<line fill="none" stroke="#000000" stroke-width="0.75" stroke-linecap="square" stroke-miterlimit="10" x1="233.765" y1="188.139" x2="249.601" y2="188.139"/>
			<g>
				<polygon points="248.114,190.318 256.245,188.139 248.114,185.96 				"/>
			</g>
		</g>
	</g>
	<g>
		<g>
			<polyline fill="none" stroke="#000000" stroke-width="0.75" stroke-linecap="square" stroke-miterlimit="10" points="
				239.486,188.519 239.486,228.393 249.601,228.393 			"/>
			<g>
				<polygon points="248.114,230.572 256.245,228.393 248.114,226.214 				"/>
			</g>
		</g>
	</g>
	<g>
		<g>
			<polyline fill="none" stroke="#000000" stroke-width="0.75" stroke-linecap="square" stroke-miterlimit="10" points="
				239.486,228.353 239.486,267.612 249.601,267.612 			"/>
			<g>
				<polygon points="248.114,269.791 256.245,267.612 248.114,265.433 				"/>
			</g>
		</g>
	</g>
	<g>
		<g>
			<polyline fill="none" stroke="#000000" stroke-width="0.75" stroke-linecap="square" stroke-miterlimit="10" points="
				239.486,267.135 239.486,306.68 249.601,306.68 			"/>
			<g>
				<polygon points="248.114,308.859 256.245,306.68 248.114,304.501 				"/>
			</g>
		</g>
	</g>
	<g>
		<g>
			<polyline fill="none" stroke="#000000" stroke-width="0.75" stroke-linecap="square" stroke-miterlimit="10" points="
				239.486,306.664 239.486,345.942 249.601,345.942 			"/>
			<g>
				<polygon points="248.114,348.121 256.245,345.942 248.114,343.763 				"/>
			</g>
		</g>
	</g>
	<g>
		<g>
			<polyline fill="none" stroke="#000000" stroke-width="0.75" stroke-linecap="square" stroke-miterlimit="10" points="
				239.486,346.026 239.486,385.202 249.601,385.202 			"/>
			<g>
				<polygon points="248.114,387.38 256.245,385.202 248.114,383.023 				"/>
			</g>
		</g>
	</g>
	<g>
		<g>
			
				<line fill="none" stroke="#000000" stroke-width="0.75" stroke-linecap="square" stroke-miterlimit="10" x1="400.465" y1="267.698" x2="416.301" y2="267.698"/>
			<g>
				<polygon points="414.814,269.876 422.945,267.698 414.814,265.519 				"/>
			</g>
		</g>
	</g>
	<g>
		<g>
			<polyline fill="none" stroke="#000000" stroke-width="0.75" stroke-linecap="square" stroke-miterlimit="10" points="
				406.186,268.165 406.186,306.844 416.301,306.844 			"/>
			<g>
				<polygon points="414.814,309.023 422.945,306.844 414.814,304.666 				"/>
			</g>
		</g>
	</g>
	<g>
		<g>
			<polyline fill="none" stroke="#000000" stroke-width="0.75" stroke-linecap="square" stroke-miterlimit="10" points="
				406.186,306.674 406.186,346.104 416.301,346.104 			"/>
			<g>
				<polygon points="414.814,348.283 422.945,346.104 414.814,343.925 				"/>
			</g>
		</g>
	</g>
	<g>
		<g>
			<polyline fill="none" stroke="#000000" stroke-width="0.75" stroke-linecap="square" stroke-miterlimit="10" points="
				406.186,346.05 406.186,385.366 416.301,385.366 			"/>
			<g>
				<polygon points="414.814,387.544 422.945,385.366 414.814,383.187 				"/>
			</g>
		</g>
	</g>
	<g>
		<g>
			<polyline fill="none" stroke="#000000" stroke-width="0.75" stroke-linecap="square" stroke-miterlimit="10" points="
				325.062,109.643 325.062,149.269 333.057,149.269 			"/>
			<g>
				<polygon points="331.57,151.448 339.701,149.269 331.57,147.09 				"/>
			</g>
		</g>
	</g>
	<g>
		<g>
			<polyline fill="none" stroke="#000000" stroke-width="0.75" stroke-linecap="square" stroke-miterlimit="10" points="
				325.062,149.229 325.062,188.488 333.057,188.488 			"/>
			<g>
				<polygon points="331.57,190.667 339.701,188.488 331.57,186.309 				"/>
			</g>
		</g>
	</g>
	<g>
		<g>
			<polyline fill="none" stroke="#000000" stroke-width="0.75" stroke-linecap="square" stroke-miterlimit="10" points="
				325.062,188.011 325.062,227.555 333.057,227.555 			"/>
			<g>
				<polygon points="331.57,229.734 339.701,227.555 331.57,225.376 				"/>
			</g>
		</g>
	</g>
	<g>
		<g>
			<polyline fill="none" stroke="#000000" stroke-width="0.75" stroke-linecap="square" stroke-miterlimit="10" points="
				325.062,227.539 325.062,266.817 333.057,266.817 			"/>
			<g>
				<polygon points="331.57,268.996 339.701,266.817 331.57,264.638 				"/>
			</g>
		</g>
	</g>
	<g>
		<g>
			<polyline fill="none" stroke="#000000" stroke-width="0.75" stroke-linecap="square" stroke-miterlimit="10" points="
				239.486,385.204 239.486,424.383 249.601,424.383 			"/>
			<g>
				<polygon points="248.114,426.562 256.245,424.383 248.114,422.205 				"/>
			</g>
		</g>
	</g>
</g>
</svg>
