<?xml version="1.0" encoding="utf-8"?>
<!-- $Source: /home/bbennett/pass/archive/DicomXml/docbook/part03/figures/PS3.3_C.8.11.7-2e.svg,v $ -->
<!-- $Date: 2014/05/09 12:27:11 $ -->
<!-- $Revision: 1.2 $ -->

<!DOCTYPE svg PUBLIC "-//W3C//DTD SVG 1.1//EN" "http://www.w3.org/Graphics/SVG/1.1/DTD/svg11.dtd">
<svg version="1.1" id="Layer_1" xmlns="http://www.w3.org/2000/svg" xmlns:xlink="http://www.w3.org/1999/xlink" x="0px" y="0px"
	 width="502px" height="242px" viewBox="0 0 502 242" enable-background="new 0 0 502 242" xml:space="preserve">

<defs>
	<style type="text/css">
	text {
	  font-family: Helvetica, Verdana, ArialUnicodeMS, san-serif
	}
	</style>
</defs>

<g>
   <desc>
	PS 3.3 Part 3: Information Object Definitions
   </desc>
</g>

<g>
	<rect x="1" y="1" fill="#F5EED6" width="500" height="240"/>
	<g>
		<g>
			<text transform="matrix(0.963 0 0 1 208.4014 24.0703)" font-size="10">axilla</text>
		</g>
		<g>
			<text transform="matrix(0.963 0 0 1 230.0513 44.3687)" font-size="10">A</text>
		</g>
		<g>
			<text transform="matrix(0.963 0 0 1 273.1436 71.3247)" font-size="10">D</text>
		</g>
		<g>
			<text transform="matrix(0.963 0 0 1 228.1777 133.5352)" font-size="10">B</text>
		</g>
		<g>
			<text transform="matrix(0.963 0 0 1 227.8726 221.6758)" font-size="10">C</text>
		</g>
		<g>
			<text transform="matrix(0.963 0 0 1 290.4043 189.6758)" font-size="10">E</text>
		</g>
		<polyline fill-rule="evenodd" clip-rule="evenodd" fill="#005695" points="209.36,47.03 207.681,49.431 208.641,49.909 
			209.12,50.149 210.321,51.11 211.521,51.829 212.961,52.79 214.641,53.749 216.321,54.95 219.921,57.11 224.001,59.511 
			228.321,62.149 232.881,65.03 237.441,67.909 246.561,73.909 247.281,72.47 246.08,73.669 250.641,76.79 254.961,79.909 
			259.041,83.03 262.641,86.149 266,89.03 267.682,90.71 268.881,92.149 270.08,90.95 268.881,91.909 271.521,95.03 273.92,98.149 
			276.08,101.271 278.24,104.39 279.441,103.431 278,103.909 279.92,107.03 281.84,110.39 283.281,113.749 284.961,116.87 
			286.16,120.229 287.361,123.591 288.32,126.71 289.041,130.069 290.48,129.351 289.041,129.351 289.521,132.47 290,135.591 
			290,138.71 290,141.591 289.762,144.47 289.281,147.351 290.721,147.351 289.281,146.63 288.561,149.751 287.602,152.63 
			286.4,155.511 284.961,158.39 283.281,161.03 281.602,163.909 283.041,164.39 281.84,163.431 279.92,166.069 278,168.71 
			273.441,173.751 271.281,176.149 268.881,178.31 266.24,180.47 264.08,182.149 260.961,184.069 262.16,185.271 261.441,183.831 
			258.561,185.511 255.201,187.19 251.601,188.63 248.001,189.831 244.16,191.271 236.001,193.431 232.161,194.39 228.321,195.351 
			224.481,196.31 220.881,197.271 217.521,197.989 214.401,198.71 211.761,199.431 209.601,200.39 210.561,203.03 212.961,202.31 
			215.601,201.591 218.721,200.87 222.081,199.909 225.681,199.19 229.521,198.229 233.36,197.271 237.201,196.31 245.361,193.909 
			249.201,192.71 252.801,191.271 256.4,189.831 259.762,188.39 262.641,186.71 263.121,186.229 265.762,184.55 268.4,182.63 
			271.041,180.47 273.441,178.31 275.602,175.909 280.16,170.87 282.08,168.229 284,165.591 284.24,165.11 286.16,162.229 
			287.602,159.591 289.041,156.71 290.24,153.831 291.201,150.95 292.16,147.831 292.16,147.351 292.641,144.47 293.121,141.591 
			293.121,138.71 292.881,135.591 292.4,132.47 291.92,129.351 291.92,128.87 290.961,125.511 290,122.39 289.041,119.03 
			287.602,115.669 286.16,112.55 284.48,109.19 282.561,105.829 280.641,102.71 280.4,102.229 278.24,99.11 276.08,95.989 
			273.682,92.87 271.041,89.989 269.84,88.55 268.16,86.87 264.801,83.989 261.201,80.87 257.121,77.749 252.801,74.63 
			248.24,71.511 247.761,71.271 238.641,65.03 234.08,62.149 229.521,59.511 225.2,56.87 221.12,54.229 217.521,52.069 
			215.841,51.11 214.161,50.149 212.721,49.19 211.521,48.229 210.321,47.511 209.601,48.95 210.801,47.749 		"/>
		<rect x="204.081" y="30.47" fill="none" stroke="#000000" width="53.999" height="72"/>
		<rect x="199.28" y="93.351" fill="none" stroke="#000000" width="54.001" height="72"/>
		<rect x="203.841" y="154.55" fill="none" stroke="#000000" width="53.999" height="72.24"/>
		<rect x="248.721" y="124.79" fill="none" stroke="#000000" width="54" height="72"/>
		<rect x="243.681" y="57.829" fill="none" stroke="#000000" width="54.001" height="72.24"/>
	</g>
</g>
</svg>
