<?xml version="1.0" encoding="utf-8"?>
<!-- $Source: /home/bbennett/pass/archive/DicomXml/docbook/part03/figures/PS3.3_C.7.6.16-1.svg,v $ -->
<!-- $Date: 2014/05/09 12:30:19 $ -->
<!-- $Revision: 1.2 $ -->

<!DOCTYPE svg PUBLIC "-//W3C//DTD SVG 1.1//EN" "http://www.w3.org/Graphics/SVG/1.1/DTD/svg11.dtd">
<svg version="1.1" id="Layer_1" xmlns="http://www.w3.org/2000/svg" xmlns:xlink="http://www.w3.org/1999/xlink" x="0px" y="0px"
	 width="502px" height="492px" viewBox="0 0 502 492" enable-background="new 0 0 502 492" xml:space="preserve">

<defs>
	<style type="text/css">
	text {
	  font-family: Helvetica, Verdana, ArialUnicodeMS, san-serif
	}
	</style>
</defs>

<g>
   <desc>
	PS 3.3 Part 3: Information Object Definitions
   </desc>
</g>

<g>
	<rect x="1" y="1" fill="#F5EED6" width="500" height="490"/>
	<g>
		
			<line fill="#4F8ABE" stroke="#005695" stroke-linecap="round" stroke-linejoin="round" stroke-miterlimit="1" stroke-dasharray="3" x1="232.157" y1="436.002" x2="232.157" y2="17.351"/>
		
			<line fill="#4F8ABE" stroke="#005695" stroke-linecap="round" stroke-linejoin="round" stroke-miterlimit="1" stroke-dasharray="3" x1="46.974" y1="436.002" x2="46.974" y2="17.351"/>
		
			<rect x="46.974" y="35.945" fill="#CCDEF0" stroke="#010101" stroke-width="0.75" stroke-linecap="round" stroke-linejoin="round" stroke-miterlimit="1" width="185.184" height="59.878"/>
		<rect x="83.188" y="18.763" fill="none" width="117.313" height="8.51"/>
		<text transform="matrix(0.9288 0 0 1 112.5747 25.1968)" font-size="9">Other Attributes</text>
		<rect x="83.188" y="427.383" fill="none" width="117.313" height="8.51"/>
		<text transform="matrix(0.9288 0 0 1 112.5747 433.8184)" font-size="9">Other Attributes</text>
		<rect x="62.613" y="39.247" fill="none" width="166.378" height="8.51"/>
		<text transform="matrix(0.9288 0 0 1 62.6123 45.6816)" font-size="9">Shared Functional Groups Sequence </text>
		<g>
			
				<rect x="61.219" y="49.81" fill="#FFFFFF" stroke="#010101" stroke-width="0.75" stroke-linecap="round" stroke-linejoin="round" stroke-miterlimit="1" width="170.938" height="46.01"/>
			
				<line fill="#FFFFFF" stroke="#010101" stroke-width="0.75" stroke-linecap="round" stroke-linejoin="round" stroke-miterlimit="1" x1="61.219" y1="80.482" x2="232.157" y2="80.482"/>
			
				<line fill="#FFFFFF" stroke="#010101" stroke-width="0.75" stroke-linecap="round" stroke-linejoin="round" stroke-miterlimit="1" x1="61.219" y1="65.146" x2="232.157" y2="65.146"/>
		</g>
		<rect x="76.079" y="53.758" fill="none" width="143.362" height="8.51"/>
		<text transform="matrix(0.9288 0 0 1 76.0786 60.1924)" font-size="9">Functional Group A Macro</text>
		<rect x="76.079" y="84.773" fill="none" width="143.362" height="8.51"/>
		<text transform="matrix(0.9288 0 0 1 76.0786 91.2075)" font-size="9">Functional Group K Macro</text>
		<rect x="76.079" y="64.107" fill="none" width="85.856" height="12.5"/>
		<text transform="matrix(0.9288 0 0 1 109.9746 74.1221)" font-size="14">. . .</text>
		
			<rect x="46.974" y="95.823" fill="#CCDEF0" stroke="#010101" stroke-width="0.75" stroke-linecap="round" stroke-linejoin="round" stroke-miterlimit="1" width="185.184" height="320.347"/>
		<rect x="62.613" y="100.45" fill="none" width="166.378" height="8.51"/>
		<text transform="matrix(0.9288 0 0 1 62.6123 106.8843)" font-size="9">Per-Frame Functional Groups Sequence </text>
		
			<rect x="61.219" y="109.628" fill="#86B2D8" stroke="#010101" stroke-width="0.75" stroke-linecap="round" stroke-linejoin="round" stroke-miterlimit="1" width="170.938" height="76.678"/>
		<rect x="67.658" y="113.24" fill="none" width="161.333" height="8.511"/>
		<text transform="matrix(0.9288 0 0 1 67.6572 119.6748)" font-size="9">Item 1 (Frame 1)</text>
		<g>
			
				<rect x="75.463" y="124.788" fill="#FFFFFF" stroke="#010101" stroke-width="0.75" stroke-linecap="round" stroke-linejoin="round" stroke-miterlimit="1" width="156.694" height="61.347"/>
			
				<line fill="#FFFFFF" stroke="#010101" stroke-width="0.75" stroke-linecap="round" stroke-linejoin="round" stroke-miterlimit="1" x1="75.463" y1="170.798" x2="232.157" y2="170.798"/>
			
				<line fill="#FFFFFF" stroke="#010101" stroke-width="0.75" stroke-linecap="round" stroke-linejoin="round" stroke-miterlimit="1" x1="75.463" y1="155.461" x2="232.157" y2="155.461"/>
			
				<line fill="#FFFFFF" stroke="#010101" stroke-width="0.75" stroke-linecap="round" stroke-linejoin="round" stroke-miterlimit="1" x1="75.463" y1="140.124" x2="232.157" y2="140.124"/>
		</g>
		<rect x="83.201" y="128.566" fill="none" width="143.013" height="8.511"/>
		<text transform="matrix(0.9288 0 0 1 83.2002 135.001)" font-size="9">Functional Group B Macro</text>
		<rect x="83.201" y="144.073" fill="none" width="143.363" height="8.51"/>
		<text transform="matrix(0.9288 0 0 1 83.2002 150.5078)" font-size="9">Functional Group C Macro</text>
		<rect x="83.201" y="175.088" fill="none" width="143.363" height="8.51"/>
		<text transform="matrix(0.9288 0 0 1 83.2002 181.5234)" font-size="9">Functional Group M Macro</text>
		<g>
			<rect x="83.201" y="154.425" fill="none" width="85.856" height="12.499"/>
			<text transform="matrix(0.9288 0 0 1 117.0972 164.4385)" font-size="14">. . .</text>
		</g>
		
			<rect x="61.219" y="186.306" fill="#86B2D8" stroke="#010101" stroke-width="0.75" stroke-linecap="round" stroke-linejoin="round" stroke-miterlimit="1" width="170.938" height="76.679"/>
		<rect x="67.658" y="189.918" fill="none" width="161.333" height="8.51"/>
		<text transform="matrix(0.9288 0 0 1 67.6572 196.3535)" font-size="9">Item 2 (Frame 2)</text>
		<g>
			
				<rect x="75.463" y="201.466" fill="#FFFFFF" stroke="#010101" stroke-width="0.75" stroke-linecap="round" stroke-linejoin="round" stroke-miterlimit="1" width="156.694" height="61.347"/>
			
				<line fill="#FFFFFF" stroke="#010101" stroke-width="0.75" stroke-linecap="round" stroke-linejoin="round" stroke-miterlimit="1" x1="75.463" y1="247.477" x2="232.157" y2="247.477"/>
			
				<line fill="#FFFFFF" stroke="#010101" stroke-width="0.75" stroke-linecap="round" stroke-linejoin="round" stroke-miterlimit="1" x1="75.463" y1="232.141" x2="232.157" y2="232.141"/>
			
				<line fill="#FFFFFF" stroke="#010101" stroke-width="0.75" stroke-linecap="round" stroke-linejoin="round" stroke-miterlimit="1" x1="75.463" y1="216.803" x2="232.157" y2="216.803"/>
		</g>
		<rect x="83.201" y="205.245" fill="none" width="143.013" height="8.511"/>
		<text transform="matrix(0.9288 0 0 1 83.2002 211.6797)" font-size="9">Functional Group B Macro</text>
		<rect x="83.201" y="220.752" fill="none" width="143.363" height="8.509"/>
		<text transform="matrix(0.9288 0 0 1 83.2002 227.1865)" font-size="9">Functional Group C Macro</text>
		<rect x="83.201" y="251.768" fill="none" width="143.363" height="8.51"/>
		<text transform="matrix(0.9288 0 0 1 83.2002 258.2012)" font-size="9">Functional Group M Macro</text>
		<g>
			<rect x="83.201" y="231.102" fill="none" width="85.856" height="12.502"/>
			<text transform="matrix(0.9288 0 0 1 117.0972 241.1143)" font-size="14">. . .</text>
		</g>
		
			<rect x="61.219" y="262.984" fill="#86B2D8" stroke="#010101" stroke-width="0.75" stroke-linecap="round" stroke-linejoin="round" stroke-miterlimit="1" width="170.938" height="76.678"/>
		<g>
			<rect x="67.658" y="263.305" fill="none" width="161.333" height="10.936"/>
			<text transform="matrix(0.9288 0 0 1 67.6577 273.3164)" font-size="14">. . .</text>
		</g>
		<g>
			
				<rect x="75.463" y="278.145" fill="#FFFFFF" stroke="#010101" stroke-width="0.75" stroke-linecap="round" stroke-linejoin="round" stroke-miterlimit="1" width="156.694" height="61.348"/>
			
				<line fill="#FFFFFF" stroke="#010101" stroke-width="0.75" stroke-linecap="round" stroke-linejoin="round" stroke-miterlimit="1" x1="75.463" y1="324.154" x2="232.157" y2="324.154"/>
			
				<line fill="#FFFFFF" stroke="#010101" stroke-width="0.75" stroke-linecap="round" stroke-linejoin="round" stroke-miterlimit="1" x1="75.463" y1="308.818" x2="232.157" y2="308.818"/>
			
				<line fill="#FFFFFF" stroke="#010101" stroke-width="0.75" stroke-linecap="round" stroke-linejoin="round" stroke-miterlimit="1" x1="75.463" y1="293.48" x2="232.157" y2="293.48"/>
		</g>
		<rect x="83.201" y="281.924" fill="none" width="143.013" height="8.51"/>
		<text transform="matrix(0.9288 0 0 1 83.2002 288.3584)" font-size="9">Functional Group A Macro</text>
		<rect x="83.201" y="297.43" fill="none" width="143.363" height="8.51"/>
		<text transform="matrix(0.9288 0 0 1 83.2002 303.8652)" font-size="9">Functional Group D Macro</text>
		<rect x="83.201" y="328.445" fill="none" width="143.363" height="8.51"/>
		<text transform="matrix(0.9288 0 0 1 83.2002 334.8799)" font-size="9">Functional Group M Macro</text>
		<g>
			<rect x="83.201" y="307.781" fill="none" width="85.856" height="12.5"/>
			<text transform="matrix(0.9288 0 0 1 117.0972 317.7949)" font-size="14">. . .</text>
		</g>
		
			<rect x="61.219" y="339.662" fill="#86B2D8" stroke="#010101" stroke-width="0.75" stroke-linecap="round" stroke-linejoin="round" stroke-miterlimit="1" width="170.938" height="76.68"/>
		<rect x="67.658" y="343.275" fill="none" width="161.333" height="8.51"/>
		<text transform="matrix(0.9288 0 0 1 67.6572 349.71)" font-size="9">Item n (Frame n)</text>
		<g>
			
				<rect x="75.463" y="354.822" fill="#FFFFFF" stroke="#010101" stroke-width="0.75" stroke-linecap="round" stroke-linejoin="round" stroke-miterlimit="1" width="156.694" height="61.348"/>
			
				<line fill="#FFFFFF" stroke="#010101" stroke-width="0.75" stroke-linecap="round" stroke-linejoin="round" stroke-miterlimit="1" x1="75.463" y1="400.834" x2="232.157" y2="400.834"/>
			
				<line fill="#FFFFFF" stroke="#010101" stroke-width="0.75" stroke-linecap="round" stroke-linejoin="round" stroke-miterlimit="1" x1="75.463" y1="385.496" x2="232.157" y2="385.496"/>
			
				<line fill="#FFFFFF" stroke="#010101" stroke-width="0.75" stroke-linecap="round" stroke-linejoin="round" stroke-miterlimit="1" x1="75.463" y1="370.16" x2="232.157" y2="370.16"/>
		</g>
		<rect x="83.201" y="358.602" fill="none" width="143.013" height="8.51"/>
		<text transform="matrix(0.9288 0 0 1 83.2002 365.0361)" font-size="9">Functional Group A Macro</text>
		<rect x="83.201" y="374.109" fill="none" width="143.363" height="8.508"/>
		<text transform="matrix(0.9288 0 0 1 83.2002 380.543)" font-size="9">Functional Group D Macro</text>
		<rect x="83.201" y="405.123" fill="none" width="143.363" height="8.51"/>
		<text transform="matrix(0.9288 0 0 1 83.2002 411.5586)" font-size="9">Functional Group M Macro</text>
		<g>
			<rect x="83.201" y="384.461" fill="none" width="85.856" height="12.498"/>
			<text transform="matrix(0.9288 0 0 1 117.0972 394.4736)" font-size="14">. . .</text>
		</g>
		<g>
			
				<line fill="#4F8ABE" stroke="#005695" stroke-linecap="round" stroke-linejoin="round" stroke-miterlimit="1" stroke-dasharray="3" x1="456.026" y1="436.002" x2="456.026" y2="17.351"/>
			
				<line fill="#4F8ABE" stroke="#005695" stroke-linecap="round" stroke-linejoin="round" stroke-miterlimit="1" stroke-dasharray="3" x1="344.441" y1="436.002" x2="344.441" y2="17.351"/>
			
				<rect x="344.441" y="95.823" fill="#CCDEF0" stroke="#010101" stroke-width="0.75" stroke-linecap="round" stroke-linejoin="round" stroke-miterlimit="1" width="111.585" height="320.347"/>
			<rect x="360.08" y="100.45" fill="none" width="83.982" height="8.51"/>
			<text transform="matrix(0.9288 0 0 1 360.0811 106.8843)" font-size="9">Pixel Data</text>
			
				<rect x="358.687" y="109.628" fill="#86B2D8" stroke="#010101" stroke-width="0.75" stroke-linecap="round" stroke-linejoin="round" stroke-miterlimit="1" width="97.34" height="76.678"/>
			<rect x="365.127" y="113.24" fill="none" width="79.029" height="8.511"/>
			<text transform="matrix(0.9288 0 0 1 365.126 119.6748)" font-size="9">Frame 1</text>
			
				<rect x="358.687" y="186.306" fill="#86B2D8" stroke="#010101" stroke-width="0.75" stroke-linecap="round" stroke-linejoin="round" stroke-miterlimit="1" width="97.34" height="76.679"/>
			<rect x="365.127" y="189.918" fill="none" width="79.875" height="8.51"/>
			<text transform="matrix(0.9288 0 0 1 365.126 196.3535)" font-size="9">Frame 2</text>
			
				<rect x="358.687" y="262.984" fill="#86B2D8" stroke="#010101" stroke-width="0.75" stroke-linecap="round" stroke-linejoin="round" stroke-miterlimit="1" width="97.34" height="76.678"/>
			<rect x="365.127" y="268" fill="none" width="79.875" height="11.703"/>
			<text transform="matrix(0.9288 0 0 1 365.127 276.583)" font-size="12">. . .</text>
			
				<rect x="358.687" y="339.662" fill="#86B2D8" stroke="#010101" stroke-width="0.75" stroke-linecap="round" stroke-linejoin="round" stroke-miterlimit="1" width="97.34" height="76.68"/>
			<rect x="365.127" y="343.275" fill="none" width="78.238" height="8.51"/>
			<text transform="matrix(0.9288 0 0 1 365.126 349.71)" font-size="9">Frame n</text>
		</g>
		
			<polygon fill="none" stroke="#4F8ABE" stroke-width="3" stroke-linecap="round" stroke-linejoin="round" stroke-miterlimit="1" points="
			246.79,168.833 246.79,156.927 282.596,156.927 282.596,147.347 321.795,163.178 282.596,179.017 282.596,168.833 		"/>
		
			<polygon fill="none" stroke="#4F8ABE" stroke-width="3" stroke-linecap="round" stroke-linejoin="round" stroke-miterlimit="1" points="
			246.79,245.537 246.79,233.631 282.596,233.631 282.596,224.05 321.795,239.881 282.596,255.721 282.596,245.537 		"/>
		
			<polygon fill="none" stroke="#4F8ABE" stroke-width="3" stroke-linecap="round" stroke-linejoin="round" stroke-miterlimit="1" points="
			246.79,322.242 246.79,310.336 282.596,310.336 282.596,300.754 321.795,316.586 282.596,332.426 282.596,322.242 		"/>
		
			<polygon fill="none" stroke="#4F8ABE" stroke-width="3" stroke-linecap="round" stroke-linejoin="round" stroke-miterlimit="1" points="
			246.79,398.943 246.79,387.037 282.596,387.037 282.596,377.455 321.795,393.287 282.596,409.127 282.596,398.943 		"/>
		<rect x="240.979" y="46.701" fill="none" width="97.352" height="21.064"/>
		<text transform="matrix(0.9288 0 0 1 240.9785 53.1362)"><tspan x="0" y="0" font-size="9">Functional Group Macros </tspan><tspan x="0" y="10.8" font-size="9">shared for all frames</tspan></text>
		<rect x="240.241" y="109.172" fill="none" width="95.493" height="32.678"/>
		<text transform="matrix(0.9288 0 0 1 240.249 115.5996)"><tspan x="0" y="0" font-size="9">Sequence of repeating</tspan><tspan x="0" y="10.8" font-size="9">Functional Group Macros</tspan><tspan x="0" y="21.6" font-size="9">for each individual frame</tspan></text>
		<rect x="45.974" y="452.793" fill="none" width="408.333" height="21.857"/>
		<text transform="matrix(0.9288 0 0 1 45.9741 459.2305)"><tspan x="0" y="0" font-size="9">Note: The Functional Group Macros A, B, C, etc. are examples to illustrate the Multi-frame Functional Groups. </tspan><tspan x="0" y="10.8" font-size="9">The actual Functional Group Sequences are defined elsewhere.</tspan></text>
	</g>
</g>
</svg>
