<?xml version="1.0" encoding="utf-8"?>
<!-- $Source: /home/bbennett/pass/archive/DicomXml/docbook/part03/figures/PS3.3_C.8.24.2-2.svg,v $ -->
<!-- $Date: 2014/05/09 13:15:43 $ -->
<!-- $Revision: 1.1 $ -->

<!DOCTYPE svg PUBLIC "-//W3C//DTD SVG 1.1//EN" "http://www.w3.org/Graphics/SVG/1.1/DTD/svg11.dtd">
<svg version="1.1" id="Layer_1" xmlns="http://www.w3.org/2000/svg" xmlns:xlink="http://www.w3.org/1999/xlink" x="0px" y="0px"
	 width="502px" height="422px" viewBox="0 0 502 422" enable-background="new 0 0 502 422" xml:space="preserve">

<defs>
	<style type="text/css">
	text {
	  font-family: Helvetica, Verdana, ArialUnicodeMS, san-serif
	}
	</style>
</defs>

<g>
   <desc>
	PS 3.3 Part 3: Information Object Definitions
   </desc>
</g>

<g>
	<rect x="1" y="1" fill="#F5EED6" width="500" height="420"/>
	<g>
		<g>
			<path fill="#CCDEF0" stroke="#003468" stroke-miterlimit="1" d="M323.816,122.49c0,3.178,3.699,6.099,5.867,7.116
				c2.17,1.018,5.283,3.682,5.283,7.078v16.87l-0.025,0.102c-0.568,6.56-10.172,11.78-21.934,11.78h0.016
				c-11.762,0-21.365-5.221-21.934-11.78l-0.027-0.102v-16.87c0-3.396,3.115-6.061,5.285-7.078c2.168-1.018,5.867-3.938,5.867-7.116
				l0.072-5.678c0.373-16.921,2.357-31.514,4.764-40.544c0.633-2.368,0.451-5.749,0.451-5.749V53.446h11.027V70.52
				c0,0-0.182,3.381,0.451,5.749c2.406,9.03,4.391,23.623,4.764,40.544L323.816,122.49z"/>
			<path fill="none" stroke="#005695" stroke-miterlimit="1" d="M313.117,110.75c-0.068,0.009-0.137,0.017-0.203,0.024"/>
			<path fill="none" stroke="#005695" stroke-miterlimit="1" d="M297.322,129.563c-0.068,0.01-0.137,0.019-0.203,0.025"/>
			<path fill="none" stroke="#005695" stroke-miterlimit="1" d="M303.678,116.641"/>
			<path fill="none" stroke="#005695" stroke-miterlimit="1" d="M303.645,128.024"/>
			<path fill="none" stroke="#005695" stroke-miterlimit="1" d="M308.891,70.348"/>
			<path fill="none" stroke="#003468" stroke-width="10" stroke-miterlimit="1" d="M313.01,53.446
				c-0.031-0.47-1.008-24.383,10.977-38.01"/>
			<path fill="none" stroke="#003468" stroke-miterlimit="1" d="M334.967,146.741c0,4.043-3.174,7.317-7.086,7.317h-29.73
				c-3.914,0-7.088-3.274-7.088-7.317"/>
			<path fill="none" stroke="#003468" stroke-miterlimit="1" d="M322,92.592c-2.523,0.437-5.609,0.692-8.939,0.692
				c-3.371,0-6.488-0.262-9.027-0.708"/>
		</g>
		
			<rect x="264.611" y="185.293" fill="#B2CEE7" stroke="#000000" stroke-width="0.5" stroke-linejoin="bevel" stroke-miterlimit="1" width="186.598" height="133.8"/>
		<polygon fill="#BCBEC0" stroke="#000000" stroke-width="0.5" stroke-linejoin="bevel" stroke-miterlimit="1" points="
			451.209,319.093 264.611,319.093 164.999,406.226 365.996,406.226 		"/>
		<polygon fill="#CCDEF0" stroke="#000000" stroke-width="0.5" stroke-linejoin="bevel" stroke-miterlimit="1" points="165,406.563 
			264.791,319.093 264.791,185.293 165,254.774 		"/>
		<polygon opacity="0.5" fill="#0DB14B" stroke="#333333" stroke-width="0.5" stroke-miterlimit="1" points="295.643,204.992 
			264.611,319.093 451.209,319.093 363.164,204.992 		"/>
		<polygon opacity="0.5" fill="#0DB14B" stroke="#333333" stroke-width="0.5" stroke-miterlimit="1" points="353.02,213.54 
			424.766,345.837 233.918,345.837 284.736,213.54 		"/>
		<polygon opacity="0.5" fill="#0DB14B" stroke="#333333" stroke-width="0.5" stroke-miterlimit="1" points="358.594,208.937 
			439.164,331.438 250.479,331.438 290.506,208.937 		"/>
		
			<rect x="218.02" y="218.524" opacity="0.7" fill="#FFF200" stroke="#000000" stroke-width="0.5" stroke-linejoin="bevel" stroke-miterlimit="1" width="192.98" height="141.539"/>
		<polygon opacity="0.5" fill="#0DB14B" stroke="#333333" stroke-width="0.5" stroke-miterlimit="1" points="347.553,217.993 
			410.367,360.235 217.719,360.235 279.24,217.993 		"/>
		<polygon opacity="0.5" fill="#0DB14B" stroke="#333333" stroke-width="0.5" stroke-miterlimit="1" points="342.279,222.319 
			396.33,374.606 201.52,374.661 273.846,222.319 		"/>
		<polygon opacity="0.5" fill="#0DB14B" stroke="#333333" stroke-width="0.5" stroke-miterlimit="1" points="337.006,226.702 
			381.932,389.005 184.959,389.06 268.324,226.702 		"/>
		<polygon opacity="0.5" fill="#0DB14B" stroke="#333333" stroke-width="0.5" stroke-miterlimit="1" points="262.293,231.55 
			165,406.563 365.996,406.563 331.104,231.55 		"/>
		<g>
			<polyline fill="none" stroke="#000000" stroke-width="0.5" stroke-miterlimit="1" stroke-dasharray="2,1" points="
				363.164,205.349 313.016,140.564 295.643,204.636 			"/>
			<polyline opacity="0.6" fill="none" stroke="#000000" stroke-width="0.5" stroke-miterlimit="1" stroke-dasharray="2,1" points="
				279.24,217.956 313.016,139.845 347.553,218.03 			"/>
			<polyline opacity="0.6" fill="none" stroke="#000000" stroke-width="0.5" stroke-miterlimit="1" stroke-dasharray="2,1" points="
				273.846,222.335 313.016,139.843 342.279,222.302 			"/>
			<polyline opacity="0.6" fill="none" stroke="#000000" stroke-width="0.5" stroke-miterlimit="1" stroke-dasharray="2,1" points="
				268.324,226.819 313.016,139.845 337.006,226.585 			"/>
			<polyline opacity="0.6" fill="none" stroke="#000000" stroke-width="0.5" stroke-miterlimit="1" stroke-dasharray="2,1" points="
				284.736,213.493 313.016,139.845 353.02,213.585 			"/>
			<polyline opacity="0.6" fill="none" stroke="#000000" stroke-width="0.5" stroke-miterlimit="1" stroke-dasharray="2,1" points="
				290.506,208.808 313.016,139.843 358.594,209.063 			"/>
			<polyline opacity="0.6" fill="none" stroke="#000000" stroke-width="0.5" stroke-miterlimit="1" stroke-dasharray="2,1" points="
				331.104,231.382 313.016,140.564 262.293,231.718 			"/>
		</g>
		
			<rect x="165" y="254.764" fill="none" stroke="#000000" stroke-width="0.5" stroke-linejoin="bevel" stroke-miterlimit="1" width="200.997" height="151.8"/>
		<polygon fill="none" stroke="#000000" stroke-width="0.5" stroke-linejoin="bevel" points="365.816,406.563 451.209,319.093 
			451.209,185.293 365.816,254.774 		"/>
		<g>
			<g>
				<line fill="none" stroke="#0DB14B" x1="164.998" y1="254.874" x2="164.998" y2="276.065"/>
				<g>
					<polygon fill="#0DB14B" points="162.092,274.084 164.998,284.925 167.903,274.084 					"/>
				</g>
			</g>
		</g>
		<text transform="matrix(1 0 0 1 190.7197 267.5469)" fill="#ED1C24" font-size="10">Xv</text>
		<text transform="matrix(1 0 0 1 148.2983 290.207)" fill="#0DB14B" font-size="10">Yv</text>
		<text transform="matrix(1 0.0011 -0.0011 1 175.9307 235.8076)" fill="#00AEEF" font-size="10">Zv</text>
		<g>
			<g>
				<line fill="none" stroke="#00AEEF" x1="165" y1="254.774" x2="182.375" y2="242.566"/>
				<g>
					<polygon fill="#00AEEF" points="182.423,246.083 189.624,237.474 179.083,241.329 					"/>
				</g>
			</g>
		</g>
		<g>
			<g>
				<line fill="none" stroke="#ED1C24" x1="165" y1="254.764" x2="186.964" y2="254.764"/>
				<g>
					<polygon fill="#ED1C24" points="184.983,257.669 195.824,254.764 184.983,251.858 					"/>
				</g>
			</g>
		</g>
		<g>
			<text transform="matrix(0.8815 0 0 1 50.791 257.752)" font-size="12">Volume Origin (0,0,0)</text>
		</g>
		<g>
			<g>
				<line fill="none" stroke="#0DB14B" x1="217.836" y1="218.066" x2="217.836" y2="234.954"/>
				<g>
					<polygon fill="#0DB14B" points="214.931,232.973 217.836,243.813 220.742,232.973 					"/>
				</g>
			</g>
		</g>
		<text transform="matrix(1 0 0 1 245.1797 214.8994)" fill="#ED1C24" font-size="10">Xi</text>
		<text transform="matrix(1 0 0 1 205.6382 248)" fill="#0DB14B" font-size="10">Yi</text>
		<g>
			<g>
				<line fill="none" stroke="#ED1C24" x1="218.739" y1="217.956" x2="241.62" y2="217.956"/>
				<g>
					<polygon fill="#ED1C24" points="239.638,220.861 250.479,217.956 239.638,215.051 					"/>
				</g>
			</g>
		</g>
		<g>
			<text transform="matrix(0.8815 0 0 1 119.8745 221.6641)" font-size="12">Frame Origin (0,0)</text>
		</g>
		<g>
			<path stroke="#000000" stroke-miterlimit="1" d="M171.749,254.764c0-3.728-3.022-6.75-6.751-6.75v6.75H171.749z"/>
			
				<path fill="#FFFFFF" stroke="#010101" stroke-width="0.75" stroke-linecap="round" stroke-linejoin="round" stroke-miterlimit="1" d="
				M164.998,248.014c-3.729,0-6.75,3.022-6.75,6.75h6.75V248.014z"/>
			<path stroke="#000000" stroke-miterlimit="1" d="M158.248,254.764c0,3.728,3.021,6.75,6.75,6.75v-6.75H158.248z"/>
			
				<path fill="#FFFFFF" stroke="#010101" stroke-width="0.75" stroke-linecap="round" stroke-linejoin="round" stroke-miterlimit="1" d="
				M164.998,254.764v6.75c3.729,0,6.751-3.022,6.751-6.75H164.998z"/>
		</g>
		<g>
			<path stroke="#000000" stroke-miterlimit="1" d="M317.5,139.453c0-2.485-2.016-4.5-4.5-4.5v4.5H317.5z"/>
			
				<path fill="#FFFFFF" stroke="#010101" stroke-width="0.75" stroke-linecap="round" stroke-linejoin="round" stroke-miterlimit="1" d="
				M313,134.953c-2.484,0-4.5,2.015-4.5,4.5h4.5V134.953z"/>
			<path stroke="#000000" stroke-miterlimit="1" d="M308.5,139.453c0,2.485,2.016,4.499,4.5,4.499v-4.499H308.5z"/>
			
				<path fill="#FFFFFF" stroke="#010101" stroke-width="0.75" stroke-linecap="round" stroke-linejoin="round" stroke-miterlimit="1" d="
				M313,139.453v4.499c2.484,0,4.5-2.014,4.5-4.499H313z"/>
		</g>
		<g>
			<g>
				<line fill="none" stroke="#0DB14B" x1="313" y1="166.308" x2="313" y2="192.783"/>
				<g>
					<polygon fill="#0DB14B" points="310.095,190.802 313,201.643 315.905,190.802 					"/>
				</g>
			</g>
		</g>
		<text transform="matrix(1 0.0011 -0.0011 1 348.8027 142.9111)" fill="#00AEEF" font-size="10">Zx</text>
		<text transform="matrix(1 0 0 1 296.3008 201.6411)" fill="#0DB14B" font-size="10">Yx</text>
		<text transform="matrix(1 0 0 1 360.3223 169.6196)" fill="#ED1C24" font-size="10">Xx</text>
		<g>
			<text transform="matrix(0.8815 0 0 1 204.2036 142.8008)" font-size="12">Apex (Xa,Ya,Za)</text>
		</g>
		<g>
			<g>
				<line fill="none" stroke="#00AEEF" x1="313.002" y1="166.208" x2="339.732" y2="146.915"/>
				<g>
					<polygon fill="#00AEEF" points="339.826,150.43 346.916,141.729 336.426,145.718 					"/>
				</g>
			</g>
		</g>
		<g>
			<text transform="matrix(0.8815 0 0 1 166.2168 169.1851)" font-size="12">Transducer Origin (0,0,0)</text>
		</g>
		<g>
			<g>
				<line fill="none" stroke="#ED1C24" x1="313.002" y1="166.197" x2="350.057" y2="166.197"/>
				<g>
					<polygon fill="#ED1C24" points="348.075,169.103 358.916,166.197 348.075,163.292 					"/>
				</g>
			</g>
		</g>
		<g>
			<path stroke="#000000" stroke-miterlimit="1" d="M317.5,166.197c0-2.485-2.016-4.499-4.5-4.499v4.499H317.5z"/>
			
				<path fill="#FFFFFF" stroke="#010101" stroke-width="0.75" stroke-linecap="round" stroke-linejoin="round" stroke-miterlimit="1" d="
				M313,161.698c-2.484,0-4.5,2.014-4.5,4.499h4.5V161.698z"/>
			<path stroke="#000000" stroke-miterlimit="1" d="M308.5,166.197c0,2.485,2.016,4.5,4.5,4.5v-4.5H308.5z"/>
			
				<path fill="#FFFFFF" stroke="#010101" stroke-width="0.75" stroke-linecap="round" stroke-linejoin="round" stroke-miterlimit="1" d="
				M313,166.197v4.5c2.484,0,4.5-2.015,4.5-4.5H313z"/>
		</g>
		<g>
			<path stroke="#000000" stroke-miterlimit="1" d="M222.52,218.524c0-2.486-2.015-4.5-4.5-4.5v4.5H222.52z"/>
			
				<path fill="#FFFFFF" stroke="#010101" stroke-width="0.75" stroke-linecap="round" stroke-linejoin="round" stroke-miterlimit="1" d="
				M218.02,214.024c-2.484,0-4.5,2.014-4.5,4.5h4.5V214.024z"/>
			<path stroke="#000000" stroke-miterlimit="1" d="M213.52,218.524c0,2.484,2.016,4.499,4.5,4.499v-4.499H213.52z"/>
			
				<path fill="#FFFFFF" stroke="#010101" stroke-width="0.75" stroke-linecap="round" stroke-linejoin="round" stroke-miterlimit="1" d="
				M218.02,218.524v4.499c2.485,0,4.5-2.015,4.5-4.499H218.02z"/>
		</g>
	</g>
</g>
</svg>
