<?xml version="1.0" encoding="utf-8"?>
<!-- $Source: /home/bbennett/pass/archive/DicomXml/docbook/part03/figures/PS3.3_C.29.1.2-1.svg,v $ -->
<!-- $Date: 2014/05/09 13:15:43 $ -->
<!-- $Revision: 1.1 $ -->

<!DOCTYPE svg PUBLIC "-//W3C//DTD SVG 1.1//EN" "http://www.w3.org/Graphics/SVG/1.1/DTD/svg11.dtd">
<svg version="1.1" id="Layer_1" xmlns="http://www.w3.org/2000/svg" xmlns:xlink="http://www.w3.org/1999/xlink" x="0px" y="0px"
	 width="502px" height="347px" viewBox="0 0 502 347" enable-background="new 0 0 502 347" xml:space="preserve">

<defs>
	<style type="text/css">
	text {
	  font-family: Helvetica, Verdana, ArialUnicodeMS, san-serif
	}
	</style>
</defs>

<g>
   <desc>
	PS 3.3 Part 3: Information Object Definitions
   </desc>
</g>

<g>
	<rect x="1" y="1" fill="#F5EED6" width="500" height="345"/>
	<g>
		<circle fill="#CCDEF0" stroke="#003468" cx="249.75" cy="34.016" r="18.5"/>
		<circle fill="#CCDEF0" stroke="#003468" cx="249.75" cy="97.016" r="18.5"/>
		<circle fill="#CCDEF0" stroke="#003468" cx="249.75" cy="160.016" r="18.5"/>
		<g>
			<g>
				<path fill="none" stroke="#003468" stroke-width="0.5" d="M238.954,175.034c-3.04,2.19-6.771,3.481-10.805,3.481
					c-10.218,0-18.5-8.282-18.5-18.5c0-10.217,8.282-18.5,18.5-18.5c2.134,0,4.183,0.361,6.09,1.026"/>
				<g>
					<polygon fill="#003468" points="232.359,143.645 238.956,144.998 233.92,140.527 					"/>
				</g>
			</g>
		</g>
		<circle fill="#CCDEF0" stroke="#003468" cx="249.75" cy="223.016" r="18.5"/>
		<g>
			<g>
				<path fill="none" stroke="#003468" stroke-width="0.5" d="M222.82,270.469c6.755-7.325,16.491-11.922,27.316-11.922
					c12.748,0,23.988,6.378,30.626,16.078"/>
				<g>
					<polygon fill="#003468" points="224.964,270.677 219.509,274.625 222.259,268.479 					"/>
				</g>
			</g>
		</g>
		<g>
			<g>
				<path fill="none" stroke="#003468" stroke-width="0.5" d="M284.323,306.651c-4.856,14.437-18.501,24.833-34.573,24.833
					c-17.561,0-32.223-12.412-35.691-28.942"/>
				<g>
					<polygon fill="#003468" points="282.276,307.331 285.644,301.5 285.644,308.234 					"/>
				</g>
			</g>
		</g>
		<circle fill="#CCDEF0" stroke="#003468" cx="205.75" cy="286.016" r="18.5"/>
		<g>
			<g>
				<path fill="none" stroke="#003468" stroke-width="0.5" d="M204.411,304.467c1.179,2.434,1.839,5.164,1.839,8.049
					c0,10.217-8.283,18.5-18.5,18.5c-10.218,0-18.5-8.283-18.5-18.5c0-8.855,6.222-16.258,14.533-18.074"/>
				<g>
					<polygon fill="#003468" points="182.768,296.382 189.09,294.062 182.455,292.91 					"/>
				</g>
			</g>
		</g>
		<g>
			<g>
				<path fill="none" stroke="#003468" stroke-width="0.5" d="M317.693,294.335c8.572,1.613,15.058,9.14,15.058,18.181
					c0,10.217-8.283,18.5-18.5,18.5c-10.218,0-18.5-8.283-18.5-18.5c0-2.902,0.668-5.648,1.86-8.094"/>
				<g>
					<polygon fill="#003468" points="318.77,296.233 312.379,294.109 318.975,292.753 					"/>
				</g>
			</g>
		</g>
		<circle fill="#CCDEF0" stroke="#003468" cx="295.75" cy="286.016" r="18.5"/>
		<g>
			<g>
				<line fill="none" stroke="#003468" stroke-width="0.5" x1="249.75" y1="52.516" x2="249.75" y2="73.2"/>
				<g>
					<polygon fill="#003468" points="248.007,72.011 249.75,78.516 251.493,72.011 					"/>
				</g>
			</g>
		</g>
		<g>
			<g>
				<line fill="none" stroke="#003468" stroke-width="0.5" x1="249.75" y1="115.516" x2="249.75" y2="136.2"/>
				<g>
					<polygon fill="#003468" points="248.007,135.011 249.75,141.516 251.493,135.011 					"/>
				</g>
			</g>
		</g>
		<g>
			<g>
				<line fill="none" stroke="#003468" stroke-width="0.5" x1="249.75" y1="178.516" x2="249.75" y2="199.2"/>
				<g>
					<polygon fill="#003468" points="248.007,198.011 249.75,204.516 251.493,198.011 					"/>
				</g>
			</g>
		</g>
		<g>
			<g>
				<path fill="none" stroke="#003468" stroke-width="0.5" d="M208.218,267.748c7.318-1.574,14.482-5.777,19.624-12.873
					c3.716-5.129,5.847-10.852,6.448-16.441"/>
				<g>
					<polygon fill="#003468" points="235.934,239.676 234.396,233.12 232.449,239.566 					"/>
				</g>
			</g>
		</g>
		<g>
			<g>
				<path fill="none" stroke="#003468" stroke-width="0.5" d="M231.958,228.092c-18.592-3.349-34.17,15.577-29.153,34.431"/>
				<g>
					<polygon fill="#003468" points="200.819,261.968 204.636,267.516 204.104,260.803 					"/>
				</g>
			</g>
		</g>
		<g>
			<g>
				<path fill="none" stroke="#003468" stroke-width="0.5" d="M291.575,267.748c-7.318-1.574-14.482-5.777-19.624-12.873
					c-3.717-5.129-5.848-10.852-6.448-16.441"/>
				<g>
					<polygon fill="#003468" points="267.344,239.566 265.396,233.12 263.858,239.676 					"/>
				</g>
			</g>
		</g>
		<g>
			<g>
				<path fill="none" stroke="#003468" stroke-width="0.5" d="M267.835,228.092c18.593-3.349,34.17,15.577,29.152,34.431"/>
				<g>
					<polygon fill="#003468" points="295.688,260.803 295.157,267.516 298.975,261.968 					"/>
				</g>
			</g>
		</g>
		<text transform="matrix(1 0 0 1 242.75 37.9136)" font-size="14">IN</text>
		<text transform="matrix(1 0 0 1 240.4053 100.9141)" font-size="14">PA</text>
		<text transform="matrix(1 0 0 1 240.0259 163.9141)" font-size="14">PC</text>
		<text transform="matrix(1 0 0 1 240.4121 226.9141)" font-size="14">SP</text>
		<text transform="matrix(1 0 0 1 196.0259 289.9141)" font-size="14">PU</text>
		<text transform="matrix(1 0 0 1 286.0264 289.9141)" font-size="14">PD</text>
	</g>
</g>
</svg>
