<?xml version="1.0" encoding="utf-8"?>
<!-- $Source: /home/bbennett/pass/archive/DicomXml/docbook/part03/figures/PS3.3_C.29.3.1.1.2-1.svg,v $ -->
<!-- $Date: 2014/05/09 13:15:42 $ -->
<!-- $Revision: 1.1 $ -->

<!DOCTYPE svg PUBLIC "-//W3C//DTD SVG 1.1//EN" "http://www.w3.org/Graphics/SVG/1.1/DTD/svg11.dtd">
<svg version="1.1" id="Layer_1" xmlns="http://www.w3.org/2000/svg" xmlns:xlink="http://www.w3.org/1999/xlink" x="0px" y="0px"
	 width="502px" height="542px" viewBox="0 0 502 542" enable-background="new 0 0 502 542" xml:space="preserve">

<defs>
	<style type="text/css">
	text {
	  font-family: Helvetica, Verdana, ArialUnicodeMS, san-serif
	}
	</style>
</defs>

<g>
   <desc>
	PS 3.3 Part 3: Information Object Definitions
   </desc>
</g>

<g>
	<rect x="1" y="1" fill="#F5EED6" width="500" height="540"/>
	<g>
		<g>
			<g>
				<path fill="#808285" stroke="#000000" d="M123.667,75.427c0,6.075-4.925,11-11,11l0,0c-6.075,0-11-4.925-11-11v-18
					c0-6.075,4.925-11,11-11l0,0c6.075,0,11,4.925,11,11V75.427z"/>
				<circle fill="#FFFFFF" stroke="#000000" stroke-width="0.9325" cx="112.667" cy="66.427" r="5"/>
				<text transform="matrix(1 0 0 1 104.1074 104.1802)" font-size="11">ID1</text>
			</g>
			<g>
				<path fill="#808285" stroke="#000000" d="M158.571,75.205c0.121,6.074-4.704,11.097-10.778,11.218l0,0
					c-6.074,0.121-11.096-4.704-11.217-10.778l-0.36-17.996c-0.121-6.074,4.705-11.096,10.778-11.218l0,0
					c6.074-0.121,11.097,4.704,11.218,10.778L158.571,75.205z"/>
				<circle fill="#FFFFFF" stroke="#000000" stroke-width="0.9325" cx="147.394" cy="73.85" r="5"/>
				<circle fill="#FFFFFF" stroke="#000000" stroke-width="0.9325" cx="147.394" cy="58.417" r="5"/>
				<text transform="matrix(1 0 0 1 138.835 104.1802)" font-size="11">ID2</text>
			</g>
			<g>
				<path fill="#808285" stroke="#000000" stroke-width="0.978" d="M193.167,44.76c0-6.351-4.926-11.5-11-11.5l0,0
					c-6.075,0-11,5.149-11,11.5v30.167c0,6.352,4.925,11.5,11,11.5l0,0c6.074,0,11-5.148,11-11.5V44.76z"/>
				<circle fill="#FFFFFF" stroke="#000000" stroke-width="0.9325" cx="182.167" cy="59.844" r="5"/>
				<text transform="matrix(1 0 0 1 173.5625 104.1802)" font-size="11">ID3</text>
			</g>
			<g>
				<path fill="#808285" stroke="#000000" stroke-width="0.978" d="M227.945,44.76c0-6.351-4.925-11.5-11-11.5l0,0
					c-6.074,0-11,5.149-11,11.5v30.167c0,6.352,4.926,11.5,11,11.5l0,0c6.075,0,11-5.148,11-11.5V44.76z"/>
				<circle fill="#FFFFFF" stroke="#000000" stroke-width="0.9325" cx="216.945" cy="44.096" r="5"/>
				<circle fill="#FFFFFF" stroke="#000000" stroke-width="0.9325" cx="216.945" cy="74.735" r="5"/>
				<text transform="matrix(1 0 0 1 208.29 104.1802)" font-size="11">ID4</text>
			</g>
			<g>
				<path fill="#808285" stroke="#000000" stroke-width="0.978" d="M262.724,44.76c0-6.351-4.925-11.5-10.999-11.5l0,0
					c-6.075,0-11,5.149-11,11.5v30.167c0,6.352,4.925,11.5,11,11.5l0,0c6.074,0,10.999-5.148,10.999-11.5V44.76z"/>
				<circle fill="#FFFFFF" stroke="#000000" stroke-width="0.9325" cx="251.725" cy="59.844" r="5"/>
				<circle fill="#FFFFFF" stroke="#000000" stroke-width="0.9325" cx="251.725" cy="44.523" r="5"/>
				<circle fill="#FFFFFF" stroke="#000000" stroke-width="0.9325" cx="251.725" cy="75.163" r="5"/>
				<text transform="matrix(1 0 0 1 243.0176 104.1802)" font-size="11">ID5</text>
			</g>
			<g>
				<path fill="#808285" stroke="#000000" stroke-width="0.9635" d="M297.333,26.594c0-6.259-4.925-11.333-11-11.333l0,0
					c-6.075,0-11,5.074-11,11.333v48.499c0,6.26,4.925,11.334,11,11.334l0,0c6.075,0,11-5.074,11-11.334V26.594z"/>
				<circle fill="#FFFFFF" stroke="#000000" stroke-width="0.9325" cx="286.333" cy="50.844" r="5"/>
				<text transform="matrix(1 0 0 1 277.7451 104.1802)" font-size="11">ID6</text>
			</g>
			<g>
				<path fill="#808285" stroke="#000000" stroke-width="0.9635" d="M331.667,26.594c0-6.259-4.926-11.333-11-11.333l0,0
					c-6.076,0-11,5.074-11,11.333v48.499c0,6.26,4.924,11.334,11,11.334l0,0c6.074,0,11-5.074,11-11.334V26.594z"/>
				<circle fill="#FFFFFF" stroke="#000000" stroke-width="0.9325" cx="320.667" cy="28.26" r="5"/>
				<circle fill="#FFFFFF" stroke="#000000" stroke-width="0.9325" cx="320.667" cy="75.163" r="5"/>
				<text transform="matrix(1 0 0 1 312.4727 104.1802)" font-size="11">ID7</text>
			</g>
			<g>
				<path fill="#808285" stroke="#000000" stroke-width="0.9635" d="M366,26.594c0-6.259-4.925-11.333-11-11.333l0,0
					c-6.075,0-11,5.074-11,11.333v48.499c0,6.26,4.925,11.334,11,11.334l0,0c6.075,0,11-5.074,11-11.334V26.594z"/>
				<circle fill="#FFFFFF" stroke="#000000" stroke-width="0.9325" cx="355" cy="28.26" r="5"/>
				<circle fill="#FFFFFF" stroke="#000000" stroke-width="0.9325" cx="355" cy="42.317" r="5"/>
				<circle fill="#FFFFFF" stroke="#000000" stroke-width="0.9325" cx="355" cy="75.163" r="5"/>
				<text transform="matrix(1 0 0 1 347.2002 104.1802)" font-size="11">ID8</text>
			</g>
			<g>
				<path fill="#808285" stroke="#000000" stroke-width="0.9635" d="M400.333,26.594c0-6.259-4.924-11.333-11-11.333l0,0
					c-6.074,0-11,5.074-11,11.333v48.499c0,6.26,4.926,11.334,11,11.334l0,0c6.076,0,11-5.074,11-11.334V26.594z"/>
				<circle fill="#FFFFFF" stroke="#000000" stroke-width="0.9325" cx="389.333" cy="75.163" r="5"/>
				<circle fill="#FFFFFF" stroke="#000000" stroke-width="0.9325" cx="389.333" cy="58.417" r="5"/>
				<circle fill="#FFFFFF" stroke="#000000" stroke-width="0.9325" cx="389.333" cy="42.317" r="5"/>
				<circle fill="#FFFFFF" stroke="#000000" stroke-width="0.9325" cx="389.333" cy="26.609" r="5"/>
				<text transform="matrix(1 0 0 1 381.9277 104.1802)" font-size="11">ID9</text>
			</g>
			<text transform="matrix(1 0 0 1 144.4204 122.5269)" font-size="11">Implant Template Group Member Sequence</text>
		</g>
		<g>
			<polyline fill="#B2CEE7" stroke="#000000" stroke-width="0.5" points="391.338,200.152 391.338,176.152 161.316,176.152 
				161.316,200.152 			"/>
			<rect x="110.662" y="199.266" fill="#B2CEE7" stroke="#000000" stroke-width="0.5" width="50.654" height="327.475"/>
			<text transform="matrix(1 0 0 1 231.3096 190.5347)" font-size="12">Number of Holes</text>
			<text transform="matrix(1 0 0 1 118.2744 366.166)" font-size="12">Length</text>
			<rect x="161.316" y="199.205" fill="#CCDEF0" stroke="#000000" stroke-width="0.5" width="230.021" height="327.535"/>
			<line fill="#CCDEF0" stroke="#000000" stroke-width="0.5" x1="161.632" y1="414.074" x2="391.338" y2="414.074"/>
			<line fill="#CCDEF0" stroke="#000000" stroke-width="0.5" x1="161.632" y1="317.154" x2="391.338" y2="317.154"/>
			<line fill="#CCDEF0" stroke="#000000" stroke-width="0.5" x1="161.632" y1="236.229" x2="391.338" y2="236.229"/>
			<line fill="#CCDEF0" stroke="#000000" stroke-width="0.5" x1="345.35" y1="199.086" x2="345.35" y2="525.121"/>
			<line fill="#CCDEF0" stroke="#000000" stroke-width="0.5" x1="299.361" y1="199.086" x2="299.361" y2="525.121"/>
			<line fill="#CCDEF0" stroke="#000000" stroke-width="0.5" x1="253.372" y1="199.264" x2="253.372" y2="525.299"/>
			<line fill="#CCDEF0" stroke="#000000" stroke-width="0.5" x1="207.306" y1="199.264" x2="207.306" y2="525.299"/>
			<path fill="#808285" stroke="#000000" stroke-width="0.9635" d="M378.947,434.764c0-6.258-4.924-11.332-11-11.332l0,0
				c-6.074,0-11,5.074-11,11.332v48.5c0,6.26,4.926,11.334,11,11.334l0,0c6.076,0,11-5.074,11-11.334V434.764z"/>
			<circle fill="#FFFFFF" stroke="#000000" stroke-width="0.9325" cx="367.947" cy="483.334" r="5"/>
			<circle fill="#FFFFFF" stroke="#000000" stroke-width="0.9325" cx="367.947" cy="466.588" r="5"/>
			<circle fill="#FFFFFF" stroke="#000000" stroke-width="0.9325" cx="367.947" cy="450.488" r="5"/>
			<circle fill="#FFFFFF" stroke="#000000" stroke-width="0.9325" cx="367.947" cy="434.781" r="5"/>
			<text transform="matrix(1 0 0 1 360.541 512.3525)" font-size="11">ID9</text>
			<path fill="#808285" stroke="#000000" stroke-width="0.9635" d="M334.613,434.764c0-6.258-4.924-11.332-11-11.332l0,0
				c-6.074,0-11,5.074-11,11.332v48.5c0,6.26,4.926,11.334,11,11.334l0,0c6.076,0,11-5.074,11-11.334V434.764z"/>
			<circle fill="#FFFFFF" stroke="#000000" stroke-width="0.9325" cx="323.613" cy="436.432" r="5"/>
			<circle fill="#FFFFFF" stroke="#000000" stroke-width="0.9325" cx="323.613" cy="450.488" r="5"/>
			<circle fill="#FFFFFF" stroke="#000000" stroke-width="0.9325" cx="323.613" cy="483.334" r="5"/>
			<text transform="matrix(1 0 0 1 315.8135 512.3525)" font-size="11">ID8</text>
			<path fill="#808285" stroke="#000000" stroke-width="0.9635" d="M286.947,434.764c0-6.258-4.926-11.332-11-11.332l0,0
				c-6.076,0-11,5.074-11,11.332v48.5c0,6.26,4.924,11.334,11,11.334l0,0c6.074,0,11-5.074,11-11.334V434.764z"/>
			<circle fill="#FFFFFF" stroke="#000000" stroke-width="0.9325" cx="275.947" cy="436.432" r="5"/>
			<circle fill="#FFFFFF" stroke="#000000" stroke-width="0.9325" cx="275.947" cy="483.334" r="5"/>
			<text transform="matrix(1 0 0 1 267.752 512.3525)" font-size="11">ID7</text>
			<path fill="#808285" stroke="#000000" stroke-width="0.9635" d="M241.339,434.764c0-6.258-4.925-11.332-11-11.332l0,0
				c-6.075,0-11,5.074-11,11.332v48.5c0,6.26,4.925,11.334,11,11.334l0,0c6.075,0,11-5.074,11-11.334V434.764z"/>
			<circle fill="#FFFFFF" stroke="#000000" stroke-width="0.9325" cx="230.339" cy="459.014" r="5"/>
			<text transform="matrix(1 0 0 1 221.7505 512.3525)" font-size="11">ID6</text>
			<path fill="#808285" stroke="#000000" stroke-width="0.978" d="M241.339,340.385c0-6.35-4.926-11.5-11-11.5l0,0
				c-6.075,0-11,5.15-11,11.5v30.168c0,6.352,4.925,11.5,11,11.5l0,0c6.074,0,11-5.148,11-11.5V340.385z"/>
			<circle fill="#FFFFFF" stroke="#000000" stroke-width="0.9325" cx="230.339" cy="355.469" r="5"/>
			<text transform="matrix(1 0 0 1 221.7339 399.8076)" font-size="11">ID3</text>
			<path fill="#808285" stroke="#000000" stroke-width="0.978" d="M286.947,340.385c0-6.35-4.926-11.5-11-11.5l0,0
				c-6.074,0-11,5.15-11,11.5v30.168c0,6.352,4.926,11.5,11,11.5l0,0c6.074,0,11-5.148,11-11.5V340.385z"/>
			<circle fill="#FFFFFF" stroke="#000000" stroke-width="0.9325" cx="275.947" cy="339.721" r="5"/>
			<circle fill="#FFFFFF" stroke="#000000" stroke-width="0.9325" cx="275.947" cy="370.361" r="5"/>
			<text transform="matrix(1 0 0 1 267.291 399.8076)" font-size="11">ID4</text>
			<path fill="#808285" stroke="#000000" stroke-width="0.978" d="M334.613,340.385c0-6.35-4.926-11.5-11-11.5l0,0
				c-6.074,0-11,5.15-11,11.5v30.168c0,6.352,4.926,11.5,11,11.5l0,0c6.074,0,11-5.148,11-11.5V340.385z"/>
			<circle fill="#FFFFFF" stroke="#000000" stroke-width="0.9325" cx="323.613" cy="355.469" r="5"/>
			<circle fill="#FFFFFF" stroke="#000000" stroke-width="0.9325" cx="323.613" cy="340.148" r="5"/>
			<circle fill="#FFFFFF" stroke="#000000" stroke-width="0.9325" cx="323.613" cy="370.789" r="5"/>
			<text transform="matrix(1 0 0 1 314.9062 399.8076)" font-size="11">ID5</text>
			<path fill="#808285" stroke="#000000" d="M287.488,276.285c0.121,6.074-4.703,11.096-10.777,11.217l0,0
				c-6.074,0.121-11.096-4.703-11.217-10.777l-0.361-17.996c-0.121-6.074,4.705-11.098,10.779-11.219l0,0
				c6.074-0.121,11.096,4.705,11.217,10.779L287.488,276.285z"/>
			<circle fill="#FFFFFF" stroke="#000000" stroke-width="0.9325" cx="276.311" cy="274.93" r="5"/>
			<circle fill="#FFFFFF" stroke="#000000" stroke-width="0.9325" cx="276.311" cy="259.496" r="5"/>
			<text transform="matrix(1 0 0 1 267.752 305.2617)" font-size="11">ID2</text>
			<path fill="#808285" stroke="#000000" d="M241.293,275.053c0,6.074-4.925,11-11,11l0,0c-6.075,0-11-4.926-11-11v-18
				c0-6.076,4.925-11.001,11-11.001l0,0c6.075,0,11,4.925,11,11.001V275.053z"/>
			<circle fill="#FFFFFF" stroke="#000000" stroke-width="0.9325" cx="230.293" cy="266.053" r="5"/>
			<text transform="matrix(1 0 0 1 221.7329 303.8076)" font-size="11">ID1</text>
			<text transform="matrix(1 0 0 1 226.3999 221.4375)" font-size="14">1</text>
			<text transform="matrix(1 0 0 1 180.2271 276.8516)" font-size="14">1</text>
			<text transform="matrix(1 0 0 1 180.2271 370.3604)" font-size="14">2</text>
			<text transform="matrix(1 0 0 1 180.2271 475.1875)" font-size="14">3</text>
			<text transform="matrix(1 0 0 1 167.7783 221.4375)" font-size="14">Rank</text>
			<text transform="matrix(1 0 0 1 272.418 221.4375)" font-size="14">2</text>
			<text transform="matrix(1 0 0 1 319.7207 221.4375)" font-size="14">3</text>
			<text transform="matrix(1 0 0 1 364.0537 221.4375)" font-size="14">4</text>
		</g>
	</g>
</g>
</svg>
