<?xml version="1.0" encoding="utf-8"?>
<!-- $Source: /home/bbennett/pass/archive/DicomXml/docbook/part03/figures/PS3.3_A.39-1.svg,v $ -->
<!-- $Date: 2014/05/09 12:27:11 $ -->
<!-- $Revision: 1.2 $ -->

<!DOCTYPE svg PUBLIC "-//W3C//DTD SVG 1.1//EN" "http://www.w3.org/Graphics/SVG/1.1/DTD/svg11.dtd">
<svg version="1.1" id="Layer_1" xmlns="http://www.w3.org/2000/svg" xmlns:xlink="http://www.w3.org/1999/xlink" x="0px" y="0px"
	 width="502px" height="312px" viewBox="0 0 502 312" enable-background="new 0 0 502 312" xml:space="preserve">

<defs>
	<style type="text/css">
	text {
	  font-family: Helvetica, Verdana, ArialUnicodeMS, san-serif
	}
	</style>
</defs>

<g>
   <desc>
	PS 3.3 Part 3: Information Object Definitions
   </desc>
</g>

<g>
	<rect x="1" y="1" fill="#F5EED6" width="500" height="310"/>
	<g>
		<g>
			<g>
				<g>
					
						<line fill="none" stroke="#005695" stroke-width="2" stroke-miterlimit="1" x1="357.517" y1="128.205" x2="357.517" y2="118.708"/>
					<g>
						<polygon fill="#005695" points="359.841,126.619 357.517,135.292 355.192,126.619 						"/>
					</g>
				</g>
			</g>
			<g>
				<g>
					
						<line fill="none" stroke="#005695" stroke-width="2" stroke-miterlimit="1" x1="149.095" y1="118.507" x2="149.095" y2="141.351"/>
					<g>
						<polygon fill="#005695" points="146.771,139.766 149.095,148.438 151.419,139.766 						"/>
					</g>
				</g>
			</g>
			<g>
				<g>
					<polyline fill="none" stroke="#005695" stroke-width="2" stroke-miterlimit="1" points="189.979,202.066 189.979,178.6 
						149.223,178.587 149.17,166.253 					"/>
					<g>
						<polygon fill="#005695" points="192.303,200.481 189.979,209.154 187.654,200.481 						"/>
					</g>
				</g>
			</g>
			<g>
				<g>
					
						<line fill="none" stroke="#005695" stroke-width="2" stroke-miterlimit="1" x1="251.097" y1="118.9" x2="251.097" y2="141.347"/>
					<g>
						<polygon fill="#005695" points="248.772,139.762 251.097,148.435 253.421,139.762 						"/>
					</g>
				</g>
			</g>
			<g>
				<g>
					<polyline fill="none" stroke="#005695" stroke-width="2" stroke-miterlimit="1" points="220.898,202.066 220.898,193.138 
						357.517,193.138 357.517,178.633 					"/>
					<g>
						<polygon fill="#005695" points="223.223,200.481 220.898,209.154 218.574,200.481 						"/>
					</g>
				</g>
			</g>
			<g>
				<g>
					<polyline fill="none" stroke="#005695" stroke-width="2" stroke-miterlimit="1" points="205.416,202.066 205.416,178.31 
						251.161,178.31 251.161,166.253 					"/>
					<g>
						<polygon fill="#005695" points="207.74,200.481 205.416,209.154 203.092,200.481 						"/>
					</g>
				</g>
			</g>
			<g>
				<g>
					<line fill="none" stroke="#005695" stroke-width="2" stroke-miterlimit="1" x1="149.167" y1="78.7" x2="149.112" y2="93.275"/>
					<g>
						<polygon fill="#005695" points="146.793,91.681 149.085,100.362 151.442,91.699 						"/>
					</g>
				</g>
			</g>
			<g>
				<g>
					
						<line fill="none" stroke="#005695" stroke-width="2" stroke-miterlimit="1" x1="149.167" y1="29.862" x2="149.111" y2="44.749"/>
					<g>
						<polygon fill="#005695" points="146.793,43.155 149.085,51.836 151.441,43.172 						"/>
					</g>
				</g>
			</g>
			<g>
				<g>
					
						<line fill="none" stroke="#005695" stroke-width="2" stroke-miterlimit="1" x1="205.189" y1="227.329" x2="205.189" y2="236.403"/>
					<g>
						<polygon fill="#005695" points="202.865,234.818 205.189,243.491 207.514,234.818 						"/>
					</g>
				</g>
			</g>
			<g>
				<g>
					
						<line fill="none" stroke="#005695" stroke-width="2" stroke-miterlimit="1" x1="206.37" y1="261.479" x2="206.316" y2="274.974"/>
					<g>
						<polygon fill="#005695" points="203.999,273.38 206.288,282.062 208.647,273.398 						"/>
					</g>
				</g>
			</g>
		</g>
		
			<polygon fill="#CCDEF0" stroke="#010101" stroke-width="0.75" stroke-linecap="round" stroke-linejoin="round" stroke-miterlimit="1" points="
			104.162,157.301 149.096,148.438 194.16,157.428 194.16,157.449 149.096,166.438 		"/>
		<g>
			<text transform="matrix(1 0 0 1 132.3994 159.9277)" font-size="9">contains</text>
		</g>
		
			<polygon fill="#CCDEF0" stroke="#010101" stroke-width="0.75" stroke-linecap="round" stroke-linejoin="round" stroke-miterlimit="1" points="
			206.09,157.297 251.024,148.435 296.088,157.424 296.088,157.445 251.024,166.435 		"/>
		<g>
			<text transform="matrix(1 0 0 1 236.332 159.9277)" font-size="9">creates</text>
		</g>
		
			<polygon fill="#CCDEF0" stroke="#010101" stroke-width="0.75" stroke-linecap="round" stroke-linejoin="round" stroke-miterlimit="1" points="
			307.703,157.445 357.131,135.292 406.703,157.767 406.703,157.816 357.131,180.292 		"/>
		<g>
			<text transform="matrix(1 0 0 1 342.7832 150.4902)"><tspan x="0" y="0" font-size="9">spatially</tspan><tspan x="-9.752" y="8.8" font-size="9">or temporally</tspan><tspan x="1.746" y="17.6" font-size="9">defines</tspan></text>
		</g>
		
			<rect x="209.205" y="100.362" fill="#86B2D8" stroke="#010101" stroke-width="0.75" stroke-linecap="round" stroke-linejoin="round" stroke-miterlimit="1" width="83.992" height="18"/>
		<g>
			<text transform="matrix(1 0 0 1 222.5161 112.6885)" font-size="12">Equipment</text>
		</g>
		
			<rect x="308.023" y="100.362" fill="#86B2D8" stroke="#010101" stroke-width="0.75" stroke-linecap="round" stroke-linejoin="round" stroke-miterlimit="1" width="99" height="18"/>
		<g>
			<text transform="matrix(1 0 0 1 313.0732 112.6885)" font-size="10">Frame of Reference</text>
		</g>
		
			<rect x="107.086" y="11.801" fill="#86B2D8" stroke="#010101" stroke-width="0.75" stroke-linecap="round" stroke-linejoin="round" stroke-miterlimit="1" width="84.004" height="18"/>
		<g>
			<text transform="matrix(1 0 0 1 130.4043 24.1211)" font-size="12">Patient</text>
		</g>
		
			<rect x="107.09" y="100.5" fill="#86B2D8" stroke="#010101" stroke-width="0.75" stroke-linecap="round" stroke-linejoin="round" stroke-miterlimit="1" width="83.996" height="18"/>
		<g>
			<text transform="matrix(1 0 0 1 133.7422 112.8242)" font-size="12">Study</text>
		</g>
		<g>
			<text transform="matrix(1 0 0 1 178.8555 149.0049)" font-size="9">1</text>
		</g>
		<g>
			<text transform="matrix(1 0 0 1 170.8535 171.0107)" font-size="9">1-n</text>
		</g>
		<g>
			<text transform="matrix(1 0 0 1 280.1875 149.0049)" font-size="9">1</text>
		</g>
		<g>
			<text transform="matrix(1 0 0 1 272.1846 171.0107)" font-size="9">1-n</text>
		</g>
		<g>
			<text transform="matrix(1 0 0 1 391.1846 144.9736)" font-size="9">0-1</text>
		</g>
		<g>
			<text transform="matrix(1 0 0 1 391.1846 175.6182)" font-size="9">0-n</text>
		</g>
		
			<polygon fill="#CCDEF0" stroke="#010101" stroke-width="0.75" stroke-linecap="round" stroke-linejoin="round" stroke-miterlimit="1" points="
			94.977,65.129 148.897,51.836 202.978,65.32 202.978,65.352 148.897,78.836 		"/>
		<g>
			<text transform="matrix(1 0 0 1 117.5635 67.835)" font-size="9">is the subject of</text>
		</g>
		<g>
			<text transform="matrix(1 0 0 1 191.8267 55.0928)" font-size="9">1</text>
		</g>
		<g>
			<text transform="matrix(1 0 0 1 183.8242 82.1387)" font-size="9">1-n</text>
		</g>
		
			<polygon fill="#CCDEF0" stroke="#010101" stroke-width="0.75" stroke-linecap="round" stroke-linejoin="round" stroke-miterlimit="1" points="
			160.111,252.354 205.045,243.491 250.11,252.48 250.11,252.502 205.045,261.49 		"/>
		<g>
			<text transform="matrix(1 0 0 1 188.3491 254.9814)" font-size="9">contains</text>
		</g>
		
			<rect x="163.238" y="209.373" fill="#86B2D8" stroke="#010101" stroke-width="0.75" stroke-linecap="round" stroke-linejoin="round" stroke-miterlimit="1" width="84.001" height="17.987"/>
		<g>
			<text transform="matrix(1 0 0 1 188.2305 221.709)" font-size="12">Series</text>
		</g>
		
			<rect x="164.293" y="282.199" fill="#86B2D8" stroke="#010101" stroke-width="0.75" stroke-linecap="round" stroke-linejoin="round" stroke-miterlimit="1" width="83.996" height="18.001"/>
		<g>
			<text transform="matrix(1 0 0 1 178.9512 294.5244)" font-size="12">Waveform</text>
		</g>
		<g>
			<text transform="matrix(1 0 0 1 243.3564 244.0488)" font-size="9">1</text>
		</g>
		<g>
			<text transform="matrix(1 0 0 1 232.8242 268.2002)" font-size="9">0-n</text>
		</g>
	</g>
</g>
</svg>
