<?xml version="1.0" encoding="utf-8"?>
<!-- $Source: /home/bbennett/pass/archive/DicomXml/docbook/part03/figures/PS3.3_A.31-1.svg,v $ -->
<!-- $Date: 2014/05/09 12:27:11 $ -->
<!-- $Revision: 1.2 $ -->

<!DOCTYPE svg PUBLIC "-//W3C//DTD SVG 1.1//EN" "http://www.w3.org/Graphics/SVG/1.1/DTD/svg11.dtd">
<svg version="1.1" id="Layer_1" xmlns="http://www.w3.org/2000/svg" xmlns:xlink="http://www.w3.org/1999/xlink" x="0px" y="0px"
	 width="502.002px" height="302px" viewBox="0 0 502.002 302" enable-background="new 0 0 502.002 302" xml:space="preserve">

<defs>
	<style type="text/css">
	text {
	  font-family: Helvetica, Verdana, ArialUnicodeMS, san-serif
	}
	</style>
</defs>

<g>
   <desc>
	PS 3.3 Part 3: Information Object Definitions
   </desc>
</g>

<g>
	<rect x="1" y="1" fill="#F5EED6" width="500.001" height="300"/>
	<g>
		<g>
			<g>
				<g>
					
						<line fill="none" stroke="#005695" stroke-width="2" stroke-miterlimit="1" x1="204.563" y1="118.632" x2="204.563" y2="133.2"/>
					<g>
						<polygon fill="#005695" points="202.239,131.614 204.563,140.287 206.888,131.614 						"/>
					</g>
				</g>
			</g>
			<g>
				<g>
					<polyline fill="none" stroke="#005695" stroke-width="2" stroke-miterlimit="1" points="245.448,191.391 245.447,170.447 
						204.691,170.436 204.639,158.102 					"/>
					<g>
						<polygon fill="#005695" points="247.772,189.806 245.448,198.479 243.124,189.806 						"/>
					</g>
				</g>
			</g>
			<g>
				<g>
					
						<line fill="none" stroke="#005695" stroke-width="2" stroke-miterlimit="1" x1="306.565" y1="119.026" x2="306.565" y2="133.196"/>
					<g>
						<polygon fill="#005695" points="304.241,131.61 306.565,140.283 308.89,131.61 						"/>
					</g>
				</g>
			</g>
			<g>
				<g>
					<polyline fill="none" stroke="#005695" stroke-width="2" stroke-miterlimit="1" points="260.886,191.391 260.885,170.158 
						306.63,170.158 306.63,158.102 					"/>
					<g>
						<polygon fill="#005695" points="263.21,189.806 260.886,198.479 258.562,189.806 						"/>
					</g>
				</g>
			</g>
			<g>
				<g>
					
						<line fill="none" stroke="#005695" stroke-width="2" stroke-miterlimit="1" x1="204.636" y1="78.962" x2="204.581" y2="93.401"/>
					<g>
						<polygon fill="#005695" points="202.263,91.807 204.554,100.488 206.911,91.825 						"/>
					</g>
				</g>
			</g>
			<g>
				<g>
					
						<line fill="none" stroke="#005695" stroke-width="2" stroke-miterlimit="1" x1="204.636" y1="29.926" x2="204.58" y2="44.875"/>
					<g>
						<polygon fill="#005695" points="202.262,43.281 204.554,51.962 206.91,43.298 						"/>
					</g>
				</g>
			</g>
			<g>
				<g>
					
						<line fill="none" stroke="#005695" stroke-width="2" stroke-miterlimit="1" x1="253.459" y1="216.654" x2="253.459" y2="225.729"/>
					<g>
						<polygon fill="#005695" points="251.135,224.144 253.459,232.816 255.783,224.144 						"/>
					</g>
				</g>
			</g>
			<g>
				<g>
					
						<line fill="none" stroke="#005695" stroke-width="2" stroke-miterlimit="1" x1="254.438" y1="250.816" x2="254.385" y2="264.311"/>
					<g>
						<polygon fill="#005695" points="252.066,262.717 254.356,271.398 256.715,262.735 						"/>
					</g>
				</g>
			</g>
		</g>
		
			<polygon fill="#CCDEF0" stroke="#010101" stroke-width="0.75" stroke-linecap="round" stroke-linejoin="round" stroke-miterlimit="1" points="
			159.631,149.149 204.564,140.287 249.629,149.276 249.629,149.298 204.564,158.287 		"/>
		<g>
			<text transform="matrix(1 0 0 1 187.8682 151.7734)" font-size="9">contains</text>
		</g>
		
			<polygon fill="#CCDEF0" stroke="#010101" stroke-width="0.75" stroke-linecap="round" stroke-linejoin="round" stroke-miterlimit="1" points="
			261.559,149.146 306.493,140.283 351.557,149.272 351.557,149.294 306.493,158.283 		"/>
		<g>
			<text transform="matrix(1 0 0 1 291.8008 151.7734)" font-size="9">creates</text>
		</g>
		
			<rect x="264.674" y="100.488" fill="#86B2D8" stroke="#010101" stroke-width="0.75" stroke-linecap="round" stroke-linejoin="round" stroke-miterlimit="1" width="83.992" height="18"/>
		<g>
			<text transform="matrix(1 0 0 1 277.9854 112.814)" font-size="12">Equipment</text>
		</g>
		
			<rect x="162.555" y="11.926" fill="#86B2D8" stroke="#010101" stroke-width="0.75" stroke-linecap="round" stroke-linejoin="round" stroke-miterlimit="1" width="84.004" height="18"/>
		<g>
			<text transform="matrix(1 0 0 1 185.873 24.2466)" font-size="12">Patient</text>
		</g>
		
			<rect x="162.559" y="100.626" fill="#86B2D8" stroke="#010101" stroke-width="0.75" stroke-linecap="round" stroke-linejoin="round" stroke-miterlimit="1" width="83.996" height="18"/>
		<g>
			<text transform="matrix(1 0 0 1 189.2109 112.9497)" font-size="12">Study</text>
		</g>
		
			<rect x="208.381" y="271.417" fill="#86B2D8" stroke="#010101" stroke-width="0.75" stroke-linecap="round" stroke-linejoin="round" stroke-miterlimit="1" width="91.957" height="24"/>
		<g>
			<text transform="matrix(1 0 0 1 234.3242 140.8506)" font-size="9">1</text>
		</g>
		<g>
			<text transform="matrix(1 0 0 1 226.3223 162.8555)" font-size="9">1-n</text>
		</g>
		<g>
			<text transform="matrix(1 0 0 1 335.6562 140.8506)" font-size="9">1</text>
		</g>
		<g>
			<text transform="matrix(1 0 0 1 327.6533 162.8555)" font-size="9">1-n</text>
		</g>
		
			<polygon fill="#CCDEF0" stroke="#010101" stroke-width="0.75" stroke-linecap="round" stroke-linejoin="round" stroke-miterlimit="1" points="
			150.445,65.255 204.366,51.962 258.446,65.446 258.446,65.478 204.366,78.962 		"/>
		<g>
			<text transform="matrix(1 0 0 1 173.0322 67.9604)" font-size="9">is the subject of</text>
		</g>
		<g>
			<text transform="matrix(1 0 0 1 247.2954 55.2183)" font-size="9">1</text>
		</g>
		<g>
			<text transform="matrix(1 0 0 1 239.293 82.2642)" font-size="9">1-n</text>
		</g>
		
			<polygon fill="#CCDEF0" stroke="#010101" stroke-width="0.75" stroke-linecap="round" stroke-linejoin="round" stroke-miterlimit="1" points="
			208.381,241.68 253.314,232.816 298.38,241.807 298.38,241.828 253.314,250.816 		"/>
		<g>
			<text transform="matrix(1 0 0 1 236.6187 244.3066)" font-size="9">contains</text>
		</g>
		<g>
			<text transform="matrix(1 0 0 1 291.4248 233.3848)" font-size="9">1</text>
		</g>
		<g>
			<text transform="matrix(1 0 0 1 280.8926 257.5371)" font-size="9">0-n</text>
		</g>
		
			<rect x="211.508" y="198.697" fill="#86B2D8" stroke="#010101" stroke-width="0.75" stroke-linecap="round" stroke-linejoin="round" stroke-miterlimit="1" width="84.001" height="17.988"/>
		<g>
			<text transform="matrix(1 0 0 1 236.5 211.0342)" font-size="12">Series</text>
		</g>
		<g>
			<text transform="matrix(1 0 0 1 226.604 281.8438)"><tspan x="0" y="0" font-size="9">RT Treatment</tspan><tspan x="-7.253" y="8.133" font-size="9">Summary Record</tspan></text>
		</g>
	</g>
</g>
</svg>
