<?xml version="1.0" encoding="utf-8"?>
<!-- $Source: /home/bbennett/pass/archive/DicomXml/docbook/part03/figures/PS3.3_C.10.5-1.svg,v $ -->
<!-- $Date: 2014/05/09 12:30:19 $ -->
<!-- $Revision: 1.2 $ -->

<!DOCTYPE svg PUBLIC "-//W3C//DTD SVG 1.1//EN" "http://www.w3.org/Graphics/SVG/1.1/DTD/svg11.dtd">
<svg version="1.1" id="Layer_1" xmlns="http://www.w3.org/2000/svg" xmlns:xlink="http://www.w3.org/1999/xlink" x="0px" y="0px"
	 width="502px" height="317px" viewBox="0 0 502 317" enable-background="new 0 0 502 317" xml:space="preserve">

<defs>
	<style type="text/css">
	text {
	  font-family: Helvetica, Verdana, ArialUnicodeMS, san-serif
	}
	</style>
</defs>

<g>
   <desc>
	PS 3.3 Part 3: Information Object Definitions
   </desc>
</g>

<g>
	<rect x="1" y="1" fill="#F5EED6" width="500" height="315"/>
	<g>
		<rect x="125.436" y="46.188" fill="#B2CEE7" stroke="#000000" stroke-miterlimit="1" width="225.009" height="225.005"/>
		<g>
			<text transform="matrix(1 0 0 1 169.3438 34.2661)" font-size="12">Pixel (1,1)</text>
			<rect x="125.276" y="46.096" fill="#FFFFFF" stroke="#000000" stroke-miterlimit="1" width="18" height="18"/>
			<rect x="332.282" y="253.1" fill="#FFFFFF" stroke="#000000" stroke-miterlimit="1" width="18" height="18"/>
			<polyline fill="none" stroke="#000000" stroke-miterlimit="1" points="134.492,54.438 151.584,31.038 167.054,31.038 			"/>
			<text transform="matrix(1 0 0 1 22.0298 26.3394)" font-size="12">Point (0.0,0.0)</text>
			<g>
				<g>
					<polyline fill="none" stroke="#000000" stroke-miterlimit="1" points="125.46,45.964 115.568,22.564 100.099,22.564 					"/>
					<circle cx="125.46" cy="45.964" r="3.76"/>
				</g>
			</g>
			<text transform="matrix(1 0 0 1 170.896 90.3389)" font-size="12">Point (1.0,1.0)</text>
			<g>
				<g>
					<polyline fill="none" stroke="#000000" stroke-miterlimit="1" points="143.04,63.851 152.932,87.25 168.401,87.25 					"/>
					<circle cx="143.04" cy="63.851" r="3.76"/>
				</g>
			</g>
			<text transform="matrix(1 0 0 1 376.3477 241.2695)" font-size="12">Pixel (512,512)</text>
			<polyline fill="none" stroke="#000000" stroke-miterlimit="1" points="341.492,261.441 358.583,238.043 374.054,238.043 			"/>
			<text transform="matrix(1 0 0 1 200.9541 233.3438)" font-size="12">Point (511.0,511.0)</text>
			<g>
				<g>
					<polyline fill="none" stroke="#000000" stroke-miterlimit="1" points="332.46,252.969 322.568,229.568 307.099,229.568 					
						"/>
					<circle cx="332.46" cy="252.969" r="3.76"/>
				</g>
			</g>
			<text transform="matrix(1 0 0 1 377.9004 297.3428)" font-size="12">Point (512.0,512.0)</text>
			<g>
				<g>
					<polyline fill="none" stroke="#000000" stroke-miterlimit="1" points="350.04,270.855 359.933,294.254 375.401,294.254 					
						"/>
					<circle cx="350.04" cy="270.855" r="3.76"/>
				</g>
			</g>
		</g>
	</g>
</g>
</svg>
