<?xml version="1.0" encoding="utf-8"?>
<!-- $Source: /home/bbennett/pass/archive/DicomXml/docbook/part03/figures/PS3.3_C.8.11.7-2b.svg,v $ -->
<!-- $Date: 2014/05/09 12:30:19 $ -->
<!-- $Revision: 1.2 $ -->

<!DOCTYPE svg PUBLIC "-//W3C//DTD SVG 1.1//EN" "http://www.w3.org/Graphics/SVG/1.1/DTD/svg11.dtd">
<svg version="1.1" id="Layer_1" xmlns="http://www.w3.org/2000/svg" xmlns:xlink="http://www.w3.org/1999/xlink" x="0px" y="0px"
	 width="502px" height="164.013px" viewBox="0 0 502 164.013" enable-background="new 0 0 502 164.013" xml:space="preserve">

<defs>
	<style type="text/css">
	text {
	  font-family: Helvetica, Verdana, ArialUnicodeMS, san-serif
	}
	</style>
</defs>

<g>
   <desc>
	PS 3.3 Part 3: Information Object Definitions
   </desc>
</g>

<g>
	<rect x="1" y="1" fill="#F5EED6" width="500" height="162.013"/>
	<g>
		<g>
			<text transform="matrix(0.963 0 0 1 235.9565 59.519)" font-size="10">A</text>
		</g>
		<g>
			<text transform="matrix(0.963 0 0 1 277.0371 116.0195)" font-size="10">B</text>
		</g>
		<polyline fill-rule="evenodd" clip-rule="evenodd" fill="#005695" points="202.16,55.707 201.2,58.587 201.92,58.827 
			202.88,59.067 204.08,59.307 205.279,59.547 208.16,60.267 211.279,61.227 214.88,61.947 218.479,62.907 222.319,63.867 
			226.399,64.827 234.319,66.987 238.16,68.187 242,69.147 245.359,70.347 248.72,71.307 251.6,72.507 254,73.467 254.479,72.027 
			254,73.467 258.079,75.627 260,76.587 261.92,77.787 263.6,78.747 264.319,77.547 263.119,78.507 264.8,79.707 266,80.907 
			267.439,81.867 268.399,83.066 269.359,84.267 270.319,85.467 271.279,84.267 270.079,84.986 270.56,85.946 271.039,87.146 
			271.52,88.347 272.72,87.627 271.279,87.627 271.52,88.587 271.52,89.547 271.039,90.747 272.72,90.747 271.279,90.267 
			270.8,91.227 270.079,92.187 271.52,92.907 270.56,91.707 269.6,92.907 268.64,93.867 267.439,94.827 266,95.787 267.199,96.986 
			266.479,95.547 265.039,96.507 263.359,97.467 261.68,98.427 257.84,100.106 253.76,101.787 249.68,102.986 247.279,103.707 
			244.64,104.427 245.12,105.867 245.12,104.187 242.24,104.907 239.12,105.387 236,105.867 232.64,106.347 225.92,107.066 
			218.96,107.787 215.84,108.026 212.72,108.507 209.84,108.747 207.2,108.986 205.04,109.226 202.88,109.466 203.12,112.347 
			205.04,112.106 207.2,111.866 209.84,111.626 212.72,111.386 215.84,111.146 218.96,110.907 225.92,110.187 232.64,109.226 
			236,108.747 239.12,108.267 242.24,107.787 245.12,107.307 245.84,107.066 248.479,106.587 250.64,105.867 254.96,104.427 
			259.039,102.986 262.88,101.066 264.56,100.106 266.239,99.146 267.68,98.187 268.159,97.946 269.6,96.986 270.8,96.026 
			271.76,95.066 272.72,93.867 272.96,93.387 273.68,92.427 273.92,91.467 274.159,90.747 274.399,90.026 274.399,88.587 
			274.399,87.627 274.159,87.146 273.92,85.946 273.439,84.747 272.72,83.787 272.479,83.307 271.52,82.106 270.56,80.907 
			269.6,79.707 268.159,78.747 266.96,77.547 265.279,76.587 264.8,76.107 263.119,75.147 261.199,73.947 259.279,72.747 
			255.199,70.827 255.199,70.827 252.8,69.627 249.92,68.667 246.56,67.467 243.2,66.507 239.359,65.307 235.52,64.347 
			227.6,62.187 223.52,61.227 219.68,60.027 216.08,59.307 212.479,58.347 209.359,57.627 206.479,56.907 205.279,56.427 
			204.08,56.187 203.12,55.947 		"/>
		
			<rect x="246.56" y="57.147" fill-rule="evenodd" clip-rule="evenodd" fill="none" stroke="#010101" stroke-miterlimit="10" width="54.24" height="71.279"/>
		
			<rect x="201.92" y="48.267" fill-rule="evenodd" clip-rule="evenodd" fill="none" stroke="#010101" stroke-miterlimit="10" width="54.239" height="72"/>
		<g>
			<text transform="matrix(0.963 0 0 1 206.7476 44.4458)" font-size="10">axilla</text>
		</g>
	</g>
</g>
</svg>
