<?xml version="1.0" encoding="utf-8"?>
<!-- $Source: /home/bbennett/pass/archive/DicomXml/docbook/part03/figures/PS3.3_C.8-20.svg,v $ -->
<!-- $Date: 2014/05/09 12:30:19 $ -->
<!-- $Revision: 1.2 $ -->

<!DOCTYPE svg PUBLIC "-//W3C//DTD SVG 1.1//EN" "http://www.w3.org/Graphics/SVG/1.1/DTD/svg11.dtd">
<svg version="1.1" id="Layer_1" xmlns="http://www.w3.org/2000/svg" xmlns:xlink="http://www.w3.org/1999/xlink" x="0px" y="0px"
	 width="502px" height="412px" viewBox="0 0 502 412" enable-background="new 0 0 502 412" xml:space="preserve">

<defs>
	<style type="text/css">
	text {
	  font-family: Helvetica, Verdana, ArialUnicodeMS, san-serif
	}
	</style>
</defs>

<g>
   <desc>
	PS 3.3 Part 3: Information Object Definitions
   </desc>
</g>

<rect x="1" y="1" fill="#F5EED6" width="500" height="410"/>
<g>
	<g>
		<g>
			
				<line fill="none" stroke="#005695" stroke-width="2" stroke-miterlimit="1" x1="219.58" y1="137.693" x2="230.021" y2="137.693"/>
			<g>
				<polygon fill="#005695" points="228.436,140.017 237.109,137.693 228.436,135.369 				"/>
			</g>
		</g>
	</g>
	<g>
		<g>
			
				<line fill="none" stroke="#005695" stroke-width="2" stroke-miterlimit="1" x1="288.954" y1="137.693" x2="300.699" y2="137.693"/>
			<g>
				<polygon fill="#005695" points="299.114,140.017 307.787,137.693 299.114,135.369 				"/>
			</g>
		</g>
	</g>
	<g>
		<g>
			<polyline fill="none" stroke="#005695" stroke-width="2" stroke-miterlimit="1" points="359.42,138.053 379.095,138.053 
				379.095,164.736 			"/>
			<g>
				<polygon fill="#005695" points="376.771,163.151 379.095,171.824 381.419,163.151 				"/>
			</g>
		</g>
	</g>
	<g>
		<g>
			<path fill="none" stroke="#005695" stroke-width="2" stroke-miterlimit="1" d="M385.173,178.325c0,0,7.343,0,14.388,0"/>
			<g>
				<polygon fill="#005695" points="397.973,180.649 406.646,178.325 397.973,176 				"/>
			</g>
		</g>
	</g>
	<g>
		<g>
			<polyline fill="none" stroke="#005695" stroke-width="2" stroke-miterlimit="1" points="364.665,276.488 379.095,276.488 
				379.095,192.343 			"/>
			<g>
				<polygon fill="#005695" points="381.419,193.929 379.095,185.256 376.771,193.929 				"/>
			</g>
		</g>
	</g>
	<g>
		<g>
			
				<line fill="none" stroke="#005695" stroke-width="2" stroke-miterlimit="1" x1="151.445" y1="138.053" x2="160.312" y2="138.053"/>
			<g>
				<polygon fill="#005695" points="158.727,140.377 167.4,138.053 158.727,135.729 				"/>
			</g>
		</g>
	</g>
	
		<rect x="167.4" y="123.301" fill="#86B2D8" stroke="#010101" stroke-width="0.75" stroke-linecap="round" stroke-linejoin="round" stroke-miterlimit="1" width="51.842" height="28.8"/>
	<g>
		<text transform="matrix(1 0 0 1 172.1157 134.5576)"><tspan x="0" y="0" font-size="7.2">Modality LUT</tspan><tspan x="-3.002" y="8.64" font-size="7.2">Transformation</tspan></text>
	</g>
	
		<rect x="237.109" y="123.301" fill="#86B2D8" stroke="#010101" stroke-width="0.75" stroke-linecap="round" stroke-linejoin="round" stroke-miterlimit="1" width="51.845" height="28.8"/>
	<g>
		<text transform="matrix(1 0 0 1 249.0234 135.3828)"><tspan x="0" y="0" font-size="7.2">VOI LUT</tspan><tspan x="-10.206" y="8.64" font-size="7.2">Transformation</tspan></text>
	</g>
	
		<rect x="307.787" y="123.301" fill="#86B2D8" stroke="#010101" stroke-width="0.75" stroke-linecap="round" stroke-linejoin="round" stroke-miterlimit="1" width="51.841" height="28.8"/>
	<g>
		<text transform="matrix(1 0 0 1 313.4839 131.0664)"><tspan x="0" y="0" font-size="7.2">Presentation</tspan><tspan x="13.412" y="8.64" font-size="7.2">LUT</tspan><tspan x="-3.995" y="17.28" font-size="7.2">Transformation</tspan></text>
	</g>
	<circle fill="#FFFFFF" stroke="#000000" stroke-miterlimit="1" cx="378.936" cy="178.488" r="6.75"/>
	<g>
		<text transform="matrix(1 0 0 1 375.019 183.4531)" font-size="14">+</text>
	</g>
	
		<rect x="406.646" y="151.325" fill="#005695" stroke="#010101" stroke-width="0.75" stroke-linecap="round" stroke-linejoin="round" stroke-miterlimit="1" width="54" height="54"/>
	
		<line fill="#FFFFFF" stroke="#005695" stroke-linecap="round" stroke-linejoin="round" stroke-miterlimit="1" stroke-dasharray="3" x1="136.227" y1="14.21" x2="136.227" y2="397.789"/>
	
		<line fill="#FFFFFF" stroke="#005695" stroke-linecap="round" stroke-linejoin="round" stroke-miterlimit="1" stroke-dasharray="3" x1="41.353" y1="397.789" x2="41.353" y2="14.21"/>
	
		<rect x="41.353" y="36.845" fill="#FFFFFF" stroke="#000000" stroke-width="0.5" stroke-linecap="round" stroke-linejoin="round" stroke-miterlimit="1" width="94.874" height="25.074"/>
	
		<rect x="41.353" y="61.958" fill="#999999" stroke="#000000" stroke-width="0.5" stroke-linecap="round" stroke-linejoin="round" stroke-miterlimit="1" width="94.874" height="151.505"/>
	<rect x="53.694" y="45.644" fill="none" width="70.191" height="7.476"/>
	<text transform="matrix(0.9288 0 0 1 85.7285 51.292)" font-size="7.9062">...</text>
	
		<rect x="41.353" y="339.318" fill="#FFFFFF" stroke="#000000" stroke-width="0.5" stroke-linecap="round" stroke-linejoin="round" stroke-miterlimit="1" width="94.874" height="25.072"/>
	<rect x="53.694" y="348.111" fill="none" width="70.191" height="7.477"/>
	<text transform="matrix(0.9288 0 0 1 85.7285 353.7573)" font-size="7.9062">...</text>
	
		<rect x="41.353" y="213.505" fill="#CCCCCC" stroke="#000000" stroke-width="0.5" stroke-linecap="round" stroke-linejoin="round" stroke-miterlimit="1" width="94.874" height="125.164"/>
	<g>
		<g>
			<g>
				
					<line fill="none" stroke="#005695" stroke-linecap="round" stroke-miterlimit="1" x1="208.733" y1="214.896" x2="208.733" y2="331.62"/>
				<g>
					<polygon fill="#005695" points="206.99,330.43 208.733,336.935 210.476,330.43 					"/>
				</g>
			</g>
		</g>
	</g>
	<g>
		<g>
			
				<line fill="none" stroke="#005695" stroke-linecap="round" stroke-miterlimit="1" x1="136.085" y1="214.896" x2="269.402" y2="214.896"/>
			<g>
				<polygon fill="#005695" points="268.212,216.639 274.717,214.896 268.212,213.153 				"/>
			</g>
		</g>
	</g>
	<g>
		<g>
			
				<line fill="none" stroke="#005695" stroke-linecap="round" stroke-miterlimit="1" x1="136.085" y1="339.5" x2="269.402" y2="339.5"/>
			<g>
				<polygon fill="#005695" points="268.212,341.243 274.717,339.5 268.212,337.756 				"/>
			</g>
		</g>
	</g>
	<g>
		<text transform="matrix(0.9288 0 0 1 283.8276 211.0581)" font-size="9.6631">R</text>
	</g>
	<g>
		<text transform="matrix(0.9288 0 0 1 309.4917 211.0581)" font-size="9.6631">G</text>
	</g>
	<g>
		<text transform="matrix(0.9288 0 0 1 335.9038 211.0581)" font-size="9.6631">B</text>
	</g>
	
		<rect x="41.353" y="28.37" fill="none" stroke="#808285" stroke-width="0.5" stroke-linecap="round" stroke-linejoin="round" stroke-miterlimit="1" width="94.874" height="361.63"/>
	
		<line fill="none" stroke="#808285" stroke-width="0.5" stroke-linecap="round" stroke-linejoin="round" stroke-miterlimit="1" x1="41.353" y1="381.525" x2="136.227" y2="381.525"/>
	
		<line fill="none" stroke="#808285" stroke-width="0.5" stroke-linecap="round" stroke-linejoin="round" stroke-miterlimit="1" x1="41.353" y1="373.224" x2="136.227" y2="373.224"/>
	
		<line fill="none" stroke="#808285" stroke-width="0.5" stroke-linecap="round" stroke-linejoin="round" stroke-miterlimit="1" x1="41.353" y1="364.748" x2="136.227" y2="364.748"/>
	
		<line fill="none" stroke="#808285" stroke-width="0.5" stroke-linecap="round" stroke-linejoin="round" stroke-miterlimit="1" x1="41.353" y1="356.271" x2="136.227" y2="356.271"/>
	
		<line fill="none" stroke="#808285" stroke-width="0.5" stroke-linecap="round" stroke-linejoin="round" stroke-miterlimit="1" x1="41.353" y1="347.974" x2="136.227" y2="347.974"/>
	
		<line fill="none" stroke="#808285" stroke-width="0.5" stroke-linecap="round" stroke-linejoin="round" stroke-miterlimit="1" x1="41.353" y1="339.5" x2="136.227" y2="339.5"/>
	
		<line fill="none" stroke="#808285" stroke-width="0.5" stroke-linecap="round" stroke-linejoin="round" stroke-miterlimit="1" x1="41.353" y1="331.199" x2="136.227" y2="331.199"/>
	
		<line fill="none" stroke="#808285" stroke-width="0.5" stroke-linecap="round" stroke-linejoin="round" stroke-miterlimit="1" x1="41.353" y1="322.72" x2="136.227" y2="322.72"/>
	
		<line fill="none" stroke="#808285" stroke-width="0.5" stroke-linecap="round" stroke-linejoin="round" stroke-miterlimit="1" x1="41.353" y1="314.248" x2="136.227" y2="314.248"/>
	
		<line fill="none" stroke="#808285" stroke-width="0.5" stroke-linecap="round" stroke-linejoin="round" stroke-miterlimit="1" x1="41.353" y1="305.951" x2="136.227" y2="305.951"/>
	
		<line fill="none" stroke="#808285" stroke-width="0.5" stroke-linecap="round" stroke-linejoin="round" stroke-miterlimit="1" x1="41.353" y1="297.476" x2="136.227" y2="297.476"/>
	
		<line fill="none" stroke="#808285" stroke-width="0.5" stroke-linecap="round" stroke-linejoin="round" stroke-miterlimit="1" x1="41.353" y1="289" x2="136.227" y2="289"/>
	
		<line fill="none" stroke="#808285" stroke-width="0.5" stroke-linecap="round" stroke-linejoin="round" stroke-miterlimit="1" x1="41.353" y1="280.701" x2="136.227" y2="280.701"/>
	
		<line fill="none" stroke="#808285" stroke-width="0.5" stroke-linecap="round" stroke-linejoin="round" stroke-miterlimit="1" x1="41.353" y1="272.226" x2="136.227" y2="272.226"/>
	
		<line fill="none" stroke="#808285" stroke-width="0.5" stroke-linecap="round" stroke-linejoin="round" stroke-miterlimit="1" x1="41.353" y1="263.925" x2="136.227" y2="263.925"/>
	
		<line fill="none" stroke="#808285" stroke-width="0.5" stroke-linecap="round" stroke-linejoin="round" stroke-miterlimit="1" x1="41.353" y1="255.451" x2="136.227" y2="255.451"/>
	
		<line fill="none" stroke="#808285" stroke-width="0.5" stroke-linecap="round" stroke-linejoin="round" stroke-miterlimit="1" x1="41.353" y1="246.974" x2="136.227" y2="246.974"/>
	
		<line fill="none" stroke="#808285" stroke-width="0.5" stroke-linecap="round" stroke-linejoin="round" stroke-miterlimit="1" x1="41.353" y1="238.675" x2="136.227" y2="238.675"/>
	
		<line fill="none" stroke="#808285" stroke-width="0.5" stroke-linecap="round" stroke-linejoin="round" stroke-miterlimit="1" x1="41.353" y1="230.199" x2="136.227" y2="230.199"/>
	
		<line fill="none" stroke="#808285" stroke-width="0.5" stroke-linecap="round" stroke-linejoin="round" stroke-miterlimit="1" x1="41.353" y1="221.724" x2="136.227" y2="221.724"/>
	
		<line fill="none" stroke="#808285" stroke-width="0.5" stroke-linecap="round" stroke-linejoin="round" stroke-miterlimit="1" x1="41.353" y1="213.423" x2="136.227" y2="213.423"/>
	
		<line fill="none" stroke="#808285" stroke-width="0.5" stroke-linecap="round" stroke-linejoin="round" stroke-miterlimit="1" x1="41.353" y1="204.949" x2="136.227" y2="204.949"/>
	
		<line fill="none" stroke="#808285" stroke-width="0.5" stroke-linecap="round" stroke-linejoin="round" stroke-miterlimit="1" x1="41.353" y1="196.65" x2="136.227" y2="196.65"/>
	
		<line fill="none" stroke="#808285" stroke-width="0.5" stroke-linecap="round" stroke-linejoin="round" stroke-miterlimit="1" x1="41.353" y1="188.173" x2="136.227" y2="188.173"/>
	
		<line fill="none" stroke="#808285" stroke-width="0.5" stroke-linecap="round" stroke-linejoin="round" stroke-miterlimit="1" x1="41.353" y1="179.698" x2="136.227" y2="179.698"/>
	
		<line fill="none" stroke="#808285" stroke-width="0.5" stroke-linecap="round" stroke-linejoin="round" stroke-miterlimit="1" x1="41.353" y1="171.399" x2="136.227" y2="171.399"/>
	
		<line fill="none" stroke="#808285" stroke-width="0.5" stroke-linecap="round" stroke-linejoin="round" stroke-miterlimit="1" x1="41.353" y1="162.922" x2="136.227" y2="162.922"/>
	
		<line fill="none" stroke="#808285" stroke-width="0.5" stroke-linecap="round" stroke-linejoin="round" stroke-miterlimit="1" x1="41.353" y1="154.447" x2="136.227" y2="154.447"/>
	
		<line fill="none" stroke="#808285" stroke-width="0.5" stroke-linecap="round" stroke-linejoin="round" stroke-miterlimit="1" x1="41.353" y1="146.148" x2="136.227" y2="146.148"/>
	
		<line fill="none" stroke="#808285" stroke-width="0.5" stroke-linecap="round" stroke-linejoin="round" stroke-miterlimit="1" x1="41.353" y1="137.672" x2="136.227" y2="137.672"/>
	
		<line fill="none" stroke="#808285" stroke-width="0.5" stroke-linecap="round" stroke-linejoin="round" stroke-miterlimit="1" x1="41.353" y1="129.373" x2="136.227" y2="129.373"/>
	
		<line fill="none" stroke="#808285" stroke-width="0.5" stroke-linecap="round" stroke-linejoin="round" stroke-miterlimit="1" x1="41.353" y1="120.896" x2="136.227" y2="120.896"/>
	
		<line fill="none" stroke="#808285" stroke-width="0.5" stroke-linecap="round" stroke-linejoin="round" stroke-miterlimit="1" x1="41.353" y1="112.42" x2="136.227" y2="112.42"/>
	
		<line fill="none" stroke="#808285" stroke-width="0.5" stroke-linecap="round" stroke-linejoin="round" stroke-miterlimit="1" x1="41.353" y1="104.123" x2="136.227" y2="104.123"/>
	
		<line fill="none" stroke="#808285" stroke-width="0.5" stroke-linecap="round" stroke-linejoin="round" stroke-miterlimit="1" x1="41.353" y1="95.647" x2="136.227" y2="95.647"/>
	
		<line fill="none" stroke="#808285" stroke-width="0.5" stroke-linecap="round" stroke-linejoin="round" stroke-miterlimit="1" x1="41.353" y1="87.17" x2="136.227" y2="87.17"/>
	
		<line fill="none" stroke="#808285" stroke-width="0.5" stroke-linecap="round" stroke-linejoin="round" stroke-miterlimit="1" x1="41.353" y1="78.872" x2="136.227" y2="78.872"/>
	
		<line fill="none" stroke="#808285" stroke-width="0.5" stroke-linecap="round" stroke-linejoin="round" stroke-miterlimit="1" x1="41.353" y1="70.395" x2="136.227" y2="70.395"/>
	
		<line fill="none" stroke="#808285" stroke-width="0.5" stroke-linecap="round" stroke-linejoin="round" stroke-miterlimit="1" x1="41.353" y1="62.097" x2="136.227" y2="62.097"/>
	
		<line fill="none" stroke="#808285" stroke-width="0.5" stroke-linecap="round" stroke-linejoin="round" stroke-miterlimit="1" x1="41.353" y1="53.621" x2="136.227" y2="53.621"/>
	
		<line fill="none" stroke="#808285" stroke-width="0.5" stroke-linecap="round" stroke-linejoin="round" stroke-miterlimit="1" x1="41.353" y1="45.145" x2="136.227" y2="45.145"/>
	
		<line fill="none" stroke="#808285" stroke-width="0.5" stroke-linecap="round" stroke-linejoin="round" stroke-miterlimit="1" x1="41.353" y1="36.845" x2="136.227" y2="36.845"/>
	<rect x="48.781" y="114.914" fill="none" width="80.018" height="45.594"/>
	<text transform="matrix(0.9288 0 0 1 73.8872 120.5605)"><tspan x="0" y="0" font-size="7.9062">Range of</tspan><tspan x="4.397" y="9.488" font-size="7.9062">Stored</tspan><tspan x="-5.933" y="18.975" font-size="7.9062">Values to be</tspan><tspan x="-2.636" y="28.462" font-size="7.9062">mapped to</tspan><tspan x="-0.874" y="37.95" font-size="7.9062">grayscale</tspan></text>
	<rect x="48.781" y="253.292" fill="none" width="80.018" height="45.596"/>
	<text transform="matrix(0.9288 0 0 1 73.8872 258.9409)"><tspan x="0" y="0" font-size="7.9062">Range of</tspan><tspan x="4.397" y="9.487" font-size="7.9062">Stored</tspan><tspan x="-5.933" y="18.975" font-size="7.9062">Values to be</tspan><tspan x="-2.636" y="28.462" font-size="7.9062">mapped to</tspan><tspan x="7.476" y="37.949" font-size="7.9062">color</tspan></text>
	<g>
		<g>
			
				<line fill="none" stroke="#005695" stroke-linecap="round" stroke-miterlimit="1" x1="176.757" y1="221.796" x2="141.542" y2="221.796"/>
			<g>
				<polygon fill="#005695" points="142.731,220.053 136.227,221.796 142.731,223.54 				"/>
			</g>
		</g>
	</g>
	<text transform="matrix(0.9288 0 0 1 145.5703 231.0083)"><tspan x="0" y="0" font-size="7.9062">First Stored</tspan><tspan x="0" y="9.487" font-size="7.9062">Pixel Value</tspan><tspan x="0" y="18.975" font-size="7.9062">Mapped (2nd</tspan><tspan x="0" y="28.462" font-size="7.9062">value of LUT</tspan><tspan x="0" y="37.95" font-size="7.9062">Descriptor)</tspan></text>
	<text transform="matrix(0.9288 0 0 1 212.6855 278.8843)"><tspan x="0" y="0" font-size="7.9062">Palette Color</tspan><tspan x="0" y="9.487" font-size="7.9062">Number of Entries</tspan></text>
	<text transform="matrix(0.9288 0 0 1 381.1851 110.3843)"><tspan x="0" y="0" font-size="7.9062">Mapped to </tspan><tspan x="0" y="9.487" font-size="7.9062">gray level RGB values</tspan><tspan x="0" y="18.975" font-size="7.9062">by display device</tspan></text>
	<text transform="matrix(0.9288 0 0 1 420.3276 174.4541)"><tspan x="0" y="0" fill="#FFFFFF" font-size="12">Color</tspan><tspan x="-5.335" y="14.4" fill="#FFFFFF" font-size="12">Display</tspan></text>
	
		<rect x="274.759" y="214.9" fill="#86B2D8" stroke="#010101" stroke-width="0.75" stroke-linecap="round" stroke-linejoin="round" stroke-miterlimit="1" width="77.242" height="125.508"/>
	
		<line fill="#86B2D8" stroke="#010101" stroke-width="0.75" stroke-linecap="round" stroke-linejoin="round" stroke-miterlimit="1" x1="274.759" y1="332.044" x2="352.001" y2="332.044"/>
	
		<line fill="#86B2D8" stroke="#010101" stroke-width="0.75" stroke-linecap="round" stroke-linejoin="round" stroke-miterlimit="1" x1="274.759" y1="323.677" x2="352.001" y2="323.677"/>
	
		<line fill="#86B2D8" stroke="#010101" stroke-width="0.75" stroke-linecap="round" stroke-linejoin="round" stroke-miterlimit="1" x1="274.759" y1="315.312" x2="352.001" y2="315.312"/>
	
		<line fill="#86B2D8" stroke="#010101" stroke-width="0.75" stroke-linecap="round" stroke-linejoin="round" stroke-miterlimit="1" x1="274.759" y1="306.951" x2="352.001" y2="306.951"/>
	
		<line fill="#86B2D8" stroke="#010101" stroke-width="0.75" stroke-linecap="round" stroke-linejoin="round" stroke-miterlimit="1" x1="274.759" y1="298.585" x2="352.001" y2="298.585"/>
	
		<line fill="#86B2D8" stroke="#010101" stroke-width="0.75" stroke-linecap="round" stroke-linejoin="round" stroke-miterlimit="1" x1="274.759" y1="290.22" x2="352.001" y2="290.22"/>
	
		<line fill="#86B2D8" stroke="#010101" stroke-width="0.75" stroke-linecap="round" stroke-linejoin="round" stroke-miterlimit="1" x1="274.759" y1="281.855" x2="352.001" y2="281.855"/>
	
		<line fill="#86B2D8" stroke="#010101" stroke-width="0.75" stroke-linecap="round" stroke-linejoin="round" stroke-miterlimit="1" x1="274.759" y1="273.458" x2="352.001" y2="273.458"/>
	
		<line fill="#86B2D8" stroke="#010101" stroke-width="0.75" stroke-linecap="round" stroke-linejoin="round" stroke-miterlimit="1" x1="274.759" y1="265.093" x2="352.001" y2="265.093"/>
	
		<line fill="#86B2D8" stroke="#010101" stroke-width="0.75" stroke-linecap="round" stroke-linejoin="round" stroke-miterlimit="1" x1="274.759" y1="256.728" x2="352.001" y2="256.728"/>
	
		<line fill="#86B2D8" stroke="#010101" stroke-width="0.75" stroke-linecap="round" stroke-linejoin="round" stroke-miterlimit="1" x1="274.759" y1="248.363" x2="352.001" y2="248.363"/>
	
		<line fill="#86B2D8" stroke="#010101" stroke-width="0.75" stroke-linecap="round" stroke-linejoin="round" stroke-miterlimit="1" x1="274.759" y1="239.996" x2="352.001" y2="239.996"/>
	
		<line fill="#86B2D8" stroke="#010101" stroke-width="0.75" stroke-linecap="round" stroke-linejoin="round" stroke-miterlimit="1" x1="274.759" y1="231.63" x2="352.001" y2="231.63"/>
	
		<line fill="#86B2D8" stroke="#010101" stroke-width="0.75" stroke-linecap="round" stroke-linejoin="round" stroke-miterlimit="1" x1="274.759" y1="223.265" x2="352.001" y2="223.265"/>
	
		<line fill="#86B2D8" stroke="#010101" stroke-width="0.75" stroke-linecap="round" stroke-linejoin="round" stroke-miterlimit="1" x1="326.26" y1="214.9" x2="326.26" y2="340.408"/>
	
		<line fill="#86B2D8" stroke="#010101" stroke-width="0.75" stroke-linecap="round" stroke-linejoin="round" stroke-miterlimit="1" x1="300.501" y1="214.9" x2="300.501" y2="340.408"/>
	<polyline fill="none" stroke="#005695" stroke-width="2" stroke-miterlimit="1" points="140.391,208.988 150.846,208.988 
		150.846,66.395 140.391,66.395 	"/>
	<polyline fill="none" stroke="#005695" stroke-width="2" stroke-miterlimit="1" points="355.731,336.488 364.665,336.488 
		364.665,217.82 355.731,217.82 	"/>
</g>
</svg>
