<?xml version="1.0" encoding="utf-8"?>
<!-- $Source: /home/bbennett/pass/archive/DicomXml/docbook/part03/figures/PS3.3_C.13.3.1.3.svg,v $ -->
<!-- $Date: 2014/02/18 14:35:31 $ -->
<!-- $Revision: 1.1 $ -->

<!DOCTYPE svg PUBLIC "-//W3C//DTD SVG 1.1//EN" "http://www.w3.org/Graphics/SVG/1.1/DTD/svg11.dtd">

<svg version="1.1" id="Layer_1" xmlns="http://www.w3.org/2000/svg" xmlns:xlink="http://www.w3.org/1999/xlink" x="0px" y="0px"
	 width="496.043px" height="285px" viewBox="0 0 496.043 285" enable-background="new 0 0 496.043 285" xml:space="preserve">

<defs>
	<style type="text/css">
	text {
	  font-family: Helvetica, Verdana, ArialUnicodeMS, san-serif
	}
	</style>
</defs>

<g>
   <desc>
	PS 3.3-2008 Part 3: Information Object Definitions
   </desc>
   <title>
	Figure C.13.3.1.3 Column symmetric image display format  
   </title>
</g>

<rect fill="#F4EED7" width="496.043" height="285"/>
<g>
	<rect x="160.47" y="49.431" fill="#CCDFF0" stroke="#000000" stroke-miterlimit="1" width="180.002" height="216.741"/>
	<line fill="#CCDFF0" stroke="#000000" stroke-miterlimit="1" x1="250.47" y1="211.985" x2="340.472" y2="211.985"/>
	<line fill="#CCDFF0" stroke="#000000" stroke-miterlimit="1" x1="250.47" y1="157.801" x2="340.472" y2="157.801"/>
	<line fill="#CCDFF0" stroke="#000000" stroke-miterlimit="1" x1="250.47" y1="103.617" x2="340.472" y2="103.617"/>
	<line fill="#CCDFF0" stroke="#000000" stroke-miterlimit="1" x1="250.335" y1="49.431" x2="250.335" y2="266.172"/>
</g>
<line fill="none" stroke="#000000" stroke-miterlimit="1" stroke-dasharray="6,2,4,4" x1="397.022" y1="157.801" x2="99.022" y2="157.801"/>
<g>
	<g>
		<rect x="53.618" y="144.301" fill="#B2CEE7" width="72.004" height="27"/>
	</g>
	<g>
		<text transform="matrix(1.1284 0 0 1 66.0347 154.6943)"><tspan x="0" y="0" font-size="9.6429">horizontal</tspan><tspan x="-8.831" y="11.571" font-size="9.6429">symmetry line</tspan></text>
	</g>
</g>
<g>
	<rect x="141.721" y="19.884" fill="#B2CEE7" width="99" height="13.5"/>
	<g>
		<text transform="matrix(1 0 0 1 146.4785 29.418)" font-size="10">1 image in a column</text>
	</g>
</g>
<g>
	<rect x="260.22" y="14.219" fill="#B2CEE7" width="99" height="24.263"/>
	<g>
		<text transform="matrix(1 0 0 1 270.2544 23.7529)"><tspan x="0" y="0" font-size="10">4 images of equal</tspan><tspan x="3.62" y="12" font-size="10">size in a column</tspan></text>
	</g>
</g>
</svg>
