<?xml version="1.0" encoding="utf-8"?>
<!-- $Source: /home/bbennett/pass/archive/DicomXml/docbook/part03/figures/PS3.3_C.7.6.16-7a.svg,v $ -->
<!-- $Date: 2014/05/09 12:27:11 $ -->
<!-- $Revision: 1.2 $ -->

<!DOCTYPE svg PUBLIC "-//W3C//DTD SVG 1.1//EN" "http://www.w3.org/Graphics/SVG/1.1/DTD/svg11.dtd">
<svg version="1.1" id="Layer_1" xmlns="http://www.w3.org/2000/svg" xmlns:xlink="http://www.w3.org/1999/xlink" x="0px" y="0px"
	 width="502px" height="242px" viewBox="0 0 502 242" enable-background="new 0 0 502 242" xml:space="preserve">

<defs>
	<style type="text/css">
	text {
	  font-family: Helvetica, Verdana, ArialUnicodeMS, san-serif
	}
	</style>
</defs>

<g>
   <desc>
	PS 3.3 Part 3: Information Object Definitions
   </desc>
</g>

<g>
	<rect x="1" y="1" fill="#F5EED6" width="500" height="240"/>
	<g>
		
			<rect x="38.915" y="80.458" fill="#86B2D8" stroke="#010101" stroke-width="0.75" stroke-linecap="round" stroke-linejoin="round" stroke-miterlimit="1" width="54" height="36"/>
		<g>
			<text transform="matrix(1 0 0 1 49.7085 94.9141)"><tspan x="0" y="0" font-size="11">Stored</tspan><tspan x="-0.612" y="10.533" font-size="11">Values</tspan></text>
		</g>
		<g>
			<g>
				<polyline fill="none" stroke="#005695" stroke-width="2" stroke-linecap="round" stroke-miterlimit="1" points="93.776,98.321 
					102.96,98.321 102.96,46.987 111.536,46.987 				"/>
				<g>
					<polygon fill="#005695" points="109.95,49.312 118.623,46.987 109.95,44.663 					"/>
				</g>
			</g>
		</g>
		<g>
			<g>
				<polyline fill="none" stroke="#005695" stroke-width="2" stroke-linecap="round" stroke-miterlimit="1" points="93.776,98.267 
					102.961,98.267 102.961,133.529 141.064,133.529 				"/>
				<g>
					<polygon fill="#005695" points="139.479,135.854 148.151,133.529 139.479,131.205 					"/>
				</g>
			</g>
		</g>
		<g>
			<g>
				
					<line fill="none" stroke="#005695" stroke-width="2" stroke-miterlimit="1" x1="173.144" y1="46.527" x2="189.136" y2="46.527"/>
				<g>
					<polygon fill="#005695" points="187.551,48.852 196.224,46.527 187.551,44.203 					"/>
				</g>
			</g>
		</g>
		<g>
			<g>
				<line fill="none" stroke="#005695" stroke-width="2" stroke-miterlimit="1" x1="250.96" y1="46.527" x2="263.494" y2="46.527"/>
				<g>
					<polygon fill="#005695" points="261.909,48.852 270.582,46.527 261.909,44.203 					"/>
				</g>
			</g>
		</g>
		
			<rect x="391.086" y="15.068" fill="#4F8ABE" stroke="#010101" stroke-width="0.75" stroke-linecap="round" stroke-linejoin="round" stroke-miterlimit="1" width="72" height="63"/>
		<g>
			<text transform="matrix(1 0 0 1 403.8555 49.623)" font-size="11">DISPLAY</text>
		</g>
		<g>
			<g>
				
					<line fill="none" stroke="#005695" stroke-width="2" stroke-miterlimit="1" x1="249.022" y1="133.141" x2="274.261" y2="133.141"/>
				<g>
					<polygon fill="#005695" points="272.676,135.465 281.349,133.141 272.676,130.816 					"/>
				</g>
			</g>
		</g>
		<g>
			<g>
				
					<line fill="none" stroke="#005695" stroke-width="2" stroke-miterlimit="1" x1="412.05" y1="133.141" x2="437.349" y2="133.141"/>
				<g>
					<polygon fill="#005695" points="435.764,135.465 444.437,133.141 435.764,130.816 					"/>
				</g>
			</g>
		</g>
		<g>
			<g>
				
					<line fill="none" stroke="#005695" stroke-width="2" stroke-miterlimit="1" x1="324.596" y1="46.527" x2="383.998" y2="46.527"/>
				<g>
					<polygon fill="#005695" points="382.413,48.852 391.086,46.527 382.413,44.203 					"/>
				</g>
			</g>
		</g>
		
			<rect x="279.912" y="110.647" fill="#B2CEE7" stroke="#010101" stroke-width="0.75" stroke-linecap="round" stroke-linejoin="round" stroke-miterlimit="1" width="135" height="44.999"/>
		<g>
			<text transform="matrix(1 0 0 1 297.5703 124.3418)"><tspan x="0" y="0" font-size="11">Application requiring</tspan><tspan x="-9.775" y="10.533" font-size="11">transformed pixel values</tspan><tspan x="15.293" y="21.066" font-size="11">for processing</tspan></text>
		</g>
		
			<rect x="118.551" y="28.534" fill="#86B2D8" stroke="#010101" stroke-width="0.75" stroke-linecap="round" stroke-linejoin="round" stroke-miterlimit="1" width="54" height="36"/>
		<g>
			<text transform="matrix(1 0 0 1 125.0708 42.9902)"><tspan x="0" y="0" font-size="11">Modality</tspan><tspan x="10.089" y="10.533" font-size="11">LUT</tspan></text>
		</g>
		<g>
			<text transform="matrix(1 0 0 1 108.1162 178.4336)" font-size="11">1 ... n</text>
		</g>
		
			<rect x="196.596" y="28.534" fill="#86B2D8" stroke="#010101" stroke-width="0.75" stroke-linecap="round" stroke-linejoin="round" stroke-miterlimit="1" width="54" height="36"/>
		<g>
			<text transform="matrix(1 0 0 1 214.1162 42.9902)"><tspan x="0" y="0" font-size="11">VOI</tspan><tspan x="-0.916" y="10.533" font-size="11">LUT</tspan></text>
		</g>
		
			<rect x="270.596" y="28.534" fill="#86B2D8" stroke="#010101" stroke-width="0.75" stroke-linecap="round" stroke-linejoin="round" stroke-miterlimit="1" width="54" height="36"/>
		<g>
			<text transform="matrix(1 0 0 1 293.9219 42.9902)"><tspan x="0" y="0" font-size="11">P</tspan><tspan x="-6.722" y="10.533" font-size="11">LUT</tspan></text>
		</g>
		
			<rect x="149.343" y="113.397" fill="#86B2D8" stroke="#010101" stroke-width="0.75" stroke-linecap="round" stroke-linejoin="round" stroke-miterlimit="1" width="99" height="39.498"/>
		<g>
			<text transform="matrix(1 0 0 1 164.9023 127.9414)"><tspan x="0" y="0" font-size="11">Pixel Intensity</tspan><tspan x="-8.256" y="13.2" font-size="11">Relationship LUT</tspan></text>
		</g>
		<g>
			<g>
				<polyline fill="none" stroke="#005695" stroke-width="2" stroke-linecap="round" stroke-miterlimit="1" points="102.96,190.57 
					102.96,204.814 141.064,204.814 				"/>
				<g>
					<polygon fill="#005695" points="139.479,207.139 148.151,204.814 139.479,202.49 					"/>
				</g>
			</g>
		</g>
		
			<line fill="none" stroke="#005695" stroke-width="2" stroke-linecap="round" stroke-miterlimit="1" stroke-dasharray="2,4" x1="102.96" y1="154.57" x2="102.96" y2="190.57"/>
		
			<line fill="none" stroke="#005695" stroke-width="2" stroke-linecap="round" stroke-miterlimit="1" x1="102.96" y1="132.101" x2="102.96" y2="154.57"/>
		<g>
			<g>
				
					<line fill="none" stroke="#005695" stroke-width="2" stroke-miterlimit="1" x1="249.022" y1="204.426" x2="274.261" y2="204.426"/>
				<g>
					<polygon fill="#005695" points="272.676,206.75 281.349,204.426 272.676,202.102 					"/>
				</g>
			</g>
		</g>
		<g>
			<g>
				
					<line fill="none" stroke="#005695" stroke-width="2" stroke-miterlimit="1" x1="412.05" y1="204.426" x2="437.349" y2="204.426"/>
				<g>
					<polygon fill="#005695" points="435.764,206.75 444.437,204.426 435.764,202.102 					"/>
				</g>
			</g>
		</g>
		
			<rect x="279.912" y="181.932" fill="#B2CEE7" stroke="#010101" stroke-width="0.75" stroke-linecap="round" stroke-linejoin="round" stroke-miterlimit="1" width="135" height="45"/>
		<g>
			<text transform="matrix(1 0 0 1 297.5703 195.6221)"><tspan x="0" y="0" font-size="11">Application requiring</tspan><tspan x="-9.775" y="10.533" font-size="11">transformed pixel values</tspan><tspan x="15.293" y="21.067" font-size="11">for processing</tspan></text>
		</g>
		
			<rect x="149.343" y="184.683" fill="#86B2D8" stroke="#010101" stroke-width="0.75" stroke-linecap="round" stroke-linejoin="round" stroke-miterlimit="1" width="99" height="39.498"/>
		<g>
			<text transform="matrix(1 0 0 1 164.9023 199.2217)"><tspan x="0" y="0" font-size="11">Pixel Intensity</tspan><tspan x="-8.256" y="13.2" font-size="11">Relationship LUT</tspan></text>
		</g>
	</g>
</g>
</svg>
