<?xml version="1.0" encoding="utf-8"?>
<!-- $Source: /home/bbennett/pass/archive/DicomXml/docbook/part03/figures/PS3.3_C.11.19-2.svg,v $ -->
<!-- $Date: 2014/05/09 13:15:43 $ -->
<!-- $Revision: 1.1 $ -->

<!DOCTYPE svg PUBLIC "-//W3C//DTD SVG 1.1//EN" "http://www.w3.org/Graphics/SVG/1.1/DTD/svg11.dtd">
<svg version="1.1" id="Layer_1" xmlns="http://www.w3.org/2000/svg" xmlns:xlink="http://www.w3.org/1999/xlink" x="0px" y="0px"
	 width="502px" height="327px" viewBox="0 0 502 327" enable-background="new 0 0 502 327" xml:space="preserve">

<defs>
	<style type="text/css">
	text {
	  font-family: Helvetica, Verdana, ArialUnicodeMS, san-serif
	}
	</style>
</defs>

<g>
   <desc>
	PS 3.3 Part 3: Information Object Definitions
   </desc>
</g>

<g>
	<rect x="1" y="1" fill="#F5EED6" width="500" height="325"/>
	<g>
		
			<rect x="59.529" y="15.713" fill="#CCDEF0" stroke="#010101" stroke-width="0.75" stroke-linecap="round" stroke-linejoin="round" stroke-miterlimit="1" width="263.332" height="295.574"/>
		<rect x="60.693" y="18.277" fill="none" width="175.978" height="7.715"/>
		<text transform="matrix(0.9288 0 0 1 60.6929 24.1167)" font-size="8.1589">Mark Subtraction Sequence</text>
		
			<rect x="75.454" y="28.186" fill="#86B2D8" stroke="#010101" stroke-width="0.75" stroke-linecap="round" stroke-linejoin="round" stroke-miterlimit="1" width="247.407" height="283.102"/>
		
			<rect x="90.662" y="41.931" fill="#B2CEE7" stroke="#010101" stroke-width="0.75" stroke-linecap="round" stroke-linejoin="round" stroke-miterlimit="1" width="232.199" height="55.327"/>
		<rect x="79.387" y="31.46" fill="none" width="156.672" height="7.715"/>
		<text transform="matrix(0.9288 0 0 1 79.3867 37.3003)" font-size="8.1589">Item 1</text>
		
			<rect x="105.772" y="55.496" fill="#86B2D8" stroke="#010101" stroke-width="0.75" stroke-linecap="round" stroke-linejoin="round" stroke-miterlimit="1" width="217.089" height="41.762"/>
		
			<rect x="120.982" y="69.159" fill="#FFFFFF" stroke="#010101" stroke-width="0.75" stroke-linecap="round" stroke-linejoin="round" stroke-miterlimit="1" width="201.879" height="28.099"/>
		
			<line fill="#FFFFFF" stroke="#010101" stroke-width="0.75" stroke-linecap="round" stroke-linejoin="round" stroke-miterlimit="1" x1="120.982" y1="83.11" x2="322.861" y2="83.11"/>
		<rect x="128.359" y="73.496" fill="none" width="108.615" height="7.714"/>
		<text transform="matrix(0.9288 0 0 1 128.3594 79.3359)" font-size="8.1589">Referenced SOP Class UID</text>
		<rect x="128.359" y="87.004" fill="none" width="108.156" height="7.715"/>
		<text transform="matrix(0.9288 0 0 1 128.3589 92.8438)" font-size="8.1589">Referenced SOP Instance UID</text>
		<rect x="94.802" y="45.354" fill="none" width="142.655" height="7.715"/>
		<text transform="matrix(0.9288 0 0 1 94.8018 51.1943)" font-size="8.1589">Referenced Image Sequence</text>
		<rect x="110.042" y="59.412" fill="none" width="127.167" height="7.715"/>
		<text transform="matrix(0.9288 0 0 1 110.0425 65.252)" font-size="8.1589">Item 1</text>
		
			<rect x="90.662" y="97.258" fill="#B2CEE7" stroke="#010101" stroke-width="0.75" stroke-linecap="round" stroke-linejoin="round" stroke-miterlimit="1" width="232.199" height="13.565"/>
		<rect x="94.802" y="100.682" fill="none" width="142.322" height="7.715"/>
		<text transform="matrix(0.9288 0 0 1 94.8018 106.5215)" font-size="8.1589">Mask Operation</text>
		
			<rect x="90.662" y="108.397" fill="#B2CEE7" stroke="#010101" stroke-width="0.75" stroke-linecap="round" stroke-linejoin="round" stroke-miterlimit="1" width="232.199" height="13.565"/>
		<rect x="94.802" y="111.821" fill="none" width="141.863" height="7.715"/>
		<text transform="matrix(0.9288 0 0 1 94.8018 117.6606)" font-size="8.1589">Applicable Frame range</text>
		
			<rect x="90.662" y="119.536" fill="#B2CEE7" stroke="#010101" stroke-width="0.75" stroke-linecap="round" stroke-linejoin="round" stroke-miterlimit="1" width="232.199" height="13.565"/>
		<rect x="94.802" y="122.96" fill="none" width="141.53" height="7.715"/>
		<text transform="matrix(0.9288 0 0 1 94.8018 128.7998)" font-size="8.1589">Mask Frame numbers</text>
		
			<rect x="90.662" y="130.675" fill="#B2CEE7" stroke="#010101" stroke-width="0.75" stroke-linecap="round" stroke-linejoin="round" stroke-miterlimit="1" width="232.199" height="180.612"/>
		<rect x="94.802" y="134.099" fill="none" width="141.988" height="7.715"/>
		<text transform="matrix(0.9288 0 0 1 94.8018 139.939)" font-size="8.1589">Pixel Shift Sequence</text>
		
			<rect x="105.772" y="144.241" fill="#86B2D8" stroke="#010101" stroke-width="0.75" stroke-linecap="round" stroke-linejoin="round" stroke-miterlimit="1" width="217.089" height="167.046"/>
		
			<rect x="120.982" y="157.904" fill="#FFFFFF" stroke="#010101" stroke-width="0.75" stroke-linecap="round" stroke-linejoin="round" stroke-miterlimit="1" width="201.879" height="153.383"/>
		
			<line fill="#FFFFFF" stroke="#010101" stroke-width="0.75" stroke-linecap="round" stroke-linejoin="round" stroke-miterlimit="1" x1="120.982" y1="171.855" x2="322.861" y2="171.855"/>
		<rect x="128.359" y="162.241" fill="none" width="108.83" height="7.714"/>
		<text transform="matrix(0.9288 0 0 1 128.3594 168.0801)" font-size="8.1589">Pixel Shift Frame range</text>
		<rect x="128.359" y="175.748" fill="none" width="108.83" height="7.715"/>
		<text transform="matrix(0.9288 0 0 1 128.3589 181.5879)" font-size="8.1589">Region Pixel Shift Sequence</text>
		
			<rect x="136.192" y="186.002" fill="#86B2D8" stroke="#010101" stroke-width="0.75" stroke-linecap="round" stroke-linejoin="round" stroke-miterlimit="1" width="186.669" height="41.762"/>
		
			<rect x="148.896" y="199.666" fill="#FFFFFF" stroke="#010101" stroke-width="0.75" stroke-linecap="round" stroke-linejoin="round" stroke-miterlimit="1" width="173.965" height="28.098"/>
		
			<line fill="#FFFFFF" stroke="#010101" stroke-width="0.75" stroke-linecap="round" stroke-linejoin="round" stroke-miterlimit="1" x1="148.896" y1="213.617" x2="322.861" y2="213.617"/>
		<g>
			<rect x="158.614" y="204.002" fill="none" width="78.954" height="7.715"/>
			<text transform="matrix(0.9288 0 0 1 158.6138 209.8418)" font-size="8.1589">Mask Sub-pixel Shift</text>
		</g>
		<g>
			<rect x="158.613" y="217.51" fill="none" width="78.954" height="7.715"/>
			<text transform="matrix(0.9288 0 0 1 158.6133 223.3496)" font-size="8.1589">Vertices of the Region</text>
		</g>
		<rect x="110.042" y="148.157" fill="none" width="127.729" height="7.715"/>
		<text transform="matrix(0.9288 0 0 1 110.0425 153.9966)" font-size="8.1589">Item 1</text>
		<rect x="140.042" y="188.824" fill="none" width="96.499" height="7.715"/>
		<text transform="matrix(0.9288 0 0 1 140.0425 194.6641)" font-size="8.1589">Item 1</text>
		
			<rect x="136.192" y="227.764" fill="#86B2D8" stroke="#010101" stroke-width="0.75" stroke-linecap="round" stroke-linejoin="round" stroke-miterlimit="1" width="186.669" height="41.762"/>
		
			<rect x="148.896" y="241.428" fill="#FFFFFF" stroke="#010101" stroke-width="0.75" stroke-linecap="round" stroke-linejoin="round" stroke-miterlimit="1" width="173.965" height="28.098"/>
		
			<line fill="#FFFFFF" stroke="#010101" stroke-width="0.75" stroke-linecap="round" stroke-linejoin="round" stroke-miterlimit="1" x1="148.896" y1="255.379" x2="322.861" y2="255.379"/>
		<g>
			<rect x="158.614" y="245.764" fill="none" width="78.954" height="7.715"/>
			<text transform="matrix(0.9288 0 0 1 158.6138 251.6035)" font-size="8.1589">Mask Sub-pixel Shift</text>
		</g>
		<g>
			<rect x="158.613" y="259.271" fill="none" width="78.954" height="7.715"/>
			<text transform="matrix(0.9288 0 0 1 158.6133 265.1113)" font-size="8.1589">Vertices of the Region</text>
		</g>
		<rect x="140.042" y="230.586" fill="none" width="96.833" height="7.715"/>
		<text transform="matrix(0.9288 0 0 1 140.0425 236.4258)" font-size="8.1589">Item 2</text>
		
			<rect x="136.192" y="269.525" fill="#86B2D8" stroke="#010101" stroke-width="0.75" stroke-linecap="round" stroke-linejoin="round" stroke-miterlimit="1" width="186.669" height="41.762"/>
		
			<rect x="148.896" y="283.189" fill="#FFFFFF" stroke="#010101" stroke-width="0.75" stroke-linecap="round" stroke-linejoin="round" stroke-miterlimit="1" width="173.965" height="28.098"/>
		
			<line fill="#FFFFFF" stroke="#010101" stroke-width="0.75" stroke-linecap="round" stroke-linejoin="round" stroke-miterlimit="1" x1="148.896" y1="297.141" x2="322.861" y2="297.141"/>
		<g>
			<rect x="158.614" y="287.525" fill="none" width="78.954" height="7.715"/>
			<text transform="matrix(0.9288 0 0 1 158.6138 293.3652)" font-size="8.1589">Mask Sub-pixel Shift</text>
		</g>
		<g>
			<rect x="158.613" y="301.033" fill="none" width="78.954" height="7.715"/>
			<text transform="matrix(0.9288 0 0 1 158.6133 306.873)" font-size="8.1589">Vertices of the Region</text>
		</g>
		<rect x="140.042" y="272.348" fill="none" width="97.167" height="7.715"/>
		<text transform="matrix(0.9288 0 0 1 140.0425 278.1875)" font-size="8.1589">Item 3</text>
		<rect x="267.16" y="18.264" fill="none" width="44.534" height="7.715"/>
		<text transform="matrix(0.9288 0 0 1 267.1602 24.104)" font-size="8.1589">(0028,6100)</text>
		<rect x="267.16" y="73.483" fill="none" width="45.037" height="7.714"/>
		<text transform="matrix(0.9288 0 0 1 267.1602 79.3232)" font-size="8.1589">(0008,1150)</text>
		<rect x="267.16" y="86.991" fill="none" width="45.053" height="7.715"/>
		<text transform="matrix(0.9288 0 0 1 267.1602 92.8311)" font-size="8.1589">(0008,1155)</text>
		<rect x="267.16" y="45.342" fill="none" width="44.386" height="7.715"/>
		<text transform="matrix(0.9288 0 0 1 267.1602 51.1816)" font-size="8.1589">(0008,1140)</text>
		<rect x="267.16" y="100.669" fill="none" width="44.88" height="7.715"/>
		<text transform="matrix(0.9288 0 0 1 267.1602 106.5088)" font-size="8.1589">(0028,6101)</text>
		<rect x="267.16" y="111.808" fill="none" width="44.866" height="7.715"/>
		<text transform="matrix(0.9288 0 0 1 267.1602 117.6479)" font-size="8.1589">(0028,6102)</text>
		<rect x="267.16" y="122.947" fill="none" width="44.985" height="7.715"/>
		<text transform="matrix(0.9288 0 0 1 267.1602 128.7871)" font-size="8.1589">(0028,6110)</text>
		<rect x="267.16" y="134.086" fill="none" width="44.985" height="7.715"/>
		<text transform="matrix(0.9288 0 0 1 267.1602 139.9263)" font-size="8.1589">(0028,9510)</text>
		<rect x="267.16" y="162.228" fill="none" width="44.984" height="7.714"/>
		<text transform="matrix(0.9288 0 0 1 267.1602 168.0684)" font-size="8.1589">(0029,9506)</text>
		<rect x="267.16" y="175.736" fill="none" width="44.582" height="7.715"/>
		<text transform="matrix(0.9288 0 0 1 267.1602 181.5762)" font-size="8.1589">(0029,9506)</text>
		<g>
			<rect x="267.16" y="203.99" fill="none" width="44.641" height="7.714"/>
			<text transform="matrix(0.9288 0 0 1 267.1602 209.8301)" font-size="8.1589">(0028,6114)</text>
		</g>
		<g>
			<rect x="267.16" y="217.498" fill="none" width="44.825" height="7.715"/>
			<text transform="matrix(0.9288 0 0 1 267.1602 223.3379)" font-size="8.1589">(0028,9503)</text>
		</g>
		<g>
			<rect x="267.16" y="245.752" fill="none" width="44.664" height="7.714"/>
			<text transform="matrix(0.9288 0 0 1 267.1602 251.5918)" font-size="8.1589">(0028,6114)</text>
		</g>
		<g>
			<rect x="267.16" y="259.26" fill="none" width="44.676" height="7.715"/>
			<text transform="matrix(0.9288 0 0 1 267.1602 265.0996)" font-size="8.1589">(0028,9503)</text>
		</g>
		<g>
			<rect x="267.16" y="287.514" fill="none" width="44.914" height="7.714"/>
			<text transform="matrix(0.9288 0 0 1 267.1602 293.3535)" font-size="8.1589">(0028,6114)</text>
		</g>
		<g>
			<rect x="267.16" y="301.021" fill="none" width="44.664" height="7.715"/>
			<text transform="matrix(0.9288 0 0 1 267.1602 306.8613)" font-size="8.1589">(0028,9503)</text>
		</g>
		<rect x="329.827" y="73.483" fill="none" width="112.038" height="7.714"/>
		<text transform="matrix(0.9288 0 0 1 329.8271 79.3232)" font-size="8.1589">= 1.2.840.10008.5.1.4.1.1.12.1.1</text>
		<rect x="329.827" y="86.991" fill="none" width="45.053" height="7.715"/>
		<text transform="matrix(0.9288 0 0 1 329.8271 92.8311)" font-size="8.1589">= UID “A”</text>
		<rect x="329.827" y="100.669" fill="none" width="44.88" height="7.715"/>
		<text transform="matrix(0.9288 0 0 1 329.8271 106.5088)" font-size="8.1589">= AVG_SUB</text>
		<rect x="329.827" y="111.808" fill="none" width="44.866" height="7.715"/>
		<text transform="matrix(0.9288 0 0 1 329.8271 117.6479)" font-size="8.1589">= 4\10</text>
		<rect x="329.827" y="122.947" fill="none" width="44.985" height="7.715"/>
		<text transform="matrix(0.9288 0 0 1 329.8271 128.7871)" font-size="8.1589">= 1</text>
		<rect x="329.827" y="162.228" fill="none" width="44.984" height="7.714"/>
		<text transform="matrix(0.9288 0 0 1 329.8271 168.0684)" font-size="8.1589">= 4\7</text>
		<g>
			<rect x="329.827" y="203.99" fill="none" width="44.641" height="7.714"/>
			<text transform="matrix(0.9288 0 0 1 329.8271 209.8301)" font-size="8.1589">= 1.2\3.4</text>
		</g>
		<g>
			<rect x="329.827" y="217.498" fill="none" width="112.371" height="7.715"/>
			<text transform="matrix(0.9288 0 0 1 329.8271 223.3379)" font-size="8.1589">=1\1\1\60\30\60\30\1</text>
		</g>
		<g>
			<rect x="329.827" y="245.752" fill="none" width="44.664" height="7.714"/>
			<text transform="matrix(0.9288 0 0 1 329.8271 251.5918)" font-size="8.1589">= -0.8\7.0</text>
		</g>
		<g>
			<rect x="329.827" y="259.26" fill="none" width="112.371" height="7.715"/>
			<text transform="matrix(0.9288 0 0 1 329.8271 265.0996)" font-size="8.1589">= 10\40\10\120\50\120\50\40</text>
		</g>
		<g>
			<rect x="329.827" y="287.514" fill="none" width="44.914" height="7.714"/>
			<text transform="matrix(0.9288 0 0 1 329.8271 293.3535)" font-size="8.1589">= 0.0\-1.1</text>
		</g>
		<g>
			<rect x="329.827" y="301.021" fill="none" width="112.644" height="7.715"/>
			<text transform="matrix(0.9288 0 0 1 329.8271 306.8613)" font-size="8.1589">= 20\20\20\80\70\80\70\20</text>
		</g>
	</g>
</g>
</svg>
