<?xml version="1.0" encoding="utf-8"?>
<!-- $Source: /home/bbennett/pass/archive/DicomXml/docbook/part03/figures/PS3.3_C.8.11.7-3c.svg,v $ -->
<!-- $Date: 2014/05/09 12:30:19 $ -->
<!-- $Revision: 1.2 $ -->

<!DOCTYPE svg PUBLIC "-//W3C//DTD SVG 1.1//EN" "http://www.w3.org/Graphics/SVG/1.1/DTD/svg11.dtd">
<svg version="1.1" id="Layer_1" xmlns="http://www.w3.org/2000/svg" xmlns:xlink="http://www.w3.org/1999/xlink" x="0px" y="0px"
	 width="502px" height="187px" viewBox="0 0 502 187" enable-background="new 0 0 502 187" xml:space="preserve">

<defs>
	<style type="text/css">
	text {
	  font-family: Helvetica, Verdana, ArialUnicodeMS, san-serif
	}
	</style>
</defs>

<g>
   <desc>
	PS 3.3 Part 3: Information Object Definitions
   </desc>
</g>

<g>
	<rect x="1" y="1" fill="#F5EED6" width="500" height="185"/>
	<g>
		<g>
			<text transform="matrix(0.963 0 0 1 204.9702 25.5195)" font-size="10">axilla</text>
		</g>
		<g>
			<text transform="matrix(0.963 0 0 1 242.1196 49.9927)" font-size="10">A</text>
		</g>
		<g>
			<text transform="matrix(0.963 0 0 1 236.9995 162.4922)" font-size="10">B</text>
		</g>
		<g>
			<text transform="matrix(0.963 0 0 1 275.4688 98.9922)" font-size="10">C</text>
		</g>
		<g>
			<polyline fill-rule="evenodd" clip-rule="evenodd" fill="#005695" points="208.4,34.981 205.761,36.421 206.001,37.382 
				206.721,38.341 207.2,39.782 207.681,41.222 208.4,42.901 209.12,44.581 210.561,48.421 212.48,52.261 214.641,56.341 
				217.04,60.181 217.28,60.661 218.721,62.341 220.161,64.021 221.841,65.702 223.521,67.142 225.681,68.821 227.841,70.261 
				228.321,70.501 232.881,73.622 237.681,76.501 242.721,79.62 247.28,82.501 248.001,81.302 246.801,82.261 248.96,83.94 
				250.881,85.38 252.801,87.062 254.24,88.741 257.121,92.341 260.001,95.94 260.961,94.981 259.521,95.46 261.921,99.302 
				264.081,103.142 265.041,105.062 265.761,106.981 266.48,108.901 266.961,110.821 268.4,110.341 266.721,110.341 267.2,112.261 
				267.44,114.181 267.44,116.101 267.44,117.78 266.961,119.94 268.641,119.94 267.2,119.222 266.721,121.142 266.24,123.302 
				265.28,125.222 264.561,127.382 263.601,129.542 262.4,131.462 260.961,133.62 262.4,134.341 261.44,133.142 258.561,136.981 
				256.881,138.901 255.2,140.581 253.521,142.261 251.841,143.7 250.161,145.142 251.12,146.101 250.641,144.661 248.48,145.86 
				246.561,146.821 244.4,147.542 241.761,148.261 242.48,149.462 242.48,148.021 239.601,148.501 236.96,148.981 234.081,149.222 
				228.081,149.462 222.081,149.462 219.2,149.462 216.561,149.462 213.921,149.462 211.761,149.462 209.601,149.462 207.681,149.7 
				207.921,152.581 209.601,152.581 211.761,152.341 213.921,152.341 216.561,152.341 219.2,152.341 222.081,152.341 
				228.081,152.341 234.081,152.101 236.96,151.86 239.601,151.62 242.48,151.142 242.96,150.901 245.601,150.421 247.761,149.462 
				249.921,148.501 251.841,147.542 252.08,147.302 254.001,145.86 255.681,144.421 257.36,142.741 259.041,141.062 
				260.721,139.142 263.601,135.302 263.841,134.821 265.041,132.661 266.24,130.741 267.2,128.581 268.16,126.421 268.881,124.501 
				269.601,122.341 269.841,120.421 270.081,119.94 270.32,118.021 268.881,118.021 270.32,118.261 270.32,116.101 270.32,114.181 
				270.081,112.261 269.841,110.341 269.601,109.62 269.121,107.7 268.4,105.78 267.681,103.86 266.961,101.94 264.801,98.101 
				262.4,94.261 262.16,93.78 259.28,90.181 256.641,86.821 254.961,84.901 253.041,83.222 251.12,81.78 248.96,80.101 
				248.48,79.86 243.921,76.741 238.881,73.86 234.081,70.741 229.521,67.86 228.801,69.302 230.001,68.101 227.841,66.661 
				225.681,64.981 224.001,63.542 222.321,62.101 220.881,60.181 219.44,58.501 218.48,59.462 219.681,58.981 217.28,55.142 
				215.12,51.062 213.44,47.222 211.761,43.382 211.04,41.702 210.561,40.021 209.841,38.581 209.36,37.142 208.881,36.181 			"/>
		</g>
		<rect x="207.44" y="32.821" fill="none" stroke="#010101" stroke-miterlimit="10" width="52.561" height="71.279"/>
		<rect x="202.641" y="99.44" fill="none" stroke="#010101" stroke-miterlimit="10" width="54.24" height="70.9"/>
		<rect x="246.801" y="80.821" fill="none" stroke="#010101" stroke-miterlimit="10" width="52.56" height="72"/>
	</g>
</g>
</svg>
