<?xml version="1.0" encoding="utf-8"?>
<!-- $Source: /home/bbennett/pass/archive/DicomXml/docbook/part03/figures/PS3.3_7-2c.svg,v $ -->
<!-- $Date: 2014/05/09 12:27:11 $ -->
<!-- $Revision: 1.2 $ -->

<!DOCTYPE svg PUBLIC "-//W3C//DTD SVG 1.1//EN" "http://www.w3.org/Graphics/SVG/1.1/DTD/svg11.dtd">
<svg version="1.1" id="Layer_1" xmlns="http://www.w3.org/2000/svg" xmlns:xlink="http://www.w3.org/1999/xlink" x="0px" y="0px"
	 width="502px" height="397px" viewBox="0 0 502 397" enable-background="new 0 0 502 397" xml:space="preserve">

<defs>
	<style type="text/css">
	text {
	  font-family: Helvetica, Verdana, ArialUnicodeMS, san-serif
	}
	</style>
</defs>

<g>
   <desc>
	PS 3.3 Part 3: Information Object Definitions
   </desc>
</g>

<g>
	<rect x="1" y="1" fill="#F5EED6" width="500" height="395"/>
	<g>
		<g>
			<g>
				<polyline fill="none" stroke="#005695" stroke-width="2" stroke-linejoin="round" points="191.235,34.209 191.235,48.338 
					261.86,48.338 261.86,58.506 				"/>
				<g>
					<polygon fill="#005695" points="259.536,56.921 261.86,65.594 264.185,56.921 					"/>
				</g>
			</g>
		</g>
		<g>
			<g>
				<polyline fill="none" stroke="#005695" stroke-width="2" stroke-linejoin="round" points="191.245,34.209 191.245,48.338 
					120.621,48.338 120.621,58.506 				"/>
				<g>
					<polygon fill="#005695" points="118.297,56.921 120.621,65.594 122.945,56.921 					"/>
				</g>
			</g>
		</g>
		<g>
			<g>
				<polyline fill="none" stroke="#005695" stroke-width="2" stroke-linejoin="round" points="191.23,34.209 191.23,48.338 
					333.358,48.338 333.358,58.506 				"/>
				<g>
					<polygon fill="#005695" points="331.034,56.921 333.358,65.594 335.683,56.921 					"/>
				</g>
			</g>
		</g>
		<g>
			<g>
				
					<line fill="none" stroke="#005695" stroke-width="2" stroke-linejoin="round" x1="445.873" y1="183.034" x2="445.873" y2="191.631"/>
				<g>
					<polygon fill="#005695" points="443.549,190.045 445.873,198.718 448.197,190.045 					"/>
				</g>
			</g>
		</g>
		<g>
			<g>
				<polyline fill="none" stroke="#005695" stroke-width="2" stroke-linejoin="round" points="191.23,34.209 191.23,48.338 
					445.873,48.338 445.873,148.947 				"/>
				<g>
					<polygon fill="#005695" points="443.549,147.361 445.873,156.034 448.197,147.361 					"/>
				</g>
			</g>
		</g>
		<g>
			<g>
				<polyline fill="none" stroke="#005695" stroke-width="2" stroke-linejoin="round" points="191.25,34.209 191.25,48.338 
					49.124,48.338 49.124,58.506 				"/>
				<g>
					<polygon fill="#005695" points="46.8,56.921 49.124,65.594 51.448,56.921 					"/>
				</g>
			</g>
		</g>
		<g>
			<g>
				
					<line fill="none" stroke="#005695" stroke-width="2" stroke-linejoin="round" x1="191.245" y1="41.182" x2="191.245" y2="60.094"/>
				<g>
					<polygon fill="#005695" points="188.921,58.509 191.245,67.182 193.569,58.509 					"/>
				</g>
			</g>
		</g>
		<g>
			<g>
				
					<line fill="none" stroke="#005695" stroke-width="2" stroke-linejoin="round" x1="49.483" y1="93.503" x2="49.483" y2="101.227"/>
				<g>
					<polygon fill="#005695" points="47.159,99.642 49.483,108.314 51.808,99.642 					"/>
				</g>
			</g>
		</g>
		<g>
			<g>
				
					<line fill="none" stroke="#005695" stroke-width="2" stroke-linejoin="round" x1="120.621" y1="93.503" x2="120.621" y2="101.227"/>
				<g>
					<polygon fill="#005695" points="118.297,99.642 120.621,108.314 122.945,99.642 					"/>
				</g>
			</g>
		</g>
		<g>
			<g>
				
					<line fill="none" stroke="#005695" stroke-width="2" stroke-linejoin="round" x1="191.758" y1="93.503" x2="191.758" y2="101.227"/>
				<g>
					<polygon fill="#005695" points="189.434,99.642 191.758,108.314 194.082,99.642 					"/>
				</g>
			</g>
		</g>
		<g>
			<g>
				
					<line fill="none" stroke="#005695" stroke-width="2" stroke-linejoin="round" x1="262.535" y1="93.503" x2="262.535" y2="101.227"/>
				<g>
					<polygon fill="#005695" points="260.211,99.642 262.535,108.314 264.859,99.642 					"/>
				</g>
			</g>
		</g>
		<g>
			<g>
				
					<line fill="none" stroke="#005695" stroke-width="2" stroke-linejoin="round" x1="333.672" y1="93.503" x2="333.672" y2="101.227"/>
				<g>
					<polygon fill="#005695" points="331.348,99.642 333.672,108.314 335.996,99.642 					"/>
				</g>
			</g>
		</g>
		<g>
			<g>
				<polyline fill="none" stroke="#005695" stroke-width="2" stroke-linejoin="round" points="111.831,182.271 107.44,182.271 
					107.44,139.323 				"/>
				<g>
					<polygon fill="#005695" points="110.245,179.947 118.918,182.271 110.245,184.595 					"/>
				</g>
			</g>
		</g>
		<g>
			<g>
				<polyline fill="none" stroke="#005695" stroke-width="2" stroke-linejoin="round" points="190.2,146.41 190.2,182.271 
					181.672,182.271 				"/>
				<g>
					<polygon fill="#005695" points="187.876,147.996 190.2,139.323 192.524,147.996 					"/>
				</g>
			</g>
		</g>
		<g>
			<g>
				<polyline fill="none" stroke="#005695" stroke-width="2" stroke-linejoin="round" points="208.603,182.271 203.253,182.271 
					203.253,139.323 				"/>
				<g>
					<polygon fill="#005695" points="207.018,179.947 215.69,182.271 207.018,184.595 					"/>
				</g>
			</g>
		</g>
		<g>
			<g>
				<polyline fill="none" stroke="#005695" stroke-width="2" stroke-linejoin="round" points="286.013,146.41 286.013,182.271 
					278.204,182.271 				"/>
				<g>
					<polygon fill="#005695" points="283.688,147.995 286.013,139.322 288.337,147.995 					"/>
				</g>
			</g>
		</g>
		<g>
			<g>
				<polyline fill="none" stroke="#005695" stroke-width="2" stroke-linejoin="round" points="215.69,229.412 197.051,229.412 
					197.051,146.41 				"/>
				<g>
					<polygon fill="#005695" points="199.375,147.996 197.051,139.323 194.727,147.996 					"/>
				</g>
			</g>
		</g>
		<g>
			<g>
				<polyline fill="none" stroke="#005695" stroke-width="2" stroke-linejoin="round" points="309.385,139.159 309.385,229.412 
					285.833,229.412 				"/>
				<g>
					<polygon fill="#005695" points="287.418,227.088 278.745,229.412 287.418,231.736 					"/>
				</g>
			</g>
		</g>
		<g>
			<g>
				<polyline fill="none" stroke="#005695" stroke-width="2" stroke-linejoin="round" points="208.603,275.574 97.44,275.574 
					97.44,146.41 				"/>
				<g>
					<polygon fill="#005695" points="207.018,273.25 215.69,275.574 207.018,277.898 					"/>
				</g>
				<g>
					<polygon fill="#005695" points="99.765,147.996 97.44,139.323 95.116,147.996 					"/>
				</g>
			</g>
		</g>
		<g>
			<g>
				<polyline fill="none" stroke="#005695" stroke-width="2" stroke-linejoin="round" points="324.44,146.247 324.44,275.574 
					285.833,275.574 				"/>
				<g>
					<polygon fill="#005695" points="322.116,147.832 324.44,139.159 326.765,147.832 					"/>
				</g>
				<g>
					<polygon fill="#005695" points="287.418,273.25 278.745,275.574 287.418,277.898 					"/>
				</g>
			</g>
		</g>
		<g>
			<g>
				<polyline fill="none" stroke="#005695" stroke-width="2" stroke-linejoin="round" points="208.603,321.734 62.264,321.734 
					62.264,146.41 				"/>
				<g>
					<polygon fill="#005695" points="207.018,319.41 215.69,321.734 207.018,324.059 					"/>
				</g>
				<g>
					<polygon fill="#005695" points="64.588,147.996 62.264,139.323 59.939,147.996 					"/>
				</g>
			</g>
		</g>
		<g>
			<g>
				<polyline fill="none" stroke="#005695" stroke-width="2" stroke-linejoin="round" points="333.774,146.247 333.774,321.734 
					285.833,321.734 				"/>
				<g>
					<polygon fill="#005695" points="331.45,147.832 333.774,139.159 336.099,147.832 					"/>
				</g>
				<g>
					<polygon fill="#005695" points="287.418,319.41 278.745,321.734 287.418,324.059 					"/>
				</g>
			</g>
		</g>
		<g>
			<g>
				<polyline fill="none" stroke="#005695" stroke-width="2" stroke-linejoin="round" points="215.69,367.896 33.527,367.896 
					34.225,146.41 				"/>
				<g>
					<polygon fill="#005695" points="36.544,148.003 34.247,139.323 31.896,147.988 					"/>
				</g>
			</g>
		</g>
		<g>
			<g>
				<polyline fill="none" stroke="#005695" stroke-width="2" stroke-linejoin="round" points="364.443,275.574 355.225,275.574 
					355.225,213.729 404.578,213.729 				"/>
				<g>
					<polygon fill="#005695" points="402.993,216.053 411.666,213.729 402.993,211.404 					"/>
				</g>
			</g>
		</g>
		<g>
			<g>
				<polyline fill="none" stroke="#005695" stroke-width="2" stroke-linejoin="round" points="447.008,228.625 447.008,275.574 
					434.233,275.574 				"/>
				<g>
					<polygon fill="#005695" points="435.818,273.25 427.146,275.574 435.818,277.898 					"/>
				</g>
			</g>
		</g>
		<g>
			<g>
				<polyline fill="none" stroke="#005695" stroke-width="2" stroke-linejoin="round" points="353.326,321.734 342.591,321.734 
					342.591,146.247 				"/>
				<g>
					<polygon fill="#005695" points="344.915,147.832 342.591,139.159 340.267,147.832 					"/>
				</g>
			</g>
		</g>
		<g>
			<g>
				<polyline fill="none" stroke="#005695" stroke-width="2" stroke-linejoin="round" points="447.008,231.744 447.008,321.734 
					423.438,321.734 				"/>
				<g>
					<polygon fill="#005695" points="425.022,319.41 416.35,321.734 425.022,324.059 					"/>
				</g>
			</g>
		</g>
		<g>
			<g>
				<polyline fill="none" stroke="#005695" stroke-width="2" stroke-linejoin="round" points="447.008,277.904 447.008,367.896 
					285.833,367.896 				"/>
				<g>
					<polygon fill="#005695" points="287.418,365.572 278.745,367.896 287.418,370.221 					"/>
				</g>
			</g>
		</g>
	</g>
	
		<rect x="141.744" y="15.622" fill="#86B2D8" stroke="#010101" stroke-width="0.75" stroke-linecap="round" stroke-linejoin="round" stroke-miterlimit="1" width="99" height="18"/>
	<g>
		<text transform="matrix(1 0 0 1 163.5684 27.9473)" font-size="12">Study IOD</text>
	</g>
	
		<polygon fill="#CCDEF0" stroke="#010101" stroke-width="0.75" stroke-linecap="round" stroke-linejoin="round" stroke-miterlimit="1" points="
		18.335,79.796 49.789,66.503 81.335,79.987 81.335,80.019 49.789,93.503 	"/>
	<g>
		<text transform="matrix(1 0 0 1 28.5693 82.5)" font-size="9">references</text>
	</g>
	<g>
		<text transform="matrix(1 0 0 1 79.0791 71.0459)" font-size="9">1</text>
	</g>
	<g>
		<text transform="matrix(1 0 0 1 71.0771 93.7715)" font-size="9">0-n</text>
	</g>
	
		<rect x="19.71" y="109.187" fill="#86B2D8" stroke="#010101" stroke-width="0.75" stroke-linecap="round" stroke-linejoin="round" stroke-miterlimit="1" width="63" height="29.907"/>
	<g>
		<text transform="matrix(1 0 0 1 20.3701 126.9126)" font-size="10">RT ImageIOD</text>
	</g>
	
		<polygon fill="#CCDEF0" stroke="#010101" stroke-width="0.75" stroke-linecap="round" stroke-linejoin="round" stroke-miterlimit="1" points="
		89.104,79.796 120.559,66.503 152.104,79.987 152.104,80.019 120.559,93.503 	"/>
	<g>
		<text transform="matrix(1 0 0 1 99.3394 82.5)" font-size="9">references</text>
	</g>
	<g>
		<text transform="matrix(1 0 0 1 149.8496 71.0459)" font-size="9">1</text>
	</g>
	<g>
		<text transform="matrix(1 0 0 1 141.8467 93.7715)" font-size="9">0-n</text>
	</g>
	
		<rect x="90.479" y="109.187" fill="#86B2D8" stroke="#010101" stroke-width="0.75" stroke-linecap="round" stroke-linejoin="round" stroke-miterlimit="1" width="63" height="29.907"/>
	<g>
		<text transform="matrix(1 0 0 1 91.9756 126.9126)" font-size="10">RT Dose IOD</text>
	</g>
	
		<polygon fill="#CCDEF0" stroke="#010101" stroke-width="0.75" stroke-linecap="round" stroke-linejoin="round" stroke-miterlimit="1" points="
		159.874,79.796 191.328,66.503 222.875,79.987 222.875,80.019 191.328,93.503 	"/>
	<g>
		<text transform="matrix(1 0 0 1 170.1089 82.5)" font-size="9">references</text>
	</g>
	<g>
		<text transform="matrix(1 0 0 1 220.6191 71.0459)" font-size="9">1</text>
	</g>
	<g>
		<text transform="matrix(1 0 0 1 212.6167 93.7715)" font-size="9">0-n</text>
	</g>
	
		<rect x="161.249" y="109.187" fill="#86B2D8" stroke="#010101" stroke-width="0.75" stroke-linecap="round" stroke-linejoin="round" stroke-miterlimit="1" width="63.001" height="29.907"/>
	<g>
		<text transform="matrix(1 0 0 1 164.4102 122.2461)"><tspan x="0" y="0" font-size="10">RT Structure</tspan><tspan x="10.557" y="9.333" font-size="10">Set IOD</tspan></text>
	</g>
	
		<polygon fill="#CCDEF0" stroke="#010101" stroke-width="0.75" stroke-linecap="round" stroke-linejoin="round" stroke-miterlimit="1" points="
		230.645,79.796 262.1,66.503 293.646,79.987 293.646,80.019 262.1,93.503 	"/>
	<g>
		<text transform="matrix(1 0 0 1 240.8789 82.5)" font-size="9">references</text>
	</g>
	<g>
		<text transform="matrix(1 0 0 1 291.3887 71.0459)" font-size="9">1</text>
	</g>
	<g>
		<text transform="matrix(1 0 0 1 283.3867 93.7715)" font-size="9">0-n</text>
	</g>
	
		<rect x="232.02" y="109.187" fill="#86B2D8" stroke="#010101" stroke-width="0.75" stroke-linecap="round" stroke-linejoin="round" stroke-miterlimit="1" width="63.001" height="29.907"/>
	<g>
		<text transform="matrix(1 0 0 1 239.3447 126.9126)" font-size="10">Image IOD</text>
	</g>
	
		<polygon fill="#CCDEF0" stroke="#010101" stroke-width="0.75" stroke-linecap="round" stroke-linejoin="round" stroke-miterlimit="1" points="
		301.414,79.796 332.868,66.503 364.414,79.987 364.414,80.019 332.868,93.503 	"/>
	<g>
		<text transform="matrix(1 0 0 1 311.6484 82.5)" font-size="9">references</text>
	</g>
	<g>
		<text transform="matrix(1 0 0 1 362.1592 71.0459)" font-size="9">1</text>
	</g>
	<g>
		<text transform="matrix(1 0 0 1 354.1562 93.7715)" font-size="9">0-n</text>
	</g>
	
		<rect x="302.789" y="109.187" fill="#86B2D8" stroke="#010101" stroke-width="0.75" stroke-linecap="round" stroke-linejoin="round" stroke-miterlimit="1" width="63" height="29.907"/>
	<g>
		<text transform="matrix(1 0 0 1 305.9492 126.9126)" font-size="10">RT Plan IOD</text>
	</g>
	
		<polygon fill="#CCDEF0" stroke="#010101" stroke-width="0.75" stroke-linecap="round" stroke-linejoin="round" stroke-miterlimit="1" points="
		414.791,169.328 446.245,156.035 477.791,169.519 477.791,169.55 446.245,183.035 	"/>
	<g>
		<text transform="matrix(1 0 0 1 425.0254 172.0317)" font-size="9">references</text>
	</g>
	<g>
		<text transform="matrix(1 0 0 1 475.5361 160.5771)" font-size="9">1</text>
	</g>
	<g>
		<text transform="matrix(1 0 0 1 467.5332 183.3027)" font-size="9">0-n</text>
	</g>
	
		<rect x="411.666" y="198.718" fill="#86B2D8" stroke="#010101" stroke-width="0.75" stroke-linecap="round" stroke-linejoin="round" stroke-miterlimit="1" width="72" height="29.907"/>
	<g>
		<text transform="matrix(1 0 0 1 415.4375 210.4482)"><tspan x="0" y="0" font-size="10">RT Treatment </tspan><tspan x="5.832" y="9.333" font-size="10">Record IOD</tspan></text>
	</g>
	
		<polygon fill="#CCDEF0" stroke="#010101" stroke-width="0.75" stroke-linecap="round" stroke-linejoin="round" stroke-miterlimit="1" points="
		119.194,182.048 150.648,168.755 182.194,182.24 182.194,182.271 150.648,195.755 	"/>
	<g>
		<text transform="matrix(1 0 0 1 129.4287 184.7524)" font-size="9">references</text>
	</g>
	<g>
		<text transform="matrix(1 0 0 1 167.2974 173.2979)" font-size="9">0-1</text>
	</g>
	<g>
		<text transform="matrix(1 0 0 1 118.4165 173.2988)" font-size="9">0-n</text>
	</g>
	
		<polygon fill="#CCDEF0" stroke="#010101" stroke-width="0.75" stroke-linecap="round" stroke-linejoin="round" stroke-miterlimit="1" points="
		215.727,182.048 247.181,168.755 278.727,182.24 278.727,182.271 247.181,195.755 	"/>
	<g>
		<text transform="matrix(1 0 0 1 225.9614 184.7524)" font-size="9">references</text>
	</g>
	<g>
		<text transform="matrix(1 0 0 1 263.8301 173.2979)" font-size="9">0-n</text>
	</g>
	<g>
		<text transform="matrix(1 0 0 1 214.9492 173.2988)" font-size="9">0-n</text>
	</g>
	
		<polygon fill="#CCDEF0" stroke="#010101" stroke-width="0.75" stroke-linecap="round" stroke-linejoin="round" stroke-miterlimit="1" points="
		215.727,229.189 247.181,215.896 278.727,229.381 278.727,229.412 247.181,242.896 	"/>
	<g>
		<text transform="matrix(1 0 0 1 225.9614 231.8936)" font-size="9">references</text>
	</g>
	<g>
		<text transform="matrix(1 0 0 1 263.8301 220.4395)" font-size="9">0-n</text>
	</g>
	<g>
		<text transform="matrix(1 0 0 1 214.9492 220.4395)" font-size="9">0-1</text>
	</g>
	
		<polygon fill="#CCDEF0" stroke="#010101" stroke-width="0.75" stroke-linecap="round" stroke-linejoin="round" stroke-miterlimit="1" points="
		215.727,275.352 247.181,262.059 278.727,275.543 278.727,275.574 247.181,289.057 	"/>
	<g>
		<text transform="matrix(1 0 0 1 225.9614 278.0547)" font-size="9">references</text>
	</g>
	<g>
		<text transform="matrix(1 0 0 1 267.832 266.6006)" font-size="9">1</text>
	</g>
	<g>
		<text transform="matrix(1 0 0 1 214.9492 266.6006)" font-size="9">0-n</text>
	</g>
	
		<polygon fill="#CCDEF0" stroke="#010101" stroke-width="0.75" stroke-linecap="round" stroke-linejoin="round" stroke-miterlimit="1" points="
		215.727,321.512 247.181,308.219 278.727,321.703 278.727,321.734 247.181,335.219 	"/>
	<g>
		<text transform="matrix(1 0 0 1 225.9614 324.2158)" font-size="9">references</text>
	</g>
	<g>
		<text transform="matrix(1 0 0 1 267.832 312.7617)" font-size="9">1</text>
	</g>
	<g>
		<text transform="matrix(1 0 0 1 214.9492 312.7617)" font-size="9">0-n</text>
	</g>
	
		<polygon fill="#CCDEF0" stroke="#010101" stroke-width="0.75" stroke-linecap="round" stroke-linejoin="round" stroke-miterlimit="1" points="
		215.727,367.674 247.181,354.381 278.727,367.865 278.727,367.896 247.181,381.379 	"/>
	<g>
		<text transform="matrix(1 0 0 1 225.9614 370.377)" font-size="9">references</text>
	</g>
	<g>
		<text transform="matrix(1 0 0 1 267.832 358.9229)" font-size="9">1</text>
	</g>
	<g>
		<text transform="matrix(1 0 0 1 214.9492 358.9238)" font-size="9">0-n</text>
	</g>
	
		<polygon fill="#CCDEF0" stroke="#010101" stroke-width="0.75" stroke-linecap="round" stroke-linejoin="round" stroke-miterlimit="1" points="
		364.146,275.352 395.6,262.059 427.146,275.543 427.146,275.574 395.6,289.057 	"/>
	<g>
		<text transform="matrix(1 0 0 1 374.3848 278.0547)" font-size="9">references</text>
	</g>
	<g>
		<text transform="matrix(1 0 0 1 416.2549 266.6006)" font-size="9">1</text>
	</g>
	<g>
		<text transform="matrix(1 0 0 1 363.3721 266.6006)" font-size="9">0-n</text>
	</g>
	
		<polygon fill="#CCDEF0" stroke="#010101" stroke-width="0.75" stroke-linecap="round" stroke-linejoin="round" stroke-miterlimit="1" points="
		353.35,321.512 384.804,308.219 416.35,321.703 416.35,321.734 384.804,335.219 	"/>
	<g>
		<text transform="matrix(1 0 0 1 363.584 324.2158)" font-size="9">references</text>
	</g>
	<g>
		<text transform="matrix(1 0 0 1 401.4531 312.7617)" font-size="9">0-n</text>
	</g>
	<g>
		<text transform="matrix(1 0 0 1 356.5732 312.7617)" font-size="9">1</text>
	</g>
</g>
</svg>
