<?xml version="1.0" encoding="utf-8"?>
<!-- $Source: /home/bbennett/pass/archive/DicomXml/docbook/part03/figures/PS3.3_A.63-1.svg,v $ -->
<!-- $Date: 2014/05/09 13:15:42 $ -->
<!-- $Revision: 1.1 $ -->

<!DOCTYPE svg PUBLIC "-//W3C//DTD SVG 1.1//EN" "http://www.w3.org/Graphics/SVG/1.1/DTD/svg11.dtd">
<svg version="1.1" id="Layer_1" xmlns="http://www.w3.org/2000/svg" xmlns:xlink="http://www.w3.org/1999/xlink" x="0px" y="0px"
	 width="502px" height="227px" viewBox="0 0 502 227" enable-background="new 0 0 502 227" xml:space="preserve">

<defs>
	<style type="text/css">
	text {
	  font-family: Helvetica, Verdana, ArialUnicodeMS, san-serif
	}
	</style>
</defs>

<g>
   <desc>
	PS 3.3 Part 3: Information Object Definitions
   </desc>
</g>

<g>
	<rect x="1" y="1" fill="#F5EED6" width="500" height="225"/>
	<g>
		<g>
			<g>
				<g>
					
						<line fill="none" stroke="#005695" stroke-width="2" stroke-miterlimit="1" x1="353.211" y1="50.146" x2="353.211" y2="36.75"/>
					<g>
						<polygon fill="#005695" points="355.535,48.561 353.211,57.234 350.887,48.561 						"/>
					</g>
				</g>
			</g>
			<g>
				<g>
					
						<line fill="none" stroke="#005695" stroke-width="2" stroke-miterlimit="1" x1="144.789" y1="36.549" x2="144.789" y2="55.793"/>
					<g>
						<polygon fill="#005695" points="142.465,54.208 144.789,62.88 147.113,54.208 						"/>
					</g>
				</g>
			</g>
			<g>
				<g>
					<polyline fill="none" stroke="#005695" stroke-width="2" stroke-miterlimit="1" points="185.673,112.909 185.673,93.042 
						144.917,93.029 144.864,80.695 					"/>
					<g>
						<polygon fill="#005695" points="187.997,111.323 185.673,119.996 183.349,111.323 						"/>
					</g>
				</g>
			</g>
			<g>
				<g>
					
						<line fill="none" stroke="#005695" stroke-width="2" stroke-miterlimit="1" x1="246.791" y1="36.942" x2="246.791" y2="55.789"/>
					<g>
						<polygon fill="#005695" points="244.467,54.204 246.791,62.876 249.115,54.204 						"/>
					</g>
				</g>
			</g>
			<g>
				<g>
					<polyline fill="none" stroke="#005695" stroke-width="2" stroke-miterlimit="1" points="216.593,112.909 216.593,103.98 
						353.211,103.98 353.211,87.118 					"/>
					<g>
						<polygon fill="#005695" points="218.917,111.323 216.593,119.996 214.269,111.323 						"/>
					</g>
				</g>
			</g>
			<g>
				<g>
					<polyline fill="none" stroke="#005695" stroke-width="2" stroke-miterlimit="1" points="201.11,112.909 201.11,92.751 
						246.855,92.751 246.855,80.695 					"/>
					<g>
						<polygon fill="#005695" points="203.435,111.323 201.11,119.996 198.786,111.323 						"/>
					</g>
				</g>
			</g>
			<g>
				<g>
					
						<line fill="none" stroke="#005695" stroke-width="2" stroke-miterlimit="1" x1="200.884" y1="138.172" x2="200.884" y2="147.246"/>
					<g>
						<polygon fill="#005695" points="198.56,145.661 200.884,154.334 203.208,145.661 						"/>
					</g>
				</g>
			</g>
			<g>
				<g>
					
						<line fill="none" stroke="#005695" stroke-width="2" stroke-miterlimit="1" x1="202.064" y1="172.322" x2="202.011" y2="185.816"/>
					<g>
						<polygon fill="#005695" points="199.693,184.223 201.982,192.904 204.341,184.241 						"/>
					</g>
				</g>
			</g>
		</g>
		
			<polygon fill="#CCDEF0" stroke="#010101" stroke-width="0.75" stroke-linecap="round" stroke-linejoin="round" stroke-miterlimit="1" points="
			99.856,71.743 144.79,62.88 189.854,71.87 189.854,71.891 144.79,80.88 		"/>
		<g>
			<text transform="matrix(1 0 0 1 123.5938 74.3696)" font-size="9">references</text>
		</g>
		
			<polygon fill="#CCDEF0" stroke="#010101" stroke-width="0.75" stroke-linecap="round" stroke-linejoin="round" stroke-miterlimit="1" points="
			201.784,71.739 246.719,62.876 291.782,71.866 291.782,71.887 246.719,80.876 		"/>
		<g>
			<text transform="matrix(1 0 0 1 224.0239 74.3696)" font-size="9">rerferences</text>
		</g>
		
			<polygon fill="#CCDEF0" stroke="#010101" stroke-width="0.75" stroke-linecap="round" stroke-linejoin="round" stroke-miterlimit="1" points="
			303.397,72.002 352.825,57.234 402.397,72.217 402.397,72.25 352.825,87.234 		"/>
		<g>
			<text transform="matrix(1 0 0 1 322.7168 74.3706)" font-size="9">spatially defines</text>
		</g>
		
			<rect x="204.899" y="15.958" fill="#86B2D8" stroke="#010101" stroke-width="0.75" stroke-linecap="round" stroke-linejoin="round" stroke-miterlimit="1" width="83.992" height="24"/>
		<g>
			<text transform="matrix(1 0 0 1 208.2671 26.0635)"><tspan x="0" y="0" font-size="10">Implant Template</tspan><tspan x="24.731" y="9.333" font-size="10">Group</tspan></text>
		</g>
		
			<rect x="303.718" y="15.958" fill="#86B2D8" stroke="#010101" stroke-width="0.75" stroke-linecap="round" stroke-linejoin="round" stroke-miterlimit="1" width="99" height="24"/>
		<g>
			<text transform="matrix(1 0 0 1 308.7676 30.7305)" font-size="10">Frame of Reference</text>
		</g>
		
			<rect x="99.282" y="15.958" fill="#86B2D8" stroke="#010101" stroke-width="0.75" stroke-linecap="round" stroke-linejoin="round" stroke-miterlimit="1" width="91" height="24"/>
		<g>
			<text transform="matrix(1 0 0 1 105.3213 26.0635)"><tspan x="0" y="0" font-size="10">Implant Assembly</tspan><tspan x="18.616" y="9.333" font-size="10">Template</tspan></text>
		</g>
		<g>
			<text transform="matrix(1 0 0 1 166.5479 63.4468)" font-size="9">0-n</text>
		</g>
		<g>
			<text transform="matrix(1 0 0 1 166.5479 85.4526)" font-size="9">1-n</text>
		</g>
		<g>
			<text transform="matrix(1 0 0 1 267.8789 63.4468)" font-size="9">0-n</text>
		</g>
		<g>
			<text transform="matrix(1 0 0 1 267.8789 85.4526)" font-size="9">1-n</text>
		</g>
		<g>
			<text transform="matrix(1 0 0 1 386.8789 63.0156)" font-size="9">0-n</text>
		</g>
		<g>
			<text transform="matrix(1 0 0 1 386.8789 86.46)" font-size="9">1-n</text>
		</g>
		
			<polygon fill="#CCDEF0" stroke="#010101" stroke-width="0.75" stroke-linecap="round" stroke-linejoin="round" stroke-miterlimit="1" points="
			155.806,163.195 200.739,154.334 245.805,163.322 245.805,163.344 200.739,172.332 		"/>
		<g>
			<text transform="matrix(1 0 0 1 184.0435 165.8232)" font-size="9">contains</text>
		</g>
		
			<rect x="150.933" y="120.215" fill="#86B2D8" stroke="#010101" stroke-width="0.75" stroke-linecap="round" stroke-linejoin="round" stroke-miterlimit="1" width="100" height="17.988"/>
		<g>
			<text transform="matrix(1 0 0 1 154.5781 132.5508)" font-size="12">Implant Template</text>
		</g>
		
			<rect x="159.987" y="193.041" fill="#86B2D8" stroke="#010101" stroke-width="0.75" stroke-linecap="round" stroke-linejoin="round" stroke-miterlimit="1" width="83.996" height="18.002"/>
		<g>
			<text transform="matrix(1 0 0 1 164.9658 205.3662)" font-size="12">Surface Mesh</text>
		</g>
		<g>
			<text transform="matrix(1 0 0 1 239.0508 154.8906)" font-size="9">1</text>
		</g>
		<g>
			<text transform="matrix(1 0 0 1 228.5186 179.042)" font-size="9">0-n</text>
		</g>
	</g>
</g>
</svg>
