<?xml version="1.0" encoding="utf-8"?>
<!-- $Source: /home/bbennett/pass/archive/DicomXml/docbook/part03/figures/PS3.3_C.8.12-3.svg,v $ -->
<!-- $Date: 2014/05/09 13:15:42 $ -->
<!-- $Revision: 1.1 $ -->

<!DOCTYPE svg PUBLIC "-//W3C//DTD SVG 1.1//EN" "http://www.w3.org/Graphics/SVG/1.1/DTD/svg11.dtd">
<svg version="1.1" id="Layer_1" xmlns="http://www.w3.org/2000/svg" xmlns:xlink="http://www.w3.org/1999/xlink" x="0px" y="0px"
	 width="502px" height="655.021px" viewBox="0 0 502 655.021" enable-background="new 0 0 502 655.021" xml:space="preserve">

<defs>
	<style type="text/css">
	text {
	  font-family: Helvetica, Verdana, ArialUnicodeMS, san-serif
	}
	</style>
</defs>

<g>
   <desc>
	PS 3.3 Part 3: Information Object Definitions
   </desc>
</g>

<g>
	<rect x="1" y="1" fill="#F5EED6" width="500" height="653.021"/>
	<g>
		<g>
			
				<rect x="92.225" y="208.326" fill="none" stroke="#010101" stroke-width="0.75" stroke-linecap="round" stroke-linejoin="round" stroke-miterlimit="1" width="169.482" height="42.05"/>
			
				<rect x="307.632" y="20.721" fill="#FFFFFF" stroke="#010101" stroke-width="0.75" stroke-linecap="round" stroke-linejoin="round" stroke-miterlimit="1" width="174.092" height="50.472"/>
			
				<rect x="318.125" y="37.237" fill="#DCDDDE" stroke="#010101" stroke-width="0.75" stroke-linecap="round" stroke-linejoin="round" stroke-miterlimit="1" width="163.599" height="33.957"/>
			
				<line fill="#FFFFFF" stroke="#010101" stroke-width="0.75" stroke-linecap="round" stroke-linejoin="round" stroke-miterlimit="1" x1="318.125" y1="54.096" x2="481.724" y2="54.096"/>
			<rect x="312.386" y="24.677" fill="none" width="162.733" height="9.324"/>
			<text transform="matrix(0.9288 0 0 1 312.3848 31.7349)" font-size="9.86">CDA Document 1</text>
			<rect x="323.098" y="42.477" fill="none" width="159.192" height="9.323"/>
			<text transform="matrix(0.9288 0 0 1 323.0957 49.5347)" font-size="9.86">Instance Identifier 1.2.55.33.11.2.1^23</text>
			<rect x="323.098" y="58.8" fill="none" width="158.998" height="9.322"/>
			<text transform="matrix(0.9288 0 0 1 323.0957 65.856)" font-size="9.86">...</text>
			<g>
				
					<rect x="307.632" y="95.357" fill="#FFFFFF" stroke="#010101" stroke-width="0.75" stroke-linecap="round" stroke-linejoin="round" stroke-miterlimit="1" width="174.092" height="50.472"/>
				
					<rect x="318.125" y="111.871" fill="#BCBEC0" stroke="#010101" stroke-width="0.75" stroke-linecap="round" stroke-linejoin="round" stroke-miterlimit="1" width="163.599" height="33.958"/>
				
					<line fill="#FFFFFF" stroke="#010101" stroke-width="0.75" stroke-linecap="round" stroke-linejoin="round" stroke-miterlimit="1" x1="318.125" y1="128.731" x2="481.724" y2="128.731"/>
				<rect x="312.386" y="99.313" fill="none" width="162.733" height="9.324"/>
				<text transform="matrix(0.9288 0 0 1 312.3848 106.3701)" font-size="9.86">CDA Document 2</text>
				<rect x="323.098" y="117.112" fill="none" width="159.192" height="9.324"/>
				<text transform="matrix(0.9288 0 0 1 323.0957 124.1699)" font-size="9.86">Instance Identifier 1.2.55.33.9.5</text>
				<rect x="323.098" y="133.435" fill="none" width="158.998" height="9.323"/>
				<text transform="matrix(0.9288 0 0 1 323.0957 140.4922)" font-size="9.86">...</text>
			</g>
			<g>
				
					<rect x="19.087" y="518.558" fill="#FFFFFF" stroke="#000000" stroke-linecap="round" stroke-linejoin="round" stroke-miterlimit="1" width="457.201" height="127.799"/>
				<rect x="22.288" y="521.759" fill="none" width="445.199" height="125.594"/>
				<text transform="matrix(0.9288 0 0 1 22.2881 528.1885)"><tspan x="0" y="0" font-size="9">Notes:</tspan><tspan x="0" y="15.8" font-size="9">The DICOM SOP Instances internally reference HL7-SD by Referenced SOP Class/Instance UIDs.</tspan><tspan x="25.839" y="31.6" font-size="9">The Referenced SOP Class/Instance UIDs are mapped to an HL7 Instance Identifier through the HL7 Structured </tspan><tspan x="25.839" y="42.4" font-size="9">Document Reference Sequence</tspan><tspan x="25.839" y="58.2" font-size="9">The internal Referenced SOP Instance UID may or may not be identical to the HL7 Instance Identifier</tspan><tspan x="25.839" y="74" font-size="9">The internal Referenced SOP Instance UID must be locally generated if the HL7 Instance Identifier includes an </tspan><tspan x="25.839" y="84.8" font-size="9">extension (“^23” in CDA Document 1) </tspan><tspan x="25.839" y="100.6" font-size="9">The internal Referenced SOP Instance UID may be different in different DICOM SOP Instances, even though they </tspan><tspan x="25.839" y="111.4" font-size="9">map to the same HL7 Instance Identifier</tspan></text>
				<g>
					<circle fill="#ED1C24" stroke="#000000" cx="32.288" cy="556.448" r="6.75"/>
					<rect x="29.575" y="552.118" fill="none" width="5.425" height="8.656"/>
					<text transform="matrix(0.9288 0 0 1 29.5742 559.416)" font-size="10.2162">1</text>
				</g>
				<g>
					<circle fill="#0DB14B" stroke="#000000" cx="32.288" cy="583.392" r="6.75"/>
					<rect x="29.575" y="579.062" fill="none" width="5.425" height="8.658"/>
					<text transform="matrix(0.9288 0 0 1 29.5742 586.3584)" font-size="10.2162">2</text>
				</g>
				<g>
					<circle fill="#FFF200" stroke="#000000" cx="32.288" cy="599.913" r="6.75"/>
					<rect x="29.575" y="595.583" fill="none" width="5.425" height="8.658"/>
					<text transform="matrix(0.9288 0 0 1 29.5742 602.8779)" font-size="10.2162">3</text>
				</g>
				<g>
					<circle fill="#00AEEF" stroke="#000000" cx="32.288" cy="625.548" r="6.75"/>
					<rect x="29.575" y="621.218" fill="none" width="5.425" height="8.658"/>
					<text transform="matrix(0.9288 0 0 1 29.5742 628.5137)" font-size="10.2162">4</text>
				</g>
			</g>
			
				<line fill="#4F8ABE" stroke="#005695" stroke-linecap="round" stroke-linejoin="round" stroke-miterlimit="1" stroke-dasharray="3" x1="261.707" y1="514.595" x2="261.707" y2="7.669"/>
			
				<line fill="#4F8ABE" stroke="#005695" stroke-linecap="round" stroke-linejoin="round" stroke-miterlimit="1" stroke-dasharray="3" x1="30.771" y1="514.595" x2="30.771" y2="7.669"/>
			<rect x="87.691" y="13.834" fill="none" width="106.35" height="7.715"/>
			<text transform="matrix(0.9288 0 0 1 114.3325 19.6636)" font-size="8.1589">Other Attributes</text>
			<rect x="87.691" y="310.731" fill="none" width="106.35" height="7.713"/>
			<text transform="matrix(0.9288 0 0 1 114.3325 316.5552)" font-size="8.1589">Other Attributes</text>
			<rect x="87.691" y="506.464" fill="none" width="106.35" height="7.715"/>
			<text transform="matrix(0.9288 0 0 1 114.3325 512.2764)" font-size="8.1589">Other Attributes</text>
			
				<rect x="30.771" y="26.133" fill="#CCDEF0" stroke="#010101" stroke-width="0.75" stroke-linecap="round" stroke-linejoin="round" stroke-miterlimit="1" width="230.936" height="279.957"/>
			<rect x="31.935" y="28.697" fill="none" width="185.985" height="7.715"/>
			<text transform="matrix(0.9288 0 0 1 31.937 34.5186)" font-size="8.1589">DICOM SOP Instance 1</text>
			<rect x="50.629" y="154.542" fill="none" width="180.346" height="7.715"/>
			<text transform="matrix(0.9288 0 0 1 50.6299 160.3696)" font-size="8.1589">....</text>
			<g>
				
					<rect x="46.696" y="38.606" fill="#86B2D8" stroke="#010101" stroke-width="0.75" stroke-linecap="round" stroke-linejoin="round" stroke-miterlimit="1" width="215.011" height="110.836"/>
				
					<rect x="61.904" y="52.351" fill="#B2CEE7" stroke="#010101" stroke-width="0.75" stroke-linecap="round" stroke-linejoin="round" stroke-miterlimit="1" width="199.803" height="97.091"/>
				<rect x="50.629" y="41.881" fill="none" width="180.346" height="7.715"/>
				<text transform="matrix(0.9288 0 0 1 50.6299 47.7051)" font-size="8.1589">Item 1</text>
				
					<rect x="77.015" y="65.916" fill="#86B2D8" stroke="#010101" stroke-width="0.75" stroke-linecap="round" stroke-linejoin="round" stroke-miterlimit="1" width="184.692" height="41.762"/>
				
					<rect x="92.225" y="79.58" fill="#FFFFFF" stroke="#010101" stroke-width="0.75" stroke-linecap="round" stroke-linejoin="round" stroke-miterlimit="1" width="169.482" height="28.099"/>
				
					<line fill="#FFFFFF" stroke="#010101" stroke-width="0.75" stroke-linecap="round" stroke-linejoin="round" stroke-miterlimit="1" x1="92.225" y1="93.53" x2="261.707" y2="93.53"/>
				<rect x="99.602" y="83.917" fill="none" width="158.087" height="7.714"/>
				<text transform="matrix(0.9288 0 0 1 99.603 89.7471)" font-size="8.1589">Referenced SOP Class UID &lt;CDA R2&gt;</text>
				<rect x="99.601" y="97.424" fill="none" width="158.087" height="7.715"/>
				<text transform="matrix(0.9288 0 0 1 99.6025 103.2539)" font-size="8.1589">Referenced SOP Instance UID 1.2.3.4.1</text>
				<rect x="66.044" y="55.775" fill="none" width="159.87" height="7.715"/>
				<text transform="matrix(0.9288 0 0 1 66.0459 61.5996)" font-size="8.1589">X Document Sequence</text>
				<rect x="81.285" y="69.833" fill="none" width="112.381" height="7.715"/>
				<text transform="matrix(0.9288 0 0 1 81.2866 75.6655)" font-size="8.1589">Item 1</text>
				
					<rect x="77.015" y="107.678" fill="#86B2D8" stroke="#010101" stroke-width="0.75" stroke-linecap="round" stroke-linejoin="round" stroke-miterlimit="1" width="184.692" height="41.764"/>
				
					<rect x="92.225" y="121.343" fill="#FFFFFF" stroke="#010101" stroke-width="0.75" stroke-linecap="round" stroke-linejoin="round" stroke-miterlimit="1" width="169.482" height="28.099"/>
				
					<line fill="#FFFFFF" stroke="#010101" stroke-width="0.75" stroke-linecap="round" stroke-linejoin="round" stroke-miterlimit="1" x1="92.225" y1="135.293" x2="261.707" y2="135.293"/>
				<rect x="81.285" y="111.595" fill="none" width="112.381" height="7.715"/>
				<text transform="matrix(0.9288 0 0 1 81.2866 117.4277)" font-size="8.1589">Item 2</text>
				<rect x="99.602" y="125.013" fill="none" width="158.087" height="7.715"/>
				<text transform="matrix(0.9288 0 0 1 99.603 130.8433)" font-size="8.1589">Referenced SOP Class UID &lt;CDA R2&gt;</text>
				<rect x="99.601" y="138.521" fill="none" width="158.087" height="7.715"/>
				<text transform="matrix(0.9288 0 0 1 99.6025 144.3501)" font-size="8.1589">Referenced SOP Instance UID 1.2.55.33.9.5</text>
			</g>
			
				<rect x="46.696" y="167.354" fill="#86B2D8" stroke="#010101" stroke-width="0.75" stroke-linecap="round" stroke-linejoin="round" stroke-miterlimit="1" width="215.011" height="138.736"/>
			
				<rect x="61.904" y="181.097" fill="#B2CEE7" stroke="#010101" stroke-width="0.75" stroke-linecap="round" stroke-linejoin="round" stroke-miterlimit="1" width="199.803" height="124.993"/>
			
				<rect x="77.015" y="194.662" fill="#86B2D8" stroke="#010101" stroke-width="0.75" stroke-linecap="round" stroke-linejoin="round" stroke-miterlimit="1" width="184.692" height="55.714"/>
			<rect x="50.629" y="170.628" fill="none" width="180.346" height="7.714"/>
			<text transform="matrix(0.9288 0 0 1 50.6299 176.4531)" font-size="8.1589">Item 2</text>
			<g>
				<rect x="92.225" y="208.219" fill="#FFFFFF" width="169.482" height="28.45"/>
				<rect x="92.225" y="236.219" fill="#DCDDDE" width="169.482" height="13.95"/>
			</g>
			
				<line fill="#FFFFFF" stroke="#010101" stroke-width="0.75" stroke-linecap="round" stroke-linejoin="round" stroke-miterlimit="1" x1="92.225" y1="222.276" x2="261.707" y2="222.276"/>
			
				<line fill="#FFFFFF" stroke="#010101" stroke-width="0.75" stroke-linecap="round" stroke-linejoin="round" stroke-miterlimit="1" x1="92.225" y1="236.427" x2="261.707" y2="236.427"/>
			<rect x="99.602" y="212.662" fill="none" width="158.087" height="7.715"/>
			<text transform="matrix(0.9288 0 0 1 99.603 218.4932)" font-size="8.1589">Referenced SOP Class UID &lt;CDA R2&gt;</text>
			<rect x="99.601" y="226.17" fill="none" width="158.087" height="7.715"/>
			<text transform="matrix(0.9288 0 0 1 99.6025 232)" font-size="8.1589">Referenced SOP Instance UID 1.2.3.4.1</text>
			<rect x="99.601" y="239.769" fill="none" width="158.087" height="7.715"/>
			<text transform="matrix(0.9288 0 0 1 99.6025 245.5986)" font-size="8.1589">HL7 Instance Identifier 1.2.55.33.11.2.1^23</text>
			<rect x="66.044" y="184.521" fill="none" width="191.953" height="7.715"/>
			<text transform="matrix(0.9288 0 0 1 66.0449 190.3496)" font-size="8.1589">HL7 Structured Document Reference Sequence</text>
			<rect x="81.285" y="198.579" fill="none" width="112.381" height="7.715"/>
			<text transform="matrix(0.9288 0 0 1 81.2866 204.4116)" font-size="8.1589">Item 1</text>
			
				<rect x="77.015" y="250.376" fill="#86B2D8" stroke="#010101" stroke-width="0.75" stroke-linecap="round" stroke-linejoin="round" stroke-miterlimit="1" width="184.692" height="55.714"/>
			<rect x="92.225" y="264.964" fill="#FFFFFF" width="169.482" height="28.451"/>
			<rect x="92.225" y="292.964" fill="#BCBEC0" width="169.482" height="13.951"/>
			
				<rect x="92.225" y="264.038" fill="none" stroke="#010101" stroke-width="0.75" stroke-linecap="round" stroke-linejoin="round" stroke-miterlimit="1" width="169.482" height="42.052"/>
			
				<line fill="#FFFFFF" stroke="#010101" stroke-width="0.75" stroke-linecap="round" stroke-linejoin="round" stroke-miterlimit="1" x1="92.225" y1="277.989" x2="261.707" y2="277.989"/>
			
				<line fill="#FFFFFF" stroke="#010101" stroke-width="0.75" stroke-linecap="round" stroke-linejoin="round" stroke-miterlimit="1" x1="92.225" y1="292.14" x2="261.707" y2="292.14"/>
			<rect x="99.602" y="268.376" fill="none" width="158.087" height="7.715"/>
			<text transform="matrix(0.9288 0 0 1 99.603 274.2065)" font-size="8.1589">Referenced SOP Class UID &lt;CDA R2&gt;</text>
			<rect x="99.601" y="281.884" fill="none" width="158.087" height="7.715"/>
			<text transform="matrix(0.9288 0 0 1 99.6025 287.7134)" font-size="8.1589">Referenced SOP Instance UID 1.2.55.33.9.5</text>
			<rect x="99.601" y="295.481" fill="none" width="158.087" height="7.716"/>
			<text transform="matrix(0.9288 0 0 1 99.6025 301.3101)" font-size="8.1589">HL7 Instance Identifier 1.2.55.33.9.5</text>
			<rect x="81.285" y="254.292" fill="none" width="112.381" height="7.715"/>
			<text transform="matrix(0.9288 0 0 1 81.2866 260.125)" font-size="8.1589">Item 2</text>
			
				<rect x="30.771" y="322.575" fill="#CCDEF0" stroke="#010101" stroke-width="0.75" stroke-linecap="round" stroke-linejoin="round" stroke-miterlimit="1" width="230.936" height="178.559"/>
			<rect x="31.935" y="325.142" fill="none" width="185.985" height="7.717"/>
			<text transform="matrix(0.9288 0 0 1 31.937 330.958)" font-size="8.1589">DICOM SOP Instance 2</text>
			<rect x="50.629" y="405.3" fill="none" width="180.346" height="7.715"/>
			<text transform="matrix(0.9288 0 0 1 50.6299 411.1201)" font-size="8.1589">....</text>
			
				<rect x="46.696" y="335.05" fill="#86B2D8" stroke="#010101" stroke-width="0.75" stroke-linecap="round" stroke-linejoin="round" stroke-miterlimit="1" width="215.011" height="69.072"/>
			
				<rect x="61.904" y="348.794" fill="#B2CEE7" stroke="#010101" stroke-width="0.75" stroke-linecap="round" stroke-linejoin="round" stroke-miterlimit="1" width="199.803" height="55.328"/>
			<rect x="50.629" y="338.325" fill="none" width="180.346" height="7.715"/>
			<text transform="matrix(0.9288 0 0 1 50.6299 344.1436)" font-size="8.1589">Item 1</text>
			
				<rect x="77.015" y="362.36" fill="#86B2D8" stroke="#010101" stroke-width="0.75" stroke-linecap="round" stroke-linejoin="round" stroke-miterlimit="1" width="184.692" height="41.762"/>
			
				<rect x="92.225" y="376.024" fill="#FFFFFF" stroke="#010101" stroke-width="0.75" stroke-linecap="round" stroke-linejoin="round" stroke-miterlimit="1" width="169.482" height="28.098"/>
			
				<line fill="#FFFFFF" stroke="#010101" stroke-width="0.75" stroke-linecap="round" stroke-linejoin="round" stroke-miterlimit="1" x1="92.225" y1="389.976" x2="261.707" y2="389.976"/>
			<rect x="99.602" y="380.358" fill="none" width="158.087" height="7.717"/>
			<text transform="matrix(0.9288 0 0 1 99.603 386.1846)" font-size="8.1589">Referenced SOP Class UID &lt;CDA R2&gt;</text>
			<rect x="99.601" y="393.868" fill="none" width="158.087" height="7.713"/>
			<text transform="matrix(0.9288 0 0 1 99.6025 399.6904)" font-size="8.1589">Referenced SOP Instance UID 1.2.55.88.1</text>
			<rect x="66.044" y="352.22" fill="none" width="159.87" height="7.715"/>
			<text transform="matrix(0.9288 0 0 1 66.0459 358.0381)" font-size="8.1589">X Document Sequence</text>
			<rect x="81.285" y="366.276" fill="none" width="112.381" height="7.715"/>
			<text transform="matrix(0.9288 0 0 1 81.2866 372.1025)" font-size="8.1589">Item 1</text>
			
				<rect x="46.696" y="418.11" fill="#86B2D8" stroke="#010101" stroke-width="0.75" stroke-linecap="round" stroke-linejoin="round" stroke-miterlimit="1" width="215.011" height="83.021"/>
			
				<rect x="61.904" y="431.854" fill="#B2CEE7" stroke="#010101" stroke-width="0.75" stroke-linecap="round" stroke-linejoin="round" stroke-miterlimit="1" width="199.803" height="69.277"/>
			<rect x="50.629" y="421.386" fill="none" width="180.346" height="7.717"/>
			<text transform="matrix(0.9288 0 0 1 50.6299 427.2002)" font-size="8.1589">Item 2</text>
			
				<rect x="77.015" y="445.423" fill="#86B2D8" stroke="#010101" stroke-width="0.75" stroke-linecap="round" stroke-linejoin="round" stroke-miterlimit="1" width="184.692" height="55.711"/>
			<g>
				<rect x="92.225" y="459.673" fill="#FFFFFF" width="169.482" height="28.451"/>
				
					<rect x="92.225" y="487.673" fill="#BCBEC0" stroke="#010101" stroke-width="0.75" stroke-linecap="round" stroke-linejoin="round" stroke-miterlimit="1" width="169.482" height="13.951"/>
			</g>
			
				<rect x="92.225" y="459.085" fill="none" stroke="#010101" stroke-width="0.75" stroke-linecap="round" stroke-linejoin="round" stroke-miterlimit="1" width="169.482" height="42.049"/>
			
				<line fill="#FFFFFF" stroke="#010101" stroke-width="0.75" stroke-linecap="round" stroke-linejoin="round" stroke-miterlimit="1" x1="92.225" y1="473.036" x2="261.707" y2="473.036"/>
			
				<line fill="#FFFFFF" stroke="#010101" stroke-width="0.75" stroke-linecap="round" stroke-linejoin="round" stroke-miterlimit="1" x1="92.225" y1="487.185" x2="261.707" y2="487.185"/>
			<rect x="99.602" y="463.421" fill="none" width="158.087" height="7.715"/>
			<text transform="matrix(0.9288 0 0 1 99.603 469.2412)" font-size="8.1589">Referenced SOP Class UID &lt;CDA R2&gt;</text>
			<rect x="99.601" y="476.929" fill="none" width="158.087" height="7.715"/>
			<text transform="matrix(0.9288 0 0 1 99.6025 482.749)" font-size="8.1589">Referenced SOP Instance UID 1.2.55.88.1</text>
			<rect x="99.601" y="490.528" fill="none" width="158.087" height="7.717"/>
			<text transform="matrix(0.9288 0 0 1 99.6025 496.3467)" font-size="8.1589">HL7 Instance Identifier 1.2.55.33.9.5</text>
			<rect x="66.044" y="435.28" fill="none" width="191.953" height="7.717"/>
			<text transform="matrix(0.9288 0 0 1 66.0449 441.0986)" font-size="8.1589">HL7 Structured Document Reference Sequence</text>
			<rect x="81.285" y="449.339" fill="none" width="112.381" height="7.715"/>
			<text transform="matrix(0.9288 0 0 1 81.2866 455.1611)" font-size="8.1589">Item 1</text>
			<line fill="none" stroke="#ED1C24" stroke-width="2" x1="261.707" y1="79.58" x2="261.707" y2="107.678"/>
			<line fill="none" stroke="#ED1C24" stroke-width="2" x1="261.707" y1="209.067" x2="261.707" y2="237.167"/>
			<g>
				<g>
					<path fill="none" stroke="#ED1C24" stroke-width="2" d="M261.905,92.877c10.453,0,19.724,28.966,19.724,64.701
						c0,28.527-11.884,55.266-19.382,63.871"/>
					<circle fill="#ED1C24" cx="262.247" cy="221.448" r="4.512"/>
					<rect x="257.944" y="88.916" fill="#ED1C24" width="7.922" height="7.922"/>
				</g>
			</g>
			<line fill="none" stroke="#ED1C24" stroke-width="2" x1="261.707" y1="121.512" x2="261.707" y2="149.611"/>
			<line fill="none" stroke="#ED1C24" stroke-width="2" x1="261.707" y1="376.468" x2="261.707" y2="404.565"/>
			<g>
				<g>
					<path fill="none" stroke="#ED1C24" stroke-width="2" d="M261.905,389.765c10.453,0,19.724,18.199,19.724,40.648
						c0,17.928-11.523,36.74-19.021,42.146"/>
					<circle fill="#ED1C24" cx="262.607" cy="472.56" r="4.511"/>
					<rect x="257.944" y="385.804" fill="#ED1C24" width="7.922" height="7.922"/>
				</g>
			</g>
			<line fill="none" stroke="#ED1C24" stroke-width="2" x1="261.707" y1="458.737" x2="261.707" y2="486.841"/>
			<line fill="none" stroke="#ED1C24" stroke-width="2" x1="261.707" y1="264.055" x2="261.707" y2="292.153"/>
			<g>
				<g>
					<path fill="none" stroke="#ED1C24" stroke-width="2" d="M261.905,134.808c10.453,0,19.724,32.692,19.724,73.017
						c0,32.196-11.523,59.526-19.021,69.237"/>
					<circle fill="#ED1C24" cx="262.607" cy="277.061" r="4.511"/>
					<rect x="257.944" y="130.847" fill="#ED1C24" width="7.922" height="7.922"/>
				</g>
			</g>
			<ellipse fill="none" stroke="#0DB14B" stroke-width="3" cx="213.783" cy="292.177" rx="47.924" ry="16.473"/>
			<ellipse fill="none" stroke="#0DB14B" stroke-width="3" cx="213.783" cy="486.886" rx="47.924" ry="16.473"/>
			<path fill="none" stroke="#0DB14B" stroke-width="3" d="M165.858,238.163c0-9.096,21.454-16.469,47.922-16.469
				c26.47,0,47.927,7.373,47.927,16.469c0,9.098-21.457,16.471-47.927,16.471C187.312,254.634,165.858,247.261,165.858,238.163z"/>
			<g>
				<g>
					<path fill="none" stroke="#00AEEF" stroke-width="2" d="M270.319,287.932c9.797,0.818,16.915,3.291,16.915,6.212
						c0,2.922-7.119,5.394-16.918,6.212"/>
					<g>
						<polygon fill="#00AEEF" points="271.783,290.388 263.234,287.644 272.01,285.746 						"/>
					</g>
					<g>
						<polygon fill="#00AEEF" points="271.783,297.899 263.234,300.644 272.01,302.542 						"/>
					</g>
				</g>
			</g>
			<g>
				<g>
					<path fill="none" stroke="#00AEEF" stroke-width="2" d="M270.319,484.316c9.797,0.818,16.915,3.29,16.915,6.212
						s-7.119,5.395-16.918,6.213"/>
					<g>
						<polygon fill="#00AEEF" points="271.783,486.773 263.234,484.028 272.01,482.13 						"/>
					</g>
					<g>
						<polygon fill="#00AEEF" points="271.783,494.283 263.234,497.028 272.01,498.927 						"/>
					</g>
				</g>
			</g>
			<polygon fill="#FFF200" stroke="#000000" stroke-linecap="round" stroke-linejoin="round" stroke-miterlimit="1" points="
				295.926,242.69 295.926,232.923 282.367,232.923 282.367,226.522 266.023,237.326 282.367,248.114 282.367,242.69 			"/>
		</g>
	</g>
	<rect x="292.788" y="312.856" fill="none" width="190.125" height="101.5"/>
	<text transform="matrix(1 0 0 1 292.7881 317.855)"><tspan x="0" y="0" fill="#ED1C24" font-size="7">In this Figure,  the original Note 1 was not really a Note, but </tspan><tspan x="0" y="8.4" fill="#ED1C24" font-size="7">rather a statement of what was occuring in the diagram, </tspan><tspan x="0" y="16.8" fill="#ED1C24" font-size="7">therefore I deleted the #, and kept the text.</tspan><tspan x="0" y="33.599" fill="#ED1C24" font-size="7">The original Note #3 applied to only one UID, now I made it </tspan><tspan x="0" y="42" fill="#ED1C24" font-size="7">apply to all three UIDs for clarity.</tspan><tspan x="0" y="58.8" fill="#ED1C24" font-size="7">It was not clear which UID the original Note #4 applied to. I </tspan><tspan x="0" y="67.201" fill="#ED1C24" font-size="7">made it apply exclusively to DICOM Instance 1, Item 2, HL7 </tspan><tspan x="0" y="75.599" fill="#ED1C24" font-size="7">Item 1. To be extra clear, I changed the HL7 Instance </tspan><tspan x="0" y="84" fill="#ED1C24" font-size="7">Identifier in DICOM Instance 2, Item 2, HL7 Item 1 to match </tspan><tspan x="0" y="92.4" fill="#ED1C24" font-size="7">the SOP UID.</tspan></text>
</g>
</svg>
