<?xml version="1.0" encoding="utf-8"?>
<!-- $Source: /home/bbennett/pass/archive/DicomXml/docbook/part03/figures/PS3.3_C.7.6.16-8.svg,v $ -->
<!-- $Date: 2014/05/09 12:27:11 $ -->
<!-- $Revision: 1.2 $ -->

<!DOCTYPE svg PUBLIC "-//W3C//DTD SVG 1.1//EN" "http://www.w3.org/Graphics/SVG/1.1/DTD/svg11.dtd">
<svg version="1.1" id="Layer_1" xmlns="http://www.w3.org/2000/svg" xmlns:xlink="http://www.w3.org/1999/xlink" x="0px" y="0px"
	 width="498.076px" height="402px" viewBox="0 0 498.076 402" enable-background="new 0 0 498.076 402" xml:space="preserve">

<defs>
	<style type="text/css">
	text {
	  font-family: Helvetica, Verdana, ArialUnicodeMS, san-serif
	}
	</style>
</defs>

<g>
   <desc>
	PS 3.3 Part 3: Information Object Definitions
   </desc>
</g>

<g>
	<rect x="1" y="1" fill="#F5EED6" width="496.076" height="400"/>
	<g>
		
			<rect x="104.867" y="124.939" fill="#CCDEF0" stroke="#010101" stroke-width="0.75" stroke-linecap="round" stroke-linejoin="round" stroke-miterlimit="1" width="228.343" height="240.94"/>
		
			<rect x="122.432" y="215.016" fill="#86B2D8" stroke="#010101" stroke-width="0.75" stroke-linecap="round" stroke-linejoin="round" stroke-miterlimit="1" width="210.777" height="76.68"/>
		
			<rect x="139.209" y="230.178" fill="#B2CEE7" stroke="#010101" stroke-width="0.75" stroke-linecap="round" stroke-linejoin="round" stroke-miterlimit="1" width="193.707" height="61.518"/>
		<rect x="130.372" y="218.627" fill="none" width="198.934" height="8.51"/>
		<text transform="matrix(0.9288 0 0 1 130.3716 225.0527)" font-size="9">Item 2 (Frame 2)</text>
		<rect x="149.537" y="233.953" fill="none" width="176.344" height="8.51"/>
		<text transform="matrix(0.9288 0 0 1 149.5371 240.3789)" font-size="9">Frame Pixel Shift Sequence (0028,9415)</text>
		
			<rect x="155.876" y="245.297" fill="#86B2D8" stroke="#010101" stroke-width="0.75" stroke-linecap="round" stroke-linejoin="round" stroke-miterlimit="1" width="177.333" height="46.398"/>
		<rect x="166.349" y="249.459" fill="none" width="123.964" height="8.51"/>
		<text transform="matrix(0.9288 0 0 1 166.3486 255.8945)" font-size="9">Item 1</text>
		
			<rect x="173.209" y="260.699" fill="#FFFFFF" stroke="#010101" stroke-width="0.75" stroke-linecap="round" stroke-linejoin="round" stroke-miterlimit="1" width="159.707" height="30.779"/>
		
			<line fill="#FFFFFF" stroke="#010101" stroke-width="0.75" stroke-linecap="round" stroke-linejoin="round" stroke-miterlimit="1" x1="173.209" y1="276.09" x2="332.917" y2="276.09"/>
		<rect x="181.349" y="265.475" fill="none" width="148.631" height="8.51"/>
		<text transform="matrix(0.9288 0 0 1 181.3486 271.9102)" font-size="9">Subtraction Item ID (0028,9416)</text>
		<rect x="181.349" y="279.475" fill="none" width="147.298" height="8.51"/>
		<text transform="matrix(0.9288 0 0 1 181.3486 285.9102)" font-size="9">Mask Sub-Pixel Shift (0028,6114)</text>
		
			<rect x="122.432" y="289.412" fill="#86B2D8" stroke="#010101" stroke-width="0.75" stroke-linecap="round" stroke-linejoin="round" stroke-miterlimit="1" width="210.777" height="76.68"/>
		
			<rect x="139.209" y="304.574" fill="#B2CEE7" stroke="#010101" stroke-width="0.75" stroke-linecap="round" stroke-linejoin="round" stroke-miterlimit="1" width="193.707" height="61.518"/>
		<rect x="130.372" y="293.023" fill="none" width="198.934" height="8.51"/>
		<text transform="matrix(0.9288 0 0 1 130.3716 299.4492)" font-size="9">Item 3 (Frame 3)</text>
		<rect x="149.537" y="308.35" fill="none" width="176.344" height="8.51"/>
		<text transform="matrix(0.9288 0 0 1 149.5371 314.7754)" font-size="9">Frame Pixel Shift Sequence (0028,9415)</text>
		
			<rect x="155.876" y="319.693" fill="#86B2D8" stroke="#010101" stroke-width="0.75" stroke-linecap="round" stroke-linejoin="round" stroke-miterlimit="1" width="177.333" height="46.398"/>
		<rect x="166.349" y="323.855" fill="none" width="123.964" height="8.51"/>
		<text transform="matrix(0.9288 0 0 1 166.3486 330.291)" font-size="9">Item 1</text>
		
			<rect x="173.209" y="335.096" fill="#FFFFFF" stroke="#010101" stroke-width="0.75" stroke-linecap="round" stroke-linejoin="round" stroke-miterlimit="1" width="159.707" height="30.779"/>
		
			<line fill="#FFFFFF" stroke="#010101" stroke-width="0.75" stroke-linecap="round" stroke-linejoin="round" stroke-miterlimit="1" x1="173.209" y1="350.486" x2="332.917" y2="350.486"/>
		<rect x="181.349" y="339.871" fill="none" width="148.631" height="8.51"/>
		<text transform="matrix(0.9288 0 0 1 181.3486 346.3066)" font-size="9">Subtraction Item ID (0028,9416)</text>
		<rect x="181.349" y="353.871" fill="none" width="147.298" height="8.51"/>
		<text transform="matrix(0.9288 0 0 1 181.3486 360.3066)" font-size="9">Mask Sub-Pixel Shift (0028,6114)</text>
		
			<line fill="#4F8ABE" stroke="#005695" stroke-linecap="round" stroke-linejoin="round" stroke-miterlimit="1" stroke-dasharray="3" x1="333.209" y1="384.926" x2="333.209" y2="17.075"/>
		
			<line fill="#4F8ABE" stroke="#005695" stroke-linecap="round" stroke-linejoin="round" stroke-miterlimit="1" stroke-dasharray="3" x1="104.867" y1="384.926" x2="104.867" y2="17.075"/>
		<rect x="141.082" y="20.517" fill="none" width="117.313" height="8.51"/>
		<text transform="matrix(0.9288 0 0 1 170.4678 26.9448)" font-size="9">Other Attributes</text>
		<rect x="141.082" y="376.307" fill="none" width="117.313" height="8.51"/>
		<text transform="matrix(0.9288 0 0 1 170.4678 382.7559)" font-size="9">Other Attributes</text>
		<rect x="124.151" y="129.568" fill="none" width="205.154" height="8.51"/>
		<text transform="matrix(0.9288 0 0 1 124.1509 135.9932)" font-size="9">Per-Frame Functional Groups Sequence (5200, 9230) </text>
		
			<rect x="104.867" y="33.421" fill="#CCDEF0" stroke="#010101" stroke-width="0.75" stroke-linecap="round" stroke-linejoin="round" stroke-miterlimit="1" width="228.343" height="91.35"/>
		<rect x="124.151" y="38.047" fill="none" width="205.154" height="8.51"/>
		<text transform="matrix(0.9288 0 0 1 124.1509 44.4785)" font-size="9">Mask Subtraction Sequence (0028,6100)</text>
		
			<rect x="122.432" y="48.058" fill="#86B2D8" stroke="#010101" stroke-width="0.75" stroke-linecap="round" stroke-linejoin="round" stroke-miterlimit="1" width="210.777" height="76.678"/>
		<rect x="130.372" y="51.669" fill="none" width="198.934" height="8.511"/>
		<text transform="matrix(0.9288 0 0 1 130.3716 58.1016)" font-size="9">Item 1</text>
		
			<rect x="139.997" y="63.218" fill="#FFFFFF" stroke="#010101" stroke-width="0.75" stroke-linecap="round" stroke-linejoin="round" stroke-miterlimit="1" width="193.213" height="61.347"/>
		
			<line fill="#FFFFFF" stroke="#010101" stroke-width="0.75" stroke-linecap="round" stroke-linejoin="round" stroke-miterlimit="1" x1="139.997" y1="109.228" x2="333.209" y2="109.228"/>
		
			<line fill="#FFFFFF" stroke="#010101" stroke-width="0.75" stroke-linecap="round" stroke-linejoin="round" stroke-miterlimit="1" x1="139.997" y1="93.891" x2="333.209" y2="93.891"/>
		
			<line fill="#FFFFFF" stroke="#010101" stroke-width="0.75" stroke-linecap="round" stroke-linejoin="round" stroke-miterlimit="1" x1="139.997" y1="78.554" x2="333.209" y2="78.554"/>
		<rect x="149.537" y="66.996" fill="none" width="176.344" height="8.51"/>
		<text transform="matrix(0.9288 0 0 1 149.5371 73.4282)" font-size="9">Mask Operation (0028,6101)</text>
		<rect x="149.537" y="82.502" fill="none" width="176.775" height="8.51"/>
		<text transform="matrix(0.9288 0 0 1 149.5371 88.9346)" font-size="9">Applicable Frame Range (0028,6102)</text>
		<rect x="149.537" y="96.894" fill="none" width="176.775" height="8.51"/>
		<text transform="matrix(0.9288 0 0 1 149.5371 103.3188)" font-size="9">Mask Frame Numbers (0028,6100)</text>
		<rect x="149.537" y="113.517" fill="none" width="176.775" height="8.51"/>
		<text transform="matrix(0.9288 0 0 1 149.5371 119.9502)" font-size="9">Subtraction Item ID (0028,9416)</text>
		<rect x="337.538" y="66.996" fill="none" width="55.536" height="8.51"/>
		<text transform="matrix(0.9288 0 0 1 337.5376 73.4375)" font-size="9">= AVG_SUB</text>
		<rect x="337.538" y="82.502" fill="none" width="55.672" height="8.51"/>
		<text transform="matrix(0.9288 0 0 1 337.5376 88.9434)" font-size="9">= 2\3</text>
		<rect x="337.538" y="96.894" fill="none" width="55.672" height="8.51"/>
		<text transform="matrix(0.9288 0 0 1 337.5376 103.3276)" font-size="9">= 1</text>
		<rect x="337.538" y="113.517" fill="none" width="55.672" height="8.51"/>
		<text transform="matrix(0.9288 0 0 1 337.5376 119.959)" font-size="9">= 100</text>
		<rect x="337.538" y="187.663" fill="none" width="55.536" height="8.511"/>
		<text transform="matrix(0.9288 0 0 1 337.5376 194.0938)" font-size="9">= 100</text>
		<rect x="337.538" y="203.17" fill="none" width="55.672" height="8.51"/>
		<text transform="matrix(0.9288 0 0 1 337.5376 209.5996)" font-size="9">= 0.0\0.0</text>
		<rect x="337.538" y="263.664" fill="none" width="55.536" height="8.51"/>
		<text transform="matrix(0.9288 0 0 1 337.5376 270.0947)" font-size="9">= 100</text>
		<rect x="337.538" y="279.17" fill="none" width="55.672" height="8.51"/>
		<text transform="matrix(0.9288 0 0 1 337.5376 285.6006)" font-size="9">= 1.3\2.4</text>
		<rect x="337.538" y="338.996" fill="none" width="55.536" height="8.51"/>
		<text transform="matrix(0.9288 0 0 1 337.5376 345.4277)" font-size="9">= 100</text>
		<rect x="337.538" y="354.502" fill="none" width="55.672" height="8.51"/>
		<text transform="matrix(0.9288 0 0 1 337.5376 360.9336)" font-size="9">= 1.9\3.0</text>
		
			<rect x="122.432" y="138.746" fill="#86B2D8" stroke="#010101" stroke-width="0.75" stroke-linecap="round" stroke-linejoin="round" stroke-miterlimit="1" width="210.777" height="76.678"/>
		
			<rect x="139.209" y="153.907" fill="#B2CEE7" stroke="#010101" stroke-width="0.75" stroke-linecap="round" stroke-linejoin="round" stroke-miterlimit="1" width="193.707" height="61.517"/>
		<rect x="130.372" y="142.357" fill="none" width="198.934" height="8.512"/>
		<text transform="matrix(0.9288 0 0 1 130.3716 148.7832)" font-size="9">Item 1 (Frame 1)</text>
		<rect x="149.537" y="157.684" fill="none" width="176.344" height="8.511"/>
		<text transform="matrix(0.9288 0 0 1 149.5371 164.1099)" font-size="9">Frame Pixel Shift Sequence (0028,9415)</text>
		
			<rect x="155.876" y="169.027" fill="#86B2D8" stroke="#010101" stroke-width="0.75" stroke-linecap="round" stroke-linejoin="round" stroke-miterlimit="1" width="177.333" height="46.397"/>
		<rect x="166.349" y="173.191" fill="none" width="123.964" height="8.51"/>
		<text transform="matrix(0.9288 0 0 1 166.3486 179.625)" font-size="9">Item 1</text>
		
			<rect x="173.209" y="184.429" fill="#FFFFFF" stroke="#010101" stroke-width="0.75" stroke-linecap="round" stroke-linejoin="round" stroke-miterlimit="1" width="159.707" height="30.78"/>
		
			<line fill="#FFFFFF" stroke="#010101" stroke-width="0.75" stroke-linecap="round" stroke-linejoin="round" stroke-miterlimit="1" x1="173.209" y1="199.819" x2="332.917" y2="199.819"/>
		<rect x="181.349" y="189.207" fill="none" width="148.631" height="8.51"/>
		<text transform="matrix(0.9288 0 0 1 181.3486 195.6406)" font-size="9">Subtraction Item ID (0028,9416)</text>
		<rect x="181.349" y="203.207" fill="none" width="147.298" height="8.51"/>
		<text transform="matrix(0.9288 0 0 1 181.3486 209.6406)" font-size="9">Mask Sub-Pixel Shift (0028,6114)</text>
	</g>
</g>
</svg>
