<?xml version="1.0" encoding="utf-8"?>
<!-- $Source: /home/bbennett/pass/archive/DicomXml/docbook/part03/figures/PS3.3_7.4a.svg,v $ -->
<!-- $Date: 2014/05/09 12:30:19 $ -->
<!-- $Revision: 1.3 $ -->

<!DOCTYPE svg PUBLIC "-//W3C//DTD SVG 1.1//EN" "http://www.w3.org/Graphics/SVG/1.1/DTD/svg11.dtd">
<svg version="1.1" id="Layer_1" xmlns="http://www.w3.org/2000/svg" xmlns:xlink="http://www.w3.org/1999/xlink" x="0px" y="0px"
	 width="497.085px" height="534.942px" viewBox="0 0 497.085 534.942" enable-background="new 0 0 497.085 534.942"
	 xml:space="preserve">

<defs>
	<style type="text/css">
	text {
	  font-family: Helvetica, Verdana, ArialUnicodeMS, san-serif
	}
	</style>
</defs>

<g>
   <desc>
	PS 3.3 Part 3: Information Object Definitions
   </desc>
</g>

<g>
	<rect x="1" y="1" fill="#F5EED6" width="495.085" height="532.942"/>
	
		<line fill="#4F8ABE" stroke="#005695" stroke-width="2" stroke-linecap="round" stroke-miterlimit="1" x1="182.055" y1="469.925" x2="182.055" y2="481.222"/>
	<path fill="#005695" d="M183.284,484.054c0.6-1.982,1.152-3.271,1.791-4.861h-6.054c0.271,0.568,1.19,2.879,1.79,4.861
		c0.642,2.123,1.08,4.047,1.236,5.295C182.204,488.101,182.644,486.177,183.284,484.054z"/>
	<polyline fill="none" stroke="#005695" stroke-width="2" stroke-linecap="round" stroke-miterlimit="1" points="119.113,196.973 
		119.113,207.596 136.775,207.596 162.72,207.596 162.72,111.808 189.53,111.808 189.53,118.11 	"/>
	<path fill="#005695" d="M190.761,120.944c0.6-1.984,1.151-3.273,1.79-4.865h-6.054c0.271,0.569,1.191,2.881,1.791,4.865
		c0.641,2.123,1.08,4.049,1.236,5.298C189.681,124.993,190.12,123.067,190.761,120.944z"/>
	<polyline fill="none" stroke="#005695" stroke-width="2" stroke-linecap="round" stroke-miterlimit="1" points="211.024,196.973 
		211.024,207.596 231.567,207.596 260.395,207.596 260.395,111.808 289.364,111.808 289.364,118.11 	"/>
	<path fill="#005695" d="M290.594,120.944c0.6-1.984,1.151-3.273,1.79-4.865h-6.053c0.271,0.569,1.191,2.881,1.79,4.865
		c0.642,2.123,1.08,4.049,1.236,5.298C289.515,124.993,289.953,123.067,290.594,120.944z"/>
	
		<line fill="#4F8ABE" stroke="#005695" stroke-width="2" stroke-linecap="round" stroke-miterlimit="1" x1="211.466" y1="149.622" x2="211.466" y2="167.984"/>
	<path fill="#005695" d="M212.694,170.819c0.6-1.984,1.152-3.274,1.791-4.865h-6.053c0.27,0.569,1.189,2.881,1.789,4.865
		c0.643,2.123,1.08,4.049,1.236,5.297C211.614,174.868,212.054,172.942,212.694,170.819z"/>
	<polyline fill="none" stroke="#005695" stroke-width="2" stroke-linecap="round" stroke-miterlimit="1" points="159.002,262.83 
		317,262.83 317,273.686 	"/>
	<path fill="#005695" d="M318.229,276.52c0.6-1.984,1.151-3.273,1.79-4.865h-6.053c0.271,0.569,1.191,2.881,1.79,4.865
		c0.642,2.123,1.08,4.049,1.236,5.297C317.15,280.568,317.589,278.643,318.229,276.52z"/>
	<polyline fill="none" stroke="#005695" stroke-width="2" stroke-linecap="round" stroke-miterlimit="1" points="294.479,262.83 
		433.291,262.83 433.291,270.02 	"/>
	<path fill="#005695" d="M434.521,272.854c0.6-1.984,1.151-3.273,1.79-4.865h-6.053c0.271,0.569,1.191,2.881,1.79,4.865
		c0.642,2.123,1.08,4.049,1.236,5.297C433.441,276.902,433.88,274.977,434.521,272.854z"/>
	<polyline fill="none" stroke="#005695" stroke-width="2" stroke-linecap="round" stroke-miterlimit="1" points="159.55,252.206 
		159.55,262.83 47.073,262.83 47.073,275.781 	"/>
	<path fill="#005695" d="M48.304,278.615c0.599-1.984,1.151-3.273,1.79-4.865H44.04c0.271,0.569,1.191,2.881,1.79,4.865
		c0.642,2.123,1.08,4.049,1.237,5.297C47.224,282.664,47.662,280.738,48.304,278.615z"/>
	<g>
		<text transform="matrix(1 0 0 1 481.9336 284.9658)" font-size="9">1</text>
	</g>
	<g>
		<text transform="matrix(1 0 0 1 481.9346 311.2568)" font-size="9">1</text>
	</g>
	
		<rect x="110.179" y="233.487" fill="#86B2D8" stroke="#010101" stroke-width="0.75" stroke-linecap="round" stroke-linejoin="round" stroke-miterlimit="1" width="99" height="22.5"/>
	<g>
		<text transform="matrix(1 0 0 1 115.9004 247.2383)" font-size="9">Requested Procedure</text>
	</g>
	<polyline fill="none" stroke="#005695" stroke-width="2" stroke-linecap="round" stroke-miterlimit="1" points="159.655,64.717 
		159.655,75.341 180.198,75.341 211.347,75.341 211.347,83.804 	"/>
	<path fill="#005695" d="M212.577,86.638c0.599-1.983,1.15-3.273,1.789-4.864h-6.053c0.271,0.569,1.191,2.881,1.79,4.864
		c0.642,2.124,1.08,4.049,1.237,5.298C211.497,90.687,211.936,88.762,212.577,86.638z"/>
	<polyline fill="none" stroke="#005695" stroke-width="2" stroke-linecap="round" stroke-miterlimit="1" points="46.404,195.038 
		46.404,217.978 137.347,217.978 137.347,225 	"/>
	<path fill="#005695" d="M138.576,227.834c0.6-1.983,1.151-3.273,1.79-4.864h-6.053c0.271,0.569,1.19,2.881,1.79,4.864
		c0.642,2.124,1.08,4.049,1.236,5.298C137.496,231.883,137.936,229.958,138.576,227.834z"/>
	<polyline fill="none" stroke="#005695" stroke-width="2" stroke-linecap="round" stroke-miterlimit="1" points="308.787,192.157 
		308.787,217.978 181.757,217.978 181.757,225 	"/>
	<path fill="#005695" d="M180.526,227.834c-0.599-1.983-1.15-3.273-1.789-4.864h6.053c-0.271,0.569-1.191,2.881-1.79,4.864
		c-0.642,2.124-1.08,4.049-1.237,5.298C181.606,231.883,181.168,229.958,180.526,227.834z"/>
	<polyline fill="none" stroke="#005695" stroke-width="2" stroke-linecap="round" stroke-miterlimit="1" points="195.975,75.341 
		281.132,75.341 281.33,75.341 308.157,75.341 308.157,83.804 	"/>
	<path fill="#005695" d="M309.387,86.638c0.6-1.983,1.151-3.273,1.79-4.864h-6.053c0.271,0.569,1.191,2.881,1.79,4.864
		c0.642,2.124,1.08,4.049,1.236,5.298C308.308,90.687,308.746,88.762,309.387,86.638z"/>
	<polyline fill="none" stroke="#005695" stroke-width="2" stroke-linecap="round" stroke-miterlimit="1" points="303.257,75.341 
		381.937,75.341 382.135,75.341 408.962,75.341 408.962,81.644 	"/>
	<path fill="#005695" d="M410.191,84.478c0.6-1.984,1.151-3.273,1.79-4.865h-6.053c0.271,0.569,1.191,2.881,1.79,4.865
		c0.642,2.123,1.08,4.049,1.236,5.298C409.112,88.526,409.551,86.601,410.191,84.478z"/>
	<polyline fill="none" stroke="#005695" stroke-width="2" stroke-linecap="round" stroke-miterlimit="1" points="159.55,64.717 
		159.55,75.341 84.092,75.341 84.092,83.804 	"/>
	<path fill="#005695" d="M85.321,86.638c0.6-1.983,1.151-3.273,1.79-4.864h-6.053c0.271,0.569,1.19,2.881,1.79,4.864
		c0.642,2.124,1.08,4.049,1.236,5.298C84.241,90.687,84.681,88.762,85.321,86.638z"/>
	<polyline fill="none" stroke="#005695" stroke-width="2" stroke-linecap="round" stroke-miterlimit="1" points="83.197,149.842 
		83.197,159.024 88.198,159.024 119.347,159.024 119.347,167.488 	"/>
	<path fill="#005695" d="M120.576,170.322c0.6-1.984,1.151-3.273,1.79-4.865h-6.053c0.271,0.569,1.19,2.881,1.79,4.865
		c0.642,2.123,1.08,4.049,1.236,5.298C119.496,174.371,119.936,172.445,120.576,170.322z"/>
	<polyline fill="none" stroke="#005695" stroke-width="2" stroke-linecap="round" stroke-miterlimit="1" points="83.092,149.842 
		83.092,159.024 45.806,159.024 45.806,168.929 	"/>
	<path fill="#005695" d="M47.035,171.763c0.6-1.984,1.151-3.273,1.79-4.865h-6.053c0.271,0.569,1.19,2.881,1.79,4.865
		c0.642,2.123,1.08,4.049,1.236,5.298C45.955,175.812,46.395,173.886,47.035,171.763z"/>
	<g>
		<text transform="matrix(1 0 0 1 103.4678 92.4473)" font-size="9">1</text>
	</g>
	<g>
		<text transform="matrix(1 0 0 1 103.4678 111.5723)" font-size="9">0-n</text>
	</g>
	<g>
		<text transform="matrix(1 0 0 1 231.1279 92.4473)" font-size="9">1</text>
	</g>
	<g>
		<text transform="matrix(1 0 0 1 326.835 92.4473)" font-size="9">1</text>
	</g>
	
		<line fill="#4F8ABE" stroke="#005695" stroke-width="2" stroke-linecap="round" stroke-miterlimit="1" x1="211.54" y1="103.288" x2="211.54" y2="118.904"/>
	<path fill="#005695" d="M212.77,121.738c0.6-1.984,1.152-3.273,1.791-4.865h-6.054c0.271,0.569,1.19,2.881,1.79,4.865
		c0.642,2.123,1.08,4.049,1.236,5.298C211.689,125.787,212.129,123.861,212.77,121.738z"/>
	
		<rect x="171.031" y="127.419" fill="#86B2D8" stroke="#010101" stroke-width="0.75" stroke-linecap="round" stroke-linejoin="round" stroke-miterlimit="1" width="80.999" height="22.5"/>
	<g>
		<text transform="matrix(1 0 0 1 179.0127 141.168)" font-size="9">Service Episode</text>
	</g>
	
		<line fill="#4F8ABE" stroke="#005695" stroke-width="2" stroke-linecap="round" stroke-miterlimit="1" x1="83.606" y1="103.422" x2="83.606" y2="118.904"/>
	<path fill="#005695" d="M84.836,121.738c0.6-1.984,1.152-3.273,1.791-4.865h-6.054c0.271,0.569,1.19,2.881,1.79,4.865
		c0.642,2.123,1.08,4.049,1.236,5.298C83.756,125.787,84.195,123.861,84.836,121.738z"/>
	
		<line fill="#4F8ABE" stroke="#005695" stroke-width="2" stroke-linecap="round" stroke-miterlimit="1" x1="432.703" y1="375.274" x2="432.703" y2="392.917"/>
	<path fill="#005695" d="M433.933,395.751c0.6-1.984,1.152-3.273,1.791-4.865h-6.054c0.271,0.568,1.19,2.881,1.79,4.865
		c0.642,2.123,1.08,4.049,1.236,5.297C432.853,399.8,433.292,397.874,433.933,395.751z"/>
	
		<line fill="#4F8ABE" stroke="#005695" stroke-width="2" stroke-linecap="round" stroke-miterlimit="1" x1="159.569" y1="262.227" x2="159.569" y2="276.023"/>
	<path fill="#005695" d="M160.799,278.857c0.6-1.984,1.151-3.273,1.79-4.865h-6.053c0.271,0.569,1.19,2.881,1.79,4.865
		c0.642,2.123,1.08,4.049,1.236,5.297C159.719,282.906,160.158,280.98,160.799,278.857z"/>
	
		<rect x="117.682" y="45.586" fill="#86B2D8" stroke="#010101" stroke-width="0.75" stroke-linecap="round" stroke-linejoin="round" stroke-miterlimit="1" width="84.003" height="22.5"/>
	<g>
		<text transform="matrix(1 0 0 1 140.999 60.1699)" font-size="12">Patient</text>
	</g>
	
		<polygon fill="#CCDEF0" stroke="#010101" stroke-width="0.75" stroke-linecap="round" stroke-linejoin="round" stroke-miterlimit="1" points="
		241.788,413.974 277.73,402.896 313.785,414.134 313.785,414.159 277.73,425.396 	"/>
	<g>
		<text transform="matrix(1 0 0 1 259.7803 416.6494)" font-size="9">results in</text>
	</g>
	<g>
		<text transform="matrix(1 0 0 1 443.9678 93.2178)" font-size="9">1</text>
	</g>
	<g>
		<text transform="matrix(1 0 0 1 443.9678 115.2227)" font-size="9">0-n</text>
	</g>
	
		<line fill="#4F8ABE" stroke="#005695" stroke-width="2" stroke-linecap="round" stroke-miterlimit="1" x1="408.885" y1="112.115" x2="408.885" y2="121.115"/>
	<path fill="#005695" d="M410.114,123.95c0.6-1.984,1.152-3.274,1.791-4.865h-6.054c0.271,0.569,1.19,2.881,1.79,4.865
		c0.642,2.123,1.08,4.049,1.236,5.297C409.034,127.999,409.474,126.073,410.114,123.95z"/>
	
		<rect x="368.313" y="127.419" fill="#86B2D8" stroke="#010101" stroke-width="0.75" stroke-linecap="round" stroke-linejoin="round" stroke-miterlimit="1" width="81" height="22.5"/>
	<g>
		<text transform="matrix(1 0 0 1 372.5537 141.1689)" font-size="9">Clinical Document</text>
	</g>
	
		<polygon fill="#CCDEF0" stroke="#010101" stroke-width="0.75" stroke-linecap="round" stroke-linejoin="round" stroke-miterlimit="1" points="
		359.412,101.469 408.836,90.392 458.408,101.629 458.408,101.654 408.836,112.892 	"/>
	<g>
		<text transform="matrix(1 0 0 1 385.001 104.1416)" font-size="9">is subject of</text>
	</g>
	
		<polygon fill="#CCDEF0" stroke="#010101" stroke-width="0.75" stroke-linecap="round" stroke-linejoin="round" stroke-miterlimit="1" points="
		83.177,185.909 119.124,174.832 155.177,186.069 155.177,186.095 119.124,197.332 	"/>
	<g>
		<text transform="matrix(1 0 0 1 105.9229 184.5781)"><tspan x="0" y="0" font-size="9">occurs</tspan><tspan x="0.745" y="6" font-size="9">during</tspan></text>
	</g>
	
		<polygon fill="#CCDEF0" stroke="#010101" stroke-width="0.75" stroke-linecap="round" stroke-linejoin="round" stroke-miterlimit="1" points="
		52.258,99.326 83.712,92.68 115.258,99.421 115.258,99.438 83.712,106.18 	"/>
	<g>
		<text transform="matrix(1 0 0 1 76.5024 101.9297)" font-size="9">has</text>
	</g>
	
		<line fill="none" stroke="#005695" stroke-width="2" stroke-linecap="round" stroke-miterlimit="1" x1="309.092" y1="149.9" x2="309.092" y2="169.887"/>
	<path fill="#005695" d="M310.322,172.721c0.599-1.983,1.15-3.273,1.789-4.864h-6.053c0.271,0.569,1.191,2.881,1.79,4.864
		c0.642,2.124,1.08,4.049,1.237,5.298C309.242,176.77,309.681,174.845,310.322,172.721z"/>
	<g>
		<text transform="matrix(1 0 0 1 329.1885 177.2012)" font-size="9">1</text>
	</g>
	<g>
		<text transform="matrix(1 0 0 1 329.1875 199.2061)" font-size="9">1-n</text>
	</g>
	
		<polygon fill="#CCDEF0" stroke="#010101" stroke-width="0.75" stroke-linecap="round" stroke-linejoin="round" stroke-miterlimit="1" points="
		277.258,185.979 308.712,179.332 340.258,186.073 340.258,186.09 308.712,192.832 	"/>
	<g>
		<text transform="matrix(1 0 0 1 301.5029 188.5781)" font-size="9">has</text>
	</g>
	<g>
		<text transform="matrix(1 0 0 1 64.0088 177.2012)" font-size="9">0-n</text>
	</g>
	<g>
		<text transform="matrix(1 0 0 1 64.0088 199.2061)" font-size="9">0-n</text>
	</g>
	<g>
		<text transform="matrix(1 0 0 1 140.2158 177.2012)" font-size="9">0-n</text>
	</g>
	<g>
		<text transform="matrix(1 0 0 1 140.2168 199.2061)" font-size="9">1</text>
	</g>
	<g>
		<text transform="matrix(1 0 0 1 161.6562 406.457)" font-size="9">0-n</text>
	</g>
	<g>
		<text transform="matrix(1 0 0 1 161.6562 428.4619)" font-size="9">1-n</text>
	</g>
	<g>
		<text transform="matrix(1 0 0 1 68.3291 286.8896)" font-size="9">1-n</text>
	</g>
	<g>
		<text transform="matrix(1 0 0 1 68.3291 308.8945)" font-size="9">1</text>
	</g>
	<g>
		<text transform="matrix(1 0 0 1 184.8311 286.8896)" font-size="9">0-n</text>
	</g>
	<g>
		<text transform="matrix(1 0 0 1 184.8311 308.8945)" font-size="9">0-n</text>
	</g>
	<g>
		<text transform="matrix(1 0 0 1 354.833 286.8896)" font-size="9">1</text>
	</g>
	<g>
		<text transform="matrix(1 0 0 1 354.8311 308.8945)" font-size="9">1-n</text>
	</g>
	<g>
		<text transform="matrix(1 0 0 1 241.4956 177.2012)" font-size="9">1</text>
	</g>
	<g>
		<text transform="matrix(1 0 0 1 241.4956 199.2061)" font-size="9">0-n</text>
	</g>
	<g>
		<text transform="matrix(1 0 0 1 205.0327 449.9521)" font-size="9">1</text>
	</g>
	<g>
		<text transform="matrix(1 0 0 1 205.0327 471.957)" font-size="9">0-n</text>
	</g>
	
		<polygon fill="#CCDEF0" stroke="#010101" stroke-width="0.75" stroke-linecap="round" stroke-linejoin="round" stroke-miterlimit="1" points="
		14.641,185.944 46.095,177.082 77.641,186.07 77.641,186.093 46.095,195.082 	"/>
	<g>
		<text transform="matrix(1 0 0 1 29.6304 188.5781)" font-size="9">includes</text>
	</g>
	<g>
		<text transform="matrix(1 0 0 1 299.1035 405.6885)" font-size="9">0-n</text>
	</g>
	<g>
		<text transform="matrix(1 0 0 1 299.1025 427.6934)" font-size="9">0-n</text>
	</g>
	<g>
		<text transform="matrix(1 0 0 1 456.2236 404.9688)" font-size="9">1</text>
	</g>
	<g>
		<text transform="matrix(1 0 0 1 456.2236 426.9736)" font-size="9">0-n</text>
	</g>
	<g>
		<text transform="matrix(1 0 0 1 378.8281 405.6885)" font-size="9">1</text>
	</g>
	<g>
		<text transform="matrix(1 0 0 1 378.8271 427.6934)" font-size="9">1</text>
	</g>
	<g>
		<text transform="matrix(1 0 0 1 427.5752 489.8447)" font-size="9">1</text>
	</g>
	<g>
		<text transform="matrix(1 0 0 1 427.5752 511.8486)" font-size="9">1</text>
	</g>
	
		<line fill="none" stroke="#005695" stroke-width="2" stroke-linecap="round" stroke-miterlimit="1" x1="397.317" y1="471.601" x2="397.317" y2="481.505"/>
	<path fill="#005695" d="M398.548,484.339c0.599-1.984,1.15-3.273,1.789-4.865h-6.053c0.271,0.568,1.191,2.881,1.79,4.865
		c0.642,2.123,1.08,4.049,1.237,5.297C397.468,488.388,397.906,486.462,398.548,484.339z"/>
	<polyline fill="none" stroke="#005695" stroke-width="2" stroke-linecap="round" stroke-miterlimit="1" points="317.151,375.853 
		317.151,385.036 323.016,385.036 354.164,385.036 354.164,393.499 	"/>
	<path fill="#005695" d="M355.394,396.333c0.6-1.982,1.151-3.273,1.79-4.865h-6.053c0.271,0.57,1.191,2.883,1.79,4.865
		c0.642,2.125,1.08,4.049,1.236,5.299C354.314,400.382,354.753,398.458,355.394,396.333z"/>
	<polyline fill="none" stroke="#005695" stroke-width="2" stroke-linecap="round" stroke-miterlimit="1" points="317.19,375.853 
		317.19,385.036 277.744,385.036 277.744,394.94 	"/>
	<path fill="#005695" d="M278.975,397.774c0.599-1.984,1.15-3.273,1.789-4.865h-6.053c0.271,0.57,1.191,2.881,1.79,4.865
		c0.642,2.123,1.08,4.049,1.237,5.297C277.895,401.823,278.333,399.897,278.975,397.774z"/>
	<polyline fill="none" stroke="#005695" stroke-width="2" stroke-linecap="round" stroke-miterlimit="1" points="354.182,423.583 
		354.182,432.767 360.046,432.767 391.194,432.767 391.194,441.229 	"/>
	<path fill="#005695" d="M392.424,444.063c0.6-1.982,1.151-3.273,1.79-4.865h-6.053c0.271,0.57,1.191,2.883,1.79,4.865
		c0.642,2.125,1.08,4.049,1.236,5.299C391.345,448.112,391.783,446.188,392.424,444.063z"/>
	<polyline fill="none" stroke="#005695" stroke-width="2" stroke-linecap="round" stroke-miterlimit="1" points="432.671,424.304 
		432.671,432.048 403.084,432.048 403.084,441.952 	"/>
	<path fill="#005695" d="M404.314,444.786c0.599-1.984,1.15-3.273,1.789-4.865h-6.053c0.271,0.568,1.191,2.881,1.79,4.865
		c0.642,2.123,1.08,4.049,1.237,5.297C403.234,448.835,403.673,446.909,404.314,444.786z"/>
	
		<line fill="none" stroke="#005695" stroke-width="2" stroke-linecap="round" stroke-miterlimit="1" x1="182.056" y1="373.878" x2="182.056" y2="439.923"/>
	<path fill="#005695" d="M183.285,442.757c0.599-1.984,1.151-3.275,1.79-4.867h-6.053c0.27,0.57,1.19,2.883,1.789,4.867
		c0.643,2.123,1.08,4.049,1.237,5.299C182.205,446.806,182.644,444.88,183.285,442.757z"/>
	
		<polygon fill="#CCDEF0" stroke="#010101" stroke-width="0.75" stroke-linecap="round" stroke-linejoin="round" stroke-miterlimit="1" points="
		146.048,459.259 181.995,470.335 218.048,459.099 218.048,459.073 181.995,447.835 	"/>
	<g>
		<text transform="matrix(1 0 0 1 167.292 460.8857)" font-size="9">creates</text>
	</g>
	
		<rect x="159.548" y="489.173" fill="#86B2D8" stroke="#010101" stroke-width="0.75" stroke-linecap="round" stroke-linejoin="round" stroke-miterlimit="1" width="45" height="22.5"/>
	
		<rect x="52.045" y="127.419" fill="#86B2D8" stroke="#010101" stroke-width="0.75" stroke-linecap="round" stroke-linejoin="round" stroke-miterlimit="1" width="63" height="22.5"/>
	<g>
		<text transform="matrix(1 0 0 1 75.0439 141.168)" font-size="9">Visit</text>
	</g>
	<g>
		<text transform="matrix(1 0 0 1 169.2935 502.9229)" font-size="9">Series</text>
	</g>
	<g>
		<text transform="matrix(1 0 0 1 231.1279 111.5723)" font-size="9">0-n</text>
	</g>
	<g>
		<text transform="matrix(1 0 0 1 326.835 111.5723)" font-size="9">0-n</text>
	</g>
	
		<line fill="#4F8ABE" stroke="#005695" stroke-width="2" stroke-linecap="round" stroke-miterlimit="1" x1="308.492" y1="103.288" x2="308.492" y2="118.904"/>
	<path fill="#005695" d="M309.722,121.738c0.6-1.984,1.152-3.273,1.791-4.865h-6.054c0.271,0.569,1.19,2.881,1.79,4.865
		c0.642,2.123,1.08,4.049,1.236,5.298C308.642,125.787,309.081,123.861,309.722,121.738z"/>
	
		<rect x="267.983" y="127.419" fill="#86B2D8" stroke="#010101" stroke-width="0.75" stroke-linecap="round" stroke-linejoin="round" stroke-miterlimit="1" width="81" height="22.5"/>
	<g>
		<text transform="matrix(1 0 0 1 292.4736 135.7998)"><tspan x="0" y="0" font-size="9">Imaging</tspan><tspan x="-17.006" y="8.8" font-size="9">Service Request</tspan></text>
	</g>
	
		<polygon fill="#CCDEF0" stroke="#010101" stroke-width="0.75" stroke-linecap="round" stroke-linejoin="round" stroke-miterlimit="1" points="
		170.65,185.872 211.091,172.579 251.649,186.064 251.649,186.095 211.091,199.579 	"/>
	<g>
		<text transform="matrix(1 0 0 1 185.5796 188.5781)" font-size="9">is context for</text>
	</g>
	<path fill="#005695" d="M197.323,336.201c0.6-1.983,1.152-3.273,1.791-4.864h-6.054c0.271,0.569,1.19,2.881,1.79,4.864
		c0.642,2.124,1.08,4.049,1.236,5.299C196.243,340.25,196.683,338.325,197.323,336.201z"/>
	<polyline fill="none" stroke="#005695" stroke-width="2" stroke-linecap="round" stroke-miterlimit="1" points="396.941,509.407 
		396.941,520.528 225.065,520.528 225.065,327.583 196.094,327.583 196.094,333.367 	"/>
	<polyline fill="none" stroke="#005695" stroke-width="2" stroke-linecap="round" stroke-miterlimit="1" points="277.711,424.954 
		277.711,437.737 235.839,437.737 235.839,318.227 184.542,318.227 184.542,333.367 	"/>
	<path fill="#005695" d="M185.771,336.201c0.599-1.983,1.151-3.273,1.79-4.864h-6.053c0.27,0.569,1.19,2.881,1.789,4.864
		c0.643,2.124,1.08,4.049,1.237,5.299C184.691,340.25,185.13,338.325,185.771,336.201z"/>
	<polyline fill="none" stroke="#005695" stroke-width="2" stroke-linecap="round" stroke-miterlimit="1" points="138.55,424.954 
		138.55,437.737 96.678,437.737 96.678,318.227 61.945,318.227 61.945,333.367 	"/>
	<path fill="#005695" d="M63.176,336.201c0.599-1.983,1.151-3.273,1.79-4.864h-6.054c0.271,0.569,1.191,2.881,1.79,4.864
		c0.642,2.124,1.08,4.049,1.237,5.299C62.096,340.25,62.534,338.325,63.176,336.201z"/>
	
		<line fill="#4F8ABE" stroke="#005695" stroke-width="2" stroke-linecap="round" stroke-miterlimit="1" x1="138.724" y1="374.731" x2="138.724" y2="395.247"/>
	<path fill="#005695" d="M139.953,398.083c0.6-1.984,1.152-3.275,1.791-4.865h-6.054c0.271,0.568,1.19,2.881,1.79,4.865
		c0.642,2.123,1.08,4.049,1.236,5.297C138.873,402.132,139.312,400.206,139.953,398.083z"/>
	
		<line fill="#4F8ABE" stroke="#005695" stroke-width="2" stroke-linecap="round" stroke-miterlimit="1" x1="159.324" y1="306.373" x2="159.324" y2="333.367"/>
	<path fill="#005695" d="M160.554,336.201c0.6-1.983,1.151-3.273,1.79-4.864h-6.053c0.271,0.569,1.19,2.881,1.79,4.864
		c0.642,2.124,1.08,4.049,1.236,5.299C159.474,340.25,159.913,338.325,160.554,336.201z"/>
	
		<rect x="114.588" y="343.196" fill="#86B2D8" stroke="#010101" stroke-width="0.75" stroke-linecap="round" stroke-linejoin="round" stroke-miterlimit="1" width="90.001" height="31.494"/>
	<g>
		<text transform="matrix(1 0 0 1 125.5674 351.6426)"><tspan x="0" y="0" font-size="9">General Purpose</tspan><tspan x="13.013" y="8.8" font-size="9">Performed</tspan><tspan x="2.751" y="17.601" font-size="9">Procedure Step</tspan></text>
	</g>
	
		<line fill="#4F8ABE" stroke="#005695" stroke-width="2" stroke-linecap="round" stroke-miterlimit="1" x1="46.821" y1="306.373" x2="46.821" y2="333.367"/>
	<path fill="#005695" d="M48.051,336.201c0.6-1.983,1.151-3.273,1.79-4.864h-6.053c0.271,0.569,1.19,2.881,1.79,4.864
		c0.642,2.124,1.08,4.049,1.236,5.299C46.971,340.25,47.41,338.325,48.051,336.201z"/>
	
		<line fill="#4F8ABE" stroke="#005695" stroke-width="2" stroke-linecap="round" stroke-miterlimit="1" x1="432.701" y1="313.622" x2="432.701" y2="333.367"/>
	<path fill="#005695" d="M433.931,336.201c0.6-1.983,1.151-3.273,1.79-4.864h-6.053c0.271,0.569,1.191,2.881,1.79,4.864
		c0.642,2.124,1.08,4.049,1.236,5.299C432.852,340.25,433.29,338.325,433.931,336.201z"/>
	
		<rect x="392.194" y="343.193" fill="#86B2D8" stroke="#010101" stroke-width="0.75" stroke-linecap="round" stroke-linejoin="round" stroke-miterlimit="1" width="81" height="31.501"/>
	<g>
		<text transform="matrix(1 0 0 1 411.9326 356.042)"><tspan x="0" y="0" font-size="9">Procedure</tspan><tspan x="11.755" y="8.801" font-size="9">Plan</tspan></text>
	</g>
	
		<rect x="15.313" y="343.193" fill="#86B2D8" stroke="#010101" stroke-width="0.75" stroke-linecap="round" stroke-linejoin="round" stroke-miterlimit="1" width="63" height="31.501"/>
	<g>
		<text transform="matrix(1 0 0 1 26.0635 356.043)"><tspan x="0" y="0" font-size="9">Procedure</tspan><tspan x="10.758" y="8.8" font-size="9">Type</tspan></text>
	</g>
	
		<line fill="#4F8ABE" stroke="#005695" stroke-width="2" stroke-linecap="round" stroke-miterlimit="1" x1="317.129" y1="306.373" x2="317.129" y2="333.367"/>
	<path fill="#005695" d="M318.358,336.201c0.6-1.983,1.151-3.273,1.79-4.864h-6.053c0.271,0.569,1.191,2.881,1.79,4.864
		c0.642,2.124,1.08,4.049,1.236,5.299C317.279,340.25,317.718,338.325,318.358,336.201z"/>
	
		<rect x="276.62" y="343.194" fill="#86B2D8" stroke="#010101" stroke-width="0.75" stroke-linecap="round" stroke-linejoin="round" stroke-miterlimit="1" width="81" height="31.492"/>
	<g>
		<text transform="matrix(1 0 0 1 283.1025 351.6426)"><tspan x="0" y="0" font-size="9">General Purpose</tspan><tspan x="12.754" y="8.8" font-size="9">Scheduled</tspan><tspan x="2.752" y="17.601" font-size="9">Procedure Step</tspan></text>
	</g>
	
		<rect x="356.861" y="449.72" fill="#86B2D8" stroke="#010101" stroke-width="0.75" stroke-linecap="round" stroke-linejoin="round" stroke-miterlimit="1" width="81" height="22.486"/>
	<g>
		<text transform="matrix(1 0 0 1 378.3623 463.4697)" font-size="9">Workitem</text>
	</g>
	
		<polygon fill="#CCDEF0" stroke="#010101" stroke-width="0.75" stroke-linecap="round" stroke-linejoin="round" stroke-miterlimit="1" points="
		180.031,99.326 211.485,92.68 243.031,99.421 243.031,99.438 211.485,106.18 	"/>
	<g>
		<text transform="matrix(1 0 0 1 204.2744 101.9297)" font-size="9">has</text>
	</g>
	
		<polygon fill="#CCDEF0" stroke="#010101" stroke-width="0.75" stroke-linecap="round" stroke-linejoin="round" stroke-miterlimit="1" points="
		276.589,99.326 308.042,92.68 339.589,99.421 339.589,99.438 308.042,106.18 	"/>
	<g>
		<text transform="matrix(1 0 0 1 300.833 101.9297)" font-size="9">has</text>
	</g>
	
		<polygon fill="#CCDEF0" stroke="#010101" stroke-width="0.75" stroke-linecap="round" stroke-linejoin="round" stroke-miterlimit="1" points="
		374.194,294.889 432.608,277.166 491.194,295.146 491.194,295.186 432.608,313.166 	"/>
	<g>
		<text transform="matrix(1 0 0 1 422.6885 287.8662)"><tspan x="0" y="0" font-size="9">to be</tspan><tspan x="-31.263" y="8.8" font-size="9">performed according</tspan><tspan x="6.256" y="17.6" font-size="9">to</tspan></text>
	</g>
	
		<polygon fill="#CCDEF0" stroke="#010101" stroke-width="0.75" stroke-linecap="round" stroke-linejoin="round" stroke-miterlimit="1" points="
		396.661,413.101 432.607,402.022 468.661,413.261 468.661,413.286 432.607,424.522 	"/>
	<g>
		<text transform="matrix(1 0 0 1 415.1768 415.7764)" font-size="9">specifies</text>
	</g>
	
		<polygon fill="#CCDEF0" stroke="#010101" stroke-width="0.75" stroke-linecap="round" stroke-linejoin="round" stroke-miterlimit="1" points="
		361.335,498.36 397.248,487.282 433.303,498.521 433.303,498.546 397.248,509.782 	"/>
	<g>
		<text transform="matrix(1 0 0 1 378.4834 500.8076)" font-size="9">describes</text>
	</g>
	
		<polygon fill="#CCDEF0" stroke="#010101" stroke-width="0.75" stroke-linecap="round" stroke-linejoin="round" stroke-miterlimit="1" points="
		123.327,294.993 159.273,283.916 195.327,295.153 195.327,295.179 159.273,306.416 	"/>
	<g>
		<text transform="matrix(1 0 0 1 141.3164 297.667)" font-size="9">results in</text>
	</g>
	
		<polygon fill="#CCDEF0" stroke="#010101" stroke-width="0.75" stroke-linecap="round" stroke-linejoin="round" stroke-miterlimit="1" points="
		10.824,294.993 46.771,283.916 82.824,295.153 82.824,295.179 46.771,306.416 	"/>
	<g>
		<text transform="matrix(1 0 0 1 29.3174 297.667)" font-size="9">specifies</text>
	</g>
	
		<polygon fill="#CCDEF0" stroke="#010101" stroke-width="0.75" stroke-linecap="round" stroke-linejoin="round" stroke-miterlimit="1" points="
		267.619,294.959 317.039,281.666 366.614,295.151 366.614,295.182 317.039,308.666 	"/>
	<g>
		<text transform="matrix(1 0 0 1 286.7139 297.667)" font-size="9">is comprised of</text>
	</g>
	
		<polygon fill="#CCDEF0" stroke="#010101" stroke-width="0.75" stroke-linecap="round" stroke-linejoin="round" stroke-miterlimit="1" points="
		318.234,413.976 354.182,402.897 390.234,414.136 390.234,414.161 354.182,425.397 	"/>
	<g>
		<text transform="matrix(1 0 0 1 337.7236 416.6494)" font-size="9">includes</text>
	</g>
	
		<polygon fill="#CCDEF0" stroke="#010101" stroke-width="0.75" stroke-linecap="round" stroke-linejoin="round" stroke-miterlimit="1" points="
		102.695,414.88 138.642,403.804 174.696,415.04 174.696,415.065 138.642,426.304 	"/>
	<g>
		<text transform="matrix(1 0 0 1 121.2119 417.5566)" font-size="9">specifies</text>
	</g>
	<text transform="matrix(1 0 0 1 147.2046 26.9878)" fill="#ED1C24" font-size="24">FIGURE RETIRED</text>
</g>
</svg>
