<?xml version="1.0" encoding="utf-8"?>
<!-- $Source: /home/bbennett/pass/archive/DicomXml/docbook/part03/figures/PS3.3_C.11.5-1.svg,v $ -->
<!-- $Date: 2014/05/09 12:27:11 $ -->
<!-- $Revision: 1.2 $ -->

<!DOCTYPE svg PUBLIC "-//W3C//DTD SVG 1.1//EN" "http://www.w3.org/Graphics/SVG/1.1/DTD/svg11.dtd">
<svg version="1.1" id="Layer_1" xmlns="http://www.w3.org/2000/svg" xmlns:xlink="http://www.w3.org/1999/xlink" x="0px" y="0px"
	 width="502px" height="302px" viewBox="0 0 502 302" enable-background="new 0 0 502 302" xml:space="preserve">

<defs>
	<style type="text/css">
	text {
	  font-family: Helvetica, Verdana, ArialUnicodeMS, san-serif
	}
	</style>
</defs>

<g>
   <desc>
	PS 3.3 Part 3: Information Object Definitions
   </desc>
</g>

<g>
	<rect x="1" y="1" fill="#F5EED6" width="500" height="300"/>
	<g>
		<rect x="92.177" y="66.934" fill="#FFFFFF" stroke="#000000" stroke-miterlimit="1" width="317.764" height="173.763"/>
		<text transform="matrix(1 0 0 1 134.4248 23.1011)"><tspan x="0" y="0" font-size="9">Histogram Bin Width</tspan><tspan x="0" y="10.8" font-size="9">(0060,3008) = 8, so</tspan><tspan x="0" y="21.6" font-size="9">the first bin includes</tspan><tspan x="0" y="32.4" font-size="9">values between 0 and 7</tspan></text>
		<g>
			<g>
				<polyline fill="none" stroke="#000000" stroke-miterlimit="1" points="100.792,121.208 117.745,19.874 133.215,19.874 				"/>
				<g>
					<polygon points="103.984,119.732 99.33,129.945 98.253,118.774 					"/>
				</g>
			</g>
		</g>
		<g>
			<g>
				<polyline fill="none" stroke="#000000" stroke-miterlimit="1" points="403.807,229.664 385.37,35.523 369.9,35.523 				"/>
				<g>
					<polygon points="406.512,227.416 404.645,238.483 400.728,227.966 					"/>
				</g>
			</g>
		</g>
		<text transform="matrix(1 0 0 1 149.5942 254.5078)" font-size="9">Histogram Number of Bins (0060,3002) defines 32 bins</text>
		<text transform="matrix(1 0 0 1 104.3218 273.1104)"><tspan x="0" y="0" font-size="9">Histogram First Bin Value</tspan><tspan x="0" y="10.8" font-size="9">(0060,3004) = 0</tspan></text>
		<text transform="matrix(1 0 0 1 257.1279 37.5103)"><tspan x="0" y="0" font-size="9">Count of zero in the last bin</tspan><tspan x="0" y="10.8" font-size="9">indicates no values in the</tspan><tspan x="0" y="21.6" font-size="9">image between 248 and 255</tspan></text>
		<text transform="matrix(1 0 0 1 295.4336 273.1094)"><tspan x="0" y="0" font-size="9">Histogram Last Bin Value</tspan><tspan x="0" y="10.801" font-size="9">(0060,3006) = 255</tspan></text>
		<g>
			
				<rect x="92.177" y="133.273" fill="#CCDEF0" stroke="#010101" stroke-width="0.96" stroke-linecap="square" stroke-miterlimit="10" width="8.4" height="107.04"/>
			
				<rect x="102.257" y="228.073" fill="#CCDEF0" stroke="#010101" stroke-width="0.96" stroke-linecap="square" stroke-miterlimit="10" width="8.16" height="12.24"/>
			
				<rect x="112.337" y="212.952" fill="#CCDEF0" stroke="#010101" stroke-width="0.96" stroke-linecap="square" stroke-miterlimit="10" width="8.16" height="27.361"/>
			
				<rect x="122.177" y="202.394" fill="#CCDEF0" stroke="#010101" stroke-width="0.96" stroke-linecap="square" stroke-miterlimit="10" width="8.4" height="37.92"/>
			
				<rect x="132.257" y="182.952" fill="#CCDEF0" stroke="#010101" stroke-width="0.96" stroke-linecap="square" stroke-miterlimit="10" width="7.92" height="57.361"/>
			
				<rect x="142.097" y="165.433" fill="#CCDEF0" stroke="#010101" stroke-width="0.96" stroke-linecap="square" stroke-miterlimit="10" width="8.16" height="74.881"/>
			
				<rect x="151.937" y="153.433" fill="#CCDEF0" stroke="#010101" stroke-width="0.96" stroke-linecap="square" stroke-miterlimit="10" width="8.4" height="86.881"/>
			
				<rect x="162.017" y="141.434" fill="#CCDEF0" stroke="#010101" stroke-width="0.96" stroke-linecap="square" stroke-miterlimit="10" width="8.16" height="98.88"/>
			
				<rect x="172.097" y="116.474" fill="#CCDEF0" stroke="#010101" stroke-width="0.96" stroke-linecap="square" stroke-miterlimit="10" width="8.16" height="123.84"/>
			
				<rect x="181.937" y="98.954" fill="#CCDEF0" stroke="#010101" stroke-width="0.96" stroke-linecap="square" stroke-miterlimit="10" width="8.4" height="141.359"/>
			
				<rect x="192.017" y="95.114" fill="#CCDEF0" stroke="#010101" stroke-width="0.96" stroke-linecap="square" stroke-miterlimit="10" width="8.16" height="145.199"/>
			
				<rect x="202.097" y="114.074" fill="#CCDEF0" stroke="#010101" stroke-width="0.96" stroke-linecap="square" stroke-miterlimit="10" width="8.16" height="126.239"/>
			
				<rect x="211.937" y="133.273" fill="#CCDEF0" stroke="#010101" stroke-width="0.96" stroke-linecap="square" stroke-miterlimit="10" width="8.399" height="107.04"/>
			
				<rect x="222.017" y="158.952" fill="#CCDEF0" stroke="#010101" stroke-width="0.96" stroke-linecap="square" stroke-miterlimit="10" width="8.16" height="81.361"/>
			
				<rect x="232.097" y="193.513" fill="#CCDEF0" stroke="#010101" stroke-width="0.96" stroke-linecap="square" stroke-miterlimit="10" width="7.92" height="46.801"/>
			
				<rect x="241.696" y="202.394" fill="#CCDEF0" stroke="#010101" stroke-width="0.96" stroke-linecap="square" stroke-miterlimit="10" width="8.4" height="37.92"/>
			
				<rect x="251.776" y="204.073" fill="#CCDEF0" stroke="#010101" stroke-width="0.96" stroke-linecap="square" stroke-miterlimit="10" width="8.16" height="36.24"/>
			
				<rect x="261.856" y="199.513" fill="#CCDEF0" stroke="#010101" stroke-width="0.96" stroke-linecap="square" stroke-miterlimit="10" width="8.16" height="40.801"/>
			
				<rect x="271.696" y="185.112" fill="#CCDEF0" stroke="#010101" stroke-width="0.96" stroke-linecap="square" stroke-miterlimit="10" width="8.4" height="55.201"/>
			
				<rect x="281.776" y="176.952" fill="#CCDEF0" stroke="#010101" stroke-width="0.96" stroke-linecap="square" stroke-miterlimit="10" width="8.16" height="63.361"/>
			
				<rect x="291.856" y="178.394" fill="#CCDEF0" stroke="#010101" stroke-width="0.96" stroke-linecap="square" stroke-miterlimit="10" width="8.16" height="61.92"/>
			
				<rect x="301.696" y="183.433" fill="#CCDEF0" stroke="#010101" stroke-width="0.96" stroke-linecap="square" stroke-miterlimit="10" width="8.4" height="56.881"/>
			
				<rect x="311.776" y="203.593" fill="#CCDEF0" stroke="#010101" stroke-width="0.96" stroke-linecap="square" stroke-miterlimit="10" width="8.16" height="36.721"/>
			
				<rect x="321.856" y="230.472" fill="#CCDEF0" stroke="#010101" stroke-width="0.96" stroke-linecap="square" stroke-miterlimit="10" width="8.16" height="9.842"/>
			
				<rect x="331.696" y="233.593" fill="#CCDEF0" stroke="#010101" stroke-width="0.96" stroke-linecap="square" stroke-miterlimit="10" width="8.16" height="6.721"/>
			
				<rect x="341.536" y="231.433" fill="#CCDEF0" stroke="#010101" stroke-width="0.96" stroke-linecap="square" stroke-miterlimit="10" width="8.4" height="8.881"/>
			
				<rect x="351.377" y="234.073" fill="#CCDEF0" stroke="#010101" stroke-width="0.96" stroke-linecap="square" stroke-miterlimit="10" width="8.399" height="6.24"/>
			
				<rect x="361.456" y="231.433" fill="#CCDEF0" stroke="#010101" stroke-width="0.96" stroke-linecap="square" stroke-miterlimit="10" width="8.4" height="8.881"/>
			
				<rect x="371.536" y="234.552" fill="#CCDEF0" stroke="#010101" stroke-width="0.96" stroke-linecap="square" stroke-miterlimit="10" width="8.4" height="5.762"/>
			
				<rect x="381.377" y="236.952" fill="#CCDEF0" stroke="#010101" stroke-width="0.96" stroke-linecap="square" stroke-miterlimit="10" width="8.399" height="3.361"/>
			
				<rect x="391.456" y="237.913" fill="#CCDEF0" stroke="#010101" stroke-width="0.96" stroke-linecap="square" stroke-miterlimit="10" width="8.4" height="2.4"/>
			
				<line fill="#CCDEF0" stroke="#010101" stroke-width="0.96" stroke-linecap="square" stroke-miterlimit="10" x1="409.94" y1="240.313" x2="401.54" y2="240.313"/>
		</g>
		<g>
			<g>
				<polyline fill="none" stroke="#000000" stroke-miterlimit="1" points="409.94,250.761 409.94,270.702 399.862,270.702 				"/>
				<g>
					<polygon points="407.035,252.742 409.94,241.901 412.846,252.742 					"/>
				</g>
			</g>
		</g>
		<g>
			<g>
				<polyline fill="none" stroke="#000000" stroke-miterlimit="1" points="92.06,250.761 92.06,270.702 102.138,270.702 				"/>
				<g>
					<polygon points="89.154,252.742 92.06,241.901 94.965,252.742 					"/>
				</g>
			</g>
		</g>
	</g>
</g>
</svg>
