<?xml version="1.0" encoding="utf-8"?>
<!-- $Source: /home/bbennett/pass/archive/DicomXml/docbook/part04/figures/PS3.4_C.5-2.svg,v $ -->
<!-- $Date: 2014/05/09 12:27:09 $ -->
<!-- $Revision: 1.2 $ -->

<!DOCTYPE svg PUBLIC "-//W3C//DTD SVG 1.1//EN" "http://www.w3.org/Graphics/SVG/1.1/DTD/svg11.dtd">
<svg version="1.1" id="Layer_1" xmlns="http://www.w3.org/2000/svg" xmlns:xlink="http://www.w3.org/1999/xlink" x="0px" y="0px"
	 width="502px" height="417px" viewBox="0 0 502 417" enable-background="new 0 0 502 417" xml:space="preserve">


<defs>
	<style type="text/css">
	text {
	  font-family: Helvetica, Verdana, ArialUnicodeMS, san-serif
	}
	</style>
</defs>

<g>
   <desc>
	PS 3.4 Service Class Specifications
   </desc>
</g>

<g>
	<rect x="1" y="1" fill="#F5EED6" width="500" height="415"/>
	<g>
		<g>
			<g>
				<g>
					<g>
						<g>
							<g>
								<line fill="#4F8ABE" x1="155.334" y1="159.039" x2="155.334" y2="238.96"/>
								<g>
									
										<line fill="none" stroke="#005695" stroke-width="2" stroke-linecap="round" stroke-miterlimit="1" x1="155.334" y1="159.039" x2="155.334" y2="228.329"/>
									<g>
										<polygon fill="#005695" points="151.848,225.951 155.334,238.96 158.82,225.951 										"/>
									</g>
								</g>
							</g>
						</g>
					</g>
				</g>
			</g>
		</g>
		<text transform="matrix(1 0 0 1 161.3096 196.9834)"  font-size="10">A-ASSOCIATE-RQ</text>
		<g>
			<g>
				<g>
					<g>
						<g>
							<g>
								<line fill="#4F8ABE" x1="319.334" y1="238.558" x2="319.334" y2="159.718"/>
								<g>
									
										<line fill="none" stroke="#005695" stroke-width="2" stroke-linecap="round" stroke-miterlimit="1" x1="319.334" y1="238.558" x2="319.334" y2="170.349"/>
									<g>
										<polygon fill="#005695" points="322.82,172.727 319.334,159.718 315.848,172.727 										"/>
									</g>
								</g>
							</g>
						</g>
					</g>
				</g>
			</g>
		</g>
		<text transform="matrix(1 0 0 1 325.8633 196.9834)"  font-size="10">A-ASSOCIATE-AC</text>
		<text transform="matrix(1 0 0 1 44 26.9355)"  font-size="12">DICOM AE “A”</text>
		
			<rect x="44" y="33.053" fill="#86B2D8" stroke="#000000" stroke-width="0.9072" stroke-linecap="round" stroke-linejoin="round" stroke-miterlimit="1" width="414" height="126"/>
		<rect x="395" y="43.902" fill="#CCDEF0" stroke="#000000" width="54" height="23.4"/>
		<rect x="341" y="43.902" fill="#CCDEF0" stroke="#000000" width="54" height="23.4"/>
		<rect x="287" y="43.902" fill="#CCDEF0" stroke="#000000" width="54" height="23.4"/>
		<rect x="233" y="43.902" fill="#CCDEF0" stroke="#000000" width="54" height="23.4"/>
		<rect x="161" y="43.902" fill="#CCDEF0" stroke="#000000" width="54" height="23.4"/>
		<rect x="107" y="43.902" fill="#CCDEF0" stroke="#000000" width="54" height="23.4"/>
		<rect x="53" y="43.902" fill="#CCDEF0" stroke="#000000" width="54" height="23.4"/>
		<rect x="398.264" y="46.748" fill="none" width="47.805" height="17.709"/>
		<text transform="matrix(1 0 0 1 404.6035 52.4761)"><tspan x="0" y="0"  font-size="8">SCP Role</tspan><tspan x="12.674" y="9.6"  font-size="8">(1)</tspan></text>
		<rect x="344.264" y="46.748" fill="none" width="47.805" height="17.709"/>
		<text transform="matrix(1 0 0 1 350.3828 52.4761)"><tspan x="0" y="0"  font-size="8">SCU Role</tspan><tspan x="12.895" y="9.6"  font-size="8">(1)</tspan></text>
		<rect x="290.264" y="46.748" fill="none" width="47.805" height="17.709"/>
		<text transform="matrix(1 0 0 1 291.2676 52.4761)"><tspan x="0" y="0"  font-size="8">Abs. Syn. for</tspan><tspan x="1.557" y="9.6"  font-size="8">Storage MR</tspan></text>
		<rect x="236.264" y="46.748" fill="none" width="47.805" height="17.709"/>
		<text transform="matrix(1 0 0 1 242.3848 52.4761)"><tspan x="0" y="0"  font-size="8">SCU/SCP</tspan><tspan x="-2.887" y="9.6"  font-size="8">ITEM (54H)</tspan></text>
		<rect x="215.011" y="46.748" fill="none" width="17.979" height="17.709"/>
		<text transform="matrix(1 0 0 1 218.1655 56.771)"  font-size="14">...</text>
		<rect x="215" y="43.902" fill="none" width="18" height="23.4"/>
		<rect x="164.264" y="46.748" fill="none" width="47.805" height="17.709"/>
		<text transform="matrix(1 0 0 1 173.2734 52.4761)"><tspan x="0" y="0"  font-size="8">Transfer </tspan><tspan x="2.664" y="9.6"  font-size="8">Syntax</tspan></text>
		<rect x="110.264" y="46.748" fill="none" width="47.805" height="17.709"/>
		<text transform="matrix(1 0 0 1 111.2671 52.4761)"><tspan x="0" y="0"  font-size="8">Abs. Syn. for</tspan><tspan x="1.557" y="9.6"  font-size="8">Storage MR</tspan></text>
		<rect x="56.264" y="46.748" fill="none" width="47.805" height="17.709"/>
		<text transform="matrix(1 0 0 1 61.269 52.4761)"><tspan x="0" y="0"  font-size="8">Pres. Cont</tspan><tspan x="7.785" y="9.6"  font-size="8"> ID (1)</tspan></text>
		<rect x="395" y="84.353" fill="#CCDEF0" stroke="#000000" width="54" height="23.4"/>
		<rect x="341" y="84.353" fill="#CCDEF0" stroke="#000000" width="54" height="23.4"/>
		<rect x="287" y="84.353" fill="#CCDEF0" stroke="#000000" width="54" height="23.4"/>
		<rect x="233" y="84.353" fill="#CCDEF0" stroke="#000000" width="54" height="23.4"/>
		<rect x="161" y="84.353" fill="#CCDEF0" stroke="#000000" width="54" height="23.4"/>
		<rect x="107" y="84.353" fill="#CCDEF0" stroke="#000000" width="54" height="23.4"/>
		<rect x="53" y="84.353" fill="#CCDEF0" stroke="#000000" width="54" height="23.4"/>
		<rect x="398.264" y="87.198" fill="none" width="47.805" height="17.709"/>
		<text transform="matrix(1 0 0 1 404.6035 92.9263)"><tspan x="0" y="0"  font-size="8">SCP Role</tspan><tspan x="12.674" y="9.6"  font-size="8">(1)</tspan></text>
		<rect x="344.264" y="87.198" fill="none" width="47.805" height="17.709"/>
		<text transform="matrix(1 0 0 1 350.3828 92.9263)"><tspan x="0" y="0"  font-size="8">SCU Role</tspan><tspan x="12.895" y="9.6"  font-size="8">(1)</tspan></text>
		<rect x="290.264" y="87.198" fill="none" width="47.805" height="17.709"/>
		<text transform="matrix(1 0 0 1 291.2676 92.9263)"><tspan x="0" y="0"  font-size="8">Abs. Syn. for</tspan><tspan x="2.445" y="9.6"  font-size="8">Storage CT</tspan></text>
		<rect x="236.264" y="87.198" fill="none" width="47.805" height="17.709"/>
		<text transform="matrix(1 0 0 1 242.3848 92.9263)"><tspan x="0" y="0"  font-size="8">SCU/SCP</tspan><tspan x="-2.887" y="9.6"  font-size="8">ITEM (54H)</tspan></text>
		<rect x="215.011" y="87.198" fill="none" width="17.979" height="17.709"/>
		<text transform="matrix(1 0 0 1 218.1655 97.2212)"  font-size="14">...</text>
		<rect x="215" y="84.353" fill="none" width="18" height="23.4"/>
		<rect x="164.264" y="87.198" fill="none" width="47.805" height="17.709"/>
		<text transform="matrix(1 0 0 1 173.2734 92.9263)"><tspan x="0" y="0"  font-size="8">Transfer </tspan><tspan x="2.664" y="9.6"  font-size="8">Syntax</tspan></text>
		<rect x="110.264" y="87.198" fill="none" width="47.805" height="17.709"/>
		<text transform="matrix(1 0 0 1 111.2671 92.9263)"><tspan x="0" y="0"  font-size="8">Abs. Syn. for</tspan><tspan x="2.445" y="9.6"  font-size="8">Storage CT</tspan></text>
		<rect x="56.264" y="87.198" fill="none" width="47.805" height="17.709"/>
		<text transform="matrix(1 0 0 1 61.269 92.9263)"><tspan x="0" y="0"  font-size="8">Pres. Cont</tspan><tspan x="7.785" y="9.6"  font-size="8"> ID (3)</tspan></text>
		<rect x="161" y="124.803" fill="#CCDEF0" stroke="#000000" width="54" height="23.4"/>
		<rect x="107" y="124.803" fill="#CCDEF0" stroke="#000000" width="54" height="23.4"/>
		<rect x="53" y="124.803" fill="#CCDEF0" stroke="#000000" width="54" height="23.4"/>
		<rect x="164.264" y="127.648" fill="none" width="47.805" height="17.709"/>
		<text transform="matrix(1 0 0 1 173.2734 133.3765)"><tspan x="0" y="0"  font-size="8">Transfer </tspan><tspan x="2.664" y="9.6"  font-size="8">Syntax</tspan></text>
		<rect x="110.264" y="127.648" fill="none" width="47.805" height="17.709"/>
		<text transform="matrix(1 0 0 1 111.2671 133.3765)"><tspan x="0" y="0"  font-size="8">Abs. Syn. for</tspan><tspan x="7.115" y="9.6"  font-size="8">Retrieval</tspan></text>
		<rect x="56.264" y="127.648" fill="none" width="47.805" height="17.709"/>
		<text transform="matrix(1 0 0 1 61.269 133.3765)"><tspan x="0" y="0"  font-size="8">Pres. Cont</tspan><tspan x="7.785" y="9.6"  font-size="8"> ID (5)</tspan></text>
		
			<rect x="44" y="239.934" fill="#86B2D8" stroke="#000000" stroke-width="0.9072" stroke-linecap="round" stroke-linejoin="round" stroke-miterlimit="1" width="414" height="126"/>
		<rect x="395" y="250.783" fill="#CCDEF0" stroke="#000000" width="54" height="23.4"/>
		<rect x="341" y="250.783" fill="#CCDEF0" stroke="#000000" width="54" height="23.4"/>
		<rect x="287" y="250.783" fill="#CCDEF0" stroke="#000000" width="54" height="23.4"/>
		<rect x="233" y="250.783" fill="#CCDEF0" stroke="#000000" width="54" height="23.4"/>
		<rect x="161" y="250.783" fill="#CCDEF0" stroke="#000000" width="54" height="23.4"/>
		<rect x="107" y="250.783" fill="#CCDEF0" stroke="#000000" width="54" height="23.4"/>
		<rect x="53" y="250.783" fill="#CCDEF0" stroke="#000000" width="54" height="23.4"/>
		<rect x="398.264" y="253.628" fill="none" width="47.805" height="17.71"/>
		<text transform="matrix(1 0 0 1 404.6035 259.3574)"><tspan x="0" y="0"  font-size="8">SCP Role</tspan><tspan x="12.674" y="9.6"  font-size="8">(1)</tspan></text>
		<rect x="344.264" y="253.628" fill="none" width="47.805" height="17.71"/>
		<text transform="matrix(1 0 0 1 350.3828 259.3574)"><tspan x="0" y="0"  font-size="8">SCU Role</tspan><tspan x="12.895" y="9.6"  font-size="8">(0)</tspan></text>
		<rect x="290.264" y="253.628" fill="none" width="47.805" height="17.71"/>
		<text transform="matrix(1 0 0 1 291.2676 259.3574)"><tspan x="0" y="0"  font-size="8">Abs. Syn. for</tspan><tspan x="1.557" y="9.6"  font-size="8">Storage MR</tspan></text>
		<rect x="236.264" y="253.628" fill="none" width="47.805" height="17.71"/>
		<text transform="matrix(1 0 0 1 242.3848 259.3574)"><tspan x="0" y="0"  font-size="8">SCU/SCP</tspan><tspan x="-2.887" y="9.6"  font-size="8">ITEM (54H)</tspan></text>
		<rect x="215.011" y="253.628" fill="none" width="17.979" height="17.71"/>
		<text transform="matrix(1 0 0 1 218.1655 263.6523)"  font-size="14">...</text>
		<rect x="215" y="250.783" fill="none" width="18" height="23.4"/>
		<rect x="164.264" y="253.628" fill="none" width="47.805" height="17.71"/>
		<text transform="matrix(1 0 0 1 173.2734 259.3574)"><tspan x="0" y="0"  font-size="8">Transfer </tspan><tspan x="2.664" y="9.6"  font-size="8">Syntax</tspan></text>
		<rect x="110.264" y="253.628" fill="none" width="47.805" height="17.71"/>
		<text transform="matrix(1 0 0 1 121.937 259.3574)"  font-size="8">Accept</text>
		<rect x="56.264" y="253.628" fill="none" width="47.805" height="17.71"/>
		<text transform="matrix(1 0 0 1 61.269 259.3574)"><tspan x="0" y="0"  font-size="8">Pres. Cont</tspan><tspan x="7.785" y="9.6"  font-size="8"> ID (1)</tspan></text>
		<rect x="395" y="291.233" fill="#CCDEF0" stroke="#000000" width="54" height="23.4"/>
		<rect x="341" y="291.233" fill="#CCDEF0" stroke="#000000" width="54" height="23.4"/>
		<rect x="287" y="291.233" fill="#CCDEF0" stroke="#000000" width="54" height="23.4"/>
		<rect x="233" y="291.233" fill="#CCDEF0" stroke="#000000" width="54" height="23.4"/>
		<rect x="161" y="291.233" fill="#CCDEF0" stroke="#000000" width="54" height="23.4"/>
		<rect x="107" y="291.233" fill="#CCDEF0" stroke="#000000" width="54" height="23.4"/>
		<rect x="53" y="291.233" fill="#CCDEF0" stroke="#000000" width="54" height="23.4"/>
		<rect x="398.264" y="294.079" fill="none" width="47.805" height="17.709"/>
		<text transform="matrix(1 0 0 1 404.6035 299.8066)"><tspan x="0" y="0"  font-size="8">SCP Role</tspan><tspan x="12.674" y="9.601"  font-size="8">(1)</tspan></text>
		<rect x="344.264" y="294.079" fill="none" width="47.805" height="17.709"/>
		<text transform="matrix(1 0 0 1 350.3828 299.8066)"><tspan x="0" y="0"  font-size="8">SCU Role</tspan><tspan x="12.895" y="9.601"  font-size="8">(0)</tspan></text>
		<rect x="290.264" y="294.079" fill="none" width="47.805" height="17.709"/>
		<text transform="matrix(1 0 0 1 291.2676 299.8066)"><tspan x="0" y="0"  font-size="8">Abs. Syn. for</tspan><tspan x="2.445" y="9.601"  font-size="8">Storage CT</tspan></text>
		<rect x="236.264" y="294.079" fill="none" width="47.805" height="17.709"/>
		<text transform="matrix(1 0 0 1 242.3848 299.8066)"><tspan x="0" y="0"  font-size="8">SCU/SCP</tspan><tspan x="-2.887" y="9.601"  font-size="8">ITEM (54H)</tspan></text>
		<rect x="215.011" y="294.079" fill="none" width="17.979" height="17.709"/>
		<text transform="matrix(1 0 0 1 218.1655 304.1016)"  font-size="14">...</text>
		<rect x="215" y="291.233" fill="none" width="18" height="23.4"/>
		<rect x="164.264" y="294.079" fill="none" width="47.805" height="17.709"/>
		<text transform="matrix(1 0 0 1 173.2734 299.8066)"><tspan x="0" y="0"  font-size="8">Transfer </tspan><tspan x="2.664" y="9.601"  font-size="8">Syntax</tspan></text>
		<rect x="110.264" y="294.079" fill="none" width="47.805" height="17.709"/>
		<text transform="matrix(1 0 0 1 121.937 299.8066)"  font-size="8">Accept</text>
		<rect x="56.264" y="294.079" fill="none" width="47.805" height="17.709"/>
		<text transform="matrix(1 0 0 1 61.269 299.8066)"><tspan x="0" y="0"  font-size="8">Pres. Cont</tspan><tspan x="7.785" y="9.601"  font-size="8"> ID (3)</tspan></text>
		<rect x="161" y="331.684" fill="#CCDEF0" stroke="#000000" width="54" height="23.4"/>
		<rect x="107" y="331.684" fill="#CCDEF0" stroke="#000000" width="54" height="23.4"/>
		<rect x="53" y="331.684" fill="#CCDEF0" stroke="#000000" width="54" height="23.4"/>
		<rect x="164.264" y="334.529" fill="none" width="47.805" height="17.709"/>
		<text transform="matrix(1 0 0 1 173.2734 340.2578)"><tspan x="0" y="0"  font-size="8">Transfer </tspan><tspan x="2.664" y="9.6"  font-size="8">Syntax</tspan></text>
		<rect x="110.264" y="334.529" fill="none" width="47.805" height="17.709"/>
		<text transform="matrix(1 0 0 1 121.937 340.2578)"  font-size="8">Accept</text>
		<rect x="56.264" y="334.529" fill="none" width="47.805" height="17.709"/>
		<text transform="matrix(1 0 0 1 61.269 340.2578)"><tspan x="0" y="0"  font-size="8">Pres. Cont</tspan><tspan x="7.785" y="9.6"  font-size="8"> ID (5)</tspan></text>
		<text transform="matrix(1 0 0 1 44 232.9355)"  font-size="12">DICOM AE “B”</text>
		<text transform="matrix(1 0 0 1 44 384.9355)"><tspan x="0" y="0"  font-size="9">DICOM AE &quot;B&quot; accepts the role of Retrieve SCP</tspan><tspan x="0" y="12.8"  font-size="9">DICOM AE &quot;B&quot; rejects the role of Storage SCP (Does not allow DICOM AE &quot;A&quot; to be a Storage SCU)</tspan></text>
	</g>
</g>
</svg>
