<?xml version="1.0" encoding="utf-8"?>
<!-- $Source: /home/bbennett/pass/archive/DicomXml/docbook/part17/figures/PS3.17_K.3-1.svg,v $ -->
<!-- $Date: 2014/05/09 12:30:21 $ -->
<!-- $Revision: 1.2 $ -->

<!DOCTYPE svg PUBLIC "-//W3C//DTD SVG 1.1//EN" "http://www.w3.org/Graphics/SVG/1.1/DTD/svg11.dtd">
<svg version="1.1" id="Layer_1" xmlns="http://www.w3.org/2000/svg" xmlns:xlink="http://www.w3.org/1999/xlink" x="0px" y="0px"
	 width="502px" height="327px" viewBox="0 0 502 327" enable-background="new 0 0 502 327" xml:space="preserve">

<defs>
	<style type="text/css">
	text {
	  font-family: Helvetica, Verdana, ArialUnicodeMS, san-serif
	}
	</style>
</defs>

<g>
   <desc>
	PS 3.17 Part 17: Explanatory Information
   </desc>
</g>

<g>
	<rect x="1" y="1" fill="#F5EED6" width="500" height="325"/>
	<g>
		<path fill="#FFFFFF" d="M151.377,62.766h81.672v248.799h-81.672V62.766z"/>
		<path fill="#CCDEF0" d="M233.1,62.766h81.671v248.799H233.1V62.766z"/>
		<path fill="#B2CEE7" d="M314.824,62.766h81.67v248.799h-81.67V62.766z"/>
		<path fill="#86B2D8" d="M396.544,62.766h81.672v248.799h-81.672V62.766z"/>
		<g>
			<text transform="matrix(1 0 0 1 74.749 101.4395)"><tspan x="0" y="0" font-size="10">Parasternal</tspan><tspan x="3.611" y="9.565" font-size="10">Long Axis</tspan></text>
		</g>
		<g>
			<text transform="matrix(1 0 0 1 23.7837 189.7676)" font-size="12">VIEW</text>
		</g>
		<g>
			<text transform="matrix(1 0 0 1 295.4272 26.0718)" font-size="12">STAGE</text>
		</g>
		<g>
			<text transform="matrix(1 0 0 1 140.457 107.3062)" font-size="11">1</text>
		</g>
		<g>
			<text transform="matrix(1 0 0 1 173.0327 46.3398)" font-size="10">Baseline</text>
		</g>
		<g>
			<text transform="matrix(1 0 0 1 250.043 46.3398)" font-size="10">Mid-Stress</text>
		</g>
		<g>
			<text transform="matrix(1 0 0 1 328.4253 46.3398)" font-size="10">Peak-Stress</text>
		</g>
		<g>
			<text transform="matrix(1 0 0 1 416.2612 46.3398)" font-size="10">Recovery</text>
		</g>
		<g>
			<text transform="matrix(1 0 0 1 189.1533 60.354)" font-size="11">1</text>
		</g>
		<g>
			<text transform="matrix(1 0 0 1 270.8765 60.354)" font-size="11">2</text>
		</g>
		<g>
			<text transform="matrix(1 0 0 1 352.5972 60.354)" font-size="11">3</text>
		</g>
		<g>
			<text transform="matrix(1 0 0 1 434.3198 60.354)" font-size="11">4</text>
		</g>
		<g>
			<text transform="matrix(1 0 0 1 74.749 184.9863)"><tspan x="0" y="0" font-size="10">Parasternal</tspan><tspan x="2.783" y="9.564" font-size="10">Short Axis</tspan></text>
		</g>
		<g>
			<text transform="matrix(1 0 0 1 140.457 190.8535)" font-size="11">2</text>
		</g>
		<g>
			<text transform="matrix(1 0 0 1 68.6406 266.9062)"><tspan x="0" y="0" font-size="10">Extra-Protocol</tspan><tspan x="15.281" y="9.564" font-size="10">Images</tspan></text>
		</g>
		<rect x="179.548" y="91.086" fill="#939598" stroke="#000000" stroke-miterlimit="1" width="41.094" height="41.094"/>
		<path stroke="#FFF200" stroke-miterlimit="1" stroke-dasharray="2" d="M217.04,124.513l-16.926-29.317l-16.965,29.384
			c5.169,2.246,10.872,3.491,16.868,3.491C206.073,128.07,211.83,126.8,217.04,124.513L217.04,124.513z"/>
		<rect x="171.666" y="83.205" fill="#939598" stroke="#000000" stroke-miterlimit="1" width="41.094" height="41.094"/>
		<path stroke="#FFF200" stroke-miterlimit="1" stroke-dasharray="2" d="M209.158,116.632l-16.926-29.317l-16.965,29.384
			c5.169,2.245,10.873,3.491,16.869,3.491C198.191,120.189,203.949,118.918,209.158,116.632L209.158,116.632z"/>
		<rect x="163.785" y="75.323" fill="#939598" stroke="#000000" stroke-miterlimit="1" width="41.094" height="41.094"/>
		<path stroke="#FFF200" stroke-miterlimit="1" stroke-dasharray="2" d="M201.278,108.751l-16.927-29.318l-16.964,29.385
			c5.168,2.245,10.872,3.49,16.867,3.49C190.311,112.308,196.067,111.038,201.278,108.751L201.278,108.751z"/>
		<rect x="261.269" y="91.086" fill="#939598" stroke="#000000" stroke-miterlimit="1" width="41.094" height="41.094"/>
		<path stroke="#FFF200" stroke-miterlimit="1" stroke-dasharray="2" d="M298.761,124.513l-16.926-29.317l-16.965,29.384
			c5.17,2.246,10.873,3.491,16.869,3.491C287.794,128.07,293.552,126.8,298.761,124.513L298.761,124.513z"/>
		<rect x="253.39" y="83.205" fill="#939598" stroke="#000000" stroke-miterlimit="1" width="41.092" height="41.094"/>
		<path stroke="#FFF200" stroke-miterlimit="1" stroke-dasharray="2" d="M290.88,116.632l-16.926-29.317l-16.965,29.384
			c5.17,2.245,10.873,3.491,16.867,3.491C279.914,120.189,285.671,118.918,290.88,116.632L290.88,116.632z"/>
		<rect x="245.507" y="75.323" fill="#939598" stroke="#000000" stroke-miterlimit="1" width="41.094" height="41.094"/>
		<path stroke="#FFF200" stroke-miterlimit="1" stroke-dasharray="2" d="M283.001,108.751l-16.928-29.318l-16.964,29.385
			c5.169,2.245,10.873,3.49,16.869,3.49c6.055,0,11.812-1.27,17.021-3.557H283.001z"/>
		<rect x="342.992" y="91.086" fill="#939598" stroke="#000000" stroke-miterlimit="1" width="41.094" height="41.094"/>
		<path stroke="#FFF200" stroke-miterlimit="1" stroke-dasharray="2" d="M380.486,124.513l-16.928-29.317l-16.963,29.384
			c5.168,2.246,10.873,3.491,16.867,3.491C369.517,128.07,375.275,126.8,380.486,124.513L380.486,124.513z"/>
		<rect x="335.111" y="83.205" fill="#939598" stroke="#000000" stroke-miterlimit="1" width="41.096" height="41.094"/>
		<path stroke="#FFF200" stroke-miterlimit="1" stroke-dasharray="2" d="M372.603,116.632l-16.926-29.317l-16.965,29.384
			c5.168,2.245,10.873,3.491,16.867,3.491C361.636,120.189,367.392,118.918,372.603,116.632L372.603,116.632z"/>
		<rect x="327.23" y="75.323" fill="#939598" stroke="#000000" stroke-miterlimit="1" width="41.096" height="41.094"/>
		<path stroke="#FFF200" stroke-miterlimit="1" stroke-dasharray="2" d="M364.722,108.751l-16.926-29.318l-16.965,29.385
			c5.168,2.245,10.873,3.49,16.867,3.49c6.057,0,11.814-1.27,17.021-3.557H364.722z"/>
		<rect x="424.716" y="91.086" fill="#939598" stroke="#000000" stroke-miterlimit="1" width="41.094" height="41.094"/>
		<path stroke="#FFF200" stroke-miterlimit="1" stroke-dasharray="2" d="M462.207,124.513l-16.924-29.317l-16.967,29.384
			c5.17,2.246,10.875,3.491,16.869,3.491C451.24,128.07,456.998,126.8,462.207,124.513L462.207,124.513z"/>
		<rect x="416.833" y="83.205" fill="#939598" stroke="#000000" stroke-miterlimit="1" width="41.096" height="41.094"/>
		<path stroke="#FFF200" stroke-miterlimit="1" stroke-dasharray="2" d="M454.326,116.632L437.4,87.314l-16.965,29.384
			c5.168,2.245,10.871,3.491,16.869,3.491C443.359,120.189,449.117,118.918,454.326,116.632L454.326,116.632z"/>
		<rect x="408.951" y="75.323" fill="#939598" stroke="#000000" stroke-miterlimit="1" width="41.096" height="41.094"/>
		<path stroke="#FFF200" stroke-miterlimit="1" stroke-dasharray="2" d="M446.447,108.751l-16.928-29.318l-16.963,29.385
			c5.168,2.245,10.871,3.49,16.865,3.49c6.059,0,11.816-1.27,17.023-3.557H446.447z"/>
		<rect x="179.548" y="174.633" fill="#939598" stroke="#000000" stroke-miterlimit="1" width="41.094" height="41.094"/>
		<path stroke="#FFF200" stroke-miterlimit="1" stroke-dasharray="2" d="M217.04,208.061l-16.926-29.318l-16.965,29.385
			c5.169,2.246,10.872,3.49,16.868,3.49C206.073,211.617,211.83,210.348,217.04,208.061L217.04,208.061z"/>
		<rect x="171.666" y="166.752" fill="#939598" stroke="#000000" stroke-miterlimit="1" width="41.094" height="41.094"/>
		<path stroke="#FFF200" stroke-miterlimit="1" stroke-dasharray="2" d="M209.158,200.18l-16.926-29.318l-16.965,29.383
			c5.169,2.248,10.873,3.492,16.869,3.492c6.055,0,11.812-1.271,17.021-3.559L209.158,200.18z"/>
		<rect x="163.785" y="158.87" fill="#939598" stroke="#000000" stroke-miterlimit="1" width="41.094" height="41.095"/>
		<path stroke="#FFF200" stroke-miterlimit="1" stroke-dasharray="2" d="M201.278,192.297l-16.927-29.318l-16.964,29.387
			c5.168,2.246,10.872,3.49,16.867,3.49C190.311,195.855,196.067,194.584,201.278,192.297L201.278,192.297z"/>
		<rect x="261.269" y="174.633" fill="#939598" stroke="#000000" stroke-miterlimit="1" width="41.094" height="41.094"/>
		<path stroke="#FFF200" stroke-miterlimit="1" stroke-dasharray="2" d="M298.761,208.061l-16.924-29.318l-16.967,29.385
			c5.17,2.246,10.875,3.49,16.871,3.49C287.794,211.617,293.554,210.348,298.761,208.061L298.761,208.061z"/>
		<rect x="253.39" y="166.752" fill="#939598" stroke="#000000" stroke-miterlimit="1" width="41.094" height="41.094"/>
		<path stroke="#FFF200" stroke-miterlimit="1" stroke-dasharray="2" d="M290.882,200.18l-16.928-29.318l-16.965,29.383
			c5.17,2.248,10.873,3.492,16.869,3.492c6.057,0,11.812-1.271,17.023-3.559V200.18z"/>
		<rect x="245.507" y="158.87" fill="#939598" stroke="#000000" stroke-miterlimit="1" width="41.094" height="41.095"/>
		<path stroke="#FFF200" stroke-miterlimit="1" stroke-dasharray="2" d="M283.001,192.297l-16.928-29.318l-16.964,29.387
			c5.169,2.246,10.873,3.49,16.869,3.49c6.057,0,11.812-1.271,17.021-3.559H283.001z"/>
		<rect x="342.992" y="174.633" fill="#939598" stroke="#000000" stroke-miterlimit="1" width="41.094" height="41.094"/>
		<path stroke="#FFF200" stroke-miterlimit="1" stroke-dasharray="2" d="M380.486,208.061l-16.928-29.318l-16.963,29.385
			c5.168,2.246,10.873,3.49,16.867,3.49C369.517,211.617,375.275,210.348,380.486,208.061L380.486,208.061z"/>
		<rect x="335.111" y="166.752" fill="#939598" stroke="#000000" stroke-miterlimit="1" width="41.096" height="41.094"/>
		<path stroke="#FFF200" stroke-miterlimit="1" stroke-dasharray="2" d="M372.603,200.18l-16.926-29.318l-16.965,29.383
			c5.168,2.248,10.873,3.492,16.867,3.492c6.057,0,11.812-1.271,17.023-3.559V200.18z"/>
		<rect x="327.23" y="158.87" fill="#939598" stroke="#000000" stroke-miterlimit="1" width="41.096" height="41.095"/>
		<path stroke="#FFF200" stroke-miterlimit="1" stroke-dasharray="2" d="M364.722,192.297l-16.926-29.318l-16.965,29.387
			c5.168,2.246,10.873,3.49,16.867,3.49c6.057,0,11.814-1.271,17.021-3.559H364.722z"/>
		<rect x="424.716" y="174.633" fill="#939598" stroke="#000000" stroke-miterlimit="1" width="41.094" height="41.094"/>
		<path stroke="#FFF200" stroke-miterlimit="1" stroke-dasharray="2" d="M462.207,208.061l-16.924-29.318l-16.967,29.385
			c5.17,2.246,10.875,3.49,16.869,3.49C451.24,211.617,456.998,210.348,462.207,208.061L462.207,208.061z"/>
		<rect x="416.833" y="166.752" fill="#939598" stroke="#000000" stroke-miterlimit="1" width="41.096" height="41.094"/>
		<path stroke="#FFF200" stroke-miterlimit="1" stroke-dasharray="2" d="M454.326,200.18L437.4,170.861l-16.965,29.383
			c5.168,2.248,10.871,3.492,16.869,3.492c6.055,0,11.812-1.271,17.021-3.559V200.18z"/>
		<rect x="408.951" y="158.87" fill="#939598" stroke="#000000" stroke-miterlimit="1" width="41.096" height="41.095"/>
		<path stroke="#FFF200" stroke-miterlimit="1" stroke-dasharray="2" d="M446.447,192.297l-16.928-29.318l-16.963,29.387
			c5.168,2.246,10.871,3.49,16.865,3.49c6.059,0,11.816-1.271,17.023-3.559H446.447z"/>
		<rect x="253.388" y="248.674" fill="#939598" stroke="#000000" stroke-miterlimit="1" width="41.094" height="41.092"/>
		<path stroke="#FFF200" stroke-miterlimit="1" stroke-dasharray="2" d="M290.88,282.1l-16.926-29.318l-16.965,29.385
			c5.168,2.244,10.871,3.492,16.867,3.492C279.914,285.658,285.671,284.387,290.88,282.1L290.88,282.1z"/>
		<rect x="339.05" y="252.613" fill="#939598" stroke="#000000" stroke-miterlimit="1" width="41.096" height="41.094"/>
		<path stroke="#FFF200" stroke-miterlimit="1" stroke-dasharray="2" d="M376.542,286.039l-16.926-29.316l-16.965,29.383
			c5.17,2.246,10.873,3.492,16.869,3.492C365.576,289.598,371.333,288.326,376.542,286.039L376.542,286.039z"/>
		<rect x="331.169" y="244.732" fill="#939598" stroke="#000000" stroke-miterlimit="1" width="41.096" height="41.094"/>
		<path stroke="#FFF200" stroke-miterlimit="1" stroke-dasharray="2" d="M368.664,278.158l-16.926-29.316l-16.967,29.383
			c5.17,2.246,10.873,3.492,16.867,3.492c6.059,0,11.814-1.271,17.023-3.559H368.664z"/>
	</g>
</g>
</svg>
