<?xml version="1.0" encoding="utf-8"?>
<!-- $Source: /home/bbennett/pass/archive/DicomXml/docbook/part17/figures/PS3.17_V.2-2_alt.svg,v $ -->
<!-- $Date: 2014/02/18 14:50:42 $ -->
<!-- $Revision: 1.1 $ -->

<!DOCTYPE svg PUBLIC "-//W3C//DTD SVG 1.1//EN" "http://www.w3.org/Graphics/SVG/1.1/DTD/svg11.dtd">

<svg version="1.1" id="Layer_1" xmlns="http://www.w3.org/2000/svg" xmlns:xlink="http://www.w3.org/1999/xlink" x="0px" y="0px"
	 width="612px" height="792px" viewBox="0 0 612 792" enable-background="new 0 0 612 792" xml:space="preserve">

<defs>
    <style type="text/css">
      text {
        font-family: Helvetica, Verdana, san-serif
      }
    </style>
  </defs>

<g>
  <title>
	Figure V.2-2 Example Process Flow - ALTERNATE #1
  </title>
  <desc>
	DICOM PS 3.12-2008 Part 17: Explanatory Information
  </desc>
</g>

<symbol  id="Background_Bounding_Box" viewBox="-247.542 -249.874 495.085 499.749">
	<polygon fill="#F5EED6" points="247.542,-249.874 -247.542,-249.874 -247.542,249.874 247.542,249.874 	"/>
</symbol>
<use xlink:href="#Background_Bounding_Box"  width="495.085" height="499.749" x="-247.542" y="-249.874" transform="matrix(1 0 0 -0.9162 306.0312 396.0708)" overflow="visible"/>
<g>
	<g>
		
			<line fill="none" stroke="#005695" stroke-width="2" stroke-linecap="round" stroke-miterlimit="1" x1="297.8" y1="200.018" x2="297.8" y2="211.125"/>
		<path fill="#005695" d="M299.03,213.959c0.599-1.984,1.151-3.273,1.79-4.865h-6.053c0.271,0.569,1.191,2.881,1.79,4.865
			c0.642,2.124,1.08,4.049,1.237,5.298C297.95,218.008,298.389,216.083,299.03,213.959z"/>
	</g>
</g>
<g>
	<g>
		
			<line fill="none" stroke="#005695" stroke-width="2" stroke-linecap="round" stroke-miterlimit="1" x1="297.8" y1="238.595" x2="297.8" y2="270.822"/>
		<path fill="#005695" d="M299.03,273.656c0.599-1.984,1.151-3.273,1.79-4.865h-6.053c0.271,0.569,1.191,2.881,1.79,4.865
			c0.642,2.124,1.08,4.049,1.237,5.298C297.95,277.705,298.389,275.78,299.03,273.656z"/>
	</g>
</g>
<rect x="262.104" y="218.265" fill="#CCDEF0" stroke="#010101" stroke-linecap="round" stroke-linejoin="round" stroke-miterlimit="1" width="71.39" height="19.831"/>
<g>
	<text transform="matrix(1 0 0 1 276.4136 226.5078)"><tspan x="0" y="0" font-size="7.9322">Image Set 1</tspan><tspan x="1.772" y="7.932" font-size="7.9322">CT Current</tspan></text>
</g>
<rect x="262.105" y="180.202" fill="#CCDEF0" stroke="#010101" stroke-linecap="round" stroke-linejoin="round" stroke-miterlimit="1" width="71.388" height="19.816"/>
<g>
	<text transform="matrix(1 0 0 1 292.5127 188.4395)"><tspan x="0" y="0" font-size="7.9322">CT</tspan><tspan x="-19.182" y="7.932" font-size="7.9322">Current Study</tspan></text>
</g>
<g>
	<g>
		
			<line fill="none" stroke="#005695" stroke-width="2" stroke-linecap="round" stroke-miterlimit="1" x1="206.718" y1="200.018" x2="206.718" y2="211.125"/>
		<path fill="#005695" d="M207.948,213.959c0.599-1.984,1.151-3.273,1.79-4.865h-6.053c0.271,0.569,1.191,2.881,1.79,4.865
			c0.642,2.124,1.08,4.049,1.237,5.298C206.868,218.008,207.307,216.083,207.948,213.959z"/>
	</g>
</g>
<rect x="171.021" y="218.265" fill="#CCCCCC" stroke="#010101" stroke-linecap="round" stroke-linejoin="round" stroke-miterlimit="1" width="71.392" height="19.831"/>
<g>
	<text transform="matrix(1 0 0 1 185.3315 226.5078)"><tspan x="0" y="0" font-size="7.9322">Image Set 1</tspan><tspan x="0.891" y="7.932" font-size="7.9322">MR Current</tspan></text>
</g>
<rect x="171.022" y="180.202" fill="#CCCCCC" stroke="#010101" stroke-linecap="round" stroke-linejoin="round" stroke-miterlimit="1" width="71.39" height="19.816"/>
<g>
	<text transform="matrix(1 0 0 1 200.5493 188.4395)"><tspan x="0" y="0" font-size="7.9322">MR</tspan><tspan x="-18.301" y="7.932" font-size="7.9322">Current Study</tspan></text>
</g>
<g>
	<g>
		
			<line fill="none" stroke="#005695" stroke-width="2" stroke-linecap="round" stroke-miterlimit="1" x1="392.985" y1="200.018" x2="392.985" y2="211.125"/>
		<path fill="#005695" d="M394.215,213.959c0.6-1.984,1.151-3.273,1.79-4.865h-6.053c0.271,0.569,1.191,2.881,1.79,4.865
			c0.642,2.124,1.08,4.049,1.236,5.298C393.136,218.008,393.574,216.083,394.215,213.959z"/>
	</g>
</g>
<rect x="357.291" y="218.265" fill="#CCCCCC" stroke="#010101" stroke-linecap="round" stroke-linejoin="round" stroke-miterlimit="1" width="71.39" height="19.831"/>
<g>
	<text transform="matrix(1 0 0 1 371.5996 226.5078)"><tspan x="0" y="0" font-size="7.9322">Image Set 1</tspan><tspan x="6.623" y="7.932" font-size="7.9322">CT Prior</tspan></text>
</g>
<rect x="357.291" y="180.202" fill="#CCCCCC" stroke="#010101" stroke-linecap="round" stroke-linejoin="round" stroke-miterlimit="1" width="71.39" height="19.816"/>
<g>
	<text transform="matrix(1 0 0 1 387.6992 188.4395)"><tspan x="0" y="0" font-size="7.9322">CT</tspan><tspan x="-14.331" y="7.932" font-size="7.9322">Prior Study</tspan></text>
</g>
<g>
	<g>
		<polyline fill="none" stroke="#005695" stroke-width="2" stroke-linecap="round" stroke-miterlimit="1" points="202.613,257.337 
			107.748,257.337 107.748,270.822 		"/>
		<path fill="#005695" d="M108.978,273.656c0.599-1.984,1.151-3.273,1.79-4.865h-6.053c0.271,0.569,1.191,2.881,1.79,4.865
			c0.642,2.124,1.08,4.049,1.237,5.298C107.898,277.705,108.337,275.78,108.978,273.656z"/>
	</g>
</g>
<g>
	<g>
		<polyline fill="none" stroke="#005695" stroke-width="2" stroke-linecap="round" stroke-miterlimit="1" points="297.799,257.337 
			202.613,257.337 202.613,270.822 		"/>
		<path fill="#005695" d="M203.843,273.656c0.599-1.984,1.151-3.273,1.79-4.865h-6.053c0.271,0.569,1.191,2.881,1.79,4.865
			c0.642,2.124,1.08,4.049,1.237,5.298C202.763,277.705,203.202,275.78,203.843,273.656z"/>
	</g>
</g>
<g>
	<g>
		<polyline fill="none" stroke="#005695" stroke-width="2" stroke-linecap="round" stroke-miterlimit="1" points="297.799,257.337 
			393.332,257.337 393.332,270.822 		"/>
		<path fill="#005695" d="M394.562,273.656c0.6-1.984,1.151-3.273,1.79-4.865h-6.053c0.271,0.569,1.191,2.881,1.79,4.865
			c0.642,2.124,1.08,4.049,1.236,5.298C393.482,277.705,393.921,275.78,394.562,273.656z"/>
	</g>
</g>
<g>
	<g>
		<polyline fill="none" stroke="#005695" stroke-width="2" stroke-linecap="round" stroke-miterlimit="1" points="393.332,257.337 
			488.172,257.337 488.172,270.822 		"/>
		<path fill="#005695" d="M489.401,273.656c0.6-1.984,1.151-3.273,1.79-4.865h-6.053c0.271,0.569,1.191,2.881,1.79,4.865
			c0.642,2.124,1.08,4.049,1.236,5.298C488.322,277.705,488.761,275.78,489.401,273.656z"/>
	</g>
</g>
<g>
	<g>
		
			<line fill="none" stroke="#005695" stroke-width="2" stroke-linecap="round" stroke-miterlimit="1" stroke-dasharray="5,5" x1="297.8" y1="316.126" x2="297.8" y2="359.153"/>
		<path fill="#005695" d="M299.03,361.987c0.599-1.984,1.151-3.273,1.79-4.865h-6.053c0.271,0.569,1.191,2.881,1.79,4.865
			c0.642,2.124,1.08,4.049,1.237,5.298C297.95,366.036,298.389,364.111,299.03,361.987z"/>
	</g>
</g>
<g>
	<g>
		
			<line fill="none" stroke="#005695" stroke-width="2" stroke-linecap="round" stroke-miterlimit="1" stroke-dasharray="5,5" x1="107.427" y1="316.126" x2="107.427" y2="359.153"/>
		<path fill="#005695" d="M108.657,361.987c0.599-1.984,1.151-3.273,1.79-4.865h-6.053c0.271,0.569,1.191,2.881,1.79,4.865
			c0.642,2.124,1.08,4.049,1.237,5.298C107.577,366.036,108.016,364.111,108.657,361.987z"/>
	</g>
</g>
<g>
	<g>
		
			<line fill="none" stroke="#005695" stroke-width="2" stroke-linecap="round" stroke-miterlimit="1" stroke-dasharray="5,5" x1="202.613" y1="316.126" x2="202.613" y2="359.153"/>
		<path fill="#005695" d="M203.843,361.987c0.599-1.984,1.151-3.273,1.79-4.865h-6.053c0.271,0.569,1.191,2.881,1.79,4.865
			c0.642,2.124,1.08,4.049,1.237,5.298C202.763,366.036,203.202,364.111,203.843,361.987z"/>
	</g>
</g>
<g>
	<g>
		
			<line fill="none" stroke="#005695" stroke-width="2" stroke-linecap="round" stroke-miterlimit="1" stroke-dasharray="5,5" x1="392.986" y1="316.126" x2="392.986" y2="359.153"/>
		<path fill="#005695" d="M394.216,361.987c0.6-1.984,1.151-3.273,1.79-4.865h-6.053c0.271,0.569,1.191,2.881,1.79,4.865
			c0.642,2.124,1.08,4.049,1.236,5.298C393.137,366.036,393.575,364.111,394.216,361.987z"/>
	</g>
</g>
<g>
	<g>
		
			<line fill="none" stroke="#005695" stroke-width="2" stroke-linecap="round" stroke-miterlimit="1" stroke-dasharray="5,5" x1="488.172" y1="316.126" x2="488.172" y2="359.153"/>
		<path fill="#005695" d="M489.401,361.987c0.6-1.984,1.151-3.273,1.79-4.865h-6.053c0.271,0.569,1.191,2.881,1.79,4.865
			c0.642,2.124,1.08,4.049,1.236,5.298C488.322,366.036,488.761,364.111,489.401,361.987z"/>
	</g>
</g>
<rect x="63.799" y="279.584" fill="#FFFFFF" stroke="#010101" stroke-width="0.75" stroke-linecap="round" stroke-linejoin="round" stroke-miterlimit="1" width="87.256" height="37.717"/>
<g>
	<text transform="matrix(1 0 0 1 66.9731 287.0088)"><tspan x="0" y="0" font-size="7.0508">Display Set 1</tspan><tspan x="0" y="6.698" font-size="7.0508">Reformat: MPR Coronal</tspan><tspan x="0" y="13.396" font-size="7.0508">Layout: Stack</tspan></text>
</g>
<rect x="158.985" y="279.584" fill="#FFF200" stroke="#000000" stroke-miterlimit="1" width="87.256" height="37.717"/>
<g>
	<text transform="matrix(1 0 0 1 162.1592 287.0088)"><tspan x="0" y="0" font-size="7.0508">Display Set 2</tspan><tspan x="0" y="6.698" font-size="7.0508">Reformat: MPR Sagittal</tspan><tspan x="0" y="13.396" font-size="7.0508">Sort: Along axis</tspan><tspan x="0" y="20.095" font-size="7.0508">Layout: Stack</tspan></text>
</g>
<rect x="254.171" y="279.584" fill="#0DB14B" stroke="#010101" stroke-width="0.75" stroke-linecap="round" stroke-linejoin="round" stroke-miterlimit="1" width="87.257" height="37.717"/>
<g>
	<text transform="matrix(1 0 0 1 257.3457 287.0088)"><tspan x="0" y="0" font-size="7.0508">Display Set 3</tspan><tspan x="0" y="6.698" font-size="7.0508">Filter: Transverse</tspan><tspan x="0" y="13.396" font-size="7.0508">Sort: Along axis</tspan><tspan x="0" y="20.095" font-size="7.0508">Layout: Stack</tspan></text>
</g>
<rect x="349.361" y="279.584" fill="#00AEEF" stroke="#010101" stroke-width="0.75" stroke-linecap="round" stroke-linejoin="round" stroke-miterlimit="1" width="87.249" height="37.717"/>
<g>
	<text transform="matrix(1 0 0 1 352.5332 287.0088)"><tspan x="0" y="0" font-size="7.0508">Display Set 4</tspan><tspan x="0" y="6.698" font-size="7.0508">Filter: Not Localizer</tspan><tspan x="0" y="13.396" font-size="7.0508">Reformat: 3D_Rendering</tspan><tspan x="0" y="20.095" font-size="7.0508">Sort: Along axis</tspan><tspan x="0" y="26.793" font-size="7.0508">Layout: Processed</tspan></text>
</g>
<rect x="444.544" y="279.584" fill="#ED1C24" stroke="#010101" stroke-width="0.75" stroke-linecap="round" stroke-linejoin="round" stroke-miterlimit="1" width="87.256" height="37.717"/>
<g>
	<text transform="matrix(1 0 0 1 447.7207 287.0088)"><tspan x="0" y="0" font-size="7.0508">Display Set 5</tspan><tspan x="0" y="6.698" font-size="7.0508">Filter: Transverse</tspan><tspan x="0" y="13.396" font-size="7.0508">Sort: Along axis</tspan><tspan x="0" y="20.095" font-size="7.0508">Layout: Tiled 3x4</tspan><tspan x="0" y="26.793" font-size="7.0508">Scroll: Vertical</tspan></text>
</g>
<rect x="180.477" y="403.451" fill="#CCDEF0" stroke="#000000" width="253.545" height="194.379"/>
<rect x="187.479" y="500.64" fill="#86B2D8" stroke="#000000" width="95.77" height="89.999"/>
<line fill="#86B2D8" stroke="#000000" x1="187.479" y1="545.639" x2="283.249" y2="545.639"/>
<line fill="#86B2D8" stroke="#000000" x1="235.367" y1="590.639" x2="235.367" y2="500.64"/>
<rect x="283.375" y="410.642" fill="#86B2D8" stroke="#000000" width="143.644" height="179.998"/>
<line fill="#86B2D8" stroke="#000000" x1="283.375" y1="455.641" x2="427.019" y2="455.641"/>
<line fill="#86B2D8" stroke="#000000" x1="283.375" y1="500.64" x2="427.019" y2="500.64"/>
<line fill="#86B2D8" stroke="#000000" x1="283.375" y1="545.64" x2="427.019" y2="545.64"/>
<line fill="#86B2D8" stroke="#000000" x1="379.148" y1="590.64" x2="379.148" y2="410.642"/>
<line fill="#86B2D8" stroke="#000000" x1="331.242" y1="590.64" x2="331.242" y2="410.642"/>
<g>
	<text transform="matrix(0.9288 0 0 1 436.8193 505.6201)" font-size="14">2560</text>
</g>
<g>
	<text transform="matrix(0.9288 0 0 1 148.7588 550.7324)" font-size="14">1024</text>
</g>
<g>
	<text transform="matrix(0.9288 0 0 1 137.146 608.3135)" font-size="11">(0.0, 0.0)</text>
</g>
<g>
	<text transform="matrix(0.9288 0 0 1 434.0303 400.3916)" font-size="11">(1.0, 1.0)</text>
</g>
<rect x="194.787" y="550.862" fill="#FFFFFF" width="30.298" height="34.161"/>
<g>
	<text transform="matrix(0.9288 0 0 1 199.7876 559.7324)"><tspan x="0" y="0" font-size="10">DS 1:</tspan><tspan x="0" y="11" font-size="10">MPR</tspan><tspan x="0" y="22" font-size="10">COR</tspan></text>
</g>
<rect x="194.787" y="504.155" fill="#FFF200" width="30.298" height="34.161"/>
<g>
	<text transform="matrix(0.9288 0 0 1 199.7876 513.0254)"><tspan x="0" y="0" font-size="10">DS 2:</tspan><tspan x="0" y="11" font-size="10">MPR</tspan><tspan x="0" y="22" font-size="10">SAG</tspan></text>
</g>
<rect x="244.51" y="550.862" fill="#00AEEF" width="30.295" height="34.161"/>
<g>
	<text transform="matrix(0.9288 0 0 1 249.5127 559.7324)"><tspan x="0" y="0" font-size="10">DS 4:</tspan><tspan x="0" y="11" font-size="10">3D</tspan><tspan x="0" y="22" font-size="10">VOL</tspan></text>
</g>
<rect x="244.51" y="504.155" fill="#0DB14B" width="30.295" height="34.161"/>
<g>
	<text transform="matrix(0.9288 0 0 1 249.5127 518.5254)"><tspan x="0" y="0" font-size="10">DS 3:</tspan><tspan x="0" y="11" font-size="10">TRV</tspan></text>
</g>
<rect x="292.097" y="415.206" fill="#ED1C24" width="30.297" height="34.161"/>
<g>
	<text transform="matrix(0.9288 0 0 1 297.106 429.5762)"><tspan x="0" y="0" font-size="10">DS 5:</tspan><tspan x="0" y="11" font-size="10">TRV</tspan></text>
</g>
<g>
	<text transform="matrix(0.9288 0 0 1 219.8384 611.9395)" font-size="14">1024</text>
</g>
<g>
	<text transform="matrix(0.9288 0 0 1 341.4043 611.9395)" font-size="14">2048</text>
</g>
<g>
	<g>
		<line fill="#4F8ABE" x1="322.394" y1="432.286" x2="405.453" y2="432.286"/>
		<path fill="#4F8ABE" d="M407.814,431.262c-1.652-0.5-2.728-0.96-4.054-1.492v5.045c0.475-0.227,2.401-0.993,4.054-1.492
			c1.77-0.535,3.375-0.9,4.415-1.031C411.189,432.161,409.584,431.795,407.814,431.262z"/>
	</g>
	<g>
		
			<line fill="none" stroke="#ED1C24" stroke-linecap="round" stroke-miterlimit="1" stroke-dasharray="5,5,1,5" x1="322.394" y1="432.286" x2="405.453" y2="432.286"/>
		<path fill="#ED1C24" d="M407.814,431.262c-1.652-0.5-2.728-0.96-4.054-1.492v5.045c0.475-0.227,2.401-0.993,4.054-1.492
			c1.77-0.535,3.375-0.9,4.415-1.031C411.189,432.161,409.584,431.795,407.814,431.262z"/>
	</g>
</g>
<g>
	<g>
		<line fill="#4F8ABE" x1="405.453" y1="432.286" x2="307.245" y2="477.492"/>
		<path fill="#4F8ABE" d="M305.528,479.411c1.711-0.238,2.879-0.27,4.307-0.341l-2.109-4.582c-0.337,0.403-1.766,1.905-3.059,3.05
			c-1.384,1.226-2.688,2.229-3.579,2.782C302.087,480.004,303.697,479.665,305.528,479.411z"/>
	</g>
	<g>
		
			<line fill="none" stroke="#ED1C24" stroke-linecap="round" stroke-miterlimit="1" stroke-dasharray="5,5,1,5" x1="405.453" y1="432.286" x2="307.245" y2="477.492"/>
		<path fill="#ED1C24" d="M305.528,479.411c1.711-0.238,2.879-0.27,4.307-0.341l-2.109-4.582c-0.337,0.403-1.766,1.905-3.059,3.05
			c-1.384,1.226-2.688,2.229-3.579,2.782C302.087,480.004,303.697,479.665,305.528,479.411z"/>
	</g>
</g>
<g>
	<g>
		<line fill="#4F8ABE" x1="307.245" y1="478.037" x2="405.453" y2="478.037"/>
		<path fill="#4F8ABE" d="M407.814,477.012c-1.652-0.499-2.728-0.959-4.054-1.491v5.044c0.475-0.225,2.401-0.992,4.054-1.491
			c1.77-0.534,3.375-0.9,4.415-1.03C411.189,477.912,409.584,477.547,407.814,477.012z"/>
	</g>
	<g>
		
			<line fill="none" stroke="#ED1C24" stroke-linecap="round" stroke-miterlimit="1" stroke-dasharray="5,5,1,5" x1="307.245" y1="478.037" x2="405.453" y2="478.037"/>
		<path fill="#ED1C24" d="M407.814,477.012c-1.652-0.499-2.728-0.959-4.054-1.491v5.044c0.475-0.225,2.401-0.992,4.054-1.491
			c1.77-0.534,3.375-0.9,4.415-1.03C411.189,477.912,409.584,477.547,407.814,477.012z"/>
	</g>
</g>
<g>
	<g>
		<line fill="#4F8ABE" x1="405.453" y1="478.037" x2="307.245" y2="523.243"/>
		<path fill="#4F8ABE" d="M305.528,525.162c1.711-0.238,2.879-0.27,4.307-0.341l-2.109-4.582c-0.337,0.403-1.766,1.905-3.059,3.05
			c-1.384,1.226-2.688,2.229-3.579,2.782C302.087,525.755,303.697,525.416,305.528,525.162z"/>
	</g>
	<g>
		
			<line fill="none" stroke="#ED1C24" stroke-linecap="round" stroke-miterlimit="1" stroke-dasharray="5,5,1,5" x1="405.453" y1="478.037" x2="307.245" y2="523.243"/>
		<path fill="#ED1C24" d="M305.528,525.162c1.711-0.238,2.879-0.27,4.307-0.341l-2.109-4.582c-0.337,0.403-1.766,1.905-3.059,3.05
			c-1.384,1.226-2.688,2.229-3.579,2.782C302.087,525.755,303.697,525.416,305.528,525.162z"/>
	</g>
</g>
<g>
	<g>
		<line fill="#4F8ABE" x1="307.245" y1="523.787" x2="405.453" y2="523.787"/>
		<path fill="#4F8ABE" d="M407.814,522.762c-1.652-0.499-2.728-0.959-4.054-1.491v5.044c0.475-0.225,2.401-0.992,4.054-1.491
			c1.77-0.534,3.375-0.9,4.415-1.03C411.189,523.662,409.584,523.297,407.814,522.762z"/>
	</g>
	<g>
		
			<line fill="none" stroke="#ED1C24" stroke-linecap="round" stroke-miterlimit="1" stroke-dasharray="5,5,1,5" x1="307.245" y1="523.787" x2="405.453" y2="523.787"/>
		<path fill="#ED1C24" d="M407.814,522.762c-1.652-0.499-2.728-0.959-4.054-1.491v5.044c0.475-0.225,2.401-0.992,4.054-1.491
			c1.77-0.534,3.375-0.9,4.415-1.03C411.189,523.662,409.584,523.297,407.814,522.762z"/>
	</g>
</g>
<g>
	<g>
		<line fill="#4F8ABE" x1="405.453" y1="523.787" x2="307.245" y2="568.994"/>
		<path fill="#4F8ABE" d="M305.528,570.913c1.711-0.238,2.879-0.27,4.307-0.341l-2.109-4.582c-0.337,0.403-1.766,1.905-3.059,3.051
			c-1.384,1.226-2.688,2.229-3.579,2.782C302.087,571.506,303.697,571.167,305.528,570.913z"/>
	</g>
	<g>
		
			<line fill="none" stroke="#ED1C24" stroke-linecap="round" stroke-miterlimit="1" stroke-dasharray="5,5,1,5" x1="405.453" y1="523.787" x2="307.245" y2="568.994"/>
		<path fill="#ED1C24" d="M305.528,570.913c1.711-0.238,2.879-0.27,4.307-0.341l-2.109-4.582c-0.337,0.403-1.766,1.905-3.059,3.051
			c-1.384,1.226-2.688,2.229-3.579,2.782C302.087,571.506,303.697,571.167,305.528,570.913z"/>
	</g>
</g>
<g>
	<g>
		<line fill="#4F8ABE" x1="307.245" y1="569.537" x2="405.453" y2="569.537"/>
		<path fill="#4F8ABE" d="M407.814,568.512c-1.652-0.499-2.728-0.959-4.054-1.491v5.044c0.475-0.225,2.401-0.992,4.054-1.491
			c1.77-0.534,3.375-0.9,4.415-1.03C411.189,569.412,409.584,569.047,407.814,568.512z"/>
	</g>
	<g>
		
			<line fill="none" stroke="#ED1C24" stroke-linecap="round" stroke-miterlimit="1" stroke-dasharray="5,5,1,5" x1="307.245" y1="569.537" x2="405.453" y2="569.537"/>
		<path fill="#ED1C24" d="M407.814,568.512c-1.652-0.499-2.728-0.959-4.054-1.491v5.044c0.475-0.225,2.401-0.992,4.054-1.491
			c1.77-0.534,3.375-0.9,4.415-1.03C411.189,569.412,409.584,569.047,407.814,568.512z"/>
	</g>
</g>
</svg>
