<?xml version="1.0" encoding="utf-8"?>
<!-- $Source: /home/bbennett/pass/archive/DicomXml/docbook/part17/figures/PS3.17_F.1-2.svg,v $ -->
<!-- $Date: 2014/05/09 12:30:20 $ -->
<!-- $Revision: 1.2 $ -->

<!DOCTYPE svg PUBLIC "-//W3C//DTD SVG 1.1//EN" "http://www.w3.org/Graphics/SVG/1.1/DTD/svg11.dtd">
<svg version="1.1" id="Layer_1" xmlns="http://www.w3.org/2000/svg" xmlns:xlink="http://www.w3.org/1999/xlink" x="0px" y="0px"
	 width="502px" height="377px" viewBox="0 0 502 377" enable-background="new 0 0 502 377" xml:space="preserve">

<defs>
	<style type="text/css">
	text {
	  font-family: Helvetica, Verdana, ArialUnicodeMS, san-serif
	}
	</style>
</defs>

<g>
   <desc>
	PS 3.17 Part 17: Explanatory Information
   </desc>
</g>

<g>
	<rect x="1" y="1" fill="#F5EED6" width="500" height="375"/>
	<g>
		<polygon opacity="0.4" fill="#0DB14B" stroke="#0DB14B" stroke-miterlimit="1" points="472.427,355.785 30.009,355.785 
			30.009,228.148 175.409,228.148 175.409,164.375 219.689,164.375 219.689,89.18 472.427,89.18 		"/>
		<polygon opacity="0.4" fill="#FFC20E" stroke="#FFC20E" stroke-miterlimit="1" points="472.427,11.643 30.009,11.643 
			30.009,228.148 175.409,228.148 175.409,164.375 219.689,164.375 219.689,89.18 472.427,89.18 		"/>
		<g>
			<g>
				<polyline fill="none" stroke="#005695" stroke-linecap="round" stroke-miterlimit="1" points="249.63,83.324 422.169,83.324 
					422.169,89.261 				"/>
				<path fill="#005695" d="M423.194,91.623c0.499-1.652,0.959-2.728,1.491-4.054h-5.044c0.225,0.475,0.992,2.401,1.491,4.054
					c0.534,1.77,0.9,3.375,1.03,4.415C422.294,94.998,422.659,93.392,423.194,91.623z"/>
			</g>
		</g>
		
			<rect x="191.604" y="27.833" fill="#B2CEE7" stroke="#010101" stroke-width="0.75" stroke-linecap="round" stroke-linejoin="round" stroke-miterlimit="1" width="117.007" height="36"/>
		<g>
			<text transform="matrix(1 0 0 1 212.9746 38.4634)"><tspan x="0" y="0" font-size="8">CAD Processing and</tspan><tspan x="3.785" y="9.6" font-size="8">Findings Summary</tspan><tspan x="22.908" y="19.2" font-size="8">(CODE)</tspan></text>
		</g>
		<g>
			<text transform="matrix(1 0 0 1 393.1641 348.0312)" font-size="9">DETECTIONS</text>
		</g>
		<g>
			<text transform="matrix(1 0 0 1 398.4092 24.2314)" font-size="9">ANALYSES</text>
		</g>
		
			<line fill="none" stroke="#005695" stroke-width="2" stroke-linecap="round" stroke-miterlimit="1" stroke-dasharray="3,4" x1="148.332" y1="345.527" x2="166.332" y2="345.527"/>
		<g>
			<g>
				
					<line fill="none" stroke="#005695" stroke-linecap="round" stroke-miterlimit="1" x1="157.174" y1="330.424" x2="157.174" y2="335.15"/>
				<path fill="#005695" d="M158.199,337.514c0.5-1.654,0.959-2.729,1.492-4.055h-5.044c0.226,0.475,0.993,2.4,1.492,4.055
					c0.535,1.77,0.9,3.373,1.031,4.414C157.299,340.887,157.665,339.283,158.199,337.514z"/>
			</g>
		</g>
		<g>
			<g>
				
					<line fill="none" stroke="#005695" stroke-linecap="round" stroke-miterlimit="1" x1="157.174" y1="299.832" x2="157.174" y2="304.826"/>
				<path fill="#005695" d="M158.199,307.189c0.5-1.654,0.959-2.729,1.492-4.055h-5.044c0.226,0.475,0.993,2.4,1.492,4.055
					c0.535,1.77,0.9,3.373,1.031,4.414C157.299,310.562,157.665,308.959,158.199,307.189z"/>
			</g>
		</g>
		
			<rect x="121.177" y="279.922" fill="#B2CEE7" stroke="#010101" stroke-width="0.75" stroke-linecap="round" stroke-linejoin="round" stroke-miterlimit="1" width="72" height="19.91"/>
		<g>
			<text transform="matrix(1 0 0 1 124.2959 288.2148)"><tspan x="0" y="0" font-size="7">Single Image Finding</tspan><tspan x="20.438" y="8.4" font-size="7">(CODE)</tspan></text>
		</g>
		<g>
			
				<polygon fill="#CCDEF0" stroke="#010101" stroke-width="0.75" stroke-linecap="round" stroke-linejoin="round" stroke-miterlimit="1" points="
				120.668,320.189 157.143,310.473 193.68,320.502 193.68,320.527 157.103,330.381 			"/>
		</g>
		<text transform="matrix(1 0 0 1 130.8374 322.3633)" font-size="6">HAS PROPERTIES</text>
		
			<line fill="none" stroke="#005695" stroke-width="2" stroke-linecap="round" stroke-miterlimit="1" stroke-dasharray="3,4" x1="71.424" y1="345.527" x2="89.424" y2="345.527"/>
		<g>
			<g>
				
					<line fill="none" stroke="#005695" stroke-linecap="round" stroke-miterlimit="1" x1="80.268" y1="330.424" x2="80.268" y2="335.15"/>
				<path fill="#005695" d="M81.292,337.514c0.5-1.654,0.959-2.729,1.492-4.055H77.74c0.226,0.475,0.993,2.4,1.492,4.055
					c0.535,1.77,0.9,3.373,1.031,4.414C80.393,340.887,80.758,339.283,81.292,337.514z"/>
			</g>
		</g>
		<g>
			<g>
				
					<line fill="none" stroke="#005695" stroke-linecap="round" stroke-miterlimit="1" x1="80.268" y1="299.832" x2="80.268" y2="304.826"/>
				<path fill="#005695" d="M81.292,307.189c0.5-1.654,0.959-2.729,1.492-4.055H77.74c0.226,0.475,0.993,2.4,1.492,4.055
					c0.535,1.77,0.9,3.373,1.031,4.414C80.393,310.562,80.758,308.959,81.292,307.189z"/>
			</g>
		</g>
		<g>
			<g>
				
					<line fill="none" stroke="#005695" stroke-linecap="round" stroke-miterlimit="1" x1="80.268" y1="266.113" x2="80.268" y2="275.143"/>
				<path fill="#005695" d="M81.292,277.506c0.5-1.654,0.959-2.729,1.492-4.055H77.74c0.226,0.475,0.993,2.4,1.492,4.055
					c0.535,1.77,0.9,3.373,1.031,4.414C80.393,280.879,80.758,279.275,81.292,277.506z"/>
			</g>
		</g>
		<g>
			<g>
				<polyline fill="none" stroke="#005695" stroke-linecap="round" stroke-miterlimit="1" points="118.755,224.658 118.755,234.062 
					80.268,234.062 80.268,242.221 				"/>
				<path fill="#005695" d="M81.292,244.584c0.5-1.654,0.959-2.729,1.492-4.055H77.74c0.226,0.475,0.993,2.4,1.492,4.055
					c0.535,1.77,0.9,3.373,1.031,4.414C80.393,247.957,80.758,246.354,81.292,244.584z"/>
			</g>
		</g>
		<g>
			<g>
				<polyline fill="none" stroke="#005695" stroke-linecap="round" stroke-miterlimit="1" points="118.69,224.658 118.69,234.062 
					157.172,234.062 157.172,242.221 				"/>
				<path fill="#005695" d="M158.197,244.584c0.5-1.654,0.959-2.729,1.492-4.055h-5.044c0.226,0.475,0.993,2.4,1.492,4.055
					c0.535,1.77,0.9,3.373,1.031,4.414C157.297,247.957,157.663,246.354,158.197,244.584z"/>
			</g>
		</g>
		
			<rect x="44.267" y="279.922" fill="#B2CEE7" stroke="#010101" stroke-width="0.75" stroke-linecap="round" stroke-linejoin="round" stroke-miterlimit="1" width="72" height="19.91"/>
		<g>
			<text transform="matrix(1 0 0 1 47.3857 288.2148)"><tspan x="0" y="0" font-size="7">Single Image Finding</tspan><tspan x="20.438" y="8.4" font-size="7">(CODE)</tspan></text>
		</g>
		
			<rect x="85.58" y="204.746" fill="#B2CEE7" stroke="#010101" stroke-width="0.75" stroke-linecap="round" stroke-linejoin="round" stroke-miterlimit="1" width="66.365" height="19.912"/>
		<g>
			<text transform="matrix(1 0 0 1 89.001 213.04)"><tspan x="0" y="0" font-size="7">Composite Feature</tspan><tspan x="17.32" y="8.399" font-size="7">(CODE)</tspan></text>
		</g>
		<g>
			<g>
				
					<line fill="none" stroke="#005695" stroke-linecap="round" stroke-miterlimit="1" x1="157.174" y1="266.113" x2="157.174" y2="274.592"/>
				<path fill="#005695" d="M158.199,276.955c0.5-1.654,0.959-2.729,1.492-4.055h-5.044c0.226,0.475,0.993,2.4,1.492,4.055
					c0.535,1.77,0.9,3.373,1.031,4.414C157.299,280.328,157.665,278.725,158.199,276.955z"/>
			</g>
		</g>
		<g>
			<g>
				
					<polygon fill="#CCDEF0" stroke="#010101" stroke-width="0.75" stroke-linecap="round" stroke-linejoin="round" stroke-miterlimit="1" points="
					120.671,256.945 157.14,247.23 193.677,257.26 193.677,257.283 157.1,267.135 				"/>
			</g>
			<text transform="matrix(1 0 0 1 132.1816 258.6172)" font-size="6">INFERRED FROM</text>
		</g>
		<g>
			<g>
				
					<polygon fill="#CCDEF0" stroke="#010101" stroke-width="0.75" stroke-linecap="round" stroke-linejoin="round" stroke-miterlimit="1" points="
					43.761,256.945 80.234,247.23 116.77,257.26 116.77,257.283 80.194,267.135 				"/>
			</g>
			<text transform="matrix(1 0 0 1 55.2676 258.6172)" font-size="6">INFERRED FROM</text>
		</g>
		<g>
			<g>
				
					<line fill="none" stroke="#005695" stroke-linecap="round" stroke-miterlimit="1" x1="118.721" y1="190.551" x2="118.721" y2="199.58"/>
				<path fill="#005695" d="M119.746,201.943c0.5-1.654,0.959-2.729,1.492-4.055h-5.044c0.226,0.475,0.993,2.4,1.492,4.055
					c0.535,1.77,0.9,3.373,1.031,4.414C118.846,205.316,119.211,203.713,119.746,201.943z"/>
			</g>
		</g>
		<g>
			<g>
				<polyline fill="none" stroke="#005695" stroke-linecap="round" stroke-miterlimit="1" points="175.791,149.096 175.791,158.767 
					118.721,158.767 118.721,166.658 				"/>
				<path fill="#005695" d="M119.746,169.019c0.5-1.652,0.959-2.728,1.492-4.054h-5.044c0.226,0.475,0.993,2.401,1.492,4.054
					c0.535,1.77,0.9,3.375,1.031,4.415C118.846,172.394,119.211,170.789,119.746,169.019z"/>
			</g>
		</g>
		<g>
			<g>
				
					<line fill="none" stroke="#005695" stroke-linecap="round" stroke-miterlimit="1" x1="234.652" y1="190.551" x2="234.652" y2="199.031"/>
				<path fill="#005695" d="M235.678,201.395c0.499-1.654,0.959-2.729,1.491-4.055h-5.044c0.225,0.475,0.992,2.4,1.491,4.055
					c0.534,1.77,0.9,3.373,1.03,4.414C234.777,204.768,235.143,203.164,235.678,201.395z"/>
			</g>
		</g>
		<g>
			<g>
				
					<polygon fill="#CCDEF0" stroke="#010101" stroke-width="0.75" stroke-linecap="round" stroke-linejoin="round" stroke-miterlimit="1" points="
					82.213,181.385 118.687,171.668 155.224,181.698 155.224,181.721 118.647,191.574 				"/>
			</g>
			<text transform="matrix(1 0 0 1 93.7227 183.0566)" font-size="6">INFERRED FROM</text>
		</g>
		<g>
			<g>
				<polyline fill="none" stroke="#005695" stroke-linecap="round" stroke-miterlimit="1" points="175.726,149.362 175.726,158.767 
					234.65,158.767 234.65,166.924 				"/>
				<path fill="#005695" d="M235.676,169.287c0.499-1.654,0.959-2.729,1.491-4.055h-5.044c0.225,0.475,0.992,2.4,1.491,4.055
					c0.534,1.77,0.9,3.373,1.03,4.414C234.775,172.66,235.141,171.056,235.676,169.287z"/>
			</g>
		</g>
		<g>
			
				<polygon fill="#CCDEF0" stroke="#010101" stroke-width="0.75" stroke-linecap="round" stroke-linejoin="round" stroke-miterlimit="1" points="
				43.761,320.189 80.234,310.473 116.77,320.502 116.77,320.527 80.194,330.381 			"/>
		</g>
		<text transform="matrix(1 0 0 1 53.9302 322.3633)" font-size="6">HAS PROPERTIES</text>
		
			<line fill="none" stroke="#005695" stroke-width="2" stroke-linecap="round" stroke-miterlimit="1" stroke-dasharray="3,4" x1="225.815" y1="282.395" x2="243.815" y2="282.395"/>
		<g>
			<g>
				
					<line fill="none" stroke="#005695" stroke-linecap="round" stroke-miterlimit="1" x1="234.658" y1="267.293" x2="234.658" y2="272.02"/>
				<path fill="#005695" d="M235.684,274.383c0.499-1.654,0.959-2.729,1.491-4.055h-5.044c0.225,0.475,0.992,2.4,1.491,4.055
					c0.534,1.77,0.9,3.373,1.03,4.414C234.783,277.756,235.148,276.152,235.684,274.383z"/>
			</g>
		</g>
		<g>
			<g>
				
					<line fill="none" stroke="#005695" stroke-linecap="round" stroke-miterlimit="1" x1="234.658" y1="224.754" x2="234.658" y2="242.227"/>
				<path fill="#005695" d="M235.684,244.59c0.499-1.654,0.959-2.729,1.491-4.055h-5.044c0.225,0.475,0.992,2.4,1.491,4.055
					c0.534,1.77,0.9,3.373,1.03,4.414C234.783,247.963,235.148,246.359,235.684,244.59z"/>
			</g>
		</g>
		
			<rect x="198.659" y="205.223" fill="#B2CEE7" stroke="#010101" stroke-width="0.75" stroke-linecap="round" stroke-linejoin="round" stroke-miterlimit="1" width="72" height="19.908"/>
		<g>
			<g>
				
					<line fill="none" stroke="#005695" stroke-linecap="round" stroke-miterlimit="1" x1="175.804" y1="115.26" x2="175.804" y2="124.293"/>
				<path fill="#005695" d="M176.828,126.656c0.5-1.654,0.96-2.729,1.492-4.055h-5.045c0.227,0.475,0.993,2.4,1.492,4.055
					c0.535,1.77,0.9,3.373,1.031,4.414C175.929,130.029,176.295,128.425,176.828,126.656z"/>
			</g>
		</g>
		<g>
			<g>
				
					<polygon fill="#CCDEF0" stroke="#010101" stroke-width="0.75" stroke-linecap="round" stroke-linejoin="round" stroke-miterlimit="1" points="
					139.298,106.095 175.77,96.38 212.308,106.409 212.308,106.432 175.729,116.285 				"/>
			</g>
			<text transform="matrix(1 0 0 1 160.3037 107.7666)" font-size="6">CONTAINS</text>
		</g>
		<g>
			<text transform="matrix(1 0 0 1 201.7783 212.3408)"><tspan x="0" y="0" font-size="7">Single Image Finding</tspan><tspan x="20.438" y="8.399" font-size="7">(CODE)</tspan></text>
		</g>
		<g>
			
				<polygon fill="#CCDEF0" stroke="#010101" stroke-width="0.75" stroke-linecap="round" stroke-linejoin="round" stroke-miterlimit="1" points="
				198.152,257.057 234.626,247.34 271.162,257.369 271.162,257.395 234.586,267.248 			"/>
		</g>
		<text transform="matrix(1 0 0 1 209.6631 259.2324)" font-size="6">INFERRED FROM</text>
		
			<line fill="none" stroke="#005695" stroke-width="2" stroke-linecap="round" stroke-miterlimit="1" stroke-dasharray="3,4" x1="413.329" y1="207.012" x2="431.329" y2="207.012"/>
		<g>
			<g>
				
					<line fill="none" stroke="#005695" stroke-linecap="round" stroke-miterlimit="1" x1="422.169" y1="191.91" x2="422.169" y2="196.635"/>
				<path fill="#005695" d="M423.194,198.998c0.499-1.654,0.959-2.729,1.491-4.055h-5.044c0.225,0.475,0.992,2.4,1.491,4.055
					c0.534,1.77,0.9,3.373,1.03,4.414C422.294,202.371,422.659,200.768,423.194,198.998z"/>
			</g>
		</g>
		<g>
			<g>
				
					<line fill="none" stroke="#005695" stroke-linecap="round" stroke-miterlimit="1" x1="422.169" y1="149.258" x2="422.169" y2="166.313"/>
				<path fill="#005695" d="M423.194,168.675c0.499-1.654,0.959-2.729,1.491-4.055h-5.044c0.225,0.475,0.992,2.4,1.491,4.055
					c0.534,1.77,0.9,3.373,1.03,4.414C422.294,172.048,422.659,170.445,423.194,168.675z"/>
			</g>
		</g>
		<g>
			
				<polygon fill="#CCDEF0" stroke="#010101" stroke-width="0.75" stroke-linecap="round" stroke-linejoin="round" stroke-miterlimit="1" points="
				385.665,181.676 422.14,171.957 458.676,181.989 458.676,182.012 422.098,191.867 			"/>
		</g>
		<text transform="matrix(1 0 0 1 395.8262 183.8491)" font-size="6">HAS PROPERTIES</text>
		<g>
			<g>
				
					<line fill="none" stroke="#005695" stroke-linecap="round" stroke-miterlimit="1" x1="422.175" y1="115.263" x2="422.175" y2="124.293"/>
				<path fill="#005695" d="M423.2,126.656c0.499-1.654,0.959-2.729,1.491-4.055h-5.044c0.225,0.475,0.992,2.4,1.491,4.055
					c0.534,1.77,0.9,3.373,1.03,4.414C422.3,130.029,422.665,128.425,423.2,126.656z"/>
			</g>
		</g>
		<g>
			<g>
				
					<polygon fill="#CCDEF0" stroke="#010101" stroke-width="0.75" stroke-linecap="round" stroke-linejoin="round" stroke-miterlimit="1" points="
					385.665,106.097 422.143,96.38 458.676,106.411 458.676,106.433 422.101,116.288 				"/>
			</g>
			<text transform="matrix(1 0 0 1 406.666 107.7681)" font-size="6">CONTAINS</text>
		</g>
		<g>
			<g>
				<polyline fill="none" stroke="#005695" stroke-linecap="round" stroke-miterlimit="1" points="249.558,63.833 249.558,83.324 
					175.77,83.324 175.77,89.18 				"/>
				<path fill="#005695" d="M176.795,91.542c0.499-1.654,0.959-2.729,1.491-4.055h-5.044c0.225,0.475,0.992,2.4,1.491,4.055
					c0.534,1.77,0.9,3.373,1.03,4.414C175.895,94.916,176.26,93.312,176.795,91.542z"/>
			</g>
		</g>
		<g>
			<g>
				
					<line fill="none" stroke="#005695" stroke-linecap="round" stroke-miterlimit="1" x1="331.235" y1="83.324" x2="331.235" y2="89.261"/>
				<path fill="#005695" d="M332.261,91.623c0.499-1.652,0.959-2.728,1.491-4.054h-5.044c0.225,0.475,0.992,2.401,1.491,4.054
					c0.534,1.77,0.9,3.375,1.03,4.415C331.36,94.998,331.726,93.392,332.261,91.623z"/>
			</g>
		</g>
		<g>
			<g>
				
					<polygon fill="#CCDEF0" stroke="#010101" stroke-width="0.75" stroke-linecap="round" stroke-linejoin="round" stroke-miterlimit="1" points="
					198.15,181.385 234.618,171.668 271.155,181.698 271.155,181.721 234.577,191.574 				"/>
			</g>
			<text transform="matrix(1 0 0 1 209.6602 183.0566)" font-size="6">INFERRED FROM</text>
		</g>
		
			<rect x="142.617" y="129.184" fill="#B2CEE7" stroke="#010101" stroke-width="0.75" stroke-linecap="round" stroke-linejoin="round" stroke-miterlimit="1" width="66.364" height="19.912"/>
		<g>
			<text transform="matrix(1 0 0 1 146.0391 137.4775)"><tspan x="0" y="0" font-size="7">Composite Feature</tspan><tspan x="17.32" y="8.4" font-size="7">(CODE)</tspan></text>
		</g>
		
			<rect x="386.169" y="129.348" fill="#B2CEE7" stroke="#010101" stroke-width="0.75" stroke-linecap="round" stroke-linejoin="round" stroke-miterlimit="1" width="72" height="19.91"/>
		<g>
			<text transform="matrix(1 0 0 1 389.2832 137.6401)"><tspan x="0" y="0" font-size="7">Single Image Finding</tspan><tspan x="20.438" y="8.4" font-size="7">(CODE)</tspan></text>
		</g>
		
			<line fill="none" stroke="#005695" stroke-width="2" stroke-linecap="round" stroke-miterlimit="1" stroke-dasharray="3,4" x1="322.395" y1="207.012" x2="340.395" y2="207.012"/>
		<g>
			<g>
				
					<line fill="none" stroke="#005695" stroke-linecap="round" stroke-miterlimit="1" x1="331.234" y1="191.91" x2="331.234" y2="196.635"/>
				<path fill="#005695" d="M332.259,198.998c0.5-1.654,0.96-2.729,1.492-4.055h-5.045c0.227,0.475,0.993,2.4,1.492,4.055
					c0.535,1.77,0.9,3.373,1.031,4.414C331.359,202.371,331.726,200.768,332.259,198.998z"/>
			</g>
		</g>
		<g>
			<g>
				
					<line fill="none" stroke="#005695" stroke-linecap="round" stroke-miterlimit="1" x1="331.234" y1="149.258" x2="331.234" y2="166.313"/>
				<path fill="#005695" d="M332.259,168.675c0.5-1.654,0.96-2.729,1.492-4.055h-5.045c0.227,0.475,0.993,2.4,1.492,4.055
					c0.535,1.77,0.9,3.373,1.031,4.414C331.359,172.048,331.726,170.445,332.259,168.675z"/>
			</g>
		</g>
		<g>
			
				<polygon fill="#CCDEF0" stroke="#010101" stroke-width="0.75" stroke-linecap="round" stroke-linejoin="round" stroke-miterlimit="1" points="
				294.73,181.676 331.205,171.957 367.741,181.989 367.741,182.012 331.163,191.867 			"/>
		</g>
		<text transform="matrix(1 0 0 1 304.8906 183.8491)" font-size="6">HAS PROPERTIES</text>
		<g>
			<g>
				
					<line fill="none" stroke="#005695" stroke-linecap="round" stroke-miterlimit="1" x1="331.24" y1="115.263" x2="331.24" y2="124.293"/>
				<path fill="#005695" d="M332.265,126.656c0.5-1.654,0.96-2.729,1.492-4.055h-5.045c0.227,0.475,0.993,2.4,1.492,4.055
					c0.535,1.77,0.9,3.373,1.031,4.414C331.365,130.029,331.731,128.425,332.265,126.656z"/>
			</g>
		</g>
		<g>
			<g>
				
					<polygon fill="#CCDEF0" stroke="#010101" stroke-width="0.75" stroke-linecap="round" stroke-linejoin="round" stroke-miterlimit="1" points="
					294.73,106.097 331.208,96.38 367.741,106.411 367.741,106.433 331.166,116.288 				"/>
			</g>
			<text transform="matrix(1 0 0 1 315.7305 107.7681)" font-size="6">CONTAINS</text>
		</g>
		
			<rect x="295.234" y="129.348" fill="#B2CEE7" stroke="#010101" stroke-width="0.75" stroke-linecap="round" stroke-linejoin="round" stroke-miterlimit="1" width="72" height="19.91"/>
		<g>
			<text transform="matrix(1 0 0 1 298.3496 137.6401)"><tspan x="0" y="0" font-size="7">Single Image Finding</tspan><tspan x="20.438" y="8.4" font-size="7">(CODE)</tspan></text>
		</g>
	</g>
</g>
</svg>
