<?xml version="1.0" encoding="utf-8"?>
<!-- $Source: /home/bbennett/pass/archive/DicomXml/docbook/part17/figures/PS3.17_FFF.1.5-1.svg,v $ -->
<!-- $Date: 2014/05/09 13:15:43 $ -->
<!-- $Revision: 1.1 $ -->

<!DOCTYPE svg PUBLIC "-//W3C//DTD SVG 1.1//EN" "http://www.w3.org/Graphics/SVG/1.1/DTD/svg11.dtd">
<svg version="1.1" id="Layer_1" xmlns="http://www.w3.org/2000/svg" xmlns:xlink="http://www.w3.org/1999/xlink" x="0px" y="0px"
	 width="502.001px" height="242px" viewBox="0 0 502.001 242" enable-background="new 0 0 502.001 242" xml:space="preserve">

<defs>
	<style type="text/css">
	text {
	  font-family: Helvetica, Verdana, ArialUnicodeMS, san-serif
	}
	</style>
</defs>

<g>
   <desc>
	PS 3.17 Part 17: Explanatory Information
   </desc>
</g>

<rect x="1" y="1" fill="#F5EED6" width="500.001" height="240"/>
<g>
	<g>
		<text transform="matrix(1 0 0 1 16.1973 82.1343)"><tspan x="0" y="0" font-size="8">X-Ray</tspan><tspan x="-3.783" y="7.714" font-size="8">Intensity</tspan></text>
	</g>
	<g>
		<g>
			
				<line fill="none" stroke="#005695" stroke-width="2" stroke-linecap="round" stroke-miterlimit="1" x1="43.469" y1="83.767" x2="85.487" y2="83.767"/>
			<g>
				<polygon fill="#005695" points="83.901,86.091 92.574,83.767 83.901,81.442 				"/>
			</g>
		</g>
	</g>
	<g>
		<g>
			
				<line fill="none" stroke="#005695" stroke-width="2" stroke-linecap="round" stroke-miterlimit="1" x1="68.021" y1="83.697" x2="68.021" y2="171.33"/>
			<g>
				<rect x="65.381" y="81.188" fill="#005695" width="5.281" height="5.281"/>
			</g>
			<g>
				<polygon fill="#005695" points="65.697,169.745 68.021,178.418 70.346,169.745 				"/>
			</g>
		</g>
	</g>
	<g>
		<g>
			
				<line fill="none" stroke="#005695" stroke-width="2" stroke-linecap="round" stroke-miterlimit="1" x1="138.671" y1="83.767" x2="183.403" y2="83.767"/>
			<g>
				<polygon fill="#005695" points="181.817,86.091 190.49,83.767 181.817,81.442 				"/>
			</g>
		</g>
	</g>
	<g>
		<g>
			
				<line fill="none" stroke="#005695" stroke-width="2" stroke-linecap="round" stroke-miterlimit="1" x1="164.58" y1="83.697" x2="164.58" y2="171.33"/>
			<g>
				<rect x="161.939" y="81.188" fill="#005695" width="5.281" height="5.281"/>
			</g>
			<g>
				<polygon fill="#005695" points="162.256,169.745 164.58,178.418 166.904,169.745 				"/>
			</g>
		</g>
	</g>
	<g>
		<g>
			
				<line fill="none" stroke="#005695" stroke-width="2" stroke-linecap="round" stroke-miterlimit="1" x1="262.586" y1="83.767" x2="323.998" y2="83.767"/>
			<g>
				<polygon fill="#005695" points="322.413,86.091 331.086,83.767 322.413,81.442 				"/>
			</g>
		</g>
	</g>
	<g>
		<g>
			<polyline fill="none" stroke="#005695" stroke-width="2" stroke-linecap="round" stroke-miterlimit="1" points="421.086,83.767 
				451.086,83.767 451.086,171.33 			"/>
			<g>
				<polygon fill="#005695" points="448.762,169.745 451.086,178.418 453.41,169.745 				"/>
			</g>
		</g>
	</g>
	<g>
		<g>
			
				<line fill="none" stroke="#005695" stroke-width="2" stroke-linecap="round" stroke-miterlimit="1" x1="301.084" y1="83.697" x2="301.084" y2="171.33"/>
			<g>
				<rect x="298.443" y="81.188" fill="#005695" width="5.281" height="5.281"/>
			</g>
			<g>
				<polygon fill="#005695" points="298.76,169.745 301.084,178.418 303.408,169.745 				"/>
			</g>
		</g>
	</g>
	<g>
		
			<rect x="29.087" y="178.661" fill="#CCDEF0" stroke="#010101" stroke-width="0.75" stroke-linecap="round" stroke-linejoin="round" stroke-miterlimit="1" width="77" height="32"/>
		<g>
			<text transform="matrix(1 0 0 1 44.2407 185.9238)"><tspan x="0" y="0" font-size="6">Stored Pixel Data</tspan><tspan x="-12.507" y="7.199" font-size="6">Pixel Intensity Relationship</tspan><tspan x="7.166" y="14.4" font-size="6">(0028,1040)</tspan><tspan x="14.424" y="21.6" font-size="6"> = LIN </tspan></text>
		</g>
	</g>
	<g>
		<g>
			
				<rect x="93.743" y="75.029" fill="#B2CEE7" stroke="#010101" stroke-width="0.75" stroke-linecap="round" stroke-linejoin="round" stroke-miterlimit="1" width="44" height="20"/>
			<g>
				<text transform="matrix(1 0 0 1 96.7324 83.2524)"><tspan x="0" y="0" font-size="6">Encoding LUT</tspan><tspan x="2.174" y="7.2" font-size="6">(log, sqrt, ...)</tspan></text>
			</g>
		</g>
		<g>
			<text transform="matrix(1 0 0 1 94.3486 63.7056)"><tspan x="0" y="0" font-size="7">Densitometric</tspan><tspan x="-2.142" y="8.4" font-size="7">Transformation</tspan></text>
		</g>
	</g>
	<g>
		
			<rect x="190.35" y="56.828" fill="#86B2D8" stroke="#010101" stroke-width="0.75" stroke-linecap="round" stroke-linejoin="round" stroke-miterlimit="1" width="72" height="48"/>
		<rect x="196.35" y="61.297" fill="#CCDEF0" width="60" height="10"/>
		<rect x="196.35" y="75.828" fill="#CCDEF0" width="60" height="10"/>
		<rect x="196.35" y="90.359" fill="#CCDEF0" width="60" height="10"/>
		<g>
			<text transform="matrix(1 0 0 1 212.1768 68.0962)"><tspan x="0" y="0" font-size="6">Re-scaling</tspan><tspan x="-13.673" y="14.4" font-size="6">Multi-band re-scaling</tspan><tspan x="-9.004" y="28.8" font-size="6">Mask Subtraction</tspan></text>
		</g>
		<g>
			<text transform="matrix(1 0 0 1 189.2793 53.9053)" font-size="7">Densitometric Transformation</text>
		</g>
	</g>
	<g>
		
			<rect x="331.086" y="34.056" fill="#86B2D8" stroke="#010101" stroke-width="0.75" stroke-linecap="round" stroke-linejoin="round" stroke-miterlimit="1" width="90" height="101.946"/>
		<rect x="335.086" y="38.524" fill="#CCDEF0" width="82" height="10"/>
		<rect x="335.086" y="53.056" fill="#CCDEF0" width="82" height="17.196"/>
		<rect x="335.086" y="74.785" fill="#CCDEF0" width="82" height="16.966"/>
		<rect x="335.086" y="96.337" fill="#CCDEF0" width="82" height="16.665"/>
		<rect x="335.086" y="117.837" fill="#CCDEF0" width="82" height="10"/>
		<g>
			<text transform="matrix(1 0 0 1 343.9062 45.3232)"><tspan x="0" y="0" font-size="6">Rotation/Zoom/Shift/Flip</tspan><tspan x="14.338" y="14.4" font-size="6">Aspect Ratio/</tspan><tspan x="3.667" y="21.6" font-size="6">geometrical distortion</tspan><tspan x="-1.337" y="36" font-size="6">Spatial Filter convolution:</tspan><tspan x="0.158" y="43.2" font-size="6">Edge Enhancement, etc</tspan><tspan x="31.347" y="50.4" font-size="6">.</tspan><tspan x="-5.834" y="57.6" font-size="6">Linear or NON-Linear LUTS </tspan><tspan x="3.338" y="64.8" font-size="6">(volume, gamma, etc.</tspan><tspan x="14.01" y="79.2" font-size="6">Time Filtering</tspan></text>
		</g>
		<g>
			<text transform="matrix(1 0 0 1 332.0195 22.7324)"><tspan x="0" y="0" font-size="7">Geometric or Densitometric</tspan><tspan x="19.059" y="8.4" font-size="7">Transformation</tspan></text>
		</g>
	</g>
	<g>
		
			<rect x="129.087" y="178.661" fill="#CCDEF0" stroke="#010101" stroke-width="0.75" stroke-linecap="round" stroke-linejoin="round" stroke-miterlimit="1" width="77" height="32"/>
		<g>
			<text transform="matrix(1 0 0 1 144.2407 185.9238)"><tspan x="0" y="0" font-size="6">Stored Pixel Data</tspan><tspan x="-12.507" y="7.199" font-size="6">Pixel Intensity Relationship</tspan><tspan x="7.166" y="14.4" font-size="6">(0028,1040)</tspan><tspan x="-9.412" y="21.6" font-size="6">= LIN, LOG OR OTHER </tspan></text>
		</g>
		<g>
			<text transform="matrix(1 0 0 1 136.3271 217.8193)"><tspan x="0" y="0" font-size="5">Transformation TO_LINEAR</tspan><tspan x="1.388" y="6" font-size="5">provided if LOG or OTHER</tspan></text>
		</g>
	</g>
	<g>
		
			<rect x="262.586" y="178.661" fill="#CCDEF0" stroke="#010101" stroke-width="0.75" stroke-linecap="round" stroke-linejoin="round" stroke-miterlimit="1" width="77" height="32"/>
		<g>
			<text transform="matrix(1 0 0 1 277.7383 185.9238)"><tspan x="0" y="0" font-size="6">Stored Pixel Data</tspan><tspan x="-12.506" y="7.199" font-size="6">Pixel Intensity Relationship</tspan><tspan x="7.166" y="14.4" font-size="6">(0028,1040)</tspan><tspan x="8.594" y="21.6" font-size="6">=  OTHER </tspan></text>
		</g>
		<g>
			<text transform="matrix(1 0 0 1 269.8262 217.8193)"><tspan x="0" y="0" font-size="5">Transformation TO_LINEAR</tspan><tspan x="17.498" y="6" font-size="5">not provided</tspan></text>
		</g>
	</g>
	<g>
		
			<rect x="412.586" y="178.661" fill="#CCDEF0" stroke="#010101" stroke-width="0.75" stroke-linecap="round" stroke-linejoin="round" stroke-miterlimit="1" width="77" height="32"/>
		<g>
			<text transform="matrix(1 0 0 1 427.7393 185.9238)"><tspan x="0" y="0" font-size="6">Stored Pixel Data</tspan><tspan x="-12.507" y="7.199" font-size="6">Pixel Intensity Relationship</tspan><tspan x="7.166" y="14.4" font-size="6">(0028,1040)</tspan><tspan x="8.593" y="21.6" font-size="6">=  OTHER </tspan></text>
		</g>
		<g>
			<text transform="matrix(1 0 0 1 419.8262 217.8193)"><tspan x="0" y="0" font-size="5">Transformation TO_LINEAR</tspan><tspan x="17.498" y="6" font-size="5">not provided</tspan></text>
		</g>
	</g>
</g>
</svg>
