<?xml version="1.0" encoding="utf-8"?>
<!-- $Source: /home/bbennett/pass/archive/DicomXml/docbook/part17/figures/PS3.17_Q.1-1.svg,v $ -->
<!-- $Date: 2014/05/09 12:31:56 $ -->
<!-- $Revision: 1.2 $ -->

<!DOCTYPE svg PUBLIC "-//W3C//DTD SVG 1.1//EN" "http://www.w3.org/Graphics/SVG/1.1/DTD/svg11.dtd">
<svg version="1.1" id="Layer_1" xmlns="http://www.w3.org/2000/svg" xmlns:xlink="http://www.w3.org/1999/xlink" x="0px" y="0px"
	 width="502px" height="232px" viewBox="0 0 502 232" enable-background="new 0 0 502 232" xml:space="preserve">

<defs>
	<style type="text/css">
	text {
	  font-family: Helvetica, Verdana, ArialUnicodeMS, san-serif
	}
	</style>
</defs>

<g>
   <desc>
	PS 3.17 Part 17: Explanatory Information
   </desc>
</g>

<g>
	<rect x="1" y="1" fill="#F5EED6" width="500" height="230"/>
	<g>
		
			<rect x="197.163" y="17.959" fill="#86B2D8" stroke="#010101" stroke-width="0.75" stroke-linecap="round" stroke-linejoin="round" stroke-miterlimit="1" width="108.002" height="27"/>
		<g>
			<text transform="matrix(1 0 0 1 227.6235 25.0039)"><tspan x="0" y="0" font-size="7">Breast Imaging</tspan><tspan x="13.035" y="8.4" font-size="7">Report</tspan><tspan x="0.596" y="16.8" font-size="7">(CONTAINER)</tspan></text>
		</g>
		<g>
			<g>
				
					<line fill="none" stroke="#005695" stroke-linecap="round" stroke-miterlimit="1" x1="251.164" y1="108.271" x2="251.164" y2="116.088"/>
				<path fill="#005695" d="M252.189,118.449c0.499-1.653,0.959-2.728,1.491-4.054h-5.044c0.226,0.475,0.993,2.401,1.492,4.054
					c0.535,1.77,0.9,3.375,1.031,4.415C251.289,121.824,251.654,120.219,252.189,118.449z"/>
			</g>
		</g>
		
			<rect x="206.163" y="124.045" fill="#B2CEE7" stroke="#010101" stroke-width="0.75" stroke-linecap="round" stroke-linejoin="round" stroke-miterlimit="1" width="90.002" height="36"/>
		<g>
			<text transform="matrix(1 0 0 1 227.6245 131.3877)"><tspan x="0" y="0" font-size="7">Breast Imaging</tspan><tspan x="-2.136" y="8.399" font-size="7">Report Narrative</tspan><tspan x="6.812" y="16.8" font-size="7">TID (4202)</tspan><tspan x="5.845" y="25.2" font-size="7">(INCLUDE)</tspan></text>
		</g>
		
			<polygon fill="#CCDEF0" stroke="#010101" stroke-width="0.75" stroke-linecap="round" stroke-linejoin="round" stroke-miterlimit="1" points="
			210.661,95.664 251.126,84.883 291.666,96.012 291.666,96.039 251.083,106.973 		"/>
		<g>
			<g>
				
					<line fill="none" stroke="#005695" stroke-linecap="round" stroke-miterlimit="1" x1="348.558" y1="108.271" x2="348.558" y2="116.088"/>
				<path fill="#005695" d="M349.583,118.449c0.499-1.653,0.959-2.728,1.491-4.054h-5.044c0.225,0.475,0.992,2.401,1.491,4.054
					c0.534,1.77,0.9,3.375,1.03,4.415C348.683,121.824,349.048,120.219,349.583,118.449z"/>
			</g>
		</g>
		
			<rect x="303.558" y="124.045" fill="#B2CEE7" stroke="#010101" stroke-width="0.75" stroke-linecap="round" stroke-linejoin="round" stroke-miterlimit="1" width="90.002" height="36"/>
		<g>
			<text transform="matrix(1 0 0 1 313.5415 131.3877)"><tspan x="0" y="0" font-size="7">Breast Imaging Report</tspan><tspan x="3.11" y="8.399" font-size="7">Supplementary Data</tspan><tspan x="18.29" y="16.8" font-size="7">TID (4208)</tspan><tspan x="17.322" y="25.2" font-size="7">(INCLUDE)</tspan></text>
		</g>
		
			<polygon fill="#CCDEF0" stroke="#010101" stroke-width="0.75" stroke-linecap="round" stroke-linejoin="round" stroke-miterlimit="1" points="
			308.056,95.664 348.523,84.883 389.062,96.012 389.062,96.039 348.48,106.973 		"/>
		<g>
			<text transform="matrix(1 0 0 1 220.5024 194.9336)"><tspan x="0" y="0" font-size="7">See Figure Q.1-3</tspan><tspan x="3.307" y="8.399" font-size="7">Breast Imaging</tspan><tspan x="1.171" y="16.799" font-size="7">Report Narrative</tspan></text>
		</g>
		<g>
			<text transform="matrix(1 0 0 1 318.1333 194.9316)"><tspan x="0" y="0" font-size="7">See Figure Q.1-4</tspan><tspan x="-8.171" y="8.4" font-size="7">Breast Imaging Report</tspan><tspan x="-5.06" y="16.801" font-size="7">Supplementary Data</tspan></text>
		</g>
		<g>
			<g>
				
					<line fill="none" stroke="#005695" stroke-linecap="round" stroke-miterlimit="1" stroke-dasharray="4" x1="251.164" y1="160.164" x2="251.164" y2="177.404"/>
				<path fill="#005695" d="M252.189,179.766c0.499-1.652,0.959-2.728,1.491-4.054h-5.044c0.226,0.475,0.993,2.401,1.492,4.054
					c0.535,1.77,0.9,3.375,1.031,4.415C251.289,183.141,251.654,181.535,252.189,179.766z"/>
			</g>
		</g>
		<g>
			<g>
				
					<line fill="none" stroke="#005695" stroke-linecap="round" stroke-miterlimit="1" stroke-dasharray="4" x1="348.794" y1="160.164" x2="348.794" y2="177.404"/>
				<path fill="#005695" d="M349.82,179.766c0.499-1.652,0.959-2.728,1.491-4.054h-5.044c0.225,0.475,0.992,2.401,1.491,4.054
					c0.534,1.77,0.9,3.375,1.03,4.415C348.919,183.141,349.285,181.535,349.82,179.766z"/>
			</g>
		</g>
		<g>
			<g>
				<polyline fill="none" stroke="#005695" stroke-linecap="round" stroke-miterlimit="1" points="348.794,62.352 348.759,62.354 
					153.441,62.352 153.441,62.354 153.441,77.006 				"/>
				<path fill="#005695" d="M154.466,79.368c0.5-1.653,0.959-2.728,1.492-4.054h-5.044c0.226,0.475,0.993,2.401,1.492,4.054
					c0.535,1.77,0.9,3.374,1.031,4.415C153.566,82.742,153.932,81.137,154.466,79.368z"/>
			</g>
		</g>
		<g>
			<g>
				
					<line fill="none" stroke="#005695" stroke-linecap="round" stroke-miterlimit="1" x1="348.56" y1="62.354" x2="348.56" y2="77.006"/>
				<path fill="#005695" d="M349.585,79.368c0.499-1.653,0.959-2.728,1.491-4.054h-5.044c0.225,0.475,0.992,2.401,1.491,4.054
					c0.534,1.77,0.9,3.374,1.03,4.415C348.685,82.742,349.05,81.137,349.585,79.368z"/>
			</g>
		</g>
		<g>
			<g>
				
					<line fill="none" stroke="#005695" stroke-linecap="round" stroke-miterlimit="1" x1="251.164" y1="44.959" x2="251.164" y2="77"/>
				<path fill="#005695" d="M252.189,79.362c0.499-1.653,0.959-2.728,1.491-4.054h-5.044c0.226,0.475,0.993,2.401,1.492,4.054
					c0.535,1.77,0.9,3.374,1.031,4.415C251.289,82.736,251.654,81.131,252.189,79.362z"/>
			</g>
		</g>
		
			<polygon fill="#CCDEF0" stroke="#010101" stroke-width="0.75" stroke-linecap="round" stroke-linejoin="round" stroke-miterlimit="1" points="
			108.446,95.605 153.406,82.428 198.446,96.031 198.446,96.063 153.359,109.428 		"/>
		<text transform="matrix(1 0 0 1 128.1646 95.1152)"><tspan x="0" y="0" font-size="7">HAS CONCEPT</tspan><tspan x="8.17" y="8.4" font-size="7">MODIFIER</tspan></text>
		<g>
			<g>
				
					<line fill="none" stroke="#005695" stroke-linecap="round" stroke-miterlimit="1" x1="153.441" y1="109.854" x2="153.441" y2="116.748"/>
				<path fill="#005695" d="M154.466,119.109c0.5-1.652,0.959-2.728,1.492-4.054h-5.044c0.226,0.475,0.993,2.401,1.492,4.054
					c0.535,1.77,0.9,3.375,1.031,4.415C153.566,122.484,153.932,120.879,154.466,119.109z"/>
			</g>
		</g>
		
			<rect x="108.44" y="124.045" fill="#B2CEE7" stroke="#010101" stroke-width="0.75" stroke-linecap="round" stroke-linejoin="round" stroke-miterlimit="1" width="90.002" height="36"/>
		<g>
			<text transform="matrix(1 0 0 1 112.9712 131.3877)"><tspan x="0" y="0" font-size="7">Language of Content Item</tspan><tspan x="13.232" y="8.399" font-size="7">and Descendants</tspan><tspan x="23.746" y="16.8" font-size="7">TID (1204)</tspan><tspan x="22.779" y="25.2" font-size="7">(INCLUDE)</tspan></text>
		</g>
		<text transform="matrix(1 0 0 1 233.0786 97.8711)" font-size="7">CONTAINS</text>
		<text transform="matrix(1 0 0 1 330.4741 97.8711)" font-size="7">CONTAINS</text>
	</g>
</g>
</svg>
