<?xml version="1.0" encoding="utf-8"?>
<!-- $Source: /home/bbennett/pass/archive/DicomXml/docbook/part17/figures/PS3.17_V.1-2.svg,v $ -->
<!-- $Date: 2014/05/09 12:31:56 $ -->
<!-- $Revision: 1.2 $ -->

<!DOCTYPE svg PUBLIC "-//W3C//DTD SVG 1.1//EN" "http://www.w3.org/Graphics/SVG/1.1/DTD/svg11.dtd">
<svg version="1.1" id="Layer_1" xmlns="http://www.w3.org/2000/svg" xmlns:xlink="http://www.w3.org/1999/xlink" x="0px" y="0px"
	 width="502px" height="502px" viewBox="0 0 502 502" enable-background="new 0 0 502 502" xml:space="preserve">

<defs>
	<style type="text/css">
	text {
	  font-family: Helvetica, Verdana, ArialUnicodeMS, san-serif
	}
	</style>
</defs>

<g>
   <desc>
	PS 3.17 Part 17: Explanatory Information
   </desc>
</g>

<g>
	<rect x="1" y="1" fill="#F5EED6" width="500" height="500"/>
	<g>
		<rect x="39.201" y="49.994" fill="#CCDEF0" width="423.599" height="139.162"/>
		<rect x="39.201" y="189.156" fill="#B2CEE7" width="423.599" height="123.227"/>
		<rect x="39.201" y="358.189" fill="#86B2D8" width="423.599" height="117.418"/>
		<g>
			<g>
				
					<line fill="none" stroke="#003468" stroke-linecap="round" stroke-miterlimit="1" x1="296.761" y1="92.721" x2="142.848" y2="92.721"/>
				<path fill="#003468" d="M140.486,93.746c1.653,0.5,2.728,0.959,4.054,1.492v-5.044c-0.475,0.226-2.401,0.993-4.054,1.492
					c-1.77,0.535-3.374,0.9-4.415,1.031C137.112,92.846,138.716,93.211,140.486,93.746z"/>
			</g>
		</g>
		<g>
			<g>
				
					<line fill="none" stroke="#003468" stroke-linecap="round" stroke-miterlimit="1" x1="135.646" y1="68.629" x2="289.56" y2="68.629"/>
				<path fill="#003468" d="M291.922,67.604c-1.654-0.5-2.729-0.959-4.055-1.492v5.044c0.475-0.226,2.4-0.993,4.055-1.492
					c1.77-0.535,3.373-0.9,4.414-1.031C295.295,68.504,293.691,68.138,291.922,67.604z"/>
			</g>
		</g>
		
			<line fill="#4F8ABE" stroke="#005695" stroke-linecap="round" stroke-miterlimit="1" stroke-dasharray="3" x1="130.646" y1="486.576" x2="130.646" y2="39.457"/>
		<text transform="matrix(1 0 0 1 146.8989 66.251)"><tspan x="0" y="0" font-size="8">Query Chest CT Hanging Protocols</tspan><tspan x="0" y="24.6" font-size="8">Match Site Default Hanging Protocol</tspan><tspan x="0" y="49.2" font-size="8">Retrieve Site Default Hanging Protocol</tspan><tspan x="0" y="73.8" font-size="8">Store Site Default Hanging Protocol</tspan><tspan x="0" y="98.4" font-size="8">Store Dr. A’s Hanging Protocol</tspan><tspan x="0" y="147.6" font-size="8">Query Chest CT Hanging Protocols</tspan><tspan x="0" y="172.2" font-size="8">Match Dr. A’s Hanging Protocol</tspan><tspan x="0" y="196.8" font-size="8">Retrieve Dr. A’s Hanging Protocol</tspan><tspan x="0" y="221.4" font-size="8">Store Dr. A’s Hanging Protocol</tspan><tspan x="0" y="319.8" font-size="8">Query Chest CT Hanging Protocols</tspan><tspan x="0" y="344.4" font-size="8">Match Dr. A’s Hanging Protocol</tspan><tspan x="0" y="369" font-size="8">Retrieve Dr. A’s Hanging Protocol</tspan><tspan x="0" y="393.6" font-size="8">Store Dr. A’s Hanging Protocol</tspan></text>
		
			<line fill="#4F8ABE" stroke="#005695" stroke-linecap="round" stroke-miterlimit="1" stroke-dasharray="3" x1="300.742" y1="486.576" x2="300.742" y2="39.457"/>
		
			<rect x="296.749" y="64.188" fill="#FFFFFF" stroke="#010101" stroke-width="0.75" stroke-linecap="round" stroke-linejoin="round" stroke-miterlimit="1" width="9.004" height="34.839"/>
		
			<rect x="126.646" y="64.188" fill="#FFFFFF" stroke="#010101" stroke-width="0.75" stroke-linecap="round" stroke-linejoin="round" stroke-miterlimit="1" width="9.001" height="34.839"/>
		<g>
			<g>
				
					<line fill="none" stroke="#003468" stroke-linecap="round" stroke-miterlimit="1" x1="135.646" y1="166.979" x2="289.56" y2="166.979"/>
				<path fill="#003468" d="M291.922,165.955c-1.654-0.5-2.729-0.959-4.055-1.492v5.044c0.475-0.226,2.4-0.993,4.055-1.492
					c1.77-0.535,3.373-0.9,4.414-1.031C295.295,166.854,293.691,166.489,291.922,165.955z"/>
			</g>
		</g>
		
			<rect x="296.749" y="161.579" fill="#FFFFFF" stroke="#010101" stroke-width="0.75" stroke-linecap="round" stroke-linejoin="round" stroke-miterlimit="1" width="9.004" height="18"/>
		
			<rect x="126.646" y="161.579" fill="#FFFFFF" stroke="#010101" stroke-width="0.75" stroke-linecap="round" stroke-linejoin="round" stroke-miterlimit="1" width="9.001" height="18"/>
		<g>
			<g>
				
					<line fill="none" stroke="#003468" stroke-linecap="round" stroke-miterlimit="1" x1="296.761" y1="142.188" x2="142.848" y2="142.188"/>
				<path fill="#003468" d="M140.486,143.213c1.653,0.5,2.728,0.959,4.054,1.492v-5.044c-0.475,0.226-2.401,0.993-4.054,1.492
					c-1.77,0.535-3.374,0.9-4.415,1.031C137.112,142.313,138.716,142.679,140.486,143.213z"/>
			</g>
		</g>
		<g>
			<g>
				
					<line fill="none" stroke="#003468" stroke-linecap="round" stroke-miterlimit="1" x1="135.646" y1="118.096" x2="289.56" y2="118.096"/>
				<path fill="#003468" d="M291.922,117.071c-1.654-0.5-2.729-0.959-4.055-1.492v5.044c0.475-0.226,2.4-0.993,4.055-1.492
					c1.77-0.535,3.373-0.9,4.414-1.031C295.295,117.971,293.691,117.605,291.922,117.071z"/>
			</g>
		</g>
		
			<rect x="296.749" y="113.654" fill="#FFFFFF" stroke="#010101" stroke-width="0.75" stroke-linecap="round" stroke-linejoin="round" stroke-miterlimit="1" width="9.004" height="34.84"/>
		
			<rect x="126.646" y="113.654" fill="#FFFFFF" stroke="#010101" stroke-width="0.75" stroke-linecap="round" stroke-linejoin="round" stroke-miterlimit="1" width="9.001" height="34.84"/>
		<g>
			<g>
				
					<line fill="none" stroke="#003468" stroke-linecap="round" stroke-miterlimit="1" x1="296.761" y1="240.538" x2="142.848" y2="240.538"/>
				<path fill="#003468" d="M140.486,241.563c1.653,0.5,2.728,0.959,4.054,1.492v-5.044c-0.475,0.226-2.401,0.993-4.054,1.492
					c-1.77,0.535-3.374,0.9-4.415,1.031C137.112,240.663,138.716,241.029,140.486,241.563z"/>
			</g>
		</g>
		<g>
			<g>
				
					<line fill="none" stroke="#003468" stroke-linecap="round" stroke-miterlimit="1" x1="135.646" y1="216.446" x2="289.56" y2="216.446"/>
				<path fill="#003468" d="M291.922,215.421c-1.654-0.5-2.729-0.959-4.055-1.492v5.044c0.475-0.226,2.4-0.993,4.055-1.492
					c1.77-0.535,3.373-0.9,4.414-1.031C295.295,216.321,293.691,215.956,291.922,215.421z"/>
			</g>
		</g>
		
			<rect x="296.749" y="212.004" fill="#FFFFFF" stroke="#010101" stroke-width="0.75" stroke-linecap="round" stroke-linejoin="round" stroke-miterlimit="1" width="9.004" height="34.84"/>
		
			<rect x="126.646" y="212.004" fill="#FFFFFF" stroke="#010101" stroke-width="0.75" stroke-linecap="round" stroke-linejoin="round" stroke-miterlimit="1" width="9.001" height="34.84"/>
		<g>
			<g>
				
					<line fill="none" stroke="#003468" stroke-linecap="round" stroke-miterlimit="1" x1="296.761" y1="290.004" x2="142.848" y2="290.004"/>
				<path fill="#003468" d="M140.486,291.029c1.653,0.499,2.728,0.959,4.054,1.491v-5.044c-0.475,0.225-2.401,0.992-4.054,1.491
					c-1.77,0.534-3.374,0.9-4.415,1.03C137.112,290.129,138.716,290.494,140.486,291.029z"/>
			</g>
		</g>
		<g>
			<g>
				
					<line fill="none" stroke="#003468" stroke-linecap="round" stroke-miterlimit="1" x1="135.646" y1="265.912" x2="289.56" y2="265.912"/>
				<path fill="#003468" d="M291.922,264.887c-1.654-0.499-2.729-0.959-4.055-1.491v5.044c0.475-0.225,2.4-0.992,4.055-1.491
					c1.77-0.534,3.373-0.9,4.414-1.03C295.295,265.787,293.691,265.422,291.922,264.887z"/>
			</g>
		</g>
		
			<rect x="296.749" y="261.471" fill="#FFFFFF" stroke="#010101" stroke-width="0.75" stroke-linecap="round" stroke-linejoin="round" stroke-miterlimit="1" width="9.004" height="34.84"/>
		
			<rect x="126.646" y="261.471" fill="#FFFFFF" stroke="#010101" stroke-width="0.75" stroke-linecap="round" stroke-linejoin="round" stroke-miterlimit="1" width="9.001" height="34.84"/>
		<g>
			<g>
				
					<line fill="none" stroke="#003468" stroke-linecap="round" stroke-miterlimit="1" x1="305.752" y1="412.361" x2="402.075" y2="412.361"/>
				<path fill="#003468" d="M404.438,411.336c-1.654-0.499-2.729-0.959-4.055-1.491v5.044c0.475-0.225,2.4-0.992,4.055-1.491
					c1.77-0.534,3.373-0.9,4.414-1.03C407.811,412.236,406.207,411.871,404.438,411.336z"/>
			</g>
		</g>
		<g>
			<g>
				
					<line fill="none" stroke="#003468" stroke-linecap="round" stroke-miterlimit="1" x1="409.276" y1="388.27" x2="312.954" y2="388.27"/>
				<path fill="#003468" d="M310.593,389.295c1.653,0.499,2.728,0.959,4.054,1.491v-5.044c-0.475,0.225-2.4,0.992-4.054,1.491
					c-1.77,0.534-3.374,0.9-4.415,1.03C307.219,388.395,308.823,388.76,310.593,389.295z"/>
			</g>
		</g>
		
			<rect x="296.76" y="383.828" fill="#FFFFFF" stroke="#010101" stroke-width="0.75" stroke-linecap="round" stroke-linejoin="round" stroke-miterlimit="1" width="9.004" height="34.838"/>
		<g>
			<g>
				
					<line fill="none" stroke="#003468" stroke-linecap="round" stroke-miterlimit="1" x1="305.752" y1="461.828" x2="402.075" y2="461.828"/>
				<path fill="#003468" d="M404.438,460.803c-1.654-0.499-2.729-0.959-4.055-1.491v5.044c0.475-0.225,2.4-0.992,4.055-1.491
					c1.77-0.534,3.373-0.9,4.414-1.03C407.811,461.703,406.207,461.338,404.438,460.803z"/>
			</g>
		</g>
		<g>
			<g>
				
					<line fill="none" stroke="#003468" stroke-linecap="round" stroke-miterlimit="1" x1="409.276" y1="437.736" x2="312.954" y2="437.736"/>
				<path fill="#003468" d="M310.593,438.762c1.653,0.499,2.728,0.959,4.054,1.491v-5.044c-0.475,0.225-2.4,0.992-4.054,1.491
					c-1.77,0.534-3.374,0.9-4.415,1.03C307.219,437.861,308.823,438.227,310.593,438.762z"/>
			</g>
		</g>
		
			<rect x="296.76" y="433.293" fill="#FFFFFF" stroke="#010101" stroke-width="0.75" stroke-linecap="round" stroke-linejoin="round" stroke-miterlimit="1" width="9.004" height="34.84"/>
		
			<rect x="94.646" y="15.424" fill="#FFFFFF" stroke="#010101" stroke-width="0.75" stroke-linecap="round" stroke-linejoin="round" stroke-miterlimit="1" width="72" height="27"/>
		<text transform="matrix(1 0 0 1 102.6372 31.4292)" font-size="9">Workstation X</text>
		<text transform="matrix(1 0 0 1 42.7681 63.3403)" font-size="9">Day 1</text>
		<text transform="matrix(1 0 0 1 46.3682 202.502)" font-size="9">Day 2</text>
		<text transform="matrix(1 0 0 1 46.3682 335.4053)" font-size="9">...</text>
		<text transform="matrix(1 0 0 1 42.7686 371.5352)" font-size="9">Day n</text>
		
			<line fill="#4F8ABE" stroke="#005695" stroke-linecap="round" stroke-miterlimit="1" stroke-dasharray="3" x1="413.604" y1="486.576" x2="413.604" y2="39.457"/>
		
			<rect x="264.739" y="15.424" fill="#FFFFFF" stroke="#010101" stroke-width="0.75" stroke-linecap="round" stroke-linejoin="round" stroke-miterlimit="1" width="72.006" height="27"/>
		<text transform="matrix(1 0 0 1 283.9785 26.0288)"><tspan x="0" y="0" font-size="9">Hanging</tspan><tspan x="-10.248" y="10.8" font-size="9">Protocol SCP</tspan></text>
		
			<rect x="377.604" y="15.424" fill="#FFFFFF" stroke="#010101" stroke-width="0.75" stroke-linecap="round" stroke-linejoin="round" stroke-miterlimit="1" width="72" height="27"/>
		<text transform="matrix(1 0 0 1 385.583 31.4292)" font-size="9">Workstation Y</text>
		<g>
			<g>
				<g>
					<g>
						<g>
							
								<line fill="#4F8ABE" stroke="#005695" stroke-linecap="round" stroke-miterlimit="1" stroke-dasharray="5,5,1,5" x1="143.298" y1="388.27" x2="296.748" y2="388.27"/>
						</g>
					</g>
				</g>
			</g>
		</g>
		<g>
			<g>
				<g>
					<g>
						<g>
							
								<line fill="#4F8ABE" stroke="#005695" stroke-linecap="round" stroke-miterlimit="1" stroke-dasharray="5,5,1,5" x1="143.298" y1="412.361" x2="296.748" y2="412.361"/>
						</g>
					</g>
				</g>
			</g>
		</g>
		<g>
			<g>
				<g>
					<g>
						<g>
							
								<line fill="#4F8ABE" stroke="#005695" stroke-linecap="round" stroke-miterlimit="1" stroke-dasharray="5,5,1,5" x1="143.298" y1="437.736" x2="296.748" y2="437.736"/>
						</g>
					</g>
				</g>
			</g>
		</g>
		<g>
			<g>
				<g>
					<g>
						<g>
							
								<line fill="#4F8ABE" stroke="#005695" stroke-linecap="round" stroke-miterlimit="1" stroke-dasharray="5,5,1,5" x1="143.298" y1="461.828" x2="296.748" y2="461.828"/>
						</g>
					</g>
				</g>
			</g>
		</g>
		
			<rect x="409.276" y="383.828" fill="#FFFFFF" stroke="#010101" stroke-width="0.75" stroke-linecap="round" stroke-linejoin="round" stroke-miterlimit="1" width="9.002" height="34.838"/>
		
			<rect x="409.276" y="433.295" fill="#FFFFFF" stroke="#010101" stroke-width="0.75" stroke-linecap="round" stroke-linejoin="round" stroke-miterlimit="1" width="9.002" height="34.838"/>
	</g>
</g>
</svg>
