<?xml version="1.0" encoding="utf-8"?>
<!-- $Source: /home/bbennett/pass/archive/DicomXml/docbook/part17/figures/PS3.17_CC.1-1.svg,v $ -->
<!-- $Date: 2014/05/09 12:30:20 $ -->
<!-- $Revision: 1.2 $ -->

<!DOCTYPE svg PUBLIC "-//W3C//DTD SVG 1.1//EN" "http://www.w3.org/Graphics/SVG/1.1/DTD/svg11.dtd">
<svg version="1.1" id="Layer_1" xmlns="http://www.w3.org/2000/svg" xmlns:xlink="http://www.w3.org/1999/xlink" x="0px" y="0px"
	 width="502px" height="187px" viewBox="0 0 502 187" enable-background="new 0 0 502 187" xml:space="preserve">

<defs>
	<style type="text/css">
	text {
	  font-family: Helvetica, Verdana, ArialUnicodeMS, san-serif
	}
	</style>
</defs>

<g>
   <desc>
	PS 3.17 Part 17: Explanatory Information
   </desc>
</g>

<g>
	<rect x="1" y="1" fill="#F5EED6" width="500" height="185"/>
	<g>
		
			<line fill="#4F8ABE" stroke="#005695" stroke-linecap="round" stroke-miterlimit="1" stroke-dasharray="3" x1="388.782" y1="169.691" x2="388.782" y2="40.424"/>
		
			<line fill="#4F8ABE" stroke="#005695" stroke-linecap="round" stroke-miterlimit="1" stroke-dasharray="3" x1="91.001" y1="169.971" x2="91.001" y2="40.703"/>
		
			<path fill="#CCDEF0" stroke="#010101" stroke-width="0.75" stroke-linecap="round" stroke-linejoin="round" stroke-miterlimit="1" d="
			M95.178,55.608h-9v105.417c3.149,0,5.968,0,9,0V55.608z"/>
		
			<path fill="#CCDEF0" stroke="#010101" stroke-width="0.75" stroke-linecap="round" stroke-linejoin="round" stroke-miterlimit="1" d="
			M393.084,55.608h-9v105.417c3.149,0,5.968,0,9,0V55.608z"/>
		
			<path fill="#CCDEF0" stroke="#010101" stroke-width="0.75" stroke-linecap="round" stroke-linejoin="round" stroke-miterlimit="1" d="
			M331.807,17.029H446v27H331.807V17.029z"/>
		<text transform="matrix(1 0 0 1 373.7793 27.6245)"><tspan x="0" y="0" font-size="9">Node B</tspan><tspan x="-38.762" y="10.8" font-size="9">Committed Storage Device</tspan></text>
		
			<path fill="#CCDEF0" stroke="#010101" stroke-width="0.75" stroke-linecap="round" stroke-linejoin="round" stroke-miterlimit="1" d="
			M56.001,17.029H126v27H56.001V17.029z"/>
		<text transform="matrix(1 0 0 1 75.9951 27.6245)"><tspan x="0" y="0" font-size="9">Node A</tspan><tspan x="-16.005" y="10.8" font-size="9">Imaging Device</tspan></text>
		<g>
			<g>
				<g>
					<g>
						<g>
							<g>
								<g>
									<g>
										
											<line fill="#4F8ABE" stroke="#005695" stroke-linecap="round" stroke-miterlimit="1" x1="95.132" y1="69.597" x2="376.302" y2="69.597"/>
										<path fill="#005695" d="M378.663,68.571c-1.652-0.499-2.728-0.959-4.054-1.491v5.044c0.475-0.226,2.401-0.992,4.054-1.491
											c1.77-0.535,3.375-0.9,4.415-1.031C382.038,69.472,380.433,69.105,378.663,68.571z"/>
									</g>
								</g>
							</g>
						</g>
					</g>
				</g>
			</g>
		</g>
		<g>
			<g>
				<g>
					<g>
						<g>
							<g>
								<g>
									<g>
										
											<line fill="#4F8ABE" stroke="#005695" stroke-linecap="round" stroke-miterlimit="1" x1="95.132" y1="109.457" x2="376.301" y2="109.457"/>
										<path fill="#005695" d="M378.662,108.434c-1.652-0.5-2.728-0.961-4.054-1.492v5.045c0.475-0.227,2.401-0.994,4.054-1.492
											c1.77-0.535,3.375-0.9,4.415-1.031C382.037,109.332,380.432,108.967,378.662,108.434z"/>
									</g>
								</g>
							</g>
						</g>
					</g>
				</g>
			</g>
		</g>
		<g>
			<g>
				<g>
					<g>
						<g>
							<g>
								<g>
									<g>
										
											<line fill="#4F8ABE" stroke="#005695" stroke-linecap="round" stroke-miterlimit="1" x1="383.077" y1="149.58" x2="101.908" y2="149.58"/>
										<path fill="#005695" d="M99.547,148.557c1.652-0.5,2.728-0.961,4.054-1.492v5.045c-0.475-0.227-2.401-0.994-4.054-1.492
											c-1.77-0.535-3.375-0.9-4.415-1.031C96.172,149.455,97.777,149.09,99.547,148.557z"/>
									</g>
								</g>
							</g>
						</g>
					</g>
				</g>
			</g>
		</g>
		<rect x="109.154" y="60.86" fill="none" width="258.497" height="88.009"/>
		<text transform="matrix(1 0 0 1 109.1543 66.5747)"><tspan x="0" y="0" font-size="8">1. Storage of images, overlays, etc.</tspan><tspan x="0" y="40" font-size="8">2. N-ACTION (request storage commitment)</tspan><tspan x="0" y="80" font-size="8">3. N-EVENT-REPORT (results status)</tspan></text>
	</g>
</g>
</svg>
