<?xml version="1.0" encoding="utf-8"?>
<!-- $Source: /home/bbennett/pass/archive/DicomXml/docbook/part17/figures/PS3.17_I.6-3.svg,v $ -->
<!-- $Date: 2014/05/09 12:30:21 $ -->
<!-- $Revision: 1.2 $ -->

<!DOCTYPE svg PUBLIC "-//W3C//DTD SVG 1.1//EN" "http://www.w3.org/Graphics/SVG/1.1/DTD/svg11.dtd">
<svg version="1.1" id="Layer_1" xmlns="http://www.w3.org/2000/svg" xmlns:xlink="http://www.w3.org/1999/xlink" x="0px" y="0px"
	 width="502px" height="257px" viewBox="0 0 502 257" enable-background="new 0 0 502 257" xml:space="preserve">

<defs>
	<style type="text/css">
	text {
	  font-family: Helvetica, Verdana, ArialUnicodeMS, san-serif
	}
	</style>
</defs>

<g>
   <desc>
	PS 3.17 Part 17: Explanatory Information
   </desc>
</g>

<g>
	<rect x="1" y="1" fill="#F5EED6" width="500" height="255"/>
	<g>
		<g>
			<g>
				<polyline fill="none" stroke="#005695" stroke-linecap="round" stroke-miterlimit="1" points="312.368,198.9 312.368,230.209 
					329.407,230.209 363.992,230.209 363.992,132.441 376.697,132.441 				"/>
				<path fill="#005695" d="M379.06,131.416c-1.654-0.5-2.729-0.959-4.055-1.492v5.045c0.475-0.225,2.4-0.992,4.055-1.492
					c1.77-0.533,3.373-0.9,4.414-1.029C382.433,132.316,380.829,131.951,379.06,131.416z"/>
			</g>
		</g>
		
			<polygon fill="#CCDEF0" stroke="#010101" stroke-width="0.75" stroke-linecap="round" stroke-linejoin="round" stroke-miterlimit="1" points="
			175.282,186.828 220.241,173.66 265.282,187.254 265.282,187.285 220.192,200.639 		"/>
		<g>
			<g>
				
					<line fill="none" stroke="#005695" stroke-linecap="round" stroke-miterlimit="1" x1="94.197" y1="105.271" x2="94.197" y2="113.91"/>
				<path fill="#005695" d="M95.222,116.271c0.5-1.652,0.959-2.728,1.492-4.054h-5.044c0.226,0.475,0.993,2.401,1.492,4.054
					c0.535,1.77,0.9,3.375,1.031,4.415C94.322,119.646,94.688,118.041,95.222,116.271z"/>
			</g>
		</g>
		<g>
			<g>
				
					<line fill="none" stroke="#005695" stroke-linecap="round" stroke-miterlimit="1" x1="94.197" y1="147.709" x2="94.197" y2="166.076"/>
				<path fill="#005695" d="M95.222,168.438c0.5-1.652,0.959-2.729,1.492-4.055h-5.044c0.226,0.475,0.993,2.402,1.492,4.055
					c0.535,1.77,0.9,3.375,1.031,4.414C94.322,171.812,94.688,170.207,95.222,168.438z"/>
			</g>
		</g>
		
			<rect x="58.196" y="119.596" fill="#B2CEE7" stroke="#010101" stroke-width="0.75" stroke-linecap="round" stroke-linejoin="round" stroke-miterlimit="1" width="72" height="26.984"/>
		<g>
			<text transform="matrix(1 0 0 1 73.8726 130.8359)"><tspan x="0" y="0" font-size="7">EFW = 3.1kg</tspan><tspan x="12.356" y="8.4" font-size="7">NUM</tspan></text>
		</g>
		<g>
			<g>
				<polyline fill="none" stroke="#005695" stroke-linecap="round" stroke-miterlimit="1" points="94.748,61.833 267.053,61.833 
					267.053,72.889 				"/>
				<path fill="#005695" d="M268.077,75.251c0.5-1.654,0.96-2.729,1.492-4.055h-5.045c0.227,0.475,0.993,2.4,1.492,4.055
					c0.535,1.77,0.9,3.373,1.031,4.414C267.178,78.625,267.544,77.021,268.077,75.251z"/>
			</g>
		</g>
		<g>
			<g>
				
					<line fill="none" stroke="#005695" stroke-linecap="round" stroke-miterlimit="1" x1="94.197" y1="48.869" x2="94.197" y2="73.107"/>
				<path fill="#005695" d="M95.222,75.468c0.5-1.652,0.959-2.728,1.492-4.054h-5.044c0.226,0.475,0.993,2.401,1.492,4.054
					c0.535,1.77,0.9,3.375,1.031,4.415C94.322,78.843,94.688,77.238,95.222,75.468z"/>
			</g>
		</g>
		
			<polygon fill="#CCDEF0" stroke="#010101" stroke-width="0.75" stroke-linecap="round" stroke-linejoin="round" stroke-miterlimit="1" points="
			58.196,92.354 94.165,79.185 130.196,92.78 130.196,92.81 94.124,106.165 		"/>
		<text transform="matrix(1 0 0 1 76.1147 94.6187)" font-size="7">CONTAINS</text>
		<g>
			<g>
				
					<line fill="none" stroke="#005695" stroke-linecap="round" stroke-miterlimit="1" x1="267.053" y1="105.271" x2="267.053" y2="113.91"/>
				<path fill="#005695" d="M268.077,116.271c0.5-1.652,0.96-2.728,1.492-4.054h-5.045c0.227,0.475,0.993,2.401,1.492,4.054
					c0.535,1.77,0.9,3.375,1.031,4.415C267.178,119.646,267.544,118.041,268.077,116.271z"/>
			</g>
		</g>
		<g>
			<g>
				
					<line fill="none" stroke="#005695" stroke-linecap="round" stroke-miterlimit="1" stroke-dasharray="4" x1="437.337" y1="65.494" x2="437.337" y2="110.25"/>
				<path fill="#005695" d="M438.362,112.611c0.499-1.652,0.959-2.728,1.491-4.054h-5.044c0.225,0.475,0.992,2.401,1.491,4.054
					c0.534,1.77,0.9,3.375,1.03,4.415C437.462,115.986,437.827,114.38,438.362,112.611z"/>
			</g>
		</g>
		
			<rect x="226.556" y="119.596" fill="#B2CEE7" stroke="#010101" stroke-width="0.75" stroke-linecap="round" stroke-linejoin="round" stroke-miterlimit="1" width="81.001" height="26.984"/>
		<g>
			<text transform="matrix(1 0 0 1 231.3555 130.8359)"><tspan x="0" y="0" font-size="7">Percentile Rank = 65%</tspan><tspan x="27.73" y="8.4" font-size="7">NUM</tspan></text>
		</g>
		
			<polygon fill="#CCDEF0" stroke="#010101" stroke-width="0.75" stroke-linecap="round" stroke-linejoin="round" stroke-miterlimit="1" points="
			231.057,92.354 267.023,79.185 303.057,92.78 303.057,92.81 266.982,106.165 		"/>
		<text transform="matrix(1 0 0 1 248.9717 94.6187)" font-size="7">CONTAINS</text>
		<g>
			<g>
				<polyline fill="none" stroke="#005695" stroke-linecap="round" stroke-miterlimit="1" stroke-dasharray="4" points="
					93.53,61.833 11.095,61.833 11.095,72.889 				"/>
				<path fill="#005695" d="M12.12,75.251c0.5-1.654,0.959-2.729,1.492-4.055H8.567c0.226,0.475,0.993,2.4,1.492,4.055
					c0.535,1.77,0.9,3.373,1.031,4.414C11.22,78.625,11.585,77.021,12.12,75.251z"/>
			</g>
		</g>
		
			<rect x="44.693" y="19.767" fill="#86B2D8" stroke="#010101" stroke-width="0.75" stroke-linecap="round" stroke-linejoin="round" stroke-miterlimit="1" width="99.007" height="27.001"/>
		<g>
			<text transform="matrix(1 0 0 1 65.9707 30.6929)"><tspan x="0" y="0" font-size="8">Fetus Summary</tspan><tspan x="4.672" y="9.6" font-size="8">CONTAINER</tspan></text>
		</g>
		
			<polygon fill="#CCDEF0" stroke="#010101" stroke-width="0.75" stroke-linecap="round" stroke-linejoin="round" stroke-miterlimit="1" points="
			267.722,186.832 312.684,173.658 357.723,187.258 357.723,187.287 312.633,200.643 		"/>
		<text transform="matrix(1 0 0 1 291.1357 186.2148)"><tspan x="0" y="0" font-size="7">R-INFERRED</tspan><tspan x="11.279" y="8.4" font-size="7">FROM</tspan></text>
		<text transform="matrix(1 0 0 1 191.1182 189.0977)" font-size="7">INFERRED FROM</text>
		<g>
			<g>
				
					<line fill="none" stroke="#005695" stroke-linecap="round" stroke-miterlimit="1" x1="220.283" y1="202.242" x2="220.283" y2="210.881"/>
				<path fill="#005695" d="M221.309,213.242c0.499-1.652,0.959-2.729,1.491-4.055h-5.044c0.225,0.475,0.992,2.402,1.491,4.055
					c0.534,1.77,0.9,3.375,1.03,4.414C220.408,216.617,220.773,215.012,221.309,213.242z"/>
			</g>
		</g>
		
			<rect x="175.283" y="217.355" fill="#B2CEE7" stroke="#010101" stroke-width="0.75" stroke-linecap="round" stroke-linejoin="round" stroke-miterlimit="1" width="89.999" height="26.984"/>
		<g>
			<text transform="matrix(1 0 0 1 178.7422 228.5957)"><tspan x="0" y="0" font-size="7">Equation = (Hadlock 1991)</tspan><tspan x="31.429" y="8.4" font-size="7">CODE</tspan></text>
		</g>
		
			<polygon fill="#CCDEF0" stroke="#010101" stroke-width="0.75" stroke-linecap="round" stroke-linejoin="round" stroke-miterlimit="1" points="
			49.197,186.83 94.156,173.662 139.197,187.256 139.197,187.287 94.107,200.641 		"/>
		<text transform="matrix(1 0 0 1 65.0322 189.0996)" font-size="7">INFERRED FROM</text>
		<g>
			<g>
				
					<line fill="none" stroke="#005695" stroke-linecap="round" stroke-miterlimit="1" x1="94.197" y1="202.244" x2="94.197" y2="210.883"/>
				<path fill="#005695" d="M95.222,213.244c0.5-1.652,0.959-2.729,1.492-4.055h-5.044c0.226,0.475,0.993,2.402,1.492,4.055
					c0.535,1.77,0.9,3.375,1.031,4.414C94.322,216.619,94.688,215.014,95.222,213.244z"/>
			</g>
		</g>
		
			<rect x="26.698" y="217.357" fill="#B2CEE7" stroke="#010101" stroke-width="0.75" stroke-linecap="round" stroke-linejoin="round" stroke-miterlimit="1" width="134.999" height="26.984"/>
		<g>
			<text transform="matrix(1 0 0 1 29.7075 228.5967)"><tspan x="0" y="0" font-size="7">Equation = EFW by AC,FL, Hadlock 1984</tspan><tspan x="54.378" y="8.399" font-size="7">CODE</tspan></text>
		</g>
		
			<rect x="383.332" y="118.869" fill="#B2CEE7" stroke="#010101" stroke-width="0.75" stroke-linecap="round" stroke-linejoin="round" stroke-miterlimit="1" width="108.006" height="27"/>
		<g>
			<text transform="matrix(1 0 0 1 394.3047 129.7949)"><tspan x="0" y="0" font-size="8">Gestational Age = 232 d</tspan><tspan x="33.922" y="9.6" font-size="8">NUM</tspan></text>
		</g>
		<g>
			<g>
				<polyline fill="none" stroke="#005695" stroke-linecap="round" stroke-miterlimit="1" points="266.869,146.721 266.869,157.963 
					220.285,157.963 220.285,167.5 				"/>
				<path fill="#005695" d="M221.311,169.863c0.499-1.654,0.959-2.729,1.491-4.055h-5.044c0.225,0.475,0.992,2.4,1.491,4.055
					c0.534,1.77,0.9,3.373,1.03,4.414C220.41,173.236,220.775,171.633,221.311,169.863z"/>
			</g>
		</g>
		<g>
			<g>
				<polyline fill="none" stroke="#005695" stroke-linecap="round" stroke-miterlimit="1" points="266.873,157.963 312.275,157.963 
					312.275,167.062 				"/>
				<path fill="#005695" d="M313.3,169.424c0.5-1.652,0.96-2.729,1.492-4.055h-5.045c0.227,0.475,0.993,2.402,1.492,4.055
					c0.535,1.77,0.9,3.375,1.031,4.414C312.4,172.799,312.767,171.193,313.3,169.424z"/>
			</g>
		</g>
	</g>
</g>
</svg>
