<?xml version="1.0" encoding="utf-8"?>
<!-- $Source: /home/bbennett/pass/archive/DicomXml/docbook/part17/figures/PS3.17_FFF.1.1-2.svg,v $ -->
<!-- $Date: 2014/05/09 13:15:43 $ -->
<!-- $Revision: 1.1 $ -->

<!DOCTYPE svg PUBLIC "-//W3C//DTD SVG 1.1//EN" "http://www.w3.org/Graphics/SVG/1.1/DTD/svg11.dtd">
<svg version="1.1" id="Layer_1" xmlns="http://www.w3.org/2000/svg" xmlns:xlink="http://www.w3.org/1999/xlink" x="0px" y="0px"
	 width="502px" height="432px" viewBox="0 0 502 432" enable-background="new 0 0 502 432" xml:space="preserve">

<defs>
	<style type="text/css">
	text {
	  font-family: Helvetica, Verdana, ArialUnicodeMS, san-serif
	}
	</style>
</defs>

<g>
   <desc>
	PS 3.17 Part 17: Explanatory Information
   </desc>
</g>

<g>
	<rect x="1" y="1" fill="#F5EED6" width="500" height="430"/>
	<g>
		
			<polygon fill="#B2CEE7" stroke="#86B2D8" stroke-width="0.75" stroke-linecap="round" stroke-linejoin="round" stroke-miterlimit="1" points="
			252.816,136.96 274.74,136.96 278.34,157.27 249.217,157.27 		"/>
		
			<polygon fill="#B2CEE7" stroke="#86B2D8" stroke-width="0.75" stroke-linecap="round" stroke-linejoin="round" stroke-miterlimit="1" points="
			287.227,120.96 411.232,120.96 415.398,157.27 283.057,157.27 		"/>
		
			<line fill="none" stroke="#000000" stroke-width="0.75" stroke-miterlimit="1" x1="228.1" y1="202.165" x2="456.701" y2="202.165"/>
		
			<line fill="none" stroke="#000000" stroke-width="0.75" stroke-miterlimit="1" x1="228.1" y1="224.232" x2="456.701" y2="224.232"/>
		
			<line fill="none" stroke="#000000" stroke-width="0.75" stroke-miterlimit="1" x1="228.1" y1="247.404" x2="456.701" y2="247.404"/>
		
			<line fill="none" stroke="#000000" stroke-width="0.75" stroke-miterlimit="1" x1="228.1" y1="270.312" x2="456.701" y2="270.312"/>
		
			<line fill="none" stroke="#000000" stroke-width="0.75" stroke-miterlimit="1" x1="228.1" y1="316.125" x2="456.701" y2="316.125"/>
		
			<line fill="none" stroke="#000000" stroke-width="0.75" stroke-miterlimit="1" x1="228.1" y1="362.559" x2="456.701" y2="362.559"/>
		
			<line fill="none" stroke="#000000" stroke-width="0.75" stroke-miterlimit="1" x1="228.1" y1="385.721" x2="456.701" y2="385.721"/>
		
			<line fill="none" stroke="#000000" stroke-width="0.75" stroke-miterlimit="1" x1="228.1" y1="408.227" x2="456.701" y2="408.227"/>
		
			<line fill="none" stroke="#000000" stroke-width="0.75" stroke-miterlimit="1" x1="228.1" y1="339.109" x2="456.701" y2="339.109"/>
		<rect x="467.377" y="153.374" fill="none" width="16.426" height="8.51"/>
		<text transform="matrix(0.9288 0 0 1 467.375 159.8159)" font-size="9">time</text>
		<rect x="18.199" y="197.461" fill="none" width="203.901" height="217.799"/>
		<text transform="matrix(0.9288 0 0 1 87.3818 203.9028)"><tspan x="0" y="0" font-size="9">Last R peak prior to X-Ray Frame “i”</tspan><tspan x="74.531" y="23" font-size="9">Pre-Frame X-Ray</tspan><tspan x="91.533" y="46" font-size="9">Frame X-Ray</tspan><tspan x="-51.539" y="69" font-size="9">Nominal Cardiac Trigger Delay Time (0020,9153)</tspan><tspan x="-30.783" y="92" font-size="9">Frame Acquisition Number (0020,9156) = “i”</tspan><tspan x="-24.033" y="115" font-size="9">Frame i Acquisition DateTime (0018,9074)</tspan><tspan x="-22.034" y="138" font-size="9">Frame i Reference DateTime (0018,9151)</tspan><tspan x="-19.041" y="161" font-size="9">Frame i Acquisition Duration (0018,9220)</tspan><tspan x="-69.06" y="184" font-size="9">Detector Activation Offset from Exposure (0018,7016)</tspan><tspan x="-4.029" y="207" font-size="9">Detector Activation Time (0018,7014)</tspan></text>
		<g>
			<g>
				
					<line fill="none" stroke="#000000" stroke-width="0.75" stroke-linecap="round" stroke-miterlimit="1" x1="249.217" y1="157.27" x2="249.217" y2="160.27"/>
				
					<line fill="none" stroke="#000000" stroke-width="0.75" stroke-linecap="round" stroke-miterlimit="1" stroke-dasharray="6.3521,2.1174" x1="249.217" y1="162.387" x2="249.217" y2="220.614"/>
				
					<line fill="none" stroke="#000000" stroke-width="0.75" stroke-linecap="round" stroke-miterlimit="1" x1="249.217" y1="221.673" x2="249.217" y2="224.673"/>
			</g>
		</g>
		<g>
			<g>
				
					<line fill="none" stroke="#000000" stroke-width="0.75" stroke-linecap="round" stroke-miterlimit="1" x1="263.866" y1="62.462" x2="263.866" y2="65.462"/>
				
					<line fill="none" stroke="#000000" stroke-width="0.75" stroke-linecap="round" stroke-miterlimit="1" stroke-dasharray="5.994,1.998" x1="263.866" y1="67.46" x2="263.866" y2="266.261"/>
				
					<line fill="none" stroke="#000000" stroke-width="0.75" stroke-linecap="round" stroke-miterlimit="1" x1="263.866" y1="267.26" x2="263.866" y2="270.26"/>
			</g>
		</g>
		<g>
			<g>
				
					<line fill="none" stroke="#000000" stroke-width="0.75" stroke-linecap="round" stroke-miterlimit="1" x1="278.34" y1="157.367" x2="278.34" y2="160.367"/>
				
					<line fill="none" stroke="#000000" stroke-width="0.75" stroke-linecap="round" stroke-miterlimit="1" stroke-dasharray="6.342,2.114" x1="278.34" y1="162.481" x2="278.34" y2="220.616"/>
				
					<line fill="none" stroke="#000000" stroke-width="0.75" stroke-linecap="round" stroke-miterlimit="1" x1="278.34" y1="221.673" x2="278.34" y2="224.673"/>
			</g>
		</g>
		<g>
			<g>
				
					<line fill="none" stroke="#000000" stroke-width="0.75" stroke-linecap="round" stroke-miterlimit="1" x1="414.225" y1="156.96" x2="414.225" y2="159.96"/>
				
					<line fill="none" stroke="#000000" stroke-width="0.75" stroke-linecap="round" stroke-miterlimit="1" stroke-dasharray="5.9218,1.9739" x1="414.225" y1="161.935" x2="414.225" y2="358.341"/>
				
					<line fill="none" stroke="#000000" stroke-width="0.75" stroke-linecap="round" stroke-miterlimit="1" x1="414.225" y1="359.328" x2="414.225" y2="362.328"/>
			</g>
		</g>
		
			<line fill="none" stroke="#0DB14B" stroke-width="6" stroke-linecap="round" stroke-miterlimit="1" x1="249.217" y1="224.232" x2="278.586" y2="224.232"/>
		
			<line fill="none" stroke="#005695" stroke-width="6" stroke-linecap="round" stroke-miterlimit="1" x1="263.366" y1="202.165" x2="264.366" y2="202.165"/>
		<g>
			<g>
				
					<line fill="none" stroke="#000000" stroke-width="0.75" stroke-linecap="round" stroke-miterlimit="1" x1="439.863" y1="157.368" x2="439.863" y2="160.368"/>
				
					<line fill="none" stroke="#000000" stroke-width="0.75" stroke-linecap="round" stroke-miterlimit="1" stroke-dasharray="6.0709,2.0236" x1="439.863" y1="162.391" x2="439.863" y2="404.215"/>
				
					<line fill="none" stroke="#000000" stroke-width="0.75" stroke-linecap="round" stroke-miterlimit="1" x1="439.863" y1="405.227" x2="439.863" y2="408.227"/>
			</g>
		</g>
		
			<line fill="none" stroke="#005695" stroke-width="6" stroke-linecap="round" stroke-miterlimit="1" x1="373.861" y1="408.227" x2="439.863" y2="408.227"/>
		<g>
			<g>
				
					<line fill="none" stroke="#000000" stroke-width="0.75" stroke-linecap="round" stroke-miterlimit="1" x1="285.775" y1="156.96" x2="285.763" y2="159.96"/>
				
					<line fill="none" stroke="#000000" stroke-width="0.75" stroke-linecap="round" stroke-miterlimit="1" stroke-dasharray="5.914,1.9713" x1="285.754" y1="161.932" x2="284.809" y2="381.735"/>
				
					<line fill="none" stroke="#000000" stroke-width="0.75" stroke-linecap="round" stroke-miterlimit="1" x1="284.804" y1="382.721" x2="284.791" y2="385.721"/>
			</g>
		</g>
		<g>
			<g>
				
					<line fill="none" stroke="#000000" stroke-width="0.75" stroke-linecap="round" stroke-miterlimit="1" x1="373.861" y1="377.734" x2="373.861" y2="380.734"/>
				
					<line fill="none" stroke="#000000" stroke-width="0.75" stroke-linecap="round" stroke-miterlimit="1" stroke-dasharray="5.652,1.884" x1="373.861" y1="382.618" x2="373.861" y2="404.284"/>
				
					<line fill="none" stroke="#000000" stroke-width="0.75" stroke-linecap="round" stroke-miterlimit="1" x1="373.861" y1="405.227" x2="373.861" y2="408.227"/>
			</g>
		</g>
		<g>
			<g>
				
					<line fill="none" stroke="#000000" stroke-width="1.5" stroke-linecap="round" stroke-miterlimit="1" x1="228.1" y1="157.367" x2="457.52" y2="157.367"/>
				<g>
					<polygon points="456.033,159.546 464.164,157.367 456.033,155.188 					"/>
				</g>
			</g>
		</g>
		<g>
			<g>
				
					<line fill="none" stroke="#005695" stroke-width="2" stroke-miterlimit="1" stroke-dasharray="4,2" x1="431.467" y1="23.96" x2="457.076" y2="23.96"/>
				<g>
					<polygon fill="#005695" points="455.491,26.285 464.164,23.96 455.491,21.636 					"/>
				</g>
			</g>
		</g>
		<g>
			<g>
				<line fill="none" stroke="#005695" stroke-width="2" stroke-miterlimit="1" x1="278.365" y1="23.96" x2="431.467" y2="23.96"/>
				<g>
					<polygon fill="#005695" points="279.95,26.285 271.277,23.96 279.95,21.636 					"/>
				</g>
			</g>
		</g>
		<g>
			<g>
				
					<line fill="none" stroke="#005695" stroke-width="3" stroke-miterlimit="1" x1="263.866" y1="270.312" x2="319.232" y2="270.312"/>
				<g>
					<polygon fill="#005695" points="316.854,273.799 329.863,270.312 316.854,266.826 					"/>
				</g>
			</g>
		</g>
		<g>
			<g>
				
					<line fill="none" stroke="#005695" stroke-width="3" stroke-miterlimit="1" x1="284.791" y1="385.721" x2="363.23" y2="385.721"/>
				<g>
					<polygon fill="#005695" points="360.853,389.207 373.861,385.721 360.853,382.234 					"/>
				</g>
			</g>
		</g>
		<text transform="matrix(0.9288 0 0 1 260.6992 27.3779)" font-size="12">R</text>
		<g>
			<g>
				
					<line fill="none" stroke="#000000" stroke-width="0.75" stroke-linecap="round" stroke-miterlimit="1" x1="329.863" y1="156.96" x2="329.863" y2="159.96"/>
				
					<line fill="none" stroke="#000000" stroke-width="0.75" stroke-linecap="round" stroke-miterlimit="1" stroke-dasharray="5.9492,1.983" x1="329.863" y1="161.943" x2="329.863" y2="335.461"/>
				
					<line fill="none" stroke="#000000" stroke-width="0.75" stroke-linecap="round" stroke-miterlimit="1" x1="329.863" y1="336.452" x2="329.863" y2="339.452"/>
			</g>
		</g>
		<g>
			<g>
				<path fill="none" stroke="#ED1C24" stroke-width="2" stroke-miterlimit="1" d="M431.717,88.947c0.653,0,1.322-0.001,2.003-0.001
					"/>
				<path fill="none" stroke="#ED1C24" stroke-width="2" stroke-miterlimit="1" stroke-dasharray="4.3765,2.1882" d="
					M435.911,88.943c9.256-0.007,20.007-0.013,25.172-0.016"/>
				<path fill="none" stroke="#ED1C24" stroke-width="2" stroke-miterlimit="1" d="M462.167,88.927c1.27,0,1.997-0.001,1.997-0.001"
					/>
			</g>
		</g>
		<path fill="none" stroke="#ED1C24" stroke-width="2" stroke-miterlimit="1" d="M108.456,89.045
			c41.605-0.01,77.346-0.02,77.346-0.02s9.416-0.596,14.799-8.256c1.978-2.813,7.255-2.976,9.978,0.246
			c8.9,10.539,9.73,8.089,30.267,8.089l12.104,13.026l11.379-70.938l8.184,80.084l10.277-22.07c0,0,30.617-0.001,46.156,0
			c12.027,0.001,16.467-9.64,34.814-9.64c17.469,0,20.557,9.408,34.744,9.408c5.359,0,16.812-0.015,33.213-0.028"/>
		
			<line fill="none" stroke="#005695" stroke-width="6" stroke-linecap="round" stroke-miterlimit="1" x1="329.363" y1="339.195" x2="330.363" y2="339.195"/>
		
			<line fill="none" stroke="#005695" stroke-width="6" stroke-linecap="round" stroke-miterlimit="1" x1="284.783" y1="316.291" x2="285.783" y2="316.291"/>
		
			<line fill="none" stroke="#005695" stroke-width="6" stroke-linecap="round" stroke-miterlimit="1" x1="285.17" y1="362.328" x2="414.225" y2="362.328"/>
		
			<line fill="none" stroke="#0DB14B" stroke-width="6" stroke-linecap="round" stroke-miterlimit="1" x1="285.17" y1="247.404" x2="414.225" y2="247.404"/>
	</g>
</g>
</svg>
