<?xml version="1.0" encoding="utf-8"?>
<!-- $Source: /home/bbennett/pass/archive/DicomXml/docbook/part17/figures/PS3.17_I.6-2.svg,v $ -->
<!-- $Date: 2014/05/09 12:31:57 $ -->
<!-- $Revision: 1.2 $ -->

<!DOCTYPE svg PUBLIC "-//W3C//DTD SVG 1.1//EN" "http://www.w3.org/Graphics/SVG/1.1/DTD/svg11.dtd">
<svg version="1.1" id="Layer_1" xmlns="http://www.w3.org/2000/svg" xmlns:xlink="http://www.w3.org/1999/xlink" x="0px" y="0px"
	 width="502px" height="257px" viewBox="0 0 502 257" enable-background="new 0 0 502 257" xml:space="preserve">

<defs>
	<style type="text/css">
	text {
	  font-family: Helvetica, Verdana, ArialUnicodeMS, san-serif
	}
	</style>
</defs>

<g>
   <desc>
	PS 3.17 Part 17: Explanatory Information
   </desc>
</g>

<g>
	<rect x="1" y="1" fill="#F5EED6" width="500" height="255"/>
	<g>
		<polyline fill="none" stroke="#005695" stroke-linecap="round" stroke-miterlimit="1" points="292.652,196.565 292.652,227.874 
			309.691,227.874 344.276,227.874 344.276,130.106 356.981,130.106 		"/>
		<g>
			<g>
				
					<line fill="none" stroke="#005695" stroke-linecap="round" stroke-miterlimit="1" x1="66.982" y1="102.037" x2="66.982" y2="110.675"/>
				<path fill="#005695" d="M68.007,113.038c0.5-1.654,0.959-2.729,1.492-4.055h-5.044c0.226,0.475,0.993,2.4,1.492,4.055
					c0.535,1.77,0.9,3.373,1.031,4.414C67.107,116.411,67.473,114.807,68.007,113.038z"/>
			</g>
		</g>
		
			<polygon fill="#CCDEF0" stroke="#010101" stroke-width="0.75" stroke-linecap="round" stroke-linejoin="round" stroke-miterlimit="1" points="
			155.567,184.493 200.525,171.325 245.566,184.919 245.566,184.95 200.477,198.304 		"/>
		
			<polygon fill="#CCDEF0" stroke="#010101" stroke-width="0.75" stroke-linecap="round" stroke-linejoin="round" stroke-miterlimit="1" points="
			30.809,90.147 66.78,76.972 102.815,90.573 102.815,90.604 66.741,103.968 		"/>
		<g>
			<text transform="matrix(1 0.0022 -0.0022 1 48.7236 92.8755)" font-size="7">CONTAINS</text>
		</g>
		<g>
			<g>
				
					<line fill="none" stroke="#005695" stroke-linecap="round" stroke-miterlimit="1" x1="157.284" y1="102.936" x2="157.284" y2="111.575"/>
				<path fill="#005695" d="M158.309,113.936c0.5-1.652,0.959-2.728,1.492-4.054h-5.044c0.226,0.475,0.993,2.401,1.492,4.054
					c0.535,1.77,0.9,3.375,1.031,4.415C157.409,117.311,157.775,115.706,158.309,113.936z"/>
			</g>
		</g>
		
			<rect x="121.283" y="117.261" fill="#B2CEE7" stroke="#010101" stroke-width="0.75" stroke-linecap="round" stroke-linejoin="round" stroke-miterlimit="1" width="72" height="26.984"/>
		<g>
			<text transform="matrix(1 0 0 1 135.4014 128.501)"><tspan x="0" y="0" font-size="7">BPD = 56 mm</tspan><tspan x="13.911" y="8.4" font-size="7">NUM</tspan></text>
		</g>
		
			<rect x="30.981" y="117.261" fill="#B2CEE7" stroke="#010101" stroke-width="0.75" stroke-linecap="round" stroke-linejoin="round" stroke-miterlimit="1" width="72" height="26.984"/>
		<g>
			<text transform="matrix(1 0 0 1 45.0996 128.5)"><tspan x="0" y="0" font-size="7">BPD = 60 mm</tspan><tspan x="13.911" y="8.399" font-size="7">NUM</tspan></text>
		</g>
		<g>
			<g>
				<polyline fill="none" stroke="#005695" stroke-linecap="round" stroke-miterlimit="1" points="157.834,59.499 247.337,59.499 
					247.337,70.554 				"/>
				<path fill="#005695" d="M248.361,72.917c0.5-1.654,0.96-2.729,1.492-4.055h-5.045c0.227,0.475,0.993,2.4,1.492,4.055
					c0.535,1.77,0.9,3.373,1.031,4.414C247.462,76.29,247.828,74.686,248.361,72.917z"/>
			</g>
		</g>
		<g>
			<g>
				
					<line fill="none" stroke="#005695" stroke-linecap="round" stroke-miterlimit="1" x1="157.284" y1="46.534" x2="157.284" y2="70.772"/>
				<path fill="#005695" d="M158.309,73.133c0.5-1.652,0.959-2.728,1.492-4.054h-5.044c0.226,0.475,0.993,2.401,1.492,4.054
					c0.535,1.77,0.9,3.375,1.031,4.415C157.409,76.508,157.774,74.903,158.309,73.133z"/>
			</g>
		</g>
		
			<polygon fill="#CCDEF0" stroke="#010101" stroke-width="0.75" stroke-linecap="round" stroke-linejoin="round" stroke-miterlimit="1" points="
			121.283,90.019 157.252,76.85 193.283,90.445 193.283,90.475 157.211,103.83 		"/>
		<text transform="matrix(1 0 0 1 139.1987 92.2837)" font-size="7">CONTAINS</text>
		<g>
			<g>
				
					<line fill="none" stroke="#005695" stroke-linecap="round" stroke-miterlimit="1" x1="247.338" y1="102.936" x2="247.338" y2="111.575"/>
				<path fill="#005695" d="M248.362,113.936c0.499-1.652,0.96-2.728,1.491-4.054h-5.044c0.226,0.475,0.993,2.401,1.491,4.054
					c0.535,1.77,0.9,3.375,1.031,4.415C247.463,117.311,247.828,115.706,248.362,113.936z"/>
			</g>
		</g>
		<g>
			<g>
				
					<line fill="none" stroke="#005695" stroke-linecap="round" stroke-miterlimit="1" stroke-dasharray="4" x1="417.621" y1="63.159" x2="417.621" y2="107.915"/>
				<path fill="#005695" d="M418.646,110.276c0.5-1.652,0.96-2.728,1.492-4.054h-5.045c0.227,0.475,0.993,2.401,1.492,4.054
					c0.535,1.77,0.9,3.375,1.031,4.415C417.746,113.651,418.112,112.045,418.646,110.276z"/>
			</g>
		</g>
		
			<rect x="206.84" y="117.261" fill="#B2CEE7" stroke="#010101" stroke-width="0.75" stroke-linecap="round" stroke-linejoin="round" stroke-miterlimit="1" width="81.001" height="26.984"/>
		<g>
			<text transform="matrix(1 0 0 1 211.6396 128.501)"><tspan x="0" y="0" font-size="7">Percentile Rank = 65%</tspan><tspan x="27.73" y="8.4" font-size="7">NUM</tspan></text>
		</g>
		
			<polygon fill="#CCDEF0" stroke="#010101" stroke-width="0.75" stroke-linecap="round" stroke-linejoin="round" stroke-miterlimit="1" points="
			211.341,90.019 247.309,76.85 283.341,90.445 283.341,90.475 247.268,103.83 		"/>
		<text transform="matrix(1 0 0 1 229.2559 92.2837)" font-size="7">CONTAINS</text>
		<g>
			<g>
				<polyline fill="none" stroke="#005695" stroke-linecap="round" stroke-miterlimit="1" points="156.617,59.499 66.981,59.499 
					66.981,70.554 				"/>
				<path fill="#005695" d="M68.006,72.917c0.5-1.654,0.959-2.729,1.492-4.055h-5.044c0.226,0.475,0.993,2.4,1.492,4.055
					c0.535,1.77,0.9,3.373,1.031,4.414C67.106,76.29,67.472,74.686,68.006,72.917z"/>
			</g>
		</g>
		
			<rect x="98.78" y="17.432" fill="#86B2D8" stroke="#010101" stroke-width="0.75" stroke-linecap="round" stroke-linejoin="round" stroke-miterlimit="1" width="117.007" height="27.001"/>
		<g>
			<text transform="matrix(1 0 0 1 113.936 28.3579)"><tspan x="0" y="0" font-size="8">Biometry Measurements</tspan><tspan x="19.791" y="9.6" font-size="8">CONTAINER</tspan></text>
		</g>
		
			<polygon fill="#CCDEF0" stroke="#010101" stroke-width="0.75" stroke-linecap="round" stroke-linejoin="round" stroke-miterlimit="1" points="
			248.006,184.497 292.968,171.323 338.007,184.923 338.007,184.952 292.917,198.308 		"/>
		<text transform="matrix(1 0 0 1 271.4199 183.8799)"><tspan x="0" y="0" font-size="7">R-INFERRED</tspan><tspan x="11.279" y="8.4" font-size="7">FROM</tspan></text>
		<text transform="matrix(1 0 0 1 171.4023 186.7627)" font-size="7">INFERRED FROM</text>
		<g>
			<g>
				
					<line fill="none" stroke="#005695" stroke-linecap="round" stroke-miterlimit="1" x1="200.567" y1="199.907" x2="200.567" y2="208.546"/>
				<path fill="#005695" d="M201.592,210.907c0.5-1.652,0.96-2.729,1.492-4.055h-5.045c0.227,0.475,0.993,2.402,1.492,4.055
					c0.535,1.77,0.9,3.375,1.031,4.414C200.692,214.282,201.059,212.677,201.592,210.907z"/>
			</g>
		</g>
		
			<rect x="142.067" y="215.021" fill="#B2CEE7" stroke="#010101" stroke-width="0.75" stroke-linecap="round" stroke-linejoin="round" stroke-miterlimit="1" width="116.999" height="26.984"/>
		<g>
			<text transform="matrix(1 0 0 1 146.7764 226.2607)"><tspan x="0" y="0" font-size="7">Reference Authority = (Hadlock84)</tspan><tspan x="43.679" y="8.4" font-size="7">CODE</tspan></text>
		</g>
		
			<rect x="363.616" y="116.534" fill="#B2CEE7" stroke="#010101" stroke-width="0.75" stroke-linecap="round" stroke-linejoin="round" stroke-miterlimit="1" width="108.006" height="27"/>
		<g>
			<text transform="matrix(1 0 0 1 374.5898 127.46)"><tspan x="0" y="0" font-size="8">Gestational Age = 160 d</tspan><tspan x="33.922" y="9.6" font-size="8">NUM</tspan></text>
		</g>
		<g>
			<g>
				<polyline fill="none" stroke="#005695" stroke-linecap="round" stroke-miterlimit="1" points="247.154,144.386 247.154,155.628 
					200.57,155.628 200.57,165.165 				"/>
				<path fill="#005695" d="M201.595,167.528c0.499-1.654,0.96-2.729,1.491-4.055h-5.044c0.226,0.475,0.993,2.4,1.491,4.055
					c0.535,1.77,0.9,3.373,1.031,4.414C200.695,170.901,201.061,169.298,201.595,167.528z"/>
			</g>
		</g>
		<g>
			<g>
				<polyline fill="none" stroke="#005695" stroke-linecap="round" stroke-miterlimit="1" points="247.158,155.628 292.56,155.628 
					292.56,164.728 				"/>
				<path fill="#005695" d="M293.585,167.089c0.499-1.652,0.959-2.729,1.491-4.055h-5.044c0.225,0.475,0.992,2.402,1.491,4.055
					c0.534,1.77,0.9,3.375,1.03,4.414C292.685,170.464,293.05,168.858,293.585,167.089z"/>
			</g>
		</g>
	</g>
</g>
</svg>
