<?xml version="1.0" encoding="utf-8"?>
<!-- $Source: /home/bbennett/pass/archive/DicomXml/docbook/part17/figures/PS3.17_Q.1-4.svg,v $ -->
<!-- $Date: 2014/05/09 12:30:21 $ -->
<!-- $Revision: 1.2 $ -->

<!DOCTYPE svg PUBLIC "-//W3C//DTD SVG 1.1//EN" "http://www.w3.org/Graphics/SVG/1.1/DTD/svg11.dtd">
<svg version="1.1" id="Layer_1" xmlns="http://www.w3.org/2000/svg" xmlns:xlink="http://www.w3.org/1999/xlink" x="0px" y="0px"
	 width="502px" height="412px" viewBox="0 0 502 412" enable-background="new 0 0 502 412" xml:space="preserve">

<defs>
	<style type="text/css">
	text {
	  font-family: Helvetica, Verdana, ArialUnicodeMS, san-serif
	}
	</style>
</defs>

<g>
   <desc>
	PS 3.17 Part 17: Explanatory Information
   </desc>
</g>

<g>
	<rect x="1" y="1" fill="#F5EED6" width="500" height="410"/>
	<g>
		<g>
			<g>
				
					<line fill="none" stroke="#005695" stroke-linecap="round" stroke-miterlimit="1" x1="234.588" y1="377.176" x2="246.721" y2="377.176"/>
				<path fill="#005695" d="M249.082,376.15c-1.652-0.5-2.728-0.959-4.054-1.492v5.045c0.475-0.225,2.401-0.992,4.054-1.492
					c1.77-0.533,3.374-0.9,4.415-1.029C252.456,377.051,250.852,376.686,249.082,376.15z"/>
			</g>
		</g>
		<g>
			<g>
				
					<line fill="none" stroke="#005695" stroke-linecap="round" stroke-miterlimit="1" x1="316.398" y1="377.535" x2="324.445" y2="377.535"/>
				<path fill="#005695" d="M326.808,376.51c-1.654-0.5-2.729-0.959-4.055-1.492v5.045c0.475-0.225,2.4-0.992,4.055-1.492
					c1.77-0.533,3.373-0.9,4.414-1.029C330.181,377.41,328.577,377.045,326.808,376.51z"/>
			</g>
		</g>
		
			<rect x="332.188" y="359.535" fill="#B2CEE7" stroke="#010101" stroke-width="0.75" stroke-linecap="round" stroke-linejoin="round" stroke-miterlimit="1" width="81.001" height="36"/>
		<g>
			<text transform="matrix(1 0 0 1 349.1475 366.8789)"><tspan x="0" y="0" font-size="7">Breast Imaging</tspan><tspan x="-2.133" y="8.4" font-size="7">Assessment TID</tspan><tspan x="13.423" y="16.801" font-size="7">(4203)</tspan><tspan x="5.845" y="25.201" font-size="7">(INCLUDE)</tspan></text>
		</g>
		<g>
			<g>
				
					<line fill="none" stroke="#005695" stroke-linecap="round" stroke-miterlimit="1" stroke-dasharray="4" x1="413.188" y1="376.393" x2="425.321" y2="376.393"/>
				<path fill="#005695" d="M427.683,375.367c-1.652-0.5-2.728-0.959-4.054-1.492v5.045c0.475-0.225,2.401-0.992,4.054-1.492
					c1.77-0.533,3.375-0.9,4.415-1.029C431.058,376.268,429.452,375.902,427.683,375.367z"/>
			</g>
		</g>
		<g>
			<g>
				
					<line fill="none" stroke="#005695" stroke-linecap="round" stroke-miterlimit="1" stroke-dasharray="4" x1="234.588" y1="121.131" x2="253.034" y2="121.131"/>
				<path fill="#005695" d="M255.396,120.107c-1.652-0.5-2.728-0.96-4.054-1.492v5.045c0.475-0.227,2.401-0.993,4.054-1.492
					c1.77-0.535,3.375-0.9,4.415-1.031C258.771,121.006,257.165,120.64,255.396,120.107z"/>
			</g>
		</g>
		<g>
			<g>
				
					<line fill="none" stroke="#005695" stroke-linecap="round" stroke-miterlimit="1" stroke-dasharray="4" x1="234.588" y1="248.762" x2="253.034" y2="248.762"/>
				<path fill="#005695" d="M255.396,247.736c-1.652-0.5-2.728-0.959-4.054-1.492v5.045c0.475-0.225,2.401-0.992,4.054-1.492
					c1.77-0.533,3.375-0.9,4.415-1.029C258.771,248.637,257.165,248.271,255.396,247.736z"/>
			</g>
		</g>
		<g>
			<g>
				
					<line fill="none" stroke="#005695" stroke-linecap="round" stroke-miterlimit="1" stroke-dasharray="4" x1="234.588" y1="291.305" x2="253.034" y2="291.305"/>
				<path fill="#005695" d="M255.396,290.281c-1.652-0.5-2.728-0.961-4.054-1.492v5.045c0.475-0.227,2.401-0.994,4.054-1.492
					c1.77-0.535,3.375-0.9,4.415-1.031C258.771,291.18,257.165,290.814,255.396,290.281z"/>
			</g>
		</g>
		<g>
			<g>
				
					<line fill="none" stroke="#005695" stroke-linecap="round" stroke-miterlimit="1" stroke-dasharray="4" x1="234.588" y1="333.848" x2="253.034" y2="333.848"/>
				<path fill="#005695" d="M255.396,332.824c-1.652-0.5-2.728-0.961-4.054-1.492v5.045c0.475-0.227,2.401-0.994,4.054-1.492
					c1.77-0.535,3.375-0.9,4.415-1.031C258.771,333.723,257.165,333.357,255.396,332.824z"/>
			</g>
		</g>
		
			<polygon fill="#CCDEF0" stroke="#010101" stroke-width="0.75" stroke-linecap="round" stroke-linejoin="round" stroke-miterlimit="1" points="
			73.712,120.808 105.188,107.632 136.719,121.234 136.719,121.265 105.153,134.628 		"/>
		<g>
			<g>
				
					<line fill="none" stroke="#005695" stroke-linecap="round" stroke-miterlimit="1" x1="57.786" y1="120.771" x2="66.679" y2="120.771"/>
				<path fill="#005695" d="M69.041,119.746c-1.653-0.5-2.728-0.959-4.054-1.492v5.045c0.475-0.226,2.401-0.992,4.054-1.492
					c1.77-0.534,3.374-0.9,4.415-1.03C72.415,120.646,70.81,120.28,69.041,119.746z"/>
			</g>
		</g>
		<g>
			<g>
				
					<line fill="none" stroke="#005695" stroke-linecap="round" stroke-miterlimit="1" x1="137.796" y1="121.13" x2="145.843" y2="121.13"/>
				<path fill="#005695" d="M148.205,120.106c-1.653-0.499-2.728-0.96-4.054-1.491v5.044c0.475-0.226,2.401-0.993,4.054-1.491
					c1.77-0.535,3.374-0.9,4.415-1.031C151.579,121.005,149.974,120.64,148.205,120.106z"/>
			</g>
		</g>
		
			<rect x="153.586" y="103.13" fill="#B2CEE7" stroke="#010101" stroke-width="0.75" stroke-linecap="round" stroke-linejoin="round" stroke-miterlimit="1" width="81.002" height="36"/>
		<g>
			<text transform="matrix(1 0 0 1 170.5459 110.4751)"><tspan x="0" y="0" font-size="7">Breast Imaging</tspan><tspan x="-7.979" y="8.4" font-size="7">Procedure Reported</tspan><tspan x="6.812" y="16.8" font-size="7">TID (4201)</tspan><tspan x="5.845" y="25.2" font-size="7">(INCLUDE)</tspan></text>
		</g>
		<g>
			<text transform="matrix(1 0 0 1 260.0391 114.6753)"><tspan x="0" y="0" font-size="7">See Figure Q.1-2</tspan><tspan x="3.307" y="8.4" font-size="7">Breast Imaging</tspan><tspan x="-4.672" y="16.8" font-size="7">Procedure Reported</tspan></text>
		</g>
		<g>
			<text transform="matrix(1 0 0 1 436.4277 369.9355)"><tspan x="0" y="0" font-size="7">See Figure Q.1-5</tspan><tspan x="3.307" y="8.4" font-size="7">Breast Imaging</tspan><tspan x="7.785" y="16.8" font-size="7">Assessment</tspan></text>
		</g>
		<g>
			<text transform="matrix(1 0.0022 -0.0022 1 87.1279 123.0356)" font-size="7">CONTAINS</text>
		</g>
		
			<polygon fill="#CCDEF0" stroke="#010101" stroke-width="0.75" stroke-linecap="round" stroke-linejoin="round" stroke-miterlimit="1" points="
			73.712,163.352 105.188,150.176 136.719,163.778 136.719,163.809 105.153,177.172 		"/>
		<g>
			<g>
				
					<line fill="none" stroke="#005695" stroke-linecap="round" stroke-miterlimit="1" x1="57.786" y1="163.314" x2="66.679" y2="163.314"/>
				<path fill="#005695" d="M69.041,162.289c-1.653-0.499-2.728-0.959-4.054-1.491v5.044c0.475-0.225,2.401-0.992,4.054-1.491
					c1.77-0.534,3.374-0.9,4.415-1.03C72.415,163.189,70.81,162.824,69.041,162.289z"/>
			</g>
		</g>
		<g>
			<g>
				
					<line fill="none" stroke="#005695" stroke-linecap="round" stroke-miterlimit="1" x1="137.796" y1="163.674" x2="145.843" y2="163.674"/>
				<path fill="#005695" d="M148.205,162.65c-1.653-0.5-2.728-0.96-4.054-1.492v5.045c0.475-0.227,2.401-0.993,4.054-1.492
					c1.77-0.535,3.374-0.9,4.415-1.031C151.579,163.549,149.974,163.183,148.205,162.65z"/>
			</g>
		</g>
		
			<rect x="153.586" y="145.674" fill="#B2CEE7" stroke="#010101" stroke-width="0.75" stroke-linecap="round" stroke-linejoin="round" stroke-miterlimit="1" width="81.002" height="36"/>
		<g>
			<text transform="matrix(1 0 0 1 164.5112 157.2188)"><tspan x="0" y="0" font-size="7">Baseline screening</tspan><tspan x="8.96" y="8.4" font-size="7">mammogram</tspan><tspan x="17.131" y="16.8" font-size="7">(CODE)</tspan></text>
		</g>
		<g>
			<text transform="matrix(1 0.0022 -0.0022 1 87.1279 165.5791)" font-size="7">CONTAINS</text>
		</g>
		
			<polygon fill="#CCDEF0" stroke="#010101" stroke-width="0.75" stroke-linecap="round" stroke-linejoin="round" stroke-miterlimit="1" points="
			73.712,205.896 105.188,192.72 136.719,206.322 136.719,206.353 105.153,219.717 		"/>
		<g>
			<g>
				
					<line fill="none" stroke="#005695" stroke-linecap="round" stroke-miterlimit="1" x1="57.786" y1="205.857" x2="66.679" y2="205.857"/>
				<path fill="#005695" d="M69.041,204.832c-1.653-0.499-2.728-0.959-4.054-1.491v5.044c0.475-0.225,2.401-0.992,4.054-1.492
					c1.77-0.534,3.374-0.9,4.415-1.03C72.415,205.732,70.81,205.367,69.041,204.832z"/>
			</g>
		</g>
		<g>
			<g>
				
					<line fill="none" stroke="#005695" stroke-linecap="round" stroke-miterlimit="1" x1="137.796" y1="206.218" x2="145.843" y2="206.218"/>
				<path fill="#005695" d="M148.205,205.193c-1.653-0.499-2.728-0.959-4.054-1.491v5.044c0.475-0.225,2.401-0.992,4.054-1.492
					c1.77-0.534,3.374-0.9,4.415-1.03C151.579,206.093,149.974,205.728,148.205,205.193z"/>
			</g>
		</g>
		
			<rect x="153.586" y="188.218" fill="#B2CEE7" stroke="#010101" stroke-width="0.75" stroke-linecap="round" stroke-linejoin="round" stroke-miterlimit="1" width="81.002" height="36"/>
		<g>
			<text transform="matrix(1 0 0 1 165.6958 199.7622)"><tspan x="0" y="0" font-size="7">First mammogram</tspan><tspan x="21.581" y="8.4" font-size="7">ever</tspan><tspan x="15.946" y="16.8" font-size="7">(CODE)</tspan></text>
		</g>
		<g>
			<text transform="matrix(1 0.0022 -0.0022 1 87.1279 208.123)" font-size="7">CONTAINS</text>
		</g>
		
			<polygon fill="#CCDEF0" stroke="#010101" stroke-width="0.75" stroke-linecap="round" stroke-linejoin="round" stroke-miterlimit="1" points="
			73.712,248.439 105.188,235.264 136.719,248.865 136.719,248.896 105.153,262.26 		"/>
		<g>
			<g>
				
					<line fill="none" stroke="#005695" stroke-linecap="round" stroke-miterlimit="1" x1="57.786" y1="248.4" x2="66.679" y2="248.4"/>
				<path fill="#005695" d="M69.041,247.375c-1.653-0.5-2.728-0.959-4.054-1.492v5.045c0.475-0.225,2.401-0.992,4.054-1.492
					c1.77-0.533,3.374-0.9,4.415-1.029C72.415,248.275,70.81,247.91,69.041,247.375z"/>
			</g>
		</g>
		<g>
			<g>
				
					<line fill="none" stroke="#005695" stroke-linecap="round" stroke-miterlimit="1" x1="137.796" y1="248.762" x2="145.843" y2="248.762"/>
				<path fill="#005695" d="M148.205,247.736c-1.653-0.5-2.728-0.959-4.054-1.492v5.045c0.475-0.225,2.401-0.992,4.054-1.492
					c1.77-0.533,3.374-0.9,4.415-1.029C151.579,248.637,149.974,248.271,148.205,247.736z"/>
			</g>
		</g>
		
			<rect x="153.586" y="230.762" fill="#B2CEE7" stroke="#010101" stroke-width="0.75" stroke-linecap="round" stroke-linejoin="round" stroke-miterlimit="1" width="81.002" height="36"/>
		<g>
			<text transform="matrix(1 0 0 1 163.5444 238.1055)"><tspan x="0" y="0" font-size="7">Breast Composition</tspan><tspan x="18.867" y="8.4" font-size="7">Section</tspan><tspan x="13.813" y="16.8" font-size="7">TID (4205)</tspan><tspan x="12.846" y="25.2" font-size="7">(INCLUDE)</tspan></text>
		</g>
		<g>
			<text transform="matrix(1 0.0022 -0.0022 1 87.1279 250.666)" font-size="7">CONTAINS</text>
		</g>
		
			<polygon fill="#CCDEF0" stroke="#010101" stroke-width="0.75" stroke-linecap="round" stroke-linejoin="round" stroke-miterlimit="1" points="
			73.712,290.982 105.188,277.807 136.719,291.408 136.719,291.439 105.153,304.803 		"/>
		<g>
			<g>
				
					<line fill="none" stroke="#005695" stroke-linecap="round" stroke-miterlimit="1" x1="57.786" y1="290.943" x2="66.679" y2="290.943"/>
				<path fill="#005695" d="M69.041,289.918c-1.653-0.5-2.728-0.959-4.054-1.492v5.045c0.475-0.225,2.401-0.992,4.054-1.492
					c1.77-0.533,3.374-0.9,4.415-1.029C72.415,290.818,70.81,290.453,69.041,289.918z"/>
			</g>
		</g>
		<g>
			<g>
				
					<line fill="none" stroke="#005695" stroke-linecap="round" stroke-miterlimit="1" x1="137.796" y1="291.305" x2="145.843" y2="291.305"/>
				<path fill="#005695" d="M148.205,290.279c-1.653-0.5-2.728-0.959-4.054-1.492v5.045c0.475-0.225,2.401-0.992,4.054-1.492
					c1.77-0.533,3.374-0.9,4.415-1.029C151.579,291.18,149.974,290.814,148.205,290.279z"/>
			</g>
		</g>
		
			<rect x="153.586" y="273.305" fill="#B2CEE7" stroke="#010101" stroke-width="0.75" stroke-linecap="round" stroke-linejoin="round" stroke-miterlimit="1" width="81.002" height="36"/>
		<g>
			<text transform="matrix(1 0 0 1 159.0684 280.6484)"><tspan x="0" y="0" font-size="7">Breast Imaging Report</tspan><tspan x="10.891" y="8.4" font-size="7">Finding Section</tspan><tspan x="18.29" y="16.801" font-size="7">TID (4206)</tspan><tspan x="17.322" y="25.201" font-size="7">(INCLUDE)</tspan></text>
		</g>
		<g>
			<text transform="matrix(1 0.0022 -0.0022 1 87.1279 293.209)" font-size="7">CONTAINS</text>
		</g>
		
			<polygon fill="#CCDEF0" stroke="#010101" stroke-width="0.75" stroke-linecap="round" stroke-linejoin="round" stroke-miterlimit="1" points="
			73.712,333.525 105.188,320.35 136.719,333.951 136.719,333.982 105.153,347.346 		"/>
		<g>
			<g>
				
					<line fill="none" stroke="#005695" stroke-linecap="round" stroke-miterlimit="1" x1="57.786" y1="333.486" x2="66.679" y2="333.486"/>
				<path fill="#005695" d="M69.041,332.461c-1.653-0.5-2.728-0.959-4.054-1.492v5.045c0.475-0.225,2.401-0.992,4.054-1.492
					c1.77-0.533,3.374-0.9,4.415-1.029C72.415,333.361,70.81,332.996,69.041,332.461z"/>
			</g>
		</g>
		<g>
			<g>
				
					<line fill="none" stroke="#005695" stroke-linecap="round" stroke-miterlimit="1" x1="137.796" y1="333.848" x2="145.843" y2="333.848"/>
				<path fill="#005695" d="M148.205,332.822c-1.653-0.5-2.728-0.959-4.054-1.492v5.045c0.475-0.225,2.401-0.992,4.054-1.492
					c1.77-0.533,3.374-0.9,4.415-1.029C151.579,333.723,149.974,333.357,148.205,332.822z"/>
			</g>
		</g>
		
			<rect x="153.586" y="315.848" fill="#B2CEE7" stroke="#010101" stroke-width="0.75" stroke-linecap="round" stroke-linejoin="round" stroke-miterlimit="1" width="81.002" height="36"/>
		<g>
			<text transform="matrix(1 0 0 1 159.0684 323.1924)"><tspan x="0" y="0" font-size="7">Breast Imaging Report</tspan><tspan x="4.081" y="8.399" font-size="7">Intervention Section</tspan><tspan x="18.29" y="16.8" font-size="7">TID (4204)</tspan><tspan x="17.322" y="25.2" font-size="7">(INCLUDE)</tspan></text>
		</g>
		<g>
			<text transform="matrix(1 0.0022 -0.0022 1 87.1279 335.7529)" font-size="7">CONTAINS</text>
		</g>
		
			<polygon fill="#CCDEF0" stroke="#010101" stroke-width="0.75" stroke-linecap="round" stroke-linejoin="round" stroke-miterlimit="1" points="
			73.712,376.068 105.188,362.893 136.719,376.494 136.719,376.525 105.153,389.889 		"/>
		<g>
			<g>
				
					<line fill="none" stroke="#005695" stroke-linecap="round" stroke-miterlimit="1" x1="137.796" y1="376.391" x2="145.843" y2="376.391"/>
				<path fill="#005695" d="M148.205,375.365c-1.653-0.5-2.728-0.959-4.054-1.492v5.045c0.475-0.225,2.401-0.992,4.054-1.492
					c1.77-0.533,3.374-0.9,4.415-1.029C151.579,376.266,149.974,375.9,148.205,375.365z"/>
			</g>
		</g>
		
			<rect x="153.586" y="358.391" fill="#B2CEE7" stroke="#010101" stroke-width="0.75" stroke-linecap="round" stroke-linejoin="round" stroke-miterlimit="1" width="81.002" height="36"/>
		<g>
			<text transform="matrix(1 0 0 1 182.9995 365.7363)"><tspan x="0" y="0" font-size="7">Overall</tspan><tspan x="-7.976" y="8.399" font-size="7">Assessment</tspan><tspan x="-11.857" y="16.799" font-size="7">(CONTAINER)</tspan></text>
		</g>
		<g>
			<text transform="matrix(1 0.0022 -0.0022 1 87.1279 378.2969)" font-size="7">CONTAINS</text>
		</g>
		<g>
			<g>
				<polyline fill="none" stroke="#005695" stroke-linecap="round" stroke-miterlimit="1" points="57.787,72.346 57.786,376.393 
					66.679,376.393 				"/>
				<path fill="#005695" d="M69.041,375.367c-1.653-0.5-2.728-0.959-4.054-1.492v5.045c0.475-0.225,2.401-0.992,4.054-1.492
					c1.77-0.533,3.374-0.9,4.415-1.029C72.415,376.268,70.81,375.902,69.041,375.367z"/>
			</g>
		</g>
		
			<line fill="none" stroke="#005695" stroke-linecap="round" stroke-miterlimit="1" stroke-dasharray="4" x1="57.787" y1="12.773" x2="57.787" y2="45.345"/>
		
			<rect x="12.312" y="45.345" fill="#86B2D8" stroke="#010101" stroke-width="0.75" stroke-linecap="round" stroke-linejoin="round" stroke-miterlimit="1" width="90" height="27.001"/>
		<g>
			<text transform="matrix(1 0 0 1 20.8462 56.2666)"><tspan x="0" y="0" font-size="8">Supplementary Data</tspan><tspan x="10.244" y="9.6" font-size="8">(CONTAINER)</tspan></text>
		</g>
		
			<polygon fill="#CCDEF0" stroke="#010101" stroke-width="0.75" stroke-linecap="round" stroke-linejoin="round" stroke-miterlimit="1" points="
			253.034,377.254 284.509,365.725 316.04,377.627 316.04,377.654 284.475,389.346 		"/>
		<g>
			<text transform="matrix(1 0.0022 -0.0022 1 266.4492 379.4395)" font-size="7">CONTAINS</text>
		</g>
	</g>
</g>
</svg>
