<?xml version="1.0" encoding="utf-8"?>
<!-- $Source: /home/bbennett/pass/archive/DicomXml/docbook/part17/figures/PS3.17_T.5-2.svg,v $ -->
<!-- $Date: 2014/05/09 12:30:20 $ -->
<!-- $Revision: 1.2 $ -->

<!DOCTYPE svg PUBLIC "-//W3C//DTD SVG 1.1//EN" "http://www.w3.org/Graphics/SVG/1.1/DTD/svg11.dtd">
<svg version="1.1" id="Layer_1" xmlns="http://www.w3.org/2000/svg" xmlns:xlink="http://www.w3.org/1999/xlink" x="0px" y="0px"
	 width="502px" height="437px" viewBox="0 0 502 437" enable-background="new 0 0 502 437" xml:space="preserve">

<defs>
	<style type="text/css">
	text {
	  font-family: Helvetica, Verdana, ArialUnicodeMS, san-serif
	}
	</style>
</defs>

<g>
   <desc>
	PS 3.17 Part 17: Explanatory Information
   </desc>
</g>

<g>
	<rect x="1" y="1" fill="#F5EED6" width="500" height="435"/>
	<g>
		<rect x="125.417" y="78.735" fill="#CCDEF0" stroke="#000000" width="360" height="44.501"/>
		<line fill="#CCDEF0" stroke="#000000" x1="449.383" y1="78.735" x2="449.383" y2="123.236"/>
		<line fill="#CCDEF0" stroke="#000000" x1="413.436" y1="78.735" x2="413.436" y2="123.236"/>
		<line fill="#CCDEF0" stroke="#000000" x1="377.4" y1="78.735" x2="377.4" y2="123.236"/>
		<line fill="#CCDEF0" stroke="#000000" x1="341.453" y1="78.735" x2="341.453" y2="123.236"/>
		<line fill="#CCDEF0" stroke="#000000" x1="305.418" y1="78.735" x2="305.418" y2="123.236"/>
		<line fill="#CCDEF0" stroke="#000000" x1="269.383" y1="78.735" x2="269.383" y2="123.236"/>
		<line fill="#CCDEF0" stroke="#000000" x1="233.435" y1="78.735" x2="233.435" y2="123.236"/>
		<line fill="#CCDEF0" stroke="#000000" x1="197.4" y1="78.735" x2="197.4" y2="123.236"/>
		<line fill="#CCDEF0" stroke="#000000" x1="161.453" y1="78.735" x2="161.453" y2="123.236"/>
		<text transform="matrix(0.9288 0 0 1 125.4175 74.1011)" font-size="10">0</text>
		<text transform="matrix(0.9288 0 0 1 161.4526 74.1011)" font-size="10">1</text>
		<text transform="matrix(0.9288 0 0 1 197.4878 74.1011)" font-size="10">2</text>
		<text transform="matrix(0.9288 0 0 1 233.5229 74.1011)" font-size="10">3</text>
		<text transform="matrix(0.9288 0 0 1 305.5938 74.1011)" font-size="10">...</text>
		<text transform="matrix(0.9288 0 0 1 449.7344 74.1011)" font-size="10">n</text>
		<text transform="matrix(0.6568 0.6567 -0.7071 0.7072 199.7202 306.3428)" font-size="10">MLD</text>
		<polygon opacity="0.75" fill="#C1272D" stroke="#000000" points="355.033,420.197 100.474,165.644 125.929,140.188 
			240.483,254.736 243.03,277.646 265.939,280.191 380.49,394.742 		"/>
		<line fill="none" stroke="#003468" stroke-width="2" x1="273.012" y1="246.828" x2="213.974" y2="305.875"/>
		
			<line fill="none" stroke="#005695" stroke-linecap="round" stroke-miterlimit="1" stroke-dasharray="5,5,1,5" x1="161.453" y1="123.236" x2="161.453" y2="174.736"/>
		
			<line fill="none" stroke="#005695" stroke-linecap="round" stroke-miterlimit="1" stroke-dasharray="5,5,1,5" x1="197.488" y1="123.236" x2="197.488" y2="211.634"/>
		
			<line fill="none" stroke="#005695" stroke-linecap="round" stroke-miterlimit="1" stroke-dasharray="5,5,1,5" x1="233.523" y1="123.236" x2="233.523" y2="247.777"/>
		
			<line fill="none" stroke="#005695" stroke-linecap="round" stroke-miterlimit="1" stroke-dasharray="5,5,1,5" x1="269.559" y1="123.236" x2="269.559" y2="283.635"/>
		<line fill="none" stroke="#003468" stroke-width="2" x1="243.493" y1="48.431" x2="243.493" y2="276.352"/>
		
			<line fill="none" stroke="#005695" stroke-linecap="round" stroke-miterlimit="1" stroke-dasharray="5,5,1,5" x1="305.594" y1="123.236" x2="305.594" y2="319.67"/>
		<g>
			<text transform="matrix(0.9288 0 0 1 66.4629 218.3618)" font-size="14">artery</text>
		</g>
		<g>
			<text transform="matrix(0.9288 0 0 1 16.583 29.2114)" font-size="14">pixel elements</text>
		</g>
		<polyline fill="none" stroke="#003468" stroke-miterlimit="1" points="102.675,214.782 114.146,214.782 143.019,188.505 		"/>
		<polyline fill="none" stroke="#003468" stroke-miterlimit="1" points="102.675,25.943 114.146,25.943 145.667,78.203 		"/>
		<line fill="none" stroke="#003468" stroke-miterlimit="1" x1="114.146" y1="25.943" x2="177.663" y2="78.203"/>
		<line fill="none" stroke="#003468" stroke-miterlimit="1" x1="114.146" y1="25.943" x2="213.218" y2="78.203"/>
	</g>
</g>
</svg>
