<?xml version="1.0" encoding="utf-8"?>
<!-- $Source: /home/bbennett/pass/archive/DicomXml/docbook/part17/figures/PS3.17_NN.4-1.svg,v $ -->
<!-- $Date: 2014/05/09 13:15:43 $ -->
<!-- $Revision: 1.1 $ -->

<!DOCTYPE svg PUBLIC "-//W3C//DTD SVG 1.1//EN" "http://www.w3.org/Graphics/SVG/1.1/DTD/svg11.dtd">
<svg version="1.1" id="Layer_1" xmlns="http://www.w3.org/2000/svg" xmlns:xlink="http://www.w3.org/1999/xlink" x="0px" y="0px"
	 width="502px" height="477px" viewBox="0 0 502 477" enable-background="new 0 0 502 477" xml:space="preserve">

<defs>
	<style type="text/css">
	text {
	  font-family: Helvetica, Verdana, ArialUnicodeMS, san-serif
	}
	</style>
</defs>

<g>
   <desc>
	PS 3.17 Part 17: Explanatory Information
   </desc>
</g>

<g>
	<rect x="1" y="1" fill="#F5EED6" width="500" height="475"/>
	<g>
		<rect x="193.379" y="128.534" fill-rule="evenodd" clip-rule="evenodd" fill="#8DC63F" width="199.877" height="80.5"/>
		<path fill-rule="evenodd" clip-rule="evenodd" fill="#86B2D8" stroke="#000000" d="M299.23,50.003
			c-0.029-0.473-0.254-0.934-0.293-1.404c-0.133-1.721,0.02-3.426-0.057-5.27c-0.129,1.797-0.215,3.607-0.059,5.387
			c0.037,0.441,0.27,0.903,0.293,1.345c0.037,0.699-0.287,1.506-0.41,2.342c-0.115,0.782-0.23,1.716-0.176,2.577
			c0.09,1.397,0.418,2.873,0.176,4.04c-0.084,0.409-0.412,0.823-0.469,1.23c0.281,1.607,1.209,3.007,1.58,4.742
			c0.176,0.823,0.219,1.733,0.41,2.635c0.582,2.739,0.25,5.795,0,8.722h-10.068c-0.121-0.952-0.186-2.705-0.469-3.688
			c0,0.058,0,0.117,0,0.175c-0.121,0.565-0.021,1.303-0.059,1.932c-0.043,0.717-0.342,1.332-0.176,1.698h-10.07
			c0.084-2.707-0.609-4.983-0.293-7.552c0.111-0.909,0.488-1.798,0.586-2.751c0.029-0.288-0.045-0.593,0-0.878
			c0.186-1.228,0.756-2.244,1.111-3.279c0.234-0.674,0.59-1.486,0.586-2.049c0-0.36-0.199-0.614-0.234-0.937
			c-0.145-1.376,0.117-2.821,0.234-4.274c0.131-1.601-0.352-3.25-0.352-4.801c0-2.286,0.576-4.573,0.352-6.966
			c-0.014-0.044-0.049-0.068-0.117-0.059c0.16,2.094-0.172,3.885-0.293,5.855c-0.297,0.307-0.371,0.839-0.525,1.287l-5.328-1.345
			c0.295-0.663,0.256-1.444,0.352-2.225c0.088-0.729,0.375-1.328,0.527-2.049c0.182-0.872-0.041-1.785-0.117-2.401
			c-0.336-2.649-0.088-5.113,1.229-6.908c0.438-0.597,1.189-0.833,1.639-1.522c0.305-0.053,0.613-0.421,0.879-0.469
			c1.57-0.286,3.041-0.479,4.568-0.937c0.371-0.112,0.785-0.083,1.109-0.233c0.604-0.282,1.064-0.956,1.289-1.581
			c-0.541-0.67-2.197-0.224-2.926-0.703c-0.338-0.432-0.176-0.857-0.059-1.406c-0.625-0.612-0.215-1.542-0.059-2.4
			c-0.271-0.437-1.184-0.14-1.23-0.82c-0.023-0.34,0.396-0.951,0.645-1.347c0.254-0.408,0.699-0.851,0.703-1.288
			c0.002-0.406-0.314-0.694-0.293-0.996c0.047-0.736,0.635-0.986,0.645-1.639c-0.252,0.078-0.328,0.254-0.586,0.058
			c-0.127-0.306-0.188-0.662-0.059-0.996c0.148-0.391,1.326-1.244,1.637-1.346c0.506-0.163,1.002-0.111,1.406-0.234
			c0.428-0.129,0.729-0.389,1.113-0.527c1.875-0.674,3.842-0.044,4.975,0.879c1.352,1.101,2.439,2.449,2.518,4.684
			c0.049,1.448-0.586,2.585-1.229,3.981c-0.484,1.055-0.955,3.107-0.41,4.216c0.238,0.483,1.045,1.188,1.523,1.347
			c1.654,0.546,4.006,1.28,5.912,1.463c1.25,0.798,1.744,1.635,2.283,2.986c0.164,0.42,0.453,0.847,0.584,1.287
			c0.398,1.349,0.395,3.974,0.059,5.328c-0.094,0.397-0.354,0.806-0.352,1.23c0.004,0.384,0.264,0.736,0.352,1.112
			c0.305,1.244,0.279,2.75,0.645,3.805L299.23,50.003z"/>
		<g>
			<rect x="90.096" y="429.624" fill="#E7E7E7" stroke="#010101" width="85" height="30.909"/>
			<rect x="92.672" y="431.556" fill="#FFFFFF" stroke="#010101" width="13.522" height="27.046"/>
			<text transform="matrix(0 -0.963 1 0 100.7944 452.4902)" fill="#010101" font-size="4.4">Slide ID</text>
			<path fill="#ED1C24" stroke="#ED1C24" stroke-miterlimit="1" d="M141.853,450.588c-6.164-1.938-7.753-2.501-11.935-2.501
				c-1.86,0-1.124-12.833,4.75-12.16C138.722,436.393,147.004,452.207,141.853,450.588z"/>
		</g>
		<g>
			<g>
				<rect x="184.763" y="429.624" fill="#FFFFFF" width="84.999" height="30.909"/>
				<g>
					<polyline fill="none" stroke="#010101" points="184.763,430.624 184.763,429.624 185.763,429.624 					"/>
					<line fill="none" stroke="#010101" stroke-dasharray="2.0244,2.0244" x1="187.787" y1="429.624" x2="267.75" y2="429.624"/>
					<polyline fill="none" stroke="#010101" points="268.762,429.624 269.762,429.624 269.762,430.624 					"/>
					<line fill="none" stroke="#010101" stroke-dasharray="1.9273,1.9273" x1="269.762" y1="432.552" x2="269.762" y2="458.569"/>
					<polyline fill="none" stroke="#010101" points="269.762,459.533 269.762,460.533 268.762,460.533 					"/>
					<line fill="none" stroke="#010101" stroke-dasharray="2.0244,2.0244" x1="266.737" y1="460.533" x2="186.775" y2="460.533"/>
					<polyline fill="none" stroke="#010101" points="185.763,460.533 184.763,460.533 184.763,459.533 					"/>
					<line fill="none" stroke="#010101" stroke-dasharray="1.9273,1.9273" x1="184.763" y1="457.605" x2="184.763" y2="431.588"/>
				</g>
			</g>
			<rect x="187.339" y="431.556" fill="#FFFFFF" stroke="#010101" width="13.522" height="27.046"/>
			<text transform="matrix(0 -0.963 1 0 195.4609 452.4902)" fill="#010101" font-size="4.4">Slide ID</text>
		</g>
		<g>
			<g>
				<rect x="279.43" y="429.624" fill="#FFFFFF" width="84.998" height="30.909"/>
				<g>
					<polyline fill="none" stroke="#010101" points="279.43,430.624 279.43,429.624 280.43,429.624 					"/>
					<line fill="none" stroke="#010101" stroke-dasharray="2.0243,2.0243" x1="282.454" y1="429.624" x2="362.416" y2="429.624"/>
					<polyline fill="none" stroke="#010101" points="363.428,429.624 364.428,429.624 364.428,430.624 					"/>
					<line fill="none" stroke="#010101" stroke-dasharray="1.9273,1.9273" x1="364.428" y1="432.552" x2="364.428" y2="458.569"/>
					<polyline fill="none" stroke="#010101" points="364.428,459.533 364.428,460.533 363.428,460.533 					"/>
					<line fill="none" stroke="#010101" stroke-dasharray="2.0243,2.0243" x1="361.403" y1="460.533" x2="281.441" y2="460.533"/>
					<polyline fill="none" stroke="#010101" points="280.43,460.533 279.43,460.533 279.43,459.533 					"/>
					<line fill="none" stroke="#010101" stroke-dasharray="1.9273,1.9273" x1="279.43" y1="457.605" x2="279.43" y2="431.588"/>
				</g>
			</g>
			<rect x="282.006" y="431.556" fill="#FFFFFF" stroke="#010101" width="13.521" height="27.046"/>
			<text transform="matrix(0 -0.963 1 0 290.127 452.4902)" fill="#010101" font-size="4.4">Slide ID</text>
		</g>
		<g>
			<g>
				<rect x="175.167" y="236.416" fill="#CCDEF0" stroke="#000000" stroke-miterlimit="1" width="31.607" height="23.704"/>
				<polygon fill="#86B2D8" stroke="#000000" stroke-miterlimit="1" points="206.774,260.12 206.774,236.416 212.464,243.243 
					212.464,265.809 				"/>
				<polygon fill="#B2CEE7" stroke="#000000" stroke-miterlimit="1" points="212.464,265.809 181.71,265.809 175.167,260.12 
					206.774,260.12 				"/>
			</g>
			<text transform="matrix(1 0 0 1 183.3911 250.957)" font-size="8">Part</text>
		</g>
		
			<rect x="204.577" y="159.105" fill="#BFBFBF" stroke="#000000" stroke-width="0.75" stroke-linejoin="round" stroke-miterlimit="1" width="42.945" height="38.958"/>
		<polygon fill="#9D9FA2" stroke="#000000" stroke-width="0.75" stroke-linejoin="round" stroke-miterlimit="1" points="
			247.522,159.019 247.522,197.977 254.281,189.867 254.281,152.262 		"/>
		<polygon fill="#E6E7E8" stroke="#000000" stroke-width="0.75" stroke-linejoin="round" stroke-miterlimit="1" points="
			254.25,152.218 212.319,152.218 204.547,158.975 247.492,158.975 		"/>
		<polyline fill="none" stroke="#000000" stroke-width="0.5" stroke-miterlimit="1" points="204.187,170.135 247.132,170.135 
			253.891,163.378 		"/>
		<polyline fill="none" stroke="#FFFFFF" stroke-width="0.5" stroke-linecap="round" stroke-miterlimit="1" points="
			205.267,170.636 247.132,170.636 253.891,163.879 		"/>
		<text transform="matrix(1 0 0 1 218.978 179.5908)"><tspan x="0" y="0" font-size="8">Box</tspan><tspan x="-12.889" y="9.6" font-size="8">(Transport)</tspan></text>
		<g>
			<g>
				<rect x="246.725" y="236.416" fill="#FFFFFF" stroke="#010101" stroke-dasharray="2,2" width="31.607" height="23.704"/>
				<polygon fill="#FFFFFF" stroke="#010101" stroke-dasharray="2,2" points="278.332,260.12 278.332,236.416 284.021,243.243 
					284.021,265.809 				"/>
				<polygon fill="#FFFFFF" stroke="#010101" stroke-dasharray="2,2" points="284.021,265.809 253.268,265.809 246.725,260.12 
					278.332,260.12 				"/>
			</g>
			<g>
				<text transform="matrix(1 0 0 1 254.9492 250.957)" font-size="8">Part</text>
			</g>
		</g>
		<g>
			<rect x="105.475" y="331.808" fill="#CCDEF0" stroke="#000000" stroke-miterlimit="1" width="62.079" height="56.727"/>
			<polygon fill="#86B2D8" stroke="#000000" stroke-miterlimit="1" points="167.553,388.534 167.553,331.808 178.726,348.145 
				178.726,402.15 			"/>
			<polygon fill="#B2CEE7" stroke="#000000" stroke-miterlimit="1" points="178.726,402.15 118.324,402.15 105.475,388.534 
				167.553,388.534 			"/>
		</g>
		<text transform="matrix(1 0 0 1 119.7368 342.2188)"><tspan x="0" y="0" font-size="8">Cassette</tspan><tspan x="-5.777" y="9.6" font-size="8">(Tissue dice</tspan><tspan x="-10.68" y="19.2" font-size="8">embedded in a</tspan><tspan x="4.672" y="28.8" font-size="8">Block)</tspan><tspan x="-5.111" y="38.4" font-size="8">Cassette ID</tspan></text>
		<g>
			<g>
				
					<line fill="none" stroke="#005695" stroke-width="2" stroke-miterlimit="1" x1="135.535" y1="324.207" x2="135.535" y2="313.358"/>
				<g>
					<polygon fill="#005695" points="137.859,322.622 135.535,331.295 133.211,322.622 					"/>
				</g>
			</g>
		</g>
		<g>
			<g>
				
					<line fill="none" stroke="#005695" stroke-width="2" stroke-miterlimit="1" x1="135.449" y1="421.954" x2="135.449" y2="402.15"/>
				<g>
					<polygon fill="#005695" points="137.773,420.369 135.449,429.042 133.125,420.369 					"/>
				</g>
			</g>
		</g>
		<g>
			<g>
				<polyline fill="none" stroke="#005695" stroke-width="2" stroke-miterlimit="1" stroke-dasharray="2,2" points="
					227.264,421.954 227.264,413.155 135.763,413.155 				"/>
				<g>
					<polygon fill="#005695" points="229.588,420.369 227.264,429.042 224.94,420.369 					"/>
				</g>
			</g>
		</g>
		<g>
			<g>
				<polyline fill="none" stroke="#005695" stroke-width="2" stroke-miterlimit="1" stroke-dasharray="2,2" points="321.93,421.954 
					321.93,413.155 227.588,413.155 				"/>
				<g>
					<polygon fill="#005695" points="324.254,420.369 321.93,429.042 319.605,420.369 					"/>
				</g>
			</g>
		</g>
		<g>
			<rect x="110.764" y="293.031" fill="#B2CEE7" stroke="#000000" stroke-miterlimit="1" width="49.574" height="20.821"/>
			<text transform="matrix(1 0 0 1 115.3188 305.4932)" font-size="8">Tissue dice</text>
		</g>
		<g>
			<g>
				<polyline fill="none" stroke="#005695" stroke-width="2" stroke-miterlimit="1" points="136.014,286.214 136.014,277.697 
					194.276,277.697 194.276,265.81 				"/>
				<g>
					<polygon fill="#005695" points="138.338,284.629 136.014,293.302 133.689,284.629 					"/>
				</g>
			</g>
		</g>
		<g>
			<rect x="268.682" y="96.84" fill="#B2CEE7" stroke="#000000" stroke-miterlimit="1" width="49.574" height="20.821"/>
			<text transform="matrix(1 0 0 1 272.1299 109.3008)" font-size="8">OP-Material</text>
		</g>
		<g>
			<text transform="matrix(1 0 0 1 194.0439 125.6719)" font-size="8">Case</text>
		</g>
		<g>
			<g>
				
					<line fill="none" stroke="#005695" stroke-width="2" stroke-miterlimit="1" x1="293.932" y1="90.023" x2="293.932" y2="77.906"/>
				<g>
					<polygon fill="#005695" points="296.256,88.438 293.932,97.111 291.607,88.438 					"/>
				</g>
			</g>
		</g>
		<g>
			<g>
				
					<line fill="none" stroke="#005695" stroke-width="2" stroke-miterlimit="1" stroke-dasharray="2,2" x1="194.276" y1="286.212" x2="194.276" y2="277.697"/>
				<g>
					<polygon fill="#005695" points="196.6,284.627 194.276,293.3 191.952,284.627 					"/>
				</g>
			</g>
		</g>
		<g>
			<rect x="169.026" y="293.031" fill="#FFFFFF" stroke="#010101" stroke-dasharray="2,2" width="49.574" height="20.821"/>
			<g>
				<text transform="matrix(1 0 0 1 173.5811 305.4932)" font-size="8">Tissue dice</text>
			</g>
		</g>
		<g>
			<g>
				<polyline fill="none" stroke="#005695" stroke-width="2" stroke-miterlimit="1" stroke-dasharray="2,2" points="
					253.001,286.213 253.001,277.696 194.276,277.696 				"/>
				<g>
					<polygon fill="#005695" points="255.325,284.628 253.001,293.301 250.677,284.628 					"/>
				</g>
			</g>
		</g>
		<g>
			<g>
				<polyline fill="none" stroke="#005695" stroke-width="2" stroke-miterlimit="1" points="193.379,229.27 193.379,220.753 
					229.234,220.753 229.234,198.063 				"/>
				<g>
					<polygon fill="#005695" points="195.703,227.685 193.379,236.357 191.055,227.685 					"/>
				</g>
			</g>
		</g>
		<g>
			<g>
				<polyline fill="none" stroke="#005695" stroke-width="2" stroke-miterlimit="1" stroke-dasharray="2,2" points="
					265.373,229.269 265.373,220.752 229.234,220.752 				"/>
				<g>
					<polygon fill="#005695" points="267.697,227.684 265.373,236.356 263.049,227.684 					"/>
				</g>
			</g>
		</g>
		<g>
			<g>
				<rect x="303.049" y="236.416" fill="#FFFFFF" stroke="#010101" stroke-dasharray="2,2" width="31.607" height="23.704"/>
				<polygon fill="#FFFFFF" stroke="#010101" stroke-dasharray="2,2" points="334.656,260.12 334.656,236.416 340.346,243.243 
					340.346,265.809 				"/>
				<polygon fill="#FFFFFF" stroke="#010101" stroke-dasharray="2,2" points="340.346,265.809 309.592,265.809 303.049,260.12 
					334.656,260.12 				"/>
			</g>
			<g>
				<text transform="matrix(1 0 0 1 311.2734 250.957)" font-size="8">Part</text>
			</g>
		</g>
		<g>
			<g>
				<rect x="332.459" y="159.105" fill="#FFFFFF" stroke="#010101" stroke-dasharray="2,2" width="42.945" height="38.958"/>
				<polygon fill="#FFFFFF" stroke="#010101" stroke-dasharray="2,2" points="375.404,159.019 375.404,197.977 382.162,189.867 
					382.162,152.262 				"/>
				<polygon fill="#FFFFFF" stroke="#010101" stroke-dasharray="2,2" points="382.133,152.218 340.201,152.218 332.43,158.975 
					375.375,158.975 				"/>
				<polyline fill="#FFFFFF" stroke="#010101" stroke-dasharray="2,2" points="332.068,170.135 375.014,170.135 381.773,163.378 
									"/>
				<polyline fill="#FFFFFF" stroke="#010101" stroke-dasharray="2,2" points="333.148,170.636 375.014,170.636 381.773,163.879 
									"/>
			</g>
			<g>
				<text transform="matrix(1 0 0 1 346.8604 179.5908)"><tspan x="0" y="0" font-size="8">Box</tspan><tspan x="-12.889" y="9.6" font-size="8">(Transport)</tspan></text>
			</g>
		</g>
		<g>
			<g>
				<rect x="374.607" y="236.416" fill="#FFFFFF" stroke="#010101" stroke-dasharray="2,2" width="31.607" height="23.704"/>
				<polygon fill="#FFFFFF" stroke="#010101" stroke-dasharray="2,2" points="406.215,260.12 406.215,236.416 411.904,243.243 
					411.904,265.809 				"/>
				<polygon fill="#FFFFFF" stroke="#010101" stroke-dasharray="2,2" points="411.904,265.809 381.15,265.809 374.607,260.12 
					406.215,260.12 				"/>
			</g>
			<g>
				<text transform="matrix(1 0 0 1 382.832 250.957)" font-size="8">Part</text>
			</g>
		</g>
		<g>
			<g>
				<polyline fill="none" stroke="#005695" stroke-width="2" stroke-miterlimit="1" stroke-dasharray="2,2" points="321.262,229.27 
					321.262,220.753 357.115,220.753 357.115,198.063 				"/>
				<g>
					<polygon fill="#005695" points="323.586,227.685 321.262,236.357 318.938,227.685 					"/>
				</g>
			</g>
		</g>
		<g>
			<g>
				<polyline fill="none" stroke="#005695" stroke-width="2" stroke-miterlimit="1" stroke-dasharray="2,2" points="
					393.256,229.269 393.256,220.752 357.115,220.752 				"/>
				<g>
					<polygon fill="#005695" points="395.58,227.684 393.256,236.356 390.932,227.684 					"/>
				</g>
			</g>
		</g>
		<g>
			<g>
				<polyline fill="none" stroke="#005695" stroke-width="2" stroke-miterlimit="1" points="230.274,148.869 230.274,140.352 
					293.348,140.352 293.348,117.662 				"/>
				<g>
					<polygon fill="#005695" points="232.599,147.283 230.274,155.956 227.95,147.283 					"/>
				</g>
			</g>
		</g>
		<g>
			<g>
				<polyline fill="none" stroke="#005695" stroke-width="2" stroke-miterlimit="1" stroke-dasharray="2,2" points="356.92,148.868 
					356.92,140.351 293.348,140.351 				"/>
				<g>
					<polygon fill="#005695" points="359.244,147.282 356.92,155.955 354.596,147.282 					"/>
				</g>
			</g>
		</g>
		<g>
			<rect x="227.288" y="293.031" fill="#FFFFFF" stroke="#010101" stroke-dasharray="2,2" width="49.573" height="20.821"/>
			<g>
				<text transform="matrix(1 0 0 1 231.8433 305.4932)" font-size="8">Tissue dice</text>
			</g>
		</g>
	</g>
</g>
</svg>
