<?xml version="1.0" encoding="utf-8"?>
<!-- $Source: /home/bbennett/pass/archive/DicomXml/docbook/part17/figures/PS3.17_FF.2-5.svg,v $ -->
<!-- $Date: 2014/05/09 12:31:57 $ -->
<!-- $Revision: 1.2 $ -->

<!DOCTYPE svg PUBLIC "-//W3C//DTD SVG 1.1//EN" "http://www.w3.org/Graphics/SVG/1.1/DTD/svg11.dtd">
<svg version="1.1" id="Layer_1" xmlns="http://www.w3.org/2000/svg" xmlns:xlink="http://www.w3.org/1999/xlink" x="0px" y="0px"
	 width="502px" height="372px" viewBox="0 0 502 372" enable-background="new 0 0 502 372" xml:space="preserve">

<defs>
	<style type="text/css">
	text {
	  font-family: Helvetica, Verdana, ArialUnicodeMS, san-serif
	}
	</style>
</defs>

<g>
   <desc>
	PS 3.17 Part 17: Explanatory Information
   </desc>
</g>

<g>
	<rect x="1" y="1" fill="#F5EED6" width="500" height="370"/>
	<g>
		
			<rect x="207.659" y="192.088" fill="#B2CEE7" stroke="#010101" stroke-width="0.75" stroke-linecap="round" stroke-linejoin="round" stroke-miterlimit="1" width="108" height="36"/>
		<g>
			<text transform="matrix(1 0 0 1 247.2627 207.8262)"><tspan x="0" y="0" font-size="7">TID 3915</tspan><tspan x="-32.484" y="8.4" font-size="7">Vascular Occlusion Properties</tspan></text>
		</g>
		
			<rect x="207.286" y="234.631" fill="#B2CEE7" stroke="#010101" stroke-width="0.75" stroke-linecap="round" stroke-linejoin="round" stroke-miterlimit="1" width="108.746" height="36"/>
		<g>
			<text transform="matrix(1 0 0 1 247.2632 246.1689)"><tspan x="0" y="0" font-size="7">TID 3916</tspan><tspan x="-10.7" y="8.399" font-size="7">Stent Properties</tspan></text>
		</g>
		
			<rect x="207.286" y="277.174" fill="#B2CEE7" stroke="#010101" stroke-width="0.75" stroke-linecap="round" stroke-linejoin="round" stroke-miterlimit="1" width="108.746" height="36"/>
		<g>
			<text transform="matrix(1 0 0 1 247.2627 292.9121)"><tspan x="0" y="0" font-size="7">TID 3914</tspan><tspan x="-18.672" y="8.4" font-size="7">Dissection Properties</tspan></text>
		</g>
		<g>
			<g>
				
					<line fill="none" stroke="#005695" stroke-linecap="round" stroke-miterlimit="1" x1="92.239" y1="124.642" x2="109.052" y2="124.642"/>
				<path fill="#005695" d="M111.414,123.617c-1.653-0.5-2.728-0.959-4.054-1.492v5.044c0.475-0.226,2.401-0.993,4.054-1.492
					c1.77-0.535,3.374-0.9,4.415-1.031C114.788,124.517,113.183,124.151,111.414,123.617z"/>
			</g>
		</g>
		<g>
			<g>
				
					<line fill="none" stroke="#005695" stroke-linecap="round" stroke-miterlimit="1" x1="92.239" y1="167.185" x2="109.052" y2="167.185"/>
				<path fill="#005695" d="M111.414,166.16c-1.653-0.5-2.728-0.959-4.054-1.492v5.044c0.475-0.226,2.401-0.993,4.054-1.492
					c1.77-0.535,3.374-0.9,4.415-1.031C114.788,167.06,113.183,166.694,111.414,166.16z"/>
			</g>
		</g>
		
			<polygon fill="#CCDEF0" stroke="#010101" stroke-width="0.75" stroke-linecap="round" stroke-linejoin="round" stroke-miterlimit="1" points="
			116.085,209.766 147.561,196.59 179.092,210.191 179.092,210.223 147.526,223.586 		"/>
		<g>
			<g>
				
					<line fill="none" stroke="#005695" stroke-linecap="round" stroke-miterlimit="1" x1="92.239" y1="209.727" x2="109.052" y2="209.727"/>
				<path fill="#005695" d="M111.414,208.701c-1.653-0.499-2.728-0.959-4.054-1.491v5.044c0.475-0.225,2.401-0.992,4.054-1.491
					c1.77-0.534,3.374-0.9,4.415-1.03C114.788,209.602,113.183,209.236,111.414,208.701z"/>
			</g>
		</g>
		<g>
			<g>
				
					<line fill="none" stroke="#005695" stroke-linecap="round" stroke-miterlimit="1" x1="180.169" y1="210.088" x2="199.016" y2="210.088"/>
				<path fill="#005695" d="M201.377,209.062c-1.653-0.499-2.728-0.959-4.054-1.491v5.044c0.475-0.225,2.401-0.992,4.054-1.491
					c1.77-0.534,3.374-0.9,4.415-1.03C204.751,209.963,203.147,209.598,201.377,209.062z"/>
			</g>
		</g>
		<g>
			<text transform="matrix(1 0.0022 -0.0022 1 129.5005 211.9863)" font-size="7">CONTAINS</text>
		</g>
		
			<polygon fill="#CCDEF0" stroke="#010101" stroke-width="0.75" stroke-linecap="round" stroke-linejoin="round" stroke-miterlimit="1" points="
			116.085,252.309 147.561,239.133 179.092,252.734 179.092,252.766 147.526,266.129 		"/>
		<g>
			<g>
				
					<line fill="none" stroke="#005695" stroke-linecap="round" stroke-miterlimit="1" x1="92.239" y1="252.27" x2="109.052" y2="252.27"/>
				<path fill="#005695" d="M111.414,251.244c-1.653-0.499-2.728-0.959-4.054-1.491v5.044c0.475-0.225,2.401-0.992,4.054-1.491
					c1.77-0.534,3.374-0.9,4.415-1.03C114.788,252.145,113.183,251.779,111.414,251.244z"/>
			</g>
		</g>
		<g>
			<g>
				
					<line fill="none" stroke="#005695" stroke-linecap="round" stroke-miterlimit="1" x1="180.169" y1="252.631" x2="199.016" y2="252.631"/>
				<path fill="#005695" d="M201.377,251.605c-1.653-0.499-2.728-0.959-4.054-1.491v5.044c0.475-0.225,2.401-0.992,4.054-1.491
					c1.77-0.534,3.374-0.9,4.415-1.03C204.751,252.506,203.147,252.141,201.377,251.605z"/>
			</g>
		</g>
		<g>
			<text transform="matrix(1 0.0022 -0.0022 1 129.5005 254.5293)" font-size="7">CONTAINS</text>
		</g>
		
			<rect x="207.286" y="107.572" fill="#B2CEE7" stroke="#010101" stroke-width="0.75" stroke-linecap="round" stroke-linejoin="round" stroke-miterlimit="1" width="108.746" height="36"/>
		<g>
			<text transform="matrix(1 0 0 1 247.2632 119.1099)"><tspan x="0" y="0" font-size="7">TID 3911</tspan><tspan x="-13.426" y="8.4" font-size="7">Plaque Properties</tspan></text>
		</g>
		
			<rect x="207.286" y="150.115" fill="#B2CEE7" stroke="#010101" stroke-width="0.75" stroke-linecap="round" stroke-linejoin="round" stroke-miterlimit="1" width="108.746" height="36"/>
		<g>
			<text transform="matrix(1 0 0 1 247.2627 161.6528)"><tspan x="0" y="0" font-size="7">TID 3912</tspan><tspan x="-15.952" y="8.4" font-size="7">Stenosis Properties</tspan></text>
		</g>
		
			<polygon fill="#CCDEF0" stroke="#010101" stroke-width="0.75" stroke-linecap="round" stroke-linejoin="round" stroke-miterlimit="1" points="
			116.085,125.25 147.561,112.074 179.092,125.676 179.092,125.707 147.526,139.07 		"/>
		<g>
			<g>
				
					<line fill="none" stroke="#005695" stroke-linecap="round" stroke-miterlimit="1" x1="180.169" y1="125.572" x2="199.016" y2="125.572"/>
				<path fill="#005695" d="M201.377,124.547c-1.653-0.5-2.728-0.959-4.054-1.492v5.044c0.475-0.226,2.401-0.993,4.054-1.492
					c1.77-0.535,3.374-0.9,4.415-1.031C204.751,125.447,203.147,125.082,201.377,124.547z"/>
			</g>
		</g>
		<g>
			<text transform="matrix(1 0.0022 -0.0022 1 129.5005 127.4702)" font-size="7">CONTAINS</text>
		</g>
		
			<polygon fill="#CCDEF0" stroke="#010101" stroke-width="0.75" stroke-linecap="round" stroke-linejoin="round" stroke-miterlimit="1" points="
			116.085,167.793 147.561,154.617 179.092,168.219 179.092,168.25 147.526,181.613 		"/>
		<g>
			<g>
				
					<line fill="none" stroke="#005695" stroke-linecap="round" stroke-miterlimit="1" x1="180.169" y1="168.115" x2="199.016" y2="168.115"/>
				<path fill="#005695" d="M201.377,167.09c-1.653-0.5-2.728-0.959-4.054-1.492v5.044c0.475-0.226,2.401-0.993,4.054-1.492
					c1.77-0.535,3.374-0.9,4.415-1.031C204.751,167.99,203.147,167.625,201.377,167.09z"/>
			</g>
		</g>
		<g>
			<text transform="matrix(1 0.0022 -0.0022 1 129.5005 170.0137)" font-size="7">CONTAINS</text>
		</g>
		
			<polygon fill="#CCDEF0" stroke="#010101" stroke-width="0.75" stroke-linecap="round" stroke-linejoin="round" stroke-miterlimit="1" points="
			116.085,294.852 147.561,281.676 179.092,295.277 179.092,295.309 147.526,308.672 		"/>
		<g>
			<g>
				
					<line fill="none" stroke="#005695" stroke-linecap="round" stroke-miterlimit="1" x1="92.239" y1="294.812" x2="109.052" y2="294.812"/>
				<path fill="#005695" d="M111.414,293.787c-1.653-0.499-2.728-0.959-4.054-1.491v5.044c0.475-0.225,2.401-0.992,4.054-1.491
					c1.77-0.534,3.374-0.9,4.415-1.03C114.788,294.688,113.183,294.322,111.414,293.787z"/>
			</g>
		</g>
		<g>
			<g>
				
					<line fill="none" stroke="#005695" stroke-linecap="round" stroke-miterlimit="1" x1="180.169" y1="295.174" x2="199.016" y2="295.174"/>
				<path fill="#005695" d="M201.377,294.148c-1.653-0.499-2.728-0.959-4.054-1.491v5.044c0.475-0.225,2.401-0.992,4.054-1.491
					c1.77-0.534,3.374-0.9,4.415-1.03C204.751,295.049,203.147,294.684,201.377,294.148z"/>
			</g>
		</g>
		<g>
			<text transform="matrix(1 0.0022 -0.0022 1 129.5005 297.0732)" font-size="7">CONTAINS</text>
		</g>
		
			<polygon fill="#CCDEF0" stroke="#010101" stroke-width="0.75" stroke-linecap="round" stroke-linejoin="round" stroke-miterlimit="1" points="
			116.085,337.395 147.561,324.219 179.092,337.82 179.092,337.852 147.526,351.215 		"/>
		<g>
			<g>
				
					<line fill="none" stroke="#005695" stroke-linecap="round" stroke-miterlimit="1" x1="180.169" y1="337.717" x2="199.016" y2="337.717"/>
				<path fill="#005695" d="M201.377,336.691c-1.653-0.499-2.728-0.959-4.054-1.491v5.044c0.475-0.225,2.401-0.992,4.054-1.491
					c1.77-0.534,3.374-0.9,4.415-1.03C204.751,337.592,203.147,337.227,201.377,336.691z"/>
			</g>
		</g>
		<g>
			<text transform="matrix(1 0.0022 -0.0022 1 129.5005 339.6172)" font-size="7">CONTAINS</text>
		</g>
		
			<rect x="207.438" y="319.355" fill="#B2CEE7" stroke="#010101" stroke-width="0.75" stroke-linecap="round" stroke-linejoin="round" stroke-miterlimit="1" width="108.442" height="36"/>
		<g>
			<text transform="matrix(1 0 0 1 247.2661 335.0938)"><tspan x="0" y="0" font-size="7">TID 3913</tspan><tspan x="-18.283" y="8.4" font-size="7">Aneurysm Properties</tspan></text>
		</g>
		
			<rect x="346.794" y="319.355" fill="#B2CEE7" stroke="#010101" stroke-width="0.75" stroke-linecap="round" stroke-linejoin="round" stroke-miterlimit="1" width="108.442" height="36"/>
		<g>
			<text transform="matrix(1 0 0 1 386.6211 335.0938)"><tspan x="0" y="0" font-size="7">TID 3917</tspan><tspan x="-25.479" y="8.4" font-size="7">Aneurysm Measurements</tspan></text>
		</g>
		<g>
			<g>
				
					<line fill="none" stroke="#005695" stroke-linecap="round" stroke-miterlimit="1" x1="316.032" y1="337.355" x2="339.565" y2="337.355"/>
				<path fill="#005695" d="M341.928,336.33c-1.654-0.499-2.729-0.959-4.055-1.491v5.044c0.475-0.225,2.4-0.992,4.055-1.491
					c1.77-0.534,3.373-0.9,4.414-1.03C345.301,337.23,343.697,336.865,341.928,336.33z"/>
			</g>
		</g>
		<g>
			<g>
				<polyline fill="none" stroke="#005695" stroke-linecap="round" stroke-miterlimit="1" points="92.24,80.414 92.239,337.719 
					109.052,337.719 				"/>
				<path fill="#005695" d="M111.414,336.693c-1.653-0.499-2.728-0.959-4.054-1.491v5.044c0.475-0.225,2.401-0.992,4.054-1.491
					c1.77-0.534,3.374-0.9,4.415-1.03C114.788,337.594,113.183,337.229,111.414,336.693z"/>
			</g>
		</g>
		
			<line fill="none" stroke="#005695" stroke-linecap="round" stroke-miterlimit="1" stroke-dasharray="4" x1="92.24" y1="16.644" x2="92.24" y2="45.018"/>
		
			<rect x="46.765" y="45.018" fill="#86B2D8" stroke="#010101" stroke-width="0.75" stroke-linecap="round" stroke-linejoin="round" stroke-miterlimit="1" width="90" height="35.396"/>
		<g>
			<text transform="matrix(1 0 0 1 75.3105 55.332)"><tspan x="0" y="0" font-size="8">TID 3908</tspan><tspan x="-12.008" y="9.6" font-size="8">Vascular Lesion</tspan></text>
		</g>
		<text transform="matrix(1 0 0 1 165.748 115.563)" font-size="8">0..1</text>
		<text transform="matrix(1 0 0 1 165.748 158.6143)" font-size="8">0..1</text>
		<text transform="matrix(1 0 0 1 165.748 198.0654)" font-size="8">0..1</text>
		<text transform="matrix(1 0 0 1 165.748 241.1172)" font-size="8">0..1</text>
		<text transform="matrix(1 0 0 1 165.748 284.168)" font-size="8">0..1</text>
		<text transform="matrix(1 0 0 1 165.748 327.707)" font-size="8">0..1</text>
	</g>
</g>
</svg>
