<?xml version="1.0" encoding="utf-8"?>
<!-- $Source: /home/bbennett/pass/archive/DicomXml/docbook/part17/figures/PS3.17_FFF.2.2-1.svg,v $ -->
<!-- $Date: 2014/05/09 13:15:43 $ -->
<!-- $Revision: 1.1 $ -->

<!DOCTYPE svg PUBLIC "-//W3C//DTD SVG 1.1//EN" "http://www.w3.org/Graphics/SVG/1.1/DTD/svg11.dtd">
<svg version="1.1" id="Layer_1" xmlns="http://www.w3.org/2000/svg" xmlns:xlink="http://www.w3.org/1999/xlink" x="0px" y="0px"
	 width="502.001px" height="337px" viewBox="0 0 502.001 337" enable-background="new 0 0 502.001 337" xml:space="preserve">

<defs>
	<style type="text/css">
	text {
	  font-family: Helvetica, Verdana, ArialUnicodeMS, san-serif
	}
	</style>
</defs>

<g>
   <desc>
	PS 3.17 Part 17: Explanatory Information
   </desc>
</g>

<g>
	<rect x="1" y="1" fill="#F5EED6" width="500.001" height="335"/>
	<g>
		<rect x="320.813" y="19.373" fill="none" width="126.849" height="301.281"/>
		<text transform="matrix(0.9288 0 0 1 320.8135 25.0991)"><tspan x="0" y="0" font-size="8">= 0</tspan><tspan x="0" y="42" font-size="8">= 1</tspan><tspan x="0" y="56" font-size="8">= 17</tspan><tspan x="0" y="70" font-size="8">= DISPLAY</tspan><tspan x="0" y="84" font-size="8">= 4.0</tspan><tspan x="0" y="112" font-size="8">= 18</tspan><tspan x="0" y="126" font-size="8">= 25</tspan><tspan x="0" y="140" font-size="8">= DISPLAY</tspan><tspan x="0" y="154" font-size="8">= 2.0</tspan><tspan x="0" y="182" font-size="8">= 26</tspan><tspan x="0" y="196" font-size="8">= 27</tspan><tspan x="0" y="210" font-size="8">= SKIP</tspan><tspan x="0" y="224" font-size="8">= 2.0</tspan><tspan x="0" y="252" font-size="8">= 28</tspan><tspan x="0" y="266" font-size="8">= 36</tspan><tspan x="0" y="280" font-size="8">= DISPLAY</tspan><tspan x="0" y="294" font-size="8">= 1.5</tspan></text>
		
			<rect x="54.338" y="30.344" fill="#B2CEE7" stroke="#010101" stroke-width="0.75" stroke-linecap="round" stroke-linejoin="round" stroke-miterlimit="1" width="257.904" height="290.311"/>
		
			<rect x="69.448" y="43.912" fill="#86B2D8" stroke="#010101" stroke-width="0.75" stroke-linecap="round" stroke-linejoin="round" stroke-miterlimit="1" width="242.794" height="69.186"/>
		
			<rect x="84.577" y="57.24" fill="#FFFFFF" stroke="#010101" stroke-width="0.75" stroke-linecap="round" stroke-linejoin="round" stroke-miterlimit="1" width="227.665" height="14"/>
		
			<rect x="84.576" y="71.192" fill="#FFFFFF" stroke="#010101" stroke-width="0.75" stroke-linecap="round" stroke-linejoin="round" stroke-miterlimit="1" width="227.65" height="14"/>
		
			<rect x="84.576" y="85.146" fill="#FFFFFF" stroke="#010101" stroke-width="0.75" stroke-linecap="round" stroke-linejoin="round" stroke-miterlimit="1" width="227.65" height="14"/>
		
			<rect x="84.576" y="99.098" fill="#FFFFFF" stroke="#010101" stroke-width="0.75" stroke-linecap="round" stroke-linejoin="round" stroke-miterlimit="1" width="227.65" height="14"/>
		<rect x="58.478" y="33.787" fill="none" width="141.988" height="7.715"/>
		<text transform="matrix(0.9288 0 0 1 58.478 39.5151)" font-size="8">Frame Display Sequence</text>
		<rect x="92.036" y="61.936" fill="none" width="108.83" height="7.717"/>
		<text transform="matrix(0.9288 0 0 1 92.0356 67.6567)" font-size="8">&gt;Start Trim</text>
		<rect x="92.035" y="89.769" fill="none" width="136.58" height="7.717"/>
		<text transform="matrix(0.9288 0 0 1 92.0352 95.4888)" font-size="8">&gt;Skip Frame Range Flag</text>
		<rect x="73.719" y="47.848" fill="none" width="127.729" height="7.721"/>
		<text transform="matrix(0.9288 0 0 1 73.7188 53.5728)" font-size="8">Item 1</text>
		<rect x="256.338" y="33.773" fill="none" width="44.984" height="7.717"/>
		<text transform="matrix(0.9288 0 0 1 256.3379 39.5024)" font-size="8">(0008,9458)</text>
		<rect x="256.338" y="61.936" fill="none" width="44.984" height="7.717"/>
		<text transform="matrix(0.9288 0 0 1 256.3379 67.6592)" font-size="8">(0008,2142)</text>
		<rect x="256.74" y="89.769" fill="none" width="44.582" height="7.717"/>
		<text transform="matrix(0.9288 0 0 1 256.7402 95.4927)" font-size="8">(0008,9460)</text>
		<rect x="92.035" y="75.853" fill="none" width="136.58" height="7.717"/>
		<text transform="matrix(0.9288 0 0 1 92.0352 81.5708)" font-size="8">&gt;Stop Trim</text>
		<rect x="256.74" y="75.853" fill="none" width="44.582" height="7.717"/>
		<text transform="matrix(0.9288 0 0 1 256.7402 81.5762)" font-size="8">(0008,2143)</text>
		<rect x="92.036" y="103.686" fill="none" width="158.964" height="7.717"/>
		<text transform="matrix(0.9288 0 0 1 92.0356 109.4116)" font-size="8">&gt;Recommended Display Frame Rate in Float</text>
		<rect x="256.338" y="103.687" fill="none" width="44.984" height="7.716"/>
		<text transform="matrix(0.9288 0 0 1 256.3379 109.4097)" font-size="8">(0008,9459)</text>
		
			<rect x="54.338" y="16.346" fill="#B2CEE7" stroke="#010101" stroke-width="0.75" stroke-linecap="round" stroke-linejoin="round" stroke-miterlimit="1" width="257.889" height="13.998"/>
		<rect x="58.478" y="20.897" fill="none" width="164.902" height="7.717"/>
		<text transform="matrix(0.9288 0 0 1 58.478 26.623)" font-size="8">Preferred Playback Sequencing</text>
		<rect x="256.74" y="20.897" fill="none" width="44.582" height="7.717"/>
		<text transform="matrix(0.9288 0 0 1 256.7402 26.6211)" font-size="8">(0018,1244)</text>
		
			<rect x="69.448" y="113.098" fill="#86B2D8" stroke="#010101" stroke-width="0.75" stroke-linecap="round" stroke-linejoin="round" stroke-miterlimit="1" width="242.794" height="69.186"/>
		
			<rect x="84.577" y="126.426" fill="#FFFFFF" stroke="#010101" stroke-width="0.75" stroke-linecap="round" stroke-linejoin="round" stroke-miterlimit="1" width="227.665" height="14"/>
		
			<rect x="84.576" y="140.378" fill="#FFFFFF" stroke="#010101" stroke-width="0.75" stroke-linecap="round" stroke-linejoin="round" stroke-miterlimit="1" width="227.65" height="14"/>
		
			<rect x="84.576" y="154.331" fill="#FFFFFF" stroke="#010101" stroke-width="0.75" stroke-linecap="round" stroke-linejoin="round" stroke-miterlimit="1" width="227.65" height="14"/>
		
			<rect x="84.576" y="168.283" fill="#FFFFFF" stroke="#010101" stroke-width="0.75" stroke-linecap="round" stroke-linejoin="round" stroke-miterlimit="1" width="227.65" height="14"/>
		<rect x="92.036" y="131.121" fill="none" width="108.83" height="7.717"/>
		<text transform="matrix(0.9288 0 0 1 92.0356 136.8423)" font-size="8">&gt;Start Trim</text>
		<rect x="92.035" y="158.954" fill="none" width="136.58" height="7.717"/>
		<text transform="matrix(0.9288 0 0 1 92.0352 164.6743)" font-size="8">&gt;Skip Frame Range Flag</text>
		<rect x="73.719" y="117.033" fill="none" width="127.729" height="7.721"/>
		<text transform="matrix(0.9288 0 0 1 73.7188 122.7583)" font-size="8">Item 2</text>
		<rect x="256.338" y="131.121" fill="none" width="44.984" height="7.717"/>
		<text transform="matrix(0.9288 0 0 1 256.3379 136.8447)" font-size="8">(0008,2142)</text>
		<rect x="256.74" y="158.954" fill="none" width="44.582" height="7.717"/>
		<text transform="matrix(0.9288 0 0 1 256.7402 164.6782)" font-size="8">(0008,9460)</text>
		<rect x="92.035" y="145.038" fill="none" width="136.58" height="7.717"/>
		<text transform="matrix(0.9288 0 0 1 92.0352 150.7563)" font-size="8">&gt;Stop Trim</text>
		<rect x="256.74" y="145.038" fill="none" width="44.582" height="7.717"/>
		<text transform="matrix(0.9288 0 0 1 256.7402 150.7617)" font-size="8">(0008,2143)</text>
		<rect x="92.036" y="172.871" fill="none" width="158.964" height="7.717"/>
		<text transform="matrix(0.9288 0 0 1 92.0356 178.5977)" font-size="8">&gt;Recommended Display Frame Rate in Float</text>
		<rect x="256.338" y="172.872" fill="none" width="44.984" height="7.716"/>
		<text transform="matrix(0.9288 0 0 1 256.3379 178.5957)" font-size="8">(0008,9459)</text>
		
			<rect x="69.448" y="182.283" fill="#86B2D8" stroke="#010101" stroke-width="0.75" stroke-linecap="round" stroke-linejoin="round" stroke-miterlimit="1" width="242.794" height="69.186"/>
		
			<rect x="84.577" y="195.611" fill="#FFFFFF" stroke="#010101" stroke-width="0.75" stroke-linecap="round" stroke-linejoin="round" stroke-miterlimit="1" width="227.665" height="14"/>
		
			<rect x="84.576" y="209.563" fill="#FFFFFF" stroke="#010101" stroke-width="0.75" stroke-linecap="round" stroke-linejoin="round" stroke-miterlimit="1" width="227.65" height="14"/>
		
			<rect x="84.576" y="223.517" fill="#FFFFFF" stroke="#010101" stroke-width="0.75" stroke-linecap="round" stroke-linejoin="round" stroke-miterlimit="1" width="227.65" height="14"/>
		
			<rect x="84.576" y="237.469" fill="#FFFFFF" stroke="#010101" stroke-width="0.75" stroke-linecap="round" stroke-linejoin="round" stroke-miterlimit="1" width="227.65" height="14"/>
		<rect x="92.036" y="200.307" fill="none" width="108.83" height="7.717"/>
		<text transform="matrix(0.9288 0 0 1 92.0356 206.0273)" font-size="8">&gt;Start Trim</text>
		<rect x="92.035" y="228.14" fill="none" width="136.58" height="7.717"/>
		<text transform="matrix(0.9288 0 0 1 92.0352 233.8594)" font-size="8">&gt;Skip Frame Range Flag</text>
		<rect x="73.719" y="186.219" fill="none" width="127.729" height="7.721"/>
		<text transform="matrix(0.9288 0 0 1 73.7188 191.9434)" font-size="8">Item 3</text>
		<rect x="256.338" y="200.307" fill="none" width="44.984" height="7.717"/>
		<text transform="matrix(0.9288 0 0 1 256.3379 206.0303)" font-size="8">(0008,2142)</text>
		<rect x="256.74" y="228.14" fill="none" width="44.582" height="7.717"/>
		<text transform="matrix(0.9288 0 0 1 256.7402 233.8633)" font-size="8">(0008,9460)</text>
		<rect x="92.035" y="214.224" fill="none" width="136.58" height="7.717"/>
		<text transform="matrix(0.9288 0 0 1 92.0352 219.9414)" font-size="8">&gt;Stop Trim</text>
		<rect x="256.74" y="214.224" fill="none" width="44.582" height="7.717"/>
		<text transform="matrix(0.9288 0 0 1 256.7402 219.9473)" font-size="8">(0008,2143)</text>
		<rect x="92.036" y="242.057" fill="none" width="158.964" height="7.717"/>
		<text transform="matrix(0.9288 0 0 1 92.0356 247.7832)" font-size="8">&gt;Recommended Display Frame Rate in Float</text>
		<rect x="256.338" y="242.058" fill="none" width="44.984" height="7.716"/>
		<text transform="matrix(0.9288 0 0 1 256.3379 247.7812)" font-size="8">(0008,9459)</text>
		
			<rect x="69.448" y="251.469" fill="#86B2D8" stroke="#010101" stroke-width="0.75" stroke-linecap="round" stroke-linejoin="round" stroke-miterlimit="1" width="242.794" height="69.186"/>
		
			<rect x="84.577" y="264.797" fill="#FFFFFF" stroke="#010101" stroke-width="0.75" stroke-linecap="round" stroke-linejoin="round" stroke-miterlimit="1" width="227.665" height="14"/>
		
			<rect x="84.576" y="278.749" fill="#FFFFFF" stroke="#010101" stroke-width="0.75" stroke-linecap="round" stroke-linejoin="round" stroke-miterlimit="1" width="227.65" height="14"/>
		
			<rect x="84.576" y="292.702" fill="#FFFFFF" stroke="#010101" stroke-width="0.75" stroke-linecap="round" stroke-linejoin="round" stroke-miterlimit="1" width="227.65" height="14"/>
		
			<rect x="84.576" y="306.654" fill="#FFFFFF" stroke="#010101" stroke-width="0.75" stroke-linecap="round" stroke-linejoin="round" stroke-miterlimit="1" width="227.65" height="14"/>
		<rect x="92.036" y="269.492" fill="none" width="108.83" height="7.717"/>
		<text transform="matrix(0.9288 0 0 1 92.0356 275.2129)" font-size="8">&gt;Start Trim</text>
		<rect x="92.035" y="297.325" fill="none" width="136.58" height="7.717"/>
		<text transform="matrix(0.9288 0 0 1 92.0352 303.0449)" font-size="8">&gt;Skip Frame Range Flag</text>
		<rect x="73.719" y="255.404" fill="none" width="127.729" height="7.721"/>
		<text transform="matrix(0.9288 0 0 1 73.7188 261.1289)" font-size="8">Item 4</text>
		<rect x="256.338" y="269.492" fill="none" width="44.984" height="7.717"/>
		<text transform="matrix(0.9288 0 0 1 256.3379 275.2158)" font-size="8">(0008,2142)</text>
		<rect x="256.74" y="297.325" fill="none" width="44.582" height="7.717"/>
		<text transform="matrix(0.9288 0 0 1 256.7402 303.0488)" font-size="8">(0008,9460)</text>
		<rect x="92.035" y="283.409" fill="none" width="136.58" height="7.717"/>
		<text transform="matrix(0.9288 0 0 1 92.0352 289.127)" font-size="8">&gt;Stop Trim</text>
		<rect x="256.74" y="283.409" fill="none" width="44.582" height="7.717"/>
		<text transform="matrix(0.9288 0 0 1 256.7402 289.1328)" font-size="8">(0008,2143)</text>
		<rect x="92.036" y="311.242" fill="none" width="158.964" height="7.717"/>
		<text transform="matrix(0.9288 0 0 1 92.0356 316.9688)" font-size="8">&gt;Recommended Display Frame Rate in Float</text>
		<rect x="256.338" y="311.243" fill="none" width="44.984" height="7.716"/>
		<text transform="matrix(0.9288 0 0 1 256.3379 316.9668)" font-size="8">(0008,9459)</text>
	</g>
</g>
</svg>
