<?xml version="1.0" encoding="utf-8"?>
<!-- $Source: /home/bbennett/pass/archive/DicomXml/docbook/part17/figures/PS3.17_I.8-1.svg,v $ -->
<!-- $Date: 2014/05/09 12:31:56 $ -->
<!-- $Revision: 1.2 $ -->

<!DOCTYPE svg PUBLIC "-//W3C//DTD SVG 1.1//EN" "http://www.w3.org/Graphics/SVG/1.1/DTD/svg11.dtd">
<svg version="1.1" id="Layer_1" xmlns="http://www.w3.org/2000/svg" xmlns:xlink="http://www.w3.org/1999/xlink" x="0px" y="0px"
	 width="502px" height="562px" viewBox="0 0 502 562" enable-background="new 0 0 502 562" xml:space="preserve">

<defs>
	<style type="text/css">
	text {
	  font-family: Helvetica, Verdana, ArialUnicodeMS, san-serif
	}
	</style>
</defs>

<g>
   <desc>
	PS 3.17 Part 17: Explanatory Information
   </desc>
</g>

<g>
	<rect x="1" y="1" fill="#F5EED6" width="500" height="560"/>
	<g>
		
			<rect x="64.847" y="253.298" opacity="0.4" fill="#0DB14B" stroke="#0DB14B" stroke-miterlimit="1" width="315.585" height="103.245"/>
		
			<rect x="64.847" y="373.426" opacity="0.4" fill="#FFC20E" stroke="#FFC20E" stroke-miterlimit="1" width="315.585" height="173.377"/>
		
			<polygon fill="#CCDEF0" stroke="#010101" stroke-width="0.75" stroke-linecap="round" stroke-linejoin="round" stroke-miterlimit="1" points="
			237.448,94.811 286.909,81.636 336.456,95.237 336.456,95.268 286.854,108.632 		"/>
		<g>
			<text transform="matrix(1 0.0022 -0.0022 1 252.5308 97.5015)" font-size="7">HAS CONCEPT MOD</text>
		</g>
		<g>
			<g>
				
					<line fill="none" stroke="#005695" stroke-linecap="round" stroke-miterlimit="1" x1="287.161" y1="108.632" x2="287.161" y2="115.527"/>
				<path fill="#005695" d="M288.185,117.889c0.5-1.653,0.96-2.728,1.492-4.054h-5.045c0.227,0.475,0.993,2.401,1.492,4.054
					c0.535,1.77,0.9,3.374,1.031,4.415C287.286,121.263,287.652,119.658,288.185,117.889z"/>
			</g>
		</g>
		
			<rect x="242.163" y="122.708" fill="#B2CEE7" stroke="#010101" stroke-width="0.75" stroke-linecap="round" stroke-linejoin="round" stroke-miterlimit="1" width="90.002" height="27"/>
		<g>
			<text transform="matrix(1 0 0 1 277.8286 133.9517)"><tspan x="0" y="0" font-size="7">Ovary</tspan><tspan x="-11.278" y="8.4" font-size="7">CONTAINER</tspan></text>
		</g>
		<g>
			<g>
				
					<line fill="none" stroke="#005695" stroke-linecap="round" stroke-miterlimit="1" x1="392.147" y1="107.6" x2="392.147" y2="116.239"/>
				<path fill="#005695" d="M393.171,118.601c0.5-1.653,0.96-2.728,1.492-4.054h-5.045c0.227,0.475,0.993,2.401,1.492,4.054
					c0.535,1.77,0.9,3.374,1.031,4.415C392.272,121.975,392.638,120.37,393.171,118.601z"/>
			</g>
		</g>
		
			<polygon fill="#CCDEF0" stroke="#010101" stroke-width="0.75" stroke-linecap="round" stroke-linejoin="round" stroke-miterlimit="1" points="
			347.147,94.683 392.108,81.514 437.153,95.109 437.153,95.139 392.057,108.494 		"/>
		<text transform="matrix(1 0 0 1 374.0659 96.9448)" font-size="7">CONTAINS</text>
		
			<rect x="273.54" y="15.197" fill="#86B2D8" stroke="#010101" stroke-width="0.75" stroke-linecap="round" stroke-linejoin="round" stroke-miterlimit="1" width="135.008" height="36.001"/>
		<g>
			<text transform="matrix(1 0 0 1 325.9272 25.8188)"><tspan x="0" y="0" font-size="8">Findings</tspan><tspan x="-8.438" y="9.6" font-size="8">CONTAINER</tspan></text>
		</g>
		<g>
			<text transform="matrix(1 0 0 1 64.855 370.4336)" font-size="8">Averaged Results</text>
		</g>
		<g>
			<text transform="matrix(1 0 0 1 64.8472 250.3047)" font-size="8">Instances</text>
		</g>
		<g>
			<g>
				<polyline fill="none" stroke="#005695" stroke-linecap="round" stroke-miterlimit="1" points="339.805,51.198 339.805,61.617 
					287.76,61.617 287.76,74.997 				"/>
				<path fill="#005695" d="M288.785,77.358c0.5-1.653,0.96-2.728,1.492-4.054h-5.045c0.227,0.475,0.993,2.401,1.492,4.054
					c0.535,1.77,0.9,3.374,1.031,4.415C287.885,80.732,288.251,79.128,288.785,77.358z"/>
			</g>
		</g>
		<g>
			<g>
				<path fill="none" stroke="#005695" stroke-linecap="round" stroke-miterlimit="1" d="M339.805,61.617h52.361
					c0,0-0.002,6.534-0.002,13.38"/>
				<path fill="#005695" d="M393.189,77.358c0.5-1.653,0.96-2.728,1.492-4.054h-5.045c0.227,0.475,0.993,2.401,1.492,4.054
					c0.535,1.77,0.9,3.374,1.031,4.415C392.29,80.732,392.656,79.128,393.189,77.358z"/>
			</g>
		</g>
		<g>
			<g>
				
					<line fill="none" stroke="#005695" stroke-linecap="round" stroke-miterlimit="1" x1="220.774" y1="265.92" x2="220.774" y2="273.373"/>
				<path fill="#005695" d="M221.799,275.735c0.5-1.653,0.959-2.728,1.492-4.054h-5.044c0.226,0.475,0.993,2.401,1.492,4.054
					c0.535,1.77,0.9,3.374,1.031,4.415C220.899,279.109,221.265,277.504,221.799,275.735z"/>
			</g>
		</g>
		<g>
			<g>
				
					<line fill="none" stroke="#005695" stroke-linecap="round" stroke-miterlimit="1" x1="323.838" y1="265.92" x2="323.838" y2="273.373"/>
				<path fill="#005695" d="M324.863,275.735c0.5-1.653,0.96-2.728,1.492-4.054h-5.045c0.227,0.475,0.993,2.401,1.492,4.054
					c0.535,1.77,0.9,3.374,1.031,4.415C323.963,279.109,324.33,277.504,324.863,275.735z"/>
			</g>
		</g>
		
			<polygon fill="#CCDEF0" stroke="#010101" stroke-width="0.75" stroke-linecap="round" stroke-linejoin="round" stroke-miterlimit="1" points="
			77.249,293.723 117.716,280.547 158.255,294.148 158.255,294.18 117.672,307.543 		"/>
		<g>
			<text transform="matrix(1 0.0022 -0.0022 1 99.6631 295.9492)" font-size="7">CONTAINS</text>
		</g>
		<g>
			<g>
				
					<line fill="none" stroke="#005695" stroke-linecap="round" stroke-miterlimit="1" x1="117.751" y1="307.543" x2="117.751" y2="310.838"/>
				<path fill="#005695" d="M118.776,313.199c0.5-1.652,0.959-2.728,1.492-4.054h-5.044c0.226,0.475,0.993,2.401,1.492,4.054
					c0.535,1.77,0.9,3.375,1.031,4.415C117.876,316.574,118.242,314.969,118.776,313.199z"/>
			</g>
		</g>
		
			<rect x="77.25" y="318.02" fill="#B2CEE7" stroke="#010101" stroke-width="0.75" stroke-linecap="round" stroke-linejoin="round" stroke-miterlimit="1" width="81.002" height="27"/>
		<g>
			<text transform="matrix(1 0 0 1 89.9292 329.2617)"><tspan x="0" y="0" font-size="7">Left Ovary Length</tspan><tspan x="19.852" y="8.4" font-size="7">NUM</tspan></text>
		</g>
		
			<polygon fill="#CCDEF0" stroke="#010101" stroke-width="0.75" stroke-linecap="round" stroke-linejoin="round" stroke-miterlimit="1" points="
			180.15,293.723 220.618,280.547 261.157,294.148 261.157,294.18 220.573,307.543 		"/>
		<g>
			<text transform="matrix(1 0.0022 -0.0022 1 202.564 295.9492)" font-size="7">CONTAINS</text>
		</g>
		<g>
			<g>
				
					<line fill="none" stroke="#005695" stroke-linecap="round" stroke-miterlimit="1" x1="220.653" y1="307.543" x2="220.653" y2="310.838"/>
				<path fill="#005695" d="M221.678,313.199c0.5-1.652,0.959-2.728,1.492-4.054h-5.044c0.226,0.475,0.993,2.401,1.492,4.054
					c0.535,1.77,0.9,3.375,1.031,4.415C220.778,316.574,221.144,314.969,221.678,313.199z"/>
			</g>
		</g>
		
			<rect x="180.151" y="318.02" fill="#B2CEE7" stroke="#010101" stroke-width="0.75" stroke-linecap="round" stroke-linejoin="round" stroke-miterlimit="1" width="81.002" height="27"/>
		<g>
			<text transform="matrix(1 0 0 1 194.5889 329.2617)"><tspan x="0" y="0" font-size="7">Left Ovary Width</tspan><tspan x="18.093" y="8.4" font-size="7">NUM</tspan></text>
		</g>
		
			<polygon fill="#CCDEF0" stroke="#010101" stroke-width="0.75" stroke-linecap="round" stroke-linejoin="round" stroke-miterlimit="1" points="
			283.049,293.723 323.518,280.547 364.057,294.148 364.057,294.18 323.473,307.543 		"/>
		<g>
			<text transform="matrix(1 0.0022 -0.0022 1 305.4644 295.9492)" font-size="7">CONTAINS</text>
		</g>
		<g>
			<g>
				
					<line fill="none" stroke="#005695" stroke-linecap="round" stroke-miterlimit="1" x1="323.553" y1="307.543" x2="323.553" y2="310.838"/>
				<path fill="#005695" d="M324.578,313.199c0.5-1.652,0.96-2.728,1.492-4.054h-5.045c0.227,0.475,0.993,2.401,1.492,4.054
					c0.535,1.77,0.9,3.375,1.031,4.415C323.678,316.574,324.044,314.969,324.578,313.199z"/>
			</g>
		</g>
		
			<rect x="283.051" y="318.02" fill="#B2CEE7" stroke="#010101" stroke-width="0.75" stroke-linecap="round" stroke-linejoin="round" stroke-miterlimit="1" width="81.002" height="27"/>
		<g>
			<text transform="matrix(1 0 0 1 296.3188 329.2617)"><tspan x="0" y="0" font-size="7">Left Ovary Height</tspan><tspan x="19.264" y="8.4" font-size="7">NUM</tspan></text>
		</g>
		<g>
			<g>
				<polyline fill="none" stroke="#005695" stroke-linecap="round" stroke-miterlimit="1" points="393.034,157.912 393.034,265.92 
					392.999,265.92 117.962,265.92 117.962,273.371 				"/>
				<path fill="#005695" d="M118.987,275.733c0.5-1.653,0.959-2.728,1.492-4.054h-5.044c0.226,0.475,0.993,2.401,1.492,4.054
					c0.535,1.77,0.9,3.374,1.031,4.415C118.087,279.107,118.453,277.502,118.987,275.733z"/>
			</g>
		</g>
		
			<polygon fill="#CCDEF0" stroke="#010101" stroke-width="0.75" stroke-linecap="round" stroke-linejoin="round" stroke-miterlimit="1" points="
			283.049,188.315 323.518,175.14 364.057,188.741 364.057,188.772 323.473,202.136 		"/>
		<g>
			<text transform="matrix(1 0.0022 -0.0022 1 305.4644 190.543)" font-size="7">CONTAINS</text>
		</g>
		<g>
			<g>
				
					<line fill="none" stroke="#005695" stroke-linecap="round" stroke-miterlimit="1" x1="323.553" y1="202.136" x2="323.553" y2="205.431"/>
				<path fill="#005695" d="M324.578,207.792c0.5-1.653,0.96-2.728,1.492-4.054h-5.045c0.227,0.475,0.993,2.401,1.492,4.054
					c0.535,1.77,0.9,3.374,1.031,4.415C323.678,211.167,324.044,209.562,324.578,207.792z"/>
			</g>
		</g>
		
			<rect x="283.051" y="212.612" fill="#B2CEE7" stroke="#010101" stroke-width="0.75" stroke-linecap="round" stroke-linejoin="round" stroke-miterlimit="1" width="81.002" height="27"/>
		<g>
			<text transform="matrix(1 0 0 1 294.5688 223.856)"><tspan x="0" y="0" font-size="7">Left Ovary Volume</tspan><tspan x="21.014" y="8.4" font-size="7">NUM</tspan></text>
		</g>
		<g>
			<g>
				<polyline fill="none" stroke="#005695" stroke-linecap="round" stroke-miterlimit="1" points="393.034,149.708 393.034,160.514 
					393.026,160.514 322.913,160.514 322.913,167.965 				"/>
				<path fill="#005695" d="M323.937,170.327c0.5-1.653,0.96-2.728,1.492-4.054h-5.045c0.227,0.475,0.993,2.401,1.492,4.054
					c0.535,1.77,0.9,3.374,1.031,4.415C323.038,173.701,323.404,172.097,323.937,170.327z"/>
			</g>
		</g>
		
			<polygon fill="#CCDEF0" stroke="#010101" stroke-width="0.75" stroke-linecap="round" stroke-linejoin="round" stroke-miterlimit="1" points="
			68.248,485.598 117.708,472.422 167.254,486.023 167.254,486.055 117.654,499.418 		"/>
		<g>
			<text transform="matrix(1 0.0022 -0.0022 1 83.3286 488.2812)" font-size="7">HAS CONCEPT MOD</text>
		</g>
		<g>
			<g>
				
					<line fill="none" stroke="#005695" stroke-linecap="round" stroke-miterlimit="1" x1="117.751" y1="499.418" x2="117.751" y2="503.074"/>
				<path fill="#005695" d="M118.776,505.436c0.5-1.652,0.959-2.728,1.492-4.054h-5.044c0.226,0.475,0.993,2.401,1.492,4.054
					c0.535,1.77,0.9,3.375,1.031,4.415C117.876,508.811,118.242,507.205,118.776,505.436z"/>
			</g>
		</g>
		
			<rect x="77.25" y="510.256" fill="#B2CEE7" stroke="#010101" stroke-width="0.75" stroke-linecap="round" stroke-linejoin="round" stroke-miterlimit="1" width="81.002" height="27"/>
		<g>
			<text transform="matrix(1 0 0 1 86.7656 521.4912)"><tspan x="0" y="0" font-size="7">Derivation = &quot;mean&quot;</tspan><tspan x="20.873" y="8.399" font-size="7">CODE</tspan></text>
		</g>
		<g>
			<g>
				
					<line fill="none" stroke="#005695" stroke-linecap="round" stroke-miterlimit="1" x1="117.751" y1="457.439" x2="117.751" y2="465.783"/>
				<path fill="#005695" d="M118.776,468.145c0.5-1.652,0.959-2.728,1.492-4.054h-5.044c0.226,0.475,0.993,2.401,1.492,4.054
					c0.535,1.77,0.9,3.375,1.031,4.415C117.876,471.52,118.242,469.914,118.776,468.145z"/>
			</g>
		</g>
		<g>
			<g>
				
					<line fill="none" stroke="#005695" stroke-linecap="round" stroke-miterlimit="1" x1="220.774" y1="383.385" x2="220.774" y2="390.836"/>
				<path fill="#005695" d="M221.799,393.197c0.5-1.652,0.959-2.728,1.492-4.054h-5.044c0.226,0.475,0.993,2.401,1.492,4.054
					c0.535,1.77,0.9,3.375,1.031,4.415C220.899,396.572,221.265,394.967,221.799,393.197z"/>
			</g>
		</g>
		<g>
			<g>
				
					<line fill="none" stroke="#005695" stroke-linecap="round" stroke-miterlimit="1" x1="323.838" y1="383.385" x2="323.838" y2="390.836"/>
				<path fill="#005695" d="M324.863,393.197c0.5-1.652,0.96-2.728,1.492-4.054h-5.045c0.227,0.475,0.993,2.401,1.492,4.054
					c0.535,1.77,0.9,3.375,1.031,4.415C323.963,396.572,324.33,394.967,324.863,393.197z"/>
			</g>
		</g>
		
			<polygon fill="#CCDEF0" stroke="#010101" stroke-width="0.75" stroke-linecap="round" stroke-linejoin="round" stroke-miterlimit="1" points="
			77.249,411.184 117.716,398.01 158.255,411.609 158.255,411.641 117.672,425.006 		"/>
		<g>
			<text transform="matrix(1 0.0022 -0.0022 1 99.6631 413.4102)" font-size="7">CONTAINS</text>
		</g>
		<g>
			<g>
				
					<line fill="none" stroke="#005695" stroke-linecap="round" stroke-miterlimit="1" x1="117.751" y1="425.006" x2="117.751" y2="428.299"/>
				<path fill="#005695" d="M118.776,430.66c0.5-1.652,0.959-2.728,1.492-4.054h-5.044c0.226,0.475,0.993,2.401,1.492,4.054
					c0.535,1.77,0.9,3.375,1.031,4.415C117.876,434.035,118.242,432.43,118.776,430.66z"/>
			</g>
		</g>
		
			<rect x="77.25" y="435.48" fill="#B2CEE7" stroke="#010101" stroke-width="0.75" stroke-linecap="round" stroke-linejoin="round" stroke-miterlimit="1" width="81.002" height="27.002"/>
		<g>
			<text transform="matrix(1 0 0 1 89.9292 446.7236)"><tspan x="0" y="0" font-size="7">Left Ovary Length</tspan><tspan x="19.852" y="8.399" font-size="7">NUM</tspan></text>
		</g>
		
			<polygon fill="#CCDEF0" stroke="#010101" stroke-width="0.75" stroke-linecap="round" stroke-linejoin="round" stroke-miterlimit="1" points="
			171.149,485.598 220.608,472.422 270.155,486.023 270.155,486.055 220.555,499.418 		"/>
		<g>
			<text transform="matrix(1 0.0022 -0.0022 1 186.2295 488.2812)" font-size="7">HAS CONCEPT MOD</text>
		</g>
		<g>
			<g>
				
					<line fill="none" stroke="#005695" stroke-linecap="round" stroke-miterlimit="1" x1="220.653" y1="499.418" x2="220.653" y2="503.074"/>
				<path fill="#005695" d="M221.678,505.436c0.5-1.652,0.959-2.728,1.492-4.054h-5.044c0.226,0.475,0.993,2.401,1.492,4.054
					c0.535,1.77,0.9,3.375,1.031,4.415C220.778,508.811,221.144,507.205,221.678,505.436z"/>
			</g>
		</g>
		
			<rect x="180.151" y="510.256" fill="#B2CEE7" stroke="#010101" stroke-width="0.75" stroke-linecap="round" stroke-linejoin="round" stroke-miterlimit="1" width="81.002" height="27"/>
		<g>
			<text transform="matrix(1 0 0 1 189.6665 521.4912)"><tspan x="0" y="0" font-size="7">Derivation = &quot;mean&quot;</tspan><tspan x="20.873" y="8.399" font-size="7">CODE</tspan></text>
		</g>
		<g>
			<g>
				
					<line fill="none" stroke="#005695" stroke-linecap="round" stroke-miterlimit="1" x1="220.653" y1="457.439" x2="220.653" y2="465.783"/>
				<path fill="#005695" d="M221.678,468.145c0.5-1.652,0.959-2.728,1.492-4.054h-5.044c0.226,0.475,0.993,2.401,1.492,4.054
					c0.535,1.77,0.9,3.375,1.031,4.415C220.778,471.52,221.144,469.914,221.678,468.145z"/>
			</g>
		</g>
		
			<polygon fill="#CCDEF0" stroke="#010101" stroke-width="0.75" stroke-linecap="round" stroke-linejoin="round" stroke-miterlimit="1" points="
			180.15,411.184 220.618,398.01 261.157,411.609 261.157,411.641 220.573,425.006 		"/>
		<g>
			<text transform="matrix(1 0.0022 -0.0022 1 202.564 413.4102)" font-size="7">CONTAINS</text>
		</g>
		<g>
			<g>
				
					<line fill="none" stroke="#005695" stroke-linecap="round" stroke-miterlimit="1" x1="220.653" y1="425.006" x2="220.653" y2="428.299"/>
				<path fill="#005695" d="M221.678,430.66c0.5-1.652,0.959-2.728,1.492-4.054h-5.044c0.226,0.475,0.993,2.401,1.492,4.054
					c0.535,1.77,0.9,3.375,1.031,4.415C220.778,434.035,221.144,432.43,221.678,430.66z"/>
			</g>
		</g>
		
			<rect x="180.151" y="435.48" fill="#B2CEE7" stroke="#010101" stroke-width="0.75" stroke-linecap="round" stroke-linejoin="round" stroke-miterlimit="1" width="81.002" height="27.002"/>
		<g>
			<text transform="matrix(1 0 0 1 194.5889 446.7236)"><tspan x="0" y="0" font-size="7">Left Ovary Width</tspan><tspan x="18.093" y="8.399" font-size="7">NUM</tspan></text>
		</g>
		
			<polygon fill="#CCDEF0" stroke="#010101" stroke-width="0.75" stroke-linecap="round" stroke-linejoin="round" stroke-miterlimit="1" points="
			274.049,485.598 323.508,472.422 373.055,486.023 373.055,486.055 323.456,499.418 		"/>
		<g>
			<text transform="matrix(1 0.0022 -0.0022 1 289.1304 488.2812)" font-size="7">HAS CONCEPT MOD</text>
		</g>
		<g>
			<g>
				
					<line fill="none" stroke="#005695" stroke-linecap="round" stroke-miterlimit="1" x1="323.553" y1="499.418" x2="323.553" y2="503.074"/>
				<path fill="#005695" d="M324.578,505.436c0.5-1.652,0.96-2.728,1.492-4.054h-5.045c0.227,0.475,0.993,2.401,1.492,4.054
					c0.535,1.77,0.9,3.375,1.031,4.415C323.678,508.811,324.044,507.205,324.578,505.436z"/>
			</g>
		</g>
		
			<rect x="283.051" y="510.256" fill="#B2CEE7" stroke="#010101" stroke-width="0.75" stroke-linecap="round" stroke-linejoin="round" stroke-miterlimit="1" width="81.002" height="27"/>
		<g>
			<text transform="matrix(1 0 0 1 292.5679 521.4912)"><tspan x="0" y="0" font-size="7">Derivation = &quot;mean&quot;</tspan><tspan x="20.873" y="8.399" font-size="7">CODE</tspan></text>
		</g>
		<g>
			<g>
				
					<line fill="none" stroke="#005695" stroke-linecap="round" stroke-miterlimit="1" x1="323.553" y1="457.439" x2="323.553" y2="465.783"/>
				<path fill="#005695" d="M324.578,468.145c0.5-1.652,0.96-2.728,1.492-4.054h-5.045c0.227,0.475,0.993,2.401,1.492,4.054
					c0.535,1.77,0.9,3.375,1.031,4.415C323.678,471.52,324.044,469.914,324.578,468.145z"/>
			</g>
		</g>
		
			<polygon fill="#CCDEF0" stroke="#010101" stroke-width="0.75" stroke-linecap="round" stroke-linejoin="round" stroke-miterlimit="1" points="
			283.049,411.184 323.518,398.01 364.057,411.609 364.057,411.641 323.473,425.006 		"/>
		<g>
			<text transform="matrix(1 0.0022 -0.0022 1 305.4644 413.4102)" font-size="7">CONTAINS</text>
		</g>
		<g>
			<g>
				
					<line fill="none" stroke="#005695" stroke-linecap="round" stroke-miterlimit="1" x1="323.553" y1="425.006" x2="323.553" y2="428.299"/>
				<path fill="#005695" d="M324.578,430.66c0.5-1.652,0.96-2.728,1.492-4.054h-5.045c0.227,0.475,0.993,2.401,1.492,4.054
					c0.535,1.77,0.9,3.375,1.031,4.415C323.678,434.035,324.044,432.43,324.578,430.66z"/>
			</g>
		</g>
		
			<rect x="283.051" y="435.48" fill="#B2CEE7" stroke="#010101" stroke-width="0.75" stroke-linecap="round" stroke-linejoin="round" stroke-miterlimit="1" width="81.002" height="27.002"/>
		<g>
			<text transform="matrix(1 0 0 1 296.3188 446.7236)"><tspan x="0" y="0" font-size="7">Left Ovary Height</tspan><tspan x="19.264" y="8.399" font-size="7">NUM</tspan></text>
		</g>
		<g>
			<g>
				<polyline fill="none" stroke="#005695" stroke-linecap="round" stroke-miterlimit="1" points="393.034,265.922 393.034,383.383 
					392.999,383.385 117.962,383.383 117.962,390.836 				"/>
				<path fill="#005695" d="M118.987,393.197c0.5-1.652,0.959-2.728,1.492-4.054h-5.044c0.226,0.475,0.993,2.401,1.492,4.054
					c0.535,1.77,0.9,3.375,1.031,4.415C118.087,396.572,118.453,394.967,118.987,393.197z"/>
			</g>
		</g>
		
			<rect x="351.645" y="122.716" fill="#B2CEE7" stroke="#010101" stroke-width="0.75" stroke-linecap="round" stroke-linejoin="round" stroke-miterlimit="1" width="81" height="26.984"/>
		<g>
			<text transform="matrix(1 0 0 1 382.812 133.9517)"><tspan x="0" y="0" font-size="7">Ovary</tspan><tspan x="-11.277" y="8.4" font-size="7">CONTAINER</tspan></text>
		</g>
	</g>
</g>
</svg>
