<?xml version="1.0" encoding="utf-8"?>
<!-- $Source: /home/bbennett/pass/archive/DicomXml/docbook/part17/figures/PS3.17_FFF.2.1-11a.svg,v $ -->
<!-- $Date: 2014/05/09 13:15:44 $ -->
<!-- $Revision: 1.1 $ -->

<!DOCTYPE svg PUBLIC "-//W3C//DTD SVG 1.1//EN" "http://www.w3.org/Graphics/SVG/1.1/DTD/svg11.dtd">
<svg version="1.1" id="Layer_1" xmlns="http://www.w3.org/2000/svg" xmlns:xlink="http://www.w3.org/1999/xlink" x="0px" y="0px"
	 width="502.001px" height="232px" viewBox="0 0 502.001 232" enable-background="new 0 0 502.001 232" xml:space="preserve">

<defs>
	<style type="text/css">
	text {
	  font-family: Helvetica, Verdana, ArialUnicodeMS, san-serif
	}
	</style>
</defs>

<g>
   <desc>
	PS 3.17 Part 17: Explanatory Information
   </desc>
</g>

<g>
	<rect x="1" y="1" fill="#F5EED6" width="500.001" height="230"/>
	<g>
		
			<rect x="61.743" y="135.633" fill="#B2CEE7" stroke="#010101" stroke-width="0.75" stroke-linecap="round" stroke-linejoin="round" stroke-miterlimit="1" width="257.627" height="13.591"/>
		
			<rect x="61.743" y="108.508" fill="#B2CEE7" stroke="#010101" stroke-width="0.75" stroke-linecap="round" stroke-linejoin="round" stroke-miterlimit="1" width="257.627" height="13.591"/>
		
			<rect x="61.743" y="94.955" fill="#B2CEE7" stroke="#010101" stroke-width="0.75" stroke-linecap="round" stroke-linejoin="round" stroke-miterlimit="1" width="257.627" height="13.591"/>
		
			<rect x="61.743" y="81.434" fill="#B2CEE7" stroke="#010101" stroke-width="0.75" stroke-linecap="round" stroke-linejoin="round" stroke-miterlimit="1" width="257.627" height="13.591"/>
		
			<rect x="61.743" y="67.912" fill="#B2CEE7" stroke="#010101" stroke-width="0.75" stroke-linecap="round" stroke-linejoin="round" stroke-miterlimit="1" width="257.627" height="13.591"/>
		
			<rect x="61.743" y="54.391" fill="#B2CEE7" stroke="#010101" stroke-width="0.75" stroke-linecap="round" stroke-linejoin="round" stroke-miterlimit="1" width="257.627" height="13.591"/>
		
			<rect x="61.743" y="40.869" fill="#B2CEE7" stroke="#010101" stroke-width="0.75" stroke-linecap="round" stroke-linejoin="round" stroke-miterlimit="1" width="257.627" height="13.591"/>
		
			<rect x="61.743" y="27.348" fill="#B2CEE7" stroke="#010101" stroke-width="0.75" stroke-linecap="round" stroke-linejoin="round" stroke-miterlimit="1" width="257.627" height="13.591"/>
		<rect x="328.219" y="30.055" fill="none" width="112.039" height="187.01"/>
		<text transform="matrix(0.9288 0 0 1 328.2188 35.7808)"><tspan x="0" y="0" font-size="8">= UID “A”</tspan><tspan x="0" y="27.5" font-size="8">= UID “B”</tspan><tspan x="0" y="41.25" font-size="8">= XA</tspan><tspan x="0" y="68.75" font-size="8">= 1.2.840.10008.15.1.1</tspan><tspan x="0" y="82.5" font-size="8">= SOURCE</tspan><tspan x="0" y="96.25" font-size="8">= Imaging System ID</tspan><tspan x="0" y="110" font-size="8">= Y</tspan><tspan x="0" y="123.75" font-size="8">= Clock System ID</tspan><tspan x="0" y="137.5" font-size="8">= NTP</tspan><tspan x="0" y="151.25" font-size="8">= aaa.bbb.ccc.ddd</tspan><tspan x="0" y="178.75" font-size="8">= UID “D1”, “D2”, and “D3” resp.</tspan></text>
		<rect x="65.883" y="30.287" fill="none" width="175.978" height="7.715"/>
		<text transform="matrix(0.9288 0 0 1 65.8833 36.0142)" font-size="8">Study Instance UID</text>
		<rect x="62.103" y="14.935" fill="none" width="175.978" height="7.715"/>
		<text transform="matrix(0.9288 0 0 1 62.1025 20.6621)" font-size="8">Enhanced XA SOP Instance</text>
		<rect x="65.883" y="43.809" fill="none" width="156.672" height="7.715"/>
		<text transform="matrix(0.9288 0 0 1 65.8833 49.5356)" font-size="8">...</text>
		<rect x="65.883" y="57.33" fill="none" width="142.656" height="7.715"/>
		<text transform="matrix(0.9288 0 0 1 65.8833 63.0566)" font-size="8">Series Instance UID</text>
		<rect x="65.883" y="138.571" fill="none" width="142.322" height="7.715"/>
		<text transform="matrix(0.9288 0 0 1 65.8833 144.2969)" font-size="8">Acquisition Time Synchronized</text>
		<rect x="264.194" y="30.287" fill="none" width="44.533" height="7.715"/>
		<text transform="matrix(0.9288 0 0 1 264.1934 36.0142)" font-size="8">(0020,000D)</text>
		<rect x="264.343" y="57.33" fill="none" width="44.385" height="7.715"/>
		<text transform="matrix(0.9288 0 0 1 264.3418 63.0566)" font-size="8">(0020,000E)</text>
		<rect x="263.849" y="138.571" fill="none" width="44.879" height="7.715"/>
		<text transform="matrix(0.9288 0 0 1 263.8477 144.2969)" font-size="8">(0008,1800)</text>
		<rect x="65.883" y="111.446" fill="none" width="142.322" height="7.715"/>
		<text transform="matrix(0.9288 0 0 1 65.8833 117.1719)" font-size="8">Synchronization Trigger</text>
		<rect x="263.849" y="111.446" fill="none" width="44.879" height="7.715"/>
		<text transform="matrix(0.9288 0 0 1 263.8477 117.1719)" font-size="8">(0018,106A)</text>
		
			<rect x="61.743" y="122.099" fill="#B2CEE7" stroke="#010101" stroke-width="0.75" stroke-linecap="round" stroke-linejoin="round" stroke-miterlimit="1" width="257.627" height="13.591"/>
		<rect x="65.883" y="125.037" fill="none" width="142.322" height="7.715"/>
		<text transform="matrix(0.9288 0 0 1 65.8833 130.7627)" font-size="8">Trigger Source or Type</text>
		<rect x="263.849" y="125.037" fill="none" width="44.879" height="7.715"/>
		<text transform="matrix(0.9288 0 0 1 263.8477 130.7627)" font-size="8">(0018,1061)</text>
		<rect x="65.883" y="97.894" fill="none" width="142.322" height="7.715"/>
		<text transform="matrix(0.9288 0 0 1 65.8833 103.6191)" font-size="8">Synchronization Frame of Reference UID</text>
		<rect x="263.849" y="97.894" fill="none" width="44.879" height="7.715"/>
		<text transform="matrix(0.9288 0 0 1 263.8477 103.6191)" font-size="8">(0020,0200)</text>
		
			<rect x="61.743" y="176.329" fill="#B2CEE7" stroke="#010101" stroke-width="0.75" stroke-linecap="round" stroke-linejoin="round" stroke-miterlimit="1" width="257.627" height="13.592"/>
		
			<rect x="61.743" y="162.776" fill="#B2CEE7" stroke="#010101" stroke-width="0.75" stroke-linecap="round" stroke-linejoin="round" stroke-miterlimit="1" width="257.627" height="13.592"/>
		
			<rect x="61.743" y="149.224" fill="#B2CEE7" stroke="#010101" stroke-width="0.75" stroke-linecap="round" stroke-linejoin="round" stroke-miterlimit="1" width="257.627" height="13.591"/>
		<rect x="65.883" y="179.268" fill="none" width="142.322" height="7.716"/>
		<text transform="matrix(0.9288 0 0 1 65.8833 184.9932)" font-size="8">NTP Source Address</text>
		<rect x="263.849" y="179.268" fill="none" width="44.879" height="7.716"/>
		<text transform="matrix(0.9288 0 0 1 263.8477 184.9932)" font-size="8">(0018,1803)</text>
		<rect x="65.883" y="165.715" fill="none" width="142.322" height="7.716"/>
		<text transform="matrix(0.9288 0 0 1 65.8833 171.4404)" font-size="8">Time Distribution Protocol</text>
		<rect x="263.849" y="165.715" fill="none" width="44.879" height="7.716"/>
		<text transform="matrix(0.9288 0 0 1 263.8477 171.4404)" font-size="8">(0018,1802)</text>
		<rect x="65.883" y="152.162" fill="none" width="142.322" height="7.716"/>
		<text transform="matrix(0.9288 0 0 1 65.8833 157.8877)" font-size="8">Time Source</text>
		<rect x="263.849" y="152.162" fill="none" width="44.879" height="7.716"/>
		<text transform="matrix(0.9288 0 0 1 263.8477 157.8877)" font-size="8">(0018,1801)</text>
		
			<rect x="61.743" y="203.474" fill="#B2CEE7" stroke="#010101" stroke-width="0.75" stroke-linecap="round" stroke-linejoin="round" stroke-miterlimit="1" width="257.627" height="13.591"/>
		
			<rect x="61.743" y="189.921" fill="#B2CEE7" stroke="#010101" stroke-width="0.75" stroke-linecap="round" stroke-linejoin="round" stroke-miterlimit="1" width="257.627" height="13.59"/>
		<rect x="65.883" y="206.411" fill="none" width="142.322" height="7.716"/>
		<text transform="matrix(0.9288 0 0 1 65.8833 212.1367)" font-size="8">SOP Instance UID</text>
		<rect x="263.849" y="206.411" fill="none" width="44.879" height="7.716"/>
		<text transform="matrix(0.9288 0 0 1 263.8477 212.1367)" font-size="8">(0008,0018)</text>
		<rect x="65.883" y="192.858" fill="none" width="142.322" height="7.715"/>
		<text transform="matrix(0.9288 0 0 1 65.8833 198.584)" font-size="8">...</text>
		<rect x="65.883" y="70.851" fill="none" width="142.656" height="7.715"/>
		<text transform="matrix(0.9288 0 0 1 65.8833 76.5781)" font-size="8">Modality</text>
		<rect x="264.343" y="70.851" fill="none" width="44.385" height="7.715"/>
		<text transform="matrix(0.9288 0 0 1 264.3418 76.5781)" font-size="8">(0008,0060)</text>
		<rect x="65.883" y="84.373" fill="none" width="156.673" height="7.715"/>
		<text transform="matrix(0.9288 0 0 1 65.8833 90.0996)" font-size="8">...</text>
	</g>
</g>
</svg>
