<?xml version="1.0" encoding="utf-8"?>
<!-- $Source: /home/bbennett/pass/archive/DicomXml/docbook/part11/figures/PS3.11_A.2-1.svg,v $ -->
<!-- $Date: 2014/05/09 13:15:42 $ -->
<!-- $Revision: 1.1 $ -->

<!DOCTYPE svg PUBLIC "-//W3C//DTD SVG 1.1//EN" "http://www.w3.org/Graphics/SVG/1.1/DTD/svg11.dtd">

<svg version="1.1" id="Layer_1" xmlns="http://www.w3.org/2000/svg" xmlns:xlink="http://www.w3.org/1999/xlink" x="0px" y="0px"
	 width="496.042px" height="265.858px" viewBox="0 0 496.042 265.858" enable-background="new 0 0 496.042 265.858"
	 xml:space="preserve">

<defs>
    <style type="text/css">
      text {
        font-family: Helvetica, Verdana, san-serif
      }
    </style>
  </defs>

<g>
  <title>
	Figure A.2-1 CLINICAL CONTEXT DIAGRAM
  </title>
  <desc>
	DICOM PS 3.11-2008 Part 11: Media Storage Application Profiles
  </desc>
</g>

<symbol  id="Bounding_Box" viewBox="-248.021 -218.053 496.043 436.106">
	<polygon fill="#F4EED7" points="248.021,-218.053 -248.021,-218.053 -248.021,218.053 248.021,218.053 	"/>
</symbol>
<use xlink:href="#Bounding_Box"  width="496.043" height="436.106" x="-248.021" y="-218.053" transform="matrix(1 0 0 -0.6096 248.0215 132.9292)" overflow="visible"/>
<g>
	<circle fill="#FFFFFF" stroke="#010101" stroke-width="0.75" cx="197.382" cy="140.372" r="42.75"/>
	<g>
		<text transform="matrix(1 0 0 1 170.0361 122.1128)"><tspan x="0" y="0" font-size="12">Domain of</tspan><tspan x="7.348" y="14.4" font-size="12">DICOM</tspan><tspan x="-3.337" y="28.8" font-size="12">Media Data</tspan><tspan x="-4.345" y="43.201" font-size="12">Interchange</tspan></text>
	</g>
	<g>
		<text transform="matrix(1 0 0 1 433.3667 107.2715)"><tspan x="0" y="0" font-size="12">Possible</tspan><tspan x="0.674" y="14.4" font-size="12">Network</tspan><tspan x="15.677" y="28.8" font-size="12">for</tspan><tspan x="2.681" y="43.2" font-size="12">DICOM</tspan><tspan x="0.674" y="57.6" font-size="12">Network</tspan><tspan x="-9.012" y="72" font-size="12">Interchange</tspan></text>
	</g>
	<g>
		<g>
			<path fill="none" stroke="#005595" stroke-width="2" stroke-linecap="round" stroke-miterlimit="1" d="M412.516,239.891
				c4.826,0,4.45-0.879,6.067-2.637s1.793-5.707,1.793-11.848c0-10.311-0.446-68.158,0-72.754c0.444-4.592,2.988-8.447,5.027-11.566
				c2.039-3.115,5.472-5.822,10.301-8.121c-4.781-1.969-8.427-5.107-10.934-9.422c-2.509-4.311-4.395-11.787-4.395-22.43
				c0-9.795,0.422-66.18,0-68.359s-1.23-3.854-2.426-5.027c-1.195-1.17-0.608-1.758-5.435-1.758"/>
		</g>
	</g>
	<g>
		<g>
			<path fill="#CCDFF0" d="M8.306,15.473c0-1.98,1.62-3.6,3.6-3.6h100.8c1.98,0,3.6,1.62,3.6,3.6v64.8c0,1.98-1.62,3.6-3.6,3.6
				h-100.8c-1.98,0-3.6-1.62-3.6-3.6V15.473z"/>
			<path fill="none" stroke="#010101" stroke-width="0.75" d="M8.306,15.473c0-1.98,1.62-3.6,3.6-3.6h100.8c1.98,0,3.6,1.62,3.6,3.6
				v64.8c0,1.98-1.62,3.6-3.6,3.6h-100.8c-1.98,0-3.6-1.62-3.6-3.6V15.473z"/>
		</g>
		<text transform="matrix(1 0 0 1 13.5273 24.5195)" font-size="9">X-Ray Angiographic Lab</text>
		<g>
			<g>
				<path fill="#4E8ABE" d="M21.806,36.416c0-1.98,1.62-3.6,3.6-3.6h73.8c1.98,0,3.6,1.62,3.6,3.6v37.8c0,1.98-1.62,3.6-3.6,3.6
					h-73.8c-1.98,0-3.6-1.62-3.6-3.6V36.416z"/>
			</g>
			<g>
				<path fill="none" stroke="#000000" stroke-width="0.75" stroke-dasharray="4" d="M21.806,36.416c0-1.98,1.62-3.6,3.6-3.6h73.8
					c1.98,0,3.6,1.62,3.6,3.6v37.8c0,1.98-1.62,3.6-3.6,3.6h-73.8c-1.98,0-3.6-1.62-3.6-3.6V36.416z"/>
			</g>
		</g>
		<g>
			<path fill="#D9D9D9" stroke="#000000" stroke-width="0.25" stroke-miterlimit="3.8637" d="M48.807,59.993
				c0,7.462,6.042,13.504,13.497,13.504c7.46,0,13.502-6.042,13.502-13.504c0-7.454-6.042-13.496-13.502-13.496
				C54.849,46.497,48.807,52.539,48.807,59.993z"/>
			<path fill="#808080" stroke="#000000" stroke-width="0.25" stroke-miterlimit="3.8637" d="M55.806,70.98
				c-1.491-0.79-2.389-1.589-3.48-2.857l19.963-15.84c-1.084-1.46-2.057-2.347-3.633-3.271L55.806,70.98z"/>
			<path fill="none" stroke="#000000" stroke-miterlimit="3.8637" d="M49.609,59.993c0,7.018,5.683,12.702,12.695,12.702
				c7.017,0,12.7-5.685,12.7-12.702c0-7.01-5.684-12.694-12.7-12.694C55.292,47.299,49.609,52.983,49.609,59.993z"/>
			<path fill="#FFFFFF" stroke="#000000" stroke-width="0.5" stroke-miterlimit="3.8637" d="M58.319,59.997
				c0,2.203,1.785,3.987,3.986,3.987c2.206,0,3.989-1.784,3.989-3.987s-1.783-3.988-3.989-3.988
				C60.104,56.009,58.319,57.794,58.319,59.997z"/>
			<circle stroke="#000000" stroke-width="0.5" stroke-miterlimit="3.8637" cx="62.307" cy="59.996" r="1.439"/>
		</g>
		<text transform="matrix(1 0 0 1 30.0688 43.2256)" fill="#FFFFFF" font-size="8">Removable Media</text>
	</g>
	<g>
		<path fill="#B2CEE7" d="M8.306,100.53c0-1.98,1.62-3.6,3.6-3.6h100.8c1.98,0,3.6,1.62,3.6,3.6v64.8c0,1.979-1.62,3.6-3.6,3.6
			h-100.8c-1.98,0-3.6-1.62-3.6-3.6V100.53z"/>
		<path fill="none" stroke="#010101" stroke-width="0.75" d="M8.306,100.53c0-1.98,1.62-3.6,3.6-3.6h100.8c1.98,0,3.6,1.62,3.6,3.6
			v64.8c0,1.979-1.62,3.6-3.6,3.6h-100.8c-1.98,0-3.6-1.62-3.6-3.6V100.53z"/>
	</g>
	<g>
		<g>
			<path fill="#4E8ABE" d="M21.806,121.472c0-1.98,1.62-3.6,3.6-3.6h73.8c1.98,0,3.6,1.62,3.6,3.6v37.8c0,1.979-1.62,3.6-3.6,3.6
				h-73.8c-1.98,0-3.6-1.62-3.6-3.6V121.472z"/>
		</g>
		<g>
			<path fill="none" stroke="#000000" stroke-width="0.75" stroke-dasharray="4" d="M21.806,121.472c0-1.98,1.62-3.6,3.6-3.6h73.8
				c1.98,0,3.6,1.62,3.6,3.6v37.8c0,1.979-1.62,3.6-3.6,3.6h-73.8c-1.98,0-3.6-1.62-3.6-3.6V121.472z"/>
		</g>
	</g>
	<g>
		<path fill="#D9D9D9" stroke="#000000" stroke-width="0.25" stroke-miterlimit="3.8637" d="M48.807,145.05
			c0,7.462,6.042,13.504,13.497,13.504c7.46,0,13.502-6.042,13.502-13.504c0-7.454-6.042-13.496-13.502-13.496
			C54.849,131.554,48.807,137.596,48.807,145.05z"/>
		<path fill="#808080" stroke="#000000" stroke-width="0.25" stroke-miterlimit="3.8637" d="M64.513,157.625
			c-1.646,0.369-2.848,0.346-4.502,0.093l4.859-25.016c-1.772-0.404-3.088-0.445-4.886-0.121L64.513,157.625z"/>
		<path fill="none" stroke="#000000" stroke-miterlimit="3.8637" d="M49.609,145.05c0,7.018,5.683,12.702,12.695,12.702
			c7.017,0,12.7-5.685,12.7-12.702c0-7.01-5.684-12.694-12.7-12.694C55.292,132.355,49.609,138.04,49.609,145.05z"/>
		<path fill="#FFFFFF" stroke="#000000" stroke-width="0.5" stroke-miterlimit="3.8637" d="M58.319,145.054
			c0,2.203,1.785,3.987,3.986,3.987c2.206,0,3.989-1.784,3.989-3.987s-1.783-3.988-3.989-3.988
			C60.104,141.065,58.319,142.851,58.319,145.054z"/>
		<circle stroke="#000000" stroke-width="0.5" stroke-miterlimit="3.8637" cx="62.307" cy="145.053" r="1.439"/>
	</g>
	<text transform="matrix(1 0 0 1 30.0688 128.2822)" fill="#FFFFFF" font-size="8">Removable Media</text>
	<text transform="matrix(1 0 0 1 47.5522 109.5762)" font-size="9">Review</text>
	<g>
		<g>
			<path fill="#87B2D8" d="M8.306,185.586c0-1.979,1.62-3.6,3.6-3.6h100.8c1.98,0,3.6,1.62,3.6,3.6v64.801c0,1.979-1.62,3.6-3.6,3.6
				h-100.8c-1.98,0-3.6-1.62-3.6-3.6V185.586z"/>
			<path fill="none" stroke="#010101" stroke-width="0.75" d="M8.306,185.586c0-1.979,1.62-3.6,3.6-3.6h100.8
				c1.98,0,3.6,1.62,3.6,3.6v64.801c0,1.979-1.62,3.6-3.6,3.6h-100.8c-1.98,0-3.6-1.62-3.6-3.6V185.586z"/>
		</g>
		<text transform="matrix(1 0 0 1 47.3013 194.6328)" font-size="9">Archive</text>
		<g>
			<g>
				<path fill="#4E8ABE" d="M21.806,206.528c0-1.979,1.62-3.6,3.6-3.6h73.8c1.98,0,3.6,1.62,3.6,3.6v37.801
					c0,1.979-1.62,3.6-3.6,3.6h-73.8c-1.98,0-3.6-1.62-3.6-3.6V206.528z"/>
			</g>
			<g>
				<path fill="none" stroke="#000000" stroke-width="0.75" stroke-dasharray="4" d="M21.806,206.528c0-1.979,1.62-3.6,3.6-3.6h73.8
					c1.98,0,3.6,1.62,3.6,3.6v37.801c0,1.979-1.62,3.6-3.6,3.6h-73.8c-1.98,0-3.6-1.62-3.6-3.6V206.528z"/>
			</g>
		</g>
		<g>
			<path fill="#D9D9D9" stroke="#000000" stroke-width="0.25" stroke-miterlimit="3.8637" d="M75.806,230.106
				c0,7.462-6.042,13.504-13.498,13.504c-7.46,0-13.502-6.042-13.502-13.504c0-7.454,6.042-13.496,13.502-13.496
				C69.764,216.61,75.806,222.652,75.806,230.106z"/>
			<path fill="#808080" stroke="#000000" stroke-width="0.25" stroke-miterlimit="3.8637" d="M68.807,241.094
				c1.49-0.79,2.389-1.589,3.48-2.857l-19.963-15.84c1.083-1.46,2.057-2.347,3.633-3.271L68.807,241.094z"/>
			<path fill="none" stroke="#000000" stroke-miterlimit="3.8637" d="M75.004,230.106c0,7.018-5.684,12.702-12.695,12.702
				c-7.018,0-12.701-5.685-12.701-12.702c0-7.01,5.684-12.694,12.701-12.694C69.321,217.412,75.004,223.097,75.004,230.106z"/>
			<path fill="#FFFFFF" stroke="#000000" stroke-width="0.5" stroke-miterlimit="3.8637" d="M66.293,230.11
				c0,2.203-1.784,3.987-3.986,3.987c-2.205,0-3.988-1.784-3.988-3.987s1.783-3.988,3.988-3.988
				C64.509,226.122,66.293,227.907,66.293,230.11z"/>
			<circle stroke="#000000" stroke-width="0.5" stroke-miterlimit="3.8637" cx="62.306" cy="230.109" r="1.439"/>
		</g>
		<text transform="matrix(1 0 0 1 30.0688 213.3389)" fill="#FFFFFF" font-size="8">Removable Media</text>
	</g>
	<g>
		<g>
			<path fill="#CCDFF0" d="M280.463,15.473c0-1.98,1.62-3.6,3.6-3.6h100.801c1.979,0,3.6,1.62,3.6,3.6v64.8c0,1.98-1.62,3.6-3.6,3.6
				H284.063c-1.979,0-3.6-1.62-3.6-3.6V15.473z"/>
			<path fill="none" stroke="#010101" stroke-width="0.75" d="M280.463,15.473c0-1.98,1.62-3.6,3.6-3.6h100.801
				c1.979,0,3.6,1.62,3.6,3.6v64.8c0,1.98-1.62,3.6-3.6,3.6H284.063c-1.979,0-3.6-1.62-3.6-3.6V15.473z"/>
		</g>
		<text transform="matrix(1 0 0 1 285.6851 24.5195)" font-size="9">X-Ray Angiographic Lab</text>
		<g>
			<g>
				<path fill="#4E8ABE" d="M293.963,36.416c0-1.98,1.62-3.6,3.6-3.6h73.801c1.979,0,3.6,1.62,3.6,3.6v37.8c0,1.98-1.62,3.6-3.6,3.6
					h-73.801c-1.979,0-3.6-1.62-3.6-3.6V36.416z"/>
			</g>
			<g>
				<path fill="none" stroke="#000000" stroke-width="0.75" stroke-dasharray="4" d="M293.963,36.416c0-1.98,1.62-3.6,3.6-3.6
					h73.801c1.979,0,3.6,1.62,3.6,3.6v37.8c0,1.98-1.62,3.6-3.6,3.6h-73.801c-1.979,0-3.6-1.62-3.6-3.6V36.416z"/>
			</g>
		</g>
		<g>
			<path fill="#D9D9D9" stroke="#000000" stroke-width="0.25" stroke-miterlimit="3.8637" d="M320.963,59.993
				c0,7.462,6.043,13.504,13.498,13.504c7.46,0,13.502-6.042,13.502-13.504c0-7.454-6.042-13.496-13.502-13.496
				C327.006,46.497,320.963,52.539,320.963,59.993z"/>
			<path fill="#808080" stroke="#000000" stroke-width="0.25" stroke-miterlimit="3.8637" d="M327.963,70.98
				c-1.491-0.79-2.389-1.589-3.48-2.857l19.963-15.84c-1.084-1.46-2.057-2.347-3.633-3.271L327.963,70.98z"/>
			<path fill="none" stroke="#000000" stroke-miterlimit="3.8637" d="M321.766,59.993c0,7.018,5.683,12.702,12.695,12.702
				c7.017,0,12.7-5.685,12.7-12.702c0-7.01-5.684-12.694-12.7-12.694C327.449,47.299,321.766,52.983,321.766,59.993z"/>
			<path fill="#FFFFFF" stroke="#000000" stroke-width="0.5" stroke-miterlimit="3.8637" d="M330.476,59.997
				c0,2.203,1.784,3.987,3.986,3.987c2.206,0,3.989-1.784,3.989-3.987s-1.783-3.988-3.989-3.988
				C332.26,56.009,330.476,57.794,330.476,59.997z"/>
			<circle stroke="#000000" stroke-width="0.5" stroke-miterlimit="3.8637" cx="334.463" cy="59.996" r="1.439"/>
		</g>
		<text transform="matrix(1 0 0 1 302.2261 43.2256)" fill="#FFFFFF" font-size="8">Removable Media</text>
	</g>
	<g>
		<g>
			<path fill="#B2CEE7" d="M280.463,100.53c0-1.98,1.62-3.6,3.6-3.6h100.801c1.979,0,3.6,1.62,3.6,3.6v64.8
				c0,1.979-1.62,3.6-3.6,3.6H284.063c-1.979,0-3.6-1.62-3.6-3.6V100.53z"/>
			<path fill="none" stroke="#010101" stroke-width="0.75" d="M280.463,100.53c0-1.98,1.62-3.6,3.6-3.6h100.801
				c1.979,0,3.6,1.62,3.6,3.6v64.8c0,1.979-1.62,3.6-3.6,3.6H284.063c-1.979,0-3.6-1.62-3.6-3.6V100.53z"/>
		</g>
		<g>
			<g>
				<path fill="#4E8ABE" d="M293.963,121.472c0-1.98,1.62-3.6,3.6-3.6h73.801c1.979,0,3.6,1.62,3.6,3.6v37.8
					c0,1.979-1.62,3.6-3.6,3.6h-73.801c-1.979,0-3.6-1.62-3.6-3.6V121.472z"/>
			</g>
			<g>
				<path fill="none" stroke="#000000" stroke-width="0.75" stroke-dasharray="4" d="M293.963,121.472c0-1.98,1.62-3.6,3.6-3.6
					h73.801c1.979,0,3.6,1.62,3.6,3.6v37.8c0,1.979-1.62,3.6-3.6,3.6h-73.801c-1.979,0-3.6-1.62-3.6-3.6V121.472z"/>
			</g>
		</g>
		<g>
			<path fill="#D9D9D9" stroke="#000000" stroke-width="0.25" stroke-miterlimit="3.8637" d="M320.963,145.05
				c0,7.462,6.043,13.504,13.498,13.504c7.46,0,13.502-6.042,13.502-13.504c0-7.454-6.042-13.496-13.502-13.496
				C327.006,131.554,320.963,137.596,320.963,145.05z"/>
			<path fill="#808080" stroke="#000000" stroke-width="0.25" stroke-miterlimit="3.8637" d="M336.67,157.625
				c-1.646,0.369-2.848,0.346-4.502,0.093l4.859-25.016c-1.772-0.404-3.088-0.445-4.887-0.121L336.67,157.625z"/>
			<path fill="none" stroke="#000000" stroke-miterlimit="3.8637" d="M321.766,145.05c0,7.018,5.683,12.702,12.695,12.702
				c7.017,0,12.7-5.685,12.7-12.702c0-7.01-5.684-12.694-12.7-12.694C327.449,132.355,321.766,138.04,321.766,145.05z"/>
			<path fill="#FFFFFF" stroke="#000000" stroke-width="0.5" stroke-miterlimit="3.8637" d="M330.476,145.054
				c0,2.203,1.784,3.987,3.986,3.987c2.206,0,3.989-1.784,3.989-3.987s-1.783-3.988-3.989-3.988
				C332.26,141.065,330.476,142.851,330.476,145.054z"/>
			<circle stroke="#000000" stroke-width="0.5" stroke-miterlimit="3.8637" cx="334.463" cy="145.053" r="1.439"/>
		</g>
		<text transform="matrix(1 0 0 1 302.2261 128.2822)" fill="#FFFFFF" font-size="8">Removable Media</text>
		<text transform="matrix(1 0 0 1 319.7095 109.5762)" font-size="9">Review</text>
	</g>
	<g>
		<g>
			<path fill="#87B2D8" d="M280.463,185.586c0-1.979,1.62-3.6,3.6-3.6h100.801c1.979,0,3.6,1.62,3.6,3.6v64.801
				c0,1.979-1.62,3.6-3.6,3.6H284.063c-1.979,0-3.6-1.62-3.6-3.6V185.586z"/>
			<path fill="none" stroke="#010101" stroke-width="0.75" d="M280.463,185.586c0-1.979,1.62-3.6,3.6-3.6h100.801
				c1.979,0,3.6,1.62,3.6,3.6v64.801c0,1.979-1.62,3.6-3.6,3.6H284.063c-1.979,0-3.6-1.62-3.6-3.6V185.586z"/>
		</g>
		<text transform="matrix(1 0 0 1 319.4585 194.6328)" font-size="9">Archive</text>
		<g>
			<g>
				<path fill="#4E8ABE" d="M293.963,206.528c0-1.979,1.62-3.6,3.6-3.6h73.801c1.979,0,3.6,1.62,3.6,3.6v37.801
					c0,1.979-1.62,3.6-3.6,3.6h-73.801c-1.979,0-3.6-1.62-3.6-3.6V206.528z"/>
			</g>
			<g>
				<path fill="none" stroke="#000000" stroke-width="0.75" stroke-dasharray="4" d="M293.963,206.528c0-1.979,1.62-3.6,3.6-3.6
					h73.801c1.979,0,3.6,1.62,3.6,3.6v37.801c0,1.979-1.62,3.6-3.6,3.6h-73.801c-1.979,0-3.6-1.62-3.6-3.6V206.528z"/>
			</g>
		</g>
		<g>
			<path fill="#D9D9D9" stroke="#000000" stroke-width="0.25" stroke-miterlimit="3.8637" d="M347.963,230.106
				c0,7.462-6.043,13.504-13.498,13.504c-7.46,0-13.502-6.042-13.502-13.504c0-7.454,6.042-13.496,13.502-13.496
				C341.92,216.61,347.963,222.652,347.963,230.106z"/>
			<path fill="#808080" stroke="#000000" stroke-width="0.25" stroke-miterlimit="3.8637" d="M340.963,241.094
				c1.491-0.79,2.389-1.589,3.48-2.857l-19.963-15.84c1.084-1.46,2.057-2.347,3.633-3.271L340.963,241.094z"/>
			<path fill="none" stroke="#000000" stroke-miterlimit="3.8637" d="M347.161,230.106c0,7.018-5.683,12.702-12.695,12.702
				c-7.017,0-12.7-5.685-12.7-12.702c0-7.01,5.684-12.694,12.7-12.694C341.478,217.412,347.161,223.097,347.161,230.106z"/>
			<path fill="#FFFFFF" stroke="#000000" stroke-width="0.5" stroke-miterlimit="3.8637" d="M338.451,230.11
				c0,2.203-1.784,3.987-3.986,3.987c-2.206,0-3.989-1.784-3.989-3.987s1.783-3.988,3.989-3.988
				C336.667,226.122,338.451,227.907,338.451,230.11z"/>
			<circle stroke="#000000" stroke-width="0.5" stroke-miterlimit="3.8637" cx="334.463" cy="230.109" r="1.439"/>
		</g>
		<text transform="matrix(1 0 0 1 302.2261 213.3389)" fill="#FFFFFF" font-size="8">Removable Media</text>
	</g>
	<polygon fill="#FFFFFF" stroke="#4E8ABE" stroke-linecap="round" stroke-linejoin="round" stroke-miterlimit="1" points="
		406.992,50.111 406.992,52.373 416.535,47.876 406.992,43.373 406.992,46.04 399.077,46.04 399.077,43.373 389.535,47.876 
		399.077,52.373 399.077,50.111 	"/>
	<polygon fill="#FFFFFF" stroke="#4E8ABE" stroke-linecap="round" stroke-linejoin="round" stroke-miterlimit="1" points="
		406.992,135.168 406.992,137.43 416.535,132.933 406.992,128.43 406.992,131.097 399.077,131.097 399.077,128.43 389.535,132.933 
		399.077,137.43 399.077,135.168 	"/>
	<polygon fill="#FFFFFF" stroke="#4E8ABE" stroke-linecap="round" stroke-linejoin="round" stroke-miterlimit="1" points="
		406.992,220.225 406.992,222.486 416.535,217.989 406.992,213.486 406.992,216.153 399.077,216.153 399.077,213.486 
		389.535,217.989 399.077,222.486 399.077,220.225 	"/>
	<g>
		<g>
			<line fill="#4E8ABE" x1="110.358" y1="140.372" x2="146.358" y2="140.372"/>
			<path fill="#4E8ABE" d="M147.775,139.757c-0.992-0.3-1.637-0.575-2.433-0.895v3.026c0.285-0.136,1.441-0.596,2.433-0.895
				c1.062-0.321,2.024-0.541,2.649-0.619C149.799,140.297,148.837,140.077,147.775,139.757z"/>
			<path fill="#4E8ABE" d="M108.941,140.987c0.992,0.3,1.637,0.575,2.433,0.895v-3.026c-0.285,0.136-1.441,0.596-2.433,0.895
				c-1.062,0.321-2.024,0.541-2.649,0.619C106.917,140.447,107.879,140.667,108.941,140.987z"/>
		</g>
		<g>
			
				<line fill="none" stroke="#005595" stroke-width="2" stroke-linecap="round" stroke-miterlimit="1" x1="110.358" y1="140.372" x2="146.358" y2="140.372"/>
			<path fill="#005595" d="M149.192,139.143c-1.984-0.6-3.273-1.151-4.865-1.79v6.053c0.569-0.271,2.881-1.191,4.865-1.79
				c2.124-0.642,4.049-1.08,5.298-1.236C153.241,140.222,151.315,139.783,149.192,139.143z"/>
			<path fill="#005595" d="M107.524,141.602c1.984,0.6,3.273,1.151,4.865,1.79v-6.053c-0.569,0.271-2.881,1.191-4.865,1.79
				c-2.124,0.642-4.049,1.08-5.298,1.236C103.475,140.522,105.4,140.961,107.524,141.602z"/>
		</g>
	</g>
	<g>
		<g>
			<line fill="#4E8ABE" x1="110.358" y1="140.372" x2="146.358" y2="140.372"/>
			<path fill="#4E8ABE" d="M147.775,139.757c-0.992-0.3-1.637-0.575-2.433-0.895v3.026c0.285-0.136,1.441-0.596,2.433-0.895
				c1.062-0.321,2.024-0.541,2.649-0.619C149.799,140.297,148.837,140.077,147.775,139.757z"/>
			<path fill="#4E8ABE" d="M108.941,140.987c0.992,0.3,1.637,0.575,2.433,0.895v-3.026c-0.285,0.136-1.441,0.596-2.433,0.895
				c-1.062,0.321-2.024,0.541-2.649,0.619C106.917,140.447,107.879,140.667,108.941,140.987z"/>
		</g>
		<g>
			
				<line fill="none" stroke="#005595" stroke-width="2" stroke-linecap="round" stroke-miterlimit="1" x1="110.358" y1="140.372" x2="146.358" y2="140.372"/>
			<path fill="#005595" d="M149.192,139.143c-1.984-0.6-3.273-1.151-4.865-1.79v6.053c0.569-0.271,2.881-1.191,4.865-1.79
				c2.124-0.642,4.049-1.08,5.298-1.236C153.241,140.222,151.315,139.783,149.192,139.143z"/>
			<path fill="#005595" d="M107.524,141.602c1.984,0.6,3.273,1.151,4.865,1.79v-6.053c-0.569,0.271-2.881,1.191-4.865,1.79
				c-2.124,0.642-4.049,1.08-5.298,1.236C103.475,140.522,105.4,140.961,107.524,141.602z"/>
		</g>
	</g>
	<g>
		<g>
			<line fill="#4E8ABE" x1="110.358" y1="225.997" x2="157.024" y2="176.303"/>
			<path fill="#4E8ABE" d="M157.546,174.849c-0.898,0.519-1.541,0.799-2.318,1.161l2.207,2.071c0.096-0.3,0.552-1.458,1.013-2.386
				c0.493-0.993,0.992-1.846,1.362-2.354C159.325,173.742,158.506,174.294,157.546,174.849z"/>
			<path fill="#4E8ABE" d="M109.836,227.451c0.898-0.519,1.541-0.799,2.318-1.161l-2.207-2.071c-0.096,0.3-0.552,1.458-1.013,2.386
				c-0.493,0.993-0.992,1.846-1.362,2.354C108.057,228.558,108.875,228.006,109.836,227.451z"/>
		</g>
		<g>
			
				<line fill="none" stroke="#005595" stroke-width="2" stroke-linecap="round" stroke-miterlimit="1" x1="110.358" y1="225.997" x2="157.024" y2="176.303"/>
			<path fill="#005595" d="M158.067,173.395c-1.795,1.036-3.08,1.599-4.635,2.321l4.413,4.144c0.192-0.601,1.104-2.915,2.025-4.771
				c0.986-1.987,1.984-3.691,2.725-4.708C161.626,171.183,159.988,172.286,158.067,173.395z"/>
			<path fill="#005595" d="M109.314,228.905c1.795-1.036,3.08-1.599,4.635-2.321l-4.413-4.144c-0.192,0.601-1.104,2.915-2.025,4.771
				c-0.986,1.987-1.984,3.691-2.725,4.708C105.755,231.117,107.394,230.015,109.314,228.905z"/>
		</g>
	</g>
	<g>
		<g>
			<line fill="#4E8ABE" x1="157.024" y1="111.11" x2="110.358" y2="61.416"/>
			<path fill="#4E8ABE" d="M108.939,60.804c0.46,0.929,0.701,1.587,1.013,2.386l2.207-2.072c-0.293-0.115-1.42-0.643-2.318-1.161
				c-0.96-0.554-1.779-1.106-2.264-1.507C107.947,58.958,108.446,59.811,108.939,60.804z"/>
			<path fill="#4E8ABE" d="M158.442,111.723c-0.46-0.929-0.701-1.587-1.013-2.386l-2.207,2.072c0.293,0.115,1.42,0.643,2.318,1.161
				c0.96,0.554,1.779,1.106,2.264,1.507C159.435,113.568,158.936,112.716,158.442,111.723z"/>
		</g>
		<g>
			
				<line fill="none" stroke="#005595" stroke-width="2" stroke-linecap="round" stroke-miterlimit="1" x1="157.024" y1="111.11" x2="110.358" y2="61.416"/>
			<path fill="#005595" d="M107.521,60.192c0.921,1.856,1.402,3.174,2.026,4.772l4.413-4.144c-0.587-0.23-2.841-1.285-4.635-2.321
				c-1.921-1.109-3.56-2.212-4.528-3.015C105.537,56.501,106.535,58.205,107.521,60.192z"/>
			<path fill="#005595" d="M159.861,112.334c-0.921-1.856-1.402-3.174-2.026-4.772l-4.413,4.144c0.587,0.23,2.841,1.285,4.635,2.321
				c1.921,1.109,3.559,2.212,4.528,3.015C161.845,116.025,160.847,114.321,159.861,112.334z"/>
		</g>
	</g>
	<g>
		<g>
			<line fill="#4E8ABE" x1="284.624" y1="140.372" x2="248.624" y2="140.372"/>
			<path fill="#4E8ABE" d="M247.207,140.987c0.992,0.3,1.637,0.575,2.433,0.895v-3.026c-0.285,0.136-1.441,0.596-2.433,0.895
				c-1.062,0.321-2.024,0.541-2.649,0.619C245.182,140.447,246.145,140.667,247.207,140.987z"/>
			<path fill="#4E8ABE" d="M286.041,139.757c-0.992-0.3-1.637-0.575-2.433-0.895v3.026c0.285-0.136,1.44-0.596,2.433-0.895
				c1.062-0.321,2.024-0.541,2.648-0.619C288.065,140.297,287.102,140.077,286.041,139.757z"/>
		</g>
		<g>
			
				<line fill="none" stroke="#005595" stroke-width="2" stroke-linecap="round" stroke-miterlimit="1" x1="284.624" y1="140.372" x2="248.624" y2="140.372"/>
			<path fill="#005595" d="M245.79,141.602c1.984,0.6,3.273,1.151,4.865,1.79v-6.053c-0.57,0.271-2.881,1.191-4.865,1.79
				c-2.124,0.642-4.049,1.08-5.298,1.236C241.741,140.522,243.666,140.961,245.79,141.602z"/>
			<path fill="#005595" d="M287.458,139.143c-1.983-0.6-3.273-1.151-4.865-1.79v6.053c0.57-0.271,2.882-1.191,4.865-1.79
				c2.124-0.642,4.049-1.08,5.298-1.236C291.506,140.222,289.582,139.783,287.458,139.143z"/>
		</g>
	</g>
	<g>
		<g>
			<line fill="#4E8ABE" x1="284.624" y1="140.372" x2="248.624" y2="140.372"/>
			<path fill="#4E8ABE" d="M247.207,140.987c0.992,0.3,1.637,0.575,2.433,0.895v-3.026c-0.285,0.136-1.441,0.596-2.433,0.895
				c-1.062,0.321-2.024,0.541-2.649,0.619C245.182,140.447,246.145,140.667,247.207,140.987z"/>
			<path fill="#4E8ABE" d="M286.041,139.757c-0.992-0.3-1.637-0.575-2.433-0.895v3.026c0.285-0.136,1.44-0.596,2.433-0.895
				c1.062-0.321,2.024-0.541,2.648-0.619C288.065,140.297,287.102,140.077,286.041,139.757z"/>
		</g>
		<g>
			
				<line fill="none" stroke="#005595" stroke-width="2" stroke-linecap="round" stroke-miterlimit="1" x1="284.624" y1="140.372" x2="248.624" y2="140.372"/>
			<path fill="#005595" d="M245.79,141.602c1.984,0.6,3.273,1.151,4.865,1.79v-6.053c-0.57,0.271-2.881,1.191-4.865,1.79
				c-2.124,0.642-4.049,1.08-5.298,1.236C241.741,140.522,243.666,140.961,245.79,141.602z"/>
			<path fill="#005595" d="M287.458,139.143c-1.983-0.6-3.273-1.151-4.865-1.79v6.053c0.57-0.271,2.882-1.191,4.865-1.79
				c2.124-0.642,4.049-1.08,5.298-1.236C291.506,140.222,289.582,139.783,287.458,139.143z"/>
		</g>
	</g>
	<g>
		<g>
			<line fill="#4E8ABE" x1="284.624" y1="225.997" x2="237.958" y2="176.303"/>
			<path fill="#4E8ABE" d="M236.539,175.69c0.461,0.929,0.701,1.588,1.013,2.386l2.207-2.071c-0.293-0.115-1.42-0.643-2.318-1.161
				c-0.96-0.554-1.779-1.105-2.264-1.507C235.547,173.846,236.046,174.697,236.539,175.69z"/>
			<path fill="#4E8ABE" d="M286.042,226.609c-0.46-0.929-0.7-1.588-1.013-2.386l-2.206,2.071c0.294,0.115,1.42,0.643,2.317,1.161
				c0.961,0.554,1.78,1.105,2.265,1.507C287.034,228.454,286.535,227.603,286.042,226.609z"/>
		</g>
		<g>
			
				<line fill="none" stroke="#005595" stroke-width="2" stroke-linecap="round" stroke-miterlimit="1" x1="284.624" y1="225.997" x2="237.958" y2="176.303"/>
			<path fill="#005595" d="M235.121,175.079c0.921,1.856,1.402,3.174,2.026,4.771l4.413-4.144c-0.587-0.23-2.841-1.285-4.635-2.321
				c-1.921-1.109-3.56-2.212-4.528-3.016C233.136,171.388,234.134,173.092,235.121,175.079z"/>
			<path fill="#005595" d="M287.46,227.222c-0.922-1.857-1.402-3.175-2.025-4.772l-4.413,4.144c0.587,0.23,2.841,1.285,4.636,2.321
				c1.921,1.108,3.559,2.212,4.527,3.015C289.445,230.912,288.447,229.208,287.46,227.222z"/>
		</g>
	</g>
	<g>
		<g>
			<line fill="#4E8ABE" x1="237.958" y1="111.11" x2="284.624" y2="61.416"/>
			<path fill="#4E8ABE" d="M285.145,59.962c-0.897,0.518-1.54,0.799-2.317,1.161l2.206,2.072c0.097-0.3,0.553-1.458,1.013-2.386
				c0.493-0.994,0.992-1.846,1.362-2.354C286.924,58.856,286.106,59.407,285.145,59.962z"/>
			<path fill="#4E8ABE" d="M237.436,112.564c0.898-0.518,1.541-0.799,2.318-1.161l-2.207-2.072c-0.096,0.3-0.552,1.458-1.013,2.386
				c-0.493,0.994-0.992,1.846-1.362,2.354C235.656,113.67,236.475,113.119,237.436,112.564z"/>
		</g>
		<g>
			
				<line fill="none" stroke="#005595" stroke-width="2" stroke-linecap="round" stroke-miterlimit="1" x1="237.958" y1="111.11" x2="284.624" y2="61.416"/>
			<path fill="#005595" d="M285.667,58.508c-1.796,1.036-3.081,1.598-4.636,2.321l4.413,4.144c0.192-0.601,1.104-2.916,2.025-4.772
				c0.985-1.987,1.983-3.691,2.725-4.708C289.226,56.296,287.588,57.399,285.667,58.508z"/>
			<path fill="#005595" d="M236.914,114.019c1.795-1.036,3.08-1.599,4.635-2.321l-4.413-4.144c-0.192,0.601-1.104,2.916-2.025,4.772
				c-0.986,1.987-1.984,3.691-2.725,4.708C233.355,116.23,234.993,115.127,236.914,114.019z"/>
		</g>
	</g>
</g>
</svg>
