<?xml version="1.0" encoding="utf-8"?>
<!-- $Source: /home/bbennett/pass/archive/DicomXml/docbook/part02/figures/PS3.2_F.4.2-1.svg,v $ -->
<!-- $Date: 2014/05/09 12:27:08 $ -->
<!-- $Revision: 1.2 $ -->

<!DOCTYPE svg PUBLIC "-//W3C//DTD SVG 1.1//EN" "http://www.w3.org/Graphics/SVG/1.1/DTD/svg11.dtd">
<svg version="1.1" id="Layer_1" xmlns="http://www.w3.org/2000/svg" xmlns:xlink="http://www.w3.org/1999/xlink" x="0px" y="0px"
	 width="502px" height="327px" viewBox="0 0 502 327" enable-background="new 0 0 502 327" xml:space="preserve">

<defs>
	<style type="text/css">
	text {
	  font-family: Helvetica, Verdana, ArialUnicodeMS, san-serif
	}
	</style>
</defs>

<g>
   <desc>
	PS 3.2 Conformance
   </desc>
</g>

<g>
	<rect x="1" y="1" fill="#F5EED6" width="500" height="325"/>
	<g>
		
			<line fill="#4F8ABE" stroke="#005695" stroke-linecap="round" stroke-miterlimit="1" stroke-dasharray="3" x1="69.705" y1="310.691" x2="69.705" y2="42.068"/>
		
			<rect x="42.705" y="16.328" fill="#CCDEF0" stroke="#010101" stroke-width="0.75" stroke-linecap="round" stroke-linejoin="round" stroke-miterlimit="1" width="54.001" height="36"/>
		<text transform="matrix(1 0 0 1 46.1372 31.7603)"><tspan x="0" y="0"  font-size="8">Peer Storage</tspan><tspan x="8.898" y="9.6"  font-size="8">SCP AE</tspan></text>
		
			<line fill="#4F8ABE" stroke="#005695" stroke-linecap="round" stroke-miterlimit="1" stroke-dasharray="3" x1="132.115" y1="310.691" x2="132.115" y2="42.068"/>
		
			<rect x="105.115" y="16.328" fill="#CCDEF0" stroke="#010101" stroke-width="0.75" stroke-linecap="round" stroke-linejoin="round" stroke-miterlimit="1" width="54.001" height="36"/>
		<text transform="matrix(1 0 0 1 107.2168 31.7593)"><tspan x="0" y="0"  font-size="8">Peer Storage-</tspan><tspan x="10.01" y="9.6"  font-size="8">SCU AE</tspan></text>
		
			<line fill="#4F8ABE" stroke="#005695" stroke-linecap="round" stroke-miterlimit="1" stroke-dasharray="3" x1="432.291" y1="310.691" x2="432.291" y2="42.068"/>
		
			<rect x="127.615" y="72.715" fill="#CCDEF0" stroke="#010101" stroke-width="0.75" stroke-linecap="round" stroke-linejoin="round" stroke-miterlimit="1" width="9" height="65.242"/>
		
			<line fill="#4F8ABE" stroke="#005695" stroke-linecap="round" stroke-miterlimit="1" stroke-dasharray="3" x1="371.007" y1="310.691" x2="371.007" y2="42.068"/>
		
			<rect x="344.01" y="16.309" fill="#CCDEF0" stroke="#010101" stroke-width="0.75" stroke-linecap="round" stroke-linejoin="round" stroke-miterlimit="1" width="54.002" height="36"/>
		<text transform="matrix(1 0 0 1 355.459 26.9419)"><tspan x="0" y="0"  font-size="8">QUERY-</tspan><tspan x="-5.779" y="9.6"  font-size="8">RETRIEVE-</tspan><tspan x="0.885" y="19.2"  font-size="8">SCP AE</tspan></text>
		
			<rect x="405.295" y="16.309" fill="#CCDEF0" stroke="#010101" stroke-width="0.75" stroke-linecap="round" stroke-linejoin="round" stroke-miterlimit="1" width="54" height="36"/>
		<text transform="matrix(1 0 0 1 411.4043 31.7417)"><tspan x="0" y="0"  font-size="8">STORAGE-</tspan><tspan x="5.998" y="9.6"  font-size="8">SCU AE</tspan></text>
		<g>
			
				<line fill="#4F8ABE" stroke="#005695" stroke-linecap="round" stroke-miterlimit="1" x1="136.615" y1="89.71" x2="359.638" y2="89.71"/>
			<path fill="#005695" d="M362,88.685c-1.654-0.5-2.729-0.959-4.055-1.492v5.044c0.475-0.226,2.4-0.993,4.055-1.492
				c1.77-0.535,3.373-0.9,4.414-1.031C365.373,89.585,363.77,89.219,362,88.685z"/>
		</g>
		<g>
			
				<line fill="#4F8ABE" stroke="#005695" stroke-linecap="round" stroke-miterlimit="1" x1="136.615" y1="169.957" x2="359.638" y2="169.957"/>
			<path fill="#005695" d="M362,168.932c-1.654-0.5-2.729-0.959-4.055-1.492v5.045c0.475-0.226,2.4-0.992,4.055-1.492
				c1.77-0.534,3.373-0.9,4.414-1.03C365.373,169.832,363.77,169.466,362,168.932z"/>
		</g>
		<g>
			
				<line fill="#4F8ABE" stroke="#005695" stroke-linecap="round" stroke-miterlimit="1" x1="366.414" y1="130.623" x2="143.392" y2="130.623"/>
			<path fill="#005695" d="M141.029,129.598c1.654-0.5,2.729-0.959,4.055-1.492v5.045c-0.475-0.226-2.4-0.992-4.055-1.492
				c-1.77-0.534-3.373-0.9-4.414-1.03C137.656,130.498,139.26,130.132,141.029,129.598z"/>
		</g>
		
			<rect x="65.2" y="200.623" fill="#CCDEF0" stroke="#010101" stroke-width="0.75" stroke-linecap="round" stroke-linejoin="round" stroke-miterlimit="1" width="9" height="106.666"/>
		<g>
			<g>
				
					<line fill="#4F8ABE" stroke="#005695" stroke-linecap="round" stroke-miterlimit="1" x1="429.718" y1="237.344" x2="82.039" y2="237.344"/>
				<path fill="#005695" d="M79.677,236.318c1.654-0.5,2.729-0.959,4.055-1.492v5.045c-0.475-0.227-2.4-0.992-4.055-1.492
					c-1.77-0.535-3.373-0.9-4.414-1.031C76.304,237.219,77.907,236.852,79.677,236.318z"/>
			</g>
		</g>
		<g>
			<g>
				
					<line fill="#4F8ABE" stroke="#005695" stroke-linecap="round" stroke-miterlimit="1" x1="429.718" y1="267.957" x2="82.039" y2="267.957"/>
				<path fill="#005695" d="M79.677,266.932c1.654-0.5,2.729-0.959,4.055-1.492v5.045c-0.475-0.227-2.4-0.992-4.055-1.492
					c-1.77-0.535-3.373-0.9-4.414-1.031C76.304,267.832,77.907,267.465,79.677,266.932z"/>
			</g>
		</g>
		<g>
			<g>
				
					<line fill="#4F8ABE" stroke="#005695" stroke-linecap="round" stroke-miterlimit="1" x1="429.718" y1="296.41" x2="82.039" y2="296.41"/>
				<path fill="#005695" d="M79.677,295.387c1.654-0.5,2.729-0.961,4.055-1.492v5.045c-0.475-0.227-2.4-0.994-4.055-1.492
					c-1.77-0.535-3.373-0.9-4.414-1.031C76.304,296.285,77.907,295.92,79.677,295.387z"/>
			</g>
		</g>
		
			<rect x="366.638" y="79.715" fill="#CCDEF0" stroke="#010101" stroke-width="0.75" stroke-linecap="round" stroke-linejoin="round" stroke-miterlimit="1" width="9" height="58.242"/>
		<g>
			
				<line fill="#4F8ABE" stroke="#005695" stroke-linecap="round" stroke-miterlimit="1" x1="375.479" y1="206.623" x2="420.024" y2="206.623"/>
			<path fill="#005695" d="M422.386,205.598c-1.652-0.5-2.728-0.959-4.054-1.492v5.045c0.475-0.225,2.401-0.992,4.054-1.492
				c1.77-0.533,3.375-0.9,4.415-1.029C425.761,206.498,424.155,206.133,422.386,205.598z"/>
		</g>
		
			<rect x="366.479" y="157.131" fill="#CCDEF0" stroke="#010101" stroke-width="0.75" stroke-linecap="round" stroke-linejoin="round" stroke-miterlimit="1" width="9" height="59.387"/>
		
			<rect x="427.979" y="186.93" fill="#CCDEF0" stroke="#010101" stroke-width="0.75" stroke-linecap="round" stroke-linejoin="round" stroke-miterlimit="1" width="9" height="120.359"/>
		
			<rect x="127.616" y="148.919" fill="#CCDEF0" stroke="#010101" stroke-width="0.75" stroke-linecap="round" stroke-linejoin="round" stroke-miterlimit="1" width="9" height="30.37"/>
		<rect x="145.066" y="71.969" fill="none" width="148.238" height="229.988"/>
		<text transform="matrix(1 0 0 1 145.0664 77.6997)"><tspan x="0" y="0"  font-size="8">1</tspan><tspan x="4.538" y="0"  font-size="8">. </tspan><tspan x="8.983" y="0"  font-size="8">Pee</tspan><tspan x="23.484" y="0"  font-size="8">r </tspan><tspan x="28.371" y="0"  font-size="8">A</tspan><tspan x="33.796" y="0"  font-size="8">E </tspan><tspan x="41.354" y="0"  font-size="8">Querie</tspan><tspan x="65.9" y="0"  font-size="8">s </tspan><tspan x="72.123" y="0"  font-size="8">fo</tspan><tspan x="78.972" y="0"  font-size="8">r </tspan><tspan x="83.859" y="0"  font-size="8">Patient</tspan><tspan x="109.388" y="0"  font-size="8">, </tspan><tspan x="113.833" y="0"  font-size="8">Study</tspan><tspan x="134.734" y="0"  font-size="8">, </tspan><tspan x="10" y="9.6"  font-size="8">Series</tspan><tspan x="33.209" y="9.6"  font-size="8">, </tspan><tspan x="37.654" y="9.6"  font-size="8">o</tspan><tspan x="42.193" y="9.6"  font-size="8">r </tspan><tspan x="47.08" y="9.6"  font-size="8">Imag</tspan><tspan x="65.22" y="9.6"  font-size="8">e </tspan><tspan x="71.892" y="9.6"  font-size="8">Informatio</tspan><tspan x="108.352" y="9.6"  font-size="8">n</tspan><tspan x="0" y="39.2"  font-size="8">2.</tspan><tspan x="6.672" y="39.2"  font-size="8"> </tspan><tspan x="8.917" y="39.2"  font-size="8">Return</tspan><tspan x="32.929" y="39.2"  font-size="8"> </tspan><tspan x="35.173" y="39.2"  font-size="8">Patient,</tspan><tspan x="62.302" y="39.2"  font-size="8"> </tspan><tspan x="64.547" y="39.2"  font-size="8">Study,</tspan><tspan x="87.227" y="39.2"  font-size="8"> </tspan><tspan x="89.472" y="39.2"  font-size="8">Series,</tspan><tspan x="114.37" y="39.2"  font-size="8"> </tspan><tspan x="116.615" y="39.2"  font-size="8">or</tspan><tspan x="123.729" y="39.2"  font-size="8"> </tspan><tspan x="125.973" y="39.2"  font-size="8">Image </tspan><tspan x="10" y="48.8"  font-size="8">Information</tspan><tspan x="0" y="78.4"  font-size="8">3</tspan><tspan x="4.427" y="78.4"  font-size="8">. </tspan><tspan x="8.872" y="78.4"  font-size="8">Pee</tspan><tspan x="23.04" y="78.4"  font-size="8">r </tspan><tspan x="27.927" y="78.4"  font-size="8">A</tspan><tspan x="33.24" y="78.4"  font-size="8">E </tspan><tspan x="40.799" y="78.4"  font-size="8">Request</tspan><tspan x="70.44" y="78.4"  font-size="8">s </tspan><tspan x="76.663" y="78.4"  font-size="8">Retrieva</tspan><tspan x="106.274" y="78.4"  font-size="8">l </tspan><tspan x="110.274" y="78.4"  font-size="8">o</tspan><tspan x="114.701" y="78.4"  font-size="8">f </tspan><tspan x="119.146" y="78.4"  font-size="8">Studies</tspan><tspan x="145.674" y="78.4"  font-size="8">, </tspan><tspan x="10" y="88"  font-size="8">Series</tspan><tspan x="32.542" y="88"  font-size="8">, </tspan><tspan x="36.988" y="88"  font-size="8">o</tspan><tspan x="41.415" y="88"  font-size="8">r </tspan><tspan x="46.301" y="88"  font-size="8">Image</tspan><tspan x="68.425" y="88"  font-size="8">s</tspan><tspan x="0" y="117.6"  font-size="8">4</tspan><tspan x="4.538" y="117.6"  font-size="8">. </tspan><tspan x="8.983" y="117.6"  font-size="8">Notificatio</tspan><tspan x="45.086" y="117.6"  font-size="8">n </tspan><tspan x="51.758" y="117.6"  font-size="8">o</tspan><tspan x="56.296" y="117.6"  font-size="8">f </tspan><tspan x="60.742" y="117.6"  font-size="8">Image</tspan><tspan x="83.42" y="117.6"  font-size="8">s </tspan><tspan x="89.643" y="117.6"  font-size="8">t</tspan><tspan x="91.955" y="117.6"  font-size="8">o </tspan><tspan x="98.627" y="117.6"  font-size="8">b</tspan><tspan x="103.165" y="117.6"  font-size="8">e </tspan><tspan x="109.837" y="117.6"  font-size="8">sen</tspan><tspan x="123.002" y="117.6"  font-size="8">t </tspan><tspan x="127.447" y="117.6"  font-size="8">t</tspan><tspan x="129.759" y="117.6"  font-size="8">o </tspan><tspan x="10" y="127.201"  font-size="8">C-MOV</tspan><tspan x="37.108" y="127.201"  font-size="8">E </tspan><tspan x="44.667" y="127.201"  font-size="8">Destinatio</tspan><tspan x="81.13" y="127.201"  font-size="8">n </tspan><tspan x="87.802" y="127.201"  font-size="8">A</tspan><tspan x="93.227" y="127.201"  font-size="8">E </tspan><tspan x="100.786" y="127.201"  font-size="8">i</tspan><tspan x="102.652" y="127.201"  font-size="8">n </tspan><tspan x="109.324" y="127.201"  font-size="8">Respons</tspan><tspan x="141.521" y="127.201"  font-size="8">e</tspan><tspan x="0" y="156.8"  font-size="8">5. Open Association</tspan><tspan x="0" y="186.4"  font-size="8">6. Images sent to Peer AE in Response</tspan><tspan x="0" y="216"  font-size="8">7. Close Association</tspan></text>
	</g>
</g>
</svg>
