<?xml version="1.0" encoding="utf-8"?>
<!-- $Source: /home/bbennett/pass/archive/DicomXml/docbook/part02/figures/PS3.2_K.4.1-1.svg,v $ -->
<!-- $Date: 2014/05/09 12:59:28 $ -->
<!-- $Revision: 1.1 $ -->

<!DOCTYPE svg PUBLIC "-//W3C//DTD SVG 1.1//EN" "http://www.w3.org/Graphics/SVG/1.1/DTD/svg11.dtd">
<svg version="1.1" id="Layer_1" xmlns="http://www.w3.org/2000/svg" xmlns:xlink="http://www.w3.org/1999/xlink" x="0px" y="0px"
	 width="502px" height="162px" viewBox="0 0 502 162" enable-background="new 0 0 502 162" xml:space="preserve">

<defs>
	<style type="text/css">
	text {
	  font-family: Helvetica, Verdana, ArialUnicodeMS, san-serif
	}
	</style>
</defs>

<g>
   <desc>
	PS 3.2 Conformance
   </desc>
</g>

<g>
	<rect x="1" y="1" fill="#F5EED6" width="500" height="160"/>
	<g>
		
			<path fill="#CCDEF0" stroke="#010101" stroke-width="0.75" stroke-linecap="round" stroke-linejoin="round" stroke-miterlimit="1" d="
			M363.61,94.268c0-22.361,18.128-40.487,40.486-40.487c22.377,0,40.514,18.126,40.514,40.487c0,22.36-18.137,40.515-40.514,40.515
			C381.738,134.782,363.61,116.628,363.61,94.268z"/>
		<text transform="matrix(1 0 0 1 383.6504 90.4219)"><tspan x="0" y="0"  font-size="12">Remote</tspan><tspan x="13.004" y="14.399"  font-size="12">AE</tspan></text>
		
			<line fill="#4F8ABE" stroke="#005695" stroke-width="2" stroke-linecap="round" stroke-miterlimit="1" stroke-dasharray="9" x1="138.393" y1="94.281" x2="203.55" y2="94.281"/>
		
			<path fill="#CCDEF0" stroke="#010101" stroke-width="0.75" stroke-linecap="round" stroke-linejoin="round" stroke-miterlimit="1" d="
			M57.393,94.268c0-22.361,18.128-40.487,40.486-40.487c22.377,0,40.514,18.126,40.514,40.487c0,22.36-18.137,40.515-40.514,40.515
			C75.521,134.782,57.393,116.628,57.393,94.268z"/>
		<text transform="matrix(1 0 0 1 83.5493 83.2227)"><tspan x="0" y="0"  font-size="12">Local</tspan><tspan x="-1.995" y="14.399"  font-size="12">Query</tspan><tspan x="-8.004" y="28.799"  font-size="12">Request</tspan></text>
		
			<line fill="#4F8ABE" stroke="#005695" stroke-linecap="round" stroke-miterlimit="1" stroke-dasharray="3" x1="326.381" y1="146.842" x2="326.381" y2="32.861"/>
		<g>
			<path fill="#B2CEE7" d="M256.886,18.758c0-1.98,1.62-3.6,3.6-3.6h130.797c1.979,0,3.6,1.62,3.6,3.6v10.849
				c0,1.98-1.62,3.6-3.6,3.6H260.485c-1.979,0-3.6-1.62-3.6-3.6V18.758z"/>
		</g>
		<text transform="matrix(1 0 0 1 268.7637 28.0176)"  font-size="11">DICOM HTTP Interface</text>
		
			<rect x="202.383" y="76.281" fill="#CCDEF0" stroke="#010101" stroke-width="0.75" stroke-linecap="round" stroke-linejoin="round" stroke-miterlimit="1" width="85.002" height="36"/>
		<text transform="matrix(1 0 0 1 219.2197 91.0645)"><tspan x="0" y="0"  font-size="12">QIDO-RS</tspan><tspan x="-5.678" y="14.4"  font-size="12">Service AE </tspan></text>
		<g>
			<g>
				
					<line fill="none" stroke="#005695" stroke-width="2" stroke-linecap="round" stroke-miterlimit="1" x1="353.553" y1="87.085" x2="289.184" y2="87.085"/>
				<g>
					<polygon fill="#005695" points="351.175,83.599 364.184,87.085 351.175,90.571 					"/>
				</g>
			</g>
		</g>
		<g>
			<g>
				
					<line fill="none" stroke="#005695" stroke-width="2" stroke-linecap="round" stroke-miterlimit="1" x1="363.463" y1="101.481" x2="299.094" y2="101.481"/>
				<g>
					<polygon fill="#005695" points="301.472,97.995 288.463,101.481 301.472,104.968 					"/>
				</g>
			</g>
		</g>
	</g>
</g>
</svg>
