<?xml version="1.0" encoding="utf-8"?>
<!-- $Source: /home/bbennett/pass/archive/DicomXml/docbook/part02/figures/PS3.2_C.4.2-1.svg,v $ -->
<!-- $Date: 2014/05/09 12:27:08 $ -->
<!-- $Revision: 1.2 $ -->

<!DOCTYPE svg PUBLIC "-//W3C//DTD SVG 1.1//EN" "http://www.w3.org/Graphics/SVG/1.1/DTD/svg11.dtd">
<svg version="1.1" id="Layer_1" xmlns="http://www.w3.org/2000/svg" xmlns:xlink="http://www.w3.org/1999/xlink" x="0px" y="0px"
	 width="502px" height="227px" viewBox="0 0 502 227" enable-background="new 0 0 502 227" xml:space="preserve">

<defs>
	<style type="text/css">
	text {
	  font-family: Helvetica, Verdana, ArialUnicodeMS, san-serif
	}
	</style>
</defs>

<g>
   <desc>
	PS 3.2 Conformance
   </desc>
</g>

<g>
	<rect x="1" y="1" fill="#F5EED6" width="500" height="225"/>
	<g>
		
			<line fill="#4F8ABE" stroke="#005695" stroke-linecap="round" stroke-miterlimit="1" stroke-dasharray="3" x1="398.121" y1="211.289" x2="398.121" y2="38.827"/>
		
			<line fill="#4F8ABE" stroke="#005695" stroke-linecap="round" stroke-miterlimit="1" stroke-dasharray="3" x1="100.339" y1="211.568" x2="100.339" y2="39.105"/>
		
			<path fill="#CCDEF0" stroke="#010101" stroke-width="0.75" stroke-linecap="round" stroke-linejoin="round" stroke-miterlimit="1" d="
			M104.516,54.011h-9v148.612c3.149,0,5.968,0,9,0V54.011z"/>
		
			<path fill="#CCDEF0" stroke="#010101" stroke-width="0.75" stroke-linecap="round" stroke-linejoin="round" stroke-miterlimit="1" d="
			M402.422,54.011h-9v148.612c3.149,0,5.968,0,9,0V54.011z"/>
		
			<path fill="#CCDEF0" stroke="#010101" stroke-width="0.75" stroke-linecap="round" stroke-linejoin="round" stroke-miterlimit="1" d="
			M372.322,15.432h51.84v27h-51.84V15.432z"/>
		<text transform="matrix(1 0 0 1 373.8765 31.4409)"  font-size="9">DICOMSRV</text>
		
			<path fill="#CCDEF0" stroke="#010101" stroke-width="0.75" stroke-linecap="round" stroke-linejoin="round" stroke-miterlimit="1" d="
			M77.838,15.432h45.001v27H77.838V15.432z"/>
		<text transform="matrix(1 0 0 1 83.5869 31.4409)"  font-size="9">Modality</text>
		<g>
			<g>
				<g>
					
						<line fill="#4F8ABE" stroke="#005695" stroke-linecap="round" stroke-miterlimit="1" x1="104.47" y1="67.999" x2="385.64" y2="67.999"/>
					<path fill="#005695" d="M388.001,66.974c-1.652-0.5-2.728-0.959-4.054-1.492v5.044c0.475-0.226,2.401-0.993,4.054-1.492
						c1.77-0.535,3.375-0.9,4.415-1.031C391.376,67.874,389.771,67.508,388.001,66.974z"/>
				</g>
			</g>
		</g>
		<g>
			<g>
				<g>
					
						<line fill="#4F8ABE" stroke="#005695" stroke-linecap="round" stroke-miterlimit="1" x1="104.47" y1="92.43" x2="385.64" y2="92.43"/>
					<path fill="#005695" d="M388.001,91.405c-1.652-0.5-2.728-0.959-4.054-1.492v5.044c0.475-0.226,2.401-0.993,4.054-1.492
						c1.77-0.535,3.375-0.9,4.415-1.031C391.376,92.305,389.771,91.939,388.001,91.405z"/>
				</g>
			</g>
		</g>
		<g>
			<g>
				<g>
					
						<line fill="#4F8ABE" stroke="#005695" stroke-linecap="round" stroke-miterlimit="1" x1="392.416" y1="116.86" x2="111.247" y2="116.86"/>
					<path fill="#005695" d="M108.885,115.836c1.652-0.5,2.728-0.96,4.054-1.492v5.045c-0.475-0.227-2.401-0.993-4.054-1.492
						c-1.77-0.535-3.375-0.9-4.415-1.031C105.51,116.735,107.116,116.369,108.885,115.836z"/>
				</g>
			</g>
		</g>
		<g>
			<g>
				<g>
					
						<line fill="#4F8ABE" stroke="#005695" stroke-linecap="round" stroke-miterlimit="1" x1="392.416" y1="167.778" x2="111.247" y2="167.778"/>
					<path fill="#005695" d="M108.885,166.754c1.652-0.5,2.728-0.96,4.054-1.492v5.045c-0.475-0.227-2.401-0.993-4.054-1.492
						c-1.77-0.535-3.375-0.9-4.415-1.031C105.51,167.653,107.116,167.287,108.885,166.754z"/>
				</g>
			</g>
		</g>
		<g>
			<g>
				<g>
					
						<line fill="#4F8ABE" stroke="#005695" stroke-linecap="round" stroke-miterlimit="1" x1="104.47" y1="192.724" x2="385.64" y2="192.724"/>
					<path fill="#005695" d="M388.001,191.699c-1.652-0.5-2.728-0.96-4.054-1.492v5.045c0.475-0.227,2.401-0.993,4.054-1.492
						c1.77-0.535,3.375-0.9,4.415-1.031C391.376,192.599,389.771,192.232,388.001,191.699z"/>
				</g>
			</g>
		</g>
		<g>
			<g>
				<g>
					<g>
						<polyline fill="none" stroke="#005695" stroke-linecap="round" stroke-miterlimit="1" points="392.301,129.62 380.27,129.62 
							380.27,144.754 385.819,144.754 						"/>
						<path fill="#005695" d="M388.18,145.779c-1.652,0.5-2.728,0.959-4.054,1.492v-5.045c0.475,0.227,2.401,0.992,4.054,1.492
							c1.77,0.535,3.375,0.9,4.415,1.031C391.555,144.879,389.95,145.246,388.18,145.779z"/>
					</g>
				</g>
			</g>
		</g>
		<rect x="118.493" y="59.262" fill="none" width="258.497" height="139.5"/>
		<text transform="matrix(1 0 0 1 118.4907 64.9927)"><tspan x="0" y="0"  font-size="8">1. Open Association</tspan><tspan x="0" y="24.6"  font-size="8">2. MWL C-FIND Request</tspan><tspan x="0" y="49.2"  font-size="8">3a. 0 to N Pending C-FIND Responses</tspan><tspan x="122.449" y="73.8"  font-size="8">3b. Check for C-FIND Cancel Request</tspan><tspan x="0" y="98.4"  font-size="8">4. 1 Final C-FIND Response</tspan><tspan x="0" y="123"  font-size="8">5. Close Association</tspan></text>
	</g>
</g>
</svg>
