<?xml version="1.0" encoding="utf-8"?>
<!-- $Source: /home/bbennett/pass/archive/DicomXml/docbook/part02/figures/PS3.2_C.4.1-2.svg,v $ -->
<!-- $Date: 2014/05/09 12:27:08 $ -->
<!-- $Revision: 1.2 $ -->

<!DOCTYPE svg PUBLIC "-//W3C//DTD SVG 1.1//EN" "http://www.w3.org/Graphics/SVG/1.1/DTD/svg11.dtd">
<svg version="1.1" id="Layer_1" xmlns="http://www.w3.org/2000/svg" xmlns:xlink="http://www.w3.org/1999/xlink" x="0px" y="0px"
	 width="502px" height="177px" viewBox="0 0 502 177" enable-background="new 0 0 502 177" xml:space="preserve">

<defs>
	<style type="text/css">
	text {
	  font-family: Helvetica, Verdana, ArialUnicodeMS, san-serif
	}
	</style>
</defs>

<g>
   <desc>
	PS 3.2 Conformance
   </desc>
</g>

<g>
	<rect x="1" y="1" fill="#F5EED6" width="500" height="175"/>
	<g>
		
			<line fill="#4F8ABE" stroke="#005695" stroke-linecap="round" stroke-miterlimit="1" stroke-dasharray="3" x1="398.121" y1="161.041" x2="398.121" y2="39.714"/>
		
			<rect x="372.322" y="15.96" fill="#CCDEF0" stroke="#010101" stroke-width="0.75" stroke-linecap="round" stroke-linejoin="round" stroke-miterlimit="1" width="51.84" height="27"/>
		<text transform="matrix(1 0 0 1 373.877 31.9688)"  font-size="9">DICOMSRV</text>
		<g>
			<g>
				
					<line fill="#4F8ABE" stroke="#005695" stroke-linecap="round" stroke-miterlimit="1" x1="104.47" y1="67.527" x2="385.641" y2="67.527"/>
				<path fill="#005695" d="M388.002,66.502c-1.652-0.5-2.728-0.959-4.054-1.492v5.044c0.475-0.226,2.401-0.993,4.054-1.492
					c1.77-0.535,3.375-0.9,4.415-1.031C391.377,67.402,389.771,67.036,388.002,66.502z"/>
			</g>
		</g>
		<g>
			<g>
				
					<line fill="#4F8ABE" stroke="#005695" stroke-linecap="round" stroke-miterlimit="1" x1="392.416" y1="91.957" x2="111.246" y2="91.957"/>
				<path fill="#005695" d="M108.885,90.933c1.652-0.499,2.728-0.96,4.054-1.491v5.044c-0.475-0.226-2.401-0.993-4.054-1.491
					c-1.77-0.535-3.375-0.9-4.415-1.031C105.51,91.832,107.115,91.467,108.885,90.933z"/>
			</g>
		</g>
		<g>
			<g>
				
					<line fill="#4F8ABE" stroke="#005695" stroke-linecap="round" stroke-miterlimit="1" x1="104.47" y1="116.389" x2="385.64" y2="116.389"/>
				<path fill="#005695" d="M388.001,115.363c-1.652-0.5-2.728-0.959-4.054-1.492v5.045c0.475-0.225,2.401-0.992,4.054-1.492
					c1.77-0.533,3.375-0.9,4.415-1.029C391.376,116.264,389.771,115.898,388.001,115.363z"/>
			</g>
		</g>
		<g>
			<g>
				
					<line fill="#4F8ABE" stroke="#005695" stroke-linecap="round" stroke-miterlimit="1" x1="104.47" y1="142.361" x2="385.64" y2="142.361"/>
				<path fill="#005695" d="M388.001,141.336c-1.652-0.498-2.728-0.959-4.054-1.49v5.043c0.475-0.225,2.401-0.992,4.054-1.49
					c1.77-0.535,3.375-0.9,4.415-1.031C391.376,142.236,389.771,141.871,388.001,141.336z"/>
			</g>
		</g>
		
			<line fill="#4F8ABE" stroke="#005695" stroke-linecap="round" stroke-miterlimit="1" stroke-dasharray="3" x1="100.339" y1="159.961" x2="100.339" y2="38.633"/>
		
			<rect x="77.838" y="15.96" fill="#CCDEF0" stroke="#010101" stroke-width="0.75" stroke-linecap="round" stroke-linejoin="round" stroke-miterlimit="1" width="45.001" height="27"/>
		<text transform="matrix(1 0 0 1 83.5869 31.9688)"  font-size="9">Modality</text>
		
			<path fill="#CCDEF0" stroke="#010101" stroke-width="0.75" stroke-linecap="round" stroke-linejoin="round" stroke-miterlimit="1" d="
			M104.516,53.539h-9v97.477c3.149,0,5.968,0,9,0V53.539z"/>
		
			<path fill="#CCDEF0" stroke="#010101" stroke-width="0.75" stroke-linecap="round" stroke-linejoin="round" stroke-miterlimit="1" d="
			M402.423,53.539h-9v97.477c3.149,0,5.968,0,9,0V53.539z"/>
		<rect x="118.492" y="58.79" fill="none" width="258.498" height="91.5"/>
		<text transform="matrix(1 0 0 1 118.4912 64.5205)"><tspan x="0" y="0"  font-size="8">1. Query Worklist</tspan><tspan x="0" y="24.6"  font-size="8">2. Worklist Responses</tspan><tspan x="0" y="49.2"  font-size="8">3.Begin Procedure - Initial MPPS</tspan><tspan x="0" y="73.8"  font-size="8">4. End Procedure - Final MPPS</tspan></text>
	</g>
</g>
</svg>
