<?xml version="1.0" encoding="utf-8"?>
<!-- $Source: /home/bbennett/pass/archive/DicomXml/docbook/part02/figures/PS3.2_F.4.2-2.svg,v $ -->
<!-- $Date: 2014/05/09 12:27:08 $ -->
<!-- $Revision: 1.3 $ -->

<!DOCTYPE svg PUBLIC "-//W3C//DTD SVG 1.1//EN" "http://www.w3.org/Graphics/SVG/1.1/DTD/svg11.dtd">
<svg version="1.1" id="Layer_1" xmlns="http://www.w3.org/2000/svg" xmlns:xlink="http://www.w3.org/1999/xlink" x="0px" y="0px"
	 width="502px" height="562px" viewBox="0 0 502 562" enable-background="new 0 0 502 562" xml:space="preserve">

<defs>
	<style type="text/css">
	text {
	  font-family: Helvetica, Verdana, ArialUnicodeMS, san-serif
	}
	</style>
</defs>

<g>
   <desc>
	PS 3.2 Conformance
   </desc>
</g>

<g>
	<rect x="1" y="1" fill="#F5EED6" width="500" height="560"/>
	<g>
		
			<line fill="#4F8ABE" stroke="#005695" stroke-linecap="round" stroke-miterlimit="1" stroke-dasharray="3" x1="69.705" y1="546.847" x2="69.705" y2="49.144"/>
		
			<rect x="50.305" y="353.17" fill="#B2CEE7" stroke="#6799C8" stroke-linecap="round" stroke-linejoin="round" stroke-miterlimit="1" stroke-dasharray="12,5" width="402" height="98.333"/>
		
			<rect x="42.705" y="15.172" fill="#CCDEF0" stroke="#010101" stroke-width="0.75" stroke-linecap="round" stroke-linejoin="round" stroke-miterlimit="1" width="54.001" height="36"/>
		<text transform="matrix(1 0 0 1 44.145 30.604)"><tspan x="0" y="0"  font-size="8">Peer C-MOVE</tspan><tspan x="-0.898" y="9.6"  font-size="8">Destination AE</tspan></text>
		
			<line fill="#4F8ABE" stroke="#005695" stroke-linecap="round" stroke-miterlimit="1" stroke-dasharray="3" x1="132.115" y1="546.847" x2="132.115" y2="49.144"/>
		
			<line fill="#4F8ABE" stroke="#005695" stroke-linecap="round" stroke-miterlimit="1" stroke-dasharray="3" x1="432.291" y1="546.847" x2="432.291" y2="49.144"/>
		
			<rect x="127.615" y="65" fill="#CCDEF0" stroke="#010101" stroke-width="0.75" stroke-linecap="round" stroke-linejoin="round" stroke-miterlimit="1" width="9" height="131.4"/>
		
			<line fill="#4F8ABE" stroke="#005695" stroke-linecap="round" stroke-miterlimit="1" stroke-dasharray="3" x1="371.007" y1="546.847" x2="371.007" y2="49.144"/>
		
			<rect x="344.01" y="15.153" fill="#CCDEF0" stroke="#010101" stroke-width="0.75" stroke-linecap="round" stroke-linejoin="round" stroke-miterlimit="1" width="54.002" height="36"/>
		<text transform="matrix(1 0 0 1 355.459 25.7856)"><tspan x="0" y="0"  font-size="8">QUERY-</tspan><tspan x="-5.779" y="9.6"  font-size="8">RETRIEVE-</tspan><tspan x="0.885" y="19.2"  font-size="8">SCP AE</tspan></text>
		
			<rect x="405.295" y="15.153" fill="#CCDEF0" stroke="#010101" stroke-width="0.75" stroke-linecap="round" stroke-linejoin="round" stroke-miterlimit="1" width="54" height="36"/>
		<text transform="matrix(1 0 0 1 411.4043 30.5854)"><tspan x="0" y="0"  font-size="8">STORAGE-</tspan><tspan x="5.998" y="9.6"  font-size="8">SCU AE</tspan></text>
		<g>
			
				<line fill="#4F8ABE" stroke="#005695" stroke-linecap="round" stroke-miterlimit="1" x1="137.516" y1="78.929" x2="359.096" y2="78.929"/>
			<path fill="#005695" d="M361.457,77.903c-1.652-0.499-2.728-0.959-4.054-1.491v5.044c0.475-0.226,2.401-0.992,4.054-1.491
				c1.77-0.535,3.375-0.9,4.415-1.031C364.832,78.804,363.227,78.438,361.457,77.903z"/>
		</g>
		
			<rect x="65.2" y="311.581" fill="#CCDEF0" stroke="#010101" stroke-width="0.75" stroke-linecap="round" stroke-linejoin="round" stroke-miterlimit="1" width="9" height="179.54"/>
		<g>
			<g>
				
					<line fill="#4F8ABE" stroke="#005695" stroke-linecap="round" stroke-miterlimit="1" x1="137.516" y1="217.182" x2="359.096" y2="217.182"/>
				<path fill="#005695" d="M361.457,216.156c-1.652-0.499-2.728-0.959-4.054-1.491v5.044c0.475-0.226,2.401-0.992,4.054-1.491
					c1.77-0.535,3.375-0.9,4.415-1.031C364.832,217.057,363.227,216.69,361.457,216.156z"/>
			</g>
		</g>
		<g>
			<g>
				
					<line fill="#4F8ABE" stroke="#005695" stroke-linecap="round" stroke-miterlimit="1" x1="137.516" y1="256.277" x2="359.096" y2="256.277"/>
				<path fill="#005695" d="M361.457,255.252c-1.652-0.499-2.728-0.959-4.054-1.491v5.044c0.475-0.226,2.401-0.992,4.054-1.491
					c1.77-0.535,3.375-0.9,4.415-1.031C364.832,256.152,363.227,255.786,361.457,255.252z"/>
			</g>
		</g>
		<g>
			<g>
				
					<line fill="#4F8ABE" stroke="#005695" stroke-linecap="round" stroke-miterlimit="1" x1="365.873" y1="443.87" x2="144.292" y2="443.87"/>
				<path fill="#005695" d="M141.931,442.846c1.652-0.5,2.728-0.96,4.054-1.492v5.045c-0.475-0.227-2.401-0.993-4.054-1.492
					c-1.77-0.535-3.375-0.9-4.415-1.031C138.556,443.745,140.161,443.379,141.931,442.846z"/>
			</g>
		</g>
		<g>
			
				<line fill="#4F8ABE" stroke="#005695" stroke-linecap="round" stroke-miterlimit="1" x1="137.516" y1="118.468" x2="359.096" y2="118.468"/>
			<path fill="#005695" d="M361.457,117.442c-1.652-0.499-2.728-0.959-4.054-1.491v5.044c0.475-0.226,2.401-0.992,4.054-1.491
				c1.77-0.535,3.375-0.9,4.415-1.031C364.832,118.343,363.227,117.977,361.457,117.442z"/>
		</g>
		<g>
			<g>
				<g>
					
						<line fill="#4F8ABE" stroke="#005695" stroke-linecap="round" stroke-miterlimit="1" x1="428.705" y1="325.718" x2="81.305" y2="325.718"/>
					<path fill="#005695" d="M78.943,326.743c1.653,0.499,2.728,0.959,4.054,1.491v-5.044c-0.475,0.226-2.4,0.992-4.054,1.491
						c-1.77,0.535-3.374,0.9-4.415,1.031C75.569,325.843,77.174,326.209,78.943,326.743z"/>
				</g>
			</g>
		</g>
		<g>
			<g>
				
					<line fill="#4F8ABE" stroke="#005695" stroke-linecap="round" stroke-miterlimit="1" x1="428.705" y1="375.977" x2="81.305" y2="375.977"/>
				<path fill="#005695" d="M78.943,374.951c1.652-0.499,2.728-0.959,4.054-1.491v5.044c-0.475-0.225-2.401-0.992-4.054-1.491
					c-1.77-0.534-3.375-0.9-4.415-1.03C75.568,375.852,77.174,375.486,78.943,374.951z"/>
			</g>
		</g>
		<g>
			<g>
				
					<line fill="#4F8ABE" stroke="#005695" stroke-linecap="round" stroke-miterlimit="1" x1="365.873" y1="501.87" x2="144.293" y2="501.87"/>
				<path fill="#005695" d="M141.932,500.846c1.652-0.5,2.728-0.96,4.054-1.492v5.045c-0.475-0.227-2.401-0.993-4.054-1.492
					c-1.77-0.535-3.375-0.9-4.415-1.031C138.557,501.745,140.162,501.379,141.932,500.846z"/>
			</g>
		</g>
		<g>
			<g>
				
					<line fill="#4F8ABE" stroke="#005695" stroke-linecap="round" stroke-miterlimit="1" x1="137.516" y1="531.87" x2="359.096" y2="531.87"/>
				<path fill="#005695" d="M361.457,530.846c-1.652-0.5-2.728-0.96-4.054-1.492v5.045c0.475-0.227,2.401-0.993,4.054-1.492
					c1.77-0.535,3.375-0.9,4.415-1.031C364.832,531.745,363.227,531.379,361.457,530.846z"/>
			</g>
		</g>
		<g>
			<g>
				
					<line fill="#4F8ABE" stroke="#005695" stroke-linecap="round" stroke-miterlimit="1" x1="428.705" y1="471.87" x2="81.305" y2="471.87"/>
				<path fill="#005695" d="M78.942,472.896c1.653,0.499,2.729,0.959,4.055,1.491v-5.044c-0.475,0.226-2.401,0.992-4.055,1.491
					c-1.77,0.535-3.374,0.9-4.414,1.031C75.568,471.995,77.173,472.361,78.942,472.896z"/>
			</g>
		</g>
		<g>
			<g>
				
					<line fill="#4F8ABE" stroke="#005695" stroke-linecap="round" stroke-miterlimit="1" x1="375.479" y1="294.197" x2="420.024" y2="294.197"/>
				<path fill="#005695" d="M422.387,293.173c-1.654-0.5-2.729-0.96-4.055-1.492v5.045c0.475-0.227,2.4-0.993,4.055-1.492
					c1.77-0.535,3.373-0.9,4.414-1.031C425.76,294.072,424.156,293.706,422.387,293.173z"/>
			</g>
		</g>
		<g>
			<g>
				
					<line fill="#4F8ABE" stroke="#005695" stroke-linecap="round" stroke-miterlimit="1" x1="426.802" y1="409.501" x2="382.257" y2="409.501"/>
				<path fill="#005695" d="M379.895,408.476c1.654-0.499,2.729-0.959,4.055-1.491v5.044c-0.475-0.225-2.4-0.992-4.055-1.491
					c-1.77-0.534-3.373-0.9-4.414-1.03C376.521,409.376,378.125,409.011,379.895,408.476z"/>
			</g>
		</g>
		<g>
			
				<line fill="#4F8ABE" stroke="#005695" stroke-linecap="round" stroke-miterlimit="1" x1="365.872" y1="159.134" x2="144.292" y2="159.134"/>
			<path fill="#005695" d="M141.931,160.159c1.653,0.499,2.728,0.959,4.054,1.491v-5.044c-0.475,0.226-2.4,0.992-4.054,1.491
				c-1.77,0.535-3.374,0.9-4.415,1.031C138.557,159.259,140.161,159.625,141.931,160.159z"/>
		</g>
		<g>
			
				<line fill="#4F8ABE" stroke="#005695" stroke-linecap="round" stroke-miterlimit="1" x1="137.517" y1="187.403" x2="359.097" y2="187.403"/>
			<path fill="#005695" d="M361.458,188.428c-1.653,0.5-2.729,0.96-4.055,1.492v-5.045c0.475,0.226,2.401,0.993,4.055,1.492
				c1.77,0.534,3.374,0.9,4.414,1.03C364.832,187.528,363.228,187.894,361.458,188.428z"/>
		</g>
		
			<rect x="127.616" y="203.887" fill="#CCDEF0" stroke="#010101" stroke-width="0.75" stroke-linecap="round" stroke-linejoin="round" stroke-miterlimit="1" width="9" height="333.536"/>
		<rect x="145.066" y="70.812" fill="none" width="170.899" height="460.465"/>
		<text transform="matrix(1 0 0 1 145.0664 76.5435)"><tspan x="0" y="0"  font-size="8">1. Open Association</tspan><tspan x="0" y="29.6"  font-size="8">2.</tspan><tspan x="6.672" y="29.6"  font-size="8"> </tspan><tspan x="8.85" y="29.6"  font-size="8">Peer</tspan><tspan x="25.749" y="29.6"  font-size="8"> </tspan><tspan x="27.927" y="29.6"  font-size="8">AE</tspan><tspan x="38.599" y="29.6"  font-size="8"> </tspan><tspan x="40.777" y="29.6"  font-size="8">Queries</tspan><tspan x="68.789" y="29.6"  font-size="8"> </tspan><tspan x="70.967" y="29.6"  font-size="8">for</tspan><tspan x="80.303" y="29.6"  font-size="8"> </tspan><tspan x="82.481" y="29.6"  font-size="8">Patient,</tspan><tspan x="109.609" y="29.6"  font-size="8"> </tspan><tspan x="111.788" y="29.6"  font-size="8">Study,</tspan><tspan x="134.468" y="29.6"  font-size="8"> </tspan><tspan x="136.646" y="29.6"  font-size="8">Series,</tspan><tspan x="161.545" y="29.6"  font-size="8"> </tspan><tspan x="163.723" y="29.6"  font-size="8">or </tspan><tspan x="10" y="39.2"  font-size="8">Image</tspan><tspan x="32.234" y="39.2"  font-size="8"> </tspan><tspan x="34.413" y="39.2"  font-size="8">Information</tspan><tspan x="0" y="68.8"  font-size="8">3</tspan><tspan x="4.538" y="68.8"  font-size="8">. </tspan><tspan x="8.983" y="68.8"  font-size="8">Retur</tspan><tspan x="28.99" y="68.8"  font-size="8">n </tspan><tspan x="35.662" y="68.8"  font-size="8">Patient</tspan><tspan x="61.191" y="68.8"  font-size="8">, </tspan><tspan x="65.636" y="68.8"  font-size="8">Study</tspan><tspan x="86.538" y="68.8"  font-size="8">, </tspan><tspan x="90.983" y="68.8"  font-size="8">Series</tspan><tspan x="114.192" y="68.8"  font-size="8">, </tspan><tspan x="118.638" y="68.8"  font-size="8">o</tspan><tspan x="123.176" y="68.8"  font-size="8">r </tspan><tspan x="128.062" y="68.8"  font-size="8">Imag</tspan><tspan x="146.203" y="68.8"  font-size="8">e </tspan><tspan x="10" y="78.4"  font-size="8">Informatio</tspan><tspan x="46.459" y="78.4"  font-size="8">n</tspan><tspan x="0" y="108"  font-size="8">4. Close Association</tspan><tspan x="0" y="137.6"  font-size="8">5. Open Association</tspan><tspan x="0" y="167.2"  font-size="8">6.</tspan><tspan x="6.672" y="167.2"  font-size="8"> </tspan><tspan x="8.85" y="167.2"  font-size="8">Peer</tspan><tspan x="25.749" y="167.2"  font-size="8"> </tspan><tspan x="27.927" y="167.2"  font-size="8">AE</tspan><tspan x="38.599" y="167.2"  font-size="8"> </tspan><tspan x="40.777" y="167.2"  font-size="8">Queries</tspan><tspan x="68.789" y="167.2"  font-size="8"> </tspan><tspan x="70.967" y="167.2"  font-size="8">for</tspan><tspan x="80.303" y="167.2"  font-size="8"> </tspan><tspan x="82.481" y="167.2"  font-size="8">Patient,</tspan><tspan x="109.609" y="167.2"  font-size="8"> </tspan><tspan x="111.788" y="167.2"  font-size="8">Study,</tspan><tspan x="134.468" y="167.2"  font-size="8"> </tspan><tspan x="136.646" y="167.2"  font-size="8">Series,</tspan><tspan x="161.545" y="167.2"  font-size="8"> </tspan><tspan x="163.723" y="167.2"  font-size="8">or </tspan><tspan x="10" y="176.8"  font-size="8">Image</tspan><tspan x="32.234" y="176.8"  font-size="8"> </tspan><tspan x="34.413" y="176.8"  font-size="8">Information</tspan><tspan x="0" y="206.4"  font-size="8">7</tspan><tspan x="4.538" y="206.4"  font-size="8">. </tspan><tspan x="8.983" y="206.4"  font-size="8">Notificatio</tspan><tspan x="45.086" y="206.4"  font-size="8">n </tspan><tspan x="51.758" y="206.4"  font-size="8">o</tspan><tspan x="56.296" y="206.4"  font-size="8">f </tspan><tspan x="60.742" y="206.4"  font-size="8">Image</tspan><tspan x="83.42" y="206.4"  font-size="8">s </tspan><tspan x="89.643" y="206.4"  font-size="8">t</tspan><tspan x="91.955" y="206.4"  font-size="8">o </tspan><tspan x="98.627" y="206.4"  font-size="8">b</tspan><tspan x="103.165" y="206.4"  font-size="8">e </tspan><tspan x="109.837" y="206.4"  font-size="8">sen</tspan><tspan x="123.002" y="206.4"  font-size="8">t </tspan><tspan x="127.447" y="206.4"  font-size="8">t</tspan><tspan x="129.759" y="206.4"  font-size="8">o </tspan><tspan x="136.431" y="206.4"  font-size="8">C-MOV</tspan><tspan x="163.539" y="206.4"  font-size="8">E </tspan><tspan x="10" y="216"  font-size="8">Destinatio</tspan><tspan x="46.463" y="216"  font-size="8">n </tspan><tspan x="53.135" y="216"  font-size="8">A</tspan><tspan x="58.56" y="216"  font-size="8">E </tspan><tspan x="66.119" y="216"  font-size="8">i</tspan><tspan x="67.985" y="216"  font-size="8">n </tspan><tspan x="74.657" y="216"  font-size="8">Respons</tspan><tspan x="106.854" y="216"  font-size="8">e</tspan><tspan x="0" y="245.599"  font-size="8">8. Open Association</tspan><tspan x="0" y="275.201"  font-size="8">REPEAT...</tspan><tspan x="0" y="294.8"  font-size="8">9a. Images Sent to C-MOVE Destination</tspan><tspan x="0" y="324.4"  font-size="8">9b</tspan><tspan x="9.076" y="324.4"  font-size="8">. </tspan><tspan x="13.521" y="324.4"  font-size="8">Notificatio</tspan><tspan x="49.625" y="324.4"  font-size="8">n </tspan><tspan x="56.296" y="324.4"  font-size="8">o</tspan><tspan x="60.834" y="324.4"  font-size="8">f </tspan><tspan x="65.28" y="324.4"  font-size="8">succes</tspan><tspan x="90.712" y="324.4"  font-size="8">s </tspan><tspan x="96.935" y="324.4"  font-size="8">o</tspan><tspan x="101.473" y="324.4"  font-size="8">r </tspan><tspan x="106.359" y="324.4"  font-size="8">failur</tspan><tspan x="124.232" y="324.4"  font-size="8">e </tspan><tspan x="130.904" y="324.4"  font-size="8">fo</tspan><tspan x="137.754" y="324.4"  font-size="8">r </tspan><tspan x="142.641" y="324.4"  font-size="8">eac</tspan><tspan x="155.807" y="324.4"  font-size="8">h </tspan><tspan x="10" y="334"  font-size="8">attemp</tspan><tspan x="34.99" y="334"  font-size="8">t</tspan><tspan x="0" y="363.599"  font-size="8">9c. C-MOVE-RSP sent for each Image Sent</tspan><tspan x="0" y="393.201"  font-size="8">10. Close Association</tspan><tspan x="0" y="422.8"  font-size="8">11. Final C-MOVE-RSP set</tspan><tspan x="0" y="452.4"  font-size="8">12. Close Association</tspan></text>
		
			<rect x="428.593" y="242.273" fill="#CCDEF0" stroke="#010101" stroke-width="0.75" stroke-linecap="round" stroke-linejoin="round" stroke-miterlimit="1" width="9" height="244.004"/>
		
			<rect x="366.638" y="65" fill="#CCDEF0" stroke="#010101" stroke-width="0.75" stroke-linecap="round" stroke-linejoin="round" stroke-miterlimit="1" width="9" height="131.4"/>
		
			<rect x="366.178" y="203.958" fill="#CCDEF0" stroke="#010101" stroke-width="0.75" stroke-linecap="round" stroke-linejoin="round" stroke-miterlimit="1" width="9" height="333.537"/>
		
			<rect x="105.115" y="15.172" fill="#CCDEF0" stroke="#010101" stroke-width="0.75" stroke-linecap="round" stroke-linejoin="round" stroke-miterlimit="1" width="54.001" height="36"/>
		<text transform="matrix(1 0 0 1 110.3306 25.8042)"><tspan x="0" y="0"  font-size="8">Peer Query-</tspan><tspan x="6.891" y="9.6"  font-size="8">Retrieve</tspan><tspan x="6.893" y="19.2"  font-size="8">SCU AE</tspan></text>
	</g>
</g>
</svg>
