<?xml version="1.0" encoding="utf-8"?>
<!-- $Source: /home/bbennett/pass/archive/DicomXml/docbook/part02/figures/PS3.2_F.4.2-3.svg,v $ -->
<!-- $Date: 2014/05/09 12:27:08 $ -->
<!-- $Revision: 1.2 $ -->

<!DOCTYPE svg PUBLIC "-//W3C//DTD SVG 1.1//EN" "http://www.w3.org/Graphics/SVG/1.1/DTD/svg11.dtd">
<svg version="1.1" id="Layer_1" xmlns="http://www.w3.org/2000/svg" xmlns:xlink="http://www.w3.org/1999/xlink" x="0px" y="0px"
	 width="502px" height="277px" viewBox="0 0 502 277" enable-background="new 0 0 502 277" xml:space="preserve">

<defs>
	<style type="text/css">
	text {
	  font-family: Helvetica, Verdana, ArialUnicodeMS, san-serif
	}
	</style>
</defs>

<g>
   <desc>
	PS 3.2 Conformance
   </desc>
</g>

<g>
	<rect x="1" y="1" fill="#F5EED6" width="500" height="275"/>
	<g>
		
			<line fill="#4F8ABE" stroke="#005695" stroke-linecap="round" stroke-miterlimit="1" stroke-dasharray="3" x1="131.552" y1="259.515" x2="131.552" y2="51.477"/>
		
			<rect x="127.052" y="67.333" fill="#CCDEF0" stroke="#010101" stroke-width="0.75" stroke-linecap="round" stroke-linejoin="round" stroke-miterlimit="1" width="9" height="187.2"/>
		
			<line fill="#4F8ABE" stroke="#005695" stroke-linecap="round" stroke-miterlimit="1" stroke-dasharray="3" x1="370.443" y1="259.515" x2="370.443" y2="51.477"/>
		
			<rect x="343.446" y="17.486" fill="#CCDEF0" stroke="#010101" stroke-width="0.75" stroke-linecap="round" stroke-linejoin="round" stroke-miterlimit="1" width="54.002" height="36"/>
		<text transform="matrix(1 0 0 1 349.5615 32.9185)"><tspan x="0" y="0"  font-size="8">STORAGE-</tspan><tspan x="6.219" y="9.6"  font-size="8">SCP AE</tspan></text>
		
			<line fill="#4F8ABE" stroke="#005695" stroke-linecap="round" stroke-miterlimit="1" x1="136.952" y1="81.262" x2="358.532" y2="81.262"/>
		<path fill="#005695" d="M360.894,80.236c-1.652-0.499-2.728-0.959-4.054-1.491v5.044c0.475-0.226,2.401-0.992,4.054-1.491
			c1.77-0.535,3.375-0.9,4.415-1.031C364.269,81.137,362.663,80.771,360.894,80.236z"/>
		
			<line fill="#4F8ABE" stroke="#005695" stroke-linecap="round" stroke-miterlimit="1" x1="365.309" y1="219.515" x2="143.729" y2="219.515"/>
		<path fill="#005695" d="M141.367,218.489c1.652-0.499,2.728-0.959,4.054-1.491v5.044c-0.475-0.226-2.401-0.992-4.054-1.491
			c-1.77-0.535-3.375-0.9-4.415-1.031C137.992,219.39,139.598,219.023,141.367,218.489z"/>
		
			<line fill="#4F8ABE" stroke="#005695" stroke-linecap="round" stroke-miterlimit="1" x1="365.309" y1="248.534" x2="143.729" y2="248.534"/>
		<path fill="#005695" d="M141.367,247.509c1.652-0.499,2.728-0.959,4.054-1.491v5.044c-0.475-0.226-2.401-0.992-4.054-1.491
			c-1.77-0.535-3.375-0.9-4.415-1.031C137.992,248.409,139.598,248.043,141.367,247.509z"/>
		
			<line fill="#4F8ABE" stroke="#005695" stroke-linecap="round" stroke-miterlimit="1" x1="136.952" y1="120.801" x2="358.532" y2="120.801"/>
		<path fill="#005695" d="M360.894,119.775c-1.652-0.499-2.728-0.959-4.054-1.491v5.044c0.475-0.226,2.401-0.992,4.054-1.491
			c1.77-0.535,3.375-0.9,4.415-1.031C364.269,120.676,362.663,120.31,360.894,119.775z"/>
		
			<line fill="#4F8ABE" stroke="#005695" stroke-linecap="round" stroke-miterlimit="1" x1="136.952" y1="150.663" x2="358.532" y2="150.663"/>
		<path fill="#005695" d="M360.894,151.688c-1.653,0.499-2.728,0.959-4.054,1.491v-5.044c0.475,0.226,2.4,0.992,4.054,1.491
			c1.77,0.535,3.374,0.9,4.415,1.031C364.268,150.788,362.663,151.154,360.894,151.688z"/>
		
			<line fill="#4F8ABE" stroke="#005695" stroke-linecap="round" stroke-miterlimit="1" x1="365.308" y1="180.373" x2="143.728" y2="180.373"/>
		<path fill="#005695" d="M141.366,181.397c1.653,0.5,2.729,0.96,4.055,1.492v-5.045c-0.475,0.226-2.401,0.993-4.055,1.492
			c-1.77,0.534-3.374,0.9-4.414,1.03C137.992,180.498,139.597,180.863,141.366,181.397z"/>
		<rect x="147.384" y="73.146" fill="none" width="170.897" height="176.131"/>
		<text transform="matrix(1 0 0 1 147.3828 78.8765)"><tspan x="0" y="0"  font-size="8">1. Peer AE Opens Association</tspan><tspan x="0" y="29.6"  font-size="8">2</tspan><tspan x="4.538" y="29.6"  font-size="8">. </tspan><tspan x="8.983" y="29.6"  font-size="8">Pee</tspan><tspan x="23.484" y="29.6"  font-size="8">r </tspan><tspan x="28.371" y="29.6"  font-size="8">A</tspan><tspan x="33.796" y="29.6"  font-size="8">E </tspan><tspan x="41.354" y="29.6"  font-size="8">Request</tspan><tspan x="71.774" y="29.6"  font-size="8">s </tspan><tspan x="77.997" y="29.6"  font-size="8">Storag</tspan><tspan x="102.1" y="29.6"  font-size="8">e </tspan><tspan x="108.771" y="29.6"  font-size="8">Commitmen</tspan><tspan x="152.689" y="29.6"  font-size="8">t </tspan><tspan x="157.135" y="29.6"  font-size="8">o</tspan><tspan x="161.673" y="29.6"  font-size="8">f </tspan><tspan x="10" y="39.2"  font-size="8">Composit</tspan><tspan x="44.5" y="39.2"  font-size="8">e </tspan><tspan x="51.172" y="39.2"  font-size="8">SO</tspan><tspan x="62.909" y="39.2"  font-size="8">P </tspan><tspan x="70.467" y="39.2"  font-size="8">Instance</tspan><tspan x="101.42" y="39.2"  font-size="8">s</tspan><tspan x="0" y="68.799"  font-size="8">3. Peer AE Closes Association</tspan><tspan x="0" y="98.4"  font-size="8">4. Open Association</tspan><tspan x="0" y="128"  font-size="8">5</tspan><tspan x="4.538" y="128"  font-size="8">. </tspan><tspan x="8.983" y="128"  font-size="8">Sen</tspan><tspan x="23.484" y="128"  font-size="8">d </tspan><tspan x="30.156" y="128"  font-size="8">Storag</tspan><tspan x="54.26" y="128"  font-size="8">e </tspan><tspan x="60.932" y="128"  font-size="8">Commitmen</tspan><tspan x="104.85" y="128"  font-size="8">t </tspan><tspan x="109.295" y="128"  font-size="8">Notificatio</tspan><tspan x="145.397" y="128"  font-size="8">n </tspan><tspan x="152.069" y="128"  font-size="8">fo</tspan><tspan x="158.92" y="128"  font-size="8">r </tspan><tspan x="10" y="137.6"  font-size="8">Composit</tspan><tspan x="44.5" y="137.6"  font-size="8">e </tspan><tspan x="51.172" y="137.6"  font-size="8">SO</tspan><tspan x="62.909" y="137.6"  font-size="8">P </tspan><tspan x="70.467" y="137.6"  font-size="8">Instance</tspan><tspan x="101.42" y="137.6"  font-size="8">s</tspan><tspan x="0" y="167.2"  font-size="8">6. Close Association</tspan></text>
		
			<rect x="366.074" y="67.333" fill="#CCDEF0" stroke="#010101" stroke-width="0.75" stroke-linecap="round" stroke-linejoin="round" stroke-miterlimit="1" width="9" height="187.2"/>
		
			<rect x="104.552" y="17.505" fill="#CCDEF0" stroke="#010101" stroke-width="0.75" stroke-linecap="round" stroke-linejoin="round" stroke-miterlimit="1" width="54.001" height="36"/>
		<text transform="matrix(1 0 0 1 107.9819 28.1372)"><tspan x="0" y="0"  font-size="8">Peer Storage</tspan><tspan x="0.9" y="9.6"  font-size="8">Commitment</tspan><tspan x="8.678" y="19.2"  font-size="8">SCU AE</tspan></text>
	</g>
</g>
</svg>
