<?xml version="1.0" encoding="utf-8"?>
<!-- $Source: /home/bbennett/pass/archive/DicomXml/docbook/part02/figures/PS3.2_C.4.2-2.svg,v $ -->
<!-- $Date: 2014/05/09 12:27:08 $ -->
<!-- $Revision: 1.2 $ -->

<!DOCTYPE svg PUBLIC "-//W3C//DTD SVG 1.1//EN" "http://www.w3.org/Graphics/SVG/1.1/DTD/svg11.dtd">
<svg version="1.1" id="Layer_1" xmlns="http://www.w3.org/2000/svg" xmlns:xlink="http://www.w3.org/1999/xlink" x="0px" y="0px"
	 width="502px" height="252px" viewBox="0 0 502 252" enable-background="new 0 0 502 252" xml:space="preserve">

<defs>
	<style type="text/css">
	text {
	  font-family: Helvetica, Verdana, ArialUnicodeMS, san-serif
	}
	</style>
</defs>

<g>
   <desc>
	PS 3.2 Conformance
   </desc>
</g>

<g>
	<rect x="1" y="1" fill="#F5EED6" width="500" height="250"/>
	<g>
		
			<line fill="#4F8ABE" stroke="#005695" stroke-linecap="round" stroke-miterlimit="1" stroke-dasharray="3" x1="398.121" y1="235.126" x2="398.121" y2="40.349"/>
		
			<rect x="372.322" y="16.594" fill="#CCDEF0" stroke="#010101" stroke-width="0.75" stroke-linecap="round" stroke-linejoin="round" stroke-miterlimit="1" width="51.84" height="27"/>
		<text transform="matrix(1 0 0 1 384.874 32.6045)"  font-size="9">Printer</text>
		<g>
			<g>
				<g>
					
						<line fill="#4F8ABE" stroke="#005695" stroke-linecap="round" stroke-miterlimit="1" x1="104.47" y1="69.521" x2="385.641" y2="69.521"/>
					<path fill="#005695" d="M388.002,68.497c-1.652-0.5-2.728-0.96-4.054-1.492v5.045c0.475-0.226,2.401-0.993,4.054-1.492
						c1.77-0.534,3.375-0.9,4.415-1.03C391.377,69.396,389.771,69.031,388.002,68.497z"/>
				</g>
			</g>
		</g>
		<g>
			<g>
				<g>
					
						<line fill="#4F8ABE" stroke="#005695" stroke-linecap="round" stroke-miterlimit="1" x1="104.47" y1="93.952" x2="385.641" y2="93.952"/>
					<path fill="#005695" d="M388.002,92.927c-1.652-0.5-2.728-0.96-4.054-1.492v5.045c0.475-0.226,2.401-0.993,4.054-1.492
						c1.77-0.534,3.375-0.9,4.415-1.03C391.377,93.827,389.771,93.461,388.002,92.927z"/>
				</g>
			</g>
		</g>
		<g>
			<g>
				<g>
					
						<line fill="#4F8ABE" stroke="#005695" stroke-linecap="round" stroke-miterlimit="1" x1="104.47" y1="168.581" x2="385.64" y2="168.581"/>
					<path fill="#005695" d="M388.001,167.555c-1.652-0.5-2.728-0.959-4.054-1.492v5.045c0.475-0.226,2.401-0.992,4.054-1.492
						c1.77-0.534,3.375-0.9,4.415-1.03C391.376,168.456,389.771,168.089,388.001,167.555z"/>
				</g>
			</g>
		</g>
		<g>
			<g>
				<g>
					
						<line fill="#4F8ABE" stroke="#005695" stroke-linecap="round" stroke-miterlimit="1" x1="104.47" y1="217.237" x2="385.641" y2="217.237"/>
					<path fill="#005695" d="M388.002,216.21c-1.652-0.499-2.728-0.959-4.054-1.491v5.045c0.475-0.225,2.401-0.992,4.054-1.491
						c1.77-0.534,3.375-0.901,4.415-1.03C391.377,217.112,389.771,216.746,388.002,216.21z"/>
				</g>
			</g>
		</g>
		
			<line fill="#4F8ABE" stroke="#005695" stroke-linecap="round" stroke-miterlimit="1" stroke-dasharray="3" x1="100.339" y1="235.405" x2="100.339" y2="40.627"/>
		<g>
			<g>
				<g>
					<g>
						<polyline fill="none" stroke="#005695" stroke-linecap="round" stroke-miterlimit="1" points="393.021,180.028 
							380.99,180.028 380.99,195.163 386.539,195.163 						"/>
						<path fill="#005695" d="M388.9,196.188c-1.652,0.5-2.728,0.959-4.054,1.492v-5.045c0.475,0.227,2.401,0.992,4.054,1.492
							c1.77,0.535,3.375,0.9,4.415,1.031C392.275,195.288,390.67,195.655,388.9,196.188z"/>
					</g>
				</g>
			</g>
		</g>
		<g>
			<g>
				<g>
					<g>
						<polyline fill="none" stroke="#005695" stroke-linecap="round" stroke-miterlimit="1" points="103.952,105.755 
							115.983,105.755 115.983,120.889 110.435,120.889 						"/>
						<path fill="#005695" d="M108.073,121.915c1.652,0.5,2.728,0.959,4.054,1.492v-5.045c-0.475,0.227-2.401,0.992-4.054,1.492
							c-1.77,0.535-3.375,0.9-4.415,1.031C104.698,121.014,106.304,121.381,108.073,121.915z"/>
					</g>
				</g>
			</g>
		</g>
		<rect x="118.492" y="60.784" fill="none" width="258.498" height="161.452"/>
		<text transform="matrix(1 0 0 1 118.4922 66.5146)"><tspan x="0" y="0"  font-size="8">1. Open Association</tspan><tspan x="0" y="24.6"  font-size="8">2. MPPS N-CREATE Request</tspan><tspan x="0" y="49.2"  font-size="8">3. Perform all/part of Request Procedure(s)</tspan><tspan x="33.486" y="73.799"  font-size="8">4. Perform matching. Update MPPS and other applicable tables</tspan><tspan x="0" y="98.4"  font-size="8">5. MPPS N-SET Request setting status to COMPLETED</tspan><tspan x="101.064" y="123"  font-size="8">6. Update MPPS and other applicable tables </tspan><tspan x="0" y="147.6"  font-size="8">7.  Close Association</tspan></text>
		
			<rect x="372.322" y="16.955" fill="#CCDEF0" stroke="#010101" stroke-width="0.75" stroke-linecap="round" stroke-linejoin="round" stroke-miterlimit="1" width="51.84" height="27"/>
		<text transform="matrix(1 0 0 1 373.877 32.9629)"  font-size="9">DICOMSRV</text>
		
			<rect x="77.838" y="16.955" fill="#CCDEF0" stroke="#010101" stroke-width="0.75" stroke-linecap="round" stroke-linejoin="round" stroke-miterlimit="1" width="45.001" height="27"/>
		<text transform="matrix(1 0 0 1 83.5869 32.9629)"  font-size="9">Modality</text>
		<g>
			<g>
				<g>
					<g>
						<polyline fill="none" stroke="#005695" stroke-linecap="round" stroke-miterlimit="1" points="392.302,131.142 
							380.271,131.142 380.271,146.276 385.819,146.276 						"/>
						<path fill="#005695" d="M388.181,147.301c-1.652,0.5-2.728,0.959-4.054,1.492v-5.045c0.475,0.227,2.401,0.992,4.054,1.492
							c1.77,0.535,3.375,0.9,4.415,1.031C391.556,146.401,389.95,146.768,388.181,147.301z"/>
					</g>
				</g>
			</g>
		</g>
		
			<path fill="#CCDEF0" stroke="#010101" stroke-width="0.75" stroke-linecap="round" stroke-linejoin="round" stroke-miterlimit="1" d="
			M104.516,55.533h-9v170.933c3.149,0,5.968,0,9,0V55.533z"/>
		
			<path fill="#CCDEF0" stroke="#010101" stroke-width="0.75" stroke-linecap="round" stroke-linejoin="round" stroke-miterlimit="1" d="
			M402.423,55.533h-9v170.933c3.149,0,5.968,0,9,0V55.533z"/>
	</g>
</g>
</svg>
