<?xml version="1.0" encoding="utf-8"?>
<!-- $Source: /home/bbennett/pass/archive/DicomXml/docbook/part02/figures/PS3.2_A.5.1-1.svg,v $ -->
<!-- $Date: 2014/05/09 12:27:08 $ -->
<!-- $Revision: 1.2 $ -->

<!DOCTYPE svg PUBLIC "-//W3C//DTD SVG 1.1//EN" "http://www.w3.org/Graphics/SVG/1.1/DTD/svg11.dtd">
<svg version="1.1" id="Layer_1" xmlns="http://www.w3.org/2000/svg" xmlns:xlink="http://www.w3.org/1999/xlink" x="0px" y="0px"
	 width="502px" height="317px" viewBox="0 0 502 317" enable-background="new 0 0 502 317" xml:space="preserve">

<defs>
	<style type="text/css">
	text {
	  font-family: Helvetica, Verdana, ArialUnicodeMS, san-serif
	}
	</style>
</defs>

<g>
   <desc>
	PS 3.2 Conformance
   </desc>
</g>

<g>
	<rect x="1" y="1" fill="#F5EED6" width="500" height="315"/>
	<g>
		<g>
			
				<line fill="#4F8ABE" stroke="#005695" stroke-width="2" stroke-linecap="round" stroke-miterlimit="1" x1="241.325" y1="87.644" x2="281.055" y2="87.644"/>
			<path fill="#005695" d="M238.491,88.873c1.984,0.6,3.273,1.151,4.865,1.79V84.61c-0.569,0.271-2.881,1.191-4.865,1.79
				c-2.123,0.642-4.049,1.08-5.297,1.236C234.442,87.794,236.368,88.232,238.491,88.873z"/>
			
				<line fill="#4F8ABE" stroke="#005695" stroke-width="2" stroke-linecap="round" stroke-miterlimit="1" x1="278.35" y1="104.191" x2="238.614" y2="104.191"/>
			<path fill="#005695" d="M281.184,102.962c-1.983-0.6-3.273-1.151-4.865-1.79v6.053c0.57-0.271,2.882-1.191,4.865-1.79
				c2.124-0.642,4.049-1.08,5.298-1.236C285.232,104.041,283.308,103.603,281.184,102.962z"/>
			
				<path fill="#CCDEF0" stroke="#010101" stroke-width="0.75" stroke-linecap="round" stroke-linejoin="round" stroke-miterlimit="1" d="
				M385.211,95.904c0-19.853,16.119-35.97,36-35.97c19.896,0,36.023,16.117,36.023,35.97c0,19.883-16.127,36.025-36.023,36.025
				C401.33,131.93,385.211,115.787,385.211,95.904z"/>
			<text transform="matrix(1 0 0 1 400.9629 85.7983)"><tspan x="0" y="0"  font-size="11">Remote</tspan><tspan x="-8.248" y="13.2"  font-size="11">Real-World</tspan><tspan x="-3.357" y="26.4"  font-size="11">Activity X</tspan></text>
			
				<line fill="#4F8ABE" stroke="#005695" stroke-width="2" stroke-linecap="round" stroke-miterlimit="1" stroke-dasharray="9" x1="162.881" y1="96.009" x2="112.771" y2="45.93"/>
			
				<line fill="#4F8ABE" stroke="#005695" stroke-width="2" stroke-linecap="round" stroke-miterlimit="1" stroke-dasharray="9" x1="162.387" y1="95.826" x2="112.276" y2="145.935"/>
			
				<path fill="#CCDEF0" stroke="#010101" stroke-width="0.75" stroke-linecap="round" stroke-linejoin="round" stroke-miterlimit="1" d="
				M44.767,140.861c0-19.883,16.118-36,36-36c19.896,0,36.023,16.117,36.023,36s-16.128,36.025-36.023,36.025
				C60.885,176.887,44.767,160.744,44.767,140.861z"/>
			<text transform="matrix(1 0 0 1 67.6323 130.7651)"><tspan x="0" y="0"  font-size="11">Local</tspan><tspan x="-14.357" y="13.2"  font-size="11">Real-World</tspan><tspan x="-9.467" y="26.4"  font-size="11">Activity B</tspan></text>
			
				<path fill="#CCDEF0" stroke="#010101" stroke-width="0.75" stroke-linecap="round" stroke-linejoin="round" stroke-miterlimit="1" d="
				M44.767,50.978c0-19.883,16.118-36,36-36c19.896,0,36.023,16.117,36.023,36s-16.128,35.999-36.023,35.999
				C60.885,86.977,44.767,70.86,44.767,50.978z"/>
			<text transform="matrix(1 0 0 1 67.6323 40.8452)"><tspan x="0" y="0"  font-size="11">Local</tspan><tspan x="-14.357" y="13.2"  font-size="11">Real-World</tspan><tspan x="-9.467" y="26.4"  font-size="11">Activity A</tspan></text>
			
				<line fill="#4F8ABE" stroke="#005695" stroke-width="2" stroke-linecap="round" stroke-miterlimit="1" x1="351.643" y1="95.046" x2="385.211" y2="95.046"/>
			
				<rect x="162.382" y="77.935" fill="#CCDEF0" stroke="#010101" stroke-width="0.75" stroke-linecap="round" stroke-linejoin="round" stroke-miterlimit="1" width="71.779" height="35.982"/>
			<text transform="matrix(1 0 0 1 171.3682 92.3989)"><tspan x="0" y="0"  font-size="11">Application</tspan><tspan x="2.14" y="13.2"  font-size="11">Entity &lt;1&gt;</tspan></text>
			
				<path fill="#CCDEF0" stroke="#010101" stroke-width="0.75" stroke-linecap="round" stroke-linejoin="round" stroke-miterlimit="1" d="
				M285.396,71.706c0-6.558,15.074-11.872,33.67-11.872c18.607,0,33.691,5.314,33.691,11.872v48.453
				c0,6.554-15.084,11.872-33.691,11.872c-18.596,0-33.67-5.318-33.67-11.872V71.706z"/>
			
				<path fill="#CCDEF0" stroke="#010101" stroke-width="0.75" stroke-linecap="round" stroke-linejoin="round" stroke-miterlimit="1" d="
				M285.396,71.865c0-6.553,15.074-11.865,33.67-11.865c18.607,0,33.691,5.312,33.691,11.865c0,6.539-15.084,11.844-33.691,11.844
				C300.471,83.709,285.396,78.404,285.396,71.865z"/>
			<text transform="matrix(1 0 0 1 300.6484 96.0737)"><tspan x="0" y="0"  font-size="11">DICOM</tspan><tspan x="-0.932" y="13.2"  font-size="11">Storage</tspan><tspan x="-1.23" y="26.4"  font-size="11">Medium</tspan></text>
		</g>
		<g>
			
				<line fill="#4F8ABE" stroke="#005695" stroke-width="2" stroke-linecap="round" stroke-miterlimit="1" stroke-dasharray="9" x1="116.479" y1="266.011" x2="162.083" y2="266.011"/>
			
				<path fill="#CCDEF0" stroke="#010101" stroke-width="0.75" stroke-linecap="round" stroke-linejoin="round" stroke-miterlimit="1" d="
				M44.767,265.998c0-19.883,16.118-36,36-36c19.896,0,36.023,16.117,36.023,36s-16.128,36.025-36.023,36.025
				C60.885,302.023,44.767,285.881,44.767,265.998z"/>
			<text transform="matrix(1 0 0 1 67.6304 255.876)"><tspan x="0" y="0"  font-size="11">Local</tspan><tspan x="-14.357" y="13.2"  font-size="11">Real-World</tspan><tspan x="-9.77" y="26.4"  font-size="11">Activity C</tspan></text>
			
				<line fill="#4F8ABE" stroke="#005695" stroke-width="2" stroke-linecap="round" stroke-miterlimit="1" x1="241.314" y1="264.388" x2="277.314" y2="264.388"/>
			<path fill="#005695" d="M280.148,263.158c-1.983-0.6-3.273-1.151-4.865-1.79v6.053c0.57-0.271,2.882-1.191,4.865-1.79
				c2.124-0.642,4.049-1.08,5.298-1.236C284.197,264.237,282.272,263.799,280.148,263.158z"/>
			<path fill="#005695" d="M238.48,265.617c1.983,0.6,3.273,1.151,4.865,1.79v-6.053c-0.57,0.271-2.882,1.191-4.865,1.79
				c-2.124,0.642-4.049,1.08-5.298,1.236C234.432,264.538,236.356,264.977,238.48,265.617z"/>
			
				<rect x="162.388" y="247.579" fill="#CCDEF0" stroke="#010101" stroke-width="0.75" stroke-linecap="round" stroke-linejoin="round" stroke-miterlimit="1" width="71.774" height="36"/>
			<text transform="matrix(1 0 0 1 171.3721 262.042)"><tspan x="0" y="0"  font-size="11">Application</tspan><tspan x="2.14" y="13.2"  font-size="11">Entity &lt;2&gt;</tspan></text>
			
				<path fill="#CCDEF0" stroke="#010101" stroke-width="0.75" stroke-linecap="round" stroke-linejoin="round" stroke-miterlimit="1" d="
				M285.398,241.339c0-6.558,15.074-11.873,33.668-11.873c18.607,0,33.691,5.315,33.691,11.873v48.482
				c0,6.554-15.084,11.872-33.691,11.872c-18.594,0-33.668-5.318-33.668-11.872V241.339z"/>
			
				<path fill="#CCDEF0" stroke="#010101" stroke-width="0.75" stroke-linecap="round" stroke-linejoin="round" stroke-miterlimit="1" d="
				M285.398,241.498c0-6.554,15.074-11.865,33.668-11.865c18.607,0,33.691,5.312,33.691,11.865c0,6.555-15.084,11.873-33.691,11.873
				C300.473,253.371,285.398,248.053,285.398,241.498z"/>
			<text transform="matrix(1 0 0 1 300.6523 265.7178)"><tspan x="0" y="0"  font-size="11">DICOM</tspan><tspan x="-0.932" y="13.2"  font-size="11">Storage</tspan><tspan x="-1.23" y="26.4"  font-size="11">Medium</tspan></text>
		</g>
	</g>
</g>
</svg>
