<?xml version="1.0" encoding="utf-8"?>
<!-- $Source: /home/bbennett/pass/archive/DicomXml/docbook/part02/figures/PS3.2_B.4.1-1.svg,v $ -->
<!-- $Date: 2014/05/09 12:27:08 $ -->
<!-- $Revision: 1.2 $ -->

<!DOCTYPE svg PUBLIC "-//W3C//DTD SVG 1.1//EN" "http://www.w3.org/Graphics/SVG/1.1/DTD/svg11.dtd">
<svg version="1.1" id="Layer_1" xmlns="http://www.w3.org/2000/svg" xmlns:xlink="http://www.w3.org/1999/xlink" x="0px" y="0px"
	 width="502px" height="462px" viewBox="0 0 502 462" enable-background="new 0 0 502 462" xml:space="preserve">

<defs>
	<style type="text/css">
	text {
	  font-family: Helvetica, Verdana, ArialUnicodeMS, san-serif
	}
	</style>
</defs>

<g>
   <desc>
	PS 3.2 Conformance
   </desc>
</g>

<g>
	<rect x="1" y="1" fill="#F5EED6" width="500" height="460"/>
	<g>
		
			<line fill="#4F8ABE" stroke="#005695" stroke-width="2" stroke-linecap="round" stroke-miterlimit="1" x1="285.442" y1="378.135" x2="350.469" y2="378.135"/>
		<path fill="#005695" d="M353.303,376.905c-1.983-0.6-3.273-1.151-4.865-1.79v6.053c0.57-0.271,2.882-1.191,4.865-1.79
			c2.124-0.642,4.049-1.08,5.298-1.236C357.352,377.984,355.427,377.546,353.303,376.905z"/>
		
			<rect x="212.337" y="350.115" fill="#CCDEF0" stroke="#010101" stroke-width="0.75" stroke-linecap="round" stroke-linejoin="round" stroke-miterlimit="1" width="71.78" height="53.999"/>
		<text transform="matrix(1 0 0 1 224.6914 366.9824)"><tspan x="0" y="0"  font-size="11">Hardcopy</tspan><tspan x="-3.367" y="13.199"  font-size="11">Application</tspan><tspan x="9.784" y="26.399"  font-size="11">Entity</tspan></text>
		
			<line fill="#4F8ABE" stroke="#005695" stroke-width="2" stroke-linecap="round" stroke-miterlimit="1" stroke-dasharray="9" x1="132.549" y1="377.115" x2="212.597" y2="377.115"/>
		
			<path fill="#CCDEF0" stroke="#010101" stroke-width="0.75" stroke-linecap="round" stroke-linejoin="round" stroke-miterlimit="1" d="
			M60.841,377.104c0-19.883,16.118-36,36-36c19.896,0,36.023,16.117,36.023,36s-16.128,36.025-36.023,36.025
			C76.959,413.129,60.841,396.986,60.841,377.104z"/>
		<text transform="matrix(1 0 0 1 86.4727 373.582)"><tspan x="0" y="0"  font-size="11">Film</tspan><tspan x="-7.651" y="13.199"  font-size="11">Images</tspan></text>
		
			<path fill="#CCDEF0" stroke="#010101" stroke-width="0.75" stroke-linecap="round" stroke-linejoin="round" stroke-miterlimit="1" d="
			M360.16,377.1c0-22.36,18.127-40.486,40.487-40.486c22.375,0,40.513,18.126,40.513,40.486c0,22.361-18.138,40.516-40.513,40.516
			C378.287,417.615,360.16,399.461,360.16,377.1z"/>
		<text transform="matrix(1 0 0 1 383.1523 359.7441)"><tspan x="0" y="0"  font-size="10">Remote</tspan><tspan x="-6.953" y="12"  font-size="10">Application</tspan><tspan x="-9.168" y="24"  font-size="10">Entity Prints</tspan><tspan x="-8.889" y="36"  font-size="10">Film Sheets</tspan></text>
		
			<line fill="#4F8ABE" stroke="#005695" stroke-width="2" stroke-linecap="round" stroke-miterlimit="1" x1="284.2" y1="101.135" x2="349.227" y2="101.135"/>
		<path fill="#005695" d="M352.061,99.905c-1.983-0.6-3.273-1.151-4.865-1.79v6.053c0.57-0.271,2.882-1.19,4.865-1.79
			c2.124-0.642,4.049-1.08,5.298-1.236C356.109,100.985,354.185,100.546,352.061,99.905z"/>
		
			<rect x="212.338" y="74.468" fill="#CCDEF0" stroke="#010101" stroke-width="0.75" stroke-linecap="round" stroke-linejoin="round" stroke-miterlimit="1" width="71.779" height="54"/>
		<text transform="matrix(1 0 0 1 228.9673 91.3169)"><tspan x="0" y="0"  font-size="11">Storage</tspan><tspan x="-7.643" y="13.2"  font-size="11">Application</tspan><tspan x="5.508" y="26.4"  font-size="11">Entity</tspan></text>
		
			<line fill="#4F8ABE" stroke="#005695" stroke-width="2" stroke-linecap="round" stroke-miterlimit="1" stroke-dasharray="9" x1="132.554" y1="101.471" x2="212.601" y2="101.471"/>
		
			<path fill="#CCDEF0" stroke="#010101" stroke-width="0.75" stroke-linecap="round" stroke-linejoin="round" stroke-miterlimit="1" d="
			M60.844,101.127c0-19.883,16.118-36,36-36c19.896,0,36.023,16.117,36.023,36s-16.128,36.025-36.023,36.025
			C76.962,137.152,60.844,121.01,60.844,101.127z"/>
		<text transform="matrix(1 0 0 1 84.0098 90.9888)"><tspan x="0" y="0"  font-size="11">Send</tspan><tspan x="-10.388" y="13.2"  font-size="11">Images &amp;</tspan><tspan x="-2.438" y="26.4"  font-size="11">GSPS</tspan></text>
		
			<path fill="#CCDEF0" stroke="#010101" stroke-width="0.75" stroke-linecap="round" stroke-linejoin="round" stroke-miterlimit="1" d="
			M360.16,101.454c0-22.361,18.127-40.487,40.486-40.487c22.375,0,40.514,18.126,40.514,40.487c0,22.36-18.139,40.516-40.514,40.516
			C378.287,141.97,360.16,123.814,360.16,101.454z"/>
		<text transform="matrix(1 0 0 1 382.1562 80.2388)"><tspan x="0" y="0"  font-size="10">Remote</tspan><tspan x="-5.561" y="12"  font-size="10">Applicati n</tspan><tspan x="-16.95" y="24"  font-size="10">Entity Receives</tspan><tspan x="1.111" y="36"  font-size="10">Images</tspan><tspan x="-1.11" y="48"  font-size="10">&amp; GSPS</tspan></text>
		
			<polyline fill="none" stroke="#005695" stroke-width="2" stroke-linecap="round" stroke-miterlimit="1" stroke-dasharray="9" points="
			213.032,239.016 213.526,239.198 128.846,189.09 		"/>
		
			<line fill="none" stroke="#005695" stroke-width="2" stroke-linecap="round" stroke-miterlimit="1" stroke-dasharray="9" x1="128.352" y1="289.124" x2="213.032" y2="239.016"/>
		<polyline fill="none" stroke="#005695" stroke-width="2" stroke-linecap="round" stroke-miterlimit="1" points="283.754,239.049 
			283.352,239.198 352.358,198.365 		"/>
		<path fill="#005695" d="M354.171,195.863c-2.013,0.494-3.403,0.676-5.099,0.937l3.083,5.21c0.353-0.523,1.873-2.492,3.275-4.018
			c1.501-1.635,2.935-2.992,3.93-3.763C358.206,194.73,356.325,195.334,354.171,195.863z"/>
		
			<line fill="none" stroke="#005695" stroke-width="2" stroke-linecap="round" stroke-miterlimit="1" x1="283.755" y1="239.049" x2="352.762" y2="279.883"/>
		<path fill="#005695" d="M355.827,280.268c-1.402-1.526-2.231-2.658-3.275-4.018l-3.083,5.209c0.629,0.057,3.087,0.442,5.099,0.938
			c2.154,0.529,4.035,1.132,5.189,1.633C358.762,283.259,357.328,281.9,355.827,280.268z"/>
		
			<path fill="#CCDEF0" stroke="#010101" stroke-width="0.75" stroke-linecap="round" stroke-linejoin="round" stroke-miterlimit="1" d="
			M60.842,284.869c0-19.883,16.118-36,36-36c19.896,0,36.023,16.117,36.023,36s-16.128,36.025-36.023,36.025
			C76.96,320.895,60.842,304.752,60.842,284.869z"/>
		<text transform="matrix(1 0 0 1 78.208 281.3516)"><tspan x="0" y="0"  font-size="11">Acquire</tspan><tspan x="0.612" y="13.201"  font-size="11">Images</tspan></text>
		
			<path fill="#CCDEF0" stroke="#010101" stroke-width="0.75" stroke-linecap="round" stroke-linejoin="round" stroke-miterlimit="1" d="
			M60.842,193.795c0-19.883,16.118-36,36-36c19.896,0,36.023,16.117,36.023,36s-16.128,36.026-36.023,36.026
			C76.96,229.821,60.842,213.678,60.842,193.795z"/>
		<text transform="matrix(1 0 0 1 79.1211 190.2749)"><tspan x="0" y="0"  font-size="11">Update</tspan><tspan x="-1.818" y="13.2"  font-size="11">Worklist</tspan></text>
		
			<rect x="212.147" y="212.025" fill="#CCDEF0" stroke="#010101" stroke-width="0.75" stroke-linecap="round" stroke-linejoin="round" stroke-miterlimit="1" width="71.779" height="53.996"/>
		<text transform="matrix(1 0 0 1 225.4277 228.8901)"><tspan x="0" y="0"  font-size="11">Workflow</tspan><tspan x="-4.294" y="13.2"  font-size="11">Application</tspan><tspan x="8.857" y="26.4"  font-size="11">Entity</tspan></text>
		
			<path fill="#CCDEF0" stroke="#010101" stroke-width="0.75" stroke-linecap="round" stroke-linejoin="round" stroke-miterlimit="1" d="
			M360.647,193.797c0-22.359,17.909-40.489,40-40.489c22.105,0,40.025,18.13,40.025,40.489c0,22.352-17.92,40.511-40.025,40.511
			C378.557,234.308,360.647,216.148,360.647,193.797z"/>
		<text transform="matrix(1 0 0 1 383.1543 174.2769)"><tspan x="0" y="0"  font-size="10">Remote</tspan><tspan x="-6.953" y="12"  font-size="10">Application</tspan><tspan x="-15.84" y="24"  font-size="10">Entity Provides</tspan><tspan x="-13.883" y="36"  font-size="10">Worklist Items</tspan></text>
		
			<path fill="#CCDEF0" stroke="#010101" stroke-width="0.75" stroke-linecap="round" stroke-linejoin="round" stroke-miterlimit="1" d="
			M360.16,284.873c0-22.359,18.127-40.49,40.488-40.49c22.375,0,40.512,18.131,40.512,40.49c0,22.351-18.137,40.51-40.512,40.51
			C378.287,325.383,360.16,307.224,360.16,284.873z"/>
		<text transform="matrix(1 0 0 1 383.1533 260.1445)"><tspan x="0" y="0"  font-size="10">Remote</tspan><tspan x="-6.953" y="12"  font-size="10">Application</tspan><tspan x="-16.95" y="24"  font-size="10">Entity Receives</tspan><tspan x="3.337" y="36"  font-size="10">MPPS</tspan><tspan x="-15.013" y="48"  font-size="10">Create/Update</tspan></text>
		
			<line fill="#4F8ABE" stroke="#005695" stroke-linecap="round" stroke-miterlimit="1" stroke-dasharray="2,4" x1="326.195" y1="445.048" x2="326.195" y2="35.774"/>
		<g>
			<path fill="#B2CEE7" d="M257.197,20.553c0-1.98,1.62-3.6,3.6-3.6h130.797c1.979,0,3.6,1.62,3.6,3.6V31.39
				c0,1.98-1.62,3.6-3.6,3.6H260.797c-1.979,0-3.6-1.62-3.6-3.6V20.553z"/>
		</g>
		<text transform="matrix(1 0 0 1 261.1133 29.877)"  font-size="11">DICOM Standard Interface</text>
	</g>
</g>
</svg>
