<?xml version="1.0" encoding="utf-8"?>
<!-- $Source: /home/bbennett/pass/archive/DicomXml/docbook/part02/figures/PS3.2_F.4.2-4.svg,v $ -->
<!-- $Date: 2014/05/09 12:27:08 $ -->
<!-- $Revision: 1.2 $ -->

<!DOCTYPE svg PUBLIC "-//W3C//DTD SVG 1.1//EN" "http://www.w3.org/Graphics/SVG/1.1/DTD/svg11.dtd">
<svg version="1.1" id="Layer_1" xmlns="http://www.w3.org/2000/svg" xmlns:xlink="http://www.w3.org/1999/xlink" x="0px" y="0px"
	 width="502px" height="247px" viewBox="0 0 502 247" enable-background="new 0 0 502 247" xml:space="preserve">

<defs>
	<style type="text/css">
	text {
	  font-family: Helvetica, Verdana, ArialUnicodeMS, san-serif
	}
	</style>
</defs>

<g>
   <desc>
	PS 3.2 Conformance
   </desc>
</g>

<g>
	<rect x="1" y="1" fill="#F5EED6" width="500" height="245"/>
	<g>
		
			<line fill="#4F8ABE" stroke="#005695" stroke-linecap="round" stroke-miterlimit="1" stroke-dasharray="3" x1="131.552" y1="230.84" x2="131.552" y2="50.151"/>
		
			<rect x="127.052" y="66.008" fill="#CCDEF0" stroke="#010101" stroke-width="0.75" stroke-linecap="round" stroke-linejoin="round" stroke-miterlimit="1" width="9" height="159.851"/>
		
			<line fill="#4F8ABE" stroke="#005695" stroke-linecap="round" stroke-miterlimit="1" stroke-dasharray="3" x1="370.443" y1="230.84" x2="370.443" y2="50.151"/>
		
			<rect x="343.446" y="16.161" fill="#CCDEF0" stroke="#010101" stroke-width="0.75" stroke-linecap="round" stroke-linejoin="round" stroke-miterlimit="1" width="54.002" height="36"/>
		<text transform="matrix(1 0 0 1 349.5615 31.5933)"><tspan x="0" y="0"  font-size="8">STORAGE-</tspan><tspan x="6.219" y="9.6"  font-size="8">SCP AE</tspan></text>
		<g>
			
				<line fill="#4F8ABE" stroke="#005695" stroke-linecap="round" stroke-miterlimit="1" x1="136.952" y1="79.937" x2="358.532" y2="79.937"/>
			<path fill="#005695" d="M360.894,78.911c-1.652-0.499-2.728-0.959-4.054-1.491v5.044c0.475-0.226,2.401-0.992,4.054-1.491
				c1.77-0.535,3.375-0.9,4.415-1.031C364.269,79.812,362.663,79.445,360.894,78.911z"/>
		</g>
		<g>
			<g>
				
					<line fill="#4F8ABE" stroke="#005695" stroke-linecap="round" stroke-miterlimit="1" x1="136.952" y1="218.189" x2="358.532" y2="218.189"/>
				<path fill="#005695" d="M360.894,217.164c-1.652-0.499-2.728-0.959-4.054-1.491v5.044c0.475-0.226,2.401-0.992,4.054-1.491
					c1.77-0.535,3.375-0.9,4.415-1.031C364.269,218.064,362.663,217.698,360.894,217.164z"/>
			</g>
		</g>
		<g>
			
				<line fill="#4F8ABE" stroke="#005695" stroke-linecap="round" stroke-miterlimit="1" x1="136.952" y1="119.476" x2="358.532" y2="119.476"/>
			<path fill="#005695" d="M360.894,118.45c-1.652-0.499-2.728-0.959-4.054-1.491v5.044c0.475-0.226,2.401-0.992,4.054-1.491
				c1.77-0.535,3.375-0.9,4.415-1.031C364.269,119.351,362.663,118.984,360.894,118.45z"/>
		</g>
		<g>
			
				<line fill="#4F8ABE" stroke="#005695" stroke-linecap="round" stroke-miterlimit="1" x1="136.952" y1="149.338" x2="358.532" y2="149.338"/>
			<path fill="#005695" d="M360.894,150.363c-1.653,0.499-2.728,0.959-4.054,1.491v-5.044c0.475,0.226,2.4,0.992,4.054,1.491
				c1.77,0.535,3.374,0.9,4.415,1.031C364.268,149.463,362.663,149.829,360.894,150.363z"/>
		</g>
		<g>
			
				<line fill="#4F8ABE" stroke="#005695" stroke-linecap="round" stroke-miterlimit="1" x1="365.308" y1="188.41" x2="143.728" y2="188.41"/>
			<path fill="#005695" d="M141.366,189.435c1.653,0.5,2.729,0.96,4.055,1.492v-5.045c-0.475,0.226-2.401,0.993-4.055,1.492
				c-1.77,0.534-3.374,0.9-4.414,1.03C137.992,188.535,139.597,188.9,141.366,189.435z"/>
		</g>
		<rect x="147.384" y="71.82" fill="none" width="170.897" height="150.649"/>
		<text transform="matrix(1 0 0 1 147.3838 77.5513)"><tspan x="0" y="0"  font-size="8">1. Peer AE Opens Association</tspan><tspan x="0" y="29.6"  font-size="8">2. Peer AE Sends Composite SOP Instances</tspan><tspan x="0" y="59.201"  font-size="8">3</tspan><tspan x="4.538" y="59.201"  font-size="8">. </tspan><tspan x="8.983" y="59.201"  font-size="8">Pee</tspan><tspan x="23.484" y="59.201"  font-size="8">r </tspan><tspan x="28.371" y="59.201"  font-size="8">A</tspan><tspan x="33.796" y="59.201"  font-size="8">E </tspan><tspan x="41.354" y="59.201"  font-size="8">Request</tspan><tspan x="71.774" y="59.201"  font-size="8">s </tspan><tspan x="77.997" y="59.201"  font-size="8">Storag</tspan><tspan x="102.1" y="59.201"  font-size="8">e </tspan><tspan x="108.772" y="59.201"  font-size="8">Commitmen</tspan><tspan x="152.689" y="59.201"  font-size="8">t </tspan><tspan x="157.135" y="59.201"  font-size="8">o</tspan><tspan x="161.673" y="59.201"  font-size="8">f </tspan><tspan x="10" y="68.8"  font-size="8">Composit</tspan><tspan x="44.5" y="68.8"  font-size="8">e </tspan><tspan x="51.172" y="68.8"  font-size="8">SO</tspan><tspan x="62.909" y="68.8"  font-size="8">P </tspan><tspan x="70.467" y="68.8"  font-size="8">Instance</tspan><tspan x="101.42" y="68.8"  font-size="8">s</tspan><tspan x="0" y="98.4"  font-size="8">4</tspan><tspan x="4.538" y="98.4"  font-size="8">. </tspan><tspan x="8.983" y="98.4"  font-size="8">Sen</tspan><tspan x="23.484" y="98.4"  font-size="8">d </tspan><tspan x="30.156" y="98.4"  font-size="8">Storag</tspan><tspan x="54.26" y="98.4"  font-size="8">e </tspan><tspan x="60.932" y="98.4"  font-size="8">Commitmen</tspan><tspan x="104.85" y="98.4"  font-size="8">t </tspan><tspan x="109.295" y="98.4"  font-size="8">Notificatio</tspan><tspan x="145.397" y="98.4"  font-size="8">n </tspan><tspan x="152.069" y="98.4"  font-size="8">fo</tspan><tspan x="158.919" y="98.4"  font-size="8">r </tspan><tspan x="10" y="108"  font-size="8">Composit</tspan><tspan x="44.5" y="108"  font-size="8">e </tspan><tspan x="51.172" y="108"  font-size="8">SO</tspan><tspan x="62.909" y="108"  font-size="8">P </tspan><tspan x="70.467" y="108"  font-size="8">Instance</tspan><tspan x="101.42" y="108"  font-size="8">s</tspan><tspan x="0" y="137.6"  font-size="8">5. Peer AE Close Association</tspan></text>
		
			<rect x="366.074" y="66.008" fill="#CCDEF0" stroke="#010101" stroke-width="0.75" stroke-linecap="round" stroke-linejoin="round" stroke-miterlimit="1" width="9" height="159.851"/>
		
			<rect x="104.552" y="16.18" fill="#CCDEF0" stroke="#010101" stroke-width="0.75" stroke-linecap="round" stroke-linejoin="round" stroke-miterlimit="1" width="54.001" height="36"/>
		<text transform="matrix(1 0 0 1 107.9819 26.812)"><tspan x="0" y="0"  font-size="8">Peer Storage</tspan><tspan x="0.9" y="9.6"  font-size="8">Commitment</tspan><tspan x="8.678" y="19.2"  font-size="8">SCU AE</tspan></text>
	</g>
</g>
</svg>
