<?xml version="1.0" encoding="utf-8"?>
<!-- $Source: /home/bbennett/pass/archive/DicomXml/docbook/part02/figures/PS3.2_5.1-5.svg,v $ -->
<!-- $Date: 2014/05/09 12:27:08 $ -->
<!-- $Revision: 1.2 $ -->

<!DOCTYPE svg PUBLIC "-//W3C//DTD SVG 1.1//EN" "http://www.w3.org/Graphics/SVG/1.1/DTD/svg11.dtd">
<svg version="1.1" id="Layer_1" xmlns="http://www.w3.org/2000/svg" xmlns:xlink="http://www.w3.org/1999/xlink" x="0px" y="0px"
	 width="502px" height="107px" viewBox="0 0 502 107" enable-background="new 0 0 502 107" xml:space="preserve">

<defs>
	<style type="text/css">
	text {
	  font-family: Helvetica, Verdana, ArialUnicodeMS, san-serif
	}
	</style>
</defs>

<g>
   <desc>
	PS 3.2 Conformance
   </desc>
</g>

<g>
	<rect x="1" y="1" fill="#F5EED6" width="500" height="105"/>
	<g>
		
			<rect x="205.506" y="26.501" fill="#CCDEF0" stroke="#010101" stroke-width="0.75" stroke-linecap="round" stroke-linejoin="round" stroke-miterlimit="1" width="71.768" height="53.999"/>
		<text transform="matrix(1 0 0 1 228.2456 43.3667)"><tspan x="0" y="0"  font-size="11">Local</tspan><tspan x="-13.758" y="13.2"  font-size="11">Application</tspan><tspan x="-0.607" y="26.4"  font-size="11">Entity</tspan></text>
		
			<line fill="#4F8ABE" stroke="#005695" stroke-width="2" stroke-linecap="round" stroke-miterlimit="1" stroke-dasharray="9" x1="159.603" y1="53.5" x2="205.207" y2="53.5"/>
		
			<path fill="#CCDEF0" stroke="#010101" stroke-width="0.75" stroke-linecap="round" stroke-linejoin="round" stroke-miterlimit="1" d="
			M87.891,53.487c0-19.883,16.118-36,36-36c19.896,0,36.023,16.117,36.023,36s-16.128,36.025-36.023,36.025
			C104.009,89.513,87.891,73.37,87.891,53.487z"/>
		<text transform="matrix(1 0 0 1 110.752 43.3677)"><tspan x="0" y="0"  font-size="11">Local</tspan><tspan x="-14.357" y="13.201"  font-size="11">Real-World</tspan><tspan x="-4.27" y="26.4"  font-size="11">Activity</tspan></text>
		
			<path fill="#CCDEF0" stroke="#010101" stroke-width="0.75" stroke-linecap="round" stroke-linejoin="round" stroke-miterlimit="1" d="
			M342.086,27.581c0-7.01,16.119-12.693,36-12.693c19.896,0,36.023,5.684,36.023,12.693v51.838c0,7.006-16.127,12.693-36.023,12.693
			c-19.881,0-36-5.688-36-12.693V27.581z"/>
		
			<path fill="#CCDEF0" stroke="#010101" stroke-width="0.75" stroke-linecap="round" stroke-linejoin="round" stroke-miterlimit="1" d="
			M342.086,27.752c0-7.006,16.119-12.685,36-12.685c19.896,0,36.023,5.679,36.023,12.685s-16.127,12.694-36.023,12.694
			C358.205,40.446,342.086,34.758,342.086,27.752z"/>
		<text transform="matrix(1 0 0 1 359.7676 54.8926)"><tspan x="0" y="0"  font-size="11">DICOM</tspan><tspan x="-0.932" y="13.201"  font-size="11">Storage</tspan><tspan x="-1.229" y="26.4"  font-size="11">Medium</tspan></text>
		
			<line fill="#4F8ABE" stroke="#005695" stroke-width="2" stroke-linecap="round" stroke-miterlimit="1" x1="281.837" y1="36.747" x2="332.966" y2="36.747"/>
		<path fill="#005695" d="M335.8,37.978c-1.983,0.599-3.273,1.15-4.865,1.789v-6.053c0.57,0.271,2.882,1.191,4.865,1.79
			c2.124,0.642,4.049,1.08,5.298,1.237C339.849,36.897,337.924,37.336,335.8,37.978z"/>
		
			<line fill="#4F8ABE" stroke="#005695" stroke-width="2" stroke-linecap="round" stroke-miterlimit="1" x1="336.779" y1="53.499" x2="285.65" y2="53.499"/>
		<path fill="#005695" d="M282.816,52.269c1.983-0.599,3.273-1.15,4.865-1.789v6.053c-0.57-0.271-2.882-1.191-4.865-1.79
			c-2.124-0.642-4.049-1.08-5.298-1.237C278.768,53.349,280.692,52.91,282.816,52.269z"/>
		
			<line fill="#4F8ABE" stroke="#005695" stroke-width="2" stroke-linecap="round" stroke-miterlimit="1" x1="287.688" y1="70.23" x2="332.688" y2="70.23"/>
		<path fill="#005695" d="M335.521,69.001c-1.983-0.6-3.273-1.151-4.865-1.79v6.053c0.57-0.271,2.882-1.191,4.865-1.79
			c2.124-0.642,4.049-1.08,5.298-1.236C339.57,70.08,337.646,69.642,335.521,69.001z"/>
		<path fill="#005695" d="M284.854,71.46c1.983,0.6,3.273,1.151,4.865,1.79v-6.053c-0.57,0.271-2.882,1.191-4.865,1.79
			c-2.124,0.642-4.049,1.08-5.298,1.236C280.805,70.381,282.729,70.819,284.854,71.46z"/>
	</g>
</g>
</svg>
