<?xml version="1.0" encoding="utf-8"?>
<!-- $Source: /home/bbennett/pass/archive/DicomXml/docbook/part02/figures/PS3.2_D.4.1-1.svg,v $ -->
<!-- $Date: 2014/05/09 12:27:08 $ -->
<!-- $Revision: 1.2 $ -->

<!DOCTYPE svg PUBLIC "-//W3C//DTD SVG 1.1//EN" "http://www.w3.org/Graphics/SVG/1.1/DTD/svg11.dtd">
<svg version="1.1" id="Layer_1" xmlns="http://www.w3.org/2000/svg" xmlns:xlink="http://www.w3.org/1999/xlink" x="0px" y="0px"
	 width="502px" height="537px" viewBox="0 0 502 537" enable-background="new 0 0 502 537" xml:space="preserve">

<defs>
	<style type="text/css">
	text {
	  font-family: Helvetica, Verdana, ArialUnicodeMS, san-serif
	}
	</style>
</defs>

<g>
   <desc>
	PS 3.2 Conformance
   </desc>
</g>

<g>
	<rect x="1" y="1" fill="#F5EED6" width="500" height="535"/>
	<g>
		
			<path fill="#CCDEF0" stroke="#010101" stroke-width="0.75" stroke-linecap="round" stroke-linejoin="round" stroke-miterlimit="1" d="
			M360.158,458.415c0-22.36,18.127-40.486,40.487-40.486c22.375,0,40.513,18.126,40.513,40.486
			c0,22.361-18.138,40.516-40.513,40.516C378.285,498.931,360.158,480.776,360.158,458.415z"/>
		<text transform="matrix(1 0 0 1 378.3965 441.0586)"><tspan x="0" y="0"  font-size="9">Verification</tspan><tspan x="-5.508" y="10.801"  font-size="9">Requested by</tspan><tspan x="6.504" y="21.601"  font-size="9">Remote</tspan><tspan x="0.246" y="32.4"  font-size="9">Application</tspan><tspan x="11.007" y="43.201"  font-size="9">Entity</tspan></text>
		
			<path fill="#CCDEF0" stroke="#010101" stroke-width="0.75" stroke-linecap="round" stroke-linejoin="round" stroke-miterlimit="1" d="
			M360.646,274.381c0-22.36,17.909-40.49,40-40.49c22.105,0,40.025,18.13,40.025,40.49c0,22.351-17.92,40.51-40.025,40.51
			C378.555,314.891,360.646,296.731,360.646,274.381z"/>
		<text transform="matrix(1 0 0 1 384.9023 249.6772)"><tspan x="0" y="0"  font-size="9">Remote</tspan><tspan x="-6.258" y="10.8"  font-size="9">Application</tspan><tspan x="-15.256" y="21.6"  font-size="9">Entity Receives</tspan><tspan x="-1.749" y="32.4"  font-size="9">Query or</tspan><tspan x="-1" y="43.2"  font-size="9">Retrieve</tspan><tspan x="-5.001" y="54"  font-size="9">Command</tspan></text>
		
			<path fill="#CCDEF0" stroke="#010101" stroke-width="0.75" stroke-linecap="round" stroke-linejoin="round" stroke-miterlimit="1" d="
			M360.158,366.4c0-22.359,18.127-40.49,40.488-40.49c22.375,0,40.512,18.131,40.512,40.49c0,22.351-18.137,40.51-40.512,40.51
			C378.285,406.91,360.158,388.751,360.158,366.4z"/>
		<text transform="matrix(1 0 0 1 378.6484 342.3906)"><tspan x="0" y="0"  font-size="9">Unsolicited</tspan><tspan x="-6.258" y="10.801"  font-size="9"> or Requested</tspan><tspan x="-7.758" y="21.601"  font-size="9">Instances Sent</tspan><tspan x="0.25" y="32.4"  font-size="9">by Remote</tspan><tspan x="-0.004" y="43.201"  font-size="9">Application</tspan><tspan x="10.756" y="54"  font-size="9">Entity</tspan></text>
		
			<line fill="#4F8ABE" stroke="#005695" stroke-width="2" stroke-linecap="round" stroke-miterlimit="1" x1="300.032" y1="90.019" x2="349.225" y2="90.019"/>
		<path fill="#005695" d="M352.059,88.789c-1.983-0.6-3.273-1.151-4.865-1.79v6.053c0.57-0.271,2.882-1.19,4.865-1.79
			c2.124-0.642,4.049-1.08,5.298-1.236C356.107,89.869,354.183,89.43,352.059,88.789z"/>
		
			<line fill="#4F8ABE" stroke="#005695" stroke-width="2" stroke-linecap="round" stroke-miterlimit="1" x1="401.014" y1="306.922" x2="401.014" y2="325.886"/>
		<path fill="#005695" d="M402.244,328.72c0.599-1.983,1.15-3.273,1.789-4.865h-6.053c0.271,0.57,1.191,2.882,1.79,4.865
			c0.642,2.124,1.08,4.049,1.237,5.298C401.164,332.769,401.603,330.844,402.244,328.72z"/>
		
			<rect x="200.014" y="69.354" fill="#CCDEF0" stroke="#010101" stroke-width="0.75" stroke-linecap="round" stroke-linejoin="round" stroke-miterlimit="1" width="96.424" height="41.994"/>
		<text transform="matrix(1 0 0 1 204.8359 80.2007)"><tspan x="0" y="0"  font-size="11">STORAGE - SCU</tspan><tspan x="16.487" y="13.2"  font-size="11">Application</tspan><tspan x="29.638" y="26.4"  font-size="11">Entity</tspan></text>
		
			<line fill="#4F8ABE" stroke="#005695" stroke-width="2" stroke-linecap="round" stroke-miterlimit="1" stroke-dasharray="9" x1="132.552" y1="90.354" x2="200.014" y2="90.354"/>
		
			<path fill="#CCDEF0" stroke="#010101" stroke-width="0.75" stroke-linecap="round" stroke-linejoin="round" stroke-miterlimit="1" d="
			M60.842,90.011c0-19.883,16.118-36,36-36c19.896,0,36.023,16.117,36.023,36s-16.128,36.025-36.023,36.025
			C76.96,126.036,60.842,109.894,60.842,90.011z"/>
		<text transform="matrix(1 0 0 1 70.5635 79.8726)"><tspan x="0" y="0"  font-size="11">Local User</tspan><tspan x="5.194" y="13.2"  font-size="11">requests</tspan><tspan x="13.444" y="26.4"  font-size="11">Send</tspan></text>
		
			<line fill="#4F8ABE" stroke="#005695" stroke-width="2" stroke-linecap="round" stroke-miterlimit="1" x1="300.032" y1="182.019" x2="349.225" y2="182.019"/>
		<path fill="#005695" d="M352.059,180.788c-1.983-0.599-3.273-1.15-4.865-1.789v6.053c0.57-0.271,2.882-1.191,4.865-1.79
			c2.124-0.642,4.049-1.08,5.298-1.237C356.107,181.868,354.183,181.43,352.059,180.788z"/>
		
			<rect x="200.014" y="161.354" fill="#CCDEF0" stroke="#010101" stroke-width="0.75" stroke-linecap="round" stroke-linejoin="round" stroke-miterlimit="1" width="96.424" height="41.994"/>
		<text transform="matrix(1 0 0 1 220.4253 172.2007)"><tspan x="0" y="0"  font-size="11">FIND- SCU</tspan><tspan x="0.897" y="13.2"  font-size="11">Application</tspan><tspan x="14.048" y="26.4"  font-size="11">Entity</tspan></text>
		
			<line fill="#4F8ABE" stroke="#005695" stroke-width="2" stroke-linecap="round" stroke-miterlimit="1" stroke-dasharray="9" x1="132.552" y1="182.354" x2="200.014" y2="182.354"/>
		
			<path fill="#CCDEF0" stroke="#010101" stroke-width="0.75" stroke-linecap="round" stroke-linejoin="round" stroke-miterlimit="1" d="
			M60.842,182.011c0-19.883,16.118-36,36-36c19.896,0,36.023,16.117,36.023,36s-16.128,36.025-36.023,36.025
			C76.96,218.036,60.842,201.894,60.842,182.011z"/>
		<text transform="matrix(1 0 0 1 70.5635 171.8726)"><tspan x="0" y="0"  font-size="11">Local User</tspan><tspan x="5.194" y="13.2"  font-size="11">requests</tspan><tspan x="13.444" y="26.4"  font-size="11">Send</tspan></text>
		
			<line fill="#4F8ABE" stroke="#005695" stroke-width="2" stroke-linecap="round" stroke-miterlimit="1" x1="300.032" y1="273.019" x2="349.225" y2="273.019"/>
		<path fill="#005695" d="M352.059,271.788c-1.983-0.599-3.273-1.15-4.865-1.789v6.053c0.57-0.271,2.882-1.191,4.865-1.79
			c2.124-0.642,4.049-1.08,5.298-1.237C356.107,272.868,354.183,272.43,352.059,271.788z"/>
		
			<rect x="200.014" y="252.354" fill="#CCDEF0" stroke="#010101" stroke-width="0.75" stroke-linecap="round" stroke-linejoin="round" stroke-miterlimit="1" width="96.424" height="41.994"/>
		<text transform="matrix(1 0 0 1 217.0605 263.2007)"><tspan x="0" y="0"  font-size="11">MOVE- SCU</tspan><tspan x="4.262" y="13.2"  font-size="11">Application</tspan><tspan x="17.413" y="26.4"  font-size="11">Entity</tspan></text>
		
			<line fill="#4F8ABE" stroke="#005695" stroke-width="2" stroke-linecap="round" stroke-miterlimit="1" stroke-dasharray="9" x1="132.552" y1="273.354" x2="200.014" y2="273.354"/>
		
			<path fill="#CCDEF0" stroke="#010101" stroke-width="0.75" stroke-linecap="round" stroke-linejoin="round" stroke-miterlimit="1" d="
			M60.842,273.011c0-19.883,16.118-36,36-36c19.896,0,36.023,16.117,36.023,36s-16.128,36.025-36.023,36.025
			C76.96,309.036,60.842,292.894,60.842,273.011z"/>
		<text transform="matrix(1 0 0 1 70.5635 262.8726)"><tspan x="0" y="0"  font-size="11">Local User</tspan><tspan x="5.194" y="13.2"  font-size="11">requests</tspan><tspan x="13.444" y="26.4"  font-size="11">Send</tspan></text>
		
			<line fill="#4F8ABE" stroke="#005695" stroke-width="2" stroke-linecap="round" stroke-miterlimit="1" x1="355.917" y1="365.019" x2="306.005" y2="365.019"/>
		<path fill="#005695" d="M303.171,363.788c1.983-0.599,3.273-1.15,4.865-1.789v6.053c-0.57-0.271-2.882-1.191-4.865-1.79
			c-2.124-0.642-4.049-1.08-5.298-1.237C299.122,364.868,301.047,364.43,303.171,363.788z"/>
		
			<rect x="200.014" y="344.354" fill="#CCDEF0" stroke="#010101" stroke-width="0.75" stroke-linecap="round" stroke-linejoin="round" stroke-miterlimit="1" width="96.424" height="41.994"/>
		<text transform="matrix(1 0 0 1 208.1958 355.2012)"><tspan x="0" y="0"  font-size="11">STORAGE-SCP</tspan><tspan x="13.127" y="13.199"  font-size="11">Application</tspan><tspan x="26.278" y="26.399"  font-size="11">Entity</tspan></text>
		
			<line fill="#4F8ABE" stroke="#005695" stroke-width="2" stroke-linecap="round" stroke-miterlimit="1" x1="355.917" y1="460.019" x2="306.005" y2="460.019"/>
		<path fill="#005695" d="M303.171,458.788c1.983-0.599,3.273-1.15,4.865-1.789v6.053c-0.57-0.271-2.882-1.191-4.865-1.79
			c-2.124-0.642-4.049-1.08-5.298-1.237C299.122,459.868,301.047,459.43,303.171,458.788z"/>
		
			<rect x="200.014" y="439.354" fill="#CCDEF0" stroke="#010101" stroke-width="0.75" stroke-linecap="round" stroke-linejoin="round" stroke-miterlimit="1" width="96.424" height="41.994"/>
		<text transform="matrix(1 0 0 1 219.1982 450.2012)"><tspan x="0" y="0"  font-size="11">ECHO-SCP</tspan><tspan x="2.125" y="13.199"  font-size="11">Application</tspan><tspan x="15.275" y="26.399"  font-size="11">Entity</tspan></text>
		<path fill="#4F8ABE" stroke="#005695" stroke-width="2" stroke-linecap="round" stroke-miterlimit="1" stroke-dasharray="9" d="
			M200.014,460.354"/>
		<path fill="#4F8ABE" stroke="#005695" stroke-width="2" stroke-linecap="round" stroke-miterlimit="1" stroke-dasharray="9" d="
			M132.552,460.354"/>
		
			<path fill="#CCDEF0" stroke="#010101" stroke-width="0.75" stroke-linecap="round" stroke-linejoin="round" stroke-miterlimit="1" d="
			M360.158,90.338c0-22.361,18.127-40.487,40.486-40.487c22.375,0,40.514,18.126,40.514,40.487c0,22.36-18.139,40.516-40.514,40.516
			C378.285,130.854,360.158,112.698,360.158,90.338z"/>
		<text transform="matrix(1 0 0 1 378.6162 68.4028)"><tspan x="0" y="0"  font-size="9">Requested</tspan><tspan x="7.009" y="10.8"  font-size="9">Images</tspan><tspan x="3.006" y="21.6"  font-size="9">Received </tspan><tspan x="0.007" y="32.4"  font-size="9">by Remote</tspan><tspan x="-0.249" y="43.2"  font-size="9">Application</tspan><tspan x="10.512" y="54"  font-size="9">Entity</tspan></text>
		
			<path fill="#CCDEF0" stroke="#010101" stroke-width="0.75" stroke-linecap="round" stroke-linejoin="round" stroke-miterlimit="1" d="
			M360.646,182.362c0-22.36,17.909-40.49,40-40.49c22.105,0,40.025,18.13,40.025,40.49c0,22.351-17.92,40.51-40.025,40.51
			C378.555,222.872,360.646,204.713,360.646,182.362z"/>
		<text transform="matrix(1 0 0 1 384.9023 157.6587)"><tspan x="0" y="0"  font-size="9">Remote</tspan><tspan x="-6.258" y="10.8"  font-size="9">Application</tspan><tspan x="-15.256" y="21.6"  font-size="9">Entity Receives</tspan><tspan x="-1.749" y="32.4"  font-size="9">Query or</tspan><tspan x="-1" y="43.2"  font-size="9">Retrieve</tspan><tspan x="-5.001" y="54"  font-size="9">Command</tspan></text>
		
			<line fill="#4F8ABE" stroke="#005695" stroke-linecap="round" stroke-miterlimit="1" stroke-dasharray="2,4" x1="326.193" y1="521.012" x2="326.193" y2="34.021"/>
		<g>
			<path fill="#B2CEE7" d="M257.195,19.588c0-1.98,1.62-3.6,3.6-3.6h130.797c1.979,0,3.6,1.62,3.6,3.6v10.837
				c0,1.98-1.62,3.6-3.6,3.6H260.795c-1.979,0-3.6-1.62-3.6-3.6V19.588z"/>
		</g>
		<text transform="matrix(1 0 0 1 261.1113 27.6743)"  font-size="11">DICOM Standard Interface</text>
	</g>
</g>
</svg>
