<?xml version="1.0" encoding="utf-8"?>
<!-- $Source: /home/bbennett/pass/archive/DicomXml/docbook/part02/figures/PS3.2_E.4.1-2.svg,v $ -->
<!-- $Date: 2014/05/09 12:27:08 $ -->
<!-- $Revision: 1.2 $ -->

<!DOCTYPE svg PUBLIC "-//W3C//DTD SVG 1.1//EN" "http://www.w3.org/Graphics/SVG/1.1/DTD/svg11.dtd">
<svg version="1.1" id="Layer_1" xmlns="http://www.w3.org/2000/svg" xmlns:xlink="http://www.w3.org/1999/xlink" x="0px" y="0px"
	 width="502px" height="477px" viewBox="0 0 502 477" enable-background="new 0 0 502 477" xml:space="preserve">

<defs>
	<style type="text/css">
	text {
	  font-family: Helvetica, Verdana, ArialUnicodeMS, san-serif
	}
	</style>
</defs>

<g>
   <desc>
	PS 3.2 Conformance
   </desc>
</g>

<g>
	<polyline fill="#F5EED6" points="1,476 501,476 501,1 1,1 	"/>
	<g>
		
			<line fill="#4F8ABE" stroke="#005695" stroke-linecap="round" stroke-miterlimit="1" x1="104.471" y1="313.076" x2="385.639" y2="313.076"/>
		<path fill="#005695" d="M388,312.052c-1.652-0.5-2.727-0.96-4.053-1.492v5.045c0.475-0.227,2.4-0.993,4.053-1.492
			c1.77-0.535,3.375-0.9,4.416-1.031C391.375,312.951,389.77,312.585,388,312.052z"/>
		
			<line fill="#4F8ABE" stroke="#005695" stroke-linecap="round" stroke-miterlimit="1" stroke-dasharray="3" x1="398.121" y1="461.704" x2="398.121" y2="38.772"/>
		
			<rect x="372.322" y="15.018" fill="#CCDEF0" stroke="#010101" stroke-width="0.75" stroke-linecap="round" stroke-linejoin="round" stroke-miterlimit="1" width="51.84" height="27"/>
		<text transform="matrix(1 0 0 1 388.875 26.5464)"><tspan x="0" y="0"  font-size="9">Print</tspan><tspan x="-4" y="10.8"  font-size="9">Server</tspan></text>
		
			<line fill="#4F8ABE" stroke="#005695" stroke-linecap="round" stroke-miterlimit="1" x1="104.471" y1="67.945" x2="385.641" y2="67.945"/>
		<path fill="#005695" d="M388.002,66.92c-1.652-0.5-2.729-0.959-4.055-1.492v5.044c0.475-0.226,2.402-0.993,4.055-1.492
			c1.77-0.535,3.375-0.9,4.414-1.031C391.377,67.82,389.771,67.454,388.002,66.92z"/>
		
			<line fill="#4F8ABE" stroke="#005695" stroke-linecap="round" stroke-miterlimit="1" x1="104.471" y1="92.375" x2="385.641" y2="92.375"/>
		<path fill="#005695" d="M388.002,91.351c-1.652-0.5-2.729-0.959-4.055-1.492v5.044c0.475-0.226,2.402-0.993,4.055-1.492
			c1.77-0.535,3.375-0.9,4.414-1.031C391.377,92.25,389.771,91.885,388.002,91.351z"/>
		
			<line fill="#4F8ABE" stroke="#005695" stroke-linecap="round" stroke-miterlimit="1" x1="104.471" y1="116.806" x2="385.639" y2="116.806"/>
		<path fill="#005695" d="M388,115.781c-1.652-0.499-2.727-0.96-4.053-1.491v5.044c0.475-0.226,2.4-0.993,4.053-1.491
			c1.77-0.535,3.375-0.9,4.416-1.031C391.375,116.681,389.77,116.315,388,115.781z"/>
		
			<line fill="#4F8ABE" stroke="#005695" stroke-linecap="round" stroke-miterlimit="1" x1="104.471" y1="142.779" x2="385.639" y2="142.779"/>
		<path fill="#005695" d="M388,141.755c-1.652-0.5-2.727-0.96-4.053-1.492v5.045c0.475-0.227,2.4-0.993,4.053-1.492
			c1.77-0.535,3.375-0.9,4.416-1.031C391.375,142.654,389.77,142.288,388,141.755z"/>
		
			<line fill="#4F8ABE" stroke="#005695" stroke-linecap="round" stroke-miterlimit="1" x1="104.471" y1="189.788" x2="385.641" y2="189.788"/>
		<path fill="#005695" d="M388.002,188.764c-1.652-0.499-2.729-0.96-4.055-1.491v5.044c0.475-0.226,2.402-0.993,4.055-1.491
			c1.77-0.535,3.375-0.9,4.414-1.031C391.377,189.663,389.771,189.298,388.002,188.764z"/>
		
			<line fill="#4F8ABE" stroke="#005695" stroke-linecap="round" stroke-miterlimit="1" x1="104.471" y1="214.22" x2="385.641" y2="214.22"/>
		<path fill="#005695" d="M388.002,213.194c-1.652-0.5-2.729-0.959-4.055-1.492v5.047c0.475-0.225,2.402-0.992,4.055-1.492
			c1.77-0.534,3.375-0.9,4.414-1.031C391.377,214.095,389.771,213.729,388.002,213.194z"/>
		
			<line fill="#4F8ABE" stroke="#005695" stroke-linecap="round" stroke-miterlimit="1" x1="104.471" y1="238.996" x2="385.641" y2="238.996"/>
		<path fill="#005695" d="M388.002,237.971c-1.652-0.499-2.729-0.959-4.055-1.491v5.044c0.475-0.225,2.402-0.992,4.055-1.491
			c1.77-0.534,3.375-0.9,4.414-1.03C391.377,238.871,389.771,238.506,388.002,237.971z"/>
		
			<line fill="#4F8ABE" stroke="#005695" stroke-linecap="round" stroke-miterlimit="1" x1="392.416" y1="263.187" x2="111.247" y2="263.187"/>
		<path fill="#005695" d="M108.886,262.161c1.652-0.5,2.728-0.959,4.054-1.492v5.045c-0.475-0.226-2.401-0.992-4.054-1.492
			c-1.77-0.534-3.375-0.9-4.415-1.03C105.511,263.062,107.116,262.695,108.886,262.161z"/>
		
			<line fill="#4F8ABE" stroke="#005695" stroke-linecap="round" stroke-miterlimit="1" x1="104.471" y1="337.67" x2="385.641" y2="337.67"/>
		<path fill="#005695" d="M388.002,336.645c-1.652-0.499-2.729-0.959-4.055-1.491v5.044c0.475-0.225,2.402-0.992,4.055-1.491
			c1.77-0.534,3.375-0.9,4.414-1.03C391.377,337.545,389.771,337.18,388.002,336.645z"/>
		
			<line fill="#4F8ABE" stroke="#005695" stroke-linecap="round" stroke-miterlimit="1" x1="392.416" y1="362.101" x2="111.247" y2="362.101"/>
		<path fill="#005695" d="M108.886,361.076c1.652-0.5,2.728-0.96,4.054-1.492v5.045c-0.475-0.227-2.401-0.993-4.054-1.492
			c-1.77-0.535-3.375-0.9-4.415-1.031C105.511,361.976,107.116,361.609,108.886,361.076z"/>
		
			<line fill="#4F8ABE" stroke="#005695" stroke-linecap="round" stroke-miterlimit="1" x1="104.471" y1="386.635" x2="385.639" y2="386.635"/>
		<path fill="#005695" d="M388,385.609c-1.652-0.5-2.727-0.959-4.053-1.492v5.045c0.475-0.226,2.4-0.992,4.053-1.492
			c1.77-0.534,3.375-0.9,4.416-1.03C391.375,386.51,389.77,386.144,388,385.609z"/>
		
			<line fill="#4F8ABE" stroke="#005695" stroke-linecap="round" stroke-miterlimit="1" x1="104.471" y1="412.36" x2="385.639" y2="412.36"/>
		<path fill="#005695" d="M388,411.336c-1.652-0.5-2.727-0.96-4.053-1.492v5.045c0.475-0.227,2.4-0.993,4.053-1.492
			c1.77-0.535,3.375-0.9,4.416-1.031C391.375,412.235,389.77,411.869,388,411.336z"/>
		
			<line fill="#4F8ABE" stroke="#005695" stroke-linecap="round" stroke-miterlimit="1" x1="392.416" y1="438.334" x2="111.247" y2="438.334"/>
		<path fill="#005695" d="M108.886,437.309c1.652-0.5,2.728-0.959,4.054-1.492v5.045c-0.475-0.226-2.401-0.992-4.054-1.492
			c-1.77-0.534-3.375-0.9-4.415-1.03C105.511,438.209,107.116,437.843,108.886,437.309z"/>
		
			<line fill="#4F8ABE" stroke="#005695" stroke-linecap="round" stroke-miterlimit="1" stroke-dasharray="3" x1="100.34" y1="461.982" x2="100.34" y2="39.051"/>
		
			<rect x="77.839" y="15.018" fill="#CCDEF0" stroke="#010101" stroke-width="0.75" stroke-linecap="round" stroke-linejoin="round" stroke-miterlimit="1" width="45.001" height="27"/>
		<text transform="matrix(1 0 0 1 91.0908 26.5464)"><tspan x="0" y="0"  font-size="9">Print</tspan><tspan x="-11.505" y="10.8"  font-size="9">Composer</tspan></text>
		
			<path fill="#CCDEF0" stroke="#010101" stroke-width="0.75" stroke-linecap="round" stroke-linejoin="round" stroke-miterlimit="1" d="
			M104.517,72.848V53.957h-9v18.892c2.825,0,5.65,0,8.477,0H104.517z"/>
		
			<path fill="#CCDEF0" stroke="#010101" stroke-width="0.75" stroke-linecap="round" stroke-linejoin="round" stroke-miterlimit="1" d="
			M402.422,53.957h-9v399.086c3.15,0,5.969,0,9,0V53.957z"/>
		<g>
			<polyline fill="none" stroke="#005695" stroke-linecap="round" stroke-miterlimit="1" points="393.021,275.474 380.99,275.474 
				380.99,290.607 386.539,290.607 			"/>
			<path fill="#005695" d="M388.9,291.633c-1.652,0.5-2.729,0.959-4.055,1.492v-5.045c0.475,0.227,2.402,0.992,4.055,1.492
				c1.77,0.535,3.375,0.9,4.414,1.031C392.275,290.732,390.67,291.1,388.9,291.633z"/>
		</g>
		<g>
			<polyline fill="none" stroke="#005695" stroke-linecap="round" stroke-miterlimit="1" points="393.021,153.692 380.99,153.692 
				380.99,168.825 386.539,168.825 			"/>
			<path fill="#005695" d="M388.9,169.851c-1.652,0.5-2.729,0.959-4.055,1.492v-5.045c0.475,0.227,2.402,0.992,4.055,1.492
				c1.77,0.535,3.375,0.9,4.414,1.031C392.275,168.95,390.67,169.317,388.9,169.851z"/>
		</g>
		<rect x="118.493" y="57.768" fill="none" width="258.497" height="383.168"/>
		<text transform="matrix(1 0 0 1 118.4917 63.4985)"><tspan x="0" y="0"  font-size="8">** DICOM Printer Status N-GET</tspan><tspan x="0" y="24.6"  font-size="8">1. DICOM Film Session N-CREATE</tspan><tspan x="0" y="49.2"  font-size="8">2. DICOM Presentation LUT N-CREATE</tspan><tspan x="0" y="73.8"  font-size="8">3. DICOM Film Box N-CREATE</tspan><tspan x="104.188" y="98.4"  font-size="8">4. Create Image Boxes &amp; Annotation Boxes</tspan><tspan x="0" y="123"  font-size="8">5. DICOM Image Box N-SET</tspan><tspan x="0" y="147.6"  font-size="8">6. DICOM Annotation Box N-SET</tspan><tspan x="0" y="172.2"  font-size="8">7. DICOM Film Session N-ACTION</tspan><tspan x="0" y="196.8"  font-size="8"> (or) 8. DICOM Film Box N-ACTION</tspan><tspan x="191.801" y="221.4"  font-size="8">9. Create Print Job</tspan><tspan x="0" y="246"  font-size="8">10. DICOM Film Session N-DELETE</tspan><tspan x="0" y="270.599"  font-size="8">* DICOM Print Job N-GET</tspan><tspan x="0" y="295.201"  font-size="8">* DICOM Print Job N-EVENT-REPORT</tspan><tspan x="0" y="319.8"  font-size="8">** DICOM Printer Status N-GET</tspan><tspan x="0" y="344.4"  font-size="8">** DICOM Printer Configuration N-GET</tspan><tspan x="0" y="369"  font-size="8">** DICOM Printer Status N-EVENT-REPORT</tspan></text>
		
			<path fill="#CCDEF0" stroke="#010101" stroke-width="0.75" stroke-linecap="round" stroke-linejoin="round" stroke-miterlimit="1" d="
			M104.517,78.848h-0.523c-2.826,0-5.651,0-8.477,0v71.193h9V78.848z"/>
		
			<rect x="95.517" y="226.525" fill="#CCDEF0" stroke="#010101" stroke-width="0.75" stroke-linecap="round" stroke-linejoin="round" stroke-miterlimit="1" width="9" height="47.638"/>
		
			<rect x="95.517" y="303.391" fill="#CCDEF0" stroke="#010101" stroke-width="0.75" stroke-linecap="round" stroke-linejoin="round" stroke-miterlimit="1" width="9" height="18"/>
		
			<rect x="95.517" y="178.66" fill="#CCDEF0" stroke="#010101" stroke-width="0.75" stroke-linecap="round" stroke-linejoin="round" stroke-miterlimit="1" width="9" height="47.865"/>
		
			<path fill="#CCDEF0" stroke="#010101" stroke-width="0.75" stroke-linecap="round" stroke-linejoin="round" stroke-miterlimit="1" d="
			M95.517,448.007c3.149,0,5.968,0,9,0v-18h-9V448.007z"/>
		
			<rect x="95.517" y="403.82" fill="#CCDEF0" stroke="#010101" stroke-width="0.75" stroke-linecap="round" stroke-linejoin="round" stroke-miterlimit="1" width="9" height="18"/>
		
			<rect x="95.517" y="378.353" fill="#CCDEF0" stroke="#010101" stroke-width="0.75" stroke-linecap="round" stroke-linejoin="round" stroke-miterlimit="1" width="9" height="18"/>
		
			<rect x="95.517" y="352.886" fill="#CCDEF0" stroke="#010101" stroke-width="0.75" stroke-linecap="round" stroke-linejoin="round" stroke-miterlimit="1" width="9" height="18"/>
		
			<rect x="95.517" y="328.857" fill="#CCDEF0" stroke="#010101" stroke-width="0.75" stroke-linecap="round" stroke-linejoin="round" stroke-miterlimit="1" width="9" height="18"/>
	</g>
</g>
</svg>
