<?xml version="1.0" encoding="UTF-8" standalone="no"?>
<!-- Created with Inkscape (http://www.inkscape.org/) -->
<svg
   xmlns:svg="http://www.w3.org/2000/svg"
   xmlns="http://www.w3.org/2000/svg"
   version="1.0"
   width="640"
   height="610"
   id="svg2">
  <defs
     id="defs4" />
  <g
     transform="translate(20,-432.36218)"
     id="layer1">
    <path
       d="M 277.5,25 C 270.96882,25.000001 264.90828,26.92996 259.8125,30.25 C 197.83266,66.357541 215.8089,204.56715 290.625,246.65625 C 293.19741,248.72837 296.44216,250 300,250 C 308.28,250 315,243.28001 315,235 C 315,226.72 308.28,220 300,220 C 294.78505,220 290.18814,222.64529 287.5,226.6875 C 254.08199,198.41684 247.94035,136.87386 266.03125,87.875 C 269.60232,89.225443 273.45787,90 277.5,90 C 295.44,90.000003 310,75.44 310,57.5 C 310,39.559999 295.44,25 277.5,25 z M 362.5,25 C 344.56,25 329.99999,39.559999 330,57.5 C 330,75.44 344.55999,90.000003 362.5,90 C 366.54213,90 370.39767,89.225443 373.96875,87.875 C 392.05965,136.87386 385.918,198.41684 352.5,226.6875 C 349.81186,222.64529 345.21494,220 340,220 C 331.72,220 324.99999,226.72 325,235 C 325,243.28001 331.71999,250 340,250 C 343.55784,250 346.80258,248.72837 349.375,246.65625 C 424.1911,204.56715 442.16733,66.357541 380.1875,30.25 C 375.09172,26.92996 369.03117,25.000001 362.5,25 z M 113.90625,156.25 C 94.317359,156.04848 76.404534,161.27163 63.03125,173.21875 C 58.299021,177.03917 54.611996,182.22598 52.59375,188.4375 C 47.049985,205.49945 56.375547,223.83124 73.4375,229.375 C 90.499454,234.91876 108.86248,225.56195 114.40625,208.5 C 115.65534,204.6557 116.11832,200.75109 115.9375,196.9375 C 168.12858,194.87351 224.75225,219.73148 241.3125,260.25 C 236.63745,261.55746 232.70527,265.13404 231.09375,270.09375 C 228.53509,277.96849 232.84401,286.41008 240.71875,288.96875 C 248.59351,291.52741 257.06633,287.21848 259.625,279.34375 C 260.72443,275.96004 260.51955,272.49306 259.34375,269.40625 C 246.66151,206.28581 172.67292,156.85457 113.90625,156.25 z M 526.09375,156.25 C 467.32707,156.85457 393.3385,206.28581 380.65625,269.40625 C 379.48047,272.49308 379.27556,275.96004 380.375,279.34375 C 382.93365,287.21849 391.4065,291.52741 399.28125,288.96875 C 407.156,286.41009 411.46491,277.96849 408.90625,270.09375 C 407.29476,265.13403 403.36254,261.55746 398.6875,260.25 C 415.24774,219.73145 471.87142,194.87351 524.0625,196.9375 C 523.88167,200.75108 524.34467,204.65572 525.59375,208.5 C 531.13755,225.56196 549.50054,234.91877 566.5625,229.375 C 583.62442,223.83126 592.94998,205.49948 587.40625,188.4375 C 585.38798,182.226 581.70095,177.03922 576.96875,173.21875 C 563.59546,161.27163 545.68264,156.04848 526.09375,156.25 z M 56.03125,246.8125 C 42.789138,247.30308 30.643566,255.92035 26.3125,269.25 C 24.294255,275.46154 24.260887,281.84642 25.84375,287.71875 C 41.031237,357.82293 178.03894,383.42934 241.1875,325.28125 C 243.95312,323.47507 246.15057,320.78995 247.25,317.40625 C 249.80866,309.5315 245.49975,301.05867 237.625,298.5 C 229.75026,295.94135 221.27741,300.25025 218.71875,308.125 C 217.10725,313.08471 218.20506,318.28807 221.21875,322.09375 C 184.00502,345.14006 123.57279,331.9407 82.5625,299.59375 C 84.950369,296.61477 86.875913,293.18804 88.125,289.34375 C 93.668761,272.28178 84.343204,253.95001 67.28125,248.40625 C 63.548947,247.19355 59.739041,246.67514 56.03125,246.8125 z M 582.375,246.8125 C 579.17841,246.85219 575.91787,247.36679 572.71875,248.40625 C 555.65681,253.95 546.33125,272.2818 551.875,289.34375 C 553.12409,293.18806 555.04967,296.61478 557.4375,299.59375 C 516.42722,331.9407 455.99497,345.14004 418.78125,322.09375 C 421.79494,318.28806 422.89278,313.08473 421.28125,308.125 C 418.72259,300.25026 410.24974,295.94133 402.375,298.5 C 394.50025,301.05867 390.19134,309.53152 392.75,317.40625 C 393.84943,320.78995 396.04689,323.47509 398.8125,325.28125 C 461.96106,383.42935 598.96875,357.82291 614.15625,287.71875 C 615.73907,281.84641 615.7057,275.46151 613.6875,269.25 C 609.18316,255.38715 596.22688,246.64051 582.375,246.8125 z M 241.09375,361.375 C 159.16749,361.54172 73.436322,456.46577 101,519.03125 C 103.1711,524.71244 106.93492,529.81735 112.21875,533.65625 C 126.73252,544.20112 147.08014,540.98252 157.625,526.46875 C 168.16986,511.95499 164.95126,491.63861 150.4375,481.09375 C 147.16734,478.71784 143.58908,477.06898 139.90625,476.0625 C 154.07121,425.78802 195.22219,379.60384 238.875,376.375 C 238.6738,381.22527 240.84349,386.05972 245.0625,389.125 C 251.76115,393.99186 261.13314,392.51116 266,385.8125 C 270.86686,379.11383 269.38615,369.74186 262.6875,364.875 C 259.80915,362.78376 256.42408,361.89813 253.125,362.0625 C 249.12812,361.59727 245.12291,361.3668 241.09375,361.375 z M 398.90625,361.375 C 394.87709,361.3668 390.87188,361.59727 386.875,362.0625 C 383.57591,361.89816 380.19085,362.78375 377.3125,364.875 C 370.61383,369.74185 369.13314,379.11384 374,385.8125 C 378.86685,392.51115 388.23884,393.99186 394.9375,389.125 C 399.15649,386.05972 401.3262,381.22526 401.125,376.375 C 444.77784,379.60383 485.92879,425.78803 500.09375,476.0625 C 496.41093,477.069 492.83264,478.71785 489.5625,481.09375 C 475.04872,491.63863 471.83013,511.95498 482.375,526.46875 C 492.91987,540.98252 513.26745,544.2011 527.78125,533.65625 C 533.06505,529.81728 536.82885,524.71243 539,519.03125 C 566.56368,456.46576 480.83251,361.54173 398.90625,361.375 z M 285.3125,385.53125 C 280.99758,385.79786 276.83136,387.9195 274.09375,391.6875 C 269.22689,398.38615 270.70759,407.78939 277.40625,412.65625 C 281.62523,415.72153 286.8868,416.28392 291.4375,414.59375 C 301.85617,457.10783 270.6554,510.49266 227.21875,539.5 C 225.12347,536.30846 222.45765,533.40715 219.1875,531.03125 C 204.67373,520.4864 184.35737,523.73623 173.8125,538.25 C 163.26763,552.76374 166.48624,573.0801 181,583.625 C 186.28385,587.46393 192.30095,589.47195 198.375,589.78125 C 269.74122,597.00047 336.44439,474.62035 300.65625,396.59375 C 299.79308,393.40535 297.9096,390.46624 295.03125,388.375 C 292.10059,386.24575 288.66855,385.32388 285.3125,385.53125 z M 353.25,385.53125 C 350.36213,385.62959 347.48075,386.54993 344.96875,388.375 C 342.0904,390.46624 340.2069,393.40535 339.34375,396.59375 C 303.5556,474.62035 370.25879,597.00047 441.625,589.78125 C 447.69904,589.47195 453.71618,587.46393 459,583.625 C 473.51377,573.0801 476.73239,552.76373 466.1875,538.25 C 455.64264,523.73624 435.32627,520.4864 420.8125,531.03125 C 417.54234,533.40716 414.87655,536.30846 412.78125,539.5 C 369.3446,510.49266 338.14385,457.10781 348.5625,414.59375 C 353.11321,416.28392 358.37475,415.72153 362.59375,412.65625 C 369.2924,407.78939 370.7731,398.38617 365.90625,391.6875 C 362.86446,387.50084 358.06312,385.36735 353.25,385.53125 z "
       transform="translate(-20,432.36218)"
       style="opacity:1;fill:#000000;fill-opacity:1;fill-rule:nonzero;stroke:none;stroke-width:80;stroke-linecap:round;stroke-linejoin:round;stroke-miterlimit:4;stroke-dasharray:none;stroke-opacity:1"
       id="path3145" />
  </g>
</svg>
