<?xml version="1.0" encoding="utf-8"?>
<!-- $Source: /home/bbennett/pass/archive/DicomXml/docbook/part17/figures/PS3.17_SS.2-1.svg,v $ -->
<!-- $Date: 2014/05/09 13:15:43 $ -->
<!-- $Revision: 1.1 $ -->

<!DOCTYPE svg PUBLIC "-//W3C//DTD SVG 1.1//EN" "http://www.w3.org/Graphics/SVG/1.1/DTD/svg11.dtd">
<svg version="1.1" id="Layer_1" xmlns="http://www.w3.org/2000/svg" xmlns:xlink="http://www.w3.org/1999/xlink" x="0px" y="0px"
	 width="502px" height="302px" viewBox="0 0 502 302" enable-background="new 0 0 502 302" xml:space="preserve">

<defs>
	<style type="text/css">
	text {
	  font-family: Helvetica, Verdana, ArialUnicodeMS, san-serif
	}
	</style>
</defs>

<g>
   <desc>
	PS 3.17 Part 17: Explanatory Information
   </desc>
</g>

<g>
	<rect x="1" y="1" fill="#F5EED6" width="500" height="300"/>
	<g>
		<g>
			
				<polygon fill="#CCDEF0" stroke="#010101" stroke-width="0.75" stroke-linecap="round" stroke-linejoin="round" stroke-miterlimit="1" points="
				98.475,118.368 147.936,105.192 197.482,118.794 197.482,118.825 147.881,132.189 			"/>
		</g>
		<g>
			<text transform="matrix(1 0.0022 -0.0022 1 129.8901 121.0811)" font-size="7">CONTAINS</text>
		</g>
		<g>
			<g>
				
					<line fill="none" stroke="#005695" stroke-linecap="round" stroke-miterlimit="1" x1="147.979" y1="132.189" x2="147.979" y2="140.608"/>
				<g>
					<polygon fill="#005695" points="146.235,139.419 147.979,145.924 149.722,139.419 					"/>
				</g>
			</g>
		</g>
		
			<rect x="98.478" y="146.266" fill="#B2CEE7" stroke="#010101" stroke-width="0.75" stroke-linecap="round" stroke-linejoin="round" stroke-miterlimit="1" width="99.001" height="27"/>
		<g>
			<text transform="matrix(1 0 0 1 115.0972 157.4961)"><tspan x="0" y="0" font-size="7">Single Image Finding</tspan><tspan x="20.438" y="8.4" font-size="7">(CODE)</tspan></text>
		</g>
		<g>
			
				<polygon fill="#CCDEF0" stroke="#010101" stroke-width="0.75" stroke-linecap="round" stroke-linejoin="round" stroke-miterlimit="1" points="
				98.474,227.291 147.935,214.117 197.481,227.717 197.481,227.748 147.88,241.113 			"/>
		</g>
		<g>
			<g>
				
					<line fill="none" stroke="#005695" stroke-linecap="round" stroke-miterlimit="1" x1="251" y1="131.158" x2="251" y2="141.321"/>
				<g>
					<polygon fill="#005695" points="249.257,140.132 251,146.637 252.743,140.132 					"/>
				</g>
			</g>
		</g>
		<g>
			
				<polygon fill="#CCDEF0" stroke="#010101" stroke-width="0.75" stroke-linecap="round" stroke-linejoin="round" stroke-miterlimit="1" points="
				205.998,118.239 250.959,105.071 296.004,118.665 296.004,118.696 250.908,132.051 			"/>
		</g>
		<text transform="matrix(1 0 0 1 232.916 120.4893)" font-size="7">CONTAINS</text>
		
			<rect x="124.245" y="38.451" fill="#86B2D8" stroke="#010101" stroke-width="0.75" stroke-linecap="round" stroke-linejoin="round" stroke-miterlimit="1" width="135.008" height="27.001"/>
		<g>
			<text transform="matrix(1 0 0 1 157.7329 49.3633)"><tspan x="0" y="0" font-size="8">Composite Feature</tspan><tspan x="19.795" y="9.6" font-size="8">(CODE)</tspan></text>
		</g>
		
			<rect x="210.501" y="146.273" fill="#B2CEE7" stroke="#010101" stroke-width="0.75" stroke-linecap="round" stroke-linejoin="round" stroke-miterlimit="1" width="80.999" height="26.984"/>
		<g>
			<text transform="matrix(1 0 0 1 218.1201 157.4961)"><tspan x="0" y="0" font-size="7">Single Image Finding</tspan><tspan x="4.491" y="8.4" font-size="7">(CODE) from prior</tspan></text>
		</g>
		<g>
			<g>
				
					<line fill="none" stroke="#005695" stroke-linecap="round" stroke-miterlimit="1" x1="147.975" y1="241.086" x2="147.975" y2="243.086"/>
				
					<line fill="none" stroke="#005695" stroke-linecap="round" stroke-miterlimit="1" stroke-dasharray="2.7874,2.7874" x1="147.975" y1="245.873" x2="147.975" y2="250.055"/>
				
					<line fill="none" stroke="#005695" stroke-linecap="round" stroke-miterlimit="1" x1="147.975" y1="251.448" x2="147.975" y2="253.448"/>
				<g>
					<polygon fill="#005695" points="146.231,252.259 147.975,258.764 149.718,252.259 					"/>
				</g>
			</g>
		</g>
		<g>
			<g>
				
					<line fill="none" stroke="#005695" stroke-linecap="round" stroke-miterlimit="1" x1="251.001" y1="241.086" x2="251.001" y2="243.086"/>
				
					<line fill="none" stroke="#005695" stroke-linecap="round" stroke-miterlimit="1" stroke-dasharray="2.7874,2.7874" x1="251.001" y1="245.873" x2="251.001" y2="250.055"/>
				
					<line fill="none" stroke="#005695" stroke-linecap="round" stroke-miterlimit="1" x1="251.001" y1="251.448" x2="251.001" y2="253.448"/>
				<g>
					<polygon fill="#005695" points="249.258,252.259 251.001,258.764 252.744,252.259 					"/>
				</g>
			</g>
		</g>
		<g>
			<g>
				
					<line fill="none" stroke="#005695" stroke-linecap="round" stroke-miterlimit="1" x1="354.024" y1="241.086" x2="354.024" y2="251.668"/>
				<g>
					<polygon fill="#005695" points="352.281,250.479 354.024,256.983 355.768,250.479 					"/>
				</g>
			</g>
		</g>
		
			<rect x="313.523" y="258.764" fill="#B2CEE7" stroke="#010101" stroke-width="0.75" stroke-linecap="round" stroke-linejoin="round" stroke-miterlimit="1" width="81.002" height="27"/>
		<g>
			<text transform="matrix(1 0 0 1 326.0088 269.9922)"><tspan x="0" y="0" font-size="7">Source Document</tspan><tspan x="9.142" y="8.4" font-size="7">Context Info</tspan></text>
		</g>
		<g>
			<g>
				<line fill="none" stroke="#005695" stroke-linecap="round" stroke-miterlimit="1" x1="251" y1="173.67" x2="251" y2="208.394"/>
				<g>
					<polygon fill="#005695" points="249.257,207.204 251,213.709 252.743,207.204 					"/>
				</g>
			</g>
		</g>
		<g>
			<g>
				
					<line fill="none" stroke="#005695" stroke-linecap="round" stroke-miterlimit="1" x1="148.262" y1="173.67" x2="148.262" y2="208.802"/>
				<g>
					<polygon fill="#005695" points="146.519,207.612 148.262,214.117 150.005,207.612 					"/>
				</g>
			</g>
		</g>
		<g>
			<g>
				<polyline fill="none" stroke="#005695" stroke-linecap="round" stroke-miterlimit="1" points="251,192.264 353.819,192.264 
					353.819,208.802 				"/>
				<g>
					<polygon fill="#005695" points="352.076,207.612 353.819,214.117 355.562,207.612 					"/>
				</g>
			</g>
		</g>
		<g>
			<g>
				<polyline fill="none" stroke="#005695" stroke-linecap="round" stroke-miterlimit="1" points="191.749,82.485 148.262,82.485 
					148.262,99.384 				"/>
				<g>
					<polygon fill="#005695" points="146.519,98.195 148.262,104.699 150.005,98.195 					"/>
				</g>
			</g>
		</g>
		<g>
			<g>
				<polyline fill="none" stroke="#005695" stroke-linecap="round" stroke-miterlimit="1" points="191.749,65.452 191.749,82.485 
					251.205,82.485 251.205,99.384 				"/>
				<g>
					<polygon fill="#005695" points="249.462,98.195 251.205,104.699 252.948,98.195 					"/>
				</g>
			</g>
		</g>
		<g>
			<g>
				
					<line fill="none" stroke="#005695" stroke-linecap="round" stroke-miterlimit="1" x1="191.748" y1="16.236" x2="191.748" y2="33.136"/>
				<g>
					<polygon fill="#005695" points="190.005,31.947 191.748,38.451 193.491,31.947 					"/>
				</g>
			</g>
		</g>
		<text transform="matrix(1 0 0 1 117.249 229.5459)" font-size="7">HAS PROPERTIES</text>
		<g>
			
				<polygon fill="#CCDEF0" stroke="#010101" stroke-width="0.75" stroke-linecap="round" stroke-linejoin="round" stroke-miterlimit="1" points="
				201.496,227.291 250.96,214.117 300.506,227.717 300.506,227.748 250.905,241.113 			"/>
		</g>
		<text transform="matrix(1 0 0 1 220.271 229.5459)" font-size="7">HAS PROPERTIES</text>
		<g>
			
				<polygon fill="#CCDEF0" stroke="#010101" stroke-width="0.75" stroke-linecap="round" stroke-linejoin="round" stroke-miterlimit="1" points="
				304.521,227.291 353.981,214.117 403.527,227.717 403.527,227.748 353.927,241.113 			"/>
		</g>
		<text transform="matrix(1 0 0 1 320.7676 229.5459)" font-size="7">HAS OBS CONTEXT</text>
	</g>
</g>
</svg>
