<?xml version="1.0" encoding="utf-8"?>
<!-- $Source: /home/bbennett/pass/archive/DicomXml/docbook/part17/figures/PS3.17_F.3-3.svg,v $ -->
<!-- $Date: 2014/05/09 12:31:57 $ -->
<!-- $Revision: 1.2 $ -->

<!DOCTYPE svg PUBLIC "-//W3C//DTD SVG 1.1//EN" "http://www.w3.org/Graphics/SVG/1.1/DTD/svg11.dtd">
<svg version="1.1" id="Layer_1" xmlns="http://www.w3.org/2000/svg" xmlns:xlink="http://www.w3.org/1999/xlink" x="0px" y="0px"
	 width="502px" height="217px" viewBox="0 0 502 217" enable-background="new 0 0 502 217" xml:space="preserve">

<defs>
	<style type="text/css">
	text {
	  font-family: Helvetica, Verdana, ArialUnicodeMS, san-serif
	}
	</style>
</defs>

<g>
   <desc>
	PS 3.17 Part 17: Explanatory Information
   </desc>
</g>

<g>
	<rect x="1" y="1" fill="#F5EED6" width="500" height="215"/>
	<g>
		<g>
			<g>
				
					<line fill="none" stroke="#005695" stroke-linecap="round" stroke-miterlimit="1" x1="75.499" y1="170.532" x2="75.499" y2="201.87"/>
				<path fill="#005695" d="M76.524,204.232c0.5-1.654,0.959-2.729,1.492-4.055h-5.044c0.226,0.475,0.993,2.4,1.492,4.055
					c0.535,1.77,0.9,3.373,1.031,4.414C75.624,207.605,75.99,206.002,76.524,204.232z"/>
			</g>
		</g>
		<g>
			<g>
				
					<line fill="none" stroke="#005695" stroke-linecap="round" stroke-miterlimit="1" x1="75.499" y1="111.435" x2="75.499" y2="118.468"/>
				<path fill="#005695" d="M76.524,120.83c0.5-1.654,0.959-2.729,1.492-4.055h-5.044c0.226,0.475,0.993,2.4,1.492,4.055
					c0.535,1.77,0.9,3.373,1.031,4.414C75.624,124.203,75.99,122.6,76.524,120.83z"/>
			</g>
		</g>
		<g>
			<g>
				<polyline fill="none" stroke="#005695" stroke-linecap="round" stroke-miterlimit="1" points="241.823,43.771 241.823,74.231 
					75.499,74.231 75.499,79.13 				"/>
				<path fill="#005695" d="M76.524,81.492c0.5-1.653,0.959-2.728,1.492-4.054h-5.044c0.226,0.475,0.993,2.401,1.492,4.054
					c0.535,1.77,0.9,3.374,1.031,4.415C75.624,84.866,75.99,83.261,76.524,81.492z"/>
			</g>
		</g>
		<g>
			<g>
				<path fill="none" stroke="#005695" stroke-linecap="round" stroke-miterlimit="1" d="M192.498,170.534
					c0,16.555,0,31.336,0,31.336"/>
				<path fill="#005695" d="M193.523,204.232c0.5-1.654,0.959-2.729,1.492-4.055h-5.044c0.226,0.475,0.993,2.4,1.492,4.055
					c0.535,1.77,0.9,3.373,1.031,4.414C192.623,207.605,192.989,206.002,193.523,204.232z"/>
			</g>
		</g>
		<g>
			<g>
				
					<line fill="none" stroke="#005695" stroke-linecap="round" stroke-miterlimit="1" x1="192.498" y1="111.435" x2="192.498" y2="118.468"/>
				<path fill="#005695" d="M193.523,120.83c0.5-1.654,0.959-2.729,1.492-4.055h-5.044c0.226,0.475,0.993,2.4,1.492,4.055
					c0.535,1.77,0.9,3.373,1.031,4.414C192.623,124.203,192.989,122.6,193.523,120.83z"/>
			</g>
		</g>
		<g>
			<g>
				<polyline fill="none" stroke="#005695" stroke-linecap="round" stroke-miterlimit="1" points="241.823,74.231 192.499,74.231 
					192.499,79.132 				"/>
				<path fill="#005695" d="M193.524,81.494c0.5-1.653,0.959-2.728,1.492-4.054h-5.044c0.226,0.475,0.993,2.401,1.492,4.054
					c0.535,1.77,0.9,3.374,1.031,4.415C192.624,84.868,192.99,83.263,193.524,81.494z"/>
			</g>
		</g>
		<g>
			<g>
				
					<line fill="none" stroke="#005695" stroke-linecap="round" stroke-miterlimit="1" x1="426.499" y1="170.532" x2="426.499" y2="201.87"/>
				<path fill="#005695" d="M427.523,204.232c0.5-1.654,0.96-2.729,1.492-4.055h-5.045c0.227,0.475,0.993,2.4,1.492,4.055
					c0.535,1.77,0.9,3.373,1.031,4.414C426.624,207.605,426.99,206.002,427.523,204.232z"/>
			</g>
		</g>
		<g>
			<g>
				
					<line fill="none" stroke="#005695" stroke-linecap="round" stroke-miterlimit="1" x1="309.232" y1="170.532" x2="309.232" y2="201.87"/>
				<path fill="#005695" d="M310.258,204.232c0.499-1.654,0.959-2.729,1.491-4.055h-5.044c0.225,0.475,0.992,2.4,1.491,4.055
					c0.534,1.77,0.9,3.373,1.03,4.414C309.357,207.605,309.723,206.002,310.258,204.232z"/>
			</g>
		</g>
		
			<rect x="196.822" y="15.13" fill="#86B2D8" stroke="#010101" stroke-width="0.75" stroke-linecap="round" stroke-linejoin="round" stroke-miterlimit="1" width="90.003" height="36.002"/>
		<g>
			<text transform="matrix(1 0 0 1 231.3745 29.2925)"><tspan x="0" y="0" font-size="8">Chest</tspan><tspan x="-11.113" y="9.6" font-size="8">CAD Report</tspan><tspan x="-13.107" y="19.2" font-size="8">CONTAINER</tspan></text>
		</g>
		
			<rect x="381.5" y="125.532" fill="#B2CEE7" stroke="#010101" stroke-width="0.75" stroke-linecap="round" stroke-linejoin="round" stroke-miterlimit="1" width="90.002" height="45"/>
		<g>
			<text transform="matrix(1 0 0 1 404.9395 135.8564)"><tspan x="0" y="0" font-size="8">Summary of</tspan><tspan x="5.33" y="9.601" font-size="8">Analyses</tspan><tspan x="-17.787" y="19.2" font-size="8">CODE: Not Attempted</tspan><tspan x="16" y="28.8" font-size="8">1.4</tspan></text>
		</g>
		
			<rect x="147.499" y="125.532" fill="#B2CEE7" stroke="#010101" stroke-width="0.75" stroke-linecap="round" stroke-linejoin="round" stroke-miterlimit="1" width="90" height="45"/>
		<g>
			<text transform="matrix(1 0 0 1 155.3696 135.8564)"><tspan x="0" y="0" font-size="8">CAD Processing and</tspan><tspan x="3.785" y="9.601" font-size="8">Findings Summary</tspan><tspan x="25.572" y="19.2" font-size="8">CODE</tspan><tspan x="31.568" y="28.8" font-size="8">1.2</tspan></text>
		</g>
		
			<rect x="264.499" y="125.532" fill="#B2CEE7" stroke="#010101" stroke-width="0.75" stroke-linecap="round" stroke-linejoin="round" stroke-miterlimit="1" width="90.001" height="45"/>
		<g>
			<text transform="matrix(1 0 0 1 287.9414 135.8564)"><tspan x="0" y="0" font-size="8">Summary of</tspan><tspan x="2.662" y="9.601" font-size="8">Detections</tspan><tspan x="-12.234" y="19.2" font-size="8">CODE: Succeeded</tspan><tspan x="16" y="28.8" font-size="8">1.3</tspan></text>
		</g>
		
			<rect x="30.499" y="125.532" fill="#B2CEE7" stroke="#010101" stroke-width="0.75" stroke-linecap="round" stroke-linejoin="round" stroke-miterlimit="1" width="90" height="45"/>
		<g>
			<text transform="matrix(1 0 0 1 51.0454 140.6562)"><tspan x="0" y="0" font-size="8">Image Library</tspan><tspan x="0.898" y="9.6" font-size="8">CONTAINER</tspan><tspan x="18.895" y="19.2" font-size="8">1.1</tspan></text>
		</g>
		<g>
			<g>
				
					<line fill="none" stroke="#005695" stroke-linecap="round" stroke-miterlimit="1" x1="426.499" y1="111.435" x2="426.499" y2="118.468"/>
				<path fill="#005695" d="M427.523,120.83c0.5-1.654,0.96-2.729,1.492-4.055h-5.045c0.227,0.475,0.993,2.4,1.492,4.055
					c0.535,1.77,0.9,3.373,1.031,4.414C426.624,124.203,426.99,122.6,427.523,120.83z"/>
			</g>
		</g>
		<g>
			<g>
				<polyline fill="none" stroke="#005695" stroke-linecap="round" stroke-miterlimit="1" points="309.406,74.231 426.499,74.231 
					426.499,79.13 				"/>
				<path fill="#005695" d="M427.523,81.492c0.5-1.653,0.96-2.728,1.492-4.054h-5.045c0.227,0.475,0.993,2.401,1.492,4.054
					c0.535,1.77,0.9,3.374,1.031,4.415C426.624,84.866,426.99,83.261,427.523,81.492z"/>
			</g>
		</g>
		<g>
			<g>
				
					<line fill="none" stroke="#005695" stroke-linecap="round" stroke-miterlimit="1" x1="309.232" y1="111.435" x2="309.232" y2="118.468"/>
				<path fill="#005695" d="M310.258,120.83c0.499-1.654,0.959-2.729,1.491-4.055h-5.044c0.225,0.475,0.992,2.4,1.491,4.055
					c0.534,1.77,0.9,3.373,1.03,4.414C309.357,124.203,309.723,122.6,310.258,120.83z"/>
			</g>
		</g>
		<g>
			<g>
				<polyline fill="none" stroke="#005695" stroke-linecap="round" stroke-miterlimit="1" points="241.763,74.231 309.232,74.231 
					309.232,79.13 				"/>
				<path fill="#005695" d="M310.258,81.492c0.499-1.653,0.959-2.728,1.491-4.054h-5.044c0.225,0.475,0.992,2.401,1.491,4.054
					c0.534,1.77,0.9,3.374,1.03,4.415C309.357,84.866,309.723,83.261,310.258,81.492z"/>
			</g>
		</g>
		
			<polygon fill="#CCDEF0" stroke="#010101" stroke-width="0.75" stroke-linecap="round" stroke-linejoin="round" stroke-miterlimit="1" points="
			381.5,97.613 426.46,84.437 471.5,98.039 471.5,98.07 426.412,111.435 		"/>
		<text transform="matrix(1 0 0 1 408.416 99.8833)" font-size="7">CONTAINS</text>
		
			<polygon fill="#CCDEF0" stroke="#010101" stroke-width="0.75" stroke-linecap="round" stroke-linejoin="round" stroke-miterlimit="1" points="
			264.502,97.613 309.462,84.437 354.502,98.039 354.502,98.07 309.414,111.435 		"/>
		<text transform="matrix(1 0 0 1 291.418 99.8833)" font-size="7">CONTAINS</text>
		
			<polygon fill="#CCDEF0" stroke="#010101" stroke-width="0.75" stroke-linecap="round" stroke-linejoin="round" stroke-miterlimit="1" points="
			147.504,97.613 192.464,84.437 237.504,98.039 237.504,98.07 192.416,111.435 		"/>
		<text transform="matrix(1 0 0 1 174.4204 99.8833)" font-size="7">CONTAINS</text>
		
			<polygon fill="#CCDEF0" stroke="#010101" stroke-width="0.75" stroke-linecap="round" stroke-linejoin="round" stroke-miterlimit="1" points="
			30.506,97.613 75.466,84.437 120.506,98.039 120.506,98.07 75.418,111.435 		"/>
		<text transform="matrix(1 0 0 1 57.4229 99.8833)" font-size="7">CONTAINS</text>
	</g>
</g>
</svg>
