<?xml version="1.0" encoding="utf-8"?>
<!-- $Source: /home/bbennett/pass/archive/DicomXml/docbook/part17/figures/PS3.17_KKK.1-1.svg,v $ -->
<!-- $Date: 2014/05/09 13:15:43 $ -->
<!-- $Revision: 1.1 $ -->

<!DOCTYPE svg PUBLIC "-//W3C//DTD SVG 1.1//EN" "http://www.w3.org/Graphics/SVG/1.1/DTD/svg11.dtd">
<svg version="1.1" id="Layer_1" xmlns="http://www.w3.org/2000/svg" xmlns:xlink="http://www.w3.org/1999/xlink" x="0px" y="0px"
	 width="502px" height="372px" viewBox="0 0 502 372" enable-background="new 0 0 502 372" xml:space="preserve">

<defs>
	<style type="text/css">
	text {
	  font-family: Helvetica, Verdana, ArialUnicodeMS, san-serif
	}
	</style>
</defs>

<g>
   <desc>
	PS 3.17 Part 17: Explanatory Information
   </desc>
</g>

<g>
	<rect x="1" y="1" fill="#F5EED6" width="500" height="370"/>
	<g>
		<g>
			<rect x="388.63" y="25.506" fill="#CCDEF0" width="62.97" height="240.132"/>
			<rect x="50.401" y="25.506" fill="#CCDEF0" width="62.97" height="240.132"/>
			
				<rect x="261.447" y="25.506" fill="#86B2D8" stroke="#010101" stroke-width="0.9444" stroke-miterlimit="10" width="88" height="240.132"/>
			
				<line fill="none" stroke="#ED1C24" stroke-linecap="round" stroke-miterlimit="1" x1="341.865" y1="206.582" x2="381.062" y2="206.582"/>
			<polygon fill="#ED1C24" points="342.855,208.035 337.436,206.582 342.855,205.131 			"/>
			<polygon fill="#ED1C24" points="380.072,208.035 385.492,206.582 380.072,205.131 			"/>
			
				<line fill="none" stroke="#ED1C24" stroke-linecap="round" stroke-miterlimit="1" x1="341.865" y1="210.625" x2="381.062" y2="210.625"/>
			<polygon fill="#ED1C24" points="342.855,212.078 337.436,210.625 342.855,209.172 			"/>
			<polygon fill="#ED1C24" points="380.072,212.078 385.492,210.625 380.072,209.172 			"/>
			
				<line fill="none" stroke="#ED1C24" stroke-linecap="round" stroke-miterlimit="1" x1="341.865" y1="214.666" x2="381.062" y2="214.666"/>
			<polygon fill="#ED1C24" points="342.855,216.119 337.436,214.666 342.855,213.215 			"/>
			<polygon fill="#ED1C24" points="380.072,216.119 385.492,214.666 380.072,213.215 			"/>
			
				<line fill="none" stroke="#ED1C24" stroke-linecap="round" stroke-miterlimit="1" x1="341.865" y1="222.75" x2="381.062" y2="222.75"/>
			<polygon fill="#ED1C24" points="342.855,224.203 337.436,222.75 342.855,221.299 			"/>
			<polygon fill="#ED1C24" points="380.072,224.203 385.492,222.75 380.072,221.299 			"/>
			
				<line fill="none" stroke="#ED1C24" stroke-linecap="round" stroke-miterlimit="1" x1="341.865" y1="218.709" x2="381.062" y2="218.709"/>
			<polygon fill="#ED1C24" points="342.855,220.162 337.436,218.709 342.855,217.256 			"/>
			<polygon fill="#ED1C24" points="380.072,220.162 385.492,218.709 380.072,217.256 			"/>
			
				<line fill="none" stroke="#ED1C24" stroke-linecap="round" stroke-miterlimit="1" x1="341.865" y1="226.793" x2="381.062" y2="226.793"/>
			<polygon fill="#ED1C24" points="342.855,228.244 337.436,226.793 342.855,225.34 			"/>
			<polygon fill="#ED1C24" points="380.072,228.244 385.492,226.793 380.072,225.34 			"/>
			<path fill="#005695" d="M85.48,86.573c0-0.823-0.086-1.617-0.238-2.368l7.078-2.201l10.715,4.112l-21.509,8.4
				C83.83,93.35,85.48,90.232,85.48,86.573"/>
			<path fill="none" stroke="#000000" stroke-width="0.6592" d="M85.48,86.573c0-0.823-0.086-1.617-0.238-2.368l7.078-2.201
				l10.715,4.112l-21.509,8.4C83.83,93.35,85.48,90.232,85.48,86.573z"/>
			<path fill="#D1D3D4" d="M94.196,71.423l-2.578,37.591L69.201,96.245l-0.849-26.953L94.196,71.423z M73.636,86.501
				c0,4.659,2.668,8.435,5.957,8.435c3.292,0,5.957-3.775,5.957-8.435c0-4.656-2.665-8.433-5.957-8.433
				C76.304,78.069,73.636,81.845,73.636,86.501"/>
			<path fill="none" stroke="#000000" stroke-width="0.6592" stroke-linecap="round" stroke-linejoin="round" d="M94.196,71.423
				l-2.578,37.591L69.201,96.245l-0.849-26.953L94.196,71.423z M79.593,94.936c3.292,0,5.957-3.775,5.957-8.435
				c0-4.656-2.665-8.433-5.957-8.433c-3.289,0-5.957,3.776-5.957,8.433C73.636,91.161,76.304,94.936,79.593,94.936z"/>
			<polygon fill="#FFFFFF" points="95.864,105.604 99.191,70.814 94.195,71.423 91.618,109.014 			"/>
			<polygon fill="none" stroke="#000000" stroke-width="0.6592" stroke-linecap="round" stroke-linejoin="round" points="
				95.864,105.604 99.191,70.814 94.195,71.423 91.618,109.014 			"/>
			<path fill="#939598" d="M82.286,94.029c-0.808,0.58-1.723,0.907-2.693,0.907c-3.289,0-5.957-3.775-5.957-8.435
				c0-4.656,2.668-8.432,5.957-8.432c1.082,0,2.097,0.404,2.968,1.118h0.01c-2.362,0.382-4.21,3.573-4.21,7.449
				C78.36,90.359,80.06,93.446,82.286,94.029L82.286,94.029z"/>
			<path fill="none" stroke="#000000" stroke-width="0.6592" stroke-linecap="round" stroke-linejoin="round" d="M82.286,94.029
				c-0.808,0.58-1.723,0.907-2.693,0.907c-3.289,0-5.957-3.775-5.957-8.435c0-4.656,2.668-8.432,5.957-8.432
				c1.082,0,2.097,0.404,2.968,1.118h0.01c-2.362,0.382-4.21,3.573-4.21,7.449C78.36,90.359,80.06,93.446,82.286,94.029
				L82.286,94.029z"/>
			<polygon fill="#939598" points="99.19,70.814 73.487,69.014 68.353,69.292 94.195,71.423 			"/>
			<polygon fill="none" stroke="#000000" stroke-width="0.6592" stroke-linecap="round" stroke-linejoin="round" points="
				99.19,70.814 73.487,69.014 68.353,69.292 94.195,71.423 			"/>
			<path fill="#005695" d="M54.731,93.684l30.511-9.479c0.152,0.75,0.238,1.544,0.238,2.368c0,3.661-1.65,6.777-3.954,7.944
				l-18.327,7.158L54.731,93.684z"/>
			<path fill="none" stroke="#000000" stroke-width="0.6592" d="M54.731,93.684l30.511-9.479c0.152,0.75,0.238,1.544,0.238,2.368
				c0,3.661-1.65,6.777-3.954,7.944l-18.327,7.158L54.731,93.684z"/>
			<path fill="#B2CEE7" d="M84.018,86.199l-0.316,0.05l-2.158,0.326l-0.116-0.004l-0.259-0.16l-0.063-0.058l-0.202-0.293
				l-0.129-0.39l-0.032-0.408l0.071-0.348l0.036-0.085l0.177-0.242l0.104-0.061l2.086-0.711l1.339-0.445l0.352-0.075l0.108-0.005
				c0.248,0.828,0.4,1.723,0.45,2.661l-0.031,0.015L84.018,86.199z"/>
			<path fill="none" stroke="#000000" stroke-width="0.6592" d="M84.018,86.199l-0.316,0.05l-2.158,0.326l-0.116-0.004l-0.259-0.16
				l-0.063-0.058l-0.202-0.293l-0.129-0.39l-0.032-0.408l0.071-0.348l0.036-0.085l0.177-0.242l0.104-0.061l2.086-0.711l1.339-0.445
				l0.352-0.075l0.108-0.005c0.248,0.828,0.4,1.723,0.45,2.661l-0.031,0.015L84.018,86.199z"/>
			<path fill="#B2CEE7" d="M85.288,85.639l0.12-0.375c0.045,0.416,0.072,0.842,0.072,1.276l-0.114-0.235L85.288,85.639z"/>
			<path fill="none" stroke="#000000" stroke-width="0.6592" d="M85.288,85.639l0.12-0.375c0.045,0.416,0.072,0.842,0.072,1.276
				l-0.114-0.235L85.288,85.639z"/>
			<polygon fill="#B2CEE7" points="79.918,85.265 80.113,84.977 80.372,84.793 80.595,84.753 80.931,84.693 81.213,84.817 
				81.477,84.964 81.649,85.246 81.747,85.481 81.77,85.791 81.672,86.121 81.477,86.407 81.22,86.593 80.949,86.646 80.66,86.689 
				80.374,86.572 80.116,86.42 79.939,86.141 79.852,85.902 79.824,85.596 			"/>
			<polygon fill="none" stroke="#000000" stroke-width="0.6592" points="79.918,85.265 80.113,84.977 80.372,84.793 80.595,84.753 
				80.931,84.693 81.213,84.817 81.477,84.964 81.649,85.246 81.747,85.481 81.77,85.791 81.672,86.121 81.477,86.407 81.22,86.593 
				80.949,86.646 80.66,86.689 80.374,86.572 80.116,86.42 79.939,86.141 79.852,85.902 79.824,85.596 			"/>
			<polygon fill="#B2CEE7" points="75.089,86.069 75.132,85.983 75.295,85.764 75.421,85.702 77.294,85.114 77.589,85.052 
				79.749,84.753 80.055,84.756 80.224,84.812 80.481,84.954 80.696,85.267 80.721,85.312 80.833,85.688 80.845,86.078 
				80.836,86.126 80.733,86.497 80.537,86.726 80.395,86.834 80.11,86.948 77.985,87.432 77.688,87.477 75.737,87.59 75.601,87.581 
				75.375,87.433 75.308,87.366 75.138,87.098 75.036,86.748 75.019,86.382 			"/>
			<polygon fill="none" stroke="#000000" stroke-width="0.6592" points="75.089,86.069 75.132,85.983 75.295,85.764 75.421,85.702 
				77.294,85.114 77.589,85.052 79.749,84.753 80.055,84.756 80.224,84.812 80.481,84.954 80.696,85.267 80.721,85.312 
				80.833,85.688 80.845,86.078 80.836,86.126 80.733,86.497 80.537,86.726 80.395,86.834 80.11,86.948 77.985,87.432 
				77.688,87.477 75.737,87.59 75.601,87.581 75.375,87.433 75.308,87.366 75.138,87.098 75.036,86.748 75.019,86.382 			"/>
			<path fill="#B2CEE7" d="M84.214,88.342l-0.442-0.539l-0.278-0.708l-0.064-0.745l0.161-0.641l0.391-0.497l0.453-0.514l0.702-0.219
				l0.154-0.032c0.123,0.679,0.19,1.391,0.19,2.126c0,0.756-0.07,1.489-0.204,2.189l-0.542-0.157L84.214,88.342z"/>
			<path fill="none" stroke="#000000" stroke-width="0.6592" d="M84.214,88.342l-0.442-0.539l-0.278-0.708l-0.064-0.745l0.161-0.641
				l0.391-0.497l0.453-0.514l0.702-0.219l0.154-0.032c0.123,0.679,0.19,1.391,0.19,2.126c0,0.756-0.07,1.489-0.204,2.189
				l-0.542-0.157L84.214,88.342z"/>
			<path fill="#B2CEE7" d="M79.505,86.491l0.042-0.09l0.509-0.458l0.582-0.408l0.896-0.292l1.962-0.138l0.673-0.046l0.729,0.34
				l0.063,0.034l0.503,0.517c0.01,0.207,0.017,0.412,0.017,0.623c0,0.813-0.081,1.596-0.232,2.339l-1.486,0.999l-0.901,0.31
				l-0.767,0.032l-0.735-0.01l-0.105-0.042l-0.749-0.416l-0.646-0.73l-0.014-0.023l-0.4-0.859l-0.012-0.021l-0.125-0.913
				L79.505,86.491z"/>
			<path fill="none" stroke="#000000" stroke-width="0.6592" d="M79.505,86.491l0.042-0.09l0.509-0.458l0.582-0.408l0.896-0.292
				l1.962-0.138l0.673-0.046l0.729,0.34l0.063,0.034l0.503,0.517c0.01,0.207,0.017,0.412,0.017,0.623
				c0,0.813-0.081,1.596-0.232,2.339l-1.486,0.999l-0.901,0.31l-0.767,0.032l-0.735-0.01l-0.105-0.042l-0.749-0.416l-0.646-0.73
				l-0.014-0.023l-0.4-0.859l-0.012-0.021l-0.125-0.913L79.505,86.491z"/>
			<polygon fill="#B2CEE7" points="74.113,86.441 74.271,86.184 74.494,86.005 74.743,85.942 74.961,85.901 75.237,85.981 
				75.447,86.109 75.633,86.336 75.697,86.555 75.745,86.812 75.685,87.101 75.528,87.358 75.306,87.542 75.058,87.606 
				74.839,87.643 74.563,87.566 74.357,87.43 74.169,87.21 74.106,86.987 74.056,86.729 			"/>
			<polygon fill="none" stroke="#000000" stroke-width="0.6592" points="74.113,86.441 74.271,86.184 74.494,86.005 74.743,85.942 
				74.961,85.901 75.237,85.981 75.447,86.109 75.633,86.336 75.697,86.555 75.745,86.812 75.685,87.101 75.528,87.358 
				75.306,87.542 75.058,87.606 74.839,87.643 74.563,87.566 74.357,87.43 74.169,87.21 74.106,86.987 74.056,86.729 			"/>
			<polygon fill="#B2CEE7" points="77.65,87.437 77.745,87.034 77.946,86.777 78.305,86.426 78.792,86.32 79.136,86.256 
				79.587,86.431 79.877,86.592 80.125,86.941 80.211,87.126 80.293,87.381 80.307,87.647 80.302,87.886 80.194,88.292 
				79.981,88.538 79.63,88.896 79.143,89.01 78.803,89.057 78.349,88.897 78.063,88.723 77.826,88.373 77.725,88.196 77.639,87.94 
				77.621,87.672 			"/>
			<polygon fill="none" stroke="#000000" stroke-width="0.6592" points="77.65,87.437 77.745,87.034 77.946,86.777 78.305,86.426 
				78.792,86.32 79.136,86.256 79.587,86.431 79.877,86.592 80.125,86.941 80.211,87.126 80.293,87.381 80.307,87.647 
				80.302,87.886 80.194,88.292 79.981,88.538 79.63,88.896 79.143,89.01 78.803,89.057 78.349,88.897 78.063,88.723 77.826,88.373 
				77.725,88.196 77.639,87.94 77.621,87.672 			"/>
			<polygon fill="#B2CEE7" points="71.447,87.317 71.651,87.044 71.776,86.988 72.729,86.573 73.333,86.468 74.053,86.489 
				74.214,86.527 74.489,86.644 74.59,86.708 74.682,86.805 74.743,86.915 74.765,87.016 74.708,87.196 74.665,87.323 
				74.195,87.652 74.036,87.72 73.477,87.919 72.357,88.043 71.885,87.937 71.77,87.906 71.643,87.818 71.564,87.761 71.498,87.683 
				71.448,87.594 71.436,87.516 71.421,87.412 			"/>
			<polygon fill="none" stroke="#000000" stroke-width="0.6592" points="71.447,87.317 71.651,87.044 71.776,86.988 72.729,86.573 
				73.333,86.468 74.053,86.489 74.214,86.527 74.489,86.644 74.59,86.708 74.682,86.805 74.743,86.915 74.765,87.016 
				74.708,87.196 74.665,87.323 74.195,87.652 74.036,87.72 73.477,87.919 72.357,88.043 71.885,87.937 71.77,87.906 71.643,87.818 
				71.564,87.761 71.498,87.683 71.448,87.594 71.436,87.516 71.421,87.412 			"/>
			<polygon fill="#B2CEE7" points="70.539,88.61 70.563,88.542 70.753,88.264 70.868,88.2 71.137,88.151 71.22,88.145 
				71.215,88.145 71.22,88.145 71.36,88.132 71.22,88.145 74.847,87.098 77.431,86.401 77.815,86.325 78.137,86.492 78.488,86.694 
				78.789,87.131 78.977,87.707 79.013,88.308 78.886,88.812 78.7,89.052 78.397,89.405 75.741,89.896 71.835,90.55 71.624,90.627 
				71.35,90.659 71.224,90.655 70.939,90.452 70.894,90.4 70.662,90.025 70.51,89.539 70.466,89.035 			"/>
			<polygon fill="none" stroke="#000000" stroke-width="0.6592" points="70.539,88.61 70.563,88.542 70.753,88.264 70.868,88.2 
				71.137,88.151 71.22,88.145 71.215,88.145 71.22,88.145 71.36,88.132 71.22,88.145 74.847,87.098 77.431,86.401 77.815,86.325 
				78.137,86.492 78.488,86.694 78.789,87.131 78.977,87.707 79.013,88.308 78.886,88.812 78.7,89.052 78.397,89.405 75.741,89.896 
				71.835,90.55 71.624,90.627 71.35,90.659 71.224,90.655 70.939,90.452 70.894,90.4 70.662,90.025 70.51,89.539 70.466,89.035 			
				"/>
			<polygon fill="#B2CEE7" points="80.322,88.479 80.568,88.155 80.878,87.826 81.33,87.687 81.748,87.621 82.167,87.77 
				82.517,87.936 82.816,88.292 83,88.764 83.027,89.261 82.901,89.676 82.666,90.009 82.343,90.324 81.895,90.476 81.479,90.527 
				81.053,90.392 80.707,90.217 80.42,89.857 80.237,89.387 80.205,88.897 			"/>
			<polygon fill="none" stroke="#000000" stroke-width="0.6592" points="80.322,88.479 80.568,88.155 80.878,87.826 81.33,87.687 
				81.748,87.621 82.167,87.77 82.517,87.936 82.816,88.292 83,88.764 83.027,89.261 82.901,89.676 82.666,90.009 82.343,90.324 
				81.895,90.476 81.479,90.527 81.053,90.392 80.707,90.217 80.42,89.857 80.237,89.387 80.205,88.897 			"/>
			<path fill="#B2CEE7" d="M82.396,91.305h-0.13l-0.315-0.158l-0.056-0.063l-0.234-0.291l-0.143-0.378l-0.021-0.398l0.004-0.063
				l0.115-0.377l0.23-0.235l0.114-0.077l1.714-0.812l1.717-0.438c-0.127,1.061-0.397,2.054-0.779,2.938l-1.897,0.314L82.396,91.305z
				"/>
			<path fill="none" stroke="#000000" stroke-width="0.6592" d="M82.396,91.305h-0.13l-0.315-0.158l-0.056-0.063l-0.234-0.291
				l-0.143-0.378l-0.021-0.398l0.004-0.063l0.115-0.377l0.23-0.235l0.114-0.077l1.714-0.812l1.717-0.438
				c-0.127,1.061-0.397,2.054-0.779,2.938l-1.897,0.314L82.396,91.305z"/>
			<polygon fill="#B2CEE7" points="73.455,90.961 73.562,90.494 73.806,90.202 73.91,90.131 74.13,90.094 77.649,88.732 
				80.043,87.85 80.522,87.769 81.027,88.014 81.251,88.129 81.618,88.574 81.847,89.167 81.887,89.782 81.732,90.301 
				81.594,90.568 81.225,90.931 78.743,91.612 75.053,92.548 74.856,92.644 74.506,92.681 74.385,92.684 74.022,92.471 
				73.98,92.425 73.689,92.035 73.499,91.531 73.451,91.007 			"/>
			<polygon fill="none" stroke="#000000" stroke-width="0.6592" points="73.455,90.961 73.562,90.494 73.806,90.202 73.91,90.131 
				74.13,90.094 77.649,88.732 80.043,87.85 80.522,87.769 81.027,88.014 81.251,88.129 81.618,88.574 81.847,89.167 81.887,89.782 
				81.732,90.301 81.594,90.568 81.225,90.931 78.743,91.612 75.053,92.548 74.856,92.644 74.506,92.681 74.385,92.684 
				74.022,92.471 73.98,92.425 73.689,92.035 73.499,91.531 73.451,91.007 			"/>
			<polygon fill="#B2CEE7" points="69.59,89.203 69.685,89.017 69.952,88.66 70.351,88.48 70.567,88.442 70.977,88.484 
				71.194,88.616 71.438,88.807 71.556,88.957 71.65,89.15 71.7,89.35 71.695,89.519 71.664,89.901 71.562,90.084 71.302,90.441 
				70.903,90.627 70.685,90.655 70.275,90.62 70.062,90.481 69.816,90.299 69.699,90.147 69.604,89.953 69.551,89.753 
				69.551,89.583 			"/>
			<polygon fill="none" stroke="#000000" stroke-width="0.6592" points="69.59,89.203 69.685,89.017 69.952,88.66 70.351,88.48 
				70.567,88.442 70.977,88.484 71.194,88.616 71.438,88.807 71.556,88.957 71.65,89.15 71.7,89.35 71.695,89.519 71.664,89.901 
				71.562,90.084 71.302,90.441 70.903,90.627 70.685,90.655 70.275,90.62 70.062,90.481 69.816,90.299 69.699,90.147 
				69.604,89.953 69.551,89.753 69.551,89.583 			"/>
			<polygon fill="#B2CEE7" points="60.626,93.155 60.695,92.957 61.3,92.523 62.618,91.868 65.755,90.206 69.014,88.842 
				69.267,88.798 69.75,88.719 69.951,88.816 70.196,88.97 70.443,89.279 70.64,89.683 70.744,90.102 70.74,90.445 70.684,90.643 
				70.549,90.885 70.159,91.214 66.997,92.783 63.677,94.072 62.318,94.642 61.585,94.817 61.427,94.822 61.251,94.721 
				61.073,94.576 60.885,94.304 60.721,93.961 60.616,93.618 60.586,93.335 			"/>
			<polygon fill="none" stroke="#000000" stroke-width="0.6592" points="60.626,93.155 60.695,92.957 61.3,92.523 62.618,91.868 
				65.755,90.206 69.014,88.842 69.267,88.798 69.75,88.719 69.951,88.816 70.196,88.97 70.443,89.279 70.64,89.683 70.744,90.102 
				70.74,90.445 70.684,90.643 70.549,90.885 70.159,91.214 66.997,92.783 63.677,94.072 62.318,94.642 61.585,94.817 
				61.427,94.822 61.251,94.721 61.073,94.576 60.885,94.304 60.721,93.961 60.616,93.618 60.586,93.335 			"/>
			<polygon fill="#B2CEE7" points="80.731,90.185 80.89,89.891 81.105,89.678 81.34,89.584 81.64,89.54 81.893,89.601 
				82.188,89.743 82.352,89.969 82.497,90.219 82.531,90.492 82.46,90.806 82.443,90.851 82.356,91.014 82.304,91.099 
				82.087,91.314 81.854,91.409 81.554,91.446 81.3,91.393 81.01,91.243 80.84,91.024 80.699,90.771 80.662,90.5 			"/>
			<polygon fill="none" stroke="#000000" stroke-width="0.6592" points="80.731,90.185 80.89,89.891 81.105,89.678 81.34,89.584 
				81.64,89.54 81.893,89.601 82.188,89.743 82.352,89.969 82.497,90.219 82.531,90.492 82.46,90.806 82.443,90.851 82.356,91.014 
				82.304,91.099 82.087,91.314 81.854,91.409 81.554,91.446 81.3,91.393 81.01,91.243 80.84,91.024 80.699,90.771 80.662,90.5 			
				"/>
			<polygon fill="#B2CEE7" points="78.243,91.218 78.316,91.059 79.133,90.527 79.378,90.446 79.962,90.28 80.688,90.246 
				80.92,90.286 81.192,90.392 81.338,90.46 81.465,90.569 81.548,90.688 81.576,90.795 81.611,91.018 81.543,91.152 81.171,91.569 
				80.668,91.838 80.419,91.91 79.315,92.147 78.816,92.067 78.646,92.034 78.46,91.934 78.299,91.79 78.188,91.632 78.153,91.49 
							"/>
			<polygon fill="none" stroke="#000000" stroke-width="0.6592" points="78.243,91.218 78.316,91.059 79.133,90.527 79.378,90.446 
				79.962,90.28 80.688,90.246 80.92,90.286 81.192,90.392 81.338,90.46 81.465,90.569 81.548,90.688 81.576,90.795 81.611,91.018 
				81.543,91.152 81.171,91.569 80.668,91.838 80.419,91.91 79.315,92.147 78.816,92.067 78.646,92.034 78.46,91.934 78.299,91.79 
				78.188,91.632 78.153,91.49 			"/>
			<polygon fill="#B2CEE7" points="72.679,91.608 72.709,91.194 72.827,91.012 73.1,90.632 73.511,90.438 73.761,90.417 
				74.176,90.454 74.415,90.604 74.647,90.793 74.778,90.952 74.875,91.16 74.921,91.366 74.912,91.647 74.886,91.951 
				74.649,92.296 74.493,92.51 74.084,92.709 73.838,92.721 73.419,92.692 73.184,92.534 72.944,92.354 72.815,92.191 
				72.719,91.985 72.671,91.777 			"/>
			<polygon fill="none" stroke="#000000" stroke-width="0.6592" points="72.679,91.608 72.709,91.194 72.827,91.012 73.1,90.632 
				73.511,90.438 73.761,90.417 74.176,90.454 74.415,90.604 74.647,90.793 74.778,90.952 74.875,91.16 74.921,91.366 
				74.912,91.647 74.886,91.951 74.649,92.296 74.493,92.51 74.084,92.709 73.838,92.721 73.419,92.692 73.184,92.534 
				72.944,92.354 72.815,92.191 72.719,91.985 72.671,91.777 			"/>
			<polygon fill="#B2CEE7" points="63.455,95.481 63.546,95.292 64.171,94.822 65.538,94.114 68.773,92.315 72.131,90.834 
				72.657,90.745 72.923,90.723 73.121,90.818 73.394,90.994 73.661,91.332 73.862,91.761 73.962,92.194 73.939,92.543 
				73.886,92.757 73.723,92.988 73.319,93.343 70.066,95.042 66.638,96.446 65.231,97.069 64.474,97.263 64.29,97.25 64.112,97.147 
				63.912,96.979 63.708,96.684 63.537,96.321 63.435,95.964 63.418,95.678 			"/>
			<polygon fill="none" stroke="#000000" stroke-width="0.6592" points="63.455,95.481 63.546,95.292 64.171,94.822 65.538,94.114 
				68.773,92.315 72.131,90.834 72.657,90.745 72.923,90.723 73.121,90.818 73.394,90.994 73.661,91.332 73.862,91.761 
				73.962,92.194 73.939,92.543 73.886,92.757 73.723,92.988 73.319,93.343 70.066,95.042 66.638,96.446 65.231,97.069 
				64.474,97.263 64.29,97.25 64.112,97.147 63.912,96.979 63.708,96.684 63.537,96.321 63.435,95.964 63.418,95.678 			"/>
			<polygon fill="#B2CEE7" points="59.42,93.897 59.489,93.781 59.769,93.492 60.155,93.348 60.316,93.355 60.701,93.381 
				61.01,93.564 61.098,93.638 61.188,93.762 61.261,93.918 61.298,94.072 61.295,94.192 61.22,94.514 61.144,94.626 60.869,94.917 
				60.483,95.068 60.062,95.047 59.935,95.034 59.622,94.853 59.533,94.777 59.447,94.649 59.375,94.491 59.336,94.341 
				59.336,94.218 			"/>
			<polygon fill="none" stroke="#000000" stroke-width="0.6592" points="59.42,93.897 59.489,93.781 59.769,93.492 60.155,93.348 
				60.316,93.355 60.701,93.381 61.01,93.564 61.098,93.638 61.188,93.762 61.261,93.918 61.298,94.072 61.295,94.192 61.22,94.514 
				61.144,94.626 60.869,94.917 60.483,95.068 60.062,95.047 59.935,95.034 59.622,94.853 59.533,94.777 59.447,94.649 
				59.375,94.491 59.336,94.341 59.336,94.218 			"/>
			<polygon fill="#B2CEE7" points="59.635,93.804 58.993,90.476 58.765,90.003 58.666,89.868 58.52,89.728 58.39,89.655 
				58.312,89.654 58.473,89.621 58.648,89.631 58.802,89.678 58.902,89.755 59.237,90.03 59.29,90.193 60.057,93.374 60.204,94.518 
				60.136,95.036 60.035,95.248 59.784,95.407 59.791,94.948 			"/>
			<polygon fill="none" stroke="#000000" stroke-width="0.6592" points="59.635,93.804 58.993,90.476 58.765,90.003 58.666,89.868 
				58.52,89.728 58.39,89.655 58.312,89.654 58.473,89.621 58.648,89.631 58.802,89.678 58.902,89.755 59.237,90.03 59.29,90.193 
				60.057,93.374 60.204,94.518 60.136,95.036 60.035,95.248 59.784,95.407 59.791,94.948 			"/>
			<polygon fill="#B2CEE7" points="58.521,89.728 58.666,89.868 58.764,90.003 58.989,90.476 59.638,93.804 59.791,94.948 
				59.783,95.407 59.72,95.438 58.896,94.725 58.803,94.56 58.646,93.968 58.47,92.831 58.183,89.848 58.312,89.654 58.39,89.655 
							"/>
			<polyline fill="none" stroke="#000000" stroke-width="0.6592" points="58.521,89.728 58.666,89.868 58.764,90.003 58.989,90.476 
				59.638,93.804 59.791,94.948 59.783,95.407 59.72,95.438 58.896,94.725 58.803,94.56 58.646,93.968 58.47,92.831 58.183,89.848 
				58.312,89.654 58.39,89.655 58.521,89.728 			"/>
			<polygon fill="#B2CEE7" points="62.245,96.72 62.324,96.364 62.414,96.257 62.7,95.944 63.101,95.785 63.531,95.805 
				63.684,95.828 63.997,96.012 64.096,96.099 64.194,96.237 64.27,96.401 64.307,96.561 64.296,96.683 64.228,97.038 
				64.133,97.142 63.849,97.456 63.451,97.624 63.017,97.606 62.866,97.576 62.549,97.394 62.45,97.307 62.354,97.165 62.279,97 
				62.241,96.841 			"/>
			<polygon fill="none" stroke="#000000" stroke-width="0.6592" points="62.245,96.72 62.324,96.364 62.414,96.257 62.7,95.944 
				63.101,95.785 63.531,95.805 63.684,95.828 63.997,96.012 64.096,96.099 64.194,96.237 64.27,96.401 64.307,96.561 
				64.296,96.683 64.228,97.038 64.133,97.142 63.849,97.456 63.451,97.624 63.017,97.606 62.866,97.576 62.549,97.394 
				62.45,97.307 62.354,97.165 62.279,97 62.241,96.841 			"/>
			<polygon fill="#B2CEE7" points="62.659,96.385 62.079,92.934 61.835,92.426 61.729,92.277 61.565,92.118 61.416,92.027 
				61.324,92.019 61.497,91.983 61.682,91.998 61.85,92.055 61.964,92.143 62.303,92.425 62.373,92.614 63.078,95.901 
				63.192,97.074 63.101,97.605 63.008,97.844 62.753,98.023 62.786,97.562 			"/>
			<polygon fill="none" stroke="#000000" stroke-width="0.6592" points="62.659,96.385 62.079,92.934 61.835,92.426 61.729,92.277 
				61.565,92.118 61.416,92.027 61.324,92.019 61.497,91.983 61.682,91.998 61.85,92.055 61.964,92.143 62.303,92.425 
				62.373,92.614 63.078,95.901 63.192,97.074 63.101,97.605 63.008,97.844 62.753,98.023 62.786,97.562 			"/>
			<polygon fill="#B2CEE7" points="61.565,92.118 61.729,92.277 61.835,92.427 62.079,92.934 62.658,96.385 62.786,97.562 
				62.752,98.023 62.674,98.043 61.751,97.221 61.652,97.043 61.497,96.426 61.349,95.257 61.167,92.199 61.325,92.019 
				61.416,92.027 			"/>
			<polyline fill="none" stroke="#000000" stroke-width="0.6592" points="61.565,92.118 61.729,92.277 61.835,92.427 62.079,92.934 
				62.658,96.385 62.786,97.562 62.752,98.023 62.674,98.043 61.751,97.221 61.652,97.043 61.497,96.426 61.349,95.257 
				61.167,92.199 61.325,92.019 61.416,92.027 61.565,92.118 			"/>
			<text transform="matrix(1 0 0 1 50.4014 22.6318)" font-size="8">Modality</text>
			<path fill="#005695" d="M85.48,152.533c0-0.824-0.085-1.617-0.238-2.368l7.078-2.2l10.715,4.111l-21.509,8.399
				C83.83,159.309,85.48,156.192,85.48,152.533"/>
			<path fill="none" stroke="#000000" stroke-width="0.6592" d="M85.48,152.533c0-0.824-0.085-1.617-0.238-2.368l7.078-2.2
				l10.715,4.111l-21.509,8.399C83.83,159.309,85.48,156.192,85.48,152.533z"/>
			<path fill="#D1D3D4" d="M94.196,137.382l-2.578,37.59l-22.417-12.769l-0.849-26.952L94.196,137.382z M73.636,152.461
				c0,4.658,2.668,8.434,5.957,8.434c3.292,0,5.957-3.775,5.957-8.434c0-4.657-2.665-8.434-5.957-8.434
				C76.304,144.028,73.636,147.804,73.636,152.461"/>
			<path fill="none" stroke="#000000" stroke-width="0.6592" stroke-linecap="round" stroke-linejoin="round" d="M94.196,137.382
				l-2.578,37.59l-22.417-12.769l-0.849-26.952L94.196,137.382z M79.593,160.895c3.292,0,5.957-3.775,5.957-8.434
				c0-4.657-2.665-8.434-5.957-8.434c-3.289,0-5.957,3.776-5.957,8.434C73.636,157.12,76.304,160.895,79.593,160.895z"/>
			<polygon fill="#FFFFFF" points="95.867,171.564 99.191,136.773 94.195,137.382 91.618,174.972 			"/>
			<polygon fill="none" stroke="#000000" stroke-width="0.6592" stroke-linecap="round" stroke-linejoin="round" points="
				95.867,171.564 99.191,136.773 94.195,137.382 91.618,174.972 			"/>
			<path fill="#939598" d="M82.286,159.988c-0.808,0.58-1.723,0.907-2.693,0.907c-3.289,0-5.957-3.775-5.957-8.434
				c0-4.657,2.668-8.433,5.957-8.433c1.082,0,2.097,0.404,2.968,1.118h0.01c-2.362,0.382-4.21,3.573-4.21,7.449
				C78.36,156.318,80.06,159.405,82.286,159.988L82.286,159.988z"/>
			<path fill="none" stroke="#000000" stroke-width="0.6592" stroke-linecap="round" stroke-linejoin="round" d="M82.286,159.988
				c-0.808,0.58-1.723,0.907-2.693,0.907c-3.289,0-5.957-3.775-5.957-8.434c0-4.657,2.668-8.433,5.957-8.433
				c1.082,0,2.097,0.404,2.968,1.118h0.01c-2.362,0.382-4.21,3.573-4.21,7.449C78.36,156.318,80.06,159.405,82.286,159.988
				L82.286,159.988z"/>
			<polygon fill="#939598" points="99.19,136.774 73.487,134.974 68.353,135.251 94.195,137.382 			"/>
			<polygon fill="none" stroke="#000000" stroke-width="0.6592" stroke-linecap="round" stroke-linejoin="round" points="
				99.19,136.774 73.487,134.974 68.353,135.251 94.195,137.382 			"/>
			<path fill="#005695" d="M54.731,159.643l30.511-9.479c0.153,0.751,0.238,1.544,0.238,2.368c0,3.66-1.65,6.776-3.954,7.942
				l-18.327,7.158L54.731,159.643z"/>
			<path fill="none" stroke="#000000" stroke-width="0.6592" d="M54.731,159.643l30.511-9.479c0.153,0.751,0.238,1.544,0.238,2.368
				c0,3.66-1.65,6.776-3.954,7.942l-18.327,7.158L54.731,159.643z"/>
			<path fill="#B2CEE7" d="M84.018,152.158l-0.316,0.051l-2.158,0.326l-0.116-0.004l-0.259-0.16l-0.063-0.058l-0.202-0.294
				l-0.129-0.389l-0.032-0.408l0.071-0.348l0.036-0.085l0.177-0.241l0.104-0.061l2.086-0.712l1.339-0.444l0.353-0.075l0.107-0.005
				c0.248,0.828,0.4,1.723,0.45,2.661l-0.03,0.015L84.018,152.158z"/>
			<path fill="none" stroke="#000000" stroke-width="0.6592" d="M84.018,152.158l-0.316,0.051l-2.158,0.326l-0.116-0.004
				l-0.259-0.16l-0.063-0.058l-0.202-0.294l-0.129-0.389l-0.032-0.408l0.071-0.348l0.036-0.085l0.177-0.241l0.104-0.061l2.086-0.712
				l1.339-0.444l0.353-0.075l0.107-0.005c0.248,0.828,0.4,1.723,0.45,2.661l-0.03,0.015L84.018,152.158z"/>
			<path fill="#B2CEE7" d="M85.288,151.599l0.12-0.377c0.046,0.417,0.072,0.842,0.072,1.277l-0.114-0.235L85.288,151.599z"/>
			<path fill="none" stroke="#000000" stroke-width="0.6592" d="M85.288,151.599l0.12-0.377c0.046,0.417,0.072,0.842,0.072,1.277
				l-0.114-0.235L85.288,151.599z"/>
			<polygon fill="#B2CEE7" points="79.918,151.224 80.113,150.937 80.372,150.752 80.595,150.712 80.931,150.653 81.213,150.777 
				81.477,150.923 81.649,151.205 81.747,151.441 81.77,151.75 81.672,152.08 81.477,152.365 81.22,152.552 80.949,152.605 
				80.66,152.648 80.374,152.531 80.116,152.38 79.939,152.101 79.852,151.862 79.824,151.555 			"/>
			<polygon fill="none" stroke="#000000" stroke-width="0.6592" points="79.918,151.224 80.113,150.937 80.372,150.752 
				80.595,150.712 80.931,150.653 81.213,150.777 81.477,150.923 81.649,151.205 81.747,151.441 81.77,151.75 81.672,152.08 
				81.477,152.365 81.22,152.552 80.949,152.605 80.66,152.648 80.374,152.531 80.116,152.38 79.939,152.101 79.852,151.862 
				79.824,151.555 			"/>
			<polygon fill="#B2CEE7" points="75.089,152.029 75.132,151.943 75.295,151.723 75.421,151.662 77.294,151.074 77.589,151.012 
				79.749,150.712 80.055,150.715 80.224,150.771 80.481,150.914 80.696,151.227 80.721,151.271 80.833,151.647 80.845,152.037 
				80.836,152.086 80.733,152.457 80.537,152.685 80.395,152.793 80.11,152.908 77.985,153.392 77.688,153.437 75.737,153.55 
				75.601,153.541 75.375,153.392 75.308,153.326 75.138,153.058 75.036,152.708 75.019,152.342 			"/>
			<polygon fill="none" stroke="#000000" stroke-width="0.6592" points="75.089,152.029 75.132,151.943 75.295,151.723 
				75.421,151.662 77.294,151.074 77.589,151.012 79.749,150.712 80.055,150.715 80.224,150.771 80.481,150.914 80.696,151.227 
				80.721,151.271 80.833,151.647 80.845,152.037 80.836,152.086 80.733,152.457 80.537,152.685 80.395,152.793 80.11,152.908 
				77.985,153.392 77.688,153.437 75.737,153.55 75.601,153.541 75.375,153.392 75.308,153.326 75.138,153.058 75.036,152.708 
				75.019,152.342 			"/>
			<path fill="#B2CEE7" d="M84.214,154.301l-0.442-0.539l-0.278-0.708l-0.064-0.745l0.161-0.642l0.391-0.496l0.453-0.515
				l0.702-0.219l0.154-0.031c0.123,0.679,0.19,1.391,0.19,2.126c0,0.756-0.07,1.489-0.203,2.189l-0.543-0.157L84.214,154.301z"/>
			<path fill="none" stroke="#000000" stroke-width="0.6592" d="M84.214,154.301l-0.442-0.539l-0.278-0.708l-0.064-0.745
				l0.161-0.642l0.391-0.496l0.453-0.515l0.702-0.219l0.154-0.031c0.123,0.679,0.19,1.391,0.19,2.126
				c0,0.756-0.07,1.489-0.203,2.189l-0.543-0.157L84.214,154.301z"/>
			<path fill="#B2CEE7" d="M79.505,152.451l0.042-0.09l0.509-0.458l0.582-0.408l0.896-0.292l1.962-0.139l0.673-0.045l0.729,0.34
				l0.063,0.033l0.503,0.518c0.013,0.206,0.017,0.412,0.017,0.623c0,0.812-0.081,1.596-0.232,2.339l-1.486,0.999l-0.901,0.31
				l-0.767,0.031l-0.735-0.01l-0.105-0.041l-0.749-0.416l-0.646-0.73l-0.014-0.023l-0.4-0.858l-0.012-0.021l-0.125-0.912
				L79.505,152.451z"/>
			<path fill="none" stroke="#000000" stroke-width="0.6592" d="M79.505,152.451l0.042-0.09l0.509-0.458l0.582-0.408l0.896-0.292
				l1.962-0.139l0.673-0.045l0.729,0.34l0.063,0.033l0.503,0.518c0.013,0.206,0.017,0.412,0.017,0.623
				c0,0.812-0.081,1.596-0.232,2.339l-1.486,0.999l-0.901,0.31l-0.767,0.031l-0.735-0.01l-0.105-0.041l-0.749-0.416l-0.646-0.73
				l-0.014-0.023l-0.4-0.858l-0.012-0.021l-0.125-0.912L79.505,152.451z"/>
			<polygon fill="#B2CEE7" points="74.113,152.402 74.271,152.144 74.494,151.964 74.743,151.902 74.961,151.861 75.237,151.941 
				75.447,152.07 75.633,152.296 75.697,152.515 75.745,152.773 75.685,153.061 75.528,153.318 75.306,153.501 75.058,153.566 
				74.839,153.602 74.563,153.526 74.357,153.39 74.168,153.169 74.106,152.947 74.056,152.689 			"/>
			<polygon fill="none" stroke="#000000" stroke-width="0.6592" points="74.113,152.402 74.271,152.144 74.494,151.964 
				74.743,151.902 74.961,151.861 75.237,151.941 75.447,152.07 75.633,152.296 75.697,152.515 75.745,152.773 75.685,153.061 
				75.528,153.318 75.306,153.501 75.058,153.566 74.839,153.602 74.563,153.526 74.357,153.39 74.168,153.169 74.106,152.947 
				74.056,152.689 			"/>
			<polygon fill="#B2CEE7" points="77.65,153.396 77.745,152.994 77.946,152.738 78.305,152.386 78.792,152.279 79.136,152.216 
				79.587,152.39 79.877,152.552 80.125,152.9 80.211,153.085 80.293,153.34 80.307,153.607 80.302,153.846 80.194,154.251 
				79.981,154.498 79.63,154.855 79.143,154.969 78.803,155.017 78.349,154.857 78.063,154.683 77.826,154.333 77.725,154.156 
				77.639,153.9 77.621,153.632 			"/>
			<polygon fill="none" stroke="#000000" stroke-width="0.6592" points="77.65,153.396 77.745,152.994 77.946,152.738 
				78.305,152.386 78.792,152.279 79.136,152.216 79.587,152.39 79.877,152.552 80.125,152.9 80.211,153.085 80.293,153.34 
				80.307,153.607 80.302,153.846 80.194,154.251 79.981,154.498 79.63,154.855 79.143,154.969 78.803,155.017 78.349,154.857 
				78.063,154.683 77.826,154.333 77.725,154.156 77.639,153.9 77.621,153.632 			"/>
			<polygon fill="#B2CEE7" points="71.447,153.277 71.65,153.004 71.776,152.949 72.729,152.533 73.333,152.427 74.052,152.449 
				74.214,152.486 74.489,152.603 74.59,152.667 74.682,152.765 74.743,152.873 74.765,152.975 74.708,153.156 74.665,153.283 
				74.195,153.612 74.036,153.679 73.477,153.878 72.357,154.003 71.885,153.896 71.77,153.866 71.643,153.778 71.564,153.72 
				71.498,153.642 71.448,153.554 71.435,153.476 71.421,153.371 			"/>
			<polygon fill="none" stroke="#000000" stroke-width="0.6592" points="71.447,153.277 71.65,153.004 71.776,152.949 
				72.729,152.533 73.333,152.427 74.052,152.449 74.214,152.486 74.489,152.603 74.59,152.667 74.682,152.765 74.743,152.873 
				74.765,152.975 74.708,153.156 74.665,153.283 74.195,153.612 74.036,153.679 73.477,153.878 72.357,154.003 71.885,153.896 
				71.77,153.866 71.643,153.778 71.564,153.72 71.498,153.642 71.448,153.554 71.435,153.476 71.421,153.371 			"/>
			<polygon fill="#B2CEE7" points="70.539,154.57 70.563,154.501 70.752,154.223 70.867,154.16 71.137,154.111 71.219,154.105 
				71.215,154.105 71.219,154.105 71.36,154.091 71.219,154.105 74.847,153.058 77.431,152.361 77.815,152.285 78.137,152.451 
				78.488,152.654 78.789,153.09 78.977,153.667 79.013,154.267 78.886,154.771 78.7,155.011 78.397,155.365 75.741,155.855 
				71.835,156.509 71.624,156.586 71.35,156.619 71.224,156.615 70.939,156.411 70.894,156.36 70.662,155.985 70.51,155.498 
				70.466,154.995 			"/>
			<polygon fill="none" stroke="#000000" stroke-width="0.6592" points="70.539,154.57 70.563,154.501 70.752,154.223 
				70.867,154.16 71.137,154.111 71.219,154.105 71.215,154.105 71.219,154.105 71.36,154.091 71.219,154.105 74.847,153.058 
				77.431,152.361 77.815,152.285 78.137,152.451 78.488,152.654 78.789,153.09 78.977,153.667 79.013,154.267 78.886,154.771 
				78.7,155.011 78.397,155.365 75.741,155.855 71.835,156.509 71.624,156.586 71.35,156.619 71.224,156.615 70.939,156.411 
				70.894,156.36 70.662,155.985 70.51,155.498 70.466,154.995 			"/>
			<polygon fill="#B2CEE7" points="80.322,154.439 80.568,154.115 80.878,153.787 81.33,153.647 81.748,153.58 82.167,153.73 
				82.517,153.895 82.816,154.251 83,154.724 83.027,155.22 82.901,155.635 82.666,155.968 82.343,156.284 81.895,156.435 
				81.479,156.487 81.053,156.349 80.707,156.176 80.42,155.817 80.237,155.346 80.205,154.856 			"/>
			<polygon fill="none" stroke="#000000" stroke-width="0.6592" points="80.322,154.439 80.568,154.115 80.878,153.787 
				81.33,153.647 81.748,153.58 82.167,153.73 82.517,153.895 82.816,154.251 83,154.724 83.027,155.22 82.901,155.635 
				82.666,155.968 82.343,156.284 81.895,156.435 81.479,156.487 81.053,156.349 80.707,156.176 80.42,155.817 80.237,155.346 
				80.205,154.856 			"/>
			<path fill="#B2CEE7" d="M82.396,157.264h-0.13l-0.315-0.157l-0.056-0.064l-0.234-0.29l-0.143-0.379l-0.021-0.397l0.004-0.062
				l0.115-0.378l0.23-0.235l0.114-0.076l1.714-0.812l1.717-0.438c-0.127,1.061-0.397,2.054-0.779,2.938l-1.897,0.314L82.396,157.264
				z"/>
			<path fill="none" stroke="#000000" stroke-width="0.6592" d="M82.396,157.264h-0.13l-0.315-0.157l-0.056-0.064l-0.234-0.29
				l-0.143-0.379l-0.021-0.397l0.004-0.062l0.115-0.378l0.23-0.235l0.114-0.076l1.714-0.812l1.717-0.438
				c-0.127,1.061-0.397,2.054-0.779,2.938l-1.897,0.314L82.396,157.264z"/>
			<polygon fill="#B2CEE7" points="73.455,156.92 73.562,156.453 73.806,156.162 73.91,156.09 74.13,156.053 77.649,154.692 
				80.043,153.81 80.522,153.729 81.027,153.973 81.251,154.089 81.618,154.535 81.847,155.125 81.887,155.742 81.732,156.26 
				81.594,156.528 81.225,156.891 78.743,157.572 75.053,158.507 74.856,158.603 74.506,158.64 74.385,158.643 74.022,158.43 
				73.98,158.383 73.689,157.994 73.499,157.49 73.451,156.966 			"/>
			<polygon fill="none" stroke="#000000" stroke-width="0.6592" points="73.455,156.92 73.562,156.453 73.806,156.162 73.91,156.09 
				74.13,156.053 77.649,154.692 80.043,153.81 80.522,153.729 81.027,153.973 81.251,154.089 81.618,154.535 81.847,155.125 
				81.887,155.742 81.732,156.26 81.594,156.528 81.225,156.891 78.743,157.572 75.053,158.507 74.856,158.603 74.506,158.64 
				74.385,158.643 74.022,158.43 73.98,158.383 73.689,157.994 73.499,157.49 73.451,156.966 			"/>
			<polygon fill="#B2CEE7" points="69.59,155.163 69.685,154.976 69.952,154.619 70.351,154.44 70.567,154.402 70.977,154.444 
				71.194,154.575 71.438,154.766 71.556,154.917 71.65,155.11 71.7,155.309 71.695,155.478 71.664,155.86 71.562,156.043 
				71.302,156.401 70.903,156.586 70.685,156.615 70.275,156.58 70.062,156.441 69.816,156.258 69.698,156.107 69.604,155.913 
				69.551,155.712 69.551,155.542 			"/>
			<polygon fill="none" stroke="#000000" stroke-width="0.6592" points="69.59,155.163 69.685,154.976 69.952,154.619 
				70.351,154.44 70.567,154.402 70.977,154.444 71.194,154.575 71.438,154.766 71.556,154.917 71.65,155.11 71.7,155.309 
				71.695,155.478 71.664,155.86 71.562,156.043 71.302,156.401 70.903,156.586 70.685,156.615 70.275,156.58 70.062,156.441 
				69.816,156.258 69.698,156.107 69.604,155.913 69.551,155.712 69.551,155.542 			"/>
			<polygon fill="#B2CEE7" points="60.626,159.114 60.695,158.916 61.299,158.482 62.618,157.828 65.754,156.166 69.013,154.802 
				69.267,154.757 69.75,154.679 69.951,154.776 70.196,154.929 70.443,155.239 70.64,155.642 70.744,156.061 70.74,156.405 
				70.684,156.602 70.549,156.844 70.159,157.173 66.997,158.742 63.677,160.031 62.317,160.601 61.585,160.776 61.427,160.781 
				61.251,160.68 61.073,160.535 60.885,160.263 60.721,159.92 60.616,159.577 60.586,159.294 			"/>
			<polygon fill="none" stroke="#000000" stroke-width="0.6592" points="60.626,159.114 60.695,158.916 61.299,158.482 
				62.618,157.828 65.754,156.166 69.013,154.802 69.267,154.757 69.75,154.679 69.951,154.776 70.196,154.929 70.443,155.239 
				70.64,155.642 70.744,156.061 70.74,156.405 70.684,156.602 70.549,156.844 70.159,157.173 66.997,158.742 63.677,160.031 
				62.317,160.601 61.585,160.776 61.427,160.781 61.251,160.68 61.073,160.535 60.885,160.263 60.721,159.92 60.616,159.577 
				60.586,159.294 			"/>
			<polygon fill="#B2CEE7" points="80.731,156.144 80.89,155.85 81.105,155.637 81.34,155.544 81.64,155.5 81.893,155.561 
				82.188,155.703 82.352,155.928 82.497,156.178 82.531,156.452 82.46,156.765 82.443,156.81 82.356,156.973 82.304,157.058 
				82.087,157.274 81.854,157.369 81.554,157.404 81.3,157.352 81.01,157.203 80.84,156.984 80.699,156.731 80.662,156.46 			"/>
			<polygon fill="none" stroke="#000000" stroke-width="0.6592" points="80.731,156.144 80.89,155.85 81.105,155.637 81.34,155.544 
				81.64,155.5 81.893,155.561 82.188,155.703 82.352,155.928 82.497,156.178 82.531,156.452 82.46,156.765 82.443,156.81 
				82.356,156.973 82.304,157.058 82.087,157.274 81.854,157.369 81.554,157.404 81.3,157.352 81.01,157.203 80.84,156.984 
				80.699,156.731 80.662,156.46 			"/>
			<polygon fill="#B2CEE7" points="78.243,157.177 78.316,157.018 79.133,156.487 79.378,156.406 79.962,156.239 80.688,156.206 
				80.92,156.246 81.192,156.349 81.338,156.42 81.465,156.528 81.548,156.647 81.576,156.754 81.611,156.977 81.543,157.112 
				81.171,157.528 80.668,157.797 80.419,157.87 79.315,158.107 78.816,158.027 78.646,157.993 78.46,157.893 78.299,157.75 
				78.188,157.592 78.153,157.449 			"/>
			<polygon fill="none" stroke="#000000" stroke-width="0.6592" points="78.243,157.177 78.316,157.018 79.133,156.487 
				79.378,156.406 79.962,156.239 80.688,156.206 80.92,156.246 81.192,156.349 81.338,156.42 81.465,156.528 81.548,156.647 
				81.576,156.754 81.611,156.977 81.543,157.112 81.171,157.528 80.668,157.797 80.419,157.87 79.315,158.107 78.816,158.027 
				78.646,157.993 78.46,157.893 78.299,157.75 78.188,157.592 78.153,157.449 			"/>
			<polygon fill="#B2CEE7" points="72.679,157.567 72.709,157.153 72.827,156.972 73.1,156.591 73.511,156.398 73.761,156.376 
				74.176,156.414 74.415,156.563 74.647,156.753 74.778,156.912 74.875,157.119 74.921,157.326 74.912,157.607 74.886,157.911 
				74.649,158.255 74.493,158.469 74.084,158.668 73.837,158.679 73.419,158.652 73.184,158.493 72.944,158.314 72.815,158.151 
				72.719,157.945 72.671,157.737 			"/>
			<polygon fill="none" stroke="#000000" stroke-width="0.6592" points="72.679,157.567 72.709,157.153 72.827,156.972 
				73.1,156.591 73.511,156.398 73.761,156.376 74.176,156.414 74.415,156.563 74.647,156.753 74.778,156.912 74.875,157.119 
				74.921,157.326 74.912,157.607 74.886,157.911 74.649,158.255 74.493,158.469 74.084,158.668 73.837,158.679 73.419,158.652 
				73.184,158.493 72.944,158.314 72.815,158.151 72.719,157.945 72.671,157.737 			"/>
			<polygon fill="#B2CEE7" points="63.455,161.441 63.546,161.25 64.17,160.781 65.538,160.073 68.773,158.275 72.131,156.793 
				72.657,156.704 72.923,156.682 73.121,156.778 73.394,156.954 73.66,157.291 73.862,157.72 73.962,158.154 73.939,158.502 
				73.886,158.715 73.723,158.948 73.319,159.301 70.064,161.001 66.638,162.403 65.231,163.028 64.474,163.221 64.289,163.208 
				64.112,163.106 63.912,162.937 63.708,162.642 63.537,162.28 63.435,161.923 63.418,161.637 			"/>
			<polygon fill="none" stroke="#000000" stroke-width="0.6592" points="63.455,161.441 63.546,161.25 64.17,160.781 
				65.538,160.073 68.773,158.275 72.131,156.793 72.657,156.704 72.923,156.682 73.121,156.778 73.394,156.954 73.66,157.291 
				73.862,157.72 73.962,158.154 73.939,158.502 73.886,158.715 73.723,158.948 73.319,159.301 70.064,161.001 66.638,162.403 
				65.231,163.028 64.474,163.221 64.289,163.208 64.112,163.106 63.912,162.937 63.708,162.642 63.537,162.28 63.435,161.923 
				63.418,161.637 			"/>
			<polygon fill="#B2CEE7" points="59.42,159.857 59.489,159.74 59.769,159.452 60.155,159.307 60.316,159.314 60.701,159.339 
				61.01,159.524 61.098,159.596 61.188,159.721 61.261,159.877 61.297,160.031 61.295,160.151 61.219,160.472 61.143,160.585 
				60.868,160.875 60.482,161.027 60.062,161.006 59.934,160.994 59.622,160.812 59.533,160.737 59.447,160.607 59.375,160.451 
				59.336,160.299 59.336,160.177 			"/>
			<polygon fill="none" stroke="#000000" stroke-width="0.6592" points="59.42,159.857 59.489,159.74 59.769,159.452 
				60.155,159.307 60.316,159.314 60.701,159.339 61.01,159.524 61.098,159.596 61.188,159.721 61.261,159.877 61.297,160.031 
				61.295,160.151 61.219,160.472 61.143,160.585 60.868,160.875 60.482,161.027 60.062,161.006 59.934,160.994 59.622,160.812 
				59.533,160.737 59.447,160.607 59.375,160.451 59.336,160.299 59.336,160.177 			"/>
			<polygon fill="#B2CEE7" points="59.635,159.763 58.992,156.435 58.764,155.962 58.665,155.827 58.52,155.685 58.389,155.614 
				58.312,155.614 58.472,155.581 58.647,155.59 58.802,155.637 58.901,155.714 59.237,155.99 59.29,156.153 60.057,159.333 
				60.203,160.476 60.136,160.995 60.034,161.207 59.784,161.367 59.791,160.907 			"/>
			<polygon fill="none" stroke="#000000" stroke-width="0.6592" points="59.635,159.763 58.992,156.435 58.764,155.962 
				58.665,155.827 58.52,155.685 58.389,155.614 58.312,155.614 58.472,155.581 58.647,155.59 58.802,155.637 58.901,155.714 
				59.237,155.99 59.29,156.153 60.057,159.333 60.203,160.476 60.136,160.995 60.034,161.207 59.784,161.367 59.791,160.907 			"/>
			<polygon fill="#B2CEE7" points="58.521,155.685 58.666,155.827 58.764,155.962 58.989,156.435 59.637,159.763 59.791,160.907 
				59.783,161.367 59.719,161.398 58.896,160.683 58.803,160.519 58.646,159.927 58.469,158.79 58.183,155.807 58.312,155.614 
				58.389,155.614 			"/>
			<polyline fill="none" stroke="#000000" stroke-width="0.6592" points="58.521,155.685 58.666,155.827 58.764,155.962 
				58.989,156.435 59.637,159.763 59.791,160.907 59.783,161.367 59.719,161.398 58.896,160.683 58.803,160.519 58.646,159.927 
				58.469,158.79 58.183,155.807 58.312,155.614 58.389,155.614 58.521,155.685 			"/>
			<polygon fill="#B2CEE7" points="62.245,162.676 62.324,162.323 62.413,162.216 62.7,161.904 63.101,161.744 63.531,161.763 
				63.683,161.787 63.996,161.971 64.096,162.057 64.194,162.195 64.269,162.36 64.306,162.519 64.296,162.641 64.227,162.997 
				64.133,163.1 63.849,163.415 63.451,163.583 63.016,163.565 62.865,163.535 62.549,163.352 62.45,163.265 62.354,163.124 
				62.278,162.959 62.24,162.799 			"/>
			<polygon fill="none" stroke="#000000" stroke-width="0.6592" points="62.245,162.676 62.324,162.323 62.413,162.216 
				62.7,161.904 63.101,161.744 63.531,161.763 63.683,161.787 63.996,161.971 64.096,162.057 64.194,162.195 64.269,162.36 
				64.306,162.519 64.296,162.641 64.227,162.997 64.133,163.1 63.849,163.415 63.451,163.583 63.016,163.565 62.865,163.535 
				62.549,163.352 62.45,163.265 62.354,163.124 62.278,162.959 62.24,162.799 			"/>
			<polygon fill="#B2CEE7" points="62.659,162.343 62.079,158.892 61.835,158.385 61.728,158.237 61.565,158.078 61.416,157.987 
				61.324,157.978 61.496,157.943 61.682,157.957 61.849,158.014 61.963,158.103 62.303,158.383 62.373,158.573 63.077,161.86 
				63.192,163.032 63.101,163.564 63.008,163.802 62.753,163.982 62.786,163.52 			"/>
			<polygon fill="none" stroke="#000000" stroke-width="0.6592" points="62.659,162.343 62.079,158.892 61.835,158.385 
				61.728,158.237 61.565,158.078 61.416,157.987 61.324,157.978 61.496,157.943 61.682,157.957 61.849,158.014 61.963,158.103 
				62.303,158.383 62.373,158.573 63.077,161.86 63.192,163.032 63.101,163.564 63.008,163.802 62.753,163.982 62.786,163.52 			"/>
			<polygon fill="#B2CEE7" points="61.565,158.078 61.728,158.237 61.835,158.385 62.079,158.892 62.658,162.343 62.785,163.52 
				62.752,163.982 62.674,164.001 61.751,163.179 61.652,163.002 61.496,162.384 61.349,161.216 61.167,158.159 61.325,157.978 
				61.416,157.987 			"/>
			<polyline fill="none" stroke="#000000" stroke-width="0.6592" points="61.565,158.078 61.728,158.237 61.835,158.385 
				62.079,158.892 62.658,162.343 62.785,163.52 62.752,163.982 62.674,164.001 61.751,163.179 61.652,163.002 61.496,162.384 
				61.349,161.216 61.167,158.159 61.325,157.978 61.416,157.987 61.565,158.078 			"/>
			<text transform="matrix(1 0 0 1 388.6299 22.6323)" font-size="8">Workstations</text>
			<text transform="matrix(1 0 0 1 266.3613 22.6323)" font-size="8">PACS</text>
			<rect x="273.699" y="130.71" fill="#CCDEF0" stroke="#000000" stroke-miterlimit="1" width="62" height="30.001"/>
			<text transform="matrix(1 0 0 1 290.6934 138.3369)"><tspan x="0" y="0" font-size="8">Convert</tspan><tspan x="-8.449" y="9.6" font-size="8">Single frame</tspan><tspan x="-10.443" y="19.2" font-size="8">to Multi-frame</tspan></text>
			<g>
				<path fill="#58595B" d="M445.723,73.447v30.158c0,0.658-0.473,1.19-1.059,1.19h-15.891c-0.584,0-1.057-0.532-1.057-1.19V73.447
					c0-0.656,0.473-1.189,1.057-1.189h15.891C445.25,72.257,445.723,72.791,445.723,73.447"/>
				<rect x="429.48" y="105.056" fill="#58595B" width="14.092" height="0.884"/>
				<path fill="#58595B" stroke="#FFFFFF" stroke-width="0.5" d="M443.572,102.728v-2.547c0-0.244-0.199-0.443-0.445-0.443h-2.756
					c-0.244,0-0.443,0.199-0.443,0.443v2.547c0,0.244,0.199,0.442,0.443,0.442h2.756
					C443.373,103.17,443.572,102.972,443.572,102.728"/>
				<rect x="429.867" y="82.615" fill="#58595B" stroke="#FFFFFF" stroke-width="0.5" width="13.316" height="3.691"/>
				<rect x="429.867" y="76.831" fill="#58595B" stroke="#FFFFFF" stroke-width="0.5" width="13.316" height="3.692"/>
				<path fill="#FFFFFF" d="M430.689,95.578v-6.641c0-0.113-0.047-0.215-0.121-0.291c-0.074-0.074-0.176-0.119-0.289-0.119
					c-0.229,0-0.412,0.184-0.412,0.41v6.641c0,0.113,0.047,0.216,0.121,0.29c0.072,0.073,0.178,0.12,0.291,0.12
					C430.504,95.988,430.689,95.803,430.689,95.578"/>
			</g>
			<g>
				<path fill="#58595B" d="M424.953,77.082v21.86c0,0.784-0.637,1.419-1.418,1.419H395.17c-0.785,0-1.418-0.635-1.418-1.419v-21.86
					c0-0.783,0.633-1.419,1.418-1.419h28.365C424.316,75.663,424.953,76.298,424.953,77.082"/>
				<polygon fill="#58595B" points="416.398,105.023 416.398,106.01 409.797,106.01 408.906,106.01 402.305,106.01 402.305,105.023 
									"/>
				<path fill="#58595B" d="M416.398,104.626h-14.094c0-1.277,1.703-1.277,1.703-1.277h1.811c1.811,0,1.703-1.491,1.703-1.491
					v-1.063h3.66v1.063c0,0-0.107,1.491,1.703,1.491h1.811C414.695,103.349,416.398,103.349,416.398,104.626"/>
				<path fill="#FFFFFF" d="M422.342,94.773V79.208c0-0.557-0.527-1.009-1.18-1.009h-23.619c-0.652,0-1.182,0.452-1.182,1.009
					v15.565c0,0.558,0.529,1.01,1.182,1.01h23.619C421.814,95.783,422.342,95.331,422.342,94.773"/>
				<path fill="#FFFFFF" d="M410.635,98.056c0-0.709-0.574-1.281-1.283-1.281s-1.283,0.572-1.283,1.281s0.574,1.283,1.283,1.283
					S410.635,98.765,410.635,98.056"/>
			</g>
			<g>
				<path fill="#58595B" d="M445.723,137.224v30.158c0,0.658-0.473,1.189-1.059,1.189h-15.891c-0.584,0-1.057-0.531-1.057-1.189
					v-30.158c0-0.656,0.473-1.189,1.057-1.189h15.891C445.25,136.035,445.723,136.568,445.723,137.224"/>
				<rect x="429.48" y="168.833" fill="#58595B" width="14.092" height="0.883"/>
				<path fill="#58595B" stroke="#FFFFFF" stroke-width="0.5" d="M443.572,166.504v-2.546c0-0.245-0.199-0.444-0.445-0.444h-2.756
					c-0.244,0-0.443,0.199-0.443,0.444v2.546c0,0.245,0.199,0.442,0.443,0.442h2.756
					C443.373,166.947,443.572,166.75,443.572,166.504"/>
				<rect x="429.867" y="146.392" fill="#58595B" stroke="#FFFFFF" stroke-width="0.5" width="13.316" height="3.691"/>
				<rect x="429.867" y="140.607" fill="#58595B" stroke="#FFFFFF" stroke-width="0.5" width="13.316" height="3.692"/>
				<path fill="#FFFFFF" d="M430.689,159.355v-6.641c0-0.114-0.047-0.215-0.121-0.291c-0.074-0.074-0.176-0.12-0.289-0.12
					c-0.229,0-0.412,0.185-0.412,0.411v6.641c0,0.112,0.047,0.215,0.121,0.289c0.072,0.074,0.178,0.12,0.291,0.12
					C430.504,159.764,430.689,159.58,430.689,159.355"/>
			</g>
			<g>
				<path fill="#58595B" d="M424.953,140.859v21.859c0,0.784-0.637,1.42-1.418,1.42H395.17c-0.785,0-1.418-0.636-1.418-1.42v-21.859
					c0-0.784,0.633-1.42,1.418-1.42h28.365C424.316,139.439,424.953,140.075,424.953,140.859"/>
				<polygon fill="#58595B" points="416.398,168.799 416.398,169.787 409.797,169.787 408.906,169.787 402.305,169.787 
					402.305,168.799 				"/>
				<path fill="#58595B" d="M416.398,168.404h-14.094c0-1.277,1.703-1.277,1.703-1.277h1.811c1.811,0,1.703-1.492,1.703-1.492
					v-1.063h3.66v1.063c0,0-0.107,1.492,1.703,1.492h1.811C414.695,167.126,416.398,167.126,416.398,168.404"/>
				<path fill="#FFFFFF" d="M422.342,158.55v-15.566c0-0.557-0.527-1.008-1.18-1.008h-23.619c-0.652,0-1.182,0.451-1.182,1.008
					v15.566c0,0.557,0.529,1.01,1.182,1.01h23.619C421.814,159.56,422.342,159.107,422.342,158.55"/>
				<path fill="#FFFFFF" d="M410.635,161.833c0-0.709-0.574-1.281-1.283-1.281s-1.283,0.572-1.283,1.281s0.574,1.283,1.283,1.283
					S410.635,162.542,410.635,161.833"/>
			</g>
			<g>
				<path fill="#58595B" d="M445.723,201.002v30.158c0,0.656-0.473,1.189-1.059,1.189h-15.891c-0.584,0-1.057-0.533-1.057-1.189
					v-30.158c0-0.658,0.473-1.191,1.057-1.191h15.891C445.25,199.811,445.723,200.344,445.723,201.002"/>
				<rect x="429.48" y="232.611" fill="#58595B" width="14.092" height="0.883"/>
				<path fill="#58595B" stroke="#FFFFFF" stroke-width="0.5" d="M443.572,230.281v-2.547c0-0.244-0.199-0.443-0.445-0.443h-2.756
					c-0.244,0-0.443,0.199-0.443,0.443v2.547c0,0.244,0.199,0.443,0.443,0.443h2.756
					C443.373,230.725,443.572,230.525,443.572,230.281"/>
				<rect x="429.867" y="210.17" fill="#58595B" stroke="#FFFFFF" stroke-width="0.5" width="13.316" height="3.689"/>
				<rect x="429.867" y="204.385" fill="#58595B" stroke="#FFFFFF" stroke-width="0.5" width="13.316" height="3.691"/>
				<path fill="#FFFFFF" d="M430.689,223.131v-6.639c0-0.115-0.047-0.217-0.121-0.291s-0.176-0.121-0.289-0.121
					c-0.229,0-0.412,0.184-0.412,0.412v6.639c0,0.113,0.047,0.217,0.121,0.291c0.072,0.074,0.178,0.119,0.291,0.119
					C430.504,223.541,430.689,223.357,430.689,223.131"/>
			</g>
			<g>
				<path fill="#58595B" d="M424.953,204.635v21.861c0,0.783-0.637,1.418-1.418,1.418H395.17c-0.785,0-1.418-0.635-1.418-1.418
					v-21.861c0-0.783,0.633-1.418,1.418-1.418h28.365C424.316,203.217,424.953,203.852,424.953,204.635"/>
				<polygon fill="#58595B" points="416.398,232.576 416.398,233.564 409.797,233.564 408.906,233.564 402.305,233.564 
					402.305,232.576 				"/>
				<path fill="#58595B" d="M416.398,232.182h-14.094c0-1.279,1.703-1.279,1.703-1.279h1.811c1.811,0,1.703-1.49,1.703-1.49v-1.064
					h3.66v1.064c0,0-0.107,1.49,1.703,1.49h1.811C414.695,230.902,416.398,230.902,416.398,232.182"/>
				<path fill="#FFFFFF" d="M422.342,222.326v-15.564c0-0.557-0.527-1.01-1.18-1.01h-23.619c-0.652,0-1.182,0.453-1.182,1.01v15.564
					c0,0.559,0.529,1.01,1.182,1.01h23.619C421.814,223.336,422.342,222.885,422.342,222.326"/>
				<path fill="#FFFFFF" d="M410.635,225.611c0-0.709-0.574-1.283-1.283-1.283s-1.283,0.574-1.283,1.283s0.574,1.283,1.283,1.283
					S410.635,226.32,410.635,225.611"/>
			</g>
			<path fill="#FFFFFF" d="M327.17,64.641c0,1.367-1.137,2.481-2.537,2.481h-39.926c-1.4,0-2.537-1.114-2.537-2.481V35.765
				c0-1.375,1.137-2.482,2.537-2.482h39.926c1.4,0,2.537,1.107,2.537,2.482V64.641z"/>
			<g>
				<path d="M296.074,47v1.707c0,0.153-0.117,0.273-0.275,0.273h-9.484c-0.148,0-0.275-0.12-0.275-0.273V47
					c0-0.154,0.127-0.275,0.275-0.275h9.484C295.957,46.725,296.074,46.846,296.074,47"/>
				<path d="M296.066,41.176v1.707c0,0.153-0.125,0.274-0.275,0.274h-9.482c-0.148,0-0.275-0.121-0.275-0.274v-1.707
					c0-0.154,0.127-0.274,0.275-0.274h9.482C295.941,40.902,296.066,41.022,296.066,41.176"/>
				<path d="M296.064,58.485v1.703c0,0.158-0.127,0.279-0.275,0.279h-9.482c-0.15,0-0.275-0.121-0.275-0.279v-1.703
					c0-0.152,0.125-0.279,0.275-0.279h9.482C295.938,58.206,296.064,58.333,296.064,58.485"/>
				<path d="M296.061,49.827v1.702c0,0.153-0.125,0.28-0.275,0.28h-9.482c-0.148,0-0.275-0.127-0.275-0.28v-1.702
					c0-0.154,0.127-0.279,0.275-0.279h9.482C295.936,49.547,296.061,49.672,296.061,49.827"/>
				<path d="M296.059,52.662v1.702c0,0.153-0.127,0.279-0.275,0.279h-9.484c-0.156,0-0.275-0.126-0.275-0.279v-1.702
					c0-0.153,0.119-0.279,0.275-0.279h9.484C295.932,52.382,296.059,52.508,296.059,52.662"/>
				<path d="M296.055,44.002v1.703c0,0.153-0.127,0.279-0.275,0.279h-9.482c-0.158,0-0.277-0.126-0.277-0.279v-1.703
					c0-0.154,0.119-0.28,0.277-0.28h9.482C295.928,43.722,296.055,43.848,296.055,44.002"/>
				<path d="M296.051,61.307v1.707c0,0.154-0.125,0.281-0.275,0.281h-9.482c-0.158,0-0.285-0.127-0.285-0.281v-1.707
					c0-0.154,0.127-0.274,0.285-0.274h9.482C295.926,61.033,296.051,61.153,296.051,61.307"/>
				<path d="M296.045,55.484v1.707c0,0.153-0.125,0.28-0.283,0.28h-9.475c-0.158,0-0.285-0.127-0.285-0.28v-1.707
					c0-0.154,0.127-0.274,0.285-0.274h9.475C295.92,55.209,296.045,55.33,296.045,55.484"/>
				<rect x="288.801" y="37.149" width="7.244" height="0.44"/>
				<rect x="286.039" y="65.053" width="10.035" height="0.439"/>
				<path d="M286.934,36.647c0.346,0,0.631,0.281,0.631,0.623c0,0.346-0.285,0.627-0.631,0.627c-0.336,0-0.623-0.281-0.623-0.627
					C286.311,36.928,286.598,36.647,286.934,36.647 M287.234,37.27c0-0.164-0.135-0.297-0.301-0.297
					c-0.158,0-0.293,0.133-0.293,0.297c0,0.168,0.135,0.301,0.293,0.301C287.1,37.571,287.234,37.438,287.234,37.27"/>
				<path fill="none" stroke="#000000" stroke-width="0.6429" stroke-miterlimit="10" d="M297.078,63.082
					c0,0.708-0.574,1.288-1.283,1.288h-9.533c-0.709,0-1.283-0.58-1.283-1.288V36.938c0-0.709,0.574-1.283,1.283-1.283h9.533
					c0.709,0,1.283,0.574,1.283,1.283V63.082z"/>
			</g>
			<g>
				<path d="M309.721,47v1.707c0,0.153-0.127,0.273-0.275,0.273h-9.482c-0.158,0-0.285-0.12-0.285-0.273V47
					c0-0.154,0.127-0.275,0.285-0.275h9.482C309.594,46.725,309.721,46.846,309.721,47"/>
				<path d="M309.715,41.176v1.707c0,0.153-0.127,0.274-0.285,0.274h-9.473c-0.16,0-0.285-0.121-0.285-0.274v-1.707
					c0-0.154,0.125-0.274,0.285-0.274h9.473C309.588,40.902,309.715,41.022,309.715,41.176"/>
				<path d="M309.711,58.485v1.703c0,0.158-0.125,0.279-0.283,0.279h-9.475c-0.158,0-0.285-0.121-0.285-0.279v-1.703
					c0-0.152,0.127-0.279,0.285-0.279h9.475C309.586,58.206,309.711,58.333,309.711,58.485"/>
				<path d="M309.709,49.827v1.702c0,0.153-0.127,0.28-0.285,0.28h-9.482c-0.15,0-0.275-0.127-0.275-0.28v-1.702
					c0-0.154,0.125-0.279,0.275-0.279h9.482C309.582,49.547,309.709,49.672,309.709,49.827"/>
				<path d="M309.695,52.662v1.702c0,0.153-0.117,0.279-0.275,0.279h-9.484c-0.146,0-0.273-0.126-0.273-0.279v-1.702
					c0-0.153,0.127-0.279,0.273-0.279h9.484C309.578,52.382,309.695,52.508,309.695,52.662"/>
				<path d="M309.693,44.002v1.703c0,0.153-0.119,0.279-0.277,0.279h-9.482c-0.148,0-0.275-0.126-0.275-0.279v-1.703
					c0-0.154,0.127-0.28,0.275-0.28h9.482C309.574,43.722,309.693,43.848,309.693,44.002"/>
				<path d="M309.689,61.307v1.707c0,0.154-0.127,0.281-0.275,0.281h-9.482c-0.15,0-0.275-0.127-0.275-0.281v-1.707
					c0-0.154,0.125-0.274,0.275-0.274h9.482C309.562,61.033,309.689,61.153,309.689,61.307"/>
				<path d="M309.684,55.484v1.707c0,0.153-0.127,0.28-0.275,0.28h-9.484c-0.158,0-0.273-0.127-0.273-0.28v-1.707
					c0-0.154,0.115-0.274,0.273-0.274h9.484C309.557,55.209,309.684,55.33,309.684,55.484"/>
				<rect x="302.438" y="37.149" width="7.246" height="0.44"/>
				<rect x="299.678" y="65.053" width="10.043" height="0.439"/>
				<path d="M300.58,36.647c0.346,0,0.623,0.281,0.623,0.623c0,0.346-0.277,0.627-0.623,0.627s-0.623-0.281-0.623-0.627
					C299.957,36.928,300.234,36.647,300.58,36.647 M300.881,37.27c0-0.164-0.133-0.297-0.301-0.297
					c-0.166,0-0.301,0.133-0.301,0.297c0,0.168,0.135,0.301,0.301,0.301C300.748,37.571,300.881,37.438,300.881,37.27"/>
				<path fill="none" stroke="#000000" stroke-width="0.6429" stroke-miterlimit="10" d="M310.727,63.082
					c0,0.708-0.574,1.288-1.293,1.288h-9.523c-0.719,0-1.293-0.58-1.293-1.288V36.938c0-0.709,0.574-1.283,1.293-1.283h9.523
					c0.719,0,1.293,0.574,1.293,1.283V63.082z"/>
			</g>
			<g>
				<path d="M323.355,47v1.707c0,0.153-0.127,0.273-0.275,0.273h-9.484c-0.148,0-0.275-0.12-0.275-0.273V47
					c0-0.154,0.127-0.275,0.275-0.275h9.484C323.229,46.725,323.355,46.846,323.355,47"/>
				<path d="M323.348,41.176v1.707c0,0.153-0.125,0.274-0.275,0.274h-9.482c-0.158,0-0.275-0.121-0.275-0.274v-1.707
					c0-0.154,0.117-0.274,0.275-0.274h9.482C323.223,40.902,323.348,41.022,323.348,41.176"/>
				<path d="M323.346,58.485v1.703c0,0.158-0.127,0.279-0.275,0.279h-9.482c-0.16,0-0.275-0.121-0.275-0.279v-1.703
					c0-0.152,0.115-0.279,0.275-0.279h9.482C323.219,58.206,323.346,58.333,323.346,58.485"/>
				<path d="M323.342,49.827v1.702c0,0.153-0.125,0.28-0.285,0.28h-9.473c-0.158,0-0.285-0.127-0.285-0.28v-1.702
					c0-0.154,0.127-0.279,0.285-0.279h9.473C323.217,49.547,323.342,49.672,323.342,49.827"/>
				<path d="M323.34,52.662v1.702c0,0.153-0.127,0.279-0.285,0.279h-9.475c-0.156,0-0.285-0.126-0.285-0.279v-1.702
					c0-0.153,0.129-0.279,0.285-0.279h9.475C323.213,52.382,323.34,52.508,323.34,52.662"/>
				<path d="M323.336,44.002v1.703c0,0.153-0.127,0.279-0.285,0.279h-9.473c-0.158,0-0.285-0.126-0.285-0.279v-1.703
					c0-0.154,0.127-0.28,0.285-0.28h9.473C323.209,43.722,323.336,43.848,323.336,44.002"/>
				<path d="M323.332,61.307v1.707c0,0.154-0.125,0.281-0.283,0.281h-9.484c-0.148,0-0.275-0.127-0.275-0.281v-1.707
					c0-0.154,0.127-0.274,0.275-0.274h9.484C323.207,61.033,323.332,61.153,323.332,61.307"/>
				<path d="M323.316,55.484v1.707c0,0.153-0.115,0.28-0.273,0.28h-9.484c-0.148,0-0.275-0.127-0.275-0.28v-1.707
					c0-0.154,0.127-0.274,0.275-0.274h9.484C323.201,55.209,323.316,55.33,323.316,55.484"/>
				<rect x="316.082" y="37.149" width="7.234" height="0.44"/>
				<rect x="313.32" y="65.053" width="10.035" height="0.439"/>
				<path d="M314.215,36.647c0.346,0,0.621,0.281,0.621,0.623c0,0.346-0.275,0.627-0.621,0.627s-0.623-0.281-0.623-0.627
					C313.592,36.928,313.869,36.647,314.215,36.647 M314.516,37.27c0-0.164-0.135-0.297-0.301-0.297
					c-0.168,0-0.303,0.133-0.303,0.297c0,0.168,0.135,0.301,0.303,0.301C314.381,37.571,314.516,37.438,314.516,37.27"/>
				<path fill="none" stroke="#000000" stroke-width="0.6429" stroke-miterlimit="10" d="M324.359,63.082
					c0,0.708-0.574,1.288-1.283,1.288h-9.533c-0.709,0-1.283-0.58-1.283-1.288V36.938c0-0.709,0.574-1.283,1.283-1.283h9.533
					c0.709,0,1.283,0.574,1.283,1.283V63.082z"/>
			</g>
			<g>
				<g>
					
						<line fill="none" stroke="#00A651" stroke-linecap="round" stroke-miterlimit="1" x1="291.057" y1="170.546" x2="291.057" y2="194.141"/>
					<g>
						<polygon fill="#00A651" points="288.732,192.556 291.057,201.229 293.381,192.556 						"/>
					</g>
				</g>
			</g>
			<g>
				<g>
					
						<line fill="none" stroke="#7F3F98" stroke-linecap="round" stroke-miterlimit="1" x1="314.836" y1="160.711" x2="314.836" y2="194.141"/>
					<g>
						<polygon fill="#7F3F98" points="312.512,192.556 314.836,201.229 317.16,192.556 						"/>
					</g>
				</g>
			</g>
			<g>
				<g>
					
						<line fill="none" stroke="#00A651" stroke-linecap="round" stroke-miterlimit="1" x1="273.46" y1="170.546" x2="328.98" y2="170.546"/>
					<g>
						<polygon fill="#00A651" points="327.396,172.871 336.068,170.546 327.396,168.222 						"/>
					</g>
				</g>
			</g>
			<g>
				<g>
					
						<line fill="none" stroke="#7F3F98" stroke-linecap="round" stroke-miterlimit="1" x1="336.068" y1="143.689" x2="378.724" y2="149.873"/>
					<g>
						<polygon fill="#7F3F98" points="376.822,151.945 385.738,150.889 377.488,147.345 						"/>
					</g>
				</g>
			</g>
			<g>
				<g>
					
						<line fill="none" stroke="#00A651" stroke-linecap="round" stroke-miterlimit="1" x1="336.068" y1="170.546" x2="378.812" y2="161.253"/>
					<g>
						<polygon fill="#00A651" points="377.758,163.861 385.738,159.748 376.77,159.319 						"/>
					</g>
				</g>
			</g>
			
				<line fill="none" stroke="#ED1C24" stroke-linecap="round" stroke-miterlimit="1" x1="341.865" y1="79.028" x2="381.062" y2="79.028"/>
			<polygon fill="#ED1C24" points="342.855,80.481 337.436,79.028 342.855,77.577 			"/>
			<polygon fill="#ED1C24" points="380.072,80.481 385.492,79.028 380.072,77.577 			"/>
			
				<line fill="none" stroke="#ED1C24" stroke-linecap="round" stroke-miterlimit="1" x1="341.865" y1="83.071" x2="381.062" y2="83.071"/>
			<polygon fill="#ED1C24" points="342.855,84.524 337.436,83.071 342.855,81.618 			"/>
			<polygon fill="#ED1C24" points="380.072,84.524 385.492,83.071 380.072,81.618 			"/>
			
				<line fill="none" stroke="#ED1C24" stroke-linecap="round" stroke-miterlimit="1" x1="341.865" y1="87.112" x2="381.062" y2="87.112"/>
			<polygon fill="#ED1C24" points="342.855,88.565 337.436,87.112 342.855,85.661 			"/>
			<polygon fill="#ED1C24" points="380.072,88.565 385.492,87.112 380.072,85.661 			"/>
			
				<line fill="none" stroke="#ED1C24" stroke-linecap="round" stroke-miterlimit="1" x1="341.865" y1="95.196" x2="381.062" y2="95.196"/>
			<polygon fill="#ED1C24" points="342.855,96.649 337.436,95.196 342.855,93.745 			"/>
			<polygon fill="#ED1C24" points="380.072,96.649 385.492,95.196 380.072,93.745 			"/>
			
				<line fill="none" stroke="#ED1C24" stroke-linecap="round" stroke-miterlimit="1" x1="341.865" y1="91.155" x2="381.062" y2="91.155"/>
			<polygon fill="#ED1C24" points="342.855,92.608 337.436,91.155 342.855,89.702 			"/>
			<polygon fill="#ED1C24" points="380.072,92.608 385.492,91.155 380.072,89.702 			"/>
			
				<line fill="none" stroke="#ED1C24" stroke-linecap="round" stroke-miterlimit="1" x1="341.865" y1="99.239" x2="381.062" y2="99.239"/>
			<polygon fill="#ED1C24" points="342.855,100.69 337.436,99.239 342.855,97.786 			"/>
			<polygon fill="#ED1C24" points="380.072,100.69 385.492,99.239 380.072,97.786 			"/>
			
				<line fill="none" stroke="#ED1C24" stroke-linecap="round" stroke-miterlimit="1" x1="290.548" y1="79.028" x2="315.345" y2="79.028"/>
			<polygon fill="#ED1C24" points="314.354,80.481 319.774,79.028 314.354,77.577 			"/>
			
				<line fill="none" stroke="#ED1C24" stroke-linecap="round" stroke-miterlimit="1" x1="290.548" y1="83.071" x2="315.345" y2="83.071"/>
			<polygon fill="#ED1C24" points="314.354,84.524 319.774,83.071 314.354,81.618 			"/>
			
				<line fill="none" stroke="#ED1C24" stroke-linecap="round" stroke-miterlimit="1" x1="290.548" y1="87.112" x2="315.345" y2="87.112"/>
			<polygon fill="#ED1C24" points="314.354,88.565 319.774,87.112 314.354,85.661 			"/>
			
				<line fill="none" stroke="#ED1C24" stroke-linecap="round" stroke-miterlimit="1" x1="290.548" y1="95.196" x2="315.345" y2="95.196"/>
			<polygon fill="#ED1C24" points="314.354,96.649 319.774,95.196 314.354,93.745 			"/>
			
				<line fill="none" stroke="#ED1C24" stroke-linecap="round" stroke-miterlimit="1" x1="290.548" y1="91.155" x2="315.345" y2="91.155"/>
			<polygon fill="#ED1C24" points="314.354,92.608 319.774,91.155 314.354,89.702 			"/>
			
				<line fill="none" stroke="#ED1C24" stroke-linecap="round" stroke-miterlimit="1" x1="290.548" y1="99.239" x2="315.345" y2="99.239"/>
			<polygon fill="#ED1C24" points="314.354,100.69 319.774,99.239 314.354,97.786 			"/>
			
				<line fill="none" stroke="#ED1C24" stroke-linecap="round" stroke-miterlimit="1" x1="119.896" y1="79.535" x2="148.295" y2="79.535"/>
			<polygon fill="#ED1C24" points="120.887,80.988 115.467,79.535 120.887,78.083 			"/>
			<polygon fill="#ED1C24" points="147.305,80.988 152.725,79.535 147.305,78.083 			"/>
			
				<line fill="none" stroke="#ED1C24" stroke-linecap="round" stroke-miterlimit="1" x1="119.896" y1="83.578" x2="148.295" y2="83.578"/>
			<polygon fill="#ED1C24" points="120.887,85.03 115.467,83.577 120.887,82.125 			"/>
			<polygon fill="#ED1C24" points="147.305,85.03 152.725,83.577 147.305,82.125 			"/>
			
				<line fill="none" stroke="#ED1C24" stroke-linecap="round" stroke-miterlimit="1" x1="119.896" y1="87.619" x2="148.295" y2="87.619"/>
			<polygon fill="#ED1C24" points="120.887,89.072 115.467,87.619 120.887,86.167 			"/>
			<polygon fill="#ED1C24" points="147.305,89.072 152.725,87.619 147.305,86.167 			"/>
			
				<line fill="none" stroke="#ED1C24" stroke-linecap="round" stroke-miterlimit="1" x1="119.896" y1="95.703" x2="148.295" y2="95.703"/>
			<polygon fill="#ED1C24" points="120.887,97.156 115.467,95.703 120.887,94.25 			"/>
			<polygon fill="#ED1C24" points="147.305,97.156 152.725,95.703 147.305,94.25 			"/>
			
				<line fill="none" stroke="#ED1C24" stroke-linecap="round" stroke-miterlimit="1" x1="119.896" y1="91.662" x2="148.295" y2="91.662"/>
			<polygon fill="#ED1C24" points="120.887,93.114 115.467,91.661 120.887,90.208 			"/>
			<polygon fill="#ED1C24" points="147.305,93.114 152.725,91.661 147.305,90.208 			"/>
			
				<line fill="none" stroke="#ED1C24" stroke-linecap="round" stroke-miterlimit="1" x1="119.896" y1="99.745" x2="148.295" y2="99.745"/>
			<polygon fill="#ED1C24" points="120.887,101.197 115.467,99.745 120.887,98.292 			"/>
			<polygon fill="#ED1C24" points="147.305,101.197 152.725,99.745 147.305,98.292 			"/>
			<rect x="273.699" y="201.688" fill="#CCDEF0" stroke="#000000" stroke-miterlimit="1" width="62" height="30"/>
			<text transform="matrix(1 0 0 1 290.6934 209.3145)"><tspan x="0" y="0" font-size="8">Convert</tspan><tspan x="-5.996" y="9.6" font-size="8">Multi-frame</tspan><tspan x="-12.896" y="19.199" font-size="8">to Single frame</tspan></text>
			<g>
				<g>
					
						<line fill="none" stroke="#ED1C24" stroke-linecap="round" stroke-miterlimit="1" x1="305.447" y1="100.398" x2="305.447" y2="123.624"/>
					<g>
						<polygon fill="#ED1C24" points="303.123,122.038 305.447,130.711 307.771,122.038 						"/>
					</g>
				</g>
			</g>
			
				<rect x="154.672" y="25.506" fill="#86B2D8" stroke="#010101" stroke-width="0.9444" stroke-miterlimit="10" width="88" height="240.132"/>
			<text transform="matrix(1 0 0 1 159.5864 22.6323)" font-size="8">PACS</text>
			<rect x="166.924" y="130.71" fill="#CCDEF0" stroke="#000000" stroke-miterlimit="1" width="62" height="30.001"/>
			<text transform="matrix(1 0 0 1 183.918 138.3369)"><tspan x="0" y="0" font-size="8">Convert</tspan><tspan x="-8.449" y="9.6" font-size="8">Single frame</tspan><tspan x="-10.443" y="19.2" font-size="8">to Multi-frame</tspan></text>
			<path fill="#FFFFFF" d="M220.395,64.641c0,1.367-1.137,2.481-2.537,2.481h-39.926c-1.4,0-2.537-1.114-2.537-2.481V35.765
				c0-1.375,1.137-2.482,2.537-2.482h39.926c1.4,0,2.537,1.107,2.537,2.482V64.641z"/>
			<g>
				<path d="M189.299,47v1.707c0,0.153-0.117,0.273-0.275,0.273h-9.484c-0.148,0-0.275-0.12-0.275-0.273V47
					c0-0.154,0.127-0.275,0.275-0.275h9.484C189.182,46.725,189.299,46.846,189.299,47"/>
				<path d="M189.291,41.176v1.707c0,0.153-0.125,0.274-0.275,0.274h-9.482c-0.148,0-0.275-0.121-0.275-0.274v-1.707
					c0-0.154,0.127-0.274,0.275-0.274h9.482C189.166,40.902,189.291,41.022,189.291,41.176"/>
				<path d="M189.289,58.485v1.703c0,0.158-0.127,0.279-0.275,0.279h-9.482c-0.15,0-0.275-0.121-0.275-0.279v-1.703
					c0-0.152,0.125-0.279,0.275-0.279h9.482C189.162,58.206,189.289,58.333,189.289,58.485"/>
				<path d="M189.285,49.827v1.702c0,0.153-0.125,0.28-0.275,0.28h-9.482c-0.148,0-0.275-0.127-0.275-0.28v-1.702
					c0-0.154,0.127-0.279,0.275-0.279h9.482C189.16,49.547,189.285,49.672,189.285,49.827"/>
				<path d="M189.283,52.662v1.702c0,0.153-0.127,0.279-0.275,0.279h-9.484c-0.156,0-0.275-0.126-0.275-0.279v-1.702
					c0-0.153,0.119-0.279,0.275-0.279h9.484C189.156,52.382,189.283,52.508,189.283,52.662"/>
				<path d="M189.279,44.002v1.703c0,0.153-0.127,0.279-0.275,0.279h-9.482c-0.158,0-0.277-0.126-0.277-0.279v-1.703
					c0-0.154,0.119-0.28,0.277-0.28h9.482C189.152,43.722,189.279,43.848,189.279,44.002"/>
				<path d="M189.275,61.307v1.707c0,0.154-0.125,0.281-0.275,0.281h-9.482c-0.158,0-0.285-0.127-0.285-0.281v-1.707
					c0-0.154,0.127-0.274,0.285-0.274H189C189.15,61.033,189.275,61.153,189.275,61.307"/>
				<path d="M189.27,55.484v1.707c0,0.153-0.125,0.28-0.283,0.28h-9.475c-0.158,0-0.285-0.127-0.285-0.28v-1.707
					c0-0.154,0.127-0.274,0.285-0.274h9.475C189.145,55.209,189.27,55.33,189.27,55.484"/>
				<rect x="182.025" y="37.149" width="7.244" height="0.44"/>
				<rect x="179.264" y="65.053" width="10.035" height="0.439"/>
				<path d="M180.158,36.647c0.346,0,0.631,0.281,0.631,0.623c0,0.346-0.285,0.627-0.631,0.627c-0.336,0-0.623-0.281-0.623-0.627
					C179.535,36.928,179.822,36.647,180.158,36.647 M180.459,37.27c0-0.164-0.135-0.297-0.301-0.297
					c-0.158,0-0.293,0.133-0.293,0.297c0,0.168,0.135,0.301,0.293,0.301C180.324,37.571,180.459,37.438,180.459,37.27"/>
				<path fill="none" stroke="#000000" stroke-width="0.6429" stroke-miterlimit="10" d="M190.303,63.082
					c0,0.708-0.574,1.288-1.283,1.288h-9.533c-0.709,0-1.283-0.58-1.283-1.288V36.938c0-0.709,0.574-1.283,1.283-1.283h9.533
					c0.709,0,1.283,0.574,1.283,1.283V63.082z"/>
			</g>
			<g>
				<path d="M202.945,47v1.707c0,0.153-0.127,0.273-0.275,0.273h-9.482c-0.158,0-0.285-0.12-0.285-0.273V47
					c0-0.154,0.127-0.275,0.285-0.275h9.482C202.818,46.725,202.945,46.846,202.945,47"/>
				<path d="M202.939,41.176v1.707c0,0.153-0.127,0.274-0.285,0.274h-9.473c-0.16,0-0.285-0.121-0.285-0.274v-1.707
					c0-0.154,0.125-0.274,0.285-0.274h9.473C202.812,40.902,202.939,41.022,202.939,41.176"/>
				<path d="M202.936,58.485v1.703c0,0.158-0.125,0.279-0.283,0.279h-9.475c-0.158,0-0.285-0.121-0.285-0.279v-1.703
					c0-0.152,0.127-0.279,0.285-0.279h9.475C202.811,58.206,202.936,58.333,202.936,58.485"/>
				<path d="M202.934,49.827v1.702c0,0.153-0.127,0.28-0.285,0.28h-9.482c-0.15,0-0.275-0.127-0.275-0.28v-1.702
					c0-0.154,0.125-0.279,0.275-0.279h9.482C202.807,49.547,202.934,49.672,202.934,49.827"/>
				<path d="M202.92,52.662v1.702c0,0.153-0.117,0.279-0.275,0.279h-9.484c-0.146,0-0.273-0.126-0.273-0.279v-1.702
					c0-0.153,0.127-0.279,0.273-0.279h9.484C202.803,52.382,202.92,52.508,202.92,52.662"/>
				<path d="M202.918,44.002v1.703c0,0.153-0.119,0.279-0.277,0.279h-9.482c-0.148,0-0.275-0.126-0.275-0.279v-1.703
					c0-0.154,0.127-0.28,0.275-0.28h9.482C202.799,43.722,202.918,43.848,202.918,44.002"/>
				<path d="M202.914,61.307v1.707c0,0.154-0.127,0.281-0.275,0.281h-9.482c-0.15,0-0.275-0.127-0.275-0.281v-1.707
					c0-0.154,0.125-0.274,0.275-0.274h9.482C202.787,61.033,202.914,61.153,202.914,61.307"/>
				<path d="M202.908,55.484v1.707c0,0.153-0.127,0.28-0.275,0.28h-9.484c-0.158,0-0.273-0.127-0.273-0.28v-1.707
					c0-0.154,0.115-0.274,0.273-0.274h9.484C202.781,55.209,202.908,55.33,202.908,55.484"/>
				<rect x="195.662" y="37.149" width="7.246" height="0.44"/>
				<rect x="192.902" y="65.053" width="10.043" height="0.439"/>
				<path d="M193.805,36.647c0.346,0,0.623,0.281,0.623,0.623c0,0.346-0.277,0.627-0.623,0.627s-0.623-0.281-0.623-0.627
					C193.182,36.928,193.459,36.647,193.805,36.647 M194.105,37.27c0-0.164-0.133-0.297-0.301-0.297
					c-0.166,0-0.301,0.133-0.301,0.297c0,0.168,0.135,0.301,0.301,0.301C193.973,37.571,194.105,37.438,194.105,37.27"/>
				<path fill="none" stroke="#000000" stroke-width="0.6429" stroke-miterlimit="10" d="M203.951,63.082
					c0,0.708-0.574,1.288-1.293,1.288h-9.523c-0.719,0-1.293-0.58-1.293-1.288V36.938c0-0.709,0.574-1.283,1.293-1.283h9.523
					c0.719,0,1.293,0.574,1.293,1.283V63.082z"/>
			</g>
			<g>
				<path d="M216.58,47v1.707c0,0.153-0.127,0.273-0.275,0.273h-9.484c-0.148,0-0.275-0.12-0.275-0.273V47
					c0-0.154,0.127-0.275,0.275-0.275h9.484C216.453,46.725,216.58,46.846,216.58,47"/>
				<path d="M216.572,41.176v1.707c0,0.153-0.125,0.274-0.275,0.274h-9.482c-0.158,0-0.275-0.121-0.275-0.274v-1.707
					c0-0.154,0.117-0.274,0.275-0.274h9.482C216.447,40.902,216.572,41.022,216.572,41.176"/>
				<path d="M216.57,58.485v1.703c0,0.158-0.127,0.279-0.275,0.279h-9.482c-0.16,0-0.275-0.121-0.275-0.279v-1.703
					c0-0.152,0.115-0.279,0.275-0.279h9.482C216.443,58.206,216.57,58.333,216.57,58.485"/>
				<path d="M216.566,49.827v1.702c0,0.153-0.125,0.28-0.285,0.28h-9.473c-0.158,0-0.285-0.127-0.285-0.28v-1.702
					c0-0.154,0.127-0.279,0.285-0.279h9.473C216.441,49.547,216.566,49.672,216.566,49.827"/>
				<path d="M216.564,52.662v1.702c0,0.153-0.127,0.279-0.285,0.279h-9.475c-0.156,0-0.285-0.126-0.285-0.279v-1.702
					c0-0.153,0.129-0.279,0.285-0.279h9.475C216.438,52.382,216.564,52.508,216.564,52.662"/>
				<path d="M216.561,44.002v1.703c0,0.153-0.127,0.279-0.285,0.279h-9.473c-0.158,0-0.285-0.126-0.285-0.279v-1.703
					c0-0.154,0.127-0.28,0.285-0.28h9.473C216.434,43.722,216.561,43.848,216.561,44.002"/>
				<path d="M216.557,61.307v1.707c0,0.154-0.125,0.281-0.283,0.281h-9.484c-0.148,0-0.275-0.127-0.275-0.281v-1.707
					c0-0.154,0.127-0.274,0.275-0.274h9.484C216.432,61.033,216.557,61.153,216.557,61.307"/>
				<path d="M216.541,55.484v1.707c0,0.153-0.115,0.28-0.273,0.28h-9.484c-0.148,0-0.275-0.127-0.275-0.28v-1.707
					c0-0.154,0.127-0.274,0.275-0.274h9.484C216.426,55.209,216.541,55.33,216.541,55.484"/>
				<rect x="209.307" y="37.149" width="7.234" height="0.44"/>
				<rect x="206.545" y="65.053" width="10.035" height="0.439"/>
				<path d="M207.439,36.647c0.346,0,0.621,0.281,0.621,0.623c0,0.346-0.275,0.627-0.621,0.627s-0.623-0.281-0.623-0.627
					C206.816,36.928,207.094,36.647,207.439,36.647 M207.74,37.27c0-0.164-0.135-0.297-0.301-0.297
					c-0.168,0-0.303,0.133-0.303,0.297c0,0.168,0.135,0.301,0.303,0.301C207.605,37.571,207.74,37.438,207.74,37.27"/>
				<path fill="none" stroke="#000000" stroke-width="0.6429" stroke-miterlimit="10" d="M217.584,63.082
					c0,0.708-0.574,1.288-1.283,1.288h-9.533c-0.709,0-1.283-0.58-1.283-1.288V36.938c0-0.709,0.574-1.283,1.283-1.283h9.533
					c0.709,0,1.283,0.574,1.283,1.283V63.082z"/>
			</g>
			<g>
				<g>
					
						<line fill="none" stroke="#7F3F98" stroke-linecap="round" stroke-miterlimit="1" x1="166.578" y1="143.689" x2="124.983" y2="143.689"/>
					<g>
						<polygon fill="#7F3F98" points="126.568,141.365 117.896,143.689 126.568,146.013 						"/>
					</g>
				</g>
			</g>
			<g>
				<g>
					
						<line fill="none" stroke="#00A651" stroke-linecap="round" stroke-miterlimit="1" x1="124.983" y1="170.546" x2="159.491" y2="170.546"/>
					<g>
						<polygon fill="#00A651" points="126.568,172.871 117.896,170.546 126.568,168.222 						"/>
					</g>
					<g>
						<polygon fill="#00A651" points="157.905,172.871 166.578,170.546 157.905,168.222 						"/>
					</g>
				</g>
			</g>
			<g>
				<g>
					
						<line fill="none" stroke="#00A651" stroke-linecap="round" stroke-miterlimit="1" x1="184.281" y1="170.546" x2="184.281" y2="194.141"/>
					<g>
						<polygon fill="#00A651" points="181.957,192.556 184.281,201.229 186.605,192.556 						"/>
					</g>
				</g>
			</g>
			<g>
				<g>
					
						<line fill="none" stroke="#7F3F98" stroke-linecap="round" stroke-miterlimit="1" x1="208.061" y1="160.711" x2="208.061" y2="194.141"/>
					<g>
						<polygon fill="#7F3F98" points="205.736,192.556 208.061,201.229 210.385,192.556 						"/>
					</g>
				</g>
			</g>
			<g>
				<g>
					
						<line fill="none" stroke="#00A651" stroke-linecap="round" stroke-miterlimit="1" x1="166.685" y1="170.546" x2="222.206" y2="170.546"/>
					<g>
						<polygon fill="#00A651" points="220.62,172.871 229.293,170.546 220.62,168.222 						"/>
					</g>
				</g>
			</g>
			
				<line fill="none" stroke="#ED1C24" stroke-linecap="round" stroke-miterlimit="1" x1="165.123" y1="206.582" x2="140.326" y2="206.582"/>
			<polygon fill="#ED1C24" points="141.316,208.035 135.896,206.582 141.316,205.131 			"/>
			
				<line fill="none" stroke="#ED1C24" stroke-linecap="round" stroke-miterlimit="1" x1="165.123" y1="210.625" x2="140.326" y2="210.625"/>
			<polygon fill="#ED1C24" points="141.316,212.078 135.896,210.625 141.316,209.172 			"/>
			
				<line fill="none" stroke="#ED1C24" stroke-linecap="round" stroke-miterlimit="1" x1="165.123" y1="214.666" x2="140.326" y2="214.666"/>
			<polygon fill="#ED1C24" points="141.316,216.119 135.896,214.666 141.316,213.215 			"/>
			
				<line fill="none" stroke="#ED1C24" stroke-linecap="round" stroke-miterlimit="1" x1="165.123" y1="222.75" x2="140.326" y2="222.75"/>
			<polygon fill="#ED1C24" points="141.316,224.203 135.896,222.75 141.316,221.299 			"/>
			
				<line fill="none" stroke="#ED1C24" stroke-linecap="round" stroke-miterlimit="1" x1="165.123" y1="218.709" x2="140.326" y2="218.709"/>
			<polygon fill="#ED1C24" points="141.316,220.162 135.896,218.709 141.316,217.256 			"/>
			
				<line fill="none" stroke="#ED1C24" stroke-linecap="round" stroke-miterlimit="1" x1="165.123" y1="226.793" x2="140.326" y2="226.793"/>
			<polygon fill="#ED1C24" points="141.316,228.244 135.896,226.793 141.316,225.34 			"/>
			
				<line fill="none" stroke="#ED1C24" stroke-linecap="round" stroke-miterlimit="1" x1="183.772" y1="79.028" x2="208.569" y2="79.028"/>
			<polygon fill="#ED1C24" points="207.579,80.481 212.999,79.028 207.579,77.577 			"/>
			
				<line fill="none" stroke="#ED1C24" stroke-linecap="round" stroke-miterlimit="1" x1="183.772" y1="83.071" x2="208.569" y2="83.071"/>
			<polygon fill="#ED1C24" points="207.579,84.524 212.999,83.071 207.579,81.618 			"/>
			
				<line fill="none" stroke="#ED1C24" stroke-linecap="round" stroke-miterlimit="1" x1="183.772" y1="87.112" x2="208.569" y2="87.112"/>
			<polygon fill="#ED1C24" points="207.579,88.565 212.999,87.112 207.579,85.661 			"/>
			
				<line fill="none" stroke="#ED1C24" stroke-linecap="round" stroke-miterlimit="1" x1="183.772" y1="95.196" x2="208.569" y2="95.196"/>
			<polygon fill="#ED1C24" points="207.579,96.649 212.999,95.196 207.579,93.745 			"/>
			
				<line fill="none" stroke="#ED1C24" stroke-linecap="round" stroke-miterlimit="1" x1="183.772" y1="91.155" x2="208.569" y2="91.155"/>
			<polygon fill="#ED1C24" points="207.579,92.608 212.999,91.155 207.579,89.702 			"/>
			
				<line fill="none" stroke="#ED1C24" stroke-linecap="round" stroke-miterlimit="1" x1="183.772" y1="99.239" x2="208.569" y2="99.239"/>
			<polygon fill="#ED1C24" points="207.579,100.69 212.999,99.239 207.579,97.786 			"/>
			<rect x="166.924" y="201.688" fill="#CCDEF0" stroke="#000000" stroke-miterlimit="1" width="62" height="30"/>
			<text transform="matrix(1 0 0 1 183.918 209.3145)"><tspan x="0" y="0" font-size="8">Convert</tspan><tspan x="-5.996" y="9.6" font-size="8">Multi-frame</tspan><tspan x="-12.896" y="19.199" font-size="8">to Single frame</tspan></text>
			<g>
				<g>
					
						<line fill="none" stroke="#ED1C24" stroke-linecap="round" stroke-miterlimit="1" x1="198.672" y1="100.398" x2="198.672" y2="123.624"/>
					<g>
						<polygon fill="#ED1C24" points="196.348,122.038 198.672,130.711 200.996,122.038 						"/>
					</g>
				</g>
			</g>
			
				<line fill="none" stroke="#ED1C24" stroke-linecap="round" stroke-miterlimit="1" x1="235.473" y1="79.028" x2="267.469" y2="79.028"/>
			<polygon fill="#ED1C24" points="266.479,80.481 271.898,79.028 266.479,77.577 			"/>
			
				<line fill="none" stroke="#ED1C24" stroke-linecap="round" stroke-miterlimit="1" x1="235.473" y1="83.071" x2="267.469" y2="83.071"/>
			<polygon fill="#ED1C24" points="266.479,84.524 271.898,83.071 266.479,81.618 			"/>
			
				<line fill="none" stroke="#ED1C24" stroke-linecap="round" stroke-miterlimit="1" x1="235.473" y1="87.112" x2="267.469" y2="87.112"/>
			<polygon fill="#ED1C24" points="266.479,88.565 271.898,87.112 266.479,85.661 			"/>
			
				<line fill="none" stroke="#ED1C24" stroke-linecap="round" stroke-miterlimit="1" x1="235.473" y1="95.196" x2="267.469" y2="95.196"/>
			<polygon fill="#ED1C24" points="266.479,96.649 271.898,95.196 266.479,93.745 			"/>
			
				<line fill="none" stroke="#ED1C24" stroke-linecap="round" stroke-miterlimit="1" x1="235.473" y1="91.155" x2="267.469" y2="91.155"/>
			<polygon fill="#ED1C24" points="266.479,92.608 271.898,91.155 266.479,89.702 			"/>
			
				<line fill="none" stroke="#ED1C24" stroke-linecap="round" stroke-miterlimit="1" x1="235.473" y1="99.239" x2="267.469" y2="99.239"/>
			<polygon fill="#ED1C24" points="266.479,100.69 271.898,99.239 266.479,97.786 			"/>
			<g>
				<g>
					
						<line fill="none" stroke="#7F3F98" stroke-linecap="round" stroke-miterlimit="1" x1="228.994" y1="143.689" x2="266.266" y2="143.689"/>
					<g>
						<polygon fill="#7F3F98" points="264.681,146.013 273.354,143.689 264.681,141.365 						"/>
					</g>
				</g>
			</g>
			<g>
				<g>
					
						<line fill="none" stroke="#00A651" stroke-linecap="round" stroke-miterlimit="1" x1="228.273" y1="170.546" x2="266.266" y2="170.546"/>
					<g>
						<polygon fill="#00A651" points="264.681,172.871 273.354,170.546 264.681,168.222 						"/>
					</g>
				</g>
			</g>
			<polygon fill="#ED1C24" points="266.479,208.035 271.898,206.582 266.479,205.131 			"/>
			<polygon fill="#ED1C24" points="266.479,212.078 271.898,210.625 266.479,209.172 			"/>
			<polygon fill="#ED1C24" points="266.479,216.119 271.898,214.666 266.479,213.215 			"/>
			<polygon fill="#ED1C24" points="266.479,224.203 271.898,222.75 266.479,221.299 			"/>
			<polygon fill="#ED1C24" points="266.479,220.162 271.898,218.709 266.479,217.256 			"/>
			<polygon fill="#ED1C24" points="266.479,228.244 271.898,226.793 266.479,225.34 			"/>
			
				<line fill="none" stroke="#ED1C24" stroke-linecap="round" stroke-miterlimit="1" x1="228.994" y1="206.582" x2="267.469" y2="206.582"/>
			
				<line fill="none" stroke="#ED1C24" stroke-linecap="round" stroke-miterlimit="1" x1="228.994" y1="210.625" x2="267.469" y2="210.625"/>
			
				<line fill="none" stroke="#ED1C24" stroke-linecap="round" stroke-miterlimit="1" x1="228.994" y1="214.666" x2="267.469" y2="214.666"/>
			
				<line fill="none" stroke="#ED1C24" stroke-linecap="round" stroke-miterlimit="1" x1="228.994" y1="222.75" x2="267.469" y2="222.75"/>
			
				<line fill="none" stroke="#ED1C24" stroke-linecap="round" stroke-miterlimit="1" x1="228.994" y1="218.709" x2="267.469" y2="218.709"/>
			
				<line fill="none" stroke="#ED1C24" stroke-linecap="round" stroke-miterlimit="1" x1="228.994" y1="226.793" x2="267.469" y2="226.793"/>
		</g>
		<rect x="50.401" y="281.52" fill="#FFFFFF" width="159.888" height="74.939"/>
		<rect x="53.603" y="286.588" fill="none" width="153.977" height="66.539"/>
		<text transform="matrix(0.9288 0 0 1 53.6035 293.0293)"><tspan x="0" y="0" font-size="9">Legend:</tspan><tspan x="38.759" y="18.8" font-size="9">Classic Single Frame</tspan><tspan x="38.759" y="37.6" font-size="9">Legacy Converted Multi-Frame</tspan><tspan x="38.759" y="56.4" font-size="9">True Enhanced Multi-Frame</tspan></text>
		<g>
			<g>
				
					<line fill="none" stroke="#ED1C24" stroke-width="2" stroke-linecap="round" stroke-miterlimit="1" x1="58.027" y1="309.166" x2="79.338" y2="309.166"/>
				<g>
					<polygon fill="#ED1C24" points="77.753,311.49 86.426,309.166 77.753,306.842 					"/>
				</g>
			</g>
		</g>
		<g>
			<g>
				
					<line fill="none" stroke="#7F3F98" stroke-width="2" stroke-linecap="round" stroke-miterlimit="1" x1="58.027" y1="328.072" x2="79.338" y2="328.072"/>
				<g>
					<polygon fill="#7F3F98" points="77.753,330.396 86.426,328.072 77.753,325.748 					"/>
				</g>
			</g>
		</g>
		<g>
			<g>
				
					<line fill="none" stroke="#00A651" stroke-width="2" stroke-linecap="round" stroke-miterlimit="1" x1="58.027" y1="346.977" x2="79.338" y2="346.977"/>
				<g>
					<polygon fill="#00A651" points="77.753,349.301 86.426,346.977 77.753,344.652 					"/>
				</g>
			</g>
		</g>
	</g>
</g>
</svg>
