<?xml version="1.0" encoding="utf-8"?>
<!-- $Source: /home/bbennett/pass/archive/DicomXml/docbook/part17/figures/PS3.17_E.1-1.svg,v $ -->
<!-- $Date: 2014/05/09 12:30:20 $ -->
<!-- $Revision: 1.2 $ -->

<!DOCTYPE svg PUBLIC "-//W3C//DTD SVG 1.1//EN" "http://www.w3.org/Graphics/SVG/1.1/DTD/svg11.dtd">
<svg version="1.1" id="Layer_1" xmlns="http://www.w3.org/2000/svg" xmlns:xlink="http://www.w3.org/1999/xlink" x="0px" y="0px"
	 width="502px" height="392px" viewBox="0 0 502 392" enable-background="new 0 0 502 392" xml:space="preserve">

<defs>
	<style type="text/css">
	text {
	  font-family: Helvetica, Verdana, ArialUnicodeMS, san-serif
	}
	</style>
</defs>

<g>
   <desc>
	PS 3.17 Part 17: Explanatory Information
   </desc>
</g>

<g>
	<rect x="1" y="1" fill="#F5EED6" width="500" height="390"/>
	<g>
		<g>
			
				<polygon fill="#CCDEF0" stroke="#010101" stroke-width="0.75" stroke-linecap="round" stroke-linejoin="round" stroke-miterlimit="1" points="
				96.464,232.926 136.492,215.357 176.587,233.494 176.587,233.535 136.447,251.357 			"/>
		</g>
		<text transform="matrix(0.8902 0 0 1 130.1221 226.8984)"><tspan x="0" y="0" font-size="7">HAS</tspan><tspan x="-15.555" y="8.4" font-size="7">ACQUISITION</tspan><tspan x="-9.526" y="16.8" font-size="7">CONTEXT</tspan></text>
		<g>
			
				<polygon fill="#CCDEF0" stroke="#010101" stroke-width="0.75" stroke-linecap="round" stroke-linejoin="round" stroke-miterlimit="1" points="
				12.5,232.926 52.528,215.357 92.625,233.494 92.625,233.535 52.485,251.357 			"/>
		</g>
		<text transform="matrix(0.8902 0 0 1 46.1602 226.8984)"><tspan x="0" y="0" font-size="7">HAS</tspan><tspan x="-15.555" y="8.4" font-size="7">ACQUISITION</tspan><tspan x="-9.526" y="16.8" font-size="7">CONTEXT</tspan></text>
		<g>
			
				<polygon fill="#CCDEF0" stroke="#010101" stroke-width="0.75" stroke-linecap="round" stroke-linejoin="round" stroke-miterlimit="1" points="
				392.74,343.486 436.775,330.312 480.881,343.912 480.881,343.943 436.727,357.307 			"/>
		</g>
		<text transform="matrix(0.8902 0 0 1 420.7227 345.7559)" font-size="7">CONTAINS</text>
		
			<polygon fill="#CCDEF0" stroke="#010101" stroke-width="0.75" stroke-linecap="round" stroke-linejoin="round" stroke-miterlimit="1" points="
			280.676,343.486 324.703,330.312 368.807,343.912 368.807,343.943 324.656,357.307 		"/>
		<text transform="matrix(0.8902 0 0 1 308.6426 345.7559)" font-size="7">CONTAINS</text>
		<g>
			<g>
				
					<line fill="none" stroke="#005695" stroke-linecap="round" stroke-miterlimit="1" x1="325.678" y1="260.898" x2="325.678" y2="269.971"/>
				<path fill="#005695" d="M326.703,272.332c0.499-1.652,0.959-2.728,1.491-4.054h-5.044c0.225,0.475,0.992,2.401,1.491,4.054
					c0.534,1.77,0.9,3.375,1.03,4.415C325.803,275.707,326.168,274.102,326.703,272.332z"/>
			</g>
		</g>
		<g>
			<g>
				<polyline fill="none" stroke="#005695" stroke-linecap="round" stroke-miterlimit="1" points="382.549,201.15 382.549,221.719 
					325.678,221.719 325.678,228.104 				"/>
				<path fill="#005695" d="M326.703,230.465c0.499-1.652,0.959-2.728,1.491-4.054h-5.044c0.225,0.475,0.992,2.401,1.491,4.054
					c0.534,1.77,0.9,3.375,1.03,4.415C325.803,233.84,326.168,232.234,326.703,230.465z"/>
			</g>
		</g>
		<g>
			<g>
				
					<line fill="none" stroke="#005695" stroke-linecap="round" stroke-miterlimit="1" x1="437.42" y1="261.494" x2="437.42" y2="269.969"/>
				<path fill="#005695" d="M438.445,272.33c0.499-1.652,0.959-2.728,1.491-4.054h-5.044c0.225,0.475,0.992,2.401,1.491,4.054
					c0.534,1.77,0.9,3.375,1.03,4.415C437.545,275.705,437.91,274.1,438.445,272.33z"/>
			</g>
		</g>
		<g>
			<g>
				<polyline fill="none" stroke="#005695" stroke-linecap="round" stroke-miterlimit="1" points="382.57,221.719 437.42,221.719 
					437.42,227.104 				"/>
				<path fill="#005695" d="M438.445,229.465c0.499-1.652,0.959-2.728,1.491-4.054h-5.044c0.225,0.475,0.992,2.401,1.491,4.054
					c0.534,1.77,0.9,3.375,1.03,4.415C437.545,232.84,437.91,231.234,438.445,229.465z"/>
			</g>
		</g>
		
			<line fill="none" stroke="#005695" stroke-width="2" stroke-linecap="round" stroke-miterlimit="1" stroke-dasharray="3,4" x1="206.545" y1="196.995" x2="222.57" y2="196.995"/>
		
			<line fill="none" stroke="#005695" stroke-width="2" stroke-linecap="round" stroke-miterlimit="1" stroke-dasharray="3,4" x1="290.334" y1="196.995" x2="306.357" y2="196.995"/>
		
			<line fill="none" stroke="#005695" stroke-width="2" stroke-linecap="round" stroke-miterlimit="1" stroke-dasharray="3,4" x1="44.55" y1="269.16" x2="60.574" y2="269.16"/>
		
			<line fill="none" stroke="#005695" stroke-width="2" stroke-linecap="round" stroke-miterlimit="1" stroke-dasharray="3,4" x1="128.512" y1="269.158" x2="144.537" y2="269.158"/>
		
			<line fill="none" stroke="#005695" stroke-width="2" stroke-linecap="round" stroke-miterlimit="1" stroke-dasharray="3,4" x1="222.7" y1="285.602" x2="238.724" y2="285.602"/>
		
			<line fill="none" stroke="#005695" stroke-width="2" stroke-linecap="round" stroke-miterlimit="1" stroke-dasharray="3,4" x1="317.668" y1="376.432" x2="333.691" y2="376.432"/>
		
			<line fill="none" stroke="#005695" stroke-width="2" stroke-linecap="round" stroke-miterlimit="1" stroke-dasharray="3,4" x1="429.408" y1="376.432" x2="445.432" y2="376.432"/>
		<g>
			<g>
				<path fill="none" stroke="#005695" stroke-linecap="round" stroke-miterlimit="1" d="M94.063,91.075c0,0,0,2.347,0,5.027"/>
				<path fill="#005695" d="M95.088,98.464c0.5-1.653,0.959-2.728,1.492-4.054h-5.044c0.226,0.475,0.993,2.401,1.492,4.054
					c0.535,1.77,0.9,3.374,1.031,4.415C94.188,101.838,94.554,100.234,95.088,98.464z"/>
			</g>
		</g>
		<g>
			<g>
				<polyline fill="none" stroke="#005695" stroke-linecap="round" stroke-miterlimit="1" points="255.869,42.205 255.869,51.188 
					94.063,51.188 94.063,57.102 				"/>
				<path fill="#005695" d="M95.088,59.463c0.5-1.653,0.959-2.728,1.492-4.054h-5.044c0.226,0.475,0.993,2.401,1.492,4.054
					c0.535,1.77,0.9,3.374,1.031,4.415C94.188,62.837,94.554,61.233,95.088,59.463z"/>
			</g>
		</g>
		<g>
			<g>
				
					<line fill="none" stroke="#005695" stroke-linecap="round" stroke-miterlimit="1" x1="51.951" y1="203.199" x2="51.951" y2="209.305"/>
				<path fill="#005695" d="M52.976,211.666c0.5-1.652,0.959-2.728,1.492-4.054h-5.044c0.226,0.475,0.993,2.401,1.492,4.054
					c0.535,1.77,0.9,3.375,1.031,4.415C52.076,215.041,52.441,213.436,52.976,211.666z"/>
			</g>
		</g>
		<g>
			<g>
				<polyline fill="none" stroke="#005695" stroke-linecap="round" stroke-miterlimit="1" points="94.219,123.67 94.219,143.688 
					51.951,143.688 51.951,148.602 				"/>
				<path fill="#005695" d="M52.976,150.963c0.5-1.653,0.959-2.728,1.492-4.054h-5.044c0.226,0.475,0.993,2.401,1.492,4.054
					c0.535,1.77,0.9,3.374,1.031,4.415C52.076,154.337,52.441,152.733,52.976,150.963z"/>
			</g>
		</g>
		<g>
			<g>
				
					<line fill="none" stroke="#005695" stroke-linecap="round" stroke-miterlimit="1" x1="136.516" y1="251.357" x2="136.516" y2="260.898"/>
				<path fill="#005695" d="M137.541,263.26c0.5-1.652,0.959-2.728,1.492-4.054h-5.044c0.226,0.475,0.993,2.401,1.492,4.054
					c0.535,1.77,0.9,3.375,1.031,4.415C136.641,266.635,137.006,265.029,137.541,263.26z"/>
			</g>
		</g>
		<g>
			<g>
				
					<line fill="none" stroke="#005695" stroke-linecap="round" stroke-miterlimit="1" x1="52.563" y1="251.357" x2="52.563" y2="260.898"/>
				<path fill="#005695" d="M53.588,263.26c0.5-1.652,0.959-2.728,1.492-4.054h-5.044c0.226,0.475,0.993,2.401,1.492,4.054
					c0.535,1.77,0.9,3.375,1.031,4.415C52.688,266.635,53.054,265.029,53.588,263.26z"/>
			</g>
		</g>
		<g>
			<g>
				
					<line fill="none" stroke="#005695" stroke-linecap="round" stroke-miterlimit="1" x1="136.516" y1="203.48" x2="136.516" y2="209.805"/>
				<path fill="#005695" d="M137.541,212.166c0.5-1.652,0.959-2.728,1.492-4.054h-5.044c0.226,0.475,0.993,2.401,1.492,4.054
					c0.535,1.77,0.9,3.375,1.031,4.415C136.641,215.541,137.007,213.936,137.541,212.166z"/>
			</g>
		</g>
		<g>
			<g>
				
					<line fill="none" stroke="#005695" stroke-linecap="round" stroke-miterlimit="1" x1="136.516" y1="171.696" x2="136.516" y2="177.602"/>
				<path fill="#005695" d="M137.541,179.963c0.5-1.653,0.959-2.728,1.492-4.054h-5.044c0.226,0.475,0.993,2.401,1.492,4.054
					c0.535,1.77,0.9,3.374,1.031,4.415C136.641,183.337,137.007,181.733,137.541,179.963z"/>
			</g>
		</g>
		<g>
			<g>
				
					<line fill="none" stroke="#005695" stroke-linecap="round" stroke-miterlimit="1" x1="52.562" y1="171.696" x2="52.562" y2="177.602"/>
				<path fill="#005695" d="M53.587,179.963c0.5-1.653,0.959-2.728,1.492-4.054h-5.044c0.226,0.475,0.993,2.401,1.492,4.054
					c0.535,1.77,0.9,3.374,1.031,4.415C52.688,183.337,53.053,181.733,53.587,179.963z"/>
			</g>
		</g>
		<g>
			<g>
				<polyline fill="none" stroke="#005695" stroke-linecap="round" stroke-miterlimit="1" points="93.545,143.688 136.516,143.688 
					136.516,148.603 				"/>
				<path fill="#005695" d="M137.541,150.964c0.5-1.653,0.959-2.728,1.492-4.054h-5.044c0.226,0.475,0.993,2.401,1.492,4.054
					c0.535,1.77,0.9,3.374,1.031,4.415C136.641,154.338,137.006,152.734,137.541,150.964z"/>
			</g>
		</g>
		<g>
			<g>
				<path fill="none" stroke="#005695" stroke-linecap="round" stroke-miterlimit="1" d="M214.558,91.085c0,0,0,2.342,0,5.018"/>
				<path fill="#005695" d="M215.583,98.464c0.5-1.653,0.959-2.728,1.492-4.054h-5.044c0.226,0.475,0.993,2.401,1.492,4.054
					c0.535,1.77,0.9,3.374,1.031,4.415C214.683,101.838,215.048,100.234,215.583,98.464z"/>
			</g>
		</g>
		<g>
			<g>
				<polyline fill="none" stroke="#005695" stroke-linecap="round" stroke-miterlimit="1" points="255.869,51.188 214.557,51.188 
					214.557,56.602 				"/>
				<path fill="#005695" d="M215.582,58.963c0.5-1.653,0.959-2.728,1.492-4.054h-5.044c0.226,0.475,0.993,2.401,1.492,4.054
					c0.535,1.77,0.9,3.374,1.031,4.415C214.682,62.337,215.047,60.733,215.582,58.963z"/>
			</g>
		</g>
		<g>
			<g>
				
					<line fill="none" stroke="#005695" stroke-linecap="round" stroke-miterlimit="1" x1="230.96" y1="261.494" x2="230.96" y2="276.082"/>
				<path fill="#005695" d="M231.985,278.443c0.5-1.652,0.959-2.728,1.492-4.054h-5.044c0.226,0.475,0.993,2.401,1.492,4.054
					c0.535,1.77,0.9,3.375,1.031,4.415C231.085,281.818,231.451,280.213,231.985,278.443z"/>
			</g>
		</g>
		<g>
			<g>
				<polyline fill="none" stroke="#005695" stroke-linecap="round" stroke-miterlimit="1" points="325.842,221.719 230.96,221.719 
					230.96,227.604 				"/>
				<path fill="#005695" d="M231.985,229.965c0.5-1.652,0.959-2.728,1.492-4.054h-5.044c0.226,0.475,0.993,2.401,1.492,4.054
					c0.535,1.77,0.9,3.375,1.031,4.415C231.085,233.34,231.451,231.734,231.985,229.965z"/>
			</g>
		</g>
		<g>
			<g>
				
					<line fill="none" stroke="#005695" stroke-linecap="round" stroke-miterlimit="1" x1="297.984" y1="91.089" x2="297.984" y2="96.103"/>
				<path fill="#005695" d="M299.01,98.464c0.499-1.653,0.959-2.728,1.491-4.054h-5.044c0.225,0.475,0.992,2.401,1.491,4.054
					c0.534,1.77,0.9,3.374,1.03,4.415C298.109,101.838,298.475,100.234,299.01,98.464z"/>
			</g>
		</g>
		<g>
			<g>
				<polyline fill="none" stroke="#005695" stroke-linecap="round" stroke-miterlimit="1" points="255.869,51.188 297.984,51.188 
					297.984,57.102 				"/>
				<path fill="#005695" d="M299.01,59.463c0.499-1.653,0.959-2.728,1.491-4.054h-5.044c0.225,0.475,0.992,2.401,1.491,4.054
					c0.534,1.77,0.9,3.374,1.03,4.415C298.109,62.837,298.475,61.233,299.01,59.463z"/>
			</g>
		</g>
		<g>
			<g>
				
					<line fill="none" stroke="#005695" stroke-linecap="round" stroke-miterlimit="1" x1="382.436" y1="91.089" x2="382.436" y2="171.102"/>
				<path fill="#005695" d="M383.461,173.463c0.499-1.653,0.959-2.728,1.491-4.054h-5.044c0.225,0.475,0.992,2.401,1.491,4.054
					c0.534,1.77,0.9,3.374,1.03,4.415C382.561,176.837,382.926,175.233,383.461,173.463z"/>
			</g>
		</g>
		<g>
			<g>
				<polyline fill="none" stroke="#005695" stroke-linecap="round" stroke-miterlimit="1" points="255.869,51.188 382.436,51.188 
					382.436,57.102 				"/>
				<path fill="#005695" d="M383.461,59.463c0.499-1.653,0.959-2.728,1.491-4.054h-5.044c0.225,0.475,0.992,2.401,1.491,4.054
					c0.534,1.77,0.9,3.374,1.03,4.415C382.561,62.837,382.926,61.233,383.461,59.463z"/>
			</g>
		</g>
		<g>
			<g>
				
					<line fill="none" stroke="#005695" stroke-linecap="round" stroke-miterlimit="1" x1="297.984" y1="176.478" x2="297.984" y2="187.874"/>
				<path fill="#005695" d="M299.01,190.236c0.499-1.653,0.959-2.728,1.491-4.054h-5.044c0.225,0.475,0.992,2.401,1.491,4.054
					c0.534,1.77,0.9,3.374,1.03,4.415C298.109,193.61,298.475,192.005,299.01,190.236z"/>
			</g>
		</g>
		<g>
			<g>
				
					<line fill="none" stroke="#005695" stroke-linecap="round" stroke-miterlimit="1" x1="297.984" y1="144.102" x2="297.984" y2="176.478"/>
				<path fill="#005695" d="M299.01,178.839c0.499-1.653,0.959-2.728,1.491-4.054h-5.044c0.225,0.475,0.992,2.401,1.491,4.054
					c0.534,1.77,0.9,3.374,1.03,4.415C298.109,182.213,298.475,180.609,299.01,178.839z"/>
			</g>
		</g>
		<g>
			<g>
				
					<line fill="none" stroke="#005695" stroke-linecap="round" stroke-miterlimit="1" x1="297.984" y1="137.223" x2="297.984" y2="144.102"/>
				<path fill="#005695" d="M299.01,146.463c0.499-1.653,0.959-2.728,1.491-4.054h-5.044c0.225,0.475,0.992,2.401,1.491,4.054
					c0.534,1.77,0.9,3.374,1.03,4.415C298.109,149.837,298.475,148.233,299.01,146.463z"/>
			</g>
		</g>
		<g>
			<g>
				
					<line fill="none" stroke="#005695" stroke-linecap="round" stroke-miterlimit="1" x1="214.557" y1="176.48" x2="214.557" y2="187.874"/>
				<path fill="#005695" d="M215.582,190.236c0.5-1.653,0.959-2.728,1.492-4.054h-5.044c0.226,0.475,0.993,2.401,1.492,4.054
					c0.535,1.77,0.9,3.374,1.031,4.415C214.682,193.61,215.047,192.005,215.582,190.236z"/>
			</g>
		</g>
		<g>
			<g>
				
					<line fill="none" stroke="#005695" stroke-linecap="round" stroke-miterlimit="1" x1="214.556" y1="143.102" x2="214.557" y2="176.48"/>
				<path fill="#005695" d="M215.582,178.842c0.5-1.653,0.959-2.728,1.492-4.054h-5.044c0.226,0.475,0.993,2.401,1.492,4.054
					c0.535,1.77,0.9,3.374,1.031,4.415C214.682,182.216,215.047,180.612,215.582,178.842z"/>
			</g>
		</g>
		<g>
			<g>
				
					<line fill="none" stroke="#005695" stroke-linecap="round" stroke-miterlimit="1" x1="214.557" y1="137.223" x2="214.556" y2="143.102"/>
				<path fill="#005695" d="M215.58,145.463c0.5-1.653,0.96-2.728,1.493-4.054l-5.044-0.001c0.225,0.475,0.992,2.401,1.491,4.055
					c0.535,1.77,0.9,3.374,1.03,4.415C214.68,148.837,215.046,147.233,215.58,145.463z"/>
			</g>
		</g>
		<g>
			<g>
				
					<line fill="none" stroke="#005695" stroke-linecap="round" stroke-miterlimit="1" x1="437.42" y1="357.307" x2="437.42" y2="366.393"/>
				<path fill="#005695" d="M438.445,368.754c0.499-1.652,0.959-2.728,1.491-4.054h-5.044c0.225,0.475,0.992,2.401,1.491,4.054
					c0.534,1.77,0.9,3.375,1.03,4.415C437.545,372.129,437.91,370.523,438.445,368.754z"/>
			</g>
		</g>
		<g>
			<g>
				
					<line fill="none" stroke="#005695" stroke-linecap="round" stroke-miterlimit="1" x1="437.42" y1="312.463" x2="437.42" y2="324.266"/>
				<path fill="#005695" d="M438.445,326.627c0.499-1.652,0.959-2.728,1.491-4.054h-5.044c0.225,0.475,0.992,2.401,1.491,4.054
					c0.534,1.77,0.9,3.375,1.03,4.415C437.545,330.002,437.91,328.396,438.445,326.627z"/>
			</g>
		</g>
		<g>
			<g>
				
					<line fill="none" stroke="#005695" stroke-linecap="round" stroke-miterlimit="1" x1="325.678" y1="356.996" x2="325.678" y2="366.393"/>
				<path fill="#005695" d="M326.703,368.754c0.499-1.652,0.959-2.728,1.491-4.054h-5.044c0.225,0.475,0.992,2.401,1.491,4.054
					c0.534,1.77,0.9,3.375,1.03,4.415C325.803,372.129,326.168,370.523,326.703,368.754z"/>
			</g>
		</g>
		<g>
			<g>
				
					<line fill="none" stroke="#005695" stroke-linecap="round" stroke-miterlimit="1" x1="325.678" y1="312.463" x2="325.678" y2="324.266"/>
				<path fill="#005695" d="M326.703,326.627c0.499-1.652,0.959-2.728,1.491-4.054h-5.044c0.225,0.475,0.992,2.401,1.491,4.054
					c0.534,1.77,0.9,3.375,1.03,4.415C325.803,330.002,326.168,328.396,326.703,326.627z"/>
			</g>
		</g>
		<g>
			
				<rect x="219.814" y="15.568" fill="#B2CEE7" stroke="#010101" stroke-width="0.75" stroke-linecap="round" stroke-linejoin="round" stroke-miterlimit="1" width="72.111" height="27.001"/>
			<g>
				<text transform="matrix(0.8902 0 0 1 231.1294 26.499)"><tspan x="0" y="0" font-size="8">Document Root</tspan><tspan x="1.57" y="9.6" font-size="8">(CONTAINER)</tspan></text>
			</g>
		</g>
		<g>
			
				<rect x="330.059" y="177.381" fill="#B2CEE7" stroke="#010101" stroke-width="0.75" stroke-linecap="round" stroke-linejoin="round" stroke-miterlimit="1" width="104.158" height="26.996"/>
			<g>
				<text transform="matrix(0.8902 0 0 1 334.6367 187.9844)"><tspan x="0" y="0" font-size="8">CAD Processing and Findings</tspan><tspan x="20.913" y="9.6" font-size="8">Summary (CODE)</tspan></text>
			</g>
		</g>
		<g>
			
				<rect x="190.521" y="101.223" fill="#B2CEE7" stroke="#010101" stroke-width="0.75" stroke-linecap="round" stroke-linejoin="round" stroke-miterlimit="1" width="48.072" height="36"/>
			<g>
				<text transform="matrix(0.8902 0 0 1 195.3628 110.9272)"><tspan x="0" y="0" font-size="8">Summary of</tspan><tspan x="2.662" y="9.6" font-size="8">Detections</tspan><tspan x="7.34" y="19.2" font-size="8">(CODE)</tspan></text>
			</g>
		</g>
		
			<rect x="273.6" y="277.023" fill="#B2CEE7" stroke="#010101" stroke-width="0.75" stroke-linecap="round" stroke-linejoin="round" stroke-miterlimit="1" width="104.16" height="36"/>
		<g>
			<text transform="matrix(0.8902 0 0 1 310.6348 287.6543)"><tspan x="0" y="0" font-size="8">Individual</tspan><tspan x="-37.346" y="9.6" font-size="8">Impression / Recommendation</tspan><tspan x="-9.32" y="19.2" font-size="8">(CONTAINER)</tspan></text>
		</g>
		
			<rect x="385.34" y="277.023" fill="#B2CEE7" stroke="#010101" stroke-width="0.75" stroke-linecap="round" stroke-linejoin="round" stroke-miterlimit="1" width="104.16" height="36"/>
		<g>
			<text transform="matrix(0.8902 0 0 1 422.375 287.6543)"><tspan x="0" y="0" font-size="8">Individual</tspan><tspan x="-37.346" y="9.6" font-size="8">Impression / Recommendation</tspan><tspan x="-9.32" y="19.2" font-size="8">(CONTAINER)</tspan></text>
		</g>
		<g>
			
				<rect x="274.314" y="102.144" fill="#B2CEE7" stroke="#010101" stroke-width="0.75" stroke-linecap="round" stroke-linejoin="round" stroke-miterlimit="1" width="48.07" height="36"/>
			<g>
				<text transform="matrix(0.8902 0 0 1 279.1562 111.8486)"><tspan x="0" y="0" font-size="8">Summary of</tspan><tspan x="5.331" y="9.6" font-size="8">Analyses</tspan><tspan x="7.341" y="19.2" font-size="8">(CODE)</tspan></text>
			</g>
		</g>
		
			<polyline fill="#B2CEE7" stroke="#010101" stroke-width="0.75" stroke-linecap="round" stroke-linejoin="round" stroke-miterlimit="1" points="
			136.516,203.48 116.492,203.48 116.492,185.479 156.552,185.479 156.552,203.48 136.516,203.48 		"/>
		<g>
			<text transform="matrix(0.8902 0 0 1 122.6777 196.7051)" font-size="8">(IMAGE)</text>
		</g>
		<g>
			<g>
				
					<rect x="58.007" y="101.223" fill="#B2CEE7" stroke="#010101" stroke-width="0.75" stroke-linecap="round" stroke-linejoin="round" stroke-miterlimit="1" width="72.108" height="27"/>
				<g>
					<text transform="matrix(0.8902 0 0 1 72.2925 111.8276)"><tspan x="0" y="0" font-size="8">Image Library</tspan><tspan x="-1.766" y="9.6" font-size="8">(CONTAINER)</tspan></text>
				</g>
			</g>
		</g>
		
			<rect x="32.532" y="185.2" fill="#B2CEE7" stroke="#010101" stroke-width="0.75" stroke-linecap="round" stroke-linejoin="round" stroke-miterlimit="1" width="40.06" height="17.999"/>
		<g>
			<text transform="matrix(0.8902 0 0 1 38.7148 196.7051)" font-size="8">(IMAGE)</text>
		</g>
		<g>
			
				<polygon fill="#CCDEF0" stroke="#010101" stroke-width="0.75" stroke-linecap="round" stroke-linejoin="round" stroke-miterlimit="1" points="
				186.891,247.674 230.922,234.5 275.031,248.1 275.031,248.131 230.874,261.494 			"/>
		</g>
		<text transform="matrix(0.8902 0 0 1 224.5552 245.7432)"><tspan x="0" y="0" font-size="7">HAS</tspan><tspan x="-15.364" y="8.4" font-size="7">PROPERTIES</tspan></text>
		<g>
			
				<polygon fill="#CCDEF0" stroke="#010101" stroke-width="0.75" stroke-linecap="round" stroke-linejoin="round" stroke-miterlimit="1" points="
				392.74,247.674 436.775,234.5 480.881,248.1 480.881,248.131 436.727,261.494 			"/>
		</g>
		<text transform="matrix(0.8902 0 0 1 410.8574 249.9443)" font-size="7">INFERRED FROM</text>
		
			<polygon fill="#CCDEF0" stroke="#010101" stroke-width="0.75" stroke-linecap="round" stroke-linejoin="round" stroke-miterlimit="1" points="
			280.676,247.674 324.703,234.5 368.807,248.1 368.807,248.131 324.656,261.494 		"/>
		<text transform="matrix(0.8902 0 0 1 298.7773 249.9443)" font-size="7">INFERRED FROM</text>
		
			<polygon fill="#CCDEF0" stroke="#010101" stroke-width="0.75" stroke-linecap="round" stroke-linejoin="round" stroke-miterlimit="1" points="
			257.928,162.657 297.957,149.483 338.047,163.083 338.047,163.114 297.914,176.478 		"/>
		<text transform="matrix(0.8902 0 0 1 272.0254 164.9287)" font-size="7">INFERRED FROM</text>
		
			<polygon fill="#CCDEF0" stroke="#010101" stroke-width="0.75" stroke-linecap="round" stroke-linejoin="round" stroke-miterlimit="1" points="
			174.718,162.657 214.745,149.483 254.838,163.083 254.838,163.114 214.702,176.478 		"/>
		<text transform="matrix(0.8902 0 0 1 188.8145 164.9287)" font-size="7">INFERRED FROM</text>
		
			<polygon fill="#CCDEF0" stroke="#010101" stroke-width="0.75" stroke-linecap="round" stroke-linejoin="round" stroke-miterlimit="1" points="
			257.928,77.268 297.957,64.094 338.047,77.693 338.047,77.725 297.914,91.089 		"/>
		<text transform="matrix(0.8902 0 0 1 281.8906 79.5396)" font-size="7">CONTAINS</text>
		
			<polygon fill="#CCDEF0" stroke="#010101" stroke-width="0.75" stroke-linecap="round" stroke-linejoin="round" stroke-miterlimit="1" points="
			342.078,77.268 382.107,64.094 422.197,77.693 422.197,77.725 382.064,91.089 		"/>
		<text transform="matrix(0.8902 0 0 1 366.0391 79.5396)" font-size="7">CONTAINS</text>
		
			<polygon fill="#CCDEF0" stroke="#010101" stroke-width="0.75" stroke-linecap="round" stroke-linejoin="round" stroke-miterlimit="1" points="
			53.684,77.268 93.71,64.094 133.803,77.693 133.803,77.725 93.667,91.089 		"/>
		<text transform="matrix(0.8902 0 0 1 77.6436 79.5396)" font-size="7">CONTAINS</text>
		
			<polygon fill="#CCDEF0" stroke="#010101" stroke-width="0.75" stroke-linecap="round" stroke-linejoin="round" stroke-miterlimit="1" points="
			104.479,162.48 136.499,153.695 168.573,162.764 168.573,162.785 136.465,171.695 		"/>
		<text transform="matrix(0.8902 0 0 1 120.4258 164.6431)" font-size="7">CONTAINS</text>
		
			<polygon fill="#CCDEF0" stroke="#010101" stroke-width="0.75" stroke-linecap="round" stroke-linejoin="round" stroke-miterlimit="1" points="
			20.515,162.479 52.538,153.695 84.611,162.764 84.611,162.784 52.502,171.695 		"/>
		<text transform="matrix(0.8902 0 0 1 36.4629 164.6431)" font-size="7">CONTAINS</text>
		
			<polygon fill="#CCDEF0" stroke="#010101" stroke-width="0.75" stroke-linecap="round" stroke-linejoin="round" stroke-miterlimit="1" points="
			174.718,77.268 214.745,64.094 254.838,77.693 254.838,77.725 214.702,91.089 		"/>
		<text transform="matrix(0.8902 0 0 1 198.6792 79.5396)" font-size="7">CONTAINS</text>
	</g>
</g>
</svg>
