<?xml version="1.0" encoding="utf-8"?>
<!-- $Source: /home/bbennett/pass/archive/DicomXml/docbook/part17/figures/PS3.17_FFF.1.2-5.svg,v $ -->
<!-- $Date: 2014/05/09 13:15:43 $ -->
<!-- $Revision: 1.1 $ -->

<!DOCTYPE svg PUBLIC "-//W3C//DTD SVG 1.1//EN" "http://www.w3.org/Graphics/SVG/1.1/DTD/svg11.dtd">
<svg version="1.1" id="Layer_1" xmlns="http://www.w3.org/2000/svg" xmlns:xlink="http://www.w3.org/1999/xlink" x="0px" y="0px"
	 width="502px" height="297px" viewBox="0 0 502 297" enable-background="new 0 0 502 297" xml:space="preserve">

<defs>
	<style type="text/css">
	text {
	  font-family: Helvetica, Verdana, ArialUnicodeMS, san-serif
	}
	</style>
</defs>

<g>
   <desc>
	PS 3.17 Part 17: Explanatory Information
   </desc>
</g>

<g>
	<rect x="1" y="1" fill="#F5EED6" width="500" height="295"/>
	<g>
		<g>
			<polygon fill="#E6E7E8" stroke="#000000" stroke-width="0.5" stroke-linecap="round" stroke-linejoin="round" points="
				265.619,53.072 245.073,54.58 245.073,27.679 265.619,26.941 			"/>
			<polygon fill="#E6E7E8" stroke="#000000" stroke-width="0.5" stroke-linecap="round" stroke-linejoin="round" points="
				161.3,22.711 136.293,24.12 136.293,161.727 161.3,156.059 			"/>
			<polygon fill="#BCBEC0" stroke="#000000" stroke-width="0.5" stroke-linecap="round" stroke-linejoin="round" points="
				136.291,38.873 136.291,161.727 118.104,153.703 118.104,16.127 245.073,27.678 245.073,54.58 			"/>
			<polygon fill="#FFFFFF" stroke="#000000" stroke-width="0.5" stroke-linecap="round" stroke-linejoin="round" points="
				265.619,26.941 131.254,15.736 118.104,16.127 245.47,27.655 			"/>
		</g>
		<g>
			<g>
				<path opacity="0.6" fill="#CCCCCC" stroke="#000000" stroke-width="0.5" stroke-linejoin="round" d="M368.199,242.953
					c-0.9-0.34-1.805-0.68-2.713-1.016c-50.84-18.846-95.896-23.76-100.633-10.98c-3.414,9.211,15.049,25.098,44.66,40.309v-3.6
					c-29.611-15.211-48.074-31.098-44.66-40.309c4.736-12.779,49.793-7.865,100.633,10.98c0.908,0.336,1.812,0.676,2.713,1.016
					V242.953z"/>
				<path fill="#FFFFFF" stroke="#000000" stroke-width="0.5" stroke-linejoin="round" d="M309.514,267.666
					c-29.611-15.211-48.074-31.098-44.66-40.309c4.736-12.779,49.793-7.865,100.633,10.98c0.908,0.336,1.812,0.676,2.713,1.016
					L309.514,267.666z"/>
			</g>
			<polygon fill="#999999" stroke="#000000" stroke-width="0.5" stroke-linejoin="round" points="330.734,213.232 389.121,185.547 
				389.121,253.578 330.734,281.264 			"/>
			<polygon fill="#CCCCCC" stroke="#000000" stroke-width="0.5" stroke-linejoin="round" points="309.76,203.074 330.734,212.967 
				330.734,281.264 309.76,271.467 			"/>
			<polygon fill="#999999" stroke="#000000" stroke-width="0.5" stroke-linejoin="round" points="348.465,217.73 406.852,190.045 
				406.852,193.645 348.465,221.33 			"/>
			<polygon fill="#CCCCCC" stroke="#000000" stroke-width="0.5" stroke-linejoin="round" points="348.465,217.73 229.72,161.727 
				229.72,165.326 348.465,221.33 			"/>
			<polygon fill="#4F8ABE" stroke="#000000" stroke-width="0.5" stroke-linejoin="round" points="284.471,149.179 406.852,190.045 
				348.465,217.73 229.72,161.727 			"/>
		</g>
		<g>
			<polygon fill="#CCDEF0" stroke="#000000" stroke-width="0.5" stroke-dasharray="1" points="287.605,163.585 273.371,167.358 
				258.227,165.794 236.541,171.193 249.42,173.578 234.32,177.808 283.344,186.384 343.439,168.213 			"/>
			<polygon fill="#4F8ABE" stroke="#000000" stroke-width="0.5" points="246.963,157.008 231.994,150.706 254.09,146.1 
				269.816,151.841 284.295,148.465 406.672,189.327 348.285,217.013 229.541,161.011 			"/>
			<text transform="matrix(1 0 0 1 356.2168 156.2256)"><tspan x="0" y="0" fill="#ED1C24" font-size="12">X</tspan><tspan x="8.752" y="5" fill="#ED1C24" font-size="9">t</tspan></text>
			<text transform="matrix(1 0 0 1 165.2095 162.0469)"><tspan x="0" y="0" fill="#00AEEF" font-size="12">Z</tspan><tspan x="8.415" y="5" fill="#00AEEF" font-size="9">t</tspan></text>
			<text transform="matrix(1 0 0 1 174.8345 126.1719)" fill="#00AEEF" font-size="12">Z</text>
			<text transform="matrix(1 0 0 1 295.9092 232.5391)"><tspan x="0" y="0" fill="#0DB14B" font-size="12">Y</tspan><tspan x="8.752" y="5" fill="#0DB14B" font-size="9">t</tspan></text>
			<g>
				<g>
					<line fill="none" stroke="#0DB14B" stroke-width="2" x1="311.41" y1="178.159" x2="310.484" y2="220.484"/>
					<g>
						<polygon fill="#0DB14B" points="308.195,218.849 310.329,227.57 312.843,218.95 						"/>
					</g>
				</g>
			</g>
			<g>
				<g>
					<line fill="none" stroke="#00AEEF" stroke-width="2" x1="311.549" y1="178.021" x2="204.981" y2="130.102"/>
					<g>
						<polygon fill="#00AEEF" points="207.38,128.632 198.517,127.195 205.474,132.871 						"/>
					</g>
				</g>
			</g>
			<g>
				<text transform="matrix(1 0 0 1 79.1284 179.1348)"><tspan x="0" y="0" font-size="10">At</tspan><tspan x="9.448" y="4" font-size="10">2</tspan><tspan x="15.01" y="0" font-size="10">, Table Head Tilt Angle</tspan></text>
			</g>
			<g>
				<g>
					
						<line fill="none" stroke="#00AEEF" stroke-width="2" stroke-dasharray="1,1" x1="311.963" y1="177.606" x2="195.568" y2="158.966"/>
					<g>
						<polygon fill="#00AEEF" points="197.5,156.921 188.569,157.845 196.765,161.511 						"/>
					</g>
				</g>
			</g>
			<polyline opacity="0.7" fill="#CCDEF0" stroke="#000000" stroke-width="0.5" stroke-dasharray="1" points="282.857,186.298 
				343.434,168.211 282.857,186.298 350.139,198.067 409.508,173.689 343.434,168.211 			"/>
			<text transform="matrix(1 0 0 1 303.7383 167.124)"><tspan x="0" y="0" font-size="12">O</tspan><tspan x="9.417" y="5" font-size="9">t</tspan></text>
			<g>
				<g>
					<line fill="none" stroke="#ED1C24" stroke-width="2" x1="311.963" y1="177.606" x2="353.413" y2="165.562"/>
					<g>
						<polygon fill="#ED1C24" points="352.539,168.236 360.219,163.585 351.242,163.773 						"/>
					</g>
				</g>
			</g>
			<line fill="none" stroke="#000000" x1="282.773" y1="186.42" x2="225.369" y2="201.559"/>
			<text transform="matrix(1 0 0 1 190.4995 232.4209)" font-size="9">Axis of Rotation</text>
			<path fill="#FFFFFF" stroke="#000000" d="M242.301,198.21c1.15,8.637-1.344,16.092-5.574,16.656
				c-4.229,0.564-8.59-5.979-9.74-14.609c-1.152-8.635,1.344-16.092,5.574-16.656C236.789,183.036,241.148,189.581,242.301,198.21z"
				/>
			<g>
				<g>
					<path fill="none" stroke="#000000" d="M195.231,211.827c-0.056-0.337-0.107-0.678-0.153-1.021
						c-1.152-8.639,1.344-16.093,5.574-16.657s8.59,5.978,9.742,14.61c0.668,5.027,0.104,9.654-1.32,12.754"/>
					<g>
						<polygon points="197.552,209.031 198.002,220.245 192.004,210.759 						"/>
					</g>
				</g>
			</g>
			<line fill="none" stroke="#000000" x1="222.602" y1="194.587" x2="246.253" y2="205.664"/>
			<g>
				<polygon fill="#6799C8" stroke="#000000" stroke-linecap="round" stroke-linejoin="round" points="218.162,209.997 
					233.379,199.614 233.379,199.614 214.623,196.743 				"/>
				<path fill="#CCDEF0" stroke="#000000" d="M219.178,202.911c0.805,3.783-0.045,7.166-1.896,7.561
					c-1.852,0.393-4.006-2.354-4.811-6.135c-0.801-3.783,0.047-7.168,1.9-7.564C216.223,196.38,218.375,199.126,219.178,202.911z"/>
				<path fill="none" stroke="#000000" d="M218.945,197.403c1.041,1.09,1.904,3.092,2.365,5.271
					c0.412,1.932,0.389,3.762,0.021,5.141"/>
				<path fill="none" stroke="#000000" d="M221.459,197.788c0.809,1.104,1.602,2.855,1.982,4.646
					c0.283,1.334,0.361,2.611,0.264,3.732"/>
				<path fill="none" stroke="#000000" d="M224.008,198.177c0.625,1.033,1.254,2.549,1.566,4.023
					c0.191,0.902,0.289,1.781,0.301,2.604"/>
				<path fill="none" stroke="#000000" d="M226.48,198.556c0.471,0.92,0.971,2.211,1.225,3.406c0.09,0.432,0.16,0.854,0.209,1.27"/>
				
					<line fill="none" stroke="#000000" stroke-linecap="round" stroke-linejoin="round" x1="212.539" y1="198.89" x2="218.316" y2="209.024"/>
			</g>
			<line fill="none" stroke="#000000" x1="233.963" y1="180.462" x2="233.963" y2="217.905"/>
			<g>
				<g>
					<path fill="none" stroke="#000000" d="M199.168,154.707c1.394-6.845,3.423-13.458,6.026-19.775"/>
					<g>
						<polygon points="200.52,154.173 198.517,158.19 198.243,153.71 						"/>
					</g>
					<g>
						<polygon points="206.016,136.128 206.597,131.677 203.868,135.241 						"/>
					</g>
				</g>
			</g>
		</g>
		<g>
			<g>
				<path fill="none" stroke="#0DB14B" d="M176.432,80.029"/>
			</g>
			<g>
				<g>
					<line fill="none" stroke="#0DB14B" stroke-width="2" x1="243.872" y1="80.294" x2="243.872" y2="105.928"/>
					<g>
						<polygon fill="#0DB14B" points="240.385,103.55 243.871,116.56 247.358,103.551 						"/>
					</g>
				</g>
			</g>
			<text transform="matrix(1 -0.0019 0.0019 1 174.833 70.2178)" fill="#00AEEF" font-size="12.5">+Z</text>
			<text transform="matrix(1 -0.0019 0.0019 1 292.8799 73.6406)" fill="#ED1C24" font-size="12.5">+X</text>
			
				<text transform="matrix(1 -0.0019 0.0019 1 224.2173 121.8467)" fill="#0DB14B" font-size="12.5">+Y</text>
			<text transform="matrix(1 -0.0048 0.0048 1 257.9482 124.4902)" font-size="12.5">(Tx, Ty, Tz)</text>
			<g>
				<text transform="matrix(1 -3.400000e-04 3.400000e-04 1 249.4214 73.6406)" font-size="12.5">O</text>
			</g>
			<line fill="none" stroke="#000000" stroke-width="2" stroke-dasharray="1" x1="265.055" y1="110.27" x2="243.871" y2="79.543"/>
			
				<line fill="none" stroke="#000000" stroke-width="2" stroke-dasharray="1" x1="311.549" y1="177.705" x2="278.386" y2="129.605"/>
			<g>
				<g>
					<line fill="none" stroke="#ED1C24" stroke-width="2" x1="244.558" y1="79.534" x2="285.895" y2="72.464"/>
					<g>
						<polygon fill="#ED1C24" points="284.725,75.022 292.881,71.27 283.94,70.44 						"/>
					</g>
				</g>
			</g>
			<g>
				<g>
					<line fill="none" stroke="#00AEEF" stroke-width="2" x1="240.739" y1="79.461" x2="197.255" y2="71.495"/>
					<g>
						<polygon fill="#00AEEF" points="199.233,69.494 190.283,70.218 198.395,74.067 						"/>
					</g>
				</g>
			</g>
		</g>
		<g>
			<path stroke="#000000" stroke-miterlimit="1" d="M249.771,79.539c0.002-3.26-2.64-5.898-5.899-5.898v5.902L249.771,79.539z"/>
			
				<path fill="#FFFFFF" stroke="#010101" stroke-width="0.75" stroke-linecap="round" stroke-linejoin="round" stroke-miterlimit="1" d="
				M243.871,73.641c-3.257,0-5.897,2.643-5.897,5.904l5.897-0.002V73.641z"/>
			<path stroke="#000000" stroke-miterlimit="1" d="M237.974,79.545c0.002,3.257,2.645,5.897,5.901,5.896l-0.004-5.898
				L237.974,79.545z"/>
			
				<path fill="#FFFFFF" stroke="#010101" stroke-width="0.75" stroke-linecap="round" stroke-linejoin="round" stroke-miterlimit="1" d="
				M243.871,79.543l0.004,5.898c3.258-0.002,5.897-2.645,5.896-5.902L243.871,79.543z"/>
		</g>
	</g>
</g>
</svg>
