<?xml version="1.0" encoding="utf-8"?>
<!-- $Source: /home/bbennett/pass/archive/DicomXml/docbook/part17/figures/PS3.17_FFF.2.1-2.svg,v $ -->
<!-- $Date: 2014/05/09 13:15:43 $ -->
<!-- $Revision: 1.1 $ -->

<!DOCTYPE svg PUBLIC "-//W3C//DTD SVG 1.1//EN" "http://www.w3.org/Graphics/SVG/1.1/DTD/svg11.dtd">
<svg version="1.1" id="Layer_1" xmlns="http://www.w3.org/2000/svg" xmlns:xlink="http://www.w3.org/1999/xlink" x="0px" y="0px"
	 width="502.001px" height="302px" viewBox="0 0 502.001 302" enable-background="new 0 0 502.001 302" xml:space="preserve">

<defs>
	<style type="text/css">
	text {
	  font-family: Helvetica, Verdana, ArialUnicodeMS, san-serif
	}
	</style>
</defs>

<g>
   <desc>
	PS 3.17 Part 17: Explanatory Information
   </desc>
</g>

<g>
	<rect x="1" y="1" fill="#F5EED6" width="500.001" height="300"/>
	<g>
		
			<line fill="none" stroke="#000000" stroke-width="0.75" stroke-miterlimit="1" x1="253.718" y1="58.751" x2="424.861" y2="58.751"/>
		
			<line fill="none" stroke="#000000" stroke-width="0.75" stroke-miterlimit="1" stroke-dasharray="2,2" x1="241.591" y1="58.751" x2="253.718" y2="58.751"/>
		
			<line fill="none" stroke="#000000" stroke-width="0.75" stroke-miterlimit="1" x1="174.926" y1="58.751" x2="241.591" y2="58.751"/>
		
			<line fill="none" stroke="#000000" stroke-width="0.75" stroke-miterlimit="1" x1="253.718" y1="87.417" x2="424.861" y2="87.417"/>
		
			<line fill="none" stroke="#000000" stroke-width="0.75" stroke-miterlimit="1" stroke-dasharray="2,2" x1="241.591" y1="87.417" x2="253.718" y2="87.417"/>
		
			<line fill="none" stroke="#000000" stroke-width="0.75" stroke-miterlimit="1" x1="174.926" y1="87.417" x2="241.591" y2="87.417"/>
		<g>
			<g>
				<polyline fill="none" stroke="#000000" stroke-width="2" stroke-linecap="round" stroke-miterlimit="1" points="
					174.926,141.148 242.652,141.148 245.052,148.349 250.718,133.948 253.452,141.148 452.361,141.148 				"/>
				<g>
					<polygon points="450.776,143.473 459.449,141.148 450.776,138.824 					"/>
				</g>
			</g>
		</g>
		
			<line fill="none" stroke="#000000" stroke-width="0.75" stroke-miterlimit="1" x1="174.926" y1="166.895" x2="424.861" y2="166.895"/>
		
			<line fill="none" stroke="#000000" stroke-width="0.75" stroke-miterlimit="1" x1="185.189" y1="202.895" x2="426.027" y2="202.895"/>
		
			<line fill="none" stroke="#000000" stroke-width="0.75" stroke-miterlimit="1" x1="174.926" y1="257.346" x2="424.861" y2="257.346"/>
		
			<line fill="none" stroke="#000000" stroke-width="0.75" stroke-miterlimit="1" x1="174.926" y1="230.119" x2="424.861" y2="230.119"/>
		<rect x="462.16" y="136.895" fill="none" width="17.379" height="8.51"/>
		<text transform="matrix(0.9288 0 0 1 462.1631 143.3232)" font-size="9">time</text>
		<line fill="none" stroke="#000000" stroke-width="0.75" stroke-miterlimit="1" x1="205.59" y1="38.751" x2="205.59" y2="58.751"/>
		<line fill="none" stroke="#000000" stroke-width="0.75" stroke-miterlimit="1" x1="201.99" y1="38.751" x2="201.99" y2="58.751"/>
		<line fill="none" stroke="#000000" stroke-width="0.75" stroke-miterlimit="1" x1="205.59" y1="67.236" x2="205.59" y2="87.236"/>
		<line fill="none" stroke="#000000" stroke-width="0.75" stroke-miterlimit="1" x1="209.19" y1="38.751" x2="209.19" y2="58.751"/>
		<line fill="none" stroke="#000000" stroke-width="0.75" stroke-miterlimit="1" x1="209.19" y1="67.236" x2="209.19" y2="87.236"/>
		<line fill="none" stroke="#000000" stroke-width="0.75" stroke-miterlimit="1" x1="212.79" y1="38.751" x2="212.79" y2="58.751"/>
		<line fill="none" stroke="#000000" stroke-width="0.75" stroke-miterlimit="1" x1="212.79" y1="67.236" x2="212.79" y2="87.236"/>
		
			<line fill="none" stroke="#000000" stroke-width="0.75" stroke-miterlimit="1" x1="216.391" y1="38.751" x2="216.391" y2="58.751"/>
		
			<line fill="none" stroke="#000000" stroke-width="0.75" stroke-miterlimit="1" x1="216.391" y1="67.236" x2="216.391" y2="87.236"/>
		<line fill="none" stroke="#000000" stroke-width="0.75" stroke-miterlimit="1" x1="219.99" y1="38.751" x2="219.99" y2="58.751"/>
		<line fill="none" stroke="#000000" stroke-width="0.75" stroke-miterlimit="1" x1="219.99" y1="67.236" x2="219.99" y2="87.236"/>
		
			<line fill="none" stroke="#000000" stroke-width="0.75" stroke-miterlimit="1" x1="223.591" y1="38.751" x2="223.591" y2="58.751"/>
		
			<line fill="none" stroke="#000000" stroke-width="0.75" stroke-miterlimit="1" x1="223.591" y1="67.236" x2="223.591" y2="87.236"/>
		<line fill="none" stroke="#000000" stroke-width="0.75" stroke-miterlimit="1" x1="227.19" y1="38.751" x2="227.19" y2="58.751"/>
		<line fill="none" stroke="#000000" stroke-width="0.75" stroke-miterlimit="1" x1="227.19" y1="67.236" x2="227.19" y2="87.236"/>
		
			<line fill="none" stroke="#000000" stroke-width="0.75" stroke-miterlimit="1" x1="230.791" y1="38.751" x2="230.791" y2="58.751"/>
		
			<line fill="none" stroke="#000000" stroke-width="0.75" stroke-miterlimit="1" x1="230.791" y1="67.236" x2="230.791" y2="87.236"/>
		
			<line fill="none" stroke="#000000" stroke-width="0.75" stroke-miterlimit="1" x1="234.391" y1="38.751" x2="234.391" y2="58.751"/>
		
			<line fill="none" stroke="#000000" stroke-width="0.75" stroke-miterlimit="1" x1="234.391" y1="67.236" x2="234.391" y2="87.236"/>
		
			<line fill="none" stroke="#000000" stroke-width="0.75" stroke-miterlimit="1" x1="237.991" y1="38.751" x2="237.991" y2="58.751"/>
		
			<line fill="none" stroke="#000000" stroke-width="0.75" stroke-miterlimit="1" x1="237.991" y1="67.236" x2="237.991" y2="87.236"/>
		
			<line fill="none" stroke="#000000" stroke-width="0.75" stroke-miterlimit="1" x1="241.591" y1="38.751" x2="241.591" y2="58.751"/>
		
			<line fill="none" stroke="#000000" stroke-width="0.75" stroke-miterlimit="1" x1="241.591" y1="67.236" x2="241.591" y2="87.236"/>
		
			<line fill="none" stroke="#000000" stroke-width="0.75" stroke-miterlimit="1" x1="257.433" y1="38.751" x2="257.433" y2="58.751"/>
		
			<line fill="none" stroke="#000000" stroke-width="0.75" stroke-miterlimit="1" x1="257.433" y1="67.236" x2="257.433" y2="87.236"/>
		
			<line fill="none" stroke="#000000" stroke-width="0.75" stroke-miterlimit="1" x1="261.027" y1="38.751" x2="261.027" y2="58.751"/>
		
			<line fill="none" stroke="#000000" stroke-width="0.75" stroke-miterlimit="1" x1="261.027" y1="67.236" x2="261.027" y2="87.236"/>
		
			<line fill="none" stroke="#000000" stroke-width="0.75" stroke-miterlimit="1" x1="264.625" y1="38.751" x2="264.625" y2="58.751"/>
		
			<line fill="none" stroke="#000000" stroke-width="0.75" stroke-miterlimit="1" x1="264.625" y1="67.236" x2="264.625" y2="87.236"/>
		
			<line fill="none" stroke="#000000" stroke-width="0.75" stroke-miterlimit="1" x1="268.225" y1="38.751" x2="268.225" y2="58.751"/>
		
			<line fill="none" stroke="#000000" stroke-width="0.75" stroke-miterlimit="1" x1="268.225" y1="67.236" x2="268.225" y2="87.236"/>
		
			<line fill="none" stroke="#000000" stroke-width="0.75" stroke-miterlimit="1" x1="271.824" y1="38.751" x2="271.824" y2="58.751"/>
		
			<line fill="none" stroke="#000000" stroke-width="0.75" stroke-miterlimit="1" x1="271.824" y1="67.236" x2="271.824" y2="87.236"/>
		
			<line fill="none" stroke="#000000" stroke-width="0.75" stroke-miterlimit="1" x1="275.424" y1="38.751" x2="275.424" y2="58.751"/>
		
			<line fill="none" stroke="#000000" stroke-width="0.75" stroke-miterlimit="1" x1="275.424" y1="67.236" x2="275.424" y2="87.236"/>
		
			<line fill="none" stroke="#000000" stroke-width="0.75" stroke-miterlimit="1" x1="279.023" y1="38.751" x2="279.023" y2="58.751"/>
		
			<line fill="none" stroke="#000000" stroke-width="0.75" stroke-miterlimit="1" x1="279.023" y1="67.236" x2="279.023" y2="87.236"/>
		
			<line fill="none" stroke="#000000" stroke-width="0.75" stroke-miterlimit="1" x1="282.623" y1="38.751" x2="282.623" y2="58.751"/>
		
			<line fill="none" stroke="#000000" stroke-width="0.75" stroke-miterlimit="1" x1="282.623" y1="67.236" x2="282.623" y2="87.236"/>
		
			<line fill="none" stroke="#000000" stroke-width="0.75" stroke-miterlimit="1" x1="286.225" y1="38.751" x2="286.225" y2="58.751"/>
		
			<line fill="none" stroke="#000000" stroke-width="0.75" stroke-miterlimit="1" x1="286.225" y1="67.236" x2="286.225" y2="87.236"/>
		
			<line fill="none" stroke="#000000" stroke-width="0.75" stroke-miterlimit="1" x1="289.824" y1="38.751" x2="289.824" y2="58.751"/>
		
			<line fill="none" stroke="#000000" stroke-width="0.75" stroke-miterlimit="1" x1="289.824" y1="67.236" x2="289.824" y2="87.236"/>
		
			<line fill="none" stroke="#000000" stroke-width="0.75" stroke-miterlimit="1" x1="293.424" y1="38.751" x2="293.424" y2="58.751"/>
		
			<line fill="none" stroke="#000000" stroke-width="0.75" stroke-miterlimit="1" x1="293.424" y1="67.236" x2="293.424" y2="87.236"/>
		
			<line fill="none" stroke="#000000" stroke-width="0.75" stroke-miterlimit="1" x1="297.023" y1="38.751" x2="297.023" y2="58.751"/>
		
			<line fill="none" stroke="#000000" stroke-width="0.75" stroke-miterlimit="1" x1="297.023" y1="67.236" x2="297.023" y2="87.236"/>
		
			<line fill="none" stroke="#000000" stroke-width="0.75" stroke-miterlimit="1" x1="300.625" y1="38.751" x2="300.625" y2="58.751"/>
		
			<line fill="none" stroke="#000000" stroke-width="0.75" stroke-miterlimit="1" x1="300.625" y1="67.236" x2="300.625" y2="87.236"/>
		
			<line fill="none" stroke="#000000" stroke-width="0.75" stroke-miterlimit="1" x1="304.225" y1="38.751" x2="304.225" y2="58.751"/>
		
			<line fill="none" stroke="#000000" stroke-width="0.75" stroke-miterlimit="1" x1="304.225" y1="67.236" x2="304.225" y2="87.236"/>
		
			<line fill="none" stroke="#000000" stroke-width="0.75" stroke-miterlimit="1" x1="307.824" y1="38.751" x2="307.824" y2="58.751"/>
		
			<line fill="none" stroke="#000000" stroke-width="0.75" stroke-miterlimit="1" x1="307.824" y1="67.236" x2="307.824" y2="87.236"/>
		
			<line fill="none" stroke="#000000" stroke-width="0.75" stroke-miterlimit="1" x1="311.424" y1="38.751" x2="311.424" y2="58.751"/>
		
			<line fill="none" stroke="#000000" stroke-width="0.75" stroke-miterlimit="1" x1="311.424" y1="67.236" x2="311.424" y2="87.236"/>
		
			<line fill="none" stroke="#000000" stroke-width="0.75" stroke-miterlimit="1" x1="315.023" y1="38.751" x2="315.023" y2="58.751"/>
		
			<line fill="none" stroke="#000000" stroke-width="0.75" stroke-miterlimit="1" x1="315.023" y1="67.236" x2="315.023" y2="87.236"/>
		
			<line fill="none" stroke="#000000" stroke-width="0.75" stroke-miterlimit="1" x1="318.623" y1="38.751" x2="318.623" y2="58.751"/>
		
			<line fill="none" stroke="#000000" stroke-width="0.75" stroke-miterlimit="1" x1="318.623" y1="67.236" x2="318.623" y2="87.236"/>
		
			<line fill="none" stroke="#000000" stroke-width="0.75" stroke-miterlimit="1" x1="322.223" y1="38.751" x2="322.223" y2="58.751"/>
		
			<line fill="none" stroke="#000000" stroke-width="0.75" stroke-miterlimit="1" x1="322.223" y1="67.236" x2="322.223" y2="87.236"/>
		
			<line fill="none" stroke="#000000" stroke-width="0.75" stroke-miterlimit="1" x1="325.822" y1="38.751" x2="325.822" y2="58.751"/>
		
			<line fill="none" stroke="#000000" stroke-width="0.75" stroke-miterlimit="1" x1="325.822" y1="67.236" x2="325.822" y2="87.236"/>
		
			<line fill="none" stroke="#000000" stroke-width="0.75" stroke-miterlimit="1" x1="329.422" y1="38.751" x2="329.422" y2="58.751"/>
		
			<line fill="none" stroke="#000000" stroke-width="0.75" stroke-miterlimit="1" x1="329.422" y1="67.236" x2="329.422" y2="87.236"/>
		
			<line fill="none" stroke="#000000" stroke-width="0.75" stroke-miterlimit="1" x1="333.021" y1="38.751" x2="333.021" y2="58.751"/>
		
			<line fill="none" stroke="#000000" stroke-width="0.75" stroke-miterlimit="1" x1="333.021" y1="67.236" x2="333.021" y2="87.236"/>
		
			<line fill="none" stroke="#000000" stroke-width="0.75" stroke-miterlimit="1" x1="336.621" y1="38.751" x2="336.621" y2="58.751"/>
		
			<line fill="none" stroke="#000000" stroke-width="0.75" stroke-miterlimit="1" x1="336.621" y1="67.236" x2="336.621" y2="87.236"/>
		
			<line fill="none" stroke="#000000" stroke-width="0.75" stroke-miterlimit="1" x1="340.221" y1="38.751" x2="340.221" y2="58.751"/>
		
			<line fill="none" stroke="#000000" stroke-width="0.75" stroke-miterlimit="1" x1="340.221" y1="67.236" x2="340.221" y2="87.236"/>
		<line fill="none" stroke="#000000" stroke-width="0.75" stroke-miterlimit="1" x1="343.82" y1="38.751" x2="343.82" y2="58.751"/>
		<line fill="none" stroke="#000000" stroke-width="0.75" stroke-miterlimit="1" x1="343.82" y1="67.236" x2="343.82" y2="87.236"/>
		<line fill="none" stroke="#000000" stroke-width="0.75" stroke-miterlimit="1" x1="347.42" y1="38.751" x2="347.42" y2="58.751"/>
		<line fill="none" stroke="#000000" stroke-width="0.75" stroke-miterlimit="1" x1="347.42" y1="67.236" x2="347.42" y2="87.236"/>
		<line fill="none" stroke="#000000" stroke-width="0.75" stroke-miterlimit="1" x1="351.02" y1="38.751" x2="351.02" y2="58.751"/>
		<line fill="none" stroke="#000000" stroke-width="0.75" stroke-miterlimit="1" x1="351.02" y1="67.236" x2="351.02" y2="87.236"/>
		
			<line fill="none" stroke="#000000" stroke-width="0.75" stroke-miterlimit="1" x1="354.619" y1="38.751" x2="354.619" y2="58.751"/>
		
			<line fill="none" stroke="#000000" stroke-width="0.75" stroke-miterlimit="1" x1="354.619" y1="67.236" x2="354.619" y2="87.236"/>
		
			<line fill="none" stroke="#000000" stroke-width="0.75" stroke-miterlimit="1" x1="358.219" y1="38.751" x2="358.219" y2="58.751"/>
		
			<line fill="none" stroke="#000000" stroke-width="0.75" stroke-miterlimit="1" x1="358.219" y1="67.236" x2="358.219" y2="87.236"/>
		
			<line fill="none" stroke="#000000" stroke-width="0.75" stroke-miterlimit="1" x1="361.818" y1="38.751" x2="361.818" y2="58.751"/>
		
			<line fill="none" stroke="#000000" stroke-width="0.75" stroke-miterlimit="1" x1="361.818" y1="67.236" x2="361.818" y2="87.236"/>
		
			<line fill="none" stroke="#000000" stroke-width="0.75" stroke-miterlimit="1" x1="365.418" y1="38.751" x2="365.418" y2="58.751"/>
		
			<line fill="none" stroke="#000000" stroke-width="0.75" stroke-miterlimit="1" x1="365.418" y1="67.236" x2="365.418" y2="87.236"/>
		
			<line fill="none" stroke="#000000" stroke-width="0.75" stroke-miterlimit="1" x1="369.018" y1="38.751" x2="369.018" y2="58.751"/>
		
			<line fill="none" stroke="#000000" stroke-width="0.75" stroke-miterlimit="1" x1="369.018" y1="67.236" x2="369.018" y2="87.236"/>
		
			<line fill="none" stroke="#000000" stroke-width="0.75" stroke-miterlimit="1" x1="372.617" y1="38.751" x2="372.617" y2="58.751"/>
		
			<line fill="none" stroke="#000000" stroke-width="0.75" stroke-miterlimit="1" x1="372.617" y1="67.236" x2="372.617" y2="87.236"/>
		
			<line fill="none" stroke="#000000" stroke-width="0.75" stroke-miterlimit="1" x1="376.217" y1="38.751" x2="376.217" y2="58.751"/>
		
			<line fill="none" stroke="#000000" stroke-width="0.75" stroke-miterlimit="1" x1="376.217" y1="67.236" x2="376.217" y2="87.236"/>
		
			<line fill="none" stroke="#000000" stroke-width="0.75" stroke-miterlimit="1" x1="379.816" y1="38.751" x2="379.816" y2="58.751"/>
		
			<line fill="none" stroke="#000000" stroke-width="0.75" stroke-miterlimit="1" x1="379.816" y1="67.236" x2="379.816" y2="87.236"/>
		
			<line fill="none" stroke="#000000" stroke-width="0.75" stroke-miterlimit="1" x1="383.416" y1="38.751" x2="383.416" y2="58.751"/>
		
			<line fill="none" stroke="#000000" stroke-width="0.75" stroke-miterlimit="1" x1="383.416" y1="67.236" x2="383.416" y2="87.236"/>
		
			<line fill="none" stroke="#000000" stroke-width="0.75" stroke-miterlimit="1" x1="387.016" y1="38.751" x2="387.016" y2="58.751"/>
		
			<line fill="none" stroke="#000000" stroke-width="0.75" stroke-miterlimit="1" x1="387.016" y1="67.236" x2="387.016" y2="87.236"/>
		
			<line fill="none" stroke="#000000" stroke-width="0.75" stroke-miterlimit="1" x1="390.615" y1="38.751" x2="390.615" y2="58.751"/>
		
			<line fill="none" stroke="#000000" stroke-width="0.75" stroke-miterlimit="1" x1="390.615" y1="67.236" x2="390.615" y2="87.236"/>
		
			<line fill="none" stroke="#000000" stroke-width="0.75" stroke-miterlimit="1" x1="394.215" y1="38.751" x2="394.215" y2="58.751"/>
		
			<line fill="none" stroke="#000000" stroke-width="0.75" stroke-miterlimit="1" x1="394.215" y1="67.236" x2="394.215" y2="87.236"/>
		
			<line fill="none" stroke="#000000" stroke-width="0.75" stroke-miterlimit="1" x1="397.814" y1="38.751" x2="397.814" y2="58.751"/>
		
			<line fill="none" stroke="#000000" stroke-width="0.75" stroke-miterlimit="1" x1="397.814" y1="67.236" x2="397.814" y2="87.236"/>
		
			<line fill="none" stroke="#000000" stroke-width="0.75" stroke-miterlimit="1" x1="401.414" y1="38.751" x2="401.414" y2="58.751"/>
		
			<line fill="none" stroke="#000000" stroke-width="0.75" stroke-miterlimit="1" x1="401.414" y1="67.236" x2="401.414" y2="87.236"/>
		
			<line fill="none" stroke="#000000" stroke-width="0.75" stroke-miterlimit="1" x1="405.014" y1="38.751" x2="405.014" y2="58.751"/>
		
			<line fill="none" stroke="#000000" stroke-width="0.75" stroke-miterlimit="1" x1="405.014" y1="67.236" x2="405.014" y2="87.236"/>
		
			<line fill="none" stroke="#000000" stroke-width="0.75" stroke-miterlimit="1" x1="408.613" y1="38.751" x2="408.613" y2="58.751"/>
		
			<line fill="none" stroke="#000000" stroke-width="0.75" stroke-miterlimit="1" x1="408.613" y1="67.236" x2="408.613" y2="87.236"/>
		
			<line fill="none" stroke="#000000" stroke-width="0.75" stroke-miterlimit="1" x1="412.213" y1="38.751" x2="412.213" y2="58.751"/>
		
			<line fill="none" stroke="#000000" stroke-width="0.75" stroke-miterlimit="1" x1="412.213" y1="67.236" x2="412.213" y2="87.236"/>
		
			<line fill="none" stroke="#000000" stroke-width="0.75" stroke-miterlimit="1" x1="415.812" y1="38.751" x2="415.812" y2="58.751"/>
		
			<line fill="none" stroke="#000000" stroke-width="0.75" stroke-miterlimit="1" x1="415.812" y1="67.236" x2="415.812" y2="87.236"/>
		
			<line fill="none" stroke="#000000" stroke-width="0.75" stroke-miterlimit="1" x1="419.412" y1="38.751" x2="419.412" y2="58.751"/>
		
			<line fill="none" stroke="#000000" stroke-width="0.75" stroke-miterlimit="1" x1="419.412" y1="67.236" x2="419.412" y2="87.236"/>
		
			<line fill="none" stroke="#000000" stroke-width="0.75" stroke-miterlimit="1" x1="423.012" y1="38.751" x2="423.012" y2="58.751"/>
		
			<line fill="none" stroke="#000000" stroke-width="0.75" stroke-miterlimit="1" x1="423.012" y1="67.236" x2="423.012" y2="87.236"/>
		<g>
			<g>
				
					<line fill="none" stroke="#000000" stroke-width="0.75" stroke-miterlimit="1" x1="426.611" y1="38.751" x2="426.611" y2="39.751"/>
				
					<line fill="none" stroke="#000000" stroke-width="0.75" stroke-miterlimit="1" stroke-dasharray="2,2" x1="426.611" y1="41.751" x2="426.611" y2="56.751"/>
				
					<line fill="none" stroke="#000000" stroke-width="0.75" stroke-miterlimit="1" x1="426.611" y1="57.751" x2="426.611" y2="58.751"/>
			</g>
		</g>
		<g>
			<g>
				
					<line fill="none" stroke="#000000" stroke-width="0.75" stroke-miterlimit="1" x1="426.611" y1="67.236" x2="426.611" y2="68.236"/>
				
					<line fill="none" stroke="#000000" stroke-width="0.75" stroke-miterlimit="1" stroke-dasharray="2,2" x1="426.611" y1="70.236" x2="426.611" y2="85.236"/>
				
					<line fill="none" stroke="#000000" stroke-width="0.75" stroke-miterlimit="1" x1="426.611" y1="86.236" x2="426.611" y2="87.236"/>
			</g>
		</g>
		<g>
			<g>
				
					<line fill="none" stroke="#000000" stroke-width="0.75" stroke-miterlimit="1" x1="430.211" y1="38.751" x2="430.211" y2="39.751"/>
				
					<line fill="none" stroke="#000000" stroke-width="0.75" stroke-miterlimit="1" stroke-dasharray="2,2" x1="430.211" y1="41.751" x2="430.211" y2="56.751"/>
				
					<line fill="none" stroke="#000000" stroke-width="0.75" stroke-miterlimit="1" x1="430.211" y1="57.751" x2="430.211" y2="58.751"/>
			</g>
		</g>
		<g>
			<g>
				
					<line fill="none" stroke="#000000" stroke-width="0.75" stroke-miterlimit="1" x1="430.211" y1="67.236" x2="430.211" y2="68.236"/>
				
					<line fill="none" stroke="#000000" stroke-width="0.75" stroke-miterlimit="1" stroke-dasharray="2,2" x1="430.211" y1="70.236" x2="430.211" y2="85.236"/>
				
					<line fill="none" stroke="#000000" stroke-width="0.75" stroke-miterlimit="1" x1="430.211" y1="86.236" x2="430.211" y2="87.236"/>
			</g>
		</g>
		<g>
			<g>
				
					<line fill="none" stroke="#000000" stroke-width="0.75" stroke-miterlimit="1" x1="433.811" y1="38.751" x2="433.811" y2="39.751"/>
				
					<line fill="none" stroke="#000000" stroke-width="0.75" stroke-miterlimit="1" stroke-dasharray="2,2" x1="433.811" y1="41.751" x2="433.811" y2="56.751"/>
				
					<line fill="none" stroke="#000000" stroke-width="0.75" stroke-miterlimit="1" x1="433.811" y1="57.751" x2="433.811" y2="58.751"/>
			</g>
		</g>
		<g>
			<g>
				
					<line fill="none" stroke="#000000" stroke-width="0.75" stroke-miterlimit="1" x1="433.811" y1="67.236" x2="433.811" y2="68.236"/>
				
					<line fill="none" stroke="#000000" stroke-width="0.75" stroke-miterlimit="1" stroke-dasharray="2,2" x1="433.811" y1="70.236" x2="433.811" y2="85.236"/>
				
					<line fill="none" stroke="#000000" stroke-width="0.75" stroke-miterlimit="1" x1="433.811" y1="86.236" x2="433.811" y2="87.236"/>
			</g>
		</g>
		<g>
			<g>
				
					<line fill="none" stroke="#000000" stroke-width="0.75" stroke-miterlimit="1" x1="437.41" y1="38.751" x2="437.41" y2="39.751"/>
				
					<line fill="none" stroke="#000000" stroke-width="0.75" stroke-miterlimit="1" stroke-dasharray="2,2" x1="437.41" y1="41.751" x2="437.41" y2="56.751"/>
				
					<line fill="none" stroke="#000000" stroke-width="0.75" stroke-miterlimit="1" x1="437.41" y1="57.751" x2="437.41" y2="58.751"/>
			</g>
		</g>
		<g>
			<g>
				
					<line fill="none" stroke="#000000" stroke-width="0.75" stroke-miterlimit="1" x1="437.41" y1="67.236" x2="437.41" y2="68.236"/>
				
					<line fill="none" stroke="#000000" stroke-width="0.75" stroke-miterlimit="1" stroke-dasharray="2,2" x1="437.41" y1="70.236" x2="437.41" y2="85.236"/>
				
					<line fill="none" stroke="#000000" stroke-width="0.75" stroke-miterlimit="1" x1="437.41" y1="86.236" x2="437.41" y2="87.236"/>
			</g>
		</g>
		<g>
			<g>
				
					<line fill="none" stroke="#000000" stroke-width="0.75" stroke-miterlimit="1" x1="441.01" y1="38.751" x2="441.01" y2="39.751"/>
				
					<line fill="none" stroke="#000000" stroke-width="0.75" stroke-miterlimit="1" stroke-dasharray="2,2" x1="441.01" y1="41.751" x2="441.01" y2="56.751"/>
				
					<line fill="none" stroke="#000000" stroke-width="0.75" stroke-miterlimit="1" x1="441.01" y1="57.751" x2="441.01" y2="58.751"/>
			</g>
		</g>
		<g>
			<g>
				
					<line fill="none" stroke="#000000" stroke-width="0.75" stroke-miterlimit="1" x1="441.01" y1="67.236" x2="441.01" y2="68.236"/>
				
					<line fill="none" stroke="#000000" stroke-width="0.75" stroke-miterlimit="1" stroke-dasharray="2,2" x1="441.01" y1="70.236" x2="441.01" y2="85.236"/>
				
					<line fill="none" stroke="#000000" stroke-width="0.75" stroke-miterlimit="1" x1="441.01" y1="86.236" x2="441.01" y2="87.236"/>
			</g>
		</g>
		<g>
			<g>
				
					<line fill="none" stroke="#000000" stroke-width="0.75" stroke-miterlimit="1" x1="444.609" y1="38.751" x2="444.609" y2="39.751"/>
				
					<line fill="none" stroke="#000000" stroke-width="0.75" stroke-miterlimit="1" stroke-dasharray="2,2" x1="444.609" y1="41.751" x2="444.609" y2="56.751"/>
				
					<line fill="none" stroke="#000000" stroke-width="0.75" stroke-miterlimit="1" x1="444.609" y1="57.751" x2="444.609" y2="58.751"/>
			</g>
		</g>
		<g>
			<g>
				
					<line fill="none" stroke="#000000" stroke-width="0.75" stroke-miterlimit="1" x1="444.609" y1="67.236" x2="444.609" y2="68.236"/>
				
					<line fill="none" stroke="#000000" stroke-width="0.75" stroke-miterlimit="1" stroke-dasharray="2,2" x1="444.609" y1="70.236" x2="444.609" y2="85.236"/>
				
					<line fill="none" stroke="#000000" stroke-width="0.75" stroke-miterlimit="1" x1="444.609" y1="86.236" x2="444.609" y2="87.236"/>
			</g>
		</g>
		<g>
			<g>
				
					<line fill="none" stroke="#000000" stroke-width="0.75" stroke-miterlimit="1" x1="448.209" y1="38.751" x2="448.209" y2="39.751"/>
				
					<line fill="none" stroke="#000000" stroke-width="0.75" stroke-miterlimit="1" stroke-dasharray="2,2" x1="448.209" y1="41.751" x2="448.209" y2="56.751"/>
				
					<line fill="none" stroke="#000000" stroke-width="0.75" stroke-miterlimit="1" x1="448.209" y1="57.751" x2="448.209" y2="58.751"/>
			</g>
		</g>
		<g>
			<g>
				
					<line fill="none" stroke="#000000" stroke-width="0.75" stroke-miterlimit="1" x1="448.209" y1="67.236" x2="448.209" y2="68.236"/>
				
					<line fill="none" stroke="#000000" stroke-width="0.75" stroke-miterlimit="1" stroke-dasharray="2,2" x1="448.209" y1="70.236" x2="448.209" y2="85.236"/>
				
					<line fill="none" stroke="#000000" stroke-width="0.75" stroke-miterlimit="1" x1="448.209" y1="86.236" x2="448.209" y2="87.236"/>
			</g>
		</g>
		<g>
			<g>
				
					<line fill="none" stroke="#000000" stroke-width="0.75" stroke-miterlimit="1" x1="451.809" y1="38.751" x2="451.809" y2="39.751"/>
				
					<line fill="none" stroke="#000000" stroke-width="0.75" stroke-miterlimit="1" stroke-dasharray="2,2" x1="451.809" y1="41.751" x2="451.809" y2="56.751"/>
				
					<line fill="none" stroke="#000000" stroke-width="0.75" stroke-miterlimit="1" x1="451.809" y1="57.751" x2="451.809" y2="58.751"/>
			</g>
		</g>
		<g>
			<g>
				
					<line fill="none" stroke="#000000" stroke-width="0.75" stroke-miterlimit="1" x1="451.809" y1="67.236" x2="451.809" y2="68.236"/>
				
					<line fill="none" stroke="#000000" stroke-width="0.75" stroke-miterlimit="1" stroke-dasharray="2,2" x1="451.809" y1="70.236" x2="451.809" y2="85.236"/>
				
					<line fill="none" stroke="#000000" stroke-width="0.75" stroke-miterlimit="1" x1="451.809" y1="86.236" x2="451.809" y2="87.236"/>
			</g>
		</g>
		<g>
			<g>
				
					<line fill="none" stroke="#000000" stroke-width="0.75" stroke-miterlimit="1" x1="455.408" y1="38.751" x2="455.408" y2="39.751"/>
				
					<line fill="none" stroke="#000000" stroke-width="0.75" stroke-miterlimit="1" stroke-dasharray="2,2" x1="455.408" y1="41.751" x2="455.408" y2="56.751"/>
				
					<line fill="none" stroke="#000000" stroke-width="0.75" stroke-miterlimit="1" x1="455.408" y1="57.751" x2="455.408" y2="58.751"/>
			</g>
		</g>
		<g>
			<g>
				
					<line fill="none" stroke="#000000" stroke-width="0.75" stroke-miterlimit="1" x1="455.408" y1="67.236" x2="455.408" y2="68.236"/>
				
					<line fill="none" stroke="#000000" stroke-width="0.75" stroke-miterlimit="1" stroke-dasharray="2,2" x1="455.408" y1="70.236" x2="455.408" y2="85.236"/>
				
					<line fill="none" stroke="#000000" stroke-width="0.75" stroke-miterlimit="1" x1="455.408" y1="86.236" x2="455.408" y2="87.236"/>
			</g>
		</g>
		<line fill="none" stroke="#000000" stroke-width="0.75" stroke-miterlimit="1" x1="201.99" y1="67.236" x2="201.99" y2="87.236"/>
		<g>
			<g>
				
					<line fill="none" stroke="#000000" stroke-width="0.75" stroke-linecap="round" stroke-miterlimit="1" x1="191.189" y1="140.428" x2="191.189" y2="143.428"/>
				
					<line fill="none" stroke="#000000" stroke-width="0.75" stroke-linecap="round" stroke-miterlimit="1" stroke-dasharray="6.0746,2.0248" x1="191.189" y1="145.453" x2="191.189" y2="282.13"/>
				
					<line fill="none" stroke="#000000" stroke-width="0.75" stroke-linecap="round" stroke-miterlimit="1" x1="191.189" y1="283.143" x2="191.189" y2="286.143"/>
			</g>
		</g>
		<g>
			<g>
				
					<line fill="none" stroke="#000000" stroke-width="0.75" stroke-linecap="round" stroke-miterlimit="1" x1="201.991" y1="58.751" x2="201.991" y2="61.751"/>
				
					<line fill="none" stroke="#000000" stroke-width="0.75" stroke-linecap="round" stroke-miterlimit="1" stroke-dasharray="6.0976,2.0325" x1="201.991" y1="63.784" x2="201.991" y2="200.979"/>
				
					<line fill="none" stroke="#000000" stroke-width="0.75" stroke-linecap="round" stroke-miterlimit="1" x1="201.991" y1="201.996" x2="201.991" y2="204.996"/>
			</g>
		</g>
		<g>
			<g>
				
					<line fill="none" stroke="#000000" stroke-width="0.75" stroke-linecap="round" stroke-miterlimit="1" x1="201.991" y1="30.434" x2="201.991" y2="33.434"/>
				
					<line fill="none" stroke="#000000" stroke-width="0.75" stroke-linecap="round" stroke-miterlimit="1" x1="201.991" y1="35.751" x2="201.991" y2="38.751"/>
			</g>
		</g>
		<g>
			<g>
				
					<line fill="none" stroke="#000000" stroke-width="0.75" stroke-linecap="round" stroke-miterlimit="1" x1="205.592" y1="30.434" x2="205.592" y2="33.434"/>
				
					<line fill="none" stroke="#000000" stroke-width="0.75" stroke-linecap="round" stroke-miterlimit="1" x1="205.592" y1="35.751" x2="205.592" y2="38.751"/>
			</g>
		</g>
		<g>
			<g>
				
					<line fill="none" stroke="#000000" stroke-width="0.75" stroke-linecap="round" stroke-miterlimit="1" x1="279.025" y1="28.233" x2="279.025" y2="31.233"/>
				
					<line fill="none" stroke="#000000" stroke-width="0.75" stroke-linecap="round" stroke-miterlimit="1" stroke-dasharray="5.9234,1.9745" x1="279.025" y1="33.208" x2="279.025" y2="253.36"/>
				
					<line fill="none" stroke="#000000" stroke-width="0.75" stroke-linecap="round" stroke-miterlimit="1" x1="279.025" y1="254.348" x2="279.025" y2="257.348"/>
			</g>
		</g>
		<g>
			<g>
				
					<line fill="none" stroke="#000000" stroke-width="0.75" stroke-linecap="round" stroke-miterlimit="1" x1="315.027" y1="28.233" x2="315.027" y2="31.233"/>
				
					<line fill="none" stroke="#000000" stroke-width="0.75" stroke-linecap="round" stroke-miterlimit="1" stroke-dasharray="5.9054,1.9685" x1="315.027" y1="33.202" x2="315.027" y2="260.561"/>
				
					<line fill="none" stroke="#000000" stroke-width="0.75" stroke-linecap="round" stroke-miterlimit="1" x1="315.027" y1="261.545" x2="315.027" y2="264.545"/>
			</g>
		</g>
		<g>
			<g>
				
					<line fill="none" stroke="#000000" stroke-width="0.75" stroke-linecap="round" stroke-miterlimit="1" x1="351.025" y1="28.233" x2="351.025" y2="31.233"/>
				
					<line fill="none" stroke="#000000" stroke-width="0.75" stroke-linecap="round" stroke-miterlimit="1" stroke-dasharray="6.09,2.03" x1="351.025" y1="33.263" x2="351.025" y2="267.729"/>
				
					<line fill="none" stroke="#000000" stroke-width="0.75" stroke-linecap="round" stroke-miterlimit="1" x1="351.025" y1="268.744" x2="351.025" y2="271.744"/>
			</g>
		</g>
		<g>
			<g>
				
					<line fill="none" stroke="#000000" stroke-width="0.75" stroke-linecap="round" stroke-miterlimit="1" x1="387.023" y1="28.233" x2="387.023" y2="31.233"/>
				
					<line fill="none" stroke="#000000" stroke-width="0.75" stroke-linecap="round" stroke-miterlimit="1" stroke-dasharray="5.911,1.9703" x1="387.023" y1="33.204" x2="387.023" y2="276.538"/>
				
					<line fill="none" stroke="#000000" stroke-width="0.75" stroke-linecap="round" stroke-miterlimit="1" x1="387.023" y1="277.523" x2="387.023" y2="280.523"/>
			</g>
		</g>
		<g>
			<g>
				
					<line fill="none" stroke="#000000" stroke-width="0.75" stroke-linecap="round" stroke-miterlimit="1" x1="423.021" y1="28.233" x2="423.021" y2="31.233"/>
				
					<line fill="none" stroke="#000000" stroke-width="0.75" stroke-linecap="round" stroke-miterlimit="1" stroke-dasharray="6.0458,2.0153" x1="423.021" y1="33.249" x2="423.021" y2="282.135"/>
				
					<line fill="none" stroke="#000000" stroke-width="0.75" stroke-linecap="round" stroke-miterlimit="1" x1="423.021" y1="283.143" x2="423.021" y2="286.143"/>
			</g>
		</g>
		<text transform="matrix(0.9288 0 0 1 49.3882 62.3486)"><tspan x="0" y="0" font-size="9">ECG Lead 1 sampling at 300Hz</tspan><tspan x="0" y="26.8" font-size="9">ECG Lead 2 sampling at 300Hz</tspan><tspan x="44.046" y="107.2" font-size="9">Nominal start time of</tspan><tspan x="38.544" y="118" font-size="9">ECG Acquisition Time</tspan><tspan x="47.043" y="142.8" font-size="9">Start ECG sampling</tspan><tspan x="4.517" y="169.601" font-size="9">Start time of Image Acquisition</tspan><tspan x="-28.995" y="194.399" font-size="9">Multi-frame Image Acquisition, at 30fps</tspan></text>
		
			<rect x="279.025" y="122.429" fill="#86B2D8" stroke="#000000" stroke-width="0.75" stroke-linecap="round" stroke-linejoin="round" stroke-miterlimit="1" width="10.797" height="17.999"/>
		
			<rect x="315.023" y="122.429" fill="#86B2D8" stroke="#000000" stroke-width="0.75" stroke-linecap="round" stroke-linejoin="round" stroke-miterlimit="1" width="10.797" height="17.999"/>
		
			<rect x="351.021" y="122.429" fill="#86B2D8" stroke="#000000" stroke-width="0.75" stroke-linecap="round" stroke-linejoin="round" stroke-miterlimit="1" width="10.797" height="17.999"/>
		
			<rect x="387.02" y="122.429" fill="#86B2D8" stroke="#000000" stroke-width="0.75" stroke-linecap="round" stroke-linejoin="round" stroke-miterlimit="1" width="10.797" height="17.999"/>
		<g>
			<rect x="423.018" y="122.429" fill="#FFFFFF" width="10.797" height="17.999"/>
			<g>
				<polyline fill="none" stroke="#000000" stroke-width="0.75" stroke-linecap="round" stroke-linejoin="round" points="
					423.018,123.429 423.018,122.429 424.018,122.429 				"/>
				
					<line fill="none" stroke="#000000" stroke-width="0.75" stroke-linecap="round" stroke-linejoin="round" stroke-dasharray="1.7594,1.7594" x1="425.777" y1="122.429" x2="431.935" y2="122.429"/>
				<polyline fill="none" stroke="#000000" stroke-width="0.75" stroke-linecap="round" stroke-linejoin="round" points="
					432.814,122.429 433.814,122.429 433.814,123.429 				"/>
				
					<line fill="none" stroke="#000000" stroke-width="0.75" stroke-linecap="round" stroke-linejoin="round" stroke-dasharray="1.7777,1.7777" x1="433.814" y1="125.207" x2="433.814" y2="138.539"/>
				<polyline fill="none" stroke="#000000" stroke-width="0.75" stroke-linecap="round" stroke-linejoin="round" points="
					433.814,139.428 433.814,140.428 432.814,140.428 				"/>
				
					<line fill="none" stroke="#000000" stroke-width="0.75" stroke-linecap="round" stroke-linejoin="round" stroke-dasharray="1.7594,1.7594" x1="431.055" y1="140.428" x2="424.897" y2="140.428"/>
				<polyline fill="none" stroke="#000000" stroke-width="0.75" stroke-linecap="round" stroke-linejoin="round" points="
					424.018,140.428 423.018,140.428 423.018,139.428 				"/>
				
					<line fill="none" stroke="#000000" stroke-width="0.75" stroke-linecap="round" stroke-linejoin="round" stroke-dasharray="1.7777,1.7777" x1="423.018" y1="137.65" x2="423.018" y2="124.317"/>
			</g>
		</g>
		<g>
			<g>
				
					<line fill="none" stroke="#005695" stroke-width="2" stroke-miterlimit="1" x1="191.189" y1="230.117" x2="271.938" y2="230.117"/>
				<g>
					<polygon fill="#005695" points="270.353,232.441 279.025,230.117 270.353,227.793 					"/>
				</g>
			</g>
		</g>
		<g>
			<g>
				
					<line fill="none" stroke="#005695" stroke-width="2" stroke-miterlimit="1" x1="307.939" y1="257.346" x2="278.6" y2="257.346"/>
				<g>
					<polygon fill="#005695" points="306.354,255.021 315.027,257.346 306.354,259.67 					"/>
				</g>
			</g>
		</g>
		<g>
			<g>
				
					<line fill="none" stroke="#005695" stroke-width="2" stroke-miterlimit="1" x1="344.367" y1="264.545" x2="315.027" y2="264.545"/>
				<g>
					<polygon fill="#005695" points="342.782,262.221 351.455,264.545 342.782,266.869 					"/>
				</g>
			</g>
		</g>
		<g>
			<g>
				
					<line fill="none" stroke="#005695" stroke-width="2" stroke-miterlimit="1" x1="380.365" y1="271.744" x2="351.025" y2="271.744"/>
				<g>
					<polygon fill="#005695" points="378.78,269.42 387.453,271.744 378.78,274.068 					"/>
				</g>
			</g>
		</g>
		<g>
			<g>
				
					<line fill="none" stroke="#005695" stroke-width="2" stroke-miterlimit="1" x1="416.363" y1="278.943" x2="387.023" y2="278.943"/>
				<g>
					<polygon fill="#005695" points="414.778,276.619 423.451,278.943 414.778,281.268 					"/>
				</g>
			</g>
		</g>
		<g>
			<g>
				
					<line fill="none" stroke="#005695" stroke-width="2" stroke-miterlimit="1" x1="452.361" y1="286.143" x2="451.361" y2="286.143"/>
				
					<line fill="none" stroke="#005695" stroke-width="2" stroke-miterlimit="1" stroke-dasharray="2.1031,2.1031" x1="449.259" y1="286.143" x2="425.073" y2="286.143"/>
				
					<line fill="none" stroke="#005695" stroke-width="2" stroke-miterlimit="1" x1="424.021" y1="286.143" x2="423.021" y2="286.143"/>
				<g>
					<polygon fill="#005695" points="450.776,283.818 459.449,286.143 450.776,288.467 					"/>
				</g>
			</g>
		</g>
		<g>
			<g>
				
					<line fill="none" stroke="#005695" stroke-width="2" stroke-miterlimit="1" x1="208.918" y1="202.891" x2="220.35" y2="202.891"/>
				<g>
					<polygon fill="#005695" points="210.504,205.215 201.831,202.891 210.504,200.566 					"/>
				</g>
			</g>
		</g>
		<g>
			<g>
				
					<line fill="none" stroke="#005695" stroke-width="2" stroke-miterlimit="1" x1="173.392" y1="202.891" x2="183.743" y2="202.891"/>
				<g>
					<polygon fill="#005695" points="182.157,205.215 190.83,202.891 182.157,200.566 					"/>
				</g>
			</g>
		</g>
		<g>
			<g>
				
					<line fill="none" stroke="#005695" stroke-width="2" stroke-miterlimit="1" x1="213.139" y1="33.901" x2="226.371" y2="33.901"/>
				<g>
					<polygon fill="#005695" points="214.725,36.226 206.052,33.901 214.725,31.577 					"/>
				</g>
			</g>
		</g>
		<g>
			<g>
				
					<line fill="none" stroke="#005695" stroke-width="2" stroke-miterlimit="1" x1="183.731" y1="33.901" x2="194.443" y2="33.901"/>
				<g>
					<polygon fill="#005695" points="192.857,36.226 201.53,33.901 192.857,31.577 					"/>
				</g>
			</g>
		</g>
		
			<line fill="none" stroke="#005695" stroke-width="6" stroke-linecap="round" stroke-miterlimit="1" x1="190.109" y1="166.535" x2="191.551" y2="166.535"/>
		<text transform="matrix(1 0 0 1 206.8462 195.6943)" font-size="9">0.01s</text>
		<text transform="matrix(1 0 0 1 236.8369 224.1943)" font-size="9">1s</text>
		<text transform="matrix(1 0 0 1 282.9902 251.834)" font-size="9">0.033s</text>
		<text transform="matrix(1 0 0 1 187.9478 23.8359)" font-size="9">0.0033s</text>
	</g>
</g>
</svg>
