<?xml version="1.0" encoding="utf-8"?>
<!-- $Source: /home/bbennett/pass/archive/DicomXml/docbook/part17/figures/PS3.17_O.3-3.svg,v $ -->
<!-- $Date: 2014/05/09 12:31:57 $ -->
<!-- $Revision: 1.2 $ -->

<!DOCTYPE svg PUBLIC "-//W3C//DTD SVG 1.1//EN" "http://www.w3.org/Graphics/SVG/1.1/DTD/svg11.dtd">
<svg version="1.1" id="Layer_1" xmlns="http://www.w3.org/2000/svg" xmlns:xlink="http://www.w3.org/1999/xlink" x="0px" y="0px"
	 width="502px" height="182px" viewBox="0 0 502 182" enable-background="new 0 0 502 182" xml:space="preserve">

<defs>
	<style type="text/css">
	text {
	  font-family: Helvetica, Verdana, ArialUnicodeMS, san-serif
	}
	</style>
</defs>

<g>
   <desc>
	PS 3.17 Part 17: Explanatory Information
   </desc>
</g>

<g>
	<rect x="1" y="1" fill="#F5EED6" width="500" height="180"/>
	<g>
		<rect x="18.304" y="29.694" fill="#B2CEE7" stroke="#003468" stroke-miterlimit="1" width="95.098" height="129.09"/>
		<rect x="31.305" y="40.24" fill="#D5E2F1" stroke="#000000" stroke-miterlimit="1" width="63" height="36"/>
		<g>
			<text transform="matrix(1 0 0 1 18.3032 25.8555)" font-size="10">Coupled Modalities</text>
		</g>
		<rect x="31.305" y="112.239" fill="#D5E2F1" stroke="#000000" stroke-miterlimit="1" width="63" height="36"/>
		<g>
			<text transform="matrix(1 0 0 1 44.1851 61.5757)" font-size="10">Modality</text>
		</g>
		<g>
			<text transform="matrix(1 0 0 1 44.1851 133.5762)" font-size="10">Modality</text>
		</g>
		<g>
			<text transform="matrix(1 0 0 1 310.5859 148.7842)" font-size="9">Registration</text>
		</g>
		<rect x="375.697" y="70.619" fill="#CCCCCC" stroke="#000000" stroke-linejoin="round" width="108" height="70.899"/>
		<rect x="379.283" y="74.196" fill="#005695" stroke="#000000" stroke-linejoin="round" width="100.837" height="62.451"/>
		<polygon fill="#CCCCCC" stroke="#000000" stroke-linejoin="round" points="448.6,161.923 443.916,158.528 441.488,141.519 
			418.633,141.519 416.208,158.522 411.519,161.923 411.519,165.007 448.6,165.007 		"/>
		<line fill="#808080" stroke="#000000" stroke-linejoin="round" x1="416.208" y1="158.522" x2="443.916" y2="158.528"/>
		<g>
			<text transform="matrix(1 0 0 1 400.8965 103.793)"><tspan x="0" y="0" fill="#FFFFFF" font-size="11">Workstation</tspan><tspan x="11.005" y="11.502" fill="#FFFFFF" font-size="11">or CAD</tspan></text>
		</g>
		<g>
			<g>
				<line fill="none" stroke="#003468" x1="94.304" y1="58.24" x2="174.734" y2="58.24"/>
				<path fill="#003468" d="M177.096,57.215c-1.653-0.5-2.728-0.959-4.054-1.492v5.044c0.475-0.226,2.401-0.993,4.054-1.492
					c1.77-0.535,3.374-0.9,4.415-1.031C180.47,58.115,178.866,57.75,177.096,57.215z"/>
			</g>
		</g>
		<g>
			<g>
				<line fill="none" stroke="#003468" x1="94.304" y1="116.351" x2="168.036" y2="116.351"/>
				<path fill="#003468" d="M170.398,115.326c-1.653-0.5-2.728-0.96-4.054-1.492v5.045c0.475-0.227,2.401-0.993,4.054-1.492
					c1.77-0.535,3.374-0.9,4.415-1.031C173.772,116.226,172.167,115.859,170.398,115.326z"/>
			</g>
		</g>
		<g>
			<g>
				<line fill="none" stroke="#003468" x1="309.848" y1="104.813" x2="365.66" y2="104.813"/>
				<path fill="#003468" d="M368.021,103.789c-1.652-0.5-2.728-0.96-4.054-1.492v5.045c0.475-0.227,2.401-0.993,4.054-1.492
					c1.77-0.535,3.375-0.9,4.415-1.031C371.396,104.688,369.791,104.322,368.021,103.789z"/>
			</g>
		</g>
		<g>
			<g>
				<line fill="none" stroke="#003468" stroke-width="2" x1="294.449" y1="139.026" x2="366.528" y2="139.026"/>
				<path fill="#003468" d="M369.362,137.797c-1.983-0.6-3.273-1.151-4.865-1.79v6.053c0.57-0.271,2.882-1.191,4.865-1.79
					c2.124-0.642,4.049-1.08,5.298-1.236C373.411,138.876,371.486,138.438,369.362,137.797z"/>
			</g>
		</g>
		<g>
			<text transform="matrix(1 0 0 1 119.9614 148.7842)" font-size="9">Registration</text>
		</g>
		<g>
			<g>
				<line fill="none" stroke="#003468" stroke-width="2" x1="94.546" y1="139.026" x2="178.734" y2="139.026"/>
				<path fill="#003468" d="M181.568,137.797c-1.984-0.6-3.273-1.151-4.865-1.79v6.053c0.569-0.271,2.881-1.191,4.865-1.79
					c2.124-0.642,4.049-1.08,5.298-1.236C185.617,138.876,183.692,138.438,181.568,137.797z"/>
			</g>
		</g>
		<g>
			<g>
				<line fill="none" stroke="#003468" x1="294.449" y1="73.761" x2="366.528" y2="73.761"/>
				<path fill="#003468" d="M368.891,72.736c-1.654-0.5-2.729-0.959-4.055-1.492v5.044c0.475-0.226,2.4-0.993,4.055-1.492
					c1.77-0.535,3.373-0.9,4.414-1.031C372.264,73.636,370.66,73.27,368.891,72.736z"/>
			</g>
		</g>
		
			<path fill="#4F8ABE" stroke="#000000" stroke-width="0.75" stroke-linecap="round" stroke-linejoin="round" stroke-miterlimit="1" d="
			M341.379,80.708c0,1.123-1.094,2.034-2.44,2.034h-12.7c-1.349,0-2.441-0.911-2.441-2.034V62.799c0-1.125,1.093-2.036,2.441-2.036
			h12.7c1.347,0,2.44,0.911,2.44,2.036V80.708z"/>
		
			<path fill="#4F8ABE" stroke="#000000" stroke-width="0.75" stroke-linecap="round" stroke-linejoin="round" stroke-miterlimit="1" d="
			M343.388,82.716c0,1.125-1.093,2.035-2.442,2.035h-12.698c-1.35,0-2.442-0.91-2.442-2.035v-17.91c0-1.123,1.093-2.034,2.442-2.034
			h12.698c1.35,0,2.442,0.911,2.442,2.034V82.716z"/>
		
			<path fill="#4F8ABE" stroke="#000000" stroke-width="0.75" stroke-linecap="round" stroke-linejoin="round" stroke-miterlimit="1" d="
			M345.396,84.724c0,1.125-1.095,2.036-2.442,2.036h-12.698c-1.349,0-2.442-0.911-2.442-2.036V66.815
			c0-1.125,1.094-2.036,2.442-2.036h12.698c1.348,0,2.442,0.911,2.442,2.036V84.724z"/>
		<g>
			<text transform="matrix(1 0 0 1 333.668 78.0933)" fill="#FFFFFF" font-size="8.8">A</text>
		</g>
		
			<path fill="#4F8ABE" stroke="#000000" stroke-width="0.75" stroke-linecap="round" stroke-linejoin="round" stroke-miterlimit="1" d="
			M341.379,111.761c0,1.123-1.094,2.035-2.44,2.035h-12.7c-1.349,0-2.441-0.912-2.441-2.035V93.853c0-1.125,1.093-2.036,2.441-2.036
			h12.7c1.347,0,2.44,0.911,2.44,2.036V111.761z"/>
		
			<path fill="#4F8ABE" stroke="#000000" stroke-width="0.75" stroke-linecap="round" stroke-linejoin="round" stroke-miterlimit="1" d="
			M343.388,113.769c0,1.125-1.093,2.035-2.442,2.035h-12.698c-1.35,0-2.442-0.91-2.442-2.035v-17.91
			c0-1.123,1.093-2.033,2.442-2.033h12.698c1.35,0,2.442,0.91,2.442,2.033V113.769z"/>
		
			<path fill="#4F8ABE" stroke="#000000" stroke-width="0.75" stroke-linecap="round" stroke-linejoin="round" stroke-miterlimit="1" d="
			M345.396,115.776c0,1.125-1.095,2.037-2.442,2.037h-12.698c-1.349,0-2.442-0.912-2.442-2.037V97.868
			c0-1.125,1.094-2.035,2.442-2.035h12.698c1.348,0,2.442,0.91,2.442,2.035V115.776z"/>
		<g>
			<text transform="matrix(1 0 0 1 333.668 109.1445)" fill="#FFFFFF" font-size="8.8">B</text>
		</g>
		
			<path fill="#4F8ABE" stroke="#000000" stroke-width="0.75" stroke-linecap="round" stroke-linejoin="round" stroke-miterlimit="1" d="
			M150.757,65.188c0,1.123-1.095,2.034-2.442,2.034h-12.698c-1.35,0-2.442-0.911-2.442-2.034V47.278
			c0-1.125,1.093-2.036,2.442-2.036h12.698c1.348,0,2.442,0.911,2.442,2.036V65.188z"/>
		
			<path fill="#4F8ABE" stroke="#000000" stroke-width="0.75" stroke-linecap="round" stroke-linejoin="round" stroke-miterlimit="1" d="
			M152.765,67.195c0,1.125-1.094,2.035-2.441,2.035h-12.699c-1.349,0-2.442-0.91-2.442-2.035v-17.91
			c0-1.123,1.094-2.034,2.442-2.034h12.699c1.348,0,2.441,0.911,2.441,2.034V67.195z"/>
		
			<path fill="#4F8ABE" stroke="#000000" stroke-width="0.75" stroke-linecap="round" stroke-linejoin="round" stroke-miterlimit="1" d="
			M154.773,69.203c0,1.125-1.095,2.036-2.442,2.036h-12.698c-1.35,0-2.442-0.911-2.442-2.036V51.295
			c0-1.125,1.093-2.036,2.442-2.036h12.698c1.348,0,2.442,0.911,2.442,2.036V69.203z"/>
		<g>
			<text transform="matrix(1 0 0 1 143.0469 62.5723)" fill="#FFFFFF" font-size="8.8">A</text>
		</g>
		
			<path fill="#4F8ABE" stroke="#000000" stroke-width="0.75" stroke-linecap="round" stroke-linejoin="round" stroke-miterlimit="1" d="
			M150.757,123.298c0,1.123-1.095,2.033-2.442,2.033h-12.698c-1.35,0-2.442-0.91-2.442-2.033v-17.91
			c0-1.125,1.093-2.037,2.442-2.037h12.698c1.348,0,2.442,0.912,2.442,2.037V123.298z"/>
		
			<path fill="#4F8ABE" stroke="#000000" stroke-width="0.75" stroke-linecap="round" stroke-linejoin="round" stroke-miterlimit="1" d="
			M152.765,125.304c0,1.125-1.094,2.037-2.441,2.037h-12.699c-1.349,0-2.442-0.912-2.442-2.037v-17.908
			c0-1.123,1.094-2.035,2.442-2.035h12.699c1.348,0,2.441,0.912,2.441,2.035V125.304z"/>
		
			<path fill="#4F8ABE" stroke="#000000" stroke-width="0.75" stroke-linecap="round" stroke-linejoin="round" stroke-miterlimit="1" d="
			M154.773,127.313c0,1.125-1.095,2.035-2.442,2.035h-12.698c-1.35,0-2.442-0.91-2.442-2.035v-17.91
			c0-1.123,1.093-2.035,2.442-2.035h12.698c1.348,0,2.442,0.912,2.442,2.035V127.313z"/>
		<g>
			<text transform="matrix(1 0 0 1 143.0469 120.6846)" fill="#FFFFFF" font-size="8.8">B</text>
		</g>
		<path fill="#B2CEE7" stroke="#003468" stroke-linecap="round" stroke-linejoin="round" stroke-miterlimit="1" d="M212.819,135.196
			c0,0-10.129,13.705-24.47,2.236c-13.121-10.496-8.586-24.111-8.586-24.111s-13.741,0.84-11.475-20.566
			c1.66-15.689,18.241-15.69,18.241-15.69s-10.566-14.751,4.498-27.83c13.46-11.685,28.914,1.57,28.914,1.57
			s2.995-19.564,25.89-19.564c19.273,0,27.568,18.411,27.568,18.411s13.113-10.05,22.868,1.605
			c11.788,14.086-0.517,25.808-0.517,25.808s12.673,2.506,14.719,12.86c3.718,18.816-10.802,19.041-10.802,19.041
			s9.961,17.533,0.485,27.684c-13.816,14.797-25.602,6.797-25.602,6.797s-0.691,15.113-28.721,13.701
			C216.287,155.655,212.819,135.196,212.819,135.196z"/>
		<g>
			<text transform="matrix(1 0 0 1 209.5435 91.5933)"><tspan x="0" y="0" font-size="12">Information</tspan><tspan x="8.01" y="11.965" font-size="12">Network</tspan></text>
		</g>
		<path fill="#4F8ABE" stroke="#003468" stroke-width="0.5" d="M59.641,100.327c-2.059,0-3.478-0.688-4.102-1.992
			c-0.479-0.998-0.479-2.295-0.479-3.668c0-1.064,0-2.07,0.216-2.928c0.28-1.111,0.917-1.866,1.948-2.308
			c0.66-0.282,1.474-0.425,2.417-0.425c2.059,0,3.478,0.688,4.102,1.992c0.479,0.999,0.479,2.296,0.479,3.668
			c0,1.373,0,2.67-0.479,3.668C63.118,99.64,61.699,100.327,59.641,100.327L59.641,100.327z M59.641,90.688
			c-0.471,0-0.839,0.056-1.098,0.167c-1.008,0.431-1.008,2.073-1.008,3.812c0,3.131,0.262,3.979,2.105,3.979
			c1.843,0,2.104-0.848,2.104-3.979S61.483,90.688,59.641,90.688L59.641,90.688z"/>
		<path fill="#4F8ABE" stroke="#003468" stroke-width="0.5" d="M59.641,87.562c-2.059,0-3.478-0.688-4.102-1.992
			c-0.479-0.999-0.479-2.296-0.479-3.668c0-1.373,0-2.67,0.479-3.669c0.624-1.304,2.043-1.992,4.102-1.992s3.478,0.688,4.102,1.992
			c0.479,0.999,0.479,2.296,0.479,3.669c0,1.372,0,2.669-0.479,3.668C63.118,86.873,61.699,87.562,59.641,87.562L59.641,87.562z
			 M59.641,77.922c-1.844,0-2.105,0.848-2.105,3.979c0,3.131,0.262,3.979,2.105,3.979c1.843,0,2.104-0.848,2.104-3.979
			C61.745,78.77,61.483,77.922,59.641,77.922L59.641,77.922z"/>
		<path fill="#4F8ABE" stroke="#003468" stroke-width="0.5" d="M59.641,112.239c-2.059,0-3.478-0.689-4.102-1.992
			c-0.479-1-0.479-2.297-0.479-3.668c0-1.373,0-2.67,0.479-3.668c0.624-1.305,2.043-1.992,4.102-1.992s3.478,0.688,4.102,1.992
			c0.479,0.998,0.479,2.295,0.479,3.668c0,1.371,0,2.668-0.479,3.668C63.118,111.55,61.699,112.239,59.641,112.239L59.641,112.239z
			 M59.641,102.601c-1.844,0-2.105,0.848-2.105,3.979s0.262,3.979,2.105,3.979c1.843,0,2.104-0.848,2.104-3.979
			S61.483,102.601,59.641,102.601L59.641,102.601z"/>
		<path fill="#4F8ABE" stroke="#003468" stroke-width="0.5" d="M59.641,92.778c-0.685,0-1.238-0.376-1.238-0.841v-7.063
			c0-0.465,0.554-0.841,1.238-0.841c0.684,0,1.237,0.376,1.237,0.841v7.063C60.878,92.402,60.324,92.778,59.641,92.778
			L59.641,92.778z"/>
		<path fill="#4F8ABE" stroke="#003468" stroke-width="0.5" d="M59.641,104.854c-0.685,0-1.238-0.377-1.238-0.842v-7.064
			c0-0.463,0.554-0.84,1.238-0.84c0.684,0,1.237,0.377,1.237,0.84v7.064C60.878,104.478,60.324,104.854,59.641,104.854
			L59.641,104.854z"/>
	</g>
</g>
</svg>
