<?xml version="1.0" encoding="utf-8"?>
<!-- $Source: /home/bbennett/pass/archive/DicomXml/docbook/part17/figures/PS3.17_I.8-2.svg,v $ -->
<!-- $Date: 2014/05/09 12:31:57 $ -->
<!-- $Revision: 1.2 $ -->

<!DOCTYPE svg PUBLIC "-//W3C//DTD SVG 1.1//EN" "http://www.w3.org/Graphics/SVG/1.1/DTD/svg11.dtd">
<svg version="1.1" id="Layer_1" xmlns="http://www.w3.org/2000/svg" xmlns:xlink="http://www.w3.org/1999/xlink" x="0px" y="0px"
	 width="502px" height="282px" viewBox="0 0 502 282" enable-background="new 0 0 502 282" xml:space="preserve">

<defs>
	<style type="text/css">
	text {
	  font-family: Helvetica, Verdana, ArialUnicodeMS, san-serif
	}
	</style>
</defs>

<g>
   <desc>
	PS 3.17 Part 17: Explanatory Information
   </desc>
</g>

<g>
	<rect x="1" y="1" fill="#F5EED6" width="500" height="280"/>
	<g>
		
			<polygon fill="#CCDEF0" stroke="#010101" stroke-width="0.75" stroke-linecap="round" stroke-linejoin="round" stroke-miterlimit="1" points="
			160.037,97.261 209.498,84.085 259.044,97.687 259.044,97.718 209.443,111.081 		"/>
		<g>
			<text transform="matrix(1 0.0022 -0.0022 1 175.1177 99.9502)" font-size="7">HAS CONCEPT MOD</text>
		</g>
		<g>
			<g>
				
					<line fill="none" stroke="#005695" stroke-linecap="round" stroke-miterlimit="1" x1="209.541" y1="111.081" x2="209.541" y2="117.976"/>
				<path fill="#005695" d="M210.565,120.337c0.5-1.653,0.959-2.728,1.492-4.054h-5.044c0.226,0.475,0.993,2.401,1.492,4.054
					c0.535,1.77,0.9,3.374,1.031,4.415C209.666,123.711,210.031,122.107,210.565,120.337z"/>
			</g>
		</g>
		
			<rect x="160.04" y="125.157" fill="#B2CEE7" stroke="#010101" stroke-width="0.75" stroke-linecap="round" stroke-linejoin="round" stroke-miterlimit="1" width="99.001" height="27.001"/>
		<g>
			<text transform="matrix(1 0 0 1 183.0269 136.4004)"><tspan x="0" y="0" font-size="7">Laterality = &quot;Left&quot;</tspan><tspan x="16.401" y="8.4" font-size="7">CODE</tspan></text>
		</g>
		
			<polygon fill="#CCDEF0" stroke="#010101" stroke-width="0.75" stroke-linecap="round" stroke-linejoin="round" stroke-miterlimit="1" points="
			41.196,97.261 90.657,84.085 140.204,97.687 140.204,97.718 90.602,111.081 		"/>
		<g>
			<text transform="matrix(1 0.0022 -0.0022 1 56.2793 99.9502)" font-size="7">HAS CONCEPT MOD</text>
		</g>
		
			<polygon fill="#CCDEF0" stroke="#010101" stroke-width="0.75" stroke-linecap="round" stroke-linejoin="round" stroke-miterlimit="1" points="
			160.036,206.184 209.497,193.01 259.043,206.609 259.043,206.641 209.442,220.006 		"/>
		<g>
			<g>
				
					<line fill="none" stroke="#005695" stroke-linecap="round" stroke-miterlimit="1" x1="90.909" y1="111.081" x2="90.909" y2="117.976"/>
				<path fill="#005695" d="M91.934,120.337c0.5-1.653,0.959-2.728,1.492-4.054h-5.044c0.226,0.475,0.993,2.401,1.492,4.054
					c0.535,1.77,0.9,3.374,1.031,4.415C91.034,123.711,91.399,122.107,91.934,120.337z"/>
			</g>
		</g>
		
			<rect x="36.911" y="125.157" fill="#B2CEE7" stroke="#010101" stroke-width="0.75" stroke-linecap="round" stroke-linejoin="round" stroke-miterlimit="1" width="108.001" height="27.001"/>
		<g>
			<text transform="matrix(1 0 0 1 41.9897 136.4004)"><tspan x="0" y="0" font-size="7">Finding Site = “Ovarian Follicle”</tspan><tspan x="38.809" y="8.4" font-size="7">CODE</tspan></text>
		</g>
		<g>
			<g>
				
					<line fill="none" stroke="#005695" stroke-linecap="round" stroke-miterlimit="1" x1="312.562" y1="110.05" x2="312.562" y2="118.688"/>
				<path fill="#005695" d="M313.587,121.05c0.499-1.653,0.959-2.728,1.491-4.054h-5.044c0.225,0.475,0.992,2.401,1.491,4.054
					c0.534,1.77,0.9,3.374,1.03,4.415C312.687,124.424,313.052,122.82,313.587,121.05z"/>
			</g>
		</g>
		
			<polygon fill="#CCDEF0" stroke="#010101" stroke-width="0.75" stroke-linecap="round" stroke-linejoin="round" stroke-miterlimit="1" points="
			267.56,97.132 312.521,83.964 357.566,97.558 357.566,97.589 312.47,110.942 		"/>
		<text transform="matrix(1 0 0 1 294.478 99.3936)" font-size="7">CONTAINS</text>
		
			<rect x="185.807" y="17.344" fill="#86B2D8" stroke="#010101" stroke-width="0.75" stroke-linecap="round" stroke-linejoin="round" stroke-miterlimit="1" width="135.008" height="27.001"/>
		<g>
			<text transform="matrix(1 0 0 1 238.1914 28.2676)"><tspan x="0" y="0" font-size="8">Findings</tspan><tspan x="-8.438" y="9.6" font-size="8">CONTAINER</tspan></text>
		</g>
		
			<rect x="272.063" y="125.165" fill="#B2CEE7" stroke="#010101" stroke-width="0.75" stroke-linecap="round" stroke-linejoin="round" stroke-miterlimit="1" width="80.999" height="26.985"/>
		<g>
			<text transform="matrix(1 0 0 1 274.189 136.4004)"><tspan x="0" y="0" font-size="7">Number of Follicles = &quot;3&quot;</tspan><tspan x="30.403" y="8.4" font-size="7">NUM</tspan></text>
		</g>
		<g>
			<g>
				
					<line fill="none" stroke="#005695" stroke-linecap="round" stroke-miterlimit="1" x1="415.584" y1="110.05" x2="415.584" y2="118.688"/>
				<path fill="#005695" d="M416.609,121.05c0.5-1.653,0.96-2.728,1.492-4.054h-5.045c0.227,0.475,0.993,2.401,1.492,4.054
					c0.535,1.77,0.9,3.374,1.031,4.415C415.709,124.424,416.076,122.82,416.609,121.05z"/>
			</g>
		</g>
		
			<polygon fill="#CCDEF0" stroke="#010101" stroke-width="0.75" stroke-linecap="round" stroke-linejoin="round" stroke-miterlimit="1" points="
			370.583,97.132 415.542,83.964 460.587,97.558 460.587,97.589 415.492,110.942 		"/>
		<text transform="matrix(1 0 0 1 397.5005 99.3936)" font-size="7">CONTAINS</text>
		
			<rect x="375.085" y="125.165" fill="#B2CEE7" stroke="#010101" stroke-width="0.75" stroke-linecap="round" stroke-linejoin="round" stroke-miterlimit="1" width="80.999" height="26.985"/>
		<g>
			<text transform="matrix(1 0 0 1 383.4868 136.4004)"><tspan x="0" y="0" font-size="7">Measurement Group</tspan><tspan x="21.986" y="8.4" font-size="7">CODE</tspan></text>
		</g>
		<g>
			<g>
				
					<line fill="none" stroke="#005695" stroke-linecap="round" stroke-miterlimit="1" x1="312.565" y1="171.156" x2="312.565" y2="185.811"/>
				<path fill="#005695" d="M313.589,188.172c0.5-1.652,0.96-2.728,1.492-4.054h-5.045c0.227,0.475,0.993,2.401,1.492,4.054
					c0.535,1.77,0.9,3.375,1.031,4.415C312.69,191.547,313.056,189.941,313.589,188.172z"/>
			</g>
		</g>
		<g>
			<g>
				
					<line fill="none" stroke="#005695" stroke-linecap="round" stroke-miterlimit="1" x1="209.54" y1="219.979" x2="209.54" y2="230.475"/>
				<path fill="#005695" d="M210.564,232.836c0.5-1.652,0.959-2.728,1.492-4.054h-5.044c0.226,0.475,0.993,2.401,1.492,4.054
					c0.535,1.77,0.9,3.375,1.031,4.415C209.665,236.211,210.03,234.605,210.564,232.836z"/>
			</g>
		</g>
		
			<rect x="169.039" y="237.656" fill="#B2CEE7" stroke="#010101" stroke-width="0.75" stroke-linecap="round" stroke-linejoin="round" stroke-miterlimit="1" width="81.002" height="27"/>
		<g>
			<text transform="matrix(1 0 0 1 197.6733 248.8965)"><tspan x="0" y="0" font-size="7">Volume</tspan><tspan x="3.896" y="8.4" font-size="7">NUM</tspan></text>
		</g>
		<g>
			<g>
				
					<line fill="none" stroke="#005695" stroke-linecap="round" stroke-miterlimit="1" x1="312.564" y1="219.979" x2="312.564" y2="230.475"/>
				<path fill="#005695" d="M313.589,232.836c0.499-1.652,0.959-2.728,1.491-4.054h-5.044c0.225,0.475,0.992,2.401,1.491,4.054
					c0.534,1.77,0.9,3.375,1.03,4.415C312.689,236.211,313.054,234.605,313.589,232.836z"/>
			</g>
		</g>
		
			<rect x="272.061" y="237.656" fill="#B2CEE7" stroke="#010101" stroke-width="0.75" stroke-linecap="round" stroke-linejoin="round" stroke-miterlimit="1" width="81.004" height="27"/>
		<g>
			<text transform="matrix(1 0 0 1 286.4546 248.8965)"><tspan x="0" y="0" font-size="7">Follicle Diameter</tspan><tspan x="18.091" y="8.4" font-size="7">NUM</tspan></text>
		</g>
		<g>
			<g>
				
					<line fill="none" stroke="#005695" stroke-linecap="round" stroke-miterlimit="1" x1="415.586" y1="219.979" x2="415.586" y2="230.475"/>
				<path fill="#005695" d="M416.611,232.836c0.5-1.652,0.96-2.728,1.492-4.054h-5.045c0.227,0.475,0.993,2.401,1.492,4.054
					c0.535,1.77,0.9,3.375,1.031,4.415C415.711,236.211,416.078,234.605,416.611,232.836z"/>
			</g>
		</g>
		
			<rect x="375.085" y="237.656" fill="#B2CEE7" stroke="#010101" stroke-width="0.75" stroke-linecap="round" stroke-linejoin="round" stroke-miterlimit="1" width="81.002" height="27"/>
		<g>
			<text transform="matrix(1 0 0 1 393.7397 248.8965)"><tspan x="0" y="0" font-size="7">Identifier = &quot;2&quot;</tspan><tspan x="12.9" y="8.4" font-size="7">TEXT</tspan></text>
		</g>
		<g>
			<g>
				
					<line fill="none" stroke="#005695" stroke-linecap="round" stroke-miterlimit="1" x1="415.71" y1="152.562" x2="415.71" y2="185.402"/>
				<path fill="#005695" d="M416.736,187.764c0.499-1.652,0.959-2.728,1.491-4.054h-5.044c0.225,0.475,0.992,2.401,1.491,4.054
					c0.534,1.77,0.9,3.375,1.03,4.415C415.835,191.139,416.201,189.533,416.736,187.764z"/>
			</g>
		</g>
		<g>
			<g>
				<polyline fill="none" stroke="#005695" stroke-linecap="round" stroke-miterlimit="1" points="415.71,171.156 209.824,171.156 
					209.824,185.811 				"/>
				<path fill="#005695" d="M210.849,188.172c0.5-1.652,0.959-2.728,1.492-4.054h-5.044c0.226,0.475,0.993,2.401,1.492,4.054
					c0.535,1.77,0.9,3.375,1.031,4.415C209.949,191.547,210.314,189.941,210.849,188.172z"/>
			</g>
		</g>
		<g>
			<g>
				
					<line fill="none" stroke="#005695" stroke-linecap="round" stroke-miterlimit="1" x1="209.622" y1="61.378" x2="209.622" y2="76.032"/>
				<path fill="#005695" d="M210.646,78.394c0.5-1.653,0.959-2.728,1.492-4.054h-5.044c0.226,0.475,0.993,2.401,1.492,4.054
					c0.535,1.77,0.9,3.374,1.031,4.415C209.747,81.768,210.112,80.164,210.646,78.394z"/>
			</g>
		</g>
		<g>
			<g>
				<polyline fill="none" stroke="#005695" stroke-linecap="round" stroke-miterlimit="1" points="253.311,61.378 90.912,61.378 
					90.912,76.032 				"/>
				<path fill="#005695" d="M91.937,78.394c0.5-1.653,0.959-2.728,1.492-4.054h-5.044c0.226,0.475,0.993,2.401,1.492,4.054
					c0.535,1.77,0.9,3.374,1.031,4.415C91.037,81.768,91.402,80.164,91.937,78.394z"/>
			</g>
		</g>
		<g>
			<g>
				<polyline fill="none" stroke="#005695" stroke-linecap="round" stroke-miterlimit="1" points="253.311,44.345 253.311,61.378 
					312.767,61.378 312.767,76.032 				"/>
				<path fill="#005695" d="M313.792,78.394c0.499-1.653,0.959-2.728,1.491-4.054h-5.044c0.225,0.475,0.992,2.401,1.491,4.054
					c0.534,1.77,0.9,3.374,1.03,4.415C312.892,81.768,313.257,80.164,313.792,78.394z"/>
			</g>
		</g>
		<g>
			<g>
				<polyline fill="none" stroke="#005695" stroke-linecap="round" stroke-miterlimit="1" points="313.099,61.378 415.71,61.378 
					415.71,76.032 				"/>
				<path fill="#005695" d="M416.736,78.394c0.499-1.653,0.959-2.728,1.491-4.054h-5.044c0.225,0.475,0.992,2.401,1.491,4.054
					c0.534,1.77,0.9,3.374,1.03,4.415C415.835,81.768,416.201,80.164,416.736,78.394z"/>
			</g>
		</g>
		<text transform="matrix(1 0 0 1 178.811 208.4502)" font-size="7">HAS PROPERTIES</text>
		
			<polygon fill="#CCDEF0" stroke="#010101" stroke-width="0.75" stroke-linecap="round" stroke-linejoin="round" stroke-miterlimit="1" points="
			263.058,206.184 312.522,193.01 362.068,206.609 362.068,206.641 312.467,220.006 		"/>
		<text transform="matrix(1 0 0 1 281.8335 208.4502)" font-size="7">HAS PROPERTIES</text>
		
			<polygon fill="#CCDEF0" stroke="#010101" stroke-width="0.75" stroke-linecap="round" stroke-linejoin="round" stroke-miterlimit="1" points="
			366.083,206.184 415.543,193.01 465.089,206.609 465.089,206.641 415.489,220.006 		"/>
		<text transform="matrix(1 0 0 1 382.3296 208.4502)" font-size="7">HAS OBS CONTEXT</text>
	</g>
</g>
</svg>
