<?xml version="1.0" encoding="utf-8"?>
<!-- $Source: /home/bbennett/pass/archive/DicomXml/docbook/part17/figures/PS3.17_Q.1-2.svg,v $ -->
<!-- $Date: 2014/05/09 12:31:57 $ -->
<!-- $Revision: 1.2 $ -->

<!DOCTYPE svg PUBLIC "-//W3C//DTD SVG 1.1//EN" "http://www.w3.org/Graphics/SVG/1.1/DTD/svg11.dtd">
<svg version="1.1" id="Layer_1" xmlns="http://www.w3.org/2000/svg" xmlns:xlink="http://www.w3.org/1999/xlink" x="0px" y="0px"
	 width="502px" height="377px" viewBox="0 0 502 377" enable-background="new 0 0 502 377" xml:space="preserve">

<defs>
	<style type="text/css">
	text {
	  font-family: Helvetica, Verdana, ArialUnicodeMS, san-serif
	}
	</style>
</defs>

<g>
   <desc>
	PS 3.17 Part 17: Explanatory Information
   </desc>
</g>

<g>
	<rect x="1" y="1" fill="#F5EED6" width="500" height="375"/>
	<g>
		<g>
			<g>
				
					<line fill="none" stroke="#005695" stroke-linecap="round" stroke-miterlimit="1" x1="303.674" y1="121.362" x2="303.674" y2="129.179"/>
				<path fill="#005695" d="M304.7,131.541c0.499-1.652,0.959-2.728,1.491-4.054h-5.044c0.225,0.475,0.992,2.401,1.491,4.054
					c0.534,1.77,0.9,3.375,1.03,4.415C303.799,134.916,304.165,133.31,304.7,131.541z"/>
			</g>
		</g>
		<g>
			<g>
				
					<line fill="none" stroke="#005695" stroke-linecap="round" stroke-miterlimit="1" x1="356.466" y1="179.333" x2="356.466" y2="193.986"/>
				<path fill="#005695" d="M357.491,196.348c0.5-1.652,0.96-2.729,1.492-4.055h-5.045c0.227,0.475,0.993,2.402,1.492,4.055
					c0.535,1.77,0.9,3.375,1.031,4.414C356.591,199.723,356.958,198.117,357.491,196.348z"/>
			</g>
		</g>
		
			<rect x="258.673" y="137.435" fill="#B2CEE7" stroke="#010101" stroke-width="0.75" stroke-linecap="round" stroke-linejoin="round" stroke-miterlimit="1" width="90.002" height="27"/>
		<g>
			<text transform="matrix(1 0 0 1 286.5542 144.4795)"><tspan x="0" y="0" font-size="7">Reason for</tspan><tspan x="0.973" y="8.4" font-size="7">Procedure</tspan><tspan x="4.678" y="16.8" font-size="7">(CODE)</tspan></text>
		</g>
		<g>
			<g>
				
					<line fill="none" stroke="#005695" stroke-linecap="round" stroke-miterlimit="1" x1="408.268" y1="121.362" x2="408.268" y2="129.179"/>
				<path fill="#005695" d="M409.293,131.541c0.499-1.652,0.959-2.728,1.491-4.054h-5.044c0.225,0.475,0.992,2.401,1.491,4.054
					c0.534,1.77,0.9,3.375,1.03,4.415C408.393,134.916,408.758,133.31,409.293,131.541z"/>
			</g>
		</g>
		
			<rect x="363.268" y="137.435" fill="#B2CEE7" stroke="#010101" stroke-width="0.75" stroke-linecap="round" stroke-linejoin="round" stroke-miterlimit="1" width="90.002" height="27"/>
		<g>
			<text transform="matrix(1 0 0 1 390.9546 148.6797)"><tspan x="0" y="0" font-size="7">Study Date</tspan><tspan x="5.65" y="8.4" font-size="7">(DATE)</tspan></text>
		</g>
		<g>
			<g>
				
					<line fill="none" stroke="#005695" stroke-linecap="round" stroke-miterlimit="1" x1="303.675" y1="73.88" x2="303.675" y2="88.148"/>
				<path fill="#005695" d="M304.7,90.509c0.5-1.652,0.96-2.728,1.492-4.054h-5.045c0.227,0.475,0.993,2.401,1.492,4.054
					c0.535,1.77,0.9,3.375,1.031,4.415C303.8,93.884,304.167,92.279,304.7,90.509z"/>
			</g>
		</g>
		<g>
			<g>
				<polyline fill="none" stroke="#005695" stroke-linecap="round" stroke-linejoin="round" stroke-miterlimit="1" points="
					408.504,90.096 408.504,75.443 408.504,73.88 94.162,73.88 94.162,73.88 94.162,88.148 				"/>
				<path fill="#005695" d="M95.187,90.509c0.5-1.652,0.959-2.728,1.492-4.054h-5.044c0.226,0.475,0.993,2.401,1.492,4.054
					c0.535,1.77,0.9,3.375,1.031,4.415C94.287,93.884,94.652,92.279,95.187,90.509z"/>
				<path fill="#005695" d="M409.53,92.458c0.499-1.654,0.959-2.729,1.491-4.055h-5.044c0.225,0.475,0.992,2.4,1.491,4.055
					c0.534,1.77,0.9,3.373,1.03,4.414C408.629,95.832,408.995,94.228,409.53,92.458z"/>
			</g>
		</g>
		
			<polygon fill="#CCDEF0" stroke="#010101" stroke-width="0.75" stroke-linecap="round" stroke-linejoin="round" stroke-miterlimit="1" points="
			44.661,108.697 94.117,95.519 143.661,109.123 143.661,109.155 94.065,122.519 		"/>
		
			<polygon fill="#CCDEF0" stroke="#010101" stroke-width="0.75" stroke-linecap="round" stroke-linejoin="round" stroke-miterlimit="1" points="
			149.417,108.697 198.875,95.519 248.417,109.123 248.417,109.155 198.822,122.519 		"/>
		<text transform="matrix(1 0 0 1 68.8804 108.207)"><tspan x="0" y="0" font-size="7">HAS CONCEPT</tspan><tspan x="8.17" y="8.4" font-size="7">MODIFIER</tspan></text>
		<g>
			<g>
				
					<line fill="none" stroke="#005695" stroke-linecap="round" stroke-miterlimit="1" x1="94.156" y1="122.945" x2="94.156" y2="129.839"/>
				<path fill="#005695" d="M95.181,132.201c0.5-1.652,0.959-2.728,1.492-4.054h-5.044c0.226,0.475,0.993,2.401,1.492,4.054
					c0.535,1.77,0.9,3.375,1.031,4.415C94.281,135.576,94.647,133.97,95.181,132.201z"/>
			</g>
		</g>
		
			<rect x="49.155" y="137.435" fill="#B2CEE7" stroke="#010101" stroke-width="0.75" stroke-linecap="round" stroke-linejoin="round" stroke-miterlimit="1" width="90.002" height="27"/>
		<g>
			<text transform="matrix(1 0 0 1 79.959 148.6792)"><tspan x="0" y="0" font-size="7">Laterality</tspan><tspan x="1.758" y="8.4" font-size="7">(CODE)</tspan></text>
		</g>
		<text transform="matrix(1 0 0 1 173.6362 108.207)"><tspan x="0" y="0" font-size="7">HAS CONCEPT</tspan><tspan x="8.17" y="8.4" font-size="7">MODIFIER</tspan></text>
		
			<polygon fill="#CCDEF0" stroke="#010101" stroke-width="0.75" stroke-linecap="round" stroke-linejoin="round" stroke-miterlimit="1" points="
			254.173,108.697 303.63,95.519 353.173,109.123 353.173,109.155 303.578,122.519 		"/>
		
			<polygon fill="#CCDEF0" stroke="#010101" stroke-width="0.75" stroke-linecap="round" stroke-linejoin="round" stroke-miterlimit="1" points="
			358.769,108.697 408.226,95.519 457.769,109.123 457.769,109.155 408.173,122.519 		"/>
		<g>
			<g>
				
					<line fill="none" stroke="#005695" stroke-linecap="round" stroke-miterlimit="1" x1="198.913" y1="122.945" x2="198.913" y2="129.839"/>
				<path fill="#005695" d="M199.937,132.201c0.5-1.652,0.96-2.728,1.492-4.054h-5.045c0.227,0.475,0.993,2.401,1.492,4.054
					c0.535,1.77,0.9,3.375,1.031,4.415C199.038,135.576,199.404,133.97,199.937,132.201z"/>
			</g>
		</g>
		
			<rect x="153.912" y="137.435" fill="#B2CEE7" stroke="#010101" stroke-width="0.75" stroke-linecap="round" stroke-linejoin="round" stroke-miterlimit="1" width="90.002" height="27"/>
		<g>
			<text transform="matrix(1 0 0 1 169.3477 148.6797)"><tspan x="0" y="0" font-size="7">Procedure Modifier</tspan><tspan x="17.125" y="8.4" font-size="7">(CODE)</tspan></text>
		</g>
		
			<line fill="none" stroke="#005695" stroke-linecap="round" stroke-miterlimit="1" x1="303.721" y1="164.435" x2="303.721" y2="179.333"/>
		<g>
			<g>
				<polyline fill="none" stroke="#005695" stroke-linecap="round" stroke-miterlimit="1" points="356.466,179.333 356.447,179.333 
					251.343,179.333 251.343,179.333 251.343,193.986 				"/>
				<path fill="#005695" d="M252.369,196.348c0.499-1.652,0.96-2.729,1.491-4.055h-5.044c0.226,0.475,0.992,2.402,1.492,4.055
					c0.534,1.77,0.9,3.375,1.03,4.414C251.468,199.723,251.834,198.117,252.369,196.348z"/>
			</g>
		</g>
		
			<polygon fill="#CCDEF0" stroke="#010101" stroke-width="0.75" stroke-linecap="round" stroke-linejoin="round" stroke-miterlimit="1" points="
			201.843,212.586 251.3,199.408 300.843,213.012 300.843,213.045 251.248,226.408 		"/>
		
			<polygon fill="#CCDEF0" stroke="#010101" stroke-width="0.75" stroke-linecap="round" stroke-linejoin="round" stroke-miterlimit="1" points="
			306.599,212.586 356.056,199.408 405.599,213.012 405.599,213.045 356.003,226.408 		"/>
		<text transform="matrix(1 0 0 1 226.0625 212.0918)"><tspan x="0" y="0" font-size="7">HAS CONCEPT</tspan><tspan x="8.17" y="8.4" font-size="7">MODIFIER</tspan></text>
		<g>
			<g>
				
					<line fill="none" stroke="#005695" stroke-linecap="round" stroke-miterlimit="1" x1="251.339" y1="226.834" x2="251.339" y2="233.729"/>
				<path fill="#005695" d="M252.365,236.092c0.499-1.654,0.96-2.729,1.491-4.055h-5.044c0.226,0.475,0.992,2.4,1.492,4.055
					c0.534,1.77,0.9,3.373,1.03,4.414C251.464,239.465,251.831,237.861,252.365,236.092z"/>
			</g>
		</g>
		
			<rect x="206.337" y="241.324" fill="#B2CEE7" stroke="#010101" stroke-width="0.75" stroke-linecap="round" stroke-linejoin="round" stroke-miterlimit="1" width="90.002" height="27"/>
		<g>
			<text transform="matrix(1 0 0 1 227.6104 252.5645)"><tspan x="0" y="0" font-size="7">Clinical Finding</tspan><tspan x="11.289" y="8.4" font-size="7">(CODE)</tspan></text>
		</g>
		<text transform="matrix(1 0 0 1 330.8188 212.0918)"><tspan x="0" y="0" font-size="7">HAS CONCEPT</tspan><tspan x="8.171" y="8.4" font-size="7">MODIFIER</tspan></text>
		<g>
			<g>
				
					<line fill="none" stroke="#005695" stroke-linecap="round" stroke-miterlimit="1" x1="356.094" y1="226.834" x2="356.094" y2="233.729"/>
				<path fill="#005695" d="M357.12,236.092c0.499-1.654,0.959-2.729,1.491-4.055h-5.044c0.225,0.475,0.992,2.4,1.491,4.055
					c0.534,1.77,0.9,3.373,1.03,4.414C356.219,239.465,356.584,237.861,357.12,236.092z"/>
			</g>
		</g>
		
			<rect x="311.093" y="241.324" fill="#B2CEE7" stroke="#010101" stroke-width="0.75" stroke-linecap="round" stroke-linejoin="round" stroke-miterlimit="1" width="90.002" height="27"/>
		<g>
			<text transform="matrix(1 0 0 1 334.7046 252.5654)"><tspan x="0" y="0" font-size="7">Relative Time</tspan><tspan x="8.951" y="8.399" font-size="7">(CODE)</tspan></text>
		</g>
		<text transform="matrix(1 0 0 1 296.478 104.9634)"><tspan x="0" y="0" font-size="7">HAS</tspan><tspan x="-15.363" y="8.4" font-size="7">PROPERTIES</tspan></text>
		<text transform="matrix(1 0 0 1 401.0737 104.9634)"><tspan x="0" y="0" font-size="7">HAS</tspan><tspan x="-15.363" y="8.4" font-size="7">PROPERTIES</tspan></text>
		<g>
			<g>
				
					<line fill="none" stroke="#005695" stroke-linecap="round" stroke-miterlimit="1" x1="251.343" y1="314.238" x2="251.343" y2="322.057"/>
				<path fill="#005695" d="M252.368,324.418c0.5-1.652,0.959-2.729,1.492-4.055h-5.045c0.226,0.475,0.993,2.402,1.491,4.055
					c0.535,1.77,0.9,3.375,1.031,4.414C251.468,327.793,251.833,326.188,252.368,324.418z"/>
			</g>
		</g>
		
			<rect x="206.343" y="330.312" fill="#B2CEE7" stroke="#010101" stroke-width="0.75" stroke-linecap="round" stroke-linejoin="round" stroke-miterlimit="1" width="90.001" height="27"/>
		<g>
			<text transform="matrix(1 0 0 1 237.1426 341.5566)"><tspan x="0" y="0" font-size="7">Laterality</tspan><tspan x="1.758" y="8.4" font-size="7">(CODE)</tspan></text>
		</g>
		<g>
			<g>
				
					<line fill="none" stroke="#005695" stroke-linecap="round" stroke-miterlimit="1" x1="251.58" y1="268.322" x2="251.58" y2="282.975"/>
				<path fill="#005695" d="M252.604,285.336c0.5-1.652,0.959-2.729,1.492-4.055h-5.045c0.226,0.475,0.993,2.402,1.491,4.055
					c0.535,1.77,0.9,3.375,1.031,4.414C251.705,288.711,252.07,287.105,252.604,285.336z"/>
			</g>
		</g>
		
			<polygon fill="#CCDEF0" stroke="#010101" stroke-width="0.75" stroke-linecap="round" stroke-linejoin="round" stroke-miterlimit="1" points="
			201.843,301.574 251.3,288.396 300.843,302 300.843,302.031 251.248,315.396 		"/>
		<text transform="matrix(1 0 0 1 244.1479 297.8398)"><tspan x="0" y="0" font-size="7">HAS</tspan><tspan x="-15.363" y="8.4" font-size="7">PROPERTIES</tspan></text>
		<g>
			<g>
				
					<line fill="none" stroke="#005695" stroke-linecap="round" stroke-miterlimit="1" x1="198.917" y1="58.05" x2="198.917" y2="88.143"/>
				<path fill="#005695" d="M199.942,90.505c0.499-1.654,0.96-2.729,1.491-4.055h-5.044c0.226,0.475,0.993,2.4,1.491,4.055
					c0.535,1.77,0.9,3.373,1.031,4.414C199.042,93.878,199.408,92.275,199.942,90.505z"/>
			</g>
		</g>
		
			<line fill="none" stroke="#005695" stroke-linecap="round" stroke-miterlimit="1" stroke-dasharray="4" x1="198.917" y1="11.582" x2="198.917" y2="31.895"/>
		
			<rect x="144.916" y="31.05" fill="#86B2D8" stroke="#010101" stroke-width="0.75" stroke-linecap="round" stroke-linejoin="round" stroke-miterlimit="1" width="108.001" height="27"/>
		<g>
			<text transform="matrix(1 0 0 1 175.377 38.0957)"><tspan x="0" y="0" font-size="7">Breast Imaging</tspan><tspan x="-7.979" y="8.4" font-size="7">Procedure Reported</tspan><tspan x="11.096" y="16.8" font-size="7">(CODE)</tspan></text>
		</g>
	</g>
</g>
</svg>
