<?xml version="1.0" encoding="utf-8"?>
<!-- $Source: /home/bbennett/pass/archive/DicomXml/docbook/part17/figures/PS3.17_E.3-7.svg,v $ -->
<!-- $Date: 2014/05/09 12:30:20 $ -->
<!-- $Revision: 1.2 $ -->

<!DOCTYPE svg PUBLIC "-//W3C//DTD SVG 1.1//EN" "http://www.w3.org/Graphics/SVG/1.1/DTD/svg11.dtd">
<svg version="1.1" id="Layer_1" xmlns="http://www.w3.org/2000/svg" xmlns:xlink="http://www.w3.org/1999/xlink" x="0px" y="0px"
	 width="502px" height="262px" viewBox="0 0 502 262" enable-background="new 0 0 502 262" xml:space="preserve">

<defs>
	<style type="text/css">
	text {
	  font-family: Helvetica, Verdana, ArialUnicodeMS, san-serif
	}
	</style>
</defs>

<g>
   <desc>
	PS 3.17 Part 17: Explanatory Information
   </desc>
</g>

<g>
	<rect x="1" y="1" fill="#F5EED6" width="500" height="260"/>
	<g>
		<rect x="322.82" y="221.741" fill="#FFFFFF" stroke="#000000" stroke-miterlimit="1" width="145.332" height="22.678"/>
		<line fill="#FFFFFF" stroke="#000000" stroke-miterlimit="1" x1="322.82" y1="233.079" x2="468.152" y2="233.079"/>
		
			<polygon fill="#CCDEF0" stroke="#010101" stroke-width="0.75" stroke-linecap="round" stroke-linejoin="round" stroke-miterlimit="1" points="
			33.849,96.995 83.309,83.82 132.855,97.42 132.855,97.452 83.255,110.816 		"/>
		<g>
			<text transform="matrix(1 0.0022 -0.0022 1 48.9292 99.688)" font-size="7">HAS CONCEPT MOD</text>
		</g>
		<g>
			<g>
				
					<line fill="none" stroke="#005695" stroke-linecap="round" stroke-miterlimit="1" x1="83.561" y1="110.816" x2="83.561" y2="117.71"/>
				<path fill="#005695" d="M84.585,120.072c0.5-1.653,0.959-2.728,1.492-4.054h-5.044c0.226,0.475,0.993,2.401,1.492,4.054
					c0.535,1.77,0.9,3.374,1.031,4.415C83.686,123.446,84.051,121.842,84.585,120.072z"/>
			</g>
		</g>
		
			<rect x="34.061" y="124.892" fill="#B2CEE7" stroke="#010101" stroke-width="0.75" stroke-linecap="round" stroke-linejoin="round" stroke-miterlimit="1" width="99.002" height="27"/>
		<g>
			<text transform="matrix(1 0 0 1 48.9487 136.1387)"><tspan x="0" y="0" font-size="7">RENDERING INTENT</tspan><tspan x="-12.272" y="8.399" font-size="7">CODE: Presentation Required</tspan></text>
		</g>
		<g>
			<g>
				
					<line fill="none" stroke="#005695" stroke-linecap="round" stroke-miterlimit="1" x1="188.547" y1="109.784" x2="188.547" y2="118.422"/>
				<path fill="#005695" d="M189.572,120.784c0.5-1.653,0.959-2.728,1.492-4.054h-5.044c0.226,0.475,0.993,2.401,1.492,4.054
					c0.535,1.77,0.9,3.374,1.031,4.415C188.672,124.158,189.038,122.554,189.572,120.784z"/>
			</g>
		</g>
		<g>
			<g>
				<polyline fill="none" stroke="#005695" stroke-linecap="round" stroke-miterlimit="1" points="293.096,66.346 188.223,66.346 
					188.223,77.402 				"/>
				<path fill="#005695" d="M189.248,79.764c0.5-1.653,0.959-2.728,1.492-4.054h-5.044c0.226,0.475,0.993,2.401,1.492,4.054
					c0.535,1.77,0.9,3.374,1.031,4.415C188.348,83.138,188.714,81.533,189.248,79.764z"/>
			</g>
		</g>
		
			<rect x="139.754" y="124.9" fill="#B2CEE7" stroke="#010101" stroke-width="0.75" stroke-linecap="round" stroke-linejoin="round" stroke-miterlimit="1" width="97.581" height="26.984"/>
		<g>
			<text transform="matrix(1 0 0 1 174.1543 136.1387)"><tspan x="0" y="0" font-size="7">CENTER</tspan><tspan x="-0.972" y="8.399" font-size="7">SCOORD</tspan></text>
		</g>
		<g>
			<g>
				
					<line fill="none" stroke="#005695" stroke-linecap="round" stroke-miterlimit="1" x1="292.787" y1="66.345" x2="292.787" y2="77.62"/>
				<path fill="#005695" d="M293.812,79.981c0.499-1.653,0.959-2.728,1.491-4.054h-5.044c0.225,0.475,0.992,2.401,1.491,4.054
					c0.534,1.77,0.9,3.374,1.03,4.415C292.912,83.355,293.277,81.751,293.812,79.981z"/>
			</g>
		</g>
		
			<polygon fill="#CCDEF0" stroke="#010101" stroke-width="0.75" stroke-linecap="round" stroke-linejoin="round" stroke-miterlimit="1" points="
			143.548,96.867 188.508,83.698 233.547,97.292 233.547,97.323 188.458,110.677 		"/>
		<text transform="matrix(1 0 0 1 157.8188 99.1313)" font-size="7">HAS PROPERTIES</text>
		<g>
			<g>
				
					<line fill="none" stroke="#005695" stroke-linecap="round" stroke-miterlimit="1" x1="293.098" y1="109.784" x2="293.098" y2="118.422"/>
				<path fill="#005695" d="M294.123,120.784c0.499-1.653,0.959-2.728,1.491-4.054h-5.044c0.225,0.475,0.992,2.401,1.491,4.054
					c0.534,1.77,0.9,3.374,1.03,4.415C293.223,124.158,293.588,122.554,294.123,120.784z"/>
			</g>
		</g>
		
			<rect x="244.301" y="124.9" fill="#B2CEE7" stroke="#010101" stroke-width="0.75" stroke-linecap="round" stroke-linejoin="round" stroke-miterlimit="1" width="97.58" height="26.984"/>
		<g>
			<text transform="matrix(1 0 0 1 277.9219 136.1387)"><tspan x="0" y="0" font-size="7">OUTLINE</tspan><tspan x="-0.193" y="8.399" font-size="7">SCOORD</tspan></text>
		</g>
		
			<polygon fill="#CCDEF0" stroke="#010101" stroke-width="0.75" stroke-linecap="round" stroke-linejoin="round" stroke-miterlimit="1" points="
			248.098,96.867 293.059,83.698 338.098,97.292 338.098,97.323 293.01,110.677 		"/>
		<text transform="matrix(1 0 0 1 262.3682 99.1313)" font-size="7">HAS PROPERTIES</text>
		<g>
			<g>
				
					<line fill="none" stroke="#005695" stroke-linecap="round" stroke-miterlimit="1" x1="188.223" y1="151.884" x2="188.223" y2="162.938"/>
				<path fill="#005695" d="M189.248,165.301c0.5-1.654,0.959-2.729,1.492-4.055h-5.044c0.226,0.475,0.993,2.4,1.492,4.055
					c0.535,1.77,0.9,3.373,1.031,4.414C188.348,168.674,188.714,167.07,189.248,165.301z"/>
			</g>
		</g>
		<g>
			<g>
				
					<line fill="none" stroke="#005695" stroke-linecap="round" stroke-miterlimit="1" x1="293.096" y1="151.884" x2="293.096" y2="162.938"/>
				<path fill="#005695" d="M294.121,165.301c0.499-1.654,0.959-2.729,1.491-4.055h-5.044c0.225,0.475,0.992,2.4,1.491,4.055
					c0.534,1.77,0.9,3.373,1.03,4.414C293.221,168.674,293.586,167.07,294.121,165.301z"/>
			</g>
		</g>
		
			<rect x="191.965" y="217.636" fill="#B2CEE7" stroke="#010101" stroke-width="0.75" stroke-linecap="round" stroke-linejoin="round" stroke-miterlimit="1" width="97.58" height="26.984"/>
		<g>
			<text transform="matrix(1 0 0 1 210.0151 224.6758)"><tspan x="0" y="0" font-size="7">Reference to Image</tspan><tspan x="7.79" y="8.4" font-size="7">Library IMAGE</tspan><tspan x="2.917" y="16.8" font-size="7">content item 1.1.2</tspan></text>
		</g>
		<g>
			<g>
				
					<line fill="none" stroke="#005695" stroke-linecap="round" stroke-miterlimit="1" x1="395.486" y1="82.797" x2="395.486" y2="215.263"/>
				<path fill="#005695" d="M396.512,217.625c0.499-1.654,0.959-2.729,1.491-4.055h-5.044c0.225,0.475,0.992,2.4,1.491,4.055
					c0.534,1.77,0.9,3.373,1.03,4.414C395.611,220.998,395.977,219.395,396.512,217.625z"/>
			</g>
		</g>
		
			<polygon fill="#CCDEF0" stroke="#010101" stroke-width="0.75" stroke-linecap="round" stroke-linejoin="round" stroke-miterlimit="1" points="
			350.486,97.242 395.449,84.069 440.486,97.667 440.486,97.698 395.396,111.052 		"/>
		<text transform="matrix(1 0 0 1 364.7568 99.4907)" font-size="7">HAS PROPERTIES</text>
		<g>
			<g>
				<polyline fill="none" stroke="#005695" stroke-linecap="round" stroke-miterlimit="1" points="188.223,66.346 83.521,66.346 
					83.521,77.402 				"/>
				<path fill="#005695" d="M84.545,79.764c0.5-1.653,0.959-2.728,1.492-4.054h-5.044c0.226,0.475,0.993,2.401,1.492,4.054
					c0.535,1.77,0.9,3.374,1.031,4.415C83.646,83.138,84.011,81.533,84.545,79.764z"/>
			</g>
		</g>
		<g>
			<g>
				<polyline fill="none" stroke="#005695" stroke-linecap="round" stroke-miterlimit="1" points="292.799,66.346 395.83,66.346 
					395.83,77.772 				"/>
				<path fill="#005695" d="M396.855,80.134c0.499-1.653,0.959-2.728,1.491-4.054h-5.044c0.225,0.475,0.992,2.401,1.491,4.054
					c0.534,1.77,0.9,3.374,1.03,4.415C395.955,83.508,396.32,81.903,396.855,80.134z"/>
			</g>
		</g>
		
			<rect x="181.084" y="17.38" fill="#86B2D8" stroke="#010101" stroke-width="0.75" stroke-linecap="round" stroke-linejoin="round" stroke-miterlimit="1" width="117.007" height="36.001"/>
		<g>
			<text transform="matrix(1 0 0 1 193.3594 28.0054)"><tspan x="0" y="0" font-size="8">SINGLE IMAGE FINDING</tspan><tspan x="19.111" y="9.6" font-size="8">CODE: Density</tspan><tspan x="30.66" y="19.2" font-size="8">1.2.1.2.6</tspan></text>
		</g>
		<rect x="324.369" y="224.845" fill="none" width="142.232" height="19.578"/>
		<text transform="matrix(0.9288 0 0 1 324.3691 230.5654)"><tspan x="0" y="0" font-size="8">Algorithm Name TEXT: “Density Detector”</tspan><tspan x="0" y="11.001" font-size="8">Algorithm Version TEXT: “V3.7”</tspan></text>
		
			<line fill="none" stroke="#005695" stroke-linecap="round" stroke-miterlimit="1" x1="239.588" y1="53.381" x2="239.588" y2="66.345"/>
		<g>
			<g>
				<polyline fill="none" stroke="#005695" stroke-linecap="round" stroke-miterlimit="1" points="292.959,194.618 292.959,204.399 
					240.915,204.399 240.915,209.927 				"/>
				<path fill="#005695" d="M241.939,212.289c0.5-1.654,0.959-2.729,1.492-4.055h-5.044c0.226,0.475,0.993,2.4,1.492,4.055
					c0.535,1.77,0.9,3.373,1.031,4.414C241.04,215.662,241.405,214.059,241.939,212.289z"/>
			</g>
		</g>
		<path fill="none" stroke="#005695" stroke-linecap="round" stroke-miterlimit="1" d="M240.915,204.399h-52.363
			c0,0,0.002-2.936,0.002-9.781"/>
		
			<polygon fill="#CCDEF0" stroke="#010101" stroke-width="0.75" stroke-linecap="round" stroke-linejoin="round" stroke-miterlimit="1" points="
			143.224,182.403 188.184,169.235 233.223,182.829 233.223,182.86 188.133,196.214 		"/>
		<text transform="matrix(1 0 0 1 166.0532 182.1484)"><tspan x="0" y="0" font-size="7">R-SELECTED</tspan><tspan x="11.867" y="8.4" font-size="7">FROM</tspan></text>
		
			<polygon fill="#CCDEF0" stroke="#010101" stroke-width="0.75" stroke-linecap="round" stroke-linejoin="round" stroke-miterlimit="1" points="
			248.094,182.403 293.057,169.235 338.096,182.829 338.096,182.86 293.006,196.214 		"/>
		<text transform="matrix(1 0 0 1 270.9238 182.1484)"><tspan x="0" y="0" font-size="7">R-SELECTED</tspan><tspan x="11.867" y="8.4" font-size="7">FROM</tspan></text>
	</g>
</g>
</svg>
