<?xml version="1.0" encoding="utf-8"?>
<!-- $Source: /home/bbennett/pass/archive/DicomXml/docbook/part17/figures/PS3.17_A-6.svg,v $ -->
<!-- $Date: 2014/05/09 12:31:57 $ -->
<!-- $Revision: 1.2 $ -->

<!DOCTYPE svg PUBLIC "-//W3C//DTD SVG 1.1//EN" "http://www.w3.org/Graphics/SVG/1.1/DTD/svg11.dtd">
<svg version="1.1" id="Layer_1" xmlns="http://www.w3.org/2000/svg" xmlns:xlink="http://www.w3.org/1999/xlink" x="0px" y="0px"
	 width="502px" height="617px" viewBox="0 0 502 617" enable-background="new 0 0 502 617" xml:space="preserve">

<defs>
	<style type="text/css">
	text {
	  font-family: Helvetica, Verdana, ArialUnicodeMS, san-serif
	}
	</style>
</defs>

<g>
   <desc>
	PS 3.17 Part 17: Explanatory Information
   </desc>
</g>

<g>
	<rect x="1" y="1" fill="#F5EED6" width="500" height="615"/>
	<g>
		<rect x="264.259" y="14.253" fill-rule="evenodd" clip-rule="evenodd" fill="#FFFFFF" width="215" height="584.8"/>
		<g>
			<polygon fill-rule="evenodd" clip-rule="evenodd" points="212.057,304.601 211.66,303.615 211.072,302.628 210.479,301.838 
				209.885,300.852 209.295,299.865 208.701,299.077 208.307,297.89 208.307,296.707 207.91,295.326 207.715,293.944 
				207.518,292.563 207.322,291.377 207.123,289.996 206.926,288.616 206.529,287.234 206.332,286.049 205.938,284.668 
				205.741,283.286 205.347,282.103 205.15,280.72 204.754,279.536 204.359,278.155 203.768,276.97 203.57,275.984 203.176,274.997 
				202.977,274.01 202.584,273.023 202.188,272.036 201.991,271.049 201.597,270.063 201.203,269.077 201.006,268.09 
				200.609,267.103 200.412,265.919 200.214,264.932 199.82,263.945 199.623,262.958 199.428,261.971 199.428,260.787 
				199.623,259.208 199.82,257.63 199.82,256.249 199.82,254.668 200.018,253.09 199.82,251.51 199.82,249.932 199.623,248.55 
				199.428,246.971 199.229,245.393 199.031,244.011 198.637,242.432 198.438,241.05 198.043,239.472 197.453,238.09 
				197.057,236.708 196.465,235.327 195.676,233.946 194.688,232.564 193.703,231.381 192.715,230.196 191.729,229.011 
				190.544,228.025 189.359,227.038 187.98,226.051 186.794,225.262 185.413,224.472 184.031,223.683 182.65,223.09 181.27,222.3 
				179.689,221.907 178.307,221.315 176.729,220.92 174.952,220.328 173.373,219.934 171.794,219.34 170.214,218.75 
				168.636,217.959 167.056,217.368 165.478,216.776 164.096,215.986 162.517,215.197 161.136,214.209 159.556,213.421 
				158.175,212.433 156.793,211.447 155.41,210.46 154.028,209.275 153.437,209.079 152.845,208.881 152.252,208.487 
				151.662,208.091 151.068,207.895 150.674,207.499 150.082,207.302 149.489,206.909 148.897,206.513 148.502,206.118 
				147.911,205.92 147.318,205.526 146.726,205.328 146.133,204.934 145.541,204.737 144.949,204.539 143.961,204.145 
				142.975,203.355 141.988,202.565 141.199,201.776 140.409,200.79 140.015,199.802 139.621,198.618 139.423,197.435 
				139.225,196.645 139.225,195.854 139.225,195.065 139.423,194.276 139.423,193.486 139.423,192.696 139.225,191.908 
				139.027,191.314 137.844,191.513 136.857,191.513 135.87,191.513 134.883,191.513 133.896,191.513 132.909,191.513 
				131.923,191.513 130.935,191.513 129.949,191.513 128.764,191.513 127.777,191.513 126.791,191.513 125.607,191.513 
				124.62,191.711 123.436,191.711 122.449,191.711 121.462,191.908 120.475,191.908 119.686,192.104 118.7,192.104 
				117.711,192.104 116.923,192.104 116.133,192.104 115.147,192.104 114.16,191.908 113.371,191.908 112.582,191.711 
				111.595,191.711 110.804,191.513 110.015,191.314 109.028,191.117 108.239,190.921 107.647,190.921 107.055,190.921 
				106.265,190.921 105.673,190.921 105.082,190.921 104.292,191.117 103.7,191.314 103.108,191.711 102.91,192.5 102.713,193.289 
				102.713,194.078 102.713,194.867 102.515,195.658 102.318,196.448 102.318,197.237 102.122,198.026 101.924,198.815 
				101.924,199.408 101.528,200.198 101.332,200.986 101.134,201.579 100.739,202.171 100.345,202.96 99.752,203.355 98.173,204.34 
				96.595,205.131 95.015,206.118 93.239,206.909 91.661,207.697 90.082,208.487 88.305,209.473 86.726,210.262 85.148,211.051 
				83.372,211.841 81.792,212.828 80.213,213.618 78.438,214.408 76.859,215.394 75.279,216.184 73.701,217.17 71.924,217.762 
				70.148,218.354 68.372,218.75 66.595,219.34 64.819,219.934 63.043,220.525 61.267,221.315 59.491,221.907 57.913,222.894 
				56.332,223.881 54.754,224.868 53.373,226.051 51.991,227.235 50.807,228.814 49.819,230.394 48.833,232.169 48.044,233.749 
				47.254,235.524 46.663,237.3 46.07,239.077 45.676,240.854 45.478,242.63 45.28,244.407 45.28,246.38 45.28,248.354 
				45.28,250.13 45.28,252.103 45.28,254.077 45.478,255.854 45.478,257.827 45.478,259.799 45.478,261.773 44.886,262.761 
				44.294,263.945 43.702,265.128 43.307,266.117 42.715,267.299 42.32,268.484 41.925,269.668 41.53,270.853 41.136,272.036 
				40.741,273.22 40.346,274.406 40.15,275.59 39.755,276.772 39.557,278.155 39.163,279.34 38.965,280.523 38.767,281.707 
				38.57,283.088 38.373,284.273 38.177,285.655 37.979,286.839 37.781,288.022 37.781,289.405 37.583,290.589 37.583,291.97 
				37.386,293.154 37.189,294.339 37.189,295.72 37.189,296.905 37.189,298.286 36.991,299.47 36.991,300.852 32.254,308.549 
				32.254,309.93 37.583,311.113 38.373,311.508 39.163,311.707 39.755,311.904 40.543,312.102 41.333,312.496 41.925,312.691 
				42.715,312.891 43.504,313.088 44.294,313.285 44.886,313.68 45.676,313.879 46.465,314.074 47.056,314.469 47.846,314.863 
				48.439,315.062 49.228,315.457 49.819,315.654 50.412,315.852 51.004,316.049 51.596,316.244 52.188,316.443 52.781,316.838 
				53.373,317.035 53.965,317.43 54.557,317.627 55.149,317.824 55.939,318.021 56.332,318.021 57.123,318.219 57.715,318.219 
				58.306,318.021 59.096,318.021 59.096,316.049 59.293,314.074 59.688,312.299 60.082,310.521 60.675,308.944 61.267,307.365 
				62.056,305.786 62.846,304.009 63.636,302.628 64.426,301.049 65.214,299.47 66.201,297.89 66.99,296.312 67.583,294.536 
				68.372,292.957 68.964,291.181 69.359,291.576 69.556,293.352 69.753,294.93 69.95,296.508 70.148,298.088 70.345,299.667 
				70.542,301.443 70.938,303.022 71.135,304.601 71.529,306.179 71.727,307.758 72.123,309.338 72.319,310.916 72.715,312.496 
				73.109,314.271 73.305,315.852 73.701,317.43 74.095,318.219 74.293,319.008 74.688,319.799 74.885,320.588 75.082,321.377 
				75.279,322.363 75.477,323.152 75.675,323.941 75.873,324.73 76.068,325.521 76.068,326.508 76.266,327.297 76.463,328.086 
				76.661,328.875 76.859,329.664 77.253,330.65 77.253,332.229 77.253,333.809 77.055,335.387 76.859,336.77 76.463,338.348 
				76.266,339.926 75.873,341.309 75.477,342.887 75.279,344.268 74.885,345.846 74.49,347.424 74.293,349.004 74.095,350.582 
				74.095,352.16 74.095,353.74 74.293,355.516 76.068,355.516 77.845,355.516 79.622,355.516 81.397,355.516 83.174,355.713 
				84.752,355.713 86.528,355.713 88.305,355.713 90.082,355.713 91.858,355.91 93.635,355.91 95.213,355.91 96.989,356.107 
				98.766,356.107 100.345,356.107 102.122,356.307 103.898,356.307 105.673,356.307 107.449,356.504 109.028,356.504 
				110.804,356.504 112.582,356.504 114.16,356.504 115.936,356.504 117.711,356.504 119.291,356.699 121.068,356.699 
				122.646,356.504 124.422,356.504 126.199,356.504 127.777,356.504 129.554,356.504 130.935,356.504 132.318,356.699 
				133.698,356.699 134.883,356.896 136.264,356.896 137.646,356.896 139.027,356.896 140.409,356.896 141.791,357.094 
				143.173,357.094 144.554,357.094 145.936,356.896 147.318,356.896 148.7,356.896 150.082,356.896 151.464,356.896 
				153.042,356.896 154.227,356.896 155.805,356.896 157.187,356.699 158.569,356.699 159.951,356.699 161.332,356.699 
				162.715,356.699 164.096,356.699 165.478,356.504 166.859,356.504 168.242,356.504 169.623,356.504 171.005,356.504 
				172.387,356.699 173.768,356.699 173.967,356.107 173.967,355.91 173.967,355.516 173.569,355.121 173.768,354.133 
				173.768,353.148 173.967,352.16 173.967,350.977 173.967,349.99 173.967,349.004 173.768,348.018 173.768,347.031 
				173.569,346.043 173.373,345.057 173.176,344.07 172.781,343.084 172.584,342.098 172.189,341.109 171.794,340.32 171.4,339.334 
				170.807,338.545 170.412,337.559 170.018,336.572 169.82,335.586 169.623,334.598 169.623,333.611 169.623,332.426 
				169.623,331.439 169.82,330.453 170.018,329.271 170.214,328.285 170.412,327.1 170.609,326.113 170.807,325.127 
				171.005,324.139 171.4,323.152 171.794,321.18 172.189,319.205 172.584,317.232 172.979,315.258 173.373,313.285 
				173.768,311.312 174.164,309.338 174.559,307.365 174.754,305.391 175.15,303.417 175.347,301.443 175.545,299.47 
				175.742,297.496 175.94,295.522 176.137,293.352 176.334,291.181 176.729,290.786 177.32,292.167 178.109,293.747 
				178.703,295.326 179.492,296.707 180.083,298.286 180.873,299.865 181.465,301.245 182.057,302.825 182.65,304.207 
				183.241,305.786 183.834,307.365 184.229,308.944 184.428,310.521 184.819,312.299 185.018,313.879 185.018,315.654 
				185.018,315.852 185.216,316.244 185.216,316.443 185.216,316.838 185.413,317.035 185.609,317.035 185.809,317.232 
				186.203,317.035 186.794,316.641 187.584,316.443 188.176,316.049 188.768,315.654 189.559,315.457 190.15,315.062 
				190.939,314.863 191.531,314.469 192.32,314.271 192.914,314.074 193.703,313.68 194.295,313.482 195.082,313.285 
				195.873,313.285 196.465,313.088 197.254,313.088 198.24,312.691 199.229,312.299 200.214,311.904 201.006,311.508 
				202.188,311.113 202.977,310.719 203.965,310.326 204.951,309.93 205.938,309.535 206.926,309.141 207.91,308.549 
				208.701,308.154 209.688,307.562 210.676,306.969 211.463,306.377 212.254,305.786 			"/>
			<polygon fill-rule="evenodd" clip-rule="evenodd" fill="#86B2D8" points="210.279,305.786 209.295,306.377 208.307,306.969 
				207.322,307.562 206.332,308.154 205.347,308.549 204.359,309.141 203.176,309.535 202.188,309.93 201.006,310.326 
				200.018,310.719 198.834,311.113 197.848,311.312 196.662,311.707 195.479,312.102 194.492,312.299 193.504,312.891 
				192.32,313.285 191.334,313.482 190.347,313.879 189.164,314.271 188.176,314.666 187.189,315.062 186.203,315.654 
				186.203,313.482 186.006,311.508 185.609,309.535 185.216,307.562 184.623,305.589 183.834,303.813 183.241,301.838 
				182.453,300.063 181.465,298.286 180.677,296.508 179.887,294.732 179.098,292.759 178.307,290.983 177.717,289.009 
				177.123,287.234 176.531,285.259 176.137,284.077 175.94,282.892 175.545,281.509 175.347,280.128 175.15,278.945 
				174.952,277.563 174.952,276.181 174.952,274.799 174.952,273.417 175.15,272.036 175.347,270.656 175.742,269.471 
				176.137,268.286 176.531,267.103 177.32,265.919 178.109,264.932 177.717,264.537 177.123,265.128 176.729,265.721 
				176.137,266.313 175.742,267.103 175.347,267.695 174.952,268.484 174.559,269.077 174.164,269.867 173.768,270.458 
				173.176,271.049 172.781,271.642 172.189,272.234 171.596,272.827 171.005,273.417 170.214,273.813 169.426,274.208 
				168.832,274.406 168.242,274.799 167.649,274.997 166.859,275.194 166.07,275.392 165.478,275.59 164.885,275.787 
				164.096,275.984 164.491,276.576 165.083,276.772 165.675,276.772 166.268,276.576 166.859,276.379 167.649,276.181 
				168.242,276.181 169.029,276.379 169.029,275.787 169.229,275.59 169.623,275.392 170.018,275.194 170.412,275.194 
				170.807,275.392 171.4,275.392 171.794,275.392 171.991,275.392 172.189,275.194 172.189,274.603 171.991,274.406 
				171.596,274.208 171.203,274.208 171.4,273.813 171.596,273.813 171.794,273.813 172.189,274.01 172.387,274.208 
				172.584,274.208 172.979,274.406 173.176,274.406 173.373,275.194 173.569,275.984 173.768,276.772 173.768,277.563 
				173.768,278.352 173.768,279.142 173.569,279.93 173.373,280.72 173.176,281.509 172.979,282.103 172.584,282.892 
				172.189,283.681 171.794,284.273 171.4,284.865 171.005,285.655 170.412,286.247 170.609,286.443 170.807,286.443 
				171.203,286.247 171.4,286.049 171.794,285.655 171.991,285.063 172.387,284.47 172.584,283.878 172.979,283.483 
				173.373,283.286 173.967,283.286 174.754,283.681 174.952,284.273 175.15,284.865 175.347,285.259 175.545,285.853 
				175.545,286.443 175.545,287.036 175.545,287.628 175.545,288.219 175.347,288.813 175.347,289.405 175.15,289.996 
				174.952,290.589 174.952,291.181 174.754,291.772 174.559,292.366 174.559,292.957 174.164,293.549 173.768,294.339 
				173.373,294.93 172.979,295.522 172.387,296.115 171.794,296.707 171.4,297.299 171.005,297.89 171.4,298.286 171.794,297.89 
				172.189,297.496 172.781,297.102 173.176,296.707 173.373,296.312 173.768,295.917 174.164,295.326 174.36,294.93 
				174.559,295.917 174.559,297.102 174.559,298.088 174.559,299.077 174.559,300.259 174.559,301.443 174.36,302.43 
				174.164,303.615 173.967,304.601 173.768,305.786 173.569,306.772 173.373,307.758 173.176,308.944 172.979,309.93 
				172.979,311.113 172.781,312.102 172.584,313.285 172.387,314.666 172.189,315.852 171.794,317.035 171.596,318.219 
				171.4,319.402 171.005,320.588 170.807,321.771 170.412,322.955 170.214,324.139 169.82,325.324 169.623,326.508 
				169.426,327.691 169.029,329.074 168.832,330.256 168.636,331.639 168.636,332.822 168.832,334.006 169.029,335.191 
				169.229,336.375 169.623,337.361 170.018,338.545 170.609,339.729 171.005,340.715 171.4,341.898 171.794,343.084 
				172.189,344.268 172.584,345.451 172.781,346.637 172.979,348.018 173.176,349.201 172.979,350.582 172.781,355.121 
				171.991,355.121 171.203,355.318 170.214,355.318 169.426,355.318 168.636,355.318 167.846,355.318 167.056,355.318 
				166.268,355.318 163.306,355.318 160.542,355.516 157.779,355.516 155.016,355.713 152.054,355.713 149.291,355.713 
				146.528,355.713 143.568,355.713 140.804,355.713 138.041,355.713 135.081,355.713 132.318,355.713 129.356,355.516 
				126.594,355.516 123.634,355.516 120.87,355.318 118.107,355.318 115.147,355.318 112.384,355.121 109.423,355.121 
				106.66,354.924 103.898,354.924 100.937,354.727 98.173,354.727 95.213,354.529 92.451,354.529 89.687,354.529 86.726,354.529 
				83.964,354.332 81.201,354.332 78.438,354.332 75.477,354.133 75.477,353.148 75.477,351.963 75.477,350.977 75.477,349.795 
				75.477,348.807 75.675,347.621 75.675,346.438 75.873,345.451 76.068,344.268 76.266,343.281 76.661,342.295 76.859,341.109 
				77.253,340.125 77.649,339.137 78.239,338.15 78.832,337.361 78.832,335.586 78.832,333.809 78.635,332.229 78.438,330.65 
				78.042,328.875 77.845,327.297 77.253,325.717 76.859,324.139 76.463,322.561 75.873,321.18 75.477,319.602 74.885,318.021 
				74.49,316.443 74.095,314.863 73.701,313.285 73.503,311.508 73.305,310.521 73.109,309.338 72.912,308.154 72.715,306.969 
				72.517,305.983 72.319,304.799 72.123,303.615 71.924,302.628 71.727,301.443 71.529,300.259 71.332,299.077 71.332,297.89 
				71.135,296.707 70.938,295.72 70.938,294.536 70.938,293.352 71.135,293.944 71.529,294.339 71.924,295.128 72.517,295.522 
				72.912,296.312 73.305,296.707 73.701,297.496 74.293,297.89 74.688,298.68 75.279,299.077 75.675,299.667 76.266,300.259 
				76.859,300.852 77.253,301.443 77.845,301.838 78.438,302.43 78.832,302.036 77.845,301.049 77.055,300.063 76.068,299.077 
				75.477,298.088 74.688,297.102 74.095,296.115 73.503,294.93 73.109,293.944 72.912,293.549 72.715,293.154 72.319,292.759 
				72.123,292.366 71.727,292.167 71.727,291.772 71.727,291.377 72.123,291.181 72.319,290.983 72.517,290.786 72.517,290.589 
				72.517,290.391 72.319,289.996 71.924,289.996 71.332,289.996 71.135,290.194 70.938,289.602 70.938,289.208 70.938,288.813 
				70.938,288.417 71.135,288.022 71.332,287.827 71.727,287.628 72.319,287.431 72.517,287.234 72.715,287.234 72.715,286.839 
				72.715,286.641 72.517,286.443 72.123,286.443 71.727,286.443 71.529,286.443 71.135,286.641 70.938,286.839 70.542,287.036 
				70.345,287.036 70.345,286.641 70.542,286.247 70.741,286.049 71.135,285.853 71.332,285.655 71.727,285.458 72.123,285.458 
				72.517,285.259 72.912,286.049 73.503,286.641 74.095,287.234 74.49,288.022 75.082,288.616 75.477,289.208 76.068,289.799 
				76.661,290.391 77.253,290.983 77.649,291.576 78.239,292.167 78.832,292.759 79.424,293.352 80.016,293.944 80.412,294.536 
				81.002,295.128 81.002,294.536 80.213,293.549 79.424,292.759 78.832,291.772 78.042,290.786 77.253,289.996 76.661,289.009 
				75.873,288.022 75.279,287.036 74.688,286.049 74.095,285.063 73.701,284.077 73.109,283.088 72.715,281.905 72.517,280.918 
				72.123,279.734 71.924,278.549 72.319,278.352 72.715,278.155 72.912,277.759 72.912,277.366 72.715,277.366 72.517,277.168 
				72.319,276.97 72.319,276.576 72.319,276.379 72.319,276.181 72.517,275.787 72.517,275.59 72.912,275.59 73.305,275.392 
				73.701,275.194 73.898,274.997 73.898,274.603 73.701,274.406 73.503,274.208 73.305,274.208 73.109,274.406 72.912,274.406 
				72.715,274.406 72.715,273.813 72.715,273.417 72.912,273.22 73.305,273.023 73.701,272.827 74.095,272.629 74.293,272.629 
				74.49,272.234 75.477,273.023 76.266,273.813 77.253,274.603 78.239,275.194 79.424,275.787 80.412,276.181 81.595,276.576 
				82.779,276.772 82.977,276.576 83.174,276.379 83.174,275.984 82.977,275.787 81.792,275.59 80.806,275.194 79.818,274.799 
				79.029,274.208 78.239,273.616 77.649,273.023 76.859,272.234 76.266,271.445 75.675,270.656 75.279,269.668 74.688,268.681 
				74.095,267.892 73.701,266.905 73.109,266.117 72.517,265.128 71.924,264.34 71.727,263.747 71.529,263.156 71.135,262.563 
				70.542,261.971 70.148,261.577 69.556,260.985 68.964,260.59 68.372,259.998 68.175,260.195 68.175,260.392 67.977,260.787 
				67.977,260.985 69.162,262.168 70.148,263.354 70.741,264.734 71.332,265.919 71.727,267.299 71.924,268.681 72.123,270.063 
				71.924,271.445 71.924,273.023 71.727,274.406 71.529,275.787 71.332,277.366 71.135,278.747 70.938,280.327 70.542,281.707 
				70.542,283.286 70.148,284.865 69.753,286.443 69.162,288.022 68.568,289.602 67.977,291.181 67.386,292.563 66.792,294.142 
				66.201,295.522 65.412,297.102 64.623,298.68 64.03,300.063 63.241,301.443 62.452,303.022 61.859,304.404 61.069,305.983 
				60.279,307.365 60.082,307.956 59.886,308.549 59.688,309.141 59.491,309.732 59.491,310.127 59.293,310.916 59.293,311.508 
				59.293,312.102 59.096,312.691 59.096,313.285 59.096,313.879 58.899,314.469 58.899,315.062 58.701,315.654 58.503,316.244 
				58.306,316.838 57.319,316.641 56.53,316.641 55.543,316.443 54.754,316.049 53.767,315.852 52.979,315.457 52.188,315.258 
				51.399,314.863 50.609,314.469 49.623,314.074 48.833,313.68 48.044,313.482 47.056,313.088 46.268,312.891 45.478,312.496 
				44.492,312.299 43.899,312.102 43.11,311.707 42.518,311.508 41.729,311.312 41.136,311.113 40.346,310.916 39.557,310.521 
				38.965,310.326 38.177,310.127 37.583,309.93 36.794,309.732 36.005,309.732 35.413,309.535 34.623,309.338 34.031,309.141 
				33.242,308.944 33.636,308.351 34.031,307.758 34.229,307.167 34.623,306.576 35.018,305.786 35.413,305.193 35.807,304.601 
				36.203,304.009 36.4,303.417 36.794,302.628 37.189,302.036 37.386,301.443 37.583,300.852 37.979,300.063 38.177,299.47 
				38.373,298.68 38.57,298.483 38.965,298.088 39.359,297.694 39.755,297.496 40.15,297.102 40.346,296.707 40.346,296.312 
				39.952,295.72 38.767,296.707 38.373,295.917 38.373,295.326 38.767,294.93 39.359,294.536 39.952,294.142 40.346,293.549 
				40.543,293.154 40.15,292.366 38.767,293.352 38.767,292.759 38.767,292.167 38.767,291.576 38.767,291.181 38.965,290.589 
				39.359,290.194 39.557,289.799 39.952,289.602 40.15,289.208 40.346,289.009 40.346,288.813 40.15,288.417 39.163,288.219 
				39.163,286.443 39.163,284.47 39.163,282.694 39.557,280.918 39.755,279.142 40.346,277.366 40.741,275.787 41.333,274.01 
				41.925,272.432 42.518,270.853 43.307,269.077 43.899,267.498 44.689,265.919 45.28,264.34 45.873,262.761 46.663,260.985 
				46.663,259.799 46.663,258.419 46.663,257.037 46.663,255.656 46.663,254.274 46.465,252.893 46.465,251.51 46.268,250.13 
				46.268,248.748 46.268,247.367 46.268,245.985 46.268,244.604 46.268,243.221 46.268,241.84 46.465,240.458 46.663,239.077 
				47.254,237.696 47.846,236.118 48.439,234.736 49.228,233.354 50.017,231.775 51.004,230.59 51.991,229.209 52.979,228.025 
				54.163,226.84 55.543,225.854 56.727,224.67 58.109,223.881 59.491,223.09 61.069,222.499 62.452,221.907 64.03,221.512 
				66.595,220.92 68.964,220.131 71.332,219.34 73.503,218.354 75.873,217.564 78.042,216.381 80.412,215.197 82.582,214.209 
				84.752,213.026 86.924,211.841 89.095,210.46 91.265,209.275 93.437,208.091 95.609,206.909 97.778,205.723 99.95,204.539 
				100.739,203.948 101.332,203.355 101.726,202.565 102.122,201.974 102.515,201.184 102.91,200.395 103.108,199.604 
				103.304,198.815 103.502,198.026 103.502,197.237 103.7,196.249 103.898,195.46 103.898,194.671 104.095,193.881 
				104.292,192.895 104.292,192.104 105.476,192.104 106.462,192.104 107.647,192.104 108.634,192.302 109.621,192.5 
				110.607,192.696 111.791,192.895 112.777,193.091 113.765,193.289 114.949,193.486 115.936,193.486 116.923,193.685 
				118.107,193.685 119.291,193.685 120.278,193.486 121.462,193.289 138.041,192.895 138.238,193.486 138.437,194.276 
				138.437,195.065 138.437,195.658 138.437,196.448 138.437,197.237 138.633,197.828 138.831,198.618 139.225,200 139.621,201.184 
				140.409,202.171 141.199,203.355 141.988,204.145 142.975,204.934 144.159,205.723 145.147,206.315 146.332,206.909 
				147.713,207.499 148.897,208.091 150.082,208.684 151.266,209.275 152.45,209.868 153.437,210.658 154.622,211.25 
				156.201,212.631 157.779,213.815 159.359,215 161.136,215.986 162.913,216.776 164.689,217.762 166.465,218.551 168.242,219.144 
				170.214,219.934 171.991,220.525 173.967,221.118 175.742,221.907 177.717,222.499 179.689,223.09 181.465,223.881 
				183.439,224.472 185.018,225.262 186.596,226.249 188.176,227.433 189.559,228.618 190.939,229.801 192.32,231.183 
				193.504,232.761 194.492,234.143 195.479,235.919 196.268,237.499 197.057,239.274 197.65,241.05 198.24,242.827 198.637,244.8 
				198.637,246.577 198.637,248.55 198.834,249.538 198.834,250.524 198.637,251.51 198.637,252.498 198.637,253.485 
				198.438,254.472 198.438,255.458 198.24,256.643 198.24,257.63 198.24,258.813 198.24,259.799 198.24,260.787 198.24,261.971 
				198.24,262.958 198.438,263.945 198.637,264.932 199.428,267.103 200.214,269.077 201.006,271.049 201.794,273.22 
				202.584,275.392 203.176,277.366 203.768,279.536 204.359,281.707 204.951,283.878 205.545,286.049 205.938,288.219 
				206.529,290.391 206.926,292.563 207.322,294.732 207.715,297.102 207.91,299.272 208.307,300.063 208.701,300.852 
				209.098,301.443 209.688,302.233 210.279,302.825 210.676,303.615 211.072,304.404 211.268,305.193 			"/>
			<text transform="matrix(1 0 0 1 23.1733 267.8745)" fill="#00AEEF" font-size="12">R</text>
			<text transform="matrix(1 0 0 1 213.9185 267.8745)" fill="#00AEEF" font-size="12">L</text>
			<text transform="matrix(1 0 0 1 117.9219 179.1255)" fill="#0DB14B" font-size="12">H</text>
			<text transform="matrix(1 0 0 1 118.5894 390.3379)" fill="#0DB14B" font-size="12">F</text>
			<g>
				<g>
					
						<line fill="none" stroke="#003468" stroke-width="3" stroke-dasharray="12,6" x1="122.255" y1="182.874" x2="122.255" y2="376.428"/>
				</g>
			</g>
			
				<polygon fill="#FFFFFF" stroke="#4F8ABE" stroke-width="3" stroke-linecap="round" stroke-linejoin="round" stroke-miterlimit="1" points="
				155.195,200.173 155.196,192.335 204.932,192.335 204.933,186.028 226.79,196.451 204.932,206.878 204.932,200.173 			"/>
			<g>
				<g>
					
						<line fill="none" stroke="#003468" stroke-width="3" stroke-dasharray="12,3,3,3" x1="58.007" y1="207.511" x2="171.516" y2="364.291"/>
				</g>
			</g>
			
				<polygon fill="#FFFFFF" stroke="#4F8ABE" stroke-width="3" stroke-linecap="round" stroke-linejoin="round" stroke-miterlimit="1" points="
				181.635,369.648 175.284,374.244 210.639,421.871 205.529,425.568 226.79,437.162 222.418,413.342 216.988,417.273 			"/>
		</g>
		<g>
			<rect x="276.255" y="439.953" fill-rule="evenodd" clip-rule="evenodd" fill="#BCBEC0" width="129.926" height="129.924"/>
			<g id="_x5B_PR_x5D__49_">
				<text transform="matrix(0.9288 0 0 1 420.8496 441.9209)" font-size="8">[FL]</text>
			</g>
			<g id="_x5B_LP_x5D__49_">
				<text transform="matrix(0.9288 0 0 1 275.0273 589.2812)" font-size="8">[P]</text>
			</g>
			
				<rect x="276.255" y="439.953" fill-rule="evenodd" clip-rule="evenodd" fill="#FFFFFF" stroke="#010101" width="8.033" height="8.07"/>
			<g>
				<g>
					<polyline fill="none" stroke="#010101" points="276.255,573.416 276.255,439.953 409.114,439.953 					"/>
					<path fill="#010101" d="M408.095,439.953l-2.191-3.602l0.123-0.082l5.875,2.334c2.047,0.449,4.094,0.9,6.141,1.35
						c-2.047,0.451-4.094,0.9-6.141,1.352l-5.875,2.334l-0.123-0.062L408.095,439.953z"/>
					<path fill="#010101" d="M276.255,572.396l3.604-2.191l0.081,0.123l-2.333,5.875c-0.451,2.047-0.9,4.094-1.352,6.141
						c-0.45-2.047-0.9-4.094-1.352-6.141l-2.333-5.875l0.062-0.123L276.255,572.396z"/>
				</g>
			</g>
			<g>
				<text transform="matrix(1 0 0 1 337.7246 473.0654)" fill="#ED1C24" font-size="12">A</text>
				<text transform="matrix(1 0 0 1 339.0977 538.7832)" fill="#ED1C24" font-size="12">P</text>
				<g>
					<text transform="matrix(1 0 0 1 400.7637 509.2783)" font-size="12">FL</text>
				</g>
				<g>
					<text transform="matrix(1 0 0 1 282.665 509.2783)" font-size="12">HR</text>
				</g>
				<g>
					<text transform="matrix(0.9288 0 0 1 276.1104 429.7031)" font-size="11">Oblique Saggital Plane</text>
				</g>
			</g>
		</g>
		<g>
			<polygon fill-rule="evenodd" clip-rule="evenodd" fill="#010101" stroke="#010101" points="397.446,499.475 397.446,497.314 
				397.446,496.355 397.446,494.436 397.446,492.516 397.446,491.314 397.446,489.395 397.446,488.436 397.446,486.516 
				397.446,485.314 397.446,483.395 397.446,481.475 397.446,480.516 397.446,478.355 396.485,476.436 396.485,475.475 
				396.485,474.516 395.526,473.314 394.565,472.355 393.606,472.355 392.646,472.355 391.446,472.355 389.526,473.314 
				387.606,473.314 386.646,473.314 384.485,473.314 383.526,474.516 381.606,474.516 379.446,474.516 378.485,475.475 
				376.565,475.475 375.606,475.475 373.446,476.436 371.526,476.436 370.565,477.395 368.646,477.395 367.446,478.355 
				365.526,478.355 364.565,479.314 362.646,479.314 361.446,480.516 359.526,480.516 357.606,481.475 356.646,481.475 
				355.446,482.436 353.526,483.395 352.565,483.395 350.646,484.355 348.485,484.355 347.526,485.314 345.606,486.516 
				344.646,486.516 343.446,487.475 341.526,487.475 339.606,487.475 337.446,488.436 335.526,488.436 333.606,489.395 
				331.446,489.395 329.526,489.395 327.606,490.355 325.446,490.355 323.526,490.355 321.606,491.314 319.446,491.314 
				317.526,491.314 315.606,492.516 313.446,492.516 311.526,492.516 310.565,493.475 309.606,494.436 308.646,495.395 
				308.646,496.355 307.446,497.314 306.485,498.516 305.526,499.475 305.526,500.436 304.565,501.395 304.565,502.355 
				303.606,503.314 303.606,504.516 303.606,506.436 303.606,507.395 303.606,508.355 303.606,509.314 303.606,511.475 
				304.565,512.436 304.565,513.395 305.526,514.355 306.485,515.314 307.446,516.516 308.646,517.475 310.565,517.475 
				331.446,518.436 332.646,519.395 334.565,519.395 335.526,520.355 337.446,520.355 339.606,521.314 340.565,521.314 
				342.485,522.516 343.446,522.516 345.606,522.516 347.526,523.475 348.485,523.475 350.646,523.475 352.565,523.475 
				353.526,523.475 355.446,524.436 357.606,524.436 359.526,523.475 362.646,523.475 364.565,523.475 367.446,523.475 
				369.606,523.475 371.526,523.475 374.646,523.475 376.565,523.475 379.446,523.475 381.606,523.475 384.485,524.436 
				386.646,524.436 388.565,525.395 391.446,525.395 393.606,526.355 395.526,527.314 397.446,526.355 397.446,525.395 
				397.446,523.475 397.446,522.516 397.446,521.314 397.446,519.395 397.446,518.436 397.446,516.516 397.446,514.355 
				397.446,513.395 397.446,511.475 397.446,510.516 397.446,508.355 397.446,507.395 397.446,505.475 			"/>
			<polygon fill-rule="evenodd" clip-rule="evenodd" fill="#86B2D8" stroke="#86B2D8" points="395.765,505.475 395.765,506.436 
				395.765,508.355 395.765,509.314 395.765,511.475 395.765,512.436 395.765,514.355 395.765,515.314 395.765,517.475 
				395.765,519.395 395.765,520.355 395.765,522.516 395.765,523.475 395.765,525.395 394.565,525.395 393.606,525.395 
				391.446,524.436 389.526,523.475 387.606,523.475 385.446,522.516 382.565,522.516 380.646,521.314 378.485,521.314 
				375.606,521.314 373.446,521.314 371.526,521.314 368.646,521.314 366.485,521.314 363.606,522.516 361.446,522.516 
				358.565,522.516 356.646,522.516 355.446,522.516 353.526,522.516 352.565,522.516 350.646,522.516 349.446,521.314 
				347.526,521.314 346.565,521.314 344.646,521.314 343.446,520.355 342.485,520.355 340.565,520.355 339.606,519.395 
				338.646,519.395 336.485,518.436 335.526,518.436 334.565,517.475 332.646,517.475 331.446,517.475 329.526,517.475 
				327.606,517.475 326.646,517.475 324.485,517.475 323.526,516.516 321.606,516.516 320.646,516.516 318.485,516.516 
				316.565,516.516 315.606,516.516 313.446,516.516 312.485,516.516 310.565,516.516 309.606,515.314 308.646,515.314 
				307.446,514.355 306.485,513.395 306.485,512.436 305.526,512.436 305.526,511.475 305.526,510.516 304.565,509.314 
				304.565,508.355 304.565,507.395 304.565,506.436 304.565,505.475 304.565,504.516 304.565,503.314 305.526,502.355 
				306.485,501.395 307.446,499.475 307.446,498.516 309.606,497.314 310.565,496.355 311.526,495.395 312.485,494.436 
				314.646,493.475 316.565,493.475 319.446,493.475 321.606,492.516 323.526,492.516 326.646,491.314 328.565,491.314 
				331.446,491.314 333.606,490.355 335.526,490.355 338.646,489.395 340.565,489.395 342.485,488.436 344.646,488.436 
				347.526,487.475 349.446,486.516 350.646,485.314 351.606,485.314 353.526,484.355 354.485,484.355 355.446,483.395 
				357.606,483.395 358.565,482.436 360.485,482.436 361.446,481.475 362.646,481.475 364.565,480.516 365.526,480.516 
				367.446,479.314 368.646,479.314 369.606,479.314 371.526,478.355 372.485,478.355 374.646,477.395 375.606,477.395 
				376.565,477.395 378.485,476.436 379.446,476.436 381.606,476.436 382.565,475.475 384.485,475.475 385.446,475.475 
				387.606,475.475 388.565,475.475 390.485,474.516 391.446,474.516 393.606,474.516 394.565,474.516 395.765,479.314 
				395.765,481.475 395.765,482.436 395.765,484.355 395.765,485.314 395.765,486.516 395.765,488.436 395.765,489.395 
				395.765,490.355 395.765,492.516 395.765,493.475 395.765,494.436 395.765,496.355 395.765,497.314 395.765,498.516 
				395.765,499.475 			"/>
			<polygon fill-rule="evenodd" clip-rule="evenodd" stroke="#000000" points="390.485,517.475 390.485,516.516 388.565,515.314 
				387.606,514.355 385.446,514.355 384.485,513.395 382.565,512.436 381.606,510.516 380.646,509.314 378.485,508.355 
				377.526,507.395 376.565,506.436 375.606,504.516 374.646,503.314 373.446,502.355 372.485,500.436 371.526,499.475 
				370.565,497.314 369.606,496.355 369.606,494.436 369.606,493.475 368.646,492.516 368.646,490.355 369.007,489.395 
				369.966,488.436 369.966,487.475 369.966,486.516 369.966,485.314 370.565,484.355 370.565,483.395 371.526,482.436 
				371.526,481.475 370.565,481.475 369.606,482.436 368.646,482.436 367.446,482.436 366.485,483.395 365.526,483.395 
				364.565,483.395 363.606,484.355 362.646,484.355 361.446,484.355 360.485,484.355 359.526,484.355 358.565,485.314 
				356.646,486.516 354.485,486.516 352.565,487.475 350.646,488.436 348.485,489.395 346.565,489.395 344.646,490.355 
				343.446,491.314 341.526,492.516 339.606,493.475 337.446,494.436 336.485,495.395 334.565,496.355 332.646,497.314 
				331.446,499.475 330.485,500.436 330.485,501.395 329.526,502.355 329.526,503.314 328.565,504.516 328.565,505.475 
				328.565,506.436 328.565,507.395 328.565,508.355 328.565,509.314 329.526,509.314 329.526,511.475 330.485,512.436 
				331.446,513.395 332.646,514.355 334.565,514.355 335.526,515.314 336.485,515.314 338.646,516.516 339.606,516.516 
				340.565,516.516 342.485,517.475 343.446,517.475 345.606,517.475 346.565,517.475 348.485,518.436 349.446,518.436 
				351.606,518.436 353.526,518.436 354.485,518.436 356.646,518.436 357.606,518.436 359.526,518.436 361.446,518.436 
				362.646,517.475 364.565,517.475 366.485,517.475 367.446,517.475 369.606,517.475 370.565,517.475 372.485,517.475 
				373.446,518.436 375.606,518.436 377.526,518.436 378.485,518.436 380.646,518.436 381.606,518.436 383.526,519.395 
				384.485,519.395 386.646,520.355 387.606,520.355 388.565,520.355 389.526,520.355 390.485,520.355 391.446,520.355 
				391.446,519.395 391.446,518.436 391.446,517.475 			"/>
			<polygon fill-rule="evenodd" clip-rule="evenodd" fill="#B2CEE7" stroke="#010101" points="355.446,491.314 355.446,490.355 
				356.646,489.395 357.606,488.436 357.606,487.475 358.565,487.475 359.526,486.516 360.485,486.516 361.446,486.516 
				363.606,485.314 364.565,485.314 365.526,485.314 366.485,484.355 367.446,484.355 368.646,484.355 368.646,485.314 
				368.646,486.516 368.646,487.475 368.646,488.436 367.446,490.355 367.446,491.314 367.446,492.516 367.446,493.475 
				368.646,494.436 368.646,497.314 368.646,498.516 369.606,499.475 369.606,500.436 370.565,501.395 371.526,502.355 
				370.565,502.355 369.606,502.355 368.646,502.355 367.446,503.314 366.485,503.314 365.526,503.314 364.565,503.314 
				363.606,503.314 362.646,503.314 361.446,503.314 360.485,502.355 359.526,502.355 358.565,502.355 357.606,502.355 
				356.646,501.395 355.446,501.395 354.485,500.436 354.485,499.475 354.485,498.516 353.526,497.314 353.526,496.355 
				353.526,495.395 354.485,494.436 354.485,493.475 354.485,492.516 			"/>
			<polygon fill-rule="evenodd" clip-rule="evenodd" fill="#CCDEF0" stroke="#010101" points="388.565,519.395 386.646,518.436 
				385.446,518.436 384.485,518.436 383.526,518.436 382.565,517.475 381.606,517.475 369.606,516.516 366.485,516.516 
				364.565,516.516 362.646,516.516 360.485,516.516 357.606,516.516 355.446,516.516 353.526,516.516 350.646,516.516 
				348.485,516.516 346.565,516.516 343.446,515.314 341.526,515.314 339.606,514.355 337.446,514.355 335.526,513.395 
				333.606,512.436 332.646,511.475 331.446,511.475 331.446,510.516 330.485,510.516 330.485,509.314 330.485,508.355 
				329.526,507.395 330.485,504.516 331.446,502.355 332.646,501.395 333.606,499.475 334.565,498.516 336.485,496.715 
				337.446,496.115 339.606,494.795 341.526,493.836 343.446,492.875 345.606,492.516 347.526,491.314 349.446,490.355 
				351.606,489.395 353.526,489.395 354.485,488.914 354.485,489.395 354.485,490.355 353.526,491.314 353.526,492.516 
				352.565,493.475 352.565,494.436 352.565,495.395 352.565,496.355 352.565,497.314 352.565,498.516 352.565,499.475 
				353.526,500.436 354.485,501.395 355.446,502.355 356.646,503.314 357.606,503.314 358.565,504.516 360.485,504.516 
				361.446,504.516 362.646,504.516 364.565,504.516 365.526,504.516 367.446,504.516 368.646,504.516 370.565,504.516 
				371.526,504.516 372.485,504.516 373.446,505.475 374.646,506.436 375.606,507.395 376.565,508.355 377.526,509.314 
				378.485,510.516 379.446,511.475 381.606,512.436 382.565,513.395 383.526,514.355 384.485,514.355 385.446,515.314 
				387.606,516.516 388.565,517.475 389.526,518.436 			"/>
		</g>
		<g>
			<rect x="276.255" y="226.454" fill-rule="evenodd" clip-rule="evenodd" fill="#BCBEC0" width="129.926" height="129.923"/>
			<g id="_x5B_PR_x5D__46_">
				<text transform="matrix(0.9288 0 0 1 422.707 228.4209)" font-size="8">[P]</text>
			</g>
			<g id="_x5B_LP_x5D__46_">
				<text transform="matrix(0.9288 0 0 1 275.0273 375.7812)" font-size="8">[F]</text>
			</g>
			
				<rect x="276.255" y="226.454" fill-rule="evenodd" clip-rule="evenodd" fill="#FFFFFF" stroke="#010101" width="8.033" height="8.07"/>
			<g>
				<g>
					<polyline fill="none" stroke="#010101" points="276.255,359.916 276.255,226.454 409.114,226.454 					"/>
					<path fill="#010101" d="M408.095,226.454l-2.191-3.603l0.123-0.082l5.875,2.334c2.047,0.449,4.094,0.9,6.141,1.351
						c-2.047,0.45-4.094,0.9-6.141,1.351l-5.875,2.334l-0.123-0.062L408.095,226.454z"/>
					<path fill="#010101" d="M276.255,358.896l3.604-2.191l0.081,0.123l-2.333,5.875c-0.451,2.047-0.9,4.094-1.352,6.141
						c-0.45-2.047-0.9-4.094-1.352-6.141l-2.333-5.875l0.062-0.123L276.255,358.896z"/>
				</g>
			</g>
			<text transform="matrix(1 0 0 1 300.4805 297.3584)" fill="#ED1C24" font-size="12">A</text>
			<text transform="matrix(1 0 0 1 342.2949 238.2686)" fill="#0DB14B" font-size="12">H</text>
			<text transform="matrix(1 0 0 1 342.9629 353.0928)" fill="#0DB14B" font-size="12">F</text>
			<text transform="matrix(1 0 0 1 373.9033 297.3589)" fill="#ED1C24" font-size="12">P</text>
			<g>
				<text transform="matrix(0.9288 0 0 1 276.1104 216.2036)" font-size="11">Saggital Plane - Alternate Presentation</text>
			</g>
		</g>
		<g>
			<polygon fill-rule="evenodd" clip-rule="evenodd" fill="#010101" stroke="#010101" points="330.728,341.104 331.927,341.104 
				333.847,341.104 334.808,341.104 336.728,341.104 338.888,341.104 339.847,341.104 341.767,341.104 342.728,341.104 
				344.888,341.104 345.847,341.104 347.767,341.104 348.728,341.104 350.888,341.104 351.847,341.104 353.767,340.145 
				355.927,340.145 356.888,340.145 358.808,340.145 359.767,340.145 361.927,340.145 363.847,340.145 364.808,337.984 
				363.847,328.146 364.808,325.986 365.767,324.066 365.767,322.146 366.728,319.027 366.728,317.107 367.927,314.947 
				367.927,313.027 367.927,310.148 368.888,307.988 368.888,306.068 368.888,302.947 368.888,301.027 368.888,299.107 
				368.888,295.988 368.888,294.068 368.888,292.148 368.888,289.027 368.888,287.107 368.888,284.947 368.888,282.068 
				367.927,280.148 367.927,277.027 367.927,275.107 366.728,272.947 366.728,270.068 366.728,268.148 365.767,265.988 
				365.767,264.068 365.767,260.947 364.808,259.027 364.808,257.107 363.847,254.947 363.847,241.027 363.847,240.068 
				362.888,240.068 361.927,240.068 359.767,240.068 358.808,240.068 356.888,240.068 355.927,240.068 353.767,240.068 
				352.808,240.068 350.888,240.068 349.927,240.068 348.728,240.068 346.808,240.068 345.847,240.068 343.927,240.068 
				342.728,240.068 340.808,239.107 339.847,239.107 338.888,239.107 337.927,239.107 336.728,239.107 336.728,240.068 
				336.728,241.988 336.728,242.947 336.728,244.148 336.728,245.107 336.728,247.027 336.728,247.988 336.728,248.947 
				336.728,251.107 336.728,252.068 336.728,253.027 336.728,253.988 336.728,254.947 335.767,257.107 335.767,258.068 
				334.808,259.027 333.847,259.988 332.888,260.947 331.927,262.148 330.728,263.107 330.728,264.068 329.767,265.027 
				327.847,265.988 327.847,266.947 325.927,266.947 325.927,268.148 324.728,269.107 322.808,270.068 321.847,271.027 
				320.888,271.988 319.927,272.947 318.728,274.148 317.767,275.107 316.808,277.027 315.847,280.148 314.888,282.068 
				314.888,283.988 313.927,287.107 313.927,289.027 312.728,290.947 312.728,294.068 312.728,295.988 312.728,299.107 
				311.767,301.988 311.767,304.148 311.767,307.027 311.767,308.948 311.767,312.068 310.808,313.988 310.808,316.148 
				310.808,317.107 310.808,319.027 309.847,319.986 309.847,322.146 309.847,323.107 308.888,324.066 308.888,325.986 
				308.888,326.945 308.888,329.105 307.927,330.066 307.927,331.986 307.927,332.945 307.927,334.145 306.728,336.064 
				306.728,337.025 307.927,337.984 307.927,338.943 308.888,338.943 309.847,338.943 310.808,338.943 311.767,338.943 
				312.728,338.943 313.927,338.943 314.888,340.145 316.808,340.145 317.767,340.145 319.927,340.145 321.847,340.145 
				322.808,340.145 324.728,340.145 325.927,340.145 327.847,340.145 328.808,340.145 			"/>
			<polygon fill-rule="evenodd" clip-rule="evenodd" fill="#86B2D8" stroke="#86B2D8" points="332.888,340.145 331.927,338.943 
				329.767,338.943 328.808,338.943 326.888,338.943 324.728,338.943 323.767,338.943 321.847,338.943 319.927,338.943 
				318.728,338.943 316.808,338.943 315.847,337.984 313.927,337.984 311.767,337.984 310.808,337.984 308.888,337.025 
				308.888,336.064 308.888,335.105 308.888,334.145 308.888,332.945 309.847,331.986 309.847,331.025 309.847,330.066 
				309.847,329.105 309.847,328.146 309.847,326.945 309.847,325.986 310.808,325.027 310.808,324.066 310.808,323.107 
				311.767,320.947 311.767,319.027 311.767,317.107 312.728,314.947 312.728,313.027 312.728,311.107 312.728,308.948 
				312.728,307.027 312.728,305.107 313.927,302.947 313.927,301.027 313.927,299.107 313.927,296.947 313.927,295.988 
				313.927,294.068 314.888,292.148 314.888,290.947 314.888,289.988 314.888,289.027 314.888,288.068 315.847,287.107 
				315.847,286.148 315.847,284.947 315.847,283.988 316.808,283.027 316.808,282.068 316.808,281.107 317.767,280.148 
				317.767,278.947 318.728,277.988 318.728,277.027 318.728,276.068 319.927,275.107 320.888,274.148 321.847,274.148 
				322.808,272.947 323.767,271.988 324.728,271.027 325.927,270.068 326.888,269.107 327.847,268.148 328.808,266.947 
				329.767,265.988 330.728,265.027 331.927,264.068 332.888,263.107 333.847,262.148 334.808,260.947 335.767,259.988 
				336.728,258.068 337.927,257.107 337.927,256.148 337.927,254.947 338.888,253.027 338.888,252.068 338.888,250.148 
				338.888,248.947 338.888,247.027 338.888,246.068 338.888,244.148 338.888,242.947 338.888,241.988 338.888,240.068 
				339.847,240.068 341.767,240.068 342.728,241.027 344.888,241.027 345.847,241.027 347.767,241.027 348.728,241.027 
				350.888,241.027 351.847,241.027 352.808,241.027 354.728,241.027 355.927,241.027 357.847,241.027 358.808,241.027 
				360.728,241.027 361.927,241.027 362.888,257.107 362.888,259.027 363.847,260.947 363.847,263.107 364.808,265.027 
				364.808,268.148 364.808,270.068 365.767,271.988 365.767,274.148 365.767,276.068 366.728,278.947 366.728,281.107 
				366.728,283.027 366.728,284.947 366.728,288.068 366.728,289.988 367.927,292.148 367.927,294.068 367.927,296.947 
				366.728,299.107 366.728,301.027 366.728,302.947 366.728,305.107 366.728,307.988 366.728,310.148 365.767,312.068 
				365.767,313.988 365.767,316.148 364.808,319.027 364.808,320.947 363.847,323.107 363.847,325.027 362.888,326.945 
				362.888,328.146 362.888,329.105 362.888,330.066 362.888,331.025 362.888,331.986 362.888,332.945 362.888,334.145 
				362.888,335.105 362.888,336.064 362.888,337.025 362.888,337.984 362.888,338.943 360.728,338.943 358.808,338.943 
				357.847,338.943 355.927,338.943 353.767,338.943 352.808,338.943 350.888,340.145 349.927,340.145 347.767,340.145 
				345.847,340.145 344.888,340.145 342.728,340.145 341.767,340.145 339.847,340.145 337.927,340.145 336.728,340.145 
				334.808,340.145 			"/>
			<polygon fill-rule="evenodd" clip-rule="evenodd" fill="#010101" stroke="#010101" points="358.808,332.945 359.767,332.945 
				359.767,331.986 359.767,330.066 359.767,328.146 359.767,325.986 359.767,325.027 360.728,323.107 360.728,320.947 
				360.728,319.986 360.728,318.068 360.728,316.148 361.927,314.947 361.927,313.027 361.927,311.107 361.927,310.148 
				361.927,307.988 362.888,307.027 362.888,305.107 361.927,302.947 361.927,300.068 361.927,298.148 361.927,295.988 
				361.927,294.068 362.888,292.148 362.888,289.988 362.888,287.107 362.888,284.947 362.888,283.027 363.847,281.107 
				363.847,278.947 363.847,277.027 363.847,274.148 362.888,271.988 362.888,270.068 362.888,269.107 362.888,268.148 
				362.888,266.947 361.927,266.947 361.927,265.988 361.927,265.027 360.728,264.068 360.728,263.107 359.767,262.148 
				358.808,260.947 357.847,259.988 356.888,259.027 355.927,259.027 352.808,259.027 350.888,259.027 348.728,259.027 
				346.808,259.988 344.888,260.947 341.767,260.947 339.847,262.148 337.927,263.107 335.767,265.027 334.808,265.988 
				332.888,266.947 330.728,269.107 328.808,270.068 327.847,271.988 325.927,274.148 324.728,275.107 323.767,277.027 
				322.808,278.947 321.847,282.068 320.888,283.988 319.927,286.148 319.927,288.068 318.728,289.988 318.728,292.148 
				317.767,295.027 317.767,296.947 316.808,299.107 316.808,301.988 316.808,304.148 316.808,306.068 316.808,308.948 
				316.808,311.107 316.808,312.068 317.767,312.068 318.728,312.068 319.927,312.068 320.888,311.107 321.847,311.107 
				323.767,311.107 324.728,311.107 325.927,311.107 327.847,311.107 328.808,311.107 329.767,311.107 330.728,312.068 
				332.888,312.068 333.847,312.068 334.808,313.027 335.767,313.988 336.728,313.988 337.927,314.947 339.847,316.148 
				340.808,317.107 342.728,318.068 343.927,319.027 344.888,319.986 346.808,320.947 347.767,322.146 348.728,324.066 
				350.888,325.027 351.847,325.986 352.808,326.945 353.767,328.146 355.927,330.066 356.888,331.025 357.847,331.986 			"/>
			<polygon fill-rule="evenodd" clip-rule="evenodd" fill="#B2CEE7" stroke="#010101" points="327.847,295.988 328.808,296.947 
				329.767,296.947 330.728,296.947 330.728,298.148 331.927,298.148 332.888,299.107 332.888,300.068 333.847,300.068 
				333.847,301.027 333.847,301.988 334.808,302.947 334.808,304.148 334.808,305.107 334.808,306.068 334.808,307.027 
				335.767,307.988 335.767,308.948 334.808,310.148 334.808,311.107 334.808,312.068 333.847,311.107 332.888,311.107 
				331.927,311.107 330.728,310.148 329.767,310.148 328.808,310.148 327.847,310.148 326.888,310.148 325.927,308.948 
				324.728,308.948 323.767,308.948 322.808,310.148 321.847,310.148 320.888,310.148 319.927,310.148 318.728,310.148 
				318.728,308.948 318.728,307.988 318.728,307.027 318.728,306.068 318.728,305.107 318.728,304.148 318.728,302.947 
				318.728,301.988 318.728,301.027 318.728,300.068 318.728,299.107 318.728,298.148 319.927,298.148 319.927,296.947 
				320.888,296.947 321.847,296.947 322.808,296.947 322.808,295.988 323.767,295.988 324.728,295.988 325.927,295.988 
				326.888,295.988 			"/>
			<polygon fill-rule="evenodd" clip-rule="evenodd" fill="#CCDEF0" stroke="#010101" points="358.808,331.025 357.847,330.066 
				357.847,329.105 356.888,329.105 354.728,328.146 353.767,326.945 352.808,325.986 351.847,325.027 350.888,324.066 
				349.927,323.107 348.728,322.146 347.767,320.947 346.808,319.986 345.847,319.027 344.888,318.068 343.927,317.107 
				342.728,317.107 341.767,316.148 340.808,314.947 338.888,314.947 338.888,313.988 337.927,313.988 336.728,313.027 
				336.728,312.068 336.728,311.107 336.728,310.148 336.728,308.948 336.728,307.988 336.728,307.027 336.728,306.068 
				336.728,305.107 336.728,304.148 336.728,302.947 335.767,301.988 335.767,301.027 334.808,300.068 333.847,298.148 
				332.888,296.947 330.728,295.988 329.767,295.988 328.808,295.027 326.888,295.027 324.728,295.027 323.767,295.027 
				322.808,295.027 321.847,295.027 320.888,295.027 319.927,295.027 319.927,294.068 319.927,292.148 320.888,290.947 
				320.888,289.988 320.888,288.068 321.847,287.107 321.847,284.947 322.808,283.988 322.808,283.027 323.767,281.107 
				323.767,280.148 324.728,278.947 325.927,277.988 325.927,276.068 326.888,275.107 327.847,274.148 328.808,271.988 
				330.728,271.027 331.927,270.068 333.847,268.148 334.808,266.947 336.728,265.988 338.888,265.027 339.847,264.068 
				341.767,263.107 343.927,262.148 345.847,262.148 347.767,260.947 349.927,260.947 351.847,259.988 353.767,259.988 
				355.927,259.988 356.888,260.947 357.847,260.947 357.847,262.148 358.808,263.107 358.808,264.068 359.767,265.027 
				359.767,265.988 360.728,266.947 360.728,268.148 360.728,270.068 360.728,271.027 361.927,272.947 361.927,274.148 
				361.927,276.068 361.927,277.027 361.927,278.947 361.927,281.107 361.927,282.068 361.927,283.988 361.927,286.148 
				361.927,287.107 360.728,289.027 360.728,289.988 360.728,292.148 360.728,294.068 360.728,296.947 360.728,299.107 
				360.728,301.988 360.728,304.148 360.728,307.027 360.728,308.948 359.767,311.107 359.767,313.988 359.767,316.148 
				358.808,318.068 358.808,320.947 358.808,323.107 358.808,325.986 358.808,328.146 			"/>
		</g>
		<g>
			<rect x="276.255" y="38.882" fill-rule="evenodd" clip-rule="evenodd" fill="#BCBEC0" width="129.926" height="129.925"/>
			<g>
				<text transform="matrix(0.9288 0 0 1 422.9287 40.4912)" font-size="8">Pixel Row 1 [F]</text>
			</g>
			<g>
				<text transform="matrix(0.9288 0 0 1 302.7285 51.4912)" font-size="8">First Pixel</text>
			</g>
			<g>
				<text transform="matrix(0.9288 0 0 1 275.0273 188.2104)" font-size="8">Pixel  Column 1 [P]</text>
			</g>
			
				<rect x="276.255" y="38.882" fill-rule="evenodd" clip-rule="evenodd" fill="#FFFFFF" stroke="#010101" width="8.033" height="8.07"/>
			<g>
				<g>
					<polyline fill="none" stroke="#010101" points="276.255,172.346 276.255,38.882 409.114,38.882 					"/>
					<path fill="#010101" d="M408.095,38.882l-2.191-3.603l0.123-0.082l5.875,2.333c2.047,0.45,4.094,0.9,6.141,1.351
						c-2.047,0.45-4.094,0.9-6.141,1.351l-5.875,2.333l-0.123-0.062L408.095,38.882z"/>
					<path fill="#010101" d="M276.255,171.326l3.604-2.19l0.081,0.123l-2.333,5.875c-0.451,2.047-0.9,4.094-1.352,6.141
						c-0.45-2.047-0.9-4.094-1.352-6.141l-2.333-5.875l0.062-0.123L276.255,171.326z"/>
				</g>
			</g>
			<text transform="matrix(1 0 0 1 346.0898 70.0928)" fill="#ED1C24" font-size="12">A</text>
			<text transform="matrix(1 0 0 1 346.0898 147.8438)" fill="#ED1C24" font-size="12">P</text>
			<text transform="matrix(1 0 0 1 402.2461 119.8965)" fill="#0DB14B" font-size="12">F</text>
			<text transform="matrix(1 0 0 1 283.0889 119.8965)" fill="#0DB14B" font-size="12">H</text>
			<g>
				<text transform="matrix(0.9288 0 0 1 276.1104 28.6338)" font-size="11">Saggital Plane</text>
			</g>
			<polyline fill="none" stroke="#010101" stroke-miterlimit="1" points="298.868,48.853 290.882,48.853 281.319,42.583 			"/>
		</g>
		<g>
			<polygon fill-rule="evenodd" clip-rule="evenodd" fill="#010101" stroke="#010101" points="395.366,94.493 395.366,93.533 
				395.366,91.613 395.366,90.413 395.366,88.493 395.366,87.533 395.366,85.613 395.366,83.453 395.366,82.493 395.366,80.573 
				394.165,79.613 394.165,78.413 394.165,77.453 394.165,76.493 394.165,75.533 394.165,74.573 394.165,73.613 393.206,73.613 
				392.245,72.413 391.286,72.413 389.366,73.613 388.165,73.613 387.206,73.613 385.286,73.613 384.325,74.573 382.165,74.573 
				381.206,74.573 379.286,74.573 378.325,75.533 377.366,75.533 375.206,75.533 374.245,76.493 372.325,76.493 371.366,76.493 
				369.206,76.493 367.286,77.453 364.165,77.453 362.245,77.453 359.366,77.453 357.206,77.453 354.325,78.413 351.206,78.413 
				349.286,78.413 346.165,78.413 344.245,79.613 342.325,79.613 339.206,80.573 337.286,80.573 335.366,81.533 332.245,82.493 
				330.325,83.453 329.366,84.413 328.165,85.613 327.206,86.573 326.245,87.533 325.286,88.493 324.325,90.413 323.366,91.613 
				322.165,91.613 322.165,93.533 321.206,93.533 320.245,95.453 319.286,96.413 318.325,96.413 317.366,97.613 316.165,98.573 
				315.206,99.533 314.245,100.493 313.286,101.453 312.325,101.453 310.165,102.413 309.206,102.413 308.245,102.413 
				307.286,102.413 306.325,102.413 304.165,102.413 303.206,102.413 302.245,102.413 300.325,102.413 299.366,102.413 
				298.165,102.413 297.206,102.413 295.286,102.413 294.325,102.413 294.325,103.613 294.325,104.573 294.325,105.533 
				294.325,106.493 295.286,108.413 295.286,109.613 295.286,111.533 295.286,112.493 295.286,114.413 295.286,115.613 
				295.286,116.573 295.286,118.493 295.286,119.453 295.286,121.613 295.286,122.573 295.286,124.493 295.286,125.453 
				295.286,127.613 295.286,128.573 295.286,129.533 296.245,129.533 310.165,129.533 312.325,130.493 314.245,130.493 
				316.165,131.453 319.286,131.453 321.206,131.453 323.366,132.413 325.286,132.413 328.165,132.413 330.325,133.613 
				332.245,133.613 335.366,133.613 337.286,134.573 340.165,134.573 342.325,134.573 344.245,134.573 347.366,134.573 
				349.286,134.573 351.206,134.573 354.325,134.573 356.245,134.573 358.165,134.573 361.286,134.573 363.206,134.573 
				365.366,133.613 368.245,133.613 370.165,133.613 372.325,132.413 374.245,132.413 377.366,131.453 379.286,131.453 
				381.206,130.493 383.366,129.533 393.206,130.493 395.366,129.533 395.366,127.613 395.366,125.453 395.366,124.493 
				395.366,122.573 395.366,121.613 395.366,119.453 396.325,117.533 396.325,116.573 396.325,114.413 396.325,113.453 
				396.325,111.533 396.325,110.573 396.325,108.413 396.325,107.453 396.325,105.533 396.325,104.573 396.325,102.413 
				396.325,100.493 396.325,99.533 396.325,97.613 396.325,96.413 			"/>
			<polygon fill-rule="evenodd" clip-rule="evenodd" fill="#86B2D8" stroke="#86B2D8" points="395.366,100.493 395.366,102.413 
				395.366,103.613 395.366,105.533 395.366,107.453 395.366,108.413 395.366,110.573 395.366,111.533 395.366,113.453 
				395.366,115.613 395.366,116.573 394.165,118.493 394.165,119.453 394.165,121.613 394.165,123.533 394.165,124.493 
				394.165,126.413 394.165,128.573 393.206,128.573 392.245,128.573 391.286,128.573 390.325,128.573 389.366,128.573 
				388.165,128.573 387.206,128.573 386.245,128.573 385.286,128.573 384.325,128.573 383.366,128.573 382.165,128.573 
				380.245,129.533 378.325,129.533 376.165,130.493 374.245,130.493 371.366,131.453 369.206,131.453 367.286,131.453 
				365.366,132.413 363.206,132.413 360.325,132.413 358.165,132.413 356.245,132.413 354.325,132.413 352.165,133.613 
				349.286,133.613 347.366,133.613 345.206,132.413 343.286,132.413 340.165,132.413 338.245,132.413 336.325,132.413 
				334.165,132.413 331.286,131.453 329.366,131.453 327.206,131.453 325.286,130.493 323.366,130.493 320.245,130.493 
				318.325,129.533 316.165,129.533 314.245,128.573 312.325,128.573 296.245,127.613 296.245,126.413 296.245,124.493 
				296.245,123.533 296.245,121.613 296.245,120.413 296.245,118.493 296.245,117.533 296.245,116.573 296.245,114.413 
				296.245,113.453 296.245,111.533 296.245,110.573 296.245,108.413 295.286,107.453 295.286,105.533 295.286,104.573 
				297.206,104.573 298.165,104.573 299.366,104.573 301.286,104.573 302.245,104.573 304.165,104.573 305.366,104.573 
				307.286,104.573 308.245,104.573 310.165,103.613 311.366,103.613 312.325,103.613 313.286,102.413 315.206,101.453 
				316.165,100.493 317.366,99.533 318.325,98.573 319.286,97.613 320.245,96.413 321.206,95.453 322.165,94.493 323.366,93.533 
				324.325,92.573 325.286,91.613 326.245,90.413 327.206,89.453 328.165,88.493 329.366,87.533 329.366,86.573 330.325,85.613 
				331.286,84.413 332.245,84.413 333.206,84.413 334.165,83.453 335.366,83.453 336.325,82.493 337.286,82.493 338.245,82.493 
				339.206,81.533 340.165,81.533 341.366,81.533 342.325,81.533 343.286,80.573 344.245,80.573 345.206,80.573 346.165,80.573 
				347.366,80.573 349.286,79.613 351.206,79.613 352.165,79.613 354.325,79.613 356.245,79.613 358.165,79.613 360.325,78.413 
				362.245,78.413 364.165,78.413 366.325,78.413 368.245,78.413 370.165,78.413 372.325,77.453 374.245,77.453 376.165,77.453 
				378.325,76.493 379.286,76.493 380.245,76.493 381.206,75.533 382.165,75.533 383.366,75.533 384.325,75.533 385.286,75.533 
				386.245,75.533 387.206,75.533 388.165,74.573 389.366,74.573 390.325,74.573 391.286,74.573 392.245,74.573 393.206,76.493 
				393.206,77.453 393.206,79.613 393.206,81.533 394.165,82.493 394.165,84.413 394.165,85.613 394.165,87.533 394.165,89.453 
				394.165,90.413 394.165,92.573 394.165,94.493 394.165,95.453 394.165,97.613 395.366,98.573 			"/>
			<polygon fill-rule="evenodd" clip-rule="evenodd" fill="#010101" stroke="#010101" points="387.206,123.533 386.245,122.573 
				385.286,121.613 383.366,119.453 382.165,118.493 381.206,117.533 380.245,116.573 379.286,114.413 377.366,113.453 
				376.165,112.493 375.206,110.573 374.245,109.613 373.286,108.413 372.325,106.493 371.366,105.533 370.165,103.613 
				369.206,102.413 369.206,101.453 368.245,100.493 367.286,99.533 367.286,98.573 367.286,96.413 366.325,95.453 366.325,94.493 
				366.325,93.533 366.325,91.613 366.325,90.413 366.325,89.453 366.325,87.533 366.325,86.573 367.286,85.613 367.286,84.413 
				367.286,83.453 367.286,82.493 366.325,82.493 364.165,82.493 361.286,82.493 359.366,82.493 357.206,82.493 354.325,82.493 
				352.165,83.453 350.245,83.453 347.366,84.413 345.206,84.413 343.286,85.613 341.366,85.613 339.206,86.573 337.286,87.533 
				334.165,88.493 332.245,89.453 330.325,90.413 329.366,91.613 327.206,93.533 325.286,94.493 324.325,96.413 322.165,98.573 
				321.206,100.493 320.245,101.453 318.325,103.613 317.366,105.533 316.165,107.453 316.165,110.573 315.206,112.493 
				314.245,114.413 314.245,116.573 314.245,118.493 314.245,121.613 314.245,122.573 315.206,123.533 316.165,124.493 
				317.366,125.453 318.325,126.413 319.286,126.413 320.245,127.613 321.206,127.613 322.165,127.613 322.165,128.573 
				323.366,128.573 324.325,128.573 325.286,128.573 327.206,128.573 329.366,129.533 332.245,129.533 334.165,129.533 
				336.325,129.533 338.245,128.573 340.165,128.573 342.325,128.573 345.206,128.573 347.366,128.573 349.286,127.613 
				351.206,127.613 353.366,127.613 355.286,127.613 358.165,127.613 360.325,128.573 362.245,128.573 363.206,127.613 
				365.366,127.613 366.325,127.613 368.245,127.613 370.165,127.613 371.366,126.413 373.286,126.413 375.206,126.413 
				376.165,126.413 378.325,126.413 380.245,125.453 381.206,125.453 383.366,125.453 385.286,125.453 387.206,125.453 
				388.165,125.453 388.165,124.493 			"/>
			<polygon fill-rule="evenodd" clip-rule="evenodd" fill="#B2CEE7" stroke="#010101" points="351.206,92.573 351.206,91.613 
				351.206,90.413 351.206,89.453 351.206,88.493 352.165,88.493 352.165,87.533 352.165,86.573 352.165,85.613 353.366,85.613 
				353.366,84.413 354.325,84.413 355.286,84.413 356.245,84.413 357.206,84.413 358.165,84.413 359.366,84.413 360.325,84.413 
				361.286,84.413 362.245,84.413 363.206,84.413 364.165,84.413 365.366,84.413 365.366,85.613 365.366,86.573 365.366,87.533 
				365.366,88.493 364.165,89.453 364.165,90.413 364.165,91.613 365.366,92.573 365.366,93.533 365.366,94.493 365.366,95.453 
				365.366,96.413 366.325,97.613 366.325,98.573 366.325,99.533 367.286,100.493 366.325,100.493 365.366,100.493 364.165,101.453 
				363.206,101.453 362.245,100.493 361.286,100.493 360.325,100.493 359.366,100.493 358.165,100.493 357.206,99.533 
				356.245,99.533 355.286,99.533 355.286,98.573 354.325,98.573 353.366,97.613 353.366,96.413 352.165,96.413 352.165,95.453 
				352.165,94.493 351.206,93.533 			"/>
			<polygon fill-rule="evenodd" clip-rule="evenodd" fill="#CCDEF0" stroke="#010101" points="383.366,124.493 381.206,124.493 
				378.325,124.493 376.165,124.493 373.286,124.493 371.366,125.453 369.206,125.453 366.325,125.453 364.165,126.413 
				362.245,126.413 359.366,126.413 357.206,126.413 354.325,126.413 352.165,126.413 349.286,126.413 347.366,126.413 
				345.206,126.413 344.245,126.413 342.325,127.613 341.366,127.613 339.206,127.613 337.286,127.613 336.325,127.613 
				334.165,127.613 332.245,127.613 331.286,127.613 329.366,127.613 328.165,127.613 326.245,126.413 325.286,126.413 
				323.366,126.413 322.165,126.413 321.206,125.453 320.245,125.453 319.286,124.493 318.325,124.493 317.366,123.533 
				316.165,123.533 316.165,122.573 315.206,121.613 315.206,119.453 315.206,117.533 316.165,115.613 316.165,113.453 
				317.366,111.533 317.366,109.613 318.325,107.453 319.286,105.533 320.245,104.573 321.206,102.413 322.165,100.493 
				323.366,99.533 325.286,97.613 326.245,96.413 327.206,94.493 329.366,93.533 330.325,92.573 331.286,91.613 333.206,91.613 
				334.165,90.413 335.366,89.453 336.325,89.453 338.245,88.493 339.206,88.493 340.165,87.533 342.325,87.533 343.286,86.573 
				345.206,86.573 346.165,86.573 347.366,85.613 349.286,85.613 350.245,85.613 350.245,86.573 350.245,87.533 350.245,88.493 
				350.245,89.453 350.245,90.413 350.245,92.573 350.245,94.493 351.206,95.453 351.206,96.413 352.165,98.573 353.366,99.533 
				355.286,100.493 356.245,101.453 357.206,101.453 358.165,102.413 359.366,102.413 360.325,102.413 361.286,102.413 
				362.245,102.413 363.206,102.413 364.165,102.413 365.366,102.413 366.325,102.413 367.286,102.413 368.245,102.413 
				369.206,103.613 369.206,104.573 370.165,104.573 370.165,106.493 371.366,107.453 372.325,108.413 372.325,109.613 
				373.286,110.573 374.245,111.533 375.206,112.493 376.165,113.453 377.366,114.413 378.325,115.613 379.286,116.573 
				380.245,117.533 381.206,118.493 382.165,119.453 383.366,120.413 384.325,122.573 384.325,123.533 385.286,123.533 
				386.245,124.493 			"/>
		</g>
	</g>
</g>
</svg>
