<?xml version="1.0" encoding="utf-8"?>
<!-- $Source: /home/bbennett/pass/archive/DicomXml/docbook/part17/figures/PS3.17_F.1-1.svg,v $ -->
<!-- $Date: 2014/05/09 12:31:57 $ -->
<!-- $Revision: 1.2 $ -->

<!DOCTYPE svg PUBLIC "-//W3C//DTD SVG 1.1//EN" "http://www.w3.org/Graphics/SVG/1.1/DTD/svg11.dtd">
<svg version="1.1" id="Layer_1" xmlns="http://www.w3.org/2000/svg" xmlns:xlink="http://www.w3.org/1999/xlink" x="0px" y="0px"
	 width="502px" height="392px" viewBox="0 0 502 392" enable-background="new 0 0 502 392" xml:space="preserve">

<defs>
	<style type="text/css">
	text {
	  font-family: Helvetica, Verdana, ArialUnicodeMS, san-serif
	}
	</style>
</defs>

<g>
   <desc>
	PS 3.17 Part 17: Explanatory Information
   </desc>
</g>

<g>
	<rect x="1" y="1" fill="#F5EED6" width="500" height="390"/>
	<g>
		<g>
			
				<polygon fill="#CCDEF0" stroke="#010101" stroke-width="0.75" stroke-linecap="round" stroke-linejoin="round" stroke-miterlimit="1" points="
				104.031,231.08 144.06,213.512 184.154,231.648 184.154,231.689 144.015,249.512 			"/>
		</g>
		<text transform="matrix(0.8902 0 0 1 137.6895 225.0527)"><tspan x="0" y="0" font-size="7">HAS</tspan><tspan x="-15.555" y="8.4" font-size="7">ACQUISITION</tspan><tspan x="-9.526" y="16.8" font-size="7">CONTEXT</tspan></text>
		<g>
			
				<polygon fill="#CCDEF0" stroke="#010101" stroke-width="0.75" stroke-linecap="round" stroke-linejoin="round" stroke-miterlimit="1" points="
				20.068,231.08 60.096,213.512 100.193,231.648 100.193,231.689 60.053,249.512 			"/>
		</g>
		<text transform="matrix(0.8902 0 0 1 53.7275 225.0527)"><tspan x="0" y="0" font-size="7">HAS</tspan><tspan x="-15.555" y="8.4" font-size="7">ACQUISITION</tspan><tspan x="-9.526" y="16.8" font-size="7">CONTEXT</tspan></text>
		<g>
			<g>
				<polyline fill="none" stroke="#005695" stroke-linecap="round" stroke-miterlimit="1" points="390.116,199.305 390.116,219.873 
					340.935,219.873 340.935,226.258 				"/>
				<path fill="#005695" d="M341.96,228.619c0.499-1.652,0.959-2.729,1.491-4.055h-5.044c0.225,0.475,0.992,2.402,1.491,4.055
					c0.534,1.77,0.9,3.375,1.03,4.414C341.06,231.994,341.425,230.389,341.96,228.619z"/>
			</g>
		</g>
		<g>
			<g>
				<polyline fill="none" stroke="#005695" stroke-linecap="round" stroke-miterlimit="1" points="390.138,219.873 438.259,219.873 
					438.259,225.258 				"/>
				<path fill="#005695" d="M439.284,227.619c0.499-1.652,0.959-2.729,1.491-4.055h-5.044c0.225,0.475,0.992,2.402,1.491,4.055
					c0.534,1.77,0.9,3.375,1.03,4.414C438.384,230.994,438.749,229.389,439.284,227.619z"/>
			</g>
		</g>
		
			<line fill="none" stroke="#005695" stroke-width="2" stroke-linecap="round" stroke-miterlimit="1" stroke-dasharray="3,4" x1="214.112" y1="195.15" x2="230.138" y2="195.15"/>
		
			<line fill="none" stroke="#005695" stroke-width="2" stroke-linecap="round" stroke-miterlimit="1" stroke-dasharray="3,4" x1="297.901" y1="195.15" x2="313.925" y2="195.15"/>
		
			<line fill="none" stroke="#005695" stroke-width="2" stroke-linecap="round" stroke-miterlimit="1" stroke-dasharray="3,4" x1="52.118" y1="267.314" x2="68.142" y2="267.314"/>
		
			<line fill="none" stroke="#005695" stroke-width="2" stroke-linecap="round" stroke-miterlimit="1" stroke-dasharray="3,4" x1="136.079" y1="267.312" x2="152.104" y2="267.312"/>
		<g>
			<g>
				<path fill="none" stroke="#005695" stroke-linecap="round" stroke-miterlimit="1" d="M101.631,89.23c0,0,0,2.347,0,5.027"/>
				<path fill="#005695" d="M102.656,96.619c0.5-1.652,0.959-2.728,1.492-4.054h-5.044c0.226,0.475,0.993,2.401,1.492,4.054
					c0.535,1.77,0.9,3.375,1.031,4.415C101.756,99.994,102.122,98.388,102.656,96.619z"/>
			</g>
		</g>
		<g>
			<g>
				<polyline fill="none" stroke="#005695" stroke-linecap="round" stroke-miterlimit="1" points="263.437,40.359 263.437,49.343 
					101.631,49.343 101.631,55.256 				"/>
				<path fill="#005695" d="M102.656,57.618c0.5-1.653,0.959-2.728,1.492-4.054h-5.044c0.226,0.475,0.993,2.401,1.492,4.054
					c0.535,1.77,0.9,3.374,1.031,4.415C101.756,60.992,102.122,59.387,102.656,57.618z"/>
			</g>
		</g>
		<g>
			<g>
				
					<line fill="none" stroke="#005695" stroke-linecap="round" stroke-miterlimit="1" x1="59.519" y1="201.354" x2="59.519" y2="207.459"/>
				<path fill="#005695" d="M60.543,209.82c0.5-1.652,0.959-2.729,1.492-4.055h-5.044c0.226,0.475,0.993,2.402,1.492,4.055
					c0.535,1.77,0.9,3.375,1.031,4.414C59.644,213.195,60.009,211.59,60.543,209.82z"/>
			</g>
		</g>
		<g>
			<g>
				<polyline fill="none" stroke="#005695" stroke-linecap="round" stroke-miterlimit="1" points="101.786,121.825 101.786,141.843 
					59.519,141.843 59.519,146.756 				"/>
				<path fill="#005695" d="M60.543,149.119c0.5-1.654,0.959-2.729,1.492-4.055h-5.044c0.226,0.475,0.993,2.4,1.492,4.055
					c0.535,1.77,0.9,3.373,1.031,4.414C59.644,152.492,60.009,150.888,60.543,149.119z"/>
			</g>
		</g>
		<g>
			<g>
				
					<line fill="none" stroke="#005695" stroke-linecap="round" stroke-miterlimit="1" x1="144.083" y1="249.512" x2="144.083" y2="259.053"/>
				<path fill="#005695" d="M145.108,261.414c0.5-1.652,0.959-2.729,1.492-4.055h-5.044c0.226,0.475,0.993,2.402,1.492,4.055
					c0.535,1.77,0.9,3.375,1.031,4.414C144.208,264.789,144.574,263.184,145.108,261.414z"/>
			</g>
		</g>
		<g>
			<g>
				
					<line fill="none" stroke="#005695" stroke-linecap="round" stroke-miterlimit="1" x1="60.131" y1="249.512" x2="60.131" y2="259.053"/>
				<path fill="#005695" d="M61.156,261.414c0.5-1.652,0.959-2.729,1.492-4.055h-5.044c0.226,0.475,0.993,2.402,1.492,4.055
					c0.535,1.77,0.9,3.375,1.031,4.414C60.256,264.789,60.622,263.184,61.156,261.414z"/>
			</g>
		</g>
		<g>
			<g>
				
					<line fill="none" stroke="#005695" stroke-linecap="round" stroke-miterlimit="1" x1="144.084" y1="201.635" x2="144.084" y2="207.959"/>
				<path fill="#005695" d="M145.109,210.32c0.5-1.652,0.959-2.729,1.492-4.055h-5.044c0.226,0.475,0.993,2.402,1.492,4.055
					c0.535,1.77,0.9,3.375,1.031,4.414C144.209,213.695,144.575,212.09,145.109,210.32z"/>
			</g>
		</g>
		<g>
			<g>
				
					<line fill="none" stroke="#005695" stroke-linecap="round" stroke-miterlimit="1" x1="144.084" y1="169.85" x2="144.084" y2="175.756"/>
				<path fill="#005695" d="M145.109,178.119c0.5-1.654,0.959-2.729,1.492-4.055h-5.044c0.226,0.475,0.993,2.4,1.492,4.055
					c0.535,1.77,0.9,3.373,1.031,4.414C144.209,181.492,144.575,179.888,145.109,178.119z"/>
			</g>
		</g>
		<g>
			<g>
				
					<line fill="none" stroke="#005695" stroke-linecap="round" stroke-miterlimit="1" x1="60.13" y1="169.85" x2="60.13" y2="175.756"/>
				<path fill="#005695" d="M61.155,178.119c0.5-1.654,0.959-2.729,1.492-4.055h-5.044c0.226,0.475,0.993,2.4,1.492,4.055
					c0.535,1.77,0.9,3.373,1.031,4.414C60.255,181.492,60.621,179.888,61.155,178.119z"/>
			</g>
		</g>
		<g>
			<g>
				<polyline fill="none" stroke="#005695" stroke-linecap="round" stroke-miterlimit="1" points="101.112,141.843 144.083,141.843 
					144.083,146.756 				"/>
				<path fill="#005695" d="M145.108,149.119c0.5-1.654,0.959-2.729,1.492-4.055h-5.044c0.226,0.475,0.993,2.4,1.492,4.055
					c0.535,1.77,0.9,3.373,1.031,4.414C144.208,152.492,144.574,150.888,145.108,149.119z"/>
			</g>
		</g>
		<g>
			<g>
				<path fill="none" stroke="#005695" stroke-linecap="round" stroke-miterlimit="1" d="M222.125,89.24c0,0,0,2.341,0,5.017"/>
				<path fill="#005695" d="M223.15,96.619c0.499-1.654,0.959-2.729,1.491-4.055h-5.044c0.225,0.475,0.992,2.4,1.491,4.055
					c0.534,1.77,0.9,3.373,1.03,4.414C222.25,99.992,222.615,98.388,223.15,96.619z"/>
			</g>
		</g>
		<g>
			<g>
				<polyline fill="none" stroke="#005695" stroke-linecap="round" stroke-miterlimit="1" points="263.437,49.343 222.124,49.343 
					222.124,54.756 				"/>
				<path fill="#005695" d="M223.148,57.118c0.5-1.653,0.96-2.728,1.492-4.054h-5.045c0.227,0.475,0.993,2.401,1.492,4.054
					c0.535,1.77,0.9,3.374,1.031,4.415C222.249,60.492,222.615,58.887,223.148,57.118z"/>
			</g>
		</g>
		<g>
			<g>
				
					<line fill="none" stroke="#005695" stroke-linecap="round" stroke-miterlimit="1" x1="305.552" y1="89.243" x2="305.552" y2="94.256"/>
				<path fill="#005695" d="M306.577,96.619c0.499-1.654,0.959-2.729,1.491-4.055h-5.044c0.225,0.475,0.992,2.4,1.491,4.055
					c0.534,1.77,0.9,3.373,1.03,4.414C305.677,99.992,306.042,98.388,306.577,96.619z"/>
			</g>
		</g>
		<g>
			<g>
				<polyline fill="none" stroke="#005695" stroke-linecap="round" stroke-miterlimit="1" points="263.437,49.343 305.552,49.343 
					305.552,55.256 				"/>
				<path fill="#005695" d="M306.577,57.618c0.499-1.653,0.959-2.728,1.491-4.054h-5.044c0.225,0.475,0.992,2.401,1.491,4.054
					c0.534,1.77,0.9,3.374,1.03,4.415C305.677,60.992,306.042,59.387,306.577,57.618z"/>
			</g>
		</g>
		<g>
			<g>
				
					<line fill="none" stroke="#005695" stroke-linecap="round" stroke-miterlimit="1" x1="390.003" y1="89.243" x2="390.003" y2="169.256"/>
				<path fill="#005695" d="M391.028,171.619c0.499-1.654,0.959-2.729,1.491-4.055h-5.044c0.225,0.475,0.992,2.4,1.491,4.055
					c0.534,1.77,0.9,3.373,1.03,4.414C390.128,174.992,390.493,173.388,391.028,171.619z"/>
			</g>
		</g>
		<g>
			<g>
				<polyline fill="none" stroke="#005695" stroke-linecap="round" stroke-miterlimit="1" points="263.437,49.343 390.003,49.343 
					390.003,55.256 				"/>
				<path fill="#005695" d="M391.028,57.618c0.499-1.653,0.959-2.728,1.491-4.054h-5.044c0.225,0.475,0.992,2.401,1.491,4.054
					c0.534,1.77,0.9,3.374,1.03,4.415C390.128,60.992,390.493,59.387,391.028,57.618z"/>
			</g>
		</g>
		<g>
			<g>
				
					<line fill="none" stroke="#005695" stroke-linecap="round" stroke-miterlimit="1" x1="305.552" y1="174.632" x2="305.552" y2="186.028"/>
				<path fill="#005695" d="M306.577,188.39c0.499-1.654,0.959-2.729,1.491-4.055h-5.044c0.225,0.475,0.992,2.4,1.491,4.055
					c0.534,1.77,0.9,3.373,1.03,4.414C305.677,191.763,306.042,190.16,306.577,188.39z"/>
			</g>
		</g>
		<g>
			<g>
				
					<line fill="none" stroke="#005695" stroke-linecap="round" stroke-miterlimit="1" x1="305.552" y1="135.377" x2="305.552" y2="142.256"/>
				<path fill="#005695" d="M306.577,144.619c0.499-1.654,0.959-2.729,1.491-4.055h-5.044c0.225,0.475,0.992,2.4,1.491,4.055
					c0.534,1.77,0.9,3.373,1.03,4.414C305.677,147.992,306.042,146.388,306.577,144.619z"/>
			</g>
		</g>
		<g>
			<g>
				
					<line fill="none" stroke="#005695" stroke-linecap="round" stroke-miterlimit="1" x1="222.124" y1="174.635" x2="222.124" y2="186.028"/>
				<path fill="#005695" d="M223.148,188.39c0.5-1.654,0.96-2.729,1.492-4.055h-5.045c0.227,0.475,0.993,2.4,1.492,4.055
					c0.535,1.77,0.9,3.373,1.031,4.414C222.249,191.763,222.615,190.16,223.148,188.39z"/>
			</g>
		</g>
		<g>
			<g>
				
					<line fill="none" stroke="#005695" stroke-linecap="round" stroke-miterlimit="1" x1="222.124" y1="141.256" x2="222.124" y2="174.635"/>
				<path fill="#005695" d="M223.148,176.998c0.5-1.654,0.96-2.729,1.492-4.055h-5.045c0.227,0.475,0.993,2.4,1.492,4.055
					c0.535,1.77,0.9,3.373,1.031,4.414C222.249,180.371,222.615,178.767,223.148,176.998z"/>
			</g>
		</g>
		<g>
			<g>
				
					<line fill="none" stroke="#005695" stroke-linecap="round" stroke-miterlimit="1" x1="222.124" y1="135.377" x2="222.124" y2="141.256"/>
				<path fill="#005695" d="M223.148,143.619c0.5-1.654,0.96-2.729,1.492-4.055h-5.045c0.227,0.475,0.993,2.4,1.492,4.055
					c0.535,1.77,0.9,3.373,1.031,4.414C222.249,146.992,222.615,145.388,223.148,143.619z"/>
			</g>
		</g>
		<g>
			
				<rect x="227.382" y="13.723" fill="#B2CEE7" stroke="#010101" stroke-width="0.75" stroke-linecap="round" stroke-linejoin="round" stroke-miterlimit="1" width="72.111" height="27.001"/>
			<g>
				<text transform="matrix(0.8902 0 0 1 238.6968 24.6533)"><tspan x="0" y="0" font-size="8">Document Root</tspan><tspan x="1.57" y="9.6" font-size="8">(CONTAINER)</tspan></text>
			</g>
		</g>
		
			<rect x="337.626" y="175.536" fill="#B2CEE7" stroke="#010101" stroke-width="0.75" stroke-linecap="round" stroke-linejoin="round" stroke-miterlimit="1" width="104.158" height="26.996"/>
		<g>
			<text transform="matrix(0.8902 0 0 1 342.2031 186.1387)"><tspan x="0" y="0" font-size="8">CAD Processing and Findings</tspan><tspan x="20.915" y="9.6" font-size="8">Summary (CODE)</tspan></text>
		</g>
		<g>
			
				<rect x="198.089" y="99.377" fill="#B2CEE7" stroke="#010101" stroke-width="0.75" stroke-linecap="round" stroke-linejoin="round" stroke-miterlimit="1" width="48.071" height="36"/>
			<g>
				<text transform="matrix(0.8902 0 0 1 202.9302 109.0815)"><tspan x="0" y="0" font-size="8">Summary of</tspan><tspan x="2.662" y="9.6" font-size="8">Detections</tspan><tspan x="7.34" y="19.2" font-size="8">(CODE)</tspan></text>
			</g>
		</g>
		<g>
			
				<rect x="281.882" y="100.298" fill="#B2CEE7" stroke="#010101" stroke-width="0.75" stroke-linecap="round" stroke-linejoin="round" stroke-miterlimit="1" width="48.07" height="36"/>
			<g>
				<text transform="matrix(0.8902 0 0 1 286.7246 110.0029)"><tspan x="0" y="0" font-size="8">Summary of</tspan><tspan x="5.329" y="9.6" font-size="8">Analyses</tspan><tspan x="7.339" y="19.2" font-size="8">(CODE)</tspan></text>
			</g>
		</g>
		
			<polyline fill="#B2CEE7" stroke="#010101" stroke-width="0.75" stroke-linecap="round" stroke-linejoin="round" stroke-miterlimit="1" points="
			144.084,201.635 124.06,201.635 124.06,183.633 164.12,183.633 164.12,201.635 144.084,201.635 		"/>
		<g>
			<text transform="matrix(0.8902 0 0 1 130.2451 194.8594)" font-size="8">(IMAGE)</text>
		</g>
		<g>
			<g>
				
					<rect x="65.575" y="99.377" fill="#B2CEE7" stroke="#010101" stroke-width="0.75" stroke-linecap="round" stroke-linejoin="round" stroke-miterlimit="1" width="72.107" height="27"/>
				<g>
					<text transform="matrix(0.8902 0 0 1 79.8599 109.9819)"><tspan x="0" y="0" font-size="8">Image Library</tspan><tspan x="-1.766" y="9.6" font-size="8">(CONTAINER)</tspan></text>
				</g>
			</g>
		</g>
		
			<rect x="40.1" y="183.354" fill="#B2CEE7" stroke="#010101" stroke-width="0.75" stroke-linecap="round" stroke-linejoin="round" stroke-miterlimit="1" width="40.061" height="18"/>
		<g>
			<text transform="matrix(0.8902 0 0 1 46.2822 194.8594)" font-size="8">(IMAGE)</text>
		</g>
		<g>
			
				<polygon fill="#CCDEF0" stroke="#010101" stroke-width="0.75" stroke-linecap="round" stroke-linejoin="round" stroke-miterlimit="1" points="
				394.224,341.641 438.259,328.467 482.364,342.066 482.364,342.098 438.21,355.461 			"/>
		</g>
		<text transform="matrix(0.8902 0 0 1 410.9375 343.9102)" font-size="7">HAS PROPERTIES</text>
		
			<polygon fill="#CCDEF0" stroke="#010101" stroke-width="0.75" stroke-linecap="round" stroke-linejoin="round" stroke-miterlimit="1" points="
			297.047,341.641 341.074,328.467 385.178,342.066 385.178,342.098 341.027,355.461 		"/>
		<text transform="matrix(0.8902 0 0 1 313.7578 343.9102)" font-size="7">HAS PROPERTIES</text>
		<g>
			<g>
				
					<line fill="none" stroke="#005695" stroke-linecap="round" stroke-miterlimit="1" x1="341.112" y1="259.053" x2="341.112" y2="268.125"/>
				<path fill="#005695" d="M342.138,270.486c0.499-1.652,0.959-2.729,1.491-4.055h-5.044c0.225,0.475,0.992,2.402,1.491,4.055
					c0.534,1.77,0.9,3.375,1.03,4.414C341.237,273.861,341.603,272.256,342.138,270.486z"/>
			</g>
		</g>
		<g>
			<g>
				
					<line fill="none" stroke="#005695" stroke-linecap="round" stroke-miterlimit="1" x1="438.294" y1="259.648" x2="438.294" y2="268.123"/>
				<path fill="#005695" d="M439.319,270.484c0.499-1.652,0.959-2.729,1.491-4.055h-5.044c0.225,0.475,0.992,2.402,1.491,4.055
					c0.534,1.77,0.9,3.375,1.03,4.414C438.419,273.859,438.784,272.254,439.319,270.484z"/>
			</g>
		</g>
		
			<line fill="none" stroke="#005695" stroke-width="2" stroke-linecap="round" stroke-miterlimit="1" stroke-dasharray="3,4" x1="333.101" y1="374.586" x2="349.124" y2="374.586"/>
		
			<line fill="none" stroke="#005695" stroke-width="2" stroke-linecap="round" stroke-miterlimit="1" stroke-dasharray="3,4" x1="430.282" y1="374.586" x2="446.306" y2="374.586"/>
		<g>
			<g>
				
					<line fill="none" stroke="#005695" stroke-linecap="round" stroke-miterlimit="1" x1="438.294" y1="355.461" x2="438.294" y2="364.547"/>
				<path fill="#005695" d="M439.319,366.908c0.499-1.652,0.959-2.729,1.491-4.055h-5.044c0.225,0.475,0.992,2.402,1.491,4.055
					c0.534,1.77,0.9,3.375,1.03,4.414C438.419,370.283,438.784,368.678,439.319,366.908z"/>
			</g>
		</g>
		<g>
			<g>
				
					<line fill="none" stroke="#005695" stroke-linecap="round" stroke-miterlimit="1" x1="438.294" y1="310.617" x2="438.294" y2="322.42"/>
				<path fill="#005695" d="M439.319,324.781c0.499-1.652,0.959-2.729,1.491-4.055h-5.044c0.225,0.475,0.992,2.402,1.491,4.055
					c0.534,1.77,0.9,3.375,1.03,4.414C438.419,328.156,438.784,326.551,439.319,324.781z"/>
			</g>
		</g>
		<g>
			<g>
				
					<line fill="none" stroke="#005695" stroke-linecap="round" stroke-miterlimit="1" x1="341.112" y1="355.15" x2="341.112" y2="364.547"/>
				<path fill="#005695" d="M342.138,366.908c0.499-1.652,0.959-2.729,1.491-4.055h-5.044c0.225,0.475,0.992,2.402,1.491,4.055
					c0.534,1.77,0.9,3.375,1.03,4.414C341.237,370.283,341.603,368.678,342.138,366.908z"/>
			</g>
		</g>
		<g>
			<g>
				
					<line fill="none" stroke="#005695" stroke-linecap="round" stroke-miterlimit="1" x1="341.112" y1="310.617" x2="341.112" y2="322.42"/>
				<path fill="#005695" d="M342.138,324.781c0.499-1.652,0.959-2.729,1.491-4.055h-5.044c0.225,0.475,0.992,2.402,1.491,4.055
					c0.534,1.77,0.9,3.375,1.03,4.414C341.237,328.156,341.603,326.551,342.138,324.781z"/>
			</g>
		</g>
		
			<rect x="300.612" y="275.178" fill="#B2CEE7" stroke="#010101" stroke-width="0.75" stroke-linecap="round" stroke-linejoin="round" stroke-miterlimit="1" width="81" height="36"/>
		<g>
			<text transform="matrix(0.8902 0 0 1 324.0928 285.8086)"><tspan x="0" y="0" font-size="8">Composite</tspan><tspan x="5.335" y="9.6" font-size="8">Feature</tspan><tspan x="4.899" y="19.2" font-size="8">(CODE)</tspan></text>
		</g>
		
			<rect x="397.794" y="275.178" fill="#B2CEE7" stroke="#010101" stroke-width="0.75" stroke-linecap="round" stroke-linejoin="round" stroke-miterlimit="1" width="81" height="36"/>
		<g>
			<text transform="matrix(0.8902 0 0 1 417.5088 285.8086)"><tspan x="0" y="0" font-size="8">Single Image</tspan><tspan x="10.228" y="9.6" font-size="8">Finding</tspan><tspan x="9.127" y="19.2" font-size="8">(CODE)</tspan></text>
		</g>
		<g>
			
				<polygon fill="#CCDEF0" stroke="#010101" stroke-width="0.75" stroke-linecap="round" stroke-linejoin="round" stroke-miterlimit="1" points="
				394.224,245.828 438.259,232.654 482.364,246.254 482.364,246.285 438.21,259.648 			"/>
		</g>
		<text transform="matrix(0.8902 0 0 1 412.3301 248.0986)" font-size="7">INFERRED FROM</text>
		
			<polygon fill="#CCDEF0" stroke="#010101" stroke-width="0.75" stroke-linecap="round" stroke-linejoin="round" stroke-miterlimit="1" points="
			297.047,245.828 341.074,232.654 385.178,246.254 385.178,246.285 341.027,259.648 		"/>
		<text transform="matrix(0.8902 0 0 1 315.1484 248.0986)" font-size="7">INFERRED FROM</text>
		
			<polygon fill="#CCDEF0" stroke="#010101" stroke-width="0.75" stroke-linecap="round" stroke-linejoin="round" stroke-miterlimit="1" points="
			265.495,160.812 305.524,147.638 345.614,161.238 345.614,161.269 305.481,174.632 		"/>
		<text transform="matrix(0.8902 0 0 1 279.5938 163.083)" font-size="7">INFERRED FROM</text>
		
			<polygon fill="#CCDEF0" stroke="#010101" stroke-width="0.75" stroke-linecap="round" stroke-linejoin="round" stroke-miterlimit="1" points="
			182.286,160.812 222.312,147.638 262.405,161.238 262.405,161.269 222.27,174.632 		"/>
		<text transform="matrix(0.8902 0 0 1 196.3818 163.083)" font-size="7">INFERRED FROM</text>
		
			<polygon fill="#CCDEF0" stroke="#010101" stroke-width="0.75" stroke-linecap="round" stroke-linejoin="round" stroke-miterlimit="1" points="
			265.495,75.422 305.524,62.248 345.614,75.848 345.614,75.879 305.481,89.243 		"/>
		<text transform="matrix(0.8902 0 0 1 289.459 77.6938)" font-size="7">CONTAINS</text>
		
			<polygon fill="#CCDEF0" stroke="#010101" stroke-width="0.75" stroke-linecap="round" stroke-linejoin="round" stroke-miterlimit="1" points="
			349.646,75.422 389.675,62.248 429.765,75.848 429.765,75.879 389.632,89.243 		"/>
		<text transform="matrix(0.8902 0 0 1 373.6074 77.6938)" font-size="7">CONTAINS</text>
		
			<polygon fill="#CCDEF0" stroke="#010101" stroke-width="0.75" stroke-linecap="round" stroke-linejoin="round" stroke-miterlimit="1" points="
			61.251,75.422 101.277,62.248 141.37,75.848 141.37,75.879 101.234,89.243 		"/>
		<text transform="matrix(0.8902 0 0 1 85.2109 77.6938)" font-size="7">CONTAINS</text>
		
			<polygon fill="#CCDEF0" stroke="#010101" stroke-width="0.75" stroke-linecap="round" stroke-linejoin="round" stroke-miterlimit="1" points="
			112.046,160.635 144.066,151.85 176.141,160.918 176.141,160.94 144.033,169.85 		"/>
		<text transform="matrix(0.8902 0 0 1 127.9932 162.7974)" font-size="7">CONTAINS</text>
		
			<polygon fill="#CCDEF0" stroke="#010101" stroke-width="0.75" stroke-linecap="round" stroke-linejoin="round" stroke-miterlimit="1" points="
			28.083,160.634 60.105,151.85 92.179,160.918 92.179,160.939 60.069,169.85 		"/>
		<text transform="matrix(0.8902 0 0 1 44.0303 162.7974)" font-size="7">CONTAINS</text>
		
			<polygon fill="#CCDEF0" stroke="#010101" stroke-width="0.75" stroke-linecap="round" stroke-linejoin="round" stroke-miterlimit="1" points="
			182.286,75.422 222.312,62.248 262.405,75.848 262.405,75.879 222.27,89.243 		"/>
		<text transform="matrix(0.8902 0 0 1 206.2466 77.6938)" font-size="7">CONTAINS</text>
	</g>
</g>
</svg>
