<?xml version="1.0" encoding="utf-8"?>
<!-- $Source: /home/bbennett/pass/archive/DicomXml/docbook/part17/figures/PS3.17_T.5-1.svg,v $ -->
<!-- $Date: 2014/05/09 12:31:57 $ -->
<!-- $Revision: 1.2 $ -->

<!DOCTYPE svg PUBLIC "-//W3C//DTD SVG 1.1//EN" "http://www.w3.org/Graphics/SVG/1.1/DTD/svg11.dtd">
<svg version="1.1" id="Layer_1" xmlns="http://www.w3.org/2000/svg" xmlns:xlink="http://www.w3.org/1999/xlink" x="0px" y="0px"
	 width="502px" height="172px" viewBox="0 0 502 172" enable-background="new 0 0 502 172" xml:space="preserve">

<defs>
	<style type="text/css">
	text {
	  font-family: Helvetica, Verdana, ArialUnicodeMS, san-serif
	}
	</style>
</defs>

<g>
   <desc>
	PS 3.17 Part 17: Explanatory Information
   </desc>
</g>

<g>
	<rect x="1" y="1" fill="#F5EED6" width="500" height="170"/>
	<g>
		<rect x="125.04" y="77.603" fill="#CCDEF0" stroke="#000000" width="360" height="44.5"/>
		<line fill="#CCDEF0" stroke="#000000" x1="449.005" y1="77.603" x2="449.005" y2="122.103"/>
		<line fill="#CCDEF0" stroke="#000000" x1="413.058" y1="77.603" x2="413.058" y2="122.103"/>
		<line fill="#CCDEF0" stroke="#000000" x1="377.022" y1="77.603" x2="377.022" y2="122.103"/>
		<line fill="#CCDEF0" stroke="#000000" x1="341.075" y1="77.603" x2="341.075" y2="122.103"/>
		<line fill="#CCDEF0" stroke="#000000" x1="305.04" y1="77.603" x2="305.04" y2="122.103"/>
		<line fill="#CCDEF0" stroke="#000000" x1="269.005" y1="77.603" x2="269.005" y2="122.103"/>
		<line fill="#CCDEF0" stroke="#000000" x1="233.058" y1="77.603" x2="233.058" y2="122.103"/>
		<line fill="#CCDEF0" stroke="#000000" x1="197.022" y1="77.603" x2="197.022" y2="122.103"/>
		<line fill="#CCDEF0" stroke="#000000" x1="161.075" y1="77.603" x2="161.075" y2="122.103"/>
		<text transform="matrix(0.9288 0 0 1 125.04 73.9668)" font-size="10">0</text>
		<text transform="matrix(0.9288 0 0 1 161.0752 73.9668)" font-size="10">1</text>
		<text transform="matrix(0.9288 0 0 1 197.1104 73.9668)" font-size="10">2</text>
		<text transform="matrix(0.9288 0 0 1 233.1455 73.9668)" font-size="10">3</text>
		<text transform="matrix(0.9288 0 0 1 295.2344 153.3672)" font-size="10">MLD</text>
		<text transform="matrix(0.9288 0 0 1 305.2158 73.9668)" font-size="10">...</text>
		<text transform="matrix(0.9288 0 0 1 449.3564 73.9668)" font-size="10">n</text>
		<polygon opacity="0.75" fill="#C1272D" stroke="#000000" points="485.04,117.853 125.04,117.853 125.04,81.853 287.04,81.853 
			305.04,96.251 323.04,81.853 485.04,81.853 		"/>
		<line fill="none" stroke="#003468" stroke-width="2" x1="305.04" y1="58.103" x2="305.04" y2="141.603"/>
		<g>
			<text transform="matrix(0.9288 0 0 1 66.8403 130.0557)" font-size="14">artery</text>
		</g>
		<g>
			<text transform="matrix(0.9288 0 0 1 16.9604 27.7437)" font-size="14">pixel elements</text>
		</g>
		<polyline fill="none" stroke="#003468" stroke-miterlimit="1" points="103.053,126.476 114.523,126.476 143.396,100.198 		"/>
		<polyline fill="none" stroke="#003468" stroke-miterlimit="1" points="103.053,24.476 114.523,24.476 146.045,76.735 		"/>
		<line fill="none" stroke="#003468" stroke-miterlimit="1" x1="114.523" y1="24.476" x2="178.04" y2="76.735"/>
		<line fill="none" stroke="#003468" stroke-miterlimit="1" x1="114.523" y1="24.476" x2="213.596" y2="76.735"/>
	</g>
</g>
</svg>
