<?xml version="1.0" encoding="utf-8"?>
<!-- $Source: /home/bbennett/pass/archive/DicomXml/docbook/part17/figures/PS3.17_FFF.2.3-3.svg,v $ -->
<!-- $Date: 2014/05/09 13:15:43 $ -->
<!-- $Revision: 1.1 $ -->

<!DOCTYPE svg PUBLIC "-//W3C//DTD SVG 1.1//EN" "http://www.w3.org/Graphics/SVG/1.1/DTD/svg11.dtd">
<svg version="1.1" id="Layer_1" xmlns="http://www.w3.org/2000/svg" xmlns:xlink="http://www.w3.org/1999/xlink" x="0px" y="0px"
	 width="502.001px" height="212px" viewBox="0 0 502.001 212" enable-background="new 0 0 502.001 212" xml:space="preserve">

<defs>
	<style type="text/css">
	text {
	  font-family: Helvetica, Verdana, ArialUnicodeMS, san-serif
	}
	</style>
</defs>

<g>
   <desc>
	PS 3.17 Part 17: Explanatory Information
   </desc>
</g>

<g>
	<rect x="1" y="1" fill="#F5EED6" width="500.001" height="210"/>
	<g>
		
			<rect x="54.338" y="15.493" fill="#B2CEE7" stroke="#010101" stroke-width="0.75" stroke-linecap="round" stroke-linejoin="round" stroke-miterlimit="1" width="257.889" height="97.183"/>
		<rect x="320.813" y="18.965" fill="none" width="126.849" height="176.279"/>
		<text transform="matrix(0.9288 0 0 1 320.8135 52.6914)"><tspan x="0" y="0" font-size="8">= AVG_SUB</tspan><tspan x="0" y="14" font-size="8">= 100</tspan><tspan x="0" y="28" font-size="8">= 2\3</tspan><tspan x="0" y="42" font-size="8">= 1</tspan><tspan x="0" y="56" font-size="8">= Default Subtraction</tspan><tspan x="0" y="84" font-size="8">All the frames</tspan><tspan x="0" y="126" font-size="8">= 100</tspan><tspan x="0" y="140" font-size="8">= -0.3\2.0</tspan></text>
		
			<rect x="54.338" y="112.677" fill="#B2CEE7" stroke="#010101" stroke-width="0.75" stroke-linecap="round" stroke-linejoin="round" stroke-miterlimit="1" width="257.904" height="83.83"/>
		
			<rect x="69.448" y="126.605" fill="#86B2D8" stroke="#010101" stroke-width="0.75" stroke-linecap="round" stroke-linejoin="round" stroke-miterlimit="1" width="242.794" height="69.897"/>
		<rect x="58.478" y="116.121" fill="none" width="141.988" height="7.715"/>
		<text transform="matrix(0.9288 0 0 1 58.478 121.8457)" font-size="8">Shared Functional Group Sequence</text>
		<rect x="73.719" y="130.541" fill="none" width="127.729" height="7.721"/>
		<text transform="matrix(0.9288 0 0 1 73.7188 136.2637)" font-size="8">Item 1</text>
		<rect x="256.338" y="116.107" fill="none" width="44.984" height="7.717"/>
		<text transform="matrix(0.9288 0 0 1 256.3379 121.834)" font-size="8">(5200,9229)</text>
		
			<rect x="84.578" y="140.536" fill="#FFFFFF" stroke="#010101" stroke-width="0.75" stroke-linecap="round" stroke-linejoin="round" stroke-miterlimit="1" width="227.664" height="55.85"/>
		
			<rect x="99.705" y="154.487" fill="#86B2D8" stroke="#010101" stroke-width="0.75" stroke-linecap="round" stroke-linejoin="round" stroke-miterlimit="1" width="212.537" height="42.02"/>
		
			<rect x="114.833" y="168.438" fill="#FFFFFF" stroke="#010101" stroke-width="0.75" stroke-linecap="round" stroke-linejoin="round" stroke-miterlimit="1" width="197.409" height="13.995"/>
		
			<rect x="114.833" y="182.387" fill="#FFFFFF" stroke="#010101" stroke-width="0.75" stroke-linecap="round" stroke-linejoin="round" stroke-miterlimit="1" width="197.409" height="13.996"/>
		<rect x="92.036" y="145.229" fill="none" width="108.83" height="7.717"/>
		<text transform="matrix(0.9288 0 0 1 92.0361 150.9473)" font-size="8">&gt;Frame Pixel Shift Sequence</text>
		<rect x="122.292" y="173.061" fill="none" width="136.58" height="7.717"/>
		<text transform="matrix(0.9288 0 0 1 122.2915 178.7793)" font-size="8">&gt;&gt;Subtraction Item ID</text>
		<rect x="256.338" y="145.229" fill="none" width="44.984" height="7.717"/>
		<text transform="matrix(0.9288 0 0 1 256.3379 150.9502)" font-size="8">(0028,9415)</text>
		<rect x="256.74" y="173.061" fill="none" width="44.582" height="7.717"/>
		<text transform="matrix(0.9288 0 0 1 256.7402 178.7832)" font-size="8">(0028,9416)</text>
		<rect x="107.164" y="159.146" fill="none" width="136.58" height="7.717"/>
		<text transform="matrix(0.9288 0 0 1 107.1636 164.8613)" font-size="8">Item 1</text>
		<rect x="122.292" y="186.971" fill="none" width="158.965" height="7.717"/>
		<text transform="matrix(0.9288 0 0 1 122.292 192.7031)" font-size="8">&gt;&gt;Mask Sub-pixel Shift</text>
		<rect x="256.338" y="186.971" fill="none" width="44.984" height="7.717"/>
		<text transform="matrix(0.9288 0 0 1 256.3379 192.7012)" font-size="8">(0028,6114)</text>
		
			<rect x="69.448" y="29.491" fill="#86B2D8" stroke="#010101" stroke-width="0.75" stroke-linecap="round" stroke-linejoin="round" stroke-miterlimit="1" width="242.794" height="83.186"/>
		
			<rect x="84.576" y="43.131" fill="#FFFFFF" stroke="#010101" stroke-width="0.75" stroke-linecap="round" stroke-linejoin="round" stroke-miterlimit="1" width="227.65" height="14"/>
		<rect x="92.036" y="47.719" fill="none" width="158.964" height="7.717"/>
		<text transform="matrix(0.9288 0 0 1 92.0356 53.4453)" font-size="8">&gt;Mask Operation</text>
		<rect x="256.338" y="47.72" fill="none" width="44.984" height="7.716"/>
		<text transform="matrix(0.9288 0 0 1 256.3379 53.4463)" font-size="8">(0028,6101)</text>
		<rect x="256.338" y="18.965" fill="none" width="44.984" height="7.716"/>
		<text transform="matrix(0.9288 0 0 1 256.3379 24.6909)" font-size="8">(0028,6100)</text>
		
			<rect x="84.577" y="56.819" fill="#FFFFFF" stroke="#010101" stroke-width="0.75" stroke-linecap="round" stroke-linejoin="round" stroke-miterlimit="1" width="227.665" height="14"/>
		
			<rect x="84.576" y="70.771" fill="#FFFFFF" stroke="#010101" stroke-width="0.75" stroke-linecap="round" stroke-linejoin="round" stroke-miterlimit="1" width="227.65" height="14"/>
		
			<rect x="84.576" y="84.725" fill="#FFFFFF" stroke="#010101" stroke-width="0.75" stroke-linecap="round" stroke-linejoin="round" stroke-miterlimit="1" width="227.65" height="14"/>
		
			<rect x="84.576" y="98.677" fill="#FFFFFF" stroke="#010101" stroke-width="0.75" stroke-linecap="round" stroke-linejoin="round" stroke-miterlimit="1" width="227.65" height="14"/>
		<rect x="92.036" y="61.515" fill="none" width="108.83" height="7.717"/>
		<text transform="matrix(0.9288 0 0 1 92.0356 67.2358)" font-size="8">&gt;Subtraction Item ID</text>
		<rect x="92.035" y="89.348" fill="none" width="136.58" height="7.717"/>
		<text transform="matrix(0.9288 0 0 1 92.0352 95.0679)" font-size="8">&gt;Mask Frame Numbers</text>
		<rect x="73.719" y="34.077" fill="none" width="127.729" height="7.721"/>
		<text transform="matrix(0.9288 0 0 1 73.7188 39.8022)" font-size="8">Item 1</text>
		<rect x="256.338" y="61.515" fill="none" width="44.984" height="7.717"/>
		<text transform="matrix(0.9288 0 0 1 256.3379 67.2383)" font-size="8">(0028,9416)</text>
		<rect x="256.74" y="89.348" fill="none" width="44.582" height="7.717"/>
		<text transform="matrix(0.9288 0 0 1 256.7402 95.0718)" font-size="8">(0028,6110)</text>
		<rect x="92.035" y="75.432" fill="none" width="136.58" height="7.717"/>
		<text transform="matrix(0.9288 0 0 1 92.0352 81.1499)" font-size="8">&gt;Applicable Frame Range</text>
		<rect x="256.74" y="75.432" fill="none" width="44.582" height="7.717"/>
		<text transform="matrix(0.9288 0 0 1 256.7402 81.1553)" font-size="8">(0028,6102)</text>
		<rect x="92.036" y="103.265" fill="none" width="158.964" height="7.717"/>
		<text transform="matrix(0.9288 0 0 1 92.0356 108.9902)" font-size="8">&gt;Mask Operation Explanation</text>
		<rect x="256.338" y="103.266" fill="none" width="44.984" height="7.716"/>
		<text transform="matrix(0.9288 0 0 1 256.3379 108.9883)" font-size="8">(0028,6190)</text>
		<rect x="58.478" y="18.965" fill="none" width="164.902" height="7.717"/>
		<text transform="matrix(0.9288 0 0 1 58.478 24.6904)" font-size="8">Mask Subtraction Sequence</text>
	</g>
</g>
</svg>
