<?xml version="1.0" encoding="utf-8"?>
<!-- $Source: /home/bbennett/pass/archive/DicomXml/docbook/part17/figures/PS3.17_X.1-1.svg,v $ -->
<!-- $Date: 2014/05/09 12:31:56 $ -->
<!-- $Revision: 1.2 $ -->

<!DOCTYPE svg PUBLIC "-//W3C//DTD SVG 1.1//EN" "http://www.w3.org/Graphics/SVG/1.1/DTD/svg11.dtd">
<svg version="1.1" id="Layer_1" xmlns="http://www.w3.org/2000/svg" xmlns:xlink="http://www.w3.org/1999/xlink" x="0px" y="0px"
	 width="502px" height="177px" viewBox="0 0 502 177" enable-background="new 0 0 502 177" xml:space="preserve">

<defs>
	<style type="text/css">
	text {
	  font-family: Helvetica, Verdana, ArialUnicodeMS, san-serif
	}
	</style>
</defs>

<g>
   <desc>
	PS 3.17 Part 17: Explanatory Information
   </desc>
</g>

<g>
	<rect x="1" y="1" fill="#F5EED6" width="500" height="175"/>
	<g>
		<g>
			<g>
				
					<line fill="none" stroke="#003468" stroke-width="2" stroke-linecap="round" stroke-miterlimit="1" x1="419.461" y1="78.083" x2="419.461" y2="95.778"/>
				<path fill="#003468" d="M421.511,100.502c0.999-3.307,1.919-5.456,2.983-8.108h-10.089c0.451,0.949,1.985,4.802,2.983,8.108
					c1.069,3.539,1.801,6.748,2.062,8.829C419.711,107.25,420.442,104.041,421.511,100.502z"/>
			</g>
		</g>
		<g>
			<g>
				
					<line fill="none" stroke="#003468" stroke-width="2" stroke-linecap="round" stroke-miterlimit="1" x1="85.324" y1="106.579" x2="85.324" y2="92.179"/>
				<path fill="#003468" d="M83.274,87.455c-0.999,3.307-1.919,5.456-2.983,8.108h10.089c-0.451-0.949-1.985-4.802-2.983-8.108
					c-1.069-3.539-1.801-6.748-2.062-8.829C85.074,80.707,84.342,83.916,83.274,87.455z"/>
			</g>
		</g>
		<g>
			<g>
				
					<line fill="none" stroke="#003468" stroke-width="2" stroke-linecap="round" stroke-miterlimit="1" x1="355.258" y1="47.058" x2="384.969" y2="47.058"/>
				<path fill="#003468" d="M389.692,45.008c-3.307-0.999-5.456-1.919-8.108-2.983v10.089c0.949-0.451,4.802-1.985,8.108-2.983
					c3.539-1.069,6.748-1.801,8.829-2.062C396.44,46.808,393.231,46.076,389.692,45.008z"/>
			</g>
		</g>
		<g>
			<g>
				
					<line fill="none" stroke="#003468" stroke-width="2" stroke-linecap="round" stroke-miterlimit="1" x1="257.316" y1="47.058" x2="284.318" y2="47.058"/>
				<path fill="#003468" d="M289.042,45.008c-3.307-0.999-5.456-1.919-8.108-2.983v10.089c0.949-0.451,4.802-1.985,8.108-2.983
					c3.539-1.069,6.748-1.801,8.829-2.062C295.79,46.808,292.581,46.076,289.042,45.008z"/>
			</g>
		</g>
		<g>
			<g>
				
					<line fill="none" stroke="#003468" stroke-width="2" stroke-linecap="round" stroke-miterlimit="1" x1="185.72" y1="47.058" x2="200.12" y2="47.058"/>
				<path fill="#003468" d="M204.843,45.008c-3.307-0.999-5.456-1.919-8.108-2.983v10.089c0.949-0.451,4.802-1.985,8.108-2.983
					c3.539-1.069,6.748-1.801,8.829-2.062C211.591,46.808,208.382,46.076,204.843,45.008z"/>
			</g>
		</g>
		<g>
			<g>
				
					<line fill="none" stroke="#003468" stroke-width="2" stroke-linecap="round" stroke-miterlimit="1" x1="115.123" y1="47.058" x2="129.523" y2="47.058"/>
				<path fill="#003468" d="M134.247,45.008c-3.307-0.999-5.456-1.919-8.108-2.983v10.089c0.949-0.451,4.802-1.985,8.108-2.983
					c3.539-1.069,6.748-1.801,8.829-2.062C140.995,46.808,137.786,46.076,134.247,45.008z"/>
			</g>
		</g>
		<path fill="#CCDEF0" stroke="#010101" d="M58.332,111.089c0-2.273,12.089-4.113,27.001-4.113c14.909,0,26.999,1.84,26.999,4.113
			c0,2.268-12.09,4.107-26.999,4.107C70.42,115.196,58.332,113.356,58.332,111.089z"/>
		<path fill="#CCDEF0" stroke="#010101" d="M112.332,111.04c0,2.27-12.09,4.109-26.999,4.109c-14.912,0-27.001-1.84-27.001-4.109
			v45.826c0,2.27,12.089,4.109,27.001,4.109c14.909,0,26.999-1.84,26.999-4.109V111.04z"/>
		<g>
			<text transform="matrix(1 0 0 1 74.207 131.3145)"><tspan x="0" y="0" font-size="8">Image</tspan><tspan x="-8.002" y="8.75" font-size="8">Repository</tspan></text>
		</g>
		<path fill="#CCDEF0" stroke="#010101" d="M392.461,111.087c0-2.271,12.088-4.111,27-4.111c14.91,0,27,1.84,27,4.111
			c0,2.268-12.09,4.107-27,4.107C404.549,115.194,392.461,113.354,392.461,111.087z"/>
		<path fill="#CCDEF0" stroke="#010101" d="M446.461,111.04c0,2.27-12.09,4.109-27,4.109c-14.912,0-27-1.84-27-4.109v45.826
			c0,2.27,12.088,4.109,27,4.109c14.91,0,27-1.84,27-4.109V111.04z"/>
		<g>
			<text transform="matrix(1 0 0 1 407.4453 131.3223)"><tspan x="0" y="0" font-size="8">Report</tspan><tspan x="-7.113" y="8.751" font-size="8">Repository</tspan></text>
		</g>
		<rect x="56.497" y="27.683" fill="#CCCCCC" stroke="#000000" stroke-linejoin="round" width="57.67" height="37.857"/>
		<rect x="58.409" y="29.593" fill="#005695" stroke="#000000" stroke-linejoin="round" width="53.846" height="33.346"/>
		<polygon fill="#CCCCCC" stroke="#000000" stroke-linejoin="round" points="95.233,76.437 92.731,74.622 91.434,65.54 79.23,65.54 
			77.936,74.62 75.431,76.437 75.431,78.083 95.233,78.083 		"/>
		<line fill="#808080" stroke="#000000" stroke-linejoin="round" x1="77.934" y1="74.62" x2="92.729" y2="74.622"/>
		<g>
			<text transform="matrix(1 0 0 1 55.54 23.1128)" font-size="8">Softcopy Review</text>
		</g>
		<rect x="297.588" y="27.683" fill="#CCCCCC" stroke="#000000" stroke-linejoin="round" width="57.67" height="37.857"/>
		<rect x="299.502" y="29.593" fill="#005695" stroke="#000000" stroke-linejoin="round" width="53.844" height="33.348"/>
		<polygon fill="#CCCCCC" stroke="#000000" stroke-linejoin="round" points="336.324,76.437 333.822,74.622 332.525,65.54 
			320.322,65.54 319.027,74.62 316.523,76.437 316.523,78.083 336.324,78.083 		"/>
		<line fill="#808080" stroke="#000000" stroke-linejoin="round" x1="319.027" y1="74.62" x2="333.822" y2="74.622"/>
		<g>
			<text transform="matrix(1 0 0 1 285.957 23.1211)" font-size="8">Correction &amp; Signature</text>
		</g>
		<g>
			<text transform="matrix(1 0 0 1 212.7197 23.1128)" font-size="8">Transcription</text>
		</g>
		<polygon fill="#FFFFFF" stroke="#000000" stroke-linecap="round" stroke-linejoin="round" points="257.316,37.003 257.316,78.083 
			214.361,78.083 214.361,27.683 247.87,27.683 		"/>
		<path id="path15570" fill="#A7A9AC" fill-opacity="0.5497" d="M219.336,60.034c0,0.561-0.454,1.01-1.014,1.01
			c-0.556,0-1.01-0.449-1.01-1.01c0-0.555,0.454-1.008,1.01-1.008C218.882,59.026,219.336,59.479,219.336,60.034z"/>
		<path id="path15577" fill="#A7A9AC" fill-opacity="0.5497" d="M219.336,45.89c0,0.559-0.454,1.014-1.014,1.014
			c-0.556,0-1.01-0.455-1.01-1.014c0-0.561,0.454-1.01,1.01-1.01C218.882,44.88,219.336,45.335,219.336,45.89z"/>
		<path id="rect15686" fill="#A7A9AC" fill-opacity="0.5497" d="M226.104,34.276h24.295c0.094,0,0.17,0.037,0.17,0.08v1.072
			c0,0.043-0.076,0.082-0.17,0.082h-24.295c-0.094,0-0.17-0.039-0.17-0.082v-1.072C225.934,34.313,226.01,34.276,226.104,34.276z"/>
		<path id="rect15688" fill="#A7A9AC" fill-opacity="0.5497" d="M226.104,36.741h24.295c0.094,0,0.17,0.035,0.17,0.076v1.074
			c0,0.045-0.076,0.08-0.17,0.08h-24.295c-0.094,0-0.17-0.035-0.17-0.08v-1.074C225.934,36.776,226.01,36.741,226.104,36.741z"/>
		<path id="rect15690" fill="#A7A9AC" fill-opacity="0.5497" d="M226.104,39.204h24.295c0.094,0,0.17,0.035,0.17,0.08v1.068
			c0,0.047-0.076,0.082-0.17,0.082h-24.295c-0.094,0-0.17-0.035-0.17-0.082v-1.068C225.934,39.239,226.01,39.204,226.104,39.204z"/>
		<path id="rect15692" fill="#A7A9AC" fill-opacity="0.5497" d="M226.104,41.665h24.295c0.094,0,0.17,0.035,0.17,0.082v1.072
			c0,0.043-0.076,0.078-0.17,0.078h-24.295c-0.094,0-0.17-0.035-0.17-0.078v-1.072C225.934,41.7,226.01,41.665,226.104,41.665z"/>
		<path id="rect15694" fill="#A7A9AC" fill-opacity="0.5497" d="M226.104,44.128h24.295c0.094,0,0.17,0.039,0.17,0.082v1.072
			c0,0.041-0.076,0.08-0.17,0.08h-24.295c-0.094,0-0.17-0.039-0.17-0.08V44.21C225.934,44.167,226.01,44.128,226.104,44.128z"/>
		<path id="rect15696" fill="#A7A9AC" fill-opacity="0.5497" d="M226.104,46.595h24.295c0.094,0,0.17,0.035,0.17,0.08v1.068
			c0,0.047-0.076,0.082-0.17,0.082h-24.295c-0.094,0-0.17-0.035-0.17-0.082v-1.068C225.934,46.63,226.01,46.595,226.104,46.595z"/>
		<path id="rect15698" fill="#A7A9AC" fill-opacity="0.5497" d="M226.104,49.056h24.295c0.094,0,0.17,0.035,0.17,0.082v1.068
			c0,0.045-0.076,0.082-0.17,0.082h-24.295c-0.094,0-0.17-0.037-0.17-0.082v-1.068C225.934,49.091,226.01,49.056,226.104,49.056z"/>
		<path id="rect15700" fill="#A7A9AC" fill-opacity="0.5497" d="M226.104,51.519h24.295c0.094,0,0.17,0.039,0.17,0.082v1.07
			c0,0.043-0.076,0.078-0.17,0.078h-24.295c-0.094,0-0.17-0.035-0.17-0.078v-1.07C225.934,51.558,226.01,51.519,226.104,51.519z"/>
		<path id="rect15690_17_" fill="#A7A9AC" fill-opacity="0.5497" d="M226.104,53.896h24.295c0.094,0,0.17,0.037,0.17,0.082v1.068
			c0,0.047-0.076,0.082-0.17,0.082h-24.295c-0.094,0-0.17-0.035-0.17-0.082v-1.068C225.934,53.933,226.01,53.896,226.104,53.896z"/>
		<path id="rect15692_17_" fill="#A7A9AC" fill-opacity="0.5497" d="M226.104,56.358h24.295c0.094,0,0.17,0.035,0.17,0.082v1.072
			c0,0.041-0.076,0.076-0.17,0.076h-24.295c-0.094,0-0.17-0.035-0.17-0.076V56.44C225.934,56.394,226.01,56.358,226.104,56.358z"/>
		<path id="rect15694_17_" fill="#A7A9AC" fill-opacity="0.5497" d="M226.104,58.821h24.295c0.094,0,0.17,0.039,0.17,0.08v1.072
			c0,0.043-0.076,0.082-0.17,0.082h-24.295c-0.094,0-0.17-0.039-0.17-0.082v-1.072C225.934,58.86,226.01,58.821,226.104,58.821z"/>
		<path id="rect15696_17_" fill="#A7A9AC" fill-opacity="0.5497" d="M226.104,61.286h24.295c0.094,0,0.17,0.037,0.17,0.082v1.068
			c0,0.047-0.076,0.082-0.17,0.082h-24.295c-0.094,0-0.17-0.035-0.17-0.082v-1.068C225.934,61.323,226.01,61.286,226.104,61.286z"/>
		<path id="rect15698_17_" fill="#A7A9AC" fill-opacity="0.5497" d="M226.104,63.749h24.295c0.094,0,0.17,0.035,0.17,0.082v1.068
			c0,0.045-0.076,0.082-0.17,0.082h-24.295c-0.094,0-0.17-0.037-0.17-0.082v-1.068C225.934,63.784,226.01,63.749,226.104,63.749z"/>
		<path id="rect15700_17_" fill="#A7A9AC" fill-opacity="0.5497" d="M226.104,66.212h24.295c0.094,0,0.17,0.039,0.17,0.08v1.072
			c0,0.043-0.076,0.078-0.17,0.078h-24.295c-0.094,0-0.17-0.035-0.17-0.078v-1.072C225.934,66.251,226.01,66.212,226.104,66.212z"/>
		<path id="rect15732_9_" fill="#A7A9AC" fill-opacity="0.5497" d="M226.01,68.677h10.932c0.041,0,0.076,0.035,0.076,0.078v1.072
			c0,0.047-0.035,0.082-0.076,0.082H226.01c-0.041,0-0.076-0.035-0.076-0.082v-1.072C225.934,68.712,225.969,68.677,226.01,68.677z"
			/>
		
			<radialGradient id="text4327_2_" cx="237.2212" cy="-138.2271" r="2.5445" gradientTransform="matrix(1 0 0 -0.5894 0 -7.5504)" gradientUnits="userSpaceOnUse">
			<stop  offset="0" style="stop-color:#4A7EC0"/>
			<stop  offset="1" style="stop-color:#2E5990"/>
		</radialGradient>
		<path id="text4327" fill="url(#text4327_2_)" d="M235.78,73.302l-0.832,1.234h0.832V73.302 M235.653,72.677h0.845v1.859h0.421
			v0.551h-0.421v0.537h-0.718v-0.537h-1.307v-0.652L235.653,72.677 M238.266,75.065h1.295v0.559h-2.14v-0.559l1.075-0.949
			c0.096-0.088,0.168-0.172,0.215-0.256c0.045-0.082,0.068-0.168,0.068-0.258c0-0.139-0.047-0.25-0.141-0.334
			c-0.092-0.084-0.215-0.125-0.369-0.125c-0.117,0-0.246,0.023-0.388,0.076c-0.14,0.051-0.292,0.125-0.452,0.225v-0.646
			c0.17-0.057,0.341-0.1,0.507-0.129c0.167-0.029,0.331-0.045,0.489-0.045c0.354,0,0.629,0.078,0.824,0.232
			c0.195,0.156,0.291,0.371,0.291,0.65c0,0.158-0.039,0.311-0.123,0.449c-0.082,0.139-0.258,0.324-0.521,0.557L238.266,75.065"/>
		<radialGradient id="SVGID_1_" cx="252.498" cy="32.5" r="4.6733" gradientUnits="userSpaceOnUse">
			<stop  offset="0" style="stop-color:#FAFAFA"/>
			<stop  offset="1" style="stop-color:#BCBCBB"/>
		</radialGradient>
		<path fill="url(#SVGID_1_)" d="M247.825,37.173c0,0,5.576-2.137,9.347,0l-9.347-9.346
			C249.319,32.071,247.825,37.173,247.825,37.173z"/>
		<g>
			<text transform="matrix(1 0 0 1 393.8867 23.1211)" font-size="8">Signed Report</text>
		</g>
		<polygon fill="#FFFFFF" stroke="#000000" stroke-linecap="round" stroke-linejoin="round" points="440.939,37.005 440.939,78.083 
			397.982,78.083 397.982,27.683 431.492,27.683 		"/>
		<path id="path15570_1_" fill="#A7A9AC" fill-opacity="0.5497" d="M402.959,60.034c0,0.561-0.455,1.01-1.014,1.01
			c-0.557,0-1.01-0.449-1.01-1.01c0-0.555,0.453-1.008,1.01-1.008C402.504,59.026,402.959,59.479,402.959,60.034z"/>
		<path id="path15577_1_" fill="#A7A9AC" fill-opacity="0.5497" d="M402.959,45.89c0,0.559-0.455,1.014-1.014,1.014
			c-0.557,0-1.01-0.455-1.01-1.014c0-0.561,0.453-1.01,1.01-1.01C402.504,44.88,402.959,45.333,402.959,45.89z"/>
		<path id="rect15686_1_" fill="#A7A9AC" fill-opacity="0.5497" d="M409.727,34.276h24.295c0.092,0,0.17,0.039,0.17,0.08v1.072
			c0,0.043-0.078,0.082-0.17,0.082h-24.295c-0.094,0-0.17-0.039-0.17-0.082v-1.072C409.557,34.315,409.633,34.276,409.727,34.276z"
			/>
		<path id="rect15688_1_" fill="#A7A9AC" fill-opacity="0.5497" d="M409.727,36.741h24.295c0.092,0,0.17,0.035,0.17,0.076v1.074
			c0,0.045-0.078,0.082-0.17,0.082h-24.295c-0.094,0-0.17-0.037-0.17-0.082v-1.074C409.557,36.776,409.633,36.741,409.727,36.741z"
			/>
		<path id="rect15690_3_" fill="#A7A9AC" fill-opacity="0.5497" d="M409.727,39.204h24.295c0.092,0,0.17,0.035,0.17,0.08v1.068
			c0,0.047-0.078,0.082-0.17,0.082h-24.295c-0.094,0-0.17-0.035-0.17-0.082v-1.068C409.557,39.239,409.633,39.204,409.727,39.204z"
			/>
		<path id="rect15692_3_" fill="#A7A9AC" fill-opacity="0.5497" d="M409.727,41.665h24.295c0.092,0,0.17,0.037,0.17,0.082v1.072
			c0,0.043-0.078,0.078-0.17,0.078h-24.295c-0.094,0-0.17-0.035-0.17-0.078v-1.072C409.557,41.702,409.633,41.665,409.727,41.665z"
			/>
		<path id="rect15694_3_" fill="#A7A9AC" fill-opacity="0.5497" d="M409.727,44.128h24.295c0.092,0,0.17,0.039,0.17,0.082v1.072
			c0,0.041-0.078,0.08-0.17,0.08h-24.295c-0.094,0-0.17-0.039-0.17-0.08V44.21C409.557,44.167,409.633,44.128,409.727,44.128z"/>
		<path id="rect15696_3_" fill="#A7A9AC" fill-opacity="0.5497" d="M409.727,46.595h24.295c0.092,0,0.17,0.035,0.17,0.08v1.07
			c0,0.045-0.078,0.08-0.17,0.08h-24.295c-0.094,0-0.17-0.035-0.17-0.08v-1.07C409.557,46.63,409.633,46.595,409.727,46.595z"/>
		<path id="rect15698_3_" fill="#A7A9AC" fill-opacity="0.5497" d="M409.727,49.056h24.295c0.092,0,0.17,0.035,0.17,0.082v1.068
			c0,0.047-0.078,0.082-0.17,0.082h-24.295c-0.094,0-0.17-0.035-0.17-0.082v-1.068C409.557,49.091,409.633,49.056,409.727,49.056z"
			/>
		<path id="rect15700_3_" fill="#A7A9AC" fill-opacity="0.5497" d="M409.727,51.519h24.295c0.092,0,0.17,0.039,0.17,0.082v1.07
			c0,0.043-0.078,0.078-0.17,0.078h-24.295c-0.094,0-0.17-0.035-0.17-0.078v-1.07C409.557,51.558,409.633,51.519,409.727,51.519z"/>
		<path id="rect15690_2_" fill="#A7A9AC" fill-opacity="0.5497" d="M409.727,53.897h24.295c0.092,0,0.17,0.035,0.17,0.08v1.068
			c0,0.047-0.078,0.082-0.17,0.082h-24.295c-0.094,0-0.17-0.035-0.17-0.082v-1.068C409.557,53.933,409.633,53.897,409.727,53.897z"
			/>
		<path id="rect15692_2_" fill="#A7A9AC" fill-opacity="0.5497" d="M409.727,56.358h24.295c0.092,0,0.17,0.035,0.17,0.082v1.072
			c0,0.043-0.078,0.078-0.17,0.078h-24.295c-0.094,0-0.17-0.035-0.17-0.078V56.44C409.557,56.394,409.633,56.358,409.727,56.358z"/>
		<path id="rect15694_2_" fill="#A7A9AC" fill-opacity="0.5497" d="M409.727,58.821h24.295c0.092,0,0.17,0.039,0.17,0.08v1.072
			c0,0.043-0.078,0.082-0.17,0.082h-24.295c-0.094,0-0.17-0.039-0.17-0.082v-1.072C409.557,58.86,409.633,58.821,409.727,58.821z"/>
		<path id="rect15696_2_" fill="#A7A9AC" fill-opacity="0.5497" d="M409.727,61.286h24.295c0.092,0,0.17,0.037,0.17,0.082v1.068
			c0,0.047-0.078,0.082-0.17,0.082h-24.295c-0.094,0-0.17-0.035-0.17-0.082v-1.068C409.557,61.323,409.633,61.286,409.727,61.286z"
			/>
		<path id="rect15698_2_" fill="#A7A9AC" fill-opacity="0.5497" d="M409.727,63.749h24.295c0.092,0,0.17,0.035,0.17,0.082v1.066
			c0,0.047-0.078,0.084-0.17,0.084h-24.295c-0.094,0-0.17-0.037-0.17-0.084v-1.066C409.557,63.784,409.633,63.749,409.727,63.749z"
			/>
		<path id="rect15700_2_" fill="#A7A9AC" fill-opacity="0.5497" d="M409.727,66.212h24.295c0.092,0,0.17,0.039,0.17,0.08v1.072
			c0,0.043-0.078,0.078-0.17,0.078h-24.295c-0.094,0-0.17-0.035-0.17-0.078v-1.072C409.557,66.251,409.633,66.212,409.727,66.212z"
			/>
		<path id="rect15732_2_" fill="#A7A9AC" fill-opacity="0.5497" d="M409.633,68.677h10.932c0.041,0,0.076,0.035,0.076,0.078v1.072
			c0,0.047-0.035,0.082-0.076,0.082h-10.932c-0.041,0-0.076-0.035-0.076-0.082v-1.072C409.557,68.712,409.592,68.677,409.633,68.677
			z"/>
		
			<radialGradient id="text4327_3_" cx="420.8447" cy="-138.2271" r="2.545" gradientTransform="matrix(1 0 0 -0.5894 0 -7.5504)" gradientUnits="userSpaceOnUse">
			<stop  offset="0" style="stop-color:#4A7EC0"/>
			<stop  offset="1" style="stop-color:#2E5990"/>
		</radialGradient>
		<path id="text4327_1_" fill="url(#text4327_3_)" d="M419.402,73.302l-0.832,1.234h0.832V73.302 M419.275,72.677h0.846v1.859h0.42
			v0.551h-0.42v0.537h-0.719v-0.537h-1.307v-0.652L419.275,72.677 M421.889,75.063h1.297v0.561h-2.141v-0.561l1.076-0.947
			c0.094-0.088,0.166-0.172,0.213-0.254c0.047-0.084,0.07-0.17,0.07-0.26c0-0.139-0.049-0.25-0.143-0.334
			c-0.092-0.084-0.215-0.125-0.369-0.125c-0.117,0-0.248,0.025-0.387,0.076c-0.143,0.049-0.295,0.125-0.453,0.225v-0.646
			c0.17-0.057,0.34-0.1,0.508-0.129c0.166-0.029,0.33-0.045,0.49-0.045c0.354,0,0.627,0.076,0.822,0.232
			c0.195,0.154,0.293,0.373,0.293,0.648c0,0.16-0.041,0.312-0.125,0.451c-0.082,0.139-0.258,0.324-0.521,0.557L421.889,75.063"/>
		<radialGradient id="SVGID_2_" cx="436.1221" cy="32.501" r="4.6733" gradientUnits="userSpaceOnUse">
			<stop  offset="0" style="stop-color:#FAFAFA"/>
			<stop  offset="1" style="stop-color:#BCBCBB"/>
		</radialGradient>
		<path fill="url(#SVGID_2_)" d="M431.449,37.175c0,0,5.574-2.139,9.346,0l-9.346-9.348
			C432.941,32.071,431.449,37.175,431.449,37.175z"/>
		<g>
			<text transform="matrix(1 0 0 1 148.3584 23.1133)" font-size="8">Dictation</text>
		</g>
		<rect x="142.124" y="34.126" fill="#CCDEF0" stroke="#000000" stroke-linejoin="round" width="43.597" height="27"/>
		<path d="M153.207,40.489c-3.943,0-7.139,3.195-7.139,7.137s3.195,7.137,7.139,7.137c3.941,0,7.136-3.195,7.136-7.137
			S157.148,40.489,153.207,40.489z M153.207,53.528c-3.262,0-5.904-2.643-5.904-5.902s2.643-5.904,5.904-5.904
			c3.259,0,5.901,2.645,5.901,5.904S156.465,53.528,153.207,53.528z"/>
		<path d="M174.637,40.489c-3.943,0-7.139,3.195-7.139,7.137s3.195,7.137,7.139,7.137c3.941,0,7.138-3.195,7.138-7.137
			S178.579,40.489,174.637,40.489z M174.637,53.528c-3.262,0-5.903-2.643-5.903-5.902s2.642-5.904,5.903-5.904
			c3.259,0,5.901,2.645,5.901,5.904S177.896,53.528,174.637,53.528z"/>
		<rect x="153.207" y="53.528" width="21.431" height="1.234"/>
		
			<ellipse transform="matrix(-0.8894 -0.4571 0.4571 -0.8894 806.2259 291.5402)" fill="#003468" stroke="#010101" stroke-width="0.5" cx="438.377" cy="48.251" rx="1.816" ry="0.365"/>
		<path fill="#FFF200" stroke="#010101" stroke-width="0.5" stroke-linecap="round" d="M426.262,67.839
			c0.092-0.18,0.891,0.047,1.781,0.506c0.893,0.459,1.541,0.977,1.449,1.154l0.004-0.01l10.492-20.404
			c-0.092,0.18-0.889-0.049-1.781-0.506c-0.891-0.459-1.539-0.977-1.447-1.154L426.262,67.839z"/>
		<path fill="#D8CA96" stroke="#010101" stroke-width="0.5" d="M425.689,71.103l0.574-3.264c0.092-0.18,0.889,0.047,1.781,0.506
			c0.891,0.459,1.541,0.975,1.449,1.154l-2.154,2.393L425.689,71.103z"/>
		<polygon fill="#010101" stroke="#010101" stroke-width="0.5" points="427.34,71.892 425.115,74.358 425.689,71.103 		"/>
		<line fill="none" stroke="#A7A9AC" x1="221.027" y1="29.538" x2="221.027" y2="76.228"/>
		<line fill="none" stroke="#A7A9AC" x1="404.027" y1="29.538" x2="404.027" y2="76.228"/>
	</g>
</g>
</svg>
