<?xml version="1.0" encoding="utf-8"?>
<!-- $Source: /home/bbennett/pass/archive/DicomXml/docbook/part17/figures/PS3.17_FFF.1.2-6.svg,v $ -->
<!-- $Date: 2014/05/09 13:15:43 $ -->
<!-- $Revision: 1.1 $ -->

<!DOCTYPE svg PUBLIC "-//W3C//DTD SVG 1.1//EN" "http://www.w3.org/Graphics/SVG/1.1/DTD/svg11.dtd">
<svg version="1.1" id="Layer_1" xmlns="http://www.w3.org/2000/svg" xmlns:xlink="http://www.w3.org/1999/xlink" x="0px" y="0px"
	 width="502px" height="297px" viewBox="0 0 502 297" enable-background="new 0 0 502 297" xml:space="preserve">

<defs>
	<style type="text/css">
	text {
	  font-family: Helvetica, Verdana, ArialUnicodeMS, san-serif
	}
	</style>
</defs>

<g>
   <desc>
	PS 3.17 Part 17: Explanatory Information
   </desc>
</g>

<rect x="1" y="1" fill="#F5EED6" width="500" height="295"/>
<g>
	<g>
		<polygon fill="#E6E7E8" stroke="#000000" stroke-width="0.5" stroke-linecap="round" stroke-linejoin="round" points="
			211.492,53.072 190.946,54.58 190.946,27.679 211.492,26.941 		"/>
		<polygon fill="#E6E7E8" stroke="#000000" stroke-width="0.5" stroke-linecap="round" stroke-linejoin="round" points="
			107.173,22.711 82.166,24.12 82.166,161.727 107.173,156.059 		"/>
		<polygon fill="#BCBEC0" stroke="#000000" stroke-width="0.5" stroke-linecap="round" stroke-linejoin="round" points="
			82.164,38.873 82.164,161.727 63.977,153.703 63.978,16.127 190.946,27.678 190.946,54.58 		"/>
		<polygon fill="#FFFFFF" stroke="#000000" stroke-width="0.5" stroke-linecap="round" stroke-linejoin="round" points="
			211.492,26.941 77.127,15.736 63.978,16.127 191.343,27.655 		"/>
	</g>
	<g>
		<g>
			<path opacity="0.6" fill="#CCCCCC" stroke="#000000" stroke-width="0.5" stroke-linejoin="round" d="M314.072,242.953
				c-0.9-0.34-1.805-0.68-2.713-1.016c-50.84-18.846-95.896-23.76-100.633-10.98c-3.414,9.211,15.049,25.098,44.66,40.309v-3.6
				c-29.611-15.211-48.074-31.098-44.66-40.309c4.736-12.779,49.793-7.865,100.633,10.98c0.908,0.336,1.812,0.676,2.713,1.016
				V242.953z"/>
			<path fill="#FFFFFF" stroke="#000000" stroke-width="0.5" stroke-linejoin="round" d="M255.387,267.666
				c-29.611-15.211-48.074-31.098-44.66-40.309c4.736-12.779,49.793-7.865,100.633,10.98c0.908,0.336,1.812,0.676,2.713,1.016
				L255.387,267.666z"/>
		</g>
		<polygon fill="#999999" stroke="#000000" stroke-width="0.5" stroke-linejoin="round" points="276.607,213.232 334.994,185.547 
			334.994,253.578 276.607,281.264 		"/>
		<polygon fill="#CCCCCC" stroke="#000000" stroke-width="0.5" stroke-linejoin="round" points="255.633,203.074 276.607,212.967 
			276.607,281.264 255.633,271.467 		"/>
		<polygon fill="#4F8ABE" stroke="#000000" stroke-width="0.5" stroke-linejoin="round" points="230.344,149.179 352.725,190.045 
			294.338,217.73 175.593,161.727 		"/>
	</g>
	<g>
		<polygon fill="#CCDEF0" stroke="#000000" stroke-width="0.5" stroke-linejoin="round" stroke-dasharray="1" points="
			187.63,149.223 177.261,157.017 192.197,163.599 177.21,175.331 294.192,236.304 321.687,205.749 		"/>
		<polygon fill="#999999" stroke="#000000" stroke-width="0.5" stroke-linejoin="round" points="294.338,217.73 352.725,190.045 
			352.725,193.645 294.338,221.33 		"/>
		<polygon fill="#CCCCCC" stroke="#000000" stroke-width="0.5" stroke-linejoin="round" points="294.338,217.73 175.593,161.727 
			175.593,165.326 294.338,221.33 		"/>
		<polygon fill="#4F8ABE" stroke="#000000" stroke-width="0.5" stroke-linejoin="round" points="192.584,158.196 177.614,151.896 
			199.71,147.29 215.435,153.03 229.913,149.653 352.292,190.521 293.903,218.204 175.161,162.2 		"/>
		<text transform="matrix(1 0 0 1 241.5293 233.7275)"><tspan x="0" y="0" fill="#0DB14B" font-size="12">Y</tspan><tspan x="8.752" y="5" fill="#0DB14B" font-size="9">t</tspan></text>
		<text transform="matrix(1 0 0 1 145.479 137.1431)"><tspan x="0" y="0" fill="#00AEEF" font-size="12">Z</tspan><tspan x="8.415" y="5" fill="#00AEEF" font-size="9">t</tspan></text>
		<g>
			<g>
				
					<line fill="none" stroke="#0DB14B" stroke-width="2" stroke-linejoin="round" x1="257.028" y1="179.353" x2="257.028" y2="224.815"/>
				<g>
					<polygon fill="#0DB14B" points="254.704,223.23 257.028,231.903 259.353,223.23 					"/>
				</g>
			</g>
		</g>
		<g>
			<g>
				
					<line fill="none" stroke="#ED1C24" stroke-width="2" stroke-linejoin="round" x1="257.581" y1="178.8" x2="323.376" y2="158.342"/>
				<g>
					<polygon fill="#ED1C24" points="322.552,161.032 330.144,156.237 321.172,156.593 					"/>
				</g>
			</g>
		</g>
		
			<polygon opacity="0.7" fill="#CCDEF0" stroke="#000000" stroke-width="0.5" stroke-linejoin="round" stroke-dasharray="1" points="
			321.687,205.749 350.269,173.989 225.562,137.472 212.45,147.897 196.679,142.424 187.63,149.223 		"/>
		<text transform="matrix(1 0 0 1 249.3584 168.3125)"><tspan x="0" y="0" font-size="12">O</tspan><tspan x="9.417" y="5" font-size="9">t</tspan></text>
		<text transform="matrix(1 0 0 1 334.7002 158.7852)" fill="#ED1C24" font-size="12">X</text>
		<text transform="matrix(1 0 0 1 306.0703 110.8975)"><tspan x="0" y="0" fill="#ED1C24" font-size="12">X</tspan><tspan x="8.752" y="5" fill="#ED1C24" font-size="9">t</tspan></text>
		<g>
			<g>
				
					<line fill="none" stroke="#ED1C24" stroke-width="2" stroke-linejoin="round" stroke-dasharray="1,1" x1="257.581" y1="178.8" x2="308.395" y2="124.263"/>
				<g>
					<polygon fill="#ED1C24" points="309.014,127.007 313.226,119.078 305.613,123.838 					"/>
				</g>
			</g>
		</g>
		<g>
			<g>
				
					<line fill="none" stroke="#00AEEF" stroke-width="2" stroke-linejoin="round" x1="257.167" y1="179.214" x2="165.344" y2="139.936"/>
				<g>
					<polygon fill="#00AEEF" points="167.715,138.422 158.827,137.148 165.887,142.696 					"/>
				</g>
			</g>
		</g>
		<text transform="matrix(1 0 0 1 315.7441 136.4097)"><tspan x="0" y="0" font-size="10">At</tspan><tspan x="9.448" y="4" font-size="10">3</tspan><tspan x="15.01" y="0" font-size="10">, Table Cradle Tilt Angle</tspan></text>
		<ellipse fill="#FFFFFF" stroke="#000000" stroke-linejoin="round" cx="357.163" cy="223.127" rx="9.039" ry="21.827"/>
		<g>
			<g>
				<path fill="none" stroke="#000000" stroke-linejoin="round" d="M387.54,214.08c1.203-1.43,2.557-2.232,3.988-2.232
					c4.992,0,9.039,9.771,9.039,21.826c0,12.054-4.047,21.825-9.039,21.825c-4.025,0-7.434-6.35-8.605-15.125"/>
				<g>
					<polygon points="391.264,213.719 383.851,222.146 386.057,211.141 					"/>
				</g>
			</g>
		</g>
		<line fill="none" stroke="#000000" stroke-linejoin="round" x1="321.687" y1="205.749" x2="356.413" y2="222.159"/>
		<text transform="matrix(1 0 0 1 350.0479 268.0732)" font-size="9">Axis of Rotation</text>
		<line fill="none" stroke="#000000" stroke-linejoin="round" x1="369.363" y1="215.446" x2="343.17" y2="228.658"/>
		<line fill="none" stroke="#000000" stroke-linejoin="round" x1="356.86" y1="196.93" x2="356.86" y2="250.28"/>
		<polyline fill="#6799C8" stroke="#000000" stroke-linejoin="round" points="357.163,222.046 381.563,222.456 376.435,237.065 
			357.188,222.073 		"/>
		
			<ellipse transform="matrix(-0.9513 -0.3083 0.3083 -0.9513 669.0108 565.5055)" fill="#CCDEF0" stroke="#000000" stroke-linejoin="round" cx="379.187" cy="229.894" rx="2.382" ry="7.792"/>
		<path fill="none" stroke="#000000" stroke-linejoin="round" d="M377.481,222.388c-1.035,1.137-2.021,3.125-2.852,5.682
			c-0.902,2.789-1.221,5.371-0.934,6.861"/>
		<path fill="none" stroke="#000000" stroke-linejoin="round" d="M374.448,222.337c-0.76,1.186-1.512,2.803-2.107,4.645
			c-0.766,2.359-1.109,4.568-1.025,6.098"/>
		<path fill="none" stroke="#000000" stroke-linejoin="round" d="M371.552,222.286c-0.545,1.027-1.064,2.258-1.502,3.605
			c-0.717,2.207-1.062,3.883-1.035,5.393"/>
		<path fill="none" stroke="#000000" stroke-linejoin="round" d="M368.749,222.241c-0.355,0.779-0.691,1.645-0.99,2.562
			c-0.559,1.723-0.893,3.367-1,4.725"/>
		<path fill="none" stroke="#000000" stroke-linejoin="round" d="M366.013,222.194c-0.191,0.484-0.373,0.992-0.545,1.52
			c-0.473,1.459-0.785,2.861-0.934,4.082"/>
		<path fill="none" stroke="#000000" stroke-linejoin="round" d="M363.337,222.149c-0.055,0.156-0.107,0.316-0.158,0.475
			c-0.396,1.217-0.678,2.393-0.85,3.457"/>
		<line fill="none" stroke="#000000" stroke-linejoin="round" x1="378.159" y1="226.079" x2="380.231" y2="233.673"/>
		<g>
			<g>
				<path fill="none" stroke="#000000" stroke-linejoin="round" d="M314.461,155.893c0.348-1.694,0.53-3.447,0.53-5.243
					c0-6.965-2.747-13.296-7.226-17.992"/>
				<g>
					<polygon points="315.75,155.416 313.511,159.307 313.505,154.817 					"/>
				</g>
				<g>
					<polygon points="309.101,132.399 305.153,130.261 307.503,134.087 					"/>
				</g>
			</g>
		</g>
	</g>
	<g>
		<g>
			<path fill="none" stroke="#0DB14B" d="M122.305,80.029"/>
		</g>
		<g>
			<g>
				<line fill="none" stroke="#0DB14B" stroke-width="2" x1="189.745" y1="80.294" x2="189.745" y2="105.928"/>
				<g>
					<polygon fill="#0DB14B" points="186.258,103.55 189.744,116.56 193.231,103.551 					"/>
				</g>
			</g>
		</g>
		<text transform="matrix(1 -0.0019 0.0019 1 120.7061 70.2178)" fill="#00AEEF" font-size="12.5">+Z</text>
		<text transform="matrix(1 -0.0019 0.0019 1 238.7529 73.6406)" fill="#ED1C24" font-size="12.5">+X</text>
		<text transform="matrix(1 -0.0019 0.0019 1 170.0903 121.8467)" fill="#0DB14B" font-size="12.5">+Y</text>
		<text transform="matrix(1 -0.0048 0.0048 1 203.8213 122.3301)" font-size="12.5">(Tx, Ty, Tz)</text>
		<g>
			<text transform="matrix(1 -3.400000e-04 3.400000e-04 1 195.2944 73.6406)" font-size="12.5">O</text>
		</g>
		<line fill="none" stroke="#000000" stroke-width="2" stroke-dasharray="1" x1="208.403" y1="106.473" x2="190.431" y2="79.534"/>
		<line fill="none" stroke="#000000" stroke-width="2" stroke-dasharray="1" x1="257.028" y1="179.353" x2="222.771" y2="128.006"/>
		<g>
			<g>
				<line fill="none" stroke="#ED1C24" stroke-width="2" x1="190.431" y1="79.534" x2="231.768" y2="72.464"/>
				<g>
					<polygon fill="#ED1C24" points="230.597,75.022 238.754,71.27 229.813,70.44 					"/>
				</g>
			</g>
		</g>
		<g>
			<g>
				<line fill="none" stroke="#00AEEF" stroke-width="2" x1="186.612" y1="79.461" x2="143.128" y2="71.495"/>
				<g>
					<polygon fill="#00AEEF" points="145.106,69.494 136.156,70.218 144.268,74.067 					"/>
				</g>
			</g>
		</g>
	</g>
	<g>
		<path stroke="#000000" stroke-miterlimit="1" d="M195.644,79.539c0.002-3.26-2.64-5.898-5.899-5.898v5.902L195.644,79.539z"/>
		
			<path fill="#FFFFFF" stroke="#010101" stroke-width="0.75" stroke-linecap="round" stroke-linejoin="round" stroke-miterlimit="1" d="
			M189.744,73.641c-3.257,0-5.897,2.643-5.897,5.904l5.897-0.002V73.641z"/>
		<path stroke="#000000" stroke-miterlimit="1" d="M183.847,79.545c0.002,3.257,2.645,5.897,5.901,5.896l-0.004-5.898
			L183.847,79.545z"/>
		
			<path fill="#FFFFFF" stroke="#010101" stroke-width="0.75" stroke-linecap="round" stroke-linejoin="round" stroke-miterlimit="1" d="
			M189.744,79.543l0.004,5.898c3.258-0.002,5.897-2.645,5.896-5.902L189.744,79.543z"/>
	</g>
</g>
</svg>
