<?xml version="1.0" encoding="utf-8"?>
<!-- $Source: /home/bbennett/pass/archive/DicomXml/docbook/part17/figures/PS3.17_FFF.1.2-9.svg,v $ -->
<!-- $Date: 2014/05/09 13:15:44 $ -->
<!-- $Revision: 1.1 $ -->

<!DOCTYPE svg PUBLIC "-//W3C//DTD SVG 1.1//EN" "http://www.w3.org/Graphics/SVG/1.1/DTD/svg11.dtd">
<svg version="1.1" id="Layer_1" xmlns="http://www.w3.org/2000/svg" xmlns:xlink="http://www.w3.org/1999/xlink" x="0px" y="0px"
	 width="502.001px" height="312px" viewBox="0 0 502.001 312" enable-background="new 0 0 502.001 312" xml:space="preserve">

<defs>
	<style type="text/css">
	text {
	  font-family: Helvetica, Verdana, ArialUnicodeMS, san-serif
	}
	</style>
</defs>

<g>
   <desc>
	PS 3.17 Part 17: Explanatory Information
   </desc>
</g>

<rect x="1" y="1" fill="#F5EED6" width="500.001" height="310"/>
<g>
	<rect x="91.871" y="49.191" fill="#CCDEF0" stroke="#939598" stroke-miterlimit="1" width="364.499" height="246.728"/>
	<g>
		<text transform="matrix(0.9135 0 0 1 359.4023 47.127)" font-size="10">Physical detector matrix</text>
	</g>
	<g>
		<text transform="matrix(0.9135 0 0 1 151.2065 40.894)"><tspan x="0" y="0" fill="#ED1C24" font-size="10">i</tspan><tspan x="2.222" y="4" fill="#ED1C24" font-size="10">det</tspan></text>
	</g>
	<g>
		<text transform="matrix(0.9135 0 0 1 72.2251 108.9536)"><tspan x="0" y="0" fill="#0DB14B" font-size="10">j</tspan><tspan x="2.222" y="4" fill="#0DB14B" font-size="10">det</tspan></text>
	</g>
	<rect x="91.871" y="49.882" fill="#FFFFFF" stroke="#808285" stroke-miterlimit="1" width="7" height="7"/>
	<rect x="91.871" y="56.882" fill="#FFFFFF" stroke="#808285" stroke-miterlimit="1" width="7" height="7"/>
	<rect x="91.871" y="63.882" fill="#FFFFFF" stroke="#808285" stroke-miterlimit="1" width="7" height="7"/>
	<rect x="91.871" y="70.882" fill="#FFFFFF" stroke="#808285" stroke-miterlimit="1" width="7" height="7"/>
	<rect x="91.871" y="77.882" fill="#FFFFFF" stroke="#808285" stroke-miterlimit="1" width="7" height="7"/>
	<rect x="91.871" y="84.882" fill="#FFFFFF" stroke="#808285" stroke-miterlimit="1" width="7" height="7"/>
	<rect x="91.871" y="91.882" fill="#FFFFFF" stroke="#808285" stroke-miterlimit="1" width="7" height="7"/>
	<rect x="98.871" y="49.882" fill="#FFFFFF" stroke="#808285" stroke-miterlimit="1" width="7" height="7"/>
	<rect x="105.871" y="49.882" fill="#FFFFFF" stroke="#808285" stroke-miterlimit="1" width="7" height="7"/>
	<rect x="112.871" y="49.882" fill="#FFFFFF" stroke="#808285" stroke-miterlimit="1" width="7" height="7"/>
	<rect x="119.871" y="49.882" fill="#FFFFFF" stroke="#808285" stroke-miterlimit="1" width="7" height="7"/>
	<rect x="126.871" y="49.882" fill="#FFFFFF" stroke="#808285" stroke-miterlimit="1" width="7" height="7"/>
	<rect x="133.871" y="49.882" fill="#FFFFFF" stroke="#808285" stroke-miterlimit="1" width="7" height="7"/>
	<rect x="140.871" y="49.882" fill="#FFFFFF" stroke="#808285" stroke-miterlimit="1" width="7" height="7"/>
	<rect x="147.871" y="49.882" fill="#FFFFFF" stroke="#808285" stroke-miterlimit="1" width="7" height="7"/>
	<rect x="154.871" y="49.882" fill="#FFFFFF" stroke="#808285" stroke-miterlimit="1" width="7" height="7"/>
	<rect x="196.885" y="136.234" fill="#86B2D8" stroke="#939598" stroke-miterlimit="1" width="202.956" height="138.995"/>
	<rect x="196.885" y="136.234" fill="#FFFFFF" stroke="#808285" stroke-miterlimit="1" width="12" height="12"/>
	<rect x="196.885" y="148.234" fill="#FFFFFF" stroke="#808285" stroke-miterlimit="1" width="12" height="12"/>
	<rect x="196.885" y="160.234" fill="#FFFFFF" stroke="#808285" stroke-miterlimit="1" width="12" height="12"/>
	<rect x="196.885" y="172.234" fill="#FFFFFF" stroke="#808285" stroke-miterlimit="1" width="12" height="12"/>
	<rect x="196.885" y="184.234" fill="#FFFFFF" stroke="#808285" stroke-miterlimit="1" width="12" height="12"/>
	<rect x="196.885" y="196.234" fill="#FFFFFF" stroke="#808285" stroke-miterlimit="1" width="12" height="12"/>
	<rect x="196.885" y="208.234" fill="#FFFFFF" stroke="#808285" stroke-miterlimit="1" width="12" height="12"/>
	<rect x="208.885" y="136.234" fill="#FFFFFF" stroke="#808285" stroke-miterlimit="1" width="12" height="12"/>
	<rect x="220.885" y="136.234" fill="#FFFFFF" stroke="#808285" stroke-miterlimit="1" width="12" height="12"/>
	<rect x="232.885" y="136.234" fill="#FFFFFF" stroke="#808285" stroke-miterlimit="1" width="12" height="12"/>
	<rect x="244.885" y="136.234" fill="#FFFFFF" stroke="#808285" stroke-miterlimit="1" width="12.001" height="12"/>
	<rect x="256.886" y="136.234" fill="#FFFFFF" stroke="#808285" stroke-miterlimit="1" width="12" height="12"/>
	<rect x="268.886" y="136.234" fill="#FFFFFF" stroke="#808285" stroke-miterlimit="1" width="12" height="12"/>
	<g>
		<text transform="matrix(0.9135 0 0 1 347.5449 132.3462)" font-size="10">Field of View</text>
	</g>
	<g>
		<text transform="matrix(0.9135 0 0 1 116.5518 134.8359)"><tspan x="0" y="0" font-size="10">FOV origin</tspan><tspan x="-18.892" y="15.881" font-size="10">(FOV</tspan><tspan x="4.995" y="19.881" font-size="10">idet</tspan><tspan x="21.118" y="15.881" font-size="10">, FOV</tspan><tspan x="47.232" y="19.881" font-size="10">jdet</tspan><tspan x="63.354" y="15.881" font-size="10">)</tspan></text>
	</g>
	<text transform="matrix(1.0363 0 0 1 45.6313 65.126)" font-size="10">∆</text>
	<text transform="matrix(0.9135 0 0 1 51.9712 65.126)" font-size="10">j</text>
	<text transform="matrix(0.9135 0 0 1 54.001 69.126)" font-size="10">det</text>
	<g>
		<line fill="#4F8ABE" x1="75.166" y1="44.971" x2="75.166" y2="59.971"/>
		<g>
			<line fill="none" stroke="#005695" stroke-width="2" stroke-miterlimit="1" x1="75.166" y1="44.971" x2="75.166" y2="52.883"/>
			<g>
				<polygon fill="#005695" points="72.841,51.298 75.166,59.971 77.49,51.298 				"/>
			</g>
		</g>
	</g>
	<g>
		<line fill="#4F8ABE" x1="75.166" y1="82.289" x2="75.166" y2="67.289"/>
		<g>
			<line fill="none" stroke="#005695" stroke-width="2" stroke-miterlimit="1" x1="75.166" y1="82.289" x2="75.166" y2="74.376"/>
			<g>
				<polygon fill="#005695" points="77.49,75.962 75.166,67.289 72.841,75.962 				"/>
			</g>
		</g>
	</g>
	<g>
		<line x1="91.871" y1="49.882" x2="157.813" y2="49.882"/>
		<g>
			
				<line fill="none" stroke="#ED1C24" stroke-width="2" stroke-linecap="square" stroke-miterlimit="1" x1="91.871" y1="49.882" x2="147.182" y2="49.882"/>
			<g>
				<polygon fill="#ED1C24" points="144.805,53.368 157.813,49.882 144.805,46.396 				"/>
			</g>
		</g>
	</g>
	<g>
		<g>
			
				<line fill="none" stroke="#0DB14B" stroke-width="2" stroke-linecap="square" stroke-miterlimit="1" x1="91.871" y1="49.882" x2="91.871" y2="105.193"/>
			<g>
				<polygon fill="#0DB14B" points="88.384,102.815 91.871,115.824 95.357,102.815 				"/>
			</g>
		</g>
	</g>
	<g>
		<g>
			<line fill="none" stroke="#010101" stroke-width="0.5" stroke-miterlimit="1" x1="71.483" y1="60.382" x2="72.483" y2="60.382"/>
			
				<line fill="none" stroke="#010101" stroke-width="0.5" stroke-miterlimit="1" stroke-dasharray="1.9898,1.9898" x1="74.473" y1="60.382" x2="93.375" y2="60.382"/>
			<line fill="none" stroke="#010101" stroke-width="0.5" stroke-miterlimit="1" x1="94.371" y1="60.382" x2="95.371" y2="60.382"/>
		</g>
	</g>
	<g>
		<g>
			<line fill="none" stroke="#010101" stroke-width="0.5" stroke-miterlimit="1" x1="71.483" y1="67.382" x2="72.483" y2="67.382"/>
			
				<line fill="none" stroke="#010101" stroke-width="0.5" stroke-miterlimit="1" stroke-dasharray="1.9898,1.9898" x1="74.473" y1="67.382" x2="93.375" y2="67.382"/>
			<line fill="none" stroke="#010101" stroke-width="0.5" stroke-miterlimit="1" x1="94.371" y1="67.382" x2="95.371" y2="67.382"/>
		</g>
	</g>
	<text transform="matrix(1.0363 0 0 1 106.0728 24.0308)" font-size="10">∆</text>
	<text transform="matrix(0.9135 0 0 1 112.4126 24.0308)" font-size="10">i</text>
	<text transform="matrix(0.9135 0 0 1 114.4424 28.0308)" font-size="10">det</text>
	<g>
		<line fill="#4F8ABE" x1="135.39" y1="36.641" x2="120.39" y2="36.641"/>
		<g>
			<line fill="none" stroke="#005695" stroke-width="2" stroke-miterlimit="1" x1="135.39" y1="36.641" x2="127.477" y2="36.641"/>
			<g>
				<polygon fill="#005695" points="129.062,34.316 120.39,36.641 129.062,38.965 				"/>
			</g>
		</g>
	</g>
	<g>
		<line fill="#4F8ABE" x1="98.071" y1="36.641" x2="113.071" y2="36.641"/>
		<g>
			<line fill="none" stroke="#005695" stroke-width="2" stroke-miterlimit="1" x1="98.071" y1="36.641" x2="105.984" y2="36.641"/>
			<g>
				<polygon fill="#005695" points="104.398,38.965 113.071,36.641 104.398,34.316 				"/>
			</g>
		</g>
	</g>
	<g>
		<g>
			
				<line fill="none" stroke="#010101" stroke-width="0.5" stroke-miterlimit="1" x1="119.979" y1="32.958" x2="119.979" y2="33.958"/>
			
				<line fill="none" stroke="#010101" stroke-width="0.5" stroke-miterlimit="1" stroke-dasharray="2.0982,2.0982" x1="119.979" y1="36.056" x2="119.979" y2="47.596"/>
			
				<line fill="none" stroke="#010101" stroke-width="0.5" stroke-miterlimit="1" x1="119.979" y1="48.646" x2="119.979" y2="49.646"/>
		</g>
	</g>
	<g>
		<g>
			
				<line fill="none" stroke="#010101" stroke-width="0.5" stroke-miterlimit="1" x1="112.979" y1="32.958" x2="112.979" y2="33.958"/>
			
				<line fill="none" stroke="#010101" stroke-width="0.5" stroke-miterlimit="1" stroke-dasharray="2.0982,2.0982" x1="112.979" y1="36.056" x2="112.979" y2="47.596"/>
			
				<line fill="none" stroke="#010101" stroke-width="0.5" stroke-miterlimit="1" x1="112.979" y1="48.646" x2="112.979" y2="49.646"/>
		</g>
	</g>
	<g>
		<text transform="matrix(0.9135 0 0 1 273.1055 131.0039)" fill="#ED1C24" font-size="10">i</text>
	</g>
	<g>
		<text transform="matrix(0.9135 0 0 1 188.4312 220.3652)" fill="#0DB14B" font-size="10">j</text>
	</g>
	<text transform="matrix(1.0363 0 0 1 164.1943 187.751)" font-size="10">∆</text>
	<text transform="matrix(0.9135 0 0 1 170.5342 187.751)" font-size="10">j</text>
	<g>
		<line fill="#4F8ABE" x1="182.729" y1="162.755" x2="182.729" y2="177.755"/>
		<g>
			
				<line fill="none" stroke="#005695" stroke-width="2" stroke-miterlimit="1" x1="182.729" y1="162.755" x2="182.729" y2="170.667"/>
			<g>
				<polygon fill="#005695" points="180.404,169.082 182.729,177.755 185.053,169.082 				"/>
			</g>
		</g>
	</g>
	<g>
		<line fill="#4F8ABE" x1="182.729" y1="204.755" x2="182.729" y2="189.755"/>
		<g>
			
				<line fill="none" stroke="#005695" stroke-width="2" stroke-miterlimit="1" x1="182.729" y1="204.755" x2="182.729" y2="196.843"/>
			<g>
				<polygon fill="#005695" points="185.053,198.428 182.729,189.755 180.404,198.428 				"/>
			</g>
		</g>
	</g>
	<g>
		<g>
			
				<line fill="none" stroke="#ED1C24" stroke-width="2" stroke-linecap="square" stroke-miterlimit="1" x1="196.159" y1="135.986" x2="267.528" y2="135.986"/>
			<g>
				<polygon fill="#ED1C24" points="265.15,139.473 278.159,135.986 265.15,132.5 				"/>
			</g>
		</g>
	</g>
	<g>
		<g>
			
				<line fill="none" stroke="#0DB14B" stroke-width="2" stroke-linecap="square" stroke-miterlimit="1" x1="195.833" y1="135.986" x2="195.833" y2="207.356"/>
			<g>
				<polygon fill="#0DB14B" points="192.347,204.979 195.833,217.987 199.32,204.979 				"/>
			</g>
		</g>
	</g>
	<g>
		<g>
			
				<line fill="none" stroke="#010101" stroke-width="0.5" stroke-miterlimit="1" x1="179.046" y1="177.755" x2="180.046" y2="177.755"/>
			
				<line fill="none" stroke="#010101" stroke-width="0.5" stroke-miterlimit="1" stroke-dasharray="1.9898,1.9898" x1="182.036" y1="177.755" x2="200.938" y2="177.755"/>
			
				<line fill="none" stroke="#010101" stroke-width="0.5" stroke-miterlimit="1" x1="201.934" y1="177.755" x2="202.934" y2="177.755"/>
		</g>
	</g>
	<g>
		<g>
			
				<line fill="none" stroke="#010101" stroke-width="0.5" stroke-miterlimit="1" x1="399.404" y1="136.234" x2="400.404" y2="136.234"/>
			
				<line fill="none" stroke="#010101" stroke-width="0.5" stroke-miterlimit="1" stroke-dasharray="2,2" x1="402.404" y1="136.234" x2="433.404" y2="136.234"/>
			
				<line fill="none" stroke="#010101" stroke-width="0.5" stroke-miterlimit="1" x1="434.404" y1="136.234" x2="435.404" y2="136.234"/>
		</g>
	</g>
	<g>
		<g>
			
				<line fill="none" stroke="#010101" stroke-width="0.5" stroke-miterlimit="1" x1="399.404" y1="275.229" x2="400.404" y2="275.229"/>
			
				<line fill="none" stroke="#010101" stroke-width="0.5" stroke-miterlimit="1" stroke-dasharray="2,2" x1="402.404" y1="275.229" x2="433.404" y2="275.229"/>
			
				<line fill="none" stroke="#010101" stroke-width="0.5" stroke-miterlimit="1" x1="434.404" y1="275.229" x2="435.404" y2="275.229"/>
		</g>
	</g>
	<g>
		<g>
			
				<line fill="none" stroke="#010101" stroke-width="0.5" stroke-miterlimit="1" x1="399.841" y1="275.229" x2="399.841" y2="276.229"/>
			
				<line fill="none" stroke="#010101" stroke-width="0.5" stroke-miterlimit="1" stroke-dasharray="2.1779,2.1779" x1="399.841" y1="278.407" x2="399.841" y2="294.742"/>
			
				<line fill="none" stroke="#010101" stroke-width="0.5" stroke-miterlimit="1" x1="399.841" y1="295.831" x2="399.841" y2="296.831"/>
		</g>
	</g>
	<g>
		<g>
			
				<line fill="none" stroke="#010101" stroke-width="0.5" stroke-miterlimit="1" x1="196.922" y1="275.229" x2="196.922" y2="276.229"/>
			
				<line fill="none" stroke="#010101" stroke-width="0.5" stroke-miterlimit="1" stroke-dasharray="2.1779,2.1779" x1="196.922" y1="278.407" x2="196.922" y2="294.742"/>
			
				<line fill="none" stroke="#010101" stroke-width="0.5" stroke-miterlimit="1" x1="196.922" y1="295.831" x2="196.922" y2="296.831"/>
		</g>
	</g>
	<g>
		<g>
			
				<line fill="none" stroke="#010101" stroke-width="0.5" stroke-miterlimit="1" x1="179.046" y1="189.755" x2="180.046" y2="189.755"/>
			
				<line fill="none" stroke="#010101" stroke-width="0.5" stroke-miterlimit="1" stroke-dasharray="1.9898,1.9898" x1="182.036" y1="189.755" x2="200.938" y2="189.755"/>
			
				<line fill="none" stroke="#010101" stroke-width="0.5" stroke-miterlimit="1" x1="201.934" y1="189.755" x2="202.934" y2="189.755"/>
		</g>
	</g>
	<text transform="matrix(1.0363 0 0 1 228.6021 116.0288)" font-size="10">∆</text>
	<text transform="matrix(0.9135 0 0 1 234.9419 116.0288)" font-size="10">i</text>
	<g>
		<line fill="#4F8ABE" x1="253.885" y1="122.746" x2="238.886" y2="122.746"/>
		<g>
			
				<line fill="none" stroke="#005695" stroke-width="2" stroke-miterlimit="1" x1="253.885" y1="122.746" x2="245.973" y2="122.746"/>
			<g>
				<polygon fill="#005695" points="247.559,120.422 238.886,122.746 247.559,125.07 				"/>
			</g>
		</g>
	</g>
	<g>
		<line fill="#4F8ABE" x1="211.886" y1="122.746" x2="226.886" y2="122.746"/>
		<g>
			
				<line fill="none" stroke="#005695" stroke-width="2" stroke-miterlimit="1" x1="211.886" y1="122.746" x2="219.799" y2="122.746"/>
			<g>
				<polygon fill="#005695" points="218.213,125.07 226.886,122.746 218.213,120.422 				"/>
			</g>
		</g>
	</g>
	<g>
		<g>
			
				<line fill="none" stroke="#010101" stroke-width="0.5" stroke-miterlimit="1" x1="238.885" y1="119.063" x2="238.885" y2="120.063"/>
			
				<line fill="none" stroke="#010101" stroke-width="0.5" stroke-miterlimit="1" stroke-dasharray="1.9242,1.9242" x1="238.885" y1="121.988" x2="238.885" y2="140.268"/>
			
				<line fill="none" stroke="#010101" stroke-width="0.5" stroke-miterlimit="1" x1="238.885" y1="141.229" x2="238.885" y2="142.229"/>
		</g>
	</g>
	<g>
		<g>
			
				<line fill="none" stroke="#010101" stroke-width="0.5" stroke-miterlimit="1" x1="226.886" y1="119.063" x2="226.886" y2="120.063"/>
			
				<line fill="none" stroke="#010101" stroke-width="0.5" stroke-miterlimit="1" stroke-dasharray="1.9242,1.9242" x1="226.886" y1="121.988" x2="226.886" y2="140.268"/>
			
				<line fill="none" stroke="#010101" stroke-width="0.5" stroke-miterlimit="1" x1="226.886" y1="141.229" x2="226.886" y2="142.229"/>
		</g>
	</g>
	
		<rect x="196.885" y="136.586" fill="#CCDEF0" stroke="#000000" stroke-miterlimit="1" stroke-dasharray="1,1" width="7" height="7"/>
	<g>
		<g>
			<polyline fill="none" stroke="#000000" stroke-miterlimit="1" points="95.371,53.027 95.371,139.812 191.607,139.812 			"/>
			<g>
				<polygon points="190.418,141.555 196.922,139.812 190.418,138.068 				"/>
			</g>
		</g>
	</g>
	<g>
		<text transform="matrix(0.9135 0 0 1 101.7598 230.6045)"><tspan x="0" y="0" font-size="10">Isocenter projection</tspan><tspan x="-7.493" y="15.882" font-size="10">(ISO_P</tspan><tspan x="24.734" y="19.882" font-size="10">idet</tspan><tspan x="40.857" y="15.882" font-size="10">, ISO_P</tspan><tspan x="75.31" y="19.882" font-size="10">jdet</tspan><tspan x="91.432" y="15.882" font-size="10">)</tspan></text>
	</g>
	<g>
		<g>
			<polyline fill="none" stroke="#000000" stroke-miterlimit="1" points="95.371,140.303 95.371,236.081 294.775,236.081 			"/>
			<g>
				<polygon points="293.586,237.824 300.091,236.081 293.586,234.338 				"/>
			</g>
		</g>
	</g>
	<g>
		<g>
			<line fill="none" stroke="#000000" x1="310.127" y1="236.081" x2="339.268" y2="236.081"/>
			<g>
				<polygon points="337.286,238.986 348.127,236.081 337.286,233.176 				"/>
			</g>
		</g>
	</g>
	<g>
		<g>
			<line fill="none" stroke="#000000" x1="310.127" y1="236.081" x2="310.127" y2="206.94"/>
			<g>
				<polygon points="313.032,208.922 310.127,198.081 307.222,208.922 				"/>
			</g>
		</g>
	</g>
	<g>
		<text transform="matrix(0.8815 0 0 1 350.5342 238.5527)" font-size="9">u</text>
	</g>
	<g>
		<text transform="matrix(0.8815 0 0 1 308.3047 195.3906)" font-size="9">v</text>
	</g>
	<g>
		<g>
			<text transform="matrix(1 0 0 1 307.2715 252.7441)" font-size="10">ISO_P</text>
		</g>
		<path stroke="#000000" stroke-miterlimit="1" d="M316.879,235.705c0-3.729-3.025-6.75-6.752-6.75v6.75H316.879z"/>
		
			<path fill="#FFFFFF" stroke="#010101" stroke-width="0.75" stroke-linecap="round" stroke-linejoin="round" stroke-miterlimit="1" d="
			M310.127,228.955c-3.729,0-6.752,3.021-6.752,6.75h6.752V228.955z"/>
		<path stroke="#000000" stroke-miterlimit="1" d="M303.375,235.705c0,3.729,3.023,6.75,6.752,6.75v-6.75H303.375z"/>
		
			<path fill="#FFFFFF" stroke="#010101" stroke-width="0.75" stroke-linecap="round" stroke-linejoin="round" stroke-miterlimit="1" d="
			M310.127,235.705v6.75c3.727,0,6.752-3.021,6.752-6.75H310.127z"/>
	</g>
	<g>
		<g>
			
				<line fill="none" stroke="#000000" stroke-width="0.5" stroke-linecap="square" stroke-miterlimit="1" x1="427.274" y1="140.664" x2="427.274" y2="270.8"/>
			<g>
				<polygon points="425.822,141.655 427.274,136.234 428.727,141.655 				"/>
			</g>
			<g>
				<polygon points="425.822,269.809 427.274,275.229 428.727,269.809 				"/>
			</g>
		</g>
	</g>
	<g>
		<g>
			
				<line fill="none" stroke="#000000" stroke-width="0.5" stroke-linecap="square" stroke-miterlimit="1" x1="201.352" y1="287.053" x2="395.411" y2="287.053"/>
			<g>
				<polygon points="202.343,288.506 196.922,287.053 202.343,285.6 				"/>
			</g>
			<g>
				<polygon points="394.42,288.506 399.841,287.053 394.42,285.6 				"/>
			</g>
		</g>
	</g>
	<rect x="404.186" y="186.634" fill="#CCDEF0" width="46" height="37"/>
	<g>
		<text transform="matrix(0.9135 0 0 1 417.8848 198.6309)"><tspan x="0" y="0" font-size="10">FOV</tspan><tspan x="-6.951" y="9.882" font-size="10">Column</tspan><tspan x="-13.342" y="19.764" font-size="10">Dimension</tspan></text>
	</g>
	<rect x="250.62" y="279.803" fill="#CCDEF0" width="93" height="15"/>
	<g>
		<text transform="matrix(0.9135 -0.0021 0.0023 1 254.4375 290.1182)" font-size="10">FOV Row Dimension</text>
	</g>
</g>
</svg>
