<?xml version="1.0" encoding="utf-8"?>
<!-- $Source: /home/bbennett/pass/archive/DicomXml/docbook/part17/figures/PS3.17_A-7.svg,v $ -->
<!-- $Date: 2014/05/09 12:30:20 $ -->
<!-- $Revision: 1.2 $ -->

<!DOCTYPE svg PUBLIC "-//W3C//DTD SVG 1.1//EN" "http://www.w3.org/Graphics/SVG/1.1/DTD/svg11.dtd">
<svg version="1.1" id="Layer_1" xmlns="http://www.w3.org/2000/svg" xmlns:xlink="http://www.w3.org/1999/xlink" x="0px" y="0px"
	 width="502px" height="412px" viewBox="0 0 502 412" enable-background="new 0 0 502 412" xml:space="preserve">

<defs>
	<style type="text/css">
	text {
	  font-family: Helvetica, Verdana, ArialUnicodeMS, san-serif
	}
	</style>
</defs>

<g>
   <desc>
	PS 3.17 Part 17: Explanatory Information
   </desc>
</g>

<g>
	<rect x="1" y="1" fill="#F5EED6" width="500" height="410"/>
	<g>
		<rect x="252.987" y="14.954" fill-rule="evenodd" clip-rule="evenodd" fill="#FFFFFF" width="215" height="378.402"/>
		<g>
			<rect x="265.608" y="227.154" fill-rule="evenodd" clip-rule="evenodd" fill="#BCBEC0" width="129.925" height="129.926"/>
			<g id="_x5B_PR_x5D__17_">
				<text transform="matrix(0.9288 0 0 1 412.4707 229.1221)" font-size="8">[L]</text>
			</g>
			<g id="_x5B_LP_x5D__17_">
				<text transform="matrix(0.9288 0 0 1 264.3809 376.4824)" font-size="8">[FA]</text>
			</g>
			
				<rect x="265.608" y="227.154" fill-rule="evenodd" clip-rule="evenodd" fill="#FFFFFF" stroke="#010101" width="8.033" height="8.07"/>
			<g>
				<g>
					<polyline fill="none" stroke="#010101" points="265.608,360.619 265.608,227.154 398.467,227.154 					"/>
					<path fill="#010101" d="M397.446,227.154l-2.189-3.604l0.122-0.082l5.875,2.334c2.047,0.451,4.095,0.9,6.142,1.352
						c-2.047,0.449-4.095,0.9-6.142,1.352l-5.875,2.332l-0.122-0.061L397.446,227.154z"/>
					<path fill="#010101" d="M265.608,359.6l3.604-2.191l0.081,0.123l-2.333,5.875c-0.451,2.047-0.9,4.094-1.352,6.141
						c-0.45-2.047-0.9-4.094-1.352-6.141l-2.333-5.875l0.062-0.123L265.608,359.6z"/>
				</g>
			</g>
			<g>
				<text transform="matrix(1 0 0 1 326.5557 354.6934)" font-size="12">FA</text>
				<text transform="matrix(1 0 0 1 392.4805 303.9668)" fill="#00AEEF" font-size="12">L</text>
				<text transform="matrix(1 0 0 1 270.2969 303.9668)" fill="#00AEEF" font-size="12">R</text>
				<g>
					<text transform="matrix(0.9288 0 0 1 265.4639 216.9043)" font-size="11">Oblique Coronal Plane</text>
				</g>
			</g>
			<text transform="matrix(1 0 0 1 328.4316 245.293)" fill="#0DB14B" font-size="12">H</text>
		</g>
		<g>
			<polygon fill-rule="evenodd" clip-rule="evenodd" fill="#010101" points="385.256,281.328 385.256,279.408 384.296,277.488 
				383.336,276.289 383.336,274.369 382.376,273.408 382.376,272.449 381.176,271.488 380.216,270.289 379.256,270.289 
				377.336,269.328 376.376,269.328 375.176,269.328 373.256,269.328 372.296,269.328 371.336,268.369 369.176,268.369 
				368.216,268.369 367.256,268.369 365.336,268.369 364.376,268.369 363.176,268.369 362.216,267.408 361.256,267.408 
				360.296,267.408 359.336,267.408 358.376,267.408 357.176,267.408 356.216,267.408 355.256,267.408 354.296,267.408 
				353.336,266.449 352.376,266.449 351.176,265.488 351.176,264.289 350.216,263.328 350.216,262.369 350.216,261.408 
				349.256,260.449 349.256,259.488 349.256,258.289 349.256,256.369 349.256,255.408 349.256,254.449 349.256,253.488 
				349.256,252.289 349.256,251.328 349.256,250.369 348.296,248.449 337.256,248.449 336.296,248.449 335.336,248.449 
				334.376,248.449 332.216,248.449 331.256,248.449 330.296,248.449 328.376,248.449 327.176,248.449 326.216,249.408 
				324.296,249.408 323.336,249.408 322.376,249.408 321.176,249.408 319.256,249.408 318.296,249.408 317.336,250.369 
				317.336,251.328 317.336,252.289 317.336,253.488 317.336,254.449 317.336,255.408 317.336,256.369 317.336,257.328 
				317.336,258.289 317.336,259.488 316.376,260.449 316.376,262.369 315.176,263.328 314.216,264.289 313.256,265.488 
				311.336,265.488 310.376,266.449 309.176,267.408 307.256,267.408 306.296,268.369 304.376,268.369 302.216,268.369 
				300.296,269.328 298.376,269.328 297.176,270.289 295.256,271.488 293.336,271.488 292.376,272.449 290.216,273.408 
				289.256,274.369 287.336,275.328 286.376,277.488 285.176,278.449 284.216,280.369 284.216,281.328 283.256,282.289 
				283.256,284.449 283.256,285.408 283.256,286.369 283.256,287.328 283.256,289.488 282.296,290.449 282.296,291.408 
				282.296,292.369 282.296,294.289 282.296,295.488 282.296,296.449 282.296,297.408 282.296,299.328 282.296,300.289 
				282.296,302.449 281.336,305.328 281.336,307.488 281.336,310.369 282.296,312.289 282.296,315.408 282.296,317.328 
				282.296,319.488 282.296,322.369 282.296,324.289 282.296,327.408 282.296,329.328 282.296,331.488 282.296,334.369 
				282.296,337.488 282.296,339.408 282.296,340.369 283.256,340.369 285.176,340.369 286.376,339.408 287.336,339.408 
				289.256,339.408 290.216,340.369 292.376,340.369 293.336,340.369 294.296,340.369 296.216,340.369 297.176,340.369 
				298.376,340.369 300.296,340.369 301.256,340.369 302.216,340.369 304.376,340.369 306.296,340.369 308.216,340.369 
				311.336,340.369 313.256,339.408 315.176,339.408 317.336,339.408 319.256,339.408 322.376,339.408 324.296,339.408 
				326.216,339.408 329.336,339.408 331.256,339.408 333.176,339.408 335.336,339.408 338.216,339.408 340.376,339.408 
				342.296,339.408 344.216,339.408 347.336,339.408 349.256,339.408 351.176,339.408 354.296,339.408 356.216,339.408 
				358.376,340.369 361.256,340.369 363.176,340.369 365.336,340.369 368.216,340.369 370.376,340.369 372.296,340.369 
				374.216,340.369 377.336,340.369 378.296,340.369 379.256,340.369 380.216,340.369 381.176,340.369 383.336,340.369 
				384.296,340.369 384.296,339.408 385.256,339.408 385.256,332.449 385.256,330.289 385.256,329.328 386.216,328.369 
				386.216,326.449 386.216,325.488 386.216,323.328 386.216,322.369 386.216,320.449 386.216,318.289 386.216,317.328 
				386.216,315.408 386.216,314.449 386.216,312.289 386.216,311.328 386.216,310.369 386.216,308.449 386.216,306.289 
				386.216,304.369 386.216,302.449 386.216,300.289 386.216,298.369 386.216,296.449 386.216,294.289 386.216,292.369 
				386.216,290.449 386.216,287.328 386.216,285.408 386.216,283.488 			"/>
			<polygon fill-rule="evenodd" clip-rule="evenodd" fill="#6799C8" points="385.256,288.289 385.256,290.449 385.256,291.408 
				385.256,293.328 385.256,294.289 385.256,296.449 385.256,297.408 385.256,299.328 385.256,300.289 385.256,302.449 
				385.256,303.408 385.256,305.328 385.256,306.289 385.256,307.488 385.256,309.408 385.256,310.369 385.256,312.289 
				385.256,313.488 385.256,315.408 385.256,316.369 385.256,318.289 385.256,319.488 385.256,321.408 385.256,322.369 
				384.296,323.328 384.296,325.488 384.296,326.449 384.296,328.369 384.296,329.328 384.296,331.488 384.296,332.449 
				384.296,334.369 384.296,335.328 384.296,337.488 383.336,338.449 382.376,338.449 381.176,338.449 379.256,338.449 
				378.296,339.408 376.376,339.408 375.176,339.408 373.256,339.408 372.296,339.408 370.376,339.408 369.176,338.449 
				367.256,338.449 366.296,338.449 364.376,338.449 363.176,338.449 361.256,338.449 360.296,338.449 358.376,338.449 
				357.176,338.449 355.256,338.449 354.296,338.449 353.336,338.449 351.176,338.449 349.256,337.488 348.296,337.488 
				347.336,337.488 345.176,337.488 344.216,337.488 342.296,337.488 341.336,337.488 339.176,337.488 338.216,337.488 
				336.296,337.488 335.336,337.488 333.176,337.488 332.216,337.488 331.256,337.488 329.336,337.488 328.376,337.488 
				326.216,337.488 325.256,337.488 323.336,337.488 322.376,337.488 320.216,337.488 319.256,338.449 317.336,338.449 
				316.376,338.449 314.216,338.449 313.256,338.449 311.336,338.449 310.376,338.449 308.216,338.449 307.256,338.449 
				305.336,338.449 304.376,338.449 302.216,339.408 301.256,339.408 299.336,339.408 298.376,339.408 296.216,338.449 
				295.256,338.449 293.336,338.449 292.376,338.449 290.216,338.449 289.256,338.449 283.256,338.449 283.256,337.488 
				283.256,336.289 283.256,335.328 283.256,334.369 283.256,333.408 283.256,332.449 283.256,331.488 283.256,330.289 
				283.256,329.328 283.256,328.369 283.256,327.408 283.256,326.449 284.216,325.488 284.216,324.289 284.216,323.328 
				283.256,321.408 283.256,320.449 283.256,319.488 283.256,317.328 283.256,316.369 283.256,315.408 283.256,313.488 
				283.256,312.289 283.256,311.328 283.256,309.408 283.256,308.449 283.256,306.289 283.256,305.328 283.256,304.369 
				283.256,302.449 283.256,301.488 283.256,299.328 283.256,298.369 283.256,297.408 283.256,295.488 283.256,294.289 
				283.256,293.328 284.216,291.408 284.216,290.449 284.216,288.289 284.216,287.328 284.216,286.369 284.216,285.408 
				285.176,283.488 285.176,282.289 285.176,281.328 286.376,279.408 287.336,278.449 288.296,277.488 289.256,276.289 
				290.216,275.328 292.376,274.369 293.336,273.408 295.256,272.449 296.216,272.449 298.376,271.488 299.336,271.488 
				301.256,270.289 302.216,270.289 304.376,270.289 305.336,269.328 307.256,269.328 308.216,269.328 308.216,268.369 
				309.176,268.369 310.376,268.369 311.336,267.408 312.296,267.408 313.256,266.449 314.216,266.449 315.176,265.488 
				316.376,264.289 317.336,262.369 317.336,261.408 318.296,260.449 318.296,251.328 319.256,251.328 320.216,251.328 
				321.176,250.369 323.336,250.369 324.296,250.369 325.256,250.369 326.216,250.369 327.176,250.369 329.336,250.369 
				330.296,250.369 331.256,250.369 332.216,250.369 334.376,250.369 335.336,250.369 336.296,250.369 337.256,249.408 
				347.336,250.369 347.336,251.328 347.336,252.289 348.296,254.449 348.296,255.408 348.296,256.369 348.296,257.328 
				348.296,258.289 348.296,260.449 348.296,261.408 348.296,262.369 349.256,263.328 349.256,264.289 350.216,265.488 
				350.216,266.449 351.176,267.408 352.376,268.369 354.296,268.369 356.216,269.328 357.176,269.328 359.336,269.328 
				361.256,269.328 362.216,269.328 364.376,269.328 366.296,269.328 367.256,270.289 369.176,270.289 371.336,270.289 
				372.296,270.289 374.216,270.289 375.176,271.488 377.336,271.488 379.256,271.488 380.216,273.408 381.176,274.369 
				381.176,275.328 382.376,276.289 382.376,277.488 383.336,278.449 383.336,279.408 384.296,281.328 384.296,282.289 
				384.296,283.488 384.296,284.449 384.296,286.369 385.256,287.328 			"/>
			<polygon fill-rule="evenodd" clip-rule="evenodd" fill="#010101" points="327.176,289.488 327.176,287.328 327.176,285.408 
				327.176,283.488 326.216,282.289 326.216,280.369 326.216,278.449 326.216,276.289 327.176,274.369 327.176,272.449 
				326.216,271.488 325.256,271.488 324.296,272.449 322.376,272.449 320.216,272.449 319.256,272.449 317.336,272.449 
				315.176,272.449 313.256,272.449 312.296,273.408 310.376,273.408 308.216,273.408 307.256,274.369 305.336,274.369 
				304.376,274.369 302.216,275.328 301.256,276.289 299.336,276.289 297.176,277.488 296.216,278.449 295.256,279.408 
				293.336,280.369 292.376,281.328 292.376,283.488 291.176,284.449 290.216,286.369 290.216,287.328 289.256,289.488 
				289.256,290.449 288.296,292.369 288.296,294.289 288.296,295.488 287.336,297.408 287.336,299.328 287.336,301.488 
				287.336,303.408 287.336,305.328 287.336,307.488 287.336,309.408 287.336,311.328 287.336,314.449 287.336,316.369 
				287.336,318.289 288.296,320.449 288.296,322.369 288.296,324.289 287.336,326.449 287.336,328.369 287.336,331.488 
				286.376,333.408 287.336,334.369 288.296,333.408 289.256,332.449 291.176,331.488 292.376,330.289 293.336,329.328 
				294.296,329.328 295.256,328.369 297.176,327.408 298.376,327.408 299.336,326.449 300.296,325.488 302.216,325.488 
				303.176,324.289 304.376,324.289 305.336,323.328 307.256,323.328 307.256,322.369 308.216,322.369 309.176,322.369 
				310.376,322.369 311.336,322.369 311.336,321.408 312.296,321.408 313.256,321.408 314.216,321.408 315.176,321.408 
				316.376,321.408 316.376,320.449 317.336,320.449 316.376,319.488 315.176,318.289 315.176,317.328 314.216,317.328 
				314.216,316.369 313.256,315.408 313.256,313.488 313.256,312.289 313.256,311.328 314.216,310.369 314.216,309.408 
				315.176,308.449 316.376,307.488 317.336,307.488 318.296,306.289 319.256,305.328 321.176,305.328 322.376,304.369 
				323.336,304.369 324.296,303.408 325.256,302.449 326.216,302.449 327.176,300.289 327.176,298.369 328.376,297.408 
				328.376,295.488 328.376,293.328 328.376,291.408 			"/>
			<polygon fill-rule="evenodd" clip-rule="evenodd" fill="#CCDEF0" points="326.216,287.328 326.216,288.289 326.216,290.449 
				326.216,292.369 326.216,293.328 326.216,295.488 326.216,297.408 326.216,298.369 325.256,300.289 324.296,301.488 
				323.336,301.488 322.376,302.449 321.176,303.408 320.216,303.408 319.256,304.369 317.336,305.328 316.376,305.328 
				315.176,306.289 314.216,307.488 313.256,308.449 313.256,309.408 312.296,310.369 311.336,311.328 311.336,312.289 
				311.336,314.449 311.336,315.408 312.296,315.408 312.296,316.369 312.296,317.328 313.256,317.328 313.256,318.289 
				314.216,318.289 314.216,319.488 312.296,319.488 311.336,320.449 309.176,320.449 307.256,321.408 306.296,321.408 
				304.376,322.369 302.216,323.328 301.256,323.328 299.336,324.289 298.376,325.488 296.216,326.449 294.296,327.408 
				293.336,327.408 291.176,329.328 290.216,330.289 288.296,331.488 288.296,329.328 289.256,328.369 289.256,326.449 
				289.256,324.289 289.256,323.328 289.256,321.408 289.256,320.449 289.256,318.289 289.256,317.328 289.256,315.408 
				289.256,314.449 289.256,312.289 288.296,310.369 288.296,309.408 288.296,307.488 288.296,306.289 288.296,304.369 
				288.296,303.408 289.256,301.488 289.256,300.289 289.256,298.369 289.256,297.408 289.256,295.488 289.256,294.289 
				290.216,292.369 290.216,291.408 290.216,289.488 291.176,288.289 291.176,287.328 292.376,285.408 292.376,284.449 
				293.336,283.488 295.256,281.328 296.216,280.369 298.376,279.408 300.296,278.449 302.216,277.488 304.376,276.289 
				306.296,275.328 308.216,275.328 310.376,275.328 312.296,274.369 314.216,274.369 317.336,274.369 319.256,274.369 
				321.176,273.408 323.336,273.408 325.256,273.408 325.256,275.328 325.256,277.488 325.256,278.449 325.256,280.369 
				325.256,282.289 325.256,283.488 326.216,285.408 			"/>
			<polygon fill-rule="evenodd" clip-rule="evenodd" fill="#010101" points="376.376,302.449 376.376,300.289 376.376,298.369 
				376.376,296.449 376.376,294.289 376.376,292.369 375.176,290.449 375.176,288.289 375.176,286.369 374.216,285.408 
				374.216,283.488 373.256,281.328 372.296,279.408 371.336,278.449 370.376,276.289 369.176,276.289 367.256,275.328 
				366.296,274.369 365.336,274.369 364.376,274.369 363.176,273.408 361.256,273.408 360.296,273.408 359.336,273.408 
				358.376,273.408 356.216,273.408 355.256,273.408 354.296,273.408 352.376,273.408 351.176,273.408 350.216,273.408 
				348.296,273.408 347.336,273.408 346.376,273.408 344.216,272.449 343.256,273.408 342.296,273.408 341.336,273.408 
				339.176,273.408 339.176,274.369 339.176,276.289 339.176,277.488 339.176,278.449 339.176,280.369 340.376,281.328 
				340.376,282.289 340.376,284.449 340.376,285.408 341.336,286.369 341.336,288.289 341.336,289.488 341.336,291.408 
				341.336,292.369 341.336,293.328 340.376,295.488 340.376,296.449 340.376,298.369 341.336,299.328 341.336,300.289 
				342.296,301.488 343.256,302.449 344.216,303.408 345.176,303.408 346.376,304.369 347.336,305.328 348.296,305.328 
				350.216,306.289 351.176,307.488 352.376,307.488 353.336,308.449 354.296,309.408 355.256,310.369 356.216,310.369 
				356.216,311.328 357.176,312.289 357.176,313.488 357.176,314.449 357.176,315.408 357.176,316.369 356.216,318.289 
				355.256,319.488 354.296,320.449 353.336,321.408 351.176,321.408 350.216,322.369 348.296,322.369 347.336,322.369 
				347.336,323.328 348.296,323.328 348.296,324.289 350.216,324.289 352.376,324.289 354.296,324.289 356.216,324.289 
				358.376,324.289 359.336,325.488 361.256,325.488 363.176,326.449 364.376,327.408 366.296,327.408 367.256,328.369 
				369.176,329.328 370.376,330.289 372.296,331.488 373.256,333.408 374.216,334.369 375.176,334.369 376.376,334.369 
				376.376,333.408 377.336,332.449 377.336,330.289 377.336,328.369 377.336,326.449 377.336,325.488 377.336,323.328 
				377.336,321.408 377.336,319.488 377.336,318.289 377.336,316.369 377.336,314.449 377.336,313.488 377.336,311.328 
				377.336,309.408 377.336,308.449 377.336,306.289 377.336,304.369 			"/>
			<polygon fill-rule="evenodd" clip-rule="evenodd" fill="#CCDEF0" points="376.376,316.369 376.376,317.328 376.376,318.289 
				376.376,319.488 376.376,320.449 376.376,321.408 376.376,322.369 376.376,323.328 376.376,324.289 376.376,325.488 
				376.376,326.449 375.176,328.369 375.176,329.328 375.176,330.289 375.176,331.488 375.176,332.449 374.216,331.488 
				372.296,330.289 371.336,329.328 370.376,328.369 369.176,328.369 367.256,327.408 366.296,326.449 365.336,325.488 
				363.176,325.488 362.216,324.289 361.256,324.289 359.336,323.328 358.376,323.328 356.216,322.369 355.256,322.369 
				354.296,322.369 355.256,321.408 356.216,320.449 357.176,320.449 357.176,319.488 358.376,318.289 358.376,317.328 
				359.336,316.369 359.336,315.408 359.336,313.488 358.376,312.289 358.376,311.328 357.176,310.369 356.216,309.408 
				355.256,308.449 355.256,307.488 354.296,306.289 353.336,306.289 352.376,305.328 351.176,305.328 350.216,304.369 
				349.256,304.369 348.296,303.408 347.336,303.408 347.336,302.449 346.376,302.449 345.176,302.449 344.216,301.488 
				343.256,300.289 342.296,299.328 342.296,298.369 342.296,297.408 341.336,297.408 341.336,296.449 341.336,295.488 
				341.336,294.289 342.296,293.328 342.296,292.369 342.296,291.408 342.296,290.449 342.296,289.488 342.296,288.289 
				342.296,287.328 342.296,286.369 342.296,285.408 342.296,284.449 341.336,283.488 341.336,282.289 341.336,281.328 
				341.336,280.369 341.336,279.408 340.376,278.449 340.376,277.488 340.376,276.289 340.376,275.328 340.376,274.369 
				342.296,274.369 344.216,274.369 346.376,274.369 348.296,274.369 350.216,274.369 352.376,274.369 354.296,274.369 
				355.256,274.369 357.176,274.369 359.336,274.369 360.296,275.328 362.216,275.328 364.376,275.328 366.296,276.289 
				367.256,277.488 369.176,277.488 370.376,279.408 371.336,281.328 372.296,284.449 373.256,286.369 374.216,288.289 
				374.216,290.449 375.176,293.328 375.176,295.488 375.176,298.369 375.176,300.289 375.176,303.408 375.176,305.328 
				375.176,307.488 375.176,310.369 375.176,312.289 376.376,315.408 			"/>
		</g>
		<g>
			<rect x="265.608" y="39.583" fill-rule="evenodd" clip-rule="evenodd" fill="#BCBEC0" width="129.925" height="129.925"/>
			<g>
				<text transform="matrix(0.9288 0 0 1 412.2822 41.1919)" font-size="8">Pixel Row 1 [L]</text>
			</g>
			<g>
				<text transform="matrix(0.9288 0 0 1 292.082 52.1919)" font-size="8">First Pixel</text>
			</g>
			<g>
				<text transform="matrix(0.9288 0 0 1 264.3809 188.9116)" font-size="8">Pixel  Column 1 [F]</text>
			</g>
			
				<rect x="265.608" y="39.583" fill-rule="evenodd" clip-rule="evenodd" fill="#FFFFFF" stroke="#010101" width="8.033" height="8.07"/>
			<g>
				<g>
					<polyline fill="none" stroke="#010101" points="265.608,173.047 265.608,39.583 398.467,39.583 					"/>
					<path fill="#010101" d="M397.446,39.583l-2.189-3.603l0.122-0.082l5.875,2.333c2.047,0.45,4.095,0.9,6.142,1.351
						c-2.047,0.45-4.095,0.9-6.142,1.351l-5.875,2.333l-0.122-0.062L397.446,39.583z"/>
					<path fill="#010101" d="M265.608,172.027l3.604-2.189l0.081,0.122l-2.333,5.875c-0.451,2.047-0.9,4.095-1.352,6.142
						c-0.45-2.047-0.9-4.095-1.352-6.142l-2.333-5.875l0.062-0.122L265.608,172.027z"/>
				</g>
			</g>
			<text transform="matrix(1 0 0 1 331.5117 53.2935)" fill="#0DB14B" font-size="12">H</text>
			<text transform="matrix(1 0 0 1 332.1797 171.8452)" fill="#0DB14B" font-size="12">F</text>
			<text transform="matrix(1 0 0 1 384.7285 120.5981)" fill="#00AEEF" font-size="12">L</text>
			<text transform="matrix(1 0 0 1 272.4424 120.5981)" fill="#00AEEF" font-size="12">R</text>
			<g>
				<text transform="matrix(0.9288 0 0 1 265.4639 29.334)" font-size="11">Coronal Plane</text>
			</g>
			<polyline fill="none" stroke="#010101" stroke-miterlimit="1" points="288.222,49.554 280.235,49.554 270.672,43.284 			"/>
		</g>
		<g>
			<polygon fill-rule="evenodd" clip-rule="evenodd" fill="#010101" points="379.256,111.474 379.256,109.314 379.256,107.394 
				379.256,105.474 379.256,103.314 379.256,101.394 379.256,99.474 378.296,97.314 378.296,95.394 378.296,93.474 377.336,91.313 
				377.336,90.354 376.136,88.434 375.176,86.274 373.256,85.313 371.336,83.393 370.136,83.393 368.216,82.434 367.256,81.473 
				366.296,81.473 364.136,80.274 363.176,79.313 361.256,79.313 360.296,78.354 358.136,77.393 357.176,77.393 355.256,76.434 
				354.296,75.473 353.336,75.473 351.176,74.274 350.216,73.313 349.256,72.354 348.296,71.393 348.296,70.434 348.296,69.473 
				348.296,68.274 347.336,67.313 347.336,66.354 347.336,65.393 347.336,64.434 347.336,63.473 347.336,62.274 347.336,61.313 
				347.336,60.354 347.336,59.393 347.336,58.434 346.136,58.434 345.176,58.434 344.216,58.434 343.256,58.434 342.296,58.434 
				340.136,58.434 339.176,58.434 338.216,58.434 336.296,59.393 335.336,59.393 333.176,59.393 332.216,59.393 330.296,59.393 
				329.336,59.393 327.176,59.393 326.216,59.393 324.296,59.393 323.336,60.354 322.136,60.354 320.216,60.354 319.256,60.354 
				319.256,61.313 319.256,62.274 319.256,63.473 319.256,64.434 319.256,65.393 319.256,66.354 319.256,67.313 319.256,68.274 
				319.256,69.473 319.256,70.434 318.296,71.393 318.296,72.354 317.336,73.313 315.176,74.274 314.216,75.473 312.296,76.434 
				310.136,76.434 309.176,77.393 307.256,78.354 306.296,79.313 304.136,80.274 303.176,81.473 301.256,81.473 300.296,82.434 
				298.136,83.393 296.216,84.354 295.256,85.313 294.296,86.274 292.136,87.473 292.136,88.434 291.176,89.393 290.216,90.354 
				290.216,92.274 290.216,93.474 290.216,94.435 290.216,96.355 290.216,97.314 290.216,99.474 290.216,100.435 290.216,102.355 
				290.216,103.314 289.256,104.275 289.256,105.474 289.256,107.394 289.256,108.355 289.256,110.275 289.256,111.474 
				289.256,113.394 289.256,115.314 289.256,116.275 289.256,118.435 289.256,119.394 289.256,121.314 289.256,122.275 
				289.256,124.435 289.256,126.355 289.256,127.314 288.296,129.474 288.296,130.435 288.296,132.355 288.296,133.314 
				288.296,135.474 288.296,136.435 288.296,138.355 288.296,140.275 288.296,141.474 288.296,143.394 288.296,144.355 
				288.296,146.275 288.296,148.435 288.296,149.394 288.296,151.314 288.296,152.275 288.296,154.435 288.296,156.355 
				288.296,157.314 289.256,158.275 291.176,158.996 292.136,158.996 294.296,159.474 295.256,159.474 297.176,159.474 
				299.336,159.474 300.296,159.474 302.216,159.474 303.176,159.474 305.336,159.474 307.256,159.474 308.216,159.474 
				310.136,159.474 312.296,159.474 313.256,159.474 315.176,159.474 316.136,159.474 318.296,159.474 320.216,159.474 
				321.176,159.474 323.336,159.474 324.296,159.474 326.216,159.474 328.136,159.474 329.336,159.474 331.256,159.474 
				332.216,159.474 334.136,159.474 336.296,159.474 337.256,159.474 341.336,159.474 344.216,159.474 346.136,159.474 
				349.256,159.474 351.176,159.474 353.336,159.474 356.216,159.474 358.136,159.474 360.296,159.474 363.176,159.474 
				365.336,159.474 368.216,159.474 370.136,159.474 372.296,159.474 375.176,159.474 378.296,159.474 379.256,158.275 
				379.256,157.314 379.256,155.394 379.256,154.435 379.256,152.275 379.256,151.314 379.256,150.355 379.256,148.435 
				379.256,147.474 379.256,145.314 379.256,144.355 379.256,143.394 379.256,141.474 379.256,140.275 379.256,138.355 
				379.256,137.394 379.256,135.474 379.256,134.275 379.256,133.314 379.256,131.394 379.256,130.435 379.256,129.474 
				379.256,127.314 379.256,126.355 379.256,124.435 379.256,123.474 379.256,122.275 379.256,120.355 379.256,119.394 			"/>
			<polygon fill-rule="evenodd" clip-rule="evenodd" fill="#6799C8" points="378.296,118.554 378.296,119.515 378.296,120.474 
				378.296,122.394 378.296,123.595 378.296,124.554 378.296,125.515 378.296,127.435 378.296,128.394 378.296,129.595 
				378.296,131.515 378.296,132.474 378.296,133.435 378.296,135.595 378.296,136.554 378.296,137.515 378.296,139.435 
				378.296,140.394 378.296,141.595 378.296,143.515 378.296,144.474 378.296,145.435 378.296,147.595 378.296,148.554 
				378.296,149.515 378.296,151.435 378.296,152.394 378.296,153.595 378.296,154.554 378.296,156.474 378.296,157.435 
				377.336,157.435 376.136,158.394 374.216,157.435 371.336,157.435 369.176,157.435 367.256,157.435 365.336,157.435 
				362.216,157.435 360.296,157.435 358.136,157.435 356.216,157.435 354.296,157.435 351.176,157.435 349.256,157.435 
				347.336,157.435 345.176,157.435 342.296,157.435 340.136,157.435 336.296,157.435 335.336,157.435 333.176,157.435 
				332.216,157.435 330.296,157.435 329.336,157.435 327.176,157.435 326.216,157.435 324.296,157.435 323.336,157.435 
				321.176,157.435 320.216,157.435 318.296,157.435 316.136,157.435 315.176,157.435 313.256,157.435 312.296,157.435 
				310.136,157.435 309.176,157.435 307.256,157.435 306.296,157.435 304.136,157.435 303.176,157.435 301.256,157.435 
				300.296,157.435 298.136,157.435 297.176,157.435 295.256,157.435 293.336,157.435 292.136,157.435 290.216,156.474 
				289.256,156.474 289.256,154.554 289.256,153.595 289.256,151.435 289.256,150.474 289.256,148.554 289.256,146.394 
				289.256,145.435 289.256,143.515 289.256,141.595 289.256,140.394 289.256,138.474 289.256,137.515 289.256,135.595 
				289.256,134.394 289.256,132.474 289.256,130.554 289.256,129.595 290.216,127.435 290.216,126.474 290.216,124.554 
				290.216,122.394 290.216,121.435 290.216,119.515 290.216,118.554 290.216,116.394 290.216,114.474 290.216,113.515 
				290.216,111.595 290.216,110.394 290.216,108.474 290.216,106.554 290.216,105.595 291.176,103.435 291.176,102.474 
				291.176,101.515 291.176,100.554 291.176,99.595 291.176,97.435 291.176,96.474 291.176,95.515 291.176,94.554 291.176,93.595 
				291.176,91.435 292.136,90.474 292.136,89.514 293.336,88.553 294.296,88.553 295.256,87.594 297.176,86.393 298.136,85.434 
				299.336,84.473 300.296,83.514 302.216,83.514 303.176,82.553 304.136,81.594 306.296,81.594 307.256,80.393 308.216,79.434 
				310.136,79.434 311.336,78.473 312.296,77.514 314.216,76.553 315.176,76.553 316.136,75.594 317.336,75.594 318.296,74.393 
				319.256,74.393 319.256,73.434 320.216,72.473 320.216,71.514 320.216,70.553 320.216,69.594 320.216,68.393 320.216,67.434 
				320.216,66.473 320.216,65.514 320.216,64.553 320.216,63.594 320.216,62.393 322.136,61.434 323.336,61.434 325.256,61.434 
				326.216,61.434 328.136,61.434 330.296,60.473 331.256,60.473 333.176,60.473 335.336,60.473 336.296,60.473 338.216,60.473 
				340.136,60.473 341.336,60.473 343.256,60.473 344.216,60.473 346.136,60.473 346.136,61.434 346.136,62.393 346.136,63.594 
				346.136,64.553 346.136,65.514 346.136,66.473 346.136,67.434 346.136,68.393 346.136,69.594 347.336,70.553 347.336,71.514 
				347.336,72.473 348.296,73.434 349.256,74.393 350.216,75.594 351.176,76.553 353.336,76.553 354.296,77.514 356.216,78.473 
				357.176,79.434 359.336,79.434 360.296,80.393 362.216,81.594 363.176,81.594 365.336,82.553 366.296,83.514 367.256,83.514 
				369.176,84.473 370.136,85.434 372.296,85.434 373.256,87.594 374.216,88.553 375.176,90.474 376.136,92.394 377.336,93.595 
				377.336,95.515 377.336,97.435 378.296,99.595 378.296,101.515 378.296,102.474 378.296,104.394 378.296,106.554 
				378.296,108.474 378.296,110.394 378.296,112.554 			"/>
			<polygon fill-rule="evenodd" clip-rule="evenodd" fill="#010101" points="372.283,117.322 372.283,116.361 372.283,114.441 
				372.283,112.281 371.323,110.361 371.323,108.441 371.323,106.281 370.363,104.361 370.363,103.402 369.163,101.482 
				369.163,99.322 368.203,97.402 368.203,96.441 367.243,94.281 367.243,93.321 366.283,91.401 365.323,90.44 363.163,89.481 
				362.203,88.281 361.243,87.321 360.283,86.361 359.323,85.401 358.363,84.441 356.203,84.441 355.243,83.481 354.283,82.281 
				352.363,81.321 351.163,81.321 350.203,80.361 348.283,79.401 347.323,79.401 345.163,78.441 344.203,78.441 342.283,78.441 
				341.323,77.481 339.163,77.481 338.203,77.481 336.283,77.481 336.283,78.441 336.283,79.401 336.283,80.361 336.283,81.321 
				336.283,82.281 336.283,83.481 337.243,84.441 337.243,85.401 338.203,86.361 338.203,87.321 339.163,88.281 339.163,89.481 
				339.163,90.44 339.163,91.401 339.163,92.36 339.163,93.321 338.203,94.281 337.243,95.482 337.243,97.402 337.243,98.361 
				337.243,99.322 337.243,100.281 337.243,101.482 337.243,103.402 337.243,104.361 337.243,105.322 337.243,106.281 
				337.243,107.482 338.203,108.441 338.203,110.361 338.203,111.322 339.163,112.281 339.163,113.482 340.363,114.441 
				341.323,115.402 342.283,116.361 343.243,118.281 344.203,119.482 345.163,120.441 345.163,121.402 346.363,122.361 
				347.323,124.281 348.283,125.482 349.243,126.441 349.243,128.361 350.203,129.322 351.163,130.281 351.163,132.441 
				352.363,133.402 352.363,134.361 352.363,136.281 351.163,137.482 351.163,138.441 351.163,139.402 350.203,140.361 
				349.243,141.322 349.243,142.281 350.203,143.482 351.163,143.482 352.363,143.482 354.283,144.441 355.243,144.441 
				356.203,144.441 358.363,145.402 359.323,145.402 360.283,146.361 362.203,146.361 363.163,147.322 364.363,148.281 
				365.323,149.482 366.283,149.482 367.243,150.441 368.203,151.402 369.163,152.361 370.363,153.322 371.323,153.322 
				371.323,154.281 372.283,154.281 373.243,154.281 373.243,152.361 373.243,150.441 373.243,148.281 373.243,146.361 
				373.243,144.441 373.243,142.281 373.243,140.361 373.243,138.441 373.243,136.281 373.243,135.322 373.243,133.402 
				373.243,131.482 373.243,129.322 373.243,127.402 373.243,125.482 373.243,123.322 373.243,121.402 373.243,119.482 			"/>
			<polygon fill-rule="evenodd" clip-rule="evenodd" fill="#CCDEF0" points="372.283,124.761 372.283,126.921 372.283,129.8 
				372.283,131.96 372.283,133.88 372.283,134.841 372.283,135.8 372.283,136.761 372.283,138.921 372.283,139.88 372.283,140.841 
				372.283,141.8 372.283,143.96 372.283,144.921 372.283,145.88 372.283,146.841 372.283,148.761 372.283,149.96 372.283,150.921 
				371.323,152.841 370.363,151.88 369.163,150.921 368.203,149.96 366.283,148.761 365.323,147.8 364.363,146.841 363.163,146.841 
				362.203,145.88 361.243,144.921 359.323,144.921 358.363,143.96 357.163,143.96 356.203,142.761 354.283,142.761 
				353.323,142.761 352.363,141.8 351.163,141.8 351.163,140.841 352.363,140.841 352.363,139.88 353.323,139.88 353.323,137.96 
				353.323,135.8 353.323,133.88 352.363,131.96 352.363,129.8 351.163,127.88 350.203,126.921 349.243,124.761 348.283,123.8 
				347.323,121.88 346.363,120.921 345.163,118.761 340.363,112.761 340.363,111.8 340.363,110.841 339.163,109.88 339.163,108.921 
				339.163,107.96 338.203,106.761 338.203,105.8 338.203,104.841 338.203,103.88 338.203,102.921 338.203,101.96 338.203,100.761 
				338.203,99.8 338.203,98.841 338.203,97.88 339.163,96.921 339.163,95.96 339.163,94.761 340.363,93.8 340.363,92.841 
				340.363,91.88 341.323,90.921 341.323,89.96 341.323,88.761 340.363,87.8 340.363,86.841 339.163,85.88 338.203,84.921 
				337.243,83.96 337.243,82.761 337.243,81.8 337.243,80.841 337.243,78.921 339.163,79.88 341.323,79.88 343.243,80.841 
				345.163,80.841 347.323,81.8 348.283,81.8 350.203,82.761 352.363,83.96 354.283,84.921 355.243,85.88 357.163,86.841 
				359.323,87.8 360.283,88.761 362.203,89.96 363.163,91.88 365.323,92.841 366.283,94.761 366.283,97.88 367.243,99.8 
				368.203,102.921 369.163,104.841 369.163,106.761 370.363,109.88 370.363,111.8 371.323,114.921 371.323,116.841 371.323,119.96 
				372.283,121.88 			"/>
			<polygon fill-rule="evenodd" clip-rule="evenodd" fill="#010101" points="330.746,81.713 330.746,79.793 330.746,77.874 
				329.786,77.874 328.826,77.874 327.626,76.914 326.666,76.914 325.706,76.914 324.746,76.914 323.786,76.914 322.826,76.914 
				321.626,77.874 320.666,77.874 319.706,77.874 317.786,78.833 315.626,79.793 314.666,80.753 312.746,81.713 310.826,82.914 
				308.666,83.874 306.746,85.793 305.786,86.753 303.626,87.713 301.706,88.914 300.746,90.833 299.786,92.753 298.826,93.714 
				297.626,95.875 297.626,97.794 296.666,100.914 296.666,101.875 296.666,103.794 296.666,104.753 296.666,106.914 
				296.666,108.833 296.666,109.794 295.706,111.714 295.706,113.875 295.706,114.833 295.706,116.753 295.706,118.914 
				295.706,119.875 294.746,121.794 294.746,123.714 294.746,124.914 294.746,126.833 294.746,128.753 294.746,129.714 
				293.786,131.875 293.786,133.794 293.786,134.753 293.786,136.914 293.786,138.833 293.786,139.794 293.786,141.714 
				293.786,143.875 293.786,145.794 292.826,146.753 292.826,148.914 292.826,150.833 292.826,151.794 292.826,153.714 
				293.786,154.914 295.706,152.753 296.666,151.794 298.826,150.833 300.746,149.875 302.666,148.914 304.826,147.714 
				306.746,146.753 308.666,146.753 310.826,145.794 313.706,145.794 315.626,145.794 317.786,144.833 319.706,144.833 
				322.826,144.833 324.746,144.833 326.666,144.833 326.666,142.914 326.666,141.714 326.666,140.753 326.666,139.794 
				326.666,138.833 326.666,137.875 326.666,136.914 326.666,135.714 326.666,134.753 326.666,133.794 326.666,132.833 
				326.666,131.875 326.666,130.914 326.666,129.714 327.626,128.753 327.626,127.794 328.826,126.833 329.786,124.914 
				329.786,123.714 330.746,122.753 330.746,121.794 330.746,119.875 330.746,118.914 331.706,116.753 331.706,115.794 
				331.706,113.875 331.706,112.914 331.706,110.753 331.706,109.794 330.746,108.833 331.706,106.914 331.706,105.714 
				330.746,103.794 330.746,102.833 330.746,100.914 330.746,98.753 330.746,96.833 330.746,95.875 331.706,93.714 331.706,91.794 
				331.706,89.874 331.706,88.914 331.706,86.753 331.706,84.833 331.706,83.874 			"/>
			<polygon fill-rule="evenodd" clip-rule="evenodd" fill="#CCDEF0" points="329.786,83.514 329.786,85.434 329.786,88.314 
				329.786,90.474 329.786,93.354 329.786,95.515 329.786,98.394 329.786,100.314 329.786,102.474 329.786,105.355 329.786,107.515 
				329.786,109.435 329.786,112.314 329.786,114.474 329.786,117.355 329.786,119.515 329.786,120.474 329.786,121.435 
				328.826,122.394 328.826,123.355 328.826,124.314 327.626,125.515 327.626,126.474 326.666,127.435 325.706,128.394 
				325.706,129.355 325.706,130.314 325.706,131.515 325.706,132.474 325.706,134.394 325.706,135.355 325.706,136.314 
				325.706,137.515 325.706,139.435 325.706,140.394 325.706,141.355 325.706,142.314 325.706,143.515 324.746,143.515 
				323.786,143.515 322.826,143.515 321.626,143.515 320.666,143.515 319.706,143.515 318.746,143.515 317.786,143.515 
				315.626,144.474 314.666,144.474 312.746,144.474 311.786,144.474 309.626,145.435 308.666,145.435 306.746,145.435 
				305.786,146.394 303.626,146.394 302.666,147.355 301.706,148.314 299.786,148.314 298.826,149.515 297.626,150.474 
				295.706,151.435 294.746,152.394 294.746,150.474 294.746,148.314 294.746,146.394 294.746,145.435 294.746,143.515 
				294.746,141.355 294.746,140.394 294.746,138.474 294.746,136.314 295.706,135.355 295.706,133.435 295.706,131.515 
				295.706,129.355 295.706,128.394 295.706,126.474 295.706,124.314 295.706,123.355 296.666,121.435 296.666,120.474 
				296.666,118.314 296.666,116.394 296.666,114.474 296.666,113.515 297.626,111.355 297.626,109.435 297.626,108.474 
				297.626,106.314 297.626,104.394 298.826,103.435 298.826,101.515 298.826,99.355 298.826,98.394 299.786,96.474 299.786,95.515 
				300.746,94.314 300.746,93.354 301.706,92.394 302.666,91.435 303.626,90.474 304.826,89.514 305.786,88.314 306.746,88.314 
				308.666,87.354 309.626,86.394 310.826,85.434 311.786,85.434 312.746,84.474 313.706,83.514 314.666,82.314 315.626,82.314 
				316.826,81.354 317.786,81.354 318.746,81.354 319.706,80.394 320.666,80.394 321.626,79.434 322.826,79.434 323.786,79.434 
				324.746,79.434 325.706,79.434 326.666,79.434 327.626,79.434 328.826,80.394 329.786,81.354 			"/>
		</g>
		<g>
			<g>
				<polygon fill-rule="evenodd" clip-rule="evenodd" points="180.317,226.775 180.128,226.586 180.128,226.396 179.939,226.396 
					179.373,217.148 179.373,215.639 179.373,214.127 179.185,212.617 178.996,211.109 178.808,209.598 178.43,208.088 
					178.241,206.578 177.863,205.255 177.486,203.746 177.109,202.425 176.73,200.916 176.353,199.595 175.977,198.083 
					175.599,196.762 175.032,195.442 174.466,194.121 174.089,192.61 173.522,191.289 173.145,189.968 172.579,188.646 
					172.012,187.136 171.634,185.815 171.068,184.494 170.502,183.171 170.124,181.662 169.559,180.341 169.181,179.02 
					168.614,177.51 168.236,176.189 167.86,174.867 167.482,173.358 167.104,172.037 167.482,171.659 167.293,170.337 
					167.293,169.205 167.104,167.884 167.104,166.563 167.293,165.429 167.293,164.109 167.293,162.787 167.293,161.655 
					167.293,160.333 167.482,159.012 167.293,157.691 167.293,156.558 167.104,155.238 166.915,154.105 166.727,152.783 
					166.35,151.652 165.783,149.953 165.028,148.253 164.273,146.366 163.518,144.667 162.574,142.968 161.631,141.458 
					160.687,139.759 159.743,138.061 158.611,136.551 157.478,135.041 156.157,133.531 154.836,132.021 153.515,130.7 
					152.005,129.378 150.684,128.058 148.985,126.925 148.229,126.546 147.475,126.169 146.908,125.792 146.153,125.226 
					145.398,124.849 144.643,124.093 144.077,123.527 143.321,122.96 142.756,122.394 142.189,121.64 141.623,121.074 
					141.058,120.318 140.491,119.751 139.923,118.998 139.358,118.431 138.791,117.865 138.226,117.488 137.659,117.109 
					137.093,116.732 136.527,116.355 136.149,115.977 135.771,115.412 135.394,115.033 135.018,114.279 133.884,113.334 
					132.752,112.58 131.62,111.636 130.299,110.88 128.977,110.126 127.655,109.371 126.334,108.616 125.202,107.861 
					123.881,107.105 122.748,106.162 121.615,105.218 120.672,104.275 119.916,103.142 119.162,101.821 118.784,100.5 
					118.406,98.99 117.652,95.781 115.575,96.158 113.499,96.724 111.424,97.102 109.349,97.48 107.271,98.046 105.384,98.613 
					103.119,98.99 101.232,99.556 99.155,100.123 97.081,100.688 95.005,101.066 92.928,101.632 91.041,102.199 88.965,102.765 
					86.888,103.332 84.814,103.897 84.247,104.085 83.492,104.464 82.737,104.652 81.981,104.841 81.228,105.03 80.66,105.218 
					79.906,105.407 79.151,105.407 78.396,105.595 77.642,105.785 76.887,105.974 76.131,106.162 75.564,106.351 74.812,106.728 
					74.244,107.105 73.68,107.484 73.49,108.238 73.49,108.994 73.68,109.937 73.68,110.693 73.866,111.636 74.056,112.39 
					74.056,113.146 74.244,114.089 74.434,114.845 74.812,115.789 74.812,116.543 75.189,117.298 75.378,118.242 75.564,118.998 
					75.564,119.751 75.753,120.507 75.378,122.583 74.434,123.527 73.301,124.66 72.357,125.792 71.225,127.113 70.282,128.246 
					69.337,129.378 68.394,130.7 67.45,131.833 66.317,133.154 65.563,134.287 64.618,135.607 63.677,136.74 62.733,138.061 
					61.788,139.193 61.034,140.515 60.279,141.835 59.712,142.968 59.146,144.291 58.58,145.611 58.015,147.121 57.637,148.253 
					57.069,149.763 56.505,151.084 55.938,152.407 55.371,153.728 54.806,155.238 54.239,156.558 53.861,158.068 53.296,159.39 
					52.729,160.71 52.351,162.221 51.975,163.542 51.597,165.052 51.219,166.563 51.03,167.884 50.842,169.394 50.652,170.714 
					50.464,172.224 50.464,173.734 50.464,175.056 50.464,176.567 50.464,177.887 50.652,179.398 51.03,180.908 51.408,182.229 
					51.785,183.739 52.351,185.06 52.918,186.57 52.729,187.325 52.729,188.08 52.351,188.835 52.351,189.59 51.975,190.345 
					51.975,191.289 51.785,192.043 51.597,192.799 51.219,194.876 51.03,196.762 50.842,198.839 50.652,200.726 50.464,202.802 
					50.276,204.879 50.276,206.766 50.276,208.844 50.276,210.92 50.276,212.996 50.464,214.883 50.464,216.959 50.652,219.035 
					50.842,221.111 51.03,223.189 51.219,225.266 51.597,227.34 51.785,229.229 52.162,231.305 52.54,233.381 52.918,235.457 
					53.296,237.346 53.672,239.422 54.239,241.498 54.617,243.385 54.994,245.271 55.561,247.348 56.127,249.234 56.692,251.123 
					57.259,253.199 57.637,255.088 58.202,256.975 60.468,256.975 62.545,256.975 64.807,256.975 66.884,257.162 69.148,257.162 
					71.225,257.352 73.49,257.352 75.564,257.541 77.83,257.541 79.906,257.541 82.171,257.73 84.437,257.73 86.512,257.541 
					88.776,257.541 91.041,257.352 93.116,257.352 94.438,257.352 95.571,257.352 96.892,257.352 98.024,257.352 99.344,257.352 
					100.478,257.352 101.799,257.352 103.119,257.352 104.251,257.352 105.572,257.352 106.895,257.352 108.027,257.541 
					109.349,257.541 110.479,257.541 111.8,257.541 113.122,257.73 114.255,257.73 115.575,257.73 116.896,257.73 118.028,257.73 
					119.351,257.73 120.482,257.73 121.805,257.73 122.937,257.73 124.258,257.73 125.58,257.73 126.712,257.73 127.844,257.73 
					129.165,257.73 130.299,257.73 131.62,257.73 132.752,257.541 133.507,257.162 133.695,256.787 133.695,256.598 
					133.507,256.408 133.507,256.221 133.318,255.842 133.13,255.842 133.13,255.465 132.94,255.275 132.94,253.389 133.13,251.689 
					133.318,249.803 133.695,248.104 134.072,246.404 134.64,244.705 135.205,243.006 135.961,241.309 136.527,239.609 
					137.282,238.1 138.037,236.4 138.603,234.703 139.169,233.002 139.923,231.305 140.302,229.605 140.868,227.908 140.868,227.34 
					141.058,226.775 141.058,226.209 141.058,225.641 141.058,225.076 141.058,224.51 141.058,223.943 141.246,223.377 
					141.812,224.131 142.378,224.887 142.945,225.641 143.321,226.396 143.888,227.152 144.455,227.908 144.831,228.662 
					145.398,229.418 145.965,230.172 146.342,230.928 146.908,231.682 147.475,232.438 147.852,233.191 148.418,233.947 
					148.796,234.703 149.361,235.457 150.306,235.646 151.249,235.646 152.193,235.457 153.137,235.078 154.08,234.891 
					155.024,234.514 155.968,234.324 156.724,233.947 158.233,233.568 159.743,233.191 161.253,232.814 162.764,232.248 
					164.273,231.871 165.783,231.492 167.293,230.928 168.804,230.549 170.313,230.172 171.822,229.605 173.333,229.039 
					174.843,228.662 176.353,228.283 177.674,227.719 179.185,227.152 180.507,226.775 				"/>
				<polygon fill-rule="evenodd" clip-rule="evenodd" fill="#86B2D8" points="179.185,223.943 179.185,225.83 177.486,226.396 
					175.788,227.152 173.899,227.719 172.201,228.283 170.313,228.85 168.614,229.418 166.727,229.795 165.028,230.359 
					163.142,230.928 161.442,231.305 159.555,231.871 157.855,232.438 155.968,233.002 154.269,233.568 152.383,234.135 
					150.684,234.703 149.929,234.324 149.174,233.191 148.418,232.059 147.475,230.738 146.72,229.418 145.965,228.283 
					145.021,226.963 144.267,225.83 143.51,224.51 142.756,223.189 142,222.055 141.246,220.734 140.491,219.412 139.923,218.092 
					139.169,216.77 138.414,215.639 137.849,214.127 137.282,212.996 136.716,211.484 136.149,210.164 135.583,208.844 
					135.205,207.521 134.64,206.011 134.262,204.69 133.884,203.18 133.507,201.859 133.318,200.349 133.13,198.839 
					132.752,197.329 132.752,195.818 132.562,194.308 132.562,192.799 132.562,191.289 132.562,190.723 132.562,190.345 
					132.374,189.968 132.374,189.59 132.186,189.212 132.186,188.646 132.186,188.269 132.186,187.891 132.374,188.08 
					132.752,188.269 132.94,188.458 133.318,188.458 134.072,187.703 133.695,186.759 133.13,186.193 132.374,185.439 
					131.62,184.871 130.863,184.304 130.299,183.55 129.731,182.795 129.354,181.851 128.788,181.286 128.222,180.531 
					127.655,179.964 127.09,179.208 126.712,178.642 126.334,177.887 125.956,177.132 125.391,176.377 125.202,175.623 
					124.824,174.867 124.446,174.301 124.069,173.546 123.692,172.791 123.314,172.037 122.937,171.282 122.56,170.527 
					122.748,171.47 122.937,172.603 123.125,173.546 123.503,174.49 123.881,175.246 124.258,176.189 124.824,177.132 
					125.202,177.887 125.768,178.832 126.334,179.585 126.712,180.531 127.278,181.286 127.844,182.229 128.222,182.984 
					128.788,183.927 129.354,184.683 129.731,186.193 130.11,187.514 130.299,188.835 130.675,190.345 130.863,191.667 
					131.053,193.176 131.242,194.498 131.431,196.007 131.62,197.329 131.809,198.839 131.997,200.161 132.374,201.67 
					132.562,202.992 132.94,204.501 133.318,205.823 133.695,207.332 134.072,208.088 134.45,209.033 134.829,209.975 
					135.205,210.73 135.583,211.674 135.961,212.617 136.339,213.562 136.716,214.316 137.282,215.26 137.659,216.016 
					138.037,216.959 138.414,217.902 138.98,218.658 139.358,219.412 139.923,220.357 140.491,221.111 140.491,223.564 
					140.302,225.83 139.736,227.908 139.169,230.172 138.414,232.248 137.659,234.324 136.904,236.4 135.961,238.477 
					135.205,240.365 134.262,242.439 133.507,244.516 132.94,246.594 132.562,248.67 132.186,250.936 132.186,253.199 
					132.374,255.654 131.431,256.221 129.731,256.221 128.033,256.408 126.334,256.408 124.446,256.408 122.748,256.408 
					121.048,256.408 119.162,256.408 117.464,256.408 115.575,256.408 113.877,256.408 111.988,256.408 110.102,256.221 
					108.405,256.221 106.518,256.221 104.629,256.221 102.742,256.221 101.043,256.031 99.155,256.031 97.271,256.031 
					95.571,256.031 93.684,256.031 91.796,255.842 90.097,255.842 88.209,255.842 86.512,255.842 84.625,255.842 82.737,255.842 
					81.038,255.842 79.151,256.031 77.452,256.031 75.753,256.031 73.866,256.221 73.112,256.031 72.169,256.031 71.225,255.842 
					70.282,255.842 69.337,255.842 68.582,255.842 67.639,255.842 66.695,255.842 65.752,255.842 64.996,255.842 64.055,255.842 
					63.109,255.842 62.355,255.842 61.411,255.842 60.656,255.842 59.712,255.842 59.146,254.521 58.77,253.199 58.202,251.879 
					57.826,250.367 57.447,249.047 57.069,247.725 56.881,246.217 56.505,244.895 56.127,243.385 55.749,242.064 55.371,240.742 
					55.183,239.232 54.806,237.91 54.239,236.59 53.861,235.268 53.485,233.947 53.107,232.627 52.918,231.305 52.729,229.984 
					52.54,228.662 52.351,227.34 52.351,226.02 52.162,224.697 51.975,223.377 51.785,222.055 51.597,220.734 51.597,219.412 
					51.408,218.092 51.408,216.77 51.219,215.26 51.219,213.939 51.219,212.617 51.219,211.297 51.219,209.975 51.219,208.654 
					51.219,207.332 51.219,205.823 51.219,204.69 51.408,203.18 51.408,201.859 51.597,200.537 51.597,199.216 51.785,197.895 
					51.975,196.574 52.162,195.252 52.351,193.931 52.54,192.61 52.918,191.289 52.918,190.723 53.296,190.345 53.485,189.779 
					53.861,189.402 54.051,188.835 54.239,188.458 54.239,187.891 53.861,187.325 54.428,186.57 54.617,186.004 54.428,185.439 
					54.051,184.683 53.485,184.117 53.107,183.55 52.729,182.795 52.729,182.041 52.162,180.531 51.785,179.02 51.408,177.51 
					51.219,176 51.219,174.301 51.408,172.603 51.408,171.092 51.597,169.394 51.975,167.695 52.351,166.185 52.729,164.486 
					53.107,162.976 53.672,161.466 54.239,159.767 54.617,158.447 55.183,156.936 55.749,155.804 56.127,154.671 56.692,153.539 
					57.069,152.595 57.447,151.462 57.826,150.33 58.202,149.197 58.77,148.064 59.146,146.933 59.524,145.8 59.901,144.856 
					60.468,143.724 60.846,142.591 61.411,141.458 61.978,140.515 62.545,139.382 63.299,138.439 64.055,137.496 64.996,136.551 
					65.752,135.607 66.506,134.474 67.262,133.531 68.016,132.587 68.961,131.455 69.715,130.511 70.471,129.378 71.225,128.435 
					72.169,127.491 73.112,126.546 73.866,125.603 74.812,124.66 75.753,123.716 75.941,122.96 76.319,122.394 76.887,121.828 
					77.452,121.262 78.019,120.696 78.208,120.13 78.208,119.564 77.452,118.998 76.698,120.318 76.509,119.564 76.509,118.808 
					76.319,118.053 76.131,117.298 75.941,116.543 75.753,115.599 75.564,114.845 75.378,114.089 75.189,113.334 75.001,112.39 
					74.812,111.636 74.623,110.88 74.434,110.126 74.244,109.371 74.056,108.616 74.056,107.861 74.812,107.671 75.564,107.484 
					76.319,107.294 77.074,107.105 77.83,106.917 78.584,106.728 79.34,106.728 80.096,106.54 80.283,107.105 80.472,107.484 
					80.472,107.861 80.472,108.427 80.472,108.804 80.472,109.371 80.472,109.749 80.66,110.126 80.85,109.749 81.038,109.183 
					81.228,108.616 81.038,108.238 81.038,107.671 81.038,107.105 81.038,106.728 81.228,106.162 82.36,105.785 83.492,105.595 
					84.625,105.218 85.568,104.841 86.7,104.464 87.833,104.085 88.776,103.897 89.908,103.519 91.041,103.332 92.173,102.953 
					93.306,102.765 94.438,102.386 95.571,102.199 96.515,101.821 97.646,101.632 98.778,101.443 99.91,101.066 101.043,100.876 
					102.175,100.688 103.309,100.311 104.44,100.123 105.384,99.933 106.518,99.746 107.649,99.367 108.781,99.178 109.913,98.99 
					111.045,98.8 112.178,98.613 113.31,98.234 114.443,98.046 115.575,97.857 116.707,97.48 117.464,98.613 117.841,100.5 
					118.406,102.009 119.162,103.519 119.916,104.841 121.048,105.974 122.183,107.105 123.503,108.05 124.824,108.994 
					126.145,109.749 127.655,110.693 128.977,111.636 130.485,112.39 131.809,113.334 133.13,114.279 134.45,115.412 
					135.771,116.543 136.527,117.298 137.471,118.053 138.414,118.808 139.169,119.564 139.923,120.507 140.868,121.451 
					141.623,122.207 142.567,123.15 143.321,124.093 144.267,124.849 145.21,125.792 146.153,126.546 146.908,127.113 
					148.04,127.869 148.985,128.435 150.117,128.813 151.249,129.755 152.193,130.7 153.325,131.833 154.269,132.777 
					155.214,133.908 156.346,135.041 157.102,136.173 158.045,137.306 158.987,138.439 159.743,139.759 160.498,141.082 
					161.253,142.214 162.008,143.535 162.574,144.856 163.142,146.177 163.706,147.499 164.273,148.82 164.84,150.33 
					165.217,151.652 165.595,153.162 165.783,154.483 166.161,155.804 166.35,157.314 166.539,158.824 166.539,160.333 
					166.539,161.655 166.539,163.166 166.539,164.675 166.35,166.185 166.161,167.695 165.783,169.205 165.405,170.527 
					165.405,171.282 165.217,171.848 165.028,172.414 165.028,172.98 164.84,173.546 164.84,174.113 165.028,174.679 
					165.217,175.246 165.972,172.98 166.539,174.49 167.104,176 167.672,177.699 168.236,179.208 168.804,180.72 169.37,182.417 
					169.936,183.927 170.502,185.439 171.068,187.136 171.634,188.646 172.201,190.345 172.768,191.855 173.333,193.554 
					173.711,195.064 174.277,196.762 174.843,198.273 175.221,199.971 175.788,201.67 176.164,203.18 176.541,204.879 
					176.92,206.578 177.298,208.277 177.674,209.975 178.052,211.674 178.241,213.373 178.43,215.072 178.618,216.77 
					178.996,218.658 178.996,220.357 179.185,222.055 				"/>
				<polygon fill-rule="evenodd" clip-rule="evenodd" fill="#010101" points="129.543,126.359 128.977,126.546 128.222,126.736 
					127.655,126.925 127.09,127.113 126.334,127.491 125.768,127.679 125.202,128.058 124.635,128.246 124.069,128.624 
					123.503,129.001 122.937,129.378 122.371,129.755 121.805,130.134 121.426,130.511 121.237,130.888 121.048,131.078 
					120.672,131.265 120.482,131.644 120.294,131.833 120.294,132.021 120.105,132.398 120.294,132.587 120.672,132.021 
					121.237,131.455 121.805,130.888 122.371,130.322 123.125,129.945 123.692,129.568 124.446,129.189 125.202,128.813 
					125.768,128.435 126.523,128.058 127.278,127.869 128.033,127.491 128.788,127.302 129.354,127.113 130.11,126.736 
					130.863,126.546 130.863,126.169 130.299,126.359 				"/>
			</g>
			<text transform="matrix(1 0 0 1 34.4575 188.5767)" fill="#ED1C24" font-size="12">A</text>
			<text transform="matrix(1 0 0 1 177.4067 188.5762)" fill="#ED1C24" font-size="12">P</text>
			<text transform="matrix(1 0 0 1 92.8765 85.4277)" fill="#0DB14B" font-size="12">H</text>
			<text transform="matrix(1 0 0 1 93.5444 288.0078)" fill="#0DB14B" font-size="12">F</text>
			<g>
				<g>
					
						<line fill="none" stroke="#003468" stroke-width="3" stroke-dasharray="12,6" x1="97.209" y1="91.917" x2="97.209" y2="271.355"/>
				</g>
			</g>
			<g>
				<g>
					
						<line fill="none" stroke="#003468" stroke-width="3" stroke-dasharray="12,3,3,3" x1="137.805" y1="93.443" x2="58.09" y2="269.83"/>
				</g>
			</g>
			
				<polygon fill="#FFFFFF" stroke="#4F8ABE" stroke-width="3" stroke-linecap="round" stroke-linejoin="round" stroke-miterlimit="1" points="
				204.51,147.443 200.591,140.655 215.604,131.987 212.45,126.525 236.591,124.623 222.875,144.582 219.522,138.775 			"/>
			
				<polygon fill="#FFFFFF" stroke="#4F8ABE" stroke-width="3" stroke-linecap="round" stroke-linejoin="round" stroke-miterlimit="1" points="
				204.511,252.359 200.591,259.148 215.604,267.816 212.45,273.277 236.591,275.18 222.875,255.221 219.523,261.027 			"/>
		</g>
	</g>
</g>
</svg>
