<?xml version="1.0" encoding="utf-8"?>
<!-- $Source: /home/bbennett/pass/archive/DicomXml/docbook/part17/figures/PS3.17_FFF.1.2-3.svg,v $ -->
<!-- $Date: 2014/05/09 13:15:43 $ -->
<!-- $Revision: 1.1 $ -->

<!DOCTYPE svg PUBLIC "-//W3C//DTD SVG 1.1//EN" "http://www.w3.org/Graphics/SVG/1.1/DTD/svg11.dtd">
<svg version="1.1" id="Layer_1" xmlns="http://www.w3.org/2000/svg" xmlns:xlink="http://www.w3.org/1999/xlink" x="0px" y="0px"
	 width="502px" height="172px" viewBox="0 0 502 172" enable-background="new 0 0 502 172" xml:space="preserve">

<defs>
	<style type="text/css">
	text {
	  font-family: Helvetica, Verdana, ArialUnicodeMS, san-serif
	}
	</style>
</defs>

<g>
   <desc>
	PS 3.17 Part 17: Explanatory Information
   </desc>
</g>

<g>
	<rect x="1" y="1" fill="#F5EED6" width="500" height="170"/>
	<g>
		<polygon fill="#4F8ABE" stroke="#000000" points="155.155,43.084 93.889,66.584 321.664,155.552 370.068,109.865 		"/>
		<g>
			<polygon fill="#CCDEF0" stroke="#808080" points="159.706,49.916 158.946,48.801 156.334,46.791 154.383,45.506 145.379,40.598 
				140.84,40.111 137.282,39.926 132.848,41.537 130.454,43.186 127.915,45.465 126.364,48.47 126.125,51.584 126.411,54.041 
				128.073,57.865 130.782,59.767 134.366,62.195 145.12,63.838 147.639,64.035 151.196,64.215 152.715,63.836 156.008,62.436 
				158.764,59.775 160.469,56.368 160.807,52.86 			"/>
			<polygon fill="#CCDEF0" stroke="#808080" points="191.399,52.496 190.02,50.336 188.17,48.883 186.225,48.423 184.053,47.986 
				181.991,48.77 179.954,49.795 178.676,51.771 177.848,53.523 177.647,55.748 178.307,58.175 179.69,60.328 181.532,61.795 
				183.475,62.288 185.649,62.641 187.721,61.914 189.709,60.828 191.032,58.901 191.784,57.129 192.03,54.924 			"/>
			<polygon fill="#CCDEF0" stroke="#808080" points="163.879,54.23 162.764,52.628 161.038,50.874 158.846,50.172 156.563,49.713 
				154.526,50.482 152.616,51.244 151.016,52.987 150.055,55.363 149.932,57.887 150.665,60.049 151.729,61.696 153.516,63.396 
				155.692,64.148 157.981,64.521 160.028,63.812 161.907,63.004 163.467,61.248 164.413,58.896 164.561,56.396 			"/>
			<polygon fill="#CCDEF0" stroke="#808080" points="220.956,59.725 220.758,59.234 219.739,57.857 219.147,57.518 207.221,53.433 
				199.553,50.902 197.54,50.466 191.543,50.192 190.245,50.707 188.622,51.551 188.167,52.088 186.977,53.689 186.245,55.836 
				186.116,58.1 186.618,60.016 186.825,60.744 188.01,62.117 188.993,63.197 194.522,65.745 202.629,67.06 204.436,67.354 
				216.776,69.215 217.44,69.186 218.92,68.275 219.282,67.945 220.436,66.257 221.176,64.033 221.36,61.707 			"/>
			<polygon fill="#CCDEF0" stroke="#808080" points="194.346,60.716 193.221,58.815 190.512,56.578 187.309,54.916 177.247,49.77 
				169.684,48.717 165.418,48.322 160.844,50.166 159.506,51.24 156.292,54.305 154.28,58.305 153.899,62.408 153.954,63.896 
				155.571,68.006 158.899,70.35 165.264,73.965 176.956,76.032 180.692,76.674 184.483,76.756 186.917,75.996 190.258,74.379 
				193.098,71.412 194.911,67.676 195.358,63.87 			"/>
			<polygon fill="#CCDEF0" stroke="#808080" points="226.071,61.725 224.948,60.085 223.467,59.025 222.204,58.789 220.276,58.451 
				218.661,59.163 217.151,59.998 216.167,61.615 215.618,62.967 215.487,64.73 216.038,66.615 217.159,68.253 218.635,69.324 
				220.174,69.617 221.825,69.871 223.452,69.194 224.932,68.323 225.946,66.734 226.45,65.367 226.606,63.612 			"/>
			<polygon fill="#CCDEF0" stroke="#808080" points="253.682,66.33 253.436,65.824 252.5,64.57 251.788,64.234 241.071,60.862 
				239.387,60.51 227.03,58.789 225.28,58.814 224.323,59.123 222.846,59.951 221.62,61.742 221.479,61.995 220.834,64.128 
				220.766,66.365 220.821,66.652 221.405,68.771 222.53,70.076 223.331,70.704 224.969,71.347 237.124,74.113 238.817,74.384 
				249.967,75.021 250.749,74.959 252.034,74.119 252.43,73.732 253.391,72.207 253.977,70.203 254.083,68.109 			"/>
			<polygon fill="#CCDEF0" stroke="#808080" points="205.069,64.258 202.827,61.423 200.239,58.481 196.225,57.225 192.659,56.506 
				188.885,57.784 185.821,59.149 183.192,62.197 181.551,66.318 181.241,70.65 182.317,74.299 184.411,77.266 187.174,80.041 
				191.145,81.447 194.727,81.916 198.53,80.819 201.5,79.311 204.02,76.232 205.618,72.181 205.995,67.92 			"/>
			<polygon fill="#CCDEF0" stroke="#808080" points="162.553,65.594 161.875,64.264 161.01,63.311 159.348,61.642 157.762,60.944 
				154.885,60.387 152.065,61.385 150.477,61.965 148.608,64.215 147.899,65.741 147.672,68.123 147.663,69.395 148.038,70.842 
				148.723,72.184 149.584,73.156 151.319,74.756 152.883,75.502 155.772,75.977 157.377,75.473 160.155,74.412 161.958,72.139 
				162.721,70.656 162.87,68.284 162.909,67.027 			"/>
			<polygon fill="#CCDEF0" stroke="#808080" points="228.424,68.732 228.19,68.225 225.276,65.602 221.958,63.264 216.834,61.596 
				205.602,60.808 201.768,60.547 197.586,62.49 197.221,62.678 193.69,66.336 191.405,71.045 190.852,75.814 190.967,76.15 
				192.301,80.132 195.229,82.33 204.094,88.295 209.241,90.05 213.616,90.25 217.836,90.186 218.43,89.941 222.719,87.567 
				226.411,83.394 226.481,83.248 228.78,78.349 228.836,78.225 229.557,73.015 			"/>
			<polygon fill="#CCDEF0" stroke="#808080" points="186.762,76.351 185.215,74.855 184.754,74.418 174.997,68.625 168.772,65.044 
				163.418,64.002 160.952,63.549 158.362,64.492 157.596,64.771 155.674,66.67 154.499,69.253 154.311,72 155.145,74.348 
				155.561,75.416 157.469,77.102 161.768,80.484 168.547,82.856 179.309,86.46 181.471,86.758 182.034,86.811 184.215,85.895 
				186.061,83.964 186.129,83.843 187.186,81.507 187.221,81.395 187.473,78.684 			"/>
			<polygon fill="#CCDEF0" stroke="#808080" points="259.254,68.459 258.356,66.977 257.071,65.951 255.657,65.59 254.401,65.352 
				252.829,65.812 251.633,66.565 250.571,67.848 250.2,69.103 249.917,70.583 250.262,72.223 251.161,73.702 252.444,74.733 
				253.856,75.111 255.11,75.314 256.688,74.879 257.86,74.098 258.948,72.84 259.286,71.574 259.586,70.102 			"/>
			<polygon fill="#CCDEF0" stroke="#808080" points="239.038,74.148 238.497,71.828 237.338,70.375 235.284,68.365 232.497,67.766 
				230.543,67.391 227.958,68.381 226.301,69.315 224.893,71.306 224.395,72.369 223.918,73.828 223.84,75.35 223.885,76.713 
				224.485,79.027 225.7,80.434 227.711,82.482 230.489,83.141 232.444,83.413 235.047,82.492 236.665,81.498 238.026,79.496 
				238.622,78.489 239.094,77.025 239.188,75.5 			"/>
			<polygon fill="#CCDEF0" stroke="#808080" points="274.496,73.463 273.335,71.907 272.613,71.578 267.169,69.205 263.718,68.6 
				259.61,68.723 258.682,68.936 257.106,69.603 256.53,69.978 256.012,70.532 255.657,71.16 255.534,71.732 255.856,72.77 
				256.1,73.496 258.784,75.375 259.706,75.759 262.888,76.897 269.296,77.617 272.003,77.004 272.658,76.83 273.382,76.318 
				273.82,75.992 274.21,75.548 274.482,75.051 274.58,74.602 274.652,73.992 			"/>
			<polygon fill="#CCDEF0" stroke="#808080" points="279.691,80.854 279.552,80.457 278.476,78.861 277.824,78.512 276.267,78.229 
				275.814,78.188 275.822,78.188 275.814,78.188 275,78.111 275.814,78.188 255.053,72.207 240.301,68.225 238.081,67.793 
				236.26,68.736 234.241,69.904 232.518,72.387 231.446,75.686 231.25,79.125 231.963,81.997 233.036,83.375 234.75,85.395 
				249.948,88.197 272.281,91.932 273.482,92.377 275.048,92.574 275.775,92.542 277.398,91.368 277.669,91.087 278.988,88.938 
				279.855,86.156 280.107,83.277 			"/>
			<polygon fill="#CCDEF0" stroke="#808080" points="191.069,80.623 190.75,79.488 190.143,78.471 189.573,77.72 188.174,76.463 
				186.762,76.037 184.616,75.688 183.188,76.306 181.151,77.19 179.913,79.021 179.266,80.328 179.239,82.189 179.356,83.197 
				179.686,84.342 180.295,85.369 180.922,86.074 182.307,87.346 183.711,87.801 185.862,88.098 187.303,87.531 189.315,86.604 
				190.508,84.756 191.186,83.475 191.247,81.623 			"/>
			<polygon fill="#CCDEF0" stroke="#808080" points="223.762,80.094 222.338,78.25 220.571,76.371 217.987,75.584 215.612,75.184 
				213.2,76.049 211.194,76.996 209.495,79.025 208.45,81.734 208.278,84.566 209.008,86.949 210.36,88.85 212.2,90.66 
				214.76,91.518 217.143,91.814 219.575,91.031 221.547,90.024 223.204,87.979 224.231,85.293 224.43,82.486 			"/>
			<polygon fill="#CCDEF0" stroke="#808080" points="217.006,88.537 216.356,86.379 215.03,85.029 214.385,84.594 204.571,79.951 
				193.022,77.002 190.811,76.639 189.198,76.514 188.315,76.762 186.311,77.646 184.643,79.562 183.659,82.131 183.555,84.828 
				184.354,87.103 184.897,87.745 186.553,89.264 188.01,90.111 199.149,94.232 210.065,96.04 211.895,96.266 212.629,96.271 
				214.438,95.357 214.752,94.987 216.096,93.335 216.913,91.164 217.045,88.9 			"/>
			<polygon fill="#CCDEF0" stroke="#808080" points="263.017,94.293 262.416,91.607 261.013,89.953 260.41,89.544 259.165,89.336 
				239.047,81.537 225.338,76.508 222.614,76.047 219.727,77.438 218.442,78.1 216.342,80.639 215.043,84.025 214.813,87.558 
				215.69,90.518 216.489,92.039 218.594,94.133 232.786,98.012 253.885,103.368 255.006,103.915 257.02,104.123 257.711,104.139 
				259.777,102.926 260.009,102.656 261.677,100.43 262.757,97.545 263.046,94.559 			"/>
			<polygon fill="#CCDEF0" stroke="#808080" points="285.117,84.234 284.576,83.178 283.048,81.135 280.767,80.112 279.527,79.887 
				277.183,80.123 275.939,80.871 274.562,81.98 273.878,82.828 273.339,83.938 273.054,85.09 273.078,86.049 273.25,88.235 
				273.837,89.27 275.333,91.322 277.599,92.377 278.849,92.537 281.189,92.345 282.41,91.557 283.826,90.5 284.5,89.643 
				285.037,88.527 285.335,87.381 285.335,86.42 			"/>
			<polygon fill="#CCDEF0" stroke="#808080" points="336.371,106.837 335.984,105.705 332.525,103.219 324.974,99.482 
				307.048,89.977 288.421,82.185 286.97,81.927 284.189,81.477 283.054,82.033 281.648,82.901 280.24,84.672 279.119,86.987 
				278.513,89.377 278.541,91.354 278.863,92.477 279.628,93.852 281.863,95.732 299.937,104.715 318.919,112.073 326.701,115.344 
				330.878,116.344 331.792,116.375 332.791,115.805 333.81,114.957 334.89,113.406 335.826,111.455 336.435,109.484 
				336.597,107.869 			"/>
			<polygon fill="#CCDEF0" stroke="#808080" points="221.424,89.857 220.52,88.176 219.274,86.953 217.938,86.432 216.215,86.167 
				214.776,86.52 213.09,87.34 212.161,88.617 211.321,90.041 211.131,91.605 211.526,93.4 211.614,93.664 212.12,94.6 
				212.43,95.075 213.665,96.305 214.993,96.85 216.721,97.071 218.168,96.758 219.833,95.906 220.79,94.654 221.592,93.213 
				221.807,91.658 			"/>
			<polygon fill="#CCDEF0" stroke="#808080" points="235.637,95.764 235.225,94.842 230.553,91.811 229.153,91.357 225.811,90.394 
				221.665,90.197 220.329,90.436 218.772,91.029 217.954,91.438 217.227,92.043 216.739,92.723 216.583,93.341 216.391,94.604 
				216.774,95.383 218.903,97.766 221.766,99.3 223.215,99.723 229.508,101.085 232.374,100.619 233.336,100.416 234.389,99.85 
				235.323,99.035 235.954,98.131 236.163,97.313 			"/>
			<polygon fill="#CCDEF0" stroke="#808080" points="267.453,97.986 267.285,95.617 266.613,94.593 265.046,92.411 262.701,91.303 
				261.279,91.182 258.897,91.387 257.522,92.254 256.196,93.335 255.461,94.254 254.905,95.43 254.635,96.623 254.696,98.213 
				254.829,99.965 256.19,101.918 257.081,103.156 259.413,104.298 260.839,104.35 263.218,104.193 264.57,103.285 265.939,102.262 
				266.662,101.328 267.218,100.153 267.501,98.962 			"/>
			<polygon fill="#CCDEF0" stroke="#808080" points="320.197,120.141 319.685,119.062 316.107,116.377 308.294,112.319 
				289.781,102.03 270.58,93.574 267.578,93.045 266.07,92.924 264.923,93.484 263.365,94.49 261.851,96.412 260.691,98.861 
				260.119,101.34 260.25,103.34 260.552,104.559 261.494,105.883 263.791,107.902 282.402,117.627 301.996,125.657 
				310.042,129.226 314.365,130.337 315.429,130.249 316.445,129.675 317.58,128.696 318.748,127.009 319.722,124.944 
				320.316,122.897 320.41,121.269 			"/>
			<polygon fill="#CCDEF0" stroke="#808080" points="343.263,111.08 342.865,110.418 341.269,108.771 339.06,107.936 
				338.142,107.989 335.939,108.115 334.177,109.174 333.664,109.59 333.154,110.314 332.748,111.201 332.531,112.078 
				332.544,112.766 332.986,114.605 333.419,115.254 334.99,116.916 337.191,117.775 339.591,117.66 340.326,117.584 
				342.113,116.543 342.615,116.113 343.117,115.379 343.521,114.486 343.746,113.611 343.748,112.922 			"/>
			<polygon fill="#CCDEF0" stroke="#808080" points="342.035,110.551 345.718,91.511 347.021,88.809 347.583,88.038 348.404,87.24 
				349.162,86.822 349.605,86.812 348.679,86.632 347.679,86.684 346.806,86.955 346.228,87.398 344.318,88.968 344.015,89.912 
				339.626,108.09 338.791,114.619 339.169,117.59 339.748,118.805 341.183,119.721 341.144,117.088 			"/>
			<polyline fill="#CCDEF0" stroke="#808080" points="348.404,87.24 347.583,88.038 347.021,88.809 345.718,91.511 342.035,110.551 
				341.144,117.088 341.183,119.721 341.562,119.891 346.271,115.816 346.8,114.869 347.701,111.484 348.707,104.984 
				350.332,87.918 349.605,86.812 349.162,86.822 348.404,87.24 			"/>
			<polygon fill="#CCDEF0" stroke="#808080" points="327.105,127.218 326.658,125.196 326.158,124.577 324.511,122.79 
				322.228,121.87 319.755,121.985 318.894,122.114 317.103,123.185 316.529,123.665 315.972,124.456 315.544,125.405 
				315.337,126.313 315.386,127.009 315.791,129.03 316.324,129.632 317.943,131.431 320.222,132.384 322.712,132.292 
				323.564,132.122 325.386,131.073 325.949,130.577 326.498,129.772 326.921,128.823 327.138,127.913 			"/>
			<polygon fill="#CCDEF0" stroke="#808080" points="324.74,125.312 328.072,105.567 329.46,102.667 330.078,101.818 
				330.994,100.912 331.859,100.396 332.375,100.331 331.402,100.137 330.332,100.21 329.378,100.537 328.728,101.053 
				326.785,102.661 326.384,103.752 322.355,122.526 321.703,129.237 322.218,132.274 322.75,133.649 324.212,134.677 
				324.029,132.024 			"/>
			<polyline fill="#CCDEF0" stroke="#808080" points="330.994,100.912 330.078,101.818 329.46,102.667 328.072,105.567 
				324.74,125.312 324.029,132.024 324.212,134.677 324.664,134.798 329.941,130.095 330.509,129.073 331.39,125.546 
				332.236,118.857 333.277,101.372 332.375,100.331 331.859,100.396 330.994,100.912 			"/>
		</g>
		<g>
			<g>
				<g>
					<line fill="none" stroke="#0DB14B" x1="208.684" y1="70.834" x2="208.684" y2="125.938"/>
					<g>
						<polygon fill="#0DB14B" points="205.779,123.957 208.684,134.798 211.589,123.957 						"/>
					</g>
				</g>
			</g>
			<g>
				<text transform="matrix(0.8815 0 0 1 284.4429 67.4307)" font-size="12">Table Left</text>
			</g>
			<g>
				<text transform="matrix(0.8815 0 0 1 106.7681 107.4004)" font-size="12">Table Right</text>
			</g>
			<text transform="matrix(1 0 0 1 205.7251 148.6465)" fill="#0DB14B" font-size="10">+ Yt</text>
			<text transform="matrix(1 0 0 1 267.5015 36.646)" fill="#ED1C24" font-size="10">+ Xt</text>
			<text transform="matrix(1 0 0 1 86.4746 25.3125)" fill="#00AEEF" font-size="10">+ Zt</text>
			<g>
				<text transform="matrix(0.8815 0 0 1 59.1304 55.313)" font-size="12">Table Head</text>
			</g>
			<g>
				<text transform="matrix(0.8815 0 0 1 353.8579 141.3135)" font-size="12">Table Foot</text>
			</g>
			<g>
				<g>
					<line fill="none" stroke="#00AEEF" x1="208.977" y1="70.832" x2="111.763" y2="34.256"/>
					<g>
						<polygon fill="#00AEEF" points="114.641,32.235 103.471,31.137 112.595,37.673 						"/>
					</g>
				</g>
			</g>
			<g>
				<g>
					<line fill="none" stroke="#ED1C24" x1="208.684" y1="70.834" x2="257.324" y2="44.183"/>
					<g>
						<polygon fill="#ED1C24" points="256.982,47.683 265.093,39.926 254.19,42.587 						"/>
					</g>
				</g>
			</g>
			<g>
				<text transform="matrix(0.8815 0 0 1 365.2456 106.5898)" font-size="12">Table Top Plane</text>
			</g>
			<g>
				<path stroke="#000000" stroke-miterlimit="1" d="M215.368,70.472c0-3.728-3.023-6.75-6.752-6.75v6.75H215.368z"/>
				
					<path fill="#FFFFFF" stroke="#010101" stroke-width="0.75" stroke-linecap="round" stroke-linejoin="round" stroke-miterlimit="1" d="
					M208.616,63.722c-3.729,0-6.75,3.022-6.75,6.75h6.75V63.722z"/>
				<path stroke="#000000" stroke-miterlimit="1" d="M201.866,70.472c0,3.728,3.021,6.75,6.75,6.75v-6.75H201.866z"/>
				
					<path fill="#FFFFFF" stroke="#010101" stroke-width="0.75" stroke-linecap="round" stroke-linejoin="round" stroke-miterlimit="1" d="
					M208.616,70.472v6.75c3.729,0,6.752-3.022,6.752-6.75H208.616z"/>
			</g>
		</g>
	</g>
</g>
</svg>
