<?xml version="1.0" encoding="utf-8"?>
<!-- $Source: /home/bbennett/pass/archive/DicomXml/docbook/part17/figures/PS3.17_B-2.svg,v $ -->
<!-- $Date: 2014/05/09 12:30:21 $ -->
<!-- $Revision: 1.2 $ -->

<!DOCTYPE svg PUBLIC "-//W3C//DTD SVG 1.1//EN" "http://www.w3.org/Graphics/SVG/1.1/DTD/svg11.dtd">
<svg version="1.1" id="Layer_1" xmlns="http://www.w3.org/2000/svg" xmlns:xlink="http://www.w3.org/1999/xlink" x="0px" y="0px"
	 width="502px" height="577px" viewBox="0 0 502 577" enable-background="new 0 0 502 577" xml:space="preserve">

<defs>
	<style type="text/css">
	text {
	  font-family: Helvetica, Verdana, ArialUnicodeMS, san-serif
	}
	</style>
</defs>

<g>
   <desc>
	PS 3.17 Part 17: Explanatory Information
   </desc>
</g>

<g>
	<rect x="1" y="1" fill="#F5EED6" width="500" height="575"/>
	<g>
		<path opacity="0.4" fill="#0DB14B" stroke="#0DB14B" stroke-miterlimit="1" d="M2.968,554.638V69.198h303.902v127.919H163.113
			c-7.843,33.158-11.243,64.72-10.235,99.744c3.59,124.748,52.423,230.672,130.439,257.777H2.968z"/>
		<path opacity="0.4" fill="#FFC20E" stroke="#FFC20E" stroke-miterlimit="1" d="M193.369,113.525
			c31.728-59.891,80.861-98.327,136.016-98.327c95.68,0,169.646,113.644,169.646,256.334c0,142.694-55.941,290.27-169.646,290.27
			c-117.571,0-178.109-138.025-176.781-287.5c0.225-25.283,5.97-54.057,10.51-77.15l0,0c52.878-2.591,93.695-17.582,93.695-40.084
			C256.808,138.78,231.897,120.147,193.369,113.525z"/>
		
			<polygon fill="#CCDEF0" stroke="#010101" stroke-width="0.75" stroke-linecap="round" stroke-linejoin="round" stroke-miterlimit="1" points="
			225.228,225.493 265.666,214.098 306.226,225.655 306.226,225.683 265.666,237.241 		"/>
		
			<polygon fill="#CCDEF0" stroke="#010101" stroke-width="0.75" stroke-linecap="round" stroke-linejoin="round" stroke-miterlimit="1" points="
			137.762,138.031 182.696,129.168 227.762,138.159 227.762,138.179 182.696,147.168 		"/>
		<g>
			<text transform="matrix(1 0 0 1 169.5024 140.6807)" font-size="9">makes</text>
		</g>
		<g>
			<g>
				<polyline fill="none" stroke="#005695" stroke-width="2" stroke-linecap="round" stroke-miterlimit="1" points="
					265.863,237.565 265.863,246.749 312.949,246.749 312.949,150.96 332.558,150.96 332.558,157.263 				"/>
				<path fill="#005695" d="M333.788,160.097c0.6-1.984,1.151-3.273,1.79-4.865h-6.053c0.271,0.569,1.191,2.881,1.79,4.865
					c0.642,2.124,1.08,4.049,1.236,5.298C332.708,164.146,333.147,162.221,333.788,160.097z"/>
			</g>
		</g>
		<g>
			<g>
				<polyline fill="none" stroke="#005695" stroke-width="2" stroke-linecap="round" stroke-miterlimit="1" points="
					357.648,236.126 357.648,246.749 378.189,246.749 404.132,246.749 404.132,150.96 430.939,150.96 430.939,157.263 				"/>
				<path fill="#005695" d="M432.168,160.097c0.6-1.984,1.151-3.273,1.79-4.865h-6.053c0.271,0.569,1.191,2.881,1.79,4.865
					c0.642,2.124,1.08,4.049,1.236,5.298C431.089,164.146,431.528,162.221,432.168,160.097z"/>
			</g>
		</g>
		<g>
			<g>
				<line fill="#4F8ABE" x1="358.089" y1="188.775" x2="358.089" y2="203.538"/>
				<path fill="#4F8ABE" d="M358.705,204.955c0.3-0.992,0.575-1.637,0.895-2.433h-3.026c0.136,0.285,0.596,1.441,0.895,2.433
					c0.321,1.062,0.541,2.024,0.619,2.649C358.165,206.979,358.384,206.017,358.705,204.955z"/>
			</g>
			<g>
				
					<line fill="none" stroke="#005695" stroke-width="2" stroke-linecap="round" stroke-miterlimit="1" x1="358.089" y1="188.775" x2="358.089" y2="203.538"/>
				<path fill="#005695" d="M359.319,206.372c0.6-1.984,1.151-3.273,1.79-4.865h-6.053c0.271,0.569,1.191,2.881,1.79,4.865
					c0.642,2.124,1.08,4.049,1.236,5.298C358.24,210.42,358.678,208.495,359.319,206.372z"/>
			</g>
		</g>
		<polyline fill="none" stroke="#005695" stroke-width="2" stroke-linecap="round" stroke-miterlimit="1" points="306.81,301.984 
			426.187,301.984 426.187,309.173 		"/>
		<path fill="#005695" d="M427.417,312.007c0.6-1.984,1.15-3.273,1.789-4.865h-6.053c0.271,0.568,1.191,2.881,1.791,4.865
			c0.641,2.123,1.08,4.049,1.236,5.297C426.337,316.056,426.777,314.13,427.417,312.007z"/>
		<g>
			<text transform="matrix(1 0 0 1 474.8423 324.1304)" font-size="9">1</text>
		</g>
		<g>
			<text transform="matrix(1 0 0 1 474.8433 350.4214)" font-size="9">1</text>
		</g>
		
			<rect x="262.21" y="274.89" fill="#86B2D8" stroke="#010101" stroke-width="0.75" stroke-linecap="round" stroke-linejoin="round" stroke-miterlimit="1" width="98.992" height="18"/>
		<g>
			<text transform="matrix(1 0 0 1 267.9282 286.4033)" font-size="9">Requested Procedure</text>
		</g>
		<g>
			<g>
				<polyline fill="none" stroke="#005695" stroke-width="2" stroke-linecap="round" stroke-miterlimit="1" points="258.88,103.87 
					258.88,114.494 301.029,114.494 357.972,114.494 357.972,122.957 				"/>
				<path fill="#005695" d="M359.202,125.791c0.6-1.984,1.151-3.273,1.79-4.865h-6.053c0.271,0.569,1.191,2.881,1.79,4.865
					c0.642,2.124,1.08,4.049,1.236,5.298C358.123,129.839,358.561,127.914,359.202,125.791z"/>
			</g>
		</g>
		<g>
			<g>
				<polyline fill="none" stroke="#005695" stroke-width="2" stroke-linecap="round" stroke-miterlimit="1" points="450.363,231.31 
					450.363,257.13 311.107,257.13 311.107,267.753 				"/>
				<path fill="#005695" d="M312.336,270.587c0.6-1.984,1.151-3.273,1.79-4.865h-6.053c0.271,0.569,1.191,2.881,1.79,4.865
					c0.642,2.124,1.08,4.049,1.236,5.298C311.257,274.636,311.696,272.71,312.336,270.587z"/>
			</g>
		</g>
		<polyline fill="none" stroke="#005695" stroke-width="2" stroke-linecap="round" stroke-miterlimit="1" points="189.644,234.911 
			189.644,257.13 310.919,257.13 		"/>
		<g>
			<g>
				<polyline fill="none" stroke="#005695" stroke-width="2" stroke-linecap="round" stroke-miterlimit="1" points="
					316.806,114.494 422.707,114.494 422.906,114.494 449.732,114.494 449.732,122.957 				"/>
				<path fill="#005695" d="M450.961,125.791c0.6-1.984,1.151-3.273,1.79-4.865h-6.053c0.271,0.569,1.191,2.881,1.79,4.865
					c0.642,2.124,1.08,4.049,1.236,5.298C449.882,129.839,450.321,127.914,450.961,125.791z"/>
			</g>
		</g>
		<g>
			<g>
				<polyline fill="none" stroke="#005695" stroke-width="2" stroke-linecap="round" stroke-miterlimit="1" points="258.779,107.47 
					258.779,114.494 182.603,114.494 182.603,121.156 				"/>
				<path fill="#005695" d="M183.833,123.99c0.599-1.984,1.151-3.273,1.79-4.865h-6.053c0.271,0.569,1.191,2.881,1.79,4.865
					c0.642,2.124,1.08,4.049,1.237,5.298C182.752,128.039,183.191,126.113,183.833,123.99z"/>
			</g>
		</g>
		<g>
			<g>
				<polyline fill="none" stroke="#005695" stroke-width="2" stroke-linecap="round" stroke-miterlimit="1" points="
					182.428,188.995 182.428,198.177 191.029,198.177 265.376,198.177 265.376,206.641 				"/>
				<path fill="#005695" d="M266.606,209.475c0.6-1.984,1.151-3.273,1.79-4.865h-6.053c0.271,0.569,1.191,2.881,1.79,4.865
					c0.642,2.124,1.08,4.049,1.236,5.298C265.527,213.524,265.965,211.599,266.606,209.475z"/>
			</g>
		</g>
		<polyline fill="none" stroke="#005695" stroke-width="2" stroke-linecap="round" stroke-miterlimit="1" points="182.323,188.995 
			182.323,198.177 123.436,198.177 123.436,208.082 		"/>
		<path fill="#005695" d="M124.666,210.916c0.599-1.984,1.151-3.273,1.79-4.865h-6.053c0.271,0.569,1.191,2.881,1.79,4.865
			c0.642,2.123,1.08,4.049,1.237,5.298C123.585,214.964,124.024,213.039,124.666,210.916z"/>
		<g>
			<text transform="matrix(1 0 0 1 202.6978 131.6123)" font-size="9">1</text>
		</g>
		<g>
			<text transform="matrix(1 0 0 1 202.6978 150.7373)" font-size="9">0-n</text>
		</g>
		<g>
			<text transform="matrix(1 0 0 1 377.7554 131.6123)" font-size="9">1</text>
		</g>
		<g>
			<text transform="matrix(1 0 0 1 468.4233 131.6123)" font-size="9">1</text>
		</g>
		<g>
			<g>
				<line fill="#4F8ABE" x1="358.166" y1="142.441" x2="358.166" y2="158.057"/>
				<path fill="#4F8ABE" d="M358.781,159.474c0.3-0.992,0.575-1.637,0.895-2.433h-3.026c0.136,0.285,0.596,1.441,0.895,2.433
					c0.321,1.062,0.541,2.024,0.619,2.649C358.241,161.499,358.46,160.536,358.781,159.474z"/>
			</g>
			<g>
				
					<line fill="none" stroke="#005695" stroke-width="2" stroke-linecap="round" stroke-miterlimit="1" x1="358.166" y1="142.441" x2="358.166" y2="158.057"/>
				<path fill="#005695" d="M359.395,160.891c0.6-1.984,1.151-3.273,1.79-4.865h-6.053c0.271,0.569,1.191,2.881,1.79,4.865
					c0.642,2.124,1.08,4.049,1.236,5.298C358.316,164.94,358.754,163.015,359.395,160.891z"/>
			</g>
		</g>
		
			<rect x="317.66" y="166.572" fill="#86B2D8" stroke="#010101" stroke-width="0.75" stroke-linecap="round" stroke-linejoin="round" stroke-miterlimit="1" width="80.99" height="22.5"/>
		<g>
			<text transform="matrix(1 0 0 1 325.6401 180.333)" font-size="9">Service Episode</text>
		</g>
		
			<line fill="#4F8ABE" stroke="#005695" stroke-width="2" stroke-linecap="round" stroke-miterlimit="1" x1="182.837" y1="147.254" x2="182.837" y2="158.057"/>
		<path fill="#005695" d="M184.067,160.891c0.6-1.984,1.152-3.273,1.791-4.865h-6.054c0.271,0.569,1.19,2.881,1.79,4.865
			c0.642,2.123,1.08,4.049,1.236,5.298C182.987,164.94,183.426,163.014,184.067,160.891z"/>
		<g>
			<g>
				<polyline fill="none" stroke="#005695" stroke-width="2" stroke-linecap="round" stroke-miterlimit="1" points="
					312.261,301.984 223.383,301.984 223.383,316.439 				"/>
				<path fill="#005695" d="M224.613,319.273c0.599-1.983,1.151-3.273,1.79-4.865h-6.053c0.271,0.57,1.191,2.882,1.79,4.865
					c0.642,2.124,1.08,4.049,1.237,5.298C223.533,323.322,223.972,321.397,224.613,319.273z"/>
			</g>
		</g>
		
			<line fill="#4F8ABE" stroke="#005695" stroke-width="2" stroke-linecap="round" stroke-miterlimit="1" x1="311.695" y1="293.46" x2="311.695" y2="315.177"/>
		<path fill="#005695" d="M310.464,318.011c-0.6-1.984-1.15-3.273-1.789-4.865h6.053c-0.27,0.568-1.191,2.881-1.791,4.865
			c-0.641,2.123-1.08,4.049-1.236,5.297C311.544,322.06,311.105,320.134,310.464,318.011z"/>
		
			<rect x="216.912" y="84.739" fill="#86B2D8" stroke="#010101" stroke-width="0.75" stroke-linecap="round" stroke-linejoin="round" stroke-miterlimit="1" width="84" height="22.5"/>
		<g>
			<text transform="matrix(1 0 0 1 240.229 99.335)" font-size="12">Patient</text>
		</g>
		<g>
			<text transform="matrix(1 0 0 1 235.1914 227.3428)" font-size="9">occurs during</text>
		</g>
		<g>
			<g>
				
					<line fill="none" stroke="#005695" stroke-width="2" stroke-linecap="round" stroke-miterlimit="1" x1="450.667" y1="189.053" x2="450.667" y2="209.04"/>
				<path fill="#005695" d="M451.897,211.874c0.6-1.984,1.151-3.273,1.79-4.865h-6.053c0.271,0.569,1.191,2.881,1.79,4.865
					c0.642,2.124,1.08,4.049,1.236,5.298C450.818,215.922,451.256,213.997,451.897,211.874z"/>
			</g>
		</g>
		<g>
			<text transform="matrix(1 0 0 1 470.7769 216.3662)" font-size="9">1</text>
		</g>
		<g>
			<text transform="matrix(1 0 0 1 470.7759 238.3711)" font-size="9">1-n</text>
		</g>
		
			<polygon fill="#CCDEF0" stroke="#010101" stroke-width="0.75" stroke-linecap="round" stroke-linejoin="round" stroke-miterlimit="1" points="
			418.833,225.132 450.287,218.485 481.833,225.226 481.833,225.243 450.287,231.985 		"/>
		<g>
			<text transform="matrix(1 0 0 1 443.0913 227.7432)" font-size="9">has</text>
		</g>
		<g>
			<text transform="matrix(1 0 0 1 141.6387 216.3662)" font-size="9">0-n</text>
		</g>
		<g>
			<text transform="matrix(1 0 0 1 141.6387 238.3711)" font-size="9">0-n</text>
		</g>
		<g>
			<text transform="matrix(1 0 0 1 294.0444 216.3662)" font-size="9">0-n</text>
		</g>
		<g>
			<text transform="matrix(1 0 0 1 294.0444 238.3711)" font-size="9">1</text>
		</g>
		<g>
			<text transform="matrix(1 0 0 1 244.1172 326.0542)" font-size="9">1-n</text>
		</g>
		<g>
			<text transform="matrix(1 0 0 1 244.1172 348.0601)" font-size="9">1</text>
		</g>
		<g>
			<text transform="matrix(1 0 0 1 349.1812 326.0542)" font-size="9">1</text>
		</g>
		<g>
			<text transform="matrix(1 0 0 1 349.1792 348.0601)" font-size="9">1-n</text>
		</g>
		<g>
			<text transform="matrix(1 0 0 1 388.1235 216.3662)" font-size="9">1</text>
		</g>
		<g>
			<text transform="matrix(1 0 0 1 388.1235 238.3711)" font-size="9">0-n</text>
		</g>
		
			<polygon fill="#CCDEF0" stroke="#010101" stroke-width="0.75" stroke-linecap="round" stroke-linejoin="round" stroke-miterlimit="1" points="
			92.271,225.097 123.725,216.235 155.271,225.224 155.271,225.245 123.725,234.235 		"/>
		<g>
			<text transform="matrix(1 0 0 1 107.2603 227.7432)" font-size="9">includes</text>
		</g>
		<g>
			<text transform="matrix(1 0 0 1 355.1772 424.394)" font-size="9">1</text>
		</g>
		<g>
			<text transform="matrix(1 0 0 1 355.1772 446.3979)" font-size="9">1-n</text>
		</g>
		<g>
			<text transform="matrix(1 0 0 1 431.1772 424.394)" font-size="9">1</text>
		</g>
		<g>
			<text transform="matrix(1 0 0 1 431.1772 446.3979)" font-size="9">1-n</text>
		</g>
		<g>
			<g>
				<polyline fill="none" stroke="#005695" stroke-width="2" stroke-linecap="round" stroke-miterlimit="1" points="311.49,394.564 
					311.49,403.748 317.355,403.748 330.507,403.748 330.507,412.21 				"/>
				<path fill="#005695" d="M331.737,415.044c0.6-1.983,1.151-3.273,1.79-4.865h-6.053c0.271,0.57,1.191,2.882,1.79,4.865
					c0.642,2.124,1.08,4.049,1.236,5.298C330.658,419.093,331.096,417.168,331.737,415.044z"/>
			</g>
		</g>
		<g>
			<g>
				<polyline fill="none" stroke="#005695" stroke-width="2" stroke-linecap="round" stroke-miterlimit="1" points="
					425.638,394.564 425.638,403.748 407.789,403.748 407.789,413.652 				"/>
				<path fill="#005695" d="M409.018,416.486c0.6-1.983,1.151-3.273,1.79-4.865h-6.053c0.271,0.57,1.191,2.882,1.79,4.865
					c0.642,2.124,1.08,4.049,1.236,5.298C407.939,420.535,408.377,418.61,409.018,416.486z"/>
			</g>
		</g>
		
			<rect x="151.275" y="166.572" fill="#86B2D8" stroke="#010101" stroke-width="0.75" stroke-linecap="round" stroke-linejoin="round" stroke-miterlimit="1" width="63" height="22.5"/>
		<g>
			<text transform="matrix(1 0 0 1 174.2739 180.333)" font-size="9">Visit</text>
		</g>
		<polyline fill="none" stroke="#005695" stroke-width="2" stroke-linecap="round" stroke-miterlimit="1" points="185.69,114.494 
			63.431,114.494 63.431,122.957 		"/>
		<path fill="#005695" d="M64.661,125.791c0.599-1.983,1.151-3.273,1.79-4.864h-6.053c0.271,0.569,1.191,2.881,1.79,4.864
			c0.642,2.124,1.08,4.049,1.237,5.298C63.581,129.839,64.02,127.915,64.661,125.791z"/>
		<g>
			<text transform="matrix(1 0 0 1 82.8076 131.6123)" font-size="9">1</text>
		</g>
		<g>
			<text transform="matrix(1 0 0 1 82.8076 150.7373)" font-size="9">1-n</text>
		</g>
		
			<polygon fill="#CCDEF0" stroke="#010101" stroke-width="0.75" stroke-linecap="round" stroke-linejoin="round" stroke-miterlimit="1" points="
			31.597,138.479 63.051,131.833 94.597,138.574 94.597,138.59 63.051,145.333 		"/>
		<g>
			<text transform="matrix(1 0 0 1 55.8423 141.0947)" font-size="9">has</text>
		</g>
		<g>
			<text transform="matrix(1 0 0 1 377.7554 150.7373)" font-size="9">0-n</text>
		</g>
		<g>
			<text transform="matrix(1 0 0 1 468.4233 150.7373)" font-size="9">0-n</text>
		</g>
		<g>
			<g>
				<line fill="#4F8ABE" x1="450.068" y1="142.441" x2="450.068" y2="158.057"/>
				<path fill="#4F8ABE" d="M450.683,159.474c0.3-0.992,0.575-1.637,0.895-2.433h-3.026c0.136,0.285,0.596,1.441,0.895,2.433
					c0.321,1.062,0.541,2.024,0.619,2.649C450.143,161.499,450.363,160.536,450.683,159.474z"/>
			</g>
			<g>
				
					<line fill="none" stroke="#005695" stroke-width="2" stroke-linecap="round" stroke-miterlimit="1" x1="450.068" y1="142.441" x2="450.068" y2="158.057"/>
				<path fill="#005695" d="M451.297,160.891c0.6-1.984,1.151-3.273,1.79-4.865h-6.053c0.271,0.569,1.191,2.881,1.79,4.865
					c0.642,2.124,1.08,4.049,1.236,5.298C450.218,164.94,450.657,163.015,451.297,160.891z"/>
			</g>
		</g>
		
			<rect x="409.558" y="166.572" fill="#86B2D8" stroke="#010101" stroke-width="0.75" stroke-linecap="round" stroke-linejoin="round" stroke-miterlimit="1" width="81" height="22.5"/>
		<g>
			<text transform="matrix(1 0 0 1 434.062 174.9648)"><tspan x="0" y="0" font-size="9">Imaging</tspan><tspan x="-17.006" y="8.8" font-size="9">Service Request</tspan></text>
		</g>
		
			<polygon fill="#CCDEF0" stroke="#010101" stroke-width="0.75" stroke-linecap="round" stroke-linejoin="round" stroke-miterlimit="1" points="
			317.281,225.024 357.716,211.732 398.269,225.218 398.269,225.247 357.716,238.731 		"/>
		<g>
			<text transform="matrix(1 0 0 1 332.2075 227.7432)" font-size="9">is context for</text>
		</g>
		
			<line fill="#4F8ABE" stroke="#005695" stroke-width="2" stroke-linecap="round" stroke-miterlimit="1" x1="223.152" y1="345.527" x2="223.152" y2="403.986"/>
		<path fill="#005695" d="M224.382,406.82c0.599-1.982,1.151-3.273,1.79-4.865h-6.053c0.271,0.57,1.191,2.883,1.79,4.865
			c0.642,2.125,1.08,4.049,1.237,5.299C223.302,410.869,223.741,408.945,224.382,406.82z"/>
		
			<rect x="182.323" y="413.003" fill="#86B2D8" stroke="#010101" stroke-width="0.75" stroke-linecap="round" stroke-linejoin="round" stroke-miterlimit="1" width="81.644" height="22.484"/>
		<g>
			<text transform="matrix(1 0 0 1 202.3838 422.355)"><tspan x="0" y="0" font-size="9">Procedure</tspan><tspan x="10.758" y="8.801" font-size="9">Type</tspan></text>
		</g>
		
			<line fill="#4F8ABE" stroke="#005695" stroke-width="2" stroke-linecap="round" stroke-miterlimit="1" x1="425.597" y1="352.777" x2="425.597" y2="365.029"/>
		<path fill="#005695" d="M426.828,367.863c0.6-1.984,1.15-3.273,1.789-4.865h-6.053c0.271,0.57,1.191,2.881,1.791,4.865
			c0.641,2.123,1.08,4.049,1.236,5.297C425.748,371.912,426.187,369.986,426.828,367.863z"/>
		
			<rect x="385.091" y="373.408" fill="#86B2D8" stroke="#010101" stroke-width="0.75" stroke-linecap="round" stroke-linejoin="round" stroke-miterlimit="1" width="81" height="22.484"/>
		<g>
			<text transform="matrix(1 0 0 1 404.8442 382.7554)"><tspan x="0" y="0" font-size="9">Procedure</tspan><tspan x="11.755" y="8.801" font-size="9">Plan</tspan></text>
		</g>
		
			<line fill="#4F8ABE" stroke="#005695" stroke-width="2" stroke-linecap="round" stroke-miterlimit="1" x1="311.468" y1="345.527" x2="311.468" y2="364.39"/>
		<path fill="#005695" d="M312.697,367.224c0.6-1.982,1.152-3.273,1.791-4.865h-6.053c0.27,0.57,1.191,2.883,1.789,4.865
			c0.643,2.125,1.08,4.049,1.236,5.299C311.619,371.273,312.056,369.349,312.697,367.224z"/>
		
			<rect x="270.964" y="373.408" fill="#86B2D8" stroke="#010101" stroke-width="0.75" stroke-linecap="round" stroke-linejoin="round" stroke-miterlimit="1" width="80.996" height="22.484"/>
		<g>
			<text transform="matrix(1 0 0 1 290.2046 382.7554)"><tspan x="0" y="0" font-size="9">Scheduled</tspan><tspan x="-10.002" y="8.801" font-size="9">Procedure Step</tspan></text>
		</g>
		
			<rect x="329.951" y="471.314" fill="#86B2D8" stroke="#010101" stroke-width="0.75" stroke-linecap="round" stroke-linejoin="round" stroke-miterlimit="1" width="81" height="22.486"/>
		<g>
			<text transform="matrix(1 0 0 1 357.9771 480.6636)"><tspan x="0" y="0" font-size="9">Action</tspan><tspan x="3.755" y="8.799" font-size="9">Item</tspan></text>
		</g>
		
			<polygon fill="#CCDEF0" stroke="#010101" stroke-width="0.75" stroke-linecap="round" stroke-linejoin="round" stroke-miterlimit="1" points="
			326.66,138.479 358.109,131.833 389.652,138.574 389.652,138.59 358.109,145.333 		"/>
		<g>
			<text transform="matrix(1 0 0 1 350.9019 141.0947)" font-size="9">has</text>
		</g>
		
			<polygon fill="#CCDEF0" stroke="#010101" stroke-width="0.75" stroke-linecap="round" stroke-linejoin="round" stroke-miterlimit="1" points="
			418.164,138.479 449.617,131.833 481.164,138.574 481.164,138.59 449.617,145.333 		"/>
		<g>
			<text transform="matrix(1 0 0 1 442.4214 141.0947)" font-size="9">has</text>
		</g>
		
			<polygon fill="#CCDEF0" stroke="#010101" stroke-width="0.75" stroke-linecap="round" stroke-linejoin="round" stroke-miterlimit="1" points="
			367.091,334.042 425.505,316.32 484.091,334.3 484.091,334.339 425.505,352.32 		"/>
		<g>
			<text transform="matrix(1 0 0 1 415.5972 327.0308)"><tspan x="0" y="0" font-size="9">to be</tspan><tspan x="-31.263" y="8.801" font-size="9">performed according</tspan><tspan x="6.256" y="17.601" font-size="9">to</tspan></text>
		</g>
		
			<polygon fill="#CCDEF0" stroke="#010101" stroke-width="0.75" stroke-linecap="round" stroke-linejoin="round" stroke-miterlimit="1" points="
			371.56,431.812 407.505,420.734 443.56,431.972 443.56,431.998 407.505,443.234 		"/>
		<g>
			<text transform="matrix(1 0 0 1 390.0854 434.4819)" font-size="9">specifies</text>
		</g>
		
			<polygon fill="#CCDEF0" stroke="#010101" stroke-width="0.75" stroke-linecap="round" stroke-linejoin="round" stroke-miterlimit="1" points="
			187.155,334.146 223.101,323.07 259.154,334.306 259.154,334.332 223.101,345.57 		"/>
		<g>
			<text transform="matrix(1 0 0 1 205.1055 336.8315)" font-size="9">specifies</text>
		</g>
		
			<polygon fill="#CCDEF0" stroke="#010101" stroke-width="0.75" stroke-linecap="round" stroke-linejoin="round" stroke-miterlimit="1" points="
			261.974,334.113 311.378,320.82 360.955,334.304 360.955,334.335 311.378,347.82 		"/>
		<g>
			<text transform="matrix(1 0 0 1 281.062 336.8315)" font-size="9">is comprised of</text>
		</g>
		
			<polygon fill="#CCDEF0" stroke="#010101" stroke-width="0.75" stroke-linecap="round" stroke-linejoin="round" stroke-miterlimit="1" points="
			294.574,432.687 330.525,421.609 366.578,432.847 366.578,432.873 330.525,444.109 		"/>
		<g>
			<text transform="matrix(1 0 0 1 314.0718 435.355)" font-size="9">includes</text>
		</g>
		
			<line fill="#4F8ABE" stroke="#005695" stroke-width="2" stroke-linecap="round" stroke-miterlimit="1" x1="93.033" y1="347.244" x2="93.033" y2="365.242"/>
		<path fill="#005695" d="M94.263,368.076c0.599-1.984,1.151-3.273,1.79-4.865H90c0.271,0.568,1.191,2.881,1.79,4.865
			c0.642,2.123,1.08,4.049,1.237,5.297C93.183,372.125,93.622,370.199,94.263,368.076z"/>
		
			<polygon fill="#CCDEF0" stroke="#010101" stroke-width="0.75" stroke-linecap="round" stroke-linejoin="round" stroke-miterlimit="1" points="
			43.616,333.921 93.043,320.628 142.616,334.113 142.616,334.144 93.043,347.628 		"/>
		<g>
			<text transform="matrix(1 0 0 1 67.2021 336.6362)" font-size="9">comprised of</text>
		</g>
		
			<rect x="52.683" y="373.222" fill="#86B2D8" stroke="#010101" stroke-width="0.75" stroke-linecap="round" stroke-linejoin="round" stroke-miterlimit="1" width="80.559" height="22.852"/>
		<g>
			<text transform="matrix(1 0 0 1 54.4434 382.7554)"><tspan x="0" y="0" font-size="9">Modality performed</tspan><tspan x="4.996" y="8.801" font-size="9">Procedure Steps</tspan></text>
		</g>
		<polyline fill="none" stroke="#005695" stroke-width="2" stroke-linecap="round" stroke-miterlimit="1" points="93.561,257.106 
			63.295,257.106 63.295,144.942 		"/>
		<polyline fill="none" stroke="#005695" stroke-width="2" stroke-linecap="round" stroke-miterlimit="1" points="370.568,455.05 
			331.304,455.05 331.304,443.675 		"/>
		<g>
			<g>
				<polyline fill="none" stroke="#005695" stroke-width="2" stroke-linecap="round" stroke-miterlimit="1" points="
					370.183,463.875 370.183,455.05 407.115,455.05 407.115,443.675 				"/>
				<path fill="#005695" d="M371.413,466.708c0.6-1.983,1.151-3.273,1.79-4.865h-6.053c0.271,0.57,1.191,2.882,1.79,4.865
					c0.642,2.124,1.08,4.049,1.236,5.298C370.333,470.757,370.772,468.833,371.413,466.708z"/>
			</g>
		</g>
		<g>
			<g>
				<polyline fill="none" stroke="#005695" stroke-width="2" stroke-linecap="round" stroke-miterlimit="1" points="93.272,434.687 
					93.272,454.669 137.699,454.669 137.699,463.132 				"/>
				<path fill="#005695" d="M138.929,465.966c0.599-1.983,1.151-3.273,1.79-4.865h-6.053c0.271,0.57,1.191,2.882,1.79,4.865
					c0.642,2.124,1.08,4.049,1.237,5.298C137.849,470.015,138.288,468.09,138.929,465.966z"/>
			</g>
		</g>
		<g>
			<g>
				<polyline fill="none" stroke="#005695" stroke-width="2" stroke-linecap="round" stroke-miterlimit="1" points="93.167,434.687 
					93.167,454.669 47.958,454.669 47.958,463.132 				"/>
				<path fill="#005695" d="M49.188,465.966c0.599-1.983,1.151-3.273,1.79-4.865h-6.053c0.271,0.57,1.191,2.882,1.79,4.865
					c0.642,2.124,1.08,4.049,1.237,5.298C48.108,470.015,48.547,468.09,49.188,465.966z"/>
			</g>
		</g>
		<g>
			<g>
				
					<line fill="none" stroke="#005695" stroke-width="2" stroke-linecap="round" stroke-miterlimit="1" x1="137.699" y1="491.025" x2="137.699" y2="502.728"/>
				<path fill="#005695" d="M138.929,505.562c0.599-1.983,1.151-3.273,1.79-4.865h-6.053c0.271,0.57,1.191,2.882,1.79,4.865
					c0.642,2.124,1.08,4.049,1.237,5.298C137.849,509.611,138.288,507.686,138.929,505.562z"/>
			</g>
		</g>
		<g>
			<g>
				
					<line fill="none" stroke="#005695" stroke-width="2" stroke-linecap="round" stroke-miterlimit="1" x1="47.958" y1="491.025" x2="47.958" y2="502.728"/>
				<path fill="#005695" d="M49.188,505.562c0.599-1.983,1.151-3.273,1.79-4.865h-6.053c0.271,0.57,1.191,2.882,1.79,4.865
					c0.642,2.124,1.08,4.049,1.237,5.298C48.108,509.611,48.547,507.686,49.188,505.562z"/>
			</g>
		</g>
		
			<rect x="97.217" y="509.443" fill="#86B2D8" stroke="#010101" stroke-width="0.75" stroke-linecap="round" stroke-linejoin="round" stroke-miterlimit="1" width="81" height="22.484"/>
		<g>
			<text transform="matrix(1 0 0 1 113.4585 523.189)" font-size="9">Amendment</text>
		</g>
		
			<rect x="8.009" y="509.443" fill="#86B2D8" stroke="#010101" stroke-width="0.75" stroke-linecap="round" stroke-linejoin="round" stroke-miterlimit="1" width="80.997" height="22.484"/>
		<g>
			<text transform="matrix(1 0 0 1 34.9995 523.189)" font-size="9">Report</text>
		</g>
		
			<rect x="52.613" y="412.98" fill="#86B2D8" stroke="#010101" stroke-width="0.75" stroke-linecap="round" stroke-linejoin="round" stroke-miterlimit="1" width="81" height="22.486"/>
		<g>
			<text transform="matrix(1 0 0 1 80.3574 426.7261)" font-size="9">Result</text>
		</g>
		<g>
			<text transform="matrix(1 0 0 1 161.2681 473.6694)" font-size="9">1</text>
		</g>
		<g>
			<text transform="matrix(1 0 0 1 161.2686 495.6743)" font-size="9">0-n</text>
		</g>
		
			<polygon fill="#CCDEF0" stroke="#010101" stroke-width="0.75" stroke-linecap="round" stroke-linejoin="round" stroke-miterlimit="1" points="
			101.652,481.593 137.599,492.671 173.652,481.433 173.652,481.408 137.599,470.171 		"/>
		<g>
			<text transform="matrix(1 0 0 1 121.1733 483.9253)" font-size="9">includes</text>
		</g>
		<g>
			<text transform="matrix(1 0 0 1 72.5518 473.6694)" font-size="9">1</text>
		</g>
		<g>
			<text transform="matrix(1 0 0 1 72.5513 495.6743)" font-size="9">0-n</text>
		</g>
		
			<polygon fill="#CCDEF0" stroke="#010101" stroke-width="0.75" stroke-linecap="round" stroke-linejoin="round" stroke-miterlimit="1" points="
			11.949,481.593 47.9,492.671 83.953,481.433 83.953,481.408 47.9,470.171 		"/>
		<g>
			<text transform="matrix(1 0 0 1 31.4463 483.9253)" font-size="9">includes</text>
		</g>
		<g>
			<g>
				
					<line fill="none" stroke="#005695" stroke-width="2" stroke-linecap="round" stroke-miterlimit="1" x1="188.66" y1="198.252" x2="188.66" y2="208.157"/>
				<path fill="#005695" d="M189.89,210.991c0.599-1.984,1.151-3.273,1.79-4.865h-6.053c0.271,0.569,1.191,2.881,1.79,4.865
					c0.642,2.124,1.08,4.049,1.237,5.298C188.81,215.04,189.249,213.114,189.89,210.991z"/>
			</g>
		</g>
		<g>
			<text transform="matrix(1 0 0 1 207.9932 216.4414)" font-size="9">0-n</text>
		</g>
		<g>
			<text transform="matrix(1 0 0 1 207.9932 238.4463)" font-size="9">0-n</text>
		</g>
		
			<polygon fill="#CCDEF0" stroke="#010101" stroke-width="0.75" stroke-linecap="round" stroke-linejoin="round" stroke-miterlimit="1" points="
			158.625,225.173 190.08,216.31 221.625,225.298 221.625,225.321 190.08,234.31 		"/>
		<g>
			<text transform="matrix(1 0 0 1 173.6147 227.8184)" font-size="9">includes</text>
		</g>
		<g>
			<text transform="matrix(1 0 0 1 129.6094 350.9468)" font-size="9">1-n</text>
		</g>
		<path fill="none" stroke="#ED1C24" stroke-miterlimit="1" d="M192.858,114.493"/>
		<g>
			<text transform="matrix(1 0 0 1 15.6318 81.1533)"><tspan x="0" y="0" font-size="11">Original DICOM</tspan><tspan x="-4.898" y="11.2" font-size="11">Real World Model</tspan></text>
		</g>
		<g>
			<text transform="matrix(1 0 0 1 288.3882 35.1533)"><tspan x="0" y="0" font-size="11">Modality Worklist</tspan><tspan x="-2.148" y="11.2" font-size="11">Real World Model</tspan><tspan x="17.408" y="22.4" font-size="11">Extension</tspan></text>
		</g>
		<g>
			<g>
				<polyline fill="none" stroke="#005695" stroke-width="2" stroke-linecap="round" stroke-miterlimit="1" points="75.415,435.716 
					75.415,443.462 23.856,443.462 23.856,261.284 61.467,261.284 61.467,267.587 				"/>
				<path fill="#005695" d="M62.697,270.421c0.599-1.984,1.151-3.273,1.79-4.865h-6.053c0.271,0.569,1.191,2.881,1.79,4.865
					c0.642,2.124,1.08,4.049,1.237,5.298C61.617,274.47,62.056,272.544,62.697,270.421z"/>
			</g>
		</g>
		<g>
			<g>
				
					<line fill="none" stroke="#005695" stroke-width="2" stroke-linecap="round" stroke-miterlimit="1" x1="93.085" y1="292.238" x2="93.085" y2="312.941"/>
				<path fill="#005695" d="M94.315,315.775c0.599-1.983,1.151-3.273,1.79-4.865h-6.053c0.271,0.57,1.191,2.882,1.79,4.865
					c0.642,2.124,1.08,4.049,1.237,5.298C93.235,319.824,93.674,317.899,94.315,315.775z"/>
			</g>
		</g>
		<g>
			<g>
				<polyline fill="none" stroke="#005695" stroke-width="2" stroke-linecap="round" stroke-miterlimit="1" points="93.176,265.931 
					93.176,257.106 123.626,257.106 123.626,234.585 				"/>
				<path fill="#005695" d="M94.406,268.765c0.599-1.984,1.151-3.273,1.79-4.865h-6.053c0.271,0.569,1.191,2.881,1.79,4.865
					c0.642,2.124,1.08,4.049,1.237,5.298C93.326,272.813,93.765,270.888,94.406,268.765z"/>
			</g>
		</g>
		
			<rect x="51.006" y="274.302" fill="#86B2D8" stroke="#010101" stroke-width="0.75" stroke-linecap="round" stroke-linejoin="round" stroke-miterlimit="1" width="83.996" height="18"/>
		<g>
			<text transform="matrix(1 0 0 1 129.6094 323.8999)" font-size="9">1-n</text>
		</g>
		<g>
			<text transform="matrix(1 0 0 1 243.3506 378.5347)" font-size="9">1-n</text>
		</g>
		<g>
			<text transform="matrix(1 0 0 1 150.4424 378.5347)" font-size="9">1-n</text>
		</g>
		<g>
			<text transform="matrix(1 0 0 1 245.3608 277.7432)" font-size="9">1</text>
		</g>
		<g>
			<text transform="matrix(1 0 0 1 145.2529 277.7432)" font-size="9">1</text>
		</g>
		<g>
			<text transform="matrix(1 0 0 1 81.4971 286.4033)" font-size="9">Study</text>
		</g>
		<polygon fill="#FFFFFF" stroke="#4F8ABE" stroke-linecap="round" stroke-linejoin="round" stroke-miterlimit="1" points="
			145.798,281.38 145.797,278.433 135.604,283.302 135.604,283.302 145.797,288.171 145.798,285.224 249.821,285.224 
			249.821,288.171 260.015,283.302 260.015,283.302 249.821,278.433 249.821,281.38 		"/>
		<polygon fill="#FFFFFF" stroke="#4F8ABE" stroke-linecap="round" stroke-linejoin="round" stroke-miterlimit="1" points="
			148.091,382.724 148.09,379.779 137.404,384.648 137.404,384.646 148.09,389.515 148.091,386.57 257.136,386.57 257.136,389.515 
			267.822,384.646 267.822,384.648 257.136,379.779 257.136,382.724 		"/>
		<circle fill="#FFF200" stroke="#000000" cx="197.81" cy="384.648" r="9"/>
		<rect x="194.192" y="379.355" fill="none" width="8.672" height="11.543"/>
		<text transform="matrix(0.9288 0 0 1 194.1924 389.104)" font-size="13.6216">B</text>
	</g>
</g>
</svg>
