<?xml version="1.0" encoding="utf-8"?>
<!-- $Source: /home/bbennett/pass/archive/DicomXml/docbook/part17/figures/PS3.17_GGG.5-2.svg,v $ -->
<!-- $Date: 2014/05/09 13:15:43 $ -->
<!-- $Revision: 1.1 $ -->

<!DOCTYPE svg PUBLIC "-//W3C//DTD SVG 1.1//EN" "http://www.w3.org/Graphics/SVG/1.1/DTD/svg11.dtd">
<svg version="1.1" id="Layer_1" xmlns="http://www.w3.org/2000/svg" xmlns:xlink="http://www.w3.org/1999/xlink" x="0px" y="0px"
	 width="502px" height="377px" viewBox="0 0 502 377" enable-background="new 0 0 502 377" xml:space="preserve">

<defs>
	<style type="text/css">
	text {
	  font-family: Helvetica, Verdana, ArialUnicodeMS, san-serif
	}
	</style>
</defs>

<g>
   <desc>
	PS 3.17 Part 17: Explanatory Information
   </desc>
</g>

<g>
	<rect x="1" y="1" fill="#F5EED6" width="500" height="375"/>
	<g>
		
			<line fill="none" stroke="#005695" stroke-linecap="round" stroke-miterlimit="1" x1="86.228" y1="48.253" x2="86.228" y2="339.586"/>
		
			<line fill="none" stroke="#005695" stroke-linecap="round" stroke-miterlimit="1" x1="171.222" y1="48.253" x2="171.222" y2="359.586"/>
		
			<line fill="none" stroke="#005695" stroke-linecap="round" stroke-miterlimit="1" x1="384.722" y1="48.253" x2="384.722" y2="359.586"/>
		
			<line fill="none" stroke="#005695" stroke-linecap="round" stroke-miterlimit="1" x1="372.3" y1="87.753" x2="90.394" y2="87.753"/>
		<polygon fill="#005695" points="370.716,85.429 379.388,87.753 370.716,90.077 		"/>
		
			<line fill="none" stroke="#005695" stroke-linecap="round" stroke-miterlimit="1" x1="379.388" y1="96.003" x2="97.48" y2="96.003"/>
		<polygon fill="#005695" points="99.066,93.679 90.394,96.003 99.066,98.327 		"/>
		
			<line fill="none" stroke="#005695" stroke-linecap="round" stroke-miterlimit="1" x1="372.3" y1="112.253" x2="90.394" y2="112.253"/>
		<polygon fill="#005695" points="370.716,109.929 379.388,112.253 370.716,114.577 		"/>
		
			<line fill="none" stroke="#005695" stroke-linecap="round" stroke-miterlimit="1" x1="372.3" y1="191.92" x2="90.394" y2="191.92"/>
		<polygon fill="#005695" points="370.716,189.596 379.388,191.92 370.716,194.244 		"/>
		
			<line fill="none" stroke="#005695" stroke-linecap="round" stroke-miterlimit="1" x1="379.388" y1="119.503" x2="97.48" y2="119.503"/>
		<polygon fill="#005695" points="99.066,117.179 90.394,119.503 99.066,121.827 		"/>
		
			<line fill="none" stroke="#005695" stroke-linecap="round" stroke-miterlimit="1" x1="379.388" y1="158.753" x2="97.48" y2="158.753"/>
		<polygon fill="#005695" points="99.066,156.429 90.394,158.753 99.066,161.077 		"/>
		
			<line fill="none" stroke="#005695" stroke-linecap="round" stroke-miterlimit="1" x1="379.388" y1="213.754" x2="97.48" y2="213.754"/>
		<polygon fill="#005695" points="99.066,211.43 90.394,213.754 99.066,216.077 		"/>
		
			<line fill="none" stroke="#005695" stroke-linecap="round" stroke-miterlimit="1" x1="379.388" y1="278.754" x2="97.48" y2="278.754"/>
		<polygon fill="#005695" points="99.066,276.43 90.394,278.754 99.066,281.077 		"/>
		
			<line fill="none" stroke="#005695" stroke-linecap="round" stroke-miterlimit="1" x1="182.976" y1="167.253" x2="379.888" y2="167.253"/>
		<polygon fill="#005695" points="184.561,169.578 175.888,167.253 184.561,164.93 		"/>
		
			<line fill="none" stroke="#005695" stroke-linecap="round" stroke-miterlimit="1" x1="175.888" y1="309.587" x2="372.802" y2="309.587"/>
		<polygon fill="#005695" points="371.216,311.912 379.888,309.587 371.216,307.264 		"/>
		
			<line fill="none" stroke="#005695" stroke-linecap="round" stroke-miterlimit="1" x1="175.888" y1="343.586" x2="372.802" y2="343.586"/>
		<polygon fill="#005695" points="371.216,345.91 379.888,343.588 371.216,341.264 		"/>
		
			<line fill="none" stroke="#005695" stroke-linecap="round" stroke-miterlimit="1" x1="182.976" y1="220.92" x2="379.888" y2="220.92"/>
		<polygon fill="#005695" points="184.561,223.244 175.888,220.92 184.561,218.596 		"/>
		
			<line fill="none" stroke="#005695" stroke-linecap="round" stroke-miterlimit="1" x1="182.976" y1="285.92" x2="379.888" y2="285.92"/>
		<polygon fill="#005695" points="184.561,288.244 175.888,285.92 184.561,283.596 		"/>
		
			<line fill="none" stroke="#005695" stroke-linecap="round" stroke-miterlimit="1" x1="182.976" y1="317.586" x2="379.888" y2="317.586"/>
		<polygon fill="#005695" points="184.561,319.91 175.888,317.588 184.561,315.264 		"/>
		<polyline fill="none" stroke="#005695" stroke-linecap="round" stroke-linejoin="round" points="166.138,167.003 155.888,167.003 
			155.919,176.832 160.822,176.834 		"/>
		<polygon fill="#005695" points="159.633,178.577 166.138,176.836 159.635,175.091 		"/>
		<polyline fill="none" stroke="#005695" stroke-linecap="round" stroke-linejoin="round" points="389.888,110.503 400.138,110.503 
			400.106,120.332 395.204,120.334 		"/>
		<polygon fill="#005695" points="396.392,118.59 389.888,120.336 396.394,122.076 		"/>
		<polyline fill="none" stroke="#005695" stroke-linecap="round" stroke-linejoin="round" points="389.888,148.753 400.138,148.753 
			400.106,158.582 395.204,158.584 		"/>
		<polygon fill="#005695" points="396.392,156.84 389.888,158.586 396.394,160.326 		"/>
		<polyline fill="none" stroke="#005695" stroke-linecap="round" stroke-linejoin="round" points="389.888,229.004 400.138,229.004 
			400.106,238.832 395.204,238.834 		"/>
		<polygon fill="#005695" points="396.392,237.09 389.888,238.836 396.394,240.576 		"/>
		<polyline fill="none" stroke="#005695" stroke-linecap="round" stroke-linejoin="round" points="389.888,250.004 400.138,250.004 
			400.106,259.832 395.204,259.834 		"/>
		<polygon fill="#005695" points="396.392,258.09 389.888,259.836 396.394,261.576 		"/>
		<polyline fill="none" stroke="#005695" stroke-linecap="round" stroke-linejoin="round" points="389.888,269.004 400.138,269.004 
			400.106,278.832 395.204,278.834 		"/>
		<polygon fill="#005695" points="396.392,277.09 389.888,278.836 396.394,280.576 		"/>
		<polyline fill="none" stroke="#005695" stroke-linecap="round" stroke-linejoin="round" points="389.888,341.004 400.138,341.004 
			400.106,350.832 395.204,350.834 		"/>
		<polygon fill="#005695" points="396.392,349.09 389.888,350.836 396.394,352.576 		"/>
		<polyline fill="none" stroke="#005695" stroke-linecap="round" stroke-linejoin="round" points="80.394,160.753 70.144,160.753 
			70.175,170.582 75.078,170.584 		"/>
		<polygon fill="#005695" points="73.889,172.327 80.394,170.586 73.891,168.841 		"/>
		<polyline fill="none" stroke="#005695" stroke-linecap="round" stroke-linejoin="round" points="80.394,120.503 70.144,120.503 
			70.175,130.332 75.078,130.334 		"/>
		<polygon fill="#005695" points="73.889,132.077 80.394,130.336 73.891,128.591 		"/>
		<polyline fill="none" stroke="#005695" stroke-linecap="round" stroke-linejoin="round" points="80.394,179.753 70.144,179.753 
			70.175,189.582 75.078,189.584 		"/>
		<polygon fill="#005695" points="73.889,191.326 80.394,189.586 73.891,187.841 		"/>
		<polyline fill="none" stroke="#005695" stroke-linecap="round" stroke-linejoin="round" points="80.394,277.754 70.144,277.754 
			70.175,287.582 75.078,287.584 		"/>
		<polygon fill="#005695" points="73.889,289.326 80.394,287.586 73.891,285.841 		"/>
		<rect x="80.894" y="80.086" fill="#CCDEF0" width="9.5" height="53.917"/>
		
			<rect x="80.894" y="80.086" fill="none" stroke="#010101" stroke-width="0.75" stroke-linecap="round" stroke-linejoin="round" stroke-miterlimit="1" width="9.5" height="53.917"/>
		<rect x="80.894" y="157.669" fill="#CCDEF0" width="9.5" height="39.167"/>
		
			<rect x="80.894" y="157.669" fill="none" stroke="#010101" stroke-width="0.75" stroke-linecap="round" stroke-linejoin="round" stroke-miterlimit="1" width="9.5" height="39.167"/>
		<rect x="80.894" y="212.17" fill="#CCDEF0" width="9.5" height="16.666"/>
		
			<rect x="80.894" y="212.17" fill="none" stroke="#010101" stroke-width="0.75" stroke-linecap="round" stroke-linejoin="round" stroke-miterlimit="1" width="9.5" height="16.666"/>
		<rect x="80.894" y="277.42" fill="#CCDEF0" width="9.5" height="16.666"/>
		
			<rect x="80.894" y="277.42" fill="none" stroke="#010101" stroke-width="0.75" stroke-linecap="round" stroke-linejoin="round" stroke-miterlimit="1" width="9.5" height="16.666"/>
		<rect x="166.575" y="166.669" fill="#CCDEF0" width="9.5" height="16.667"/>
		
			<rect x="166.575" y="166.669" fill="none" stroke="#010101" stroke-width="0.75" stroke-linecap="round" stroke-linejoin="round" stroke-miterlimit="1" width="9.5" height="16.667"/>
		<rect x="380.056" y="84.253" fill="#CCDEF0" width="9.5" height="14"/>
		
			<rect x="380.056" y="84.253" fill="none" stroke="#010101" stroke-width="0.75" stroke-linecap="round" stroke-linejoin="round" stroke-miterlimit="1" width="9.5" height="14"/>
		<rect x="380.056" y="107.753" fill="#CCDEF0" width="9.5" height="16"/>
		
			<rect x="380.056" y="107.753" fill="none" stroke="#010101" stroke-width="0.75" stroke-linecap="round" stroke-linejoin="round" stroke-miterlimit="1" width="9.5" height="16"/>
		<rect x="380.056" y="304.588" fill="#CCDEF0" width="9.5" height="14.332"/>
		
			<rect x="380.056" y="304.588" fill="none" stroke="#010101" stroke-width="0.75" stroke-linecap="round" stroke-linejoin="round" stroke-miterlimit="1" width="9.5" height="14.332"/>
		<rect x="380.056" y="338.588" fill="#CCDEF0" width="9.5" height="15.832"/>
		
			<rect x="380.056" y="338.588" fill="none" stroke="#010101" stroke-width="0.75" stroke-linecap="round" stroke-linejoin="round" stroke-miterlimit="1" width="9.5" height="15.832"/>
		<rect x="380.056" y="143.586" fill="#CCDEF0" width="9.5" height="30"/>
		
			<rect x="380.056" y="143.586" fill="none" stroke="#010101" stroke-width="0.75" stroke-linecap="round" stroke-linejoin="round" stroke-miterlimit="1" width="9.5" height="30"/>
		<rect x="380.056" y="186.92" fill="#CCDEF0" width="9.5" height="99.666"/>
		
			<rect x="380.056" y="186.92" fill="none" stroke="#010101" stroke-width="0.75" stroke-linecap="round" stroke-linejoin="round" stroke-miterlimit="1" width="9.5" height="99.666"/>
		<rect x="166.575" y="219.754" fill="#CCDEF0" width="9.5" height="16.666"/>
		
			<rect x="166.575" y="219.754" fill="none" stroke="#010101" stroke-width="0.75" stroke-linecap="round" stroke-linejoin="round" stroke-miterlimit="1" width="9.5" height="16.666"/>
		<rect x="166.575" y="285.754" fill="#CCDEF0" width="9.5" height="64.166"/>
		
			<rect x="166.575" y="285.754" fill="none" stroke="#010101" stroke-width="0.75" stroke-linecap="round" stroke-linejoin="round" stroke-miterlimit="1" width="9.5" height="64.166"/>
		
			<rect x="346.388" y="17.414" fill="#CCDEF0" stroke="#010101" stroke-width="0.75" stroke-linecap="round" stroke-linejoin="round" stroke-miterlimit="1" width="77" height="30"/>
		
			<rect x="141.722" y="17.414" fill="#CCDEF0" stroke="#010101" stroke-width="0.75" stroke-linecap="round" stroke-linejoin="round" stroke-miterlimit="1" width="59" height="30"/>
		
			<rect x="64.227" y="17.414" fill="#CCDEF0" stroke="#010101" stroke-width="0.75" stroke-linecap="round" stroke-linejoin="round" stroke-miterlimit="1" width="44" height="30"/>
		<text transform="matrix(1 0 0 1 76.7256 29.5195)"><tspan x="0" y="0" fill="#010101" font-size="9">User</tspan><tspan x="-8.002" y="10.8" fill="#010101" font-size="9">Terminal</tspan></text>
		<text transform="matrix(1 0 0 1 145.9639 29.5195)"><tspan x="0" y="0" fill="#010101" font-size="9">User Control</tspan><tspan x="8.748" y="10.8" fill="#010101" font-size="9">Console</tspan></text>
		<text transform="matrix(1 0 0 1 350.7031 29.5195)"><tspan x="0" y="0" fill="#010101" font-size="9">Dose Calculation</tspan><tspan x="19.016" y="10.8" fill="#010101" font-size="9">System</tspan></text>
		<text transform="matrix(1 0 0 1 188.46 84.2534)" fill="#010101" font-size="6.5">Find UPS Task of Interest (C-FIND)</text>
		<text transform="matrix(1 0 0 1 188.46 109.2524)" fill="#010101" font-size="6.5">Subscribe for Task X (N-ACTION SUBSCRIBE)</text>
		<text transform="matrix(1 0 0 1 188.46 128.252)" fill="#010101" font-size="6.5">Report Task X Current Status (N-EVENT)</text>
		<text transform="matrix(1 0 0 1 188.46 153.251)" fill="#010101" font-size="6.5">Report Task X Progress (N-EVENT)</text>
		<text transform="matrix(1 0 0 1 404.624 113.9194)" fill="#010101" font-size="6.5">Add Terminal to Task X</text>
		<text transform="matrix(1 0 0 1 404.624 121.7197)" fill="#010101" font-size="6.5">Subscriber List</text>
		<text transform="matrix(1 0 0 1 11.3975 123.9165)" fill="#010101" font-size="6.5">Display Progress</text>
		<text transform="matrix(1 0 0 1 11.3975 131.7163)" fill="#010101" font-size="6.5">“Beam 2 of 5”</text>
		<text transform="matrix(1 0 0 1 11.3975 163.9175)" fill="#010101" font-size="6.5">Display Progress</text>
		<text transform="matrix(1 0 0 1 11.3975 171.7173)" fill="#010101" font-size="6.5">“Beam 3 of 5”</text>
		<text transform="matrix(1 0 0 1 11.3975 183.918)" fill="#010101" font-size="6.5">User decides</text>
		<text transform="matrix(1 0 0 1 11.3975 191.7178)" fill="#010101" font-size="6.5">to cancel</text>
		<text transform="matrix(1 0 0 1 11.3975 280.918)" fill="#010101" font-size="6.5">Display Result</text>
		<text transform="matrix(1 0 0 1 11.3975 288.7168)" fill="#010101" font-size="6.5">“Task X Canceled”</text>
		<text transform="matrix(1 0 0 1 404.624 152.5815)" fill="#010101" font-size="6.5">Update Task X UPS Progress</text>
		<text transform="matrix(1 0 0 1 404.624 160.3813)" fill="#010101" font-size="6.5">to “Beam 3 of 5”</text>
		<text transform="matrix(1 0 0 1 404.624 232.083)" fill="#010101" font-size="6.5">Decide Canceling Task X</text>
		<text transform="matrix(1 0 0 1 404.624 239.8828)" fill="#010101" font-size="6.5">is feasible and agreeable</text>
		<text transform="matrix(1 0 0 1 404.624 256.25)" fill="#010101" font-size="6.5">Update Task X Details</text>
		<text transform="matrix(1 0 0 1 404.624 273.416)" fill="#010101" font-size="6.5">Update Task X UPS</text>
		<text transform="matrix(1 0 0 1 404.624 281.2168)" fill="#010101" font-size="6.5">Status to CANCELED </text>
		<text transform="matrix(1 0 0 1 404.624 348.4199)" fill="#010101" font-size="6.5">Delete Task X</text>
		<text transform="matrix(1 0 0 1 188.46 331.4229)" fill="#010101" font-size="6.5">UnSubscribe for Task X</text>
		<text transform="matrix(1 0 0 1 188.46 339.2227)" fill="#010101" font-size="6.5">(N-ACTION SUBSCRIBE [Task X])    </text>
		<text transform="matrix(1 0 0 1 188.46 306.0918)" fill="#010101" font-size="6.5">Retrieve Final State Details (N-GET)</text>
		<text transform="matrix(1 0 0 1 188.46 275.4248)" fill="#010101" font-size="6.5">Report Task X Canceled (N-EVENT)</text>
		<text transform="matrix(1 0 0 1 188.46 209.7617)" fill="#010101" font-size="6.5">Report Task X Canceled Requested (N-EVENT)</text>
		<text transform="matrix(1 0 0 1 188.46 187.2588)" fill="#010101" font-size="6.5">Request Task X Cancel (N-ACTION CANCEL REQUEST)</text>
		<text transform="matrix(1 0 0 1 102.4976 174.2588)"><tspan x="0" y="0" fill="#010101" font-size="6.5">Display Progress</tspan><tspan x="4.875" y="7.8" fill="#010101" font-size="6.5">“Beam 3 of 5”</tspan></text>
		<text transform="matrix(1 0 0 1 408.2207 70.9194)" fill="#010101" font-size="24">...</text>
		<text transform="matrix(1 0 0 1 215.6616 196.2969)" fill="#010101" font-size="6.5">“Beam 3 of 5”</text>
	</g>
</g>
</svg>
