<?xml version="1.0" encoding="utf-8"?>
<!-- $Source: /home/bbennett/pass/archive/DicomXml/docbook/part17/figures/PS3.17_JJJ.1-1.svg,v $ -->
<!-- $Date: 2014/05/09 13:15:43 $ -->
<!-- $Revision: 1.1 $ -->

<!DOCTYPE svg PUBLIC "-//W3C//DTD SVG 1.1//EN" "http://www.w3.org/Graphics/SVG/1.1/DTD/svg11.dtd">
<svg version="1.1" id="Layer_1" xmlns="http://www.w3.org/2000/svg" xmlns:xlink="http://www.w3.org/1999/xlink" x="0px" y="0px"
	 width="502px" height="422px" viewBox="0 0 502 422" enable-background="new 0 0 502 422" xml:space="preserve">

<defs>
	<style type="text/css">
	text {
	  font-family: Helvetica, Verdana, ArialUnicodeMS, san-serif
	}
	</style>
</defs>

<g>
   <desc>
	PS 3.17 Part 17: Explanatory Information
   </desc>
</g>

<g>
	<rect x="1" y="1" fill="#F5EED6" width="500" height="420"/>
	<g>
		<rect x="91.166" y="15.979" fill="#FFFFFF" width="319.668" height="59"/>
		<rect x="91.166" y="87.971" fill="#CCDEF0" width="319.668" height="56"/>
		<rect x="91.166" y="156.918" fill="#B2CEE7" width="319.668" height="249.102"/>
		
			<line fill="none" stroke="#005695" stroke-linecap="round" stroke-miterlimit="1" x1="285.168" y1="150.878" x2="285.168" y2="134.199"/>
		<text transform="matrix(1 0 0 1 94.7656 30.2153)" font-size="12">PATIENT</text>
		<text transform="matrix(1 0 0 1 94.7656 102.2085)" font-size="12">STUDY</text>
		<text transform="matrix(1 0 0 1 94.7656 171.1562)" font-size="12">SERIES</text>
		<polyline fill="none" stroke="#005695" stroke-linecap="round" stroke-miterlimit="1" points="345.275,82.153 284.835,82.153 
			284.835,97.518 		"/>
		
			<line fill="none" stroke="#005695" stroke-linecap="round" stroke-miterlimit="1" x1="345.275" y1="82.153" x2="345.275" y2="64.153"/>
		<polyline fill="none" stroke="#005695" stroke-linecap="round" stroke-miterlimit="1" stroke-dasharray="4,4" points="
			395.715,94.245 395.715,82.152 345.275,82.152 		"/>
		
			<rect x="303.275" y="27.745" fill="#6799C8" stroke="#010101" stroke-width="0.75" stroke-linecap="round" stroke-linejoin="round" stroke-miterlimit="1" width="83.998" height="36.908"/>
		
			<rect x="243.169" y="97.517" fill="#6799C8" stroke="#010101" stroke-width="0.75" stroke-linecap="round" stroke-linejoin="round" stroke-miterlimit="1" width="83.999" height="36.908"/>
		<polyline fill="none" stroke="#005695" stroke-linecap="round" stroke-miterlimit="1" points="360.82,375.758 360.82,150.878 
			209.941,150.878 209.941,376.424 		"/>
		<g>
			<g>
				<g>
					
						<line fill="none" stroke="#005695" stroke-linecap="round" stroke-miterlimit="1" x1="240.612" y1="243.303" x2="323.618" y2="243.303"/>
					<g>
						<polygon fill="#005695" points="322.429,245.046 328.934,243.303 322.429,241.56 						"/>
					</g>
				</g>
			</g>
			<g>
				<g>
					
						<line fill="none" stroke="#005695" stroke-linecap="round" stroke-miterlimit="1" x1="240.612" y1="280.424" x2="323.618" y2="280.424"/>
					<g>
						<polygon fill="#005695" points="322.429,282.167 328.934,280.424 322.429,278.681 						"/>
					</g>
				</g>
			</g>
			<g>
				<g>
					
						<line fill="none" stroke="#005695" stroke-linecap="round" stroke-miterlimit="1" x1="240.612" y1="317.543" x2="324.437" y2="350.646"/>
					<g>
						<polygon fill="#005695" points="322.69,351.831 329.381,352.598 323.972,348.587 						"/>
					</g>
				</g>
			</g>
			<g>
				<g>
					
						<line fill="none" stroke="#005695" stroke-linecap="round" stroke-miterlimit="1" x1="240.612" y1="354.665" x2="323.618" y2="354.665"/>
					<g>
						<polygon fill="#005695" points="322.429,356.408 328.934,354.665 322.429,352.921 						"/>
					</g>
				</g>
			</g>
			<g>
				<g>
					
						<line fill="none" stroke="#005695" stroke-linecap="round" stroke-miterlimit="1" x1="240.612" y1="280.424" x2="324.437" y2="313.525"/>
					<g>
						<polygon fill="#005695" points="322.69,314.709 329.381,315.477 323.971,311.466 						"/>
					</g>
				</g>
			</g>
		</g>
		<text transform="matrix(1 0 0 1 269.875 230.8901)"><tspan x="0" y="0" font-size="8">Instance</tspan><tspan x="-4.445" y="9.601" font-size="8">Reference </tspan></text>
		<text transform="matrix(1 0 0 1 269.875 268.5112)"><tspan x="0" y="0" font-size="8">Instance</tspan><tspan x="-4.445" y="9.601" font-size="8">Reference </tspan></text>
		<text transform="matrix(1 0 0 1 269.875 315.1323)"><tspan x="0" y="0" font-size="8">Instance</tspan><tspan x="-4.445" y="9.601" font-size="8">Reference </tspan></text>
		
			<line fill="none" stroke="#005695" stroke-linecap="round" stroke-miterlimit="1" stroke-dasharray="4,4" x1="209.941" y1="376.424" x2="209.941" y2="395.008"/>
		
			<line fill="none" stroke="#005695" stroke-linecap="round" stroke-miterlimit="1" stroke-dasharray="4,4" x1="360.82" y1="376.424" x2="360.82" y2="395.008"/>
		
			<rect x="167.886" y="175.17" fill="#6799C8" stroke="#010101" stroke-width="0.75" stroke-linecap="round" stroke-linejoin="round" stroke-miterlimit="1" width="83.999" height="36.908"/>
		
			<rect x="318.453" y="175.17" fill="#6799C8" stroke="#010101" stroke-width="0.75" stroke-linecap="round" stroke-linejoin="round" stroke-miterlimit="1" width="83.998" height="36.909"/>
		
			<rect x="178.446" y="228.848" fill="#6799C8" stroke="#010101" stroke-width="0.75" stroke-linecap="round" stroke-linejoin="round" stroke-miterlimit="1" width="62.879" height="27.631"/>
		
			<rect x="178.446" y="266.182" fill="#6799C8" stroke="#010101" stroke-width="0.75" stroke-linecap="round" stroke-linejoin="round" stroke-miterlimit="1" width="62.879" height="27.631"/>
		
			<rect x="178.446" y="303.516" fill="#6799C8" stroke="#010101" stroke-width="0.75" stroke-linecap="round" stroke-linejoin="round" stroke-miterlimit="1" width="62.879" height="27.629"/>
		
			<rect x="178.446" y="340.848" fill="#6799C8" stroke="#010101" stroke-width="0.75" stroke-linecap="round" stroke-linejoin="round" stroke-miterlimit="1" width="62.879" height="27.629"/>
		
			<rect x="329.014" y="229.489" fill="#6799C8" stroke="#010101" stroke-width="0.75" stroke-linecap="round" stroke-linejoin="round" stroke-miterlimit="1" width="62.879" height="27.629"/>
		
			<rect x="329.014" y="266.61" fill="#6799C8" stroke="#010101" stroke-width="0.75" stroke-linecap="round" stroke-linejoin="round" stroke-miterlimit="1" width="62.879" height="27.629"/>
		
			<rect x="329.014" y="303.729" fill="#6799C8" stroke="#010101" stroke-width="0.75" stroke-linecap="round" stroke-linejoin="round" stroke-miterlimit="1" width="62.879" height="27.629"/>
		
			<rect x="329.014" y="340.848" fill="#6799C8" stroke="#010101" stroke-width="0.75" stroke-linecap="round" stroke-linejoin="round" stroke-miterlimit="1" width="62.879" height="27.629"/>
		<text transform="matrix(1 0 0 1 339.0557 196.4087)" fill="#FFFFFF" font-size="11">Textures</text>
		<text transform="matrix(1 0 0 1 188.1802 196.4082)" fill="#FFFFFF" font-size="11">Surfaces</text>
	</g>
</g>
</svg>
