<?xml version="1.0" encoding="utf-8"?>
<!-- $Source: /home/bbennett/pass/archive/DicomXml/docbook/part17/figures/PS3.17_CC.1-3.svg,v $ -->
<!-- $Date: 2014/05/09 12:31:56 $ -->
<!-- $Revision: 1.2 $ -->

<!DOCTYPE svg PUBLIC "-//W3C//DTD SVG 1.1//EN" "http://www.w3.org/Graphics/SVG/1.1/DTD/svg11.dtd">
<svg version="1.1" id="Layer_1" xmlns="http://www.w3.org/2000/svg" xmlns:xlink="http://www.w3.org/1999/xlink" x="0px" y="0px"
	 width="502px" height="187px" viewBox="0 0 502 187" enable-background="new 0 0 502 187" xml:space="preserve">

<defs>
	<style type="text/css">
	text {
	  font-family: Helvetica, Verdana, ArialUnicodeMS, san-serif
	}
	</style>
</defs>

<g>
   <desc>
	PS 3.17 Part 17: Explanatory Information
   </desc>
</g>

<g>
	<rect x="1" y="1" fill="#F5EED6" width="500" height="185"/>
	<g>
		
			<line fill="#4F8ABE" stroke="#005695" stroke-linecap="round" stroke-miterlimit="1" stroke-dasharray="3" x1="288.137" y1="169.691" x2="288.137" y2="40.424"/>
		
			<line fill="#4F8ABE" stroke="#005695" stroke-linecap="round" stroke-miterlimit="1" stroke-dasharray="3" x1="58.743" y1="169.971" x2="58.743" y2="40.703"/>
		
			<path fill="#CCDEF0" stroke="#010101" stroke-width="0.75" stroke-linecap="round" stroke-linejoin="round" stroke-miterlimit="1" d="
			M62.92,55.608h-9v105.417c3.149,0,5.968,0,9,0V55.608z"/>
		
			<path fill="#CCDEF0" stroke="#010101" stroke-width="0.75" stroke-linecap="round" stroke-linejoin="round" stroke-miterlimit="1" d="
			M292.439,55.608h-9v105.417c3.148,0,5.967,0,9,0V55.608z"/>
		
			<path fill="#CCDEF0" stroke="#010101" stroke-width="0.75" stroke-linecap="round" stroke-linejoin="round" stroke-miterlimit="1" d="
			M231.159,17.029h114.197v27H231.159V17.029z"/>
		<text transform="matrix(1 0 0 1 273.123 27.6245)"><tspan x="0" y="0" font-size="9">Node B</tspan><tspan x="-38.762" y="10.8" font-size="9">Committed Storage Device</tspan></text>
		
			<path fill="#CCDEF0" stroke="#010101" stroke-width="0.75" stroke-linecap="round" stroke-linejoin="round" stroke-miterlimit="1" d="
			M23.743,17.029h69.999v27H23.743V17.029z"/>
		<text transform="matrix(1 0 0 1 43.7383 27.6245)"><tspan x="0" y="0" font-size="9">Node A</tspan><tspan x="-16.005" y="10.8" font-size="9">Imaging Device</tspan></text>
		
			<line fill="#4F8ABE" stroke="#005695" stroke-linecap="round" stroke-miterlimit="1" x1="62.874" y1="69.597" x2="275.656" y2="69.597"/>
		<path fill="#005695" d="M278.018,68.571c-1.652-0.499-2.727-0.959-4.053-1.491v5.044c0.475-0.226,2.4-0.992,4.053-1.491
			c1.77-0.535,3.375-0.9,4.416-1.031C281.393,69.472,279.787,69.105,278.018,68.571z"/>
		
			<line fill="#4F8ABE" stroke="#005695" stroke-linecap="round" stroke-miterlimit="1" stroke-dasharray="5,5,1,5" x1="62.874" y1="104.777" x2="282.422" y2="104.777"/>
		
			<line fill="#4F8ABE" stroke="#005695" stroke-linecap="round" stroke-miterlimit="1" x1="282.432" y1="137.701" x2="69.65" y2="137.701"/>
		
			<line fill="#4F8ABE" stroke="#005695" stroke-linecap="round" stroke-miterlimit="1" stroke-dasharray="3" x1="421.039" y1="169.691" x2="421.039" y2="40.424"/>
		
			<path fill="#CCDEF0" stroke="#010101" stroke-width="0.75" stroke-linecap="round" stroke-linejoin="round" stroke-miterlimit="1" d="
			M425.342,55.608h-9v105.417c3.148,0,5.967,0,9,0V55.608z"/>
		
			<path fill="#CCDEF0" stroke="#010101" stroke-width="0.75" stroke-linecap="round" stroke-linejoin="round" stroke-miterlimit="1" d="
			M364.061,17.029h114.197v27H364.061V17.029z"/>
		<text transform="matrix(1 0 0 1 405.7773 27.6245)"><tspan x="0" y="0" font-size="9">Node C</tspan><tspan x="-38.514" y="10.8" font-size="9">Committed Storage Device</tspan></text>
		
			<line fill="#4F8ABE" stroke="#005695" stroke-linecap="round" stroke-miterlimit="1" x1="292.428" y1="104.777" x2="408.557" y2="104.777"/>
		<path fill="#005695" d="M410.92,103.752c-1.652-0.5-2.729-0.959-4.055-1.492v5.045c0.475-0.227,2.402-0.992,4.055-1.492
			c1.77-0.535,3.375-0.9,4.414-1.031C414.295,104.652,412.689,104.285,410.92,103.752z"/>
		<path fill="#005695" d="M67.289,136.676c1.652-0.5,2.728-0.959,4.054-1.492v5.045c-0.475-0.227-2.401-0.992-4.054-1.492
			c-1.77-0.535-3.375-0.9-4.415-1.031C63.914,137.576,65.52,137.209,67.289,136.676z"/>
		<rect x="76.896" y="60.86" fill="none" width="182.254" height="95.982"/>
		<text transform="matrix(1 0 0 1 76.8965 66.5747)"><tspan x="0" y="0" font-size="8">1. N-ACTION (request storage commitment)</tspan><tspan x="0" y="34.6" font-size="8">2. Transfer of SOP Instances to Node C</tspan><tspan x="0" y="69.201" font-size="8">3. N-EVENT-REPORT containing the AE Title of </tspan><tspan x="10" y="80.201" font-size="8">Node C (response status)</tspan></text>
	</g>
</g>
</svg>
