<?xml version="1.0" encoding="utf-8"?>
<!-- $Source: /home/bbennett/pass/archive/DicomXml/docbook/part17/figures/PS3.17_FFF.1.1-1.svg,v $ -->
<!-- $Date: 2014/05/09 13:15:43 $ -->
<!-- $Revision: 1.1 $ -->

<!DOCTYPE svg PUBLIC "-//W3C//DTD SVG 1.1//EN" "http://www.w3.org/Graphics/SVG/1.1/DTD/svg11.dtd">
<svg version="1.1" id="Layer_1" xmlns="http://www.w3.org/2000/svg" xmlns:xlink="http://www.w3.org/1999/xlink" x="0px" y="0px"
	 width="502.001px" height="407px" viewBox="0 0 502.001 407" enable-background="new 0 0 502.001 407" xml:space="preserve">

<defs>
	<style type="text/css">
	text {
	  font-family: Helvetica, Verdana, ArialUnicodeMS, san-serif
	}
	</style>
</defs>

<g>
   <desc>
	PS 3.17 Part 17: Explanatory Information
   </desc>
</g>

<rect x="1" y="1" fill="#F5EED6" width="500.001" height="405"/>
<g>
	
		<line fill="none" stroke="#000000" stroke-width="0.75" stroke-miterlimit="1" x1="238.944" y1="91.406" x2="463.682" y2="91.406"/>
	
		<line fill="none" stroke="#000000" stroke-width="0.75" stroke-miterlimit="1" x1="238.944" y1="129.312" x2="463.682" y2="129.312"/>
	
		<line fill="none" stroke="#000000" stroke-width="0.75" stroke-miterlimit="1" x1="238.944" y1="154.645" x2="463.682" y2="154.645"/>
	
		<line fill="none" stroke="#000000" stroke-width="0.75" stroke-miterlimit="1" x1="238.944" y1="183.318" x2="463.682" y2="183.318"/>
	
		<line fill="none" stroke="#000000" stroke-width="0.75" stroke-miterlimit="1" x1="238.944" y1="209.824" x2="463.682" y2="209.824"/>
	
		<line fill="none" stroke="#000000" stroke-width="0.75" stroke-miterlimit="1" x1="238.944" y1="237.051" x2="463.682" y2="237.051"/>
	
		<line fill="none" stroke="#000000" stroke-width="0.75" stroke-miterlimit="1" x1="238.944" y1="262.838" x2="463.682" y2="262.838"/>
	
		<line fill="none" stroke="#000000" stroke-width="0.75" stroke-miterlimit="1" x1="238.944" y1="289.344" x2="463.682" y2="289.344"/>
	
		<line fill="none" stroke="#000000" stroke-width="0.75" stroke-miterlimit="1" x1="238.944" y1="317.297" x2="463.682" y2="317.297"/>
	
		<line fill="none" stroke="#000000" stroke-width="0.75" stroke-miterlimit="1" x1="238.944" y1="343.826" x2="463.682" y2="343.826"/>
	
		<line fill="none" stroke="#000000" stroke-width="0.75" stroke-miterlimit="1" x1="238.944" y1="371.779" x2="463.682" y2="371.779"/>
	<rect x="469.586" y="42.616" fill="none" width="17.379" height="8.51"/>
	<text transform="matrix(0.9288 0 0 1 469.584 49.0479)" font-size="9">time</text>
	<rect x="260.742" y="20.615" fill="#B2CEE7" stroke="#B2CEE7" stroke-miterlimit="1" width="186.385" height="52"/>
	
		<rect x="260.742" y="37.615" fill="#6799C8" stroke="#010101" stroke-width="0.75" stroke-linecap="round" stroke-linejoin="round" stroke-miterlimit="1" width="186.385" height="18"/>
	
		<rect x="281.145" y="32.615" fill="#4F8ABE" stroke="#010101" stroke-width="0.75" stroke-linecap="round" stroke-linejoin="round" stroke-miterlimit="1" width="36.002" height="28"/>
	
		<line fill="none" stroke="#000000" stroke-width="0.75" stroke-linecap="round" stroke-miterlimit="1" stroke-dasharray="6,2" x1="244.944" y1="46.871" x2="244.944" y2="91.406"/>
	
		<line fill="none" stroke="#000000" stroke-width="0.75" stroke-linecap="round" stroke-miterlimit="1" stroke-dasharray="4,4" x1="260.742" y1="65.511" x2="260.742" y2="384.261"/>
	
		<line fill="none" stroke="#000000" stroke-width="0.75" stroke-linecap="round" stroke-miterlimit="1" stroke-dasharray="4,4" x1="281.146" y1="59.909" x2="281.146" y2="210.989"/>
	
		<line fill="none" stroke="#000000" stroke-width="0.75" stroke-linecap="round" stroke-miterlimit="1" stroke-dasharray="4,4" x1="317.15" y1="41.815" x2="317.15" y2="210.989"/>
	
		<rect x="281.145" y="32.639" fill="#4F8ABE" stroke="#010101" stroke-width="0.75" stroke-linecap="round" stroke-linejoin="round" stroke-miterlimit="1" width="36.002" height="28"/>
	
		<line fill="none" stroke="#000000" stroke-width="0.75" stroke-linecap="round" stroke-miterlimit="1" stroke-dasharray="4,4" x1="306.346" y1="41.839" x2="306.346" y2="194.927"/>
	
		<rect x="345.955" y="32.615" fill="#4F8ABE" stroke="#010101" stroke-width="0.75" stroke-linecap="round" stroke-linejoin="round" stroke-miterlimit="1" width="36.002" height="28"/>
	<g>
		<g>
			
				<line fill="none" stroke="#000000" stroke-width="0.75" stroke-linecap="round" stroke-miterlimit="1" x1="345.957" y1="60.615" x2="345.957" y2="62.615"/>
			
				<line fill="none" stroke="#000000" stroke-width="0.75" stroke-linecap="round" stroke-miterlimit="1" stroke-dasharray="3.909,3.909" x1="345.957" y1="66.524" x2="345.957" y2="220.932"/>
			
				<line fill="none" stroke="#000000" stroke-width="0.75" stroke-linecap="round" stroke-miterlimit="1" x1="345.957" y1="222.886" x2="345.957" y2="224.886"/>
		</g>
	</g>
	<g>
		<g>
			
				<line fill="none" stroke="#000000" stroke-width="0.75" stroke-linecap="round" stroke-miterlimit="1" x1="381.961" y1="41.815" x2="381.961" y2="43.815"/>
			
				<line fill="none" stroke="#000000" stroke-width="0.75" stroke-linecap="round" stroke-miterlimit="1" stroke-dasharray="3.9793,3.9793" x1="381.961" y1="47.795" x2="381.961" y2="220.896"/>
			
				<line fill="none" stroke="#000000" stroke-width="0.75" stroke-linecap="round" stroke-miterlimit="1" x1="381.961" y1="222.886" x2="381.961" y2="224.886"/>
		</g>
	</g>
	
		<rect x="345.955" y="32.639" fill="#4F8ABE" stroke="#010101" stroke-width="0.75" stroke-linecap="round" stroke-linejoin="round" stroke-miterlimit="1" width="36.002" height="28"/>
	<g>
		<g>
			
				<line fill="none" stroke="#000000" stroke-width="0.75" stroke-linecap="round" stroke-miterlimit="1" x1="371.154" y1="41.839" x2="371.154" y2="43.839"/>
			
				<line fill="none" stroke="#000000" stroke-width="0.75" stroke-linecap="round" stroke-miterlimit="1" stroke-dasharray="3.9788,3.9788" x1="371.154" y1="47.818" x2="371.154" y2="220.896"/>
			
				<line fill="none" stroke="#000000" stroke-width="0.75" stroke-linecap="round" stroke-miterlimit="1" x1="371.154" y1="222.886" x2="371.154" y2="224.886"/>
		</g>
	</g>
	
		<rect x="410.766" y="32.615" fill="#4F8ABE" stroke="#010101" stroke-width="0.75" stroke-linecap="round" stroke-linejoin="round" stroke-miterlimit="1" width="36.002" height="28"/>
	
		<line fill="none" stroke="#000000" stroke-width="0.75" stroke-linecap="round" stroke-miterlimit="1" stroke-dasharray="4,4" x1="410.768" y1="60.615" x2="410.768" y2="317.002"/>
	
		<line fill="none" stroke="#000000" stroke-width="0.75" stroke-linecap="round" stroke-miterlimit="1" stroke-dasharray="4,4" x1="446.771" y1="41.815" x2="446.771" y2="371.783"/>
	
		<rect x="410.766" y="32.639" fill="#4F8ABE" stroke="#010101" stroke-width="0.75" stroke-linecap="round" stroke-linejoin="round" stroke-miterlimit="1" width="36.002" height="28"/>
	
		<line fill="none" stroke="#000000" stroke-width="0.75" stroke-linecap="round" stroke-miterlimit="1" stroke-dasharray="4,4" x1="435.965" y1="41.839" x2="435.965" y2="289.344"/>
	<g>
		<g>
			
				<line fill="none" stroke="#000000" stroke-width="2" stroke-linecap="round" stroke-miterlimit="1" x1="238.944" y1="46.608" x2="456.594" y2="46.608"/>
			<g>
				<polygon points="455.009,48.933 463.682,46.608 455.009,44.284 				"/>
			</g>
		</g>
	</g>
	
		<line fill="none" stroke="#005695" stroke-width="6" stroke-linecap="round" stroke-miterlimit="1" x1="259.856" y1="129.31" x2="261.296" y2="129.31"/>
	
		<line fill="none" stroke="#005695" stroke-width="6" stroke-linecap="round" stroke-miterlimit="1" x1="244.224" y1="91.406" x2="245.664" y2="91.406"/>
	
		<line fill="none" stroke="#005695" stroke-width="6" stroke-linecap="round" stroke-miterlimit="1" x1="280.426" y1="154.648" x2="281.865" y2="154.648"/>
	
		<line fill="none" stroke="#005695" stroke-width="6" stroke-linecap="round" stroke-miterlimit="1" x1="305.627" y1="183.318" x2="307.066" y2="183.318"/>
	
		<line fill="none" stroke="#005695" stroke-width="6" stroke-linecap="round" stroke-miterlimit="1" x1="281.146" y1="209.828" x2="317.146" y2="209.828"/>
	
		<line fill="none" stroke="#005695" stroke-width="6" stroke-linecap="round" stroke-miterlimit="1" x1="410.406" y1="261.823" x2="411.846" y2="261.823"/>
	
		<line fill="none" stroke="#005695" stroke-width="6" stroke-linecap="round" stroke-miterlimit="1" x1="435.246" y1="290.492" x2="436.686" y2="290.492"/>
	
		<line fill="none" stroke="#005695" stroke-width="6" stroke-linecap="round" stroke-miterlimit="1" x1="411.127" y1="317.002" x2="447.127" y2="317.002"/>
	
		<line fill="none" stroke="#005695" stroke-width="6" stroke-linecap="round" stroke-miterlimit="1" x1="261.409" y1="343.826" x2="447.127" y2="343.826"/>
	<text transform="matrix(0.9288 0 0 1 136.2808 94.666)"><tspan x="0" y="0" font-size="9">Content Date (0008,0023)</tspan><tspan x="-0.989" y="10.8" font-size="9">Content Time (0008,0033)</tspan><tspan x="-32.999" y="37.6" font-size="9">Acquisition DateTime (0008,002A)</tspan><tspan x="-68.01" y="64.4" font-size="9">Frame 1 Acquisition DateTime (0018,9074)</tspan><tspan x="-66.01" y="91.2" font-size="9">Frame 1 Reference DateTime (0018,9151)</tspan><tspan x="-63.018" y="118" font-size="9">Frame 1 Acquisition Duration (0018,9220)</tspan><tspan x="63.567" y="144.8" font-size="9">Frame i ...</tspan><tspan x="-68.01" y="171.6" font-size="9">Frame n Acquisition DateTime (0018,9074)</tspan><tspan x="-66.01" y="198.4" font-size="9">Frame n Reference DateTime (0018,9151)</tspan><tspan x="-63.018" y="225.2" font-size="9">Frame n Acquisition Duration (0018,9220)</tspan><tspan x="-52.506" y="252" font-size="9">Image Acquisition Duration (calculated)</tspan><tspan x="-104.291" y="278.8" font-size="9">Acquisition Time Synchronized (0018,1800) = YES *</tspan><tspan x="-130.535" y="293.6" font-size="9">* If Acquisition is synchronized with external time reference</tspan></text>
	<text transform="matrix(0.8815 0 0 1 280.8418 29.7632)" font-size="10">FRAME 1</text>
	<text transform="matrix(0.8815 0 0 1 346.3242 29.7632)" font-size="10">FRAME i</text>
	<text transform="matrix(0.8815 0 0 1 408.8613 29.7632)" font-size="10">FRAME n</text>
	<g>
		<g>
			
				<line fill="none" stroke="#005695" stroke-width="3" stroke-miterlimit="1" x1="261.296" y1="371.779" x2="261.296" y2="383.799"/>
			<g>
				<polygon fill="#005695" points="257.81,381.421 261.296,394.43 264.782,381.421 				"/>
			</g>
		</g>
	</g>
</g>
</svg>
