<?xml version="1.0" encoding="utf-8"?>
<!-- $Source: /home/bbennett/pass/archive/DicomXml/docbook/part17/figures/PS3.17_U.2-1.svg,v $ -->
<!-- $Date: 2014/05/09 12:31:57 $ -->
<!-- $Revision: 1.2 $ -->

<!DOCTYPE svg PUBLIC "-//W3C//DTD SVG 1.1//EN" "http://www.w3.org/Graphics/SVG/1.1/DTD/svg11.dtd">
<svg version="1.1" id="Layer_1" xmlns="http://www.w3.org/2000/svg" xmlns:xlink="http://www.w3.org/1999/xlink" x="0px" y="0px"
	 width="502px" height="422px" viewBox="0 0 502 422" enable-background="new 0 0 502 422" xml:space="preserve">

<defs>
	<style type="text/css">
	text {
	  font-family: Helvetica, Verdana, ArialUnicodeMS, san-serif
	}
	</style>
</defs>

<g>
   <desc>
	PS 3.17 Part 17: Explanatory Information
   </desc>
</g>

<g>
	<rect x="1" y="1" fill="#F5EED6" width="500" height="420"/>
	<g>
		
			<line fill="none" stroke="#000000" stroke-width="0.75" stroke-miterlimit="1" x1="188.386" y1="87.141" x2="449.387" y2="87.141"/>
		
			<line fill="none" stroke="#000000" stroke-width="0.75" stroke-miterlimit="1" x1="188.386" y1="138.141" x2="449.387" y2="138.141"/>
		
			<line fill="none" stroke="#000000" stroke-width="0.75" stroke-miterlimit="1" x1="188.386" y1="166.808" x2="331.449" y2="166.808"/>
		
			<line fill="none" stroke="#000000" stroke-width="0.75" stroke-miterlimit="1" x1="188.386" y1="193.314" x2="449.387" y2="193.314"/>
		
			<line fill="none" stroke="#000000" stroke-width="0.75" stroke-miterlimit="1" x1="188.386" y1="111.51" x2="449.387" y2="111.51"/>
		
			<line fill="none" stroke="#000000" stroke-width="0.75" stroke-miterlimit="1" x1="188.386" y1="220.541" x2="449.387" y2="220.541"/>
		
			<line fill="none" stroke="#000000" stroke-width="0.75" stroke-miterlimit="1" x1="188.386" y1="298.65" x2="449.387" y2="298.65"/>
		
			<line fill="none" stroke="#000000" stroke-width="0.75" stroke-miterlimit="1" x1="188.386" y1="325.773" x2="449.387" y2="325.773"/>
		
			<line fill="none" stroke="#000000" stroke-width="0.75" stroke-miterlimit="1" x1="188.386" y1="271.604" x2="449.387" y2="271.604"/>
		<rect x="460.064" y="38.35" fill="none" width="17.379" height="8.51"/>
		<text transform="matrix(0.9288 0 0 1 460.0664 44.7935)" font-size="9">time</text>
		<rect x="24.558" y="82.437" fill="none" width="159.726" height="278.297"/>
		<text transform="matrix(0.9288 0 0 1 24.5576 88.875)"><tspan x="0" y="0" font-size="9">Establish Baseline</tspan><tspan x="0" y="26.8" font-size="9">Acquisition Information A</tspan><tspan x="0" y="53.6" font-size="9">Change Illumination and Filter</tspan><tspan x="0" y="80.4" font-size="9">Acquisition Information B</tspan><tspan x="0" y="107.2" font-size="9">Drug Injection</tspan><tspan x="0" y="134" font-size="9">Short Term Angio Capture - SINGLE EYE</tspan><tspan x="0" y="186.6" font-size="9">Long Term Angio Capture - BOTH EYES</tspan><tspan x="0" y="212.4" font-size="9">Acquisition Information C and drug </tspan><tspan x="0" y="223.2" font-size="9">information</tspan><tspan x="0" y="238" font-size="9">Confirm Stereo Capture</tspan><tspan x="0" y="264.8" font-size="9">Stereometric Relationship SOP Instance</tspan></text>
		
			<path fill="#FFFFFF" stroke="#000000" stroke-width="0.75" stroke-linecap="round" stroke-linejoin="round" stroke-miterlimit="1" d="
			M220.386,33.35h18v18h-18V33.35z"/>
		<path fill="#CCDEF0" stroke="#B2CEE7" stroke-miterlimit="1" d="M194.386,16.35h235v52h-235V16.35z"/>
		
			<path fill="#B2CEE7" stroke="#86B2D8" stroke-width="0.75" stroke-linecap="round" stroke-linejoin="round" stroke-miterlimit="1" d="
			M194.386,37.85h235v9h-235V37.85z"/>
		
			<path fill="#86B2D8" stroke="#6799C8" stroke-width="0.75" stroke-linecap="round" stroke-linejoin="round" stroke-miterlimit="1" d="
			M254.053,33.35h-32.306v18h32.306V33.35z"/>
		
			<path fill="#6799C8" stroke="#4F8ABE" stroke-width="0.75" stroke-linecap="round" stroke-linejoin="round" stroke-miterlimit="1" d="
			M254.053,28.85h72v27h-72V28.85z"/>
		
			<path fill="#4F8ABE" stroke="#4F8ABE" stroke-width="0.75" stroke-linecap="round" stroke-linejoin="round" stroke-miterlimit="1" d="
			M326.053,28.85h72v27h-72V28.85z"/>
		
			<line fill="none" stroke="#000000" stroke-width="0.75" stroke-linecap="round" stroke-miterlimit="1" stroke-dasharray="6,2" x1="194.386" y1="42.35" x2="194.386" y2="113.067"/>
		
			<line fill="none" stroke="#000000" stroke-width="0.75" stroke-linecap="round" stroke-miterlimit="1" stroke-dasharray="4,4" x1="326.053" y1="42.343" x2="326.053" y2="271.648"/>
		
			<line fill="none" stroke="#000000" stroke-width="0.75" stroke-linecap="round" stroke-miterlimit="1" stroke-dasharray="4,4" x1="398.053" y1="187.847" x2="398.053" y2="325.773"/>
		
			<line fill="none" stroke="#000000" stroke-width="0.75" stroke-linecap="round" stroke-miterlimit="1" stroke-dasharray="4,4" x1="398.053" y1="40.923" x2="398.053" y2="144.521"/>
		
			<line fill="none" stroke="#000000" stroke-width="0.75" stroke-linecap="round" stroke-miterlimit="1" stroke-dasharray="4,4" x1="429.387" y1="187.847" x2="429.387" y2="352.896"/>
		
			<line fill="none" stroke="#000000" stroke-width="0.75" stroke-linecap="round" stroke-miterlimit="1" stroke-dasharray="4,4" x1="429.387" y1="40.923" x2="429.387" y2="144.521"/>
		
			<line fill="none" stroke="#000000" stroke-width="2" stroke-linecap="round" stroke-miterlimit="1" x1="188.386" y1="42.343" x2="449.387" y2="42.343"/>
		<path d="M452.221,41.113c-1.984-0.6-3.273-1.151-4.865-1.79v6.053c0.57-0.271,2.881-1.19,4.865-1.79
			c2.123-0.642,4.049-1.08,5.297-1.236C456.27,42.193,454.344,41.754,452.221,41.113z"/>
		
			<line fill="none" stroke="#005695" stroke-width="6" stroke-linecap="round" stroke-miterlimit="1" stroke-dasharray="2,8" x1="196.545" y1="87.141" x2="223.545" y2="87.141"/>
		
			<line fill="none" stroke="#005695" stroke-width="6" stroke-linecap="round" stroke-miterlimit="1" x1="253.131" y1="193.314" x2="254.57" y2="193.314"/>
		
			<line fill="none" stroke="#005695" stroke-width="6" stroke-linecap="round" stroke-miterlimit="1" x1="398.053" y1="325.773" x2="429.387" y2="325.773"/>
		
			<line fill="none" stroke="#000000" stroke-width="0.75" stroke-miterlimit="1" x1="188.386" y1="352.896" x2="449.387" y2="352.896"/>
		
			<line fill="none" stroke="#005695" stroke-width="6" stroke-linecap="round" stroke-miterlimit="1" x1="428.666" y1="352.896" x2="430.105" y2="352.896"/>
		
			<line fill="none" stroke="#005695" stroke-width="6" stroke-linecap="round" stroke-miterlimit="1" x1="194.386" y1="111.51" x2="222.018" y2="111.51"/>
		
			<line fill="none" stroke="#005695" stroke-width="6" stroke-linecap="round" stroke-miterlimit="1" x1="222.018" y1="166.808" x2="253.131" y2="166.808"/>
		
			<line fill="none" stroke="#005695" stroke-width="6" stroke-linecap="round" stroke-miterlimit="1" x1="255.293" y1="298.65" x2="398.053" y2="298.65"/>
		
			<line fill="none" stroke="#000000" stroke-width="0.75" stroke-linecap="round" stroke-miterlimit="1" stroke-dasharray="6,2" x1="221.747" y1="42.604" x2="221.747" y2="166.808"/>
		
			<line fill="none" stroke="#000000" stroke-width="0.75" stroke-linecap="round" stroke-miterlimit="1" stroke-dasharray="6,2" x1="254.053" y1="45.376" x2="254.053" y2="298.65"/>
		<g>
			<text transform="matrix(1 0 0 1 195.4507 82.4355)" font-size="8">B</text>
		</g>
		<g>
			<text transform="matrix(1 0 0 1 205.186 82.4355)" font-size="8">L</text>
		</g>
		<g>
			<text transform="matrix(1 0 0 1 214.6387 82.4355)" font-size="8">R</text>
		</g>
		<text transform="matrix(1 0 0 1 230.1064 122.6465)"><tspan x="0" y="0" font-size="8">L</tspan><tspan x="0" y="9.6" font-size="8">L</tspan></text>
		<rect x="234.961" y="370.398" fill="#FFFFFF" stroke="#000000" width="177.703" height="35.252"/>
		<g>
			<text transform="matrix(0.9288 0 0 1 246.5825 380.6465)"><tspan x="0" y="0" font-size="8">B:</tspan><tspan x="7.559" y="0" font-size="8" letter-spacing="9.69">	</tspan><tspan x="19.574" y="0" font-size="8">OP SOP Instances stored for BOTH eyes</tspan><tspan x="0" y="9.6" font-size="8">L:</tspan><tspan x="6.672" y="9.6" font-size="8" letter-spacing="9.69">	</tspan><tspan x="19.574" y="9.6" font-size="8">OP SOP Instances stored for LEFT eye</tspan><tspan x="0" y="19.201" font-size="8">R:</tspan><tspan x="8.001" y="19.201" font-size="8" letter-spacing="8.613">	</tspan><tspan x="19.576" y="19.201" font-size="8">OP SOP Instances stored for RIGHT eye</tspan></text>
		</g>
		<text transform="matrix(1 0 0 1 371.7725 162.1104)"><tspan x="0" y="0" font-size="8">Pairs of images intended</tspan><tspan x="0" y="9.6" font-size="8">for stereo viewing</tspan></text>
		<polyline fill="none" stroke="#0DB14B" stroke-miterlimit="1" points="368.922,160.632 355.582,160.632 279.734,199.97 		"/>
		<line fill="none" stroke="#0DB14B" stroke-miterlimit="1" x1="355.297" y1="160.632" x2="341.174" y2="232.412"/>
		<line fill="none" stroke="#0DB14B" stroke-miterlimit="1" x1="355.297" y1="160.632" x2="245.732" y2="116.984"/>
		
			<rect x="272.215" y="199.97" fill="#CCDEF0" stroke="#CCDEF0" stroke-width="0.75" stroke-miterlimit="1" width="7.668" height="24.432"/>
		
			<rect x="238.065" y="116.984" fill="#CCDEF0" stroke="#CCDEF0" stroke-width="0.75" stroke-miterlimit="1" width="7.667" height="24.432"/>
		
			<rect x="333.506" y="232.412" fill="#CCDEF0" stroke="#CCDEF0" stroke-width="0.75" stroke-miterlimit="1" width="7.668" height="43.656"/>
		<text transform="matrix(1 0 0 1 255.293 206.666)"><tspan x="0" y="0" font-size="8">L</tspan><tspan x="0" y="9.6" font-size="8">L</tspan></text>
		<text transform="matrix(1 0 0 1 264.625 206.666)"><tspan x="0" y="0" font-size="8">L</tspan><tspan x="0" y="9.6" font-size="8">L</tspan></text>
		<text transform="matrix(1 0 0 1 273.959 206.666)"><tspan x="0" y="0" font-size="8">L</tspan><tspan x="0" y="9.6" font-size="8">L</tspan></text>
		<text transform="matrix(1 0 0 1 283.291 206.666)"><tspan x="0" y="0" font-size="8">L</tspan><tspan x="0" y="9.6" font-size="8">L</tspan></text>
		<text transform="matrix(1 0 0 1 292.625 206.666)"><tspan x="0" y="0" font-size="8">...</tspan><tspan x="0" y="9.6" font-size="8">...</tspan></text>
		<text transform="matrix(1 0 0 1 327.293 239.1621)"><tspan x="0" y="0" font-size="8">L</tspan><tspan x="0" y="9.6" font-size="8">L</tspan><tspan x="0" y="19.2" font-size="8">R</tspan><tspan x="0" y="28.8" font-size="8">R</tspan></text>
		<text transform="matrix(1 0 0 1 334.8252 239.1621)"><tspan x="0" y="0" font-size="8">L</tspan><tspan x="0" y="9.6" font-size="8">L</tspan><tspan x="0" y="19.2" font-size="8">R</tspan><tspan x="0" y="28.8" font-size="8">R</tspan></text>
		<text transform="matrix(1 0 0 1 344.5186 239.1621)"><tspan x="0" y="0" font-size="8">L</tspan><tspan x="0" y="9.6" font-size="8">L</tspan><tspan x="0" y="19.2" font-size="8">R</tspan><tspan x="0" y="28.8" font-size="8">R</tspan></text>
		<text transform="matrix(1 0 0 1 354.9316 239.1621)"><tspan x="0" y="0" font-size="8">L</tspan><tspan x="0" y="9.6" font-size="8">L</tspan><tspan x="0" y="19.2" font-size="8">R</tspan><tspan x="0" y="28.8" font-size="8">R</tspan></text>
		<text transform="matrix(1 0 0 1 364.625 239.1621)"><tspan x="0" y="0" font-size="8">...</tspan><tspan x="0" y="9.6" font-size="8">...</tspan><tspan x="0" y="19.2" font-size="8">...</tspan><tspan x="0" y="28.8" font-size="8">...</tspan></text>
		
			<line fill="none" stroke="#005695" stroke-width="6" stroke-linecap="round" stroke-miterlimit="1" stroke-dasharray="2,8" x1="326.053" y1="271.648" x2="398.053" y2="271.648"/>
		
			<line fill="none" stroke="#005695" stroke-width="6" stroke-linecap="round" stroke-miterlimit="1" stroke-dasharray="2,8" x1="255.293" y1="220.541" x2="327.293" y2="220.541"/>
		
			<line fill="none" stroke="#005695" stroke-width="6" stroke-linecap="round" stroke-miterlimit="1" stroke-dasharray="2,8" x1="230.748" y1="138.016" x2="248.744" y2="138.016"/>
		<text transform="matrix(1 0 0 1 239.7466 122.6465)"><tspan x="0" y="0" font-size="8">R</tspan><tspan x="0" y="9.6" font-size="8">R</tspan></text>
	</g>
</g>
</svg>
