<?xml version="1.0" encoding="utf-8"?>
<!-- $Source: /home/bbennett/pass/archive/DicomXml/docbook/part17/figures/PS3.17_GGG.5-1.svg,v $ -->
<!-- $Date: 2014/05/09 13:15:43 $ -->
<!-- $Revision: 1.1 $ -->

<!DOCTYPE svg PUBLIC "-//W3C//DTD SVG 1.1//EN" "http://www.w3.org/Graphics/SVG/1.1/DTD/svg11.dtd">
<svg version="1.1" id="Layer_1" xmlns="http://www.w3.org/2000/svg" xmlns:xlink="http://www.w3.org/1999/xlink" x="0px" y="0px"
	 width="502px" height="417px" viewBox="0 0 502 417" enable-background="new 0 0 502 417" xml:space="preserve">

<defs>
	<style type="text/css">
	text {
	  font-family: Helvetica, Verdana, ArialUnicodeMS, san-serif
	}
	</style>
</defs>

<g>
   <desc>
	PS 3.17 Part 17: Explanatory Information
   </desc>
</g>

<g>
	<rect x="1" y="1" fill="#F5EED6" width="500" height="415"/>
	<g>
		
			<rect x="439.942" y="15.779" fill="#B2CEE7" stroke="#010101" stroke-width="0.75" stroke-linecap="round" stroke-linejoin="round" stroke-miterlimit="1" width="39.85" height="30.289"/>
		
			<rect x="22.209" y="15.778" fill="#B2CEE7" stroke="#010101" stroke-width="0.75" stroke-linecap="round" stroke-linejoin="round" stroke-miterlimit="1" width="65" height="30.289"/>
		<text transform="matrix(1 0 0 1 26.4551 33.4297)" font-size="9">User Terminal</text>
		<text transform="matrix(1 0 0 1 444.8672 33.4297)" font-size="9">Archive</text>
		<text transform="matrix(1 0 0 1 156.7437 83.6787)" font-size="6.5">Add UPS Task (N-CREATE)</text>
		<text transform="matrix(1 0 0 1 337.9834 96.3862)" font-size="6.5">Create UPS for Task X</text>
		<text transform="matrix(1 0 0 1 74.6147 214.0488)" font-size="6.5">Display Progress</text>
		<text transform="matrix(1 0 0 1 98.4565 221.8496)" font-size="6.5">“Started”</text>
		
			<rect x="278.284" y="15.778" fill="#B2CEE7" stroke="#010101" stroke-width="0.75" stroke-linecap="round" stroke-linejoin="round" stroke-miterlimit="1" width="79.853" height="30.289"/>
		<text transform="matrix(1 0 0 1 284.1924 28.0293)"><tspan x="0" y="0" font-size="9">Dose Calculation</tspan><tspan x="19.015" y="10.8" font-size="9">System</tspan></text>
		<polyline fill="none" stroke="#005695" stroke-linecap="round" stroke-miterlimit="1" points="464.367,142.283 464.367,140.283 
			462.367,140.283 		"/>
		<polyline fill="none" stroke="#005695" stroke-linecap="round" stroke-miterlimit="1" points="457.367,140.283 455.367,140.283 
			455.367,142.283 		"/>
		
			<line fill="none" stroke="#005695" stroke-linecap="round" stroke-miterlimit="1" stroke-dasharray="4.729,4.729" x1="455.367" y1="147.013" x2="455.367" y2="154.106"/>
		<polyline fill="none" stroke="#005695" stroke-linecap="round" stroke-miterlimit="1" points="455.367,156.472 455.367,158.472 
			457.369,158.472 		"/>
		<polyline fill="none" stroke="#005695" stroke-linecap="round" stroke-miterlimit="1" points="462.371,158.472 464.367,158.472 
			464.367,156.472 		"/>
		
			<line fill="none" stroke="#005695" stroke-linecap="round" stroke-miterlimit="1" stroke-dasharray="4.729,4.729" x1="464.367" y1="151.742" x2="464.367" y2="144.647"/>
		
			<line fill="none" stroke="#005695" stroke-linecap="round" stroke-miterlimit="1" x1="147.966" y1="88.805" x2="308.205" y2="88.805"/>
		<polygon fill="#005695" points="307.016,90.475 313.52,88.732 307.016,86.988 		"/>
		
			<line fill="none" stroke="#005695" stroke-linecap="round" stroke-miterlimit="1" x1="54.174" y1="46.068" x2="54.174" y2="401.222"/>
		
			<line fill="none" stroke="#005695" stroke-linecap="round" stroke-linejoin="round" stroke-dasharray="4,4" x1="455.58" y1="146.086" x2="327.984" y2="146.086"/>
		<polygon fill="#005695" points="329.174,144.416 322.67,146.158 329.174,147.902 		"/>
		
			<line fill="none" stroke="#005695" stroke-linecap="round" stroke-linejoin="round" stroke-dasharray="4,4" x1="450.266" y1="152.668" x2="322.67" y2="152.668"/>
		<polygon fill="#005695" points="449.076,150.998 455.582,152.74 449.076,154.484 		"/>
		<polyline fill="none" stroke="#005695" stroke-linecap="round" stroke-miterlimit="1" points="322.67,87.545 332.9,87.545 
			332.9,99.722 327.986,99.722 		"/>
		<polygon fill="#005695" points="329.174,98.051 322.67,99.793 329.174,101.537 		"/>
		<polyline fill="none" stroke="#005695" stroke-linecap="round" stroke-miterlimit="1" points="322.67,108.967 332.9,108.967 
			332.9,121.143 327.984,121.143 		"/>
		<polygon fill="#005695" points="329.174,119.473 322.67,121.215 329.174,122.958 		"/>
		
			<rect x="113.967" y="15.779" fill="#B2CEE7" stroke="#010101" stroke-width="0.75" stroke-linecap="round" stroke-linejoin="round" stroke-miterlimit="1" width="59" height="30.289"/>
		<text transform="matrix(1 0.0018 -0.0018 1 118.1714 27.8379)"><tspan x="0" y="0" font-size="8.9999">User Control</tspan><tspan x="8.747" y="10.8" font-size="8.9999">Console</tspan></text>
		
			<line fill="none" stroke="#005695" stroke-linecap="round" stroke-miterlimit="1" x1="143.423" y1="46.08" x2="143.423" y2="401.222"/>
		<rect x="138.924" y="80.179" fill="#CCDEF0" width="9" height="39.085"/>
		
			<rect x="138.924" y="80.179" fill="none" stroke="#010101" stroke-width="0.75" stroke-linecap="round" stroke-linejoin="round" stroke-miterlimit="1" width="9" height="39.085"/>
		<rect x="138.966" y="202.978" fill="#CCDEF0" width="9" height="27.584"/>
		
			<rect x="138.966" y="202.978" fill="none" stroke="#010101" stroke-width="0.75" stroke-linecap="round" stroke-linejoin="round" stroke-miterlimit="1" width="9" height="27.584"/>
		<rect x="138.924" y="236.263" fill="#CCDEF0" width="9" height="27.584"/>
		
			<rect x="138.924" y="236.263" fill="none" stroke="#010101" stroke-width="0.75" stroke-linecap="round" stroke-linejoin="round" stroke-miterlimit="1" width="9" height="27.584"/>
		<rect x="139.691" y="280.624" fill="#CCDEF0" width="9" height="27.584"/>
		
			<rect x="139.691" y="280.624" fill="none" stroke="#010101" stroke-width="0.75" stroke-linecap="round" stroke-linejoin="round" stroke-miterlimit="1" width="9" height="27.584"/>
		
			<line fill="none" stroke="#005695" stroke-linecap="round" stroke-miterlimit="1" x1="147.966" y1="108.805" x2="308.205" y2="108.805"/>
		<polygon fill="#005695" points="307.016,110.475 313.52,108.732 307.016,106.988 		"/>
		<text transform="matrix(1 0 0 1 156.7373 103.5117)" font-size="6.5">Subvscribe for Task X (N-ACTION SUBSCRIBE)</text>
		<polyline fill="none" stroke="#005695" stroke-linecap="round" stroke-miterlimit="1" points="138.966,210.683 129.197,210.683 
			129.197,222.858 133.65,222.858 		"/>
		<polygon fill="#005695" points="132.462,224.528 138.967,222.786 132.462,221.042 		"/>
		<polyline fill="none" stroke="#005695" stroke-linecap="round" stroke-miterlimit="1" points="138.966,243.967 129.197,243.967 
			129.197,256.143 133.65,256.143 		"/>
		<polygon fill="#005695" points="132.462,257.812 138.967,256.07 132.462,254.326 		"/>
		<polyline fill="none" stroke="#005695" stroke-linecap="round" stroke-miterlimit="1" points="139.691,288.329 129.923,288.329 
			129.923,300.505 134.376,300.505 		"/>
		<polygon fill="#005695" points="133.188,302.175 139.692,300.433 133.188,298.688 		"/>
		
			<line fill="none" stroke="#005695" stroke-linecap="round" stroke-miterlimit="1" x1="153.238" y1="214.054" x2="313.521" y2="214.054"/>
		<polygon fill="#005695" points="154.428,215.724 147.924,213.981 154.428,212.237 		"/>
		<polyline fill="#CCDEF0" points="147.923,378.764 147.923,342.67 138.923,342.67 138.923,378.764 		"/>
		
			<rect x="138.923" y="342.67" fill="none" stroke="#010101" stroke-width="0.75" stroke-linecap="round" stroke-linejoin="round" stroke-miterlimit="1" width="9" height="36.094"/>
		<text transform="matrix(1 0 0 1 74.6128 247.2451)" font-size="6.5">Display Progress</text>
		<text transform="matrix(1 0 0 1 84.3628 255.0449)" font-size="6.5">“Beam 1 of 5”</text>
		<text transform="matrix(1 0 0 1 74.6128 292.166)" font-size="6.5">Display Progress</text>
		<text transform="matrix(1 0 0 1 84.3628 299.9668)" font-size="6.5">“Beam 5 of 5”</text>
		
			<line fill="none" stroke="#005695" stroke-linecap="round" stroke-miterlimit="1" x1="318.211" y1="46.08" x2="318.211" y2="401.222"/>
		<rect x="313.521" y="70.804" fill="#CCDEF0" width="9" height="92.168"/>
		
			<rect x="313.521" y="70.804" fill="none" stroke="#010101" stroke-width="0.75" stroke-linecap="round" stroke-linejoin="round" stroke-miterlimit="1" width="9" height="92.168"/>
		<rect x="313.521" y="176.546" fill="#CCDEF0" width="9" height="202.926"/>
		
			<rect x="313.521" y="176.546" fill="none" stroke="#010101" stroke-width="0.75" stroke-linecap="round" stroke-linejoin="round" stroke-miterlimit="1" width="9" height="202.926"/>
		
			<line fill="none" stroke="#005695" stroke-linecap="round" stroke-miterlimit="1" x1="153.26" y1="247.245" x2="313.543" y2="247.245"/>
		<polygon fill="#005695" points="154.449,248.915 147.945,247.173 154.449,245.43 		"/>
		
			<line fill="none" stroke="#005695" stroke-linecap="round" stroke-miterlimit="1" x1="153.238" y1="290.417" x2="313.521" y2="290.417"/>
		<polygon fill="#005695" points="154.428,292.087 147.924,290.345 154.428,288.601 		"/>
		
			<line fill="none" stroke="#005695" stroke-linecap="round" stroke-miterlimit="1" x1="153.238" y1="349.472" x2="313.521" y2="349.472"/>
		<polygon fill="#005695" points="154.428,351.142 147.924,349.399 154.428,347.655 		"/>
		
			<line fill="none" stroke="#005695" stroke-linecap="round" stroke-miterlimit="1" x1="147.966" y1="365.972" x2="308.205" y2="365.972"/>
		<polygon fill="#005695" points="307.016,367.642 313.52,365.899 307.016,364.155 		"/>
		
			<line fill="none" stroke="#005695" stroke-linecap="round" stroke-miterlimit="1" x1="153.238" y1="371.264" x2="313.521" y2="371.264"/>
		<polygon fill="#005695" points="154.428,372.934 147.924,371.191 154.428,369.448 		"/>
		<text transform="matrix(1 0 0 1 156.7373 208.6816)" font-size="6.5">Report Task X In-Progress (N-EVENT)</text>
		<text transform="matrix(1 0 0 1 156.7373 242.1826)" font-size="6.5">Report Task X Progress (N-EVENT)</text>
		<text transform="matrix(1 0 0 1 156.7373 285.9473)" font-size="6.5">Report Task X Progress (N-EVENT)</text>
		<text transform="matrix(1 0 0 1 156.7373 344.4805)" font-size="6.5">Report Task X Complete (N-EVENT)</text>
		<text transform="matrix(1 0 0 1 157.4263 361.7168)" font-size="6.5">Retrieve Final State Details (N-GET)</text>
		<text transform="matrix(1 0 0 1 337.9902 112.644)" font-size="6.5">Add Console to Task X </text>
		<text transform="matrix(1 0 0 1 337.9902 120.4438)" font-size="6.5">Subscriber List</text>
		<polyline fill="none" stroke="#005695" stroke-linecap="round" stroke-miterlimit="1" points="464.367,305.114 464.367,303.114 
			462.367,303.114 		"/>
		<polyline fill="none" stroke="#005695" stroke-linecap="round" stroke-miterlimit="1" points="457.367,303.114 455.367,303.114 
			455.367,305.114 		"/>
		
			<line fill="none" stroke="#005695" stroke-linecap="round" stroke-miterlimit="1" stroke-dasharray="4.729,4.729" x1="455.367" y1="309.845" x2="455.367" y2="316.938"/>
		<polyline fill="none" stroke="#005695" stroke-linecap="round" stroke-miterlimit="1" points="455.367,319.304 455.367,321.304 
			457.369,321.304 		"/>
		<polyline fill="none" stroke="#005695" stroke-linecap="round" stroke-miterlimit="1" points="462.371,321.304 464.367,321.304 
			464.367,319.304 		"/>
		
			<line fill="none" stroke="#005695" stroke-linecap="round" stroke-miterlimit="1" stroke-dasharray="4.729,4.729" x1="464.367" y1="314.574" x2="464.367" y2="307.479"/>
		
			<line fill="none" stroke="#005695" stroke-linecap="round" stroke-miterlimit="1" x1="459.867" y1="46.08" x2="459.867" y2="401.222"/>
		
			<line fill="none" stroke="#005695" stroke-linecap="round" stroke-linejoin="round" stroke-dasharray="4,4" x1="455.58" y1="308.918" x2="327.984" y2="308.918"/>
		<polygon fill="#005695" points="329.174,307.248 322.67,308.99 329.174,310.734 		"/>
		
			<line fill="none" stroke="#005695" stroke-linecap="round" stroke-linejoin="round" stroke-dasharray="4,4" x1="443.066" y1="315.5" x2="322.67" y2="315.5"/>
		<polygon fill="#005695" points="449.076,313.83 455.582,315.572 449.076,317.316 		"/>
		<polyline fill="none" stroke="#005695" stroke-linecap="round" stroke-miterlimit="1" points="322.521,184.054 332.752,184.054 
			332.752,196.229 327.838,196.229 		"/>
		<polygon fill="#005695" points="329.025,194.56 322.521,196.302 329.025,198.045 		"/>
		<polyline fill="none" stroke="#005695" stroke-linecap="round" stroke-miterlimit="1" points="322.67,202.175 332.9,202.175 
			332.9,214.351 327.986,214.351 		"/>
		<polygon fill="#005695" points="329.174,212.681 322.67,214.422 329.174,216.166 		"/>
		<polyline fill="none" stroke="#005695" stroke-linecap="round" stroke-miterlimit="1" points="322.67,236.095 332.9,236.095 
			332.9,248.271 327.986,248.271 		"/>
		<polygon fill="#005695" points="329.174,246.601 322.67,248.342 329.174,250.086 		"/>
		<polyline fill="none" stroke="#005695" stroke-linecap="round" stroke-miterlimit="1" points="322.521,336.582 332.752,336.582 
			332.752,348.759 327.838,348.759 		"/>
		<polygon fill="#005695" points="329.025,347.088 322.521,348.83 329.025,350.574 		"/>
		<polyline fill="none" stroke="#005695" stroke-linecap="round" stroke-miterlimit="1" points="322.521,278.009 332.752,278.009 
			332.752,290.185 327.838,290.185 		"/>
		<polygon fill="#005695" points="329.025,288.515 322.521,290.257 329.025,292.001 		"/>
		<text transform="matrix(1 0 0 1 337.9824 190.1416)" font-size="6.5">Decide to Ddo Task X</text>
		<text transform="matrix(1 0 0 1 337.9824 208.2637)" font-size="6.5">Update Task X UPS Status to </text>
		<text transform="matrix(1 0 0 1 337.9824 216.0635)" font-size="6.5">IN-PROGRESS</text>
		<text transform="matrix(1 0 0 1 337.9824 240.9004)" font-size="6.5">Update Task X UPS Progress to </text>
		<text transform="matrix(1 0 0 1 337.9824 248.7002)" font-size="6.5">“Beam 1 of 5”</text>
		<text transform="matrix(1 0 0 1 337.9824 282.6299)" font-size="6.5">Update Task X UPS Progress to </text>
		<text transform="matrix(1 0 0 1 337.9824 290.4297)" font-size="6.5">“Beam 5 of 5”</text>
		<text transform="matrix(1 0 0 1 337.9893 305.6465)" fill="#005695" font-size="6.5">Store Result Instances</text>
		<text transform="matrix(1 0 0 1 337.9893 323.6328)" font-size="6.5">Update Task X Details</text>
		<text transform="matrix(1 0 0 1 337.9893 340.6758)" font-size="6.5">Update Task X UPS Status to </text>
		<text transform="matrix(1 0 0 1 337.9893 348.4746)" font-size="6.5">COMPLETE</text>
		<text transform="matrix(1 0 0 1 337.9824 171.1377)" fill="#010101" font-size="24">...</text>
		<text transform="matrix(1 0 0 1 337.9824 263.8496)" fill="#010101" font-size="24">...</text>
	</g>
</g>
</svg>
