<?xml version="1.0" encoding="utf-8"?>
<!-- $Source: /home/bbennett/pass/archive/DicomXml/docbook/part17/figures/PS3.17_V.1-1.svg,v $ -->
<!-- $Date: 2014/05/09 12:30:21 $ -->
<!-- $Revision: 1.2 $ -->

<!DOCTYPE svg PUBLIC "-//W3C//DTD SVG 1.1//EN" "http://www.w3.org/Graphics/SVG/1.1/DTD/svg11.dtd">
<svg version="1.1" id="Layer_1" xmlns="http://www.w3.org/2000/svg" xmlns:xlink="http://www.w3.org/1999/xlink" x="0px" y="0px"
	 width="502px" height="267px" viewBox="0 0 502 267" enable-background="new 0 0 502 267" xml:space="preserve">

<defs>
	<style type="text/css">
	text {
	  font-family: Helvetica, Verdana, ArialUnicodeMS, san-serif
	}
	</style>
</defs>

<g>
   <desc>
	PS 3.17 Part 17: Explanatory Information
   </desc>
</g>

<g>
	<rect x="1" y="1" fill="#F5EED6" width="500" height="265"/>
	<g>
		<rect x="61.385" y="105.87" fill="#CCDEF0" stroke="#000000" width="178.417" height="142.904"/>
		<rect x="274.985" y="14.535" fill="#CCDEF0" stroke="#000000" width="166.222" height="234.238"/>
		<g>
			<text transform="matrix(0.9288 0 0 1 110.1255 241.0674)" font-size="11">Workstation X</text>
		</g>
		<g>
			<text transform="matrix(0.9288 0 0 1 155.061 123.8813)" font-size="11">1024x1280</text>
		</g>
		<g>
			<text transform="matrix(0.9288 0 0 1 72.5142 123.8813)" font-size="11">1024x1280</text>
		</g>
		<g>
			<rect x="72.514" y="127.289" fill="#86B2D8" stroke="#000000" width="72" height="90"/>
			<line fill="#CCDEF0" stroke="#000000" x1="72.514" y1="172.289" x2="144.458" y2="172.289"/>
			<line fill="#CCDEF0" stroke="#000000" x1="72.514" y1="149.789" x2="144.458" y2="149.789"/>
			<line fill="#CCDEF0" stroke="#000000" x1="72.514" y1="194.789" x2="144.458" y2="194.789"/>
			<line fill="#CCDEF0" stroke="#000000" x1="120.483" y1="217.289" x2="120.483" y2="127.484"/>
			<line fill="#CCDEF0" stroke="#000000" x1="96.491" y1="217.289" x2="96.491" y2="127.484"/>
		</g>
		<g>
			<rect x="155.061" y="127.289" fill="#86B2D8" stroke="#000000" width="72" height="90"/>
			<line fill="#CCDEF0" stroke="#000000" x1="155.061" y1="172.289" x2="227.005" y2="172.289"/>
			<line fill="#CCDEF0" stroke="#000000" x1="155.061" y1="149.789" x2="227.005" y2="149.789"/>
			<line fill="#CCDEF0" stroke="#000000" x1="155.061" y1="194.789" x2="227.005" y2="194.789"/>
			<line fill="#CCDEF0" stroke="#000000" x1="203.03" y1="217.289" x2="203.03" y2="127.484"/>
			<line fill="#CCDEF0" stroke="#000000" x1="179.038" y1="217.289" x2="179.038" y2="127.484"/>
		</g>
		<g>
			<text transform="matrix(0.9288 0 0 1 317.6279 241.0674)" font-size="11">Workstation Y</text>
		</g>
		<g>
			<text transform="matrix(0.9288 0 0 1 286.2715 33.9678)" font-size="11">2048x2560</text>
		</g>
		<g>
			<rect x="286.272" y="37.288" fill="#86B2D8" stroke="#000000" width="143.646" height="180.001"/>
			<line fill="#86B2D8" stroke="#000000" x1="286.272" y1="59.788" x2="429.919" y2="59.788"/>
			<line fill="#86B2D8" stroke="#000000" x1="286.272" y1="82.289" x2="429.919" y2="82.289"/>
			<line fill="#86B2D8" stroke="#000000" x1="286.272" y1="104.789" x2="429.919" y2="104.789"/>
			<line fill="#86B2D8" stroke="#000000" x1="286.272" y1="127.289" x2="429.919" y2="127.289"/>
			<line fill="#86B2D8" stroke="#000000" x1="286.272" y1="149.789" x2="429.919" y2="149.789"/>
			<line fill="#86B2D8" stroke="#000000" x1="286.272" y1="172.289" x2="429.919" y2="172.289"/>
			<line fill="#86B2D8" stroke="#000000" x1="286.272" y1="194.789" x2="429.919" y2="194.789"/>
			<line fill="#86B2D8" stroke="#000000" x1="405.966" y1="217.289" x2="405.966" y2="37.288"/>
			<line fill="#86B2D8" stroke="#000000" x1="382.049" y1="217.289" x2="382.049" y2="37.288"/>
			<line fill="#86B2D8" stroke="#000000" x1="358.096" y1="217.289" x2="358.096" y2="37.288"/>
			<line fill="#86B2D8" stroke="#000000" x1="334.143" y1="217.289" x2="334.143" y2="37.288"/>
			<line fill="#86B2D8" stroke="#000000" x1="310.226" y1="217.289" x2="310.226" y2="37.288"/>
		</g>
	</g>
</g>
</svg>
