<?xml version="1.0" encoding="utf-8"?>
<!-- $Source: /home/bbennett/pass/archive/DicomXml/docbook/part17/figures/PS3.17_O.4-3.svg,v $ -->
<!-- $Date: 2014/05/09 12:30:21 $ -->
<!-- $Revision: 1.2 $ -->

<!DOCTYPE svg PUBLIC "-//W3C//DTD SVG 1.1//EN" "http://www.w3.org/Graphics/SVG/1.1/DTD/svg11.dtd">
<svg version="1.1" id="Layer_1" xmlns="http://www.w3.org/2000/svg" xmlns:xlink="http://www.w3.org/1999/xlink" x="0px" y="0px"
	 width="502px" height="452px" viewBox="0 0 502 452" enable-background="new 0 0 502 452" xml:space="preserve">

<defs>
	<style type="text/css">
	text {
	  font-family: Helvetica, Verdana, ArialUnicodeMS, san-serif
	}
	</style>
</defs>

<g>
   <desc>
	PS 3.17 Part 17: Explanatory Information
   </desc>
</g>

<g>
	<rect x="1" y="1" fill="#F5EED6" width="500" height="450"/>
	<g>
		<rect x="36.833" y="30.206" fill="#FFFFFF" width="428.335" height="45"/>
		<rect x="36.833" y="75.197" fill="#D9D9D9" width="428.335" height="48.432"/>
		<rect x="36.833" y="123.629" fill="#FFFFFF" width="428.335" height="48"/>
		<rect x="36.833" y="171.551" fill="#D9D9D9" width="428.335" height="47.999"/>
		<g>
			<text transform="matrix(1 0 0 1 38.9785 23.8369)" font-size="10">DICOM Attributes</text>
		</g>
		<g>
			<text transform="matrix(1 0 0 1 253.1367 23.8369)" font-size="10">Spatial Fiducials Information Model</text>
		</g>
		<rect x="36.833" y="219.622" fill="#FFFFFF" width="428.335" height="99.114"/>
		<rect x="46.919" y="186.972" fill="none" width="78.917" height="10.113"/>
		<text transform="matrix(0.9288 0 0 1 46.918 191.9814)" font-size="7">Frame of Reference UID</text>
		<g>
			<g>
				<polyline fill="none" stroke="#005695" stroke-linecap="round" stroke-miterlimit="1" points="330.891,106.852 330.891,114.474 
					241.678,114.474 241.678,131 				"/>
				<g>
					<polygon fill="#005695" points="239.354,129.415 241.678,138.088 244.002,129.415 					"/>
				</g>
			</g>
		</g>
		<g>
			<g>
				
					<line fill="none" stroke="#005695" stroke-linecap="round" stroke-miterlimit="1" x1="299.732" y1="114.474" x2="299.732" y2="176.543"/>
				<g>
					<polygon fill="#005695" points="297.408,174.958 299.732,183.631 302.057,174.958 					"/>
				</g>
			</g>
		</g>
		<g>
			<g>
				
					<line fill="none" stroke="#005695" stroke-linecap="round" stroke-miterlimit="1" x1="330.95" y1="62.763" x2="330.95" y2="81.985"/>
				<g>
					<polygon fill="#005695" points="328.626,80.399 330.95,89.072 333.274,80.399 					"/>
				</g>
			</g>
		</g>
		
			<rect x="298.406" y="88.618" fill="#B2CEE7" stroke="#010101" stroke-width="0.75" stroke-linecap="round" stroke-linejoin="round" stroke-miterlimit="1" width="65.088" height="18"/>
		<g>
			<text transform="matrix(1 0 0 1 310.9141 99.5654)" font-size="7">Fiducials Set</text>
		</g>
		<g>
			<text transform="matrix(1 0 0 1 338.7324 85.7837)" font-size="7">1..*</text>
		</g>
		<g>
			<text transform="matrix(1 0 0 1 248.8784 135.6035)" font-size="7">0..*</text>
		</g>
		<g>
			<text transform="matrix(1 0 0 1 307.1309 180.6235)" font-size="7">0..1</text>
		</g>
		
			<rect x="258.729" y="183.631" fill="#B2CEE7" stroke="#010101" stroke-width="0.75" stroke-linecap="round" stroke-linejoin="round" stroke-miterlimit="1" width="82.001" height="18.003"/>
		<g>
			<text transform="matrix(1 0 0 1 268.6055 190.3804)"><tspan x="0" y="0" font-size="7">Frame of Reference</tspan><tspan x="6.225" y="8.4" font-size="7">(including Atlas)</tspan></text>
		</g>
		
			<rect x="209.227" y="138.63" fill="#B2CEE7" stroke="#010101" stroke-width="0.75" stroke-linecap="round" stroke-linejoin="round" stroke-miterlimit="1" width="65.091" height="18.002"/>
		<g>
			<text transform="matrix(1 0 0 1 212.9766 145.376)"><tspan x="0" y="0" font-size="7">Referenced Image</tspan><tspan x="10.317" y="8.4" font-size="7">(Image List)</tspan></text>
		</g>
		
			<rect x="280.324" y="35.762" fill="#86B2D8" stroke="#010101" stroke-width="0.75" stroke-linecap="round" stroke-linejoin="round" stroke-miterlimit="1" width="101.252" height="27.001"/>
		<g>
			<text transform="matrix(1 0 0 1 301.8262 46.6855)"><tspan x="0" y="0" font-size="8">Spatial Fiducials</tspan><tspan x="4.445" y="9.6" font-size="8">SOP Instance</tspan></text>
		</g>
		<rect x="46.919" y="138.274" fill="none" width="120.624" height="18.708"/>
		<text transform="matrix(0.9288 0 0 1 46.9189 143.2837)"><tspan x="0" y="0" font-size="7">Referenced Image Sequence Item</tspan><tspan x="0" y="8.4" font-size="7">&gt;Image SOP Instance Reference Macro</tspan></text>
		<g>
			<g>
				<polyline fill="none" stroke="#005695" stroke-linecap="round" stroke-miterlimit="1" points="331.152,114.474 363.485,114.474 
					363.485,226.993 				"/>
				<g>
					<polygon fill="#005695" points="361.161,225.408 363.485,234.081 365.81,225.408 					"/>
				</g>
			</g>
		</g>
		<g>
			<text transform="matrix(1 0 0 1 370.4111 231.5977)" font-size="7">1..*</text>
		</g>
		<g>
			<text transform="matrix(1 0 0 1 168.998 276.8975)" font-size="7">1</text>
		</g>
		<g>
			<text transform="matrix(1 0 0 1 236.5112 276.8984)" font-size="7">2..*</text>
		</g>
		<g>
			<text transform="matrix(1 0 0 1 303.3711 276.8984)" font-size="7">2..*</text>
		</g>
		<g>
			<text transform="matrix(1 0 0 1 370.9512 276.8984)" font-size="7">3..*</text>
		</g>
		<g>
			<text transform="matrix(1 0 0 1 438.1719 276.8984)" font-size="7">3..*</text>
		</g>
		<rect x="47.891" y="34.838" fill="none" width="71.803" height="35.736"/>
		<text transform="matrix(0.9288 0 0 1 47.8906 39.8467)"><tspan x="0" y="0" font-size="7">Content Date</tspan><tspan x="0" y="8.4" font-size="7">Content Time</tspan><tspan x="0" y="16.8" font-size="7">Content Identification</tspan><tspan x="0" y="25.2" font-size="7">Registration Sequence</tspan></text>
		
			<rect x="330.939" y="234.632" fill="#B2CEE7" stroke="#010101" stroke-width="0.75" stroke-linecap="round" stroke-linejoin="round" stroke-miterlimit="1" width="65.092" height="18"/>
		<g>
			<text transform="matrix(1 0 0 1 351.4277 245.5791)" font-size="7">Fiducial</text>
		</g>
		<rect x="46.919" y="79.792" fill="none" width="145.55" height="35.652"/>
		<text transform="matrix(0.9288 0 0 1 46.9189 84.8008)"><tspan x="0" y="0" font-size="7">Fiducial Set Sequence Item</tspan><tspan x="0" y="8.4" font-size="7">&gt;Frame of Reference UID</tspan><tspan x="0" y="16.8" font-size="7">&gt;Referenced Image Sequence</tspan><tspan x="0" y="25.2" font-size="7">&gt;Fiducial Sequence</tspan></text>
		<rect x="36.833" y="318.894" fill="#D9D9D9" width="428.335" height="56.07"/>
		<rect x="36.833" y="374.965" fill="#FFFFFF" width="428.335" height="62.061"/>
		<rect x="46.919" y="326.564" fill="none" width="120.375" height="44.896"/>
		<text transform="matrix(0.9288 0 0 1 46.918 331.5664)"><tspan x="0" y="0" font-size="7">Fiducial Sequence Item</tspan><tspan x="0" y="8.4" font-size="7">&gt;Number of Contour Points</tspan><tspan x="0" y="16.8" font-size="7">&gt;Contour Uncertainty Radius</tspan><tspan x="0" y="25.2" font-size="7">&gt;Contour Data</tspan><tspan x="0" y="33.6" font-size="7">(one coordinate triplet per point)</tspan></text>
		<g>
			<g>
				<line fill="none" stroke="#005695" stroke-miterlimit="1" x1="363.693" y1="253.115" x2="363.693" y2="271.413"/>
				<g>
					<polygon fill="#005695" points="361.369,269.828 363.693,278.501 366.018,269.828 					"/>
				</g>
			</g>
		</g>
		<g>
			<g>
				<polyline fill="none" stroke="#005695" stroke-miterlimit="1" points="363.479,261.386 296.24,261.386 296.24,272.265 				"/>
				<g>
					<polygon fill="#005695" points="293.916,270.68 296.24,279.353 298.564,270.68 					"/>
				</g>
			</g>
		</g>
		<g>
			<g>
				<polyline fill="none" stroke="#005695" stroke-miterlimit="1" points="296.232,261.386 228.994,261.386 228.994,272.265 				"/>
				<g>
					<polygon fill="#005695" points="226.67,270.68 228.994,279.353 231.318,270.68 					"/>
				</g>
			</g>
		</g>
		<g>
			<g>
				<polyline fill="none" stroke="#005695" stroke-miterlimit="1" points="228.986,261.386 161.748,261.386 161.748,272.265 				"/>
				<g>
					<polygon fill="#005695" points="159.424,270.68 161.748,279.353 164.072,270.68 					"/>
				</g>
			</g>
		</g>
		<g>
			<g>
				<polyline fill="none" stroke="#005695" stroke-miterlimit="1" points="362.412,261.386 430.729,261.386 430.729,272.265 				"/>
				<g>
					<polygon fill="#005695" points="428.404,270.68 430.729,279.353 433.053,270.68 					"/>
				</g>
			</g>
		</g>
		<polyline fill="none" stroke="#005695" stroke-linecap="round" stroke-miterlimit="1" points="363.479,309.545 296.24,309.545 
			296.24,298.48 		"/>
		<polyline fill="none" stroke="#005695" stroke-linecap="round" stroke-miterlimit="1" points="296.232,309.545 228.994,309.545 
			228.994,298.48 		"/>
		<polyline fill="none" stroke="#005695" stroke-linecap="round" stroke-miterlimit="1" points="228.986,309.545 161.748,309.545 
			161.748,298.48 		"/>
		<polyline fill="none" stroke="#005695" stroke-linecap="round" stroke-miterlimit="1" points="362.412,309.545 430.729,309.545 
			430.729,298.48 		"/>
		
			<rect x="131.728" y="279.536" fill="#B2CEE7" stroke="#010101" stroke-width="0.75" stroke-linecap="round" stroke-linejoin="round" stroke-miterlimit="1" width="60.043" height="18.002"/>
		<g>
			<text transform="matrix(1 0 0 1 153.7725 290.4795)" font-size="7">Point</text>
		</g>
		
			<rect x="198.973" y="279.536" fill="#B2CEE7" stroke="#010101" stroke-width="0.75" stroke-linecap="round" stroke-linejoin="round" stroke-miterlimit="1" width="60.043" height="18.002"/>
		<g>
			<text transform="matrix(1 0 0 1 214.9863 290.4795)" font-size="7">Segment</text>
		</g>
		
			<rect x="266.221" y="279.536" fill="#B2CEE7" stroke="#010101" stroke-width="0.75" stroke-linecap="round" stroke-linejoin="round" stroke-miterlimit="1" width="60.037" height="18.002"/>
		<g>
			<text transform="matrix(1 0 0 1 289.623 290.4795)" font-size="7">Line</text>
		</g>
		
			<rect x="333.463" y="279.536" fill="#B2CEE7" stroke="#010101" stroke-width="0.75" stroke-linecap="round" stroke-linejoin="round" stroke-miterlimit="1" width="60.043" height="18.002"/>
		<g>
			<text transform="matrix(1 0 0 1 354.5332 290.4795)" font-size="7">Plane</text>
		</g>
		
			<rect x="400.708" y="279.536" fill="#B2CEE7" stroke="#010101" stroke-width="0.75" stroke-linecap="round" stroke-linejoin="round" stroke-miterlimit="1" width="60.043" height="18.002"/>
		<g>
			<text transform="matrix(1 0 0 1 418.668 290.4795)" font-size="7">Surface</text>
		</g>
		<g>
			<g>
				<line fill="none" stroke="#005695" stroke-miterlimit="1" x1="363.693" y1="358.013" x2="363.693" y2="393.474"/>
				<g>
					<polygon fill="#005695" points="361.369,391.889 363.693,400.562 366.018,391.889 					"/>
				</g>
			</g>
		</g>
		<g>
			<g>
				<line fill="none" stroke="#005695" stroke-miterlimit="1" x1="363.693" y1="297.761" x2="363.693" y2="332.921"/>
				<g>
					<polygon fill="#005695" points="361.369,331.336 363.693,340.009 366.018,331.336 					"/>
				</g>
			</g>
		</g>
		
			<rect x="331.148" y="400.562" fill="#B2CEE7" stroke="#010101" stroke-width="0.75" stroke-linecap="round" stroke-linejoin="round" stroke-miterlimit="1" width="65.092" height="18"/>
		<g>
			<text transform="matrix(1 0 0 1 351.4375 407.3047)"><tspan x="0" y="0" font-size="7">Graphic</tspan><tspan x="-4.867" y="8.399" font-size="7">Coordinate</tspan></text>
		</g>
		
			<rect x="331.146" y="340.013" fill="#B2CEE7" stroke="#010101" stroke-width="0.75" stroke-linecap="round" stroke-linejoin="round" stroke-miterlimit="1" width="65.092" height="18"/>
		<g>
			<text transform="matrix(1 0 0 1 351.2393 346.7559)"><tspan x="0" y="0" font-size="7">Contour</tspan><tspan x="4.474" y="8.399" font-size="7">Point</tspan></text>
		</g>
		<rect x="46.919" y="234.268" fill="none" width="91.624" height="61.035"/>
		<text transform="matrix(0.9288 0 0 1 46.9189 239.2764)"><tspan x="0" y="0" font-size="7">Fiducial Sequence Item</tspan><tspan x="0" y="8.399" font-size="7">&gt;Fiducial Identifier</tspan><tspan x="0" y="16.8" font-size="7">&gt;Fiducial Identifier Code </tspan><tspan x="0" y="25.2" font-size="7">Sequence</tspan><tspan x="0" y="33.601" font-size="7">&gt;Fiducial Description</tspan><tspan x="0" y="42" font-size="7">&gt;Fiducial UID</tspan><tspan x="0" y="50.399" font-size="7">&gt;Shape Type</tspan></text>
		<rect x="46.919" y="383.25" fill="none" width="156.105" height="52.613"/>
		<text transform="matrix(0.9288 0 0 1 46.9189 388.2588)"><tspan x="0" y="0" font-size="7">Fiducial Sequence Item</tspan><tspan x="0" y="8.4" font-size="7">&gt;Graphic Coordinates Data Sequence</tspan><tspan x="0" y="16.8" font-size="7">&gt;&gt;Graphic Data</tspan><tspan x="0" y="25.2" font-size="7">(one row, col pair for each Spatial Coordinate point)</tspan><tspan x="0" y="33.6" font-size="7">&gt;&gt;Referenced Image Sequence</tspan><tspan x="0" y="42" font-size="7">&gt;&gt;&gt;Image SOP Instance Reference Macro</tspan></text>
		<g>
			<text transform="matrix(1 0 0 1 371.0176 337.1777)" font-size="7">1</text>
		</g>
		<g>
			<text transform="matrix(1 0 0 1 371.0869 397.8174)" font-size="7">0..1</text>
		</g>
	</g>
</g>
</svg>
