<?xml version="1.0" encoding="utf-8"?>
<!-- $Source: /home/bbennett/pass/archive/DicomXml/docbook/part17/figures/PS3.17_QQ.1-1.svg,v $ -->
<!-- $Date: 2014/05/09 13:15:43 $ -->
<!-- $Revision: 1.1 $ -->

<!DOCTYPE svg PUBLIC "-//W3C//DTD SVG 1.1//EN" "http://www.w3.org/Graphics/SVG/1.1/DTD/svg11.dtd">
<svg version="1.1" id="Layer_1" xmlns="http://www.w3.org/2000/svg" xmlns:xlink="http://www.w3.org/1999/xlink" x="0px" y="0px"
	 width="502.001px" height="362px" viewBox="0 0 502.001 362" enable-background="new 0 0 502.001 362" xml:space="preserve">

<defs>
	<style type="text/css">
	text {
	  font-family: Helvetica, Verdana, ArialUnicodeMS, san-serif
	}
	</style>
</defs>

<g>
   <desc>
	PS 3.17 Part 17: Explanatory Information
   </desc>
</g>

<g>
	<rect x="1" y="1" fill="#F5EED6" width="500.001" height="360"/>
	<g>
		<rect x="426.554" y="15.834" fill="#B2CEE7" stroke="#CCDEF0" stroke-miterlimit="1" width="56.113" height="330.333"/>
		<rect x="19.334" y="15.834" fill="#CCDEF0" stroke="#CCDEF0" stroke-miterlimit="1" width="407.22" height="330.333"/>
		<g>
			<g>
				<line fill="none" stroke="#005695" stroke-width="2" stroke-miterlimit="1" x1="52.393" y1="92.233" x2="65.677" y2="92.233"/>
				<g>
					<polygon fill="#005695" points="64.092,94.558 72.765,92.233 64.092,89.909 					"/>
				</g>
			</g>
		</g>
		<g>
			<g>
				<polyline fill="none" stroke="#005695" stroke-width="2" stroke-miterlimit="1" points="52.393,92.233 59.636,92.233 
					59.636,57.162 65.677,57.162 				"/>
				<g>
					<polygon fill="#005695" points="64.092,59.486 72.765,57.162 64.092,54.838 					"/>
				</g>
			</g>
		</g>
		<g>
			<g>
				<polyline fill="none" stroke="#B2CEE7" stroke-width="2" stroke-miterlimit="1" points="350.257,195.657 355.71,195.657 
					355.71,160.586 361.382,160.586 				"/>
				<g>
					<polygon fill="#B2CEE7" points="359.797,162.91 368.47,160.586 359.797,158.262 					"/>
				</g>
			</g>
		</g>
		<g>
			<g>
				<polyline fill="none" stroke="#B2CEE7" stroke-width="2" stroke-miterlimit="1" points="350.257,195.507 355.71,195.507 
					355.71,230.572 419.466,230.572 				"/>
				<g>
					<polygon fill="#B2CEE7" points="417.881,232.896 426.554,230.572 417.881,228.248 					"/>
				</g>
			</g>
		</g>
		<g>
			<g>
				<polyline fill="none" stroke="#B2CEE7" stroke-width="2" stroke-miterlimit="1" points="153.206,92.233 153.206,130.404 
					159.485,130.404 				"/>
				<g>
					<polygon fill="#B2CEE7" points="157.899,132.729 166.572,130.404 157.899,128.08 					"/>
				</g>
			</g>
		</g>
		<g>
			<g>
				<polyline fill="none" stroke="#B2CEE7" stroke-width="2" stroke-miterlimit="1" points="206.558,130.403 284.646,130.403 
					284.646,164.093 				"/>
				<g>
					<polygon fill="#B2CEE7" points="282.321,162.508 284.646,171.181 286.97,162.508 					"/>
				</g>
			</g>
		</g>
		<g>
			<g>
				<polyline fill="none" stroke="#B2CEE7" stroke-width="2" stroke-miterlimit="1" points="206.558,262.285 284.646,262.285 
					284.646,228.596 				"/>
				<g>
					<polygon fill="#B2CEE7" points="286.97,230.181 284.646,221.508 282.321,230.181 					"/>
				</g>
			</g>
		</g>
		<g>
			<g>
				
					<line fill="none" stroke="#005695" stroke-width="2" stroke-miterlimit="1" x1="102.979" y1="92.233" x2="109.563" y2="92.233"/>
				<g>
					<polygon fill="#005695" points="107.978,94.558 116.65,92.233 107.978,89.909 					"/>
				</g>
			</g>
		</g>
		<g>
			<g>
				
					<line fill="none" stroke="#B2CEE7" stroke-width="2" stroke-miterlimit="1" x1="313.445" y1="195.657" x2="317.168" y2="195.657"/>
				<g>
					<polygon fill="#B2CEE7" points="315.583,197.981 324.256,195.657 315.583,193.333 					"/>
				</g>
			</g>
		</g>
		<g>
			<g>
				
					<line fill="none" stroke="#B2CEE7" stroke-width="2" stroke-miterlimit="1" x1="413.993" y1="160.485" x2="419.466" y2="160.485"/>
				<g>
					<polygon fill="#B2CEE7" points="417.881,162.81 426.554,160.485 417.881,158.161 					"/>
				</g>
			</g>
		</g>
		<g>
			<g>
				<line fill="none" stroke="#005695" stroke-width="2" stroke-miterlimit="1" x1="147.54" y1="92.233" x2="159.272" y2="92.233"/>
				<g>
					<polygon fill="#005695" points="157.687,94.558 166.359,92.233 157.687,89.909 					"/>
				</g>
			</g>
		</g>
		<g>
			<g>
				
					<line fill="none" stroke="#B2CEE7" stroke-width="2" stroke-miterlimit="1" x1="223.432" y1="178.542" x2="247.933" y2="178.542"/>
				<g>
					<polygon fill="#B2CEE7" points="246.348,180.866 255.021,178.542 246.348,176.218 					"/>
				</g>
			</g>
		</g>
		<g>
			<g>
				
					<line fill="none" stroke="#B2CEE7" stroke-width="2" stroke-miterlimit="1" x1="223.432" y1="215.475" x2="247.933" y2="215.475"/>
				<g>
					<polygon fill="#B2CEE7" points="246.348,217.799 255.021,215.475 246.348,213.15 					"/>
				</g>
			</g>
		</g>
		<g>
			<g>
				
					<line fill="none" stroke="#005695" stroke-width="2" stroke-miterlimit="1" x1="206.558" y1="92.233" x2="419.466" y2="92.233"/>
				<g>
					<polygon fill="#005695" points="417.881,94.558 426.554,92.233 417.881,89.909 					"/>
				</g>
			</g>
		</g>
		<g>
			<g>
				
					<line fill="none" stroke="#005695" stroke-width="2" stroke-miterlimit="1" x1="121.366" y1="57.219" x2="419.466" y2="57.219"/>
				<g>
					<polygon fill="#005695" points="417.881,59.543 426.554,57.219 417.881,54.895 					"/>
				</g>
			</g>
		</g>
		<rect x="193.279" y="167.542" fill="#CCDEF0" stroke="#BCBEC0" stroke-miterlimit="1" width="30" height="22"/>
		<g>
			<text transform="matrix(1 0 0 1 196.6045 177.1338)"><tspan x="0" y="0" fill="#BCBEC0" font-size="6">Blending</tspan><tspan x="3.507" y="5.491" fill="#BCBEC0" font-size="6">LUT 1</tspan></text>
		</g>
		<g>
			<text transform="matrix(1 0 0 1 226.2144 159.5439)"><tspan x="0" y="0" fill="#BCBEC0" font-size="6">Weight 1 </tspan><tspan x="-0.088" y="5.491" fill="#BCBEC0" font-size="6">= Alpha 1</tspan></text>
		</g>
		<g>
			<text transform="matrix(1 0 0 1 226.2144 197.8105)"><tspan x="0" y="0" fill="#BCBEC0" font-size="6">Weight 2 </tspan><tspan x="-0.088" y="5.49" fill="#BCBEC0" font-size="6">= Alpha 2</tspan></text>
		</g>
		<g>
			<text transform="matrix(1 0 0 1 230.5938 123.5537)" fill="#BCBEC0" font-size="6">RGB 1</text>
		</g>
		<g>
			<text transform="matrix(1 0 0 1 230.5938 255.5762)" fill="#BCBEC0" font-size="6">RGB 2</text>
		</g>
		<g>
			<g>
				<polyline fill="none" stroke="#B2CEE7" stroke-width="2" stroke-miterlimit="1" points="180.169,144.332 180.169,172.834 
					186.088,172.834 				"/>
				<g>
					<polygon fill="#B2CEE7" points="184.503,175.158 193.176,172.834 184.503,170.51 					"/>
				</g>
			</g>
		</g>
		<g>
			<g>
				<polyline fill="none" stroke="#B2CEE7" stroke-width="2" stroke-miterlimit="1" points="180.169,170.841 180.169,210.833 
					186.088,210.833 				"/>
				<g>
					<polygon fill="#B2CEE7" points="184.503,213.157 193.176,210.833 184.503,208.509 					"/>
				</g>
			</g>
		</g>
		<g>
			<g>
				<polyline fill="none" stroke="#B2CEE7" stroke-width="2" stroke-miterlimit="1" points="172.609,248.187 172.609,221.508 
					186.784,221.508 				"/>
				<g>
					<polygon fill="#B2CEE7" points="185.198,223.832 193.871,221.508 185.198,219.184 					"/>
				</g>
			</g>
		</g>
		<g>
			<g>
				<polyline fill="none" stroke="#B2CEE7" stroke-width="2" stroke-miterlimit="1" points="172.609,223.798 172.609,183.167 
					186.784,183.167 				"/>
				<g>
					<polygon fill="#B2CEE7" points="185.198,185.491 193.871,183.167 185.198,180.843 					"/>
				</g>
			</g>
		</g>
		<rect x="193.279" y="205.871" fill="#CCDEF0" stroke="#BCBEC0" stroke-miterlimit="1" width="30" height="22"/>
		<g>
			<text transform="matrix(1 0 0 1 196.6045 215.4639)"><tspan x="0" y="0" fill="#BCBEC0" font-size="6">Blending</tspan><tspan x="3.507" y="5.491" fill="#BCBEC0" font-size="6">LUT 2</tspan></text>
		</g>
		
			<rect x="116.796" y="81.233" fill="#86B2D8" stroke="#010101" stroke-width="0.75" stroke-linecap="round" stroke-linejoin="round" stroke-miterlimit="1" width="30" height="22"/>
		<g>
			<text transform="matrix(1 0 0 1 120.1265 90.8257)"><tspan x="0" y="0" font-size="6">VOI LUT</tspan><tspan x="-0.838" y="5.491" font-size="6">(optional)</tspan></text>
		</g>
		
			<rect x="166.796" y="81.233" fill="#86B2D8" stroke="#010101" stroke-width="0.75" stroke-linecap="round" stroke-linejoin="round" stroke-miterlimit="1" width="40" height="22"/>
		<g>
			<text transform="matrix(1 0 0 1 169.9526 87.4805)"><tspan x="0" y="0" font-size="6">Presentation</tspan><tspan x="11.177" y="5.491" font-size="6">LUT</tspan><tspan x="5.341" y="10.981" font-size="6">(identity)</tspan></text>
		</g>
		<rect x="166.796" y="116.306" fill="#CCDEF0" stroke="#BCBEC0" stroke-miterlimit="1" width="40" height="28.197"/>
		<g>
			<text transform="matrix(1 0 0 1 176.4238 123.8276)"><tspan x="0" y="0" fill="#BCBEC0" font-size="6">Primary</tspan><tspan x="1.831" y="5.491" fill="#BCBEC0" font-size="6">RGBA</tspan><tspan x="-7.009" y="10.981" fill="#BCBEC0" font-size="6">Palette Color</tspan><tspan x="4.666" y="16.472" fill="#BCBEC0" font-size="6">LUT</tspan></text>
		</g>
		<rect x="368.575" y="146.387" fill="#CCDEF0" stroke="#BCBEC0" stroke-miterlimit="1" width="45.418" height="28.197"/>
		<g>
			<text transform="matrix(1 0 0 1 382.7803 153.9087)"><tspan x="0" y="0" fill="#BCBEC0" font-size="6">Profile</tspan><tspan x="-6.674" y="5.491" fill="#BCBEC0" font-size="6">Connection</tspan><tspan x="-0.003" y="10.981" fill="#BCBEC0" font-size="6">Space</tspan><tspan x="-11.671" y="16.472" fill="#BCBEC0" font-size="6">Transformation</tspan></text>
		</g>
		<rect x="166.796" y="248.19" fill="#CCDEF0" stroke="#BCBEC0" stroke-miterlimit="1" width="40" height="28.197"/>
		<g>
			<text transform="matrix(1 0 0 1 172.4146 255.7129)"><tspan x="0" y="0" fill="#BCBEC0" font-size="6">Secondary</tspan><tspan x="5.84" y="5.49" fill="#BCBEC0" font-size="6">RGBA</tspan><tspan x="-3" y="10.98" fill="#BCBEC0" font-size="6">Palette Color</tspan><tspan x="8.675" y="16.471" fill="#BCBEC0" font-size="6">LUT</tspan></text>
		</g>
		<rect x="254.962" y="170.496" fill="#CCDEF0" stroke="#BCBEC0" stroke-miterlimit="1" width="58.486" height="51.181"/>
		<g>
			<text transform="matrix(1 0 0 1 257.6855 178.1099)"><tspan x="0" y="0" fill="#BCBEC0" font-size="6">Blending Operation:</tspan><tspan x="1.671" y="10.981" fill="#BCBEC0" font-size="6">Multiply inputs and</tspan><tspan x="8.339" y="16.472" fill="#BCBEC0" font-size="6">add the result</tspan><tspan x="2.509" y="27.453" fill="#BCBEC0" font-size="6">Weight 1 x RGB 1</tspan><tspan x="24.766" y="32.943" fill="#BCBEC0" font-size="6">+</tspan><tspan x="1.676" y="38.433" fill="#BCBEC0" font-size="6">Weight 2 x RGB 2 </tspan></text>
		</g>
		<g>
			<g>
				<line fill="none" stroke="#B2CEE7" stroke-width="2" stroke-miterlimit="1" x1="130.522" y1="304.1" x2="419.466" y2="304.1"/>
				<g>
					<polygon fill="#B2CEE7" points="417.881,306.424 426.554,304.1 417.881,301.775 					"/>
				</g>
			</g>
		</g>
		<g>
			<g>
				
					<line fill="none" stroke="#B2CEE7" stroke-width="2" stroke-miterlimit="1" x1="130.522" y1="332.135" x2="419.466" y2="332.135"/>
				<g>
					<polygon fill="#B2CEE7" points="417.881,334.459 426.554,332.135 417.881,329.811 					"/>
				</g>
			</g>
		</g>
		
			<rect x="72.525" y="46.219" fill="#86B2D8" stroke="#010101" stroke-width="0.75" stroke-linecap="round" stroke-linejoin="round" stroke-miterlimit="1" width="51" height="22"/>
		<g>
			<text transform="matrix(1 0 0 1 74.6831 55.8105)"><tspan x="0" y="0" font-size="6">Real World Value</tspan><tspan x="11.836" y="5.491" font-size="6">Mapping</tspan></text>
		</g>
		<g>
			<text transform="matrix(1 0 0 1 417.3359 28.877)"><tspan x="0" y="0" font-size="6">Device</tspan><tspan x="-7.514" y="5.491" font-size="6">Independent</tspan><tspan x="-0.004" y="10.981" font-size="6">Values</tspan></text>
		</g>
		<g>
			<text transform="matrix(1 0 0 1 430.0488 59.0127)"><tspan x="0" y="0" font-size="6">Real World Value</tspan><tspan x="13.924" y="5.491" font-size="6">+ Units</tspan></text>
		</g>
		<g>
			<text transform="matrix(1 0 0 1 430.0488 306.168)"><tspan x="0" y="0" fill="#BCBEC0" font-size="6">Real World Value</tspan><tspan x="13.924" y="5.49" fill="#BCBEC0" font-size="6">+ Units</tspan></text>
		</g>
		<g>
			<text transform="matrix(1 0 0 1 430.0488 334.2832)"><tspan x="0" y="0" fill="#BCBEC0" font-size="6">Real World Value</tspan><tspan x="13.924" y="5.49" fill="#BCBEC0" font-size="6">+ Units</tspan></text>
		</g>
		<g>
			<text transform="matrix(1 0 0 1 432.0547 93.6621)"><tspan x="0" y="0" font-size="6">Gray Scale</tspan><tspan x="1.832" y="5.491" font-size="6">Output as</tspan><tspan x="-2.005" y="10.981" font-size="6">Presentation</tspan><tspan x="5.666" y="16.472" font-size="6">Values</tspan></text>
		</g>
		<g>
			<text transform="matrix(1 0 0 1 431.5537 161.9922)"><tspan x="0" y="0" fill="#BCBEC0" font-size="6">Color Output</tspan><tspan x="4.503" y="5.491" fill="#BCBEC0" font-size="6">as Profile</tspan><tspan x="1.831" y="10.981" fill="#BCBEC0" font-size="6">Connection</tspan><tspan x="-1.505" y="16.472" fill="#BCBEC0" font-size="6">Space Values</tspan></text>
		</g>
		<g>
			<text transform="matrix(1 0 0 1 430.0488 232.6934)"><tspan x="0" y="0" fill="#BCBEC0" font-size="6">Post-Blending,</tspan><tspan x="7.506" y="5.49" fill="#BCBEC0" font-size="6">Clamped</tspan><tspan x="3.005" y="10.98" fill="#BCBEC0" font-size="6">RGB Values</tspan></text>
		</g>
		<rect x="72.525" y="293.1" fill="#CCDEF0" stroke="#BCBEC0" stroke-miterlimit="1" width="60" height="22"/>
		<g>
			<text transform="matrix(1 0 0 1 79.1836 302.6895)"><tspan x="0" y="0" fill="#BCBEC0" font-size="6">Real World Value</tspan><tspan x="11.836" y="5.49" fill="#BCBEC0" font-size="6">Mapping</tspan></text>
		</g>
		<rect x="72.525" y="321.135" fill="#CCDEF0" stroke="#BCBEC0" stroke-miterlimit="1" width="60" height="22"/>
		<g>
			<text transform="matrix(1 0 0 1 79.1836 330.7246)"><tspan x="0" y="0" fill="#BCBEC0" font-size="6">Real World Value</tspan><tspan x="11.836" y="5.49" fill="#BCBEC0" font-size="6">Mapping</tspan></text>
		</g>
		
			<rect x="26.313" y="81.233" fill="#86B2D8" stroke="#010101" stroke-width="0.75" stroke-linecap="round" stroke-linejoin="round" stroke-miterlimit="1" width="26" height="22"/>
		<g>
			<text transform="matrix(1 0 0 1 32.9775 90.8262)"><tspan x="0" y="0" font-size="6">Data</tspan><tspan x="-2.331" y="5.491" font-size="6">Frame</tspan></text>
		</g>
		<rect x="324.256" y="185.087" fill="#CCDEF0" stroke="#BCBEC0" stroke-miterlimit="1" width="26.001" height="21.999"/>
		<g>
			<text transform="matrix(1 0 0 1 326.918 197.7461)" fill="#BCBEC0" font-size="6">CLAMP</text>
		</g>
		<g>
			<g>
				
					<line fill="none" stroke="#B2CEE7" stroke-width="2" stroke-miterlimit="1" x1="52.012" y1="248.188" x2="65.296" y2="248.188"/>
				<g>
					<polygon fill="#B2CEE7" points="63.711,250.512 72.384,248.188 63.711,245.863 					"/>
				</g>
			</g>
		</g>
		<g>
			<g>
				<polyline fill="none" stroke="#B2CEE7" stroke-width="2" stroke-miterlimit="1" points="52.373,248.189 59.636,248.189 
					59.636,304.143 65.297,304.143 				"/>
				<g>
					<polygon fill="#B2CEE7" points="63.712,306.467 72.385,304.143 63.712,301.818 					"/>
				</g>
			</g>
		</g>
		<g>
			<g>
				<polyline fill="none" stroke="#B2CEE7" stroke-width="2" stroke-miterlimit="1" points="146.925,248.188 152.378,248.188 
					152.378,255.59 158.05,255.59 				"/>
				<g>
					<polygon fill="#B2CEE7" points="156.465,257.914 165.138,255.59 156.465,253.266 					"/>
				</g>
			</g>
		</g>
		<g>
			<g>
				<polyline fill="none" stroke="#B2CEE7" stroke-width="2" stroke-miterlimit="1" points="146.925,276.27 152.378,276.27 
					152.378,268.867 158.05,268.867 				"/>
				<g>
					<polygon fill="#B2CEE7" points="156.465,271.191 165.138,268.867 156.465,266.543 					"/>
				</g>
			</g>
		</g>
		<g>
			<g>
				
					<line fill="none" stroke="#B2CEE7" stroke-width="2" stroke-miterlimit="1" x1="102.65" y1="248.188" x2="109.234" y2="248.188"/>
				<g>
					<polygon fill="#B2CEE7" points="107.648,250.512 116.321,248.188 107.648,245.863 					"/>
				</g>
			</g>
		</g>
		<rect x="116.796" y="237.188" fill="#CCDEF0" stroke="#BCBEC0" stroke-miterlimit="1" width="30" height="22"/>
		<g>
			<text transform="matrix(1 0 0 1 120.1265 246.7793)"><tspan x="0" y="0" fill="#BCBEC0" font-size="6">VOI LUT</tspan><tspan x="-0.838" y="5.49" fill="#BCBEC0" font-size="6">(optional)</tspan></text>
		</g>
		<rect x="26.313" y="237.188" fill="#CCDEF0" stroke="#BCBEC0" stroke-miterlimit="1" width="26" height="22"/>
		<g>
			<text transform="matrix(1 0 0 1 32.9775 246.7793)"><tspan x="0" y="0" fill="#BCBEC0" font-size="6">Data</tspan><tspan x="-2.331" y="5.49" fill="#BCBEC0" font-size="6">Frame</tspan></text>
		</g>
		<g>
			<g>
				
					<line fill="none" stroke="#B2CEE7" stroke-width="2" stroke-miterlimit="1" x1="52.012" y1="276.271" x2="65.296" y2="276.271"/>
				<g>
					<polygon fill="#B2CEE7" points="63.711,278.596 72.384,276.271 63.711,273.947 					"/>
				</g>
			</g>
		</g>
		<g>
			<g>
				<polyline fill="none" stroke="#B2CEE7" stroke-width="2" stroke-miterlimit="1" points="52.01,276.27 55.664,276.27 
					55.664,331.862 64.935,331.862 				"/>
				<g>
					<polygon fill="#B2CEE7" points="63.35,334.187 72.022,331.862 63.35,329.538 					"/>
				</g>
			</g>
		</g>
		<g>
			<g>
				
					<line fill="none" stroke="#B2CEE7" stroke-width="2" stroke-miterlimit="1" x1="102.65" y1="276.271" x2="109.234" y2="276.271"/>
				<g>
					<polygon fill="#B2CEE7" points="107.648,278.596 116.321,276.271 107.648,273.947 					"/>
				</g>
			</g>
		</g>
		
			<rect x="72.525" y="81.233" fill="#86B2D8" stroke="#010101" stroke-width="0.75" stroke-linecap="round" stroke-linejoin="round" stroke-miterlimit="1" width="30" height="22"/>
		<g>
			<text transform="matrix(1 0 0 1 76.3564 90.8257)"><tspan x="0" y="0" font-size="6">Modality</tspan><tspan x="5.503" y="5.491" font-size="6">LUT</tspan></text>
		</g>
		<rect x="72.525" y="237.188" fill="#CCDEF0" stroke="#BCBEC0" stroke-miterlimit="1" width="30" height="22"/>
		<g>
			<text transform="matrix(1 0 0 1 76.3564 246.7793)"><tspan x="0" y="0" fill="#BCBEC0" font-size="6">Modality</tspan><tspan x="5.503" y="5.49" fill="#BCBEC0" font-size="6">LUT</tspan></text>
		</g>
		<rect x="72.525" y="265.271" fill="#CCDEF0" stroke="#BCBEC0" stroke-miterlimit="1" width="30" height="22"/>
		<g>
			<text transform="matrix(1 0 0 1 76.3564 274.8594)"><tspan x="0" y="0" fill="#BCBEC0" font-size="6">Modality</tspan><tspan x="5.503" y="5.49" fill="#BCBEC0" font-size="6">LUT</tspan></text>
		</g>
		<rect x="116.796" y="265.271" fill="#CCDEF0" stroke="#BCBEC0" stroke-miterlimit="1" width="30" height="22"/>
		<g>
			<text transform="matrix(1 0 0 1 120.1265 274.8594)"><tspan x="0" y="0" fill="#BCBEC0" font-size="6">VOI LUT</tspan><tspan x="-0.838" y="5.49" fill="#BCBEC0" font-size="6">(optional)</tspan></text>
		</g>
		<rect x="26.313" y="265.271" fill="#CCDEF0" stroke="#BCBEC0" stroke-miterlimit="1" width="26" height="22"/>
		<g>
			<text transform="matrix(1 0 0 1 32.9775 274.8594)"><tspan x="0" y="0" fill="#BCBEC0" font-size="6">Data</tspan><tspan x="-2.331" y="5.49" fill="#BCBEC0" font-size="6">Frame</tspan></text>
		</g>
		<g>
			<g>
				
					<line fill="none" stroke="#0DB14B" stroke-width="2" stroke-miterlimit="1" x1="426.554" y1="42.835" x2="426.554" y2="44.835"/>
				
					<line fill="none" stroke="#0DB14B" stroke-width="2" stroke-miterlimit="1" stroke-dasharray="3.9647,1.9823" x1="426.554" y1="46.817" x2="426.554" y2="343.176"/>
				
					<line fill="none" stroke="#0DB14B" stroke-width="2" stroke-miterlimit="1" x1="426.554" y1="344.167" x2="426.554" y2="346.167"/>
			</g>
		</g>
	</g>
</g>
</svg>
