<?xml version="1.0" encoding="utf-8"?>
<!-- $Source: /home/bbennett/pass/archive/DicomXml/docbook/part17/figures/PS3.17_FF.2-3.svg,v $ -->
<!-- $Date: 2014/05/09 12:30:21 $ -->
<!-- $Revision: 1.2 $ -->

<!DOCTYPE svg PUBLIC "-//W3C//DTD SVG 1.1//EN" "http://www.w3.org/Graphics/SVG/1.1/DTD/svg11.dtd">
<svg version="1.1" id="Layer_1" xmlns="http://www.w3.org/2000/svg" xmlns:xlink="http://www.w3.org/1999/xlink" x="0px" y="0px"
	 width="502px" height="287px" viewBox="0 0 502 287" enable-background="new 0 0 502 287" xml:space="preserve">

<defs>
	<style type="text/css">
	text {
	  font-family: Helvetica, Verdana, ArialUnicodeMS, san-serif
	}
	</style>
</defs>

<g>
   <desc>
	PS 3.17 Part 17: Explanatory Information
   </desc>
</g>

<g>
	<rect x="1" y="1" fill="#F5EED6" width="500" height="285"/>
	<g>
		<g>
			<g>
				
					<line fill="none" stroke="#005695" stroke-linecap="round" stroke-miterlimit="1" x1="251.166" y1="186.262" x2="251.166" y2="200.305"/>
				<path fill="#005695" d="M252.191,202.666c0.499-1.652,0.959-2.728,1.491-4.054h-5.044c0.226,0.475,0.993,2.401,1.492,4.054
					c0.535,1.77,0.9,3.375,1.031,4.415C251.291,206.041,251.657,204.436,252.191,202.666z"/>
			</g>
		</g>
		
			<polygon fill="#CCDEF0" stroke="#010101" stroke-width="0.75" stroke-linecap="round" stroke-linejoin="round" stroke-miterlimit="1" points="
			215.373,112.93 251.342,104.145 287.373,113.214 287.373,113.236 251.304,122.145 		"/>
		<text transform="matrix(1 0 0 1 233.2896 115.0938)" font-size="7">CONTAINS</text>
		<g>
			<g>
				
					<line fill="none" stroke="#005695" stroke-linecap="round" stroke-miterlimit="1" x1="251.374" y1="79.57" x2="251.374" y2="98.205"/>
				<path fill="#005695" d="M252.398,100.566c0.5-1.653,0.96-2.728,1.492-4.054h-5.044c0.226,0.475,0.993,2.401,1.492,4.054
					c0.535,1.77,0.9,3.374,1.031,4.415C251.499,103.94,251.865,102.336,252.398,100.566z"/>
			</g>
		</g>
		<g>
			<g>
				
					<line fill="none" stroke="#005695" stroke-linecap="round" stroke-miterlimit="1" x1="251.001" y1="123.017" x2="251.001" y2="133.096"/>
				<path fill="#005695" d="M252.025,135.458c0.5-1.653,0.96-2.728,1.492-4.054h-5.044c0.226,0.475,0.993,2.401,1.492,4.054
					c0.535,1.77,0.9,3.374,1.031,4.415C251.126,138.832,251.492,137.228,252.025,135.458z"/>
			</g>
		</g>
		
			<rect x="206.164" y="244.855" fill="#B2CEE7" stroke="#010101" stroke-width="0.75" stroke-linecap="round" stroke-linejoin="round" stroke-miterlimit="1" width="90.004" height="27"/>
		<g>
			<text transform="matrix(1 0 0 1 236.77 256.0898)"><tspan x="0" y="0" font-size="7">TID 3910</tspan><tspan x="-15.367" y="8.4" font-size="7">Flow Quantification</tspan></text>
		</g>
		
			<polygon fill="#CCDEF0" stroke="#010101" stroke-width="0.75" stroke-linecap="round" stroke-linejoin="round" stroke-miterlimit="1" points="
			215.165,216.223 251.134,207.438 287.167,216.508 287.167,216.529 251.097,225.438 		"/>
		<text transform="matrix(1 0 0 1 233.082 218.3848)" font-size="7">CONTAINS</text>
		<g>
			<g>
				
					<line fill="none" stroke="#005695" stroke-linecap="round" stroke-miterlimit="1" x1="251.166" y1="226.311" x2="251.166" y2="236.389"/>
				<path fill="#005695" d="M252.191,238.75c0.499-1.652,0.959-2.728,1.491-4.054h-5.044c0.226,0.475,0.993,2.401,1.492,4.054
					c0.535,1.77,0.9,3.375,1.031,4.415C251.291,242.125,251.657,240.52,252.191,238.75z"/>
			</g>
		</g>
		
			<rect x="188.001" y="141.261" fill="#B2CEE7" stroke="#010101" stroke-width="0.75" stroke-linecap="round" stroke-linejoin="round" stroke-miterlimit="1" width="126" height="45"/>
		<g>
			<text transform="matrix(1 0 0 1 236.6104 148.8984)"><tspan x="0" y="0" font-size="7">TID 3906</tspan><tspan x="-35.988" y="8.4" font-size="7">Vascular Section Measurements</tspan><tspan x="-45.326" y="25.201" font-size="7">(Parameterized use for specification of</tspan><tspan x="-25.869" y="33.601" font-size="7">various vascular sections)</tspan></text>
		</g>
		
			<rect x="161" y="43.519" fill="#86B2D8" stroke="#010101" stroke-width="0.75" stroke-linecap="round" stroke-linejoin="round" stroke-miterlimit="1" width="180.001" height="36"/>
		<g>
			<text transform="matrix(1 0 0 1 236.6074 55.0562)"><tspan x="0" y="0" font-size="7">TID 3902</tspan><tspan x="-13.226" y="8.4" font-size="7">Vascular Analysis</tspan><tspan x="-66.039" y="16.8" font-size="7">AnalysisPerformed = “Vascular Functional Analysis”</tspan></text>
		</g>
		
			<line fill="none" stroke="#005695" stroke-linecap="round" stroke-miterlimit="1" stroke-dasharray="4" x1="251.233" y1="15.145" x2="251.233" y2="43.519"/>
		<text transform="matrix(1 0 0 1 274.0293 107.6338)" font-size="8">0..n</text>
		<text transform="matrix(1 0 0 1 274.0293 211.4346)" font-size="8">0..n</text>
	</g>
</g>
</svg>
