<?xml version="1.0" encoding="utf-8"?>
<!-- $Source: /home/bbennett/pass/archive/DicomXml/docbook/part17/figures/PS3.17_FFF.1.2-8.svg,v $ -->
<!-- $Date: 2014/05/09 13:15:43 $ -->
<!-- $Revision: 1.1 $ -->

<!DOCTYPE svg PUBLIC "-//W3C//DTD SVG 1.1//EN" "http://www.w3.org/Graphics/SVG/1.1/DTD/svg11.dtd">
<svg version="1.1" id="Layer_1" xmlns="http://www.w3.org/2000/svg" xmlns:xlink="http://www.w3.org/1999/xlink" x="0px" y="0px"
	 width="502.001px" height="252px" viewBox="0 0 502.001 252" enable-background="new 0 0 502.001 252" xml:space="preserve">

<defs>
	<style type="text/css">
	text {
	  font-family: Helvetica, Verdana, ArialUnicodeMS, san-serif
	}
	</style>
</defs>

<g>
   <desc>
	PS 3.17 Part 17: Explanatory Information
   </desc>
</g>

<g>
	<rect x="1" y="1" fill="#F5EED6" width="500.001" height="250"/>
	<g>
		<polygon fill="#CCDEF0" stroke="#000000" points="431.51,191.463 312.148,236.539 312.148,94.642 431.51,49.567 		"/>
		<line fill="none" stroke="#ED1C24" stroke-dasharray="4" x1="371.764" y1="145.582" x2="139.729" y2="56.489"/>
		
			<line fill="#6D6E71" stroke="#58595B" stroke-miterlimit="1" stroke-dasharray="6" x1="299.033" y1="174.4" x2="371.639" y2="145.28"/>
		
			<line fill="none" stroke="#58595B" stroke-miterlimit="1" stroke-dasharray="6,6" x1="195.753" y1="119.173" x2="271.061" y2="88.744"/>
		<g>
			<g>
				<line fill="none" stroke="#ED1C24" x1="250.187" y1="97.157" x2="266.017" y2="91.653"/>
				<g>
					<polygon fill="#ED1C24" points="265.1,95.048 274.385,88.744 263.191,89.56 					"/>
				</g>
			</g>
		</g>
		
			<line fill="none" stroke="#58595B" stroke-miterlimit="1" stroke-dasharray="6,6" x1="77.304" y1="81.714" x2="139.937" y2="56.405"/>
		<g>
			<g>
				<line fill="none" stroke="#00AEEF" x1="250.065" y1="99.153" x2="250.065" y2="83.139"/>
				<g>
					<polygon fill="#00AEEF" points="252.971,85.12 250.065,74.279 247.16,85.12 					"/>
				</g>
			</g>
		</g>
		<g>
			<g>
				<line fill="none" stroke="#000000" x1="371.951" y1="145.286" x2="401.178" y2="133.465"/>
				<g>
					<polygon points="400.43,136.9 409.391,130.143 398.251,131.515 					"/>
				</g>
			</g>
		</g>
		<g>
			<g>
				<line fill="none" stroke="#000000" x1="371.83" y1="145.48" x2="371.83" y2="114.01"/>
				<g>
					<polygon points="374.735,115.992 371.83,105.151 368.925,115.992 					"/>
				</g>
			</g>
		</g>
		<text transform="matrix(1 0 0 1 238.7485 69.4102)" fill="#00AEEF" font-size="10">+ Zp</text>
		<text transform="matrix(1 0 0 1 215.4688 86.0205)" fill="#0DB14B" font-size="10">+ Yp</text>
		<g>
			<g>
				<line fill="none" stroke="#0DB14B" x1="250.364" y1="98.431" x2="237.29" y2="93.739"/>
				<g>
					<polygon fill="#0DB14B" points="240.136,91.674 228.951,90.747 238.173,97.143 					"/>
				</g>
			</g>
		</g>
		<text transform="matrix(1 0 0 1 266.3848 85.4609)" fill="#ED1C24" font-size="10">+ Xp</text>
		<g>
			<text transform="matrix(1 0 0 1 247.4683 114.542)" font-size="10">Op</text>
		</g>
		<path stroke="#000000" stroke-miterlimit="1" d="M257.074,97.497c0-3.729-3.025-6.75-6.751-6.75v6.75H257.074z"/>
		
			<path fill="#FFFFFF" stroke="#010101" stroke-width="0.75" stroke-linecap="round" stroke-linejoin="round" stroke-miterlimit="1" d="
			M250.323,90.747c-3.729,0-6.752,3.021-6.752,6.75h6.752V90.747z"/>
		<path stroke="#000000" stroke-miterlimit="1" d="M243.571,97.497c0,3.729,3.023,6.75,6.752,6.75v-6.75H243.571z"/>
		
			<path fill="#FFFFFF" stroke="#010101" stroke-width="0.75" stroke-linecap="round" stroke-linejoin="round" stroke-miterlimit="1" d="
			M250.323,97.497v6.75c3.726,0,6.751-3.021,6.751-6.75H250.323z"/>
		<path fill="#FEDA00" d="M147.217,56.782c-0.001-4.412-3.482-7.988-7.775-7.988c-4.294,0.002-7.772,3.579-7.771,7.992
			c0,4.413,3.48,7.988,7.773,7.987C143.741,64.772,147.218,61.196,147.217,56.782z"/>
		<circle cx="139.372" cy="56.631" r="0.785"/>
		<path d="M138.423,58.417c-0.602-0.343-1.009-1.002-1.01-1.76c0-0.057,0.003-0.111,0.009-0.169l-4.764,0.001
			c-0.002,0.057-0.003,0.113-0.002,0.169c0,2.562,1.359,4.798,3.375,5.987L138.423,58.417z"/>
		<path d="M140.289,58.417c0.603-0.343,1.01-1.002,1.01-1.76c0-0.057-0.002-0.113-0.008-0.17h4.765c0.001,0.056,0,0.112,0.001,0.168
			c0,2.562-1.356,4.799-3.373,5.99L140.289,58.417z"/>
		<path d="M138.259,54.983c0.598-0.35,1.373-0.47,2.028-0.092c0.049,0.029,0.096,0.06,0.142,0.092l2.382-4.127
			c-0.049-0.028-0.097-0.057-0.147-0.086c-2.217-1.279-4.832-1.063-6.871,0.089L138.259,54.983z"/>
		<g>
			<g>
				<line fill="none" stroke="#005695" stroke-width="2" x1="117.57" y1="78.047" x2="192.805" y2="106.556"/>
				<g>
					<polygon fill="#005695" points="118.558,82.15 107.628,74.28 121.029,75.63 					"/>
				</g>
				<g>
					<polygon fill="#005695" points="189.346,108.974 202.747,110.323 191.817,102.454 					"/>
				</g>
			</g>
		</g>
		<g>
			<g>
				<line fill="none" stroke="#ED1C24" stroke-width="2" x1="139.479" y1="57.195" x2="177.624" y2="71.649"/>
				<g>
					<polygon fill="#ED1C24" points="174.165,74.066 187.565,75.416 176.635,67.546 					"/>
				</g>
			</g>
		</g>
		<g>
			<g>
				<line fill="none" stroke="#005695" stroke-width="2" x1="93.266" y1="86.636" x2="289.181" y2="166.055"/>
				<g>
					<polygon fill="#005695" points="94.16,90.76 83.414,82.642 96.779,84.298 					"/>
				</g>
				<g>
					<polygon fill="#005695" points="285.667,168.393 299.033,170.049 288.287,161.931 					"/>
				</g>
			</g>
		</g>
		<rect x="137.478" y="83.975" fill="#F2EFD1" width="22" height="14.499"/>
		<g>
			<text transform="matrix(0.8815 0 0 1 138.8667 94.1162)" font-size="12">ISO</text>
		</g>
		<rect x="222.338" y="133.901" fill="#F2EFD1" width="22" height="14.501"/>
		<g>
			<text transform="matrix(0.8815 0 0 1 224.3809 147.2822)" font-size="12">SID</text>
		</g>
		<g>
			<text transform="matrix(0.8815 0 0 1 393.7695 215.8652)" font-size="12">Receptor Plane</text>
		</g>
		<g>
			<text transform="matrix(0.8815 0 0 1 395.0635 79.2217)"><tspan x="0" y="0" font-size="9">(P</tspan><tspan x="9" y="4" font-size="9">u</tspan><tspan x="14.005" y="0" font-size="9">, P</tspan><tspan x="25.008" y="4" font-size="9">v</tspan><tspan x="29.509" y="0" font-size="9">)</tspan></text>
		</g>
		<g>
			<text transform="matrix(0.8815 0 0 1 296.458 50.8882)"><tspan x="0" y="0" font-size="12">(</tspan><tspan x="3.996" y="0" font-size="9">P</tspan><tspan x="9.999" y="4" font-size="9">xp</tspan><tspan x="19.505" y="0" font-size="9">, P</tspan><tspan x="30.509" y="4" font-size="9">yp</tspan><tspan x="40.013" y="0" font-size="9">, P</tspan><tspan x="51.018" y="4" font-size="9">zp</tspan><tspan x="60.523" y="0" font-size="12">)</tspan></text>
		</g>
		<g>
			<text transform="matrix(0.8815 0 0 1 411.1865 129.7773)" font-size="9">u</text>
		</g>
		<g>
			<text transform="matrix(0.8815 0 0 1 369.8506 103.3872)" font-size="9">v</text>
		</g>
		<g>
			<text transform="matrix(0.8815 0 0 1 374.1279 151.1377)" font-size="9">o</text>
		</g>
		<g>
			<text transform="matrix(0.8815 0 0 1 66.3633 54.9834)" font-size="12">X-ray Source</text>
		</g>
		
			<line fill="none" stroke="#000000" stroke-miterlimit="1" stroke-dasharray="2,2" x1="138.586" y1="56.632" x2="423.229" y2="65.91"/>
		<circle stroke="#000000" cx="324.537" cy="62.931" r="3.5"/>
		<circle stroke="#000000" cx="423.229" cy="65.91" r="3.5"/>
		<g>
			<text transform="matrix(0.8815 0 0 1 35.3135 26.0986)" font-size="12">X-Ray Incidence</text>
		</g>
		<g>
			<g>
				<polyline fill="none" stroke="#000000" stroke-width="0.5" stroke-miterlimit="1" points="115.998,23.326 142.146,23.326 
					164.393,63.036 				"/>
				<g>
					<polygon points="162.641,62.881 166.558,66.9 165.176,61.461 					"/>
				</g>
			</g>
		</g>
	</g>
</g>
</svg>
