<?xml version="1.0" encoding="utf-8"?>
<!-- $Source: /home/bbennett/pass/archive/DicomXml/docbook/part17/figures/PS3.17_E.3-9.svg,v $ -->
<!-- $Date: 2014/05/09 12:30:21 $ -->
<!-- $Revision: 1.2 $ -->

<!DOCTYPE svg PUBLIC "-//W3C//DTD SVG 1.1//EN" "http://www.w3.org/Graphics/SVG/1.1/DTD/svg11.dtd">
<svg version="1.1" id="Layer_1" xmlns="http://www.w3.org/2000/svg" xmlns:xlink="http://www.w3.org/1999/xlink" x="0px" y="0px"
	 width="502px" height="357px" viewBox="0 0 502 357" enable-background="new 0 0 502 357" xml:space="preserve">

<defs>
	<style type="text/css">
	text {
	  font-family: Helvetica, Verdana, ArialUnicodeMS, san-serif
	}
	</style>
</defs>

<g>
   <desc>
	PS 3.17 Part 17: Explanatory Information
   </desc>
</g>

<g>
	<rect x="1" y="1" fill="#F5EED6" width="500" height="355"/>
	<g>
		<rect x="322.82" y="318.847" fill="#FFFFFF" stroke="#000000" stroke-miterlimit="1" width="145.332" height="22.678"/>
		<line fill="#FFFFFF" stroke="#000000" stroke-miterlimit="1" x1="322.82" y1="330.185" x2="468.152" y2="330.185"/>
		
			<polygon fill="#CCDEF0" stroke="#010101" stroke-width="0.75" stroke-linecap="round" stroke-linejoin="round" stroke-miterlimit="1" points="
			33.849,194.101 83.309,180.926 132.855,194.526 132.855,194.558 83.255,207.921 		"/>
		<g>
			<text transform="matrix(1 0.0022 -0.0022 1 48.9292 196.7939)" font-size="7">HAS CONCEPT MOD</text>
		</g>
		<g>
			<g>
				
					<line fill="none" stroke="#005695" stroke-linecap="round" stroke-miterlimit="1" x1="83.561" y1="207.921" x2="83.561" y2="214.815"/>
				<path fill="#005695" d="M84.585,217.178c0.5-1.654,0.959-2.729,1.492-4.055h-5.044c0.226,0.475,0.993,2.4,1.492,4.055
					c0.535,1.77,0.9,3.373,1.031,4.414C83.686,220.551,84.051,218.947,84.585,217.178z"/>
			</g>
		</g>
		
			<rect x="34.061" y="221.997" fill="#B2CEE7" stroke="#010101" stroke-width="0.75" stroke-linecap="round" stroke-linejoin="round" stroke-miterlimit="1" width="99.002" height="27"/>
		<g>
			<text transform="matrix(1 0 0 1 48.9487 233.2441)"><tspan x="0" y="0" font-size="7">RENDERING INTENT</tspan><tspan x="-8.572" y="8.4" font-size="7">CODE: Not for Presentation</tspan></text>
		</g>
		<g>
			<g>
				
					<line fill="none" stroke="#005695" stroke-linecap="round" stroke-miterlimit="1" x1="188.548" y1="206.89" x2="188.548" y2="215.528"/>
				<path fill="#005695" d="M189.573,217.891c0.5-1.654,0.959-2.729,1.492-4.055h-5.044c0.226,0.475,0.993,2.4,1.492,4.055
					c0.535,1.77,0.9,3.373,1.031,4.414C188.673,221.264,189.039,219.66,189.573,217.891z"/>
			</g>
		</g>
		<g>
			<g>
				<polyline fill="none" stroke="#005695" stroke-linecap="round" stroke-miterlimit="1" points="293.096,163.452 188.224,163.452 
					188.224,174.508 				"/>
				<path fill="#005695" d="M189.249,176.87c0.5-1.653,0.959-2.728,1.492-4.054h-5.044c0.226,0.475,0.993,2.401,1.492,4.054
					c0.535,1.77,0.9,3.374,1.031,4.415C188.349,180.244,188.714,178.64,189.249,176.87z"/>
			</g>
		</g>
		
			<rect x="139.754" y="222.005" fill="#B2CEE7" stroke="#010101" stroke-width="0.75" stroke-linecap="round" stroke-linejoin="round" stroke-miterlimit="1" width="97.581" height="26.984"/>
		<g>
			<text transform="matrix(1 0 0 1 174.1543 233.2441)"><tspan x="0" y="0" font-size="7">CENTER</tspan><tspan x="-0.972" y="8.4" font-size="7">SCOORD</tspan></text>
		</g>
		<g>
			<g>
				
					<line fill="none" stroke="#005695" stroke-linecap="round" stroke-miterlimit="1" x1="292.787" y1="163.452" x2="292.787" y2="174.725"/>
				<path fill="#005695" d="M293.812,177.087c0.499-1.653,0.959-2.728,1.491-4.054h-5.044c0.225,0.475,0.992,2.401,1.491,4.054
					c0.534,1.77,0.9,3.374,1.03,4.415C292.912,180.461,293.277,178.856,293.812,177.087z"/>
			</g>
		</g>
		
			<polygon fill="#CCDEF0" stroke="#010101" stroke-width="0.75" stroke-linecap="round" stroke-linejoin="round" stroke-miterlimit="1" points="
			143.548,193.972 188.509,180.803 233.548,194.397 233.548,194.429 188.458,207.782 		"/>
		<text transform="matrix(1 0 0 1 157.8188 196.2373)" font-size="7">HAS PROPERTIES</text>
		<g>
			<g>
				
					<line fill="none" stroke="#005695" stroke-linecap="round" stroke-miterlimit="1" x1="293.098" y1="206.89" x2="293.098" y2="215.528"/>
				<path fill="#005695" d="M294.123,217.891c0.499-1.654,0.959-2.729,1.491-4.055h-5.044c0.225,0.475,0.992,2.4,1.491,4.055
					c0.534,1.77,0.9,3.373,1.03,4.414C293.223,221.264,293.588,219.66,294.123,217.891z"/>
			</g>
		</g>
		
			<rect x="244.301" y="222.005" fill="#B2CEE7" stroke="#010101" stroke-width="0.75" stroke-linecap="round" stroke-linejoin="round" stroke-miterlimit="1" width="97.58" height="26.984"/>
		<g>
			<text transform="matrix(1 0 0 1 277.9219 233.2441)"><tspan x="0" y="0" font-size="7">OUTLINE</tspan><tspan x="-0.193" y="8.4" font-size="7">SCOORD</tspan></text>
		</g>
		
			<polygon fill="#CCDEF0" stroke="#010101" stroke-width="0.75" stroke-linecap="round" stroke-linejoin="round" stroke-miterlimit="1" points="
			248.098,193.972 293.059,180.803 338.098,194.397 338.098,194.429 293.009,207.782 		"/>
		<text transform="matrix(1 0 0 1 262.3682 196.2373)" font-size="7">HAS PROPERTIES</text>
		<g>
			<g>
				
					<line fill="none" stroke="#005695" stroke-linecap="round" stroke-miterlimit="1" x1="188.224" y1="248.989" x2="188.224" y2="260.044"/>
				<path fill="#005695" d="M189.249,262.406c0.5-1.654,0.959-2.729,1.492-4.055h-5.044c0.226,0.475,0.993,2.4,1.492,4.055
					c0.535,1.77,0.9,3.373,1.031,4.414C188.349,265.779,188.714,264.176,189.249,262.406z"/>
			</g>
		</g>
		<g>
			<g>
				
					<line fill="none" stroke="#005695" stroke-linecap="round" stroke-miterlimit="1" x1="293.095" y1="248.989" x2="293.095" y2="260.044"/>
				<path fill="#005695" d="M294.119,262.406c0.5-1.654,0.96-2.729,1.492-4.055h-5.045c0.227,0.475,0.993,2.4,1.492,4.055
					c0.535,1.77,0.9,3.373,1.031,4.414C293.22,265.779,293.586,264.176,294.119,262.406z"/>
			</g>
		</g>
		
			<rect x="191.965" y="314.741" fill="#B2CEE7" stroke="#010101" stroke-width="0.75" stroke-linecap="round" stroke-linejoin="round" stroke-miterlimit="1" width="97.58" height="26.984"/>
		<g>
			<text transform="matrix(1 0 0 1 210.0151 321.7812)"><tspan x="0" y="0" font-size="7">Reference to Image</tspan><tspan x="7.79" y="8.4" font-size="7">Library IMAGE</tspan><tspan x="2.917" y="16.801" font-size="7">content item 1.1.2</tspan></text>
		</g>
		<g>
			<g>
				
					<line fill="none" stroke="#005695" stroke-linecap="round" stroke-miterlimit="1" x1="395.486" y1="179.902" x2="395.486" y2="312.368"/>
				<path fill="#005695" d="M396.512,314.73c0.499-1.654,0.959-2.729,1.491-4.055h-5.044c0.225,0.475,0.992,2.4,1.491,4.055
					c0.534,1.77,0.9,3.373,1.03,4.414C395.611,318.104,395.977,316.5,396.512,314.73z"/>
			</g>
		</g>
		
			<polygon fill="#CCDEF0" stroke="#010101" stroke-width="0.75" stroke-linecap="round" stroke-linejoin="round" stroke-miterlimit="1" points="
			350.486,194.347 395.448,181.174 440.486,194.772 440.486,194.804 395.396,208.157 		"/>
		<text transform="matrix(1 0 0 1 364.7568 196.5967)" font-size="7">HAS PROPERTIES</text>
		<g>
			<g>
				<polyline fill="none" stroke="#005695" stroke-linecap="round" stroke-miterlimit="1" points="188.224,163.452 83.521,163.452 
					83.521,174.508 				"/>
				<path fill="#005695" d="M84.545,176.87c0.5-1.653,0.959-2.728,1.492-4.054h-5.044c0.226,0.475,0.993,2.401,1.492,4.054
					c0.535,1.77,0.9,3.374,1.031,4.415C83.646,180.244,84.011,178.64,84.545,176.87z"/>
			</g>
		</g>
		<g>
			<g>
				<polyline fill="none" stroke="#005695" stroke-linecap="round" stroke-miterlimit="1" points="292.799,163.452 395.83,163.452 
					395.83,174.877 				"/>
				<path fill="#005695" d="M396.855,177.239c0.499-1.653,0.959-2.728,1.491-4.054h-5.044c0.225,0.475,0.992,2.401,1.491,4.054
					c0.534,1.77,0.9,3.374,1.03,4.415C395.955,180.613,396.32,179.009,396.855,177.239z"/>
			</g>
		</g>
		<rect x="324.37" y="321.952" fill="none" width="142.231" height="19.576"/>
		<text transform="matrix(0.9288 0 0 1 324.3691 327.6719)"><tspan x="0" y="0" font-size="8">Algorithm Name TEXT: “Density Detector”</tspan><tspan x="0" y="11" font-size="8">Algorithm Version TEXT: “V3.7”</tspan></text>
		
			<line fill="none" stroke="#005695" stroke-linecap="round" stroke-miterlimit="1" x1="239.589" y1="150.487" x2="239.589" y2="163.452"/>
		
			<polygon fill="#CCDEF0" stroke="#010101" stroke-width="0.75" stroke-linecap="round" stroke-linejoin="round" stroke-miterlimit="1" points="
			84.953,94.889 134.413,81.714 183.96,95.315 183.96,95.346 134.359,108.71 		"/>
		<g>
			<text transform="matrix(1 0.0022 -0.0022 1 100.0332 97.5825)" font-size="7">HAS CONCEPT MOD</text>
		</g>
		<g>
			<g>
				
					<line fill="none" stroke="#005695" stroke-linecap="round" stroke-miterlimit="1" x1="134.665" y1="108.71" x2="134.665" y2="115.605"/>
				<path fill="#005695" d="M135.69,117.967c0.5-1.653,0.959-2.728,1.492-4.054h-5.044c0.226,0.475,0.993,2.401,1.492,4.054
					c0.535,1.77,0.9,3.374,1.031,4.415C134.79,121.341,135.156,119.736,135.69,117.967z"/>
			</g>
		</g>
		
			<rect x="85.165" y="122.787" fill="#B2CEE7" stroke="#010101" stroke-width="0.75" stroke-linecap="round" stroke-linejoin="round" stroke-miterlimit="1" width="99.002" height="27"/>
		<g>
			<text transform="matrix(1 0 0 1 100.0527 134.0327)"><tspan x="0" y="0" font-size="7">RENDERING INTENT</tspan><tspan x="-8.572" y="8.4" font-size="7">CODE: Not for Presentation</tspan></text>
		</g>
		<g>
			<g>
				
					<line fill="none" stroke="#005695" stroke-linecap="round" stroke-miterlimit="1" x1="239.652" y1="107.678" x2="239.652" y2="116.317"/>
				<path fill="#005695" d="M240.677,118.679c0.5-1.653,0.959-2.728,1.492-4.054h-5.044c0.226,0.475,0.993,2.401,1.492,4.054
					c0.535,1.77,0.9,3.374,1.031,4.415C239.777,122.053,240.143,120.448,240.677,118.679z"/>
			</g>
		</g>
		
			<rect x="190.858" y="122.794" fill="#B2CEE7" stroke="#010101" stroke-width="0.75" stroke-linecap="round" stroke-linejoin="round" stroke-miterlimit="1" width="97.58" height="26.984"/>
		<g>
			<text transform="matrix(1 0 0 1 199.1982 134.0327)"><tspan x="0" y="0" font-size="7">SINGLE IMAGE FINDING</tspan><tspan x="16.722" y="8.4" font-size="7">CODE: Density</tspan></text>
		</g>
		
			<polygon fill="#CCDEF0" stroke="#010101" stroke-width="0.75" stroke-linecap="round" stroke-linejoin="round" stroke-miterlimit="1" points="
			194.652,94.761 239.613,81.592 284.651,95.187 284.651,95.217 239.562,108.572 		"/>
		<text transform="matrix(1 0 0 1 221.5674 97.0259)" font-size="7">CONTAINS</text>
		
			<rect x="121.045" y="15.274" fill="#86B2D8" stroke="#010101" stroke-width="0.75" stroke-linecap="round" stroke-linejoin="round" stroke-miterlimit="1" width="135.006" height="36.001"/>
		<g>
			<text transform="matrix(1 0 0 1 166.0986 25.8999)"><tspan x="0" y="0" font-size="8">INDIVIDUAL</tspan><tspan x="-42.666" y="9.6" font-size="8">IMPRESSION/RECOMMENDATION</tspan><tspan x="13.553" y="19.2" font-size="8">1.2.2</tspan></text>
		</g>
		<g>
			<g>
				<polyline fill="none" stroke="#005695" stroke-linecap="round" stroke-miterlimit="1" points="292.958,291.724 292.958,301.505 
					240.914,301.505 240.914,307.032 				"/>
				<path fill="#005695" d="M241.939,309.395c0.5-1.654,0.959-2.729,1.492-4.055h-5.044c0.226,0.475,0.993,2.4,1.492,4.055
					c0.535,1.77,0.9,3.373,1.031,4.414C241.039,312.768,241.405,311.164,241.939,309.395z"/>
			</g>
		</g>
		<path fill="none" stroke="#005695" stroke-linecap="round" stroke-miterlimit="1" d="M240.914,301.505h-52.362
			c0,0,0.001-2.936,0.001-9.781"/>
		<g>
			<g>
				<polyline fill="none" stroke="#005695" stroke-linecap="round" stroke-miterlimit="1" points="187.31,51.275 187.31,61.694 
					135.266,61.694 135.266,75.075 				"/>
				<path fill="#005695" d="M136.291,77.437c0.5-1.653,0.959-2.728,1.492-4.054h-5.044c0.226,0.475,0.993,2.401,1.492,4.054
					c0.535,1.77,0.9,3.374,1.031,4.415C135.391,80.811,135.756,79.206,136.291,77.437z"/>
			</g>
		</g>
		<g>
			<g>
				<path fill="none" stroke="#005695" stroke-linecap="round" stroke-miterlimit="1" d="M187.31,61.694h52.361
					c0,0-0.001,6.535-0.001,13.38"/>
				<path fill="#005695" d="M240.695,77.437c0.5-1.653,0.959-2.728,1.492-4.054h-5.044c0.226,0.475,0.993,2.401,1.492,4.054
					c0.535,1.77,0.9,3.374,1.031,4.415C239.795,80.811,240.161,79.206,240.695,77.437z"/>
			</g>
		</g>
		
			<polygon fill="#CCDEF0" stroke="#010101" stroke-width="0.75" stroke-linecap="round" stroke-linejoin="round" stroke-miterlimit="1" points="
			143.224,279.509 188.185,266.341 233.224,279.935 233.224,279.966 188.134,293.319 		"/>
		<text transform="matrix(1 0 0 1 166.0532 279.2549)"><tspan x="0" y="0" font-size="7">R-SELECTED</tspan><tspan x="11.867" y="8.399" font-size="7">FROM</tspan></text>
		
			<polygon fill="#CCDEF0" stroke="#010101" stroke-width="0.75" stroke-linecap="round" stroke-linejoin="round" stroke-miterlimit="1" points="
			248.095,279.509 293.056,266.341 338.095,279.935 338.095,279.966 293.006,293.319 		"/>
		<text transform="matrix(1 0 0 1 270.9238 279.2539)"><tspan x="0" y="0" font-size="7">R-SELECTED</tspan><tspan x="11.867" y="8.4" font-size="7">FROM</tspan></text>
	</g>
</g>
</svg>
