<?xml version="1.0" encoding="utf-8"?>
<!-- $Source: /home/bbennett/pass/archive/DicomXml/docbook/part17/figures/PS3.17_FFF.1.2-11.svg,v $ -->
<!-- $Date: 2014/05/09 13:15:43 $ -->
<!-- $Revision: 1.1 $ -->

<!DOCTYPE svg PUBLIC "-//W3C//DTD SVG 1.1//EN" "http://www.w3.org/Graphics/SVG/1.1/DTD/svg11.dtd">
<svg version="1.1" id="Layer_1" xmlns="http://www.w3.org/2000/svg" xmlns:xlink="http://www.w3.org/1999/xlink" x="0px" y="0px"
	 width="502px" height="432px" viewBox="0 0 502 432" enable-background="new 0 0 502 432" xml:space="preserve">

<defs>
	<style type="text/css">
	text {
	  font-family: Helvetica, Verdana, ArialUnicodeMS, san-serif
	}
	</style>
</defs>

<g>
   <desc>
	PS 3.17 Part 17: Explanatory Information
   </desc>
</g>

<rect x="1" y="1" fill="#F5EED6" width="500" height="430"/>
<g>
	<g>
		<g>
			<text transform="matrix(0.9135 0 0 1 29.1553 183.0522)"><tspan x="0" y="0" font-size="9">FOV Rotation (0081,7032) = 0</tspan><tspan x="0" y="9.338" font-size="9">FOV Horizontal Flip (0018,7034) = YES</tspan></text>
		</g>
		<rect x="30.025" y="32.601" fill="#B2CEE7" stroke="#939598" stroke-miterlimit="1" width="137.994" height="138"/>
		<rect x="159.238" y="32.771" fill="#999999" stroke="#808285" stroke-miterlimit="1" width="8.28" height="8.28"/>
		<rect x="159.238" y="41.052" fill="#FFFFFF" stroke="#808285" stroke-miterlimit="1" width="8.28" height="8.279"/>
		<rect x="159.238" y="49.331" fill="#FFFFFF" stroke="#808285" stroke-miterlimit="1" width="8.28" height="8.28"/>
		<rect x="159.238" y="57.611" fill="#FFFFFF" stroke="#808285" stroke-miterlimit="1" width="8.28" height="8.28"/>
		<rect x="159.238" y="65.892" fill="#FFFFFF" stroke="#808285" stroke-miterlimit="1" width="8.28" height="8.28"/>
		<rect x="150.959" y="32.771" fill="#FFFFFF" stroke="#808285" stroke-miterlimit="1" width="8.279" height="8.28"/>
		<rect x="142.679" y="32.771" fill="#FFFFFF" stroke="#808285" stroke-miterlimit="1" width="8.28" height="8.28"/>
		<rect x="134.398" y="32.771" fill="#FFFFFF" stroke="#808285" stroke-miterlimit="1" width="8.28" height="8.28"/>
		<rect x="126.117" y="32.771" fill="#FFFFFF" stroke="#808285" stroke-miterlimit="1" width="8.281" height="8.28"/>
		<g>
			<text transform="matrix(0.9135 0 0 1 185.3457 39.3921)" font-size="9">FOV TLHC</text>
		</g>
		<g>
			<text transform="matrix(0.9135 0 0 1 113.0117 29.1616)" fill="#ED1C24" font-size="12">i</text>
		</g>
		<g>
			<text transform="matrix(0.9135 0 0 1 175.5332 90.8213)" fill="#0DB14B" font-size="12">j</text>
		</g>
		<g>
			<g>
				
					<line fill="none" stroke="#ED1C24" stroke-width="2" stroke-linecap="square" stroke-miterlimit="1" x1="168.516" y1="32.601" x2="122.567" y2="32.601"/>
				<g>
					<polygon fill="#ED1C24" points="124.944,29.114 111.936,32.601 124.944,36.087 					"/>
				</g>
			</g>
		</g>
		<g>
			<g>
				
					<line fill="none" stroke="#0DB14B" stroke-width="2" stroke-linecap="square" stroke-miterlimit="1" x1="168.74" y1="32.601" x2="168.74" y2="78.55"/>
				<g>
					<polygon fill="#0DB14B" points="165.254,76.173 168.74,89.182 172.227,76.173 					"/>
				</g>
			</g>
		</g>
		<g>
			<text transform="matrix(0.9135 0 0 1 77.4746 90.8242)" font-size="9">pixel data</text>
		</g>
		<g>
			<path fill="#636466" d="M95.072,135.567h-3.602v-12.091h-3.395c-3.271,0.125-4.803,1.573-5.629,5.424
				c-0.746,3.479-1.366,5.88-1.822,6.667h-3.728c0.54-1.077,1.201-3.768,2.113-7.66c0.702-2.897,1.986-4.886,4.098-5.631v-0.125
				c-2.899-0.993-5.259-3.437-5.259-7.08c0-2.194,0.829-4.099,2.195-5.3c1.738-1.573,4.264-2.317,8.112-2.317
				c2.444,0,5.093,0.248,6.915,0.62V135.567z"/>
			<path fill="#B2CEE7" stroke="#636466" stroke-miterlimit="1" d="M91.471,110.601c-0.62-0.166-1.821-0.332-3.56-0.332
				c-3.81,0-6.417,1.573-6.417,5.177c0,3.188,2.441,5.299,6.292,5.299h3.685V110.601z"/>
		</g>
		<g>
			<g>
				
					<line fill="none" stroke="#000000" stroke-width="0.5" stroke-miterlimit="1" x1="184.066" y1="36.911" x2="174.598" y2="36.911"/>
				<g>
					<polygon points="175.588,35.458 170.168,36.911 175.588,38.364 					"/>
				</g>
			</g>
		</g>
	</g>
	<g>
		<g>
			<text transform="matrix(0.9135 0 0 1 276 183.0522)"><tspan x="0" y="0" font-size="9">FOV Rotation (0081,7032) = 90</tspan><tspan x="0" y="9.338" font-size="9">FOV Horizontal Flip (0018,7034) = NO</tspan></text>
		</g>
		<rect x="276.87" y="32.601" fill="#B2CEE7" stroke="#939598" stroke-miterlimit="1" width="137.995" height="138"/>
		<rect x="406.084" y="32.771" fill="#999999" stroke="#808285" stroke-miterlimit="1" width="8.279" height="8.28"/>
		<rect x="406.084" y="41.052" fill="#FFFFFF" stroke="#808285" stroke-miterlimit="1" width="8.279" height="8.279"/>
		<rect x="406.084" y="49.331" fill="#FFFFFF" stroke="#808285" stroke-miterlimit="1" width="8.279" height="8.28"/>
		<rect x="406.084" y="57.611" fill="#FFFFFF" stroke="#808285" stroke-miterlimit="1" width="8.279" height="8.28"/>
		<rect x="406.084" y="65.892" fill="#FFFFFF" stroke="#808285" stroke-miterlimit="1" width="8.279" height="8.28"/>
		<rect x="397.805" y="32.771" fill="#FFFFFF" stroke="#808285" stroke-miterlimit="1" width="8.279" height="8.28"/>
		<rect x="389.523" y="32.771" fill="#FFFFFF" stroke="#808285" stroke-miterlimit="1" width="8.281" height="8.28"/>
		<rect x="381.244" y="32.771" fill="#FFFFFF" stroke="#808285" stroke-miterlimit="1" width="8.279" height="8.28"/>
		<rect x="372.963" y="32.771" fill="#FFFFFF" stroke="#808285" stroke-miterlimit="1" width="8.281" height="8.28"/>
		<g>
			<text transform="matrix(0.9135 0 0 1 432.1914 39.3921)" font-size="9">FOV TLHC</text>
		</g>
		<g>
			<text transform="matrix(0.9135 0 0 1 359.8574 25.5615)" fill="#0DB14B" font-size="12">j</text>
		</g>
		<g>
			<text transform="matrix(0.9135 0 0 1 422.3789 90.8213)" fill="#ED1C24" font-size="12">i</text>
		</g>
		<g>
			<g>
				
					<line fill="none" stroke="#0DB14B" stroke-width="2" stroke-linecap="square" stroke-miterlimit="1" x1="415.361" y1="32.601" x2="369.412" y2="32.601"/>
				<g>
					<polygon fill="#0DB14B" points="371.79,29.114 358.781,32.601 371.79,36.087 					"/>
				</g>
			</g>
		</g>
		<g>
			<g>
				
					<line fill="none" stroke="#ED1C24" stroke-width="2" stroke-linecap="square" stroke-miterlimit="1" x1="415.586" y1="32.601" x2="415.586" y2="78.55"/>
				<g>
					<polygon fill="#ED1C24" points="412.1,76.173 415.586,89.182 419.072,76.173 					"/>
				</g>
			</g>
		</g>
		<g>
			<text transform="matrix(0.9135 0 0 1 324.3203 90.8242)" font-size="9">pixel data</text>
		</g>
		<g>
			<path fill="#636466" d="M346.267,112.423c0.372,1.822,0.62,4.471,0.62,6.916c0,3.848-0.744,6.373-2.317,8.111
				c-1.201,1.367-3.105,2.195-5.3,2.195c-3.644,0-6.087-2.359-7.08-5.258h-0.125c-0.745,2.111-2.733,3.395-5.631,4.098
				c-3.893,0.912-6.583,1.572-7.66,2.113v-3.729c0.787-0.455,3.188-1.076,6.667-1.822c3.851-0.826,5.299-2.357,5.424-5.629v-3.395
				h-12.091v-3.602H346.267z"/>
			<path fill="#B2CEE7" stroke="#636466" stroke-miterlimit="1" d="M333.597,116.024v3.686c0,3.85,2.111,6.291,5.299,6.291
				c3.604,0,5.177-2.607,5.177-6.416c0-1.738-0.166-2.939-0.332-3.561H333.597z"/>
		</g>
		<g>
			<g>
				
					<line fill="none" stroke="#000000" stroke-width="0.5" stroke-miterlimit="1" x1="430.912" y1="36.911" x2="421.443" y2="36.911"/>
				<g>
					<polygon points="422.434,35.458 417.014,36.911 422.434,38.364 					"/>
				</g>
			</g>
		</g>
	</g>
	<g>
		<g>
			<text transform="matrix(0.9135 0 0 1 87.1328 404.7646)"><tspan x="0" y="0" font-size="9">FOV Rotation (0081,7032) = 180</tspan><tspan x="0" y="9.339" font-size="9">FOV Horizontal Flip (0018,7034) = YES</tspan></text>
		</g>
		<rect x="87.133" y="253.2" fill="#B2CEE7" stroke="#939598" stroke-miterlimit="1" width="137.994" height="138"/>
		<rect x="87.634" y="382.749" fill="#999999" stroke="#808285" stroke-miterlimit="1" width="8.28" height="8.281"/>
		<rect x="87.634" y="374.47" fill="#FFFFFF" stroke="#808285" stroke-miterlimit="1" width="8.28" height="8.279"/>
		<rect x="87.634" y="366.188" fill="#FFFFFF" stroke="#808285" stroke-miterlimit="1" width="8.28" height="8.281"/>
		<rect x="87.634" y="357.909" fill="#FFFFFF" stroke="#808285" stroke-miterlimit="1" width="8.28" height="8.279"/>
		<rect x="87.634" y="349.63" fill="#FFFFFF" stroke="#808285" stroke-miterlimit="1" width="8.28" height="8.279"/>
		<rect x="95.914" y="382.749" fill="#FFFFFF" stroke="#808285" stroke-miterlimit="1" width="8.279" height="8.281"/>
		<rect x="104.193" y="382.749" fill="#FFFFFF" stroke="#808285" stroke-miterlimit="1" width="8.28" height="8.281"/>
		<rect x="112.474" y="382.749" fill="#FFFFFF" stroke="#808285" stroke-miterlimit="1" width="8.28" height="8.281"/>
		<rect x="120.754" y="382.749" fill="#FFFFFF" stroke="#808285" stroke-miterlimit="1" width="8.281" height="8.281"/>
		<g>
			<text transform="matrix(0.9135 0 0 1 29.1553 389.4141)" font-size="9">FOV TLHC</text>
		</g>
		<g>
			<text transform="matrix(0.9135 0 0 1 139.708 386.916)" fill="#0DB14B" font-size="12">i</text>
		</g>
		<g>
			<text transform="matrix(0.9135 0 0 1 77.6797 339.6553)" fill="#ED1C24" font-size="12">j</text>
		</g>
		<g>
			<g>
				
					<line fill="none" stroke="#0DB14B" stroke-width="2" stroke-linecap="square" stroke-miterlimit="1" x1="86.637" y1="391.2" x2="132.585" y2="391.2"/>
				<g>
					<polygon fill="#0DB14B" points="130.208,394.687 143.217,391.2 130.208,387.714 					"/>
				</g>
			</g>
		</g>
		<g>
			<g>
				
					<line fill="none" stroke="#ED1C24" stroke-width="2" stroke-linecap="square" stroke-miterlimit="1" x1="86.412" y1="391.2" x2="86.412" y2="345.251"/>
				<g>
					<polygon fill="#ED1C24" points="89.898,347.629 86.412,334.62 82.926,347.629 					"/>
				</g>
			</g>
		</g>
		<g>
			<text transform="matrix(0.9135 0 0 1 142.4854 323.584)" font-size="9">pixel data</text>
		</g>
		<g>
			<path fill="#636466" d="M145.138,337.733h3.602v12.09h3.395c3.271-0.125,4.803-1.572,5.629-5.424
				c0.746-3.479,1.366-5.879,1.822-6.666h3.728c-0.54,1.076-1.201,3.768-2.113,7.66c-0.702,2.896-1.986,4.885-4.098,5.631v0.125
				c2.899,0.992,5.259,3.436,5.259,7.08c0,2.193-0.829,4.098-2.195,5.299c-1.738,1.574-4.264,2.318-8.112,2.318
				c-2.444,0-5.093-0.248-6.915-0.621V337.733z"/>
			<path fill="#B2CEE7" stroke="#636466" stroke-miterlimit="1" d="M148.739,362.7c0.62,0.166,1.821,0.332,3.56,0.332
				c3.81,0,6.417-1.574,6.417-5.178c0-3.188-2.441-5.299-6.292-5.299h-3.685V362.7z"/>
		</g>
		<g>
			<g>
				
					<line fill="none" stroke="#000000" stroke-width="0.5" stroke-miterlimit="1" x1="71.086" y1="386.89" x2="80.555" y2="386.89"/>
				<g>
					<polygon points="79.564,388.342 84.984,386.89 79.564,385.438 					"/>
				</g>
			</g>
		</g>
	</g>
	<g>
		<g>
			<text transform="matrix(0.9135 0 0 1 332.7871 404.7646)"><tspan x="0" y="0" font-size="9">FOV Rotation (0081,7032) = 270</tspan><tspan x="0" y="9.339" font-size="9">FOV Horizontal Flip (0018,7034) = NO</tspan></text>
		</g>
		<rect x="332.788" y="253.2" fill="#B2CEE7" stroke="#939598" stroke-miterlimit="1" width="137.994" height="138"/>
		<rect x="333.289" y="382.749" fill="#999999" stroke="#808285" stroke-miterlimit="1" width="8.28" height="8.281"/>
		<rect x="333.289" y="374.47" fill="#FFFFFF" stroke="#808285" stroke-miterlimit="1" width="8.28" height="8.279"/>
		<rect x="333.289" y="366.188" fill="#FFFFFF" stroke="#808285" stroke-miterlimit="1" width="8.28" height="8.281"/>
		<rect x="333.289" y="357.909" fill="#FFFFFF" stroke="#808285" stroke-miterlimit="1" width="8.28" height="8.279"/>
		<rect x="333.289" y="349.63" fill="#FFFFFF" stroke="#808285" stroke-miterlimit="1" width="8.28" height="8.279"/>
		<rect x="341.569" y="382.749" fill="#FFFFFF" stroke="#808285" stroke-miterlimit="1" width="8.279" height="8.281"/>
		<rect x="349.849" y="382.749" fill="#FFFFFF" stroke="#808285" stroke-miterlimit="1" width="8.28" height="8.281"/>
		<rect x="358.129" y="382.749" fill="#FFFFFF" stroke="#808285" stroke-miterlimit="1" width="8.28" height="8.281"/>
		<rect x="366.409" y="382.749" fill="#FFFFFF" stroke="#808285" stroke-miterlimit="1" width="8.281" height="8.281"/>
		<g>
			<text transform="matrix(0.9135 0 0 1 274.8105 389.4141)" font-size="9">FOV TLHC</text>
		</g>
		<g>
			<text transform="matrix(0.9135 0 0 1 385.3633 386.1953)" fill="#ED1C24" font-size="12">j</text>
		</g>
		<g>
			<text transform="matrix(0.9135 0 0 1 323.335 339.6553)" fill="#0DB14B" font-size="12">i</text>
		</g>
		<g>
			<g>
				
					<line fill="none" stroke="#ED1C24" stroke-width="2" stroke-linecap="square" stroke-miterlimit="1" x1="332.292" y1="391.2" x2="378.241" y2="391.2"/>
				<g>
					<polygon fill="#ED1C24" points="375.863,394.687 388.872,391.2 375.863,387.714 					"/>
				</g>
			</g>
		</g>
		<g>
			<g>
				
					<line fill="none" stroke="#0DB14B" stroke-width="2" stroke-linecap="square" stroke-miterlimit="1" x1="332.067" y1="391.2" x2="332.067" y2="345.251"/>
				<g>
					<polygon fill="#0DB14B" points="335.554,347.629 332.067,334.62 328.581,347.629 					"/>
				</g>
			</g>
		</g>
		<g>
			<text transform="matrix(0.9135 0 0 1 388.1406 323.584)" font-size="9">pixel data</text>
		</g>
		<g>
			<path fill="#636466" d="M386.444,360.875c-0.373-1.822-0.621-4.471-0.621-6.915c0-3.849,0.744-6.374,2.318-8.112
				c1.201-1.366,3.105-2.195,5.299-2.195c3.645,0,6.088,2.359,7.08,5.259h0.125c0.746-2.111,2.734-3.396,5.631-4.098
				c3.893-0.912,6.584-1.573,7.66-2.113v3.728c-0.787,0.456-3.188,1.076-6.666,1.822c-3.852,0.826-5.299,2.358-5.424,5.629v3.395
				h12.09v3.602H386.444z"/>
			<path fill="#B2CEE7" stroke="#636466" stroke-miterlimit="1" d="M399.114,357.273v-3.685c0-3.851-2.111-6.292-5.299-6.292
				c-3.604,0-5.178,2.607-5.178,6.417c0,1.738,0.166,2.939,0.332,3.56H399.114z"/>
		</g>
		<g>
			<g>
				
					<line fill="none" stroke="#000000" stroke-width="0.5" stroke-miterlimit="1" x1="316.741" y1="386.89" x2="326.21" y2="386.89"/>
				<g>
					<polygon points="325.219,388.342 330.64,386.89 325.219,385.438 					"/>
				</g>
			</g>
		</g>
	</g>
</g>
</svg>
