<?xml version="1.0" encoding="utf-8"?>
<!-- $Source: /home/bbennett/pass/archive/DicomXml/docbook/part17/figures/PS3.17_FFF.1.4-1.svg,v $ -->
<!-- $Date: 2014/05/09 13:15:43 $ -->
<!-- $Revision: 1.1 $ -->

<!DOCTYPE svg PUBLIC "-//W3C//DTD SVG 1.1//EN" "http://www.w3.org/Graphics/SVG/1.1/DTD/svg11.dtd">
<svg version="1.1" id="Layer_1" xmlns="http://www.w3.org/2000/svg" xmlns:xlink="http://www.w3.org/1999/xlink" x="0px" y="0px"
	 width="502px" height="222px" viewBox="0 0 502 222" enable-background="new 0 0 502 222" xml:space="preserve">

<defs>
	<style type="text/css">
	text {
	  font-family: Helvetica, Verdana, ArialUnicodeMS, san-serif
	}
	</style>
</defs>

<g>
   <desc>
	PS 3.17 Part 17: Explanatory Information
   </desc>
</g>

<g>
	<rect x="1" y="1" fill="#F5EED6" width="500" height="220"/>
	<g>
		<path fill-rule="evenodd" clip-rule="evenodd" fill="#B2CEE7" stroke="#005695" d="M123.501,164.266H98.027V64.943
			c8.513-0.727,16.972-1.633,25.474-2.312V164.266z"/>
		<path fill-rule="evenodd" clip-rule="evenodd" fill="#B2CEE7" stroke="#005695" d="M191.272,164.266h-26.899V62.639
			c9.113,0.896,18.038,2.274,26.899,3.908V164.266z"/>
		<path fill-rule="evenodd" clip-rule="evenodd" fill="#B2CEE7" stroke="#005695" d="M275.354,164.266h-26.361V78.557
			c8.792,1.849,17.567,3.734,26.361,5.521V164.266z"/>
		<path fill-rule="evenodd" clip-rule="evenodd" fill="#B2CEE7" stroke="#005695" d="M355.541,164.266h-25.417V92.705
			c8.451,0.83,16.948,1.395,25.417,1.54V164.266z"/>
		<path fill-rule="evenodd" clip-rule="evenodd" fill="#B2CEE7" stroke="#005695" d="M423.651,164.266h-25.94V91.792
			c0.485,0.021,18.292-5.225,25.94-7.609V164.266z"/>
		<path fill-rule="evenodd" clip-rule="evenodd" fill="none" stroke="#003468" d="M423.651,84.183
			c-7.648,2.385-23.163,6.994-25.94,8.003s-25.142,2.097-37.9,2.097c-14.181,0-28.476-1.252-42.531-3.029
			c-26.901-3.401-53.13-9.66-79.641-15.05c-27.234-5.536-53.073-12.36-80.95-14.197c-27.412-1.806-53.193,3.718-80.283,4.146
			c-3.929,0.062-7.862,0-11.792,0"/>
		<g>
			<g>
				<line fill="none" stroke="#000000" stroke-linejoin="round" x1="63.894" y1="164.438" x2="63.894" y2="40.192"/>
				<g>
					<polygon points="66.799,42.174 63.894,31.333 60.988,42.174 					"/>
				</g>
			</g>
		</g>
		<g>
			<g>
				<line fill="none" stroke="#000000" stroke-linejoin="round" x1="63.894" y1="164.438" x2="439.292" y2="164.438"/>
				<g>
					<polygon points="437.311,167.343 448.151,164.438 437.311,161.532 					"/>
				</g>
			</g>
		</g>
		<line fill="none" x1="63.894" y1="79.032" x2="198.71" y2="79.032"/>
		<g>
			<line x1="64.613" y1="79.032" x2="431.653" y2="79.032"/>
			<g>
				<line fill="none" stroke="#005695" x1="64.613" y1="79.032" x2="66.613" y2="79.032"/>
				<line fill="none" stroke="#005695" stroke-dasharray="3.9894,3.9894" x1="70.603" y1="79.032" x2="427.658" y2="79.032"/>
				<line fill="none" stroke="#005695" x1="429.653" y1="79.032" x2="431.653" y2="79.032"/>
			</g>
		</g>
		<text transform="matrix(1 0 0 1 31.9111 24.5298)" font-size="10">X-Ray Current</text>
		<text transform="matrix(1 0 0 1 450.7539 167.8633)" font-size="10">Time</text>
		<text transform="matrix(1.0363 0 0 1 98.3853 197.0332)" font-size="10">∆</text>
		<text transform="matrix(0.9135 0 0 1 104.7251 197.0332)" font-size="10">t</text>
		<text transform="matrix(0.9135 0 0 1 107.2632 203.0332)" font-size="10">1</text>
		<text transform="matrix(0.9135 0 0 1 112.3438 197.0332)" font-size="10">(ms)</text>
		<text transform="matrix(1.0363 0 0 1 164.3735 197.0332)" font-size="10">∆</text>
		<text transform="matrix(0.9135 0 0 1 170.7134 197.0332)" font-size="10">t</text>
		<text transform="matrix(0.9135 0 0 1 173.2515 203.0332)" font-size="10">2</text>
		<text transform="matrix(0.9135 0 0 1 178.332 197.0332)" font-size="10">(ms)</text>
		<text transform="matrix(1.0363 0 0 1 248.9927 197.0332)" font-size="10">∆</text>
		<text transform="matrix(0.9135 0 0 1 255.332 197.0332)" font-size="10">t</text>
		<text transform="matrix(0.9135 0 0 1 257.8711 203.0332)" font-size="10">3</text>
		<text transform="matrix(0.9135 0 0 1 262.9512 197.0332)" font-size="10">(ms)</text>
		<text transform="matrix(1.0363 0 0 1 330.0488 197.0332)" font-size="10">∆</text>
		<text transform="matrix(0.9135 0 0 1 336.3887 197.0332)" font-size="10">t</text>
		<text transform="matrix(0.9135 0 0 1 338.9277 203.0332)" font-size="10">4</text>
		<text transform="matrix(0.9135 0 0 1 344.0078 197.0332)" font-size="10">(ms)</text>
		<text transform="matrix(1.0363 0 0 1 397.7109 197.0332)" font-size="10">∆</text>
		<text transform="matrix(0.9135 0 0 1 404.0508 197.0332)" font-size="10">t</text>
		<text transform="matrix(0.9135 0 0 1 406.5898 203.0332)" font-size="10">5</text>
		<text transform="matrix(0.9135 0 0 1 411.6699 197.0332)" font-size="10">(ms)</text>
		<text transform="matrix(1.0363 0 0 1 100.4521 54.7334)" font-size="10">mA</text>
		<text transform="matrix(0.9135 0 0 1 115.9961 60.7334)" font-size="10">1</text>
		<text transform="matrix(1.0363 0 0 1 29.0332 77.2295)"><tspan x="0" y="0" font-size="8">Average</tspan><tspan x="8.898" y="9.6" font-size="8">mA</tspan></text>
		<text transform="matrix(1.0363 0 0 1 101.7827 126.5527)"><tspan x="0" y="0" font-size="6">Frame</tspan><tspan x="5.331" y="7.201" font-size="6">#1</tspan></text>
		<text transform="matrix(1.0363 0 0 1 168.5103 126.5527)"><tspan x="0" y="0" font-size="6">Frame</tspan><tspan x="5.331" y="7.201" font-size="6">#2</tspan></text>
		<text transform="matrix(1.0363 0 0 1 253.4336 126.5527)"><tspan x="0" y="0" font-size="6">Frame</tspan><tspan x="5.331" y="7.201" font-size="6">#3</tspan></text>
		<text transform="matrix(1.0363 0 0 1 333.8516 126.5527)"><tspan x="0" y="0" font-size="6">Frame</tspan><tspan x="5.33" y="7.201" font-size="6">#4</tspan></text>
		<text transform="matrix(1.0363 0 0 1 401.6992 126.5527)"><tspan x="0" y="0" font-size="6">Frame</tspan><tspan x="5.33" y="7.201" font-size="6">#5</tspan></text>
		<text transform="matrix(1.0363 0 0 1 167.5107 55.4531)" font-size="10">mA</text>
		<text transform="matrix(0.9135 0 0 1 183.0547 61.4531)" font-size="10">2</text>
		<text transform="matrix(1.0363 0 0 1 251.8608 71.6533)" font-size="10">mA</text>
		<text transform="matrix(0.9135 0 0 1 267.4043 77.6533)" font-size="10">3</text>
		<text transform="matrix(1.0363 0 0 1 332.5205 86.7734)" font-size="10">mA</text>
		<text transform="matrix(0.9135 0 0 1 348.0645 92.7734)" font-size="10">4</text>
		<text transform="matrix(1.0363 0 0 1 400.3691 67.6934)" font-size="10">mA</text>
		<text transform="matrix(0.9135 0 0 1 415.9131 73.6934)" font-size="10">5</text>
		<g>
			<line fill="#4F8ABE" x1="98.027" y1="180.953" x2="123.596" y2="180.953"/>
			<g>
				
					<line fill="none" stroke="#005695" stroke-width="2" stroke-miterlimit="1" x1="105.115" y1="180.953" x2="116.508" y2="180.953"/>
				<g>
					<polygon fill="#005695" points="106.7,183.277 98.027,180.953 106.7,178.629 					"/>
				</g>
				<g>
					<polygon fill="#005695" points="114.923,183.277 123.596,180.953 114.923,178.629 					"/>
				</g>
			</g>
		</g>
		<g>
			<line fill="#4F8ABE" x1="164.708" y1="180.953" x2="191.272" y2="180.953"/>
			<g>
				
					<line fill="none" stroke="#005695" stroke-width="2" stroke-miterlimit="1" x1="171.795" y1="180.953" x2="184.185" y2="180.953"/>
				<g>
					<polygon fill="#005695" points="173.381,183.277 164.708,180.953 173.381,178.629 					"/>
				</g>
				<g>
					<polygon fill="#005695" points="182.6,183.277 191.272,180.953 182.6,178.629 					"/>
				</g>
			</g>
		</g>
		<g>
			<g>
				
					<line fill="none" stroke="#010101" stroke-width="0.5" stroke-miterlimit="1" x1="123.596" y1="164.266" x2="123.596" y2="165.266"/>
				
					<line fill="none" stroke="#010101" stroke-width="0.5" stroke-miterlimit="1" stroke-dasharray="1.9413,1.9413" x1="123.596" y1="167.207" x2="123.596" y2="185.649"/>
				
					<line fill="none" stroke="#010101" stroke-width="0.5" stroke-miterlimit="1" x1="123.596" y1="186.62" x2="123.596" y2="187.62"/>
			</g>
		</g>
		<g>
			<g>
				
					<line fill="none" stroke="#010101" stroke-width="0.5" stroke-miterlimit="1" x1="98.027" y1="164.266" x2="98.027" y2="165.266"/>
				
					<line fill="none" stroke="#010101" stroke-width="0.5" stroke-miterlimit="1" stroke-dasharray="1.9413,1.9413" x1="98.027" y1="167.207" x2="98.027" y2="185.649"/>
				
					<line fill="none" stroke="#010101" stroke-width="0.5" stroke-miterlimit="1" x1="98.027" y1="186.62" x2="98.027" y2="187.62"/>
			</g>
		</g>
		<g>
			<g>
				
					<line fill="none" stroke="#010101" stroke-width="0.5" stroke-miterlimit="1" x1="191.272" y1="164.266" x2="191.272" y2="165.266"/>
				
					<line fill="none" stroke="#010101" stroke-width="0.5" stroke-miterlimit="1" stroke-dasharray="1.9413,1.9413" x1="191.272" y1="167.207" x2="191.272" y2="185.649"/>
				
					<line fill="none" stroke="#010101" stroke-width="0.5" stroke-miterlimit="1" x1="191.272" y1="186.62" x2="191.272" y2="187.62"/>
			</g>
		</g>
		<g>
			<g>
				
					<line fill="none" stroke="#010101" stroke-width="0.5" stroke-miterlimit="1" x1="164.358" y1="164.266" x2="164.358" y2="165.266"/>
				
					<line fill="none" stroke="#010101" stroke-width="0.5" stroke-miterlimit="1" stroke-dasharray="1.9413,1.9413" x1="164.358" y1="167.207" x2="164.358" y2="185.649"/>
				
					<line fill="none" stroke="#010101" stroke-width="0.5" stroke-miterlimit="1" x1="164.358" y1="186.62" x2="164.358" y2="187.62"/>
			</g>
		</g>
		<g>
			<line fill="#4F8ABE" x1="249.631" y1="180.953" x2="275.2" y2="180.953"/>
			<g>
				
					<line fill="none" stroke="#005695" stroke-width="2" stroke-miterlimit="1" x1="256.719" y1="180.953" x2="268.112" y2="180.953"/>
				<g>
					<polygon fill="#005695" points="258.304,183.277 249.631,180.953 258.304,178.629 					"/>
				</g>
				<g>
					<polygon fill="#005695" points="266.527,183.277 275.2,180.953 266.527,178.629 					"/>
				</g>
			</g>
		</g>
		<g>
			<g>
				
					<line fill="none" stroke="#010101" stroke-width="0.5" stroke-miterlimit="1" x1="275.353" y1="164.266" x2="275.353" y2="165.266"/>
				
					<line fill="none" stroke="#010101" stroke-width="0.5" stroke-miterlimit="1" stroke-dasharray="1.9413,1.9413" x1="275.353" y1="167.207" x2="275.353" y2="185.649"/>
				
					<line fill="none" stroke="#010101" stroke-width="0.5" stroke-miterlimit="1" x1="275.353" y1="186.62" x2="275.353" y2="187.62"/>
			</g>
		</g>
		<g>
			<g>
				
					<line fill="none" stroke="#010101" stroke-width="0.5" stroke-miterlimit="1" x1="248.992" y1="164.266" x2="248.992" y2="165.266"/>
				
					<line fill="none" stroke="#010101" stroke-width="0.5" stroke-miterlimit="1" stroke-dasharray="1.9413,1.9413" x1="248.992" y1="167.207" x2="248.992" y2="185.649"/>
				
					<line fill="none" stroke="#010101" stroke-width="0.5" stroke-miterlimit="1" x1="248.992" y1="186.62" x2="248.992" y2="187.62"/>
			</g>
		</g>
		<g>
			<line fill="#4F8ABE" x1="330.05" y1="180.953" x2="355.618" y2="180.953"/>
			<g>
				
					<line fill="none" stroke="#005695" stroke-width="2" stroke-miterlimit="1" x1="337.138" y1="180.953" x2="348.53" y2="180.953"/>
				<g>
					<polygon fill="#005695" points="338.723,183.277 330.05,180.953 338.723,178.629 					"/>
				</g>
				<g>
					<polygon fill="#005695" points="346.945,183.277 355.618,180.953 346.945,178.629 					"/>
				</g>
			</g>
		</g>
		<g>
			<g>
				
					<line fill="none" stroke="#010101" stroke-width="0.5" stroke-miterlimit="1" x1="355.618" y1="164.266" x2="355.618" y2="165.266"/>
				
					<line fill="none" stroke="#010101" stroke-width="0.5" stroke-miterlimit="1" stroke-dasharray="1.9413,1.9413" x1="355.618" y1="167.207" x2="355.618" y2="185.649"/>
				
					<line fill="none" stroke="#010101" stroke-width="0.5" stroke-miterlimit="1" x1="355.618" y1="186.62" x2="355.618" y2="187.62"/>
			</g>
		</g>
		<g>
			<g>
				
					<line fill="none" stroke="#010101" stroke-width="0.5" stroke-miterlimit="1" x1="330.124" y1="164.266" x2="330.124" y2="165.266"/>
				
					<line fill="none" stroke="#010101" stroke-width="0.5" stroke-miterlimit="1" stroke-dasharray="1.9413,1.9413" x1="330.124" y1="167.207" x2="330.124" y2="185.649"/>
				
					<line fill="none" stroke="#010101" stroke-width="0.5" stroke-miterlimit="1" x1="330.124" y1="186.62" x2="330.124" y2="187.62"/>
			</g>
		</g>
		<g>
			<line fill="#4F8ABE" x1="398.071" y1="180.953" x2="423.64" y2="180.953"/>
			<g>
				
					<line fill="none" stroke="#005695" stroke-width="2" stroke-miterlimit="1" x1="405.159" y1="180.953" x2="416.552" y2="180.953"/>
				<g>
					<polygon fill="#005695" points="406.744,183.277 398.071,180.953 406.744,178.629 					"/>
				</g>
				<g>
					<polygon fill="#005695" points="414.967,183.277 423.64,180.953 414.967,178.629 					"/>
				</g>
			</g>
		</g>
		<g>
			<g>
				
					<line fill="none" stroke="#010101" stroke-width="0.5" stroke-miterlimit="1" x1="423.611" y1="164.266" x2="423.611" y2="165.266"/>
				
					<line fill="none" stroke="#010101" stroke-width="0.5" stroke-miterlimit="1" stroke-dasharray="1.9413,1.9413" x1="423.611" y1="167.207" x2="423.611" y2="185.649"/>
				
					<line fill="none" stroke="#010101" stroke-width="0.5" stroke-miterlimit="1" x1="423.611" y1="186.62" x2="423.611" y2="187.62"/>
			</g>
		</g>
		<g>
			<g>
				
					<line fill="none" stroke="#010101" stroke-width="0.5" stroke-miterlimit="1" x1="397.722" y1="164.266" x2="397.722" y2="165.266"/>
				
					<line fill="none" stroke="#010101" stroke-width="0.5" stroke-miterlimit="1" stroke-dasharray="1.9413,1.9413" x1="397.722" y1="167.207" x2="397.722" y2="185.649"/>
				
					<line fill="none" stroke="#010101" stroke-width="0.5" stroke-miterlimit="1" x1="397.722" y1="186.62" x2="397.722" y2="187.62"/>
			</g>
		</g>
	</g>
</g>
</svg>
