<?xml version="1.0" encoding="utf-8"?>
<!-- $Source: /home/bbennett/pass/archive/DicomXml/docbook/part17/figures/PS3.17_O.3-1.svg,v $ -->
<!-- $Date: 2014/05/09 12:30:21 $ -->
<!-- $Revision: 1.2 $ -->

<!DOCTYPE svg PUBLIC "-//W3C//DTD SVG 1.1//EN" "http://www.w3.org/Graphics/SVG/1.1/DTD/svg11.dtd">
<svg version="1.1" id="Layer_1" xmlns="http://www.w3.org/2000/svg" xmlns:xlink="http://www.w3.org/1999/xlink" x="0px" y="0px"
	 width="502px" height="322px" viewBox="0 0 502 322" enable-background="new 0 0 502 322" xml:space="preserve">

<defs>
	<style type="text/css">
	text {
	  font-family: Helvetica, Verdana, ArialUnicodeMS, san-serif
	}
	</style>
</defs>

<g>
   <desc>
	PS 3.17 Part 17: Explanatory Information
   </desc>
</g>

<g>
	<rect x="1" y="1" fill="#F5EED6" width="500" height="320"/>
	<g>
		<rect x="21.204" y="29.062" fill="#D5E2F1" stroke="#000000" stroke-miterlimit="1" width="63" height="36"/>
		<g>
			<text transform="matrix(1 0 0 1 34.085 50.3994)" font-size="10">Modality</text>
		</g>
		<rect x="21.204" y="101.062" fill="#D5E2F1" stroke="#000000" stroke-miterlimit="1" width="63" height="36.001"/>
		<g>
			<text transform="matrix(1 0 0 1 34.085 122.3994)" font-size="10">Modality</text>
		</g>
		<g>
			<text transform="matrix(1 0 0 1 255.7422 186.8867)" font-size="9">Registration</text>
		</g>
		<g>
			<text transform="matrix(1 0 0 1 307.1816 120.332)" font-size="9">Registration</text>
		</g>
		<rect x="372.797" y="59.442" fill="#CCCCCC" stroke="#000000" stroke-linejoin="round" width="108" height="70.9"/>
		<rect x="376.383" y="63.02" fill="#005695" stroke="#000000" stroke-linejoin="round" width="100.836" height="62.451"/>
		<polygon fill="#CCCCCC" stroke="#000000" stroke-linejoin="round" points="445.699,150.746 441.016,147.352 438.588,130.343 
			415.732,130.343 413.307,147.346 408.617,150.746 408.617,153.83 445.699,153.83 		"/>
		<line fill="#808080" stroke="#000000" stroke-linejoin="round" x1="413.307" y1="147.346" x2="441.016" y2="147.352"/>
		<g>
			<text transform="matrix(1 0 0 1 397.9961 92.6167)"><tspan x="0" y="0" fill="#FFFFFF" font-size="11">Workstation</tspan><tspan x="11.005" y="11.502" fill="#FFFFFF" font-size="11">or CAD</tspan></text>
		</g>
		<g>
			<g>
				<line fill="none" stroke="#003468" x1="84.204" y1="47.063" x2="155.015" y2="47.063"/>
				<path fill="#003468" d="M157.377,46.038c-1.653-0.5-2.728-0.959-4.054-1.492v5.044c0.475-0.226,2.401-0.993,4.054-1.492
					c1.77-0.535,3.374-0.9,4.415-1.031C160.751,46.938,159.146,46.572,157.377,46.038z"/>
			</g>
		</g>
		<g>
			<g>
				<line fill="none" stroke="#003468" x1="84.204" y1="117.055" x2="155.015" y2="117.055"/>
				<path fill="#003468" d="M157.377,116.03c-1.653-0.5-2.728-0.959-4.054-1.492v5.044c0.475-0.226,2.401-0.993,4.054-1.492
					c1.77-0.535,3.374-0.9,4.415-1.031C160.751,116.93,159.146,116.564,157.377,116.03z"/>
			</g>
		</g>
		<g>
			<g>
				<line fill="none" stroke="#003468" x1="299.748" y1="93.638" x2="362.76" y2="93.638"/>
				<path fill="#003468" d="M365.121,92.613c-1.652-0.5-2.728-0.959-4.054-1.492v5.044c0.475-0.226,2.401-0.993,4.054-1.492
					c1.77-0.535,3.375-0.9,4.415-1.031C368.496,93.513,366.891,93.147,365.121,92.613z"/>
			</g>
		</g>
		<g>
			<g>
				<line fill="none" stroke="#003468" stroke-width="2" x1="292.564" y1="124.25" x2="363.627" y2="124.25"/>
				<path fill="#003468" d="M366.461,123.02c-1.983-0.599-3.273-1.151-4.865-1.79v6.053c0.57-0.271,2.882-1.191,4.865-1.79
					c2.124-0.642,4.049-1.08,5.298-1.237C370.51,124.1,368.585,123.661,366.461,123.02z"/>
			</g>
		</g>
		<g>
			<g>
				<line fill="none" stroke="#003468" x1="284.35" y1="62.584" x2="363.627" y2="62.584"/>
				<path fill="#003468" d="M365.988,61.559c-1.652-0.5-2.728-0.959-4.054-1.492v5.044c0.475-0.226,2.401-0.993,4.054-1.492
					c1.77-0.535,3.375-0.9,4.415-1.031C369.363,62.459,367.758,62.093,365.988,61.559z"/>
			</g>
		</g>
		<g>
			<g>
				<line fill="none" stroke="#003468" x1="223.407" y1="151.417" x2="223.407" y2="206.66"/>
				<path fill="#003468" d="M224.432,209.021c0.5-1.652,0.959-2.728,1.492-4.054h-5.044c0.226,0.475,0.993,2.401,1.492,4.054
					c0.535,1.77,0.9,3.375,1.031,4.415C223.532,212.396,223.897,210.791,224.432,209.021z"/>
			</g>
		</g>
		<g>
			<g>
				<line fill="none" stroke="#003468" stroke-width="2" x1="252.143" y1="216.834" x2="252.143" y2="157.376"/>
				<path fill="#003468" d="M250.913,154.542c-0.599,1.984-1.151,3.273-1.79,4.865h6.053c-0.271-0.569-1.191-2.881-1.79-4.865
					c-0.642-2.124-1.08-4.049-1.236-5.298C251.992,150.493,251.554,152.418,250.913,154.542z"/>
			</g>
		</g>
		<g>
			<g>
				<line fill="none" stroke="#003468" x1="184.706" y1="134.217" x2="184.706" y2="206.66"/>
				<path fill="#003468" d="M185.73,209.021c0.5-1.652,0.959-2.728,1.492-4.054h-5.044c0.226,0.475,0.993,2.401,1.492,4.054
					c0.535,1.77,0.9,3.375,1.031,4.415C184.831,212.396,185.196,210.791,185.73,209.021z"/>
			</g>
		</g>
		
			<path fill="#4F8ABE" stroke="#000000" stroke-width="0.75" stroke-linecap="round" stroke-linejoin="round" stroke-miterlimit="1" d="
			M337.975,69.531c0,1.123-1.094,2.034-2.439,2.034h-12.701c-1.348,0-2.441-0.911-2.441-2.034v-17.91
			c0-1.125,1.094-2.035,2.441-2.035h12.701c1.346,0,2.439,0.91,2.439,2.035V69.531z"/>
		
			<path fill="#4F8ABE" stroke="#000000" stroke-width="0.75" stroke-linecap="round" stroke-linejoin="round" stroke-miterlimit="1" d="
			M339.984,71.539c0,1.125-1.094,2.035-2.443,2.035h-12.697c-1.35,0-2.443-0.91-2.443-2.035v-17.91c0-1.123,1.094-2.034,2.443-2.034
			h12.697c1.35,0,2.443,0.911,2.443,2.034V71.539z"/>
		
			<path fill="#4F8ABE" stroke="#000000" stroke-width="0.75" stroke-linecap="round" stroke-linejoin="round" stroke-miterlimit="1" d="
			M341.992,73.547c0,1.125-1.094,2.035-2.441,2.035h-12.699c-1.348,0-2.441-0.91-2.441-2.035V55.639
			c0-1.125,1.094-2.036,2.441-2.036h12.699c1.348,0,2.441,0.911,2.441,2.036V73.547z"/>
		<g>
			<text transform="matrix(1 0 0 1 327.333 66.917)" fill="#FFFFFF" font-size="8.8">CT</text>
		</g>
		
			<path fill="#4F8ABE" stroke="#000000" stroke-width="0.75" stroke-linecap="round" stroke-linejoin="round" stroke-miterlimit="1" d="
			M337.975,100.584c0,1.124-1.094,2.035-2.439,2.035h-12.701c-1.348,0-2.441-0.911-2.441-2.035V82.676
			c0-1.125,1.094-2.037,2.441-2.037h12.701c1.346,0,2.439,0.912,2.439,2.037V100.584z"/>
		
			<path fill="#4F8ABE" stroke="#000000" stroke-width="0.75" stroke-linecap="round" stroke-linejoin="round" stroke-miterlimit="1" d="
			M339.984,102.593c0,1.125-1.094,2.035-2.443,2.035h-12.697c-1.35,0-2.443-0.91-2.443-2.035v-17.91
			c0-1.123,1.094-2.034,2.443-2.034h12.697c1.35,0,2.443,0.911,2.443,2.034V102.593z"/>
		
			<path fill="#4F8ABE" stroke="#000000" stroke-width="0.75" stroke-linecap="round" stroke-linejoin="round" stroke-miterlimit="1" d="
			M341.992,104.6c0,1.125-1.094,2.037-2.441,2.037h-12.699c-1.348,0-2.441-0.912-2.441-2.037V86.691
			c0-1.124,1.094-2.035,2.441-2.035h12.699c1.348,0,2.441,0.911,2.441,2.035V104.6z"/>
		<g>
			<text transform="matrix(1 0 0 1 326.3555 97.9678)" fill="#FFFFFF" font-size="8.8">MR</text>
		</g>
		
			<path fill="#4F8ABE" stroke="#000000" stroke-width="0.75" stroke-linecap="round" stroke-linejoin="round" stroke-miterlimit="1" d="
			M127.686,54.01c0,1.123-1.094,2.035-2.442,2.035h-12.699c-1.349,0-2.442-0.912-2.442-2.035V36.1c0-1.125,1.093-2.036,2.442-2.036
			h12.699c1.348,0,2.442,0.911,2.442,2.036V54.01z"/>
		
			<path fill="#4F8ABE" stroke="#000000" stroke-width="0.75" stroke-linecap="round" stroke-linejoin="round" stroke-miterlimit="1" d="
			M129.694,56.018c0,1.125-1.094,2.035-2.442,2.035h-12.699c-1.349,0-2.442-0.91-2.442-2.035v-17.91
			c0-1.123,1.093-2.034,2.442-2.034h12.699c1.348,0,2.442,0.911,2.442,2.034V56.018z"/>
		
			<path fill="#4F8ABE" stroke="#000000" stroke-width="0.75" stroke-linecap="round" stroke-linejoin="round" stroke-miterlimit="1" d="
			M131.703,58.025c0,1.125-1.095,2.036-2.442,2.036h-12.699c-1.349,0-2.442-0.911-2.442-2.036V40.117
			c0-1.125,1.093-2.036,2.442-2.036h12.699c1.348,0,2.442,0.911,2.442,2.036V58.025z"/>
		<g>
			<text transform="matrix(1 0 0 1 117.0459 51.3955)" fill="#FFFFFF" font-size="8.8">CT</text>
		</g>
		
			<path fill="#4F8ABE" stroke="#000000" stroke-width="0.75" stroke-linecap="round" stroke-linejoin="round" stroke-miterlimit="1" d="
			M127.686,126.011c0,1.123-1.094,2.034-2.442,2.034h-12.699c-1.349,0-2.442-0.911-2.442-2.034v-17.91
			c0-1.125,1.093-2.036,2.442-2.036h12.699c1.348,0,2.442,0.911,2.442,2.036V126.011z"/>
		
			<path fill="#4F8ABE" stroke="#000000" stroke-width="0.75" stroke-linecap="round" stroke-linejoin="round" stroke-miterlimit="1" d="
			M129.694,128.018c0,1.125-1.094,2.037-2.442,2.037h-12.699c-1.349,0-2.442-0.912-2.442-2.037v-17.91
			c0-1.123,1.093-2.033,2.442-2.033h12.699c1.348,0,2.442,0.91,2.442,2.033V128.018z"/>
		
			<path fill="#4F8ABE" stroke="#000000" stroke-width="0.75" stroke-linecap="round" stroke-linejoin="round" stroke-miterlimit="1" d="
			M131.703,130.026c0,1.125-1.095,2.035-2.442,2.035h-12.699c-1.349,0-2.442-0.91-2.442-2.035v-17.91
			c0-1.124,1.093-2.034,2.442-2.034h12.699c1.348,0,2.442,0.91,2.442,2.034V130.026z"/>
		<g>
			<text transform="matrix(1 0 0 1 116.0684 123.3965)" fill="#FFFFFF" font-size="8.8">MR</text>
		</g>
		
			<path fill="#4F8ABE" stroke="#000000" stroke-width="0.75" stroke-linecap="round" stroke-linejoin="round" stroke-miterlimit="1" d="
			M191.49,191.332c0,1.123-1.094,2.035-2.443,2.035h-12.697c-1.35,0-2.443-0.912-2.443-2.035v-17.91
			c0-1.125,1.094-2.035,2.443-2.035h12.697c1.35,0,2.443,0.91,2.443,2.035V191.332z"/>
		
			<path fill="#4F8ABE" stroke="#000000" stroke-width="0.75" stroke-linecap="round" stroke-linejoin="round" stroke-miterlimit="1" d="
			M193.497,193.34c0,1.125-1.093,2.035-2.44,2.035h-12.7c-1.349,0-2.442-0.91-2.442-2.035v-17.91c0-1.123,1.094-2.033,2.442-2.033
			h12.7c1.348,0,2.44,0.91,2.44,2.033V193.34z"/>
		
			<path fill="#4F8ABE" stroke="#000000" stroke-width="0.75" stroke-linecap="round" stroke-linejoin="round" stroke-miterlimit="1" d="
			M195.506,195.348c0,1.125-1.095,2.035-2.442,2.035h-12.699c-1.35,0-2.442-0.91-2.442-2.035v-17.908
			c0-1.125,1.093-2.035,2.442-2.035h12.699c1.348,0,2.442,0.91,2.442,2.035V195.348z"/>
		<g>
			<text transform="matrix(1 0 0 1 180.8477 188.7188)" fill="#FFFFFF" font-size="8.8">CT</text>
		</g>
		
			<path fill="#4F8ABE" stroke="#000000" stroke-width="0.75" stroke-linecap="round" stroke-linejoin="round" stroke-miterlimit="1" d="
			M230.189,191.332c0,1.123-1.093,2.035-2.439,2.035h-12.701c-1.349,0-2.441-0.912-2.441-2.035v-17.91
			c0-1.125,1.093-2.035,2.441-2.035h12.701c1.347,0,2.439,0.91,2.439,2.035V191.332z"/>
		
			<path fill="#4F8ABE" stroke="#000000" stroke-width="0.75" stroke-linecap="round" stroke-linejoin="round" stroke-miterlimit="1" d="
			M232.199,193.34c0,1.125-1.093,2.037-2.441,2.037h-12.699c-1.35,0-2.443-0.912-2.443-2.037v-17.908
			c0-1.125,1.094-2.035,2.443-2.035h12.699c1.349,0,2.441,0.91,2.441,2.035V193.34z"/>
		
			<path fill="#4F8ABE" stroke="#000000" stroke-width="0.75" stroke-linecap="round" stroke-linejoin="round" stroke-miterlimit="1" d="
			M234.207,195.348c0,1.125-1.094,2.035-2.442,2.035h-12.698c-1.348,0-2.442-0.91-2.442-2.035v-17.91
			c0-1.123,1.095-2.033,2.442-2.033h12.698c1.349,0,2.442,0.91,2.442,2.033V195.348z"/>
		<g>
			<text transform="matrix(1 0 0 1 218.5703 188.7197)" fill="#FFFFFF" font-size="8.8001">MR</text>
		</g>
		<rect x="164.906" y="212.902" fill="#CCCCCC" stroke="#000000" stroke-linejoin="round" width="108" height="70.898"/>
		<rect x="168.491" y="216.479" fill="#005695" stroke="#000000" stroke-linejoin="round" width="100.839" height="62.449"/>
		<polygon fill="#CCCCCC" stroke="#000000" stroke-linejoin="round" points="237.809,304.205 233.125,300.809 230.697,283.801 
			207.842,283.801 205.417,300.805 200.727,304.205 200.727,307.289 237.809,307.289 		"/>
		<line fill="#808080" stroke="#000000" stroke-linejoin="round" x1="205.417" y1="300.805" x2="233.125" y2="300.809"/>
		<g>
			<text transform="matrix(1 0 0 1 189.874 245.0107)"><tspan x="0" y="0" fill="#FFFFFF" font-size="11">Workstation</tspan><tspan x="11.005" y="11.502" fill="#FFFFFF" font-size="11">or CAD</tspan></text>
		</g>
		<path fill="#B2CEE7" stroke="#003468" stroke-linecap="round" stroke-linejoin="round" stroke-miterlimit="1" d="M194.371,127.499
			c0,0-10.989,14.87-26.548,2.426c-14.236-11.387-9.316-26.159-9.316-26.159s-14.908,0.911-12.45-22.314
			c1.802-17.021,19.792-17.023,19.792-17.023s-11.465-16.004,4.88-30.195c14.603-12.677,31.37,1.704,31.37,1.704
			s3.25-21.226,28.089-21.226c20.911,0,29.912,19.976,29.912,19.976s14.227-10.904,24.811,1.742c12.789,15.283-0.561,28-0.561,28
			s13.75,2.719,15.969,13.953c4.035,20.416-11.719,20.66-11.719,20.66s10.807,19.022,0.525,30.035
			c-14.988,16.054-27.775,7.375-27.775,7.375s-0.75,16.397-31.162,14.863C198.133,149.697,194.371,127.499,194.371,127.499z"/>
		<g>
			<text transform="matrix(1 0 0 1 193.3667 80.417)"><tspan x="0" y="0" font-size="12">Information</tspan><tspan x="8.01" y="11.965" font-size="12">Network</tspan></text>
		</g>
	</g>
</g>
</svg>
