<?xml version="1.0" encoding="utf-8"?>
<!-- $Source: /home/bbennett/pass/archive/DicomXml/docbook/part17/figures/PS3.17_A-3.svg,v $ -->
<!-- $Date: 2014/05/09 12:31:57 $ -->
<!-- $Revision: 1.2 $ -->

<!DOCTYPE svg PUBLIC "-//W3C//DTD SVG 1.1//EN" "http://www.w3.org/Graphics/SVG/1.1/DTD/svg11.dtd">
<svg version="1.1" id="Layer_1" xmlns="http://www.w3.org/2000/svg" xmlns:xlink="http://www.w3.org/1999/xlink" x="0px" y="0px"
	 width="502px" height="627px" viewBox="0 0 502 627" enable-background="new 0 0 502 627" xml:space="preserve">

<defs>
	<style type="text/css">
	text {
	  font-family: Helvetica, Verdana, ArialUnicodeMS, san-serif
	}
	</style>
</defs>

<g>
   <desc>
	PS 3.17 Part 17: Explanatory Information
   </desc>
</g>

<g>
	<rect x="1" y="1" fill="#F5EED6" width="500" height="625"/>
	<g>
		<g>
			<g>
				<polygon fill-rule="evenodd" clip-rule="evenodd" points="308.636,40.563 307.196,40.563 306.235,42.483 305.276,43.922 
					304.315,45.842 303.356,47.522 302.636,49.203 301.675,51.123 300.956,52.802 299.995,54.483 299.036,56.163 298.315,58.083 
					297.356,59.762 296.155,61.442 295.196,63.123 294.235,64.802 293.036,66.243 291.835,67.922 290.636,70.083 289.675,72.243 
					288.235,74.403 287.036,76.563 285.595,78.483 284.155,80.643 282.716,82.563 281.036,84.243 279.356,86.163 277.675,87.842 
					275.995,89.762 274.075,91.442 272.155,93.123 270.476,94.802 268.315,96.483 266.396,97.922 264.476,99.123 262.315,100.563 
					260.155,101.762 258.235,102.962 256.075,104.163 253.915,105.123 251.754,106.323 249.596,107.522 247.676,108.723 
					245.516,109.922 243.355,110.882 241.195,112.083 239.275,113.283 237.115,114.483 234.955,115.682 233.035,116.882 
					231.115,117.842 229.436,118.563 227.516,119.283 225.834,120.243 223.914,121.203 222.234,122.163 220.555,123.362 
					218.875,124.323 217.195,125.283 215.275,126.483 213.834,127.682 211.914,128.643 210.234,129.842 208.795,131.042 
					207.115,132.243 205.436,133.682 203.754,134.882 202.074,136.083 200.395,137.283 198.715,138.483 197.275,139.922 
					195.596,141.123 193.914,142.323 192.234,143.522 190.795,144.723 189.115,145.922 187.436,147.362 185.754,148.563 
					184.074,149.762 182.395,150.962 180.715,151.922 179.275,153.123 177.834,153.362 176.635,153.842 175.436,154.323 
					174.234,154.802 173.035,155.283 171.834,156.002 170.635,156.483 169.436,157.203 168.235,157.442 167.036,157.922 
					165.834,158.163 164.635,158.403 163.435,158.403 161.995,158.163 160.795,157.682 159.355,156.962 160.795,156.483 
					162.235,156.243 163.675,156.002 165.116,156.002 166.555,156.002 167.995,156.002 169.436,155.762 170.635,155.283 
					171.115,154.563 171.596,154.083 172.074,153.842 172.795,153.602 173.516,153.602 174.475,153.602 175.195,153.602 
					176.154,153.362 175.676,152.882 175.195,152.403 174.475,152.403 173.754,152.403 173.035,152.643 172.314,152.882 
					171.596,152.882 170.875,152.643 170.154,153.123 169.195,153.362 168.475,153.602 167.515,153.842 166.555,153.842 
					165.595,154.083 164.875,154.323 163.915,154.323 162.956,154.563 161.995,154.802 161.036,154.802 160.315,155.042 
					159.355,155.283 158.395,155.762 157.675,156.002 156.956,156.483 155.515,156.723 154.075,156.723 152.875,156.962 
					151.435,157.442 150.235,157.922 149.036,158.403 147.834,158.882 146.635,159.602 145.675,160.323 144.475,161.042 
					143.515,161.762 142.315,162.483 141.355,163.203 140.155,164.163 139.196,164.882 138.235,165.602 137.275,165.842 
					136.555,166.083 135.595,166.083 134.635,166.083 133.675,166.323 132.956,166.323 131.995,166.563 131.275,166.802 
					130.555,167.522 130.075,168.243 129.834,168.962 129.834,169.922 129.834,170.643 129.834,171.602 129.834,172.323 
					129.355,173.042 129.355,174.002 129.355,174.962 129.595,175.922 129.595,176.882 129.834,177.842 129.834,178.563 
					130.075,179.522 130.315,180.483 130.555,181.203 130.795,182.163 131.036,182.882 131.515,183.842 131.995,184.563 
					132.475,185.283 132.956,186.002 133.435,186.723 134.875,187.682 136.315,188.403 137.754,189.123 139.196,189.842 
					140.635,190.323 142.315,190.802 143.754,191.042 145.435,191.522 147.116,191.522 148.555,191.762 150.235,191.762 
					151.915,191.762 153.595,191.522 155.036,191.283 156.715,191.042 158.155,190.563 159.116,190.563 160.075,190.323 
					160.795,190.083 161.754,189.842 162.475,189.602 163.435,189.123 164.155,188.882 165.116,188.403 165.834,188.163 
					166.795,187.922 167.515,187.682 168.475,187.442 169.195,187.442 170.154,187.203 171.115,187.442 172.074,187.442 
					173.994,188.643 175.676,189.602 177.834,190.563 179.754,191.042 181.676,191.762 183.834,192.002 185.994,192.243 
					188.154,192.483 190.314,192.483 192.475,192.483 194.635,192.483 196.795,192.243 198.955,192.002 201.115,191.762 
					203.275,191.522 205.436,191.283 207.115,191.042 208.795,191.042 210.475,190.802 212.154,190.563 213.834,190.083 
					215.275,189.842 216.955,189.362 218.635,189.123 220.074,188.643 221.516,188.163 223.195,187.682 224.875,187.203 
					226.314,186.723 227.754,186.002 229.436,185.522 230.875,185.042 232.314,184.563 233.994,184.083 235.436,183.362 
					237.115,182.882 238.555,182.403 240.234,181.922 241.676,181.442 243.115,180.962 244.795,180.483 246.234,180.002 
					247.914,179.522 249.596,179.042 251.035,178.802 252.716,178.323 254.396,178.083 256.075,177.842 258.235,177.842 
					260.636,177.602 263.036,177.602 265.437,177.362 267.595,177.123 269.995,176.882 272.396,176.403 274.796,176.163 
					277.196,175.922 279.595,175.682 281.995,175.442 284.396,175.203 286.796,174.962 289.196,174.962 291.595,174.723 
					293.995,174.723 295.915,174.723 297.835,174.723 299.755,174.723 301.675,175.203 303.595,175.442 305.515,175.922 
					307.196,176.403 309.116,176.882 311.036,177.602 312.716,178.083 314.636,178.563 316.556,179.042 318.476,179.522 
					320.396,179.762 322.315,180.002 324.235,180.002 327.356,180.002 330.476,180.002 333.595,180.002 336.956,180.002 
					340.075,179.762 343.196,179.522 346.315,179.283 349.437,178.802 352.556,178.083 355.437,177.123 358.315,176.163 
					360.956,174.723 363.595,173.283 365.995,171.362 368.396,169.203 370.556,166.802 371.515,164.163 372.235,161.522 
					372.956,158.643 373.196,156.002 373.437,153.123 373.437,150.243 373.196,147.362 372.956,144.723 372.476,141.842 
					371.755,138.962 371.036,136.323 370.315,133.442 369.356,130.802 368.636,128.163 367.437,125.762 366.476,123.123 
					366.235,121.682 365.995,120.243 365.995,119.042 365.995,117.602 366.235,116.163 366.476,114.962 366.716,113.522 
					366.956,112.323 367.437,110.882 367.915,109.682 368.155,108.243 368.636,107.042 369.116,105.602 369.356,104.403 
					369.835,103.203 370.075,101.762 371.036,99.362 372.235,96.962 373.437,94.563 374.396,92.163 375.595,89.762 376.796,87.362 
					377.995,84.962 379.196,82.563 380.396,80.163 381.835,77.762 383.036,75.602 384.476,73.203 385.675,70.802 387.116,68.643 
					388.556,66.243 389.995,64.083 389.995,61.442 				"/>
				<polyline fill-rule="evenodd" clip-rule="evenodd" fill="#86B2D8" points="389.995,61.442 389.515,61.442 388.796,62.882 
					388.315,64.323 387.595,65.762 386.876,67.203 386.155,68.643 385.196,70.083 384.476,71.283 383.515,72.483 382.796,73.442 
					382.075,74.643 381.356,75.602 380.876,76.802 380.155,78.002 379.675,79.203 379.196,80.403 378.716,81.602 378.235,82.802 
					377.755,84.002 377.276,85.203 376.556,86.403 376.075,87.362 375.356,88.563 374.636,89.762 373.915,90.723 373.675,91.682 
					373.437,92.643 373.196,93.362 372.716,94.323 372.235,95.042 371.755,96.002 371.515,96.723 370.796,97.442 370.556,98.403 
					370.075,99.123 369.595,99.842 369.356,100.802 368.876,101.762 368.636,102.483 368.636,103.442 368.636,104.403 
					367.437,106.323 366.476,108.483 365.755,110.643 365.276,112.802 365.036,114.962 365.036,117.123 365.036,119.522 
					365.276,121.682 365.515,124.083 365.995,126.243 366.716,128.403 367.437,130.802 368.155,132.723 369.116,134.882 
					369.835,136.802 370.796,138.723 371.276,140.882 371.515,143.042 371.995,145.203 372.235,147.362 372.476,149.522 
					372.476,151.682 372.476,153.842 372.235,156.002 371.995,158.163 371.515,160.323 370.796,162.243 370.075,164.163 
					369.116,166.083 367.915,167.762 366.476,169.203 364.796,170.643 362.396,171.842 359.995,173.042 357.595,174.002 
					354.956,174.723 352.315,175.442 349.675,176.163 347.036,176.643 344.396,177.123 341.755,177.602 338.876,177.842 
					336.235,177.842 333.595,178.083 330.716,178.083 328.075,178.083 325.675,178.083 323.036,177.842 321.116,177.602 
					318.956,177.123 317.036,176.643 314.876,176.163 312.956,175.682 310.796,175.203 308.876,174.723 306.716,174.243 
					304.796,174.002 302.636,173.522 300.476,173.283 298.556,173.042 296.396,173.042 294.476,173.042 292.315,173.283 
					290.155,173.522 288.476,173.762 287.036,174.002 285.595,174.002 283.915,174.243 282.235,174.243 280.796,174.483 
					279.116,174.483 277.675,174.723 276.235,174.723 274.556,174.962 273.116,174.962 271.675,175.203 269.995,175.203 
					268.556,175.442 267.116,175.442 265.437,175.682 263.995,175.682 262.556,175.922 261.116,176.163 259.437,176.163 
					257.995,176.403 256.556,176.643 255.116,176.882 253.675,176.882 251.994,177.123 250.555,177.602 249.115,177.842 
					247.676,178.083 246.234,178.323 244.555,178.802 243.115,179.042 241.676,179.522 239.994,180.483 238.074,181.203 
					236.154,182.163 234.475,182.882 232.555,183.602 230.635,184.323 228.715,185.042 226.795,185.522 224.875,186.002 
					222.955,186.723 221.035,187.203 218.875,187.682 216.955,188.163 214.795,188.403 212.875,188.882 210.955,189.123 
					208.555,189.602 206.154,189.842 203.754,190.323 201.355,190.563 198.955,190.802 196.555,190.802 194.154,191.042 
					191.516,191.042 189.115,190.802 186.715,190.563 184.555,190.083 182.154,189.602 179.994,188.882 177.834,187.922 
					175.676,186.723 173.754,185.522 173.754,185.042 173.516,184.802 173.275,184.323 172.795,184.083 172.555,184.083 
					172.074,184.083 171.596,184.083 171.355,184.323 170.154,185.042 169.195,185.522 167.995,186.002 166.795,186.483 
					165.595,186.962 164.395,187.442 163.435,187.922 161.995,188.163 160.795,188.403 159.834,188.882 158.395,189.123 
					157.196,189.362 155.995,189.602 154.795,189.842 153.595,189.842 152.155,190.083 150.715,190.323 149.275,190.323 
					147.834,190.323 146.155,190.083 144.715,189.842 143.275,189.602 141.834,189.123 140.635,188.643 139.196,187.922 
					137.995,187.442 136.795,186.483 135.595,185.522 134.635,184.563 133.675,183.602 132.956,182.403 132.235,180.962 
					131.995,180.243 131.995,179.283 131.754,178.563 131.754,177.602 131.754,176.882 131.754,176.163 131.995,175.203 
					132.475,174.483 133.196,174.483 133.915,174.723 134.635,174.723 135.355,174.723 136.315,174.723 137.036,174.723 
					137.754,174.723 138.715,174.723 139.435,174.723 140.395,174.483 141.116,174.483 141.834,174.002 142.555,173.762 
					143.275,173.283 143.754,172.802 144.235,172.083 144.235,171.362 143.754,170.643 143.275,169.922 142.795,169.442 
					142.315,168.723 142.075,168.002 141.834,167.283 141.834,166.323 142.555,165.362 143.036,165.123 143.275,165.362 
					143.275,166.083 143.515,167.042 143.754,167.762 144.235,168.243 144.956,168.483 144.715,168.002 144.715,167.522 
					144.475,167.283 144.235,166.802 143.995,166.563 143.754,166.083 143.754,165.602 143.754,165.123 145.196,164.163 
					146.635,163.442 148.315,162.962 149.995,162.723 151.675,162.483 153.355,162.243 155.036,162.002 156.715,161.762 
					158.395,161.762 160.315,161.522 161.995,161.283 163.435,161.042 165.116,160.323 166.795,159.842 168.235,158.882 
					169.436,157.922 171.355,157.442 173.035,157.203 174.955,156.483 176.635,155.762 178.314,155.042 179.994,154.323 
					181.436,153.362 183.115,152.403 184.555,151.442 186.234,150.243 187.676,149.042 189.115,148.083 190.555,146.882 
					191.994,145.682 193.436,144.483 194.635,143.283 197.035,141.362 199.195,139.442 201.596,137.762 203.754,135.842 
					206.154,134.403 208.314,132.723 210.715,131.042 213.115,129.362 215.516,127.922 217.914,126.483 220.314,125.042 
					222.715,123.602 225.115,122.163 227.516,120.962 230.154,119.522 232.555,118.083 234.955,116.882 237.355,115.442 
					239.994,114.243 242.395,112.802 244.795,111.602 247.436,110.163 249.834,108.962 252.235,107.522 254.636,106.083 
					257.036,104.643 259.437,103.203 261.835,101.762 264.235,100.323 266.636,98.643 269.036,97.203 271.437,95.522 
					273.835,93.842 276.235,92.163 278.396,90.243 280.315,88.323 281.995,86.163 283.915,84.002 285.595,81.602 287.036,79.442 
					288.716,77.042 290.155,74.643 291.595,72.243 293.036,69.842 294.235,67.442 295.675,65.042 297.116,62.882 298.556,60.483 
					299.036,59.283 299.755,58.083 300.235,56.882 300.716,55.682 301.437,54.483 301.915,53.283 302.636,52.083 303.116,50.882 
					303.835,49.682 304.315,48.483 305.036,47.522 305.755,46.323 306.476,45.123 307.196,43.922 307.915,42.962 308.636,41.762 
					308.636,40.563 				"/>
				<polygon fill-rule="evenodd" clip-rule="evenodd" fill="#86B2D8" points="146.155,161.522 146.395,161.042 147.116,160.802 
					147.834,160.563 148.555,160.323 149.275,160.083 149.995,159.842 150.475,159.362 151.196,159.362 152.155,159.123 
					152.875,158.882 153.595,158.882 154.315,158.643 155.036,158.643 155.754,158.643 156.235,158.643 156.956,158.643 
					157.675,158.643 158.395,158.643 159.116,158.882 159.834,158.882 160.555,159.123 161.515,159.123 162.235,159.362 
					161.036,159.602 160.075,159.842 159.116,160.083 157.915,160.323 156.956,160.323 155.995,160.323 155.036,160.323 
					153.834,160.563 152.875,160.563 151.915,160.563 150.715,160.802 149.754,160.802 148.795,161.042 147.834,161.283 
					146.875,161.762 145.675,162.002 				"/>
				<polygon fill-rule="evenodd" clip-rule="evenodd" fill="#86B2D8" points="131.275,170.163 131.754,168.962 132.715,168.243 
					133.675,168.002 134.875,167.762 136.315,167.522 137.754,167.522 138.956,167.283 140.155,166.802 140.875,168.962 
					143.036,171.362 142.315,171.602 141.355,171.602 140.635,171.842 139.915,171.842 138.956,172.083 138.235,172.323 
					137.275,172.323 136.555,172.563 135.834,172.563 134.875,172.563 134.155,172.323 133.435,172.083 132.956,171.842 
					132.235,171.362 131.754,170.882 				"/>
				<polyline fill-rule="evenodd" clip-rule="evenodd" fill="#86B2D8" points="176.631,153.846 175.43,154.326 174.23,154.806 
					173.031,155.286 171.83,156.006 170.631,156.486 169.43,157.206 168.23,157.445 167.031,157.926 165.83,158.166 164.63,158.406 
					163.43,158.406 161.99,158.166 160.791,157.686 159.35,156.966 160.791,156.486 162.23,156.246 163.67,156.006 165.111,156.006 
					166.55,156.006 167.99,156.006 169.43,155.766 170.631,155.286 171.111,154.566 171.59,154.086 172.07,153.846 172.791,153.605 
					173.51,153.605 174.471,153.605 175.191,153.605 176.15,153.365 				"/>
			</g>
			<text transform="matrix(1 0 0 1 339.2256 32.4199)" fill="#0DB14B" font-size="12">Head (H) also</text>
			<text transform="matrix(1 0 0 1 396.0996 146.6196)" fill="#0DB14B" font-size="12">Head (H)</text>
			<text transform="matrix(1 0 0 1 57.6528 184.3931)" fill="#0DB14B" font-size="12">Foot (F) </text>
			<g>
				<g>
					<line fill="none" stroke="#0DB14B" stroke-width="2" x1="386.087" y1="144.076" x2="110.921" y2="178.472"/>
					<path fill="#0DB14B" d="M111.934,178.345l2.62,3.304l-0.111,0.096l-6.119-1.586c-2.087-0.193-4.174-0.386-6.261-0.579
						c1.975-0.701,3.951-1.401,5.926-2.103l5.54-3.044l0.129,0.046L111.934,178.345z"/>
					<path fill="#0DB14B" d="M385.075,144.203l-2.621-3.303l0.111-0.096l6.119,1.586c2.087,0.193,4.175,0.386,6.262,0.579
						c-1.976,0.701-3.951,1.401-5.926,2.103l-5.541,3.044l-0.129-0.046L385.075,144.203z"/>
				</g>
			</g>
			<g>
				<g>
					
						<line fill="none" stroke="#0DB14B" stroke-width="2" stroke-dasharray="6,3" x1="356.294" y1="45.381" x2="333.392" y2="102.232"/>
					<path fill="#0DB14B" d="M355.913,46.328l-4.161,0.685l-0.029-0.144l4.359-4.577c1.183-1.73,2.365-3.461,3.548-5.192
						c-0.347,2.067-0.694,4.134-1.041,6.201l-0.031,6.322l-0.103,0.09L355.913,46.328z"/>
				</g>
			</g>
			<text transform="matrix(1 0 0 1 238.6396 213.7505)" fill="#ED1C24" font-size="12">Posterior (P)</text>
			<text transform="matrix(1 0 0 1 215.4561 73.8809)" fill="#ED1C24" font-size="12">Anterior (A)</text>
			<g>
				<g>
					<line fill="none" stroke="#ED1C24" stroke-width="2" x1="247.912" y1="86.898" x2="270.989" y2="192.313"/>
					<path fill="#ED1C24" d="M270.771,191.316l3.051-2.91l0.106,0.103l-1.023,6.238c-0.002,2.096-0.004,4.192-0.007,6.288
						c-0.877-1.902-1.755-3.807-2.633-5.709l-3.536-5.24l0.034-0.133L270.771,191.316z"/>
					<path fill="#ED1C24" d="M248.131,87.895l-3.052,2.91l-0.106-0.103l1.023-6.238c0.002-2.096,0.004-4.192,0.007-6.288
						c0.878,1.903,1.755,3.807,2.633,5.71l3.536,5.24l-0.033,0.133L248.131,87.895z"/>
				</g>
			</g>
			<g>
				<text transform="matrix(0.9288 0 0 1 166.3423 25.2197)" font-size="12">Right Foot</text>
			</g>
		</g>
		<g>
			<g>
				<polyline fill-rule="evenodd" clip-rule="evenodd" points="288.198,313.547 288.198,316.186 288.198,318.586 288.198,321.227 
					288.438,323.867 288.438,326.506 288.679,329.146 288.679,331.547 288.919,334.186 289.159,336.826 289.397,339.467 
					289.878,342.107 290.358,344.506 290.839,347.146 291.319,349.787 291.798,352.186 292.519,354.826 292.759,364.906 
					292.519,365.627 292.519,366.586 292.278,367.307 292.038,368.027 291.798,368.986 291.558,369.707 291.558,370.666 
					291.319,371.387 291.079,372.107 290.839,373.066 290.599,373.787 290.358,374.506 290.118,375.227 289.878,376.186 
					289.638,376.906 289.397,377.867 289.878,379.547 290.358,381.467 290.839,383.146 291.079,385.066 291.558,386.746 
					291.798,388.666 292.038,390.586 292.278,392.506 292.519,394.188 292.759,396.107 292.759,398.027 292.999,399.947 
					292.999,401.867 293.239,403.787 293.478,405.707 293.478,407.387 293.718,409.307 293.958,411.227 294.198,413.146 
					294.438,415.066 294.438,416.746 294.919,418.666 295.159,420.346 295.638,422.266 295.878,424.188 296.358,425.867 
					296.839,427.547 297.319,429.467 298.038,431.146 298.759,432.826 299.478,434.506 300.438,436.188 300.679,437.146 
					300.919,438.107 301.159,439.066 301.638,440.027 301.878,441.227 302.358,442.188 302.599,443.146 302.839,444.107 
					303.079,445.066 303.558,446.266 303.798,447.227 303.798,448.188 304.038,449.146 304.278,450.107 304.278,451.066 
					304.278,452.027 304.519,453.707 304.519,455.146 304.759,456.586 304.759,458.027 304.759,459.707 304.759,461.146 
					304.759,462.586 304.519,464.027 304.519,465.467 304.278,466.906 303.798,468.346 303.558,469.547 303.079,470.986 
					302.599,472.188 302.118,473.627 301.397,474.826 300.198,476.027 299.478,477.227 298.999,478.666 298.519,480.107 
					298.519,481.547 298.278,482.986 298.278,484.426 298.519,486.107 298.519,487.547 298.759,488.986 298.759,490.666 
					298.759,492.107 298.759,493.547 298.519,495.227 298.038,496.666 297.558,498.107 296.839,499.307 295.878,500.506 
					295.159,501.467 294.198,502.426 292.999,503.146 292.038,504.107 290.839,504.826 289.638,505.307 288.438,505.787 
					286.999,506.266 285.798,506.746 284.358,506.986 283.159,507.227 281.718,507.467 280.278,507.707 278.839,507.707 
					277.878,507.467 276.679,507.227 275.718,507.227 274.759,506.986 273.798,506.746 272.839,506.506 271.878,506.266 
					270.919,505.787 269.958,505.547 268.999,505.066 268.278,504.586 267.319,503.867 266.599,503.387 265.878,502.666 
					265.397,501.707 264.679,500.746 263.478,501.467 262.278,501.947 261.079,502.426 259.878,502.906 258.679,503.387 
					257.237,503.627 256.038,503.627 254.599,503.627 253.638,503.146 252.438,502.426 251.479,501.467 250.758,500.746 
					250.037,499.547 249.318,498.586 248.598,497.627 247.877,496.426 246.678,496.906 245.479,497.146 244.037,497.387 
					242.838,497.387 241.398,497.387 240.197,497.146 238.758,496.906 237.559,496.426 236.838,495.707 236.357,494.986 
					235.877,494.266 235.398,493.547 234.918,492.826 234.678,491.867 234.197,491.146 233.479,490.426 232.758,490.906 
					232.037,491.387 231.078,491.627 230.117,491.867 229.158,491.867 228.197,492.107 227.238,492.107 226.277,492.107 
					225.559,491.627 224.598,491.146 223.877,490.426 223.158,489.947 222.438,489.227 221.957,488.506 221.479,487.547 
					220.758,486.826 220.758,486.107 220.758,485.627 220.518,484.906 220.518,484.426 220.277,483.947 220.037,483.467 
					220.037,482.986 219.559,482.506 218.838,482.746 217.877,483.227 217.158,483.467 216.197,483.467 215.238,483.467 
					214.277,483.467 213.318,483.467 212.357,483.227 210.918,482.506 209.957,481.787 208.998,480.826 208.277,479.627 
					207.559,478.188 207.078,476.986 206.598,475.547 206.117,474.346 205.877,472.906 205.637,471.467 205.637,470.027 
					205.637,468.826 205.637,467.387 205.877,466.188 206.117,464.746 206.357,463.547 206.598,462.346 206.838,460.906 
					207.318,459.707 207.797,458.506 208.277,457.307 208.758,456.107 209.238,454.906 209.957,453.947 210.438,452.506 
					210.678,451.307 210.918,449.867 211.158,448.426 211.158,446.986 211.398,445.547 211.398,444.107 211.398,442.666 
					211.398,441.227 211.398,439.787 211.158,438.346 211.158,436.906 210.918,435.227 210.918,433.787 210.678,432.346 
					210.438,431.146 210.678,429.947 210.918,428.746 211.158,427.787 211.398,426.586 211.398,425.387 211.637,424.188 
					211.877,423.227 211.877,421.787 212.117,420.826 212.357,419.627 212.598,418.426 212.838,417.227 213.078,416.027 
					213.318,415.066 213.559,413.867 214.037,412.906 214.758,410.986 215.479,409.066 216.197,407.387 216.918,405.467 
					217.877,403.787 218.598,401.867 219.318,399.947 220.037,398.027 220.758,396.346 221.479,394.426 222.197,392.746 
					223.158,390.826 224.117,389.146 224.838,387.227 225.797,385.547 226.758,383.867 229.398,377.146 228.918,374.986 
					228.197,372.586 227.717,370.426 227.479,368.027 227.238,365.867 226.998,363.467 226.998,361.066 226.998,358.906 
					227.238,356.506 227.479,354.346 227.717,351.947 228.197,349.787 228.918,347.627 229.637,345.467 230.357,343.307 
					231.318,341.387 231.797,339.467 232.037,337.787 232.277,336.107 232.518,334.426 232.758,332.746 232.998,331.066 
					233.238,329.387 233.479,327.707 233.717,326.027 234.197,324.107 234.438,322.426 234.678,320.746 234.918,319.066 
					235.158,317.387 235.398,315.707 235.637,314.028 236.117,314.028 				"/>
				<polyline fill-rule="evenodd" clip-rule="evenodd" fill="#86B2D8" points="236.117,314.028 236.357,314.266 236.117,316.906 
					235.877,319.307 235.398,321.707 235.158,324.107 234.918,326.746 234.438,329.146 233.957,331.547 233.479,333.947 
					233.238,336.346 232.758,338.746 232.037,341.146 231.559,343.307 231.078,345.707 230.357,348.107 229.637,350.266 
					228.918,352.666 228.678,353.867 228.678,355.307 228.438,356.506 228.438,357.947 228.197,359.146 228.197,360.586 
					228.197,361.787 228.438,363.227 228.438,364.426 228.678,365.867 228.918,367.066 229.398,368.266 229.637,369.467 
					230.117,370.666 230.838,371.867 231.318,373.066 231.797,372.346 232.277,371.627 232.518,371.146 232.758,370.426 
					232.758,369.707 232.998,368.986 233.238,368.266 233.479,367.787 233.717,368.506 233.717,369.227 233.479,369.947 
					233.238,370.666 232.998,371.627 232.758,372.346 232.277,373.066 232.037,374.027 231.078,376.426 230.117,378.826 
					229.158,380.986 227.957,383.387 226.998,385.787 225.797,388.186 224.598,390.346 223.398,392.746 222.438,395.146 
					221.479,397.547 220.277,399.947 219.318,402.346 218.357,404.506 217.398,406.906 216.438,409.547 215.717,411.947 
					215.238,413.146 214.758,414.107 214.518,415.307 214.277,416.506 214.037,417.467 214.037,418.666 213.797,419.867 
					213.559,421.066 213.559,422.266 213.318,423.227 213.318,424.666 213.078,425.627 212.838,426.826 212.838,428.027 
					212.598,429.227 212.117,430.426 212.357,431.627 212.357,432.826 212.598,434.027 212.838,435.227 212.838,436.426 
					213.078,437.627 213.078,438.826 213.318,440.027 213.318,441.227 213.318,442.426 213.318,443.387 213.318,444.826 
					213.318,445.787 213.078,446.986 212.838,448.188 212.357,449.146 212.598,450.346 212.357,451.307 212.117,452.266 
					211.637,453.227 211.398,454.188 210.678,455.146 210.197,456.107 209.957,457.066 209.238,458.027 208.998,459.227 
					208.518,460.188 208.037,461.387 207.797,462.586 207.559,463.547 207.318,464.746 207.078,465.947 206.838,466.906 
					206.838,468.107 206.598,469.307 206.838,470.506 206.838,471.707 206.838,472.906 207.078,474.107 207.318,475.547 
					207.797,476.746 208.518,477.947 209.479,478.906 210.678,479.627 211.637,480.346 213.078,480.826 214.277,481.307 
					215.717,481.547 215.957,481.547 216.438,481.547 216.918,481.307 217.158,481.066 217.637,480.826 217.877,480.586 
					218.357,480.346 218.598,480.107 218.598,478.906 218.598,477.947 218.838,476.986 219.078,476.266 219.318,475.307 
					219.559,474.346 219.797,473.387 219.559,472.426 219.797,471.707 220.037,470.986 220.277,470.266 220.277,469.547 
					220.518,468.826 220.758,468.346 221.238,467.867 221.717,467.627 221.479,468.826 221.238,470.027 220.998,470.986 
					220.758,472.188 220.758,473.387 220.518,474.586 220.518,475.787 220.277,476.746 220.277,477.947 220.277,479.146 
					220.518,480.107 220.518,481.307 220.758,482.506 220.998,483.707 221.238,484.906 221.717,486.107 221.957,486.826 
					222.438,487.307 222.918,487.787 223.637,488.266 224.357,488.506 224.838,488.746 225.559,488.986 226.277,489.227 
					226.998,489.227 227.717,489.227 228.438,489.227 229.158,489.227 229.637,489.227 230.357,488.986 230.838,488.746 
					231.318,488.506 231.559,487.547 231.559,486.586 231.797,485.627 232.037,484.666 232.518,483.947 232.758,482.986 
					233.238,482.027 233.717,481.307 234.197,480.346 234.438,479.387 234.918,478.666 235.398,477.707 235.637,476.746 
					235.877,475.787 236.117,475.066 236.357,474.107 236.838,474.107 236.838,475.066 236.598,476.266 236.357,477.227 
					236.117,478.426 235.877,479.627 235.637,480.826 235.158,482.027 234.918,482.986 234.678,484.188 234.678,485.387 
					234.438,486.586 234.438,487.787 234.678,488.746 234.918,489.947 235.398,490.906 236.117,492.107 236.838,493.307 
					237.797,494.027 239.238,494.506 240.438,494.746 241.877,494.746 243.318,494.506 244.998,494.506 246.438,494.506 
					246.678,494.027 247.158,493.307 247.158,492.826 247.398,492.107 247.398,491.387 247.398,490.906 247.637,490.188 
					247.637,489.707 250.518,483.707 250.518,484.666 250.277,485.627 250.037,486.826 250.037,488.027 249.797,489.227 
					249.559,490.666 249.318,491.867 249.318,493.066 249.318,494.266 249.559,495.467 249.797,496.666 250.277,497.867 
					250.758,498.586 251.717,499.547 252.679,500.266 254.118,500.746 255.317,501.227 256.519,501.227 257.718,500.986 
					258.679,500.746 259.878,500.266 261.079,499.787 262.038,499.066 262.999,498.346 262.759,497.146 262.519,495.707 
					262.759,494.506 262.759,493.307 262.999,492.107 263.478,490.906 263.958,489.707 264.438,488.506 264.919,487.307 
					265.397,486.107 266.118,484.906 266.599,483.707 267.079,482.506 267.319,481.307 267.558,480.107 267.798,478.906 
					268.038,478.426 268.278,477.947 268.519,477.707 268.519,477.227 268.519,476.746 268.519,476.506 268.519,476.027 
					268.519,475.547 268.759,475.547 268.999,475.547 268.999,475.787 269.239,476.027 269.718,475.547 269.958,474.826 
					269.958,474.107 269.718,473.387 269.718,472.906 269.718,472.188 270.198,471.947 270.919,471.707 271.878,473.146 
					271.638,474.107 270.919,474.826 270.679,475.547 270.198,476.506 269.718,477.227 269.239,477.947 268.999,478.906 
					268.519,479.627 268.038,480.586 267.798,481.307 267.558,482.027 267.079,482.986 266.839,483.947 266.599,484.666 
					266.358,485.627 266.118,486.346 265.878,487.307 265.638,488.027 265.397,488.746 265.159,489.707 265.159,490.666 
					265.159,491.387 265.159,492.346 265.159,493.066 265.159,494.027 265.397,494.986 265.397,495.707 265.638,496.666 
					265.878,497.387 266.358,498.107 266.599,498.826 267.079,499.547 267.798,500.506 268.759,501.227 269.478,501.947 
					270.198,502.666 271.159,503.146 272.118,503.627 273.079,504.107 274.278,504.346 275.239,504.586 276.198,504.826 
					277.397,505.066 278.358,505.066 279.558,505.066 280.519,505.066 281.718,505.066 282.679,505.066 283.878,504.826 
					284.839,504.826 286.038,504.586 286.999,504.346 287.958,503.867 288.919,503.627 289.878,502.906 290.839,502.426 
					291.798,501.947 292.759,501.227 293.478,500.746 294.438,500.027 295.159,499.066 295.878,498.346 296.599,497.387 
					297.079,496.426 297.319,495.467 297.558,494.506 297.798,493.547 298.038,492.346 298.038,491.387 298.038,490.426 
					298.038,489.467 298.038,488.506 298.038,487.307 297.798,486.346 297.798,485.387 297.558,484.188 297.558,483.227 
					297.319,482.266 297.319,481.066 297.319,480.107 297.558,479.387 297.798,478.426 298.278,477.707 298.519,476.986 
					298.999,476.266 299.478,475.547 299.718,474.826 300.198,474.107 300.679,473.627 301.159,472.906 301.397,472.188 
					301.878,471.467 302.358,470.746 302.599,470.027 302.839,469.307 303.079,468.586 303.558,466.426 303.798,464.266 
					304.278,462.346 304.278,460.426 304.278,458.506 304.278,456.346 304.038,454.666 303.798,452.746 303.558,450.826 
					303.319,448.906 302.839,446.986 302.358,445.307 301.878,443.387 301.159,441.707 300.679,439.787 299.958,438.107 
					299.478,436.188 298.759,434.506 298.038,432.586 297.558,430.906 296.839,428.986 296.118,427.307 295.638,425.387 
					295.159,423.467 294.438,421.787 293.958,419.867 293.718,417.947 293.239,416.027 292.999,414.107 292.759,412.188 
					292.519,410.266 292.519,408.107 292.519,405.947 292.519,403.547 292.519,401.387 292.278,398.986 292.038,396.826 
					291.798,394.426 291.558,392.266 291.079,390.107 290.599,387.947 290.118,385.787 289.638,383.627 289.159,381.467 
					288.919,379.307 288.438,377.146 288.198,374.986 287.718,372.826 287.478,372.107 287.239,371.627 287.239,371.146 
					287.239,370.666 287.239,369.947 287.239,369.467 287.478,368.746 287.478,368.266 287.718,368.986 287.958,369.707 
					287.958,370.426 288.198,371.387 288.198,372.107 288.198,373.066 288.679,373.787 288.919,374.506 290.118,372.107 
					290.839,369.467 291.319,367.066 291.558,364.426 291.798,361.787 291.798,359.146 291.558,356.506 291.319,354.107 
					290.839,351.467 290.358,348.826 289.878,346.186 289.397,343.547 289.159,340.906 288.679,338.506 288.438,335.867 
					288.198,333.467 287.478,328.666 287.478,313.547 				"/>
				<g>
					<polyline fill-rule="evenodd" clip-rule="evenodd" fill="#010101" points="265.878,427.547 265.878,427.066 265.638,426.586 
						265.397,426.107 265.159,425.387 264.919,424.906 264.919,424.426 264.919,423.707 265.159,423.227 265.159,423.707 
						265.159,424.426 265.397,424.906 265.638,425.387 265.878,426.107 265.878,426.586 265.878,427.066 265.878,427.547 					"/>
					<polyline fill-rule="evenodd" clip-rule="evenodd" fill="#010101" points="239.957,429.467 240.918,423.947 240.918,424.666 
						240.918,425.387 240.918,425.867 240.918,426.826 240.678,427.547 240.678,428.266 240.438,428.746 239.957,429.467 					"/>
					<polyline fill-rule="evenodd" clip-rule="evenodd" fill="#010101" points="236.838,444.346 237.078,443.387 237.318,441.947 
						237.559,440.746 237.797,439.547 238.037,438.346 238.277,436.906 238.758,435.707 239.238,434.506 236.838,444.346 					"/>
					<polyline fill-rule="evenodd" clip-rule="evenodd" fill="#010101" points="252.198,444.107 252.198,444.826 252.198,445.547 
						252.438,446.506 252.438,447.467 252.438,448.426 252.438,449.387 252.198,450.346 251.957,451.307 251.957,444.107 
						252.198,444.107 					"/>
					<polyline fill-rule="evenodd" clip-rule="evenodd" fill="#010101" points="268.519,452.027 268.038,451.547 268.038,451.066 
						267.798,450.586 267.798,449.867 267.798,449.146 267.798,448.426 267.798,447.947 267.798,447.467 268.519,452.027 					"/>
					<polyline fill-rule="evenodd" clip-rule="evenodd" fill="#010101" points="229.158,456.107 229.398,455.867 229.637,455.627 
						229.877,455.387 230.357,455.387 230.598,455.387 230.838,455.387 231.078,455.387 231.318,455.627 231.318,456.346 
						230.598,456.586 229.637,456.826 228.678,457.066 227.717,457.547 226.758,458.266 226.037,458.746 225.559,459.707 
						224.838,460.666 224.838,460.188 224.838,459.947 224.598,459.707 224.357,459.227 224.357,458.986 224.117,458.746 
						224.117,458.266 224.117,458.027 225.318,457.547 225.318,457.066 225.078,456.826 224.838,456.586 224.838,456.346 
						226.758,457.307 226.998,454.906 227.238,455.627 227.717,456.107 228.438,456.346 229.158,456.107 					"/>
					<polyline fill-rule="evenodd" clip-rule="evenodd" fill="#010101" points="245.717,460.426 244.758,460.666 243.797,461.146 
						242.838,461.387 241.877,461.867 240.918,462.346 239.957,463.066 239.238,463.787 238.758,464.746 239.238,461.867 
						239.238,461.867 239.717,461.867 239.957,461.867 239.957,461.627 239.957,461.146 239.717,460.906 239.479,460.666 
						239.717,459.947 239.717,459.947 239.717,459.947 239.957,459.947 239.957,459.947 240.678,460.666 240.918,459.227 
						241.398,459.947 242.117,460.426 242.598,460.188 243.318,459.947 243.797,459.707 244.518,459.707 244.998,459.707 
						245.717,460.426 					"/>
					<polyline fill-rule="evenodd" clip-rule="evenodd" fill="#010101" points="223.637,462.107 223.398,462.107 222.918,461.627 
						222.678,461.146 222.438,460.666 222.918,460.426 223.398,460.666 223.637,461.146 223.637,461.627 223.637,462.107 					"/>
					<polyline fill-rule="evenodd" clip-rule="evenodd" fill="#010101" points="238.518,465.947 238.037,465.947 237.559,465.467 
						237.318,464.986 237.078,464.746 237.318,464.506 237.797,464.746 238.037,465.227 238.277,465.707 238.518,465.947 					"/>
					<polyline fill-rule="evenodd" clip-rule="evenodd" fill="#010101" points="262.519,465.947 262.519,466.906 261.558,466.666 
						260.599,466.666 259.878,466.906 258.919,467.146 258.198,467.867 257.478,468.346 256.759,468.826 256.038,469.547 
						255.558,470.027 255.079,470.506 254.599,471.227 254.358,471.947 254.118,472.666 253.638,473.146 253.397,473.867 
						252.919,474.346 252.919,474.107 253.157,473.627 253.397,473.146 253.638,472.666 253.638,472.188 253.638,471.707 
						253.638,471.227 252.919,470.746 252.919,470.506 252.919,470.266 252.919,469.787 253.157,469.547 254.118,470.506 
						254.358,470.027 254.599,469.787 254.599,469.547 254.358,469.307 254.358,469.066 254.118,468.826 254.118,468.346 
						254.118,468.107 254.358,467.867 254.839,468.107 255.079,468.346 255.079,468.586 255.317,466.426 255.798,466.188 
						256.038,466.426 256.038,466.666 256.038,467.146 256.038,467.146 256.278,467.387 256.278,467.387 256.519,467.627 
						256.519,467.627 256.759,467.387 256.759,467.146 256.999,467.146 256.759,466.906 256.759,466.426 256.759,466.188 
						256.759,465.947 257.237,466.188 257.958,466.188 258.679,465.947 259.397,465.707 260.358,465.467 261.079,465.227 
						261.798,465.467 262.519,465.947 					"/>
					<polyline fill-rule="evenodd" clip-rule="evenodd" fill="#010101" points="237.559,467.867 237.559,468.107 236.838,467.627 
						237.078,467.627 237.318,467.627 237.559,467.627 237.559,467.867 					"/>
					<polyline fill-rule="evenodd" clip-rule="evenodd" fill="#010101" points="274.038,470.027 273.558,470.027 273.079,469.307 
						272.839,468.586 272.599,468.107 273.079,468.586 273.558,469.066 273.798,469.547 274.038,470.027 					"/>
					<polyline fill-rule="evenodd" clip-rule="evenodd" fill="#010101" points="278.118,469.547 274.519,470.746 274.519,470.506 
						274.759,470.266 274.999,470.027 275.478,469.787 275.958,469.547 276.198,469.307 276.679,469.066 277.159,469.066 
						277.638,469.066 277.878,469.066 278.118,469.307 278.118,469.547 					"/>
					<polyline fill-rule="evenodd" clip-rule="evenodd" fill="#010101" points="272.839,471.467 272.599,471.707 272.358,471.467 
						272.118,471.227 271.878,470.986 271.638,470.506 271.397,470.266 271.397,470.027 271.159,469.547 271.159,469.307 
						271.638,469.547 272.118,470.027 272.358,470.746 272.839,471.467 					"/>
					<polyline fill-rule="evenodd" clip-rule="evenodd" fill="#010101" points="217.158,470.506 217.158,471.227 216.438,471.467 
						215.479,471.467 214.277,471.467 213.318,471.707 212.357,471.707 211.637,472.188 210.918,472.666 210.438,473.627 
						211.637,473.627 212.598,473.867 213.797,473.867 214.758,473.867 215.717,473.867 216.678,474.107 217.398,474.586 
						218.117,475.547 217.637,475.787 217.158,475.787 216.678,475.787 216.197,475.547 215.717,475.547 215.238,475.307 
						214.998,475.066 214.518,475.066 213.797,474.826 213.078,474.826 212.357,475.066 211.637,475.066 210.918,475.066 
						210.438,475.066 209.957,474.826 209.717,474.346 209.957,473.627 209.957,472.906 209.957,472.188 210.197,471.227 
						210.438,470.746 210.678,470.027 211.398,469.787 212.117,469.547 212.838,469.307 213.559,469.307 214.277,469.547 
						214.998,469.547 215.479,469.787 215.957,470.027 216.678,470.266 217.158,470.506 					"/>
					<polyline fill-rule="evenodd" clip-rule="evenodd" fill="#010101" points="230.838,478.426 230.357,478.666 229.877,478.426 
						229.398,478.188 228.918,477.947 228.197,477.947 227.479,477.947 226.518,477.947 225.797,478.188 225.078,478.188 
						224.598,478.426 223.877,478.906 223.398,479.627 223.637,480.346 224.117,480.826 224.838,481.066 225.797,480.826 
						226.758,480.826 227.479,480.586 228.438,480.586 229.158,480.826 229.398,481.066 229.877,481.307 230.117,481.547 
						230.357,481.787 230.598,482.027 230.838,482.506 230.838,482.746 230.838,483.227 229.877,483.227 228.918,483.227 
						227.957,482.986 226.998,482.746 226.037,482.506 224.838,482.266 224.117,482.506 222.918,483.227 222.678,482.506 
						222.678,481.787 222.678,481.307 222.678,480.586 222.918,479.867 222.918,479.146 222.918,478.426 222.918,477.947 
						223.637,477.467 224.357,476.986 225.078,476.746 225.797,476.746 226.758,476.506 227.479,476.506 228.438,476.746 
						229.158,476.746 229.637,477.227 230.117,477.467 230.598,477.707 230.838,478.426 					"/>
					<polyline fill-rule="evenodd" clip-rule="evenodd" fill="#010101" points="227.717,478.906 227.717,479.387 227.238,479.387 
						226.518,479.627 226.037,479.867 226.037,478.906 227.717,478.906 					"/>
					<polyline fill-rule="evenodd" clip-rule="evenodd" fill="#010101" points="251.238,479.867 251.479,480.107 251.479,480.586 
						251.238,480.826 250.998,481.307 250.518,481.307 250.518,480.826 250.758,480.346 250.758,479.867 251.238,479.867 					"/>
					<polyline fill-rule="evenodd" clip-rule="evenodd" fill="#010101" points="246.438,483.227 246.438,483.947 245.957,483.947 
						245.717,483.947 245.479,483.707 245.238,483.467 244.998,483.467 244.758,483.227 244.277,482.986 244.037,482.746 
						243.318,483.227 242.357,483.227 241.398,483.467 240.438,483.467 239.717,483.707 238.998,484.188 238.277,484.666 
						237.797,485.627 238.277,485.627 238.518,485.867 238.998,485.867 239.479,485.867 239.957,485.627 240.438,485.627 
						240.918,485.627 241.398,485.627 242.117,485.627 242.838,485.627 243.318,485.867 244.037,486.107 244.518,486.346 
						244.998,486.586 245.717,487.066 246.438,487.307 246.438,487.787 245.238,487.787 244.037,487.547 242.838,487.307 
						241.877,487.066 240.678,486.826 239.479,486.826 238.277,487.066 237.078,487.547 236.838,486.826 236.838,486.107 
						237.078,485.387 237.318,484.666 237.797,483.947 238.277,483.467 238.518,482.746 238.758,482.027 239.238,481.547 
						239.957,481.307 240.678,481.307 241.398,481.307 241.877,481.307 242.598,481.307 243.318,481.307 243.797,481.307 
						244.277,481.547 244.518,481.787 244.998,482.027 244.998,482.027 245.238,482.506 245.717,482.746 245.957,482.986 
						246.438,483.227 					"/>
					<polyline fill-rule="evenodd" clip-rule="evenodd" fill="#010101" points="285.798,484.188 285.319,484.188 284.599,484.188 
						283.878,484.188 283.159,484.188 282.438,484.188 281.478,484.188 280.759,484.188 280.038,484.188 279.319,484.188 
						278.358,484.188 277.638,484.426 276.919,484.426 276.198,484.666 275.478,484.906 274.999,485.146 274.278,485.627 
						275.478,485.387 276.438,485.387 277.638,485.146 278.839,484.906 280.038,484.906 281.239,484.906 282.438,485.146 
						283.397,485.627 282.679,485.867 281.718,485.867 280.999,485.867 280.038,485.867 279.079,485.867 278.118,485.867 
						277.159,486.107 276.198,486.107 275.239,486.346 274.519,486.586 273.558,486.826 272.839,487.066 272.118,487.787 
						271.397,488.266 270.919,488.746 270.198,489.707 270.198,489.947 270.198,490.666 269.958,490.906 269.958,491.387 
						269.718,491.867 269.958,492.346 270.198,492.826 270.438,493.307 271.638,492.826 272.839,492.586 274.038,492.346 
						275.239,492.107 276.438,492.107 277.638,491.867 278.839,491.867 280.038,491.627 281.239,491.627 282.438,491.627 
						283.638,491.867 284.839,491.867 286.038,492.107 287.239,492.107 288.438,492.346 289.638,492.826 289.878,493.307 
						289.397,494.027 288.919,494.266 288.198,494.506 286.999,494.266 285.798,494.027 284.599,494.027 283.397,494.027 
						282.198,494.027 280.759,494.027 279.558,494.027 278.358,494.027 277.159,494.266 275.958,494.266 274.759,494.506 
						273.558,494.506 272.358,494.746 271.159,494.746 269.958,494.746 268.759,494.746 268.278,494.506 268.519,494.027 
						268.759,493.307 268.999,492.826 269.239,491.387 269.478,489.947 269.958,488.506 270.438,487.307 271.159,486.107 
						272.358,485.146 273.319,484.188 274.759,483.707 276.198,483.227 277.638,482.986 279.079,482.746 280.519,482.746 
						281.958,482.746 283.397,482.986 284.599,483.467 285.798,484.188 					"/>
					<polyline fill-rule="evenodd" clip-rule="evenodd" fill="#010101" points="260.358,487.307 260.358,488.027 259.397,488.506 
						258.438,488.746 257.237,488.746 256.278,488.986 255.079,488.986 254.118,489.227 253.397,489.947 252.919,490.906 
						254.118,491.387 255.317,491.627 256.759,491.387 257.958,491.387 259.397,491.146 260.358,491.387 261.319,492.107 
						262.038,493.547 261.558,493.547 261.319,493.547 260.839,493.307 260.599,493.307 260.118,493.066 259.878,492.826 
						259.397,492.586 259.159,492.107 258.198,492.346 257.237,492.586 256.278,492.826 255.317,492.826 254.358,492.826 
						253.157,492.826 252.198,492.826 251.238,492.346 251.717,491.627 252.198,490.906 252.438,489.947 252.679,488.986 
						253.157,488.266 253.638,487.547 254.358,487.066 255.079,486.826 255.798,486.826 256.519,486.586 257.237,486.346 
						257.958,486.346 258.679,486.346 259.159,486.346 259.878,486.586 260.358,487.307 					"/>
					<polyline fill-rule="evenodd" clip-rule="evenodd" fill="#010101" points="289.159,490.666 288.679,490.426 288.198,490.188 
						287.958,489.707 287.478,489.467 287.239,488.986 286.999,488.506 286.759,488.027 286.759,487.547 286.759,487.307 
						286.999,487.066 287.239,486.826 287.478,487.066 287.718,487.307 287.958,487.787 288.198,488.266 288.438,488.506 
						288.679,489.227 288.919,489.467 288.919,489.947 289.159,490.666 					"/>
				</g>
			</g>
			<text transform="matrix(1 0 0 1 135.4956 423.8867)" fill="#00AEEF" font-size="12">Right (R)</text>
			<text transform="matrix(1 0 0 1 328.9219 423.8867)" fill="#00AEEF" font-size="12">Left (L)</text>
			<text transform="matrix(1 0 0 1 233.0894 295.3765)" fill="#0DB14B" font-size="12">Head (H)</text>
			<text transform="matrix(1 0 0 1 234.3213 533.2168)" fill="#0DB14B" font-size="12">Foot (F) </text>
			<g>
				<g>
					<line fill="none" stroke="#0DB14B" stroke-width="2" x1="257.11" y1="305.415" x2="257.11" y2="510.027"/>
					<path fill="#0DB14B" d="M257.11,509.008l3.604-2.189l0.081,0.121l-2.333,5.875c-0.451,2.047-0.9,4.096-1.352,6.143
						c-0.45-2.047-0.9-4.096-1.352-6.143l-2.333-5.875l0.062-0.121L257.11,509.008z"/>
					<path fill="#0DB14B" d="M257.11,306.435l-3.604,2.189l-0.081-0.122l2.333-5.875c0.451-2.047,0.9-4.095,1.352-6.142
						c0.45,2.047,0.9,4.095,1.352,6.142l2.333,5.875l-0.062,0.122L257.11,306.435z"/>
				</g>
			</g>
			<g>
				<g>
					<line fill="none" stroke="#00AEEF" stroke-width="2" x1="195.877" y1="420.547" x2="317.001" y2="420.547"/>
					<path fill="#00AEEF" d="M315.981,420.547l-2.191-3.602l0.123-0.082l5.875,2.334c2.047,0.449,4.094,0.9,6.141,1.35
						c-2.047,0.451-4.094,0.9-6.141,1.352l-5.875,2.334l-0.123-0.062L315.981,420.547z"/>
					<path fill="#00AEEF" d="M196.896,420.547l2.19,3.604l-0.122,0.082l-5.875-2.334c-2.047-0.449-4.095-0.9-6.142-1.352
						c2.047-0.449,4.095-0.9,6.142-1.35l5.875-2.334l0.122,0.061L196.896,420.547z"/>
				</g>
			</g>
			<g>
				<text transform="matrix(0.9288 0 0 1 191.771 267.3496)" font-size="12">Right Foot - Anterior View</text>
			</g>
		</g>
		<g>
			<text transform="matrix(0.9288 0 0 1 45.9028 584.1562)"><tspan x="0" y="0" font-size="9">As for the hand, the direction labels are based on the foot in the standard anatomic position. For the right</tspan><tspan x="0" y="10.801" font-size="9">foot, for example, RIGHT will be in the direction of the 5th toe. This assignment will remain constant</tspan><tspan x="0" y="21.601" font-size="9">through movement or positioning of the extremity. This is also true of the HEAD and FOOT directions.</tspan></text>
		</g>
	</g>
</g>
</svg>
