<?xml version="1.0" encoding="utf-8"?>
<!-- $Source: /home/bbennett/pass/archive/DicomXml/docbook/part17/figures/PS3.17_R.1-3.svg,v $ -->
<!-- $Date: 2014/05/09 12:31:57 $ -->
<!-- $Revision: 1.2 $ -->

<!DOCTYPE svg PUBLIC "-//W3C//DTD SVG 1.1//EN" "http://www.w3.org/Graphics/SVG/1.1/DTD/svg11.dtd">
<svg version="1.1" id="Layer_1" xmlns="http://www.w3.org/2000/svg" xmlns:xlink="http://www.w3.org/1999/xlink" x="0px" y="0px"
	 width="502px" height="392px" viewBox="0 0 502 392" enable-background="new 0 0 502 392" xml:space="preserve">

<defs>
	<style type="text/css">
	text {
	  font-family: Helvetica, Verdana, ArialUnicodeMS, san-serif
	}
	</style>
</defs>

<g>
   <desc>
	PS 3.17 Part 17: Explanatory Information
   </desc>
</g>

<g>
	<rect x="1" y="1" fill="#F5EED6" width="500" height="390"/>
	<g>
		<g>
			<g>
				
					<line fill="none" stroke="#003468" stroke-linecap="round" stroke-miterlimit="1" x1="82.624" y1="118.901" x2="235.468" y2="118.901"/>
				<path fill="#003468" d="M237.83,117.876c-1.653-0.5-2.728-0.959-4.054-1.492v5.044c0.475-0.226,2.401-0.993,4.054-1.492
					c1.77-0.535,3.374-0.9,4.415-1.031C241.204,118.776,239.599,118.411,237.83,117.876z"/>
			</g>
		</g>
		<g>
			<g>
				
					<line fill="none" stroke="#003468" stroke-linecap="round" stroke-miterlimit="1" x1="243.726" y1="125.034" x2="90.275" y2="125.034"/>
				<path fill="#003468" d="M87.914,126.059c1.653,0.5,2.728,0.959,4.054,1.492v-5.044c-0.475,0.226-2.401,0.993-4.054,1.492
					c-1.77,0.535-3.374,0.9-4.415,1.031C84.54,125.159,86.144,125.525,87.914,126.059z"/>
			</g>
		</g>
		<g>
			<g>
				
					<line fill="none" stroke="#003468" stroke-linecap="round" stroke-miterlimit="1" x1="82.624" y1="145.263" x2="293.353" y2="145.263"/>
				<path fill="#003468" d="M295.715,144.238c-1.654-0.5-2.729-0.959-4.055-1.492v5.044c0.475-0.226,2.4-0.993,4.055-1.492
					c1.77-0.535,3.373-0.9,4.414-1.031C299.088,145.138,297.484,144.772,295.715,144.238z"/>
			</g>
		</g>
		<g>
			<g>
				
					<line fill="none" stroke="#003468" stroke-linecap="round" stroke-miterlimit="1" x1="305.155" y1="151.396" x2="90.275" y2="151.396"/>
				<path fill="#003468" d="M87.914,152.42c1.653,0.5,2.728,0.959,4.054,1.492v-5.044c-0.475,0.226-2.401,0.993-4.054,1.492
					c-1.77,0.535-3.374,0.9-4.415,1.031C84.54,151.521,86.144,151.886,87.914,152.42z"/>
			</g>
		</g>
		<g>
			<g>
				
					<line fill="none" stroke="#003468" stroke-linecap="round" stroke-miterlimit="1" x1="366.138" y1="204.127" x2="90.276" y2="204.127"/>
				<path fill="#003468" d="M87.915,205.152c1.653,0.499,2.728,0.959,4.054,1.491V201.6c-0.475,0.225-2.401,0.992-4.054,1.491
					c-1.77,0.534-3.374,0.9-4.415,1.03C84.541,204.252,86.145,204.617,87.915,205.152z"/>
			</g>
		</g>
		<g>
			<g>
				
					<line fill="none" stroke="#003468" stroke-linecap="round" stroke-miterlimit="1" x1="82.624" y1="178.905" x2="358.429" y2="178.905"/>
				<path fill="#003468" d="M360.791,177.88c-1.654-0.5-2.729-0.959-4.055-1.492v5.044c0.475-0.226,2.4-0.993,4.055-1.492
					c1.77-0.535,3.373-0.9,4.414-1.031C364.164,178.78,362.561,178.415,360.791,177.88z"/>
			</g>
		</g>
		<g>
			<g>
				
					<line fill="none" stroke="#003468" stroke-linecap="round" stroke-miterlimit="1" x1="366.138" y1="272.359" x2="90.276" y2="272.359"/>
				<path fill="#003468" d="M87.915,273.385c1.653,0.499,2.728,0.959,4.054,1.491v-5.044c-0.475,0.225-2.401,0.992-4.054,1.491
					c-1.77,0.534-3.374,0.9-4.415,1.03C84.541,272.484,86.145,272.85,87.915,273.385z"/>
			</g>
		</g>
		<g>
			<g>
				
					<line fill="none" stroke="#003468" stroke-linecap="round" stroke-miterlimit="1" x1="82.624" y1="252.539" x2="358.429" y2="252.539"/>
				<path fill="#003468" d="M360.791,251.514c-1.654-0.499-2.729-0.959-4.055-1.491v5.044c0.475-0.225,2.4-0.992,4.055-1.491
					c1.77-0.534,3.373-0.9,4.414-1.03C364.164,252.414,362.561,252.049,360.791,251.514z"/>
			</g>
		</g>
		<g>
			<g>
				
					<line fill="none" stroke="#003468" stroke-linecap="round" stroke-miterlimit="1" x1="382.892" y1="351.389" x2="442.663" y2="351.389"/>
				<path fill="#003468" d="M380.53,352.414c1.653,0.499,2.728,0.959,4.054,1.491v-5.044c-0.475,0.225-2.4,0.992-4.054,1.491
					c-1.77,0.534-3.374,0.9-4.415,1.03C377.156,351.514,378.761,351.879,380.53,352.414z"/>
			</g>
		</g>
		<g>
			<g>
				
					<line fill="none" stroke="#003468" stroke-linecap="round" stroke-miterlimit="1" x1="366.138" y1="350.717" x2="90.276" y2="350.717"/>
				<path fill="#003468" d="M87.915,351.742c1.653,0.499,2.728,0.959,4.054,1.491v-5.044c-0.475,0.225-2.401,0.992-4.054,1.491
					c-1.77,0.534-3.374,0.9-4.415,1.03C84.541,350.842,86.145,351.207,87.915,351.742z"/>
			</g>
		</g>
		<g>
			<g>
				
					<line fill="none" stroke="#003468" stroke-linecap="round" stroke-miterlimit="1" x1="82.624" y1="330.896" x2="431.809" y2="330.896"/>
				<path fill="#003468" d="M434.17,329.871c-1.652-0.499-2.728-0.959-4.054-1.491v5.044c0.475-0.225,2.401-0.992,4.054-1.491
					c1.77-0.534,3.375-0.9,4.415-1.03C437.545,330.771,435.939,330.406,434.17,329.871z"/>
			</g>
		</g>
		
			<line fill="#4F8ABE" stroke="#005695" stroke-linecap="round" stroke-miterlimit="1" stroke-dasharray="3" x1="77.623" y1="375.598" x2="77.623" y2="40.436"/>
		<text transform="matrix(1 0 0 1 91.0757 66.8877)"><tspan x="0" y="0" font-size="8">Install Hardware</tspan><tspan x="0" y="29.6" font-size="8">Obtain IP Parameters</tspan><tspan x="10" y="49.2" font-size="8">IP Parameters</tspan><tspan x="10" y="74.8" font-size="8">Obtain and maintain time</tspan><tspan x="0" y="108.4" font-size="8">Query for own config</tspan><tspan x="10" y="134" font-size="8">No Configuration Found</tspan><tspan x="0" y="163.6" font-size="8">Configure System</tspan><tspan x="10" y="183.2" font-size="8">PrQuery for candidate AE Titles</tspan><tspan x="10" y="202.8" font-size="8">List of AE Titles already in use</tspan><tspan x="10" y="261.6" font-size="8">Store Configuration Objects to a file</tspan><tspan x="10" y="281.2" font-size="8">Update LDAP Server, resolve any </tspan><tspan x="10" y="292.8" font-size="8">AE Title issues manually</tspan></text>
		
			<line fill="#4F8ABE" stroke="#005695" stroke-linecap="round" stroke-miterlimit="1" stroke-dasharray="3" x1="247.718" y1="375.598" x2="247.718" y2="40.436"/>
		
			<line fill="#4F8ABE" stroke="#005695" stroke-linecap="round" stroke-miterlimit="1" stroke-dasharray="3" x1="308.925" y1="375.598" x2="308.925" y2="40.436"/>
		
			<line fill="#4F8ABE" stroke="#005695" stroke-linecap="round" stroke-miterlimit="1" stroke-dasharray="3" x1="370.642" y1="375.598" x2="370.642" y2="40.436"/>
		
			<rect x="243.726" y="115.622" fill="#CCDEF0" stroke="#010101" stroke-width="0.75" stroke-linecap="round" stroke-linejoin="round" stroke-miterlimit="1" width="9.002" height="15.195"/>
		
			<rect x="304.923" y="140.507" fill="#CCDEF0" stroke="#010101" stroke-width="0.75" stroke-linecap="round" stroke-linejoin="round" stroke-miterlimit="1" width="9.002" height="15.197"/>
		
			<rect x="366.138" y="178.905" fill="#CCDEF0" stroke="#010101" stroke-width="0.75" stroke-linecap="round" stroke-linejoin="round" stroke-miterlimit="1" width="9.002" height="26.716"/>
		
			<rect x="366.138" y="252.539" fill="#CCDEF0" stroke="#010101" stroke-width="0.75" stroke-linecap="round" stroke-linejoin="round" stroke-miterlimit="1" width="9.002" height="26.715"/>
		
			<rect x="366.138" y="343.152" fill="#CCDEF0" stroke="#010101" stroke-width="0.75" stroke-linecap="round" stroke-linejoin="round" stroke-miterlimit="1" width="9.002" height="15.947"/>
		
			<rect x="73.622" y="57.892" fill="#CCDEF0" stroke="#010101" stroke-width="0.75" stroke-linecap="round" stroke-linejoin="round" stroke-miterlimit="1" width="9.001" height="18"/>
		
			<rect x="73.622" y="89.979" fill="#CCDEF0" stroke="#010101" stroke-width="0.75" stroke-linecap="round" stroke-linejoin="round" stroke-miterlimit="1" width="9.001" height="65.721"/>
		
			<rect x="73.622" y="170.54" fill="#CCDEF0" stroke="#010101" stroke-width="0.75" stroke-linecap="round" stroke-linejoin="round" stroke-miterlimit="1" width="9.001" height="40.128"/>
		
			<rect x="73.622" y="221.842" fill="#CCDEF0" stroke="#010101" stroke-width="0.75" stroke-linecap="round" stroke-linejoin="round" stroke-miterlimit="1" width="9.001" height="142.568"/>
		
			<rect x="46.622" y="16.402" fill="#CCDEF0" stroke="#010101" stroke-width="0.75" stroke-linecap="round" stroke-linejoin="round" stroke-miterlimit="1" width="63" height="27"/>
		<text transform="matrix(1 0 0 1 50.8613 27.0054)"><tspan x="0" y="0" font-size="9">New Machine</tspan><tspan x="5.748" y="10.8" font-size="9">Installation</tspan></text>
		
			<line fill="#4F8ABE" stroke="#005695" stroke-linecap="round" stroke-miterlimit="1" stroke-dasharray="3" x1="447.165" y1="375.598" x2="447.165" y2="40.436"/>
		
			<rect x="221.225" y="16.402" fill="#CCDEF0" stroke="#010101" stroke-width="0.75" stroke-linecap="round" stroke-linejoin="round" stroke-miterlimit="1" width="54.001" height="27"/>
		<text transform="matrix(1 0 0 1 235.4678 32.4048)" font-size="9">DHCP</text>
		
			<rect x="282.429" y="16.402" fill="#CCDEF0" stroke="#010101" stroke-width="0.75" stroke-linecap="round" stroke-linejoin="round" stroke-miterlimit="1" width="54.006" height="27"/>
		<text transform="matrix(1 0 0 1 300.4258 32.4048)" font-size="9">NTP</text>
		
			<rect x="343.638" y="16.402" fill="#CCDEF0" stroke="#010101" stroke-width="0.75" stroke-linecap="round" stroke-linejoin="round" stroke-miterlimit="1" width="54.006" height="27"/>
		<text transform="matrix(1 0 0 1 359.3828 32.4048)" font-size="9">LDAP</text>
		
			<ellipse fill="#CCDEF0" stroke="#010101" stroke-width="0.75" stroke-linecap="round" stroke-linejoin="round" stroke-miterlimit="1" cx="447.165" cy="328.336" rx="8.214" ry="2.85"/>
		
			<path fill="#CCDEF0" stroke="#010101" stroke-width="0.75" stroke-linecap="round" stroke-linejoin="round" stroke-miterlimit="1" d="
			M455.379,328.303c0,1.574-3.678,2.85-8.214,2.85s-8.214-1.275-8.214-2.85v31.766c0,1.574,3.678,2.85,8.214,2.85
			s8.214-1.275,8.214-2.85V328.303z"/>
	</g>
</g>
</svg>
