<?xml version="1.0" encoding="utf-8"?>
<!-- $Source: /home/bbennett/pass/archive/DicomXml/docbook/part17/figures/PS3.17_I.4-1.svg,v $ -->
<!-- $Date: 2014/05/09 12:30:20 $ -->
<!-- $Revision: 1.2 $ -->

<!DOCTYPE svg PUBLIC "-//W3C//DTD SVG 1.1//EN" "http://www.w3.org/Graphics/SVG/1.1/DTD/svg11.dtd">
<svg version="1.1" id="Layer_1" xmlns="http://www.w3.org/2000/svg" xmlns:xlink="http://www.w3.org/1999/xlink" x="0px" y="0px"
	 width="502px" height="197px" viewBox="0 0 502 197" enable-background="new 0 0 502 197" xml:space="preserve">

<defs>
	<style type="text/css">
	text {
	  font-family: Helvetica, Verdana, ArialUnicodeMS, san-serif
	}
	</style>
</defs>

<g>
   <desc>
	PS 3.17 Part 17: Explanatory Information
   </desc>
</g>

<g>
	<rect x="1" y="1" fill="#F5EED6" width="500" height="195"/>
	<g>
		<g>
			<g>
				
					<line fill="none" stroke="#005695" stroke-linecap="round" stroke-miterlimit="1" x1="301.916" y1="103.486" x2="301.916" y2="112.125"/>
				<path fill="#005695" d="M302.941,114.486c0.499-1.652,0.959-2.728,1.491-4.054h-5.044c0.225,0.475,0.992,2.401,1.491,4.054
					c0.534,1.77,0.9,3.375,1.03,4.415C302.041,117.861,302.406,116.256,302.941,114.486z"/>
			</g>
		</g>
		
			<rect x="261.416" y="118.604" fill="#B2CEE7" stroke="#010101" stroke-width="0.75" stroke-linecap="round" stroke-linejoin="round" stroke-miterlimit="1" width="81" height="26.984"/>
		<g>
			<text transform="matrix(1 0 0 1 294.7227 129.8418)"><tspan x="0" y="0" font-size="7">BPD</tspan><tspan x="-4.764" y="8.4" font-size="7">NUM = </tspan></text>
		</g>
		<g>
			<g>
				
					<line fill="none" stroke="#005695" stroke-linecap="round" stroke-miterlimit="1" x1="395.493" y1="103.486" x2="395.493" y2="148.121"/>
				<path fill="#005695" d="M396.518,150.482c0.5-1.652,0.96-2.728,1.492-4.054h-5.045c0.227,0.475,0.993,2.401,1.492,4.054
					c0.535,1.77,0.9,3.375,1.031,4.415C395.618,153.857,395.984,152.252,396.518,150.482z"/>
			</g>
		</g>
		
			<rect x="354.993" y="154.6" fill="#B2CEE7" stroke="#010101" stroke-width="0.75" stroke-linecap="round" stroke-linejoin="round" stroke-miterlimit="1" width="81" height="26.984"/>
		<g>
			<text transform="matrix(1 0 0 1 388.1074 165.8418)"><tspan x="0" y="0" font-size="7">OFD</tspan><tspan x="-4.57" y="8.4" font-size="7">NUM = </tspan></text>
		</g>
		
			<polygon fill="#CCDEF0" stroke="#010101" stroke-width="0.75" stroke-linecap="round" stroke-linejoin="round" stroke-miterlimit="1" points="
			256.916,89.298 301.875,76.128 346.916,89.724 346.916,89.753 301.826,103.107 		"/>
		<text transform="matrix(1 0 0 1 283.8311 91.5654)" font-size="7">CONTAINS</text>
		
			<polygon fill="#CCDEF0" stroke="#010101" stroke-width="0.75" stroke-linecap="round" stroke-linejoin="round" stroke-miterlimit="1" points="
			350.105,89.3 395.066,76.126 440.105,89.726 440.105,89.755 395.016,103.109 		"/>
		<text transform="matrix(1 0 0 1 377.0166 91.5654)" font-size="7">CONTAINS</text>
		
			<rect x="113.822" y="15.424" fill="#B2CEE7" stroke="#010101" stroke-width="0.75" stroke-linecap="round" stroke-linejoin="round" stroke-miterlimit="1" width="81" height="26.984"/>
		<g>
			<text transform="matrix(1 0 0 1 131.1694 26.6621)"><tspan x="0" y="0" font-size="7">Cephalic Index</tspan><tspan x="15.183" y="8.4" font-size="7">NUM</tspan></text>
		</g>
		
			<polygon fill="#CCDEF0" stroke="#010101" stroke-width="0.75" stroke-linecap="round" stroke-linejoin="round" stroke-miterlimit="1" points="
			61.896,89.298 106.856,76.129 151.896,89.724 151.896,89.754 106.806,103.107 		"/>
		<text transform="matrix(1 0 0 1 85.314 89.8853)"><tspan x="0" y="0" font-size="7">R-INFERRED</tspan><tspan x="11.279" y="8.4" font-size="7">FROM</tspan></text>
		
			<polygon fill="#CCDEF0" stroke="#010101" stroke-width="0.75" stroke-linecap="round" stroke-linejoin="round" stroke-miterlimit="1" points="
			155.554,89.298 200.514,76.129 245.553,89.724 245.553,89.754 200.463,103.107 		"/>
		<text transform="matrix(1 0 0 1 178.9707 89.8853)"><tspan x="0" y="0" font-size="7">R-INFERRED</tspan><tspan x="11.279" y="8.4" font-size="7">FROM</tspan></text>
		
			<rect x="295.263" y="15.416" fill="#86B2D8" stroke="#010101" stroke-width="0.75" stroke-linecap="round" stroke-linejoin="round" stroke-miterlimit="1" width="108.007" height="27.001"/>
		<g>
			<text transform="matrix(1 0 0 1 312.582 26.3413)"><tspan x="0" y="0" font-size="8">Measurement Group</tspan><tspan x="13.127" y="9.6" font-size="8">CONTAINER</tspan></text>
		</g>
		<g>
			<g>
				<path fill="none" stroke="#005695" stroke-linecap="round" stroke-miterlimit="1" d="M106.896,102.279
					c0,48.477-0.002,69.256-0.002,69.256h240.021"/>
				<path fill="#005695" d="M349.277,170.51c-1.652-0.499-2.728-0.959-4.054-1.491v5.044c0.475-0.225,2.401-0.992,4.054-1.491
					c1.77-0.534,3.375-0.9,4.415-1.03C352.652,171.41,351.047,171.045,349.277,170.51z"/>
			</g>
		</g>
		<g>
			<g>
				<path fill="none" stroke="#005695" stroke-linecap="round" stroke-miterlimit="1" d="M200.846,103.35
					c0,20.121-0.002,28.746-0.002,28.746h51.461"/>
				<path fill="#005695" d="M254.666,131.07c-1.652-0.499-2.728-0.959-4.054-1.491v5.044c0.475-0.225,2.401-0.992,4.054-1.491
					c1.77-0.534,3.375-0.9,4.415-1.03C258.041,131.971,256.436,131.605,254.666,131.07z"/>
			</g>
		</g>
		<g>
			<g>
				<polyline fill="none" stroke="#005695" stroke-linecap="round" stroke-miterlimit="1" points="154.322,42.61 154.322,55.977 
					106.895,55.977 106.895,69.56 				"/>
				<path fill="#005695" d="M107.919,71.921c0.5-1.653,0.959-2.728,1.492-4.054h-5.044c0.226,0.475,0.993,2.401,1.492,4.054
					c0.535,1.77,0.9,3.374,1.031,4.415C107.02,75.295,107.385,73.691,107.919,71.921z"/>
			</g>
		</g>
		<g>
			<g>
				<polyline fill="none" stroke="#005695" stroke-linecap="round" stroke-miterlimit="1" points="154.325,55.977 200.551,55.977 
					200.551,68.56 				"/>
				<path fill="#005695" d="M201.576,70.921c0.5-1.653,0.959-2.728,1.492-4.054h-5.044c0.226,0.475,0.993,2.401,1.492,4.054
					c0.535,1.77,0.9,3.374,1.031,4.415C200.676,74.295,201.042,72.691,201.576,70.921z"/>
			</g>
		</g>
		<g>
			<g>
				<polyline fill="none" stroke="#005695" stroke-linecap="round" stroke-miterlimit="1" points="349.264,42.611 349.264,55.978 
					301.836,55.978 301.836,69.561 				"/>
				<path fill="#005695" d="M302.861,71.922c0.499-1.653,0.959-2.728,1.491-4.054h-5.044c0.225,0.475,0.992,2.401,1.491,4.054
					c0.534,1.77,0.9,3.374,1.03,4.415C301.961,75.296,302.326,73.692,302.861,71.922z"/>
			</g>
		</g>
		<g>
			<g>
				<polyline fill="none" stroke="#005695" stroke-linecap="round" stroke-miterlimit="1" points="349.267,55.978 395.492,55.978 
					395.492,68.561 				"/>
				<path fill="#005695" d="M396.518,70.922c0.499-1.653,0.959-2.728,1.491-4.054h-5.044c0.225,0.475,0.992,2.401,1.491,4.054
					c0.534,1.77,0.9,3.374,1.03,4.415C395.617,74.296,395.982,72.692,396.518,70.922z"/>
			</g>
		</g>
	</g>
</g>
</svg>
