<?xml version="1.0" encoding="utf-8"?>
<!-- $Source: /home/bbennett/pass/archive/DicomXml/docbook/part17/figures/PS3.17_L-1.svg,v $ -->
<!-- $Date: 2014/05/09 12:30:20 $ -->
<!-- $Revision: 1.2 $ -->

<!DOCTYPE svg PUBLIC "-//W3C//DTD SVG 1.1//EN" "http://www.w3.org/Graphics/SVG/1.1/DTD/svg11.dtd">
<svg version="1.1" id="Layer_1" xmlns="http://www.w3.org/2000/svg" xmlns:xlink="http://www.w3.org/1999/xlink" x="0px" y="0px"
	 width="502px" height="612px" viewBox="0 0 502 612" enable-background="new 0 0 502 612" xml:space="preserve">

<defs>
	<style type="text/css">
	text {
	  font-family: Helvetica, Verdana, ArialUnicodeMS, san-serif
	}
	</style>
</defs>

<g>
   <desc>
	PS 3.17 Part 17: Explanatory Information
   </desc>
</g>

<g>
	<rect x="1" y="1" fill="#F5EED6" width="500" height="610"/>
</g>
<g>
	<g>
		<g>
			<path fill="none" stroke="#005695" stroke-linecap="round" stroke-miterlimit="1" d="M98.484,92.233c0,0,0,2.347,0,5.027"/>
			<path fill="#005695" d="M99.509,99.623c0.5-1.653,0.959-2.728,1.492-4.054h-5.044c0.226,0.475,0.993,2.401,1.492,4.054
				c0.535,1.77,0.9,3.374,1.031,4.415C98.609,102.997,98.975,101.392,99.509,99.623z"/>
		</g>
	</g>
	<g>
		<g>
			<polyline fill="none" stroke="#005695" stroke-linecap="round" stroke-miterlimit="1" points="285.074,42.234 285.074,51.218 
				98.277,51.218 98.277,58.21 			"/>
			<path fill="#005695" d="M99.302,60.572c0.5-1.653,0.959-2.728,1.492-4.054H95.75c0.226,0.475,0.993,2.401,1.492,4.054
				c0.535,1.77,0.9,3.374,1.031,4.415C98.402,63.946,98.768,62.341,99.302,60.572z"/>
		</g>
	</g>
	
		<line fill="none" stroke="#005695" stroke-linecap="round" stroke-miterlimit="1" stroke-dasharray="4" x1="365.195" y1="51.218" x2="462.968" y2="51.218"/>
	
		<rect x="249.018" y="15.598" fill="#86B2D8" stroke="#010101" stroke-width="0.75" stroke-linecap="round" stroke-linejoin="round" stroke-miterlimit="1" width="72.11" height="27.001"/>
	<g>
		<text transform="matrix(1 0 0 1 260.7554 26.5293)"><tspan x="0" y="0" font-size="7">Document Root</tspan><tspan x="1.374" y="8.4" font-size="7">(CONTAINER)</tspan></text>
	</g>
	
		<rect x="57.983" y="101.688" fill="#B2CEE7" stroke="#010101" stroke-width="0.75" stroke-linecap="round" stroke-linejoin="round" stroke-miterlimit="1" width="81.004" height="26.999"/>
	<g>
		<text transform="matrix(1 0 0 1 74.1626 112.936)"><tspan x="0" y="0" font-size="7">Baseline Phase</tspan><tspan x="1.379" y="8.4" font-size="7">(CONTAINER)</tspan></text>
	</g>
	
		<polygon fill="#CCDEF0" stroke="#010101" stroke-width="0.75" stroke-linecap="round" stroke-linejoin="round" stroke-miterlimit="1" points="
		57.898,78.377 97.925,65.203 138.018,78.803 138.018,78.834 97.882,92.197 	"/>
	<g>
		<text transform="matrix(1 0 0 1 79.8721 80.6499)" font-size="7">CONTAINS</text>
	</g>
	<g>
		<g>
			<path fill="none" stroke="#005695" stroke-linecap="round" stroke-miterlimit="1" d="M232.261,92.233c0,0,0,2.347,0,5.027"/>
			<path fill="#005695" d="M233.286,99.623c0.5-1.653,0.959-2.728,1.492-4.054h-5.044c0.226,0.475,0.993,2.401,1.492,4.054
				c0.535,1.77,0.9,3.374,1.031,4.415C232.386,102.997,232.752,101.392,233.286,99.623z"/>
		</g>
	</g>
	<g>
		<g>
			
				<line fill="none" stroke="#005695" stroke-linecap="round" stroke-miterlimit="1" x1="232.054" y1="51.218" x2="232.054" y2="58.21"/>
			<path fill="#005695" d="M233.079,60.572c0.5-1.653,0.959-2.728,1.492-4.054h-5.044c0.226,0.475,0.993,2.401,1.492,4.054
				c0.535,1.77,0.9,3.374,1.031,4.415C232.179,63.946,232.545,62.341,233.079,60.572z"/>
		</g>
	</g>
	
		<rect x="191.76" y="101.688" fill="#B2CEE7" stroke="#010101" stroke-width="0.75" stroke-linecap="round" stroke-linejoin="round" stroke-miterlimit="1" width="81.005" height="26.999"/>
	<g>
		<text transform="matrix(1 0 0 1 199.9688 112.936)"><tspan x="0" y="0" font-size="7">Post-Contrast Phase</tspan><tspan x="9.35" y="8.4" font-size="7">(CONTAINER)</tspan></text>
	</g>
	
		<polygon fill="#CCDEF0" stroke="#010101" stroke-width="0.75" stroke-linecap="round" stroke-linejoin="round" stroke-miterlimit="1" points="
		191.675,78.377 231.702,65.203 271.794,78.803 271.794,78.834 231.659,92.197 	"/>
	<g>
		<text transform="matrix(1 0 0 1 213.6489 80.6499)" font-size="7">CONTAINS</text>
	</g>
	<g>
		<g>
			<path fill="none" stroke="#005695" stroke-linecap="round" stroke-miterlimit="1" d="M366.039,92.233c0,0,0,2.347,0,5.027"/>
			<path fill="#005695" d="M367.064,99.623c0.499-1.653,0.959-2.728,1.491-4.054h-5.044c0.225,0.475,0.992,2.401,1.491,4.054
				c0.534,1.77,0.9,3.374,1.03,4.415C366.164,102.997,366.529,101.392,367.064,99.623z"/>
		</g>
	</g>
	<g>
		<g>
			<polyline fill="none" stroke="#005695" stroke-linecap="round" stroke-miterlimit="1" points="285.072,51.218 365.195,51.218 
				365.195,58.21 			"/>
			<path fill="#005695" d="M366.22,60.572c0.499-1.653,0.959-2.728,1.491-4.054h-5.044c0.225,0.475,0.992,2.401,1.491,4.054
				c0.534,1.77,0.9,3.374,1.03,4.415C365.32,63.946,365.685,62.341,366.22,60.572z"/>
		</g>
	</g>
	
		<rect x="325.537" y="101.688" fill="#B2CEE7" stroke="#010101" stroke-width="0.75" stroke-linecap="round" stroke-linejoin="round" stroke-miterlimit="1" width="81.006" height="26.999"/>
	<g>
		<text transform="matrix(1 0 0 1 328.6831 112.936)"><tspan x="0" y="0" font-size="7">Post-Intervention Phase</tspan><tspan x="14.412" y="8.4" font-size="7">(CONTAINER)</tspan></text>
	</g>
	
		<polygon fill="#CCDEF0" stroke="#010101" stroke-width="0.75" stroke-linecap="round" stroke-linejoin="round" stroke-miterlimit="1" points="
		325.453,78.377 365.478,65.203 405.572,78.803 405.572,78.834 365.435,92.197 	"/>
	<g>
		<text transform="matrix(1 0 0 1 347.4253 80.6499)" font-size="7">CONTAINS</text>
	</g>
	<polyline fill="none" stroke="#005695" stroke-linecap="round" stroke-miterlimit="1" points="132.829,210.083 132.829,219.066 
		102.229,219.066 102.229,226.058 	"/>
	
		<line fill="none" stroke="#005695" stroke-linecap="round" stroke-miterlimit="1" stroke-dasharray="4" x1="145.954" y1="219.066" x2="165.228" y2="219.066"/>
	
		<line fill="none" stroke="#005695" stroke-linecap="round" stroke-miterlimit="1" x1="124.144" y1="219.066" x2="124.144" y2="226.058"/>
	<polyline fill="none" stroke="#005695" stroke-linecap="round" stroke-miterlimit="1" points="132.829,219.066 145.954,219.066 
		145.954,226.058 	"/>
	<g>
		<g>
			
				<line fill="none" stroke="#005695" stroke-linecap="round" stroke-miterlimit="1" x1="133.729" y1="176.168" x2="133.729" y2="183.82"/>
			<path fill="#005695" d="M134.753,186.182c0.5-1.653,0.959-2.728,1.492-4.054h-5.044c0.226,0.475,0.993,2.401,1.492,4.054
				c0.535,1.77,0.9,3.374,1.031,4.415C133.854,189.556,134.219,187.952,134.753,186.182z"/>
		</g>
	</g>
	
		<rect x="102.229" y="189.697" fill="#B2CEE7" stroke="#010101" stroke-width="0.75" stroke-linecap="round" stroke-linejoin="round" stroke-miterlimit="1" width="62.998" height="20.989"/>
	<g>
		<text transform="matrix(1 0 0 1 109.4131 197.9346)"><tspan x="0" y="0" font-size="7">Clinical Context</tspan><tspan x="1.373" y="8.4" font-size="7">(CONTAINER)</tspan></text>
	</g>
	
		<polygon fill="#CCDEF0" stroke="#010101" stroke-width="0.75" stroke-linecap="round" stroke-linejoin="round" stroke-miterlimit="1" points="
		102.231,165.962 133.702,156.743 165.229,166.26 165.229,166.28 133.667,175.63 	"/>
	<text transform="matrix(1 0 0 1 115.646 168.1274)" font-size="7">CONTAINS</text>
	<g>
		<g>
			<path fill="none" stroke="#005695" stroke-linecap="round" stroke-miterlimit="1" d="M98.379,138.748h34.963c0,0,0,2.936,0,9.781
				"/>
			<path fill="#005695" d="M134.366,150.891c0.5-1.653,0.959-2.728,1.492-4.054h-5.044c0.226,0.475,0.993,2.401,1.492,4.054
				c0.535,1.77,0.9,3.374,1.031,4.415C133.466,154.265,133.832,152.661,134.366,150.891z"/>
		</g>
	</g>
	<g>
		<g>
			
				<line fill="none" stroke="#005695" stroke-linecap="round" stroke-miterlimit="1" x1="161.025" y1="266.844" x2="161.025" y2="281.497"/>
			<path fill="#005695" d="M162.05,283.858c0.5-1.653,0.959-2.728,1.492-4.054h-5.044c0.226,0.475,0.993,2.401,1.492,4.054
				c0.535,1.77,0.9,3.374,1.031,4.415C161.15,287.232,161.516,285.628,162.05,283.858z"/>
		</g>
	</g>
	<g>
		<g>
			
				<line fill="none" stroke="#005695" stroke-linecap="round" stroke-miterlimit="1" x1="258.748" y1="266.844" x2="258.748" y2="281.497"/>
			<path fill="#005695" d="M259.773,283.858c0.499-1.653,0.959-2.728,1.491-4.054h-5.044c0.225,0.475,0.992,2.401,1.491,4.054
				c0.534,1.77,0.9,3.374,1.03,4.415C258.873,287.232,259.238,285.628,259.773,283.858z"/>
		</g>
	</g>
	<g>
		<g>
			<polyline fill="none" stroke="#005695" stroke-linecap="round" stroke-miterlimit="1" points="63.394,266.843 63.429,266.844 
				354.814,266.843 354.814,281.495 			"/>
			<path fill="#005695" d="M355.839,283.856c0.499-1.653,0.959-2.728,1.491-4.054h-5.044c0.225,0.475,0.992,2.401,1.491,4.054
				c0.534,1.77,0.9,3.374,1.03,4.415C354.939,287.23,355.304,285.626,355.839,283.856z"/>
		</g>
	</g>
	<g>
		<g>
			
				<line fill="none" stroke="#005695" stroke-linecap="round" stroke-miterlimit="1" x1="63.628" y1="308.465" x2="63.628" y2="315.357"/>
			<path fill="#005695" d="M64.653,317.719c0.5-1.652,0.959-2.728,1.492-4.054H61.1c0.226,0.475,0.993,2.401,1.492,4.054
				c0.535,1.77,0.9,3.375,1.031,4.415C63.753,321.094,64.119,319.488,64.653,317.719z"/>
		</g>
	</g>
	
		<rect x="18.627" y="321.611" fill="#B2CEE7" stroke="#010101" stroke-width="0.75" stroke-linecap="round" stroke-linejoin="round" stroke-miterlimit="1" width="90.002" height="24.545"/>
	<g>
		<text transform="matrix(1 0 0 1 28.4243 331.625)"><tspan x="0" y="0" font-size="7">Arterial Measurements</tspan><tspan x="12.264" y="8.4" font-size="7">(CONTAINER)</tspan></text>
	</g>
	
		<polygon fill="#CCDEF0" stroke="#010101" stroke-width="0.75" stroke-linecap="round" stroke-linejoin="round" stroke-miterlimit="1" points="
		23.125,298.303 63.592,287.522 104.131,298.651 104.131,298.677 63.549,309.611 	"/>
	<g>
		<text transform="matrix(1 0.0022 -0.0022 1 45.54 300.9702)" font-size="7">CONTAINS</text>
	</g>
	<g>
		<g>
			
				<line fill="none" stroke="#005695" stroke-linecap="round" stroke-miterlimit="1" x1="161.543" y1="308.465" x2="161.543" y2="315.357"/>
			<path fill="#005695" d="M162.568,317.719c0.5-1.652,0.959-2.728,1.492-4.054h-5.044c0.226,0.475,0.993,2.401,1.492,4.054
				c0.535,1.77,0.9,3.375,1.031,4.415C161.668,321.094,162.034,319.488,162.568,317.719z"/>
		</g>
	</g>
	
		<rect x="116.542" y="321.611" fill="#B2CEE7" stroke="#010101" stroke-width="0.75" stroke-linecap="round" stroke-linejoin="round" stroke-miterlimit="1" width="90.002" height="24.545"/>
	<g>
		<text transform="matrix(1 0 0 1 126.3389 331.625)"><tspan x="0" y="0" font-size="7">Arterial Measurements</tspan><tspan x="12.264" y="8.4" font-size="7">(CONTAINER)</tspan></text>
	</g>
	
		<polygon fill="#CCDEF0" stroke="#010101" stroke-width="0.75" stroke-linecap="round" stroke-linejoin="round" stroke-miterlimit="1" points="
		121.041,298.303 161.507,287.522 202.046,298.651 202.046,298.677 161.464,309.611 	"/>
	<g>
		<text transform="matrix(1 0.0022 -0.0022 1 143.4546 300.9702)" font-size="7">CONTAINS</text>
	</g>
	<g>
		<g>
			
				<line fill="none" stroke="#005695" stroke-linecap="round" stroke-miterlimit="1" x1="258.748" y1="308.465" x2="258.748" y2="315.357"/>
			<path fill="#005695" d="M259.773,317.719c0.499-1.652,0.959-2.728,1.491-4.054h-5.044c0.225,0.475,0.992,2.401,1.491,4.054
				c0.534,1.77,0.9,3.375,1.03,4.415C258.873,321.094,259.238,319.488,259.773,317.719z"/>
		</g>
	</g>
	
		<rect x="213.746" y="321.611" fill="#B2CEE7" stroke="#010101" stroke-width="0.75" stroke-linecap="round" stroke-linejoin="round" stroke-miterlimit="1" width="90.002" height="24.545"/>
	<g>
		<text transform="matrix(1 0 0 1 217.8979 331.625)"><tspan x="0" y="0" font-size="7">Ventricular Measurements</tspan><tspan x="17.906" y="8.4" font-size="7">(CONTAINER)</tspan></text>
	</g>
	
		<polygon fill="#CCDEF0" stroke="#010101" stroke-width="0.75" stroke-linecap="round" stroke-linejoin="round" stroke-miterlimit="1" points="
		218.244,298.303 258.71,287.522 299.25,298.651 299.25,298.677 258.667,309.611 	"/>
	<g>
		<text transform="matrix(1 0.0022 -0.0022 1 240.6562 300.9702)" font-size="7">CONTAINS</text>
	</g>
	<g>
		<g>
			
				<line fill="none" stroke="#005695" stroke-linecap="round" stroke-miterlimit="1" x1="354.292" y1="308.465" x2="354.292" y2="315.357"/>
			<path fill="#005695" d="M355.318,317.719c0.499-1.652,0.959-2.728,1.491-4.054h-5.044c0.225,0.475,0.992,2.401,1.491,4.054
				c0.534,1.77,0.9,3.375,1.03,4.415C354.417,321.094,354.783,319.488,355.318,317.719z"/>
		</g>
	</g>
	
		<rect x="309.292" y="321.611" fill="#B2CEE7" stroke="#010101" stroke-width="0.75" stroke-linecap="round" stroke-linejoin="round" stroke-miterlimit="1" width="90.002" height="24.545"/>
	<g>
		<text transform="matrix(1 0 0 1 316.7476 331.625)"><tspan x="0" y="0" font-size="7">Gradient Measurements</tspan><tspan x="14.602" y="8.4" font-size="7">(CONTAINER)</tspan></text>
	</g>
	
		<polygon fill="#CCDEF0" stroke="#010101" stroke-width="0.75" stroke-linecap="round" stroke-linejoin="round" stroke-miterlimit="1" points="
		313.791,298.303 354.257,287.522 394.796,298.651 394.796,298.677 354.214,309.611 	"/>
	<g>
		<text transform="matrix(1 0.0022 -0.0022 1 336.2017 300.9702)" font-size="7">CONTAINS</text>
	</g>
	<g>
		<g>
			
				<line fill="none" stroke="#005695" stroke-linecap="round" stroke-miterlimit="1" x1="157.942" y1="513.49" x2="157.942" y2="531.742"/>
			<path fill="#005695" d="M158.967,534.104c0.5-1.652,0.959-2.728,1.492-4.054h-5.044c0.226,0.475,0.993,2.401,1.492,4.054
				c0.535,1.77,0.9,3.375,1.031,4.415C158.067,537.479,158.433,535.873,158.967,534.104z"/>
		</g>
	</g>
	<g>
		<g>
			
				<line fill="none" stroke="#005695" stroke-linecap="round" stroke-miterlimit="1" x1="63.628" y1="346.164" x2="63.628" y2="528.143"/>
			<path fill="#005695" d="M64.653,530.504c0.5-1.652,0.959-2.728,1.492-4.054H61.1c0.226,0.475,0.993,2.401,1.492,4.054
				c0.535,1.77,0.9,3.375,1.031,4.415C63.753,533.879,64.119,532.273,64.653,530.504z"/>
		</g>
	</g>
	<g>
		<g>
			<polyline fill="none" stroke="#005695" stroke-linecap="round" stroke-miterlimit="1" points="98.379,128.33 98.379,138.748 
				63.628,138.748 63.628,281.492 			"/>
			<path fill="#005695" d="M64.653,283.854c0.5-1.653,0.959-2.728,1.492-4.054H61.1c0.226,0.475,0.993,2.401,1.492,4.054
				c0.535,1.77,0.9,3.374,1.031,4.415C63.753,287.228,64.119,285.623,64.653,283.854z"/>
		</g>
	</g>
	<polyline fill="none" stroke="#005695" stroke-linecap="round" stroke-miterlimit="1" points="265.954,210.44 265.954,219.423 
		235.354,219.423 235.354,226.416 	"/>
	
		<line fill="none" stroke="#005695" stroke-linecap="round" stroke-miterlimit="1" stroke-dasharray="4" x1="279.078" y1="219.423" x2="298.352" y2="219.423"/>
	
		<line fill="none" stroke="#005695" stroke-linecap="round" stroke-miterlimit="1" x1="257.268" y1="219.423" x2="257.268" y2="226.416"/>
	<polyline fill="none" stroke="#005695" stroke-linecap="round" stroke-miterlimit="1" points="265.953,219.423 279.078,219.423 
		279.078,226.416 	"/>
	<g>
		<g>
			
				<line fill="none" stroke="#005695" stroke-linecap="round" stroke-miterlimit="1" x1="266.853" y1="176.525" x2="266.853" y2="184.178"/>
			<path fill="#005695" d="M267.878,186.54c0.499-1.653,0.959-2.728,1.491-4.054h-5.044c0.225,0.475,0.992,2.401,1.491,4.054
				c0.534,1.77,0.9,3.374,1.03,4.415C266.978,189.914,267.343,188.309,267.878,186.54z"/>
		</g>
	</g>
	
		<rect x="235.354" y="190.055" fill="#B2CEE7" stroke="#010101" stroke-width="0.75" stroke-linecap="round" stroke-linejoin="round" stroke-miterlimit="1" width="62.998" height="20.989"/>
	<g>
		<text transform="matrix(1 0 0 1 242.5376 198.292)"><tspan x="0" y="0" font-size="7">Clinical Context</tspan><tspan x="1.373" y="8.4" font-size="7">(CONTAINER)</tspan></text>
	</g>
	
		<polygon fill="#CCDEF0" stroke="#010101" stroke-width="0.75" stroke-linecap="round" stroke-linejoin="round" stroke-miterlimit="1" points="
		235.356,166.319 266.827,157.101 298.354,166.617 298.354,166.638 266.792,175.987 	"/>
	<text transform="matrix(1 0 0 1 248.7705 168.4849)" font-size="7">CONTAINS</text>
	<g>
		<g>
			<path fill="none" stroke="#005695" stroke-linecap="round" stroke-miterlimit="1" d="M231.503,139.105h34.963
				c0,0,0,2.936,0,9.781"/>
			<path fill="#005695" d="M267.492,151.249c0.499-1.653,0.959-2.728,1.491-4.054h-5.044c0.225,0.475,0.992,2.401,1.491,4.054
				c0.534,1.77,0.9,3.374,1.03,4.415C266.591,154.623,266.957,153.018,267.492,151.249z"/>
		</g>
	</g>
	<g>
		<g>
			<polyline fill="none" stroke="#005695" stroke-linecap="round" stroke-miterlimit="1" points="231.503,128.688 231.503,139.105 
				196.752,139.105 196.752,237.29 			"/>
			<path fill="#005695" d="M197.777,239.651c0.5-1.653,0.959-2.728,1.492-4.054h-5.044c0.226,0.475,0.993,2.401,1.492,4.054
				c0.535,1.77,0.9,3.374,1.031,4.415C196.877,243.025,197.243,241.421,197.777,239.651z"/>
		</g>
	</g>
	<polyline fill="none" stroke="#005695" stroke-linecap="round" stroke-miterlimit="1" points="399.078,210.797 399.078,219.781 
		368.478,219.781 368.478,226.773 	"/>
	
		<line fill="none" stroke="#005695" stroke-linecap="round" stroke-miterlimit="1" stroke-dasharray="4" x1="412.203" y1="219.781" x2="431.476" y2="219.781"/>
	
		<line fill="none" stroke="#005695" stroke-linecap="round" stroke-miterlimit="1" x1="390.392" y1="219.781" x2="390.392" y2="226.773"/>
	<polyline fill="none" stroke="#005695" stroke-linecap="round" stroke-miterlimit="1" points="399.078,219.781 412.203,219.781 
		412.203,226.773 	"/>
	<g>
		<g>
			
				<line fill="none" stroke="#005695" stroke-linecap="round" stroke-miterlimit="1" x1="399.978" y1="176.883" x2="399.978" y2="184.535"/>
			<path fill="#005695" d="M401.003,186.897c0.499-1.653,0.959-2.728,1.491-4.054h-5.044c0.225,0.475,0.992,2.401,1.491,4.054
				c0.534,1.77,0.9,3.374,1.03,4.415C400.103,190.271,400.468,188.667,401.003,186.897z"/>
		</g>
	</g>
	
		<rect x="368.478" y="190.412" fill="#B2CEE7" stroke="#010101" stroke-width="0.75" stroke-linecap="round" stroke-linejoin="round" stroke-miterlimit="1" width="62.998" height="20.989"/>
	<g>
		<text transform="matrix(1 0 0 1 375.6616 198.6494)"><tspan x="0" y="0" font-size="7">Clinical Context</tspan><tspan x="1.373" y="8.4" font-size="7">(CONTAINER)</tspan></text>
	</g>
	
		<polygon fill="#CCDEF0" stroke="#010101" stroke-width="0.75" stroke-linecap="round" stroke-linejoin="round" stroke-miterlimit="1" points="
		368.48,166.677 399.951,157.458 431.478,166.975 431.478,166.995 399.917,176.345 	"/>
	<text transform="matrix(1 0 0 1 381.895 168.8423)" font-size="7">CONTAINS</text>
	<g>
		<g>
			<path fill="none" stroke="#005695" stroke-linecap="round" stroke-miterlimit="1" d="M364.628,139.463h34.963
				c0,0,0,2.936,0,9.781"/>
			<path fill="#005695" d="M400.617,151.606c0.499-1.653,0.959-2.728,1.491-4.054h-5.044c0.225,0.475,0.992,2.401,1.491,4.054
				c0.534,1.77,0.9,3.374,1.03,4.415C399.716,154.98,400.082,153.375,400.617,151.606z"/>
		</g>
	</g>
	<g>
		<g>
			<polyline fill="none" stroke="#005695" stroke-linecap="round" stroke-miterlimit="1" points="364.628,129.045 364.628,139.463 
				329.876,139.463 329.876,241.29 			"/>
			<path fill="#005695" d="M330.902,243.651c0.499-1.653,0.959-2.728,1.491-4.054h-5.044c0.225,0.475,0.992,2.401,1.491,4.054
				c0.534,1.77,0.9,3.374,1.03,4.415C330.001,247.025,330.367,245.421,330.902,243.651z"/>
		</g>
	</g>
	<g>
		<g>
			
				<line fill="none" stroke="#005695" stroke-linecap="round" stroke-miterlimit="1" x1="63.628" y1="558.711" x2="63.628" y2="565.605"/>
			<path fill="#005695" d="M64.653,567.967c0.5-1.652,0.959-2.728,1.492-4.054H61.1c0.226,0.475,0.993,2.401,1.492,4.054
				c0.535,1.77,0.9,3.375,1.031,4.415C63.753,571.342,64.119,569.736,64.653,567.967z"/>
		</g>
	</g>
	
		<rect x="18.627" y="571.857" fill="#B2CEE7" stroke="#010101" stroke-width="0.75" stroke-linecap="round" stroke-linejoin="round" stroke-miterlimit="1" width="90.002" height="24.545"/>
	<g>
		<text transform="matrix(1 0 0 1 34.8369 581.875)"><tspan x="0" y="0" font-size="7">Anatomic Location</tspan><tspan x="2.246" y="8.4" font-size="7">LOC = L Fem Art</tspan></text>
	</g>
	
		<polygon fill="#CCDEF0" stroke="#010101" stroke-width="0.75" stroke-linecap="round" stroke-linejoin="round" stroke-miterlimit="1" points="
		18.625,547.438 63.588,535.459 108.631,547.824 108.631,547.854 63.541,560.004 	"/>
	<g>
		<g>
			
				<line fill="none" stroke="#005695" stroke-linecap="round" stroke-miterlimit="1" x1="157.944" y1="558.711" x2="157.944" y2="565.605"/>
			<path fill="#005695" d="M158.969,567.967c0.5-1.652,0.959-2.728,1.492-4.054h-5.044c0.226,0.475,0.993,2.401,1.492,4.054
				c0.535,1.77,0.9,3.375,1.031,4.415C158.069,571.342,158.435,569.736,158.969,567.967z"/>
		</g>
	</g>
	
		<rect x="121.941" y="571.857" fill="#B2CEE7" stroke="#010101" stroke-width="0.75" stroke-linecap="round" stroke-linejoin="round" stroke-miterlimit="1" width="72.002" height="18"/>
	<g>
		<text transform="matrix(1 0 0 1 136.7422 582.8047)" font-size="7">Systolic Pres.</text>
	</g>
	
		<polygon fill="#CCDEF0" stroke="#010101" stroke-width="0.75" stroke-linecap="round" stroke-linejoin="round" stroke-miterlimit="1" points="
		121.941,548.578 157.912,538.994 193.947,548.887 193.947,548.91 157.874,558.629 	"/>
	<g>
		<text transform="matrix(1 0.0022 -0.0022 1 139.854 551.2197)" font-size="7">CONTAINS</text>
	</g>
	<g>
		<g>
			
				<line fill="none" stroke="#005695" stroke-linecap="round" stroke-miterlimit="1" x1="237.667" y1="513.49" x2="237.667" y2="531.742"/>
			<path fill="#005695" d="M238.692,534.104c0.5-1.652,0.959-2.728,1.492-4.054h-5.044c0.226,0.475,0.993,2.401,1.492,4.054
				c0.535,1.77,0.9,3.375,1.031,4.415C237.792,537.479,238.158,535.873,238.692,534.104z"/>
		</g>
	</g>
	<g>
		<g>
			
				<line fill="none" stroke="#005695" stroke-linecap="round" stroke-miterlimit="1" x1="237.669" y1="558.711" x2="237.669" y2="565.605"/>
			<path fill="#005695" d="M238.694,567.967c0.5-1.652,0.959-2.728,1.492-4.054h-5.044c0.226,0.475,0.993,2.401,1.492,4.054
				c0.535,1.77,0.9,3.375,1.031,4.415C237.794,571.342,238.16,569.736,238.694,567.967z"/>
		</g>
	</g>
	
		<rect x="201.667" y="571.857" fill="#B2CEE7" stroke="#010101" stroke-width="0.75" stroke-linecap="round" stroke-linejoin="round" stroke-miterlimit="1" width="72.003" height="18"/>
	<g>
		<text transform="matrix(1 0 0 1 215.3008 582.8047)" font-size="7">Diastolic Pres.</text>
	</g>
	
		<polygon fill="#CCDEF0" stroke="#010101" stroke-width="0.75" stroke-linecap="round" stroke-linejoin="round" stroke-miterlimit="1" points="
		201.667,548.578 237.637,538.994 273.673,548.887 273.673,548.91 237.599,558.629 	"/>
	<g>
		<text transform="matrix(1 0.0022 -0.0022 1 219.5796 551.2197)" font-size="7">CONTAINS</text>
	</g>
	<g>
		<g>
			<polyline fill="none" stroke="#005695" stroke-linecap="round" stroke-miterlimit="1" points="63.71,513.488 63.747,513.49 
				317.394,513.488 317.394,513.49 317.394,531.742 			"/>
			<path fill="#005695" d="M318.419,534.104c0.499-1.652,0.959-2.728,1.491-4.054h-5.044c0.225,0.475,0.992,2.401,1.491,4.054
				c0.534,1.77,0.9,3.375,1.03,4.415C317.519,537.479,317.884,535.873,318.419,534.104z"/>
		</g>
	</g>
	<g>
		<g>
			
				<line fill="none" stroke="#005695" stroke-linecap="round" stroke-miterlimit="1" x1="317.396" y1="558.711" x2="317.396" y2="565.605"/>
			<path fill="#005695" d="M318.421,567.967c0.499-1.652,0.959-2.728,1.491-4.054h-5.044c0.225,0.475,0.992,2.401,1.491,4.054
				c0.534,1.77,0.9,3.375,1.03,4.415C317.521,571.342,317.886,569.736,318.421,567.967z"/>
		</g>
	</g>
	
		<rect x="281.392" y="571.857" fill="#B2CEE7" stroke="#010101" stroke-width="0.75" stroke-linecap="round" stroke-linejoin="round" stroke-miterlimit="1" width="72.002" height="18"/>
	<g>
		<text transform="matrix(1 0 0 1 299.4976 582.8047)" font-size="7">Mean Pres.</text>
	</g>
	
		<polygon fill="#CCDEF0" stroke="#010101" stroke-width="0.75" stroke-linecap="round" stroke-linejoin="round" stroke-miterlimit="1" points="
		281.392,548.578 317.363,538.994 353.398,548.887 353.398,548.91 317.326,558.629 	"/>
	<g>
		<text transform="matrix(1 0.0022 -0.0022 1 299.3052 551.2197)" font-size="7">CONTAINS</text>
	</g>
	
		<line fill="none" stroke="#005695" stroke-linecap="round" stroke-miterlimit="1" stroke-dasharray="4" x1="317.394" y1="513.488" x2="386.32" y2="513.49"/>
	<g>
		<g>
			
				<line fill="none" stroke="#005695" stroke-linecap="round" stroke-miterlimit="1" x1="254.998" y1="398.697" x2="254.998" y2="416.949"/>
			<path fill="#005695" d="M256.023,419.311c0.499-1.652,0.959-2.728,1.491-4.054h-5.044c0.225,0.475,0.992,2.401,1.491,4.054
				c0.534,1.77,0.9,3.375,1.03,4.415C255.123,422.686,255.488,421.08,256.023,419.311z"/>
		</g>
	</g>
	<g>
		<g>
			
				<line fill="none" stroke="#005695" stroke-linecap="round" stroke-miterlimit="1" x1="160.681" y1="346.154" x2="160.681" y2="413.35"/>
			<path fill="#005695" d="M161.706,415.711c0.5-1.652,0.959-2.728,1.492-4.054h-5.044c0.226,0.475,0.993,2.401,1.492,4.054
				c0.535,1.77,0.9,3.375,1.031,4.415C160.806,419.086,161.172,417.48,161.706,415.711z"/>
		</g>
	</g>
	<g>
		<g>
			
				<line fill="none" stroke="#005695" stroke-linecap="round" stroke-miterlimit="1" x1="160.681" y1="443.918" x2="160.681" y2="450.812"/>
			<path fill="#005695" d="M161.706,453.174c0.5-1.652,0.959-2.728,1.492-4.054h-5.044c0.226,0.475,0.993,2.401,1.492,4.054
				c0.535,1.77,0.9,3.375,1.031,4.415C160.806,456.549,161.172,454.943,161.706,453.174z"/>
		</g>
	</g>
	
		<rect x="115.68" y="457.064" fill="#B2CEE7" stroke="#010101" stroke-width="0.75" stroke-linecap="round" stroke-linejoin="round" stroke-miterlimit="1" width="90.002" height="24.545"/>
	<g>
		<text transform="matrix(1 0 0 1 131.8906 467.0801)"><tspan x="0" y="0" font-size="7">Anatomic Location</tspan><tspan x="9.244" y="8.4" font-size="7">LOC = Aorta</tspan></text>
	</g>
	
		<polygon fill="#CCDEF0" stroke="#010101" stroke-width="0.75" stroke-linecap="round" stroke-linejoin="round" stroke-miterlimit="1" points="
		115.678,432.646 160.641,420.666 205.684,433.033 205.684,433.062 160.594,445.211 	"/>
	<g>
		<g>
			<line fill="none" stroke="#005695" stroke-linecap="round" stroke-miterlimit="1" x1="255" y1="443.918" x2="255" y2="450.812"/>
			<path fill="#005695" d="M256.025,453.174c0.499-1.652,0.959-2.728,1.491-4.054h-5.044c0.225,0.475,0.992,2.401,1.491,4.054
				c0.534,1.77,0.9,3.375,1.03,4.415C255.125,456.549,255.49,454.943,256.025,453.174z"/>
		</g>
	</g>
	
		<rect x="218.995" y="457.064" fill="#B2CEE7" stroke="#010101" stroke-width="0.75" stroke-linecap="round" stroke-linejoin="round" stroke-miterlimit="1" width="72.003" height="18"/>
	<g>
		<text transform="matrix(1 0 0 1 233.7959 468.0098)" font-size="7">Systolic Pres.</text>
	</g>
	
		<polygon fill="#CCDEF0" stroke="#010101" stroke-width="0.75" stroke-linecap="round" stroke-linejoin="round" stroke-miterlimit="1" points="
		218.995,433.785 254.966,424.203 291.001,434.094 291.001,434.117 254.929,443.838 	"/>
	<g>
		<text transform="matrix(1 0.0022 -0.0022 1 236.9077 436.4258)" font-size="7">CONTAINS</text>
	</g>
	<g>
		<g>
			
				<line fill="none" stroke="#005695" stroke-linecap="round" stroke-miterlimit="1" x1="334.722" y1="398.697" x2="334.722" y2="416.949"/>
			<path fill="#005695" d="M335.748,419.311c0.499-1.652,0.959-2.728,1.491-4.054h-5.044c0.225,0.475,0.992,2.401,1.491,4.054
				c0.534,1.77,0.9,3.375,1.03,4.415C334.847,422.686,335.212,421.08,335.748,419.311z"/>
		</g>
	</g>
	<g>
		<g>
			
				<line fill="none" stroke="#005695" stroke-linecap="round" stroke-miterlimit="1" x1="334.724" y1="443.918" x2="334.724" y2="450.812"/>
			<path fill="#005695" d="M335.75,453.174c0.499-1.652,0.959-2.728,1.491-4.054h-5.044c0.225,0.475,0.992,2.401,1.491,4.054
				c0.534,1.77,0.9,3.375,1.03,4.415C334.849,456.549,335.214,454.943,335.75,453.174z"/>
		</g>
	</g>
	
		<rect x="298.722" y="457.064" fill="#B2CEE7" stroke="#010101" stroke-width="0.75" stroke-linecap="round" stroke-linejoin="round" stroke-miterlimit="1" width="72.002" height="18"/>
	<g>
		<text transform="matrix(1 0 0 1 312.355 468.0098)" font-size="7">Diastolic Pres.</text>
	</g>
	
		<polygon fill="#CCDEF0" stroke="#010101" stroke-width="0.75" stroke-linecap="round" stroke-linejoin="round" stroke-miterlimit="1" points="
		298.722,433.785 334.693,424.203 370.728,434.094 370.728,434.117 334.654,443.838 	"/>
	<g>
		<text transform="matrix(1 0.0022 -0.0022 1 316.6333 436.4258)" font-size="7">CONTAINS</text>
	</g>
	<g>
		<g>
			<polyline fill="none" stroke="#005695" stroke-linecap="round" stroke-miterlimit="1" points="160.764,398.697 160.8,398.697 
				414.449,398.697 414.449,398.697 414.449,416.949 			"/>
			<path fill="#005695" d="M415.474,419.311c0.499-1.652,0.959-2.728,1.491-4.054h-5.044c0.225,0.475,0.992,2.401,1.491,4.054
				c0.534,1.77,0.9,3.375,1.03,4.415C414.574,422.686,414.939,421.08,415.474,419.311z"/>
		</g>
	</g>
	<g>
		<g>
			
				<line fill="none" stroke="#005695" stroke-linecap="round" stroke-miterlimit="1" x1="414.451" y1="443.918" x2="414.451" y2="450.812"/>
			<path fill="#005695" d="M415.476,453.174c0.499-1.652,0.959-2.728,1.491-4.054h-5.044c0.225,0.475,0.992,2.401,1.491,4.054
				c0.534,1.77,0.9,3.375,1.03,4.415C414.576,456.549,414.941,454.943,415.476,453.174z"/>
		</g>
	</g>
	
		<rect x="378.447" y="457.064" fill="#B2CEE7" stroke="#010101" stroke-width="0.75" stroke-linecap="round" stroke-linejoin="round" stroke-miterlimit="1" width="72.002" height="18"/>
	<g>
		<text transform="matrix(1 0 0 1 396.5503 468.0098)" font-size="7">Mean Pres.</text>
	</g>
	
		<polygon fill="#CCDEF0" stroke="#010101" stroke-width="0.75" stroke-linecap="round" stroke-linejoin="round" stroke-miterlimit="1" points="
		378.447,433.785 414.417,424.203 450.453,434.094 450.453,434.117 414.38,443.838 	"/>
	<g>
		<text transform="matrix(1 0.0022 -0.0022 1 396.3589 436.4258)" font-size="7">CONTAINS</text>
	</g>
	
		<line fill="none" stroke="#005695" stroke-linecap="round" stroke-miterlimit="1" stroke-dasharray="4" x1="414.449" y1="398.697" x2="483.375" y2="398.697"/>
	
		<line fill="none" stroke="#005695" stroke-linecap="round" stroke-miterlimit="1" x1="270.431" y1="356.16" x2="270.431" y2="364.414"/>
	
		<line fill="none" stroke="#005695" stroke-linecap="round" stroke-miterlimit="1" x1="258.748" y1="346.154" x2="258.748" y2="375.213"/>
	
		<line fill="none" stroke="#005695" stroke-linecap="round" stroke-miterlimit="1" x1="280.306" y1="356.16" x2="280.306" y2="364.414"/>
	<polyline fill="none" stroke="#005695" stroke-linecap="round" stroke-miterlimit="1" points="258.759,356.16 258.763,356.16 
		290.183,356.16 290.183,356.16 290.183,364.414 	"/>
	
		<line fill="none" stroke="#005695" stroke-linecap="round" stroke-miterlimit="1" stroke-dasharray="4" x1="290.183" y1="356.16" x2="302.32" y2="356.16"/>
	
		<line fill="none" stroke="#005695" stroke-linecap="round" stroke-miterlimit="1" x1="366.498" y1="356.16" x2="366.498" y2="364.414"/>
	
		<line fill="none" stroke="#005695" stroke-linecap="round" stroke-miterlimit="1" x1="354.814" y1="346.154" x2="354.814" y2="375.213"/>
	
		<line fill="none" stroke="#005695" stroke-linecap="round" stroke-miterlimit="1" x1="376.373" y1="356.16" x2="376.373" y2="364.414"/>
	<polyline fill="none" stroke="#005695" stroke-linecap="round" stroke-miterlimit="1" points="354.824,356.16 354.828,356.16 
		386.248,356.16 386.248,356.16 386.248,364.414 	"/>
	
		<line fill="none" stroke="#005695" stroke-linecap="round" stroke-miterlimit="1" stroke-dasharray="4" x1="386.248" y1="356.16" x2="398.386" y2="356.16"/>
	<polyline fill="none" stroke="#005695" stroke-linecap="round" stroke-miterlimit="1" stroke-dasharray="4" points="
		353.908,266.843 353.919,266.844 437.14,266.843 	"/>
	<text transform="matrix(1 0 0 1 127.4268 434.8857)" font-size="7">HAS OBS CONTEXT</text>
	<text transform="matrix(1 0 0 1 30.3726 549.6807)" font-size="7">HAS OBS CONTEXT</text>
</g>
</svg>
