<?xml version="1.0" encoding="utf-8"?>
<!-- $Source: /home/bbennett/pass/archive/DicomXml/docbook/part17/figures/PS3.17_I.1-1.svg,v $ -->
<!-- $Date: 2014/05/09 12:30:20 $ -->
<!-- $Revision: 1.2 $ -->

<!DOCTYPE svg PUBLIC "-//W3C//DTD SVG 1.1//EN" "http://www.w3.org/Graphics/SVG/1.1/DTD/svg11.dtd">
<svg version="1.1" id="Layer_1" xmlns="http://www.w3.org/2000/svg" xmlns:xlink="http://www.w3.org/1999/xlink" x="0px" y="0px"
	 width="502px" height="412px" viewBox="0 0 502 412" enable-background="new 0 0 502 412" xml:space="preserve">

<defs>
	<style type="text/css">
	text {
	  font-family: Helvetica, Verdana, ArialUnicodeMS, san-serif
	}
	</style>
</defs>

<g>
   <desc>
	PS 3.17 Part 17: Explanatory Information
   </desc>
</g>

<g>
	<rect x="1" y="1" fill="#F5EED6" width="500" height="410"/>
	<g>
		<g>
			<g>
				
					<line fill="none" stroke="#005695" stroke-linecap="round" stroke-miterlimit="1" x1="74.39" y1="129.608" x2="74.39" y2="136.961"/>
				<path fill="#005695" d="M75.415,139.323c0.5-1.653,0.959-2.728,1.492-4.054h-5.044c0.226,0.475,0.993,2.401,1.492,4.054
					c0.535,1.77,0.9,3.374,1.031,4.415C74.515,142.697,74.88,141.093,75.415,139.323z"/>
			</g>
		</g>
		<g>
			<g>
				
					<line fill="none" stroke="#005695" stroke-linecap="round" stroke-miterlimit="1" x1="278.895" y1="127.757" x2="278.895" y2="138.813"/>
				<path fill="#005695" d="M279.92,141.175c0.499-1.653,0.959-2.728,1.491-4.054h-5.044c0.225,0.475,0.992,2.401,1.491,4.054
					c0.534,1.77,0.9,3.374,1.03,4.415C279.02,144.549,279.385,142.944,279.92,141.175z"/>
			</g>
		</g>
		
			<rect x="286.801" y="279.467" fill="#B2CEE7" stroke="#010101" stroke-width="0.75" stroke-linecap="round" stroke-linejoin="round" stroke-miterlimit="1" width="99" height="27"/>
		<g>
			<g>
				
					<line fill="none" stroke="#005695" stroke-linecap="round" stroke-miterlimit="1" x1="336.303" y1="264.193" x2="336.303" y2="272.666"/>
				<path fill="#005695" d="M337.328,275.027c0.499-1.652,0.959-2.728,1.491-4.054h-5.044c0.225,0.475,0.992,2.401,1.491,4.054
					c0.534,1.77,0.9,3.375,1.03,4.415C336.428,278.402,336.793,276.797,337.328,275.027z"/>
			</g>
		</g>
		
			<polygon fill="#CCDEF0" stroke="#010101" stroke-width="0.75" stroke-linecap="round" stroke-linejoin="round" stroke-miterlimit="1" points="
			291.623,250.375 335.658,237.203 379.764,250.801 379.764,250.832 335.609,264.193 		"/>
		<g>
			<text transform="matrix(1 0 0 1 317.6172 252.6504)" font-size="7">CONTAINS</text>
		</g>
		<g>
			<text transform="matrix(1 0 0 1 315.6807 290.7236)"><tspan x="0" y="0" font-size="7">Observations</tspan><tspan x="-23.907" y="8.399" font-size="7">(NUM, CODE, TEXT, DATE)</tspan></text>
		</g>
		<g>
			<g>
				
					<line fill="none" stroke="#005695" stroke-linecap="round" stroke-miterlimit="1" x1="132.048" y1="263.803" x2="132.048" y2="272.873"/>
				<path fill="#005695" d="M133.073,275.234c0.5-1.652,0.959-2.728,1.492-4.054h-5.044c0.226,0.475,0.993,2.401,1.492,4.054
					c0.535,1.77,0.9,3.375,1.031,4.415C132.173,278.609,132.539,277.004,133.073,275.234z"/>
			</g>
		</g>
		<g>
			<g>
				<polyline fill="none" stroke="#005695" stroke-linecap="round" stroke-miterlimit="1" points="178.121,204.063 178.121,217.43 
					132.048,217.43 132.048,231.012 				"/>
				<path fill="#005695" d="M133.073,233.373c0.5-1.652,0.959-2.728,1.492-4.054h-5.044c0.226,0.475,0.993,2.401,1.492,4.054
					c0.535,1.77,0.9,3.375,1.031,4.415C132.173,236.748,132.539,235.143,133.073,233.373z"/>
			</g>
		</g>
		<g>
			<g>
				
					<line fill="none" stroke="#005695" stroke-linecap="round" stroke-miterlimit="1" x1="229.395" y1="264.398" x2="229.395" y2="272.871"/>
				<path fill="#005695" d="M230.419,275.232c0.5-1.652,0.959-2.728,1.492-4.054h-5.044c0.226,0.475,0.993,2.401,1.492,4.054
					c0.535,1.77,0.9,3.375,1.031,4.415C229.52,278.607,229.885,277.002,230.419,275.232z"/>
			</g>
		</g>
		<g>
			<g>
				<polyline fill="none" stroke="#005695" stroke-linecap="round" stroke-miterlimit="1" points="178.143,217.43 229.395,217.43 
					229.395,230.012 				"/>
				<path fill="#005695" d="M230.419,232.373c0.5-1.652,0.959-2.728,1.492-4.054h-5.044c0.226,0.475,0.993,2.401,1.492,4.054
					c0.535,1.77,0.9,3.375,1.031,4.415C229.52,235.748,229.885,234.143,230.419,232.373z"/>
			</g>
		</g>
		<g>
			<g>
				<path fill="none" stroke="#005695" stroke-linecap="round" stroke-miterlimit="1" d="M74.39,92.864c0,0,0,2.346,0,5.027"/>
				<path fill="#005695" d="M75.415,100.253c0.5-1.653,0.959-2.728,1.492-4.054h-5.044c0.226,0.475,0.993,2.401,1.492,4.054
					c0.535,1.77,0.9,3.374,1.031,4.415C74.515,103.627,74.881,102.022,75.415,100.253z"/>
			</g>
		</g>
		<g>
			<g>
				<path fill="none" stroke="#005695" stroke-linecap="round" stroke-miterlimit="1" d="M278.896,92.864c0,0,0,2.346,0,5.027"/>
				<path fill="#005695" d="M279.922,100.253c0.499-1.653,0.959-2.728,1.491-4.054h-5.044c0.225,0.475,0.992,2.401,1.491,4.054
					c0.534,1.77,0.9,3.374,1.03,4.415C279.021,103.627,279.387,102.022,279.922,100.253z"/>
			</g>
		</g>
		<g>
			<g>
				<path fill="none" stroke="#005695" stroke-linecap="round" stroke-miterlimit="1" d="M178.142,170.987c0,0,0,2.347,0,5.027"/>
				<path fill="#005695" d="M179.167,178.376c0.5-1.653,0.959-2.728,1.492-4.054h-5.044c0.226,0.475,0.993,2.401,1.492,4.054
					c0.535,1.77,0.9,3.374,1.031,4.415C178.267,181.75,178.632,180.146,179.167,178.376z"/>
			</g>
		</g>
		<g>
			<g>
				<polyline fill="none" stroke="#005695" stroke-linecap="round" stroke-miterlimit="1" points="228.784,42.914 228.784,51.897 
					74.39,51.897 74.39,58.89 				"/>
				<path fill="#005695" d="M75.415,61.251c0.5-1.653,0.959-2.728,1.492-4.054h-5.044c0.226,0.475,0.993,2.401,1.492,4.054
					c0.535,1.77,0.9,3.374,1.031,4.415C74.515,64.625,74.88,63.021,75.415,61.251z"/>
			</g>
		</g>
		<g>
			<g>
				<polyline fill="none" stroke="#005695" stroke-linecap="round" stroke-miterlimit="1" points="278.223,51.897 382.398,51.897 
					382.398,137.149 				"/>
				<path fill="#005695" d="M383.424,139.511c0.499-1.653,0.959-2.728,1.491-4.054h-5.044c0.225,0.475,0.992,2.401,1.491,4.054
					c0.534,1.77,0.9,3.374,1.03,4.415C382.523,142.885,382.889,141.28,383.424,139.511z"/>
			</g>
		</g>
		<g>
			<g>
				<polyline fill="none" stroke="#005695" stroke-linecap="round" stroke-miterlimit="1" points="229.51,51.897 278.896,51.897 
					278.896,58.89 				"/>
				<path fill="#005695" d="M279.922,61.251c0.499-1.653,0.959-2.728,1.491-4.054h-5.044c0.225,0.475,0.992,2.401,1.491,4.054
					c0.534,1.77,0.9,3.374,1.03,4.415C279.021,64.625,279.387,63.021,279.922,61.251z"/>
			</g>
		</g>
		
			<rect x="192.729" y="16.277" fill="#86B2D8" stroke="#010101" stroke-width="0.75" stroke-linecap="round" stroke-linejoin="round" stroke-miterlimit="1" width="72.11" height="27.001"/>
		<g>
			<text transform="matrix(1 0 0 1 204.4668 27.208)"><tspan x="0" y="0" font-size="7">Document Root</tspan><tspan x="1.374" y="8.4" font-size="7">(CONTAINER)</tspan></text>
		</g>
		
			<rect x="33.89" y="103.011" fill="#B2CEE7" stroke="#010101" stroke-width="0.75" stroke-linecap="round" stroke-linejoin="round" stroke-miterlimit="1" width="81" height="27"/>
		<g>
			<text transform="matrix(1 0 0 1 39.3745 113.6167)"><tspan x="0" y="0" font-size="7">Patient Characteristics</tspan><tspan x="12.07" y="8.4" font-size="7">(CONTAINER)</tspan></text>
		</g>
		
			<rect x="137.641" y="180.442" fill="#B2CEE7" stroke="#010101" stroke-width="0.75" stroke-linecap="round" stroke-linejoin="round" stroke-miterlimit="1" width="81.004" height="27"/>
		<g>
			<text transform="matrix(1 0 0 1 146.0464 191.687)"><tspan x="0" y="0" font-size="7">Procedure Summary</tspan><tspan x="9.151" y="8.4" font-size="7">(CONTAINER)</tspan></text>
		</g>
		
			<rect x="91.366" y="279.467" fill="#B2CEE7" stroke="#010101" stroke-width="0.75" stroke-linecap="round" stroke-linejoin="round" stroke-miterlimit="1" width="81" height="27"/>
		<g>
			<text transform="matrix(1 0 0 1 107.166 290.7227)"><tspan x="0" y="0" font-size="7">Fetus Summary</tspan><tspan x="1.757" y="8.4" font-size="7">(CONTAINER)</tspan></text>
		</g>
		
			<polygon fill="#CCDEF0" stroke="#010101" stroke-width="0.75" stroke-linecap="round" stroke-linejoin="round" stroke-miterlimit="1" points="
			184.714,250.375 228.75,237.203 272.855,250.801 272.855,250.832 228.701,264.193 		"/>
		<g>
			<text transform="matrix(1 0 0 1 210.708 252.6504)" font-size="7">CONTAINS</text>
		</g>
		
			<polygon fill="#CCDEF0" stroke="#010101" stroke-width="0.75" stroke-linecap="round" stroke-linejoin="round" stroke-miterlimit="1" points="
			87.046,250.375 131.074,237.203 175.178,250.801 175.178,250.832 131.027,264.193 		"/>
		<g>
			<text transform="matrix(1 0 0 1 113.0278 252.6504)" font-size="7">CONTAINS</text>
		</g>
		
			<polygon fill="#CCDEF0" stroke="#010101" stroke-width="0.75" stroke-linecap="round" stroke-linejoin="round" stroke-miterlimit="1" points="
			34.01,79.057 74.037,65.883 114.129,79.482 114.129,79.514 73.994,92.877 		"/>
		<g>
			<text transform="matrix(1 0 0 1 55.9834 81.3286)" font-size="7">CONTAINS</text>
		</g>
		<g>
			<g>
				
					<line fill="none" stroke="#005695" stroke-linecap="round" stroke-miterlimit="1" x1="178.021" y1="51.897" x2="178.021" y2="137.013"/>
				<path fill="#005695" d="M179.045,139.375c0.5-1.653,0.959-2.728,1.492-4.054h-5.044c0.226,0.475,0.993,2.401,1.492,4.054
					c0.535,1.77,0.9,3.374,1.031,4.415C178.146,142.749,178.511,141.145,179.045,139.375z"/>
			</g>
		</g>
		
			<polygon fill="#CCDEF0" stroke="#010101" stroke-width="0.75" stroke-linecap="round" stroke-linejoin="round" stroke-miterlimit="1" points="
			137.642,157.13 177.668,143.957 217.761,157.556 217.761,157.587 177.625,170.951 		"/>
		<g>
			<text transform="matrix(1 0 0 1 159.6162 159.3994)" font-size="7">CONTAINS</text>
		</g>
		<g>
			<g>
				<path fill="none" stroke="#005695" stroke-linecap="round" stroke-miterlimit="1" d="M74.39,170.987c0,0,0,2.347,0,5.027"/>
				<path fill="#005695" d="M75.415,178.376c0.5-1.653,0.959-2.728,1.492-4.054h-5.044c0.226,0.475,0.993,2.401,1.492,4.054
					c0.535,1.77,0.9,3.374,1.031,4.415C74.515,181.75,74.881,180.146,75.415,178.376z"/>
			</g>
		</g>
		
			<rect x="24.889" y="180.439" fill="#B2CEE7" stroke="#010101" stroke-width="0.75" stroke-linecap="round" stroke-linejoin="round" stroke-miterlimit="1" width="99" height="27.002"/>
		<g>
			<text transform="matrix(1 0 0 1 53.7676 191.6875)"><tspan x="0" y="0" font-size="7">Observations</tspan><tspan x="-23.907" y="8.4" font-size="7">(NUM, CODE, TEXT, DATE)</tspan></text>
		</g>
		
			<rect x="179.894" y="279.467" fill="#B2CEE7" stroke="#010101" stroke-width="0.75" stroke-linecap="round" stroke-linejoin="round" stroke-miterlimit="1" width="99.001" height="27"/>
		<g>
			<text transform="matrix(1 0 0 1 208.771 290.7236)"><tspan x="0" y="0" font-size="7">Observations</tspan><tspan x="-23.907" y="8.399" font-size="7">(NUM, CODE, TEXT, DATE)</tspan></text>
		</g>
		<g>
			<g>
				<polyline fill="none" stroke="#005695" stroke-linecap="round" stroke-miterlimit="1" points="382.377,204.063 382.377,217.43 
					336.303,217.43 336.303,231.012 				"/>
				<path fill="#005695" d="M337.328,233.373c0.499-1.652,0.959-2.728,1.491-4.054h-5.044c0.225,0.475,0.992,2.401,1.491,4.054
					c0.534,1.77,0.9,3.375,1.03,4.415C336.428,236.748,336.793,235.143,337.328,233.373z"/>
			</g>
		</g>
		
			<rect x="392.541" y="368.723" fill="#B2CEE7" stroke="#010101" stroke-width="0.75" stroke-linecap="round" stroke-linejoin="round" stroke-miterlimit="1" width="81" height="27"/>
		<g>
			<g>
				
					<line fill="none" stroke="#005695" stroke-linecap="round" stroke-miterlimit="1" x1="433.043" y1="352.803" x2="433.043" y2="361.277"/>
				<path fill="#005695" d="M434.068,363.639c0.499-1.652,0.959-2.728,1.491-4.054h-5.044c0.225,0.475,0.992,2.401,1.491,4.054
					c0.534,1.77,0.9,3.375,1.03,4.415C433.168,367.014,433.533,365.408,434.068,363.639z"/>
			</g>
		</g>
		
			<polygon fill="#CCDEF0" stroke="#010101" stroke-width="0.75" stroke-linecap="round" stroke-linejoin="round" stroke-miterlimit="1" points="
			388.363,338.982 432.398,325.809 476.504,339.408 476.504,339.439 432.35,352.803 		"/>
		<g>
			<text transform="matrix(1 0 0 1 414.3574 341.2617)" font-size="7">CONTAINS</text>
		</g>
		<g>
			<text transform="matrix(1 0 0 1 412.4209 379.1299)"><tspan x="0" y="0" font-size="7">Observations</tspan><tspan x="-12.628" y="8.399" font-size="7">(NUM, CODE, TEXT)</tspan></text>
		</g>
		<g>
			<g>
				
					<line fill="none" stroke="#005695" stroke-linecap="round" stroke-miterlimit="1" x1="433.043" y1="306.033" x2="433.043" y2="319.617"/>
				<path fill="#005695" d="M434.068,321.979c0.499-1.652,0.959-2.728,1.491-4.054h-5.044c0.225,0.475,0.992,2.401,1.491,4.054
					c0.534,1.77,0.9,3.375,1.03,4.415C433.168,325.354,433.533,323.748,434.068,321.979z"/>
			</g>
		</g>
		<g>
			<g>
				
					<line fill="none" stroke="#005695" stroke-linecap="round" stroke-miterlimit="1" x1="433.65" y1="264.398" x2="433.65" y2="272.871"/>
				<path fill="#005695" d="M434.676,275.232c0.499-1.652,0.959-2.728,1.491-4.054h-5.044c0.225,0.475,0.992,2.401,1.491,4.054
					c0.534,1.77,0.9,3.375,1.03,4.415C433.775,278.607,434.141,277.002,434.676,275.232z"/>
			</g>
		</g>
		<g>
			<g>
				<polyline fill="none" stroke="#005695" stroke-linecap="round" stroke-miterlimit="1" points="382.398,217.43 433.65,217.43 
					433.65,230.012 				"/>
				<path fill="#005695" d="M434.676,232.373c0.499-1.652,0.959-2.728,1.491-4.054h-5.044c0.225,0.475,0.992,2.401,1.491,4.054
					c0.534,1.77,0.9,3.375,1.03,4.415C433.775,235.748,434.141,234.143,434.676,232.373z"/>
			</g>
		</g>
		<g>
			<g>
				<path fill="none" stroke="#005695" stroke-linecap="round" stroke-miterlimit="1" d="M382.396,170.987c0,0,0,2.347,0,5.027"/>
				<path fill="#005695" d="M383.422,178.376c0.499-1.653,0.959-2.728,1.491-4.054h-5.044c0.225,0.475,0.992,2.401,1.491,4.054
					c0.534,1.77,0.9,3.374,1.03,4.415C382.521,181.75,382.887,180.146,383.422,178.376z"/>
			</g>
		</g>
		
			<rect x="341.896" y="180.442" fill="#B2CEE7" stroke="#010101" stroke-width="0.75" stroke-linecap="round" stroke-linejoin="round" stroke-miterlimit="1" width="81.004" height="27"/>
		<g>
			<text transform="matrix(1 0 0 1 369.3594 191.687)"><tspan x="0" y="0" font-size="7">Heading</tspan><tspan x="-9.905" y="8.4" font-size="7">(CONTAINER)</tspan></text>
		</g>
		
			<polygon fill="#CCDEF0" stroke="#010101" stroke-width="0.75" stroke-linecap="round" stroke-linejoin="round" stroke-miterlimit="1" points="
			388.969,250.375 433.006,237.203 477.111,250.801 477.111,250.832 432.957,264.193 		"/>
		<g>
			<text transform="matrix(1 0 0 1 414.9648 252.6504)" font-size="7">CONTAINS</text>
		</g>
		
			<polygon fill="#CCDEF0" stroke="#010101" stroke-width="0.75" stroke-linecap="round" stroke-linejoin="round" stroke-miterlimit="1" points="
			341.896,157.13 381.924,143.957 422.016,157.556 422.016,157.587 381.881,170.951 		"/>
		<g>
			<text transform="matrix(1 0 0 1 363.873 159.3994)" font-size="7">CONTAINS</text>
		</g>
		
			<rect x="393.146" y="279.467" fill="#B2CEE7" stroke="#010101" stroke-width="0.75" stroke-linecap="round" stroke-linejoin="round" stroke-miterlimit="1" width="81" height="27"/>
		<g>
			<text transform="matrix(1 0 0 1 401.5498 290.7236)"><tspan x="0" y="0" font-size="7">Measurement Group</tspan><tspan x="-2.901" y="8.399" font-size="7">(CONTAINER, CODE)</tspan></text>
		</g>
		
			<polygon fill="#CCDEF0" stroke="#010101" stroke-width="0.75" stroke-linecap="round" stroke-linejoin="round" stroke-miterlimit="1" points="
			34.01,157.128 74.037,143.955 114.129,157.554 114.129,157.585 73.994,170.949 		"/>
		<g>
			<text transform="matrix(1 0 0 1 55.9834 159.3994)" font-size="7">CONTAINS</text>
		</g>
		<g>
			<g>
				
					<line fill="none" stroke="#005695" stroke-linecap="round" stroke-miterlimit="1" x1="278.895" y1="68.083" x2="278.895" y2="76.722"/>
				<path fill="#005695" d="M279.92,79.083c0.499-1.653,0.959-2.728,1.491-4.054h-5.044c0.225,0.475,0.992,2.401,1.491,4.054
					c0.534,1.77,0.9,3.374,1.03,4.415C279.02,82.458,279.385,80.853,279.92,79.083z"/>
			</g>
		</g>
		
			<rect x="238.395" y="102.377" fill="#B2CEE7" stroke="#010101" stroke-width="0.75" stroke-linecap="round" stroke-linejoin="round" stroke-miterlimit="1" width="81" height="26.984"/>
		<g>
			<text transform="matrix(1 0 0 1 257.3018 113.6162)"><tspan x="0" y="0" font-size="7">Image LIbrary</tspan><tspan x="-1.35" y="8.4" font-size="7">(CONTAINER)</tspan></text>
		</g>
		
			<polygon fill="#CCDEF0" stroke="#010101" stroke-width="0.75" stroke-linecap="round" stroke-linejoin="round" stroke-miterlimit="1" points="
			233.895,79.06 278.855,65.891 323.895,79.485 323.895,79.516 278.805,92.87 		"/>
		<g>
			<text transform="matrix(1 0 0 1 260.8105 81.3286)" font-size="7">CONTAINS</text>
		</g>
		<g>
			<g>
				
					<line fill="none" stroke="#005695" stroke-linecap="round" stroke-miterlimit="1" x1="278.895" y1="167.375" x2="278.895" y2="176.014"/>
				<path fill="#005695" d="M279.92,178.376c0.499-1.653,0.959-2.728,1.491-4.054h-5.044c0.225,0.475,0.992,2.401,1.491,4.054
					c0.534,1.77,0.9,3.374,1.03,4.415C279.02,181.75,279.385,180.146,279.92,178.376z"/>
			</g>
		</g>
		
			<rect x="238.395" y="180.448" fill="#B2CEE7" stroke="#010101" stroke-width="0.75" stroke-linecap="round" stroke-linejoin="round" stroke-miterlimit="1" width="81" height="26.984"/>
		<g>
			<text transform="matrix(1 0 0 1 260.0264 191.6865)"><tspan x="0" y="0" font-size="7">Image Entry</tspan><tspan x="5.259" y="8.4" font-size="7">(IMAGE)</tspan></text>
		</g>
		
			<polygon fill="#CCDEF0" stroke="#010101" stroke-width="0.75" stroke-linecap="round" stroke-linejoin="round" stroke-miterlimit="1" points="
			233.895,157.131 278.855,143.962 323.895,157.557 323.895,157.587 278.805,170.942 		"/>
		<g>
			<text transform="matrix(1 0 0 1 260.8105 159.3994)" font-size="7">CONTAINS</text>
		</g>
	</g>
</g>
</svg>
