<?xml version="1.0" encoding="utf-8"?>
<!-- $Source: /home/bbennett/pass/archive/DicomXml/docbook/part17/figures/PS3.17_FFF.2.3-5.svg,v $ -->
<!-- $Date: 2014/05/09 13:15:43 $ -->
<!-- $Revision: 1.1 $ -->

<!DOCTYPE svg PUBLIC "-//W3C//DTD SVG 1.1//EN" "http://www.w3.org/Graphics/SVG/1.1/DTD/svg11.dtd">
<svg version="1.1" id="Layer_1" xmlns="http://www.w3.org/2000/svg" xmlns:xlink="http://www.w3.org/1999/xlink" x="0px" y="0px"
	 width="502.001px" height="617px" viewBox="0 0 502.001 617" enable-background="new 0 0 502.001 617" xml:space="preserve">

<defs>
	<style type="text/css">
	text {
	  font-family: Helvetica, Verdana, ArialUnicodeMS, san-serif
	}
	</style>
</defs>

<g>
   <desc>
	PS 3.17 Part 17: Explanatory Information
   </desc>
</g>

<g>
	<rect x="1" y="1" fill="#F5EED6" width="500.001" height="615"/>
</g>
<g>
	
		<rect x="54.338" y="15.828" fill="#B2CEE7" stroke="#010101" stroke-width="0.75" stroke-linecap="round" stroke-linejoin="round" stroke-miterlimit="1" width="257.889" height="180.369"/>
	<rect x="320.813" y="19.299" fill="none" width="126.849" height="581.873"/>
	<text transform="matrix(0.9288 0 0 1 320.8135 53.0254)"><tspan x="0" y="0" font-size="8">= AVG_SUB</tspan><tspan x="0" y="14" font-size="8">= 100</tspan><tspan x="0" y="28" font-size="8">= 2\3</tspan><tspan x="0" y="42" font-size="8">= 1</tspan><tspan x="0" y="56" font-size="8">= Left Leg</tspan><tspan x="0" y="84" font-size="8">= AVG_SUB</tspan><tspan x="0" y="98" font-size="8">= 101</tspan><tspan x="0" y="112" font-size="8">= 2\3</tspan><tspan x="0" y="126" font-size="8">= 1</tspan><tspan x="0" y="140" font-size="8">= Right Leg</tspan><tspan x="0" y="182" font-size="8">Frame 1</tspan><tspan x="0" y="224" font-size="8">= 100</tspan><tspan x="0" y="238" font-size="8">= 0.0\0.0</tspan><tspan x="0" y="266" font-size="8">= 101</tspan><tspan x="0" y="280" font-size="8">= 0.0\0.0</tspan><tspan x="0" y="308" font-size="8">Frame 2</tspan><tspan x="0" y="350" font-size="8">= 100</tspan><tspan x="0" y="364" font-size="8">= 0.0\1.2</tspan><tspan x="0" y="392" font-size="8">= 101</tspan><tspan x="0" y="406" font-size="8">= 0.0\2.3</tspan><tspan x="0" y="434" font-size="8">Frame 3</tspan><tspan x="0" y="476" font-size="8">= 100</tspan><tspan x="0" y="490" font-size="8">= 1.0\1.4</tspan><tspan x="0" y="518" font-size="8">= 101</tspan><tspan x="0" y="532" font-size="8">= 1.0\2.7</tspan></text>
	
		<rect x="54.338" y="210.262" fill="#B2CEE7" stroke="#010101" stroke-width="0.75" stroke-linecap="round" stroke-linejoin="round" stroke-miterlimit="1" width="257.904" height="390.908"/>
	
		<rect x="69.448" y="224.192" fill="#86B2D8" stroke="#010101" stroke-width="0.75" stroke-linecap="round" stroke-linejoin="round" stroke-miterlimit="1" width="242.794" height="125.658"/>
	<rect x="58.478" y="213.709" fill="none" width="141.988" height="7.715"/>
	<text transform="matrix(0.9288 0 0 1 58.478 219.4385)" font-size="8">Per-Frame Functional Groups Sequence</text>
	<rect x="73.719" y="228.129" fill="none" width="127.729" height="7.721"/>
	<text transform="matrix(0.9288 0 0 1 73.7188 233.856)" font-size="8">Item 1</text>
	<rect x="256.338" y="213.696" fill="none" width="44.984" height="7.717"/>
	<text transform="matrix(0.9288 0 0 1 256.3379 219.4258)" font-size="8">(5200,9230)</text>
	
		<rect x="84.578" y="238.121" fill="#FFFFFF" stroke="#010101" stroke-width="0.75" stroke-linecap="round" stroke-linejoin="round" stroke-miterlimit="1" width="227.664" height="97.731"/>
	
		<rect x="99.705" y="293.956" fill="#86B2D8" stroke="#010101" stroke-width="0.75" stroke-linecap="round" stroke-linejoin="round" stroke-miterlimit="1" width="212.537" height="42.019"/>
	
		<rect x="114.833" y="307.907" fill="#FFFFFF" stroke="#010101" stroke-width="0.75" stroke-linecap="round" stroke-linejoin="round" stroke-miterlimit="1" width="197.409" height="13.996"/>
	
		<rect x="114.833" y="321.855" fill="#FFFFFF" stroke="#010101" stroke-width="0.75" stroke-linecap="round" stroke-linejoin="round" stroke-miterlimit="1" width="197.409" height="13.996"/>
	<rect x="92.036" y="242.817" fill="none" width="108.83" height="7.717"/>
	<text transform="matrix(0.9288 0 0 1 92.0361 248.54)" font-size="8">&gt;Frame Pixel Shift Sequence</text>
	<rect x="122.292" y="312.529" fill="none" width="136.58" height="7.717"/>
	<text transform="matrix(0.9288 0 0 1 122.2915 318.2529)" font-size="8">&gt;&gt;Subtraction Item ID</text>
	<rect x="256.338" y="242.817" fill="none" width="44.984" height="7.717"/>
	<text transform="matrix(0.9288 0 0 1 256.3379 248.5425)" font-size="8">(0028,9415)</text>
	<rect x="256.74" y="312.529" fill="none" width="44.582" height="7.717"/>
	<text transform="matrix(0.9288 0 0 1 256.7402 318.2568)" font-size="8">(0028,9416)</text>
	<rect x="107.164" y="298.614" fill="none" width="136.58" height="7.717"/>
	<text transform="matrix(0.9288 0 0 1 107.1636 304.335)" font-size="8">Item 2</text>
	<rect x="122.292" y="326.439" fill="none" width="158.965" height="7.717"/>
	<text transform="matrix(0.9288 0 0 1 122.292 332.1758)" font-size="8">&gt;&gt;Mask Sub-pixel Shift</text>
	
		<rect x="84.578" y="335.852" fill="#FFFFFF" stroke="#010101" stroke-width="0.75" stroke-linecap="round" stroke-linejoin="round" stroke-miterlimit="1" width="227.664" height="13.996"/>
	<rect x="92.036" y="340.436" fill="none" width="158.965" height="7.717"/>
	<text transform="matrix(0.9288 0 0 1 92.0361 346.1719)" font-size="8">...</text>
	<rect x="256.338" y="326.439" fill="none" width="44.984" height="7.717"/>
	<text transform="matrix(0.9288 0 0 1 256.3379 332.1738)" font-size="8">(0028,6114)</text>
	
		<rect x="99.705" y="251.958" fill="#86B2D8" stroke="#010101" stroke-width="0.75" stroke-linecap="round" stroke-linejoin="round" stroke-miterlimit="1" width="212.537" height="42.02"/>
	
		<rect x="114.833" y="265.91" fill="#FFFFFF" stroke="#010101" stroke-width="0.75" stroke-linecap="round" stroke-linejoin="round" stroke-miterlimit="1" width="197.409" height="13.996"/>
	
		<rect x="114.833" y="279.859" fill="#FFFFFF" stroke="#010101" stroke-width="0.75" stroke-linecap="round" stroke-linejoin="round" stroke-miterlimit="1" width="197.409" height="13.996"/>
	<rect x="122.292" y="270.533" fill="none" width="136.58" height="7.717"/>
	<text transform="matrix(0.9288 0 0 1 122.2915 276.2559)" font-size="8">&gt;&gt;Subtraction Item ID</text>
	<rect x="256.74" y="270.533" fill="none" width="44.582" height="7.717"/>
	<text transform="matrix(0.9288 0 0 1 256.7402 276.2598)" font-size="8">(0028,9416)</text>
	<rect x="107.164" y="256.617" fill="none" width="136.58" height="7.717"/>
	<text transform="matrix(0.9288 0 0 1 107.1636 262.3379)" font-size="8">Item 1</text>
	<rect x="122.292" y="284.443" fill="none" width="158.965" height="7.717"/>
	<text transform="matrix(0.9288 0 0 1 122.292 290.1787)" font-size="8">&gt;&gt;Mask Sub-pixel Shift</text>
	<rect x="256.338" y="284.443" fill="none" width="44.984" height="7.717"/>
	<text transform="matrix(0.9288 0 0 1 256.3379 290.1768)" font-size="8">(0028,6114)</text>
	
		<rect x="69.448" y="349.852" fill="#86B2D8" stroke="#010101" stroke-width="0.75" stroke-linecap="round" stroke-linejoin="round" stroke-miterlimit="1" width="242.794" height="125.658"/>
	<rect x="73.719" y="353.789" fill="none" width="127.729" height="7.721"/>
	<text transform="matrix(0.9288 0 0 1 73.7188 359.5156)" font-size="8">Item 2</text>
	
		<rect x="84.578" y="363.781" fill="#FFFFFF" stroke="#010101" stroke-width="0.75" stroke-linecap="round" stroke-linejoin="round" stroke-miterlimit="1" width="227.664" height="97.73"/>
	
		<rect x="99.705" y="419.615" fill="#86B2D8" stroke="#010101" stroke-width="0.75" stroke-linecap="round" stroke-linejoin="round" stroke-miterlimit="1" width="212.537" height="42.02"/>
	
		<rect x="114.833" y="433.566" fill="#FFFFFF" stroke="#010101" stroke-width="0.75" stroke-linecap="round" stroke-linejoin="round" stroke-miterlimit="1" width="197.409" height="13.996"/>
	
		<rect x="114.833" y="447.516" fill="#FFFFFF" stroke="#010101" stroke-width="0.75" stroke-linecap="round" stroke-linejoin="round" stroke-miterlimit="1" width="197.409" height="13.996"/>
	<rect x="92.036" y="368.477" fill="none" width="108.83" height="7.717"/>
	<text transform="matrix(0.9288 0 0 1 92.0361 374.2002)" font-size="8">&gt;Frame Pixel Shift Sequence</text>
	<rect x="122.292" y="438.189" fill="none" width="136.58" height="7.717"/>
	<text transform="matrix(0.9288 0 0 1 122.2915 443.9131)" font-size="8">&gt;&gt;Subtraction Item ID</text>
	<rect x="256.338" y="368.477" fill="none" width="44.984" height="7.717"/>
	<text transform="matrix(0.9288 0 0 1 256.3379 374.2031)" font-size="8">(0028,9415)</text>
	<rect x="256.74" y="438.189" fill="none" width="44.582" height="7.717"/>
	<text transform="matrix(0.9288 0 0 1 256.7402 443.917)" font-size="8">(0028,9416)</text>
	<rect x="107.164" y="424.273" fill="none" width="136.58" height="7.717"/>
	<text transform="matrix(0.9288 0 0 1 107.1636 429.9951)" font-size="8">Item 2</text>
	<rect x="122.292" y="452.1" fill="none" width="158.965" height="7.717"/>
	<text transform="matrix(0.9288 0 0 1 122.292 457.8359)" font-size="8">&gt;&gt;Mask Sub-pixel Shift</text>
	
		<rect x="84.578" y="461.512" fill="#FFFFFF" stroke="#010101" stroke-width="0.75" stroke-linecap="round" stroke-linejoin="round" stroke-miterlimit="1" width="227.664" height="13.996"/>
	<rect x="92.036" y="466.096" fill="none" width="158.965" height="7.717"/>
	<text transform="matrix(0.9288 0 0 1 92.0361 471.832)" font-size="8">...</text>
	<rect x="256.338" y="452.1" fill="none" width="44.984" height="7.717"/>
	<text transform="matrix(0.9288 0 0 1 256.3379 457.834)" font-size="8">(0028,6114)</text>
	
		<rect x="99.705" y="377.619" fill="#86B2D8" stroke="#010101" stroke-width="0.75" stroke-linecap="round" stroke-linejoin="round" stroke-miterlimit="1" width="212.537" height="42.02"/>
	
		<rect x="114.833" y="391.57" fill="#FFFFFF" stroke="#010101" stroke-width="0.75" stroke-linecap="round" stroke-linejoin="round" stroke-miterlimit="1" width="197.409" height="13.996"/>
	
		<rect x="114.833" y="405.52" fill="#FFFFFF" stroke="#010101" stroke-width="0.75" stroke-linecap="round" stroke-linejoin="round" stroke-miterlimit="1" width="197.409" height="13.996"/>
	<rect x="122.292" y="396.193" fill="none" width="136.58" height="7.717"/>
	<text transform="matrix(0.9288 0 0 1 122.2915 401.916)" font-size="8">&gt;&gt;Subtraction Item ID</text>
	<rect x="256.74" y="396.193" fill="none" width="44.582" height="7.717"/>
	<text transform="matrix(0.9288 0 0 1 256.7402 401.9199)" font-size="8">(0028,9416)</text>
	<rect x="107.164" y="382.277" fill="none" width="136.58" height="7.717"/>
	<text transform="matrix(0.9288 0 0 1 107.1636 387.998)" font-size="8">Item 1</text>
	<rect x="122.292" y="410.104" fill="none" width="158.965" height="7.717"/>
	<text transform="matrix(0.9288 0 0 1 122.292 415.8389)" font-size="8">&gt;&gt;Mask Sub-pixel Shift</text>
	<rect x="256.338" y="410.104" fill="none" width="44.984" height="7.717"/>
	<text transform="matrix(0.9288 0 0 1 256.3379 415.8369)" font-size="8">(0028,6114)</text>
	
		<rect x="69.448" y="475.512" fill="#86B2D8" stroke="#010101" stroke-width="0.75" stroke-linecap="round" stroke-linejoin="round" stroke-miterlimit="1" width="242.794" height="125.658"/>
	<rect x="73.719" y="479.449" fill="none" width="127.729" height="7.721"/>
	<text transform="matrix(0.9288 0 0 1 73.7188 485.1758)" font-size="8">Item 3</text>
	
		<rect x="84.578" y="489.441" fill="#FFFFFF" stroke="#010101" stroke-width="0.75" stroke-linecap="round" stroke-linejoin="round" stroke-miterlimit="1" width="227.664" height="97.73"/>
	
		<rect x="99.705" y="545.275" fill="#86B2D8" stroke="#010101" stroke-width="0.75" stroke-linecap="round" stroke-linejoin="round" stroke-miterlimit="1" width="212.537" height="42.02"/>
	
		<rect x="114.833" y="559.227" fill="#FFFFFF" stroke="#010101" stroke-width="0.75" stroke-linecap="round" stroke-linejoin="round" stroke-miterlimit="1" width="197.409" height="13.996"/>
	
		<rect x="114.833" y="573.176" fill="#FFFFFF" stroke="#010101" stroke-width="0.75" stroke-linecap="round" stroke-linejoin="round" stroke-miterlimit="1" width="197.409" height="13.996"/>
	<rect x="92.036" y="494.137" fill="none" width="108.83" height="7.717"/>
	<text transform="matrix(0.9288 0 0 1 92.0361 499.8604)" font-size="8">&gt;Frame Pixel Shift Sequence</text>
	<rect x="122.292" y="563.85" fill="none" width="136.58" height="7.717"/>
	<text transform="matrix(0.9288 0 0 1 122.2915 569.5732)" font-size="8">&gt;&gt;Subtraction Item ID</text>
	<rect x="256.338" y="494.137" fill="none" width="44.984" height="7.717"/>
	<text transform="matrix(0.9288 0 0 1 256.3379 499.8633)" font-size="8">(0028,9415)</text>
	<rect x="256.74" y="563.85" fill="none" width="44.582" height="7.717"/>
	<text transform="matrix(0.9288 0 0 1 256.7402 569.5771)" font-size="8">(0028,9416)</text>
	<rect x="107.164" y="549.934" fill="none" width="136.58" height="7.717"/>
	<text transform="matrix(0.9288 0 0 1 107.1636 555.6553)" font-size="8">Item 2</text>
	<rect x="122.292" y="577.76" fill="none" width="158.965" height="7.717"/>
	<text transform="matrix(0.9288 0 0 1 122.292 583.4961)" font-size="8">&gt;&gt;Mask Sub-pixel Shift</text>
	
		<rect x="84.578" y="587.172" fill="#FFFFFF" stroke="#010101" stroke-width="0.75" stroke-linecap="round" stroke-linejoin="round" stroke-miterlimit="1" width="227.664" height="13.996"/>
	<rect x="92.036" y="591.756" fill="none" width="158.965" height="7.717"/>
	<text transform="matrix(0.9288 0 0 1 92.0361 597.4922)" font-size="8">...</text>
	<rect x="256.338" y="577.76" fill="none" width="44.984" height="7.717"/>
	<text transform="matrix(0.9288 0 0 1 256.3379 583.4941)" font-size="8">(0028,6114)</text>
	
		<rect x="99.705" y="503.279" fill="#86B2D8" stroke="#010101" stroke-width="0.75" stroke-linecap="round" stroke-linejoin="round" stroke-miterlimit="1" width="212.537" height="42.02"/>
	
		<rect x="114.833" y="517.23" fill="#FFFFFF" stroke="#010101" stroke-width="0.75" stroke-linecap="round" stroke-linejoin="round" stroke-miterlimit="1" width="197.409" height="13.996"/>
	
		<rect x="114.833" y="531.18" fill="#FFFFFF" stroke="#010101" stroke-width="0.75" stroke-linecap="round" stroke-linejoin="round" stroke-miterlimit="1" width="197.409" height="13.996"/>
	<rect x="122.292" y="521.854" fill="none" width="136.58" height="7.717"/>
	<text transform="matrix(0.9288 0 0 1 122.2915 527.5762)" font-size="8">&gt;&gt;Subtraction Item ID</text>
	<rect x="256.74" y="521.854" fill="none" width="44.582" height="7.717"/>
	<text transform="matrix(0.9288 0 0 1 256.7402 527.5801)" font-size="8">(0028,9416)</text>
	<rect x="107.164" y="507.938" fill="none" width="136.58" height="7.717"/>
	<text transform="matrix(0.9288 0 0 1 107.1636 513.6582)" font-size="8">Item 1</text>
	<rect x="122.292" y="535.764" fill="none" width="158.965" height="7.717"/>
	<text transform="matrix(0.9288 0 0 1 122.292 541.499)" font-size="8">&gt;&gt;Mask Sub-pixel Shift</text>
	<rect x="256.338" y="535.764" fill="none" width="44.984" height="7.717"/>
	<text transform="matrix(0.9288 0 0 1 256.3379 541.4971)" font-size="8">(0028,6114)</text>
	
		<rect x="69.448" y="29.826" fill="#86B2D8" stroke="#010101" stroke-width="0.75" stroke-linecap="round" stroke-linejoin="round" stroke-miterlimit="1" width="242.794" height="83.186"/>
	
		<rect x="84.576" y="43.466" fill="#FFFFFF" stroke="#010101" stroke-width="0.75" stroke-linecap="round" stroke-linejoin="round" stroke-miterlimit="1" width="227.65" height="14"/>
	<rect x="92.036" y="48.054" fill="none" width="158.964" height="7.717"/>
	<text transform="matrix(0.9288 0 0 1 92.0356 53.7798)" font-size="8">&gt;Mask Operation</text>
	<rect x="256.338" y="48.055" fill="none" width="44.984" height="7.716"/>
	<text transform="matrix(0.9288 0 0 1 256.3379 53.7808)" font-size="8">(0028,6101)</text>
	<rect x="256.338" y="19.3" fill="none" width="44.984" height="7.716"/>
	<text transform="matrix(0.9288 0 0 1 256.3379 25.0254)" font-size="8">(0028,6100)</text>
	
		<rect x="84.577" y="57.154" fill="#FFFFFF" stroke="#010101" stroke-width="0.75" stroke-linecap="round" stroke-linejoin="round" stroke-miterlimit="1" width="227.665" height="14"/>
	
		<rect x="84.576" y="71.106" fill="#FFFFFF" stroke="#010101" stroke-width="0.75" stroke-linecap="round" stroke-linejoin="round" stroke-miterlimit="1" width="227.65" height="14"/>
	
		<rect x="84.576" y="85.059" fill="#FFFFFF" stroke="#010101" stroke-width="0.75" stroke-linecap="round" stroke-linejoin="round" stroke-miterlimit="1" width="227.65" height="14"/>
	
		<rect x="84.576" y="99.011" fill="#FFFFFF" stroke="#010101" stroke-width="0.75" stroke-linecap="round" stroke-linejoin="round" stroke-miterlimit="1" width="227.65" height="14"/>
	
		<rect x="54.338" y="196.271" fill="#B2CEE7" stroke="#010101" stroke-width="0.75" stroke-linecap="round" stroke-linejoin="round" stroke-miterlimit="1" width="257.889" height="13.994"/>
	<rect x="92.036" y="61.849" fill="none" width="108.83" height="7.717"/>
	<text transform="matrix(0.9288 0 0 1 92.0356 67.5703)" font-size="8">&gt;Subtraction Item ID</text>
	<rect x="92.035" y="89.682" fill="none" width="136.58" height="7.717"/>
	<text transform="matrix(0.9288 0 0 1 92.0352 95.4023)" font-size="8">&gt;Mask Frame Numbers</text>
	<rect x="73.719" y="34.412" fill="none" width="127.729" height="7.721"/>
	<text transform="matrix(0.9288 0 0 1 73.7188 40.1367)" font-size="8">Item 1</text>
	<rect x="256.338" y="61.849" fill="none" width="44.984" height="7.717"/>
	<text transform="matrix(0.9288 0 0 1 256.3379 67.5728)" font-size="8">(0028,9416)</text>
	<rect x="256.74" y="89.682" fill="none" width="44.582" height="7.717"/>
	<text transform="matrix(0.9288 0 0 1 256.7402 95.4062)" font-size="8">(0028,6110)</text>
	<rect x="92.035" y="75.766" fill="none" width="136.58" height="7.717"/>
	<text transform="matrix(0.9288 0 0 1 92.0352 81.4844)" font-size="8">&gt;Applicable Frame Range</text>
	<rect x="256.74" y="75.766" fill="none" width="44.582" height="7.717"/>
	<text transform="matrix(0.9288 0 0 1 256.7402 81.4897)" font-size="8">(0028,6104)</text>
	<rect x="92.036" y="103.599" fill="none" width="158.964" height="7.717"/>
	<text transform="matrix(0.9288 0 0 1 92.0356 109.3252)" font-size="8">&gt;Mask Selection Mode</text>
	<rect x="256.338" y="103.6" fill="none" width="44.984" height="7.716"/>
	<text transform="matrix(0.9288 0 0 1 256.3379 109.3232)" font-size="8">(0028,9454)</text>
	
		<rect x="69.448" y="113.011" fill="#86B2D8" stroke="#010101" stroke-width="0.75" stroke-linecap="round" stroke-linejoin="round" stroke-miterlimit="1" width="242.794" height="83.186"/>
	
		<rect x="84.576" y="126.651" fill="#FFFFFF" stroke="#010101" stroke-width="0.75" stroke-linecap="round" stroke-linejoin="round" stroke-miterlimit="1" width="227.65" height="14"/>
	<rect x="92.036" y="131.239" fill="none" width="158.964" height="7.717"/>
	<text transform="matrix(0.9288 0 0 1 92.0356 136.9653)" font-size="8">&gt;Mask Operation</text>
	<rect x="256.338" y="131.24" fill="none" width="44.984" height="7.716"/>
	<text transform="matrix(0.9288 0 0 1 256.3379 136.9663)" font-size="8">(0028,6101)</text>
	
		<rect x="84.577" y="140.339" fill="#FFFFFF" stroke="#010101" stroke-width="0.75" stroke-linecap="round" stroke-linejoin="round" stroke-miterlimit="1" width="227.665" height="14"/>
	
		<rect x="84.576" y="154.292" fill="#FFFFFF" stroke="#010101" stroke-width="0.75" stroke-linecap="round" stroke-linejoin="round" stroke-miterlimit="1" width="227.65" height="14"/>
	
		<rect x="84.576" y="168.245" fill="#FFFFFF" stroke="#010101" stroke-width="0.75" stroke-linecap="round" stroke-linejoin="round" stroke-miterlimit="1" width="227.65" height="14"/>
	
		<rect x="84.576" y="182.197" fill="#FFFFFF" stroke="#010101" stroke-width="0.75" stroke-linecap="round" stroke-linejoin="round" stroke-miterlimit="1" width="227.65" height="14"/>
	<rect x="92.036" y="145.035" fill="none" width="108.83" height="7.717"/>
	<text transform="matrix(0.9288 0 0 1 92.0356 150.7559)" font-size="8">&gt;Subtraction Item ID</text>
	<rect x="92.035" y="172.868" fill="none" width="136.58" height="7.717"/>
	<text transform="matrix(0.9288 0 0 1 92.0352 178.5879)" font-size="8">&gt;Mask Frame Numbers</text>
	<rect x="73.719" y="117.597" fill="none" width="127.729" height="7.721"/>
	<text transform="matrix(0.9288 0 0 1 73.7188 123.3223)" font-size="8">Item 1</text>
	<rect x="256.338" y="145.035" fill="none" width="44.984" height="7.717"/>
	<text transform="matrix(0.9288 0 0 1 256.3379 150.7583)" font-size="8">(0028,9416)</text>
	<rect x="256.74" y="172.868" fill="none" width="44.582" height="7.717"/>
	<text transform="matrix(0.9288 0 0 1 256.7402 178.5918)" font-size="8">(0028,6110)</text>
	<rect x="92.035" y="158.952" fill="none" width="136.58" height="7.717"/>
	<text transform="matrix(0.9288 0 0 1 92.0352 164.6699)" font-size="8">&gt;Applicable Frame Range</text>
	<rect x="256.74" y="158.952" fill="none" width="44.582" height="7.717"/>
	<text transform="matrix(0.9288 0 0 1 256.7402 164.6753)" font-size="8">(0028,6104)</text>
	<rect x="92.036" y="186.785" fill="none" width="158.964" height="7.717"/>
	<text transform="matrix(0.9288 0 0 1 92.0356 192.5107)" font-size="8">&gt;Mask Selection Mode</text>
	<rect x="256.338" y="186.786" fill="none" width="44.984" height="7.716"/>
	<text transform="matrix(0.9288 0 0 1 256.3379 192.5088)" font-size="8">(0028,9454)</text>
	<rect x="58.478" y="19.299" fill="none" width="164.902" height="7.717"/>
	<text transform="matrix(0.9288 0 0 1 58.478 25.0249)" font-size="8">Mask Subtraction Sequence</text>
	<rect x="58.478" y="199.411" fill="none" width="141.988" height="7.71"/>
	<text transform="matrix(0.9288 0 0 1 58.478 205.1367)" font-size="8">...</text>
</g>
</svg>
