<?xml version="1.0" encoding="utf-8"?>
<!-- $Source: /home/bbennett/pass/archive/DicomXml/docbook/part17/figures/PS3.17_SS.3-3.svg,v $ -->
<!-- $Date: 2014/05/09 13:15:43 $ -->
<!-- $Revision: 1.1 $ -->

<!DOCTYPE svg PUBLIC "-//W3C//DTD SVG 1.1//EN" "http://www.w3.org/Graphics/SVG/1.1/DTD/svg11.dtd">
<svg version="1.1" id="Layer_1" xmlns="http://www.w3.org/2000/svg" xmlns:xlink="http://www.w3.org/1999/xlink" x="0px" y="0px"
	 width="502px" height="197px" viewBox="0 0 502 197" enable-background="new 0 0 502 197" xml:space="preserve">

<defs>
	<style type="text/css">
	text {
	  font-family: Helvetica, Verdana, ArialUnicodeMS, san-serif
	}
	</style>
</defs>

<g>
   <desc>
	PS 3.17 Part 17: Explanatory Information
   </desc>
</g>

<g>
	<rect x="1" y="1" fill="#F5EED6" width="500" height="195"/>
	<g>
		<g>
			
				<polygon fill="#CCDEF0" stroke="#010101" stroke-width="0.75" stroke-linecap="round" stroke-linejoin="round" stroke-miterlimit="1" points="
				156.583,95.876 201.544,82.708 246.589,96.302 246.589,96.333 201.493,109.688 			"/>
		</g>
		<g>
			<text transform="matrix(1 0.0022 -0.0022 1 183.2134 98.7183)" font-size="7">CONTAINS</text>
		</g>
		<g>
			<g>
				
					<line fill="none" stroke="#005695" stroke-linecap="round" stroke-miterlimit="1" x1="201.303" y1="109.826" x2="201.303" y2="118.245"/>
				<g>
					<polygon fill="#005695" points="199.56,117.056 201.303,123.561 203.046,117.056 					"/>
				</g>
			</g>
		</g>
		
			<rect x="156.583" y="123.902" fill="#B2CEE7" stroke="#010101" stroke-width="0.75" stroke-linecap="round" stroke-linejoin="round" stroke-miterlimit="1" width="90.006" height="36.178"/>
		<g>
			<text transform="matrix(1 0 0 1 160.2671 131.5332)"><tspan x="0" y="0" font-size="7">CAD PROCESSING AND </tspan><tspan x="5.45" y="8.4" font-size="7">FINDINGS SUMMARY</tspan><tspan x="30.922" y="16.8" font-size="7">CODE</tspan><tspan x="36.169" y="25.2" font-size="7">1.3</tspan></text>
		</g>
		<g>
			<g>
				
					<line fill="none" stroke="#005695" stroke-linecap="round" stroke-miterlimit="1" x1="300.725" y1="108.795" x2="300.725" y2="118.958"/>
				<g>
					<polygon fill="#005695" points="298.981,117.769 300.725,124.273 302.468,117.769 					"/>
				</g>
			</g>
		</g>
		<g>
			
				<polygon fill="#CCDEF0" stroke="#010101" stroke-width="0.75" stroke-linecap="round" stroke-linejoin="round" stroke-miterlimit="1" points="
				255.723,95.876 300.684,82.708 345.726,96.302 345.726,96.333 300.633,109.688 			"/>
		</g>
		<text transform="matrix(1 0 0 1 282.6396 98.1265)" font-size="7">CONTAINS</text>
		
			<rect x="255.723" y="123.91" fill="#B2CEE7" stroke="#010101" stroke-width="0.75" stroke-linecap="round" stroke-linejoin="round" stroke-miterlimit="1" width="90.002" height="36.17"/>
		<g>
			<text transform="matrix(1 0 0 1 277.002 131.5332)"><tspan x="0" y="0" font-size="7">SUMMARY OF</tspan><tspan x="1.165" y="8.4" font-size="7">DETECTIONS</tspan><tspan x="-5.849" y="16.8" font-size="7">CODE: Succeeded</tspan><tspan x="18.856" y="25.2" font-size="7">1.4</tspan></text>
		</g>
		<g>
			<g>
				
					<line fill="none" stroke="#005695" stroke-linecap="round" stroke-miterlimit="1" stroke-dasharray="4,4" x1="300.725" y1="159.947" x2="300.725" y2="175.597"/>
				<g>
					<polygon fill="#005695" points="298.981,174.407 300.725,180.912 302.468,174.407 					"/>
				</g>
			</g>
		</g>
		<g>
			<g>
				
					<line fill="none" stroke="#005695" stroke-linecap="round" stroke-miterlimit="1" stroke-dasharray="4,4" x1="201.586" y1="159.9" x2="201.586" y2="175.597"/>
				<g>
					<polygon fill="#005695" points="199.843,174.407 201.586,180.912 203.329,174.407 					"/>
				</g>
			</g>
		</g>
		<g>
			<g>
				<polyline fill="none" stroke="#005695" stroke-linecap="round" stroke-miterlimit="1" points="251.172,60.123 201.586,60.123 
					201.586,77.021 				"/>
				<g>
					<polygon fill="#005695" points="199.843,75.832 201.586,82.336 203.329,75.832 					"/>
				</g>
			</g>
		</g>
		<g>
			
				<polygon fill="#CCDEF0" stroke="#010101" stroke-width="0.75" stroke-linecap="round" stroke-linejoin="round" stroke-miterlimit="1" points="
				57.773,95.876 102.734,82.708 147.779,96.302 147.779,96.333 102.684,109.688 			"/>
		</g>
		<g>
			<text transform="matrix(1 0.0022 -0.0022 1 84.4048 98.7183)" font-size="7">CONTAINS</text>
		</g>
		<g>
			<g>
				
					<line fill="none" stroke="#005695" stroke-linecap="round" stroke-miterlimit="1" x1="102.493" y1="109.826" x2="102.493" y2="118.245"/>
				<g>
					<polygon fill="#005695" points="100.75,117.056 102.493,123.561 104.236,117.056 					"/>
				</g>
			</g>
		</g>
		
			<rect x="57.773" y="123.902" fill="#B2CEE7" stroke="#010101" stroke-width="0.75" stroke-linecap="round" stroke-linejoin="round" stroke-miterlimit="1" width="90.006" height="36.178"/>
		<g>
			<text transform="matrix(1 0 0 1 59.9014 131.5332)"><tspan x="0" y="0" font-size="7">IMAGE SET PROPERTIES</tspan><tspan x="19.648" y="8.4" font-size="7">(CONTAINER)</tspan><tspan x="37.726" y="16.8" font-size="7">1.2</tspan></text>
		</g>
		<g>
			<g>
				
					<line fill="none" stroke="#005695" stroke-linecap="round" stroke-miterlimit="1" stroke-dasharray="4,4" x1="102.776" y1="159.9" x2="102.776" y2="175.597"/>
				<g>
					<polygon fill="#005695" points="101.033,174.407 102.776,180.912 104.52,174.407 					"/>
				</g>
			</g>
		</g>
		<g>
			<g>
				<polyline fill="none" stroke="#005695" stroke-linecap="round" stroke-miterlimit="1" points="201.584,60.123 102.776,60.123 
					102.776,77.021 				"/>
				<g>
					<polygon fill="#005695" points="101.033,75.832 102.776,82.336 104.52,75.832 					"/>
				</g>
			</g>
		</g>
		<g>
			<g>
				<polyline fill="none" stroke="#005695" stroke-linecap="round" stroke-miterlimit="1" points="251.011,43.089 251.011,60.123 
					300.93,60.123 300.93,77.021 				"/>
				<g>
					<polygon fill="#005695" points="299.187,75.832 300.93,82.336 302.673,75.832 					"/>
				</g>
			</g>
		</g>
		<g>
			<g>
				
					<line fill="none" stroke="#005695" stroke-linecap="round" stroke-miterlimit="1" x1="399.225" y1="108.795" x2="399.225" y2="118.958"/>
				<g>
					<polygon fill="#005695" points="397.481,117.769 399.225,124.273 400.968,117.769 					"/>
				</g>
			</g>
		</g>
		<g>
			
				<polygon fill="#CCDEF0" stroke="#010101" stroke-width="0.75" stroke-linecap="round" stroke-linejoin="round" stroke-miterlimit="1" points="
				354.223,95.876 399.184,82.708 444.226,96.302 444.226,96.333 399.133,109.688 			"/>
		</g>
		<text transform="matrix(1 0 0 1 381.1396 98.1265)" font-size="7">CONTAINS</text>
		
			<rect x="354.223" y="123.91" fill="#B2CEE7" stroke="#010101" stroke-width="0.75" stroke-linecap="round" stroke-linejoin="round" stroke-miterlimit="1" width="90.002" height="36.17"/>
		<g>
			<text transform="matrix(1 0 0 1 375.502 131.5332)"><tspan x="0" y="0" font-size="7">SUMMARY OF</tspan><tspan x="5.241" y="8.4" font-size="7">ANALYSES</tspan><tspan x="-9.347" y="16.8" font-size="7">CODE: Not Accepted</tspan><tspan x="18.856" y="25.2" font-size="7">1.5</tspan></text>
		</g>
		<g>
			<g>
				
					<line fill="none" stroke="#005695" stroke-linecap="round" stroke-miterlimit="1" stroke-dasharray="4,4" x1="399.225" y1="159.947" x2="399.225" y2="175.597"/>
				<g>
					<polygon fill="#005695" points="397.481,174.407 399.225,180.912 400.968,174.407 					"/>
				</g>
			</g>
		</g>
		<g>
			<g>
				<polyline fill="none" stroke="#005695" stroke-linecap="round" stroke-miterlimit="1" points="300.93,60.123 399.43,60.123 
					399.43,77.021 				"/>
				<g>
					<polygon fill="#005695" points="397.687,75.832 399.43,82.336 401.173,75.832 					"/>
				</g>
			</g>
		</g>
		
			<rect x="199.498" y="16.088" fill="#86B2D8" stroke="#010101" stroke-width="0.75" stroke-linecap="round" stroke-linejoin="round" stroke-miterlimit="1" width="103.025" height="27.001"/>
		<g>
			<text transform="matrix(1 0 0 1 209.4502 27.0005)"><tspan x="0" y="0" font-size="8">COLON CAD REPORT</tspan><tspan x="15.34" y="9.6" font-size="8">(CONTAINER)</tspan></text>
		</g>
		<text transform="matrix(1 0 0 1 136.5 107.3809)" font-size="7">1-N</text>
		<text transform="matrix(1 0 0 1 239.6934 107.3809)" font-size="7">1</text>
		<text transform="matrix(1 0 0 1 341.833 107.3809)" font-size="7">1</text>
		<text transform="matrix(1 0 0 1 440.333 107.3809)" font-size="7">1</text>
	</g>
</g>
</svg>
