<?xml version="1.0" encoding="utf-8"?>
<!-- $Source: /home/bbennett/pass/archive/DicomXml/docbook/part17/figures/PS3.17_FFF.2.1-5.svg,v $ -->
<!-- $Date: 2014/05/09 13:15:43 $ -->
<!-- $Revision: 1.1 $ -->

<!DOCTYPE svg PUBLIC "-//W3C//DTD SVG 1.1//EN" "http://www.w3.org/Graphics/SVG/1.1/DTD/svg11.dtd">
<svg version="1.1" id="Layer_1" xmlns="http://www.w3.org/2000/svg" xmlns:xlink="http://www.w3.org/1999/xlink" x="0px" y="0px"
	 width="502.001px" height="207px" viewBox="0 0 502.001 207" enable-background="new 0 0 502.001 207" xml:space="preserve">

<defs>
	<style type="text/css">
	text {
	  font-family: Helvetica, Verdana, ArialUnicodeMS, san-serif
	}
	</style>
</defs>

<g>
   <desc>
	PS 3.17 Part 17: Explanatory Information
   </desc>
</g>

<g>
	<rect x="1" y="1" fill="#F5EED6" width="500.001" height="205"/>
	<g>
		
			<rect x="61.743" y="122.616" fill="#B2CEE7" stroke="#010101" stroke-width="0.75" stroke-linecap="round" stroke-linejoin="round" stroke-miterlimit="1" width="257.627" height="68.831"/>
		
			<rect x="76.854" y="136.182" fill="#86B2D8" stroke="#010101" stroke-width="0.75" stroke-linecap="round" stroke-linejoin="round" stroke-miterlimit="1" width="242.517" height="55.266"/>
		
			<rect x="92.063" y="149.854" fill="#FFFFFF" stroke="#010101" stroke-width="0.75" stroke-linecap="round" stroke-linejoin="round" stroke-miterlimit="1" width="227.307" height="41.594"/>
		
			<rect x="107.273" y="163.615" fill="#86B2D8" stroke="#010101" stroke-width="0.75" stroke-linecap="round" stroke-linejoin="round" stroke-miterlimit="1" width="212.097" height="27.832"/>
		
			<rect x="119.978" y="177.281" fill="#FFFFFF" stroke="#010101" stroke-width="0.75" stroke-linecap="round" stroke-linejoin="round" stroke-miterlimit="1" width="199.393" height="14.166"/>
		
			<rect x="61.743" y="109.126" fill="#B2CEE7" stroke="#010101" stroke-width="0.75" stroke-linecap="round" stroke-linejoin="round" stroke-miterlimit="1" width="257.627" height="13.594"/>
		
			<rect x="61.743" y="95.573" fill="#B2CEE7" stroke="#010101" stroke-width="0.75" stroke-linecap="round" stroke-linejoin="round" stroke-miterlimit="1" width="257.627" height="13.591"/>
		
			<rect x="61.743" y="82.052" fill="#B2CEE7" stroke="#010101" stroke-width="0.75" stroke-linecap="round" stroke-linejoin="round" stroke-miterlimit="1" width="257.627" height="13.591"/>
		
			<rect x="61.743" y="68.53" fill="#B2CEE7" stroke="#010101" stroke-width="0.75" stroke-linecap="round" stroke-linejoin="round" stroke-miterlimit="1" width="257.627" height="13.591"/>
		
			<rect x="61.743" y="55.009" fill="#B2CEE7" stroke="#010101" stroke-width="0.75" stroke-linecap="round" stroke-linejoin="round" stroke-miterlimit="1" width="257.627" height="13.591"/>
		
			<rect x="61.743" y="41.487" fill="#B2CEE7" stroke="#010101" stroke-width="0.75" stroke-linecap="round" stroke-linejoin="round" stroke-miterlimit="1" width="257.627" height="13.591"/>
		
			<rect x="61.743" y="27.966" fill="#B2CEE7" stroke="#010101" stroke-width="0.75" stroke-linecap="round" stroke-linejoin="round" stroke-miterlimit="1" width="257.627" height="13.591"/>
		<rect x="328.219" y="30.672" fill="none" width="112.039" height="160.775"/>
		<text transform="matrix(0.9288 0 0 1 328.2188 36.3984)"><tspan x="0" y="0" font-size="8">= REALTIME</tspan><tspan x="0" y="13.75" font-size="8">= ECG</tspan><tspan x="0" y="27.5" font-size="8">= 800</tspan><tspan x="0" y="41.25" font-size="8">= 5</tspan><tspan x="0" y="55" font-size="8">= 0</tspan><tspan x="0" y="110" font-size="8">Frame “i”</tspan><tspan x="0" y="151.25" font-size="8">= 90</tspan></text>
		<rect x="65.883" y="30.904" fill="none" width="175.978" height="7.715"/>
		<text transform="matrix(0.9288 0 0 1 65.8833 36.6323)" font-size="8">Cardiac Synchronization Technique</text>
		<rect x="62.103" y="15.552" fill="none" width="175.978" height="7.715"/>
		<text transform="matrix(0.9288 0 0 1 62.1025 21.2803)" font-size="8">Enhanced XA SOP Instance</text>
		<rect x="65.883" y="44.426" fill="none" width="156.672" height="7.715"/>
		<text transform="matrix(0.9288 0 0 1 65.8833 50.1538)" font-size="8">Cardiac Signal Source</text>
		<rect x="65.883" y="57.947" fill="none" width="142.656" height="7.715"/>
		<text transform="matrix(0.9288 0 0 1 65.8833 63.6748)" font-size="8">Cardiac RR Interval Specified</text>
		<rect x="65.883" y="126.041" fill="none" width="141.988" height="7.716"/>
		<text transform="matrix(0.9288 0 0 1 65.8833 131.7676)" font-size="8">...</text>
		<rect x="99.441" y="154.19" fill="none" width="151.559" height="7.716"/>
		<text transform="matrix(0.9288 0 0 1 99.4409 159.916)" font-size="8">&gt;Cardiac Synchronization Sequence</text>
		<g>
			<rect x="129.695" y="181.619" fill="none" width="131.273" height="7.716"/>
			<text transform="matrix(0.9288 0 0 1 129.6953 187.3447)" font-size="8">&gt;&gt;Nominal Cardiac Trigger Delay Time</text>
		</g>
		<rect x="81.124" y="140.103" fill="none" width="127.729" height="7.72"/>
		<text transform="matrix(0.9288 0 0 1 81.124 145.8252)" font-size="8">Item 1</text>
		<rect x="111.124" y="166.439" fill="none" width="96.499" height="7.715"/>
		<text transform="matrix(0.9288 0 0 1 111.124 172.1504)" font-size="8">Item 1</text>
		<rect x="264.194" y="30.904" fill="none" width="44.533" height="7.715"/>
		<text transform="matrix(0.9288 0 0 1 264.1934 36.6323)" font-size="8">(0018,9037)</text>
		<rect x="264.343" y="57.947" fill="none" width="44.385" height="7.715"/>
		<text transform="matrix(0.9288 0 0 1 264.3418 63.6748)" font-size="8">(0018,9070)</text>
		<rect x="65.883" y="112.063" fill="none" width="142.322" height="7.719"/>
		<text transform="matrix(0.9288 0 0 1 65.8833 117.79)" font-size="8">Per-Frame Functional Groups Sequence</text>
		<rect x="263.849" y="112.063" fill="none" width="44.879" height="7.719"/>
		<text transform="matrix(0.9288 0 0 1 263.8477 117.79)" font-size="8">(5200,9230)</text>
		<rect x="65.883" y="98.511" fill="none" width="142.322" height="7.716"/>
		<text transform="matrix(0.9288 0 0 1 65.8833 104.2373)" font-size="8">...</text>
		<rect x="263.743" y="126.028" fill="none" width="44.984" height="7.716"/>
		<text transform="matrix(0.9288 0 0 1 263.7422 131.7549)" font-size="8">(0008,114A)</text>
		<rect x="263.743" y="154.179" fill="none" width="44.984" height="7.716"/>
		<text transform="matrix(0.9288 0 0 1 263.7422 159.8965)" font-size="8">(0018,9118)</text>
		<g>
			<rect x="264.087" y="181.607" fill="none" width="44.641" height="7.714"/>
			<text transform="matrix(0.9288 0 0 1 264.0859 187.3164)" font-size="8">(0020,9153)</text>
		</g>
		<rect x="65.883" y="71.468" fill="none" width="142.656" height="7.715"/>
		<text transform="matrix(0.9288 0 0 1 65.8833 77.1963)" font-size="8">Intervals Acquired</text>
		<rect x="264.343" y="71.468" fill="none" width="44.385" height="7.715"/>
		<text transform="matrix(0.9288 0 0 1 264.3418 77.1963)" font-size="8">(0018,1083)</text>
		<rect x="264.343" y="84.955" fill="none" width="44.385" height="7.715"/>
		<text transform="matrix(0.9288 0 0 1 264.3418 90.6826)" font-size="8">(0018,1084)</text>
		<rect x="264.343" y="44.459" fill="none" width="44.385" height="7.715"/>
		<text transform="matrix(0.9288 0 0 1 264.3418 50.1875)" font-size="8">(0018,9085)</text>
		<rect x="65.883" y="84.99" fill="none" width="156.673" height="7.715"/>
		<text transform="matrix(0.9288 0 0 1 65.8833 90.7178)" font-size="8">Intervals Rejects</text>
	</g>
</g>
</svg>
