<?xml version="1.0" encoding="utf-8"?>
<!-- $Source: /home/bbennett/pass/archive/DicomXml/docbook/part17/figures/PS3.17_A-11.svg,v $ -->
<!-- $Date: 2014/05/09 12:30:21 $ -->
<!-- $Revision: 1.2 $ -->

<!DOCTYPE svg PUBLIC "-//W3C//DTD SVG 1.1//EN" "http://www.w3.org/Graphics/SVG/1.1/DTD/svg11.dtd">
<svg version="1.1" id="Layer_1" xmlns="http://www.w3.org/2000/svg" xmlns:xlink="http://www.w3.org/1999/xlink" x="0px" y="0px"
	 width="502px" height="412px" viewBox="0 0 502 412" enable-background="new 0 0 502 412" xml:space="preserve">

<defs>
	<style type="text/css">
	text {
	  font-family: Helvetica, Verdana, ArialUnicodeMS, san-serif
	}
	</style>
</defs>

<g>
   <desc>
	PS 3.17 Part 17: Explanatory Information
   </desc>
</g>

<g>
	<rect x="1" y="1" fill="#F5EED6" width="500" height="410"/>
	<g>
		<rect x="94.716" y="15.083" fill-rule="evenodd" clip-rule="evenodd" fill="#FFFFFF" width="313" height="378.56"/>
		<rect x="109.841" y="38.5" fill-rule="evenodd" clip-rule="evenodd" fill="#BCBEC0" width="219.921" height="320.143"/>
		
			<rect x="109.841" y="38.5" fill-rule="evenodd" clip-rule="evenodd" fill="#FFFFFF" stroke="#010101" width="8.033" height="8.07"/>
		<path fill-rule="evenodd" clip-rule="evenodd" fill="#86B2D8" stroke="#000000" d="M109.841,311.922
			c2.564-15.084,21.241-19.943,34.796-18.086c17.611,2.412,35.298,11.336,50.917,13.332c10.604,1.355,24.34,1.393,35.279,0.047
			c34.331-4.227,59.696-28.393,63.497-62.15c3.008-26.703-10.5-58.163-26.283-83.799c-7.713-12.525-18.218-22.938-27.759-36.623
			c-15.93-22.846-26.895-52.601-32.859-78.797c-0.57-2.503-1.186-4.883-1.42-7.318c-0.08-0.118-96.115,0.193-96.168,0V311.922z"/>
		<g id="_x5B_PR_x5D__8_">
			<text transform="matrix(0.9288 0 0 1 365.0303 41.5439)" font-size="11">[A]</text>
		</g>
		<g id="_x5B_LP_x5D__8_">
			<text transform="matrix(0.9288 0 0 1 100.4326 386.3438)" font-size="11">[FR]</text>
		</g>
		<g>
			<text transform="matrix(1 0 0 1 338.6494 216.5625)" fill="#ED1C24" font-size="12">Anterior (A)</text>
			<text transform="matrix(1 0 0 1 185.8394 352.8398)" font-size="12">Foot and Right</text>
			<g>
				<g>
					<line fill="none" stroke="#ED1C24" stroke-width="2" x1="299.116" y1="212.707" x2="326.397" y2="212.707"/>
					<path fill="#ED1C24" d="M325.378,212.707l-2.191-3.604l0.123-0.082l5.875,2.334c2.047,0.451,4.094,0.9,6.141,1.352
						c-2.047,0.449-4.094,0.9-6.141,1.352l-5.875,2.332l-0.123-0.061L325.378,212.707z"/>
				</g>
			</g>
			<g>
				<g>
					<line fill="none" stroke="#000000" stroke-width="2" x1="224.717" y1="313.445" x2="224.717" y2="332.986"/>
					<path d="M224.717,331.967l3.603-2.191l0.081,0.123l-2.333,5.875c-0.45,2.047-0.9,4.094-1.351,6.141
						c-0.451-2.047-0.9-4.094-1.352-6.141l-2.334-5.875l0.062-0.123L224.717,331.967z"/>
				</g>
			</g>
			<g>
				<text transform="matrix(0.9288 0 0 1 218.936 58.9092)" font-size="12">Axilla</text>
			</g>
			<g>
				<text transform="matrix(0.9288 0 0 1 109.8413 32.5024)" font-size="12">Left Breast - Medio-Lateral Oblique Projection</text>
			</g>
		</g>
		<g>
			<g>
				<polyline fill="none" stroke="#010101" points="109.841,364.924 109.841,38.5 352.022,38.5 				"/>
				<path fill="#010101" d="M351.003,38.5l-2.191-3.603l0.123-0.082l5.875,2.333c2.047,0.45,4.094,0.9,6.141,1.351
					c-2.047,0.45-4.094,0.9-6.141,1.351l-5.875,2.333l-0.123-0.062L351.003,38.5z"/>
				<path fill="#010101" d="M109.841,363.904l3.603-2.191l0.082,0.123l-2.333,5.875c-0.45,2.047-0.9,4.094-1.351,6.141
					c-0.45-2.047-0.9-4.094-1.351-6.141l-2.333-5.875l0.062-0.123L109.841,363.904z"/>
			</g>
		</g>
	</g>
</g>
</svg>
