<?xml version="1.0" encoding="utf-8"?>
<!-- $Source: /home/bbennett/pass/archive/DicomXml/docbook/part17/figures/PS3.17_V.4.3-4.svg,v $ -->
<!-- $Date: 2014/05/09 12:30:21 $ -->
<!-- $Revision: 1.2 $ -->

<!DOCTYPE svg PUBLIC "-//W3C//DTD SVG 1.1//EN" "http://www.w3.org/Graphics/SVG/1.1/DTD/svg11.dtd">
<svg version="1.1" id="Layer_1" xmlns="http://www.w3.org/2000/svg" xmlns:xlink="http://www.w3.org/1999/xlink" x="0px" y="0px"
	 width="502px" height="257px" viewBox="0 0 502 257" enable-background="new 0 0 502 257" xml:space="preserve">

<defs>
	<style type="text/css">
	text {
	  font-family: Helvetica, Verdana, ArialUnicodeMS, san-serif
	}
	</style>
</defs>

<g>
   <desc>
	PS 3.17 Part 17: Explanatory Information
   </desc>
</g>

<g>
	<rect x="1" y="1" fill="#F5EED6" width="500" height="255"/>
	<g>
		<rect x="125.661" y="29.997" fill="#FFFFFF" stroke="#000000" width="253.545" height="194.378"/>
		<rect x="132.664" y="127.185" fill="#DCDDDE" stroke="#000000" width="95.77" height="89.999"/>
		<line fill="#86B2D8" stroke="#000000" x1="132.664" y1="172.184" x2="228.434" y2="172.184"/>
		<line fill="#86B2D8" stroke="#000000" x1="180.552" y1="217.184" x2="180.552" y2="127.185"/>
		<rect x="228.56" y="37.187" fill="#DCDDDE" stroke="#000000" width="143.644" height="179.999"/>
		<line fill="#86B2D8" stroke="#000000" x1="228.56" y1="82.186" x2="372.203" y2="82.186"/>
		<line fill="#86B2D8" stroke="#000000" x1="228.56" y1="127.185" x2="372.203" y2="127.185"/>
		<line fill="#86B2D8" stroke="#000000" x1="228.56" y1="172.186" x2="372.203" y2="172.186"/>
		<line fill="#86B2D8" stroke="#000000" x1="324.333" y1="217.186" x2="324.333" y2="37.187"/>
		<line fill="#86B2D8" stroke="#000000" x1="276.427" y1="217.186" x2="276.427" y2="37.187"/>
		<g>
			<text transform="matrix(0.9288 0 0 1 382.0039 132.1543)" font-size="14">2560</text>
		</g>
		<g>
			<text transform="matrix(0.9288 0 0 1 93.9434 177.2656)" font-size="14">1024</text>
		</g>
		<g>
			<text transform="matrix(0.9288 0 0 1 82.3306 234.8477)" font-size="11">(0.0, 0.0)</text>
		</g>
		<g>
			<text transform="matrix(0.9288 0 0 1 379.2148 26.9253)" font-size="11">(1.0, 1.0)</text>
		</g>
		<rect x="139.972" y="177.408" fill="#CCDEF0" width="34.164" height="34.16"/>
		<g>
			<text transform="matrix(0.9288 0 0 1 142.856 186.2656)"><tspan x="0" y="0" font-size="10">DS 17:</tspan><tspan x="0" y="11" font-size="10">CT old</tspan><tspan x="0" y="22" font-size="10">COR</tspan></text>
		</g>
		<rect x="139.972" y="130.701" fill="#B2CEE7" width="34.164" height="34.16"/>
		<g>
			<text transform="matrix(0.9288 0 0 1 141.0532 139.5586)"><tspan x="0" y="0" font-size="10">DS 18:</tspan><tspan x="0" y="11" font-size="10">CT new</tspan><tspan x="0" y="22" font-size="10">COR</tspan></text>
		</g>
		<rect x="186.679" y="177.408" fill="#6799C8" width="34.164" height="34.16"/>
		<g>
			<text transform="matrix(0.9288 0 0 1 189.564 186.2656)"><tspan x="0" y="0" font-size="10">DS 20:</tspan><tspan x="0" y="11" font-size="10">CT old</tspan><tspan x="0" y="22" font-size="10">TRV</tspan></text>
		</g>
		<rect x="186.679" y="130.701" fill="#86B2D8" width="34.164" height="34.16"/>
		<g>
			<text transform="matrix(0.9288 0 0 1 187.7612 139.5537)"><tspan x="0" y="0" font-size="10">DS 19:</tspan><tspan x="0" y="11" font-size="10">CT new</tspan><tspan x="0" y="22" font-size="10">TRV</tspan></text>
		</g>
		<rect x="235.348" y="41.751" fill="#4F8ABE" width="34.164" height="34.161"/>
		<g>
			<text transform="matrix(0.9288 0 0 1 236.4292 50.6045)"><tspan x="0" y="0" fill="#FFFFFF" font-size="10">DS 21:</tspan><tspan x="0" y="11" fill="#FFFFFF" font-size="10">CT new</tspan><tspan x="0" y="22" fill="#FFFFFF" font-size="10">TRV</tspan></text>
		</g>
		<rect x="235.348" y="87.501" fill="#005695" width="34.164" height="34.162"/>
		<g>
			<text transform="matrix(0.9288 0 0 1 238.2319 96.355)"><tspan x="0" y="0" fill="#FFFFFF" font-size="10">DS 22:</tspan><tspan x="0" y="11" fill="#FFFFFF" font-size="10">CT old</tspan><tspan x="0" y="22" fill="#FFFFFF" font-size="10">TRV</tspan></text>
		</g>
		<g>
			<text transform="matrix(0.9288 0 0 1 165.8096 237.0762)" font-size="14">1024</text>
		</g>
		<g>
			<text transform="matrix(0.9288 0 0 1 286.5879 237.0762)" font-size="14">2048</text>
		</g>
		<g>
			<g>
				
					<line fill="none" stroke="#003468" stroke-linecap="round" stroke-miterlimit="1" stroke-dasharray="5,5,1,5" x1="269.512" y1="58.832" x2="350.046" y2="58.832"/>
				<path fill="#003468" d="M352.407,57.806c-1.652-0.499-2.728-0.959-4.054-1.491v5.044c0.475-0.225,2.401-0.992,4.054-1.491
					c1.77-0.534,3.375-0.9,4.415-1.03C355.782,58.707,354.177,58.341,352.407,57.806z"/>
			</g>
		</g>
		<g>
			<g>
				
					<line fill="none" stroke="#003468" stroke-linecap="round" stroke-miterlimit="1" stroke-dasharray="5,5,1,5" x1="350.046" y1="58.832" x2="252.43" y2="149.789"/>
				<path fill="#003468" d="M251.4,152.148c1.55-0.762,2.65-1.158,3.983-1.672l-3.438-3.691c-0.194,0.488-1.08,2.363-1.949,3.855
					c-0.931,1.598-1.855,2.959-2.527,3.764C248.318,153.791,249.742,152.965,251.4,152.148z"/>
			</g>
		</g>
		<g>
			<g>
				
					<line fill="none" stroke="#003468" stroke-linecap="round" stroke-miterlimit="1" stroke-dasharray="1,2" x1="269.512" y1="104.583" x2="350.638" y2="104.583"/>
				<path fill="#003468" d="M352.999,103.558c-1.652-0.5-2.728-0.96-4.054-1.492v5.045c0.475-0.227,2.401-0.993,4.054-1.492
					c1.77-0.535,3.375-0.9,4.415-1.031C356.374,104.458,354.769,104.091,352.999,103.558z"/>
			</g>
		</g>
		<g>
			<g>
				
					<line fill="none" stroke="#003468" stroke-linecap="round" stroke-miterlimit="1" stroke-dasharray="1,2" x1="350.638" y1="104.583" x2="252.43" y2="195.539"/>
				<path fill="#003468" d="M251.394,197.896c1.552-0.758,2.653-1.15,3.988-1.66l-3.429-3.701c-0.194,0.488-1.086,2.359-1.961,3.85
					c-0.934,1.594-1.863,2.953-2.537,3.756C248.307,199.529,249.732,198.707,251.394,197.896z"/>
			</g>
		</g>
		<g>
			<g>
				
					<line fill="none" stroke="#003468" stroke-linecap="round" stroke-miterlimit="1" stroke-dasharray="5,5,1,5" x1="252.43" y1="150.332" x2="350.638" y2="150.332"/>
				<path fill="#003468" d="M352.999,149.309c-1.652-0.5-2.728-0.961-4.054-1.492v5.045c0.475-0.227,2.401-0.994,4.054-1.492
					c1.77-0.535,3.375-0.9,4.415-1.031C356.374,150.207,354.769,149.842,352.999,149.309z"/>
			</g>
		</g>
		<g>
			<g>
				
					<line fill="none" stroke="#003468" stroke-linecap="round" stroke-miterlimit="1" stroke-dasharray="1,2" x1="252.43" y1="196.082" x2="350.638" y2="196.082"/>
				<path fill="#003468" d="M352.999,195.059c-1.652-0.5-2.728-0.961-4.054-1.492v5.045c0.475-0.227,2.401-0.994,4.054-1.492
					c1.77-0.535,3.375-0.9,4.415-1.031C356.374,195.957,354.769,195.592,352.999,195.059z"/>
			</g>
		</g>
	</g>
</g>
</svg>
