<?xml version="1.0" encoding="utf-8"?>
<!-- $Source: /home/bbennett/pass/archive/DicomXml/docbook/part17/figures/PS3.17_O.1-1.svg,v $ -->
<!-- $Date: 2014/05/09 12:30:21 $ -->
<!-- $Revision: 1.2 $ -->

<!DOCTYPE svg PUBLIC "-//W3C//DTD SVG 1.1//EN" "http://www.w3.org/Graphics/SVG/1.1/DTD/svg11.dtd">
<svg version="1.1" id="Layer_1" xmlns="http://www.w3.org/2000/svg" xmlns:xlink="http://www.w3.org/1999/xlink" x="0px" y="0px"
	 width="502px" height="307px" viewBox="0 0 502 307" enable-background="new 0 0 502 307" xml:space="preserve">

<defs>
	<style type="text/css">
	text {
	  font-family: Helvetica, Verdana, ArialUnicodeMS, san-serif
	}
	</style>
</defs>

<g>
   <desc>
	PS 3.17 Part 17: Explanatory Information
   </desc>
</g>

<g>
	<rect x="1" y="1" fill="#F5EED6" width="500" height="305"/>
	<g>
		<path fill="#FFFFFF" d="M474.689,42.188H147.774v82.665h326.915V42.188z"/>
		<path fill="#CCDEF0" d="M147.774,124.854h326.915v83.221H147.774V124.854z"/>
		<path fill="#B2CEE7" d="M474.689,208.074H147.774v82.912h326.915V208.074z"/>
		<g>
			<text transform="matrix(1 0 0 1 87.9736 86.5786)" font-size="11">SOURCE</text>
		</g>
		<g>
			<text transform="matrix(1 0 0 1 171.0547 30.5444)" font-size="11">Spatial Registration</text>
		</g>
		<g>
			<text transform="matrix(1 0 0 1 375.3633 25.7622)"><tspan x="0" y="0" font-size="11">Deformable</tspan><tspan x="-19.262" y="10.765" font-size="11">Spatial Registration</tspan></text>
		</g>
		<g>
			<text transform="matrix(1 0 0 1 27.3115 169.5215)" font-size="11">TRANSFORMATIONS</text>
		</g>
		<g>
			<text transform="matrix(1 0 0 1 64.6357 252.5879)" font-size="11">REGISTERED</text>
		</g>
		<rect x="239.063" y="62.975" fill="#9EB9DA" stroke="#000000" stroke-miterlimit="1" width="41.093" height="41.094"/>
		<rect x="342.383" y="62.975" fill="#9EB9DA" stroke="#000000" stroke-miterlimit="1" width="41.096" height="41.094"/>
		<rect x="424.105" y="62.975" fill="#9EB9DA" stroke="#000000" stroke-miterlimit="1" width="41.096" height="41.094"/>
		<rect x="198.2" y="228.984" fill="#9EB9DA" stroke="#000000" stroke-miterlimit="1" width="41.094" height="41.094"/>
		<rect x="383.244" y="228.984" fill="#9EB9DA" stroke="#000000" stroke-miterlimit="1" width="41.096" height="41.094"/>
		<rect x="157.339" y="62.975" fill="#9EB9DA" stroke="#000000" stroke-miterlimit="1" width="41.093" height="41.094"/>
		<g>
			<text transform="matrix(1 0 0 1 159.8828 86.5786)" font-size="12">RCS-1</text>
		</g>
		<g>
			<text transform="matrix(1 0 0 1 241.606 86.5786)" font-size="12">RCS-2</text>
		</g>
		<g>
			<text transform="matrix(1 0 0 1 344.9277 86.5786)" font-size="12">RCS-1</text>
		</g>
		<g>
			<text transform="matrix(1 0 0 1 426.6523 86.5786)" font-size="12">RCS-2</text>
		</g>
		<g>
			<text transform="matrix(1 0 0 1 200.7441 252.5889)" font-size="12">RCS-1</text>
		</g>
		<g>
			<text transform="matrix(1 0 0 1 385.7891 252.5879)" font-size="12">RCS-2</text>
		</g>
		<g>
			<g>
				<path fill="none" stroke="#003468" stroke-width="2" stroke-miterlimit="1" d="M240.973,217.189
					c11.218-24.029,18.638-65.717,18.638-113.121"/>
				<path fill="#003468" d="M240.832,222.337c2.304-2.574,4.047-4.132,6.134-6.085l-9.142-4.269
					c0.007,1.052-0.232,5.191-0.727,8.609c-0.528,3.659-1.223,6.876-1.867,8.872C236.347,227.689,238.367,225.092,240.832,222.337z"
					/>
			</g>
		</g>
		<g>
			<g>
				<path fill="none" stroke="#003468" stroke-width="2" stroke-miterlimit="1" d="M177.885,104.068
					c0,47.406,7.42,89.096,18.639,113.123"/>
				<path fill="#003468" d="M200.38,220.604c-0.494-3.419-0.57-5.756-0.728-8.609l-9.142,4.269c0.811,0.669,3.831,3.511,6.134,6.085
					c2.466,2.754,4.487,5.353,5.604,7.127C201.604,227.48,200.909,224.263,200.38,220.604z"/>
			</g>
		</g>
		<g>
			<g>
				<path fill="none" stroke="#003468" stroke-width="2" stroke-miterlimit="1" d="M419,229.207
					c14.102-18.666,24.318-62.52,25.531-114.688"/>
				<path fill="#003468" d="M442.592,109.75c-1.076,3.283-2.045,5.41-3.171,8.037l10.086,0.234
					c-0.429-0.959-1.873-4.847-2.794-8.176c-0.987-3.563-1.644-6.788-1.855-8.875C444.548,103.045,443.742,106.236,442.592,109.75z"
					/>
			</g>
		</g>
		<g>
			<g>
				<path fill="none" stroke="#003468" stroke-width="2" stroke-miterlimit="1" d="M363.051,114.52
					c1.209,51.963,11.35,95.68,25.367,114.469"/>
				<path fill="#003468" d="M360.892,109.845c-0.922,3.329-1.791,5.5-2.794,8.176l10.086-0.235
					c-0.473-0.938-2.096-4.754-3.171-8.037c-1.151-3.513-1.957-6.705-2.267-8.779C362.534,103.057,361.878,106.282,360.892,109.845z
					"/>
			</g>
		</g>
		<rect x="157.339" y="155.25" fill="#CCDEF0" width="41.093" height="22.428"/>
		<rect x="239.063" y="155.25" fill="#CCDEF0" width="41.093" height="22.428"/>
		<rect x="342.383" y="155.25" fill="#CCDEF0" width="41.096" height="22.428"/>
		<rect x="424.105" y="155.25" fill="#CCDEF0" width="41.096" height="22.428"/>
		<g>
			<text transform="matrix(1 0 0 1 167.4141 169.5215)" font-size="12">M1</text>
			<text transform="matrix(0.583 0 0 0.583 184.084 173.5176)" font-size="12">T</text>
		</g>
		<g>
			<text transform="matrix(1 0 0 1 249.1372 169.5215)" font-size="12">M2</text>
			<text transform="matrix(0.583 0 0 0.583 265.8066 173.5176)" font-size="12">T</text>
		</g>
		<g>
			<text transform="matrix(1 0 0 1 344.8633 169.5215)" font-size="12">Δ+M3</text>
			<text transform="matrix(0.583 0 0 0.583 376.7266 173.5176)" font-size="12">T</text>
		</g>
		<g>
			<text transform="matrix(1 0 0 1 426.5859 169.5215)" font-size="12">Δ+M4</text>
			<text transform="matrix(0.583 0 0 0.583 458.4492 173.5176)" font-size="12">T</text>
		</g>
	</g>
</g>
</svg>
