<?xml version="1.0" encoding="utf-8"?>
<!-- $Source: /home/bbennett/pass/archive/DicomXml/docbook/part17/figures/PS3.17_Y-2.svg,v $ -->
<!-- $Date: 2014/05/09 12:31:57 $ -->
<!-- $Revision: 1.2 $ -->

<!DOCTYPE svg PUBLIC "-//W3C//DTD SVG 1.1//EN" "http://www.w3.org/Graphics/SVG/1.1/DTD/svg11.dtd">
<svg version="1.1" id="Layer_1" xmlns="http://www.w3.org/2000/svg" xmlns:xlink="http://www.w3.org/1999/xlink" x="0px" y="0px"
	 width="502px" height="192px" viewBox="0 0 502 192" enable-background="new 0 0 502 192" xml:space="preserve">

<defs>
	<style type="text/css">
	text {
	  font-family: Helvetica, Verdana, ArialUnicodeMS, san-serif
	}
	</style>
</defs>

<g>
   <desc>
	PS 3.17 Part 17: Explanatory Information
   </desc>
</g>

<g>
	<rect x="1" y="1" fill="#F5EED6" width="500" height="190"/>
	<g>
		<g>
			<rect x="432.598" y="156.956" fill="none" width="39.613" height="17.5"/>
			<text transform="matrix(1 0 0 1 432.5977 163.3867)"><tspan x="0" y="0" font-size="9">Exposure</tspan><tspan x="10.805" y="10.799" font-size="9">(log)</tspan></text>
		</g>
		<g>
			<rect x="29.789" y="15.698" fill="none" width="63.629" height="17.606"/>
			<text transform="matrix(1 0 0 1 31.3433 22.1289)"><tspan x="0" y="0" font-size="9">Optical Density</tspan><tspan x="20.513" y="10.8" font-size="9">(OD)</tspan></text>
		</g>
		<rect x="61.646" y="49.077" fill="#CCDEF0" stroke="#000000" width="362.723" height="119.051"/>
		<line fill="#CCDEF0" stroke="#000000" x1="55.59" y1="49.192" x2="424.365" y2="49.192"/>
		<line fill="#CCDEF0" stroke="#000000" x1="55.59" y1="79.599" x2="424.365" y2="79.599"/>
		<line fill="#CCDEF0" stroke="#000000" x1="55.59" y1="108.53" x2="424.365" y2="108.53"/>
		<line fill="#CCDEF0" stroke="#000000" x1="55.59" y1="138.63" x2="424.365" y2="138.63"/>
		<line fill="none" stroke="#000000" x1="351.805" y1="174.188" x2="351.805" y2="49.077"/>
		<line fill="#CCDEF0" stroke="#000000" x1="278.844" y1="174.188" x2="278.844" y2="49.077"/>
		<line fill="#CCDEF0" stroke="#000000" x1="134.197" y1="174.188" x2="134.197" y2="49.077"/>
		<line fill="#CCDEF0" stroke="#000000" x1="207.042" y1="174.188" x2="207.042" y2="49.077"/>
		<g>
			<g>
				<polyline fill="none" stroke="#003468" points="61.646,39.454 61.646,168.128 429.344,168.128 				"/>
				<path fill="#003468" d="M431.705,167.104c-1.652-0.5-2.728-0.96-4.054-1.492v5.045c0.475-0.227,2.401-0.993,4.054-1.492
					c1.77-0.535,3.375-0.9,4.415-1.031C435.08,168.003,433.475,167.637,431.705,167.104z"/>
				<path fill="#003468" d="M60.622,37.092c-0.5,1.653-0.959,2.728-1.492,4.054h5.044c-0.226-0.475-0.993-2.401-1.492-4.054
					c-0.535-1.77-0.9-3.374-1.031-4.415C61.521,33.718,61.156,35.323,60.622,37.092z"/>
			</g>
		</g>
		<g>
			<rect x="213.836" y="16.54" fill="none" width="58.343" height="11.522"/>
			<text transform="matrix(1 0 0 1 213.8364 25.1182)" font-size="12">H-D Curve</text>
		</g>
		<g>
			<rect x="43.309" y="45.739" fill="none" width="9.597" height="130.563"/>
			<text transform="matrix(1 0 0 1 48.4565 51.4541)"><tspan x="0" y="0" font-size="8">4</tspan><tspan x="0" y="29.6" font-size="8">3</tspan><tspan x="0" y="59.2" font-size="8">2</tspan><tspan x="0" y="88.8" font-size="8">1</tspan><tspan x="0" y="118.399" font-size="8">0</tspan></text>
		</g>
		<path fill="none" stroke="#003468" d="M368.947,69.755c-73.621,0-100.129,2.104-145.375,54.689
			c-41.107,47.777-38.471,44.232-161.926,43.684"/>
		<circle fill="#003468" stroke="#003468" cx="90.067" cy="168.13" r="3.028"/>
		<path fill="#003468" stroke="#003468" d="M107.629,168.13c0,1.672-1.355,3.031-3.03,3.031c-1.67,0-3.027-1.359-3.027-3.031
			s1.356-3.025,3.027-3.025C106.274,165.104,107.629,166.458,107.629,168.13z"/>
		<path fill="#003468" stroke="#003468" d="M122.164,168.13c0,1.672-1.355,3.031-3.03,3.031c-1.671,0-3.028-1.359-3.028-3.031
			s1.357-3.025,3.028-3.025C120.808,165.104,122.164,166.458,122.164,168.13z"/>
		<circle fill="#003468" stroke="#003468" cx="133.668" cy="168.13" r="3.03"/>
		<circle fill="#003468" stroke="#003468" cx="75.532" cy="168.13" r="3.028"/>
		<path fill="#003468" stroke="#003468" d="M151.233,167.224c0,1.67-1.356,3.025-3.03,3.025c-1.674,0-3.03-1.355-3.03-3.025
			c0-1.678,1.356-3.033,3.03-3.033C149.877,164.19,151.233,165.546,151.233,167.224z"/>
		<circle fill="#003468" stroke="#003468" cx="162.737" cy="165.706" r="3.03"/>
		<circle fill="#003468" stroke="#003468" cx="177.271" cy="162.374" r="3.03"/>
		<path fill="#003468" stroke="#003468" d="M209.367,142.989c0,1.67-1.355,3.025-3.027,3.025c-1.674,0-3.029-1.355-3.029-3.025
			c0-1.678,1.355-3.033,3.029-3.033C208.011,139.956,209.367,141.312,209.367,142.989z"/>
		<circle fill="#003468" stroke="#003468" cx="220.872" cy="126.021" r="3.028"/>
		<path fill="#003468" stroke="#003468" d="M238.433,111.485c0,1.67-1.355,3.025-3.029,3.025c-1.671,0-3.027-1.355-3.027-3.025
			c0-1.678,1.356-3.033,3.027-3.033C237.078,108.452,238.433,109.808,238.433,111.485z"/>
		<path fill="#003468" stroke="#003468" d="M194.833,156.015c0,1.67-1.356,3.025-3.026,3.025c-1.675,0-3.031-1.355-3.031-3.025
			c0-1.68,1.356-3.035,3.031-3.035C193.476,152.979,194.833,154.335,194.833,156.015z"/>
		<circle fill="#003468" stroke="#003468" cx="264.473" cy="86.644" r="3.027"/>
		<path fill="#003468" stroke="#003468" d="M282.035,79.372c0,1.676-1.355,3.03-3.025,3.03c-1.672,0-3.029-1.354-3.029-3.03
			c0-1.67,1.357-3.027,3.029-3.027C280.68,76.345,282.035,77.702,282.035,79.372z"/>
		<circle fill="#003468" stroke="#003468" cx="293.543" cy="74.527" r="3.027"/>
		<path fill="#003468" stroke="#003468" d="M252.969,96.944c0,1.671-1.359,3.025-3.031,3.025c-1.671,0-3.027-1.354-3.027-3.025
			c0-1.674,1.356-3.029,3.027-3.029C251.61,93.915,252.969,95.271,252.969,96.944z"/>
		<path fill="#003468" stroke="#003468" d="M325.639,70.285c0,1.675-1.355,3.029-3.025,3.029c-1.676,0-3.035-1.354-3.035-3.029
			s1.359-3.03,3.035-3.03C324.283,67.255,325.639,68.61,325.639,70.285z"/>
		<path fill="#003468" stroke="#003468" d="M340.172,70.285c0,1.675-1.355,3.029-3.025,3.029c-1.678,0-3.035-1.354-3.035-3.029
			s1.357-3.03,3.035-3.03C338.816,67.255,340.172,68.61,340.172,70.285z"/>
		<path fill="#003468" stroke="#003468" d="M354.707,70.285c0,1.675-1.355,3.029-3.027,3.029c-1.678,0-3.033-1.354-3.033-3.029
			s1.355-3.03,3.033-3.03C353.352,67.255,354.707,68.61,354.707,70.285z"/>
		<path fill="#003468" stroke="#003468" d="M369.24,69.983c0,1.674-1.357,3.029-3.027,3.029c-1.678,0-3.033-1.355-3.033-3.029
			c0-1.675,1.355-3.03,3.033-3.03C367.883,66.953,369.24,68.309,369.24,69.983z"/>
		<circle fill="#003468" stroke="#003468" cx="308.075" cy="72.104" r="3.028"/>
	</g>
</g>
</svg>
