<?xml version="1.0" encoding="utf-8"?>
<!-- $Source: /home/bbennett/pass/archive/DicomXml/docbook/part17/figures/PS3.17_E.3-6.svg,v $ -->
<!-- $Date: 2014/05/09 12:30:21 $ -->
<!-- $Revision: 1.2 $ -->

<!DOCTYPE svg PUBLIC "-//W3C//DTD SVG 1.1//EN" "http://www.w3.org/Graphics/SVG/1.1/DTD/svg11.dtd">
<svg version="1.1" id="Layer_1" xmlns="http://www.w3.org/2000/svg" xmlns:xlink="http://www.w3.org/1999/xlink" x="0px" y="0px"
	 width="502px" height="332px" viewBox="0 0 502 332" enable-background="new 0 0 502 332" xml:space="preserve">

<defs>
	<style type="text/css">
	text {
	  font-family: Helvetica, Verdana, ArialUnicodeMS, san-serif
	}
	</style>
</defs>

<g>
   <desc>
	PS 3.17 Part 17: Explanatory Information
   </desc>
</g>

<g>
	<rect x="1" y="1" fill="#F5EED6" width="500" height="330"/>
	<g>
		
			<polygon fill="#CCDEF0" stroke="#010101" stroke-width="0.75" stroke-linecap="round" stroke-linejoin="round" stroke-miterlimit="1" points="
			13.906,192.869 63.366,179.695 112.913,193.295 112.913,193.326 63.312,206.691 		"/>
		<g>
			<text transform="matrix(1 0.0022 -0.0022 1 28.9868 195.5645)" font-size="7">HAS CONCEPT MOD</text>
		</g>
		<g>
			<g>
				
					<line fill="none" stroke="#005695" stroke-linecap="round" stroke-miterlimit="1" x1="63.618" y1="206.691" x2="63.618" y2="213.586"/>
				<path fill="#005695" d="M64.643,215.947c0.5-1.652,0.959-2.729,1.492-4.055H61.09c0.226,0.475,0.993,2.402,1.492,4.055
					c0.535,1.77,0.9,3.375,1.031,4.414C63.743,219.322,64.108,217.717,64.643,215.947z"/>
			</g>
		</g>
		
			<rect x="14.118" y="220.787" fill="#B2CEE7" stroke="#010101" stroke-width="0.75" stroke-linecap="round" stroke-linejoin="round" stroke-miterlimit="1" width="99.002" height="27"/>
		<g>
			<text transform="matrix(1 0 0 1 29.0063 232.0332)"><tspan x="0" y="0" font-size="7">RENDERING INTENT</tspan><tspan x="-12.272" y="8.399" font-size="7">CODE: Presentation Required</tspan></text>
		</g>
		<g>
			<g>
				
					<line fill="none" stroke="#005695" stroke-linecap="round" stroke-miterlimit="1" x1="168.609" y1="205.658" x2="168.609" y2="214.297"/>
				<path fill="#005695" d="M169.634,216.66c0.499-1.654,0.96-2.729,1.491-4.055h-5.044c0.226,0.475,0.993,2.4,1.492,4.055
					c0.535,1.77,0.9,3.373,1.031,4.414C168.734,220.033,169.1,218.43,169.634,216.66z"/>
			</g>
		</g>
		<g>
			<g>
				<polyline fill="none" stroke="#005695" stroke-linecap="round" stroke-miterlimit="1" points="273.153,162.221 168.281,162.221 
					168.281,173.277 				"/>
				<path fill="#005695" d="M169.306,175.639c0.499-1.652,0.96-2.729,1.491-4.055h-5.044c0.226,0.475,0.993,2.402,1.492,4.055
					c0.535,1.77,0.9,3.375,1.031,4.414C168.406,179.014,168.771,177.408,169.306,175.639z"/>
			</g>
		</g>
		
			<rect x="119.811" y="220.775" fill="#B2CEE7" stroke="#010101" stroke-width="0.75" stroke-linecap="round" stroke-linejoin="round" stroke-miterlimit="1" width="97.582" height="26.984"/>
		<g>
			<text transform="matrix(1 0 0 1 135.7207 227.8145)"><tspan x="0" y="0" font-size="7">Single Image Finding</tspan><tspan x="9.153" y="8.4" font-size="7">CODE: Density</tspan><tspan x="19.258" y="16.801" font-size="7">1.2.1.2.6</tspan></text>
		</g>
		<g>
			<g>
				
					<line fill="none" stroke="#005695" stroke-linecap="round" stroke-miterlimit="1" x1="272.845" y1="149.255" x2="272.845" y2="173.496"/>
				<path fill="#005695" d="M273.87,175.857c0.499-1.652,0.959-2.729,1.491-4.055h-5.044c0.225,0.475,0.992,2.402,1.491,4.055
					c0.534,1.77,0.9,3.375,1.03,4.414C272.97,179.232,273.335,177.627,273.87,175.857z"/>
			</g>
		</g>
		
			<polygon fill="#CCDEF0" stroke="#010101" stroke-width="0.75" stroke-linecap="round" stroke-linejoin="round" stroke-miterlimit="1" points="
			119.13,192.742 168.564,179.572 218.084,193.168 218.084,193.197 168.508,206.553 		"/>
		<text transform="matrix(1 0 0 1 139.4399 195.0078)" font-size="7">INFERRED FROM</text>
		<g>
			<g>
				
					<line fill="none" stroke="#005695" stroke-linecap="round" stroke-miterlimit="1" x1="273.155" y1="205.658" x2="273.155" y2="214.297"/>
				<path fill="#005695" d="M274.181,216.66c0.499-1.654,0.959-2.729,1.491-4.055h-5.044c0.225,0.475,0.992,2.4,1.491,4.055
					c0.534,1.77,0.9,3.373,1.03,4.414C273.28,220.033,273.646,218.43,274.181,216.66z"/>
			</g>
		</g>
		
			<rect x="224.357" y="220.775" fill="#B2CEE7" stroke="#010101" stroke-width="0.75" stroke-linecap="round" stroke-linejoin="round" stroke-miterlimit="1" width="97.581" height="26.984"/>
		<g>
			<text transform="matrix(1 0 0 1 240.2671 227.8145)"><tspan x="0" y="0" font-size="7">Single Image Finding</tspan><tspan x="9.153" y="8.4" font-size="7">CODE: Density</tspan><tspan x="19.258" y="16.801" font-size="7">1.2.1.2.7</tspan></text>
		</g>
		
			<polygon fill="#CCDEF0" stroke="#010101" stroke-width="0.75" stroke-linecap="round" stroke-linejoin="round" stroke-miterlimit="1" points="
			223.678,192.742 273.11,179.572 322.63,193.168 322.63,193.197 273.056,206.553 		"/>
		<text transform="matrix(1 0 0 1 243.9863 195.0078)" font-size="7">INFERRED FROM</text>
		<g>
			<g>
				
					<line fill="none" stroke="#005695" stroke-linecap="round" stroke-miterlimit="1" x1="375.544" y1="206.033" x2="375.544" y2="262.902"/>
				<path fill="#005695" d="M376.569,265.264c0.499-1.652,0.959-2.729,1.491-4.055h-5.044c0.225,0.475,0.992,2.402,1.491,4.055
					c0.534,1.77,0.9,3.375,1.03,4.414C375.669,268.639,376.034,267.033,376.569,265.264z"/>
			</g>
		</g>
		
			<polygon fill="#CCDEF0" stroke="#010101" stroke-width="0.75" stroke-linecap="round" stroke-linejoin="round" stroke-miterlimit="1" points="
			326.063,193.117 375.499,179.943 425.019,193.543 425.019,193.572 375.442,206.928 		"/>
		<text transform="matrix(1 0 0 1 344.8086 195.3672)" font-size="7">HAS PROPERTIES</text>
		<g>
			<g>
				<polyline fill="none" stroke="#005695" stroke-linecap="round" stroke-miterlimit="1" points="168.281,162.221 63.578,162.221 
					63.578,173.277 				"/>
				<path fill="#005695" d="M64.603,175.639c0.5-1.652,0.959-2.729,1.492-4.055H61.05c0.226,0.475,0.993,2.402,1.492,4.055
					c0.535,1.77,0.9,3.375,1.031,4.414C63.703,179.014,64.069,177.408,64.603,175.639z"/>
			</g>
		</g>
		<g>
			<g>
				<polyline fill="none" stroke="#005695" stroke-linecap="round" stroke-miterlimit="1" points="272.856,162.221 375.888,162.221 
					375.888,173.646 				"/>
				<path fill="#005695" d="M376.913,176.01c0.499-1.654,0.959-2.729,1.491-4.055h-5.044c0.225,0.475,0.992,2.4,1.491,4.055
					c0.534,1.77,0.9,3.373,1.03,4.414C376.013,179.383,376.378,177.779,376.913,176.01z"/>
			</g>
		</g>
		
			<polygon fill="#CCDEF0" stroke="#010101" stroke-width="0.75" stroke-linecap="round" stroke-linejoin="round" stroke-miterlimit="1" points="
			106.399,94.558 155.859,81.382 205.406,94.984 205.406,95.015 155.805,108.378 		"/>
		<g>
			<text transform="matrix(1 0.0022 -0.0022 1 121.48 97.2529)" font-size="7">HAS CONCEPT MOD</text>
		</g>
		
			<polygon fill="#CCDEF0" stroke="#010101" stroke-width="0.75" stroke-linecap="round" stroke-linejoin="round" stroke-miterlimit="1" points="
			223.607,94.558 273.067,81.382 322.614,94.984 322.614,95.015 273.013,108.378 		"/>
		<g>
			<text transform="matrix(1 0.0022 -0.0022 1 255.0215 97.2881)" font-size="7">CONTAINS</text>
		</g>
		<g>
			<g>
				
					<line fill="none" stroke="#005695" stroke-linecap="round" stroke-miterlimit="1" x1="156.111" y1="108.378" x2="156.111" y2="115.274"/>
				<path fill="#005695" d="M157.136,117.636c0.5-1.654,0.959-2.729,1.492-4.055h-5.044c0.226,0.475,0.993,2.4,1.492,4.055
					c0.535,1.77,0.9,3.373,1.031,4.414C156.236,121.009,156.602,119.406,157.136,117.636z"/>
			</g>
		</g>
		<g>
			<g>
				<polyline fill="none" stroke="#005695" stroke-linecap="round" stroke-miterlimit="1" points="214.432,48.075 214.432,64.403 
					156.111,64.403 156.111,74.183 				"/>
				<path fill="#005695" d="M157.136,76.544c0.5-1.653,0.959-2.729,1.492-4.055h-5.044c0.226,0.475,0.993,2.401,1.492,4.055
					c0.535,1.77,0.9,3.374,1.031,4.414C156.236,79.918,156.602,78.314,157.136,76.544z"/>
			</g>
		</g>
		<g>
			<g>
				
					<line fill="none" stroke="#005695" stroke-linecap="round" stroke-miterlimit="1" x1="273.11" y1="108.378" x2="273.11" y2="115.274"/>
				<path fill="#005695" d="M274.136,117.636c0.499-1.654,0.959-2.729,1.491-4.055h-5.044c0.225,0.475,0.992,2.4,1.491,4.055
					c0.534,1.77,0.9,3.373,1.03,4.414C273.235,121.009,273.601,119.406,274.136,117.636z"/>
			</g>
		</g>
		<g>
			<g>
				<path fill="none" stroke="#005695" stroke-linecap="round" stroke-miterlimit="1" d="M214.432,64.403h58.679c0,0,0,2.935,0,9.78
					"/>
				<path fill="#005695" d="M274.136,76.544c0.499-1.653,0.959-2.729,1.491-4.055h-5.044c0.225,0.475,0.992,2.401,1.491,4.055
					c0.534,1.77,0.9,3.374,1.03,4.414C273.235,79.918,273.601,78.314,274.136,76.544z"/>
			</g>
		</g>
		
			<rect x="106.611" y="122.475" fill="#B2CEE7" stroke="#010101" stroke-width="0.75" stroke-linecap="round" stroke-linejoin="round" stroke-miterlimit="1" width="99.002" height="26.999"/>
		<g>
			<text transform="matrix(1 0 0 1 121.4995 133.7217)"><tspan x="0" y="0" font-size="7">RENDERING INTENT</tspan><tspan x="-12.272" y="8.4" font-size="7">CODE: Presentation Required</tspan></text>
		</g>
		
			<rect x="223.609" y="122.475" fill="#B2CEE7" stroke="#010101" stroke-width="0.75" stroke-linecap="round" stroke-linejoin="round" stroke-miterlimit="1" width="99.001" height="26.999"/>
		<g>
			<text transform="matrix(1 0 0 1 234.8008 133.7217)"><tspan x="0" y="0" font-size="7">COMPOSITE FEATURE</tspan><tspan x="17.89" y="8.4" font-size="7">CODE: Mass</tspan></text>
		</g>
		
			<rect x="156.111" y="13.575" fill="#86B2D8" stroke="#010101" stroke-width="0.75" stroke-linecap="round" stroke-linejoin="round" stroke-miterlimit="1" width="117.007" height="36.001"/>
		<g>
			<text transform="matrix(1 0 0 1 197.7134 24.2007)"><tspan x="0" y="0" font-size="8">Individual</tspan><tspan x="-35.123" y="9.6" font-size="8">Impression/Recommendation</tspan><tspan x="8.004" y="19.2" font-size="8">1.2.1</tspan></text>
		</g>
		<rect x="262.55" y="269.381" fill="#FFFFFF" stroke="#000000" width="225.977" height="45.357"/>
		<line fill="none" stroke="#000000" x1="262.55" y1="303.4" x2="488.526" y2="303.4"/>
		<line fill="none" stroke="#000000" x1="262.55" y1="292.061" x2="488.526" y2="292.061"/>
		<line fill="none" stroke="#000000" x1="262.55" y1="280.721" x2="488.526" y2="280.721"/>
		<rect x="264.351" y="272.482" fill="none" width="222.377" height="42.256"/>
		<text transform="matrix(0.9288 0 0 1 264.3506 278.207)"><tspan x="0" y="0" font-size="8">Composite Type CODE: Target content items are related spatially</tspan><tspan x="0" y="11" font-size="8">Scope of Feature CODE: Feature was detected on multiple images</tspan><tspan x="0" y="22" font-size="8">Algorithm Name TEXT: “Mass Maker”</tspan><tspan x="0" y="33" font-size="8">Algorithm Version TEXT: “V1.9”</tspan></text>
	</g>
</g>
</svg>
