<?xml version="1.0" encoding="utf-8"?>
<!-- $Source: /home/bbennett/pass/archive/DicomXml/docbook/part17/figures/PS3.17_I.3-1.svg,v $ -->
<!-- $Date: 2014/05/09 12:31:56 $ -->
<!-- $Revision: 1.2 $ -->

<!DOCTYPE svg PUBLIC "-//W3C//DTD SVG 1.1//EN" "http://www.w3.org/Graphics/SVG/1.1/DTD/svg11.dtd">
<svg version="1.1" id="Layer_1" xmlns="http://www.w3.org/2000/svg" xmlns:xlink="http://www.w3.org/1999/xlink" x="0px" y="0px"
	 width="502px" height="327px" viewBox="0 0 502 327" enable-background="new 0 0 502 327" xml:space="preserve">

<defs>
	<style type="text/css">
	text {
	  font-family: Helvetica, Verdana, ArialUnicodeMS, san-serif
	}
	</style>
</defs>

<g>
   <desc>
	PS 3.17 Part 17: Explanatory Information
   </desc>
</g>

<g>
	<rect x="1" y="1" fill="#F5EED6" width="500" height="325"/>
	<g>
		<g>
			<g>
				<path fill="none" stroke="#005695" stroke-linecap="round" stroke-miterlimit="1" d="M152.077,90.566c0,0,0,2.347,0,5.027"/>
				<path fill="#005695" d="M153.102,97.955c0.5-1.652,0.959-2.728,1.492-4.054h-5.044c0.226,0.475,0.993,2.401,1.492,4.054
					c0.535,1.77,0.9,3.375,1.031,4.415C152.202,101.33,152.568,99.724,153.102,97.955z"/>
			</g>
		</g>
		<g>
			<g>
				<polyline fill="none" stroke="#005695" stroke-linecap="round" stroke-miterlimit="1" points="291.864,40.566 291.864,49.55 
					151.87,49.55 151.87,56.542 				"/>
				<path fill="#005695" d="M152.895,58.904c0.5-1.652,0.959-2.728,1.492-4.054h-5.044c0.226,0.475,0.993,2.401,1.492,4.054
					c0.535,1.77,0.9,3.375,1.031,4.415C151.995,62.279,152.361,60.673,152.895,58.904z"/>
			</g>
		</g>
		<g>
			<g>
				<polyline fill="none" stroke="#005695" stroke-linecap="round" stroke-miterlimit="1" stroke-dasharray="4" points="
					151.87,49.55 90.668,49.55 90.668,56.542 				"/>
				<path fill="#005695" d="M91.693,58.904c0.5-1.652,0.959-2.728,1.492-4.054h-5.044c0.226,0.475,0.993,2.401,1.492,4.054
					c0.535,1.77,0.9,3.375,1.031,4.415C90.793,62.279,91.159,60.673,91.693,58.904z"/>
			</g>
		</g>
		<g>
			<g>
				<polyline fill="none" stroke="#005695" stroke-linecap="round" stroke-miterlimit="1" stroke-dasharray="4" points="
					428.441,49.55 489.645,49.55 489.645,56.542 				"/>
				<path fill="#005695" d="M490.669,58.904c0.5-1.652,0.96-2.728,1.492-4.054h-5.045c0.227,0.475,0.993,2.401,1.492,4.054
					c0.535,1.77,0.9,3.375,1.031,4.415C489.77,62.279,490.136,60.673,490.669,58.904z"/>
			</g>
		</g>
		<g>
			<g>
				<polyline fill="none" stroke="#005695" stroke-linecap="round" stroke-miterlimit="1" points="288.99,49.552 305.978,49.552 
					305.978,110.544 				"/>
				<path fill="#005695" d="M307.003,112.906c0.499-1.652,0.959-2.728,1.491-4.054h-5.044c0.225,0.475,0.992,2.401,1.491,4.054
					c0.534,1.77,0.9,3.375,1.03,4.415C306.103,116.281,306.468,114.675,307.003,112.906z"/>
			</g>
		</g>
		
			<rect x="255.81" y="13.93" fill="#86B2D8" stroke="#010101" stroke-width="0.75" stroke-linecap="round" stroke-linejoin="round" stroke-miterlimit="1" width="72.11" height="27.001"/>
		<g>
			<text transform="matrix(1 0 0 1 267.5469 24.8608)"><tspan x="0" y="0" font-size="7">Document Root</tspan><tspan x="1.374" y="8.4" font-size="7">(CONTAINER)</tspan></text>
		</g>
		
			<rect x="111.576" y="100.021" fill="#B2CEE7" stroke="#010101" stroke-width="0.75" stroke-linecap="round" stroke-linejoin="round" stroke-miterlimit="1" width="81.004" height="26.999"/>
		<g>
			<text transform="matrix(1 0 0 1 119.9814 111.2666)"><tspan x="0" y="0" font-size="7">Procedure Summary</tspan><tspan x="9.151" y="8.4" font-size="7">(CONTAINER)</tspan></text>
		</g>
		
			<polygon fill="#CCDEF0" stroke="#010101" stroke-width="0.75" stroke-linecap="round" stroke-linejoin="round" stroke-miterlimit="1" points="
			111.491,76.709 151.518,63.536 191.61,77.135 191.61,77.167 151.475,90.53 		"/>
		<g>
			<text transform="matrix(1 0 0 1 133.4634 78.9814)" font-size="7">CONTAINS</text>
		</g>
		<g>
			<g>
				
					<line fill="none" stroke="#005695" stroke-linecap="round" stroke-miterlimit="1" x1="305.978" y1="119.738" x2="305.978" y2="128.376"/>
				<path fill="#005695" d="M307.003,130.738c0.499-1.652,0.959-2.728,1.491-4.054h-5.044c0.225,0.475,0.992,2.401,1.491,4.054
					c0.534,1.77,0.9,3.375,1.03,4.415C306.103,134.113,306.468,132.507,307.003,130.738z"/>
			</g>
		</g>
		
			<polygon fill="#CCDEF0" stroke="#010101" stroke-width="0.75" stroke-linecap="round" stroke-linejoin="round" stroke-miterlimit="1" points="
			260.974,130.714 305.938,117.545 350.979,131.14 350.979,131.17 305.888,144.525 		"/>
		<g>
			<text transform="matrix(1 0 0 1 287.8906 132.9814)" font-size="7">CONTAINS</text>
		</g>
		<g>
			<g>
				<polyline fill="none" stroke="#005695" stroke-linecap="round" stroke-miterlimit="1" stroke-dasharray="4" points="
					151.217,137.277 212.648,137.277 212.648,148.703 				"/>
				<path fill="#005695" d="M213.674,151.064c0.5-1.652,0.959-2.728,1.492-4.054h-5.045c0.226,0.475,0.992,2.401,1.492,4.054
					c0.534,1.77,0.9,3.375,1.03,4.415C212.773,154.439,213.14,152.833,213.674,151.064z"/>
			</g>
		</g>
		<g>
			<g>
				
					<line fill="none" stroke="#005695" stroke-linecap="round" stroke-miterlimit="1" x1="57.789" y1="178.102" x2="57.789" y2="189.354"/>
				<path fill="#005695" d="M58.814,191.715c0.5-1.652,0.959-2.729,1.492-4.055h-5.044c0.226,0.475,0.993,2.402,1.492,4.055
					c0.535,1.77,0.9,3.375,1.031,4.414C57.914,195.09,58.28,193.484,58.814,191.715z"/>
			</g>
		</g>
		<g>
			<g>
				<polyline fill="none" stroke="#005695" stroke-linecap="round" stroke-miterlimit="1" points="150.892,137.277 57.789,137.277 
					57.789,148.333 				"/>
				<path fill="#005695" d="M58.814,150.695c0.5-1.654,0.959-2.729,1.492-4.055h-5.044c0.226,0.475,0.993,2.4,1.492,4.055
					c0.535,1.77,0.9,3.373,1.031,4.414C57.914,154.068,58.28,152.464,58.814,150.695z"/>
			</g>
		</g>
		
			<rect x="17.288" y="195.832" fill="#B2CEE7" stroke="#010101" stroke-width="0.75" stroke-linecap="round" stroke-linejoin="round" stroke-miterlimit="1" width="81" height="26.984"/>
		<g>
			<text transform="matrix(1 0 0 1 22.0049 207.0693)"><tspan x="0" y="0" font-size="7">FIRST Fetus Summary</tspan><tspan x="12.84" y="8.399" font-size="7">(CONTAINER)</tspan></text>
		</g>
		
			<polygon fill="#CCDEF0" stroke="#010101" stroke-width="0.75" stroke-linecap="round" stroke-linejoin="round" stroke-miterlimit="1" points="
			12.788,167.799 57.749,154.628 102.788,168.225 102.788,168.254 57.698,181.609 		"/>
		<text transform="matrix(1 0 0 1 39.7031 170.0625)" font-size="7">CONTAINS</text>
		<g>
			<g>
				
					<line fill="none" stroke="#005695" stroke-linecap="round" stroke-miterlimit="1" x1="151.442" y1="178.102" x2="151.442" y2="189.354"/>
				<path fill="#005695" d="M152.467,191.715c0.5-1.652,0.959-2.729,1.492-4.055h-5.044c0.226,0.475,0.993,2.402,1.492,4.055
					c0.535,1.77,0.9,3.375,1.031,4.414C151.567,195.09,151.933,193.484,152.467,191.715z"/>
			</g>
		</g>
		<g>
			<g>
				
					<line fill="none" stroke="#005695" stroke-linecap="round" stroke-miterlimit="1" x1="151.442" y1="127.02" x2="151.442" y2="148.333"/>
				<path fill="#005695" d="M152.467,150.695c0.5-1.654,0.959-2.729,1.492-4.055h-5.044c0.226,0.475,0.993,2.4,1.492,4.055
					c0.535,1.77,0.9,3.373,1.031,4.414C151.567,154.068,151.933,152.464,152.467,150.695z"/>
			</g>
		</g>
		
			<rect x="110.946" y="195.832" fill="#B2CEE7" stroke="#010101" stroke-width="0.75" stroke-linecap="round" stroke-linejoin="round" stroke-miterlimit="1" width="80.998" height="26.984"/>
		<g>
			<text transform="matrix(1 0 0 1 110.7979 207.0693)"><tspan x="0" y="0" font-size="7">SECOND Fetus Summary</tspan><tspan x="17.704" y="8.399" font-size="7">(CONTAINER)</tspan></text>
		</g>
		<g>
			<g>
				
					<line fill="none" stroke="#005695" stroke-linecap="round" stroke-miterlimit="1" x1="57.789" y1="267.277" x2="57.789" y2="275.916"/>
				<path fill="#005695" d="M58.814,278.277c0.5-1.652,0.959-2.729,1.492-4.055h-5.044c0.226,0.475,0.993,2.402,1.492,4.055
					c0.535,1.77,0.9,3.375,1.031,4.414C57.914,281.652,58.28,280.047,58.814,278.277z"/>
			</g>
		</g>
		
			<rect x="17.288" y="282.395" fill="#B2CEE7" stroke="#010101" stroke-width="0.75" stroke-linecap="round" stroke-linejoin="round" stroke-miterlimit="1" width="81" height="26.984"/>
		<g>
			<text transform="matrix(1 0 0 1 41.6411 293.6309)"><tspan x="0" y="0" font-size="7">Subject ID</tspan><tspan x="7.202" y="8.4" font-size="7">TEXT</tspan></text>
		</g>
		<g>
			<g>
				
					<line fill="none" stroke="#005695" stroke-linecap="round" stroke-miterlimit="1" x1="151.442" y1="264.664" x2="151.442" y2="275.916"/>
				<path fill="#005695" d="M152.467,278.277c0.5-1.652,0.959-2.729,1.492-4.055h-5.044c0.226,0.475,0.993,2.402,1.492,4.055
					c0.535,1.77,0.9,3.375,1.031,4.414C151.567,281.652,151.933,280.047,152.467,278.277z"/>
			</g>
		</g>
		
			<rect x="110.946" y="282.395" fill="#B2CEE7" stroke="#010101" stroke-width="0.75" stroke-linecap="round" stroke-linejoin="round" stroke-miterlimit="1" width="80.998" height="26.984"/>
		<g>
			<text transform="matrix(1 0 0 1 135.2979 293.6309)"><tspan x="0" y="0" font-size="7">Subject ID</tspan><tspan x="7.202" y="8.4" font-size="7">TEXT</tspan></text>
		</g>
		
			<polygon fill="#CCDEF0" stroke="#010101" stroke-width="0.75" stroke-linecap="round" stroke-linejoin="round" stroke-miterlimit="1" points="
			106.446,167.799 151.405,154.628 196.444,168.225 196.444,168.254 151.354,181.609 		"/>
		<text transform="matrix(1 0 0 1 133.3599 170.0625)" font-size="7">CONTAINS</text>
		<g>
			<g>
				
					<line fill="none" stroke="#005695" stroke-linecap="round" stroke-miterlimit="1" x1="57.789" y1="222.814" x2="57.789" y2="233.871"/>
				<path fill="#005695" d="M58.814,236.232c0.5-1.652,0.959-2.729,1.492-4.055h-5.044c0.226,0.475,0.993,2.402,1.492,4.055
					c0.535,1.77,0.9,3.375,1.031,4.414C57.914,239.607,58.28,238.002,58.814,236.232z"/>
			</g>
		</g>
		<g>
			<g>
				
					<line fill="none" stroke="#005695" stroke-linecap="round" stroke-miterlimit="1" x1="151.444" y1="222.814" x2="151.444" y2="233.871"/>
				<path fill="#005695" d="M152.469,236.232c0.5-1.652,0.959-2.729,1.492-4.055h-5.044c0.226,0.475,0.993,2.402,1.492,4.055
					c0.535,1.77,0.9,3.375,1.031,4.414C151.569,239.607,151.935,238.002,152.469,236.232z"/>
			</g>
		</g>
		
			<polygon fill="#CCDEF0" stroke="#010101" stroke-width="0.75" stroke-linecap="round" stroke-linejoin="round" stroke-miterlimit="1" points="
			12.788,253.336 57.749,240.166 102.788,253.762 102.788,253.791 57.698,267.146 		"/>
		<text transform="matrix(1 0 0 1 42.2275 251.4033)"><tspan x="0" y="0" font-size="7">HAS OBS</tspan><tspan x="-1.162" y="8.399" font-size="7">CONTEXT</tspan></text>
		
			<polygon fill="#CCDEF0" stroke="#010101" stroke-width="0.75" stroke-linecap="round" stroke-linejoin="round" stroke-miterlimit="1" points="
			106.446,253.336 151.405,240.166 196.444,253.762 196.444,253.791 151.354,267.146 		"/>
		<text transform="matrix(1 0 0 1 135.8843 251.4033)"><tspan x="0" y="0" font-size="7">HAS OBS</tspan><tspan x="-1.162" y="8.399" font-size="7">CONTEXT</tspan></text>
		<g>
			<g>
				
					<line fill="none" stroke="#005695" stroke-linecap="round" stroke-miterlimit="1" x1="260.438" y1="234.023" x2="260.438" y2="245.275"/>
				<path fill="#005695" d="M261.464,247.637c0.499-1.652,0.959-2.729,1.491-4.055h-5.044c0.225,0.475,0.992,2.402,1.491,4.055
					c0.534,1.77,0.9,3.375,1.03,4.414C260.563,251.012,260.929,249.406,261.464,247.637z"/>
			</g>
		</g>
		
			<rect x="219.942" y="253.078" fill="#B2CEE7" stroke="#010101" stroke-width="0.75" stroke-linecap="round" stroke-linejoin="round" stroke-miterlimit="1" width="81.002" height="26.982"/>
		<g>
			<text transform="matrix(1 0 0 1 244.2959 264.3203)"><tspan x="0" y="0" font-size="7">Subject ID</tspan><tspan x="7.202" y="8.4" font-size="7">TEXT</tspan></text>
		</g>
		
			<polygon fill="#CCDEF0" stroke="#010101" stroke-width="0.75" stroke-linecap="round" stroke-linejoin="round" stroke-miterlimit="1" points="
			215.442,224.023 260.401,210.855 305.445,224.449 305.445,224.479 260.351,237.832 		"/>
		<text transform="matrix(1 0 0 1 244.8823 222.0918)"><tspan x="0" y="0" font-size="7">HAS OBS</tspan><tspan x="-1.162" y="8.399" font-size="7">CONTEXT</tspan></text>
		<g>
			<g>
				<polyline fill="none" stroke="#005695" stroke-linecap="round" stroke-miterlimit="1" points="306.4,177.221 306.4,190.586 
					260.322,190.586 260.322,204.168 				"/>
				<path fill="#005695" d="M261.347,206.531c0.5-1.654,0.96-2.729,1.492-4.055h-5.045c0.227,0.475,0.993,2.4,1.492,4.055
					c0.535,1.77,0.9,3.373,1.031,4.414C260.447,209.904,260.813,208.301,261.347,206.531z"/>
			</g>
		</g>
		<g>
			<g>
				<polyline fill="none" stroke="#005695" stroke-linecap="round" stroke-miterlimit="1" stroke-dasharray="4" points="
					306.422,190.586 346.876,190.586 346.876,203.168 				"/>
				<path fill="#005695" d="M347.901,205.531c0.499-1.654,0.959-2.729,1.491-4.055h-5.044c0.225,0.475,0.992,2.4,1.491,4.055
					c0.534,1.77,0.9,3.373,1.03,4.414C347.001,208.904,347.366,207.301,347.901,205.531z"/>
			</g>
		</g>
		<g>
			<g>
				<path fill="none" stroke="#005695" stroke-linecap="round" stroke-miterlimit="1" d="M306.42,144.143c0,0,0,2.347,0,5.027"/>
				<path fill="#005695" d="M307.444,151.533c0.5-1.654,0.96-2.729,1.492-4.055h-5.045c0.227,0.475,0.993,2.4,1.492,4.055
					c0.535,1.77,0.9,3.373,1.031,4.414C306.545,154.906,306.911,153.302,307.444,151.533z"/>
			</g>
		</g>
		
			<rect x="265.916" y="153.598" fill="#B2CEE7" stroke="#010101" stroke-width="0.75" stroke-linecap="round" stroke-linejoin="round" stroke-miterlimit="1" width="81.009" height="27"/>
		<g>
			<text transform="matrix(1 0 0 1 282.2969 164.8408)"><tspan x="0" y="0" font-size="7">FIRST Heading</tspan><tspan x="1.178" y="8.399" font-size="7">(CONTAINER)</tspan></text>
		</g>
		<g>
			<g>
				<polyline fill="none" stroke="#005695" stroke-linecap="round" stroke-miterlimit="1" points="306.428,49.55 428.978,49.55 
					428.978,110.542 				"/>
				<path fill="#005695" d="M430.003,112.904c0.499-1.652,0.959-2.728,1.491-4.054h-5.044c0.225,0.475,0.992,2.401,1.491,4.054
					c0.534,1.77,0.9,3.375,1.03,4.415C429.103,116.279,429.468,114.673,430.003,112.904z"/>
			</g>
		</g>
		<g>
			<g>
				
					<line fill="none" stroke="#005695" stroke-linecap="round" stroke-miterlimit="1" x1="428.978" y1="119.606" x2="428.978" y2="128.245"/>
				<path fill="#005695" d="M430.003,130.607c0.499-1.654,0.959-2.729,1.491-4.055h-5.044c0.225,0.475,0.992,2.4,1.491,4.055
					c0.534,1.77,0.9,3.373,1.03,4.414C429.103,133.98,429.468,132.376,430.003,130.607z"/>
			</g>
		</g>
		
			<polygon fill="#CCDEF0" stroke="#010101" stroke-width="0.75" stroke-linecap="round" stroke-linejoin="round" stroke-miterlimit="1" points="
			383.975,130.583 428.938,117.414 473.979,131.008 473.979,131.039 428.888,144.393 		"/>
		<g>
			<text transform="matrix(1 0 0 1 410.8906 132.8501)" font-size="7">CONTAINS</text>
		</g>
		<g>
			<g>
				
					<line fill="none" stroke="#005695" stroke-linecap="round" stroke-miterlimit="1" x1="383.439" y1="234.025" x2="383.439" y2="245.275"/>
				<path fill="#005695" d="M384.464,247.637c0.5-1.652,0.96-2.729,1.492-4.055h-5.045c0.227,0.475,0.993,2.402,1.492,4.055
					c0.535,1.77,0.9,3.375,1.031,4.414C383.564,251.012,383.931,249.406,384.464,247.637z"/>
			</g>
		</g>
		
			<rect x="342.942" y="252.945" fill="#B2CEE7" stroke="#010101" stroke-width="0.75" stroke-linecap="round" stroke-linejoin="round" stroke-miterlimit="1" width="81.003" height="26.982"/>
		<g>
			<text transform="matrix(1 0 0 1 367.2959 264.1885)"><tspan x="0" y="0" font-size="7">Subject ID</tspan><tspan x="7.202" y="8.399" font-size="7">TEXT</tspan></text>
		</g>
		
			<polygon fill="#CCDEF0" stroke="#010101" stroke-width="0.75" stroke-linecap="round" stroke-linejoin="round" stroke-miterlimit="1" points="
			338.442,223.891 383.402,210.725 428.445,224.316 428.445,224.348 383.352,237.699 		"/>
		<text transform="matrix(1 0 0 1 367.8828 221.9609)"><tspan x="0" y="0" font-size="7">HAS OBS</tspan><tspan x="-1.162" y="8.399" font-size="7">CONTEXT</tspan></text>
		<g>
			<g>
				<polyline fill="none" stroke="#005695" stroke-linecap="round" stroke-miterlimit="1" points="429.4,177.088 429.4,190.455 
					383.322,190.455 383.322,204.037 				"/>
				<path fill="#005695" d="M384.347,206.4c0.5-1.654,0.96-2.729,1.492-4.055h-5.045c0.227,0.475,0.993,2.4,1.492,4.055
					c0.535,1.77,0.9,3.373,1.031,4.414C383.447,209.773,383.813,208.17,384.347,206.4z"/>
			</g>
		</g>
		<g>
			<g>
				<polyline fill="none" stroke="#005695" stroke-linecap="round" stroke-miterlimit="1" stroke-dasharray="4" points="
					429.422,190.455 469.876,190.455 469.876,203.037 				"/>
				<path fill="#005695" d="M470.901,205.4c0.499-1.654,0.959-2.729,1.491-4.055h-5.044c0.225,0.475,0.992,2.4,1.491,4.055
					c0.534,1.77,0.9,3.373,1.03,4.414C470.001,208.773,470.366,207.17,470.901,205.4z"/>
			</g>
		</g>
		<g>
			<g>
				<path fill="none" stroke="#005695" stroke-linecap="round" stroke-miterlimit="1" d="M429.42,144.012c0,0,0,2.347,0,5.027"/>
				<path fill="#005695" d="M430.444,151.402c0.5-1.654,0.96-2.729,1.492-4.055h-5.045c0.227,0.475,0.993,2.4,1.492,4.055
					c0.535,1.77,0.9,3.373,1.031,4.414C429.545,154.775,429.911,153.171,430.444,151.402z"/>
			</g>
		</g>
		
			<rect x="388.916" y="153.467" fill="#B2CEE7" stroke="#010101" stroke-width="0.75" stroke-linecap="round" stroke-linejoin="round" stroke-miterlimit="1" width="81.009" height="27"/>
		<g>
			<text transform="matrix(1 0 0 1 400.4336 164.709)"><tspan x="0" y="0" font-size="7">SECOND Heading</tspan><tspan x="6.041" y="8.4" font-size="7">(CONTAINER)</tspan></text>
		</g>
	</g>
</g>
</svg>
