<?xml version="1.0" encoding="utf-8"?>
<!-- $Source: /home/bbennett/pass/archive/DicomXml/docbook/part17/figures/PS3.17_FF.2-4.svg,v $ -->
<!-- $Date: 2014/05/09 12:30:21 $ -->
<!-- $Revision: 1.2 $ -->

<!DOCTYPE svg PUBLIC "-//W3C//DTD SVG 1.1//EN" "http://www.w3.org/Graphics/SVG/1.1/DTD/svg11.dtd">
<svg version="1.1" id="Layer_1" xmlns="http://www.w3.org/2000/svg" xmlns:xlink="http://www.w3.org/1999/xlink" x="0px" y="0px"
	 width="502px" height="497px" viewBox="0 0 502 497" enable-background="new 0 0 502 497" xml:space="preserve">

<defs>
	<style type="text/css">
	text {
	  font-family: Helvetica, Verdana, ArialUnicodeMS, san-serif
	}
	</style>
</defs>

<g>
   <desc>
	PS 3.17 Part 17: Explanatory Information
   </desc>
</g>

<g>
	<rect x="1" y="1" fill="#F5EED6" width="500" height="495"/>
	<g>
		<g>
			<g>
				
					<line fill="none" stroke="#005695" stroke-linecap="round" stroke-miterlimit="1" x1="407.568" y1="94.584" x2="407.568" y2="118.913"/>
				<path fill="#005695" d="M408.594,121.275c0.499-1.653,0.959-2.728,1.491-4.054h-5.044c0.225,0.475,0.992,2.401,1.491,4.054
					c0.534,1.77,0.9,3.374,1.03,4.415C407.693,124.649,408.059,123.044,408.594,121.275z"/>
			</g>
		</g>
		
			<line fill="none" stroke="#005695" stroke-linecap="round" stroke-miterlimit="1" x1="226.209" y1="79.684" x2="226.209" y2="94.582"/>
		
			<rect x="141.792" y="166.973" fill="#B2CEE7" stroke="#010101" stroke-width="0.75" stroke-linecap="round" stroke-linejoin="round" stroke-miterlimit="1" width="90.003" height="27"/>
		<g>
			<text transform="matrix(1 0 0 1 172.3975 174.0093)"><tspan x="0" y="0" font-size="7">TID 3929</tspan><tspan x="-22.952" y="8.4" font-size="7">Cardiovascular Analysis</tspan><tspan x="-17.509" y="16.8" font-size="7">Observation Context</tspan></text>
		</g>
		
			<polygon fill="#CCDEF0" stroke="#010101" stroke-width="0.75" stroke-linecap="round" stroke-linejoin="round" stroke-miterlimit="1" points="
			371.567,134.266 407.537,125.48 443.57,134.55 443.57,134.571 407.498,143.48 		"/>
		<g>
			<g>
				
					<line fill="none" stroke="#005695" stroke-linecap="round" stroke-miterlimit="1" x1="407.568" y1="143.667" x2="407.568" y2="159.339"/>
				<path fill="#005695" d="M408.594,161.701c0.499-1.653,0.959-2.728,1.491-4.054h-5.044c0.225,0.475,0.992,2.401,1.491,4.054
					c0.534,1.77,0.9,3.374,1.03,4.415C407.693,165.075,408.059,163.47,408.594,161.701z"/>
			</g>
		</g>
		
			<rect x="141.792" y="222.447" fill="#B2CEE7" stroke="#010101" stroke-width="0.75" stroke-linecap="round" stroke-linejoin="round" stroke-miterlimit="1" width="90.003" height="27"/>
		<g>
			<text transform="matrix(1 0 0 1 172.3975 229.4868)"><tspan x="0" y="0" font-size="7">TID 3921</tspan><tspan x="-26.453" y="8.4" font-size="7">Ventricular Measurements</tspan><tspan x="-21.884" y="16.8" font-size="7">Ventricle = left ventricle</tspan></text>
		</g>
		
			<polygon fill="#CCDEF0" stroke="#010101" stroke-width="0.75" stroke-linecap="round" stroke-linejoin="round" stroke-miterlimit="1" points="
			259.676,134.266 295.645,125.48 331.679,134.55 331.679,134.571 295.606,143.48 		"/>
		<g>
			<g>
				
					<line fill="none" stroke="#005695" stroke-linecap="round" stroke-miterlimit="1" x1="295.675" y1="143.667" x2="295.675" y2="159.339"/>
				<path fill="#005695" d="M296.699,161.701c0.5-1.653,0.96-2.728,1.492-4.054h-5.045c0.227,0.475,0.993,2.401,1.492,4.054
					c0.535,1.77,0.9,3.374,1.031,4.415C295.8,165.075,296.166,163.47,296.699,161.701z"/>
			</g>
		</g>
		
			<rect x="250.674" y="166.971" fill="#B2CEE7" stroke="#010101" stroke-width="0.75" stroke-linecap="round" stroke-linejoin="round" stroke-miterlimit="1" width="90.005" height="27"/>
		<g>
			<text transform="matrix(1 0 0 1 281.2773 178.209)"><tspan x="0" y="0" font-size="7">TID 3925</tspan><tspan x="-16.534" y="8.4" font-size="7">Thickening Analysis</tspan></text>
		</g>
		
			<rect x="358.066" y="166.971" fill="#B2CEE7" stroke="#010101" stroke-width="0.75" stroke-linecap="round" stroke-linejoin="round" stroke-miterlimit="1" width="99.004" height="27"/>
		<g>
			<text transform="matrix(1 0 0 1 393.1748 178.209)"><tspan x="0" y="0" font-size="7">TID 3926</tspan><tspan x="-32.29" y="8.4" font-size="7">Myocardial Perfusion Analysis</tspan></text>
		</g>
		<g>
			<g>
				<polyline fill="none" stroke="#005695" stroke-linecap="round" stroke-miterlimit="1" points="407.418,94.582 407.402,94.584 
					295.676,94.582 295.676,94.584 295.676,118.913 				"/>
				<path fill="#005695" d="M296.701,121.275c0.499-1.653,0.959-2.728,1.491-4.054h-5.044c0.225,0.475,0.992,2.401,1.491,4.054
					c0.534,1.77,0.9,3.374,1.03,4.415C295.801,124.649,296.166,123.044,296.701,121.275z"/>
			</g>
		</g>
		<g>
			<g>
				<polyline fill="none" stroke="#005695" stroke-linecap="round" stroke-miterlimit="1" points="295.752,94.582 295.732,94.583 
					186.795,94.582 186.795,94.583 186.795,109.235 				"/>
				<path fill="#005695" d="M187.82,111.597c0.5-1.653,0.959-2.728,1.492-4.054h-5.044c0.226,0.475,0.993,2.401,1.492,4.054
					c0.535,1.77,0.9,3.374,1.031,4.415C186.92,114.971,187.286,113.367,187.82,111.597z"/>
			</g>
		</g>
		<g>
			<g>
				<polyline fill="none" stroke="#005695" stroke-linecap="round" stroke-miterlimit="1" points="187.343,94.581 45.001,94.58 
					45.001,94.581 45.046,236.053 45.103,236.055 55.535,236.055 				"/>
				<path fill="#005695" d="M57.896,235.03c-1.653-0.5-2.728-0.959-4.054-1.492v5.044c0.475-0.226,2.401-0.993,4.054-1.492
					c1.77-0.535,3.374-0.9,4.415-1.031C61.271,235.93,59.666,235.564,57.896,235.03z"/>
			</g>
		</g>
		<g>
			<g>
				<polyline fill="none" stroke="#005695" stroke-linecap="round" stroke-miterlimit="1" points="241.852,235.949 241.879,321.399 
					241.912,321.401 258.771,321.401 				"/>
				<path fill="#005695" d="M261.133,320.377c-1.652-0.5-2.728-0.96-4.054-1.492v5.045c0.475-0.227,2.401-0.993,4.054-1.492
					c1.77-0.535,3.375-0.9,4.415-1.031C264.508,321.276,262.902,320.91,261.133,320.377z"/>
			</g>
		</g>
		
			<rect x="136.209" y="44.344" fill="#86B2D8" stroke="#010101" stroke-width="0.75" stroke-linecap="round" stroke-linejoin="round" stroke-miterlimit="1" width="180.001" height="36"/>
		<g>
			<text transform="matrix(1 0 0 1 211.8159 55.8823)"><tspan x="0" y="0" font-size="7">TID 3902</tspan><tspan x="-13.226" y="8.4" font-size="7">Vascular Analysis</tspan><tspan x="-71.68" y="16.8" font-size="7">AnalysisPerformed = “Vascular Morphological Analysis”</tspan></text>
		</g>
		
			<line fill="none" stroke="#005695" stroke-linecap="round" stroke-miterlimit="1" stroke-dasharray="4" x1="226.209" y1="15.97" x2="226.209" y2="44.344"/>
		
			<polygon fill="#CCDEF0" stroke="#010101" stroke-width="0.75" stroke-linecap="round" stroke-linejoin="round" stroke-miterlimit="1" points="
			144.794,134.051 186.757,116.48 228.795,134.619 228.795,134.66 186.711,152.48 		"/>
		<g>
			<g>
				
					<line fill="none" stroke="#005695" stroke-linecap="round" stroke-miterlimit="1" x1="186.795" y1="152.482" x2="186.795" y2="159.45"/>
				<path fill="#005695" d="M187.82,161.812c0.5-1.653,0.959-2.728,1.492-4.054h-5.044c0.226,0.475,0.993,2.401,1.492,4.054
					c0.535,1.77,0.9,3.374,1.031,4.415C186.92,165.186,187.286,163.582,187.82,161.812z"/>
			</g>
		</g>
		<g>
			<text transform="matrix(1 -1.200000e-04 1.200000e-04 1 153.5034 136.4224)" font-size="7">HAS OBS CONTEXT</text>
		</g>
		
			<polygon fill="#CCDEF0" stroke="#010101" stroke-width="0.75" stroke-linecap="round" stroke-linejoin="round" stroke-miterlimit="1" points="
			62.639,235.988 94.114,222.812 125.646,236.414 125.646,236.445 94.08,249.809 		"/>
		<g>
			<g>
				
					<line fill="none" stroke="#005695" stroke-linecap="round" stroke-miterlimit="1" x1="126.723" y1="236.311" x2="134.048" y2="236.311"/>
				<path fill="#005695" d="M136.41,235.286c-1.653-0.5-2.728-0.959-4.054-1.492v5.044c0.475-0.226,2.401-0.993,4.054-1.492
					c1.77-0.535,3.374-0.9,4.415-1.031C139.784,236.186,138.18,235.82,136.41,235.286z"/>
			</g>
		</g>
		
			<rect x="362.567" y="222.451" fill="#B2CEE7" stroke="#010101" stroke-width="0.75" stroke-linecap="round" stroke-linejoin="round" stroke-miterlimit="1" width="90.003" height="27"/>
		<g>
			<text transform="matrix(1 0 0 1 393.1738 229.4907)"><tspan x="0" y="0" font-size="7">TID 3922</tspan><tspan x="-26.453" y="8.4" font-size="7">Ventricular Measurements</tspan><tspan x="0.776" y="16.8" font-size="7">Absolute</tspan></text>
		</g>
		
			<rect x="362.567" y="265.36" fill="#B2CEE7" stroke="#010101" stroke-width="0.75" stroke-linecap="round" stroke-linejoin="round" stroke-miterlimit="1" width="90.003" height="27"/>
		<g>
			<text transform="matrix(1 0 0 1 393.1738 272.3984)"><tspan x="0" y="0" font-size="7">TID 3923</tspan><tspan x="-26.453" y="8.399" font-size="7">Ventricular Measurements</tspan><tspan x="-11.279" y="16.799" font-size="7">BSA Normalized</tspan></text>
		</g>
		
			<rect x="362.567" y="308.267" fill="#B2CEE7" stroke="#010101" stroke-width="0.75" stroke-linecap="round" stroke-linejoin="round" stroke-miterlimit="1" width="90.003" height="27"/>
		<g>
			<text transform="matrix(1 0 0 1 393.1738 315.3047)"><tspan x="0" y="0" font-size="7">TID 3924</tspan><tspan x="-26.453" y="8.4" font-size="7">Ventricular Measurements</tspan><tspan x="-21.199" y="16.801" font-size="7">Heart Rate Normalized</tspan></text>
		</g>
		<g>
			<g>
				<polyline fill="none" stroke="#005695" stroke-linecap="round" stroke-miterlimit="1" points="231.964,236.057 231.998,236.059 
					258.218,236.059 				"/>
				<path fill="#005695" d="M260.58,235.034c-1.654-0.5-2.729-0.959-4.055-1.492v5.044c0.475-0.226,2.4-0.993,4.055-1.492
					c1.77-0.535,3.373-0.9,4.414-1.031C263.953,235.934,262.35,235.568,260.58,235.034z"/>
			</g>
		</g>
		
			<polygon fill="#CCDEF0" stroke="#010101" stroke-width="0.75" stroke-linecap="round" stroke-linejoin="round" stroke-miterlimit="1" points="
			264.172,235.992 295.647,222.816 327.179,236.418 327.179,236.449 295.613,249.812 		"/>
		<g>
			<path fill="none" stroke="#005695" stroke-linecap="round" stroke-miterlimit="1" d="M257.663,235.953"/>
		</g>
		<g>
			<g>
				
					<line fill="none" stroke="#005695" stroke-linecap="round" stroke-miterlimit="1" x1="327.163" y1="236.314" x2="354.824" y2="236.314"/>
				<path fill="#005695" d="M357.186,235.29c-1.652-0.5-2.728-0.959-4.054-1.492v5.044c0.475-0.226,2.401-0.993,4.054-1.492
					c1.77-0.535,3.375-0.9,4.415-1.031C360.561,236.189,358.955,235.824,357.186,235.29z"/>
			</g>
		</g>
		
			<polygon fill="#CCDEF0" stroke="#010101" stroke-width="0.75" stroke-linecap="round" stroke-linejoin="round" stroke-miterlimit="1" points="
			264.172,278.536 295.647,265.36 327.179,278.962 327.179,278.993 295.613,292.356 		"/>
		<g>
			<g>
				
					<line fill="none" stroke="#005695" stroke-linecap="round" stroke-miterlimit="1" x1="241.879" y1="278.497" x2="257.663" y2="278.497"/>
				<path fill="#005695" d="M260.025,277.473c-1.654-0.5-2.729-0.96-4.055-1.492v5.045c0.475-0.227,2.4-0.993,4.055-1.492
					c1.77-0.535,3.373-0.9,4.414-1.031C263.398,278.372,261.795,278.006,260.025,277.473z"/>
			</g>
		</g>
		<g>
			<g>
				
					<line fill="none" stroke="#005695" stroke-linecap="round" stroke-miterlimit="1" x1="327.163" y1="278.858" x2="354.824" y2="278.858"/>
				<path fill="#005695" d="M357.186,277.834c-1.652-0.5-2.728-0.96-4.054-1.492v5.045c0.475-0.227,2.401-0.993,4.054-1.492
					c1.77-0.535,3.375-0.9,4.415-1.031C360.561,278.733,358.955,278.367,357.186,277.834z"/>
			</g>
		</g>
		
			<polygon fill="#CCDEF0" stroke="#010101" stroke-width="0.75" stroke-linecap="round" stroke-linejoin="round" stroke-miterlimit="1" points="
			264.172,321.079 295.647,307.903 327.179,321.505 327.179,321.536 295.613,334.899 		"/>
		<g>
			<g>
				
					<line fill="none" stroke="#005695" stroke-linecap="round" stroke-miterlimit="1" x1="327.163" y1="321.401" x2="354.824" y2="321.401"/>
				<path fill="#005695" d="M357.186,320.377c-1.652-0.5-2.728-0.96-4.054-1.492v5.045c0.475-0.227,2.401-0.993,4.054-1.492
					c1.77-0.535,3.375-0.9,4.415-1.031C360.561,321.276,358.955,320.91,357.186,320.377z"/>
			</g>
		</g>
		<text transform="matrix(1 0 0 1 389.4863 136.4277)" font-size="7">CONTAINS</text>
		<text transform="matrix(1 0 0 1 277.5898 136.4277)" font-size="7">CONTAINS</text>
		<text transform="matrix(1 0 0 1 76.0571 238.2578)" font-size="7">CONTAINS</text>
		<text transform="matrix(1 0 0 1 277.5898 238.2617)" font-size="7">CONTAINS</text>
		<text transform="matrix(1 0 0 1 277.5898 280.8047)" font-size="7">CONTAINS</text>
		<text transform="matrix(1 0 0 1 277.5898 323.3477)" font-size="7">CONTAINS</text>
		
			<rect x="141.721" y="368.212" fill="#B2CEE7" stroke="#010101" stroke-width="0.75" stroke-linecap="round" stroke-linejoin="round" stroke-miterlimit="1" width="90.004" height="27"/>
		<g>
			<text transform="matrix(1 0 0 1 172.3975 375.252)"><tspan x="0" y="0" font-size="7">TID 3921</tspan><tspan x="-26.453" y="8.399" font-size="7">Ventricular Measurements</tspan><tspan x="-24.023" y="16.799" font-size="7">Ventricle = right ventricle</tspan></text>
		</g>
		<g>
			<g>
				<polyline fill="none" stroke="#005695" stroke-linecap="round" stroke-miterlimit="1" points="44.93,236.055 44.958,381.817 
					44.992,381.819 56.09,381.819 				"/>
				<path fill="#005695" d="M58.452,380.795c-1.653-0.5-2.728-0.96-4.054-1.492v5.045c0.475-0.227,2.401-0.993,4.054-1.492
					c1.77-0.535,3.374-0.9,4.415-1.031C61.826,381.694,60.221,381.328,58.452,380.795z"/>
			</g>
		</g>
		<g>
			<g>
				<polyline fill="none" stroke="#005695" stroke-linecap="round" stroke-miterlimit="1" points="241.78,381.714 241.808,467.163 
					241.842,467.165 258.701,467.165 				"/>
				<path fill="#005695" d="M261.062,466.141c-1.652-0.5-2.728-0.96-4.054-1.492v5.045c0.475-0.227,2.401-0.993,4.054-1.492
					c1.77-0.535,3.375-0.9,4.415-1.031C264.438,467.04,262.832,466.674,261.062,466.141z"/>
			</g>
		</g>
		
			<polygon fill="#CCDEF0" stroke="#010101" stroke-width="0.75" stroke-linecap="round" stroke-linejoin="round" stroke-miterlimit="1" points="
			62.568,381.753 94.043,368.577 125.575,382.179 125.575,382.21 94.009,395.573 		"/>
		<g>
			<path fill="none" stroke="#005695" stroke-linecap="round" stroke-miterlimit="1" d="M55.535,381.714"/>
		</g>
		<g>
			<g>
				
					<line fill="none" stroke="#005695" stroke-linecap="round" stroke-miterlimit="1" x1="126.652" y1="382.075" x2="133.978" y2="382.075"/>
				<path fill="#005695" d="M136.339,381.051c-1.653-0.5-2.728-0.96-4.054-1.492v5.045c0.475-0.227,2.401-0.993,4.054-1.492
					c1.77-0.535,3.374-0.9,4.415-1.031C139.713,381.95,138.109,381.584,136.339,381.051z"/>
			</g>
		</g>
		
			<rect x="362.496" y="368.216" fill="#B2CEE7" stroke="#010101" stroke-width="0.75" stroke-linecap="round" stroke-linejoin="round" stroke-miterlimit="1" width="90.004" height="27"/>
		<g>
			<text transform="matrix(1 0 0 1 393.1035 375.2559)"><tspan x="0" y="0" font-size="7">TID 3922</tspan><tspan x="-26.453" y="8.399" font-size="7">Ventricular Measurements</tspan><tspan x="0.775" y="16.799" font-size="7">Absolute</tspan></text>
		</g>
		
			<rect x="362.496" y="411.122" fill="#B2CEE7" stroke="#010101" stroke-width="0.75" stroke-linecap="round" stroke-linejoin="round" stroke-miterlimit="1" width="90.004" height="27"/>
		<g>
			<text transform="matrix(1 0 0 1 393.1035 418.1621)"><tspan x="0" y="0" font-size="7">TID 3923</tspan><tspan x="-26.453" y="8.4" font-size="7">Ventricular Measurements</tspan><tspan x="-11.279" y="16.801" font-size="7">BSA Normalized</tspan></text>
		</g>
		
			<rect x="362.496" y="454.03" fill="#B2CEE7" stroke="#010101" stroke-width="0.75" stroke-linecap="round" stroke-linejoin="round" stroke-miterlimit="1" width="90.004" height="27"/>
		<g>
			<text transform="matrix(1 0 0 1 393.1035 461.0703)"><tspan x="0" y="0" font-size="7">TID 3924</tspan><tspan x="-26.453" y="8.399" font-size="7">Ventricular Measurements</tspan><tspan x="-21.2" y="16.799" font-size="7">Heart Rate Normalized</tspan></text>
		</g>
		<g>
			<g>
				<polyline fill="none" stroke="#005695" stroke-linecap="round" stroke-miterlimit="1" points="231.893,381.821 231.928,381.823 
					258.147,381.823 				"/>
				<path fill="#005695" d="M260.51,380.799c-1.654-0.5-2.729-0.96-4.055-1.492v5.045c0.475-0.227,2.4-0.993,4.055-1.492
					c1.77-0.535,3.373-0.9,4.414-1.031C263.883,381.698,262.279,381.332,260.51,380.799z"/>
			</g>
		</g>
		
			<polygon fill="#CCDEF0" stroke="#010101" stroke-width="0.75" stroke-linecap="round" stroke-linejoin="round" stroke-miterlimit="1" points="
			264.172,381.757 295.647,368.581 327.179,382.183 327.179,382.214 295.613,395.577 		"/>
		<g>
			<path fill="none" stroke="#005695" stroke-linecap="round" stroke-miterlimit="1" d="M257.592,381.718"/>
		</g>
		<g>
			<g>
				
					<line fill="none" stroke="#005695" stroke-linecap="round" stroke-miterlimit="1" x1="327.104" y1="382.079" x2="354.766" y2="382.079"/>
				<path fill="#005695" d="M357.127,381.055c-1.652-0.5-2.728-0.96-4.054-1.492v5.045c0.475-0.227,2.401-0.993,4.054-1.492
					c1.77-0.535,3.375-0.9,4.415-1.031C360.502,381.954,358.896,381.588,357.127,381.055z"/>
			</g>
		</g>
		
			<polygon fill="#CCDEF0" stroke="#010101" stroke-width="0.75" stroke-linecap="round" stroke-linejoin="round" stroke-miterlimit="1" points="
			264.172,424.3 295.647,411.124 327.179,424.726 327.179,424.757 295.613,438.12 		"/>
		<g>
			<g>
				
					<line fill="none" stroke="#005695" stroke-linecap="round" stroke-miterlimit="1" x1="241.808" y1="424.261" x2="257.592" y2="424.261"/>
				<path fill="#005695" d="M259.953,423.236c-1.652-0.5-2.728-0.96-4.054-1.492v5.045c0.475-0.227,2.401-0.993,4.054-1.492
					c1.77-0.535,3.375-0.9,4.415-1.031C263.328,424.136,261.723,423.77,259.953,423.236z"/>
			</g>
		</g>
		<g>
			<g>
				
					<line fill="none" stroke="#005695" stroke-linecap="round" stroke-miterlimit="1" x1="327.104" y1="424.622" x2="354.766" y2="424.622"/>
				<path fill="#005695" d="M357.127,423.598c-1.652-0.5-2.728-0.96-4.054-1.492v5.045c0.475-0.227,2.401-0.993,4.054-1.492
					c1.77-0.535,3.375-0.9,4.415-1.031C360.502,424.497,358.896,424.131,357.127,423.598z"/>
			</g>
		</g>
		
			<polygon fill="#CCDEF0" stroke="#010101" stroke-width="0.75" stroke-linecap="round" stroke-linejoin="round" stroke-miterlimit="1" points="
			264.172,466.843 295.647,453.667 327.179,467.269 327.179,467.3 295.613,480.663 		"/>
		<g>
			<g>
				
					<line fill="none" stroke="#005695" stroke-linecap="round" stroke-miterlimit="1" x1="327.104" y1="467.165" x2="354.766" y2="467.165"/>
				<path fill="#005695" d="M357.127,466.141c-1.652-0.5-2.728-0.96-4.054-1.492v5.045c0.475-0.227,2.401-0.993,4.054-1.492
					c1.77-0.535,3.375-0.9,4.415-1.031C360.502,467.04,358.896,466.674,357.127,466.141z"/>
			</g>
		</g>
		<text transform="matrix(1 0 0 1 75.9863 384.0137)" font-size="7">CONTAINS</text>
		<text transform="matrix(1 0 0 1 277.5898 384.0176)" font-size="7">CONTAINS</text>
		<text transform="matrix(1 0 0 1 277.5898 426.5605)" font-size="7">CONTAINS</text>
		<text transform="matrix(1 0 0 1 277.5898 469.1035)" font-size="7">CONTAINS</text>
		<text transform="matrix(1 0 0 1 215.4512 123.5693)" font-size="8">0..n</text>
		<text transform="matrix(1 0 0 1 322.7295 226.3062)" font-size="8">1</text>
		<text transform="matrix(1 0 0 1 313.835 268.8496)" font-size="8">0..1</text>
		<text transform="matrix(1 0 0 1 313.835 311.3926)" font-size="8">0..1</text>
		<text transform="matrix(1 0 0 1 322.7295 372.0703)" font-size="8">1</text>
		<text transform="matrix(1 0 0 1 313.835 414.6133)" font-size="8">0..1</text>
		<text transform="matrix(1 0 0 1 313.835 457.1562)" font-size="8">0..1</text>
		<text transform="matrix(1 0 0 1 112.231 372.0654)" font-size="8">0..n</text>
		<text transform="matrix(1 0 0 1 318.335 128.9692)" font-size="8">0..1</text>
		<text transform="matrix(1 0 0 1 430.4746 128.9692)" font-size="8">0..1</text>
	</g>
</g>
</svg>
