<?xml version="1.0" encoding="utf-8"?>
<!-- $Source: /home/bbennett/pass/archive/DicomXml/docbook/part14/figures/PS3.14_D.2-1.svg,v $ -->
<!-- $Date: 2014/05/09 13:15:42 $ -->
<!-- $Revision: 1.1 $ -->

<!DOCTYPE svg PUBLIC "-//W3C//DTD SVG 1.1//EN" "http://www.w3.org/Graphics/SVG/1.1/DTD/svg11.dtd">
<svg version="1.1" id="Layer_1" xmlns="http://www.w3.org/2000/svg" xmlns:xlink="http://www.w3.org/1999/xlink" x="0px" y="0px"
	 width="502px" height="342px" viewBox="0 0 502 342" enable-background="new 0 0 502 342" xml:space="preserve">

<defs>
	<style type="text/css">
	text {
	  font-family: Helvetica, Verdana, ArialUnicodeMS, san-serif
	}
	</style>
</defs>

<g>
   <desc>
	PS 3.14 Part 14: Grayscale Standard Display Function
   </desc>
</g>

<g>
	<rect x="1" y="1" fill="#F5EED6" width="500" height="340"/>
	<g>
		<g>
			<path d="M326.975,324.533c5.267,0,9.575-4.309,9.575-9.574V27.042c0-5.266-4.309-9.575-9.575-9.575H100.917
				c-5.266,0-9.575,4.309-9.575,9.575v287.917c0,5.266,4.309,9.574,9.575,9.574H326.975z"/>
			<path fill="none" stroke="#000000" stroke-width="1.0639" d="M326.975,324.533c5.267,0,9.575-4.309,9.575-9.574V27.042
				c0-5.266-4.309-9.575-9.575-9.575H100.917c-5.266,0-9.575,4.309-9.575,9.575v287.917c0,5.266,4.309,9.574,9.575,9.574H326.975z"
				/>
		</g>
		
			<line fill="#003468" stroke="#003468" stroke-width="0.7352" stroke-miterlimit="10" x1="99.844" y1="34.137" x2="328.048" y2="34.137"/>
		
			<line fill="#003468" stroke="#003468" stroke-width="0.7352" stroke-miterlimit="10" x1="99.844" y1="43.262" x2="328.048" y2="43.262"/>
		
			<line fill="#003468" stroke="#003468" stroke-width="0.7352" stroke-miterlimit="10" x1="99.844" y1="52.385" x2="328.048" y2="52.385"/>
		
			<line fill="#003468" stroke="#003468" stroke-width="0.7352" stroke-miterlimit="10" x1="99.844" y1="61.511" x2="328.048" y2="61.511"/>
		
			<line fill="#003468" stroke="#003468" stroke-width="0.7352" stroke-miterlimit="10" x1="99.844" y1="70.635" x2="328.048" y2="70.635"/>
		
			<line fill="#003468" stroke="#003468" stroke-width="0.7352" stroke-miterlimit="10" x1="99.844" y1="79.76" x2="328.048" y2="79.76"/>
		
			<line fill="#003468" stroke="#003468" stroke-width="0.7352" stroke-miterlimit="10" x1="99.844" y1="88.884" x2="328.048" y2="88.884"/>
		
			<line fill="#003468" stroke="#003468" stroke-width="0.7352" stroke-miterlimit="10" x1="99.844" y1="98.009" x2="328.048" y2="98.009"/>
		
			<line fill="#003468" stroke="#003468" stroke-width="0.7352" stroke-miterlimit="10" x1="99.844" y1="107.134" x2="328.048" y2="107.134"/>
		
			<line fill="#003468" stroke="#003468" stroke-width="0.7352" stroke-miterlimit="10" x1="99.844" y1="116.259" x2="328.048" y2="116.259"/>
		
			<line fill="#003468" stroke="#003468" stroke-width="0.7352" stroke-miterlimit="10" x1="99.844" y1="125.383" x2="328.048" y2="125.383"/>
		
			<line fill="#003468" stroke="#003468" stroke-width="0.7352" stroke-miterlimit="10" x1="99.844" y1="134.508" x2="328.048" y2="134.508"/>
		
			<line fill="#003468" stroke="#003468" stroke-width="0.7352" stroke-miterlimit="10" x1="99.844" y1="143.634" x2="328.048" y2="143.634"/>
		
			<line fill="#003468" stroke="#003468" stroke-width="0.7352" stroke-miterlimit="10" x1="99.844" y1="152.758" x2="328.048" y2="152.758"/>
		
			<line fill="#003468" stroke="#003468" stroke-width="0.7352" stroke-miterlimit="10" x1="99.844" y1="161.884" x2="328.048" y2="161.884"/>
		
			<line fill="#003468" stroke="#003468" stroke-width="0.7352" stroke-miterlimit="10" x1="99.844" y1="171.008" x2="328.048" y2="171.008"/>
		
			<line fill="#003468" stroke="#003468" stroke-width="0.7352" stroke-miterlimit="10" x1="99.844" y1="180.133" x2="328.048" y2="180.133"/>
		
			<line fill="#003468" stroke="#003468" stroke-width="0.7352" stroke-miterlimit="10" x1="99.844" y1="189.257" x2="328.048" y2="189.257"/>
		
			<line fill="#003468" stroke="#003468" stroke-width="0.7352" stroke-miterlimit="10" x1="99.844" y1="198.38" x2="328.048" y2="198.38"/>
		
			<line fill="#003468" stroke="#003468" stroke-width="0.7352" stroke-miterlimit="10" x1="99.844" y1="207.503" x2="328.048" y2="207.503"/>
		
			<line fill="#003468" stroke="#003468" stroke-width="0.7352" stroke-miterlimit="10" x1="99.844" y1="216.626" x2="328.048" y2="216.626"/>
		
			<line fill="#003468" stroke="#003468" stroke-width="0.7352" stroke-miterlimit="10" x1="99.844" y1="225.75" x2="328.048" y2="225.75"/>
		
			<line fill="#003468" stroke="#003468" stroke-width="0.7352" stroke-miterlimit="10" x1="99.844" y1="234.874" x2="328.048" y2="234.874"/>
		
			<line fill="#003468" stroke="#003468" stroke-width="0.7352" stroke-miterlimit="10" x1="99.844" y1="243.998" x2="328.048" y2="243.998"/>
		
			<line fill="#003468" stroke="#003468" stroke-width="0.7352" stroke-miterlimit="10" x1="99.844" y1="253.121" x2="328.048" y2="253.121"/>
		
			<line fill="#003468" stroke="#003468" stroke-width="0.7352" stroke-miterlimit="10" x1="99.844" y1="262.245" x2="328.048" y2="262.245"/>
		
			<line fill="#003468" stroke="#003468" stroke-width="0.7352" stroke-miterlimit="10" x1="99.844" y1="271.369" x2="328.048" y2="271.369"/>
		
			<line fill="#003468" stroke="#003468" stroke-width="0.7352" stroke-miterlimit="10" x1="99.844" y1="280.492" x2="328.048" y2="280.492"/>
		
			<line fill="#003468" stroke="#003468" stroke-width="0.7352" stroke-miterlimit="10" x1="99.844" y1="289.615" x2="328.048" y2="289.615"/>
		
			<line fill="#003468" stroke="#003468" stroke-width="0.7352" stroke-miterlimit="10" x1="99.844" y1="298.739" x2="328.048" y2="298.739"/>
		
			<line fill="#003468" stroke="#003468" stroke-width="0.7352" stroke-miterlimit="10" x1="99.844" y1="307.863" x2="328.048" y2="307.863"/>
		
			<rect x="99.844" y="307.863" fill="#00396C" stroke="#00396C" stroke-width="0.7352" stroke-miterlimit="10" width="228.204" height="9.124"/>
		
			<rect x="99.844" y="298.738" fill="#003D70" stroke="#003D70" stroke-width="0.7352" stroke-miterlimit="10" width="228.204" height="9.125"/>
		
			<rect x="99.844" y="289.614" fill="#004173" stroke="#004173" stroke-width="0.7352" stroke-miterlimit="10" width="228.204" height="9.124"/>
		
			<rect x="99.844" y="280.49" fill="#064476" stroke="#064476" stroke-width="0.7352" stroke-miterlimit="10" width="228.204" height="9.124"/>
		
			<rect x="99.844" y="271.366" fill="#14487A" stroke="#14487A" stroke-width="0.7352" stroke-miterlimit="10" width="228.204" height="9.124"/>
		
			<rect x="99.844" y="262.241" fill="#1D4C7D" stroke="#1D4C7D" stroke-width="0.7352" stroke-miterlimit="10" width="228.204" height="9.125"/>
		
			<rect x="99.844" y="253.117" fill="#265081" stroke="#265081" stroke-width="0.7352" stroke-miterlimit="10" width="228.204" height="9.124"/>
		
			<rect x="99.844" y="243.993" fill="#2D5585" stroke="#2D5585" stroke-width="0.7352" stroke-miterlimit="10" width="228.204" height="9.124"/>
		
			<rect x="99.844" y="234.869" fill="#345988" stroke="#345988" stroke-width="0.7352" stroke-miterlimit="10" width="228.204" height="9.124"/>
		
			<rect x="99.844" y="225.744" fill="#3B5D8C" stroke="#3B5D8C" stroke-width="0.7352" stroke-miterlimit="10" width="228.204" height="9.125"/>
		
			<rect x="99.844" y="216.62" fill="#426290" stroke="#426290" stroke-width="0.7352" stroke-miterlimit="10" width="228.204" height="9.124"/>
		
			<rect x="99.844" y="207.497" fill="#486794" stroke="#486794" stroke-width="0.7352" stroke-miterlimit="10" width="228.204" height="9.123"/>
		
			<rect x="99.844" y="198.372" fill="#4F6C98" stroke="#4F6C98" stroke-width="0.7352" stroke-miterlimit="10" width="228.204" height="9.125"/>
		
			<rect x="99.844" y="189.248" fill="#56719D" stroke="#56719D" stroke-width="0.7352" stroke-miterlimit="10" width="228.204" height="9.124"/>
		
			<rect x="99.844" y="180.124" fill="#5C76A1" stroke="#5C76A1" stroke-width="0.7352" stroke-miterlimit="10" width="228.204" height="9.124"/>
		
			<rect x="99.844" y="170.999" fill="#637CA5" stroke="#637CA5" stroke-width="0.7352" stroke-miterlimit="10" width="228.204" height="9.125"/>
		
			<rect x="99.844" y="161.874" fill="#6B82AA" stroke="#6B82AA" stroke-width="0.7352" stroke-miterlimit="10" width="228.204" height="9.125"/>
		
			<rect x="99.844" y="152.747" fill="#7187AE" stroke="#7187AE" stroke-width="0.7352" stroke-miterlimit="10" width="228.204" height="9.127"/>
		
			<rect x="99.844" y="143.622" fill="#798DB3" stroke="#798DB3" stroke-width="0.7352" stroke-miterlimit="10" width="228.204" height="9.125"/>
		
			<rect x="99.844" y="134.497" fill="#8093B7" stroke="#8093B7" stroke-width="0.7352" stroke-miterlimit="10" width="228.204" height="9.125"/>
		
			<rect x="99.844" y="125.371" fill="#8799BC" stroke="#8799BC" stroke-width="0.7352" stroke-miterlimit="10" width="228.204" height="9.126"/>
		
			<rect x="99.844" y="116.245" fill="#90A0C1" stroke="#90A0C1" stroke-width="0.7352" stroke-miterlimit="10" width="228.204" height="9.126"/>
		
			<rect x="99.844" y="107.121" fill="#97A6C5" stroke="#97A6C5" stroke-width="0.7352" stroke-miterlimit="10" width="228.204" height="9.124"/>
		
			<rect x="99.844" y="97.995" fill="#A0ADCA" stroke="#A0ADCA" stroke-width="0.7352" stroke-miterlimit="10" width="228.204" height="9.126"/>
		
			<rect x="99.844" y="88.87" fill="#A9B5CF" stroke="#A9B5CF" stroke-width="0.7352" stroke-miterlimit="10" width="228.204" height="9.125"/>
		
			<rect x="99.844" y="79.745" fill="#B1BCD4" stroke="#B1BCD4" stroke-width="0.7352" stroke-miterlimit="10" width="228.204" height="9.125"/>
		
			<rect x="99.844" y="70.619" fill="#BAC4D9" stroke="#BAC4D9" stroke-width="0.7352" stroke-miterlimit="10" width="228.204" height="9.126"/>
		
			<rect x="99.844" y="61.494" fill="#C4CCDF" stroke="#C4CCDF" stroke-width="0.7352" stroke-miterlimit="10" width="228.204" height="9.125"/>
		
			<rect x="99.844" y="52.368" fill="#CDD3E4" stroke="#CDD3E4" stroke-width="0.7352" stroke-miterlimit="10" width="228.204" height="9.126"/>
		
			<rect x="99.844" y="43.244" fill="#D8DCE9" stroke="#D8DCE9" stroke-width="0.7352" stroke-miterlimit="10" width="228.204" height="9.124"/>
		
			<rect x="99.844" y="34.12" fill="#E3E6EF" stroke="#E3E6EF" stroke-width="0.7352" stroke-miterlimit="10" width="228.204" height="9.124"/>
		
			<rect x="99.844" y="24.995" fill="#EEEFF5" stroke="#EEEFF5" stroke-width="0.7352" stroke-miterlimit="10" width="228.204" height="9.125"/>
		<text transform="matrix(1 0 0 1 361.2412 31.5098)" font-size="7">Density Step 0</text>
		<text transform="matrix(1 0 0 1 361.2412 40.6338)" font-size="7">Density Step 1</text>
		<text transform="matrix(1 0 0 1 361.2412 49.7578)" font-size="7">Density Step 2</text>
		<text transform="matrix(1 0 0 1 361.2412 58.8818)" font-size="7">Density Step 3</text>
		<text transform="matrix(1 0 0 1 361.2412 68.0068)" font-size="7">Density Step 4</text>
		<text transform="matrix(1 0 0 1 361.2412 77.1309)" font-size="7">Density Step 5</text>
		<text transform="matrix(1 0 0 1 361.2412 86.2559)" font-size="7">Density Step 6</text>
		<text transform="matrix(1 0 0 1 361.2412 95.3789)" font-size="7">Density Step 7</text>
		<text transform="matrix(1 0 0 1 361.2412 104.5029)" font-size="7">Density Step 8</text>
		<text transform="matrix(1 0 0 1 361.2412 113.6279)" font-size="7">Density Step 9</text>
		<text transform="matrix(1 0 0 1 361.2412 122.752)" font-size="7">Density Step 10</text>
		<text transform="matrix(1 0 0 1 361.2412 131.877)" font-size="7">Density Step 11</text>
		<text transform="matrix(1 0 0 1 361.2412 141.002)" font-size="7">Density Step 12</text>
		<text transform="matrix(1 0 0 1 361.2412 150.126)" font-size="7">Density Step 13</text>
		<text transform="matrix(1 0 0 1 361.2412 159.25)" font-size="7">Density Step 14</text>
		<text transform="matrix(1 0 0 1 361.2412 168.375)" font-size="7">Density Step 15</text>
		<text transform="matrix(1 0 0 1 361.2412 177.499)" font-size="7">Density Step 16</text>
		<text transform="matrix(1 0 0 1 361.2412 186.623)" font-size="7">Density Step 17</text>
		<text transform="matrix(1 0 0 1 361.2412 195.7471)" font-size="7">Density Step 18</text>
		<text transform="matrix(1 0 0 1 361.2412 204.8711)" font-size="7">Density Step 19</text>
		<text transform="matrix(1 0 0 1 361.2412 213.9951)" font-size="7">Density Step 20</text>
		<text transform="matrix(1 0 0 1 361.2412 223.1201)" font-size="7">Density Step 21</text>
		<text transform="matrix(1 0 0 1 361.2412 232.2441)" font-size="7">Density Step 22</text>
		<text transform="matrix(1 0 0 1 361.2412 241.3682)" font-size="7">Density Step 23</text>
		<text transform="matrix(1 0 0 1 361.2412 250.4922)" font-size="7">Density Step 24</text>
		<text transform="matrix(1 0 0 1 361.2412 259.6172)" font-size="7">Density Step 25</text>
		<text transform="matrix(1 0 0 1 361.2412 268.7412)" font-size="7">Density Step 26</text>
		<text transform="matrix(1 0 0 1 361.2412 277.8643)" font-size="7">Density Step 27</text>
		<text transform="matrix(1 0 0 1 361.2412 286.9883)" font-size="7">Density Step 28</text>
		<text transform="matrix(1 0 0 1 361.2412 296.1123)" font-size="7">Density Step 29</text>
		<text transform="matrix(1 0 0 1 361.2412 305.2373)" font-size="7">Density Step 30</text>
		<text transform="matrix(1 0 0 1 361.2412 314.3604)" font-size="7">Density Step 31</text>
		<g>
			<g>
				
					<line fill="none" stroke="#EE2D28" stroke-width="0.5" stroke-miterlimit="10" x1="355.991" y1="29.558" x2="319.991" y2="29.558"/>
				<circle fill="#EE2D28" cx="319.991" cy="29.558" r="1.88"/>
			</g>
		</g>
		<g>
			<g>
				
					<line fill="none" stroke="#EE2D28" stroke-width="0.5" stroke-miterlimit="10" x1="355.991" y1="38.682" x2="319.991" y2="38.682"/>
				<circle fill="#EE2D28" cx="319.991" cy="38.681" r="1.88"/>
			</g>
		</g>
		<g>
			<g>
				
					<line fill="none" stroke="#EE2D28" stroke-width="0.5" stroke-miterlimit="10" x1="355.991" y1="47.806" x2="319.991" y2="47.806"/>
				<circle fill="#EE2D28" cx="319.991" cy="47.805" r="1.88"/>
			</g>
		</g>
		<g>
			<g>
				
					<line fill="none" stroke="#EE2D28" stroke-width="0.5" stroke-miterlimit="10" x1="355.991" y1="56.93" x2="319.991" y2="56.93"/>
				<circle fill="#EE2D28" cx="319.991" cy="56.929" r="1.88"/>
			</g>
		</g>
		<g>
			<g>
				
					<line fill="none" stroke="#EE2D28" stroke-width="0.5" stroke-miterlimit="10" x1="355.991" y1="66.055" x2="319.991" y2="66.055"/>
				<circle fill="#EE2D28" cx="319.991" cy="66.054" r="1.88"/>
			</g>
		</g>
		<g>
			<g>
				
					<line fill="none" stroke="#EE2D28" stroke-width="0.5" stroke-miterlimit="10" x1="355.991" y1="75.181" x2="319.991" y2="75.181"/>
				<circle fill="#EE2D28" cx="319.991" cy="75.18" r="1.88"/>
			</g>
		</g>
		<g>
			<g>
				
					<line fill="none" stroke="#EE2D28" stroke-width="0.5" stroke-miterlimit="10" x1="355.991" y1="84.306" x2="319.991" y2="84.306"/>
				<circle fill="#EE2D28" cx="319.991" cy="84.305" r="1.88"/>
			</g>
		</g>
		<g>
			<g>
				
					<line fill="none" stroke="#EE2D28" stroke-width="0.5" stroke-miterlimit="10" x1="355.991" y1="93.431" x2="319.991" y2="93.431"/>
				<circle fill="#EE2D28" cx="319.991" cy="93.43" r="1.88"/>
			</g>
		</g>
		<g>
			<g>
				
					<line fill="none" stroke="#EE2D28" stroke-width="0.5" stroke-miterlimit="10" x1="355.991" y1="102.556" x2="319.991" y2="102.556"/>
				<circle fill="#EE2D28" cx="319.991" cy="102.555" r="1.88"/>
			</g>
		</g>
		<g>
			<g>
				
					<line fill="none" stroke="#EE2D28" stroke-width="0.5" stroke-miterlimit="10" x1="355.991" y1="111.682" x2="319.991" y2="111.682"/>
				<circle fill="#EE2D28" cx="319.991" cy="111.681" r="1.88"/>
			</g>
		</g>
		<g>
			<g>
				
					<line fill="none" stroke="#EE2D28" stroke-width="0.5" stroke-miterlimit="10" x1="355.991" y1="120.807" x2="319.991" y2="120.807"/>
				<circle fill="#EE2D28" cx="319.991" cy="120.806" r="1.88"/>
			</g>
		</g>
		<g>
			<g>
				
					<line fill="none" stroke="#EE2D28" stroke-width="0.5" stroke-miterlimit="10" x1="355.991" y1="129.932" x2="319.991" y2="129.932"/>
				<circle fill="#EE2D28" cx="319.991" cy="129.931" r="1.88"/>
			</g>
		</g>
		<g>
			<g>
				
					<line fill="none" stroke="#EE2D28" stroke-width="0.5" stroke-miterlimit="10" x1="355.991" y1="139.057" x2="319.991" y2="139.057"/>
				<circle fill="#EE2D28" cx="319.991" cy="139.056" r="1.88"/>
			</g>
		</g>
		<g>
			<g>
				
					<line fill="none" stroke="#EE2D28" stroke-width="0.5" stroke-miterlimit="10" x1="355.991" y1="148.183" x2="319.991" y2="148.183"/>
				<circle fill="#EE2D28" cx="319.991" cy="148.182" r="1.88"/>
			</g>
		</g>
		<g>
			<g>
				
					<line fill="none" stroke="#EE2D28" stroke-width="0.5" stroke-miterlimit="10" x1="355.991" y1="157.308" x2="319.991" y2="157.308"/>
				<circle fill="#EE2D28" cx="319.991" cy="157.307" r="1.88"/>
			</g>
		</g>
		<g>
			<g>
				
					<line fill="none" stroke="#EE2D28" stroke-width="0.5" stroke-miterlimit="10" x1="355.991" y1="166.433" x2="319.991" y2="166.433"/>
				<circle fill="#EE2D28" cx="319.991" cy="166.432" r="1.88"/>
			</g>
		</g>
		<g>
			<g>
				
					<line fill="none" stroke="#EE2D28" stroke-width="0.5" stroke-miterlimit="10" x1="355.991" y1="175.558" x2="319.991" y2="175.558"/>
				<circle fill="#EE2D28" cx="319.991" cy="175.558" r="1.88"/>
			</g>
		</g>
		<g>
			<g>
				
					<line fill="none" stroke="#EE2D28" stroke-width="0.5" stroke-miterlimit="10" x1="355.991" y1="184.683" x2="319.991" y2="184.683"/>
				<circle fill="#EE2D28" cx="319.991" cy="184.683" r="1.88"/>
			</g>
		</g>
		<g>
			<g>
				
					<line fill="none" stroke="#EE2D28" stroke-width="0.5" stroke-miterlimit="10" x1="355.991" y1="193.807" x2="319.991" y2="193.807"/>
				<circle fill="#EE2D28" cx="319.991" cy="193.807" r="1.88"/>
			</g>
		</g>
		<g>
			<g>
				
					<line fill="none" stroke="#EE2D28" stroke-width="0.5" stroke-miterlimit="10" x1="355.991" y1="202.931" x2="319.991" y2="202.931"/>
				<circle fill="#EE2D28" cx="319.991" cy="202.931" r="1.88"/>
			</g>
		</g>
		<g>
			<g>
				
					<line fill="none" stroke="#EE2D28" stroke-width="0.5" stroke-miterlimit="10" x1="355.991" y1="212.055" x2="319.991" y2="212.055"/>
				<circle fill="#EE2D28" cx="319.991" cy="212.055" r="1.88"/>
			</g>
		</g>
		<g>
			<g>
				
					<line fill="none" stroke="#EE2D28" stroke-width="0.5" stroke-miterlimit="10" x1="355.991" y1="221.179" x2="319.991" y2="221.179"/>
				<circle fill="#EE2D28" cx="319.991" cy="221.179" r="1.88"/>
			</g>
		</g>
		<g>
			<g>
				
					<line fill="none" stroke="#EE2D28" stroke-width="0.5" stroke-miterlimit="10" x1="355.991" y1="230.303" x2="319.991" y2="230.303"/>
				<circle fill="#EE2D28" cx="319.991" cy="230.303" r="1.88"/>
			</g>
		</g>
		<g>
			<g>
				
					<line fill="none" stroke="#EE2D28" stroke-width="0.5" stroke-miterlimit="10" x1="355.991" y1="239.427" x2="319.991" y2="239.427"/>
				<circle fill="#EE2D28" cx="319.991" cy="239.427" r="1.88"/>
			</g>
		</g>
		<g>
			<g>
				
					<line fill="none" stroke="#EE2D28" stroke-width="0.5" stroke-miterlimit="10" x1="355.991" y1="248.551" x2="319.991" y2="248.551"/>
				<circle fill="#EE2D28" cx="319.991" cy="248.551" r="1.88"/>
			</g>
		</g>
		<g>
			<g>
				
					<line fill="none" stroke="#EE2D28" stroke-width="0.5" stroke-miterlimit="10" x1="355.991" y1="257.675" x2="319.991" y2="257.675"/>
				<circle fill="#EE2D28" cx="319.991" cy="257.675" r="1.88"/>
			</g>
		</g>
		<g>
			<g>
				
					<line fill="none" stroke="#EE2D28" stroke-width="0.5" stroke-miterlimit="10" x1="355.991" y1="266.799" x2="319.991" y2="266.799"/>
				<circle fill="#EE2D28" cx="319.991" cy="266.799" r="1.88"/>
			</g>
		</g>
		<g>
			<g>
				
					<line fill="none" stroke="#EE2D28" stroke-width="0.5" stroke-miterlimit="10" x1="355.991" y1="275.923" x2="319.991" y2="275.923"/>
				<circle fill="#EE2D28" cx="319.991" cy="275.923" r="1.88"/>
			</g>
		</g>
		<g>
			<g>
				
					<line fill="none" stroke="#EE2D28" stroke-width="0.5" stroke-miterlimit="10" x1="355.991" y1="285.047" x2="319.991" y2="285.047"/>
				<circle fill="#EE2D28" cx="319.991" cy="285.047" r="1.88"/>
			</g>
		</g>
		<g>
			<g>
				
					<line fill="none" stroke="#EE2D28" stroke-width="0.5" stroke-miterlimit="10" x1="355.991" y1="294.171" x2="319.991" y2="294.171"/>
				<circle fill="#EE2D28" cx="319.991" cy="294.171" r="1.88"/>
			</g>
		</g>
		<g>
			<g>
				
					<line fill="none" stroke="#EE2D28" stroke-width="0.5" stroke-miterlimit="10" x1="355.991" y1="303.295" x2="319.991" y2="303.295"/>
				<circle fill="#EE2D28" cx="319.991" cy="303.295" r="1.88"/>
			</g>
		</g>
		<g>
			<g>
				
					<line fill="none" stroke="#EE2D28" stroke-width="0.5" stroke-miterlimit="10" x1="355.991" y1="312.419" x2="319.991" y2="312.419"/>
				<circle fill="#EE2D28" cx="319.991" cy="312.419" r="1.88"/>
			</g>
		</g>
	</g>
</g>
</svg>
