<?xml version="1.0" encoding="utf-8"?>
<!-- $Source: /home/bbennett/pass/archive/DicomXml/docbook/part14/figures/PS3.14_6-1.svg,v $ -->
<!-- $Date: 2014/05/09 13:15:42 $ -->
<!-- $Revision: 1.1 $ -->

<!DOCTYPE svg PUBLIC "-//W3C//DTD SVG 1.1//EN" "http://www.w3.org/Graphics/SVG/1.1/DTD/svg11.dtd">
<svg version="1.1" id="Layer_1" xmlns="http://www.w3.org/2000/svg" xmlns:xlink="http://www.w3.org/1999/xlink" x="0px" y="0px"
	 width="502px" height="172px" viewBox="0 0 502 172" enable-background="new 0 0 502 172" xml:space="preserve">

<defs>
	<style type="text/css">
	text {
	  font-family: Helvetica, Verdana, ArialUnicodeMS, san-serif
	}
	</style>
</defs>

<g>
   <desc>
	PS 3.14 Part 14: Grayscale Standard Display Function
   </desc>
</g>

<g>
	<rect x="1" y="1" fill="#F5EED6" width="500" height="170"/>
	<g>
		<g>
			<g>
				<g>
					<g>
						
							<line fill="none" stroke="#005695" stroke-width="2" stroke-miterlimit="1" x1="93.173" y1="86.005" x2="112.457" y2="86.005"/>
						<g>
							<polygon fill="#005695" points="110.079,89.492 123.088,86.005 110.079,82.519 							"/>
						</g>
					</g>
				</g>
			</g>
		</g>
		<g>
			<g>
				<g>
					<g>
						
							<line fill="none" stroke="#005695" stroke-width="2" stroke-miterlimit="1" x1="184.397" y1="86.005" x2="201.67" y2="86.005"/>
						<g>
							<polygon fill="#005695" points="199.293,89.492 212.302,86.005 199.293,82.519 							"/>
						</g>
					</g>
				</g>
			</g>
		</g>
		<g>
			<g>
				<g>
					<g>
						
							<line fill="none" stroke="#005695" stroke-width="2" stroke-miterlimit="1" x1="275.307" y1="86.005" x2="291.698" y2="86.005"/>
						<g>
							<polygon fill="#005695" points="289.32,89.492 302.329,86.005 289.32,82.519 							"/>
						</g>
					</g>
				</g>
			</g>
		</g>
		<g>
			<g>
				<g>
					<g>
						
							<line fill="none" stroke="#005695" stroke-width="2" stroke-miterlimit="1" x1="366.207" y1="86.005" x2="397.875" y2="86.005"/>
						<g>
							<polygon fill="#005695" points="395.497,89.492 408.506,86.005 395.497,82.519 							"/>
						</g>
					</g>
				</g>
			</g>
		</g>
		
			<rect x="408.506" y="63.503" fill="#B2CEE7" stroke="#010101" stroke-width="0.5929" stroke-linecap="round" stroke-linejoin="round" stroke-miterlimit="1" width="63" height="45.003"/>
		<g>
			<text transform="matrix(1 0 0 1 410.5322 78.5225)"><tspan x="0" y="0" font-size="10">Standardized</tspan><tspan x="13.071" y="9.333" font-size="10">Display</tspan><tspan x="12.796" y="18.667" font-size="10">System</tspan></text>
		</g>
		
			<rect x="121.396" y="63.503" fill="#CCDEF0" stroke="#010101" stroke-width="0.9057" stroke-linecap="round" stroke-linejoin="round" stroke-miterlimit="1" width="63.001" height="45.003"/>
		<g>
			<text transform="matrix(1 0 0 1 137.6104 78.5225)"><tspan x="0" y="0" font-size="10">Values</tspan><tspan x="11.118" y="9.333" font-size="10">of</tspan><tspan x="-1.387" y="18.667" font-size="10">Interest</tspan></text>
		</g>
		
			<rect x="212.302" y="63.503" fill="#CCDEF0" stroke="#010101" stroke-width="0.9057" stroke-linecap="round" stroke-linejoin="round" stroke-miterlimit="1" width="63.005" height="45.003"/>
		<g>
			<text transform="matrix(1 0 0 1 227.1274 89.0557)" font-size="10">Polarity</text>
		</g>
		<g>
			<text transform="matrix(1 0 0 1 179.5674 25.1509)" font-size="11">DICOM</text>
		</g>
		<g>
			<text transform="matrix(1 0 0 1 424.7119 25.1509)"><tspan x="0" y="0" font-size="11">Image</tspan><tspan x="-15.595" y="10.533" font-size="11">Presentation</tspan></text>
		</g>
		
			<rect x="303.207" y="63.503" fill="#CCDEF0" stroke="#010101" stroke-width="0.9057" stroke-linecap="round" stroke-linejoin="round" stroke-miterlimit="1" width="63" height="45.003"/>
		<g>
			<text transform="matrix(1 0 0 1 306.627 89.0557)"><tspan x="0" y="0" font-size="10">Presentation</tspan><tspan x="18.627" y="9.333" font-size="10">LUT</tspan></text>
		</g>
		
			<rect x="30.495" y="63.503" fill="#CCDEF0" stroke="#010101" stroke-width="0.9057" stroke-linecap="round" stroke-linejoin="round" stroke-miterlimit="1" width="63" height="45.003"/>
		<g>
			<text transform="matrix(1 0 0 1 43.3789 89.0557)" font-size="10">Modality</text>
		</g>
		<rect x="30.495" y="128.669" fill="none" width="212.911" height="27.93"/>
		<text transform="matrix(1 0 0 1 30.4976 134.3838)"><tspan x="0" y="0" font-size="8">Note: The Presentation LUT may be an identity function if, </tspan><tspan x="0" y="9.601" font-size="8">for example, the Polarity is unchanged and the Values of </tspan><tspan x="0" y="19.2" font-size="8">Interest transformation outputs P-Values.</tspan></text>
		
			<line fill="#4F8ABE" stroke="#005695" stroke-width="2" stroke-linecap="round" stroke-miterlimit="1" stroke-dasharray="2,4" x1="387.357" y1="156.601" x2="387.357" y2="15.403"/>
	</g>
</g>
</svg>
