<?xml version="1.0" encoding="utf-8"?>
<!-- $Source: /home/bbennett/pass/archive/DicomXml/docbook/part14/figures/PS3.14_C-1.svg,v $ -->
<!-- $Date: 2014/05/09 13:15:42 $ -->
<!-- $Revision: 1.1 $ -->

<!DOCTYPE svg PUBLIC "-//W3C//DTD SVG 1.1//EN" "http://www.w3.org/Graphics/SVG/1.1/DTD/svg11.dtd">
<svg version="1.1" id="Layer_1" xmlns="http://www.w3.org/2000/svg" xmlns:xlink="http://www.w3.org/1999/xlink" x="0px" y="0px"
	 width="502px" height="397px" viewBox="0 0 502 397" enable-background="new 0 0 502 397" xml:space="preserve">

<defs>
	<style type="text/css">
	text {
	  font-family: Helvetica, Verdana, ArialUnicodeMS, san-serif
	}
	</style>
</defs>

<g>
   <desc>
	PS 3.14 Part 14: Grayscale Standard Display Function
   </desc>
</g>

<g>
	<rect x="1" y="1" fill="#F5EED6" width="500" height="395"/>
	<g>
		<g>
			<text transform="matrix(1 0 0 1 161.0381 376.6621)" font-size="12">I, INDEX OF LUMINANCE INTERVAL</text>
		</g>
		<g>
			<text transform="matrix(0 -1 1 0 72.8838 280.7119)" font-size="12">N, JNDs/LUMINANCE INTERVAL</text>
		</g>
		<g>
			<text transform="matrix(1 0 0 1 104.6787 359.5908)" font-size="11">0</text>
		</g>
		<g>
			<text transform="matrix(1 0 0 1 182.1006 359.5908)" font-size="11">64</text>
		</g>
		<g>
			<text transform="matrix(1 0 0 1 259.8711 359.5908)" font-size="11">128</text>
		</g>
		<g>
			<text transform="matrix(1 0 0 1 340.1367 359.5908)" font-size="11">192</text>
		</g>
		<g>
			<text transform="matrix(1 0 0 1 421.4004 359.5908)" font-size="11">256</text>
		</g>
		<g>
			<text transform="matrix(1 0 0 1 95.0386 349.3193)" font-size="11">0</text>
		</g>
		<g>
			<text transform="matrix(1 0 0 1 88.3667 308.5986)" font-size="11">0.5</text>
		</g>
		<g>
			<text transform="matrix(1 0 0 1 95.0386 268.249)" font-size="11">1</text>
		</g>
		<g>
			<text transform="matrix(1 0 0 1 88.3667 227.8994)" font-size="11">1.5</text>
		</g>
		<g>
			<text transform="matrix(1 0 0 1 95.0386 187.5454)" font-size="11">2</text>
		</g>
		<g>
			<text transform="matrix(1 0 0 1 88.3667 147.1904)" font-size="11">2.5</text>
		</g>
		<g>
			<text transform="matrix(1 0 0 1 95.0386 106.8354)" font-size="11">3</text>
		</g>
		<g>
			<text transform="matrix(1 0 0 1 88.3667 66.4839)" font-size="11">3.5</text>
		</g>
		<g>
			<text transform="matrix(1 0 0 1 95.0386 26.1343)" font-size="11">4</text>
		</g>
		<polyline fill="#CCDEF0" stroke="#000000" points="106.839,346.916 106.839,22.899 427.908,22.899 427.908,346.916 
			106.839,346.916 		"/>
		<line fill="none" stroke="#939598" stroke-linejoin="round" x1="187.106" y1="346.916" x2="187.106" y2="22.899"/>
		<line fill="none" stroke="#939598" stroke-linejoin="round" x1="267.379" y1="346.916" x2="267.379" y2="22.899"/>
		<line fill="none" stroke="#939598" stroke-linejoin="round" x1="347.645" y1="346.916" x2="347.645" y2="22.899"/>
		<polyline fill="none" stroke="#939598" stroke-linejoin="round" points="427.908,265.898 424.436,265.898 110.236,265.898 
			106.839,265.898 		"/>
		<polyline fill="none" stroke="#939598" stroke-linejoin="round" points="427.908,225.394 424.436,225.394 110.236,225.394 
			106.839,225.394 		"/>
		<polyline fill="none" stroke="#939598" stroke-linejoin="round" points="427.908,306.094 424.436,306.094 110.236,306.094 
			106.839,306.094 		"/>
		<polyline fill="none" stroke="#939598" stroke-linejoin="round" points="427.908,184.876 424.436,184.876 110.236,184.876 
			106.839,184.876 		"/>
		<polyline fill="none" stroke="#939598" stroke-linejoin="round" points="427.908,144.686 424.436,144.686 110.236,144.686 
			106.839,144.686 		"/>
		<polyline fill="none" stroke="#939598" stroke-linejoin="round" points="427.908,103.848 424.436,103.848 110.236,103.848 
			106.839,103.848 		"/>
		<polyline fill="none" stroke="#939598" stroke-linejoin="round" points="427.908,63.979 424.436,63.979 110.236,63.979 
			106.839,63.979 		"/>
		<g>
			<g>
				<polygon fill="none" stroke="#2E3192" stroke-width="0.5" points="108.046,127.789 110.764,124.41 108.046,121.031 
					105.33,124.41 				"/>
			</g>
			<g>
				<polygon fill="none" stroke="#2E3192" stroke-width="0.5" points="109.33,143.967 112.048,140.587 109.33,137.207 
					106.613,140.587 				"/>
			</g>
			<g>
				<polygon fill="none" stroke="#2E3192" stroke-width="0.5" points="110.538,141.378 113.254,137.999 110.538,134.62 
					107.819,137.999 				"/>
			</g>
			<g>
				<polygon fill="none" stroke="#2E3192" stroke-width="0.5" points="111.821,132.751 114.537,129.37 111.821,125.991 
					109.104,129.37 				"/>
			</g>
			<g>
				<polygon fill="none" stroke="#2E3192" stroke-width="0.5" points="113.104,115.71 115.819,112.331 113.104,108.953 
					110.386,112.331 				"/>
			</g>
			<g>
				<polygon fill="none" stroke="#2E3192" stroke-width="0.5" points="114.312,144.326 117.027,140.947 114.312,137.568 
					111.595,140.947 				"/>
			</g>
			<g>
				<polygon fill="none" stroke="#2E3192" stroke-width="0.5" points="115.594,158.273 118.312,154.895 115.594,151.517 
					112.877,154.895 				"/>
			</g>
			<g>
				<polygon fill="none" stroke="#2E3192" stroke-width="0.5" points="116.801,133.83 119.52,130.45 116.801,127.07 114.085,130.45 
									"/>
			</g>
			<g>
				<polygon fill="none" stroke="#2E3192" stroke-width="0.5" points="118.084,120.815 120.802,117.437 118.084,114.057 
					115.367,117.437 				"/>
			</g>
			<g>
				<polygon fill="none" stroke="#2E3192" stroke-width="0.5" points="119.367,145.693 122.085,142.312 119.367,138.934 
					116.65,142.312 				"/>
			</g>
			<g>
				<polygon fill="none" stroke="#2E3192" stroke-width="0.5" points="120.575,151.301 123.291,147.921 120.575,144.54 
					117.857,147.921 				"/>
			</g>
			<g>
				<polygon fill="none" stroke="#2E3192" stroke-width="0.5" points="121.858,87.526 124.575,84.149 121.858,80.771 
					119.141,84.149 				"/>
			</g>
			<g>
				<polygon fill="none" stroke="#2E3192" stroke-width="0.5" points="123.142,139.438 125.858,136.058 123.142,132.679 
					120.424,136.058 				"/>
			</g>
			<g>
				<polygon fill="none" stroke="#2E3192" stroke-width="0.5" points="124.349,154.753 127.065,151.372 124.349,147.992 
					121.633,151.372 				"/>
			</g>
			<g>
				<polygon fill="none" stroke="#2E3192" stroke-width="0.5" points="125.632,157.267 128.349,153.89 125.632,150.509 
					122.916,153.89 				"/>
			</g>
			<g>
				<polygon fill="none" stroke="#2E3192" stroke-width="0.5" points="126.839,114.201 129.557,110.821 126.839,107.442 
					124.122,110.821 				"/>
			</g>
			<g>
				<polygon fill="none" stroke="#2E3192" stroke-width="0.5" points="128.122,111.109 130.84,107.729 128.122,104.351 
					125.406,107.729 				"/>
			</g>
			<g>
				<polygon fill="none" stroke="#2E3192" stroke-width="0.5" points="129.404,152.811 132.122,149.431 129.404,146.051 
					126.688,149.431 				"/>
			</g>
			<g>
				<polygon fill="none" stroke="#2E3192" stroke-width="0.5" points="130.614,139.581 133.33,136.202 130.614,132.822 
					127.896,136.202 				"/>
			</g>
			<g>
				<polygon fill="none" stroke="#2E3192" stroke-width="0.5" points="131.896,143.247 134.612,139.868 131.896,136.488 
					129.178,139.868 				"/>
			</g>
			<g>
				<polygon fill="none" stroke="#2E3192" stroke-width="0.5" points="133.104,104.927 135.82,101.548 133.104,98.167 
					130.387,101.548 				"/>
			</g>
			<g>
				<polygon fill="none" stroke="#2E3192" stroke-width="0.5" points="134.386,173.733 137.103,170.353 134.386,166.974 
					131.67,170.353 				"/>
			</g>
			<g>
				<polygon fill="none" stroke="#2E3192" stroke-width="0.5" points="135.67,96.084 138.386,92.703 135.67,89.324 132.953,92.703 
									"/>
			</g>
			<g>
				<polygon fill="none" stroke="#2E3192" stroke-width="0.5" points="136.876,187.393 139.594,184.014 136.876,180.635 
					134.16,184.014 				"/>
			</g>
			<g>
				<polygon fill="none" stroke="#2E3192" stroke-width="0.5" points="138.159,111.54 140.878,108.162 138.159,104.782 
					135.443,108.162 				"/>
			</g>
			<g>
				<polygon fill="none" stroke="#2E3192" stroke-width="0.5" points="139.442,130.234 142.161,126.854 139.442,123.478 
					136.727,126.854 				"/>
			</g>
			<g>
				<polygon fill="none" stroke="#2E3192" stroke-width="0.5" points="140.651,147.058 143.367,143.678 140.651,140.301 
					137.934,143.678 				"/>
			</g>
			<g>
				<polygon fill="none" stroke="#2E3192" stroke-width="0.5" points="141.935,116.357 144.65,112.979 141.935,109.6 
					139.217,112.979 				"/>
			</g>
			<g>
				<polygon fill="none" stroke="#2E3192" stroke-width="0.5" points="143.142,142.745 145.857,139.365 143.142,135.986 
					140.425,139.365 				"/>
			</g>
			<g>
				<polygon fill="none" stroke="#2E3192" stroke-width="0.5" points="144.425,96.441 147.141,93.062 144.425,89.685 
					141.707,93.062 				"/>
			</g>
			<g>
				<polygon fill="none" stroke="#2E3192" stroke-width="0.5" points="145.707,189.766 148.424,186.386 145.707,183.007 
					142.991,186.386 				"/>
			</g>
			<g>
				<polygon fill="none" stroke="#2E3192" stroke-width="0.5" points="146.914,79.619 149.633,76.24 146.914,72.862 144.198,76.24 
									"/>
			</g>
			<g>
				<polygon fill="none" stroke="#2E3192" stroke-width="0.5" points="148.197,157.052 150.915,153.674 148.197,150.293 
					145.48,153.674 				"/>
			</g>
			<g>
				<polygon fill="none" stroke="#2E3192" stroke-width="0.5" points="149.406,160.072 152.123,156.692 149.406,153.312 
					146.688,156.692 				"/>
			</g>
			<g>
				<polygon fill="none" stroke="#2E3192" stroke-width="0.5" points="150.688,79.764 153.405,76.384 150.688,73.006 
					147.971,76.384 				"/>
			</g>
			<g>
				<polygon fill="none" stroke="#2E3192" stroke-width="0.5" points="151.972,174.812 154.688,171.432 151.972,168.053 
					149.254,171.432 				"/>
			</g>
			<g>
				<polygon fill="none" stroke="#2E3192" stroke-width="0.5" points="153.179,103.848 155.895,100.468 153.179,97.089 
					150.461,100.468 				"/>
			</g>
			<g>
				<polygon fill="none" stroke="#2E3192" stroke-width="0.5" points="154.462,133.757 157.178,130.379 154.462,126.998 
					151.745,130.379 				"/>
			</g>
			<g>
				<polygon fill="none" stroke="#2E3192" stroke-width="0.5" points="155.745,200.909 158.462,197.53 155.745,194.15 
					153.027,197.53 				"/>
			</g>
			<g>
				<polygon fill="none" stroke="#2E3192" stroke-width="0.5" points="156.952,95.723 159.67,92.343 156.952,88.966 154.236,92.343 
									"/>
			</g>
			<g>
				<polygon fill="none" stroke="#2E3192" stroke-width="0.5" points="158.235,146.34 160.953,142.959 158.235,139.581 
					155.52,142.959 				"/>
			</g>
			<g>
				<polygon fill="none" stroke="#2E3192" stroke-width="0.5" points="159.444,138.07 162.16,134.692 159.444,131.313 
					156.726,134.692 				"/>
			</g>
			<g>
				<polygon fill="none" stroke="#2E3192" stroke-width="0.5" points="160.727,82.854 163.443,79.476 160.727,76.098 
					158.009,79.476 				"/>
			</g>
			<g>
				<polygon fill="none" stroke="#2E3192" stroke-width="0.5" points="162.01,153.099 164.726,149.718 162.01,146.34 
					159.291,149.718 				"/>
			</g>
			<g>
				<polygon fill="none" stroke="#2E3192" stroke-width="0.5" points="163.217,143.967 165.934,140.587 163.217,137.207 
					160.499,140.587 				"/>
			</g>
			<g>
				<polygon fill="none" stroke="#2E3192" stroke-width="0.5" points="164.5,148.065 167.216,144.686 164.5,141.306 
					161.782,144.686 				"/>
			</g>
			<g>
				<polygon fill="none" stroke="#2E3192" stroke-width="0.5" points="165.783,158.273 168.499,154.895 165.783,151.517 
					163.065,154.895 				"/>
			</g>
			<g>
				<polygon fill="none" stroke="#2E3192" stroke-width="0.5" points="166.989,161.798 169.708,158.418 166.989,155.038 
					164.273,158.418 				"/>
			</g>
			<g>
				<polygon fill="none" stroke="#2E3192" stroke-width="0.5" points="168.272,81.345 170.991,77.966 168.272,74.588 
					165.557,77.966 				"/>
			</g>
			<g>
				<polygon fill="none" stroke="#2E3192" stroke-width="0.5" points="169.48,113.193 172.198,109.816 169.48,106.437 
					166.764,109.816 				"/>
			</g>
			<g>
				<polygon fill="none" stroke="#2E3192" stroke-width="0.5" points="170.765,197.818 173.481,194.438 170.765,191.06 
					168.047,194.438 				"/>
			</g>
			<g>
				<polygon fill="none" stroke="#2E3192" stroke-width="0.5" points="172.047,87.096 174.766,83.717 172.047,80.338 169.33,83.717 
									"/>
			</g>
			<g>
				<polygon fill="none" stroke="#2E3192" stroke-width="0.5" points="173.255,183.87 175.972,180.49 173.255,177.111 
					170.537,180.49 				"/>
			</g>
			<g>
				<polygon fill="none" stroke="#2E3192" stroke-width="0.5" points="174.539,139.796 177.255,136.416 174.539,133.039 
					171.821,136.416 				"/>
			</g>
			<g>
				<polygon fill="none" stroke="#2E3192" stroke-width="0.5" points="175.745,104.782 178.464,101.402 175.745,98.023 
					173.029,101.402 				"/>
			</g>
			<g>
				<polygon fill="none" stroke="#2E3192" stroke-width="0.5" points="177.029,161.15 179.748,157.771 177.029,154.392 
					174.312,157.771 				"/>
			</g>
			<g>
				<polygon fill="none" stroke="#2E3192" stroke-width="0.5" points="178.312,149.215 181.03,145.837 178.312,142.457 
					175.595,145.837 				"/>
			</g>
			<g>
				<polygon fill="none" stroke="#2E3192" stroke-width="0.5" points="179.52,142.097 182.238,138.719 179.52,135.34 
					176.803,138.719 				"/>
			</g>
			<g>
				<polygon fill="none" stroke="#2E3192" stroke-width="0.5" points="180.802,46.622 183.521,43.245 180.802,39.866 
					178.085,43.245 				"/>
			</g>
			<g>
				<polygon fill="none" stroke="#2E3192" stroke-width="0.5" points="182.087,155.901 184.804,152.521 182.087,149.145 
					179.369,152.521 				"/>
			</g>
			<g>
				<polygon fill="none" stroke="#2E3192" stroke-width="0.5" points="183.294,162.014 186.01,158.634 183.294,155.255 
					180.576,158.634 				"/>
			</g>
			<g>
				<polygon fill="none" stroke="#2E3192" stroke-width="0.5" points="184.577,88.894 187.294,85.515 184.577,82.136 
					181.859,85.515 				"/>
			</g>
			<g>
				<polygon fill="none" stroke="#2E3192" stroke-width="0.5" points="185.785,198.248 188.502,194.871 185.785,191.491 
					183.068,194.871 				"/>
			</g>
			<g>
				<polygon fill="none" stroke="#2E3192" stroke-width="0.5" points="187.068,120.888 189.786,117.509 187.068,114.128 
					184.352,117.509 				"/>
			</g>
			<g>
				<polygon fill="none" stroke="#2E3192" stroke-width="0.5" points="188.351,87.671 191.069,84.291 188.351,80.914 
					185.635,84.291 				"/>
			</g>
			<g>
				<polygon fill="none" stroke="#2E3192" stroke-width="0.5" points="189.559,140.012 192.276,136.633 189.559,133.253 
					186.841,136.633 				"/>
			</g>
			<g>
				<polygon fill="none" stroke="#2E3192" stroke-width="0.5" points="190.842,136.56 193.56,133.182 190.842,129.803 
					188.125,133.182 				"/>
			</g>
			<g>
				<polygon fill="none" stroke="#2E3192" stroke-width="0.5" points="192.05,180.706 194.767,177.326 192.05,173.949 
					189.332,177.326 				"/>
			</g>
			<g>
				<polygon fill="none" stroke="#2E3192" stroke-width="0.5" points="193.334,71.496 196.05,68.118 193.334,64.739 190.615,68.118 
									"/>
			</g>
			<g>
				<polygon fill="none" stroke="#2E3192" stroke-width="0.5" points="194.617,154.967 197.333,151.588 194.617,148.209 
					191.897,151.588 				"/>
			</g>
			<g>
				<polygon fill="none" stroke="#2E3192" stroke-width="0.5" points="195.824,156.405 198.542,153.027 195.824,149.646 
					193.108,153.027 				"/>
			</g>
			<g>
				<polygon fill="none" stroke="#2E3192" stroke-width="0.5" points="197.106,163.81 199.824,160.432 197.106,157.052 
					194.39,160.432 				"/>
			</g>
			<g>
				<polygon fill="none" stroke="#2E3192" stroke-width="0.5" points="198.39,81.776 201.109,78.398 198.39,75.019 195.673,78.398 
									"/>
			</g>
			<g>
				<polygon fill="none" stroke="#2E3192" stroke-width="0.5" points="199.597,183.797 202.315,180.42 199.597,177.04 
					196.881,180.42 				"/>
			</g>
			<g>
				<polygon fill="none" stroke="#2E3192" stroke-width="0.5" points="200.881,132.391 203.6,129.012 200.881,125.634 
					198.164,129.012 				"/>
			</g>
			<g>
				<polygon fill="none" stroke="#2E3192" stroke-width="0.5" points="202.089,138.431 204.806,135.051 202.089,131.672 
					199.37,135.051 				"/>
			</g>
			<g>
				<polygon fill="none" stroke="#2E3192" stroke-width="0.5" points="203.373,104.208 206.089,100.828 203.373,97.449 
					200.655,100.828 				"/>
			</g>
			<g>
				<polygon fill="none" stroke="#2E3192" stroke-width="0.5" points="204.656,151.658 207.373,148.281 204.656,144.902 
					201.938,148.281 				"/>
			</g>
			<g>
				<polygon fill="none" stroke="#2E3192" stroke-width="0.5" points="205.863,145.693 208.58,142.312 205.863,138.934 
					203.146,142.312 				"/>
			</g>
			<g>
				<polygon fill="none" stroke="#2E3192" stroke-width="0.5" points="207.147,98.6 209.864,95.221 207.147,91.841 204.43,95.221 
									"/>
			</g>
			<g>
				<polygon fill="none" stroke="#2E3192" stroke-width="0.5" points="208.353,166.901 211.072,163.523 208.353,160.145 
					205.637,163.523 				"/>
			</g>
			<g>
				<polygon fill="none" stroke="#2E3192" stroke-width="0.5" points="209.636,159.784 212.355,156.405 209.636,153.027 
					206.92,156.405 				"/>
			</g>
			<g>
				<polygon fill="none" stroke="#2E3192" stroke-width="0.5" points="210.92,71.712 213.638,68.333 210.92,64.955 208.203,68.333 
									"/>
			</g>
			<g>
				<polygon fill="none" stroke="#2E3192" stroke-width="0.5" points="212.129,172.366 214.846,168.988 212.129,165.607 
					209.411,168.988 				"/>
			</g>
			<g>
				<polygon fill="none" stroke="#2E3192" stroke-width="0.5" points="213.411,95.795 216.128,92.415 213.411,89.037 
					210.693,92.415 				"/>
			</g>
			<g>
				<polygon fill="none" stroke="#2E3192" stroke-width="0.5" points="214.695,194.871 217.412,191.491 214.695,188.112 
					211.977,191.491 				"/>
			</g>
			<g>
				<polygon fill="none" stroke="#2E3192" stroke-width="0.5" points="215.902,74.947 218.619,71.567 215.902,68.189 
					213.186,71.567 				"/>
			</g>
			<g>
				<polygon fill="none" stroke="#2E3192" stroke-width="0.5" points="217.185,198.034 219.902,194.654 217.185,191.275 
					214.469,194.654 				"/>
			</g>
			<g>
				<polygon fill="none" stroke="#2E3192" stroke-width="0.5" points="218.393,112.835 221.11,109.456 218.393,106.076 
					215.675,109.456 				"/>
			</g>
			<g>
				<polygon fill="none" stroke="#2E3192" stroke-width="0.5" points="219.676,90.906 222.394,87.526 219.676,84.149 
					216.959,87.526 				"/>
			</g>
			<g>
				<polygon fill="none" stroke="#2E3192" stroke-width="0.5" points="220.959,197.1 223.677,193.72 220.959,190.341 
					218.243,193.72 				"/>
			</g>
			<g>
				<polygon fill="none" stroke="#2E3192" stroke-width="0.5" points="222.168,91.985 224.884,88.605 222.168,85.226 
					219.449,88.605 				"/>
			</g>
			<g>
				<polygon fill="none" stroke="#2E3192" stroke-width="0.5" points="223.452,167.046 226.168,163.666 223.452,160.288 
					220.732,163.666 				"/>
			</g>
			<g>
				<polygon fill="none" stroke="#2E3192" stroke-width="0.5" points="224.734,162.444 227.45,159.065 224.734,155.686 
					222.015,159.065 				"/>
			</g>
			<g>
				<polygon fill="none" stroke="#2E3192" stroke-width="0.5" points="225.941,83.286 228.659,79.907 225.941,76.528 
					223.225,79.907 				"/>
			</g>
			<g>
				<polygon fill="none" stroke="#2E3192" stroke-width="0.5" points="227.225,177.831 229.941,174.451 227.225,171.071 
					224.507,174.451 				"/>
			</g>
			<g>
				<polygon fill="none" stroke="#2E3192" stroke-width="0.5" points="228.432,107.657 231.15,104.279 228.432,100.9 
					225.716,104.279 				"/>
			</g>
			<g>
				<polygon fill="none" stroke="#2E3192" stroke-width="0.5" points="229.714,141.45 232.434,138.07 229.714,134.692 
					226.998,138.07 				"/>
			</g>
			<g>
				<polygon fill="none" stroke="#2E3192" stroke-width="0.5" points="230.998,146.914 233.717,143.536 230.998,140.156 
					228.281,143.536 				"/>
			</g>
			<g>
				<polygon fill="none" stroke="#2E3192" stroke-width="0.5" points="232.207,114.991 234.923,111.612 232.207,108.233 
					229.489,111.612 				"/>
			</g>
			<g>
				<polygon fill="none" stroke="#2E3192" stroke-width="0.5" points="233.49,99.604 236.207,96.228 233.49,92.848 230.772,96.228 
									"/>
			</g>
			<g>
				<polygon fill="none" stroke="#2E3192" stroke-width="0.5" points="234.697,139.94 237.414,136.56 234.697,133.182 
					231.98,136.56 				"/>
			</g>
			<g>
				<polygon fill="none" stroke="#2E3192" stroke-width="0.5" points="235.981,189.478 238.697,186.099 235.981,182.72 
					233.263,186.099 				"/>
			</g>
			<g>
				<polygon fill="none" stroke="#2E3192" stroke-width="0.5" points="237.264,92.271 239.98,88.894 237.264,85.515 234.547,88.894 
									"/>
			</g>
			<g>
				<polygon fill="none" stroke="#2E3192" stroke-width="0.5" points="238.47,172.15 241.189,168.771 238.47,165.392 
					235.754,168.771 				"/>
			</g>
			<g>
				<polygon fill="none" stroke="#2E3192" stroke-width="0.5" points="239.755,95.939 242.473,92.559 239.755,89.181 
					237.038,92.559 				"/>
			</g>
			<g>
				<polygon fill="none" stroke="#2E3192" stroke-width="0.5" points="241.037,186.53 243.755,183.15 241.037,179.771 
					238.32,183.15 				"/>
			</g>
			<g>
				<polygon fill="none" stroke="#2E3192" stroke-width="0.5" points="242.246,120.672 244.963,117.292 242.246,113.913 
					239.528,117.292 				"/>
			</g>
			<g>
				<polygon fill="none" stroke="#2E3192" stroke-width="0.5" points="243.529,91.912 246.246,88.534 243.529,85.154 
					240.811,88.534 				"/>
			</g>
			<g>
				<polygon fill="none" stroke="#2E3192" stroke-width="0.5" points="244.737,147.992 247.453,144.614 244.737,141.233 
					242.019,144.614 				"/>
			</g>
			<g>
				<polygon fill="none" stroke="#2E3192" stroke-width="0.5" points="246.019,134.62 248.735,131.241 246.019,127.861 
					243.302,131.241 				"/>
			</g>
			<g>
				<polygon fill="none" stroke="#2E3192" stroke-width="0.5" points="247.303,114.344 250.02,110.966 247.303,107.585 
					244.584,110.966 				"/>
			</g>
			<g>
				<polygon fill="none" stroke="#2E3192" stroke-width="0.5" points="248.51,136.058 251.228,132.679 248.51,129.299 
					245.793,132.679 				"/>
			</g>
			<g>
				<polygon fill="none" stroke="#2E3192" stroke-width="0.5" points="249.793,191.563 252.512,188.185 249.793,184.805 
					247.077,188.185 				"/>
			</g>
			<g>
				<polygon fill="none" stroke="#2E3192" stroke-width="0.5" points="251.002,99.677 253.719,96.298 251.002,92.92 248.283,96.298 
									"/>
			</g>
			<g>
				<polygon fill="none" stroke="#2E3192" stroke-width="0.5" points="252.285,183.007 255.002,179.628 252.285,176.249 
					249.566,179.628 				"/>
			</g>
			<g>
				<polygon fill="none" stroke="#2E3192" stroke-width="0.5" points="253.568,110.175 256.285,106.794 253.568,103.418 
					250.851,106.794 				"/>
			</g>
			<g>
				<polygon fill="none" stroke="#2E3192" stroke-width="0.5" points="254.775,123.764 257.492,120.383 254.775,117.006 
					252.057,120.383 				"/>
			</g>
			<g>
				<polygon fill="none" stroke="#2E3192" stroke-width="0.5" points="256.059,150.293 258.775,146.914 256.059,143.536 
					253.34,146.914 				"/>
			</g>
			<g>
				<polygon fill="none" stroke="#2E3192" stroke-width="0.5" points="257.342,107.802 260.057,104.422 257.342,101.044 
					254.623,104.422 				"/>
			</g>
			<g>
				<polygon fill="none" stroke="#2E3192" stroke-width="0.5" points="258.549,136.058 261.268,132.679 258.549,129.299 
					255.832,132.679 				"/>
			</g>
			<g>
				<polygon fill="none" stroke="#2E3192" stroke-width="0.5" points="259.83,120.96 262.549,117.58 259.83,114.201 257.115,117.58 
									"/>
			</g>
			<g>
				<polygon fill="none" stroke="#2E3192" stroke-width="0.5" points="261.039,157.987 263.756,154.608 261.039,151.228 
					258.322,154.608 				"/>
			</g>
			<g>
				<polygon fill="none" stroke="#2E3192" stroke-width="0.5" points="262.322,126.568 265.039,123.188 262.322,119.809 
					259.605,123.188 				"/>
			</g>
			<g>
				<polygon fill="none" stroke="#2E3192" stroke-width="0.5" points="263.605,110.821 266.322,107.442 263.605,104.064 
					260.889,107.442 				"/>
			</g>
			<g>
				<polygon fill="none" stroke="#2E3192" stroke-width="0.5" points="264.812,190.196 267.529,186.817 264.812,183.439 
					262.094,186.817 				"/>
			</g>
			<g>
				<polygon fill="none" stroke="#2E3192" stroke-width="0.5" points="266.096,120.097 268.812,116.718 266.096,113.338 
					263.379,116.718 				"/>
			</g>
			<g>
				<polygon fill="none" stroke="#2E3192" stroke-width="0.5" points="267.379,133.253 270.096,129.875 267.379,126.496 
					264.662,129.875 				"/>
			</g>
			<g>
				<polygon fill="none" stroke="#2E3192" stroke-width="0.5" points="268.586,102.769 271.305,99.391 268.586,96.011 
					265.869,99.391 				"/>
			</g>
			<g>
				<polygon fill="none" stroke="#2E3192" stroke-width="0.5" points="269.869,174.883 272.588,171.504 269.869,168.125 
					267.152,171.504 				"/>
			</g>
			<g>
				<polygon fill="none" stroke="#2E3192" stroke-width="0.5" points="271.076,145.189 273.795,141.811 271.076,138.431 
					268.359,141.811 				"/>
			</g>
			<g>
				<polygon fill="none" stroke="#2E3192" stroke-width="0.5" points="272.359,126.782 275.078,123.404 272.359,120.025 
					269.643,123.404 				"/>
			</g>
			<g>
				<polygon fill="none" stroke="#2E3192" stroke-width="0.5" points="273.643,92.632 276.359,89.252 273.643,85.873 
					270.926,89.252 				"/>
			</g>
			<g>
				<polygon fill="none" stroke="#2E3192" stroke-width="0.5" points="274.852,127.717 277.566,124.339 274.852,120.96 
					272.133,124.339 				"/>
			</g>
			<g>
				<polygon fill="none" stroke="#2E3192" stroke-width="0.5" points="276.133,195.805 278.85,192.426 276.133,189.048 
					273.416,192.426 				"/>
			</g>
			<g>
				<polygon fill="none" stroke="#2E3192" stroke-width="0.5" points="277.342,122.324 280.059,118.946 277.342,115.565 
					274.625,118.946 				"/>
			</g>
			<g>
				<polygon fill="none" stroke="#2E3192" stroke-width="0.5" points="278.623,132.679 281.342,129.299 278.623,125.921 
					275.908,129.299 				"/>
			</g>
			<g>
				<polygon fill="none" stroke="#2E3192" stroke-width="0.5" points="279.906,148.64 282.625,145.261 279.906,141.882 
					277.191,145.261 				"/>
			</g>
			<g>
				<polygon fill="none" stroke="#2E3192" stroke-width="0.5" points="281.113,123.764 283.832,120.383 281.113,117.006 
					278.396,120.383 				"/>
			</g>
			<g>
				<polygon fill="none" stroke="#2E3192" stroke-width="0.5" points="282.396,103.632 285.115,100.253 282.396,96.874 
					279.682,100.253 				"/>
			</g>
			<g>
				<polygon fill="none" stroke="#2E3192" stroke-width="0.5" points="283.68,178.908 286.398,175.53 283.68,172.15 280.965,175.53 
									"/>
			</g>
			<g>
				<polygon fill="none" stroke="#2E3192" stroke-width="0.5" points="284.889,140.516 287.605,137.137 284.889,133.757 
					282.17,137.137 				"/>
			</g>
			<g>
				<polygon fill="none" stroke="#2E3192" stroke-width="0.5" points="286.172,93.422 288.889,90.043 286.172,86.664 
					283.453,90.043 				"/>
			</g>
			<g>
				<polygon fill="none" stroke="#2E3192" stroke-width="0.5" points="287.379,142.024 290.096,138.647 287.379,135.267 
					284.662,138.647 				"/>
			</g>
			<g>
				<polygon fill="none" stroke="#2E3192" stroke-width="0.5" points="288.662,140.947 291.379,137.568 288.662,134.188 
					285.945,137.568 				"/>
			</g>
			<g>
				<polygon fill="none" stroke="#2E3192" stroke-width="0.5" points="289.943,150.365 292.662,146.986 289.943,143.606 
					287.229,146.986 				"/>
			</g>
			<g>
				<polygon fill="none" stroke="#2E3192" stroke-width="0.5" points="291.152,111.612 293.869,108.233 291.152,104.854 
					288.436,108.233 				"/>
			</g>
			<g>
				<polygon fill="none" stroke="#2E3192" stroke-width="0.5" points="292.434,154.247 295.152,150.868 292.434,147.49 
					289.719,150.868 				"/>
			</g>
			<g>
				<polygon fill="none" stroke="#2E3192" stroke-width="0.5" points="293.645,123.764 296.359,120.383 293.645,117.006 
					290.926,120.383 				"/>
			</g>
			<g>
				<polygon fill="none" stroke="#2E3192" stroke-width="0.5" points="294.926,112.763 297.643,109.384 294.926,106.004 
					292.209,109.384 				"/>
			</g>
			<g>
				<polygon fill="none" stroke="#2E3192" stroke-width="0.5" points="296.209,180.275 298.926,176.896 296.209,173.517 
					293.492,176.896 				"/>
			</g>
			<g>
				<polygon fill="none" stroke="#2E3192" stroke-width="0.5" points="297.416,92.632 300.133,89.252 297.416,85.873 
					294.699,89.252 				"/>
			</g>
			<g>
				<polygon fill="none" stroke="#2E3192" stroke-width="0.5" points="298.699,150.222 301.416,146.842 298.699,143.463 
					295.982,146.842 				"/>
			</g>
			<g>
				<polygon fill="none" stroke="#2E3192" stroke-width="0.5" points="299.982,159.498 302.699,156.117 299.982,152.738 
					297.268,156.117 				"/>
			</g>
			<g>
				<polygon fill="none" stroke="#2E3192" stroke-width="0.5" points="301.189,114.561 303.908,111.182 301.189,107.802 
					298.473,111.182 				"/>
			</g>
			<g>
				<polygon fill="none" stroke="#2E3192" stroke-width="0.5" points="302.473,153.89 305.191,150.509 302.473,147.13 
					299.756,150.509 				"/>
			</g>
			<g>
				<polygon fill="none" stroke="#2E3192" stroke-width="0.5" points="303.682,132.895 306.396,129.515 303.682,126.136 
					300.963,129.515 				"/>
			</g>
			<g>
				<polygon fill="none" stroke="#2E3192" stroke-width="0.5" points="304.965,133.541 307.682,130.161 304.965,126.782 
					302.246,130.161 				"/>
			</g>
			<g>
				<polygon fill="none" stroke="#2E3192" stroke-width="0.5" points="306.246,124.986 308.963,121.606 306.246,118.227 
					303.529,121.606 				"/>
			</g>
			<g>
				<polygon fill="none" stroke="#2E3192" stroke-width="0.5" points="307.455,158.418 310.17,155.038 307.455,151.658 
					304.738,155.038 				"/>
			</g>
			<g>
				<polygon fill="none" stroke="#2E3192" stroke-width="0.5" points="308.736,91.122 311.453,87.743 308.736,84.363 
					306.021,87.743 				"/>
			</g>
			<g>
				<polygon fill="none" stroke="#2E3192" stroke-width="0.5" points="309.945,161.008 312.662,157.627 309.945,154.247 
					307.229,157.627 				"/>
			</g>
			<g>
				<polygon fill="none" stroke="#2E3192" stroke-width="0.5" points="311.227,113.626 313.945,110.246 311.227,106.867 
					308.512,110.246 				"/>
			</g>
			<g>
				<polygon fill="none" stroke="#2E3192" stroke-width="0.5" points="312.51,153.601 315.229,150.222 312.51,146.842 
					309.795,150.222 				"/>
			</g>
			<g>
				<polygon fill="none" stroke="#2E3192" stroke-width="0.5" points="313.719,108.376 316.436,104.999 313.719,101.619 
					311,104.999 				"/>
			</g>
			<g>
				<polygon fill="none" stroke="#2E3192" stroke-width="0.5" points="315.002,149.791 317.719,146.411 315.002,143.031 
					312.283,146.411 				"/>
			</g>
			<g>
				<polygon fill="none" stroke="#2E3192" stroke-width="0.5" points="316.285,156.836 319.002,153.457 316.285,150.077 
					313.566,153.457 				"/>
			</g>
			<g>
				<polygon fill="none" stroke="#2E3192" stroke-width="0.5" points="317.492,112.402 320.209,109.025 317.492,105.646 
					314.775,109.025 				"/>
			</g>
			<g>
				<polygon fill="none" stroke="#2E3192" stroke-width="0.5" points="318.775,149.935 321.492,146.556 318.775,143.176 
					316.059,146.556 				"/>
			</g>
			<g>
				<polygon fill="none" stroke="#2E3192" stroke-width="0.5" points="319.982,117.078 322.699,113.697 319.982,110.319 
					317.266,113.697 				"/>
			</g>
			<g>
				<polygon fill="none" stroke="#2E3192" stroke-width="0.5" points="321.266,142.888 323.984,139.51 321.266,136.13 
					318.549,139.51 				"/>
			</g>
			<g>
				<polygon fill="none" stroke="#2E3192" stroke-width="0.5" points="322.547,122.253 325.266,118.873 322.547,115.495 
					319.832,118.873 				"/>
			</g>
			<g>
				<polygon fill="none" stroke="#2E3192" stroke-width="0.5" points="323.758,171.504 326.473,168.125 323.758,164.744 
					321.039,168.125 				"/>
			</g>
			<g>
				<polygon fill="none" stroke="#2E3192" stroke-width="0.5" points="325.039,91.912 327.756,88.534 325.039,85.154 
					322.322,88.534 				"/>
			</g>
			<g>
				<polygon fill="none" stroke="#2E3192" stroke-width="0.5" points="326.322,139.006 329.039,135.625 326.322,132.248 
					323.605,135.625 				"/>
			</g>
			<g>
				<polygon fill="none" stroke="#2E3192" stroke-width="0.5" points="327.529,126.352 330.246,122.972 327.529,119.593 
					324.812,122.972 				"/>
			</g>
			<g>
				<polygon fill="none" stroke="#2E3192" stroke-width="0.5" points="328.812,138.647 331.529,135.267 328.812,131.889 
					326.096,135.267 				"/>
			</g>
			<g>
				<polygon fill="none" stroke="#2E3192" stroke-width="0.5" points="330.02,164.314 332.738,160.935 330.02,157.555 
					327.303,160.935 				"/>
			</g>
			<g>
				<polygon fill="none" stroke="#2E3192" stroke-width="0.5" points="331.303,96.802 334.021,93.422 331.303,90.043 
					328.586,93.422 				"/>
			</g>
			<g>
				<polygon fill="none" stroke="#2E3192" stroke-width="0.5" points="332.586,136.633 335.305,133.253 332.586,129.875 
					329.869,133.253 				"/>
			</g>
			<g>
				<polygon fill="none" stroke="#2E3192" stroke-width="0.5" points="333.795,132.031 336.512,128.652 333.795,125.272 
					331.076,128.652 				"/>
			</g>
			<g>
				<polygon fill="none" stroke="#2E3192" stroke-width="0.5" points="335.078,203.643 337.795,200.263 335.078,196.884 
					332.359,200.263 				"/>
			</g>
			<g>
				<polygon fill="none" stroke="#2E3192" stroke-width="0.5" points="336.285,129.875 339,126.496 336.285,123.116 
					333.566,126.496 				"/>
			</g>
			<g>
				<polygon fill="none" stroke="#2E3192" stroke-width="0.5" points="337.568,75.521 340.283,72.145 337.568,68.765 334.85,72.145 
									"/>
			</g>
			<g>
				<polygon fill="none" stroke="#2E3192" stroke-width="0.5" points="338.85,180.275 341.566,176.896 338.85,173.517 
					336.133,176.896 				"/>
			</g>
			<g>
				<polygon fill="none" stroke="#2E3192" stroke-width="0.5" points="340.059,138.934 342.775,135.555 340.059,132.176 
					337.342,135.555 				"/>
			</g>
			<g>
				<polygon fill="none" stroke="#2E3192" stroke-width="0.5" points="341.34,105.646 344.059,102.266 341.34,98.887 
					338.625,102.266 				"/>
			</g>
			<g>
				<polygon fill="none" stroke="#2E3192" stroke-width="0.5" points="342.623,162.805 345.342,159.425 342.623,156.046 
					339.908,159.425 				"/>
			</g>
			<g>
				<polygon fill="none" stroke="#2E3192" stroke-width="0.5" points="343.832,137.929 346.549,134.549 343.832,131.169 
					341.113,134.549 				"/>
			</g>
			<g>
				<polygon fill="none" stroke="#2E3192" stroke-width="0.5" points="345.115,133.325 347.832,129.946 345.115,126.568 
					342.398,129.946 				"/>
			</g>
			<g>
				<polygon fill="none" stroke="#2E3192" stroke-width="0.5" points="346.322,94.646 349.039,91.266 346.322,87.887 
					343.604,91.266 				"/>
			</g>
			<g>
				<polygon fill="none" stroke="#2E3192" stroke-width="0.5" points="347.605,152.092 350.322,148.712 347.605,145.332 
					344.887,148.712 				"/>
			</g>
			<g>
				<polygon fill="none" stroke="#2E3192" stroke-width="0.5" points="348.889,158.562 351.605,155.183 348.889,151.803 
					346.17,155.183 				"/>
			</g>
			<g>
				<polygon fill="none" stroke="#2E3192" stroke-width="0.5" points="350.096,101.978 352.814,98.6 350.096,95.221 347.379,98.6 
									"/>
			</g>
			<g>
				<polygon fill="none" stroke="#2E3192" stroke-width="0.5" points="351.379,133.83 354.098,130.45 351.379,127.07 
					348.662,130.45 				"/>
			</g>
			<g>
				<polygon fill="none" stroke="#2E3192" stroke-width="0.5" points="352.586,152.45 355.303,149.071 352.586,145.693 
					349.869,149.071 				"/>
			</g>
			<g>
				<polygon fill="none" stroke="#2E3192" stroke-width="0.5" points="353.869,136.488 356.586,133.11 353.869,129.731 
					351.152,133.11 				"/>
			</g>
			<g>
				<polygon fill="none" stroke="#2E3192" stroke-width="0.5" points="355.152,127.07 357.869,123.691 355.152,120.312 
					352.436,123.691 				"/>
			</g>
			<g>
				<polygon fill="none" stroke="#2E3192" stroke-width="0.5" points="356.361,148.855 359.076,145.477 356.361,142.097 
					353.643,145.477 				"/>
			</g>
			<g>
				<polygon fill="none" stroke="#2E3192" stroke-width="0.5" points="357.643,107.873 360.359,104.495 357.643,101.114 
					354.926,104.495 				"/>
			</g>
			<g>
				<polygon fill="none" stroke="#2E3192" stroke-width="0.5" points="358.926,163.451 361.643,160.072 358.926,156.692 
					356.209,160.072 				"/>
			</g>
			<g>
				<polygon fill="none" stroke="#2E3192" stroke-width="0.5" points="360.133,128.652 362.852,125.272 360.133,121.895 
					357.416,125.272 				"/>
			</g>
			<g>
				<polygon fill="none" stroke="#2E3192" stroke-width="0.5" points="361.416,143.822 364.135,140.442 361.416,137.065 
					358.699,140.442 				"/>
			</g>
			<g>
				<polygon fill="none" stroke="#2E3192" stroke-width="0.5" points="362.623,103.92 365.342,100.539 362.623,97.161 
					359.906,100.539 				"/>
			</g>
			<g>
				<polygon fill="none" stroke="#2E3192" stroke-width="0.5" points="363.906,136.704 366.625,133.325 363.906,129.946 
					361.189,133.325 				"/>
			</g>
			<g>
				<polygon fill="none" stroke="#2E3192" stroke-width="0.5" points="365.189,150.365 367.908,146.986 365.189,143.606 
					362.473,146.986 				"/>
			</g>
			<g>
				<polygon fill="none" stroke="#2E3192" stroke-width="0.5" points="366.398,138.861 369.113,135.483 366.398,132.104 
					363.68,135.483 				"/>
			</g>
			<g>
				<polygon fill="none" stroke="#2E3192" stroke-width="0.5" points="367.682,134.764 370.398,131.385 367.682,128.006 
					364.963,131.385 				"/>
			</g>
			<g>
				<polygon fill="none" stroke="#2E3192" stroke-width="0.5" points="368.889,151.803 371.605,148.424 368.889,145.047 
					366.172,148.424 				"/>
			</g>
			<g>
				<polygon fill="none" stroke="#2E3192" stroke-width="0.5" points="370.172,115.279 372.889,111.9 370.172,108.52 367.455,111.9 
									"/>
			</g>
			<g>
				<polygon fill="none" stroke="#2E3192" stroke-width="0.5" points="371.453,153.817 374.172,150.438 371.453,147.058 
					368.738,150.438 				"/>
			</g>
			<g>
				<polygon fill="none" stroke="#2E3192" stroke-width="0.5" points="372.662,123.116 375.379,119.736 372.662,116.357 
					369.945,119.736 				"/>
			</g>
			<g>
				<polygon fill="none" stroke="#2E3192" stroke-width="0.5" points="373.943,118.516 376.662,115.136 373.943,111.756 
					371.229,115.136 				"/>
			</g>
			<g>
				<polygon fill="none" stroke="#2E3192" stroke-width="0.5" points="375.227,165.463 377.945,162.084 375.227,158.706 
					372.512,162.084 				"/>
			</g>
			<g>
				<polygon fill="none" stroke="#2E3192" stroke-width="0.5" points="376.436,104.711 379.152,101.33 376.436,97.951 
					373.717,101.33 				"/>
			</g>
			<g>
				<polygon fill="none" stroke="#2E3192" stroke-width="0.5" points="377.719,142.168 380.436,138.79 377.719,135.411 375,138.79 
									"/>
			</g>
			<g>
				<polygon fill="none" stroke="#2E3192" stroke-width="0.5" points="378.926,139.652 381.643,136.274 378.926,132.895 
					376.209,136.274 				"/>
			</g>
			<g>
				<polygon fill="none" stroke="#2E3192" stroke-width="0.5" points="380.209,135.411 382.926,132.031 380.209,128.652 
					377.492,132.031 				"/>
			</g>
			<g>
				<polygon fill="none" stroke="#2E3192" stroke-width="0.5" points="381.492,149.071 384.209,145.693 381.492,142.312 
					378.775,145.693 				"/>
			</g>
			<g>
				<polygon fill="none" stroke="#2E3192" stroke-width="0.5" points="382.699,117.364 385.416,113.984 382.699,110.607 
					379.982,113.984 				"/>
			</g>
			<g>
				<polygon fill="none" stroke="#2E3192" stroke-width="0.5" points="383.982,149.358 386.701,145.98 383.982,142.601 
					381.266,145.98 				"/>
			</g>
			<g>
				<polygon fill="none" stroke="#2E3192" stroke-width="0.5" points="385.264,119.736 387.982,116.357 385.264,112.979 
					382.549,116.357 				"/>
			</g>
			<g>
				<polygon fill="none" stroke="#2E3192" stroke-width="0.5" points="386.475,136.776 389.189,133.397 386.475,130.018 
					383.756,133.397 				"/>
			</g>
			<g>
				<polygon fill="none" stroke="#2E3192" stroke-width="0.5" points="387.756,153.817 390.473,150.438 387.756,147.058 
					385.039,150.438 				"/>
			</g>
			<g>
				<polygon fill="none" stroke="#2E3192" stroke-width="0.5" points="388.965,136.274 391.68,132.895 388.965,129.515 
					386.248,132.895 				"/>
			</g>
			<g>
				<polygon fill="none" stroke="#2E3192" stroke-width="0.5" points="390.246,133.397 392.963,130.018 390.246,126.64 
					387.529,130.018 				"/>
			</g>
			<g>
				<polygon fill="none" stroke="#2E3192" stroke-width="0.5" points="391.529,126.854 394.246,123.478 391.529,120.097 
					388.814,123.478 				"/>
			</g>
			<g>
				<polygon fill="none" stroke="#2E3192" stroke-width="0.5" points="392.736,138.79 395.455,135.411 392.736,132.031 
					390.02,135.411 				"/>
			</g>
			<g>
				<polygon fill="none" stroke="#2E3192" stroke-width="0.5" points="394.02,118.227 396.738,114.848 394.02,111.47 
					391.303,114.848 				"/>
			</g>
			<g>
				<polygon fill="none" stroke="#2E3192" stroke-width="0.5" points="395.229,140.516 397.943,137.137 395.229,133.757 
					392.51,137.137 				"/>
			</g>
			<g>
				<polygon fill="none" stroke="#2E3192" stroke-width="0.5" points="396.512,149.646 399.229,146.267 396.512,142.888 
					393.793,146.267 				"/>
			</g>
			<g>
				<polygon fill="none" stroke="#2E3192" stroke-width="0.5" points="397.795,132.679 400.512,129.299 397.795,125.921 
					395.076,129.299 				"/>
			</g>
			<g>
				<polygon fill="none" stroke="#2E3192" stroke-width="0.5" points="399.002,136.776 401.717,133.397 399.002,130.018 
					396.285,133.397 				"/>
			</g>
			<g>
				<polygon fill="none" stroke="#2E3192" stroke-width="0.5" points="400.285,134.332 403,130.953 400.285,127.573 
					397.568,130.953 				"/>
			</g>
			<g>
				<polygon fill="none" stroke="#2E3192" stroke-width="0.5" points="401.566,112.907 404.283,109.528 401.566,106.147 
					398.852,109.528 				"/>
			</g>
			<g>
				<polygon fill="none" stroke="#2E3192" stroke-width="0.5" points="402.775,157.196 405.492,153.817 402.775,150.438 
					400.059,153.817 				"/>
			</g>
			<g>
				<polygon fill="none" stroke="#2E3192" stroke-width="0.5" points="404.057,121.965 406.775,118.588 404.057,115.207 
					401.342,118.588 				"/>
			</g>
			<g>
				<polygon fill="none" stroke="#2E3192" stroke-width="0.5" points="405.268,155.399 407.982,152.02 405.268,148.64 
					402.549,152.02 				"/>
			</g>
			<g>
				<polygon fill="none" stroke="#2E3192" stroke-width="0.5" points="406.549,123.261 409.266,119.881 406.549,116.501 
					403.83,119.881 				"/>
			</g>
			<g>
				<polygon fill="none" stroke="#2E3192" stroke-width="0.5" points="407.832,134.692 410.549,131.313 407.832,127.933 
					405.113,131.313 				"/>
			</g>
			<g>
				<polygon fill="none" stroke="#2E3192" stroke-width="0.5" points="409.039,138.861 411.756,135.483 409.039,132.104 
					406.322,135.483 				"/>
			</g>
			<g>
				<polygon fill="none" stroke="#2E3192" stroke-width="0.5" points="410.322,112.261 413.039,108.882 410.322,105.501 
					407.605,108.882 				"/>
			</g>
			<g>
				<polygon fill="none" stroke="#2E3192" stroke-width="0.5" points="411.529,148.712 414.246,145.332 411.529,141.954 
					408.812,145.332 				"/>
			</g>
			<g>
				<polygon fill="none" stroke="#2E3192" stroke-width="0.5" points="412.812,126.854 415.531,123.478 412.812,120.097 
					410.096,123.478 				"/>
			</g>
			<g>
				<polygon fill="none" stroke="#2E3192" stroke-width="0.5" points="414.096,140.587 416.814,137.207 414.096,133.83 
					411.379,137.207 				"/>
			</g>
			<g>
				<polygon fill="none" stroke="#2E3192" stroke-width="0.5" points="415.305,148.64 418.02,145.261 415.305,141.882 
					412.586,145.261 				"/>
			</g>
			<g>
				<polygon fill="none" stroke="#2E3192" stroke-width="0.5" points="416.588,139.94 419.303,136.56 416.588,133.182 
					413.869,136.56 				"/>
			</g>
			<g>
				<polygon fill="none" stroke="#2E3192" stroke-width="0.5" points="417.869,130.738 420.586,127.359 417.869,123.979 
					415.152,127.359 				"/>
			</g>
			<g>
				<polygon fill="none" stroke="#2E3192" stroke-width="0.5" points="419.078,124.698 421.793,121.318 419.078,117.939 
					416.359,121.318 				"/>
			</g>
			<g>
				<polygon fill="none" stroke="#2E3192" stroke-width="0.5" points="420.359,130.522 423.076,127.143 420.359,123.764 
					417.643,127.143 				"/>
			</g>
			<g>
				<polygon fill="none" stroke="#2E3192" stroke-width="0.5" points="421.566,146.411 424.285,143.031 421.566,139.652 
					418.852,143.031 				"/>
			</g>
			<g>
				<polygon fill="none" stroke="#2E3192" stroke-width="0.5" points="422.85,141.954 425.568,138.575 422.85,135.195 
					420.133,138.575 				"/>
			</g>
			<g>
				<polygon fill="none" stroke="#2E3192" stroke-width="0.5" points="424.133,116.79 426.852,113.409 424.133,110.03 
					421.416,113.409 				"/>
			</g>
			<g>
				<polygon fill="none" stroke="#2E3192" stroke-width="0.5" points="425.342,140.301 428.059,136.921 425.342,133.541 
					422.623,136.921 				"/>
			</g>
			<g>
				<polygon fill="none" stroke="#2E3192" stroke-width="0.5" points="426.625,138.359 429.342,134.979 426.625,131.6 
					423.906,134.979 				"/>
			</g>
		</g>
		<polyline fill="none" stroke="#2E3192" stroke-width="2" stroke-linejoin="round" points="108.046,131.744 109.33,131.744 
			110.538,131.744 111.821,131.744 113.104,131.744 114.312,131.744 115.594,131.744 116.801,131.744 118.084,131.744 
			119.367,131.744 120.575,131.744 121.858,131.744 123.142,131.744 124.349,131.744 125.632,131.744 126.839,131.744 
			128.122,131.744 129.404,131.744 130.614,131.744 131.896,131.744 133.104,131.744 134.386,131.744 135.67,131.744 
			136.876,131.744 138.159,131.744 139.442,131.744 140.651,131.744 141.935,131.744 143.142,131.744 144.425,131.744 
			145.707,131.744 146.914,131.744 148.197,131.744 149.406,131.744 150.688,131.744 151.972,131.744 153.179,131.744 
			154.462,131.744 155.745,131.744 156.952,131.744 158.235,131.744 159.444,131.744 160.727,131.744 162.01,131.744 
			163.217,131.744 164.5,131.744 165.783,131.744 166.989,131.744 168.272,131.744 169.48,131.744 170.765,131.744 172.047,131.744 
			173.255,131.744 174.539,131.744 175.745,131.744 177.029,131.744 178.312,131.744 179.52,131.744 180.802,131.744 
			182.087,131.744 183.294,131.744 184.577,131.744 185.785,131.744 187.068,131.744 188.351,131.744 189.559,131.744 
			190.842,131.744 192.05,131.744 193.334,131.744 194.617,131.744 195.824,131.744 197.106,131.744 198.39,131.744 
			199.597,131.744 200.881,131.744 202.089,131.744 203.373,131.744 204.656,131.744 205.863,131.744 207.147,131.744 
			208.353,131.744 209.636,131.744 210.92,131.744 212.129,131.744 213.411,131.744 214.695,131.744 215.902,131.744 
			217.185,131.744 218.393,131.744 219.676,131.744 220.959,131.744 222.168,131.744 223.452,131.744 224.734,131.744 
			225.941,131.744 227.225,131.744 228.432,131.744 229.714,131.744 230.998,131.744 232.207,131.744 233.49,131.744 
			234.697,131.744 235.981,131.744 237.264,131.744 238.47,131.744 239.755,131.744 241.037,131.744 242.246,131.744 
			243.529,131.744 244.737,131.744 246.019,131.744 247.303,131.744 248.51,131.744 249.793,131.744 251.002,131.744 
			252.285,131.744 253.568,131.744 254.775,131.744 256.059,131.744 257.342,131.744 258.549,131.744 259.83,131.744 
			261.039,131.744 262.322,131.744 263.605,131.744 264.812,131.744 266.096,131.744 267.379,131.744 268.586,131.744 
			269.869,131.744 271.076,131.744 272.359,131.744 273.643,131.744 274.852,131.744 276.133,131.744 277.342,131.744 
			278.623,131.744 279.906,131.744 281.113,131.744 282.396,131.744 283.68,131.744 284.889,131.744 286.172,131.744 
			287.379,131.744 288.662,131.744 289.943,131.744 291.152,131.744 292.434,131.744 293.645,131.744 294.926,131.744 
			296.209,131.744 297.416,131.744 298.699,131.744 299.982,131.744 301.189,131.744 302.473,131.744 303.682,131.744 
			304.965,131.744 306.246,131.744 307.455,131.744 308.736,131.744 309.945,131.744 311.227,131.744 312.51,131.744 
			313.719,131.744 315.002,131.744 316.285,131.744 317.492,131.744 318.775,131.744 319.982,131.744 321.266,131.744 
			322.547,131.744 323.758,131.744 325.039,131.744 326.322,131.744 327.529,131.744 328.812,131.744 330.02,131.744 
			331.303,131.744 332.586,131.744 333.795,131.744 335.078,131.744 336.285,131.744 337.568,131.744 338.85,131.744 
			340.059,131.744 341.34,131.744 342.623,131.744 343.832,131.744 345.115,131.744 346.322,131.744 347.605,131.744 
			348.889,131.744 350.096,131.744 351.379,131.744 352.586,131.744 353.869,131.744 355.152,131.744 356.361,131.744 
			357.643,131.744 358.926,131.744 360.133,131.744 361.416,131.744 362.623,131.744 363.906,131.744 365.189,131.744 
			366.398,131.744 367.682,131.744 368.889,131.744 370.172,131.744 371.453,131.744 372.662,131.744 373.943,131.744 
			375.227,131.744 376.436,131.744 377.719,131.744 378.926,131.744 380.209,131.744 381.492,131.744 382.699,131.744 
			383.982,131.744 385.264,131.744 386.475,131.744 387.756,131.744 388.965,131.744 390.246,131.744 391.529,131.744 
			392.736,131.744 394.02,131.744 395.229,131.744 396.512,131.744 397.795,131.744 399.002,131.744 400.285,131.744 
			401.566,131.744 402.775,131.744 404.057,131.744 405.268,131.744 406.549,131.744 407.832,131.744 409.039,131.744 
			410.322,131.744 411.529,131.744 412.812,131.744 414.096,131.744 415.305,131.744 416.588,131.744 417.869,131.744 
			419.078,131.744 420.359,131.744 421.566,131.744 422.85,131.744 424.133,131.744 425.342,131.744 426.625,131.744 		"/>
		
			<rect x="127.065" y="230.866" fill="#CCDEF0" stroke="#CCDEF0" stroke-width="2" stroke-linejoin="round" width="151.331" height="72.066"/>
		<g>
			<text transform="matrix(1 0 0 1 135.4287 248.8789)"><tspan x="0" y="0" font-size="11">MEAN</tspan><tspan x="31.781" y="0" font-size="11" letter-spacing="27">	</tspan><tspan x="62.5" y="0" font-size="11">=</tspan><tspan x="68.924" y="0" font-size="11" letter-spacing="4">	</tspan><tspan x="76.5" y="0" font-size="11">2.65554</tspan><tspan x="0" y="15.334" font-size="11">STD DEV</tspan><tspan x="47.674" y="15.334" font-size="11" letter-spacing="11">	</tspan><tspan x="62.5" y="15.334" font-size="11">=</tspan><tspan x="68.924" y="15.334" font-size="11" letter-spacing="4">	</tspan><tspan x="76.5" y="15.334" font-size="11">0.35487</tspan><tspan x="0" y="30.666" font-size="11">LINEAR FIT:</tspan><tspan x="0" y="46" font-size="11">N = -5.5651E-7 * I + 2.6556</tspan></text>
		</g>
	</g>
</g>
</svg>
