<?xml version="1.0" encoding="utf-8"?>
<!-- $Source: /home/bbennett/pass/archive/DicomXml/docbook/part14/figures/PS3.14_6-2.svg,v $ -->
<!-- $Date: 2014/05/09 13:15:42 $ -->
<!-- $Revision: 1.1 $ -->

<!DOCTYPE svg PUBLIC "-//W3C//DTD SVG 1.1//EN" "http://www.w3.org/Graphics/SVG/1.1/DTD/svg11.dtd">
<svg version="1.1" id="Layer_1" xmlns="http://www.w3.org/2000/svg" xmlns:xlink="http://www.w3.org/1999/xlink" x="0px" y="0px"
	 width="502px" height="257px" viewBox="0 0 502 257" enable-background="new 0 0 502 257" xml:space="preserve">

<defs>
	<style type="text/css">
	text {
	  font-family: Helvetica, Verdana, ArialUnicodeMS, san-serif
	}
	</style>
</defs>

<g>
   <desc>
	PS 3.14 Part 14: Grayscale Standard Display Function
   </desc>
</g>

<g>
	<rect x="1" y="1" fill="#F5EED6" width="500" height="255"/>
	<g>
		<g>
			
				<rect x="156.996" y="148.044" fill="#86B2D8" stroke="#010101" stroke-width="0.5929" stroke-linecap="round" stroke-linejoin="round" stroke-miterlimit="1" width="189.011" height="93.031"/>
			<g>
				<g>
					<line fill="none" stroke="#005695" stroke-width="2" stroke-miterlimit="1" x1="217.008" y1="69.76" x2="230.526" y2="69.76"/>
					<g>
						<polygon fill="#005695" points="228.94,72.084 237.613,69.76 228.94,67.436 						"/>
					</g>
				</g>
			</g>
			<g>
				<g>
					<line fill="none" stroke="#005695" stroke-width="2" stroke-miterlimit="1" x1="313.692" y1="69.76" x2="327.59" y2="69.76"/>
					<g>
						<polygon fill="#005695" points="326.005,72.084 334.678,69.76 326.005,67.436 						"/>
					</g>
				</g>
			</g>
			
				<rect x="156.996" y="29.255" fill="#86B2D8" stroke="#010101" stroke-width="0.5929" stroke-linecap="round" stroke-linejoin="round" stroke-miterlimit="1" width="189.011" height="81.011"/>
			<g>
				<text transform="matrix(1 0 0 1 238.9961 63.4565)" font-size="10">DDLs</text>
			</g>
			<g>
				<text transform="matrix(1 0 0 1 156.9985 24.7896)" font-size="10">Standardized Display System</text>
			</g>
			<g>
				<text transform="matrix(1 0 0 1 364.5068 72.5391)" font-size="10">Luminance</text>
			</g>
			<g>
				<text transform="matrix(1 0 0 1 96.9097 72.5391)" font-size="10">P-Values</text>
			</g>
			<g>
				<text transform="matrix(1 0 0 1 238.9961 159.7695)" font-size="10">DDLs</text>
			</g>
			<g>
				<text transform="matrix(1 0 0 1 364.5068 159.7695)" font-size="10">Luminance</text>
			</g>
			<g>
				<text transform="matrix(1 0 0 1 96.9097 159.7695)" font-size="10">P-Values</text>
			</g>
			
				<rect x="74.483" y="163.06" fill="#FFFFFF" stroke="#010101" stroke-width="0.9057" stroke-linecap="round" stroke-linejoin="round" stroke-miterlimit="1" width="63" height="63"/>
			<path fill="none" stroke="#003468" stroke-linecap="round" stroke-linejoin="round" stroke-miterlimit="10" d="M137.483,163.06
				c-1.407,3.501-9.897,20.205-25.136,34.224c-16.23,14.931-35.637,22.167-37.864,28.776"/>
			
				<rect x="220.003" y="163.06" fill="#FFFFFF" stroke="#010101" stroke-width="0.9057" stroke-linecap="round" stroke-linejoin="round" stroke-miterlimit="1" width="63.005" height="63"/>
			<path fill="none" stroke="#003468" stroke-linecap="round" stroke-linejoin="round" stroke-miterlimit="10" d="M283.008,163.06
				c-41.354,14.858-54.869,45.896-63.005,63"/>
			
				<rect x="364.517" y="163.06" fill="#FFFFFF" stroke="#010101" stroke-width="0.9057" stroke-linecap="round" stroke-linejoin="round" stroke-miterlimit="1" width="63" height="63"/>
			<path fill="none" stroke="#003468" stroke-miterlimit="10" d="M427.517,163.06c-21.539,16.444-55.973,44.932-63,63"/>
			<g>
				<g>
					<line fill="none" stroke="#005695" stroke-width="2" stroke-miterlimit="1" x1="233.956" y1="69.76" x2="261.97" y2="69.76"/>
					<g>
						<polygon fill="#005695" points="260.385,72.084 269.058,69.76 260.385,67.436 						"/>
					</g>
				</g>
			</g>
			<g>
				<g>
					<line fill="none" stroke="#005695" stroke-width="2" stroke-miterlimit="1" x1="332.056" y1="69.76" x2="353.715" y2="69.76"/>
					<g>
						<polygon fill="#005695" points="352.13,72.084 360.803,69.76 352.13,67.436 						"/>
					</g>
				</g>
			</g>
			<g>
				<g>
					
						<line fill="none" stroke="#005695" stroke-width="2" stroke-miterlimit="1" x1="283.008" y1="194.56" x2="357.314" y2="194.56"/>
					<g>
						<polygon fill="#005695" points="355.729,196.884 364.402,194.56 355.729,192.235 						"/>
					</g>
				</g>
			</g>
			<g>
				<g>
					<line fill="none" stroke="#005695" stroke-width="2" stroke-miterlimit="1" x1="142.096" y1="69.76" x2="163.86" y2="69.76"/>
					<g>
						<polygon fill="#005695" points="162.274,72.084 170.947,69.76 162.274,67.436 						"/>
					</g>
				</g>
			</g>
			<g>
				<g>
					
						<line fill="none" stroke="#005695" stroke-width="2" stroke-miterlimit="1" x1="197.636" y1="194.56" x2="212.916" y2="194.56"/>
					<g>
						<polygon fill="#005695" points="211.33,196.884 220.003,194.56 211.33,192.235 						"/>
					</g>
				</g>
			</g>
			<g>
				<g>
					
						<line fill="none" stroke="#005695" stroke-width="2" stroke-miterlimit="1" x1="137.483" y1="194.56" x2="167.215" y2="194.56"/>
					<g>
						<polygon fill="#005695" points="165.63,196.884 174.303,194.56 165.63,192.235 						"/>
					</g>
				</g>
			</g>
			
				<rect x="170.947" y="47.258" fill="#CCDEF0" stroke="#010101" stroke-width="0.9057" stroke-linecap="round" stroke-linejoin="round" stroke-miterlimit="1" width="63.009" height="45.004"/>
			
				<rect x="269.058" y="47.258" fill="#CCDEF0" stroke="#010101" stroke-width="0.9057" stroke-linecap="round" stroke-linejoin="round" stroke-miterlimit="1" width="62.998" height="45.004"/>
			<g>
				<text transform="matrix(1 0 0 1 281.2725 67.8726)"><tspan x="0" y="0" font-size="10">Display</tspan><tspan x="-0.276" y="9.333" font-size="10">System</tspan></text>
			</g>
			<g>
				<text transform="matrix(1 0 0 1 182.1611 67.8726)"><tspan x="0" y="0" font-size="10">P-Values</tspan><tspan x="2.227" y="9.333" font-size="10">to DDLs</tspan></text>
			</g>
			
				<line fill="none" stroke="#808285" stroke-width="2" stroke-dasharray="6" x1="346.007" y1="109.365" x2="346.007" y2="151.644"/>
			
				<line fill="none" stroke="#808285" stroke-width="2" stroke-dasharray="6" x1="156.997" y1="109.365" x2="156.997" y2="151.644"/>
			
				<circle fill="#FFFFFF" stroke="#003468" stroke-width="2" stroke-linecap="round" stroke-miterlimit="1" cx="185.762" cy="194.56" r="11.085"/>
			<g>
				<text transform="matrix(0.8815 0 0 1 178.019 204.1523)" fill="#003468" font-size="28.8">+</text>
			</g>
		</g>
	</g>
</g>
</svg>
