<?xml version="1.0" encoding="utf-8"?>
<!-- $Source: /home/bbennett/pass/archive/DicomXml/docbook/part14/figures/PS3.14_A-1.svg,v $ -->
<!-- $Date: 2014/05/09 13:15:42 $ -->
<!-- $Revision: 1.1 $ -->

<!DOCTYPE svg PUBLIC "-//W3C//DTD SVG 1.1//EN" "http://www.w3.org/Graphics/SVG/1.1/DTD/svg11.dtd">
<svg version="1.1" id="Layer_1" xmlns="http://www.w3.org/2000/svg" xmlns:xlink="http://www.w3.org/1999/xlink" x="0px" y="0px"
	 width="502px" height="397px" viewBox="0 0 502 397" enable-background="new 0 0 502 397" xml:space="preserve">

<defs>
	<style type="text/css">
	text {
	  font-family: Helvetica, Verdana, ArialUnicodeMS, san-serif
	}
	</style>
</defs>

<g>
   <desc>
	PS 3.14 Part 14: Grayscale Standard Display Function
   </desc>
</g>

<g>
	<rect x="1" y="1" fill="#F5EED6" width="500" height="395"/>
	<g>
		<g>
			<text transform="matrix(1 0 0 1 41.6133 192.374)"><tspan x="0" y="0" font-size="12">LUMINANCE</tspan><tspan x="13.336" y="15.333" font-size="12">[CD/M</tspan><tspan x="47.332" y="10.333" font-size="12">2</tspan><tspan x="54.006" y="15.333" font-size="12">]</tspan></text>
		</g>
		<g>
			<text transform="matrix(1 0 0 1 214.8325 376.0889)" font-size="12">DIGITAL DRIVING LEVEL</text>
		</g>
		<rect x="133.51" y="21.779" fill="#CCDEF0" stroke="#000000" width="319.375" height="323.33"/>
		<g>
			<text transform="matrix(1 0 0 1 131.0366 355.4883)" font-size="9">0</text>
		</g>
		
			<line fill="none" stroke="#000000" stroke-width="0.5" stroke-linejoin="round" x1="173.376" y1="345.109" x2="173.376" y2="341.81"/>
		
			<line fill="none" stroke="#000000" stroke-width="0.5" stroke-linejoin="round" x1="173.376" y1="21.779" x2="173.376" y2="25.009"/>
		<g>
			<text transform="matrix(1 0 0 1 168.4238 355.4883)" font-size="9">50</text>
		</g>
		<polyline fill="none" stroke="#939598" stroke-linejoin="round" points="213.32,21.779 213.32,25.009 213.32,341.81 
			213.32,345.109 		"/>
		<g>
			<text transform="matrix(1 0 0 1 205.8101 355.4883)" font-size="9">100</text>
		</g>
		
			<line fill="none" stroke="#000000" stroke-width="0.5" stroke-linejoin="round" x1="253.266" y1="345.109" x2="253.266" y2="341.81"/>
		
			<line fill="none" stroke="#000000" stroke-width="0.5" stroke-linejoin="round" x1="253.266" y1="21.779" x2="253.266" y2="25.009"/>
		<g>
			<text transform="matrix(1 0 0 1 245.7495 355.4883)" font-size="9">150</text>
		</g>
		<polyline fill="none" stroke="#939598" stroke-linejoin="round" points="293.205,21.779 293.205,25.009 293.205,341.81 
			293.205,345.109 		"/>
		<g>
			<text transform="matrix(1 0 0 1 285.6875 355.4883)" font-size="9">200</text>
		</g>
		
			<line fill="none" stroke="#000000" stroke-width="0.5" stroke-linejoin="round" x1="333.07" y1="345.109" x2="333.07" y2="341.81"/>
		
			<line fill="none" stroke="#000000" stroke-width="0.5" stroke-linejoin="round" x1="333.07" y1="21.779" x2="333.07" y2="25.009"/>
		<g>
			<text transform="matrix(1 0 0 1 325.5527 355.4883)" font-size="9">250</text>
		</g>
		<polyline fill="none" stroke="#939598" stroke-linejoin="round" points="373.006,21.779 373.006,25.009 373.006,341.81 
			373.006,345.109 		"/>
		<g>
			<text transform="matrix(1 0 0 1 365.4922 355.4883)" font-size="9">300</text>
		</g>
		
			<line fill="none" stroke="#000000" stroke-width="0.5" stroke-linejoin="round" x1="412.945" y1="345.109" x2="412.945" y2="341.81"/>
		
			<line fill="none" stroke="#000000" stroke-width="0.5" stroke-linejoin="round" x1="412.945" y1="21.779" x2="412.945" y2="25.009"/>
		<g>
			<text transform="matrix(1 0 0 1 405.4316 355.4883)" font-size="9">350</text>
		</g>
		<g>
			<text transform="matrix(1 0 0 1 445.3711 355.4883)" font-size="9">400</text>
		</g>
		<g>
			<text transform="matrix(1 0 0 1 119.1714 348.2461)" font-size="9">0.1</text>
		</g>
		
			<line fill="none" stroke="#000000" stroke-width="0.5" stroke-linejoin="round" x1="133.51" y1="320.72" x2="135.162" y2="320.72"/>
		
			<line fill="none" stroke="#000000" stroke-width="0.5" stroke-linejoin="round" x1="452.885" y1="320.72" x2="451.158" y2="320.72"/>
		
			<line fill="none" stroke="#000000" stroke-width="0.5" stroke-linejoin="round" x1="133.51" y1="306.516" x2="135.162" y2="306.516"/>
		
			<line fill="none" stroke="#000000" stroke-width="0.5" stroke-linejoin="round" x1="452.885" y1="306.516" x2="451.158" y2="306.516"/>
		<line fill="none" stroke="#000000" stroke-width="0.5" stroke-linejoin="round" x1="133.51" y1="296.4" x2="135.162" y2="296.4"/>
		
			<line fill="none" stroke="#000000" stroke-width="0.5" stroke-linejoin="round" x1="452.885" y1="296.4" x2="451.158" y2="296.4"/>
		
			<line fill="none" stroke="#000000" stroke-width="0.5" stroke-linejoin="round" x1="133.51" y1="288.581" x2="135.162" y2="288.581"/>
		
			<line fill="none" stroke="#000000" stroke-width="0.5" stroke-linejoin="round" x1="452.885" y1="288.581" x2="451.158" y2="288.581"/>
		
			<line fill="none" stroke="#000000" stroke-width="0.5" stroke-linejoin="round" x1="133.51" y1="282.199" x2="135.162" y2="282.199"/>
		
			<line fill="none" stroke="#000000" stroke-width="0.5" stroke-linejoin="round" x1="452.885" y1="282.199" x2="451.158" y2="282.199"/>
		
			<line fill="none" stroke="#000000" stroke-width="0.5" stroke-linejoin="round" x1="133.51" y1="276.746" x2="135.162" y2="276.746"/>
		
			<line fill="none" stroke="#000000" stroke-width="0.5" stroke-linejoin="round" x1="452.885" y1="276.746" x2="451.158" y2="276.746"/>
		
			<line fill="none" stroke="#000000" stroke-width="0.5" stroke-linejoin="round" x1="133.51" y1="272.085" x2="135.162" y2="272.085"/>
		
			<line fill="none" stroke="#000000" stroke-width="0.5" stroke-linejoin="round" x1="452.885" y1="272.085" x2="451.158" y2="272.085"/>
		
			<line fill="none" stroke="#000000" stroke-width="0.5" stroke-linejoin="round" x1="133.51" y1="267.923" x2="135.162" y2="267.923"/>
		
			<line fill="none" stroke="#000000" stroke-width="0.5" stroke-linejoin="round" x1="452.885" y1="267.923" x2="451.158" y2="267.923"/>
		
			<line fill="none" stroke="#000000" stroke-width="0.5" stroke-linejoin="round" x1="133.51" y1="264.266" x2="135.162" y2="264.266"/>
		
			<line fill="none" stroke="#000000" stroke-width="0.5" stroke-linejoin="round" x1="452.885" y1="264.266" x2="451.158" y2="264.266"/>
		<polyline fill="none" stroke="#939598" stroke-linejoin="round" points="452.885,264.266 449.434,264.266 136.889,264.266 
			133.51,264.266 		"/>
		<text transform="matrix(1.0466 0 0 1 123.0845 267.3984)" font-size="9">1</text>
		
			<line fill="none" stroke="#000000" stroke-width="0.5" stroke-linejoin="round" x1="133.51" y1="239.943" x2="135.162" y2="239.943"/>
		
			<line fill="none" stroke="#000000" stroke-width="0.5" stroke-linejoin="round" x1="452.885" y1="239.943" x2="451.158" y2="239.943"/>
		
			<line fill="none" stroke="#000000" stroke-width="0.5" stroke-linejoin="round" x1="133.51" y1="225.667" x2="135.162" y2="225.667"/>
		
			<line fill="none" stroke="#000000" stroke-width="0.5" stroke-linejoin="round" x1="452.885" y1="225.667" x2="451.158" y2="225.667"/>
		
			<line fill="none" stroke="#000000" stroke-width="0.5" stroke-linejoin="round" x1="133.51" y1="215.555" x2="135.162" y2="215.555"/>
		
			<line fill="none" stroke="#000000" stroke-width="0.5" stroke-linejoin="round" x1="452.885" y1="215.555" x2="451.158" y2="215.555"/>
		
			<line fill="none" stroke="#000000" stroke-width="0.5" stroke-linejoin="round" x1="133.51" y1="207.734" x2="135.162" y2="207.734"/>
		
			<line fill="none" stroke="#000000" stroke-width="0.5" stroke-linejoin="round" x1="452.885" y1="207.734" x2="451.158" y2="207.734"/>
		
			<line fill="none" stroke="#000000" stroke-width="0.5" stroke-linejoin="round" x1="133.51" y1="201.35" x2="135.162" y2="201.35"/>
		
			<line fill="none" stroke="#000000" stroke-width="0.5" stroke-linejoin="round" x1="452.885" y1="201.35" x2="451.158" y2="201.35"/>
		
			<line fill="none" stroke="#000000" stroke-width="0.5" stroke-linejoin="round" x1="133.51" y1="195.968" x2="135.162" y2="195.968"/>
		
			<line fill="none" stroke="#000000" stroke-width="0.5" stroke-linejoin="round" x1="452.885" y1="195.968" x2="451.158" y2="195.968"/>
		
			<line fill="none" stroke="#000000" stroke-width="0.5" stroke-linejoin="round" x1="133.51" y1="191.233" x2="135.162" y2="191.233"/>
		
			<line fill="none" stroke="#000000" stroke-width="0.5" stroke-linejoin="round" x1="452.885" y1="191.233" x2="451.158" y2="191.233"/>
		
			<line fill="none" stroke="#000000" stroke-width="0.5" stroke-linejoin="round" x1="133.51" y1="187.145" x2="135.162" y2="187.145"/>
		
			<line fill="none" stroke="#000000" stroke-width="0.5" stroke-linejoin="round" x1="452.885" y1="187.145" x2="451.158" y2="187.145"/>
		
			<line fill="none" stroke="#000000" stroke-width="0.5" stroke-linejoin="round" x1="133.51" y1="183.414" x2="135.162" y2="183.414"/>
		
			<line fill="none" stroke="#000000" stroke-width="0.5" stroke-linejoin="round" x1="452.885" y1="183.414" x2="451.158" y2="183.414"/>
		<polyline fill="none" stroke="#939598" stroke-linejoin="round" points="452.885,183.414 449.434,183.414 136.889,183.414 
			133.51,183.414 		"/>
		<g>
			<text transform="matrix(1 0 0 1 121.6743 186.5513)" font-size="9">10</text>
		</g>
		
			<line fill="none" stroke="#000000" stroke-width="0.5" stroke-linejoin="round" x1="133.51" y1="159.093" x2="135.162" y2="159.093"/>
		
			<line fill="none" stroke="#000000" stroke-width="0.5" stroke-linejoin="round" x1="452.885" y1="159.093" x2="451.158" y2="159.093"/>
		
			<line fill="none" stroke="#000000" stroke-width="0.5" stroke-linejoin="round" x1="133.51" y1="144.816" x2="135.162" y2="144.816"/>
		
			<line fill="none" stroke="#000000" stroke-width="0.5" stroke-linejoin="round" x1="452.885" y1="144.816" x2="451.158" y2="144.816"/>
		
			<line fill="none" stroke="#000000" stroke-width="0.5" stroke-linejoin="round" x1="133.51" y1="134.77" x2="135.162" y2="134.77"/>
		
			<line fill="none" stroke="#000000" stroke-width="0.5" stroke-linejoin="round" x1="452.885" y1="134.77" x2="451.158" y2="134.77"/>
		
			<line fill="none" stroke="#000000" stroke-width="0.5" stroke-linejoin="round" x1="133.51" y1="126.877" x2="135.162" y2="126.877"/>
		
			<line fill="none" stroke="#000000" stroke-width="0.5" stroke-linejoin="round" x1="452.885" y1="126.877" x2="451.158" y2="126.877"/>
		
			<line fill="none" stroke="#000000" stroke-width="0.5" stroke-linejoin="round" x1="133.51" y1="120.491" x2="135.162" y2="120.491"/>
		
			<line fill="none" stroke="#000000" stroke-width="0.5" stroke-linejoin="round" x1="452.885" y1="120.491" x2="451.158" y2="120.491"/>
		
			<line fill="none" stroke="#000000" stroke-width="0.5" stroke-linejoin="round" x1="133.51" y1="115.111" x2="135.162" y2="115.111"/>
		
			<line fill="none" stroke="#000000" stroke-width="0.5" stroke-linejoin="round" x1="452.885" y1="115.111" x2="451.158" y2="115.111"/>
		
			<line fill="none" stroke="#000000" stroke-width="0.5" stroke-linejoin="round" x1="133.51" y1="110.376" x2="135.162" y2="110.376"/>
		
			<line fill="none" stroke="#000000" stroke-width="0.5" stroke-linejoin="round" x1="452.885" y1="110.376" x2="451.158" y2="110.376"/>
		
			<line fill="none" stroke="#000000" stroke-width="0.5" stroke-linejoin="round" x1="133.51" y1="106.288" x2="135.162" y2="106.288"/>
		
			<line fill="none" stroke="#000000" stroke-width="0.5" stroke-linejoin="round" x1="452.885" y1="106.288" x2="451.158" y2="106.288"/>
		
			<line fill="none" stroke="#000000" stroke-width="0.5" stroke-linejoin="round" x1="133.51" y1="102.557" x2="135.162" y2="102.557"/>
		
			<line fill="none" stroke="#000000" stroke-width="0.5" stroke-linejoin="round" x1="452.885" y1="102.557" x2="451.158" y2="102.557"/>
		<polyline fill="none" stroke="#939598" stroke-linejoin="round" points="452.885,102.557 449.434,102.557 136.889,102.557 
			133.51,102.557 		"/>
		<g>
			<text transform="matrix(1 0 0 1 116.6641 105.7065)" font-size="9">100</text>
		</g>
		
			<line fill="none" stroke="#000000" stroke-width="0.5" stroke-linejoin="round" x1="133.51" y1="78.236" x2="135.162" y2="78.236"/>
		
			<line fill="none" stroke="#000000" stroke-width="0.5" stroke-linejoin="round" x1="452.885" y1="78.236" x2="451.158" y2="78.236"/>
		
			<line fill="none" stroke="#000000" stroke-width="0.5" stroke-linejoin="round" x1="133.51" y1="64.032" x2="135.162" y2="64.032"/>
		
			<line fill="none" stroke="#000000" stroke-width="0.5" stroke-linejoin="round" x1="452.885" y1="64.032" x2="451.158" y2="64.032"/>
		
			<line fill="none" stroke="#000000" stroke-width="0.5" stroke-linejoin="round" x1="133.51" y1="53.919" x2="135.162" y2="53.919"/>
		
			<line fill="none" stroke="#000000" stroke-width="0.5" stroke-linejoin="round" x1="452.885" y1="53.919" x2="451.158" y2="53.919"/>
		
			<line fill="none" stroke="#000000" stroke-width="0.5" stroke-linejoin="round" x1="133.51" y1="46.099" x2="135.162" y2="46.099"/>
		
			<line fill="none" stroke="#000000" stroke-width="0.5" stroke-linejoin="round" x1="452.885" y1="46.099" x2="451.158" y2="46.099"/>
		
			<line fill="none" stroke="#000000" stroke-width="0.5" stroke-linejoin="round" x1="133.51" y1="39.642" x2="135.162" y2="39.642"/>
		
			<line fill="none" stroke="#000000" stroke-width="0.5" stroke-linejoin="round" x1="452.885" y1="39.642" x2="451.158" y2="39.642"/>
		
			<line fill="none" stroke="#000000" stroke-width="0.5" stroke-linejoin="round" x1="133.51" y1="34.263" x2="135.162" y2="34.263"/>
		
			<line fill="none" stroke="#000000" stroke-width="0.5" stroke-linejoin="round" x1="452.885" y1="34.263" x2="451.158" y2="34.263"/>
		
			<line fill="none" stroke="#000000" stroke-width="0.5" stroke-linejoin="round" x1="133.51" y1="29.601" x2="135.162" y2="29.601"/>
		
			<line fill="none" stroke="#000000" stroke-width="0.5" stroke-linejoin="round" x1="452.885" y1="29.601" x2="451.158" y2="29.601"/>
		
			<line fill="none" stroke="#000000" stroke-width="0.5" stroke-linejoin="round" x1="133.51" y1="25.438" x2="135.162" y2="25.438"/>
		
			<line fill="none" stroke="#000000" stroke-width="0.5" stroke-linejoin="round" x1="452.885" y1="25.438" x2="451.158" y2="25.438"/>
		<g>
			<text transform="matrix(1 0 0 1 111.6538 24.9341)" font-size="9">1000</text>
		</g>
		
			<rect x="236.014" y="76.523" fill="#CCDEF0" stroke="#CCDEF0" stroke-width="2" stroke-linejoin="round" width="162.002" height="96.128"/>
		<line fill="none" stroke="#ED1C24" stroke-dasharray="3.6" x1="296.016" y1="120.491" x2="296.016" y2="339.255"/>
		<g>
			<g>
				<line fill="none" stroke="#ED1C24" x1="296.016" y1="323.146" x2="296.016" y2="341.146"/>
				<path fill="#ED1C24" d="M296.631,342.562c0.3-0.992,0.575-1.637,0.895-2.433h-3.026c0.136,0.285,0.596,1.44,0.895,2.433
					c0.321,1.062,0.541,2.024,0.619,2.648C296.091,344.587,296.311,343.624,296.631,342.562z"/>
			</g>
		</g>
		<g>
			<g>
				<line fill="none" stroke="#ED1C24" x1="325.934" y1="130.034" x2="302.683" y2="130.034"/>
				<path fill="#ED1C24" d="M301.266,130.649c0.992,0.3,1.637,0.576,2.433,0.895v-3.026c-0.285,0.135-1.44,0.596-2.433,0.895
					c-1.062,0.321-2.024,0.54-2.648,0.618C299.241,130.109,300.204,130.329,301.266,130.649z"/>
			</g>
		</g>
		<g>
			<g>
				<line fill="none" stroke="#ED1C24" x1="325.934" y1="153.123" x2="325.934" y2="135.12"/>
				<path fill="#ED1C24" d="M325.318,133.703c-0.3,0.992-0.575,1.637-0.895,2.433h3.026c-0.136-0.285-0.596-1.441-0.895-2.433
					c-0.321-1.062-0.541-2.024-0.619-2.649C325.858,131.679,325.639,132.641,325.318,133.703z"/>
			</g>
		</g>
		<line fill="none" stroke="#ED1C24" stroke-dasharray="3.6" x1="325.934" y1="345.109" x2="325.934" y2="98.613"/>
		<g>
			<g>
				<g>
					<g>
						<g>
							<g>
								<g>
									<g>
										<g>
											<g>
												<g>
													<polyline fill="none" stroke="#003468" stroke-miterlimit="1" points="357.713,320.914 340.637,320.914 
														329.827,339.255 													"/>
													<path fill="#003468" d="M329.638,340.788c0.762-0.702,1.327-1.118,2.006-1.642l-2.607-1.536
														c-0.028,0.313-0.219,1.543-0.464,2.55c-0.263,1.077-0.562,2.019-0.812,2.596
														C328.145,342.258,328.822,341.54,329.638,340.788z"/>
												</g>
											</g>
										</g>
									</g>
								</g>
							</g>
						</g>
					</g>
				</g>
			</g>
		</g>
		<g>
			<g>
				<g>
					<g>
						<g>
							<g>
								<g>
									<g>
										<g>
											<g>
												<g>
													<polyline fill="none" stroke="#003468" stroke-miterlimit="1" points="357.713,153.722 340.637,153.722 
														329.827,135.378 													"/>
													<path fill="#003468" d="M328.578,134.469c0.245,1.007,0.335,1.703,0.464,2.55l2.607-1.537
														c-0.261-0.177-1.244-0.939-2.006-1.642c-0.815-0.752-1.493-1.47-1.878-1.968
														C328.016,132.451,328.315,133.392,328.578,134.469z"/>
												</g>
											</g>
										</g>
									</g>
								</g>
							</g>
						</g>
					</g>
				</g>
			</g>
		</g>
		<g>
			<g>
				<g>
					<g>
						<g>
							<g>
								<g>
									<g>
										<g>
											<g>
												<g>
													<polyline fill="none" stroke="#003468" stroke-miterlimit="1" points="257.088,320.914 274.164,320.914 
														288.573,339.255 													"/>
													<path fill="#003468" d="M289.933,339.989c-0.378-0.965-0.559-1.643-0.8-2.466l-2.38,1.87
														c0.282,0.141,1.358,0.765,2.207,1.359c0.908,0.637,1.676,1.259,2.122,1.701
														C290.759,341.915,290.336,341.022,289.933,339.989z"/>
												</g>
											</g>
										</g>
									</g>
								</g>
							</g>
						</g>
					</g>
				</g>
			</g>
		</g>
		<g>
			<g>
				<g>
					<g>
						<g>
							<g>
								<g>
									<g>
										<g>
											<g>
												<g>
													<polyline fill="none" stroke="#003468" stroke-miterlimit="1" points="260.688,108.344 277.764,108.344 
														292.173,126.688 													"/>
													<path fill="#003468" d="M293.532,127.422c-0.378-0.965-0.559-1.643-0.799-2.466l-2.381,1.87
														c0.282,0.141,1.358,0.765,2.207,1.36c0.908,0.637,1.675,1.258,2.122,1.701
														C294.357,129.348,293.936,128.455,293.532,127.422z"/>
												</g>
											</g>
										</g>
									</g>
								</g>
							</g>
						</g>
					</g>
				</g>
			</g>
		</g>
		<g>
			<text transform="matrix(1 0 0 1 322.8652 95.0142)" font-size="11">L</text>
		</g>
		<g>
			<text transform="matrix(1 0 0 1 240.3184 323.1328)"><tspan x="0" y="0" font-size="11">D</tspan><tspan x="7.944" y="5" font-size="9">M</tspan></text>
		</g>
		<g>
			<text transform="matrix(1 0 0 1 361.4434 323.1328)"><tspan x="0" y="0" font-size="11">D</tspan><tspan x="7.944" y="5" font-size="9">S</tspan></text>
		</g>
		<g>
			<text transform="matrix(1 0 0 1 359.9453 155.1543)"><tspan x="0" y="0" font-size="11">L</tspan><tspan x="6.118" y="5" font-size="9">S</tspan></text>
		</g>
		<g>
			<text transform="matrix(1 0 0 1 245.8125 110.1426)"><tspan x="0" y="0" font-size="11">L</tspan><tspan x="6.118" y="5" font-size="9">M</tspan></text>
		</g>
		<g>
			
				<rect x="148.25" y="35.702" fill="#CCDEF0" stroke="#CCDEF0" stroke-width="2" stroke-linejoin="round" width="111.291" height="42.261"/>
			
				<line fill="none" stroke="#2E3192" stroke-width="2" stroke-linejoin="round" stroke-dasharray="6" x1="182.163" y1="50.19" x2="155.162" y2="50.19"/>
			
				<line fill="none" stroke="#2E3192" stroke-width="2" stroke-linejoin="round" x1="182.163" y1="64.523" x2="155.162" y2="64.523"/>
			<g>
				<text transform="matrix(1 0 0 1 188.291 52.8862)"><tspan x="0" y="0" font-size="10">MEASURED</tspan><tspan x="0.835" y="15.333" font-size="10">STANDARD</tspan></text>
			</g>
		</g>
		<polyline fill="none" stroke="#2E3192" stroke-width="2" stroke-linejoin="round" stroke-dasharray="6" points="139.666,265.34 
			164.366,241.522 195.3,202.57 226.159,175.02 257.094,152.563 287.947,135.129 318.879,120.134 349.809,107.865 380.664,96.961 
			411.594,87.776 442.451,79.956 		"/>
		<polyline fill="none" stroke="#2E3192" stroke-width="2" stroke-linejoin="round" points="134.261,267.35 142.219,256.661 
			150.252,247.047 158.209,238.365 166.243,230.33 174.201,222.871 182.161,215.912 190.193,209.386 198.153,203.215 
			206.112,197.403 214.146,191.807 222.104,186.425 230.063,181.262 238.098,176.311 246.057,171.504 254.016,166.913 
			262.049,162.394 270.008,158.016 277.963,153.784 285.996,149.623 293.955,145.533 301.91,141.587 309.943,137.642 
			317.902,133.837 325.934,130.034 333.895,126.376 341.852,122.717 349.883,119.129 357.844,115.614 365.801,112.099 
			373.834,108.655 381.791,105.21 389.75,101.839 397.781,98.538 405.74,95.167 413.695,91.938 421.729,88.639 429.688,85.408 
			437.645,82.183 		"/>
	</g>
</g>
</svg>
