<?xml version="1.0" encoding="utf-8"?>
<!-- $Source: /home/bbennett/pass/archive/DicomXml/docbook/part14/figures/PS3.14_D.2-3.svg,v $ -->
<!-- $Date: 2014/05/09 13:15:42 $ -->
<!-- $Revision: 1.1 $ -->

<!DOCTYPE svg PUBLIC "-//W3C//DTD SVG 1.1//EN" "http://www.w3.org/Graphics/SVG/1.1/DTD/svg11.dtd">
<svg version="1.1" id="Layer_1" xmlns="http://www.w3.org/2000/svg" xmlns:xlink="http://www.w3.org/1999/xlink" x="0px" y="0px"
	 width="502px" height="402px" viewBox="0 0 502 402" enable-background="new 0 0 502 402" xml:space="preserve">

<defs>
	<style type="text/css">
	text {
	  font-family: Helvetica, Verdana, ArialUnicodeMS, san-serif
	}
	</style>
</defs>

<g>
   <desc>
	PS 3.14 Part 14: Grayscale Standard Display Function
   </desc>
</g>

<g>
	<rect x="1" y="1" fill="#F5EED6" width="500" height="400"/>
	<g>
		<g>
			<text transform="matrix(1 0 0 1 41.5098 183.3174)"><tspan x="0" y="0" font-size="11">OPTICAL</tspan><tspan x="-0.304" y="15.333" font-size="11">DENSITY</tspan></text>
		</g>
		<g>
			<text transform="matrix(1 0 0 1 262.2988 382.0859)" font-size="11">P-VALUE</text>
		</g>
		<rect x="122.18" y="22.374" fill="#CCDEF0" stroke="#000000" width="328.595" height="328.683"/>
		<g>
			<text transform="matrix(1 0 0 1 119.4292 363.1396)" font-size="11">0</text>
		</g>
		<polyline fill="none" stroke="#939598" stroke-linejoin="round" points="204.351,22.374 204.351,25.707 204.351,347.724 
			204.351,351.057 		"/>
		<g>
			<text transform="matrix(1 0 0 1 198.8501 363.1396)" font-size="11">64</text>
		</g>
		<polyline fill="none" stroke="#939598" stroke-linejoin="round" points="286.524,22.374 286.524,25.707 286.524,347.724 
			286.524,351.057 		"/>
		<g>
			<text transform="matrix(1 0 0 1 278.1904 363.1396)" font-size="11">128</text>
		</g>
		<polyline fill="none" stroke="#939598" stroke-linejoin="round" points="368.607,22.374 368.607,25.707 368.607,347.724 
			368.607,351.057 		"/>
		<g>
			<text transform="matrix(1 0 0 1 360.2744 363.1396)" font-size="11">192</text>
		</g>
		<g>
			<text transform="matrix(1 0 0 1 442.4404 363.1396)" font-size="11">256</text>
		</g>
		<g>
			<text transform="matrix(1 0 0 1 99.3628 354.7236)" font-size="11">0.0</text>
		</g>
		<polyline fill="none" stroke="#939598" stroke-linejoin="round" points="450.774,296.224 447.524,296.224 125.43,296.224 
			122.18,296.224 		"/>
		<g>
			<text transform="matrix(1 0 0 1 99.3628 299.8896)" font-size="11">0.5</text>
		</g>
		<polyline fill="none" stroke="#939598" stroke-linejoin="round" points="450.774,241.474 447.524,241.474 125.43,241.474 
			122.18,241.474 		"/>
		<g>
			<text transform="matrix(1 0 0 1 99.3628 245.1396)" font-size="11">1.0</text>
		</g>
		<polyline fill="none" stroke="#939598" stroke-linejoin="round" points="450.774,186.72 447.524,186.72 125.43,186.72 
			122.18,186.72 		"/>
		<g>
			<text transform="matrix(1 0 0 1 99.3628 190.3872)" font-size="11">1.5</text>
		</g>
		<polyline fill="none" stroke="#939598" stroke-linejoin="round" points="450.774,131.963 447.524,131.963 125.43,131.963 
			122.18,131.963 		"/>
		<g>
			<text transform="matrix(1 0 0 1 99.3628 135.6299)" font-size="11">2.0</text>
		</g>
		<polyline fill="none" stroke="#939598" stroke-linejoin="round" points="450.774,77.207 447.524,77.207 125.43,77.207 
			122.18,77.207 		"/>
		<g>
			<text transform="matrix(1 0 0 1 99.3628 80.8735)" font-size="11">2.5</text>
		</g>
		<g>
			<text transform="matrix(1 0 0 1 99.3628 26.0396)" font-size="11">3.0</text>
		</g>
		<polyline fill="none" stroke="#2E3192" stroke-width="2.5981" stroke-linejoin="round" points="122.18,22.374 123.43,29.457 
			124.764,35.54 126.014,41.29 127.347,46.29 128.597,51.04 129.847,55.29 131.18,59.457 132.43,63.124 133.764,66.79 
			135.014,70.207 136.264,73.457 137.597,76.54 138.847,79.457 140.18,82.207 141.43,84.957 142.68,87.624 144.014,90.124 
			145.264,92.541 146.597,94.958 147.847,97.208 149.097,99.375 150.43,101.626 151.68,103.709 153.014,105.792 154.264,107.709 
			155.514,109.71 156.847,111.71 158.097,113.543 159.43,115.293 160.68,117.128 161.93,118.878 163.264,120.628 164.514,122.294 
			165.847,123.962 167.097,125.629 168.347,127.212 169.68,128.879 170.93,130.38 172.264,131.963 173.514,133.463 174.764,134.88 
			176.098,136.463 177.348,137.881 178.681,139.297 179.931,140.714 181.265,142.131 182.515,143.547 183.766,144.882 
			185.099,146.215 186.349,147.632 187.682,148.965 188.932,150.215 190.182,151.548 191.517,152.799 192.767,154.049 
			194.1,155.299 195.35,156.633 196.6,157.799 197.934,158.966 199.184,160.217 200.518,161.384 201.768,162.634 203.018,163.8 
			204.351,165.05 205.602,166.134 206.935,167.301 208.185,168.468 209.435,169.635 210.769,170.718 212.02,171.801 
			213.353,172.885 214.603,174.052 215.853,175.219 217.186,176.302 218.436,177.302 219.771,178.386 221.021,179.469 
			222.271,180.552 223.604,181.553 224.854,182.637 226.187,183.803 227.438,184.72 228.688,185.803 230.021,186.803 
			231.271,187.803 232.604,188.888 233.855,189.888 235.105,190.888 236.438,191.888 237.688,192.888 239.022,193.971 
			240.272,194.971 241.523,195.889 242.856,196.889 244.106,197.889 245.439,198.805 246.689,199.722 247.94,200.722 
			249.274,201.722 250.524,202.723 251.857,203.556 253.107,204.556 254.357,205.556 255.69,206.473 256.94,207.391 
			258.274,208.307 259.524,209.307 260.774,210.141 262.107,211.141 263.357,212.057 264.69,212.974 265.94,213.891 267.19,214.724 
			268.524,215.724 269.774,216.641 271.107,217.474 272.357,218.391 273.607,219.391 274.94,220.224 276.19,221.141 
			277.524,221.974 278.774,222.891 280.024,223.724 281.357,224.641 282.607,225.474 283.94,226.391 285.19,227.224 
			286.524,228.141 287.774,228.974 289.024,229.891 290.357,230.724 291.607,231.641 292.94,232.474 294.19,233.391 295.44,234.224 
			296.774,235.141 298.024,235.891 299.357,236.807 300.607,237.641 301.857,238.557 303.19,239.307 304.44,240.141 
			305.774,241.057 307.024,241.891 308.274,242.724 309.607,243.557 310.857,244.474 312.19,245.224 313.44,246.057 314.69,246.891 
			316.024,247.724 317.274,248.641 318.607,249.391 319.857,250.224 321.107,251.057 322.44,251.891 323.69,252.641 
			325.024,253.557 326.274,254.307 327.524,255.141 328.857,255.974 330.107,256.807 331.44,257.557 332.69,258.474 333.94,259.224 
			335.274,259.974 336.524,260.891 337.857,261.641 339.107,262.557 340.357,263.307 341.69,264.057 342.94,264.891 
			344.274,265.724 345.524,266.474 346.774,267.307 348.107,268.141 349.357,268.891 350.69,269.724 351.94,270.474 353.19,271.307 
			354.524,272.057 355.774,272.891 357.107,273.724 358.357,274.474 359.607,275.224 360.94,276.057 362.19,276.891 
			363.524,277.641 364.774,278.391 366.024,279.141 367.357,280.057 368.607,280.807 369.94,281.557 371.19,282.307 372.44,283.141 
			373.774,283.891 375.024,284.641 376.357,285.557 377.607,286.307 378.857,287.057 380.19,287.807 381.44,288.557 
			382.774,289.391 384.024,290.141 385.274,290.891 386.607,291.641 387.857,292.557 389.19,293.307 390.44,294.057 391.69,294.807 
			393.024,295.557 394.274,296.391 395.607,297.141 396.857,297.891 398.19,298.641 399.44,299.391 400.69,300.224 402.024,300.974 
			403.274,301.724 404.607,302.474 405.857,303.224 407.107,304.057 408.44,304.807 409.69,305.557 411.024,306.307 
			412.274,307.057 413.524,307.891 414.857,308.641 416.107,309.391 417.44,310.141 418.69,310.891 419.94,311.724 421.274,312.474 
			422.524,313.224 423.857,313.974 425.107,314.724 426.357,315.557 427.69,316.307 428.94,316.974 430.274,317.724 
			431.524,318.474 432.774,319.224 434.107,320.057 435.357,320.807 436.69,321.557 437.94,322.307 439.19,323.057 440.524,323.891 
			441.774,324.641 443.107,325.391 444.357,326.057 445.607,326.807 446.94,327.557 448.19,328.307 449.524,329.141 		"/>
	</g>
</g>
</svg>
