<?xml version="1.0" encoding="utf-8"?>
<!-- $Source: /home/bbennett/pass/archive/DicomXml/docbook/part16/figures/PS3.16_A-6.svg,v $ -->
<!-- $Date: 2014/02/18 14:35:29 $ -->
<!-- $Revision: 1.1 $ -->

<!DOCTYPE svg PUBLIC "-//W3C//DTD SVG 1.1//EN" "http://www.w3.org/Graphics/SVG/1.1/DTD/svg11.dtd">

<svg version="1.1" id="Layer_1" xmlns="http://www.w3.org/2000/svg" xmlns:xlink="http://www.w3.org/1999/xlink" x="0px" y="0px"
	 width="502px" height="452px" viewBox="0 0 502 452" enable-background="new 0 0 502 452" xml:space="preserve">

<defs>
	<style type="text/css">
	text {
	  font-family: Helvetica, Verdana, ArialUnicodeMS, san-serif
	}
	</style>
</defs>

<g>
   <desc>
	PS 3.16 Part 16: Content Mapping Resource
   </desc>
   <title>
	Figure A-6: Hemodynamic Report Template Hierarchy 
   </title>
</g>

<g>
	<rect x="1" y="1" fill="#F5EED6" width="500" height="450"/>
	<g>
		<path fill="#CCDEF0" d="M97.302,25.194c0-1.98,1.62-3.6,3.6-3.6h53.827c1.98,0,3.6,1.62,3.6,3.6v12.949c0,1.98-1.62,3.6-3.6,3.6
			h-53.827c-1.98,0-3.6-1.62-3.6-3.6V25.194z"/>
		
			<path fill="none" stroke="#010101" stroke-width="0.75" stroke-linecap="round" stroke-linejoin="round" stroke-miterlimit="1" d="
			M97.302,25.194c0-1.98,1.62-3.6,3.6-3.6h53.827c1.98,0,3.6,1.62,3.6,3.6v12.949c0,1.98-1.62,3.6-3.6,3.6h-53.827
			c-1.98,0-3.6-1.62-3.6-3.6V25.194z"/>
	</g>
	<text transform="matrix(1 0 0 1 107.1934 29.9106)"><tspan x="0" y="0" font-size="6">Hemodynamics</tspan><tspan x="0" y="7.2" font-size="6">Report Root</tspan></text>
	<text transform="matrix(1 0 0 1 96.6255 18.0181)" font-size="7">TID 3500</text>
	<g>
		<path fill="#CCDEF0" d="M178.516,64.26c0-1.98,1.62-3.6,3.6-3.6h53.826c1.98,0,3.6,1.62,3.6,3.6v12.95c0,1.98-1.62,3.6-3.6,3.6
			h-53.826c-1.98,0-3.6-1.62-3.6-3.6V64.26z"/>
		
			<path fill="none" stroke="#010101" stroke-width="0.75" stroke-linecap="round" stroke-linejoin="round" stroke-miterlimit="1" d="
			M178.516,64.26c0-1.98,1.62-3.6,3.6-3.6h53.826c1.98,0,3.6,1.62,3.6,3.6v12.95c0,1.98-1.62,3.6-3.6,3.6h-53.826
			c-1.98,0-3.6-1.62-3.6-3.6V64.26z"/>
	</g>
	<text transform="matrix(1 0 0 1 188.7661 68.9795)"><tspan x="0" y="0" font-size="6">Lab Procedure</tspan><tspan x="0" y="7.2" font-size="6">Context</tspan></text>
	<text transform="matrix(1 0 0 1 177.9199 57.5835)" font-size="7">TID 3601</text>
	<g>
		<path fill="#CCDEF0" d="M178.516,25.194c0-1.98,1.62-3.6,3.6-3.6h53.826c1.98,0,3.6,1.62,3.6,3.6v12.949c0,1.98-1.62,3.6-3.6,3.6
			h-53.826c-1.98,0-3.6-1.62-3.6-3.6V25.194z"/>
		
			<path fill="none" stroke="#010101" stroke-width="0.75" stroke-linecap="round" stroke-linejoin="round" stroke-miterlimit="1" d="
			M178.516,25.194c0-1.98,1.62-3.6,3.6-3.6h53.826c1.98,0,3.6,1.62,3.6,3.6v12.949c0,1.98-1.62,3.6-3.6,3.6h-53.826
			c-1.98,0-3.6-1.62-3.6-3.6V25.194z"/>
	</g>
	<text transform="matrix(1 0 0 1 181.5166 29.9126)"><tspan x="0" y="0" font-size="6">Hemodynamics</tspan><tspan x="0" y="7.2" font-size="6">Measurement Group</tspan></text>
	<text transform="matrix(1 0 0 1 177.9189 18.0181)" font-size="7">TID 3501</text>
	<text transform="matrix(1 0 0 1 177.8389 135.998)" font-size="7">TID 3570</text>
	<text transform="matrix(1 0 0 1 177.9199 175.5884)" font-size="7">TID 3603</text>
	<text transform="matrix(1 0 0 1 177.8389 96.4316)" font-size="7">TID 3602</text>
	<g>
		<path fill="#CCDEF0" d="M178.519,142.674c0-1.98,1.62-3.6,3.6-3.6h53.82c1.98,0,3.6,1.62,3.6,3.6v12.949c0,1.98-1.62,3.6-3.6,3.6
			h-53.82c-1.98,0-3.6-1.62-3.6-3.6V142.674z"/>
		
			<path fill="none" stroke="#010101" stroke-width="0.75" stroke-linecap="round" stroke-linejoin="round" stroke-miterlimit="1" d="
			M178.519,142.674c0-1.98,1.62-3.6,3.6-3.6h53.82c1.98,0,3.6,1.62,3.6,3.6v12.949c0,1.98-1.62,3.6-3.6,3.6h-53.82
			c-1.98,0-3.6-1.62-3.6-3.6V142.674z"/>
	</g>
	<g>
		<path fill="#CCDEF0" d="M178.519,103.607c0-1.98,1.62-3.6,3.6-3.6h53.82c1.98,0,3.6,1.62,3.6,3.6v12.95c0,1.98-1.62,3.6-3.6,3.6
			h-53.82c-1.98,0-3.6-1.62-3.6-3.6V103.607z"/>
		
			<path fill="none" stroke="#010101" stroke-width="0.75" stroke-linecap="round" stroke-linejoin="round" stroke-miterlimit="1" d="
			M178.519,103.607c0-1.98,1.62-3.6,3.6-3.6h53.82c1.98,0,3.6,1.62,3.6,3.6v12.95c0,1.98-1.62,3.6-3.6,3.6h-53.82
			c-1.98,0-3.6-1.62-3.6-3.6V103.607z"/>
	</g>
	<text transform="matrix(1 0 0 1 188.7661 108.3262)"><tspan x="0" y="0" font-size="6">Patient</tspan><tspan x="0" y="7.2" font-size="6">Characteristics</tspan></text>
	<g>
		<path fill="#CCDEF0" d="M259.902,103.693c0-1.98,1.62-3.6,3.6-3.6h53.827c1.979,0,3.6,1.62,3.6,3.6v12.95c0,1.98-1.62,3.6-3.6,3.6
			h-53.827c-1.979,0-3.6-1.62-3.6-3.6V103.693z"/>
		
			<path fill="none" stroke="#010101" stroke-width="0.75" stroke-linecap="round" stroke-linejoin="round" stroke-miterlimit="1" d="
			M259.902,103.693c0-1.98,1.62-3.6,3.6-3.6h53.827c1.979,0,3.6,1.62,3.6,3.6v12.95c0,1.98-1.62,3.6-3.6,3.6h-53.827
			c-1.979,0-3.6-1.62-3.6-3.6V103.693z"/>
	</g>
	<text transform="matrix(1 0 0 1 269.5078 108.4121)"><tspan x="0" y="0" font-size="6">Cardiac Output</tspan><tspan x="0" y="7.2" font-size="6">by Dilution</tspan></text>
	<text transform="matrix(1 0 0 1 259.2246 96.5171)" font-size="7">TID 3515</text>
	<g>
		<path fill="#CCDEF0" d="M259.9,64.26c0-1.98,1.62-3.6,3.6-3.6h53.827c1.979,0,3.6,1.62,3.6,3.6v12.95c0,1.98-1.62,3.6-3.6,3.6
			H263.5c-1.979,0-3.6-1.62-3.6-3.6V64.26z"/>
		
			<path fill="none" stroke="#010101" stroke-width="0.75" stroke-linecap="round" stroke-linejoin="round" stroke-miterlimit="1" d="
			M259.9,64.26c0-1.98,1.62-3.6,3.6-3.6h53.827c1.979,0,3.6,1.62,3.6,3.6v12.95c0,1.98-1.62,3.6-3.6,3.6H263.5
			c-1.979,0-3.6-1.62-3.6-3.6V64.26z"/>
	</g>
	<text transform="matrix(1 0 0 1 269.5078 68.9795)" font-size="6">Vital Signs</text>
	<text transform="matrix(1 0 0 1 259.2246 57.5835)" font-size="7">TID 3510</text>
	<g>
		<path fill="#CCDEF0" d="M259.9,25.194c0-1.98,1.62-3.6,3.6-3.6h53.827c1.979,0,3.6,1.62,3.6,3.6v12.949c0,1.98-1.62,3.6-3.6,3.6
			H263.5c-1.979,0-3.6-1.62-3.6-3.6V25.194z"/>
		
			<path fill="none" stroke="#010101" stroke-width="0.75" stroke-linecap="round" stroke-linejoin="round" stroke-miterlimit="1" d="
			M259.9,25.194c0-1.98,1.62-3.6,3.6-3.6h53.827c1.979,0,3.6,1.62,3.6,3.6v12.949c0,1.98-1.62,3.6-3.6,3.6H263.5
			c-1.979,0-3.6-1.62-3.6-3.6V25.194z"/>
	</g>
	<text transform="matrix(1 0 0 1 269.5078 29.9126)"><tspan x="0" y="0" font-size="6">Hemodynamics</tspan><tspan x="0" y="7.2" font-size="6">Clinical Context</tspan></text>
	<text transform="matrix(1 0 0 1 259.2246 18.0181)" font-size="7">TID 3520</text>
	<text transform="matrix(1 0 0 1 259.2246 175.5898)" font-size="7">TID 3560</text>
	<text transform="matrix(1 0 0 1 259.2246 135.998)" font-size="7">TID 3516</text>
	<g>
		<path fill="#CCDEF0" d="M259.902,142.674c0-1.98,1.62-3.6,3.6-3.6h53.821c1.979,0,3.6,1.62,3.6,3.6v12.949
			c0,1.98-1.62,3.6-3.6,3.6h-53.821c-1.979,0-3.6-1.62-3.6-3.6V142.674z"/>
		
			<path fill="none" stroke="#010101" stroke-width="0.75" stroke-linecap="round" stroke-linejoin="round" stroke-miterlimit="1" d="
			M259.902,142.674c0-1.98,1.62-3.6,3.6-3.6h53.821c1.979,0,3.6,1.62,3.6,3.6v12.949c0,1.98-1.62,3.6-3.6,3.6h-53.821
			c-1.979,0-3.6-1.62-3.6-3.6V142.674z"/>
	</g>
	<text transform="matrix(1 0 0 1 269.5078 147.3926)"><tspan x="0" y="0" font-size="6">Blood Oxygen</tspan><tspan x="0" y="7.2" font-size="6">Measurements</tspan></text>
	<g>
		<path fill="#CCDEF0" d="M259.902,423.637c0-1.979,1.62-3.6,3.6-3.6h53.828c1.979,0,3.6,1.62,3.6,3.6v12.951
			c0,1.979-1.62,3.6-3.6,3.6h-53.828c-1.979,0-3.6-1.62-3.6-3.6V423.637z"/>
		
			<path fill="none" stroke="#010101" stroke-width="0.75" stroke-linecap="round" stroke-linejoin="round" stroke-miterlimit="1" d="
			M259.902,423.637c0-1.979,1.62-3.6,3.6-3.6h53.828c1.979,0,3.6,1.62,3.6,3.6v12.951c0,1.979-1.62,3.6-3.6,3.6h-53.828
			c-1.979,0-3.6-1.62-3.6-3.6V423.637z"/>
	</g>
	<text transform="matrix(1 0 0 1 269.5078 428.3516)"><tspan x="0" y="0" font-size="6">Blood Velocity</tspan><tspan x="0" y="7.2" font-size="6">Measurement</tspan></text>
	<text transform="matrix(1 0 0 1 259.2266 416.9756)" font-size="7">TID 3509</text>
	<g>
		<path fill="#CCDEF0" d="M259.902,345.113c0-1.979,1.62-3.6,3.6-3.6h53.828c1.979,0,3.6,1.62,3.6,3.6v12.951
			c0,1.979-1.62,3.6-3.6,3.6h-53.828c-1.979,0-3.6-1.62-3.6-3.6V345.113z"/>
		
			<path fill="none" stroke="#010101" stroke-width="0.75" stroke-linecap="round" stroke-linejoin="round" stroke-miterlimit="1" d="
			M259.902,345.113c0-1.979,1.62-3.6,3.6-3.6h53.828c1.979,0,3.6,1.62,3.6,3.6v12.951c0,1.979-1.62,3.6-3.6,3.6h-53.828
			c-1.979,0-3.6-1.62-3.6-3.6V345.113z"/>
	</g>
	<text transform="matrix(1 0 0 1 263.748 349.8301)"><tspan x="0" y="0" font-size="6">Ventricular Pressure</tspan><tspan x="0" y="7.2" font-size="6">Measurement</tspan></text>
	<text transform="matrix(1 0 0 1 259.2266 338.4336)" font-size="7">TID 3507</text>
	<g>
		<path fill="#CCDEF0" d="M259.902,306.047c0-1.979,1.62-3.6,3.6-3.6h53.828c1.979,0,3.6,1.62,3.6,3.6v12.951
			c0,1.979-1.62,3.6-3.6,3.6h-53.828c-1.979,0-3.6-1.62-3.6-3.6V306.047z"/>
		
			<path fill="none" stroke="#010101" stroke-width="0.75" stroke-linecap="round" stroke-linejoin="round" stroke-miterlimit="1" d="
			M259.902,306.047c0-1.979,1.62-3.6,3.6-3.6h53.828c1.979,0,3.6,1.62,3.6,3.6v12.951c0,1.979-1.62,3.6-3.6,3.6h-53.828
			c-1.979,0-3.6-1.62-3.6-3.6V306.047z"/>
	</g>
	<text transform="matrix(1 0 0 1 269.5078 310.7617)"><tspan x="0" y="0" font-size="6">Venous Pressure</tspan><tspan x="0" y="7.199" font-size="6">Measurement</tspan></text>
	<text transform="matrix(1 0 0 1 259.2266 298.8672)" font-size="7">TID 3506</text>
	<g>
		<path fill="#CCDEF0" d="M259.902,384.375c0-1.979,1.62-3.6,3.6-3.6h53.828c1.979,0,3.6,1.62,3.6,3.6v12.951
			c0,1.979-1.62,3.6-3.6,3.6h-53.828c-1.979,0-3.6-1.62-3.6-3.6V384.375z"/>
		
			<path fill="none" stroke="#010101" stroke-width="0.75" stroke-linecap="round" stroke-linejoin="round" stroke-miterlimit="1" d="
			M259.902,384.375c0-1.979,1.62-3.6,3.6-3.6h53.828c1.979,0,3.6,1.62,3.6,3.6v12.951c0,1.979-1.62,3.6-3.6,3.6h-53.828
			c-1.979,0-3.6-1.62-3.6-3.6V384.375z"/>
	</g>
	<text transform="matrix(1 0 0 1 269.5068 389.0898)"><tspan x="0" y="0" font-size="6">Gradient</tspan><tspan x="0" y="7.2" font-size="6">Measurement</tspan></text>
	<text transform="matrix(1 0 0 1 259.2266 378.0254)" font-size="7">TID 3508</text>
	<g>
		<path fill="#CCDEF0" d="M259.902,227.57c0-1.979,1.62-3.6,3.6-3.6h53.828c1.979,0,3.6,1.62,3.6,3.6v12.951
			c0,1.979-1.62,3.6-3.6,3.6h-53.828c-1.979,0-3.6-1.62-3.6-3.6V227.57z"/>
		
			<path fill="none" stroke="#010101" stroke-width="0.75" stroke-linecap="round" stroke-linejoin="round" stroke-miterlimit="1" d="
			M259.902,227.57c0-1.979,1.62-3.6,3.6-3.6h53.828c1.979,0,3.6,1.62,3.6,3.6v12.951c0,1.979-1.62,3.6-3.6,3.6h-53.828
			c-1.979,0-3.6-1.62-3.6-3.6V227.57z"/>
	</g>
	<text transform="matrix(1 0 0 1 269.5127 232.2852)"><tspan x="0" y="0" font-size="6">Arterial Pressure</tspan><tspan x="0" y="7.2" font-size="6">Measurement</tspan></text>
	<text transform="matrix(1 0 0 1 259.2266 220.8887)" font-size="7">TID 3504</text>
	<g>
		<path fill="#CCDEF0" d="M259.902,266.832c0-1.979,1.62-3.6,3.6-3.6h53.828c1.979,0,3.6,1.62,3.6,3.6v12.949
			c0,1.979-1.62,3.6-3.6,3.6h-53.828c-1.979,0-3.6-1.62-3.6-3.6V266.832z"/>
		
			<path fill="none" stroke="#010101" stroke-width="0.75" stroke-linecap="round" stroke-linejoin="round" stroke-miterlimit="1" d="
			M259.902,266.832c0-1.979,1.62-3.6,3.6-3.6h53.828c1.979,0,3.6,1.62,3.6,3.6v12.949c0,1.979-1.62,3.6-3.6,3.6h-53.828
			c-1.979,0-3.6-1.62-3.6-3.6V266.832z"/>
	</g>
	<text transform="matrix(1 0 0 1 269.5137 271.5469)"><tspan x="0" y="0" font-size="6">Atrial Pressure</tspan><tspan x="0" y="7.2" font-size="6">Measurement</tspan></text>
	<text transform="matrix(1 0 0 1 259.2266 260.4824)" font-size="7">TID 3505</text>
	<g>
		<path fill="#CCDEF0" d="M344.348,267.17c0-1.979,1.62-3.6,3.6-3.6h53.828c1.979,0,3.6,1.62,3.6,3.6v12.947
			c0,1.979-1.62,3.6-3.6,3.6h-53.828c-1.979,0-3.6-1.62-3.6-3.6V267.17z"/>
		
			<path fill="none" stroke="#010101" stroke-width="0.75" stroke-linecap="round" stroke-linejoin="round" stroke-miterlimit="1" d="
			M344.348,267.17c0-1.979,1.62-3.6,3.6-3.6h53.828c1.979,0,3.6,1.62,3.6,3.6v12.947c0,1.979-1.62,3.6-3.6,3.6h-53.828
			c-1.979,0-3.6-1.62-3.6-3.6V267.17z"/>
	</g>
	<text transform="matrix(1 0 0 1 348.3555 271.8848)"><tspan x="0" y="0" font-size="6">Pressure Waveform</tspan><tspan x="0" y="7.2" font-size="6">Measurements</tspan></text>
	<text transform="matrix(1 0 0 1 343.6748 260.4883)" font-size="7">TID 3550</text>
	<g>
		<path fill="#CCDEF0" d="M344.348,228.105c0-1.979,1.62-3.6,3.6-3.6h53.828c1.979,0,3.6,1.62,3.6,3.6v12.951
			c0,1.979-1.62,3.6-3.6,3.6h-53.828c-1.979,0-3.6-1.62-3.6-3.6V228.105z"/>
		
			<path fill="none" stroke="#010101" stroke-width="0.75" stroke-linecap="round" stroke-linejoin="round" stroke-miterlimit="1" d="
			M344.348,228.105c0-1.979,1.62-3.6,3.6-3.6h53.828c1.979,0,3.6,1.62,3.6,3.6v12.951c0,1.979-1.62,3.6-3.6,3.6h-53.828
			c-1.979,0-3.6-1.62-3.6-3.6V228.105z"/>
	</g>
	<text transform="matrix(1 0 0 1 349.1855 232.8184)"><tspan x="0" y="0" font-size="6">Hemodynamic</tspan><tspan x="0" y="7.199" font-size="6">Acquisition Context</tspan></text>
	<text transform="matrix(1 0 0 1 343.6748 220.9243)" font-size="7">TID 3530</text>
	<g>
		<path fill="#CCDEF0" d="M259.903,181.936c0-1.98,1.62-3.6,3.6-3.6h53.578c1.979,0,3.6,1.62,3.6,3.6v19.567
			c0,1.98-1.62,3.6-3.6,3.6h-53.578c-1.979,0-3.6-1.62-3.6-3.6V181.936z"/>
		
			<path fill="none" stroke="#010101" stroke-width="0.75" stroke-linecap="round" stroke-linejoin="round" stroke-miterlimit="1" d="
			M259.903,181.936c0-1.98,1.62-3.6,3.6-3.6h53.578c1.979,0,3.6,1.62,3.6,3.6v19.567c0,1.98-1.62,3.6-3.6,3.6h-53.578
			c-1.979,0-3.6-1.62-3.6-3.6V181.936z"/>
	</g>
	<g>
		<g>
			
				<line fill="none" stroke="#000000" stroke-width="0.75" stroke-linecap="round" stroke-linejoin="round" x1="158.329" y1="29.832" x2="171.896" y2="29.832"/>
			<g>
				<polygon points="170.41,32.011 178.541,29.832 170.41,27.653 				"/>
			</g>
		</g>
	</g>
	<g>
		<g>
			
				<line fill="none" stroke="#000000" stroke-width="0.75" stroke-linecap="round" stroke-linejoin="round" x1="320.93" y1="233.635" x2="337.703" y2="233.635"/>
			<g>
				<polygon points="336.217,235.813 344.348,233.635 336.217,231.456 				"/>
			</g>
		</g>
	</g>
	<g>
		<g>
			
				<line fill="none" stroke="#000000" stroke-width="0.75" stroke-linecap="round" stroke-linejoin="round" x1="320.93" y1="273.235" x2="337.703" y2="273.235"/>
			<g>
				<polygon points="336.217,275.414 344.348,273.235 336.217,271.057 				"/>
			</g>
		</g>
	</g>
	<g>
		<g>
			<polyline fill="none" stroke="#000000" stroke-width="0.75" stroke-linecap="round" stroke-linejoin="round" points="
				166.382,29.832 166.382,70.735 171.785,70.735 			"/>
			<g>
				<polygon points="170.299,72.914 178.429,70.735 170.299,68.557 				"/>
			</g>
		</g>
	</g>
	<g>
		<g>
			<polyline fill="none" stroke="#000000" stroke-width="0.75" stroke-linecap="round" stroke-linejoin="round" points="
				166.382,70.907 166.382,110.168 171.785,110.168 			"/>
			<g>
				<polygon points="170.299,112.347 178.429,110.168 170.299,107.989 				"/>
			</g>
		</g>
	</g>
	<g>
		<g>
			<polyline fill="none" stroke="#000000" stroke-width="0.75" stroke-linecap="round" stroke-linejoin="round" points="
				166.382,110.255 166.382,149.149 171.785,149.149 			"/>
			<g>
				<polygon points="170.299,151.328 178.429,149.149 170.299,146.971 				"/>
			</g>
		</g>
	</g>
	<g>
		<g>
			<polyline fill="none" stroke="#000000" stroke-width="0.75" stroke-linecap="round" stroke-linejoin="round" points="
				166.382,148.818 166.382,191.72 171.785,191.72 			"/>
			<g>
				<polygon points="170.299,193.898 178.429,191.72 170.299,189.541 				"/>
			</g>
		</g>
	</g>
	<g>
		<g>
			<polyline fill="none" stroke="#000000" stroke-width="0.75" stroke-linecap="round" stroke-linejoin="round" points="
				247.723,233.635 247.723,273.235 253.125,273.235 			"/>
			<g>
				<polygon points="251.639,275.414 259.77,273.235 251.639,271.057 				"/>
			</g>
		</g>
	</g>
	<g>
		<g>
			<polyline fill="none" stroke="#000000" stroke-width="0.75" stroke-linecap="round" stroke-linejoin="round" points="
				247.723,273.361 247.723,310.764 253.125,310.764 			"/>
			<g>
				<polygon points="251.639,312.942 259.77,310.764 251.639,308.585 				"/>
			</g>
		</g>
	</g>
	<g>
		<g>
			<polyline fill="none" stroke="#000000" stroke-width="0.75" stroke-linecap="round" stroke-linejoin="round" points="
				247.723,310.814 247.723,351.587 253.125,351.587 			"/>
			<g>
				<polygon points="251.639,353.766 259.77,351.587 251.639,349.408 				"/>
			</g>
		</g>
	</g>
	<g>
		<g>
			<polyline fill="none" stroke="#000000" stroke-width="0.75" stroke-linecap="round" stroke-linejoin="round" points="
				247.723,351.803 247.723,390.879 253.125,390.879 			"/>
			<g>
				<polygon points="251.639,393.058 259.77,390.879 251.639,388.7 				"/>
			</g>
		</g>
	</g>
	<g>
		<g>
			<polyline fill="none" stroke="#000000" stroke-width="0.75" stroke-linecap="round" stroke-linejoin="round" points="
				247.723,390.849 247.723,429.804 253.125,429.804 			"/>
			<g>
				<polygon points="251.639,431.982 259.77,429.804 251.639,427.625 				"/>
			</g>
		</g>
	</g>
	
		<polyline fill="none" stroke="#000000" stroke-width="0.75" stroke-linecap="round" stroke-linejoin="round" stroke-miterlimit="10" points="
		333.452,233.635 333.452,273.235 320.895,273.235 	"/>
	
		<polyline fill="none" stroke="#000000" stroke-width="0.75" stroke-linecap="round" stroke-linejoin="round" stroke-miterlimit="10" points="
		333.452,273.361 333.452,310.764 320.858,310.764 	"/>
	
		<polyline fill="none" stroke="#000000" stroke-width="0.75" stroke-linecap="round" stroke-linejoin="round" stroke-miterlimit="10" points="
		333.452,310.731 333.452,351.587 320.893,351.587 	"/>
	
		<polyline fill="none" stroke="#000000" stroke-width="0.75" stroke-linecap="round" stroke-linejoin="round" stroke-miterlimit="10" points="
		333.452,351.803 333.452,390.879 320.976,390.879 	"/>
	
		<polyline fill="none" stroke="#000000" stroke-width="0.75" stroke-linecap="round" stroke-linejoin="round" stroke-miterlimit="10" points="
		333.452,390.849 333.452,429.804 321.021,429.804 	"/>
	<g>
		<g>
			
				<line fill="none" stroke="#000000" stroke-width="0.75" stroke-linecap="round" stroke-linejoin="round" x1="239.669" y1="29.832" x2="253.237" y2="29.832"/>
			<g>
				<polygon points="251.751,32.011 259.882,29.832 251.751,27.653 				"/>
			</g>
		</g>
	</g>
	<g>
		<g>
			<polyline fill="none" stroke="#000000" stroke-width="0.75" stroke-linecap="round" stroke-linejoin="round" points="
				247.723,29.832 247.723,70.735 253.126,70.735 			"/>
			<g>
				<polygon points="251.64,72.914 259.771,70.735 251.64,68.557 				"/>
			</g>
		</g>
	</g>
	<g>
		<g>
			<polyline fill="none" stroke="#000000" stroke-width="0.75" stroke-linecap="round" stroke-linejoin="round" points="
				247.723,70.907 247.723,110.168 253.126,110.168 			"/>
			<g>
				<polygon points="251.64,112.347 259.771,110.168 251.64,107.989 				"/>
			</g>
		</g>
	</g>
	<g>
		<g>
			<polyline fill="none" stroke="#000000" stroke-width="0.75" stroke-linecap="round" stroke-linejoin="round" points="
				247.723,110.255 247.723,149.149 253.126,149.149 			"/>
			<g>
				<polygon points="251.64,151.328 259.771,149.149 251.64,146.971 				"/>
			</g>
		</g>
	</g>
	<g>
		<g>
			<polyline fill="none" stroke="#000000" stroke-width="0.75" stroke-linecap="round" stroke-linejoin="round" points="
				247.723,148.818 247.723,191.721 253.126,191.721 			"/>
			<g>
				<polygon points="251.64,193.899 259.771,191.721 251.64,189.542 				"/>
			</g>
		</g>
	</g>
	<g>
		<g>
			<polyline fill="none" stroke="#000000" stroke-width="0.75" stroke-linecap="round" stroke-linejoin="round" points="
				247.722,192.036 247.722,233.635 253.126,233.635 			"/>
			<g>
				<polygon points="251.64,235.813 259.771,233.635 251.64,231.456 				"/>
			</g>
		</g>
	</g>
	<text transform="matrix(1 0 0 1 269.5078 186.1904)"><tspan x="0" y="0" font-size="6">Derived</tspan><tspan x="0" y="7.2" font-size="6">Hemodynamic</tspan><tspan x="0" y="14.4" font-size="6">Measurements</tspan></text>
	<g>
		<path fill="#CCDEF0" d="M178.64,181.937c0-1.98,1.62-3.6,3.6-3.6h53.577c1.98,0,3.6,1.62,3.6,3.6v19.566c0,1.98-1.62,3.6-3.6,3.6
			H182.24c-1.98,0-3.6-1.62-3.6-3.6V181.937z"/>
		
			<path fill="none" stroke="#010101" stroke-width="0.75" stroke-linecap="round" stroke-linejoin="round" stroke-miterlimit="1" d="
			M178.64,181.937c0-1.98,1.62-3.6,3.6-3.6h53.577c1.98,0,3.6,1.62,3.6,3.6v19.566c0,1.98-1.62,3.6-3.6,3.6H182.24
			c-1.98,0-3.6-1.62-3.6-3.6V181.937z"/>
	</g>
	<rect x="188.529" y="180.947" fill="none" width="41" height="21.546"/>
	<text transform="matrix(1 0 0 1 188.5288 185.2402)"><tspan x="0" y="0" font-size="6">Procedure </tspan><tspan x="0" y="7.2" font-size="6">Environmental </tspan><tspan x="0" y="14.4" font-size="6">Characteristics</tspan></text>
	<text transform="matrix(1 0 0 1 188.7661 147.3936)"><tspan x="0" y="0" font-size="6">Hemodynamics</tspan><tspan x="0" y="7.2" font-size="6">Summary</tspan></text>
</g>
</svg>
