<?xml version="1.0" encoding="utf-8"?>
<!-- $Source: /home/bbennett/pass/archive/DicomXml/docbook/part16/figures/PS3.16_A-10.svg,v $ -->
<!-- $Date: 2014/02/18 14:35:29 $ -->
<!-- $Revision: 1.1 $ -->

<!DOCTYPE svg PUBLIC "-//W3C//DTD SVG 1.1//EN" "http://www.w3.org/Graphics/SVG/1.1/DTD/svg11.dtd">

<svg version="1.1" id="Layer_1" xmlns="http://www.w3.org/2000/svg" xmlns:xlink="http://www.w3.org/1999/xlink" x="0px" y="0px"
	 width="502px" height="492px" viewBox="0 0 502 492" enable-background="new 0 0 502 492" xml:space="preserve">

<defs>
	<style type="text/css">
	text {
	  font-family: Helvetica, Verdana, ArialUnicodeMS, san-serif
	}
	</style>
</defs>

<g>
   <desc>
	PS 3.16 Part 16: Content Mapping Resource
   </desc>
   <title>
	Figure A-10: Breast Imaging Report Template Structure 
   </title>
</g>

<g>
	<rect x="1" y="1" fill="#F5EED6" width="500" height="490"/>
	<g>
		<path fill="#CCDEF0" d="M134.128,107.955c0-1.98,1.62-3.6,3.6-3.6h53.577c1.98,0,3.6,1.62,3.6,3.6v19.566c0,1.98-1.62,3.6-3.6,3.6
			h-53.577c-1.98,0-3.6-1.62-3.6-3.6V107.955z"/>
		<path fill="none" stroke="#010101" stroke-width="0.75" stroke-linecap="square" stroke-miterlimit="1" d="M134.128,107.955
			c0-1.98,1.62-3.6,3.6-3.6h53.577c1.98,0,3.6,1.62,3.6,3.6v19.566c0,1.98-1.62,3.6-3.6,3.6h-53.577c-1.98,0-3.6-1.62-3.6-3.6
			V107.955z"/>
	</g>
	<g>
		<path fill="#CCDEF0" d="M212.208,226.757c0-1.98,1.62-3.6,3.6-3.6h53.574c1.979,0,3.6,1.62,3.6,3.6v19.565
			c0,1.98-1.62,3.6-3.6,3.6h-53.574c-1.98,0-3.6-1.62-3.6-3.6V226.757z"/>
		<path fill="none" stroke="#010101" stroke-width="0.75" stroke-linecap="square" stroke-miterlimit="1" d="M212.208,226.757
			c0-1.98,1.62-3.6,3.6-3.6h53.574c1.979,0,3.6,1.62,3.6,3.6v19.565c0,1.98-1.62,3.6-3.6,3.6h-53.574c-1.98,0-3.6-1.62-3.6-3.6
			V226.757z"/>
	</g>
	<g>
		<path fill="#CCDEF0" d="M212.208,266.355c0-1.979,1.62-3.6,3.6-3.6h53.574c1.979,0,3.6,1.62,3.6,3.6v19.563
			c0,1.979-1.62,3.6-3.6,3.6h-53.574c-1.98,0-3.6-1.62-3.6-3.6V266.355z"/>
		<path fill="none" stroke="#010101" stroke-width="0.75" stroke-linecap="square" stroke-miterlimit="1" d="M212.208,266.355
			c0-1.979,1.62-3.6,3.6-3.6h53.574c1.979,0,3.6,1.62,3.6,3.6v19.563c0,1.979-1.62,3.6-3.6,3.6h-53.574c-1.98,0-3.6-1.62-3.6-3.6
			V266.355z"/>
	</g>
	<g>
		<path fill="#CCDEF0" d="M385.609,307.551c0-1.979,1.62-3.6,3.6-3.6h53.828c1.979,0,3.6,1.62,3.6,3.6v12.953
			c0,1.979-1.62,3.6-3.6,3.6h-53.828c-1.979,0-3.6-1.62-3.6-3.6V307.551z"/>
		<path fill="none" stroke="#010101" stroke-width="0.75" stroke-linecap="square" stroke-miterlimit="1" d="M385.609,307.551
			c0-1.979,1.62-3.6,3.6-3.6h53.828c1.979,0,3.6,1.62,3.6,3.6v12.953c0,1.979-1.62,3.6-3.6,3.6h-53.828c-1.979,0-3.6-1.62-3.6-3.6
			V307.551z"/>
	</g>
	<text transform="matrix(1 0 0 1 395.7227 312.2734)"><tspan x="0" y="0" font-size="6">Pathology</tspan><tspan x="0" y="7.201" font-size="6">Results</tspan></text>
	<text transform="matrix(1 0 0 1 384.9326 300.3789)" font-size="7">TID 4207</text>
	<g>
		<path fill="#CCDEF0" d="M385.609,268.119c0-1.979,1.62-3.6,3.6-3.6h53.828c1.979,0,3.6,1.62,3.6,3.6v12.951
			c0,1.979-1.62,3.6-3.6,3.6h-53.828c-1.979,0-3.6-1.62-3.6-3.6V268.119z"/>
		<path fill="none" stroke="#010101" stroke-width="0.75" stroke-linecap="square" stroke-miterlimit="1" d="M385.609,268.119
			c0-1.979,1.62-3.6,3.6-3.6h53.828c1.979,0,3.6,1.62,3.6,3.6v12.951c0,1.979-1.62,3.6-3.6,3.6h-53.828c-1.979,0-3.6-1.62-3.6-3.6
			V268.119z"/>
	</g>
	<text transform="matrix(1 0 0 1 395.7217 272.8418)"><tspan x="0" y="0" font-size="6">Subject Context,</tspan><tspan x="0" y="7.199" font-size="6">Specimen</tspan></text>
	<text transform="matrix(1 0 0 1 384.9326 261.4453)" font-size="7">TID 1009</text>
	<g>
		<path fill="#CCDEF0" d="M385.609,229.061c0-1.98,1.62-3.6,3.6-3.6h53.828c1.979,0,3.6,1.62,3.6,3.6v12.942
			c0,1.98-1.62,3.6-3.6,3.6h-53.828c-1.979,0-3.6-1.62-3.6-3.6V229.061z"/>
		<path fill="none" stroke="#010101" stroke-width="0.75" stroke-linecap="square" stroke-miterlimit="1" d="M385.609,229.061
			c0-1.98,1.62-3.6,3.6-3.6h53.828c1.979,0,3.6,1.62,3.6,3.6v12.942c0,1.98-1.62,3.6-3.6,3.6h-53.828c-1.979,0-3.6-1.62-3.6-3.6
			V229.061z"/>
	</g>
	<text transform="matrix(1 0 0 1 389.3652 233.7744)"><tspan x="0" y="0" font-size="6">Breast Imaging</tspan><tspan x="0" y="7.2" font-size="6">Procedure Reported</tspan></text>
	<text transform="matrix(1 0 0 1 384.9326 221.8799)" font-size="7">TID 4201</text>
	<text transform="matrix(1 0 0 1 385.1699 339.8594)" font-size="7">TID 350</text>
	<g>
		<path fill="#CCDEF0" d="M385.609,346.533c0-1.979,1.62-3.6,3.6-3.6h53.82c1.979,0,3.6,1.62,3.6,3.6v12.951
			c0,1.979-1.62,3.6-3.6,3.6h-53.82c-1.979,0-3.6-1.62-3.6-3.6V346.533z"/>
		<path fill="none" stroke="#010101" stroke-width="0.75" stroke-linecap="square" stroke-miterlimit="1" d="M385.609,346.533
			c0-1.979,1.62-3.6,3.6-3.6h53.82c1.979,0,3.6,1.62,3.6,3.6v12.951c0,1.979-1.62,3.6-3.6,3.6h-53.82c-1.979,0-3.6-1.62-3.6-3.6
			V346.533z"/>
	</g>
	<text transform="matrix(1 0 0 1 387.6367 351.2539)"><tspan x="0" y="0" font-size="6">References to</tspan><tspan x="0" y="7.201" font-size="6">Supporting Evidence </tspan></text>
	<g>
		<path fill="#CCDEF0" d="M299.932,464.062c0-1.979,1.62-3.6,3.6-3.6h53.832c1.979,0,3.6,1.62,3.6,3.6v12.949
			c0,1.979-1.62,3.6-3.6,3.6h-53.832c-1.979,0-3.6-1.62-3.6-3.6V464.062z"/>
		<path fill="none" stroke="#010101" stroke-width="0.75" stroke-linecap="square" stroke-miterlimit="1" d="M299.932,464.062
			c0-1.979,1.62-3.6,3.6-3.6h53.832c1.979,0,3.6,1.62,3.6,3.6v12.949c0,1.979-1.62,3.6-3.6,3.6h-53.832c-1.979,0-3.6-1.62-3.6-3.6
			V464.062z"/>
	</g>
	<text transform="matrix(1 0 0 1 310.1543 468.6055)"><tspan x="0" y="0" font-size="6">Breast Imaging</tspan><tspan x="0" y="7.2" font-size="6">Assessment</tspan></text>
	<text transform="matrix(1 0 0 1 299.2549 457.3984)" font-size="7">TID 4203</text>
	<g>
		<path fill="#CCDEF0" d="M299.932,385.539c0-1.979,1.62-3.6,3.6-3.6h53.832c1.979,0,3.6,1.62,3.6,3.6v12.953
			c0,1.979-1.62,3.6-3.6,3.6h-53.832c-1.979,0-3.6-1.62-3.6-3.6V385.539z"/>
		<path fill="none" stroke="#010101" stroke-width="0.75" stroke-linecap="square" stroke-miterlimit="1" d="M299.932,385.539
			c0-1.979,1.62-3.6,3.6-3.6h53.832c1.979,0,3.6,1.62,3.6,3.6v12.953c0,1.979-1.62,3.6-3.6,3.6h-53.832c-1.979,0-3.6-1.62-3.6-3.6
			V385.539z"/>
	</g>
	<text transform="matrix(1 0 0 1 310.1543 390.2568)"><tspan x="0" y="0" font-size="6">Area</tspan><tspan x="0" y="7.2" font-size="6">Measurement</tspan></text>
	<text transform="matrix(1 0 0 1 299.2549 378.8555)" font-size="7">TID 1401</text>
	<g>
		<path fill="#CCDEF0" d="M299.932,346.473c0-1.979,1.62-3.6,3.6-3.6h53.832c1.979,0,3.6,1.62,3.6,3.6v12.949
			c0,1.979-1.62,3.6-3.6,3.6h-53.832c-1.979,0-3.6-1.62-3.6-3.6V346.473z"/>
		<path fill="none" stroke="#010101" stroke-width="0.75" stroke-linecap="square" stroke-miterlimit="1" d="M299.932,346.473
			c0-1.979,1.62-3.6,3.6-3.6h53.832c1.979,0,3.6,1.62,3.6,3.6v12.949c0,1.979-1.62,3.6-3.6,3.6h-53.832c-1.979,0-3.6-1.62-3.6-3.6
			V346.473z"/>
	</g>
	<text transform="matrix(1 0 0 1 310.1484 351.1836)"><tspan x="0" y="0" font-size="6">Volume</tspan><tspan x="0" y="7.201" font-size="6">Measurement</tspan></text>
	<text transform="matrix(1 0 0 1 299.2549 339.2891)" font-size="7">TID 1402</text>
	<g>
		<path fill="#CCDEF0" d="M299.932,424.801c0-1.979,1.62-3.6,3.6-3.6h53.832c1.979,0,3.6,1.62,3.6,3.6v12.953
			c0,1.979-1.62,3.6-3.6,3.6h-53.832c-1.979,0-3.6-1.62-3.6-3.6V424.801z"/>
		<path fill="none" stroke="#010101" stroke-width="0.75" stroke-linecap="square" stroke-miterlimit="1" d="M299.932,424.801
			c0-1.979,1.62-3.6,3.6-3.6h53.832c1.979,0,3.6,1.62,3.6,3.6v12.953c0,1.979-1.62,3.6-3.6,3.6h-53.832c-1.979,0-3.6-1.62-3.6-3.6
			V424.801z"/>
	</g>
	<text transform="matrix(1 0 0 1 310.1484 429.5186)"><tspan x="0" y="0" font-size="6">Linear</tspan><tspan x="0" y="7.2" font-size="6">Measurement</tspan></text>
	<text transform="matrix(1 0 0 1 299.2549 418.4473)" font-size="7">TID 1400</text>
	<g>
		<path fill="#CCDEF0" d="M377.357,464.061c0-1.979,1.62-3.6,3.6-3.6h53.832c1.979,0,3.6,1.62,3.6,3.6v12.953
			c0,1.979-1.62,3.6-3.6,3.6h-53.832c-1.979,0-3.6-1.62-3.6-3.6V464.061z"/>
		<path fill="none" stroke="#010101" stroke-width="0.75" stroke-linecap="square" stroke-miterlimit="1" d="M377.357,464.061
			c0-1.979,1.62-3.6,3.6-3.6h53.832c1.979,0,3.6,1.62,3.6,3.6v12.953c0,1.979-1.62,3.6-3.6,3.6h-53.832c-1.979,0-3.6-1.62-3.6-3.6
			V464.061z"/>
	</g>
	<text transform="matrix(1 0 0 1 395.7217 468.6055)"><tspan x="0" y="0" font-size="6">Pathology</tspan><tspan x="0" y="7.2" font-size="6">Results</tspan></text>
	<text transform="matrix(1 0 0 1 376.6807 457.3994)" font-size="7">TID 4207</text>
	<g>
		<path fill="#CCDEF0" d="M299.932,267.988c0-1.979,1.62-3.6,3.6-3.6h53.832c1.979,0,3.6,1.62,3.6,3.6v12.953
			c0,1.979-1.62,3.6-3.6,3.6h-53.832c-1.979,0-3.6-1.62-3.6-3.6V267.988z"/>
		<path fill="none" stroke="#010101" stroke-width="0.75" stroke-linecap="square" stroke-miterlimit="1" d="M299.932,267.988
			c0-1.979,1.62-3.6,3.6-3.6h53.832c1.979,0,3.6,1.62,3.6,3.6v12.953c0,1.979-1.62,3.6-3.6,3.6h-53.832c-1.979,0-3.6-1.62-3.6-3.6
			V267.988z"/>
	</g>
	<g>
		<path fill="#CCDEF0" d="M299.932,307.252c0-1.979,1.62-3.6,3.6-3.6h53.832c1.979,0,3.6,1.62,3.6,3.6v12.953
			c0,1.979-1.62,3.6-3.6,3.6h-53.832c-1.979,0-3.6-1.62-3.6-3.6V307.252z"/>
		<path fill="none" stroke="#010101" stroke-width="0.75" stroke-linecap="square" stroke-miterlimit="1" d="M299.932,307.252
			c0-1.979,1.62-3.6,3.6-3.6h53.832c1.979,0,3.6,1.62,3.6,3.6v12.953c0,1.979-1.62,3.6-3.6,3.6h-53.832c-1.979,0-3.6-1.62-3.6-3.6
			V307.252z"/>
	</g>
	<g>
		<path fill="none" stroke="#000000" stroke-width="0.75" stroke-linecap="square" stroke-miterlimit="10" d="M123.316,29.476"/>
	</g>
	<g>
		<path fill="#CCDEF0" d="M134.125,24.769c0-1.98,1.62-3.6,3.6-3.6h53.826c1.98,0,3.6,1.62,3.6,3.6v12.948c0,1.98-1.62,3.6-3.6,3.6
			h-53.826c-1.98,0-3.6-1.62-3.6-3.6V24.769z"/>
		<path fill="none" stroke="#010101" stroke-width="0.75" stroke-linecap="square" stroke-miterlimit="1" d="M134.125,24.769
			c0-1.98,1.62-3.6,3.6-3.6h53.826c1.98,0,3.6,1.62,3.6,3.6v12.948c0,1.98-1.62,3.6-3.6,3.6h-53.826c-1.98,0-3.6-1.62-3.6-3.6
			V24.769z"/>
	</g>
	<text transform="matrix(1 0 0 1 143.0034 29.4849)"><tspan x="0" y="0" font-size="6">Breast Imaging</tspan><tspan x="0" y="7.2" font-size="6">Report Narrative</tspan></text>
	<text transform="matrix(1 0 0 1 134.123 17.5903)" font-size="7">TID 4202</text>
	<g>
		<path fill="#CCDEF0" d="M212.204,63.835c0-1.98,1.62-3.6,3.6-3.6h53.829c1.979,0,3.6,1.62,3.6,3.6v12.948c0,1.98-1.62,3.6-3.6,3.6
			h-53.829c-1.98,0-3.6-1.62-3.6-3.6V63.835z"/>
		<path fill="none" stroke="#010101" stroke-width="0.75" stroke-linecap="square" stroke-miterlimit="1" d="M212.204,63.835
			c0-1.98,1.62-3.6,3.6-3.6h53.829c1.979,0,3.6,1.62,3.6,3.6v12.948c0,1.98-1.62,3.6-3.6,3.6h-53.829c-1.98,0-3.6-1.62-3.6-3.6
			V63.835z"/>
	</g>
	<text transform="matrix(1 0 0 1 215.3511 68.5518)"><tspan x="0" y="0" font-size="6">References to</tspan><tspan x="0" y="7.2" font-size="6">Supporting Evidence</tspan></text>
	<text transform="matrix(1 0 0 1 213.2339 57.1558)" font-size="7">TID 350</text>
	<g>
		<path fill="#CCDEF0" d="M211.964,24.769c0-1.98,1.62-3.6,3.6-3.6h53.827c1.979,0,3.6,1.62,3.6,3.6v12.948c0,1.98-1.62,3.6-3.6,3.6
			h-53.827c-1.98,0-3.6-1.62-3.6-3.6V24.769z"/>
		<path fill="none" stroke="#010101" stroke-width="0.75" stroke-linecap="square" stroke-miterlimit="1" d="M211.964,24.769
			c0-1.98,1.62-3.6,3.6-3.6h53.827c1.979,0,3.6,1.62,3.6,3.6v12.948c0,1.98-1.62,3.6-3.6,3.6h-53.827c-1.98,0-3.6-1.62-3.6-3.6
			V24.769z"/>
	</g>
	<text transform="matrix(1 0 0 1 231.4497 29.4849)"><tspan x="0" y="0" font-size="6">Observer</tspan><tspan x="0" y="7.2" font-size="6">Context</tspan></text>
	<text transform="matrix(1 0 0 1 211.2871 17.5903)" font-size="7">TID 1002</text>
	<g>
		<path fill="#CCDEF0" d="M299.932,187.768c0-1.98,1.62-3.6,3.6-3.6h53.828c1.979,0,3.6,1.62,3.6,3.6v12.948
			c0,1.98-1.62,3.6-3.6,3.6h-53.828c-1.979,0-3.6-1.62-3.6-3.6V187.768z"/>
		<path fill="none" stroke="#010101" stroke-width="0.75" stroke-linecap="square" stroke-miterlimit="1" d="M299.932,187.768
			c0-1.98,1.62-3.6,3.6-3.6h53.828c1.979,0,3.6,1.62,3.6,3.6v12.948c0,1.98-1.62,3.6-3.6,3.6h-53.828c-1.979,0-3.6-1.62-3.6-3.6
			V187.768z"/>
	</g>
	<text transform="matrix(1 0 0 1 301.9609 192.4805)"><tspan x="0" y="0" font-size="6">Breast Imaging</tspan><tspan x="0" y="7.2" font-size="6">Procedure Reported</tspan></text>
	<text transform="matrix(1 0 0 1 299.4922 181.0845)" font-size="7">TID 4201</text>
	<g>
		<path fill="#CCDEF0" d="M299.932,148.34c0-1.98,1.62-3.6,3.6-3.6h53.826c1.979,0,3.6,1.62,3.6,3.6v12.948c0,1.98-1.62,3.6-3.6,3.6
			h-53.826c-1.979,0-3.6-1.62-3.6-3.6V148.34z"/>
		<path fill="none" stroke="#010101" stroke-width="0.75" stroke-linecap="square" stroke-miterlimit="1" d="M299.932,148.34
			c0-1.98,1.62-3.6,3.6-3.6h53.826c1.979,0,3.6,1.62,3.6,3.6v12.948c0,1.98-1.62,3.6-3.6,3.6h-53.826c-1.979,0-3.6-1.62-3.6-3.6
			V148.34z"/>
	</g>
	<text transform="matrix(1 0 0 1 301.9609 153.0537)"><tspan x="0" y="0" font-size="6">Breast Imaging</tspan><tspan x="0" y="7.2" font-size="6">Pathology Results</tspan></text>
	<text transform="matrix(1 0 0 1 299.4922 141.1587)" font-size="7">TID 4207</text>
	<g>
		<path fill="#CCDEF0" d="M56.041,24.683c0-1.98,1.62-3.6,3.6-3.6h53.744c1.98,0,3.6,1.62,3.6,3.6v12.897c0,1.98-1.62,3.6-3.6,3.6
			H59.641c-1.98,0-3.6-1.62-3.6-3.6V24.683z"/>
		<path fill="none" stroke="#010101" stroke-width="0.75" stroke-linecap="square" d="M56.041,24.683c0-1.98,1.62-3.6,3.6-3.6
			h53.744c1.98,0,3.6,1.62,3.6,3.6v12.897c0,1.98-1.62,3.6-3.6,3.6H59.641c-1.98,0-3.6-1.62-3.6-3.6V24.683z"/>
	</g>
	<text transform="matrix(1 0 0 1 68.1426 29.3696)"><tspan x="0" y="0" font-size="6">Breast Imaging</tspan><tspan x="0" y="7.2" font-size="6">Report</tspan></text>
	<text transform="matrix(1 0 0 1 55.3638 18.2192)" font-size="7">TID 4200</text>
	<text transform="matrix(1 0 0 1 137.3496 113.9346)"><tspan x="0" y="0" font-size="6">Breast Imaging</tspan><tspan x="0" y="7.2" font-size="6">Report</tspan><tspan x="0" y="14.4" font-size="6">Supplementary Data</tspan></text>
	<text transform="matrix(1 0 0 1 133.4863 102.8691)" font-size="7">TID 4208</text>
	<g>
		<path fill="#CCDEF0" d="M212.204,187.87c0-1.98,1.62-3.6,3.6-3.6h53.829c1.979,0,3.6,1.62,3.6,3.6v12.952c0,1.98-1.62,3.6-3.6,3.6
			h-53.829c-1.98,0-3.6-1.62-3.6-3.6V187.87z"/>
		<path fill="none" stroke="#010101" stroke-width="0.75" stroke-linecap="square" stroke-miterlimit="1" d="M212.204,187.87
			c0-1.98,1.62-3.6,3.6-3.6h53.829c1.979,0,3.6,1.62,3.6,3.6v12.952c0,1.98-1.62,3.6-3.6,3.6h-53.829c-1.98,0-3.6-1.62-3.6-3.6
			V187.87z"/>
	</g>
	<text transform="matrix(1 0 0 1 218.8833 192.5845)"><tspan x="0" y="0" font-size="6">Breast Composition</tspan><tspan x="0" y="7.2" font-size="6">Section</tspan></text>
	<text transform="matrix(1 0 0 1 211.377 180.6895)" font-size="7">TID 4205</text>
	<g>
		<path fill="#CCDEF0" d="M212.204,148.341c0-1.98,1.62-3.6,3.6-3.6h53.829c1.979,0,3.6,1.62,3.6,3.6v12.95c0,1.98-1.62,3.6-3.6,3.6
			h-53.829c-1.98,0-3.6-1.62-3.6-3.6V148.341z"/>
		<path fill="none" stroke="#010101" stroke-width="0.75" stroke-linecap="square" stroke-miterlimit="1" d="M212.204,148.341
			c0-1.98,1.62-3.6,3.6-3.6h53.829c1.979,0,3.6,1.62,3.6,3.6v12.95c0,1.98-1.62,3.6-3.6,3.6h-53.829c-1.98,0-3.6-1.62-3.6-3.6
			V148.341z"/>
	</g>
	<text transform="matrix(1 0 0 1 224.3501 153.1519)"><tspan x="0" y="0" font-size="6">Breast Imaging</tspan><tspan x="0" y="7.2" font-size="6">Assessment</tspan></text>
	<text transform="matrix(1 0 0 1 211.5264 141.7559)" font-size="7">TID 4203</text>
	<g>
		<path fill="#CCDEF0" d="M212.204,109.372c0-1.98,1.62-3.6,3.6-3.6h53.829c1.979,0,3.6,1.62,3.6,3.6v12.95c0,1.98-1.62,3.6-3.6,3.6
			h-53.829c-1.98,0-3.6-1.62-3.6-3.6V109.372z"/>
		<path fill="none" stroke="#010101" stroke-width="0.75" stroke-linecap="square" stroke-miterlimit="1" d="M212.204,109.372
			c0-1.98,1.62-3.6,3.6-3.6h53.829c1.979,0,3.6,1.62,3.6,3.6v12.95c0,1.98-1.62,3.6-3.6,3.6h-53.829c-1.98,0-3.6-1.62-3.6-3.6
			V109.372z"/>
	</g>
	<text transform="matrix(1 0 0 1 215.9604 114.085)"><tspan x="0" y="0" font-size="6">Breast Imaging</tspan><tspan x="0" y="7.2" font-size="6">Procedure Reported</tspan></text>
	<text transform="matrix(1 0 0 1 211.5264 102.1904)" font-size="7">TID 4201</text>
	<text transform="matrix(1 0 0 1 211.4463 259.7617)" font-size="7">TID 4206</text>
	<text transform="matrix(1 0 0 1 211.4463 220.1704)" font-size="7">TID 4204</text>
	<text transform="matrix(1 0 0 1 214.9331 270.8281)"><tspan x="0" y="0" font-size="6">Breast Imaging</tspan><tspan x="0" y="7.199" font-size="6">Report</tspan><tspan x="0" y="14.4" font-size="6">Finding Section</tspan></text>
	<text transform="matrix(1 0 0 1 215.3906 231.5649)"><tspan x="0" y="0" font-size="6">Breast Imaging</tspan><tspan x="0" y="7.2" font-size="6">Report</tspan><tspan x="0" y="14.4" font-size="6">Intervention Section</tspan></text>
	<text transform="matrix(1 0 0 1 299.4922 261.4453)" font-size="7">TID 350</text>
	<text transform="matrix(1 0 0 1 301.9609 271.6943)"><tspan x="0" y="0" font-size="6">References to</tspan><tspan x="0" y="7.2" font-size="6">Supporting Evidence </tspan></text>
	<text transform="matrix(1 0 0 1 303.3301 311.2148)"><tspan x="0" y="0" font-size="6">Breast Imaging</tspan><tspan x="0" y="7.199" font-size="6">Procedure Reported</tspan></text>
	<text transform="matrix(1 0 0 1 299.2549 299.3203)" font-size="7">TID 4201</text>
	<g>
		<g>
			<polyline fill="none" stroke="#000000" stroke-width="0.75" stroke-linecap="square" stroke-miterlimit="10" points="
				123.214,73.405 123.214,115.729 127.61,115.729 			"/>
			<g>
				<polygon points="126.124,117.908 134.254,115.729 126.124,113.551 				"/>
			</g>
		</g>
	</g>
	<g>
		<path fill="#CCDEF0" d="M134.128,63.673c0-1.98,1.62-3.6,3.6-3.6h53.577c1.98,0,3.6,1.62,3.6,3.6V83.24c0,1.98-1.62,3.6-3.6,3.6
			h-53.577c-1.98,0-3.6-1.62-3.6-3.6V63.673z"/>
		<path fill="none" stroke="#010101" stroke-width="0.75" stroke-linecap="square" stroke-miterlimit="1" d="M134.128,63.673
			c0-1.98,1.62-3.6,3.6-3.6h53.577c1.98,0,3.6,1.62,3.6,3.6V83.24c0,1.98-1.62,3.6-3.6,3.6h-53.577c-1.98,0-3.6-1.62-3.6-3.6V63.673
			z"/>
	</g>
	<text transform="matrix(1 0 0 1 132.3687 56.9976)" font-size="7">TID 1204</text>
	<rect x="139.675" y="63.074" fill="none" width="48.176" height="19.765"/>
	<text transform="matrix(1 0 0 1 139.6714 67.3682)"><tspan x="0" y="0" font-size="6">Language of</tspan><tspan x="0" y="7.2" font-size="6">Content Item and </tspan><tspan x="0" y="14.4" font-size="6">Descendants</tspan></text>
	<g>
		<g>
			<polyline fill="none" stroke="#000000" stroke-width="0.75" stroke-linecap="square" stroke-miterlimit="10" points="
				123.214,31.276 123.214,73.506 127.346,73.506 			"/>
			<g>
				<polygon points="125.86,75.685 133.991,73.506 125.86,71.327 				"/>
			</g>
		</g>
	</g>
	<g>
		<g>
			
				<line fill="none" stroke="#000000" stroke-width="0.75" stroke-linecap="square" stroke-miterlimit="10" x1="116.985" y1="31.243" x2="127.52" y2="31.243"/>
			<g>
				<polygon points="126.033,33.422 134.164,31.243 126.033,29.064 				"/>
			</g>
		</g>
	</g>
	<g>
		<path fill="none" stroke="#000000" stroke-width="0.75" stroke-linecap="square" stroke-miterlimit="10" d="M201.799,29.476"/>
	</g>
	<g>
		<g>
			<polyline fill="none" stroke="#000000" stroke-width="0.75" stroke-linecap="square" stroke-miterlimit="10" points="
				201.696,31.276 201.696,73.506 205.829,73.506 			"/>
			<g>
				<polygon points="204.343,75.685 212.473,73.506 204.343,71.327 				"/>
			</g>
		</g>
	</g>
	<g>
		<g>
			
				<line fill="none" stroke="#000000" stroke-width="0.75" stroke-linecap="square" stroke-miterlimit="10" x1="195.468" y1="31.243" x2="206.002" y2="31.243"/>
			<g>
				<polygon points="204.516,33.422 212.646,31.243 204.516,29.064 				"/>
			</g>
		</g>
	</g>
	<g>
		<path fill="none" stroke="#000000" stroke-width="0.75" stroke-linecap="square" stroke-miterlimit="10" d="M201.799,114.077"/>
	</g>
	<g>
		<g>
			<polyline fill="none" stroke="#000000" stroke-width="0.75" stroke-linecap="square" stroke-miterlimit="10" points="
				201.696,115.878 201.696,154.814 205.829,154.814 			"/>
			<g>
				<polygon points="204.343,156.993 212.473,154.814 204.343,152.636 				"/>
			</g>
		</g>
	</g>
	<g>
		<g>
			<polyline fill="none" stroke="#000000" stroke-width="0.75" stroke-linecap="square" stroke-miterlimit="10" points="
				201.696,155.407 201.696,194.344 205.829,194.344 			"/>
			<g>
				<polygon points="204.343,196.522 212.473,194.344 204.343,192.165 				"/>
			</g>
		</g>
	</g>
	<g>
		<g>
			<polyline fill="none" stroke="#000000" stroke-width="0.75" stroke-linecap="square" stroke-miterlimit="10" points="
				201.696,194.937 201.696,233.873 205.829,233.873 			"/>
			<g>
				<polygon points="204.343,236.052 212.473,233.873 204.343,231.694 				"/>
			</g>
		</g>
	</g>
	<g>
		<g>
			<polyline fill="none" stroke="#000000" stroke-width="0.75" stroke-linecap="square" stroke-miterlimit="10" points="
				201.696,234.466 201.696,273.401 205.829,273.401 			"/>
			<g>
				<polygon points="204.343,275.58 212.473,273.401 204.343,271.223 				"/>
			</g>
		</g>
	</g>
	<g>
		<g>
			
				<line fill="none" stroke="#000000" stroke-width="0.75" stroke-linecap="square" stroke-miterlimit="10" x1="195.468" y1="115.845" x2="206.002" y2="115.845"/>
			<g>
				<polygon points="204.516,118.023 212.646,115.845 204.516,113.666 				"/>
			</g>
		</g>
	</g>
	<g>
		<path fill="none" stroke="#000000" stroke-width="0.75" stroke-linecap="square" stroke-miterlimit="10" d="M288.308,273.353"/>
	</g>
	<g>
		<g>
			<polyline fill="none" stroke="#000000" stroke-width="0.75" stroke-linecap="square" stroke-miterlimit="10" points="
				288.206,275.153 288.206,314.09 293.469,314.09 			"/>
			<g>
				<polygon points="291.982,316.269 300.113,314.09 291.982,311.911 				"/>
			</g>
		</g>
	</g>
	<g>
		<g>
			<polyline fill="none" stroke="#000000" stroke-width="0.75" stroke-linecap="square" stroke-miterlimit="10" points="
				288.206,314.683 288.206,353.619 293.469,353.619 			"/>
			<g>
				<polygon points="291.982,355.798 300.113,353.619 291.982,351.44 				"/>
			</g>
		</g>
	</g>
	<g>
		<g>
			<polyline fill="none" stroke="#000000" stroke-width="0.75" stroke-linecap="square" stroke-miterlimit="10" points="
				288.206,354.212 288.206,392.016 293.469,392.016 			"/>
			<g>
				<polygon points="291.982,394.194 300.113,392.016 291.982,389.837 				"/>
			</g>
		</g>
	</g>
	<g>
		<g>
			<polyline fill="none" stroke="#000000" stroke-width="0.75" stroke-linecap="square" stroke-miterlimit="10" points="
				288.206,392.108 288.206,431.277 293.469,431.277 			"/>
			<g>
				<polygon points="291.982,433.456 300.113,431.277 291.982,429.099 				"/>
			</g>
		</g>
	</g>
	<g>
		<g>
			<polyline fill="none" stroke="#000000" stroke-width="0.75" stroke-linecap="square" stroke-miterlimit="10" points="
				288.206,431.472 288.206,470.537 293.469,470.537 			"/>
			<g>
				<polygon points="291.982,472.716 300.113,470.537 291.982,468.358 				"/>
			</g>
		</g>
	</g>
	<g>
		<g>
			
				<line fill="none" stroke="#000000" stroke-width="0.75" stroke-linecap="square" stroke-miterlimit="10" x1="273.391" y1="275.12" x2="292.512" y2="275.12"/>
			<g>
				<polygon points="291.025,277.299 299.156,275.12 291.025,272.941 				"/>
			</g>
		</g>
	</g>
	<g>
		<g>
			
				<line fill="none" stroke="#000000" stroke-width="0.75" stroke-linecap="square" stroke-miterlimit="10" x1="360.963" y1="470.537" x2="370.713" y2="470.537"/>
			<g>
				<polygon points="369.227,472.716 377.357,470.537 369.227,468.358 				"/>
			</g>
		</g>
	</g>
	<g>
		<path fill="none" stroke="#000000" stroke-width="0.75" stroke-linecap="square" stroke-miterlimit="10" d="M375.1,233.234"/>
	</g>
	<g>
		<g>
			<polyline fill="none" stroke="#000000" stroke-width="0.75" stroke-linecap="square" stroke-miterlimit="10" points="
				374.997,235.035 374.997,273.972 379.129,273.972 			"/>
			<g>
				<polygon points="377.643,276.15 385.773,273.972 377.643,271.793 				"/>
			</g>
		</g>
	</g>
	<g>
		<g>
			<polyline fill="none" stroke="#000000" stroke-width="0.75" stroke-linecap="square" stroke-miterlimit="10" points="
				374.997,274.564 374.997,313.501 379.129,313.501 			"/>
			<g>
				<polygon points="377.643,315.68 385.773,313.501 377.643,311.322 				"/>
			</g>
		</g>
	</g>
	<g>
		<g>
			<polyline fill="none" stroke="#000000" stroke-width="0.75" stroke-linecap="square" stroke-miterlimit="10" points="
				374.997,314.094 374.997,353.03 379.129,353.03 			"/>
			<g>
				<polygon points="377.643,355.209 385.773,353.03 377.643,350.852 				"/>
			</g>
		</g>
	</g>
	<g>
		<g>
			
				<line fill="none" stroke="#000000" stroke-width="0.75" stroke-linecap="square" stroke-miterlimit="10" x1="273.39" y1="235.002" x2="379.316" y2="235.002"/>
			<g>
				<polygon points="377.83,237.181 385.961,235.002 377.83,232.823 				"/>
			</g>
		</g>
	</g>
	<g>
		<g>
			
				<line fill="none" stroke="#000000" stroke-width="0.75" stroke-linecap="square" stroke-miterlimit="10" x1="273.376" y1="154.814" x2="293.209" y2="154.814"/>
			<g>
				<polygon points="291.723,156.993 299.854,154.814 291.723,152.636 				"/>
			</g>
		</g>
	</g>
	<g>
		<g>
			
				<line fill="none" stroke="#000000" stroke-width="0.75" stroke-linecap="square" stroke-miterlimit="10" x1="273.376" y1="194.937" x2="293.209" y2="194.937"/>
			<g>
				<polygon points="291.723,197.115 299.854,194.937 291.723,192.758 				"/>
			</g>
		</g>
	</g>
</g>
</svg>
