<?xml version="1.0" encoding="utf-8"?>
<!-- $Source: /home/bbennett/pass/archive/DicomXml/docbook/part16/figures/PS3.16_A-8.svg,v $ -->
<!-- $Date: 2014/05/09 12:27:07 $ -->
<!-- $Revision: 1.2 $ -->

<!DOCTYPE svg PUBLIC "-//W3C//DTD SVG 1.1//EN" "http://www.w3.org/Graphics/SVG/1.1/DTD/svg11.dtd">
<svg version="1.1" id="Layer_1" xmlns="http://www.w3.org/2000/svg" xmlns:xlink="http://www.w3.org/1999/xlink" x="0px" y="0px"
	 width="502px" height="657px" viewBox="0 0 502 657" enable-background="new 0 0 502 657" xml:space="preserve">

<defs>
	<style type="text/css">
	text {
	  font-family: Helvetica, Verdana, ArialUnicodeMS, san-serif
	}
	</style>
</defs>

<g>
   <desc>
	PS 3.16 Part 16: Content Mapping Resource
   </desc>
   <title>
	Figure A-8: Mammography CAD SR IOD Template Structure 
   </title>
</g>

<g>
	<rect x="1" y="1" fill="#F5EED6" width="500" height="655"/>
	<g>
		<g>
			<path fill="#CCDEF0" d="M76.776,64.072c0-1.98,1.62-3.6,3.6-3.6h47.359c1.98,0,3.6,1.62,3.6,3.6v10.813c0,1.98-1.62,3.6-3.6,3.6
				H80.376c-1.98,0-3.6-1.62-3.6-3.6V64.072z"/>
			
				<path fill="none" stroke="#010101" stroke-width="0.75" stroke-linecap="round" stroke-linejoin="round" stroke-miterlimit="1" d="
				M76.776,64.072c0-1.98,1.62-3.6,3.6-3.6h47.359c1.98,0,3.6,1.62,3.6,3.6v10.813c0,1.98-1.62,3.6-3.6,3.6H80.376
				c-1.98,0-3.6-1.62-3.6-3.6V64.072z"/>
		</g>
		<text transform="matrix(1 0 0 1 87.4849 67.9077)"><tspan x="0" y="0" font-size="6">Analyses</tspan><tspan x="0" y="7.2" font-size="6">Performed</tspan></text>
		<text transform="matrix(1 0 0 1 77.2793 57.7197)" font-size="7">TID 4016</text>
		<g>
			<path fill="#CCDEF0" d="M76.776,29.146c0-1.98,1.62-3.6,3.6-3.6h47.359c1.98,0,3.6,1.62,3.6,3.6V39.96c0,1.98-1.62,3.6-3.6,3.6
				H80.376c-1.98,0-3.6-1.62-3.6-3.6V29.146z"/>
			
				<path fill="none" stroke="#010101" stroke-width="0.75" stroke-linecap="round" stroke-linejoin="round" stroke-miterlimit="1" d="
				M76.776,29.146c0-1.98,1.62-3.6,3.6-3.6h47.359c1.98,0,3.6,1.62,3.6,3.6V39.96c0,1.98-1.62,3.6-3.6,3.6H80.376
				c-1.98,0-3.6-1.62-3.6-3.6V29.146z"/>
		</g>
		<text transform="matrix(1 0 0 1 87.479 32.981)"><tspan x="0" y="0" font-size="6">Detections</tspan><tspan x="0" y="7.2" font-size="6">Performed</tspan></text>
		<text transform="matrix(1 0 0 1 77.2793 22.3467)" font-size="7">TID 4015</text>
		<g>
			<path fill="#CCDEF0" d="M146.331,64.072c0-1.98,1.62-3.6,3.6-3.6h47.36c1.98,0,3.6,1.62,3.6,3.6v10.813c0,1.98-1.62,3.6-3.6,3.6
				h-47.36c-1.98,0-3.6-1.62-3.6-3.6V64.072z"/>
			
				<path fill="none" stroke="#010101" stroke-width="0.75" stroke-linecap="round" stroke-linejoin="round" stroke-miterlimit="1" d="
				M146.331,64.072c0-1.98,1.62-3.6,3.6-3.6h47.36c1.98,0,3.6,1.62,3.6,3.6v10.813c0,1.98-1.62,3.6-3.6,3.6h-47.36
				c-1.98,0-3.6-1.62-3.6-3.6V64.072z"/>
		</g>
		<text transform="matrix(1 0 0 1 157.3999 67.9077)"><tspan x="0" y="0" font-size="6">Analyses</tspan><tspan x="0" y="7.2" font-size="6">Performed</tspan></text>
		<text transform="matrix(1 0 0 1 146.835 57.7197)" font-size="7">TID 4018</text>
		<g>
			<path fill="#CCDEF0" d="M146.331,29.146c0-1.98,1.62-3.6,3.6-3.6h47.36c1.98,0,3.6,1.62,3.6,3.6V39.96c0,1.98-1.62,3.6-3.6,3.6
				h-47.36c-1.98,0-3.6-1.62-3.6-3.6V29.146z"/>
			
				<path fill="none" stroke="#010101" stroke-width="0.75" stroke-linecap="round" stroke-linejoin="round" stroke-miterlimit="1" d="
				M146.331,29.146c0-1.98,1.62-3.6,3.6-3.6h47.36c1.98,0,3.6,1.62,3.6,3.6V39.96c0,1.98-1.62,3.6-3.6,3.6h-47.36
				c-1.98,0-3.6-1.62-3.6-3.6V29.146z"/>
		</g>
		<text transform="matrix(1 0 0 1 157.394 32.981)"><tspan x="0" y="0" font-size="6">Detections</tspan><tspan x="0" y="7.2" font-size="6">Performed</tspan></text>
		<text transform="matrix(1 0 0 1 146.835 22.3467)" font-size="7">TID 4017</text>
		<g>
			<path fill="#CCDEF0" d="M217.5,64.072c0-1.98,1.62-3.6,3.6-3.6h47.357c1.979,0,3.6,1.62,3.6,3.6v10.813c0,1.98-1.62,3.6-3.6,3.6
				H221.1c-1.98,0-3.6-1.62-3.6-3.6V64.072z"/>
			
				<path fill="none" stroke="#010101" stroke-width="0.75" stroke-linecap="round" stroke-linejoin="round" stroke-miterlimit="1" d="
				M217.5,64.072c0-1.98,1.62-3.6,3.6-3.6h47.357c1.979,0,3.6,1.62,3.6,3.6v10.813c0,1.98-1.62,3.6-3.6,3.6H221.1
				c-1.98,0-3.6-1.62-3.6-3.6V64.072z"/>
		</g>
		<text transform="matrix(1 0 0 1 228.7002 67.9077)"><tspan x="0" y="0" font-size="6">Algorithm</tspan><tspan x="0" y="7.2" font-size="6">Identification</tspan></text>
		<text transform="matrix(1 0 0 1 218.0747 57.7197)" font-size="7">TID 4019</text>
		<g>
			<path fill="#CCDEF0" d="M217.5,99.794c0-1.98,1.62-3.6,3.6-3.6h47.357c1.979,0,3.6,1.62,3.6,3.6v10.813c0,1.98-1.62,3.6-3.6,3.6
				H221.1c-1.98,0-3.6-1.62-3.6-3.6V99.794z"/>
			
				<path fill="none" stroke="#010101" stroke-width="0.75" stroke-linecap="round" stroke-linejoin="round" stroke-miterlimit="1" d="
				M217.5,99.794c0-1.98,1.62-3.6,3.6-3.6h47.357c1.979,0,3.6,1.62,3.6,3.6v10.813c0,1.98-1.62,3.6-3.6,3.6H221.1
				c-1.98,0-3.6-1.62-3.6-3.6V99.794z"/>
		</g>
		<text transform="matrix(1 0 0 1 228.7002 103.6304)"><tspan x="0" y="0" font-size="6">Algorithm</tspan><tspan x="0" y="7.2" font-size="6">Identification</tspan></text>
		<text transform="matrix(1 0 0 1 218.0747 93.4424)" font-size="7">TID 4019</text>
		<g>
			<path fill="#CCDEF0" d="M217.571,29.146c0-1.98,1.62-3.6,3.6-3.6h47.359c1.979,0,3.6,1.62,3.6,3.6V39.96c0,1.98-1.62,3.6-3.6,3.6
				h-47.359c-1.98,0-3.6-1.62-3.6-3.6V29.146z"/>
			
				<path fill="none" stroke="#010101" stroke-width="0.75" stroke-linecap="round" stroke-linejoin="round" stroke-miterlimit="1" d="
				M217.571,29.146c0-1.98,1.62-3.6,3.6-3.6h47.359c1.979,0,3.6,1.62,3.6,3.6V39.96c0,1.98-1.62,3.6-3.6,3.6h-47.359
				c-1.98,0-3.6-1.62-3.6-3.6V29.146z"/>
		</g>
		<text transform="matrix(1 0 0 1 228.7002 32.981)"><tspan x="0" y="0" font-size="6">Algorithm</tspan><tspan x="0" y="7.2" font-size="6">Identification</tspan></text>
		<text transform="matrix(1 0 0 1 218.0737 22.3467)" font-size="7">TID 4019</text>
		<g>
			<path fill="#CCDEF0" d="M6.934,29.07c0-1.98,1.62-3.6,3.6-3.6H57.82c1.98,0,3.6,1.62,3.6,3.6v19.643c0,1.98-1.62,3.6-3.6,3.6
				H10.534c-1.98,0-3.6-1.62-3.6-3.6V29.07z"/>
			<path fill="none" stroke="#010101" stroke-width="0.75" d="M6.934,29.07c0-1.98,1.62-3.6,3.6-3.6H57.82c1.98,0,3.6,1.62,3.6,3.6
				v19.643c0,1.98-1.62,3.6-3.6,3.6H10.534c-1.98,0-3.6-1.62-3.6-3.6V29.07z"/>
		</g>
		<text transform="matrix(1 0 0 1 9.2671 32.8784)"><tspan x="0" y="0" font-size="6">Mammography</tspan><tspan x="0" y="6.6" font-size="6">CAD Document</tspan><tspan x="0" y="13.2" font-size="6">Root</tspan></text>
		<text transform="matrix(1 0 0 1 7.4365 22.9092)" font-size="7">TID 4000</text>
		<text transform="matrix(1 0 0 1 147.3481 127.8237)" font-size="7">TID 4003</text>
		<text transform="matrix(1 0 0 1 147.3481 92.4507)" font-size="7">TID 4002</text>
		<g>
			<path fill="#CCDEF0" d="M146.846,134.176c0-1.98,1.62-3.6,3.6-3.6h47.357c1.98,0,3.6,1.62,3.6,3.6v19.566
				c0,1.98-1.62,3.6-3.6,3.6h-47.357c-1.98,0-3.6-1.62-3.6-3.6V134.176z"/>
			
				<path fill="none" stroke="#010101" stroke-width="0.75" stroke-linecap="round" stroke-linejoin="round" stroke-miterlimit="1" d="
				M146.846,134.176c0-1.98,1.62-3.6,3.6-3.6h47.357c1.98,0,3.6,1.62,3.6,3.6v19.566c0,1.98-1.62,3.6-3.6,3.6h-47.357
				c-1.98,0-3.6-1.62-3.6-3.6V134.176z"/>
		</g>
		<text transform="matrix(1 0 0 1 151.7798 139.0283)"><tspan x="0" y="0" font-size="6">Individual </tspan><tspan x="0" y="6.6" font-size="6">impression /</tspan><tspan x="0" y="13.2" font-size="6">recommendation</tspan></text>
		<g>
			<path fill="#CCDEF0" d="M146.846,99.248c0-1.98,1.62-3.6,3.6-3.6h47.357c1.98,0,3.6,1.62,3.6,3.6v10.815c0,1.98-1.62,3.6-3.6,3.6
				h-47.357c-1.98,0-3.6-1.62-3.6-3.6V99.248z"/>
			
				<path fill="none" stroke="#010101" stroke-width="0.75" stroke-linecap="round" stroke-linejoin="round" stroke-miterlimit="1" d="
				M146.846,99.248c0-1.98,1.62-3.6,3.6-3.6h47.357c1.98,0,3.6,1.62,3.6,3.6v10.815c0,1.98-1.62,3.6-3.6,3.6h-47.357
				c-1.98,0-3.6-1.62-3.6-3.6V99.248z"/>
		</g>
		<text transform="matrix(1 0 0 1 157.394 103.084)"><tspan x="0" y="0" font-size="6">Impression</tspan><tspan x="0" y="7.2" font-size="6">Body</tspan></text>
		<g>
			<path fill="#CCDEF0" d="M288.722,139.508c0-1.98,1.62-3.6,3.6-3.6h47.358c1.979,0,3.6,1.62,3.6,3.6v10.812
				c0,1.98-1.62,3.6-3.6,3.6h-47.358c-1.979,0-3.6-1.62-3.6-3.6V139.508z"/>
			
				<path fill="none" stroke="#010101" stroke-width="0.75" stroke-linecap="round" stroke-linejoin="round" stroke-miterlimit="1" d="
				M288.722,139.508c0-1.98,1.62-3.6,3.6-3.6h47.358c1.979,0,3.6,1.62,3.6,3.6v10.812c0,1.98-1.62,3.6-3.6,3.6h-47.358
				c-1.979,0-3.6-1.62-3.6-3.6V139.508z"/>
		</g>
		<text transform="matrix(1 0 0 1 299.7715 143.5591)"><tspan x="0" y="0" font-size="6">Algorithm</tspan><tspan x="0" y="7.2" font-size="6">Identification</tspan></text>
		<text transform="matrix(1 0 0 1 289.2246 133.1538)" font-size="7">TID 4019</text>
		<text transform="matrix(1 0 0 1 218.229 132.1631)" font-size="7">TID 4002</text>
		<g>
			<path fill="#CCDEF0" d="M217.728,138.961c0-1.98,1.62-3.6,3.6-3.6h47.356c1.979,0,3.6,1.62,3.6,3.6v10.813
				c0,1.98-1.62,3.6-3.6,3.6h-47.356c-1.98,0-3.6-1.62-3.6-3.6V138.961z"/>
			
				<path fill="none" stroke="#010101" stroke-width="0.75" stroke-linecap="round" stroke-linejoin="round" stroke-miterlimit="1" d="
				M217.728,138.961c0-1.98,1.62-3.6,3.6-3.6h47.356c1.979,0,3.6,1.62,3.6,3.6v10.813c0,1.98-1.62,3.6-3.6,3.6h-47.356
				c-1.98,0-3.6-1.62-3.6-3.6V138.961z"/>
		</g>
		<text transform="matrix(1 0 0 1 228.6943 142.7969)"><tspan x="0" y="0" font-size="6">Impression</tspan><tspan x="0" y="7.2" font-size="6">Body</tspan></text>
		<g>
			<path fill="#CCDEF0" d="M76.776,99.174c0-1.98,1.62-3.6,3.6-3.6h47.359c1.98,0,3.6,1.62,3.6,3.6v10.812c0,1.98-1.62,3.6-3.6,3.6
				H80.376c-1.98,0-3.6-1.62-3.6-3.6V99.174z"/>
			
				<path fill="none" stroke="#010101" stroke-width="0.75" stroke-linecap="round" stroke-linejoin="round" stroke-miterlimit="1" d="
				M76.776,99.174c0-1.98,1.62-3.6,3.6-3.6h47.359c1.98,0,3.6,1.62,3.6,3.6v10.812c0,1.98-1.62,3.6-3.6,3.6H80.376
				c-1.98,0-3.6-1.62-3.6-3.6V99.174z"/>
		</g>
		<text transform="matrix(1 0 0 1 77.2793 127.8218)" font-size="7">TID 4001</text>
		<text transform="matrix(1 0 0 1 217.9526 165.167)" font-size="7">TID 4004</text>
		<g>
			<path fill="#CCDEF0" d="M217.524,171.224c0-1.98,1.62-3.6,3.6-3.6h47.356c1.979,0,3.6,1.62,3.6,3.6v10.812
				c0,1.98-1.62,3.6-3.6,3.6h-47.356c-1.98,0-3.6-1.62-3.6-3.6V171.224z"/>
			
				<path fill="none" stroke="#010101" stroke-width="0.75" stroke-linecap="round" stroke-linejoin="round" stroke-miterlimit="1" d="
				M217.524,171.224c0-1.98,1.62-3.6,3.6-3.6h47.356c1.979,0,3.6,1.62,3.6,3.6v10.812c0,1.98-1.62,3.6-3.6,3.6h-47.356
				c-1.98,0-3.6-1.62-3.6-3.6V171.224z"/>
		</g>
		<text transform="matrix(1 0 0 1 228.6943 174.7002)"><tspan x="0" y="0" font-size="6">Composite</tspan><tspan x="0" y="7.2" font-size="6">Feature</tspan></text>
		<g>
			<path fill="#CCDEF0" d="M217.418,206.168c0-1.98,1.62-3.6,3.6-3.6h47.363c1.979,0,3.6,1.62,3.6,3.6v10.814
				c0,1.98-1.62,3.6-3.6,3.6h-47.363c-1.98,0-3.6-1.62-3.6-3.6V206.168z"/>
			
				<path fill="none" stroke="#010101" stroke-width="0.75" stroke-linecap="round" stroke-linejoin="round" stroke-miterlimit="1" d="
				M217.418,206.168c0-1.98,1.62-3.6,3.6-3.6h47.363c1.979,0,3.6,1.62,3.6,3.6v10.814c0,1.98-1.62,3.6-3.6,3.6h-47.363
				c-1.98,0-3.6-1.62-3.6-3.6V206.168z"/>
		</g>
		<text transform="matrix(1 0 0 1 228.6943 210.3213)"><tspan x="0" y="0" font-size="6">Single Image</tspan><tspan x="0" y="7.2" font-size="6">Finding</tspan></text>
		<text transform="matrix(1 0 0 1 217.9136 199.3643)" font-size="7">TID 4006</text>
		<g>
			<path fill="#CCDEF0" d="M288.717,347.843c0-1.979,1.62-3.6,3.6-3.6h47.358c1.979,0,3.6,1.62,3.6,3.6v10.814
				c0,1.979-1.62,3.6-3.6,3.6h-47.358c-1.979,0-3.6-1.62-3.6-3.6V347.843z"/>
			
				<path fill="none" stroke="#010101" stroke-width="0.75" stroke-linecap="round" stroke-linejoin="round" stroke-miterlimit="1" d="
				M288.717,347.843c0-1.979,1.62-3.6,3.6-3.6h47.358c1.979,0,3.6,1.62,3.6,3.6v10.814c0,1.979-1.62,3.6-3.6,3.6h-47.358
				c-1.979,0-3.6-1.62-3.6-3.6V347.843z"/>
		</g>
		<text transform="matrix(1 0 0 1 299.7656 351.3203)"><tspan x="0" y="0" font-size="6">Image</tspan><tspan x="0" y="7.2" font-size="6">Quality</tspan></text>
		<text transform="matrix(1 0 0 1 289.2246 340.9414)" font-size="7">TID 4014</text>
		<g>
			<path fill="#CCDEF0" d="M288.717,276.975c0-1.98,1.62-3.6,3.6-3.6h47.358c1.979,0,3.6,1.62,3.6,3.6v10.808
				c0,1.98-1.62,3.6-3.6,3.6h-47.358c-1.979,0-3.6-1.62-3.6-3.6V276.975z"/>
			
				<path fill="none" stroke="#010101" stroke-width="0.75" stroke-linecap="round" stroke-linejoin="round" stroke-miterlimit="1" d="
				M288.717,276.975c0-1.98,1.62-3.6,3.6-3.6h47.358c1.979,0,3.6,1.62,3.6,3.6v10.808c0,1.98-1.62,3.6-3.6,3.6h-47.358
				c-1.979,0-3.6-1.62-3.6-3.6V276.975z"/>
		</g>
		<g>
			<path fill="#CCDEF0" d="M288.717,242.291c0-1.98,1.62-3.6,3.6-3.6h47.358c1.979,0,3.6,1.62,3.6,3.6v10.81
				c0,1.98-1.62,3.6-3.6,3.6h-47.358c-1.979,0-3.6-1.62-3.6-3.6V242.291z"/>
			
				<path fill="none" stroke="#010101" stroke-width="0.75" stroke-linecap="round" stroke-linejoin="round" stroke-miterlimit="1" d="
				M288.717,242.291c0-1.98,1.62-3.6,3.6-3.6h47.358c1.979,0,3.6,1.62,3.6,3.6v10.81c0,1.98-1.62,3.6-3.6,3.6h-47.358
				c-1.979,0-3.6-1.62-3.6-3.6V242.291z"/>
		</g>
		<text transform="matrix(1 0 0 1 289.2246 235.3506)" font-size="7">TID 4022</text>
		<g>
			<path fill="#CCDEF0" d="M288.717,312.389c0-1.98,1.62-3.6,3.6-3.6h47.358c1.979,0,3.6,1.62,3.6,3.6v10.815
				c0,1.98-1.62,3.6-3.6,3.6h-47.358c-1.979,0-3.6-1.62-3.6-3.6V312.389z"/>
			
				<path fill="none" stroke="#010101" stroke-width="0.75" stroke-linecap="round" stroke-linejoin="round" stroke-miterlimit="1" d="
				M288.717,312.389c0-1.98,1.62-3.6,3.6-3.6h47.358c1.979,0,3.6,1.62,3.6,3.6v10.815c0,1.98-1.62,3.6-3.6,3.6h-47.358
				c-1.979,0-3.6-1.62-3.6-3.6V312.389z"/>
		</g>
		<text transform="matrix(1 0 0 1 299.7715 315.8667)"><tspan x="0" y="0" font-size="6">Algorithm</tspan><tspan x="0" y="7.2" font-size="6">Identification</tspan></text>
		<text transform="matrix(1 0 0 1 289.2246 306.1201)" font-size="7">TID 4019</text>
		<text transform="matrix(1 0 0 1 299.7656 245.7656)"><tspan x="0" y="0" font-size="6">Observation</tspan><tspan x="0" y="7.2" font-size="6">Context</tspan></text>
		<text transform="matrix(1 0 0 1 289.2246 271.0391)" font-size="7">TID 4021</text>
		<text transform="matrix(1 0 0 1 299.7656 284.0488)" font-size="6">Geometry</text>
		<g>
			<path fill="#CCDEF0" d="M288.717,452.024c0-1.979,1.62-3.6,3.6-3.6h47.358c1.979,0,3.6,1.62,3.6,3.6v10.816
				c0,1.979-1.62,3.6-3.6,3.6h-47.358c-1.979,0-3.6-1.62-3.6-3.6V452.024z"/>
			
				<path fill="none" stroke="#010101" stroke-width="0.75" stroke-linecap="round" stroke-linejoin="round" stroke-miterlimit="1" d="
				M288.717,452.024c0-1.979,1.62-3.6,3.6-3.6h47.358c1.979,0,3.6,1.62,3.6,3.6v10.816c0,1.979-1.62,3.6-3.6,3.6h-47.358
				c-1.979,0-3.6-1.62-3.6-3.6V452.024z"/>
		</g>
		<text transform="matrix(1 0 0 1 299.7656 459.0107)" font-size="6">Density</text>
		<text transform="matrix(1 0 0 1 289.2246 445.7012)" font-size="7">TID 4011</text>
		<g>
			<path fill="#CCDEF0" d="M288.717,382.014c0-1.979,1.62-3.6,3.6-3.6h47.358c1.979,0,3.6,1.62,3.6,3.6v10.814
				c0,1.979-1.62,3.6-3.6,3.6h-47.358c-1.979,0-3.6-1.62-3.6-3.6V382.014z"/>
			
				<path fill="none" stroke="#010101" stroke-width="0.75" stroke-linecap="round" stroke-linejoin="round" stroke-miterlimit="1" d="
				M288.717,382.014c0-1.979,1.62-3.6,3.6-3.6h47.358c1.979,0,3.6,1.62,3.6,3.6v10.814c0,1.979-1.62,3.6-3.6,3.6h-47.358
				c-1.979,0-3.6-1.62-3.6-3.6V382.014z"/>
		</g>
		<g>
			<path fill="#CCDEF0" d="M288.717,416.927c0-1.979,1.62-3.6,3.6-3.6h47.358c1.979,0,3.6,1.62,3.6,3.6v10.811
				c0,1.979-1.62,3.6-3.6,3.6h-47.358c-1.979,0-3.6-1.62-3.6-3.6V416.927z"/>
			
				<path fill="none" stroke="#010101" stroke-width="0.75" stroke-linecap="round" stroke-linejoin="round" stroke-miterlimit="1" d="
				M288.717,416.927c0-1.979,1.62-3.6,3.6-3.6h47.358c1.979,0,3.6,1.62,3.6,3.6v10.811c0,1.979-1.62,3.6-3.6,3.6h-47.358
				c-1.979,0-3.6-1.62-3.6-3.6V416.927z"/>
		</g>
		<text transform="matrix(1 0 0 1 299.7656 423.9092)" font-size="6">Non-lesion</text>
		<text transform="matrix(1 0 0 1 289.2246 410.8779)" font-size="7">TID 4012</text>
		<text transform="matrix(1 0 0 1 289.2246 375.7979)" font-size="7">TID 4013</text>
		<text transform="matrix(1 0 0 1 299.7656 385.4922)"><tspan x="0" y="0" font-size="6">Selected</tspan><tspan x="0" y="7.2" font-size="6">Region</tspan></text>
		<g>
			<path fill="#CCDEF0" d="M288.717,556.786c0-1.979,1.62-3.6,3.6-3.6h47.358c1.979,0,3.6,1.62,3.6,3.6v10.814
				c0,1.979-1.62,3.6-3.6,3.6h-47.358c-1.979,0-3.6-1.62-3.6-3.6V556.786z"/>
			
				<path fill="none" stroke="#010101" stroke-width="0.75" stroke-linecap="round" stroke-linejoin="round" stroke-miterlimit="1" d="
				M288.717,556.786c0-1.979,1.62-3.6,3.6-3.6h47.358c1.979,0,3.6,1.62,3.6,3.6v10.814c0,1.979-1.62,3.6-3.6,3.6h-47.358
				c-1.979,0-3.6-1.62-3.6-3.6V556.786z"/>
		</g>
		<text transform="matrix(1 0 0 1 299.7656 560.8408)"><tspan x="0" y="0" font-size="6">Breast</tspan><tspan x="0" y="7.2" font-size="6">Geometry</tspan></text>
		<text transform="matrix(1 0 0 1 289.2246 550.459)" font-size="7">TID 4008</text>
		<g>
			<path fill="#CCDEF0" d="M288.717,486.589c0-1.979,1.62-3.6,3.6-3.6h47.358c1.979,0,3.6,1.62,3.6,3.6v10.809
				c0,1.979-1.62,3.6-3.6,3.6h-47.358c-1.979,0-3.6-1.62-3.6-3.6V486.589z"/>
			
				<path fill="none" stroke="#010101" stroke-width="0.75" stroke-linecap="round" stroke-linejoin="round" stroke-miterlimit="1" d="
				M288.717,486.589c0-1.979,1.62-3.6,3.6-3.6h47.358c1.979,0,3.6,1.62,3.6,3.6v10.809c0,1.979-1.62,3.6-3.6,3.6h-47.358
				c-1.979,0-3.6-1.62-3.6-3.6V486.589z"/>
		</g>
		<g>
			<path fill="#CCDEF0" d="M288.717,521.685c0-1.979,1.62-3.6,3.6-3.6h47.358c1.979,0,3.6,1.62,3.6,3.6v10.816
				c0,1.979-1.62,3.6-3.6,3.6h-47.358c-1.979,0-3.6-1.62-3.6-3.6V521.685z"/>
			
				<path fill="none" stroke="#010101" stroke-width="0.75" stroke-linecap="round" stroke-linejoin="round" stroke-miterlimit="1" d="
				M288.717,521.685c0-1.979,1.62-3.6,3.6-3.6h47.358c1.979,0,3.6,1.62,3.6,3.6v10.816c0,1.979-1.62,3.6-3.6,3.6h-47.358
				c-1.979,0-3.6-1.62-3.6-3.6V521.685z"/>
		</g>
		<text transform="matrix(1 0 0 1 299.7656 525.7471)"><tspan x="0" y="0" font-size="6">Individual</tspan><tspan x="0" y="7.2" font-size="6">Calcification</tspan></text>
		<text transform="matrix(1 0 0 1 289.2246 515.6396)" font-size="7">TID 4009</text>
		<text transform="matrix(1 0 0 1 289.2246 480.5605)" font-size="7">TID 4010</text>
		<text transform="matrix(1 0 0 1 299.7656 491.335)"><tspan x="0" y="0" font-size="6">Calcification</tspan><tspan x="0" y="7.2" font-size="6">Cluster</tspan></text>
		<g>
			<path fill="#CCDEF0" d="M288.717,591.347c0-1.979,1.62-3.6,3.6-3.6h47.358c1.979,0,3.6,1.62,3.6,3.6v10.814
				c0,1.979-1.62,3.6-3.6,3.6h-47.358c-1.979,0-3.6-1.62-3.6-3.6V591.347z"/>
			
				<path fill="none" stroke="#010101" stroke-width="0.75" stroke-linecap="round" stroke-linejoin="round" stroke-miterlimit="1" d="
				M288.717,591.347c0-1.979,1.62-3.6,3.6-3.6h47.358c1.979,0,3.6,1.62,3.6,3.6v10.814c0,1.979-1.62,3.6-3.6,3.6h-47.358
				c-1.979,0-3.6-1.62-3.6-3.6V591.347z"/>
		</g>
		<g>
			<path fill="#CCDEF0" d="M288.717,626.448c0-1.979,1.62-3.6,3.6-3.6h47.358c1.979,0,3.6,1.62,3.6,3.6v10.811
				c0,1.979-1.62,3.6-3.6,3.6h-47.358c-1.979,0-3.6-1.62-3.6-3.6V626.448z"/>
			
				<path fill="none" stroke="#010101" stroke-width="0.75" stroke-linecap="round" stroke-linejoin="round" stroke-miterlimit="1" d="
				M288.717,626.448c0-1.979,1.62-3.6,3.6-3.6h47.358c1.979,0,3.6,1.62,3.6,3.6v10.811c0,1.979-1.62,3.6-3.6,3.6h-47.358
				c-1.979,0-3.6-1.62-3.6-3.6V626.448z"/>
		</g>
		<text transform="matrix(1 0 0 1 299.7656 630.291)"><tspan x="0" y="0" font-size="6">Single Image</tspan><tspan x="0" y="7.2" font-size="6">Finding -- Calc</tspan></text>
		<text transform="matrix(1 0 0 1 289.2246 620.3994)" font-size="7">TID 4006</text>
		<text transform="matrix(1 0 0 1 289.2246 585.3184)" font-size="7">TID 4007</text>
		<text transform="matrix(1 0 0 1 299.7656 595.877)"><tspan x="0" y="0" font-size="6">Breast</tspan><tspan x="0" y="7.2" font-size="6">Composition</tspan></text>
		<g>
			<g>
				
					<line fill="none" stroke="#010101" stroke-width="2" stroke-linecap="round" stroke-linejoin="round" stroke-miterlimit="10" stroke-dasharray="3,3" x1="433.507" y1="211.709" x2="448.507" y2="211.709"/>
			</g>
		</g>
		<g>
			<g>
				
					<line fill="none" stroke="#010101" stroke-width="2" stroke-linecap="round" stroke-linejoin="round" stroke-miterlimit="10" stroke-dasharray="3,3" x1="364.281" y1="631.438" x2="379.281" y2="631.438"/>
			</g>
		</g>
		<g>
			<g>
				
					<line fill="none" stroke="#010101" stroke-width="2" stroke-linecap="round" stroke-linejoin="round" stroke-miterlimit="10" stroke-dasharray="3,3" x1="433.507" y1="247.695" x2="448.507" y2="247.695"/>
			</g>
		</g>
		<g>
			<path fill="#CCDEF0" d="M359.719,312.391c0-1.98,1.62-3.6,3.6-3.6h47.362c1.979,0,3.6,1.62,3.6,3.6v10.811
				c0,1.98-1.62,3.6-3.6,3.6h-47.362c-1.979,0-3.6-1.62-3.6-3.6V312.391z"/>
			
				<path fill="none" stroke="#010101" stroke-width="0.75" stroke-linecap="round" stroke-linejoin="round" stroke-miterlimit="1" d="
				M359.719,312.391c0-1.98,1.62-3.6,3.6-3.6h47.362c1.979,0,3.6,1.62,3.6,3.6v10.811c0,1.98-1.62,3.6-3.6,3.6h-47.362
				c-1.979,0-3.6-1.62-3.6-3.6V312.391z"/>
		</g>
		<text transform="matrix(1 0 0 1 370.1895 315.8667)"><tspan x="0" y="0" font-size="6">Composite</tspan><tspan x="0" y="7.2" font-size="6">Feature Body</tspan></text>
		<text transform="matrix(1 0 0 1 360.2285 306.1206)" font-size="7">TID 4005</text>
		<g>
			<path fill="#CCDEF0" d="M359.719,242.292c0-1.98,1.62-3.6,3.6-3.6h47.362c1.979,0,3.6,1.62,3.6,3.6v10.808
				c0,1.98-1.62,3.6-3.6,3.6h-47.362c-1.979,0-3.6-1.62-3.6-3.6V242.292z"/>
			
				<path fill="none" stroke="#010101" stroke-width="0.75" stroke-linecap="round" stroke-linejoin="round" stroke-miterlimit="1" d="
				M359.719,242.292c0-1.98,1.62-3.6,3.6-3.6h47.362c1.979,0,3.6,1.62,3.6,3.6v10.808c0,1.98-1.62,3.6-3.6,3.6h-47.362
				c-1.979,0-3.6-1.62-3.6-3.6V242.292z"/>
		</g>
		<g>
			<path fill="#CCDEF0" d="M359.719,206.304c0-1.98,1.62-3.6,3.6-3.6h47.362c1.979,0,3.6,1.62,3.6,3.6v10.81
				c0,1.98-1.62,3.6-3.6,3.6h-47.362c-1.979,0-3.6-1.62-3.6-3.6V206.304z"/>
			
				<path fill="none" stroke="#010101" stroke-width="0.75" stroke-linecap="round" stroke-linejoin="round" stroke-miterlimit="1" d="
				M359.719,206.304c0-1.98,1.62-3.6,3.6-3.6h47.362c1.979,0,3.6,1.62,3.6,3.6v10.81c0,1.98-1.62,3.6-3.6,3.6h-47.362
				c-1.979,0-3.6-1.62-3.6-3.6V206.304z"/>
		</g>
		<text transform="matrix(1 0 0 1 360.2285 199.3643)" font-size="7">TID 4004</text>
		<g>
			<path fill="#CCDEF0" d="M359.719,276.971c0-1.98,1.62-3.6,3.6-3.6h47.362c1.979,0,3.6,1.62,3.6,3.6v10.815
				c0,1.98-1.62,3.6-3.6,3.6h-47.362c-1.979,0-3.6-1.62-3.6-3.6V276.971z"/>
			
				<path fill="none" stroke="#010101" stroke-width="0.75" stroke-linecap="round" stroke-linejoin="round" stroke-miterlimit="1" d="
				M359.719,276.971c0-1.98,1.62-3.6,3.6-3.6h47.362c1.979,0,3.6,1.62,3.6,3.6v10.815c0,1.98-1.62,3.6-3.6,3.6h-47.362
				c-1.979,0-3.6-1.62-3.6-3.6V276.971z"/>
		</g>
		<text transform="matrix(1 0 0 1 370.1895 280.4487)"><tspan x="0" y="0" font-size="6">Observation</tspan><tspan x="0" y="7.2" font-size="6">Context</tspan></text>
		<text transform="matrix(1 0 0 1 360.2285 271.0391)" font-size="7">TID 4022</text>
		<text transform="matrix(1 0 0 1 370.1895 209.7793)"><tspan x="0" y="0" font-size="6">Composite</tspan><tspan x="0" y="7.2" font-size="6">Feature</tspan></text>
		<text transform="matrix(1 0 0 1 360.2285 235.3511)" font-size="7">TID 4006</text>
		<g>
			<path fill="#CCDEF0" d="M359.719,171.225c0-1.98,1.62-3.6,3.6-3.6h47.362c1.979,0,3.6,1.62,3.6,3.6v10.81
				c0,1.98-1.62,3.6-3.6,3.6h-47.362c-1.979,0-3.6-1.62-3.6-3.6V171.225z"/>
			
				<path fill="none" stroke="#010101" stroke-width="0.75" stroke-linecap="round" stroke-linejoin="round" stroke-miterlimit="1" d="
				M359.719,171.225c0-1.98,1.62-3.6,3.6-3.6h47.362c1.979,0,3.6,1.62,3.6,3.6v10.81c0,1.98-1.62,3.6-3.6,3.6h-47.362
				c-1.979,0-3.6-1.62-3.6-3.6V171.225z"/>
		</g>
		<text transform="matrix(1 0 0 1 360.2285 165.167)" font-size="7">TID 4108</text>
		<text transform="matrix(1 0 0 1 370.1895 174.6997)"><tspan x="0" y="0" font-size="6">Tracking</tspan><tspan x="0" y="7.2" font-size="6">Identifier</tspan></text>
		<text transform="matrix(1 0 0 1 370.1895 245.7656)"><tspan x="0" y="0" font-size="6">Single Image</tspan><tspan x="0" y="7.2" font-size="6">Finding</tspan></text>
		<g>
			<path fill="#CCDEF0" d="M431.02,347.844c0-1.979,1.62-3.6,3.6-3.6h47.359c1.979,0,3.6,1.62,3.6,3.6v10.812
				c0,1.979-1.62,3.6-3.6,3.6h-47.359c-1.979,0-3.6-1.62-3.6-3.6V347.844z"/>
			
				<path fill="none" stroke="#010101" stroke-width="0.75" stroke-linecap="round" stroke-linejoin="round" stroke-miterlimit="1" d="
				M431.02,347.844c0-1.979,1.62-3.6,3.6-3.6h47.359c1.979,0,3.6,1.62,3.6,3.6v10.812c0,1.979-1.62,3.6-3.6,3.6h-47.359
				c-1.979,0-3.6-1.62-3.6-3.6V347.844z"/>
		</g>
		<text transform="matrix(1 0 0 1 442.1582 354.9209)" font-size="6">Measurement</text>
		<text transform="matrix(1 0 0 1 427.3516 340.9414)" font-size="7">TID 1400, 1401, 1402</text>
		<g>
			<path fill="#CCDEF0" d="M431.02,312.391c0-1.98,1.62-3.6,3.6-3.6h47.359c1.979,0,3.6,1.62,3.6,3.6v10.811
				c0,1.98-1.62,3.6-3.6,3.6h-47.359c-1.979,0-3.6-1.62-3.6-3.6V312.391z"/>
			
				<path fill="none" stroke="#010101" stroke-width="0.75" stroke-linecap="round" stroke-linejoin="round" stroke-miterlimit="1" d="
				M431.02,312.391c0-1.98,1.62-3.6,3.6-3.6h47.359c1.979,0,3.6,1.62,3.6,3.6v10.811c0,1.98-1.62,3.6-3.6,3.6h-47.359
				c-1.979,0-3.6-1.62-3.6-3.6V312.391z"/>
		</g>
		<text transform="matrix(1 0 0 1 442.1582 319.4668)" font-size="6">Geometry</text>
		<text transform="matrix(1 0 0 1 431.5352 306.1206)" font-size="7">TID 4021</text>
		<g>
			<path fill="#CCDEF0" d="M431.02,382.016c0-1.979,1.62-3.6,3.6-3.6h47.359c1.979,0,3.6,1.62,3.6,3.6v10.811
				c0,1.979-1.62,3.6-3.6,3.6h-47.359c-1.979,0-3.6-1.62-3.6-3.6V382.016z"/>
			
				<path fill="none" stroke="#010101" stroke-width="0.75" stroke-linecap="round" stroke-linejoin="round" stroke-miterlimit="1" d="
				M431.02,382.016c0-1.979,1.62-3.6,3.6-3.6h47.359c1.979,0,3.6,1.62,3.6,3.6v10.811c0,1.979-1.62,3.6-3.6,3.6h-47.359
				c-1.979,0-3.6-1.62-3.6-3.6V382.016z"/>
		</g>
		<text transform="matrix(1 0 0 1 442.1641 385.4922)"><tspan x="0" y="0" font-size="6">Algorithm</tspan><tspan x="0" y="7.2" font-size="6">Identification</tspan></text>
		<text transform="matrix(1 0 0 1 431.5352 375.7979)" font-size="7">TID 4019</text>
		<g>
			<path fill="#CCDEF0" d="M77.856,134.176c0-1.98,1.62-3.6,3.6-3.6h46.811c1.98,0,3.6,1.62,3.6,3.6v19.566c0,1.98-1.62,3.6-3.6,3.6
				H81.457c-1.98,0-3.6-1.62-3.6-3.6V134.176z"/>
			
				<path fill="none" stroke="#010101" stroke-width="0.75" stroke-linecap="round" stroke-linejoin="round" stroke-miterlimit="1" d="
				M77.856,134.176c0-1.98,1.62-3.6,3.6-3.6h46.811c1.98,0,3.6,1.62,3.6,3.6v19.566c0,1.98-1.62,3.6-3.6,3.6H81.457
				c-1.98,0-3.6-1.62-3.6-3.6V134.176z"/>
		</g>
		<text transform="matrix(1 0 0 1 87.479 103.6157)"><tspan x="0" y="0" font-size="6">Image</tspan><tspan x="0" y="7.2" font-size="6">Library</tspan></text>
		<text transform="matrix(1 0 0 1 77.2793 93.4438)" font-size="7">TID 4020</text>
		<g>
			<text transform="matrix(1 0 0 1 82.5171 138.4263)"><tspan x="0" y="0" font-size="6">Overall</tspan><tspan x="0" y="7.2" font-size="6">impression /</tspan><tspan x="0" y="14.4" font-size="6">recommendation</tspan></text>
		</g>
		<g>
			<g>
				
					<line fill="none" stroke="#000000" stroke-width="0.75" stroke-linejoin="round" x1="61.42" y1="34.553" x2="70.623" y2="34.553"/>
				<g>
					<polygon points="69.137,36.732 77.268,34.553 69.137,32.374 					"/>
				</g>
			</g>
		</g>
		<g>
			<g>
				
					<line fill="none" stroke="#000000" stroke-width="0.75" stroke-linejoin="round" x1="131.336" y1="34.496" x2="139.687" y2="34.496"/>
				<g>
					<polygon points="138.2,36.675 146.331,34.496 138.2,32.316 					"/>
				</g>
			</g>
		</g>
		<g>
			<g>
				
					<line fill="none" stroke="#000000" stroke-width="0.75" stroke-linejoin="round" x1="201.252" y1="34.553" x2="210.455" y2="34.553"/>
				<g>
					<polygon points="208.969,36.732 217.1,34.553 208.969,32.374 					"/>
				</g>
			</g>
		</g>
		<g>
			<g>
				
					<line fill="none" stroke="#000000" stroke-width="0.75" stroke-linejoin="round" x1="131.336" y1="69.45" x2="139.687" y2="69.45"/>
				<g>
					<polygon points="138.2,71.629 146.331,69.45 138.2,67.271 					"/>
				</g>
			</g>
		</g>
		<g>
			<g>
				
					<line fill="none" stroke="#000000" stroke-width="0.75" stroke-linejoin="round" x1="201.252" y1="69.508" x2="210.455" y2="69.508"/>
				<g>
					<polygon points="208.969,71.687 217.1,69.508 208.969,67.329 					"/>
				</g>
			</g>
		</g>
		<g>
			<g>
				
					<line fill="none" stroke="#000000" stroke-width="0.75" stroke-linejoin="round" x1="131.336" y1="104.405" x2="139.687" y2="104.405"/>
				<g>
					<polygon points="138.2,106.584 146.331,104.405 138.2,102.226 					"/>
				</g>
			</g>
		</g>
		<g>
			<g>
				
					<line fill="none" stroke="#000000" stroke-width="0.75" stroke-linejoin="round" x1="201.252" y1="104.462" x2="210.455" y2="104.462"/>
				<g>
					<polygon points="208.969,106.642 217.1,104.462 208.969,102.283 					"/>
				</g>
			</g>
		</g>
		<g>
			<g>
				
					<line fill="none" stroke="#000000" stroke-width="0.75" stroke-linejoin="round" x1="131.336" y1="143.93" x2="139.687" y2="143.93"/>
				<g>
					<polygon points="138.2,146.109 146.331,143.93 138.2,141.751 					"/>
				</g>
			</g>
		</g>
		<g>
			<g>
				
					<line fill="none" stroke="#000000" stroke-width="0.75" stroke-linejoin="round" x1="201.252" y1="143.988" x2="210.455" y2="143.988"/>
				<g>
					<polygon points="208.969,146.167 217.1,143.988 208.969,141.809 					"/>
				</g>
			</g>
		</g>
		<g>
			<g>
				
					<line fill="none" stroke="#000000" stroke-width="0.75" stroke-linejoin="round" x1="272.283" y1="143.988" x2="282.072" y2="143.988"/>
				<g>
					<polygon points="280.586,146.167 288.717,143.988 280.586,141.809 					"/>
				</g>
			</g>
		</g>
		<g>
			<g>
				
					<line fill="none" stroke="#000000" stroke-width="0.75" stroke-linejoin="round" x1="272.283" y1="211.575" x2="282.072" y2="211.575"/>
				<g>
					<polygon points="280.586,213.754 288.717,211.575 280.586,209.396 					"/>
				</g>
			</g>
		</g>
		<g>
			<g>
				
					<line fill="none" stroke="#000000" stroke-width="0.75" stroke-linejoin="round" x1="272.283" y1="176.629" x2="352.86" y2="176.629"/>
				<g>
					<polygon points="351.374,178.809 359.505,176.629 351.374,174.45 					"/>
				</g>
			</g>
		</g>
		<g>
			<g>
				<polyline fill="none" stroke="#000000" stroke-width="0.75" stroke-linejoin="round" points="65.762,34.553 65.762,69.479 
					70.536,69.479 				"/>
				<g>
					<polygon points="69.05,71.658 77.181,69.479 69.05,67.3 					"/>
				</g>
			</g>
		</g>
		<g>
			<g>
				<polyline fill="none" stroke="#000000" stroke-width="0.75" stroke-linejoin="round" points="65.762,68.829 65.762,103.754 
					70.536,103.754 				"/>
				<g>
					<polygon points="69.05,105.934 77.181,103.754 69.05,101.575 					"/>
				</g>
			</g>
		</g>
		<g>
			<g>
				<polyline fill="none" stroke="#000000" stroke-width="0.75" stroke-linejoin="round" points="65.762,103.104 65.762,143.959 
					70.536,143.959 				"/>
				<g>
					<polygon points="69.05,146.138 77.181,143.959 69.05,141.78 					"/>
				</g>
			</g>
		</g>
		<g>
			<g>
				<polyline fill="none" stroke="#000000" stroke-width="0.75" stroke-linejoin="round" points="206.222,144.014 206.222,176.629 
					210.964,176.629 				"/>
				<g>
					<polygon points="209.478,178.809 217.608,176.629 209.478,174.45 					"/>
				</g>
			</g>
		</g>
		<g>
			<g>
				<polyline fill="none" stroke="#000000" stroke-width="0.75" stroke-linejoin="round" points="206.222,176.206 206.222,211.132 
					210.996,211.132 				"/>
				<g>
					<polygon points="209.51,213.311 217.641,211.132 209.51,208.953 					"/>
				</g>
			</g>
		</g>
		<g>
			<g>
				<polyline fill="none" stroke="#000000" stroke-width="0.75" stroke-linejoin="round" points="277.304,247.156 277.304,282.543 
					282.045,282.543 				"/>
				<g>
					<polygon points="280.559,284.723 288.689,282.543 280.559,280.364 					"/>
				</g>
			</g>
		</g>
		<g>
			<path fill="#CCDEF0" d="M288.717,206.304c0-1.98,1.62-3.6,3.6-3.6h47.358c1.979,0,3.6,1.62,3.6,3.6v10.81
				c0,1.98-1.62,3.6-3.6,3.6h-47.358c-1.979,0-3.6-1.62-3.6-3.6V206.304z"/>
			
				<path fill="none" stroke="#010101" stroke-width="0.75" stroke-linecap="round" stroke-linejoin="round" stroke-miterlimit="1" d="
				M288.717,206.304c0-1.98,1.62-3.6,3.6-3.6h47.358c1.979,0,3.6,1.62,3.6,3.6v10.81c0,1.98-1.62,3.6-3.6,3.6h-47.358
				c-1.979,0-3.6-1.62-3.6-3.6V206.304z"/>
		</g>
		<text transform="matrix(1 0 0 1 289.2246 199.3643)" font-size="7">TID 4108</text>
		<text transform="matrix(1 0 0 1 299.7656 209.7793)"><tspan x="0" y="0" font-size="6">Tracking</tspan><tspan x="0" y="7.2" font-size="6">Identifier</tspan></text>
		<g>
			<g>
				<polyline fill="none" stroke="#000000" stroke-width="0.75" stroke-linejoin="round" points="277.304,211.17 277.304,246.557 
					282.045,246.557 				"/>
				<g>
					<polygon points="280.559,248.736 288.689,246.557 280.559,244.378 					"/>
				</g>
			</g>
		</g>
		<g>
			<g>
				<polyline fill="none" stroke="#000000" stroke-width="0.75" stroke-linejoin="round" points="277.304,282.12 277.304,317.57 
					282.078,317.57 				"/>
				<g>
					<polygon points="280.592,319.749 288.723,317.57 280.592,315.392 					"/>
				</g>
			</g>
		</g>
		<g>
			<g>
				<polyline fill="none" stroke="#000000" stroke-width="0.75" stroke-linejoin="round" points="277.304,317.665 277.304,352.672 
					282.045,352.672 				"/>
				<g>
					<polygon points="280.559,354.851 288.689,352.672 280.559,350.493 					"/>
				</g>
			</g>
		</g>
		<g>
			<g>
				<polyline fill="none" stroke="#000000" stroke-width="0.75" stroke-linejoin="round" points="277.304,352.453 277.304,387.231 
					282.078,387.231 				"/>
				<g>
					<polygon points="280.592,389.41 288.723,387.231 280.592,385.053 					"/>
				</g>
			</g>
		</g>
		<g>
			<g>
				
					<line fill="none" stroke="#000000" stroke-width="0.75" stroke-linejoin="round" x1="414.28" y1="317.796" x2="424.069" y2="317.796"/>
				<g>
					<polygon points="422.583,319.975 430.714,317.796 422.583,315.617 					"/>
				</g>
			</g>
		</g>
		<g>
			<g>
				
					<line fill="none" stroke="#000000" stroke-width="0.75" stroke-linejoin="round" x1="414.28" y1="247.695" x2="424.069" y2="247.695"/>
				<g>
					<polygon points="422.583,249.874 430.714,247.695 422.583,245.517 					"/>
				</g>
			</g>
		</g>
		<g>
			<g>
				
					<line fill="none" stroke="#000000" stroke-width="0.75" stroke-linejoin="round" x1="414.28" y1="211.709" x2="424.069" y2="211.709"/>
				<g>
					<polygon points="422.583,213.888 430.714,211.709 422.583,209.53 					"/>
				</g>
			</g>
		</g>
		<g>
			<g>
				
					<line fill="none" stroke="#000000" stroke-width="0.75" stroke-linejoin="round" x1="343.565" y1="631.438" x2="353.354" y2="631.438"/>
				<g>
					<polygon points="351.868,633.617 359.999,631.438 351.868,629.26 					"/>
				</g>
			</g>
		</g>
		<g>
			<g>
				<polyline fill="none" stroke="#000000" stroke-width="0.75" stroke-linejoin="round" points="419.301,317.799 419.301,353.185 
					424.042,353.185 				"/>
				<g>
					<polygon points="422.556,355.363 430.687,353.185 422.556,351.006 					"/>
				</g>
			</g>
		</g>
		<g>
			<g>
				<polyline fill="none" stroke="#000000" stroke-width="0.75" stroke-linejoin="round" points="419.301,352.762 419.301,388.212 
					424.075,388.212 				"/>
				<g>
					<polygon points="422.589,390.391 430.72,388.212 422.589,386.033 					"/>
				</g>
			</g>
		</g>
		<g>
			<g>
				<polyline fill="none" stroke="#000000" stroke-width="0.75" stroke-linejoin="round" points="348.3,176.706 348.3,211.132 
					353.041,211.132 				"/>
				<g>
					<polygon points="351.555,213.311 359.686,211.132 351.555,208.953 					"/>
				</g>
			</g>
		</g>
		<g>
			<g>
				<polyline fill="none" stroke="#000000" stroke-width="0.75" stroke-linejoin="round" points="348.3,211.003 348.3,246.676 
					353.074,246.676 				"/>
				<g>
					<polygon points="351.588,248.854 359.719,246.676 351.588,244.497 					"/>
				</g>
			</g>
		</g>
		<g>
			<g>
				<polyline fill="none" stroke="#000000" stroke-width="0.75" stroke-linejoin="round" points="348.3,247.215 348.3,282.126 
					353.041,282.126 				"/>
				<g>
					<polygon points="351.555,284.305 359.686,282.126 351.555,279.947 					"/>
				</g>
			</g>
		</g>
		<g>
			<g>
				<polyline fill="none" stroke="#000000" stroke-width="0.75" stroke-linejoin="round" points="348.3,281.978 348.3,316.889 
					353.041,316.889 				"/>
				<g>
					<polygon points="351.555,319.067 359.686,316.889 351.555,314.71 					"/>
				</g>
			</g>
		</g>
		<g>
			<g>
				<polyline fill="none" stroke="#000000" stroke-width="0.75" stroke-linejoin="round" points="277.304,387.153 277.304,422.331 
					282.045,422.331 				"/>
				<g>
					<polygon points="280.559,424.51 288.689,422.331 280.559,420.152 					"/>
				</g>
			</g>
		</g>
		<g>
			<g>
				<polyline fill="none" stroke="#000000" stroke-width="0.75" stroke-linejoin="round" points="277.304,422.271 277.304,458.795 
					282.078,458.795 				"/>
				<g>
					<polygon points="280.592,460.974 288.723,458.795 280.592,456.616 					"/>
				</g>
			</g>
		</g>
		<g>
			<g>
				<polyline fill="none" stroke="#000000" stroke-width="0.75" stroke-linejoin="round" points="277.304,458.898 277.304,491.992 
					282.045,491.992 				"/>
				<g>
					<polygon points="280.559,494.171 288.689,491.992 280.559,489.813 					"/>
				</g>
			</g>
		</g>
		<g>
			<g>
				<polyline fill="none" stroke="#000000" stroke-width="0.75" stroke-linejoin="round" points="277.304,492.019 277.304,527.092 
					282.078,527.092 				"/>
				<g>
					<polygon points="280.592,529.271 288.723,527.092 280.592,524.913 					"/>
				</g>
			</g>
		</g>
		<g>
			<g>
				<polyline fill="none" stroke="#000000" stroke-width="0.75" stroke-linejoin="round" points="277.304,527.231 277.304,562.192 
					282.045,562.192 				"/>
				<g>
					<polygon points="280.559,564.371 288.689,562.192 280.559,560.014 					"/>
				</g>
			</g>
		</g>
		<g>
			<g>
				<polyline fill="none" stroke="#000000" stroke-width="0.75" stroke-linejoin="round" points="277.304,562.057 277.304,596.753 
					282.078,596.753 				"/>
				<g>
					<polygon points="280.592,598.932 288.723,596.753 280.592,594.574 					"/>
				</g>
			</g>
		</g>
		<g>
			<g>
				<polyline fill="none" stroke="#000000" stroke-width="0.75" stroke-linejoin="round" points="277.304,596.721 277.304,631.853 
					282.045,631.853 				"/>
				<g>
					<polygon points="280.559,634.031 288.689,631.853 280.559,629.674 					"/>
				</g>
			</g>
		</g>
	</g>
</g>
</svg>
