<svg xmlns="http://www.w3.org/2000/svg" xmlns:xlink="http://www.w3.org/1999/xlink" width="147" height="50" viewBox="0 0 147 50">
  <defs>
    <clipPath id="clip-Mirabelle_39">
      <rect width="147" height="50"/>
    </clipPath>
  </defs>
  <g id="Mirabelle_39" data-name="Mirabelle – 39" clip-path="url(#clip-Mirabelle_39)">
    <g id="Group_26" data-name="Group 26" transform="translate(0 10.484)">
      <path id="Subtraction_4" data-name="Subtraction 4" d="M13.144,18.251a6.658,6.658,0,0,1-2.438-.464,6.672,6.672,0,0,1-2.318.418,6.829,6.829,0,0,1-1.3-.126,6.19,6.19,0,0,1-1.856-.463,7.4,7.4,0,0,1-2.112-1.363,8.91,8.91,0,0,1-1.7-2.111,10.313,10.313,0,0,1-1.1-2.726A10.666,10.666,0,0,1,.006,8.486C-.006,4.4,2.362,1,5.765.216A6.641,6.641,0,0,1,7.256.046,6.986,6.986,0,0,1,9.75.515c.561.334,5.452,3.48,4.55,10.958A7.871,7.871,0,0,0,15.576,7.7a7.948,7.948,0,0,0-.568-3.536A5.856,5.856,0,0,0,11.2.5,6.792,6.792,0,0,1,13.756,0a6.672,6.672,0,0,1,.807.049c4.235.52,7.18,5.015,6.566,10.019a10.111,10.111,0,0,1-2.738,5.851A7.385,7.385,0,0,1,13.144,18.251Z" transform="translate(0 6.782)"/>
      <path id="Exclusion_2" data-name="Exclusion 2" d="M9.335,2.054C5,6.072,0,1.86,0,1.86S5.073-2.452,9.335,2.054Z" transform="matrix(0.966, 0.259, -0.259, 0.966, 1.627, 0)"/>
    </g>
    <path id="Path_58" data-name="Path 58" d="M2.075-16.553H6.03l5.725,11.3,5.64-11.3h3.87V0H17.212V-10.791L11.8,0H10.242L4.651-10.913V0H2.075Zm23.242,5.188,2.661-1.392h1.135V0h-3.8Zm-.159-5.493a1.69,1.69,0,0,1,.159-.72,1.736,1.736,0,0,1,.439-.586,2.251,2.251,0,0,1,.647-.391A2.117,2.117,0,0,1,27.2-18.7a2.164,2.164,0,0,1,.8.146,2.146,2.146,0,0,1,.647.391,1.774,1.774,0,0,1,.433.586,1.69,1.69,0,0,1,.159.72,1.65,1.65,0,0,1-.159.714,1.792,1.792,0,0,1-.433.58,2.146,2.146,0,0,1-.647.391,2.164,2.164,0,0,1-.8.146,2.117,2.117,0,0,1-.793-.146,2.251,2.251,0,0,1-.647-.391,1.754,1.754,0,0,1-.439-.58A1.65,1.65,0,0,1,25.159-16.858ZM40.991-9.875q-.256-.22-.47-.378a2.485,2.485,0,0,0-.421-.256,1.8,1.8,0,0,0-.433-.14,2.737,2.737,0,0,0-.507-.043,2.382,2.382,0,0,0-.769.128,2.883,2.883,0,0,0-.708.354,3.163,3.163,0,0,0-.592.525,2.408,2.408,0,0,0-.409.641V0H32.9V-11.365l2.649-1.392,1.135,1.221a5.213,5.213,0,0,1,1.385-1.038,3.476,3.476,0,0,1,1.605-.391,3.208,3.208,0,0,1,1.477.336,6.26,6.26,0,0,1,1.147.739Zm8.691,3.43a9.493,9.493,0,0,0-1.111.562,5.9,5.9,0,0,0-1.007.739,3.84,3.84,0,0,0-.732.9,2.07,2.07,0,0,0-.287,1.056,1.394,1.394,0,0,0,.323.977,1.124,1.124,0,0,0,.873.354,1.745,1.745,0,0,0,.916-.275,11.861,11.861,0,0,0,1.025-.714ZM42.749-9.326a3.873,3.873,0,0,1,.684-1.422,4.4,4.4,0,0,1,1.215-1.086,6.111,6.111,0,0,1,1.66-.69,7.968,7.968,0,0,1,2.02-.244,9.658,9.658,0,0,1,2.319.244,4.752,4.752,0,0,1,1.605.69,2.773,2.773,0,0,1,.928,1.074,3.241,3.241,0,0,1,.3,1.41V-2.2a1.9,1.9,0,0,0,.476,1.306A3.553,3.553,0,0,0,55.3,0H50.806a.726.726,0,0,1-.378-.11A1.287,1.287,0,0,1,50.1-.4a2.259,2.259,0,0,1-.256-.385,1.8,1.8,0,0,1-.159-.4q-.342.317-.647.58a3.263,3.263,0,0,1-.671.446,3.65,3.65,0,0,1-.818.287,4.919,4.919,0,0,1-1.086.1A4.645,4.645,0,0,1,44.9-.012,3.453,3.453,0,0,1,43.732-.69a2.927,2.927,0,0,1-.739-1.025A3.206,3.206,0,0,1,42.737-3a2.912,2.912,0,0,1,.6-1.843,5.448,5.448,0,0,1,1.581-1.343,12.38,12.38,0,0,1,2.228-1q1.245-.427,2.539-.818V-9.229a3.7,3.7,0,0,0-.122-1.019,1.857,1.857,0,0,0-.342-.684,1.254,1.254,0,0,0-.531-.378,1.962,1.962,0,0,0-.69-.116,1.83,1.83,0,0,0-.806.171,1.9,1.9,0,0,0-.61.464,2.449,2.449,0,0,0-.415.671,3.714,3.714,0,0,0-.232.793Zm14.88-8.154L60.3-18.872h1.135v7.239a7.478,7.478,0,0,1,1.6-.781,5.026,5.026,0,0,1,1.672-.305,5.2,5.2,0,0,1,2.161.446,5.34,5.34,0,0,1,1.709,1.208A5.542,5.542,0,0,1,69.7-9.29a5.761,5.761,0,0,1,.4,2.148,7.276,7.276,0,0,1-.256,1.935,7.467,7.467,0,0,1-.726,1.752,7.638,7.638,0,0,1-1.129,1.5A7.074,7.074,0,0,1,66.528-.787,7.355,7.355,0,0,1,64.8-.037a6.838,6.838,0,0,1-1.923.269,9.964,9.964,0,0,1-2.826-.4,6.935,6.935,0,0,1-2.423-1.263ZM61.438-2.258q.2.171.4.33a3.1,3.1,0,0,0,.439.281,2.461,2.461,0,0,0,.5.2,2.222,2.222,0,0,0,.586.073,1.892,1.892,0,0,0,1.154-.385,3.228,3.228,0,0,0,.891-1.062,5.947,5.947,0,0,0,.574-1.6,9.282,9.282,0,0,0,.2-1.984,5.249,5.249,0,0,0-.208-1.5,4.406,4.406,0,0,0-.568-1.233,2.858,2.858,0,0,0-.848-.836,1.925,1.925,0,0,0-1.038-.305,2.307,2.307,0,0,0-1.1.311,3.535,3.535,0,0,0-.989.787ZM78.418.281a6.371,6.371,0,0,1-2.5-.494,6.6,6.6,0,0,1-2.039-1.331A6.35,6.35,0,0,1,72.5-3.485,5.543,5.543,0,0,1,72-5.823a7.892,7.892,0,0,1,.464-2.74,6.5,6.5,0,0,1,1.318-2.191A6.009,6.009,0,0,1,75.824-12.2a6.577,6.577,0,0,1,2.655-.519,6.653,6.653,0,0,1,2.393.415,5.674,5.674,0,0,1,1.862,1.135,5.059,5.059,0,0,1,1.2,1.7,5.15,5.15,0,0,1,.427,2.087H75.708a8.884,8.884,0,0,0,.311,1.978,6.449,6.449,0,0,0,.7,1.654,3.829,3.829,0,0,0,1.031,1.135,2.213,2.213,0,0,0,1.312.421,3.656,3.656,0,0,0,1.227-.214A4.368,4.368,0,0,0,81.409-3a4.288,4.288,0,0,0,.891-.867,3.293,3.293,0,0,0,.549-1.068l1.929.305a6.189,6.189,0,0,1-.934,1.9,7.6,7.6,0,0,1-1.5,1.563A7.161,7.161,0,0,1,80.469-.1,5.739,5.739,0,0,1,78.418.281Zm1.6-8.96a3.413,3.413,0,0,0-.238-1.007,2.759,2.759,0,0,0-.482-.787,2.025,2.025,0,0,0-.684-.507,2.017,2.017,0,0,0-.842-.177,1.5,1.5,0,0,0-.7.177,2.039,2.039,0,0,0-.616.5,2.919,2.919,0,0,0-.464.781,3.706,3.706,0,0,0-.25,1.019ZM91.3,0H87.524V-17.48l2.637-1.392H91.3Zm7.385,0H94.91V-17.48l2.637-1.392h1.135Zm9.253.281a6.371,6.371,0,0,1-2.5-.494,6.6,6.6,0,0,1-2.039-1.331,6.35,6.35,0,0,1-1.373-1.941,5.543,5.543,0,0,1-.507-2.338,7.892,7.892,0,0,1,.464-2.74,6.5,6.5,0,0,1,1.318-2.191,6.009,6.009,0,0,1,2.045-1.447A6.577,6.577,0,0,1,108-12.72a6.653,6.653,0,0,1,2.393.415,5.674,5.674,0,0,1,1.862,1.135,5.059,5.059,0,0,1,1.2,1.7,5.15,5.15,0,0,1,.427,2.087h-8.655a8.884,8.884,0,0,0,.311,1.978,6.449,6.449,0,0,0,.7,1.654,3.829,3.829,0,0,0,1.031,1.135,2.213,2.213,0,0,0,1.312.421,3.656,3.656,0,0,0,1.227-.214A4.368,4.368,0,0,0,110.925-3a4.288,4.288,0,0,0,.891-.867,3.293,3.293,0,0,0,.549-1.068l1.929.305a6.189,6.189,0,0,1-.934,1.9,7.6,7.6,0,0,1-1.5,1.563A7.161,7.161,0,0,1,109.985-.1,5.739,5.739,0,0,1,107.935.281Zm1.6-8.96a3.413,3.413,0,0,0-.238-1.007,2.759,2.759,0,0,0-.482-.787,2.025,2.025,0,0,0-.684-.507,2.017,2.017,0,0,0-.842-.177,1.5,1.5,0,0,0-.7.177,2.039,2.039,0,0,0-.616.5,2.919,2.919,0,0,0-.464.781,3.706,3.706,0,0,0-.25,1.019Z" transform="translate(29 33)"/>
  </g>
</svg>
