<svg xmlns="http://www.w3.org/2000/svg" xmlns:xlink="http://www.w3.org/1999/xlink" width="147" height="50" viewBox="0 0 147 50"><defs><clipPath id="b"><rect width="147" height="50"/></clipPath></defs><g id="a" clip-path="url(#b)"><g transform="translate(0 10.484)"><path d="M13.144,18.251a6.658,6.658,0,0,1-2.438-.464,6.672,6.672,0,0,1-2.318.418,6.829,6.829,0,0,1-1.3-.126,6.19,6.19,0,0,1-1.856-.463,7.4,7.4,0,0,1-2.112-1.363,8.91,8.91,0,0,1-1.7-2.111,10.313,10.313,0,0,1-1.1-2.726A10.666,10.666,0,0,1,.006,8.486C-.006,4.4,2.362,1,5.765.216A6.641,6.641,0,0,1,7.256.046,6.986,6.986,0,0,1,9.75.515c.561.334,5.452,3.48,4.55,10.958A7.871,7.871,0,0,0,15.576,7.7a7.948,7.948,0,0,0-.568-3.536A5.856,5.856,0,0,0,11.2.5,6.792,6.792,0,0,1,13.756,0a6.672,6.672,0,0,1,.807.049c4.235.52,7.18,5.015,6.566,10.019a10.111,10.111,0,0,1-2.738,5.851A7.385,7.385,0,0,1,13.144,18.251Z" transform="translate(0 6.782)"/><path d="M9.335,2.054C5,6.072,0,1.86,0,1.86S5.073-2.452,9.335,2.054Z" transform="matrix(0.966, 0.259, -0.259, 0.966, 1.627, 0)"/></g><text transform="translate(29 33)" font-size="25" font-family="SinhalaMN-Bold, Sinhala MN" font-weight="700"><tspan x="0" y="0">Mirabelle</tspan></text></g></svg>